<svg xmlns="http://www.w3.org/2000/svg" xmlns:xlink="http://www.w3.org/1999/xlink" viewBox="0 0 1920 1080"><defs><style>.cls-1,.cls-13,.cls-15,.cls-20,.cls-21,.cls-22,.cls-23,.cls-25,.cls-27,.cls-28{fill:none;}.cls-2{isolation:isolate;}.cls-3{fill:#fff;}.cls-4{fill:#2f4962;}.cls-10,.cls-5{opacity:0.5;}.cls-6{opacity:0.15;}.cls-7{clip-path:url(#clip-path);}.cls-8{fill:#2e5777;}.cls-10,.cls-9{mix-blend-mode:multiply;}.cls-11{fill:url(#linear-gradient);}.cls-12{fill:#e2ac35;}.cls-13{stroke:#e2ac35;stroke-width:3.04px;}.cls-13,.cls-15,.cls-20,.cls-21,.cls-22,.cls-23,.cls-27,.cls-28{stroke-miterlimit:10;}.cls-14{fill:#3176a9;}.cls-15{stroke:#e5af34;stroke-width:1.13px;}.cls-16{fill:#e5af34;}.cls-17{fill:#5da4a0;}.cls-18{fill:#9b5e33;}.cls-19{fill:#b27337;}.cls-20,.cls-22,.cls-25,.cls-28{stroke:#fff;}.cls-20{stroke-width:1.74px;stroke-dasharray:21.45 24.52;}.cls-21{stroke:#5da4a0;stroke-width:0.68px;}.cls-22{stroke-width:0.72px;}.cls-23{stroke:#e3ae35;stroke-width:2.32px;}.cls-24{fill:#e3ae35;}.cls-25{stroke-linecap:round;stroke-linejoin:round;stroke-width:9.27px;}.cls-26{fill:#e3aa35;}.cls-27{stroke:#2f4962;stroke-width:1.35px;}.cls-28{stroke-width:1.21px;}</style><clipPath id="clip-path"><rect class="cls-1" x="183.99" width="1609.31" height="1038.83"/></clipPath><linearGradient id="linear-gradient" x1="270.97" y1="568.76" x2="1675.9" y2="568.76" gradientUnits="userSpaceOnUse"><stop offset="0" stop-color="#335471"/><stop offset="1" stop-color="#396589"/></linearGradient></defs><title>1</title><g class="cls-2"><g id="Layer_1" data-name="Layer 1"><rect class="cls-3" x="0.5" y="0.5" width="1919" height="1079"/><path d="M1919,1V1079H1V1H1919m1-1H0V1080H1920V0Z"/><rect class="cls-4" width="1920" height="1080"/><g class="cls-5"><g class="cls-6"><g class="cls-7"><ellipse class="cls-8" cx="978.77" cy="607.57" rx="470.29" ry="459.83"/><g class="cls-9"><path class="cls-8" d="M1002.34,1219.35c7.22-43.85-21-87.39-15.6-131.48,4-32.85,26-60.61,38.07-91.54a90.71,90.71,0,0,0,3.62-56,1.8,1.8,0,0,1,1.48-2.21,338.55,338.55,0,0,0,52.92-12.89,1.86,1.86,0,0,1,1.93.46c2.8,2.91,5.48,5.91,8,9a115.8,115.8,0,0,1,14.85,23.44,123.81,123.81,0,0,1,8.92,26.4c.45,2.31,1,4.61,1.38,6.93l1.07,7,1.83,14.67c.6,4.93,1.31,9.93,2.1,14.93s1.77,10,3,15a149.46,149.46,0,0,0,10.19,29.28,152.35,152.35,0,0,0,12.31,21.14,6.6,6.6,0,0,0,9.17,1.61h0a5.87,5.87,0,0,0,1.55-8.06,140.74,140.74,0,0,1-10.93-20,135.79,135.79,0,0,1-8.52-27c-1-4.63-1.73-9.36-2.41-14.11s-1.16-9.57-1.62-14.46l-1.41-14.77-.94-7.66c-.37-2.55-.86-5.09-1.29-7.65a139.81,139.81,0,0,0-9.2-30,132.21,132.21,0,0,0-16.2-27.24c-1.06-1.38-2.14-2.75-3.25-4.09a1.79,1.79,0,0,1,.72-2.8,333.8,333.8,0,0,0,39.24-19.07,1.83,1.83,0,0,1,1.43-.17c19.54,5.68,41,9.46,59.47,25.23,23.32,19.88,29.54,48.55,46.82,72.87,22.25,31.3,48,32.83,89.94,56.1,34.76,19.3,43.11,52.5,68.9,80.65,23.16,25.26,44.54,42.17,76.11,49.27a1.81,1.81,0,0,0,1.65-3.1c-20.78-18.61-28.88-48-33.59-75.68-5.11-30-8.44-61.83-26.65-86.47-26.61-36-78.07-47.26-106.12-82.19-20.9-26-25.42-60.86-39.28-91a93,93,0,0,0-32.33-38.51,1.77,1.77,0,0,1-.47-2.5q7.13-10,13.38-20.35a1.86,1.86,0,0,1,2.66-.55l0,0a137.08,137.08,0,0,0,28.1,15.4,148.21,148.21,0,0,0,30.8,8.52c2.62.38,5.23.82,7.84,1.14l7.84.8L1355,809c5,.37,9.92.83,14.82,1.35s9.71,1.22,14.46,2.13a144.19,144.19,0,0,1,27.68,7.9,146.08,146.08,0,0,1,20.57,10.35,6.3,6.3,0,0,0,8.35-1.75h0a6.12,6.12,0,0,0-1.74-8.72,151.67,151.67,0,0,0-52-21.29c-5.13-1.13-10.28-1.95-15.41-2.7s-10.25-1.31-15.3-1.82l-15-1.56-7.2-.93c-2.38-.37-4.74-.83-7.1-1.24a130.69,130.69,0,0,1-27.14-8.3,119.46,119.46,0,0,1-24.2-14.15c-.8-.6-1.59-1.22-2.37-1.84a1.76,1.76,0,0,1-.48-2.21A319.15,319.15,0,0,0,1297,702.73a1.84,1.84,0,0,1,2.18-1.28,96.58,96.58,0,0,0,52.84-3.41c31.89-11.09,60.74-32,94.42-35.24,45.21-4.36,89.12,24.19,134.12,18.07,30.79-4.19,56.61-23.86,82.29-41,23.67-15.79,51-30.44,79.14-28.65a1.79,1.79,0,0,0,1.14-3.3c-27.08-17.38-54.36-20.78-89-19.65-38.63,1.26-68.92,18.33-107.22,7.14-46.2-13.5-65.15-30.64-103.66-24.69-29.91,4.62-55.39,20-86.21,17.35-20.57-1.81-36.33-11-51.37-19.72a1.77,1.77,0,0,1-.86-1.26,320.19,320.19,0,0,0-18.36-67.36,1.75,1.75,0,0,1,.6-2.08,118.66,118.66,0,0,1,21.26-12.5,131.25,131.25,0,0,1,27-8.72c2.37-.44,4.71-.94,7.09-1.34l7.18-1.05,15-1.79c5.05-.59,10.16-1.28,15.27-2.05s10.25-1.74,15.37-2.94a158.24,158.24,0,0,0,29.94-10,161,161,0,0,0,25.59-14.74,1.78,1.78,0,0,0,.42-2.51l-5.11-7a1.86,1.86,0,0,0-2.53-.44,147.67,147.67,0,0,1-23.79,12.84,143.73,143.73,0,0,1-27.56,8.33c-4.74,1-9.57,1.7-14.43,2.35s-9.8,1.14-14.8,1.59l-15.1,1.38L1340,460c-2.61.36-5.22.84-7.82,1.26a147.72,147.72,0,0,0-30.67,9,135,135,0,0,0-20.74,10.95,1.85,1.85,0,0,1-2.68-.74,321.7,321.7,0,0,0-23.63-41.63,1.74,1.74,0,0,1-.23-1.45c5.29-18.15,9.62-37.69,24.77-54.67,20.34-22.79,49.66-28.88,74.53-45.78,32-21.75,33.57-46.94,57.38-87.93,19.74-34,53.69-42.15,82.47-67.37,25.84-22.64,43.13-43.55,50.4-74.42a1.84,1.84,0,0,0-3.17-1.61c-19,20.32-49.15,28.23-77.41,32.84-30.67,5-63.23,8.25-88.43,26.06-36.81,26-48.33,76.33-84.06,103.76-26.61,20.43-62.24,24.86-93.11,38.41a94.06,94.06,0,0,0-41.43,34.58,1.86,1.86,0,0,1-2.53.54q-10.77-6.66-22-12.45a1.77,1.77,0,0,1-.67-2.59,130.91,130.91,0,0,0,12.76-23.27,139.42,139.42,0,0,0,8.71-30.11c.39-2.56.84-5.11,1.17-7.67l.82-7.67,1.17-14.79c.38-4.89.85-9.69,1.39-14.48s1.24-9.5,2.17-14.14a135.88,135.88,0,0,1,8.09-27.07,142.29,142.29,0,0,1,12.75-23.46,1.77,1.77,0,0,0-.49-2.47l-7.22-4.88a1.87,1.87,0,0,0-2.56.45,155.41,155.41,0,0,0-14.66,25.25,148.55,148.55,0,0,0-9.72,29.42c-1.16,5-2,10.05-2.77,15.07s-1.34,10-1.86,15l-1.59,14.7-1,7c-.37,2.33-.84,4.63-1.26,6.95a123.85,123.85,0,0,1-8.49,26.53,115.29,115.29,0,0,1-13.63,22.57l-2.22.55A337.21,337.21,0,0,0,1051.27,300a1.8,1.8,0,0,1-1.35-2.29,90.89,90.89,0,0,0-1.36-59.52c-11.35-31.17-32.73-59.38-36-92.31-4.45-44.2,24.75-87.14,18.49-131.13-4.28-30.11-24.4-55.35-41.92-80.47C972.93-88.82,958-115.55,959.78-143a1.85,1.85,0,0,0-3.38-1.12C938.63-117.69,935.15-91,936.3-57.11c1.29,37.77,18.75,67.39,7.3,104.83-13.81,45.17-31.33,63.7-25.25,101.35,4.72,29.25,20.5,54.16,17.74,84.29-2.45,26.66-18.13,45-28.48,64.49a1.85,1.85,0,0,1-1.24.92,337.9,337.9,0,0,0-34,8.92,1.82,1.82,0,0,1-2.39-1.44l-.27-1.75a130.59,130.59,0,0,0-8.67-30.34,141.32,141.32,0,0,0-15.56-27.36c-1.57-2.07-3.09-4.19-4.7-6.23l-5-6L826,223.28c-3.27-3.73-6.4-7.46-9.48-11.22s-6-7.59-8.66-11.52a137.63,137.63,0,0,1-13.8-24.76,140.9,140.9,0,0,1-7.89-25.43,1.85,1.85,0,0,0-2.13-1.41l-8.64,1.52a1.81,1.81,0,0,0-1.49,2.09,153.35,153.35,0,0,0,7.83,28,150.46,150.46,0,0,0,14.34,27.55c2.8,4.35,5.84,8.5,8.92,12.59s6.27,8,9.47,11.88L824,244.1l4.4,5.64c1.42,1.91,2.74,3.87,4.12,5.8a124.68,124.68,0,0,1,13.12,24.66A114,114,0,0,1,852.44,307c.27,2.05.49,4.12.66,6.19a1.8,1.8,0,0,1-1.16,1.81,333.65,333.65,0,0,0-51.24,25.34,1.87,1.87,0,0,1-2.66-.81c-10-22.05-26-38.13-47.49-48.12C720,277.16,684.46,272,658.3,251c-35.11-28.17-45.52-78.72-81.76-105.5-24.8-18.33-57.28-22.27-87.83-27.91-28.16-5.2-58.08-13.75-76.67-34.46a1.84,1.84,0,0,0-3.2,1.54c6.58,31,23.41,52.28,48.74,75.46,28.23,25.82,62,34.7,81,69.09,22.9,41.48,23.9,66.7,55.44,89.12,24.49,17.42,53.67,24.12,73.5,47.34,19.68,23,20.07,50.21,29.19,72.76a1.74,1.74,0,0,1-.17,1.64,320.9,320.9,0,0,0-27.78,51.47,1.81,1.81,0,0,1-1.7,1.11,147.67,147.67,0,0,1-15.91-.87,121.24,121.24,0,0,1-27.47-6.24,130.21,130.21,0,0,1-25.43-12.45c-2-1.32-4-2.58-6-3.94L586.4,465l-11.93-9.09c-4-3.06-8.12-6.09-12.3-9.07s-8.52-5.85-13-8.52a156.48,156.48,0,0,0-28.41-13.59A162,162,0,0,0,492,417.47a1.83,1.83,0,0,0-2.1,1.49l-1.42,8.47a1.79,1.79,0,0,0,1.47,2.05,150.52,150.52,0,0,1,26.13,7.32,142.91,142.91,0,0,1,25.54,13.11c4.07,2.57,8,5.4,11.92,8.28s7.76,6,11.63,9.09l11.7,9.44,6.22,4.75c2.11,1.54,4.3,3,6.45,4.5a145.89,145.89,0,0,0,28.22,14.78,138.25,138.25,0,0,0,31.17,8q5.11.71,10.25,1.08a1.8,1.8,0,0,1,1.61,2.37q-3.39,9.78-6.13,19.71a1.81,1.81,0,0,1-1.2,1.23c-25.25,8.15-46.31,29.47-79.3,31.67-30.87,2.05-56-13.91-85.81-19.16-38.37-6.75-57.69,10-104.17,22.52-38.53,10.38-68.45-7.32-107-9.38-34.65-1.86-62,1-89.45,17.78a1.79,1.79,0,0,0,1.07,3.32c28.16-1.2,55.17,14,78.49,30.3,25.3,17.66,50.68,37.87,81.38,42.7C393.44,660,438,632.33,483.08,637.64c33.6,4,62,25.45,93.62,37.21,22.58,8.4,45.86,8.42,69.42-.13a1.84,1.84,0,0,1,2.46,1.36,320,320,0,0,0,9.47,37.65,1.79,1.79,0,0,1-1.66,2.32c-5.55.29-11.11.84-16.65,1.69a138.24,138.24,0,0,0-31,8.47,146.67,146.67,0,0,0-28,15.21c-2.12,1.54-4.29,3-6.37,4.6l-6.14,4.85-11.55,9.62c-3.81,3.19-7.62,6.25-11.47,9.26s-7.76,5.83-11.79,8.47a142.39,142.39,0,0,1-25.32,13.49,148.83,148.83,0,0,1-26,7.72,1.79,1.79,0,0,0-1.44,2.08L482.2,810a1.83,1.83,0,0,0,2.13,1.45A162.45,162.45,0,0,0,513,803.76a156.85,156.85,0,0,0,28.18-14C545.61,787,549.85,784,554,781s8.2-6.14,12.15-9.26L578,762.49l5.78-4.3c2-1.39,4-2.68,5.92-4a130.18,130.18,0,0,1,25.22-12.83,120.73,120.73,0,0,1,27.36-6.67,155,155,0,0,1,21.59-1.12,1.86,1.86,0,0,1,1.69,1.15,318.11,318.11,0,0,0,20,41.5,1.79,1.79,0,0,1-.92,2.55c-24,9.69-41.39,25.72-52,47.61-14.53,29.89-19.81,64.62-41.28,90.2-28.81,34.33-80.51,44.51-107.9,79.94-18.75,24.25-22.78,56-28.55,85.88-5.32,27.53-14.06,56.79-35.24,75a1.8,1.8,0,0,0,1.58,3.12c31.71-6.43,53.46-22.88,77.17-47.66,26.41-27.59,35.49-60.61,70.66-79.17,42.42-22.39,68.22-23.37,91.15-54.2C678,955.48,684.84,927,708.58,907.56c22.23-18.16,48.24-19.52,70.48-27.11a1.87,1.87,0,0,1,1.67.24,332,332,0,0,0,50.38,29.45,1.8,1.8,0,0,1,1,1.58,144.5,144.5,0,0,1-.86,19.77,113.66,113.66,0,0,1-6.38,26.86,124.79,124.79,0,0,1-12.74,24.86c-1.34,1.95-2.63,3.93-4,5.86l-4.31,5.71-9.29,11.66c-3.13,3.92-6.24,7.95-9.28,12s-6,8.33-8.71,12.73A150,150,0,0,0,762.65,1059a153.36,153.36,0,0,0-7.37,28.13,1.8,1.8,0,0,0,1.52,2.06l8.67,1.39a1.85,1.85,0,0,0,2.1-1.45,140.8,140.8,0,0,1,7.48-25.54,137.29,137.29,0,0,1,13.41-25c2.63-4,5.52-7.82,8.47-11.66s6.09-7.58,9.29-11.36l9.66-11.45,4.86-6.07c1.57-2.06,3.07-4.21,4.6-6.31a141.1,141.1,0,0,0,15.11-27.59,130.78,130.78,0,0,0,8.19-30.48c.61-4.25,1-8.52,1.29-12.78a1.84,1.84,0,0,1,2.52-1.57q14.77,5.76,29.95,10.08a1.83,1.83,0,0,1,1.15,1c9.78,20.93,26.74,40.23,28.7,68.47,2.11,30.18-14.22,54.75-19.59,83.89-6.9,37.52,10.21,56.41,23,101.86"/></g><g class="cls-10"><path class="cls-11" d="M767.84,1167.38c23.2-36.44,14.67-85.57,36.36-122.89,16.16-27.8,46.38-44.5,68.92-67.66a88.8,88.8,0,0,0,24.62-48.54,1.77,1.77,0,0,1,2.17-1.43A328.88,328.88,0,0,0,952,934.71a1.77,1.77,0,0,1,1.54,1.12q2.09,5.42,3.68,10.95a109.7,109.7,0,0,1,4.28,26.32,119.45,119.45,0,0,1-2.14,26.79c-.48,2.22-.9,4.46-1.43,6.68l-1.73,6.65-4,13.74c-1.35,4.62-2.62,9.33-3.83,14.08s-2.25,9.58-3.06,14.49a142.9,142.9,0,0,0-2.11,29.82,144.7,144.7,0,0,0,2.89,23.34,6.28,6.28,0,0,0,7.55,4.78h0a5.76,5.76,0,0,0,4.47-6.62A132.67,132.67,0,0,1,956,1085a130.67,130.67,0,0,1,2.71-27.13c.87-4.49,2-9,3.24-13.45s2.63-9,4.09-13.48l4.39-13.69,2.09-7.16c.64-2.41,1.18-4.86,1.77-7.29a134.26,134.26,0,0,0,3.26-30.08,126,126,0,0,0-4-30.2q-.63-2.43-1.34-4.84a1.74,1.74,0,0,1,1.71-2.22,325.21,325.21,0,0,0,42.27-2.67,1.77,1.77,0,0,1,1.33.38c15.24,12.2,32.92,23.41,43.36,44.22,13.18,26.24,7.77,54.07,13.87,82.05,7.86,36,30.24,46.81,58.71,82.88,23.6,29.9,3.54-3.48,15.76,31,11,31,4.59-39.31,30-21.45,1.49,1,40.39,29.36,39.62,27.73-11.4-24.19-31.42,42.87-25.06,16.53,6.91-28.6,37-25.14,30.19-53.75-9.94-41.81-51.51-70.65-63.15-112-8.68-30.83.61-63.53-.21-95.5a87.85,87.85,0,0,0-14.09-46.13,1.71,1.71,0,0,1,.55-2.4q10.15-6.3,19.7-13.25a1.79,1.79,0,0,1,2.57.49h0a129.21,129.21,0,0,0,19.17,24,139.62,139.62,0,0,0,24.19,18.85c2.18,1.3,4.35,2.64,6.55,3.89L1226,924l13,6.56c4.31,2.16,8.52,4.36,12.68,6.62s8.19,4.63,12.08,7.18a130.13,130.13,0,0,1,36,33.9,6.1,6.1,0,0,0,8.12,1.49h0a5.91,5.91,0,0,0,1.78-8.4,142.94,142.94,0,0,0-38.24-38c-4.15-2.88-8.42-5.49-12.71-8s-8.62-4.91-12.93-7.21l-12.8-6.88L1227,907.7c-2-1.19-3.91-2.47-5.86-3.69a124.17,124.17,0,0,1-21-17.32,112.29,112.29,0,0,1-16.16-21.46c-.48-.83-1-1.66-1.41-2.5a1.71,1.71,0,0,1,.42-2.15,316.15,316.15,0,0,0,45-45.93,1.8,1.8,0,0,1,2.43-.34,92.73,92.73,0,0,0,48.4,16.28c32.66,1.76,66.36-6.32,97.62,3.09,42,12.64,70.18,54.13,112.62,65.13,29,7.52,59.58-.58,89-6.46,27.13-5.42,57.09-8.49,81.48,3.4a1.76,1.76,0,0,0,2.28-2.53c-17.5-25.39-40.51-38.39-71.84-50.06-34.92-13-68.44-8.86-98.3-32.83-36-28.91-46.34-51.11-82.94-59.88-28.42-6.82-57-2.37-83.46-16.05-17.65-9.12-28.18-23.06-38.25-36.35a1.7,1.7,0,0,1-.29-1.43,307.47,307.47,0,0,0,9.39-66.75,1.74,1.74,0,0,1,1.34-1.64,115.93,115.93,0,0,1,23.72-3.36,127.33,127.33,0,0,1,27.4,2.1c2.27.47,4.56.88,6.83,1.39l6.8,1.69,14.06,3.89c4.72,1.32,9.54,2.57,14.39,3.75s9.81,2.2,14.82,3a153.11,153.11,0,0,0,30.5,2,158,158,0,0,0,28.44-3.77,1.74,1.74,0,0,0,1.33-2.09l-1.88-8.09a1.77,1.77,0,0,0-2.08-1.31,145,145,0,0,1-26.12,2.74,140.19,140.19,0,0,1-27.75-2.64c-4.59-.86-9.17-2-13.76-3.18s-9.16-2.57-13.79-4l-14-4.29-7.33-2c-2.46-.63-5-1.15-7.45-1.73a142.86,142.86,0,0,0-30.77-3.19,132.48,132.48,0,0,0-22.67,2.18,1.76,1.76,0,0,1-2.11-1.64,306,306,0,0,0-5.14-45.74,1.65,1.65,0,0,1,.35-1.38c11.65-14.24,23-30.07,43-39.66,26.84-12.89,55.3-7.59,83.92-13.56,36.85-7.69,47.87-29.57,84.76-57.4,30.59-23.08,64-17.95,99.26-29.9,31.69-10.74,55.09-23.05,73.36-47.91a1.75,1.75,0,0,0-2.2-2.59c-24.74,11.15-54.6,7.2-81.54,1-29.25-6.76-59.51-15.76-88.78-9.1-42.76,9.73-72.26,50.37-114.58,61.75-31.54,8.49-65-.59-97.67.2a92.84,92.84,0,0,0-50.14,15.68,1.8,1.8,0,0,1-2.47-.44q-7.05-9.89-14.8-19.12a1.71,1.71,0,0,1,.4-2.56A129.26,129.26,0,0,0,1244,402.87a138.15,138.15,0,0,0,19.28-23.65c1.32-2.14,2.7-4.25,4-6.41l3.66-6.53,6.7-12.75c2.21-4.22,4.46-8.34,6.77-12.41s4.74-8,7.35-11.8a133.46,133.46,0,0,1,17.55-21.17,140.89,140.89,0,0,1,20.34-16.25,1.72,1.72,0,0,0,.5-2.38l-4.57-7a1.79,1.79,0,0,0-2.45-.53,153.92,153.92,0,0,0-22.72,17.14,147.56,147.56,0,0,0-19.91,22.67c-3,4.05-5.62,8.23-8.23,12.42s-5,8.43-7.37,12.64l-7,12.52-3.54,5.92c-1.22,1.95-2.53,3.82-3.78,5.74a123.13,123.13,0,0,1-17.71,20.54,114.65,114.65,0,0,1-20.78,15.13l-2.19-.32a318.37,318.37,0,0,0-47-40.46,1.72,1.72,0,0,1-.32-2.53,88.5,88.5,0,0,0,21.54-53.54c1.81-31.93-6.46-64.89,3.17-95.45,12.93-41,55.37-68.62,66.61-110.11,7.69-28.4-.59-58.25-6.61-87-5.54-26.52-8.67-55.82,3.48-79.66a1.77,1.77,0,0,0-2.59-2.23c-26,17.1-39.26,39.6-51.19,70.24-13.3,34.13-9.06,66.91-33.58,96.1-29.57,35.21-52.27,45.31-61.25,81.09-7,27.8-2.43,55.77-16.41,81.61-12.38,22.86-33.38,33.52-50,47.06a1.77,1.77,0,0,1-1.45.37,329.36,329.36,0,0,0-33.68-4.46,1.73,1.73,0,0,1-1.58-2.15c.14-.56.29-1.11.43-1.67a125.92,125.92,0,0,0,3.87-30.21,134.19,134.19,0,0,0-3.41-30.06c-.6-2.43-1.15-4.87-1.81-7.28L996,228.87l-4.45-13.66c-1.48-4.52-2.85-9-4.15-13.46s-2.42-8.95-3.32-13.44a130.55,130.55,0,0,1-2.83-27.11,135.3,135.3,0,0,1,2.68-25.54,1.74,1.74,0,0,0-1.35-2l-8.28-1.8a1.79,1.79,0,0,0-2.13,1.31A148.23,148.23,0,0,0,968.39,161a143.56,143.56,0,0,0,2.25,29.81c.83,4.9,2,9.71,3.13,14.47s2.53,9.45,3.9,14.06l4,13.72,1.77,6.64c.53,2.22,1,4.45,1.45,6.67a118.89,118.89,0,0,1,2.28,26.78,109.77,109.77,0,0,1-4.16,26.33c-.54,1.93-1.14,3.85-1.78,5.76a1.76,1.76,0,0,1-1.72,1.19,327.22,327.22,0,0,0-55.36,3.85,1.76,1.76,0,0,1-2.05-1.69c-.5-23.31-8.58-43.48-23.93-60.24-21.82-23.83-51.5-41.42-66.79-69.68-20.52-38-10.47-86.8-32.53-123.91-15.1-25.41-42.54-40.79-67.61-57C708.17-17.2,684.77-35.75,676.12-61a1.79,1.79,0,0,0-3.44.21c-6,30.05.88,55.15,14.6,85.07,15.28,33.33,42,53.58,45.75,91.17,4.55,45.34-4.19,68.18,15.34,99.69,15.16,24.47,38.61,41.11,47.41,69.05,8.73,27.72-1.31,52.09-1.81,75.52a1.68,1.68,0,0,1-.77,1.39,318.73,318.73,0,0,0-44.44,35.73,1.82,1.82,0,0,1-1.94.37,144.13,144.13,0,0,1-13.85-6.6A114.83,114.83,0,0,1,710.88,375,122.83,122.83,0,0,1,693,354.6c-1.27-1.9-2.6-3.77-3.84-5.7L685.55,343l-7.16-12.46c-2.4-4.19-4.91-8.4-7.5-12.58s-5.35-8.32-8.34-12.35a147.26,147.26,0,0,0-20.12-22.49,155.17,155.17,0,0,0-22.89-16.95,1.8,1.8,0,0,0-2.44.56l-4.51,7a1.72,1.72,0,0,0,.53,2.37,141.61,141.61,0,0,1,20.49,16.07,134.12,134.12,0,0,1,17.75,21C654,317,656.43,321,658.82,325s4.64,8.15,6.89,12.35L672.53,350l3.72,6.5c1.29,2.15,2.69,4.25,4,6.38a138,138,0,0,0,19.5,23.48,131.44,131.44,0,0,0,24.72,18.52c2.86,1.67,5.78,3.23,8.73,4.71a1.72,1.72,0,0,1,.53,2.7q-6.76,7.47-13,15.33a1.79,1.79,0,0,1-1.53.66c-25.62-2-52.54,9.33-82.78-.77-28.3-9.44-44.6-32.86-69.15-48.43-31.62-20-55.24-12.18-101.45-18-38.32-4.83-58.21-31.53-91.82-47.48-30.17-14.31-55.62-21.79-86.51-16.84a1.73,1.73,0,0,0-.32,3.35c25.56,9.22,43.81,32.66,58.37,55.69,15.79,25,30.69,52.28,56.2,67.8,37.27,22.68,87.52,14.34,125.68,35.55,28.44,15.8,45.52,45.34,69.22,67.39,16.91,15.73,37.65,24.26,61.92,25.25a1.75,1.75,0,0,1,1.67,2.11,308.85,308.85,0,0,0-6,37,1.77,1.77,0,0,1-2.37,1.46c-5.06-1.77-10.22-3.31-15.48-4.58a134.85,134.85,0,0,0-30.9-3.79,143.33,143.33,0,0,0-30.75,3.33c-2.48.59-5,1.13-7.44,1.77L560,591.19l-14,4.35c-4.62,1.45-9.19,2.79-13.77,4.06s-9.15,2.36-13.74,3.24a139.25,139.25,0,0,1-27.73,2.77A144.94,144.94,0,0,1,464.71,603a1.77,1.77,0,0,0-2.08,1.32l-1.84,8.1a1.74,1.74,0,0,0,1.34,2.08,158.11,158.11,0,0,0,28.45,3.65,153.78,153.78,0,0,0,30.49-2.2c5-.82,9.92-1.92,14.8-3.07s9.66-2.47,14.37-3.81l14-3.95,6.79-1.73c2.27-.52,4.55-.94,6.82-1.42a126.6,126.6,0,0,1,27.38-2.22,117.12,117.12,0,0,1,26.94,4.06,147,147,0,0,1,19.66,6.89,1.72,1.72,0,0,1,1.07,1.64,304.82,304.82,0,0,0,2,44.29,1.76,1.76,0,0,1-1.79,1.94c-25.1-.13-46.72,7.8-64.57,23.42-24.37,21.33-42.36,50.35-71.27,65.3-38.81,20.07-88.77,10.24-126.73,31.81-26,14.76-41.71,41.6-58.27,66.11C317,867.79,298,890.67,272.19,899.13a1.73,1.73,0,0,0,.22,3.36c30.73,5.86,56.4-.85,87-14.27,34.08-14.94,54.8-41.05,93.24-44.74,46.37-4.44,69.73,4.11,102-15,25-14.83,42-37.75,70.62-46.36,26.75-8,50.45.24,73.17,1.6a1.78,1.78,0,0,1,1.41.83,312.39,312.39,0,0,0,33.63,44.65,1.73,1.73,0,0,1,.33,1.79,142,142,0,0,1-8.32,17.31,112.17,112.17,0,0,1-16,21.6,122.86,122.86,0,0,1-20.85,17.51c-1.94,1.24-3.85,2.54-5.82,3.75l-6,3.52-12.74,7c-4.29,2.34-8.59,4.8-12.87,7.33s-8.51,5.24-12.63,8.16a149.29,149.29,0,0,0-23,19.68,151,151,0,0,0-17.32,22.37,1.71,1.71,0,0,0,.57,2.39L606,966a1.79,1.79,0,0,0,2.42-.52,139.63,139.63,0,0,1,16.44-20,135.16,135.16,0,0,1,21.49-17.36c3.87-2.58,7.92-5,12-7.29s8.33-4.54,12.63-6.74l13-6.67,6.65-3.64c2.2-1.26,4.34-2.62,6.52-3.94a139.81,139.81,0,0,0,24-19.07,128.6,128.6,0,0,0,18.94-24.17c2.17-3.56,4.18-7.21,6-10.91a1.79,1.79,0,0,1,2.84-.48q11,10.53,22.84,19.93a1.68,1.68,0,0,1,.65,1.28c.72,22.23,8.45,45.63-.59,71.51-9.66,27.67-33.61,43.6-49.53,67.61-20.5,30.92-12.47,54-18.42,99.19"/></g></g><polygon class="cls-12" points="979.92 702.84 969.14 717.54 979.92 732.23 990.7 717.54 979.92 702.84"/><polyline class="cls-13" points="969.14 733.61 979.92 748.31 990.7 733.61"/><polygon class="cls-14" points="908.77 889.25 971.02 823.46 1044.79 889.25 908.77 889.25"/><path class="cls-3" d="M1192.51,490.18c3.6-5.28,4.42-10.55,2.55-15.62s-5.34-9.66-5.93-15c-.79-7.22,3.81-14.29,2.73-21.47-.74-4.92-4-9-6.85-13.09s-5.48-8.85-4.69-13.76c-3.38,4.7-4,9.29-3.73,15.25.27,6.18,3.12,11,1.35,17.13-2.12,7.41-4.89,10.47-3.86,16.62.81,4.77,3.38,8.82,3,13.75-.59,7.52-7.51,11.09-5.49,18.36l9.19,6.48,10.06-6.15Z"/><path class="cls-15" d="M1181.15,490.74c4.67-7.79,5.48-13.76,3.23-20.84-1.57-4.93-3.42-9.56-2-16.54"/><circle class="cls-16" cx="1181.99" cy="454.99" r="2.69" transform="translate(-60.51 209.42) rotate(-9.87)"/><path class="cls-3" d="M1238.56,556.35c3.6-5.27,4.42-10.54,2.55-15.62s-5.34-9.65-5.93-15c-.79-7.22,3.8-14.29,2.73-21.48-.74-4.91-4-9-6.85-13.08s-5.48-8.85-4.7-13.76c-3.38,4.69-4,9.29-3.72,15.25.27,6.17,3.11,11,1.35,17.13-2.13,7.41-4.9,10.47-3.86,16.62.81,4.77,3.37,8.82,3,13.75-.6,7.52-7.52,11.09-5.5,18.35l9.19,6.48,10.06-6.14Z"/><path class="cls-15" d="M1227.2,556.91c4.67-7.78,5.48-13.75,3.23-20.83-1.57-4.94-3.42-9.57-2-16.54"/><circle class="cls-16" cx="1228.04" cy="521.17" r="2.69" transform="translate(-71.18 218.3) rotate(-9.87)"/><path class="cls-3" d="M1434.38,780.5c3.6-5.27,4.41-10.54,2.54-15.62s-5.34-9.65-5.92-15c-.79-7.22,3.8-14.29,2.72-21.48-.74-4.91-4-9-6.84-13.08s-5.48-8.85-4.7-13.76c-3.38,4.69-4,9.29-3.73,15.25.28,6.17,3.12,11,1.35,17.13-2.12,7.41-4.89,10.47-3.85,16.62.8,4.77,3.37,8.82,3,13.75-.59,7.52-7.51,11.09-5.49,18.36l9.19,6.47,10.06-6.14Z"/><path class="cls-15" d="M1423,781.07c4.68-7.79,5.48-13.76,3.23-20.84-1.56-4.94-3.42-9.57-2-16.54"/><circle class="cls-16" cx="1423.86" cy="745.32" r="2.69" transform="translate(-106.71 255.19) rotate(-9.87)"/><path class="cls-3" d="M1480.42,846.68c3.6-5.28,4.42-10.54,2.55-15.62s-5.34-9.66-5.93-15c-.79-7.22,3.8-14.29,2.73-21.47-.74-4.92-4-9-6.85-13.09s-5.48-8.84-4.7-13.75c-3.38,4.69-4,9.29-3.72,15.24.27,6.18,3.11,11,1.35,17.14-2.13,7.41-4.9,10.47-3.86,16.61.81,4.78,3.38,8.82,3,13.76-.6,7.52-7.51,11.08-5.5,18.35l9.2,6.48,10-6.14Z"/><path class="cls-15" d="M1469.06,847.24c4.67-7.79,5.48-13.76,3.23-20.83-1.57-4.94-3.42-9.57-2-16.55"/><circle class="cls-16" cx="1469.9" cy="811.5" r="2.69" transform="translate(-117.38 264.07) rotate(-9.87)"/><path class="cls-3" d="M759.22,490.18c-3.6-5.28-4.42-10.55-2.55-15.62s5.34-9.66,5.93-15c.79-7.22-3.8-14.29-2.73-21.47.74-4.92,4-9,6.85-13.09s5.48-8.85,4.69-13.76c3.38,4.7,4,9.29,3.73,15.25-.27,6.18-3.12,11-1.35,17.13,2.13,7.41,4.9,10.47,3.86,16.62-.81,4.77-3.38,8.82-3,13.75.6,7.52,7.51,11.09,5.5,18.36l-9.2,6.48-10.06-6.15Z"/><path class="cls-15" d="M770.58,490.74c-4.67-7.79-5.48-13.76-3.23-20.84,1.57-4.93,3.42-9.56,2-16.54"/><circle class="cls-16" cx="769.74" cy="454.99" r="2.69" transform="translate(189.49 1135.31) rotate(-80.13)"/><path class="cls-3" d="M713.17,556.35c-3.6-5.27-4.41-10.54-2.54-15.62s5.33-9.65,5.92-15c.79-7.22-3.8-14.29-2.72-21.48.73-4.91,4-9,6.84-13.08s5.48-8.85,4.7-13.76c3.38,4.69,4,9.29,3.72,15.25-.27,6.17-3.11,11-1.35,17.13,2.13,7.41,4.9,10.47,3.86,16.62-.81,4.77-3.37,8.82-3,13.75.59,7.52,7.51,11.09,5.49,18.35L724.92,565l-10.06-6.14Z"/><path class="cls-15" d="M724.53,556.91c-4.67-7.78-5.47-13.75-3.23-20.83,1.57-4.94,3.43-9.57,2-16.54"/><circle class="cls-16" cx="723.69" cy="521.17" r="2.69" transform="translate(86.15 1144.78) rotate(-80.13)"/><path class="cls-3" d="M514.5,791.66c-3.6-5.27-4.41-10.54-2.54-15.62s5.33-9.65,5.92-15c.79-7.22-3.8-14.3-2.72-21.48.73-4.91,4-9,6.84-13.08s5.48-8.85,4.7-13.76c3.38,4.69,4,9.29,3.72,15.25-.27,6.17-3.11,11-1.35,17.13,2.13,7.41,4.9,10.47,3.86,16.62-.81,4.77-3.37,8.82-3,13.75.59,7.52,7.51,11.09,5.49,18.35l-9.19,6.48-10.06-6.14Z"/><path class="cls-15" d="M525.86,792.22c-4.67-7.78-5.47-13.75-3.23-20.83,1.57-4.94,3.43-9.57,2-16.54"/><circle class="cls-16" cx="525.02" cy="756.48" r="2.69" transform="translate(-310.28 1144.01) rotate(-80.13)"/><path class="cls-3" d="M468.46,857.84c-3.61-5.28-4.42-10.54-2.55-15.62s5.34-9.66,5.92-15c.79-7.22-3.8-14.29-2.72-21.47.74-4.92,4-9,6.85-13.09s5.48-8.85,4.69-13.76c3.38,4.7,4,9.3,3.73,15.25-.27,6.18-3.12,11-1.35,17.13,2.12,7.41,4.89,10.47,3.85,16.62-.8,4.78-3.37,8.82-3,13.75.59,7.52,7.51,11.09,5.49,18.36l-9.19,6.48-10.06-6.15Z"/><path class="cls-15" d="M479.82,858.4c-4.67-7.79-5.48-13.76-3.23-20.83,1.57-4.94,3.42-9.57,2-16.55"/><circle class="cls-16" cx="478.98" cy="822.66" r="2.69" transform="translate(-413.63 1153.47) rotate(-80.13)"/><path class="cls-16" d="M603.32,1038.83h746.25a0,0,0,0,1,0,0v8a32.31,32.31,0,0,1-32.31,32.31h-686a27.91,27.91,0,0,1-27.91-27.91v-12.39A0,0,0,0,1,603.32,1038.83Z"/><polygon class="cls-17" points="936.76 241.37 979.1 114.54 1020.83 241.37 936.76 241.37"/><rect class="cls-17" x="835.57" y="421.87" width="302.41" height="30.55"/><rect class="cls-16" x="612.23" y="647.82" width="21.03" height="63.51"/><rect class="cls-16" x="599.57" y="634.94" width="46.7" height="12.87" rx="6.44" ry="6.44"/><polygon class="cls-16" points="612.23 634.94 625.21 480.1 633.26 634.94 612.23 634.94"/><rect class="cls-16" x="1314.94" y="645.61" width="21.03" height="63.51"/><rect class="cls-16" x="1302.28" y="632.74" width="46.7" height="12.87" rx="6.44" ry="6.44"/><polygon class="cls-16" points="1314.94 632.74 1327.93 477.89 1335.97 632.74 1314.94 632.74"/><rect class="cls-16" x="814.55" y="383.24" width="21.03" height="63.51"/><rect class="cls-16" x="1118.34" y="383.24" width="21.03" height="63.51"/><path class="cls-14" d="M972.12,916.42H480.19v94.66a27.76,27.76,0,0,0,27.75,27.75H1436.4a38.12,38.12,0,0,0,38.12-38.12V916.42Z"/><rect class="cls-17" x="781.37" y="497.14" width="381.49" height="192.74"/><path class="cls-17" d="M435.06,916.42H972.12V697.74H652.27a66.2,66.2,0,0,0-44.74,17.39L422.63,884.44C410.25,895.78,418.27,916.42,435.06,916.42Z"/><path class="cls-4" d="M766,952.43a32.1,32.1,0,0,1,1.85,10.69,32.1,32.1,0,0,1,1.85-10.69Z"/><path class="cls-4" d="M507.59,952.43a32.35,32.35,0,0,1,1.85,10.69,32.1,32.1,0,0,1,1.85-10.69Z"/><path class="cls-4" d="M572.19,952.43A32.35,32.35,0,0,1,574,963.12a32.1,32.1,0,0,1,1.85-10.69Z"/><path class="cls-4" d="M701.39,952.43a32.1,32.1,0,0,1,1.85,10.69,32.1,32.1,0,0,1,1.85-10.69Z"/><path class="cls-4" d="M636.79,952.43a32.1,32.1,0,0,1,1.85,10.69,32.1,32.1,0,0,1,1.85-10.69Z"/><path class="cls-4" d="M841,916.42H480.19V931a32.29,32.29,0,0,1,27.4,21.45h3.7a32.26,32.26,0,0,1,60.9,0h3.7a32.26,32.26,0,0,1,60.9,0h3.7a32.26,32.26,0,0,1,60.9,0h3.7a32.26,32.26,0,0,1,60.9,0h3.7a32.26,32.26,0,0,1,60.9,0H841Z"/><path class="cls-17" d="M1529.5,887.56l-187-179.4a37.43,37.43,0,0,0-25.92-10.42h-278V695H926.29V914.86l56.3,1.56h535.3C1533,916.42,1540.39,898,1529.5,887.56Z"/><rect class="cls-17" x="838.55" y="705.3" width="274.66" height="211.12"/><path class="cls-16" d="M516.1,883.58c6-8.63,16.08-15.24,23.95-22l25.48-21.95c3.81-3.28-1.72-8.76-5.51-5.51l-28.47,24.53c-7.62,6.57-16.4,12.68-22.18,21-2.86,4.13,3.89,8,6.73,3.94Z"/><path class="cls-16" d="M785.73,885.24c11.56-15.2,23.46-30.12,34.15-46,2.82-4.16-3.93-8.07-6.72-3.93-10.69,15.83-22.6,30.75-34.16,45.95-3,4,3.73,7.88,6.73,3.93Z"/><path class="cls-4" d="M717.6,886.51c13.69-15.23,26.87-30.72,38.36-47.7,2.82-4.16-3.92-8.06-6.72-3.93-11.13,16.43-23.9,31.38-37.15,46.12-3.34,3.72,2.15,9.25,5.51,5.51Z"/><path class="cls-16" d="M647.91,885.44l47.05-44c3.67-3.43-1.85-8.93-5.51-5.51l-47.05,44c-3.67,3.44,1.85,8.94,5.51,5.51Z"/><path class="cls-4" d="M582.13,884.6l47.14-42.13c3.75-3.35-1.78-8.84-5.51-5.51l-47.13,42.13c-3.75,3.35,1.77,8.85,5.5,5.51Z"/><path class="cls-16" d="M1449,879.29c-5.76-9.27-14.9-16.38-22.71-23.89l-28-26.89c-3.82-3.67-9.65,2.14-5.82,5.82q12.59,12.1,25.18,24.2c8.09,7.78,18.26,15.32,24.22,24.91,2.79,4.49,9.91.36,7.1-4.15Z"/><path class="cls-16" d="M1179.39,881.14c-11.57-17-23.51-33.69-34.15-51.27-2.74-4.53-9.86-.4-7.11,4.15,10.65,17.59,22.59,34.3,34.16,51.28,3,4.35,10.1.24,7.1-4.16Z"/><path class="cls-4" d="M1246.27,880.85c-13.33-16.55-26.07-33.34-37.11-51.52-2.75-4.52-9.87-.39-7.11,4.15,11.4,18.78,24.64,36.1,38.4,53.19,3.32,4.12,9.11-1.73,5.82-5.82Z"/><path class="cls-16" d="M1316,879.65l-47-49.14c-3.67-3.84-9.48,2-5.82,5.82l47.05,49.14c3.67,3.84,9.49-2,5.82-5.82Z"/><path class="cls-4" d="M1381.74,878.72l-47.14-47c-3.76-3.74-9.58,2.07-5.82,5.82l47.14,47c3.75,3.74,9.57-2.08,5.82-5.82Z"/><path class="cls-16" d="M784.63,785.62c11.57-17,23.51-33.69,34.16-51.28,1.31-2.17-3.52-2.09-4.53-.42-10.65,17.58-22.59,34.3-34.16,51.27-1.41,2.07,3.44,2,4.53.43Z"/><path class="cls-4" d="M717.19,785.51c13.55-16.82,26.54-33.87,37.76-52.35.28-.46-4-.3-4.7.87C739,752.51,726,769.56,712.5,786.38c-.22.28,3.81.23,4.69-.87Z"/><path class="cls-16" d="M647.1,785.27l47-49.15c2-2.08-2.64-2.34-3.89-1l-47,49.14c-2,2.08,2.64,2.35,3.89,1Z"/><path class="cls-4" d="M581.58,783.77l47.13-47c1.25-1.24-3.42-.89-4.39.08l-47.14,47c-1.24,1.24,3.43.88,4.4-.09Z"/><path class="cls-16" d="M1178.05,784.45c-11.57-17-23.51-33.69-34.16-51.28-.87-1.44-5.5.12-4.41,1.92,10.64,17.59,22.58,34.3,34.15,51.28,1,1.41,5.59-.21,4.42-1.92Z"/><path class="cls-3" d="M1068.47,843.16c-15.1-13.93-30.5-27.51-44.83-42.24-1.18-1.21-5.34,1.35-3.87,2.86,14.33,14.73,29.73,28.32,44.83,42.25,1.26,1.16,5.39-1.46,3.87-2.87Z"/><path class="cls-3" d="M886.08,843.16c15.1-13.93,30.49-27.51,44.83-42.24,1.17-1.21,5.33,1.35,3.87,2.86C920.44,818.51,905.05,832.1,890,846c-1.26,1.16-5.39-1.46-3.87-2.87Z"/><path class="cls-4" d="M1245.6,785.11c-13.49-16.76-26.44-33.75-37.61-52.16-.77-1.26-5.24.51-4.77,1.28,11.27,18.55,24.3,35.66,37.9,52.55.78,1,5.31-.64,4.48-1.67Z"/><path class="cls-16" d="M1315.28,783.86l-47-49.14c-1-1.08-5.53.65-4.45,1.77q23.52,24.59,47,49.15c1,1.07,5.53-.65,4.45-1.78Z"/><path class="cls-4" d="M1381.07,783l-47.14-47c-.92-.92-5.33.83-4.48,1.67l47.13,47c.93.92,5.33-.83,4.49-1.67Z"/><path class="cls-4" d="M1188.72,952.43a32.35,32.35,0,0,0-1.85,10.69,32.1,32.1,0,0,0-1.85-10.69Z"/><path class="cls-4" d="M1447.13,952.43a32.1,32.1,0,0,0-1.85,10.69,32.35,32.35,0,0,0-1.85-10.69Z"/><path class="cls-4" d="M1382.53,952.43a32.1,32.1,0,0,0-1.85,10.69,32.35,32.35,0,0,0-1.85-10.69Z"/><path class="cls-4" d="M1253.33,952.43a32.1,32.1,0,0,0-1.86,10.69,32.1,32.1,0,0,0-1.85-10.69Z"/><path class="cls-4" d="M1317.93,952.43a32.1,32.1,0,0,0-1.85,10.69,32.1,32.1,0,0,0-1.86-10.69Z"/><path class="cls-4" d="M1113.76,916.42h360.76V931a32.26,32.26,0,0,0-27.39,21.45h-3.7a32.26,32.26,0,0,0-60.9,0h-3.7a32.26,32.26,0,0,0-60.9,0h-3.71a32.25,32.25,0,0,0-60.89,0h-3.71a32.26,32.26,0,0,0-60.9,0H1185a32.26,32.26,0,0,0-60.9,0h-10.36Z"/><polygon class="cls-4" points="1193.06 985.55 1186.74 985.55 1186.74 1038.83 1189.9 1038.83 1197.42 991.84 1193.06 985.55"/><polygon class="cls-4" points="1181.68 985.55 1188 985.55 1188 1038.83 1184.84 1038.83 1177.31 991.84 1181.68 985.55"/><polygon class="cls-4" points="1181.68 985.55 1188 985.55 1188 945.1 1184.84 945.1 1177.31 980.77 1181.68 985.55"/><polygon class="cls-4" points="1193.06 985.55 1186.74 985.55 1186.73 945.1 1189.89 945.1 1197.42 980.77 1193.06 985.55"/><polygon class="cls-4" points="1257.16 985.55 1250.84 985.55 1250.84 1038.83 1254 1038.83 1261.53 991.84 1257.16 985.55"/><polygon class="cls-4" points="1245.79 985.55 1252.11 985.55 1252.11 1038.83 1248.95 1038.83 1241.42 991.84 1245.79 985.55"/><polygon class="cls-4" points="1245.79 985.55 1252.11 985.55 1252.11 945.1 1248.95 945.1 1241.42 980.77 1245.79 985.55"/><polygon class="cls-4" points="1257.16 985.55 1250.84 985.55 1250.84 945.1 1254 945.1 1261.53 980.77 1257.16 985.55"/><polygon class="cls-4" points="1321.27 985.55 1314.95 985.55 1314.95 1038.83 1318.11 1038.83 1325.63 991.84 1321.27 985.55"/><polygon class="cls-4" points="1309.89 985.55 1316.21 985.55 1316.21 1038.83 1313.05 1038.83 1305.53 991.84 1309.89 985.55"/><polygon class="cls-4" points="1309.89 985.55 1316.21 985.55 1316.21 945.1 1313.05 945.1 1305.53 980.77 1309.89 985.55"/><polygon class="cls-4" points="1321.27 985.55 1314.95 985.55 1314.95 945.1 1318.11 945.1 1325.63 980.77 1321.27 985.55"/><polygon class="cls-4" points="1385.38 985.55 1379.06 985.55 1379.06 1038.83 1382.21 1038.83 1389.74 991.84 1385.38 985.55"/><polygon class="cls-4" points="1374 985.55 1380.32 985.55 1380.32 1038.83 1377.16 1038.83 1369.63 991.84 1374 985.55"/><polygon class="cls-4" points="1374 985.55 1380.32 985.55 1380.32 945.1 1377.16 945.1 1369.63 980.77 1374 985.55"/><polygon class="cls-4" points="1385.38 985.55 1379.06 985.55 1379.06 945.1 1382.21 945.1 1389.74 980.77 1385.38 985.55"/><polygon class="cls-4" points="1449.48 985.55 1443.16 985.55 1443.16 1038.83 1446.32 1038.83 1453.85 991.84 1449.48 985.55"/><polygon class="cls-4" points="1438.11 985.55 1444.43 985.55 1444.43 1038.83 1441.27 1038.83 1433.74 991.84 1438.11 985.55"/><polygon class="cls-4" points="1438.11 985.55 1444.43 985.55 1444.42 945.1 1441.27 945.1 1433.74 980.77 1438.11 985.55"/><polygon class="cls-4" points="1449.48 985.55 1443.16 985.55 1443.16 945.1 1446.32 945.1 1453.85 980.77 1449.48 985.55"/><polygon class="cls-4" points="761.16 985.55 767.48 985.55 767.48 1038.83 764.32 1038.83 756.8 991.84 761.16 985.55"/><polygon class="cls-4" points="772.54 985.55 766.22 985.55 766.22 1038.83 769.38 1038.83 776.9 991.84 772.54 985.55"/><polygon class="cls-4" points="772.54 985.55 766.22 985.55 766.22 945.1 769.38 945.1 776.91 980.77 772.54 985.55"/><polygon class="cls-4" points="761.16 985.55 767.48 985.55 767.48 945.1 764.33 945.1 756.8 980.77 761.16 985.55"/><polygon class="cls-4" points="697.06 985.55 703.38 985.55 703.38 1038.83 700.22 1038.83 692.69 991.84 697.06 985.55"/><polygon class="cls-4" points="708.43 985.55 702.11 985.55 702.11 1038.83 705.27 1038.83 712.8 991.84 708.43 985.55"/><polygon class="cls-4" points="708.43 985.55 702.11 985.55 702.11 945.1 705.27 945.1 712.8 980.77 708.43 985.55"/><polygon class="cls-4" points="697.06 985.55 703.38 985.55 703.38 945.1 700.22 945.1 692.69 980.77 697.06 985.55"/><polygon class="cls-4" points="632.95 985.55 639.27 985.55 639.27 1038.83 636.11 1038.83 628.59 991.84 632.95 985.55"/><polygon class="cls-4" points="644.33 985.55 638.01 985.55 638.01 1038.83 641.17 1038.83 648.69 991.84 644.33 985.55"/><polygon class="cls-4" points="644.33 985.55 638.01 985.55 638.01 945.1 641.17 945.1 648.69 980.77 644.33 985.55"/><polygon class="cls-4" points="632.95 985.55 639.27 985.55 639.27 945.1 636.11 945.1 628.59 980.77 632.95 985.55"/><polygon class="cls-4" points="568.84 985.55 575.16 985.55 575.16 1038.83 572 1038.83 564.48 991.84 568.84 985.55"/><polygon class="cls-4" points="580.22 985.55 573.9 985.55 573.9 1038.83 577.06 1038.83 584.59 991.84 580.22 985.55"/><polygon class="cls-4" points="580.22 985.55 573.9 985.55 573.9 945.1 577.06 945.1 584.59 980.77 580.22 985.55"/><polygon class="cls-4" points="568.84 985.55 575.16 985.55 575.16 945.1 572 945.1 564.48 980.77 568.84 985.55"/><polygon class="cls-4" points="504.74 985.55 511.06 985.55 511.06 1038.83 507.9 1038.83 500.37 991.84 504.74 985.55"/><polygon class="cls-4" points="516.11 985.55 509.79 985.55 509.79 1038.83 512.95 1038.83 520.48 991.84 516.11 985.55"/><polygon class="cls-4" points="516.11 985.55 509.79 985.55 509.79 945.1 512.95 945.1 520.48 980.77 516.11 985.55"/><polygon class="cls-4" points="504.74 985.55 511.06 985.55 511.06 945.1 507.9 945.1 500.37 980.77 504.74 985.55"/><rect class="cls-16" x="727.04" y="672.86" width="495.58" height="24.88"/><rect class="cls-18" x="805.82" y="697.74" width="65.47" height="65.47"/><rect class="cls-18" x="1081.68" y="697.74" width="65.47" height="65.47"/><path class="cls-16" d="M968.63,706.25s113.05,3.93,113.05,57h65.47s-.41-49.29,44.09-51.07v-14.4H968.63Z"/><path class="cls-16" d="M982.59,706.25s-113.05,3.93-113.05,57H804.07s5.67-47.14-44.09-51.07v-14.4H982.59Z"/><path class="cls-16" d="M1157.72,451.06a35.25,35.25,0,0,0-28.06-13.91H821.87a35.21,35.21,0,0,0-28,13.91L680.35,600.18a11,11,0,0,0,8.77,17.68h62a37,37,0,0,1,72.1-5.64l0,5.64h30.47c6.71-57.25,58.08-102.43,122-106.6,64,4.17,115.32,49.35,122,106.6h30.48l0-5.64a37,37,0,0,1,72.09,5.64h59.78a12.11,12.11,0,0,0,9.64-19.45Z"/><rect class="cls-16" x="801.89" y="370.37" width="46.7" height="12.87" rx="6.44" ry="6.44"/><polygon class="cls-16" points="814.54 370.37 827.53 215.52 835.57 370.37 814.54 370.37"/><rect class="cls-16" x="1105.69" y="370.37" width="46.7" height="12.87" rx="6.44" ry="6.44"/><polygon class="cls-16" points="1118.34 370.37 1131.33 215.52 1139.37 370.37 1118.34 370.37"/><rect class="cls-17" x="914.5" y="388.7" width="128.33" height="48.45"/><rect class="cls-17" x="930.65" y="277.67" width="93.43" height="64.33"/><path class="cls-16" d="M1070.51,376.73a7.19,7.19,0,0,1-5.36,12H886c-5.35,0-8.24-6.44-4.78-10.63l26.12-31.65A20.37,20.37,0,0,1,923,338.94h105.74a18.12,18.12,0,0,1,13.52,6.12Z"/><path class="cls-16" d="M1042.49,279.12H915.55A6.74,6.74,0,0,1,910.43,268l24.31-28.4a6.79,6.79,0,0,1,5.13-2.35h77.89a6.73,6.73,0,0,1,5.08,2.31l24.73,28.4A6.74,6.74,0,0,1,1042.49,279.12Z"/><path class="cls-17" d="M968.41,945.1h15.27a29.12,29.12,0,0,1,29.12,29.12v64.6a0,0,0,0,1,0,0H939.93a0,0,0,0,1,0,0V973.58a28.48,28.48,0,0,1,28.48-28.48Z"/><rect class="cls-16" x="933.67" y="848.35" width="141.48" height="10.01" rx="4.52" ry="4.52" transform="translate(857.44 -456.4) rotate(43.25)"/><path class="cls-16" d="M894.55,898.34l91-96.65a4.53,4.53,0,0,1,6.38-.2l.71.67a4.52,4.52,0,0,1,.21,6.4l-91,96.64a4.53,4.53,0,0,1-6.38.2l-.71-.67A4.5,4.5,0,0,1,894.55,898.34Z"/><rect class="cls-16" x="908.77" y="884.74" width="136.02" height="9.04" rx="4.52" ry="4.52"/><rect class="cls-4" x="1036.07" y="916.42" width="23.9" height="122.41"/><rect class="cls-4" x="887.77" y="916.42" width="23.9" height="122.41"/><polygon class="cls-16" points="828.95 885.65 840.95 885.65 840.95 1038.83 834.95 1038.83 820.66 903.73 828.95 885.65"/><polygon class="cls-16" points="850.56 885.65 838.55 885.65 838.55 1038.83 844.55 1038.83 858.85 903.73 850.56 885.65"/><polygon class="cls-16" points="850.56 885.65 838.55 885.65 838.55 757.84 844.55 757.84 858.85 870.56 850.56 885.65"/><polygon class="cls-16" points="828.95 885.65 840.95 885.65 840.95 757.84 834.95 757.84 820.66 870.56 828.95 885.65"/><polygon class="cls-16" points="739.07 640.79 742.43 640.79 742.43 675.97 740.75 675.97 736.75 644.95 739.07 640.79"/><polygon class="cls-16" points="745.11 640.79 741.75 640.79 741.75 675.97 743.43 675.97 747.43 644.95 745.11 640.79"/><polygon class="cls-16" points="745.11 640.79 741.75 640.79 741.75 614.09 743.43 614.09 747.43 637.64 745.11 640.79"/><polygon class="cls-16" points="739.07 640.79 742.43 640.79 742.43 614.09 740.75 614.09 736.75 637.64 739.07 640.79"/><polygon class="cls-16" points="1208.89 640.79 1212.25 640.79 1212.25 675.97 1210.57 675.97 1206.57 644.95 1208.89 640.79"/><polygon class="cls-16" points="1214.93 640.79 1211.58 640.79 1211.58 675.97 1213.26 675.97 1217.26 644.95 1214.93 640.79"/><polygon class="cls-16" points="1214.93 640.79 1211.58 640.79 1211.58 614.09 1213.26 614.09 1217.26 637.64 1214.93 640.79"/><polygon class="cls-16" points="1208.89 640.79 1212.25 640.79 1212.25 614.09 1210.57 614.09 1206.57 637.64 1208.89 640.79"/><polygon class="cls-16" points="1103.61 885.65 1115.62 885.65 1115.62 1038.83 1109.61 1038.83 1095.32 903.73 1103.61 885.65"/><polygon class="cls-16" points="1125.22 885.65 1113.21 885.65 1113.21 1038.83 1119.22 1038.83 1133.51 903.73 1125.22 885.65"/><polygon class="cls-16" points="1125.22 885.65 1113.21 885.65 1113.22 757.84 1119.22 757.84 1133.51 870.56 1125.22 885.65"/><polygon class="cls-16" points="1103.61 885.65 1115.62 885.65 1115.62 757.84 1109.62 757.84 1095.32 870.56 1103.61 885.65"/><path class="cls-17" d="M745.17,569.7c3.58-8.2,9.63-14.49,14.35-21l15.26-20.88c2.28-3.11-1-8.34-3.3-5.24L754.42,546c-4.56,6.25-9.82,12.06-13.28,20-1.71,3.93,2.33,7.64,4,3.74Z"/><path class="cls-17" d="M824.12,571.47q14.1-20.94,28.18-41.89c2.2-3.27-1.1-8.5-3.3-5.24q-14.09,20.94-28.18,41.89c-2.2,3.27,1.11,8.5,3.3,5.24Z"/><path class="cls-4" d="M784.72,570.67,813,530.6c2.24-3.19-1.07-8.42-3.3-5.24l-28.24,40.07c-2.24,3.19,1.07,8.41,3.3,5.24Z"/><path class="cls-17" d="M1210.7,569.7c-3.59-8.2-9.64-14.49-14.35-21l-15.26-20.88c-2.28-3.11,1-8.34,3.29-5.24L1201.44,546c4.57,6.25,9.82,12.06,13.28,20,1.72,3.93-2.32,7.64-4,3.74Z"/><path class="cls-17" d="M1131.74,571.47q-14.09-20.94-28.18-41.89c-2.2-3.27,1.11-8.5,3.3-5.24q14.1,20.94,28.18,41.89c2.2,3.27-1.1,8.5-3.3,5.24Z"/><path class="cls-4" d="M1171.14,570.67l-28.23-40.07c-2.25-3.19,1.06-8.42,3.3-5.24l28.23,40.07c2.24,3.19-1.06,8.41-3.3,5.24Z"/><path class="cls-17" d="M936.22,496.11c8.12-15.1,16.5-29.95,24-45.59.93-1.93-2.47-1.86-3.18-.38-7.47,15.64-15.85,30.49-24,45.59-1,1.83,2.41,1.8,3.18.38Z"/><path class="cls-4" d="M888.88,496c9.51-15,18.63-30.12,26.51-46.54.19-.41-2.8-.27-3.3.77-7.88,16.43-17,31.59-26.5,46.54-.16.25,2.67.21,3.29-.77Z"/><path class="cls-17" d="M839.69,495.79l33-43.69c1.4-1.85-1.85-2.08-2.73-.92l-33,43.69c-1.39,1.85,1.86,2.09,2.74.92Z"/><path class="cls-4" d="M793.7,494.46l33.08-41.79c.87-1.11-2.4-.79-3.08.07l-33.09,41.8c-.87,1.1,2.41.78,3.09-.08Z"/><path class="cls-17" d="M1018,496.11c-8.12-15.1-16.5-29.95-24-45.59-.93-1.93,2.47-1.86,3.17-.38,7.48,15.64,15.86,30.49,24,45.59,1,1.83-2.42,1.8-3.18.38Z"/><path class="cls-4" d="M1065.35,496c-9.5-15-18.62-30.12-26.5-46.54-.19-.41,2.8-.27,3.3.77,7.87,16.43,17,31.59,26.5,46.54.15.25-2.68.21-3.3-.77Z"/><path class="cls-17" d="M1114.55,495.79q-16.52-21.84-33-43.69c-1.4-1.85,1.85-2.08,2.73-.92l33,43.69c1.4,1.85-1.85,2.09-2.73.92Z"/><path class="cls-4" d="M1160.54,494.46l-33.08-41.79c-.88-1.11,2.4-.79,3.08.07l33.08,41.8c.88,1.1-2.4.78-3.08-.08Z"/><path class="cls-17" d="M898,380.79c1.23-2.44,3.31-4.31,4.93-6.23l5.24-6.21c.78-.93-.36-2.49-1.14-1.56l-5.85,6.94c-1.57,1.86-3.37,3.59-4.56,5.95-.59,1.17.8,2.27,1.38,1.11Z"/><path class="cls-17" d="M925.13,381.32l9.68-12.47c.75-1-.38-2.53-1.13-1.56L924,379.76c-.75,1,.38,2.53,1.13,1.56Z"/><path class="cls-4" d="M911.61,381.08l9.69-11.92c.77-1-.36-2.51-1.13-1.56l-9.69,11.92c-.77,1,.36,2.51,1.13,1.56Z"/><path class="cls-17" d="M939.84,380.79c1.23-2.44,3.31-4.31,4.93-6.23l5.23-6.21c.79-.93-.35-2.49-1.13-1.56L943,373.73c-1.57,1.86-3.37,3.59-4.56,5.95-.59,1.17.8,2.27,1.38,1.11Z"/><path class="cls-17" d="M966.94,381.32l9.68-12.47c.75-1-.38-2.53-1.14-1.56l-9.67,12.47c-.75,1,.38,2.53,1.13,1.56Z"/><path class="cls-4" d="M953.42,381.08l9.69-11.92c.77-1-.37-2.51-1.13-1.56l-9.69,11.92c-.77,1,.36,2.51,1.13,1.56Z"/><path class="cls-17" d="M1057.83,380.79c-1.23-2.44-3.3-4.31-4.92-6.23l-5.24-6.21c-.78-.93.35-2.49,1.13-1.56l5.86,6.94c1.56,1.86,3.37,3.59,4.56,5.95.58,1.17-.8,2.27-1.39,1.11Z"/><path class="cls-17" d="M1030.73,381.32l-9.67-12.47c-.76-1,.38-2.53,1.13-1.56l9.67,12.47c.76,1-.38,2.53-1.13,1.56Z"/><path class="cls-4" d="M1044.26,381.08l-9.7-11.92c-.77-1,.37-2.51,1.14-1.56l9.69,11.92c.77,1-.37,2.51-1.13,1.56Z"/><path class="cls-17" d="M1016.59,380.79c-1.23-2.44-3.31-4.31-4.93-6.23l-5.23-6.21c-.79-.93.35-2.49,1.13-1.56l5.85,6.94c1.57,1.86,3.37,3.59,4.56,5.95.59,1.17-.8,2.27-1.38,1.11Z"/><path class="cls-17" d="M989.49,381.32l-9.68-12.47c-.75-1,.38-2.53,1.14-1.56l9.67,12.47c.76,1-.38,2.53-1.13,1.56Z"/><path class="cls-4" d="M1003,381.08l-9.69-11.92c-.77-1,.37-2.51,1.13-1.56l9.7,11.92c.77,1-.37,2.51-1.14,1.56Z"/><path class="cls-17" d="M968.58,358.89c2.79-4.49,5.67-8.91,8.23-13.57.32-.57-.85-.55-1.09-.11-2.57,4.65-5.44,9.08-8.23,13.57-.34.55.83.53,1.09.11Z"/><path class="cls-4" d="M952.33,358.86a127.64,127.64,0,0,0,9.1-13.85c.07-.12-1-.08-1.13.23a130.67,130.67,0,0,1-9.1,13.85,1.43,1.43,0,0,0,1.13-.23Z"/><path class="cls-17" d="M935.44,358.8l11.34-13c.48-.55-.64-.62-.94-.28l-11.33,13c-.48.55.63.62.93.28Z"/><path class="cls-4" d="M919.66,358.4,931,346c.3-.33-.82-.23-1,0L918.6,358.43c-.3.32.82.23,1.06,0Z"/><path class="cls-17" d="M987.85,358.89c-2.79-4.49-5.66-8.91-8.23-13.57-.32-.57.85-.55,1.09-.11,2.57,4.65,5.44,9.08,8.23,13.57.34.55-.83.53-1.09.11Z"/><path class="cls-4" d="M1004.1,358.86A127.64,127.64,0,0,1,995,345c-.07-.12,1-.08,1.13.23a130.67,130.67,0,0,0,9.1,13.85,1.43,1.43,0,0,1-1.13-.23Z"/><path class="cls-17" d="M1021,358.8l-11.34-13c-.48-.55.64-.62.94-.28l11.33,13c.48.55-.63.62-.93.28Z"/><path class="cls-4" d="M1036.77,358.4,1025.42,346c-.3-.33.82-.23,1,0l11.36,12.44c.3.32-.82.23-1.06,0Z"/><path class="cls-17" d="M917,270a27,27,0,0,1,3.71-5l4-5c.59-.75-.27-2-.86-1.26l-4.41,5.59a24.38,24.38,0,0,0-3.44,4.79c-.45.95.6,1.83,1,.9Z"/><path class="cls-17" d="M937.48,270.45l7.29-10.05c.57-.78-.28-2-.85-1.25l-7.3,10c-.56.78.29,2,.86,1.26Z"/><path class="cls-4" d="M927.28,270.25l7.31-9.6c.58-.77-.28-2-.86-1.26l-7.3,9.61c-.59.76.27,2,.85,1.25Z"/><path class="cls-17" d="M948.57,270a27,27,0,0,1,3.71-5l4-5c.59-.75-.26-2-.85-1.26L951,264.33a24.76,24.76,0,0,0-3.43,4.79c-.45.95.6,1.83,1,.9Z"/><path class="cls-17" d="M969,270.45l7.29-10.05c.57-.78-.29-2-.85-1.25l-7.3,10c-.57.78.29,2,.86,1.26Z"/><path class="cls-4" d="M958.81,270.25l7.31-9.6c.58-.77-.28-2-.86-1.26L958,269c-.58.76.28,2,.86,1.25Z"/><path class="cls-17" d="M1037.55,270c-.93-2-2.5-3.47-3.72-5l-3.95-5c-.59-.75.27-2,.86-1.26l4.41,5.59a25.24,25.24,0,0,1,3.44,4.79c.44.95-.6,1.83-1,.9Z"/><path class="cls-17" d="M1017.11,270.45l-7.29-10.05c-.57-.78.28-2,.85-1.25l7.29,10c.57.78-.28,2-.85,1.26Z"/><path class="cls-4" d="M1027.31,270.25l-7.31-9.6c-.58-.77.28-2,.85-1.26l7.31,9.61c.58.76-.27,2-.85,1.25Z"/><path class="cls-17" d="M1006.45,270c-.93-2-2.5-3.47-3.72-5l-4-5c-.59-.75.27-2,.86-1.26l4.41,5.59a25.24,25.24,0,0,1,3.44,4.79c.44.95-.6,1.83-1,.9Z"/><path class="cls-17" d="M986,270.45l-7.3-10.05c-.57-.78.29-2,.86-1.25l7.29,10c.57.78-.28,2-.85,1.26Z"/><path class="cls-4" d="M996.21,270.25l-7.31-9.6c-.58-.77.27-2,.85-1.26l7.31,9.61c.58.76-.27,2-.85,1.25Z"/><path class="cls-17" d="M970.24,252.38c2.1-3.62,4.27-7.18,6.21-10.92.24-.47-.64-.45-.83-.1-1.93,3.75-4.1,7.31-6.2,10.93-.26.44.62.43.82.09Z"/><path class="cls-4" d="M958,252.36a105.81,105.81,0,0,0,6.86-11.16c0-.1-.73-.06-.85.19a104.66,104.66,0,0,1-6.86,11.15,1,1,0,0,0,.85-.18Z"/><path class="cls-17" d="M945.25,252.31l8.55-10.48c.36-.44-.48-.49-.71-.22l-8.54,10.48c-.37.44.48.5.7.22Z"/><path class="cls-4" d="M933.35,252l8.56-10c.23-.26-.62-.19-.8,0l-8.56,10c-.23.26.62.18.8,0Z"/><path class="cls-17" d="M984.77,252.38c-2.1-3.62-4.27-7.18-6.2-10.92-.24-.47.64-.45.82-.1,1.93,3.75,4.1,7.31,6.21,10.93.25.44-.63.43-.83.09Z"/><path class="cls-4" d="M997,252.36a102.59,102.59,0,0,1-6.86-11.16c-.06-.1.72-.06.85.19a104.66,104.66,0,0,0,6.86,11.15,1,1,0,0,1-.85-.18Z"/><path class="cls-17" d="M1009.76,252.31l-8.55-10.48c-.36-.44.48-.49.71-.22l8.55,10.48c.36.44-.48.5-.71.22Z"/><path class="cls-4" d="M1021.67,252l-8.57-10c-.22-.26.62-.19.8,0l8.56,10c.23.26-.62.18-.79,0Z"/><circle class="cls-4" cx="974.88" cy="640.08" r="144.07"/><circle class="cls-19" cx="974.58" cy="639.62" r="69.54"/><path class="cls-3" d="M965.66,594.41c-3.6-5.28-4.42-10.54-2.55-15.62s5.34-9.65,5.92-15c.79-7.22-3.8-14.29-2.72-21.48.74-4.91,4-9,6.84-13.08s5.48-8.85,4.7-13.76c3.38,4.69,4,9.29,3.73,15.25-.28,6.17-3.12,11-1.35,17.13,2.12,7.41,4.89,10.47,3.86,16.61-.81,4.78-3.38,8.83-3,13.76.59,7.52,7.51,11.08,5.49,18.35L977.4,603l-10.06-6.14Z"/><path class="cls-15" d="M977,595c-4.67-7.78-5.48-13.75-3.23-20.83,1.57-4.94,3.42-9.57,2-16.54"/><circle class="cls-16" cx="976.18" cy="559.23" r="2.69"/><path class="cls-3" d="M963.19,687.18c-3.6,5.27-4.41,10.54-2.55,15.62s5.34,9.65,5.93,15c.79,7.22-3.8,14.29-2.73,21.47.74,4.92,4,9,6.85,13.09s5.48,8.85,4.7,13.76c3.38-4.7,4-9.3,3.72-15.25-.27-6.18-3.11-11-1.35-17.13,2.13-7.41,4.9-10.47,3.86-16.62-.81-4.77-3.37-8.82-3-13.75.59-7.52,7.51-11.09,5.49-18.36l-9.19-6.47-10.06,6.14Z"/><path class="cls-15" d="M974.55,686.61c-4.67,7.79-5.47,13.76-3.23,20.84,1.57,4.94,3.43,9.57,2,16.54"/><circle class="cls-16" cx="973.71" cy="722.36" r="2.69"/><path class="cls-3" d="M1019.7,633.13c5.28-3.6,10.54-4.41,15.62-2.54s9.66,5.33,15,5.92c7.22.79,14.3-3.8,21.48-2.72,4.91.73,9,4,13.08,6.84s8.85,5.48,13.76,4.7c-4.69,3.38-9.29,4-15.25,3.72-6.17-.27-11-3.11-17.13-1.35-7.41,2.13-10.47,4.9-16.61,3.86-4.78-.81-8.82-3.37-13.76-3-7.52.59-11.08,7.51-18.35,5.49l-6.48-9.19,6.15-10.06Z"/><path class="cls-15" d="M1019.14,644.49c7.79-4.67,13.76-5.47,20.83-3.23,4.94,1.57,9.57,3.43,16.55,2"/><circle class="cls-16" cx="1054.88" cy="643.65" r="2.69"/><path class="cls-3" d="M926.93,630.67c-5.27-3.6-10.54-4.42-15.62-2.55s-9.65,5.34-15,5.93c-7.22.79-14.29-3.81-21.47-2.73-4.92.74-9,4-13.09,6.84s-8.85,5.48-13.76,4.7c4.7,3.38,9.3,4,15.25,3.73,6.18-.27,11-3.12,17.13-1.35,7.41,2.12,10.47,4.89,16.62,3.86,4.77-.81,8.82-3.38,13.75-3,7.52.59,11.09,7.51,18.36,5.5l6.47-9.2-6.14-10.06Z"/><path class="cls-15" d="M927.5,642c-7.79-4.67-13.76-5.48-20.84-3.23-4.93,1.57-9.57,3.42-16.54,2"/><circle class="cls-16" cx="891.75" cy="641.19" r="2.69"/><path class="cls-3" d="M1011.53,668.17c6.28,1.19,10.58,4.34,12.85,9.25s3,10.6,6.44,14.82c4.54,5.66,12.79,7.41,17.11,13.26,3,4,3.54,9.19,4.41,14.09s2.38,10.13,6.41,13c-5.71-.93-9.39-3.75-13.42-8.15-4.17-4.56-5.56-10-11.16-13.07-6.74-3.73-10.86-3.94-14.47-9-2.81-3.94-3.86-8.62-7.62-11.83-5.73-4.9-13.15-2.53-16.86-9.1l1.92-11.08,11.45-2.77Z"/><path class="cls-15" d="M1003.1,675.81c8.81,2.2,13.6,5.85,17,12.45,2.38,4.6,4.34,9.18,10.28,13.1"/><circle class="cls-16" cx="1028.97" cy="700.49" r="2.69"/><path class="cls-3" d="M947.68,600.84c-1.19-6.28-4.33-10.58-9.25-12.85s-10.6-3-14.82-6.44c-5.66-4.55-7.41-12.8-13.25-17.11-4-3-9.2-3.55-14.1-4.42s-10.13-2.38-13-6.4c.92,5.71,3.75,9.39,8.14,13.41,4.56,4.18,10,5.57,13.07,11.16,3.74,6.75,3.94,10.87,9,14.48,3.95,2.81,8.63,3.85,11.84,7.61,4.89,5.74,2.53,13.16,9.09,16.87l11.08-1.92,2.77-11.46Z"/><path class="cls-15" d="M940,609.27c-2.2-8.81-5.85-13.6-12.44-17-4.61-2.38-9.19-4.34-13.11-10.29"/><circle class="cls-16" cx="915.36" cy="583.4" r="2.69"/><path class="cls-3" d="M945.93,679c-1.18,6.27-4.33,10.57-9.24,12.84s-10.6,3.06-14.82,6.44c-5.66,4.55-7.42,12.8-13.26,17.12-4,3-9.2,3.54-14.09,4.41s-10.13,2.38-13,6.41c.93-5.71,3.75-9.39,8.15-13.42,4.56-4.17,10-5.57,13.07-11.16,3.73-6.74,3.94-10.87,9-14.48,3.94-2.8,8.62-3.85,11.83-7.61,4.9-5.74,2.53-13.15,9.1-16.87l11.07,1.92,2.77,11.46Z"/><path class="cls-15" d="M938.3,670.57c-2.21,8.81-5.86,13.61-12.45,17-4.6,2.38-9.19,4.35-13.11,10.29"/><circle class="cls-16" cx="913.62" cy="696.45" r="2.69" transform="translate(-187.78 1023.01) rotate(-53.83)"/><path class="cls-3" d="M1013.27,615.15c6.28-1.19,10.58-4.33,12.85-9.25s3.05-10.6,6.44-14.82c4.54-5.66,12.79-7.41,17.11-13.25,2.95-4,3.54-9.2,4.41-14.1s2.38-10.13,6.41-13.05c-5.71.93-9.39,3.75-13.42,8.15-4.17,4.56-5.57,10-11.16,13.07-6.74,3.74-10.86,3.94-14.48,9-2.8,4-3.85,8.63-7.61,11.84-5.73,4.89-13.15,2.53-16.86,9.09l1.92,11.08,11.45,2.77Z"/><path class="cls-15" d="M1004.84,607.51c8.81-2.2,13.6-5.85,17-12.44,2.39-4.61,4.35-9.19,10.29-13.11"/><circle class="cls-16" cx="1030.71" cy="582.83" r="2.69" transform="translate(-48.08 1070.97) rotate(-53.83)"/><circle class="cls-16" cx="974.58" cy="639.62" r="53.22"/><path class="cls-16" d="M993,600.7a33.6,33.6,0,0,1-.4-10.08,22.12,22.12,0,0,1,3.65-9.53c.47-.7,1-1.37,1.49-2l1.53-1.89a41.66,41.66,0,0,0,2.81-3.79,22.12,22.12,0,0,0,3.32-8.57l2,.3a24.37,24.37,0,0,1-3.37,9.46,42.85,42.85,0,0,1-2.84,4.08c-1,1.31-2,2.52-2.79,3.82a19.45,19.45,0,0,0-3,8.48,30.77,30.77,0,0,0,.63,9.19Z"/><path class="cls-16" d="M957.74,684.92A30.78,30.78,0,0,0,951,691.2a19.28,19.28,0,0,0-3.6,8.24c-.3,1.5-.41,3.06-.57,4.7a44.29,44.29,0,0,1-.7,4.91,24.43,24.43,0,0,1-4,9.22l-1.64-1.12a22,22,0,0,0,3.42-8.53,41.85,41.85,0,0,0,.53-4.68l.17-2.42c.07-.84.16-1.68.29-2.51a22.12,22.12,0,0,1,3.83-9.46,33.69,33.69,0,0,1,7.16-7.1Z"/><path class="cls-16" d="M1015,660.23a33.62,33.62,0,0,1,10.08-.4,22.12,22.12,0,0,1,9.53,3.65c.71.47,1.38,1,2,1.49l1.88,1.53a44.64,44.64,0,0,0,3.79,2.81,22.17,22.17,0,0,0,8.58,3.32l-.31,2a24.37,24.37,0,0,1-9.46-3.37,42.7,42.7,0,0,1-4.07-2.84c-1.31-1-2.53-2-3.83-2.79a19.45,19.45,0,0,0-8.48-3,30.79,30.79,0,0,0-9.19.63Z"/><path class="cls-16" d="M930.82,625a30.59,30.59,0,0,0-6.29-6.73,19.28,19.28,0,0,0-8.24-3.6c-1.49-.3-3.06-.41-4.69-.57a44.8,44.8,0,0,1-4.92-.7,24.16,24.16,0,0,1-9.21-4l1.11-1.64a22.06,22.06,0,0,0,8.53,3.42,42,42,0,0,0,4.69.53l2.42.17c.84.07,1.67.16,2.51.29a22.08,22.08,0,0,1,9.45,3.83,33.55,33.55,0,0,1,7.11,7.17Z"/><path class="cls-16" d="M989.93,683.55a33.78,33.78,0,0,1,7.42,6.83,21.94,21.94,0,0,1,4.18,9.31c.17.83.29,1.66.39,2.49l.26,2.42a43.54,43.54,0,0,0,.7,4.66,22.23,22.23,0,0,0,3.74,8.4l-1.6,1.18a24.4,24.4,0,0,1-4.33-9.07,44.71,44.71,0,0,1-.88-4.88c-.23-1.63-.39-3.19-.75-4.67a19.37,19.37,0,0,0-3.9-8.11,31.13,31.13,0,0,0-7-6Z"/><path class="cls-16" d="M955.12,599.16a31.32,31.32,0,0,0,.29-9.2,19.36,19.36,0,0,0-3.3-8.37c-.85-1.27-1.89-2.45-2.93-3.72a44.59,44.59,0,0,1-3-4,24.39,24.39,0,0,1-3.71-9.33l1.94-.37a22.24,22.24,0,0,0,3.64,8.44,41.69,41.69,0,0,0,3,3.68l1.59,1.82c.55.65,1.08,1.3,1.57,2a21.89,21.89,0,0,1,4,9.38,33.78,33.78,0,0,1,0,10.09Z"/><path class="cls-16" d="M932.19,657.18a33.59,33.59,0,0,1-6.84,7.42,22,22,0,0,1-9.3,4.18c-.83.17-1.67.29-2.5.39l-2.41.26a44.11,44.11,0,0,0-4.67.7,22.3,22.3,0,0,0-8.4,3.74l-1.17-1.6a24.28,24.28,0,0,1,9.06-4.33,44.89,44.89,0,0,1,4.89-.88c1.63-.23,3.19-.39,4.67-.75a19.34,19.34,0,0,0,8.1-3.9,30.63,30.63,0,0,0,6-7Z"/><path class="cls-16" d="M1016.58,622.37a31.3,31.3,0,0,0,9.2.29,19.37,19.37,0,0,0,8.36-3.3c1.27-.85,2.45-1.88,3.72-2.93a46.09,46.09,0,0,1,4-3,24.45,24.45,0,0,1,9.33-3.71l.38,1.94a22.26,22.26,0,0,0-8.44,3.64,39,39,0,0,0-3.68,3l-1.83,1.59c-.64.55-1.29,1.08-2,1.57a21.93,21.93,0,0,1-9.39,4,33.71,33.71,0,0,1-10.08,0Z"/><circle class="cls-16" cx="1015.31" cy="550.68" r="2.69" transform="translate(12.15 1123.2) rotate(-58.19)"/><circle class="cls-16" cx="933.37" cy="733.59" r="2.69" transform="translate(-98.98 1319.76) rotate(-67.75)"/><circle class="cls-16" cx="1066.89" cy="680.8" r="2.69" transform="translate(-74.72 1227.13) rotate(-58.12)"/><circle class="cls-16" cx="873.79" cy="603.02" r="2.69" transform="translate(-15.06 1183.61) rotate(-67.76)"/><circle class="cls-16" cx="1011.09" cy="733.59" r="2.69" transform="translate(-120.09 203.59) rotate(-10.86)"/><circle class="cls-16" cx="934.17" cy="547.99" r="2.69" transform="translate(-139.94 409.25) rotate(-23.04)"/><circle class="cls-16" cx="876.48" cy="682.3" r="2.69" transform="translate(-123.94 199.7) rotate(-12.15)"/><circle class="cls-16" cx="1066.89" cy="605.71" r="2.69" transform="translate(-151.69 463.62) rotate(-22.93)"/><circle class="cls-20" cx="974.58" cy="639.62" r="43.91"/><polygon class="cls-16" points="1280.09 1038.83 1281.33 965.32 1285.88 965.32 1287.13 1038.83 1280.09 1038.83"/><polygon class="cls-3" points="1215.6 1038.83 1216.84 965.32 1221.39 965.32 1222.63 1038.83 1215.6 1038.83"/><polygon class="cls-16" points="1147.15 1038.83 1148.39 965.32 1152.95 965.32 1154.19 1038.83 1147.15 1038.83"/><polygon class="cls-3" points="1079.93 1038.83 1081.17 965.32 1085.73 965.32 1086.97 1038.83 1079.93 1038.83"/><polygon class="cls-3" points="864.25 1038.83 865.5 965.32 870.05 965.32 871.29 1038.83 864.25 1038.83"/><polygon class="cls-16" points="802.3 1038.83 803.54 965.32 808.09 965.32 809.33 1038.83 802.3 1038.83"/><polygon class="cls-3" points="731.94 1038.83 733.18 965.32 737.73 965.32 738.98 1038.83 731.94 1038.83"/><polygon class="cls-16" points="668.68 1038.83 669.92 965.32 674.47 965.32 675.71 1038.83 668.68 1038.83"/><polygon class="cls-3" points="602.95 1038.83 604.19 965.32 608.74 965.32 609.98 1038.83 602.95 1038.83"/><polygon class="cls-16" points="540.41 1038.83 541.65 965.32 546.2 965.32 547.44 1038.83 540.41 1038.83"/><polygon class="cls-3" points="1346.05 1038.83 1347.29 965.32 1351.85 965.32 1353.09 1038.83 1346.05 1038.83"/><polygon class="cls-16" points="1409.77 1038.83 1411.01 965.32 1415.56 965.32 1416.8 1038.83 1409.77 1038.83"/><path class="cls-4" d="M1127.94,750.41a1.17,1.17,0,0,1-1.08-1.26h0a1.14,1.14,0,0,1,1.24-1.06h0a1.16,1.16,0,0,1,1.08,1.25h0a1.15,1.15,0,0,1-1.17,1.07h-.09Zm2-11.58a1.16,1.16,0,0,1-.82-1.43h0a1.16,1.16,0,0,1,1.45-.82h0a1.17,1.17,0,0,1,.82,1.43h0a1.16,1.16,0,0,1-1.12.86h0A1.86,1.86,0,0,1,1130,738.83Zm3.87-11.07a1.18,1.18,0,0,1-.57-1.57h0a1.19,1.19,0,0,1,1.58-.57h0a1.22,1.22,0,0,1,.56,1.58h0a1.19,1.19,0,0,1-1.08.65h0A1.21,1.21,0,0,1,1133.85,727.76Zm5.84-10.16a1.16,1.16,0,0,1-.21-1.64h0a1.19,1.19,0,0,1,1.66-.21h0a1.18,1.18,0,0,1,.19,1.64h0a1.08,1.08,0,0,1-.92.45h0A1.14,1.14,0,0,1,1139.69,717.6Zm8.14-8.39a1.16,1.16,0,0,1,.28-1.64h0a1.14,1.14,0,0,1,1.62.28h0a1.18,1.18,0,0,1-.26,1.64h0a1.23,1.23,0,0,1-.68.21h0A1.14,1.14,0,0,1,1147.83,709.21Zm10.27-5.51a1.18,1.18,0,0,1,.77-1.48h0a1.21,1.21,0,0,1,1.48.77h0a1.18,1.18,0,0,1-.78,1.48h0a2,2,0,0,1-.35,0h0A1.2,1.2,0,0,1,1158.1,703.7Zm11.47-2.14a1.16,1.16,0,0,1,1.14-1.19h0a1.16,1.16,0,0,1,1.2,1.15h0a1.16,1.16,0,0,1-1.15,1.19h0A1.18,1.18,0,0,1,1169.57,701.56Z"/><path class="cls-4" d="M1107.67,750.84a1.61,1.61,0,0,1-1.45-1.72h0a1.56,1.56,0,0,1,1.71-1.45h0a1.59,1.59,0,0,1,1.48,1.71h0a1.6,1.6,0,0,1-1.59,1.48h0Zm2.79-15.79a1.59,1.59,0,0,1-1.12-2h0a1.6,1.6,0,0,1,2-1.1h0a1.61,1.61,0,0,1,1.12,2h0a1.6,1.6,0,0,1-1.54,1.15h0A1.3,1.3,0,0,1,1110.46,735.05Zm5.26-15.1a1.57,1.57,0,0,1-.75-2.11h0a1.59,1.59,0,0,1,2.11-.78h0a1.61,1.61,0,0,1,.77,2.14h0a1.63,1.63,0,0,1-1.45.91h0A1.47,1.47,0,0,1,1115.72,720Zm8-13.84a1.58,1.58,0,0,1-.28-2.23h0a1.61,1.61,0,0,1,2.25-.28h0a1.6,1.6,0,0,1,.28,2.23h0a1.58,1.58,0,0,1-1.26.63h0A1.52,1.52,0,0,1,1123.69,706.11Zm11.1-11.42a1.58,1.58,0,0,1,.37-2.23h0a1.57,1.57,0,0,1,2.21.38h0a1.61,1.61,0,0,1-.36,2.23h0a1.77,1.77,0,0,1-.93.3h0A1.53,1.53,0,0,1,1134.79,694.69Zm14-7.5a1.58,1.58,0,0,1,1-2h0a1.64,1.64,0,0,1,2,1.05h0a1.61,1.61,0,0,1-1.06,2h0a1.19,1.19,0,0,1-.49.07h0A1.55,1.55,0,0,1,1148.79,687.19Zm15.62-2.91a1.59,1.59,0,0,1,1.54-1.64h0a1.62,1.62,0,0,1,1.65,1.57h0a1.6,1.6,0,0,1-1.58,1.64h0A1.6,1.6,0,0,1,1164.41,684.28Zm31.94,0a1.6,1.6,0,0,1,1.62-1.59h0a1.59,1.59,0,0,1,1.59,1.59h0a1.6,1.6,0,0,1-1.59,1.6h0A1.61,1.61,0,0,1,1196.35,684.23Zm-16,0a1.59,1.59,0,0,1,1.59-1.59h0a1.58,1.58,0,0,1,1.6,1.59h0a1.59,1.59,0,0,1-1.6,1.6h0A1.6,1.6,0,0,1,1180.38,684.23Z"/><path class="cls-4" d="M825.92,750.41h0a1.16,1.16,0,0,1-1.18-1.07h0a1.17,1.17,0,0,1,1.08-1.25h0a1.14,1.14,0,0,1,1.25,1.06h0a1.18,1.18,0,0,1-1.08,1.26Zm-2.28-11.54h0a1.16,1.16,0,0,1-1.12-.86h0a1.17,1.17,0,0,1,.82-1.43h0a1.16,1.16,0,0,1,1.45.82h0a1.16,1.16,0,0,1-.82,1.43A1.86,1.86,0,0,1,823.64,738.87Zm-4-11h0a1.19,1.19,0,0,1-1.08-.65h0a1.22,1.22,0,0,1,.56-1.58h0a1.18,1.18,0,0,1,1.57.57h0a1.17,1.17,0,0,1-.56,1.57A1.21,1.21,0,0,1,819.61,727.85Zm-6.08-10h0a1.07,1.07,0,0,1-.91-.45h0a1.17,1.17,0,0,1,.19-1.64h0a1.19,1.19,0,0,1,1.66.21h0a1.16,1.16,0,0,1-.21,1.64A1.14,1.14,0,0,1,813.53,717.84Zm-8.37-8.14h0a1.23,1.23,0,0,1-.68-.21h0a1.17,1.17,0,0,1-.26-1.64h0a1.14,1.14,0,0,1,1.62-.28h0a1.16,1.16,0,0,1,.28,1.64A1.14,1.14,0,0,1,805.16,709.7Zm-10.44-5.18h0a2.27,2.27,0,0,1-.35,0h0a1.18,1.18,0,0,1-.77-1.48h0a1.21,1.21,0,0,1,1.48-.77h0a1.18,1.18,0,0,1,.77,1.48A1.2,1.2,0,0,1,794.72,704.52Zm-11.51-1.81h0a1.15,1.15,0,0,1-1.15-1.19h0a1.16,1.16,0,0,1,1.19-1.15h0a1.16,1.16,0,0,1,1.15,1.19A1.18,1.18,0,0,1,783.21,702.71Z"/><path class="cls-4" d="M846.13,750.86h0a1.6,1.6,0,0,1-1.59-1.48h0a1.59,1.59,0,0,1,1.48-1.71h0a1.57,1.57,0,0,1,1.71,1.45h0a1.61,1.61,0,0,1-1.46,1.72Zm-3.07-15.76h0a1.61,1.61,0,0,1-1.55-1.15h0a1.62,1.62,0,0,1,1.13-2h0a1.61,1.61,0,0,1,2,1.1h0a1.6,1.6,0,0,1-1.13,2A1.21,1.21,0,0,1,843.06,735.1Zm-5.51-15h0a1.63,1.63,0,0,1-1.45-.91h0a1.61,1.61,0,0,1,.77-2.14h0a1.59,1.59,0,0,1,2.11.78h0a1.57,1.57,0,0,1-.75,2.11A1.47,1.47,0,0,1,837.55,720.11Zm-8.28-13.65h0a1.61,1.61,0,0,1-1.27-.63h0a1.6,1.6,0,0,1,.29-2.23h0a1.61,1.61,0,0,1,2.25.28h0a1.58,1.58,0,0,1-.28,2.23A1.54,1.54,0,0,1,829.27,706.46Zm-11.4-11.09h0a1.74,1.74,0,0,1-.93-.3h0a1.61,1.61,0,0,1-.36-2.23h0a1.57,1.57,0,0,1,2.21-.38h0a1.59,1.59,0,0,1,.37,2.23A1.53,1.53,0,0,1,817.87,695.37Zm-14.21-7.08h0a1.19,1.19,0,0,1-.49-.07h0a1.59,1.59,0,0,1-1.06-2h0a1.63,1.63,0,0,1,2-1.05h0a1.59,1.59,0,0,1,1,2A1.55,1.55,0,0,1,803.66,688.29ZM788,685.85h0a1.6,1.6,0,0,1-1.57-1.64h0a1.62,1.62,0,0,1,1.64-1.57h0a1.61,1.61,0,0,1,0,3.21Zm-32,0h0a1.6,1.6,0,0,1-1.59-1.6h0a1.59,1.59,0,0,1,1.59-1.59h0a1.6,1.6,0,1,1,0,3.19Zm16,0h0a1.59,1.59,0,0,1-1.6-1.6h0a1.58,1.58,0,0,1,1.6-1.59h0a1.6,1.6,0,0,1,0,3.19Z"/><rect class="cls-16" x="968.25" y="304.48" width="15.87" height="40.85" rx="7.94" ry="7.94"/><rect class="cls-16" x="968.25" y="402.98" width="15.87" height="40.85" rx="7.94" ry="7.94"/><rect class="cls-16" x="968.63" y="977.62" width="15.87" height="61.2"/><circle class="cls-16" cx="1217.25" cy="423.4" r="3.96"/><circle class="cls-16" cx="727.65" cy="423.4" r="3.96"/><circle class="cls-16" cx="1077.23" cy="309.83" r="3.96"/><circle class="cls-16" cx="872.21" cy="309.83" r="3.96"/><circle class="cls-16" cx="575.38" cy="684.23" r="9.65"/><circle class="cls-16" cx="672.2" cy="550.68" r="9.65"/><circle class="cls-16" cx="1374.98" cy="684.23" r="9.65"/><circle class="cls-16" cx="1280.09" cy="543.82" r="9.65"/><circle class="cls-17" cx="1543.15" cy="853.35" r="9.65"/><circle class="cls-17" cx="397.37" cy="853.35" r="9.65"/><circle class="cls-14" cx="433.05" cy="991.96" r="9.65"/><circle class="cls-16" cx="1389.74" cy="1062.07" r="9.65"/><circle class="cls-16" cx="560.17" cy="1062.07" r="9.65"/></g><g class="cls-6"><polygon class="cls-17" points="210.6 963.88 269.01 963.88 237.24 1060.55 202.71 1060.55 210.6 963.88"/><path class="cls-3" d="M229.54,878.65a9.2,9.2,0,0,1,1.39-3.83c1.17-1.49,3.17-2,5-2.35A84.79,84.79,0,0,1,251.19,871a24.19,24.19,0,0,1,9.61,1.44c4.85,2.07,8.09,6.62,11.95,10.21s8.36,6.23,11.46,10.35c2.92,3.87,4.31,8.7,5,13.51a55.82,55.82,0,0,1-1.57,23.28c-4.46,15.63-15.41,28.43-26.07,40.69a9.44,9.44,0,0,1-2.47,2.25c-1.25.68-1,6.28-2.45,6.34-12,.56-25.71-4.77-37.71-5a16.37,16.37,0,0,1-4.31-.45,17.41,17.41,0,0,1-4.21-2.09l-17.17-10.65a16.73,16.73,0,0,1-3.81-2.91c-3.27-3.71-2.52-9.64.12-13.81s6.75-7.14,10.38-10.5a59.12,59.12,0,0,0,16.38-26.35c1.7-5.68,3.34-8.29,6.62-13.2A45.31,45.31,0,0,0,229.54,878.65Z"/><path class="cls-17" d="M269.2,892.67a21.91,21.91,0,0,1-.39,7.19,37.87,37.87,0,0,1-2.1,6.79,40,40,0,0,1-3.22,6.32,69.07,69.07,0,0,0-3.51,6l-.79-.37a70.49,70.49,0,0,1,3.45-6.15,40.21,40.21,0,0,0,3-6.22,38.26,38.26,0,0,0,1.92-6.62,20.79,20.79,0,0,0,.26-6.76Z"/><path class="cls-21" d="M251.44,933.9l-2.72-8.74a3.13,3.13,0,0,1,2.11-3.95l8.85-2.63,2.74,8.78a3.12,3.12,0,0,1-2.12,3.95Z"/><path class="cls-17" d="M253.75,929.63l-1.2-3.86a1.39,1.39,0,0,1,.93-1.75l3.91-1.15,1.21,3.87a1.38,1.38,0,0,1-.94,1.74Z"/><path class="cls-17" d="M277.29,893.44s8.29,8.29,2.77,22.1c-4.1,10.23-12.73,33.33-16.94,44.63a15.52,15.52,0,0,0,.79,12.58l48.86,93.53,12.81-7.33-39.19-85a15.51,15.51,0,0,1-.15-12.64L300.59,928s11.34-31-4-45.63Z"/><path class="cls-17" d="M258.45,976.59,213.5,950.11a4.69,4.69,0,0,1-1.41-6.81L251,890l-14.89-9.48s-18.18,19.25-45.52,57.28a15.41,15.41,0,0,0,6,22.94l57.83,27.07Z"/><path class="cls-17" d="M173.67,1066.62c-38.46-2.21-31-67-31-67,1.38-71.82,87.51-131.28,87.51-131.28l10.49,7.27-29.88,38L197.9,939.4l2.42,16.15,4,8.08,15.89,15.07s-2.1,79.63-35.24,88.09C182.71,1067.38,176.23,1066.77,173.67,1066.62Z"/><ellipse class="cls-22" cx="168.01" cy="944.19" rx="10.96" ry="2.02" transform="translate(-753.86 679.82) rotate(-63.91)"/><ellipse class="cls-22" cx="200.65" cy="910.44" rx="10.98" ry="2.03" transform="translate(-640.9 509.24) rotate(-52.08)"/><ellipse class="cls-3" cx="180.68" cy="922.64" rx="7.8" ry="1.44" transform="translate(-685.57 557.23) rotate(-56.05)"/><ellipse class="cls-3" cx="183.66" cy="931.56" rx="7.8" ry="1.44" transform="translate(-691.66 563.64) rotate(-56.05)"/><ellipse class="cls-3" cx="205.14" cy="894.42" rx="4.42" ry="0.81" transform="translate(-557.97 384.78) rotate(-43.35)"/><ellipse class="cls-3" cx="213.29" cy="893.85" rx="4.4" ry="0.81" transform="translate(-565.7 406.37) rotate(-44.54)"/><ellipse class="cls-3" cx="194.01" cy="906.09" rx="4.4" ry="0.81" transform="translate(-629.64 481.54) rotate(-50.65)"/><ellipse class="cls-3" cx="165.08" cy="963.24" rx="4.41" ry="0.81" transform="translate(-793.02 770.58) rotate(-68.91)"/><ellipse class="cls-3" cx="177.15" cy="945.99" rx="4.41" ry="0.81" transform="translate(-730.32 625.4) rotate(-59.94)"/><path class="cls-17" d="M267.84,970.14c6.78,5.53,8.92,10.06,9.23,18.81.21,6.11-1.94,12.71-4.07,18.44-5.75,15.48-18.28,40.88-24,56.36l-15.9-4.4,19.85-69,10.16-29.9Z"/><path class="cls-23" d="M264.88,956.29A42.38,42.38,0,0,0,268.94,983l17,32.16"/><path class="cls-24" d="M232.09,1057.7l13.63-37.24,3.41-9.31,1.69-4.64a6.71,6.71,0,0,0,0-4.27,8.49,8.49,0,0,0-2.46-3.64,10.56,10.56,0,0,0-1.86-1.31,19.36,19.36,0,0,0-2.14-1l-9.12-3.89.82-1.9,9.08,4a19.69,19.69,0,0,1,2.33,1.12,13.33,13.33,0,0,1,2.18,1.56,10.4,10.4,0,0,1,3,4.51,8.61,8.61,0,0,1-.06,5.45l-1.75,4.67-3.49,9.28-14,37.11Z"/><path class="cls-17" d="M205.31,962.38s30.57,4,25.05,24.71c0,0-24,59.15-30.91,79.87l-16.7.11Z"/><polygon class="cls-3" points="254.39 987.76 260.82 991.37 262.68 1020.85 268.86 1020.76 272.55 985.84 257.94 976.17 254.39 987.76"/><path class="cls-3" d="M323.66,1055.34l5.75,2.93c1.5.9,5.9,1.28,7.64,1.26l29.48-.32a4.84,4.84,0,0,1,3,1l5.76,4.36a.68.68,0,0,1-.4,1.22l-62,.68L307.19,1056Z"/><path class="cls-3" d="M252,1055.21l5,3a9.34,9.34,0,0,0,4.94,1.34l29.49-.32a4.81,4.81,0,0,1,3,1l5.76,4.36a.68.68,0,0,1-.4,1.22l-72.47.68,6.43-11.17Z"/><path class="cls-3" d="M202.76,1055.77l5,3a9.43,9.43,0,0,0,4.94,1.34l29.48-.33a4.93,4.93,0,0,1,3,1l5.76,4.36a.67.67,0,0,1-.4,1.21l-67.88.63,2.37-10.61Z"/><path class="cls-25" d="M158.46,1049.58c-14.86,4.18-31.35,1-44.32-7.4a37.51,37.51,0,0,1-10.46-9.53c-3.79-5.35-5.51-11.92-6-18.45-1.57-19.38,6.76-38.33,17.76-54.38s24.72-30,36-45.86a212.22,212.22,0,0,0,19.92-34.68c4.8-10.42,8.92-21.42,9.35-32.89s-3.29-23.55-12-31c-12.06-10.36-31.33-9.19-44.26.06s-20.11,24.91-22.51,40.64-.58,31.74,1.23,47.55"/><path class="cls-26" d="M109.47,912.29c-1.47,6.12-5.66,11.19-8.09,17a31.36,31.36,0,0,0-1,21.37c-2.81-3-5.7-6.11-6.88-10a20.9,20.9,0,0,1-.3-9.08c-1.22,4.59-4.74,4.1-5.61,9.75-5.73-7.58-4.13-19.92.47-28.23,2.15-3.87,5.55-6.86,8.5-10.17s5.17-7,5.67-11.59C109.09,894.9,111.11,905.44,109.47,912.29Z"/><ellipse class="cls-4" cx="240.83" cy="956.05" rx="3.87" ry="1.52" transform="translate(-694.04 642.93) rotate(-57.34)"/><path class="cls-24" d="M195.62,1011l2.61-10.72,1.29-5.35a11,11,0,0,0-2.29-9.51,11.22,11.22,0,0,0-4-3l-10-4.59,1-2.1,10,4.78a12.83,12.83,0,0,1,7.26,8.94,12.88,12.88,0,0,1-.07,5.89l-1.4,5.35-2.8,10.67Z"/><polygon class="cls-24" points="182.87 1059.8 194.04 1017.22 195.5 1017.59 185.11 1060.36 182.87 1059.8"/><path class="cls-24" d="M224.4,1004,214,1030.49q-5.22,13.27-10.51,26.53l-2.14-.88q5.49-13.16,10.87-26.36L223,1003.39Z"/><path class="cls-24" d="M238,981.36c-5.39-2.6-10.73-5.31-16.17-7.81l-16.27-7.65-8.14-3.83a23.6,23.6,0,0,1-7.27-5.8,14.82,14.82,0,0,1-3.34-8.76,17.22,17.22,0,0,1,.51-4.69,17.51,17.51,0,0,1,1.75-4.39v0l0,0,10.72-14.51,1.21.88-10.61,14.6,0-.06a16,16,0,0,0-1.95,8.16,13.1,13.1,0,0,0,3,7.72,21.93,21.93,0,0,0,6.72,5.27l8.14,3.75,16.31,7.52,16.3,7.57Z"/><polygon class="cls-24" points="244.15 884.26 246.56 886.39 245.75 887.64 242.81 886.15 244.15 884.26"/><path class="cls-27" d="M224.61,1058.84c2.77-.3,11.2,1.22,13.87,2,1.4.43,3.89.51,3.39,5.24"/><path class="cls-24" d="M186.9,1040.33c7.19,4.22,14.91,7.7,23,3.81,3.36-1.61.42-6.61-2.93-5-5.95,2.85-12.1-.83-17.19-3.81-3.22-1.89-6.14,3.11-2.92,5Z"/><path class="cls-24" d="M238.36,1039.66c7.38,3.69,15.43,6.86,23.24,2.46,3.25-1.84.33-6.84-2.92-5-5.8,3.27-12,.22-17.4-2.45-3.33-1.66-6.26,3.33-2.92,5Z"/><path class="cls-24" d="M298.18,1044.23c7.83,1,16.42,1.23,22-5.27,2.42-2.81-1.66-6.92-4.1-4.09-4.56,5.27-11.7,4.35-17.94,3.57-3.69-.46-3.66,5.33,0,5.79Z"/><path class="cls-24" d="M240.36,982.81c4.63-3.41,9.43-7.53,9.09-13.84-.18-3.27-5.3-3.3-5.12,0,.24,4.35-3.39,7.09-6.55,9.42-2.62,1.94-.07,6.38,2.58,4.42Z"/><path class="cls-17" d="M314.75,850.24c0-26.73-13.54-51-45.36-50.66-33.73.36-46.14,23.48-46.14,50.2"/><circle class="cls-3" cx="317.56" cy="839.61" r="15.59"/><circle class="cls-17" cx="317.56" cy="839.61" r="8.23"/><circle class="cls-3" cx="221.31" cy="839.61" r="15.59"/><circle class="cls-17" cx="221.31" cy="839.61" r="8.23"/><path class="cls-17" d="M313,833.5a29.16,29.16,0,0,0-10.17-16.66,12.28,12.28,0,0,0-1.73-1.21c-8.65-4.43-14.46-7.57-24.15-8.27-6.7-.47-16.34,1-23,1.62-21.86,2.11-25.44,13.49-25.44,13.49s-11.68,27.68-.48,47.68l0,0c3.77,8.27,12.33,13.93,20,18.43A142.66,142.66,0,0,0,261,895.27c3.33,1.52,6.86,2.91,10.52,2.74,5-.23,9.49-3.34,13.73-5.66a98.78,98.78,0,0,0,19.79-14,22.75,22.75,0,0,0,4.78-5.71c.06-.1.1-.2.16-.3C316.81,859.64,315.13,843.56,313,833.5Z"/><path class="cls-3" d="M260.12,811a9.8,9.8,0,0,0-2.84-4.44l.47-.53a10.34,10.34,0,0,1,3,4.77Z"/><path class="cls-3" d="M262.48,807.3a9.28,9.28,0,0,0-.54-2.85l.66-.24a9.78,9.78,0,0,1,.59,3.07Z"/><path class="cls-3" d="M254.8,809.33a8.64,8.64,0,0,0-3.2-1.72l.2-.68a9.38,9.38,0,0,1,3.46,1.86Z"/><path class="cls-3" d="M250.56,812.4a12,12,0,0,0-3.89-1.74l.16-.69a12.58,12.58,0,0,1,4.13,1.84Z"/><path class="cls-3" d="M278.58,811l-.68-.2a10.42,10.42,0,0,1,3-4.77l.47.53A9.78,9.78,0,0,0,278.58,811Z"/><path class="cls-3" d="M276.22,807.3l-.71,0a9.78,9.78,0,0,1,.59-3.07l.66.24A9.28,9.28,0,0,0,276.22,807.3Z"/><path class="cls-3" d="M283.9,809.33l-.46-.54a9.3,9.3,0,0,1,3.46-1.86l.19.68A8.68,8.68,0,0,0,283.9,809.33Z"/><path class="cls-3" d="M288.14,812.4l-.4-.59a12.62,12.62,0,0,1,4.12-1.84l.17.69A12,12,0,0,0,288.14,812.4Z"/><path class="cls-3" d="M295.69,875.94H295a24.74,24.74,0,0,0-.32-5.16,11.49,11.49,0,0,0-1.56-3.25l.59-.39a11.84,11.84,0,0,1,1.66,3.49A25,25,0,0,1,295.69,875.94Z"/><path class="cls-3" d="M292.28,866.34a11.61,11.61,0,0,0-1.33-1.51l.48-.53a11.31,11.31,0,0,1,1.41,1.62Z"/><path class="cls-3" d="M302.56,868.87c-.18-1.69-2.54-3.82-4.37-4.46l.23-.67c1.87.65,4.61,2.88,4.84,5.06Z"/><path class="cls-3" d="M305.85,861.64a4.71,4.71,0,0,0-3.79-2.35l0-.71a5.42,5.42,0,0,1,4.38,2.71Z"/><path class="cls-3" d="M307.38,855.52a1.72,1.72,0,0,0-1.8-.91l-.12-.7a2.45,2.45,0,0,1,2.56,1.3Z"/><path class="cls-3" d="M307.82,848.48a2.72,2.72,0,0,0-1.75-.28l-.12-.7a3.49,3.49,0,0,1,2.2.35Z"/><path class="cls-3" d="M290.87,882l-.7-.08a27.43,27.43,0,0,0-.23-6.56l.69-.16A27.43,27.43,0,0,1,290.87,882Z"/><path class="cls-3" d="M285.18,887.36l-.66-.24a18.81,18.81,0,0,0,.4-4.34h.71A20.33,20.33,0,0,1,285.18,887.36Z"/><path class="cls-3" d="M274.71,891.33l-.5-.5a9.29,9.29,0,0,0,1.36-1.71,3.92,3.92,0,0,0,.48-1,5.06,5.06,0,0,0,.07-1.55l.71,0a5.65,5.65,0,0,1-.09,1.77,4.62,4.62,0,0,1-.57,1.24A9.93,9.93,0,0,1,274.71,891.33Z"/><path class="cls-3" d="M301,861.73a5.38,5.38,0,0,0-2.26-.8l.07-.7a5.93,5.93,0,0,1,2.57.91Z"/><path class="cls-3" d="M300.55,873.85l-.71,0a4.82,4.82,0,0,0-.49-2.36l.64-.31A5.61,5.61,0,0,1,300.55,873.85Z"/><path class="cls-3" d="M241.78,875.36l-.7-.05a24.52,24.52,0,0,1,.79-5.27,9.64,9.64,0,0,1,2.16-3.82l.53.47a9,9,0,0,0-2,3.56A25.23,25.23,0,0,0,241.78,875.36Z"/><path class="cls-3" d="M245.86,865.43l-.51-.5a11,11,0,0,1,1-.86l.43.56A11.23,11.23,0,0,0,245.86,865.43Z"/><path class="cls-3" d="M235.38,868.87l-.7-.07a5.58,5.58,0,0,1,3.67-4.62l.23.67A4.94,4.94,0,0,0,235.38,868.87Z"/><path class="cls-3" d="M232.09,861.64l-.62-.35a5.42,5.42,0,0,1,4.38-2.71l0,.71A4.71,4.71,0,0,0,232.09,861.64Z"/><path class="cls-3" d="M230.56,855.52l-.64-.31a2.44,2.44,0,0,1,2.56-1.3l-.12.7A1.75,1.75,0,0,0,230.56,855.52Z"/><path class="cls-3" d="M230.12,848.48l-.33-.63a3.44,3.44,0,0,1,2.2-.35l-.12.7A2.78,2.78,0,0,0,230.12,848.48Z"/><path class="cls-3" d="M246.42,881.36a21.19,21.19,0,0,1,.79-5.73l.1-.4.69.16-.1.4a20.62,20.62,0,0,0-.77,5.49Z"/><path class="cls-3" d="M252.36,887.19a10,10,0,0,1-.1-3.29c0-.43.05-.83.05-1.12H253c0,.31,0,.72-.05,1.17a9.7,9.7,0,0,0,.06,3Z"/><path class="cls-3" d="M263.23,891.33a10,10,0,0,1-1.46-1.84,4.62,4.62,0,0,1-.57-1.24,5.58,5.58,0,0,1-.09-1.77l.71,0a5.06,5.06,0,0,0,.07,1.56,3.92,3.92,0,0,0,.48,1,9.83,9.83,0,0,0,1.36,1.71Z"/><path class="cls-3" d="M236.92,861.73l-.38-.59a5.93,5.93,0,0,1,2.57-.91l.08.7A5.37,5.37,0,0,0,236.92,861.73Z"/><path class="cls-3" d="M237.39,873.85a5.63,5.63,0,0,1,.56-2.7l.64.31a4.82,4.82,0,0,0-.49,2.36Z"/><path class="cls-3" d="M269.13,893.42a17.6,17.6,0,0,1-.52-5.92l.7.06a17.24,17.24,0,0,0,.5,5.68Z"/><path class="cls-3" d="M306.59,842.07l-.35-.62a3.64,3.64,0,0,1,2.54-.41l-.14.7A2.88,2.88,0,0,0,306.59,842.07Z"/><path class="cls-3" d="M305.83,837.32l-.51-.49a3.07,3.07,0,0,1,2.26-.91l0,.71A2.38,2.38,0,0,0,305.83,837.32Z"/><path class="cls-3" d="M304.72,832.2,304,832c.2-.88,1.87-2.23,2.5-2.59l.35.62A6.28,6.28,0,0,0,304.72,832.2Z"/><path class="cls-3" d="M301.56,828c0-.9,1.26-2.54,1.79-3l.47.52a5.83,5.83,0,0,0-1.55,2.48Z"/><path class="cls-3" d="M231.32,842.07a2.88,2.88,0,0,0-2-.33l-.14-.7a3.66,3.66,0,0,1,2.55.41Z"/><path class="cls-3" d="M232.08,837.32a2.35,2.35,0,0,0-1.72-.69l0-.71a3.07,3.07,0,0,1,2.26.91Z"/><path class="cls-3" d="M233.19,832.2a6.11,6.11,0,0,0-2.16-2.13l.35-.62c.63.36,2.3,1.71,2.5,2.59Z"/><path class="cls-3" d="M236.35,828h-.71a5.83,5.83,0,0,0-1.55-2.48l.47-.52C235.09,825.49,236.37,827.14,236.35,828Z"/><path class="cls-3" d="M304.58,849.76a37,37,0,0,0-.5-4.71c-1.27-5.8-1.89-6.56-4.17-11.23a32.53,32.53,0,0,0-4.25-5.6c-1.54-1.55-5.38-2.44-7.56-2.63a53.87,53.87,0,0,0-7.41-.06c-5.33.32-7.55,1.36-11.86,3.43-4.3-2.07-6.53-3.11-11.86-3.43a53.9,53.9,0,0,0-7.41.06c-2.17.19-6,1.08-7.55,2.63a32,32,0,0,0-4.25,5.6c-2.28,4.67-2.9,5.43-4.17,11.23a37,37,0,0,0-.5,4.71c-.18,2.53,1.48,4.82,3.3,6.59a16,16,0,0,0,5.43,3.63,22.87,22.87,0,0,0,8.21.92,27.77,27.77,0,0,0-2.74,9.83,18.85,18.85,0,0,0-.1,5.56c.9,5.28,5.88,9.27,11.18,10a10.13,10.13,0,0,0,3.43,0,20.56,20.56,0,0,0,7-2.06,20.66,20.66,0,0,0,7,2.06,10.13,10.13,0,0,0,3.43,0c5.3-.77,10.28-4.76,11.17-10a18.51,18.51,0,0,0-.09-5.56,27.77,27.77,0,0,0-2.74-9.83,22.87,22.87,0,0,0,8.21-.92,16.09,16.09,0,0,0,5.43-3.63C303.1,854.58,304.76,852.29,304.58,849.76Z"/><path class="cls-3" d="M306.51,843.58a21.65,21.65,0,1,0-43.29,0c0,11.95,12.56,17.5,24.51,17.5S306.51,855.53,306.51,843.58Z"/><path class="cls-3" d="M275,843.89a21.65,21.65,0,0,0-43.29,0c0,12,7.78,17.83,19.74,17.83S275,855.85,275,843.89Z"/><path class="cls-26" d="M295.88,840.07a12.23,12.23,0,0,0-19.68-7.67c-1.23,1-2.27,2.18-3.57,3.06a5.82,5.82,0,0,1-2.7,1,4.75,4.75,0,0,0-.87,0,4.7,4.7,0,0,0-.87,0,5.86,5.86,0,0,1-2.71-1c-1.3-.88-2.34-2.09-3.57-3.06a12.23,12.23,0,0,0-19.68,7.67,10.56,10.56,0,0,0,1.54,7.5c2.11,3.1,5.85,4.59,9.41,5.78a17.62,17.62,0,0,0,15.66,26h.43a17.61,17.61,0,0,0,15.66-26c3.56-1.19,7.3-2.68,9.41-5.78A10.51,10.51,0,0,0,295.88,840.07Z"/><ellipse class="cls-4" cx="274.44" cy="859.16" rx="1.93" ry="0.96" transform="translate(-464.91 342.6) rotate(-37.34)"/><ellipse class="cls-4" cx="262.93" cy="859.16" rx="0.96" ry="1.93" transform="translate(-579.6 547.01) rotate(-52.66)"/><path class="cls-4" d="M288.93,846a12,12,0,0,0-3-1.34,9.76,9.76,0,0,0-3.23-.41,11.08,11.08,0,0,0-3.25.59,12.37,12.37,0,0,0-3,1.46l-1.19-1.48a13.84,13.84,0,0,1,7.27-2.81,12.07,12.07,0,0,1,4,.32,14.76,14.76,0,0,1,3.7,1.45Z"/><path class="cls-4" d="M287.61,839.61a12.85,12.85,0,0,0-3.45.08,10.39,10.39,0,0,0-3.26,1.06,11.41,11.41,0,0,0-2.82,2,12.34,12.34,0,0,0-2.14,2.72l-.86-.43a13.34,13.34,0,0,1,2.27-3,12.89,12.89,0,0,1,3-2.26A11.5,11.5,0,0,1,284,838.5a14.24,14.24,0,0,1,3.8-.17Z"/><path class="cls-4" d="M248.45,843.79a14.76,14.76,0,0,1,3.7-1.45,12.07,12.07,0,0,1,4-.32,13.84,13.84,0,0,1,7.27,2.81l-1.19,1.48a12.37,12.37,0,0,0-3-1.46,11.08,11.08,0,0,0-3.25-.59,9.76,9.76,0,0,0-3.23.41,12,12,0,0,0-3,1.34Z"/><path class="cls-4" d="M251,838.33a14.24,14.24,0,0,1,3.8.17,11.5,11.5,0,0,1,3.58,1.26,12.89,12.89,0,0,1,3,2.26,13.34,13.34,0,0,1,2.27,3l-.86.43a12.34,12.34,0,0,0-2.14-2.72,11.41,11.41,0,0,0-2.82-2,10.39,10.39,0,0,0-3.26-1.06,12.86,12.86,0,0,0-3.45-.08Z"/><path class="cls-4" d="M264.55,869.82a5.92,5.92,0,0,0,3.4,1.48,7.23,7.23,0,0,0,3.71-.63,26.83,26.83,0,0,0,6.95-3.89l.92,1.24a28.31,28.31,0,0,1-7.44,3.86,15.36,15.36,0,0,1-2.07.56,6,6,0,0,1-2.24,0,7,7,0,0,1-3.92-1.9Z"/><path class="cls-26" d="M302.32,818.56a3.71,3.71,0,0,1,2.41-4.67,3.5,3.5,0,0,1,.89-.17h0a42.34,42.34,0,0,1-11.32-1.16c-2.68-.72-5.23-1.89-7.93-2.51s-5.72-.62-8.06.87a4.73,4.73,0,0,1-1,.55,2.6,2.6,0,0,1-2.88-1.34,11.48,11.48,0,0,1-1.05-3.27c-.34-1.38-2.26-12.45-4.29-12.47s-4.31,11-4.67,12.47a11.46,11.46,0,0,1-1,3.27,2.62,2.62,0,0,1-2.89,1.34,4.93,4.93,0,0,1-1-.55c-2.34-1.49-5.35-1.49-8.06-.87s-5.25,1.79-7.93,2.51a45.16,45.16,0,0,1-12.64.91c-2.49,2.35-2.92,4.68-3.53,6.12.27.09.76.65,1,.76a22,22,0,0,0,9.53,2c6-.12,11.4-4.19,17.44-4.25,3.29,0,5.78,2.58,6.42,5.8a3.57,3.57,0,0,0,.45,1,14.13,14.13,0,0,0,.64,1.58,6.66,6.66,0,0,0,12,0,14.42,14.42,0,0,0,.61-1.48l0,0c2-5.27,4.18-7.11,7.52-7,5.82.28,11.06,4.11,16.89,4.23A16.82,16.82,0,0,0,307,821,3.72,3.72,0,0,1,302.32,818.56Z"/><path class="cls-26" d="M309.41,816.31a3.72,3.72,0,0,0-3.79-2.59c1,.29,1.7,1,2.13,2.67,0,0,.69,3-.46,4.47L307,821h0A3.72,3.72,0,0,0,309.41,816.31Z"/><path class="cls-26" d="M307.75,816.39c-.43-1.66-1.17-2.38-2.13-2.67a3.5,3.5,0,0,0-.89.17A3.72,3.72,0,0,0,307,821l.33-.13C308.44,819.39,307.75,816.39,307.75,816.39Z"/><path class="cls-26" d="M233.71,816a3.73,3.73,0,0,0-3.8-2.59,3.51,3.51,0,0,0-.88.17,3.72,3.72,0,0,0,2.23,7.1h0A3.72,3.72,0,0,0,233.71,816Z"/><path class="cls-17" d="M246,806.6l-1.95-.56a7.16,7.16,0,0,0-3.85-8.47l.87-1.84A9.2,9.2,0,0,1,246,806.6Z"/><path class="cls-17" d="M245.58,807.2l-1.23-1.62a7.15,7.15,0,0,0,2-9.09l1.79-1a9.2,9.2,0,0,1-2.52,11.67Z"/><ellipse class="cls-28" cx="268.88" cy="816.97" rx="3.32" ry="9.27"/><polygon class="cls-24" points="237.26 880.7 218.87 902.61 217.71 901.66 235.47 879.23 237.26 880.7"/><path class="cls-24" d="M227.06,865.43a17,17,0,0,0,1.06,2.34c.41.79.88,1.56,1.37,2.32a43.41,43.41,0,0,0,3.24,4.35c1.16,1.39,2.43,2.71,3.73,4,.65.64,1.34,1.24,2,1.87l2.09,1.79-.93,1.17-2.2-1.74c-.71-.62-1.43-1.21-2.13-1.85a55.61,55.61,0,0,1-4-4,46.17,46.17,0,0,1-3.56-4.42c-.54-.79-1.07-1.59-1.54-2.42a18.59,18.59,0,0,1-1.33-2.68Z"/><path class="cls-24" d="M276.76,895.77a59.57,59.57,0,0,0,7.43-3.58c2.42-1.34,4.76-2.82,7.06-4.36s4.51-3.21,6.66-5c1.1-.84,2.13-1.77,3.2-2.65s2.07-1.84,3.1-2.76l1.55,1.72c-1.07.91-2.14,1.84-3.22,2.74s-2.19,1.78-3.33,2.62c-2.23,1.72-4.55,3.32-6.91,4.87s-4.8,3-7.3,4.27a60.85,60.85,0,0,1-7.75,3.49Z"/></g><g class="cls-6"><polygon class="cls-17" points="1724.81 963.04 1666.4 963.04 1698.16 1059.71 1732.69 1059.71 1724.81 963.04"/><path class="cls-3" d="M1705.87,877.81a9.26,9.26,0,0,0-1.4-3.83c-1.16-1.49-3.16-2-5-2.34a84.71,84.71,0,0,0-15.24-1.48,24,24,0,0,0-9.6,1.45c-4.86,2.06-8.09,6.61-12,10.2s-8.35,6.23-11.46,10.35c-2.92,3.88-4.3,8.71-5,13.51a56,56,0,0,0,1.57,23.29c4.46,15.62,15.42,28.42,26.07,40.69a9.61,9.61,0,0,0,2.48,2.24c1.25.69,1,6.28,2.45,6.35,12,.55,25.7-4.77,37.71-5a16.41,16.41,0,0,0,4.31-.45,16.82,16.82,0,0,0,4.2-2.09l17.18-10.65a16.68,16.68,0,0,0,3.8-2.91c3.27-3.7,2.53-9.63-.11-13.81s-6.76-7.14-10.39-10.5a59.13,59.13,0,0,1-16.37-26.35c-1.7-5.68-3.35-8.29-6.63-13.2A45,45,0,0,1,1705.87,877.81Z"/><path class="cls-17" d="M1667.54,892a20.82,20.82,0,0,0,.27,6.76,37,37,0,0,0,1.92,6.62,39.22,39.22,0,0,0,3,6.21,70.49,70.49,0,0,1,3.45,6.15l-.79.37c-1-2.06-2.29-4-3.52-6a41.18,41.18,0,0,1-3.22-6.31,40,40,0,0,1-2.1-6.8,22.12,22.12,0,0,1-.39-7.18Z"/><path class="cls-21" d="M1684,933.07l2.73-8.75a3.14,3.14,0,0,0-2.11-4l-8.86-2.62-2.74,8.77a3.15,3.15,0,0,0,2.12,4Z"/><path class="cls-17" d="M1681.65,928.79l1.21-3.86a1.39,1.39,0,0,0-.93-1.74L1678,922l-1.21,3.87a1.39,1.39,0,0,0,.94,1.75Z"/><path class="cls-17" d="M1658.11,892.6s-8.28,8.29-2.76,22.1c4.09,10.23,12.73,33.34,16.93,44.63a15.44,15.44,0,0,1-.79,12.58l-48.86,93.54-12.8-7.34,39.18-85a15.51,15.51,0,0,0,.16-12.64l-14.35-33.24s-11.34-31,4-45.64Z"/><path class="cls-17" d="M1677,975.76l45-26.48a4.71,4.71,0,0,0,1.41-6.82l-38.92-53.35,14.89-9.48s18.19,19.26,45.52,57.29a15.39,15.39,0,0,1-6,22.93L1681,986.92Z"/><path class="cls-17" d="M1761.74,1065.79c38.46-2.22,31-67,31-67-1.38-71.82-87.51-131.28-87.51-131.28l-10.5,7.27,29.88,38,12.92,25.84-2.42,16.15-4,8.08-15.88,15.08s2.09,79.62,35.24,88.08C1752.69,1066.54,1759.18,1065.93,1761.74,1065.79Z"/><ellipse class="cls-22" cx="1767.4" cy="943.36" rx="2.02" ry="10.96" transform="translate(-234.78 873.45) rotate(-26.09)"/><ellipse class="cls-22" cx="1734.76" cy="909.6" rx="2.03" ry="10.98" transform="translate(-192.76 1258.09) rotate(-37.92)"/><ellipse class="cls-3" cx="1754.73" cy="921.8" rx="1.44" ry="7.8" transform="translate(-215.65 1137.15) rotate(-33.95)"/><ellipse class="cls-3" cx="1751.75" cy="930.72" rx="1.44" ry="7.8" transform="translate(-221.15 1137.01) rotate(-33.95)"/><ellipse class="cls-3" cx="1730.26" cy="893.58" rx="0.81" ry="4.42" transform="translate(-107.22 1538.53) rotate(-46.65)"/><ellipse class="cls-3" cx="1722.12" cy="893.02" rx="0.81" ry="4.4" transform="translate(-122.31 1494.06) rotate(-45.46)"/><ellipse class="cls-3" cx="1741.4" cy="905.25" rx="0.81" ry="4.4" transform="translate(-179.15 1309.52) rotate(-39.35)"/><ellipse class="cls-3" cx="1770.32" cy="962.4" rx="0.81" ry="4.41" transform="translate(-227.74 701.65) rotate(-21.09)"/><ellipse class="cls-3" cx="1758.26" cy="945.16" rx="0.81" ry="4.41" transform="translate(-236.95 1007.98) rotate(-30.06)"/><path class="cls-17" d="M1667.57,969.3c-6.79,5.53-8.92,10.06-9.23,18.81-.22,6.11,1.93,12.71,4.06,18.45,5.75,15.47,18.28,40.87,24,56.35l15.91-4.4-19.86-69-10.15-29.9Z"/><path class="cls-23" d="M1670.52,955.45a42.33,42.33,0,0,1-4.06,26.74l-17,32.15"/><path class="cls-24" d="M1702.06,1057.33l-14-37.11-3.5-9.28-1.74-4.66a8.57,8.57,0,0,1-.07-5.46,10.42,10.42,0,0,1,3-4.51,13.25,13.25,0,0,1,2.17-1.56,21.31,21.31,0,0,1,2.33-1.12l9.09-4,.82,1.9-9.12,3.89a20.37,20.37,0,0,0-2.14,1,11.11,11.11,0,0,0-1.86,1.31,8.57,8.57,0,0,0-2.47,3.64,6.74,6.74,0,0,0,0,4.28l1.68,4.63,3.41,9.31,13.64,37.24Z"/><path class="cls-17" d="M1730.09,961.54s-30.57,4-25,24.71c0,0,24,59.16,30.91,79.87l16.7.12Z"/><polygon class="cls-3" points="1681.02 986.92 1674.59 990.53 1672.72 1020.01 1666.55 1019.92 1662.85 985.01 1677.46 975.33 1681.02 986.92"/><path class="cls-3" d="M1611.75,1054.5l-5.76,2.94c-1.49.89-5.89,1.28-7.63,1.26l-29.49-.33a4.87,4.87,0,0,0-3,1l-5.76,4.36a.68.68,0,0,0,.4,1.22l62,.69,5.66-10.5Z"/><path class="cls-3" d="M1683.38,1054.37l-5,3a9.49,9.49,0,0,1-5,1.34l-29.48-.33a4.87,4.87,0,0,0-3,1l-5.76,4.36a.68.68,0,0,0,.4,1.22l72.46.69-6.43-11.17Z"/><path class="cls-3" d="M1732.64,1054.94l-5,3a9.34,9.34,0,0,1-4.94,1.34l-29.49-.33a4.88,4.88,0,0,0-3,1l-5.76,4.36a.67.67,0,0,0,.4,1.21l67.88.63-2.37-10.6Z"/><path class="cls-25" d="M1777,1048.75c14.86,4.17,31.35,1,44.31-7.41a37.69,37.69,0,0,0,10.47-9.53c3.79-5.34,5.51-11.92,6-18.44C1839.34,994,1831,975,1820,959s-24.73-30-36-45.87a211.86,211.86,0,0,1-19.93-34.68c-4.8-10.42-8.91-21.42-9.34-32.89s3.29-23.55,12-31c12.07-10.36,31.33-9.19,44.27.06s20.11,24.91,22.51,40.64.58,31.75-1.24,47.55"/><path class="cls-26" d="M1825.94,911.46c1.46,6.11,5.66,11.19,8.09,17a31.42,31.42,0,0,1,1,21.37c2.8-3,5.7-6.1,6.88-10a21.21,21.21,0,0,0,.3-9.08c1.21,4.59,4.74,4.1,5.61,9.75,5.73-7.57,4.13-19.92-.48-28.23-2.14-3.87-5.55-6.86-8.49-10.16s-5.18-7.05-5.67-11.6C1826.31,894.07,1824.29,904.6,1825.94,911.46Z"/><ellipse class="cls-4" cx="1694.57" cy="955.21" rx="1.52" ry="3.87" transform="translate(-247.56 1065.38) rotate(-32.66)"/><path class="cls-24" d="M1738.33,1010.5l-2.8-10.67-1.4-5.34a12.9,12.9,0,0,1,2.5-11.22,13.35,13.35,0,0,1,4.69-3.62l9.94-4.77,1,2.09-10,4.6a10.93,10.93,0,0,0-6.33,12.49l1.3,5.36,2.6,10.72Z"/><polygon class="cls-24" points="1750.29 1059.53 1739.91 1016.75 1741.36 1016.38 1752.54 1058.96 1750.29 1059.53"/><path class="cls-24" d="M1712.4,1002.55l10.82,26.39q5.4,13.21,10.88,26.37l-2.15.87q-5.31-13.23-10.5-26.52L1711,1003.11Z"/><path class="cls-24" d="M1696.43,978.43l16.29-7.57,16.31-7.52,8.15-3.75a21.93,21.93,0,0,0,6.72-5.27,13,13,0,0,0,3-7.72,15.83,15.83,0,0,0-2-8.15l0,0-10.6-14.59,1.21-.89,10.71,14.51,0,0v0a17.17,17.17,0,0,1,1.74,4.4,16.39,16.39,0,0,1,.51,4.69,14.74,14.74,0,0,1-3.33,8.75,23.49,23.49,0,0,1-7.28,5.8l-8.14,3.83-16.27,7.65c-5.43,2.51-10.77,5.21-16.17,7.81Z"/><polygon class="cls-24" points="1692.6 885.32 1689.66 886.81 1688.84 885.55 1691.26 883.42 1692.6 885.32"/><path class="cls-27" d="M1710.8,1058c-2.78-.29-11.2,1.23-13.87,2-1.4.42-3.9.5-3.39,5.24"/><path class="cls-24" d="M1745.59,1034.49c-5.1,3-11.23,6.66-17.2,3.81-3.34-1.6-6.29,3.39-2.92,5,8.12,3.89,15.84.41,23-3.81,3.22-1.88.3-6.89-2.92-5Z"/><path class="cls-24" d="M1694.13,1033.82c-5.37,2.68-11.61,5.72-17.4,2.45-3.26-1.83-6.18,3.17-2.93,5,7.82,4.41,15.87,1.23,23.25-2.46,3.34-1.66.41-6.66-2.92-5Z"/><path class="cls-24" d="M1637.22,1037.6c-6.25.78-13.37,1.71-17.93-3.57-2.45-2.83-6.53,1.29-4.1,4.1,5.61,6.5,14.21,6.25,22,5.27,3.66-.46,3.7-6.26,0-5.8Z"/><path class="cls-24" d="M1697.63,977.55c-3.16-2.33-6.79-5.07-6.56-9.42.18-3.29-4.94-3.28-5.12,0-.34,6.31,4.47,10.43,9.09,13.84,2.66,2,5.21-2.48,2.59-4.42Z"/><path class="cls-17" d="M1620.66,849.4c0-26.73,13.54-51,45.35-50.66,33.73.36,46.14,23.48,46.14,50.21"/><circle class="cls-3" cx="1617.85" cy="838.77" r="15.59"/><circle class="cls-17" cx="1617.85" cy="838.77" r="8.23"/><circle class="cls-3" cx="1714.1" cy="838.77" r="15.59"/><circle class="cls-17" cx="1714.1" cy="838.77" r="8.23"/><path class="cls-17" d="M1622.42,832.66A29.18,29.18,0,0,1,1632.59,816a11.68,11.68,0,0,1,1.74-1.22c8.65-4.43,14.46-7.57,24.15-8.26,6.7-.48,16.33,1,23,1.62,21.85,2.1,25.44,13.49,25.44,13.49s11.68,27.68.48,47.67l0,0c-3.78,8.27-12.33,13.93-20,18.44a145.16,145.16,0,0,1-12.92,6.73c-3.34,1.52-6.87,2.91-10.52,2.75-5-.23-9.5-3.35-13.74-5.67a98,98,0,0,1-19.78-14,23.36,23.36,0,0,1-4.79-5.71l-.15-.31C1618.6,858.8,1620.28,842.72,1622.42,832.66Z"/><path class="cls-3" d="M1675.29,810.15a9.83,9.83,0,0,1,2.83-4.44l-.47-.53a10.34,10.34,0,0,0-3,4.77Z"/><path class="cls-3" d="M1672.93,806.46a9.16,9.16,0,0,1,.54-2.84l-.67-.24a9.94,9.94,0,0,0-.58,3.06Z"/><path class="cls-3" d="M1680.61,808.49a8.83,8.83,0,0,1,3.19-1.72l-.2-.68a9.48,9.48,0,0,0-3.45,1.86Z"/><path class="cls-3" d="M1684.84,811.56a11.91,11.91,0,0,1,3.9-1.74l-.17-.69a12.79,12.79,0,0,0-4.13,1.84Z"/><path class="cls-3" d="M1656.82,810.15l.68-.2a10.34,10.34,0,0,0-3-4.77l-.47.53A9.75,9.75,0,0,1,1656.82,810.15Z"/><path class="cls-3" d="M1659.19,806.46l.71,0a9.66,9.66,0,0,0-.59-3.06l-.67.24A8.89,8.89,0,0,1,1659.19,806.46Z"/><path class="cls-3" d="M1651.51,808.49l.46-.54a9.52,9.52,0,0,0-3.46-1.86l-.2.68A8.87,8.87,0,0,1,1651.51,808.49Z"/><path class="cls-3" d="M1647.27,811.56l.4-.59a12.79,12.79,0,0,0-4.13-1.84l-.17.69A11.91,11.91,0,0,1,1647.27,811.56Z"/><path class="cls-3" d="M1639.71,875.11h.71a24.74,24.74,0,0,1,.33-5.16,11.22,11.22,0,0,1,1.56-3.25l-.6-.38a12,12,0,0,0-1.66,3.49A25.63,25.63,0,0,0,1639.71,875.11Z"/><path class="cls-3" d="M1643.13,865.51a10.54,10.54,0,0,1,1.32-1.52l-.48-.52a11.87,11.87,0,0,0-1.41,1.61Z"/><path class="cls-3" d="M1632.85,868c.18-1.69,2.54-3.82,4.37-4.45l-.23-.67c-1.87.64-4.62,2.87-4.85,5.05Z"/><path class="cls-3" d="M1629.55,860.8a4.73,4.73,0,0,1,3.8-2.35l0-.7a5.39,5.39,0,0,0-4.37,2.7Z"/><path class="cls-3" d="M1628,854.68a1.73,1.73,0,0,1,1.79-.91l.12-.7a2.44,2.44,0,0,0-2.55,1.3Z"/><path class="cls-3" d="M1627.59,847.64a2.76,2.76,0,0,1,1.74-.28l.13-.69a3.41,3.41,0,0,0-2.2.34Z"/><path class="cls-3" d="M1644.53,881.2l.71-.08a27,27,0,0,1,.22-6.57l-.69-.16A28,28,0,0,0,1644.53,881.2Z"/><path class="cls-3" d="M1650.22,886.52l.67-.23a18.41,18.41,0,0,1-.4-4.35h-.71A20.17,20.17,0,0,0,1650.22,886.52Z"/><path class="cls-3" d="M1660.69,890.5l.5-.5a9.75,9.75,0,0,1-1.35-1.72,3.65,3.65,0,0,1-.49-1,5.05,5.05,0,0,1-.07-1.55l-.71,0a5.64,5.64,0,0,0,.1,1.77,4.62,4.62,0,0,0,.56,1.24A10,10,0,0,0,1660.69,890.5Z"/><path class="cls-3" d="M1634.39,860.9a5.08,5.08,0,0,1,2.26-.8l-.08-.71a5.93,5.93,0,0,0-2.57.91Z"/><path class="cls-3" d="M1634.86,873l.71,0a4.91,4.91,0,0,1,.48-2.36l-.63-.31A5.59,5.59,0,0,0,1634.86,873Z"/><path class="cls-3" d="M1693.62,874.52l.71,0a25.63,25.63,0,0,0-.79-5.26,9.52,9.52,0,0,0-2.17-3.83l-.53.48a8.68,8.68,0,0,1,2,3.55A24.55,24.55,0,0,1,1693.62,874.52Z"/><path class="cls-3" d="M1689.55,864.59l.5-.49a8.77,8.77,0,0,0-1-.87l-.43.57A9.24,9.24,0,0,1,1689.55,864.59Z"/><path class="cls-3" d="M1700,868l.71-.07a5.59,5.59,0,0,0-3.68-4.62l-.23.67A4.92,4.92,0,0,1,1700,868Z"/><path class="cls-3" d="M1703.32,860.8l.62-.35a5.42,5.42,0,0,0-4.38-2.7l0,.7A4.73,4.73,0,0,1,1703.32,860.8Z"/><path class="cls-3" d="M1704.85,854.68l.63-.31a2.43,2.43,0,0,0-2.55-1.3l.12.7A1.76,1.76,0,0,1,1704.85,854.68Z"/><path class="cls-3" d="M1705.28,847.64l.33-.63a3.4,3.4,0,0,0-2.19-.34l.12.69A2.75,2.75,0,0,1,1705.28,847.64Z"/><path class="cls-3" d="M1689,880.52a20.43,20.43,0,0,0-.79-5.73l-.09-.4-.69.16.09.4a20.7,20.7,0,0,1,.78,5.49Z"/><path class="cls-3" d="M1683,886.35a9.68,9.68,0,0,0,.11-3.29c0-.43-.06-.82-.06-1.12h-.71c0,.31,0,.72.06,1.17a9.74,9.74,0,0,1-.07,3Z"/><path class="cls-3" d="M1672.18,890.5a10.91,10.91,0,0,0,1.46-1.85,4.62,4.62,0,0,0,.56-1.24,5.57,5.57,0,0,0,.1-1.77l-.71,0a5,5,0,0,1-.07,1.55,3.93,3.93,0,0,1-.49,1,9.33,9.33,0,0,1-1.35,1.71Z"/><path class="cls-3" d="M1698.48,860.9l.39-.6a5.93,5.93,0,0,0-2.57-.91l-.08.71A5.08,5.08,0,0,1,1698.48,860.9Z"/><path class="cls-3" d="M1698,873a5.58,5.58,0,0,0-.55-2.7l-.64.31a5,5,0,0,1,.49,2.36Z"/><path class="cls-3" d="M1666.28,892.59a17.91,17.91,0,0,0,.52-5.92l-.71.05a17,17,0,0,1-.5,5.69Z"/><path class="cls-3" d="M1628.81,841.23l.36-.61a3.55,3.55,0,0,0-2.55-.41l.15.69A2.86,2.86,0,0,1,1628.81,841.23Z"/><path class="cls-3" d="M1629.57,836.49l.51-.5a3,3,0,0,0-2.26-.9l0,.7A2.35,2.35,0,0,1,1629.57,836.49Z"/><path class="cls-3" d="M1630.69,831.37l.69-.16c-.21-.89-1.87-2.24-2.51-2.6l-.35.62A6.25,6.25,0,0,1,1630.69,831.37Z"/><path class="cls-3" d="M1633.85,827.19c0-.89-1.27-2.54-1.79-3l-.48.53a5.8,5.8,0,0,1,1.56,2.47Z"/><path class="cls-3" d="M1704.09,841.23a2.85,2.85,0,0,1,2-.33l.15-.69a3.55,3.55,0,0,0-2.55.41Z"/><path class="cls-3" d="M1703.33,836.49a2.32,2.32,0,0,1,1.72-.7l0-.7a3,3,0,0,0-2.26.9Z"/><path class="cls-3" d="M1702.21,831.37a6.17,6.17,0,0,1,2.17-2.14l-.35-.62c-.64.36-2.3,1.72-2.51,2.6Z"/><path class="cls-3" d="M1699.05,827.19h.71a5.8,5.8,0,0,1,1.56-2.47l-.48-.53C1700.32,824.65,1699,826.3,1699.05,827.19Z"/><path class="cls-3" d="M1630.83,848.93a38.9,38.9,0,0,1,.49-4.72c1.28-5.79,1.9-6.56,4.17-11.23a32.46,32.46,0,0,1,4.26-5.6c1.54-1.55,5.37-2.44,7.55-2.63a55.53,55.53,0,0,1,7.41-.06c5.33.32,7.55,1.36,11.86,3.43,4.31-2.07,6.53-3.11,11.86-3.43a55.52,55.52,0,0,1,7.41.06c2.18.19,6,1.08,7.56,2.63a32.92,32.92,0,0,1,4.25,5.6c2.27,4.67,2.89,5.44,4.17,11.23a38.91,38.91,0,0,1,.5,4.72c.18,2.53-1.48,4.81-3.3,6.58a16,16,0,0,1-5.44,3.63c-2.59,1-5.43,1-8.2.92a27.83,27.83,0,0,1,2.74,9.83,18.52,18.52,0,0,1,.09,5.56c-.9,5.28-5.87,9.27-11.18,10a10.13,10.13,0,0,1-3.43,0,20.86,20.86,0,0,1-7-2.05,20.8,20.8,0,0,1-7,2.05,10.13,10.13,0,0,1-3.43,0c-5.3-.77-10.28-4.76-11.18-10a19.2,19.2,0,0,1,.09-5.56,27.84,27.84,0,0,1,2.75-9.83,22.65,22.65,0,0,1-8.21-.92,16,16,0,0,1-5.43-3.63C1632.3,853.74,1630.65,851.46,1630.83,848.93Z"/><path class="cls-3" d="M1628.89,842.74a21.65,21.65,0,1,1,43.29,0c0,12-12.55,17.5-24.51,17.5S1628.89,854.69,1628.89,842.74Z"/><path class="cls-3" d="M1660.41,843.06a21.64,21.64,0,1,1,43.28,0c0,12-7.78,17.82-19.73,17.82S1660.41,855,1660.41,843.06Z"/><path class="cls-26" d="M1639.53,839.23a12.22,12.22,0,0,1,19.67-7.67c1.23,1,2.27,2.19,3.57,3.06a5.9,5.9,0,0,0,2.71,1,12.63,12.63,0,0,1,1.74,0,5.82,5.82,0,0,0,2.7-1c1.31-.87,2.35-2.08,3.58-3.06a12.22,12.22,0,0,1,19.67,7.67,10.54,10.54,0,0,1-1.54,7.51c-2.1,3.1-5.85,4.58-9.4,5.77a17.63,17.63,0,0,1-15.66,26.06h-.44a17.63,17.63,0,0,1-15.66-26.06c-3.55-1.19-7.3-2.67-9.4-5.77A10.54,10.54,0,0,1,1639.53,839.23Z"/><ellipse class="cls-4" cx="1660.97" cy="858.32" rx="0.96" ry="1.93" transform="translate(-28.95 1658.13) rotate(-52.66)"/><ellipse class="cls-4" cx="1672.48" cy="858.32" rx="1.93" ry="0.96" transform="translate(-177.81 1190.49) rotate(-37.34)"/><path class="cls-4" d="M1645.16,843a14.61,14.61,0,0,1,3.7-1.45,12,12,0,0,1,4-.32,13.25,13.25,0,0,1,3.84.88,13.67,13.67,0,0,1,3.44,1.93l-1.2,1.49a12,12,0,0,0-3-1.47,11.09,11.09,0,0,0-3.26-.59,10.06,10.06,0,0,0-3.23.41,12.85,12.85,0,0,0-3,1.34Z"/><path class="cls-4" d="M1647.66,837.49a14.6,14.6,0,0,1,3.79.17,11.57,11.57,0,0,1,3.58,1.26,12.71,12.71,0,0,1,3,2.27,13.37,13.37,0,0,1,2.26,3l-.85.42a12.29,12.29,0,0,0-2.14-2.71,11.92,11.92,0,0,0-2.82-2,10.54,10.54,0,0,0-3.27-1.06,12.77,12.77,0,0,0-3.44-.07Z"/><path class="cls-4" d="M1685.64,845.17a13.11,13.11,0,0,0-3-1.34,10.06,10.06,0,0,0-3.23-.41,11.15,11.15,0,0,0-3.26.59,12,12,0,0,0-3,1.47L1672,844a13.67,13.67,0,0,1,3.44-1.93,13.25,13.25,0,0,1,3.84-.88,12.07,12.07,0,0,1,4,.32A14.69,14.69,0,0,1,1687,843Z"/><path class="cls-4" d="M1684.32,838.78a12.85,12.85,0,0,0-3.45.07,10.54,10.54,0,0,0-3.27,1.06,12.13,12.13,0,0,0-2.82,2,12.59,12.59,0,0,0-2.14,2.71l-.85-.42a13.12,13.12,0,0,1,2.27-3,12.46,12.46,0,0,1,3-2.27,11.57,11.57,0,0,1,3.58-1.26,14.6,14.6,0,0,1,3.79-.17Z"/><path class="cls-4" d="M1671.55,869.7a6.91,6.91,0,0,1-3.92,1.9,6,6,0,0,1-2.24,0,14.59,14.59,0,0,1-2.07-.56,28.07,28.07,0,0,1-7.45-3.86l.92-1.24a27.05,27.05,0,0,0,7,3.89,7.19,7.19,0,0,0,3.7.63,5.92,5.92,0,0,0,3.41-1.48Z"/><path class="cls-26" d="M1633.09,817.73a3.73,3.73,0,0,0-2.42-4.68,3.88,3.88,0,0,0-.88-.16l0,0a42.43,42.43,0,0,0,11.33-1.15c2.68-.73,5.23-1.9,7.93-2.52s5.72-.62,8.06.87a4.93,4.93,0,0,0,1,.55,2.62,2.62,0,0,0,2.89-1.34,11.36,11.36,0,0,0,1-3.27c.35-1.37,2.27-12.45,4.3-12.47s4.3,11.05,4.66,12.47a11.38,11.38,0,0,0,1,3.27,2.6,2.6,0,0,0,2.88,1.34,4.73,4.73,0,0,0,1-.55c2.34-1.49,5.35-1.49,8.06-.87s5.25,1.79,7.93,2.52a45.52,45.52,0,0,0,12.64.9c2.49,2.36,2.92,4.69,3.53,6.13-.28.08-.77.64-1,.75a21.88,21.88,0,0,1-9.54,2c-6-.12-11.39-4.19-17.44-4.24-3.28,0-5.77,2.57-6.42,5.79a3.42,3.42,0,0,1-.44,1,16.33,16.33,0,0,1-.64,1.58,6.66,6.66,0,0,1-12,0,13.07,13.07,0,0,1-.61-1.47l0,0c-2-5.27-4.18-7.11-7.52-6.95-5.83.28-11.07,4.12-16.9,4.23a16.88,16.88,0,0,1-7.09-1.4A3.72,3.72,0,0,0,1633.09,817.73Z"/><path class="cls-26" d="M1626,815.47a3.72,3.72,0,0,1,3.8-2.58c-1,.28-1.71,1-2.14,2.66,0,0-.68,3,.46,4.47l.33.13h0A3.72,3.72,0,0,1,1626,815.47Z"/><path class="cls-26" d="M1627.65,815.55c.43-1.65,1.18-2.38,2.14-2.66a3.88,3.88,0,0,1,.88.16,3.72,3.72,0,0,1-2.23,7.1l-.33-.13C1627,818.55,1627.65,815.55,1627.65,815.55Z"/><path class="cls-26" d="M1701.7,815.13a3.71,3.71,0,0,1,3.79-2.58,3.88,3.88,0,0,1,.88.16,3.72,3.72,0,0,1-2.23,7.1h0A3.72,3.72,0,0,1,1701.7,815.13Z"/><path class="cls-17" d="M1689.39,805.76l2-.56a7.17,7.17,0,0,1,3.84-8.47l-.86-1.84a9.22,9.22,0,0,0-4.94,10.87Z"/><path class="cls-17" d="M1689.83,806.36l1.23-1.62a7.19,7.19,0,0,1-2.66-4.18,7.33,7.33,0,0,1,.69-4.91l-1.78-1a9.2,9.2,0,0,0,2.52,11.67Z"/><ellipse class="cls-28" cx="1666.53" cy="816.14" rx="3.32" ry="9.27"/><polygon class="cls-24" points="1699.94 878.39 1717.7 900.82 1716.54 901.77 1698.14 879.86 1699.94 878.39"/><path class="cls-24" d="M1710.55,865.34a19,19,0,0,1-1.33,2.67c-.48.84-1,1.63-1.55,2.42a46,46,0,0,1-3.56,4.43c-1.26,1.4-2.61,2.71-4,4-.69.63-1.42,1.22-2.13,1.84l-2.2,1.75-.93-1.18,2.09-1.79c.67-.62,1.36-1.23,2-1.87,1.3-1.28,2.56-2.6,3.73-4a45.43,45.43,0,0,0,3.24-4.35c.48-.76.95-1.53,1.36-2.31a18.3,18.3,0,0,0,1.07-2.34Z"/><path class="cls-24" d="M1658.16,896.35a60.4,60.4,0,0,1-7.76-3.5c-2.49-1.31-4.92-2.75-7.3-4.27s-4.67-3.15-6.91-4.87c-1.14-.83-2.21-1.75-3.32-2.62s-2.15-1.82-3.23-2.73l1.55-1.73c1,.92,2.06,1.86,3.11,2.76s2.09,1.81,3.19,2.65c2.15,1.74,4.39,3.37,6.67,5s4.64,3,7,4.37a60.93,60.93,0,0,0,7.43,3.57Z"/></g></g></g></g></svg>
