<svg xmlns="http://www.w3.org/2000/svg" viewBox="0 0 306.59 187.2"><title>Asset 1</title><g id="Layer_2" data-name="Layer 2"><g id="Layer_1-2" data-name="Layer 1"><path d="M.54,103.73a741.53,741.53,0,0,0,107.38.31c17.87-1.21,35.68-3.18,53.4-5.68,17.4-2.47,34.63-7.2,48.47-17.16A59.94,59.94,0,0,0,226.4,62.66a64.05,64.05,0,0,0,5.15-11.46,40.43,40.43,0,0,0,2.35-11.81,29.83,29.83,0,0,0-8.46-21,29.22,29.22,0,0,0-20.86-8.53,28.61,28.61,0,0,0-20.74,8.37,21.16,21.16,0,0,0-5.44,9.3,18,18,0,0,0,.41,10.29,13.68,13.68,0,0,0,5.9,7.43,11.12,11.12,0,0,0,8.74.9,6.51,6.51,0,0,0,1.69-.89,5,5,0,0,0,1.21-1.14,5.67,5.67,0,0,0,1-3.25,6.78,6.78,0,0,0-.94-3.54,3.05,3.05,0,0,0-1.89-1.46l2.38-10.56a13.85,13.85,0,0,1,8.66,6.37A17.28,17.28,0,0,1,208,41a15.47,15.47,0,0,1-6.73,12.91,17.35,17.35,0,0,1-4.28,2.2,21.61,21.61,0,0,1-17.36-1.74A24,24,0,0,1,169,41.18a28.07,28.07,0,0,1-.5-16.31,31.28,31.28,0,0,1,8.1-13.71,39.68,39.68,0,0,1,55.73.54,39.26,39.26,0,0,1,10.92,27.92,49.32,49.32,0,0,1-3,14.56,72.27,72.27,0,0,1-6,13.08,68.71,68.71,0,0,1-19.35,21.2,93.17,93.17,0,0,1-25.37,12.37,154.06,154.06,0,0,1-27.1,5.88c-18,2.37-36,4.2-54,5.26A745.08,745.08,0,0,1,0,110.7Z" style="fill:#e5af34"/><path d="M106.81,120.93c23.32.11,46.61.26,69.76-1,11.57-.61,23.12-1.51,34.58-2.9a341.43,341.43,0,0,0,34-5.86c2.79-.68,5.62-1.25,8.38-2l8.31-2.25c5.45-1.76,11.08-3.26,16-5.42A42.39,42.39,0,0,0,291,93.17a20.74,20.74,0,0,0,4.16-5.71,19.9,19.9,0,0,0,1.18-3.18,10.23,10.23,0,0,0,.27-2.76,8.68,8.68,0,0,0-2.23-5,13,13,0,0,0-2.3-2.08A24.35,24.35,0,0,0,289,72.63c-4.22-2.09-8.79-2.3-11.52-.26a7,7,0,0,0-2.88,3.86,5,5,0,0,0-.12.94v.45a.54.54,0,0,0,.06.29,5.1,5.1,0,0,0,1,1.79A4.91,4.91,0,0,0,277.17,81a2,2,0,0,0,1.17.21c.59,0,2-1,3.23-2.79l8.85,6.21a19.88,19.88,0,0,1-4,4.34,13.67,13.67,0,0,1-6.51,2.86,12.63,12.63,0,0,1-7.33-1.21,15.92,15.92,0,0,1-8.22-10,11.71,11.71,0,0,1-.34-1.86c0-.58-.08-1.16-.07-1.74a14.9,14.9,0,0,1,.48-3.38,17.43,17.43,0,0,1,7.28-9.9,18.73,18.73,0,0,1,5.57-2.49,20.45,20.45,0,0,1,5.83-.57,25.92,25.92,0,0,1,10.44,2.86A34.21,34.21,0,0,1,298,66.21,23.33,23.33,0,0,1,302.09,70a18.75,18.75,0,0,1,4.48,10.86,20,20,0,0,1-.65,5.91,30.5,30.5,0,0,1-1.91,5,30.88,30.88,0,0,1-6.18,8.3,51.85,51.85,0,0,1-16.31,10.12c-5.8,2.41-11.51,3.81-17.18,5.56L255.76,118c-2.86.75-5.78,1.29-8.66,1.95-11.59,2.43-23.27,4.23-35,5.52s-23.46,2-35.2,2.46c-23.47.91-46.87.43-70.2,0Z" style="fill:#e5af34"/><path d="M22.23,119.58c17.74,0,35.66.89,53.27,5.29,8.77,2.27,17.5,5.35,25.52,10.32a55.35,55.35,0,0,1,11,9,45.5,45.5,0,0,1,8.28,12c2.07,4.52,3.39,10.07,2.09,15.71a20.74,20.74,0,0,1-3.56,7.64,17.1,17.1,0,0,1-7,5.51,21.55,21.55,0,0,1-3.9,1.31,13.8,13.8,0,0,1-2.11.41c-.66.09-1.27.15-1.87.21a50.36,50.36,0,0,1-7.37.15A31.53,31.53,0,0,1,89,185.7a20,20,0,0,1-7.42-4.43,23.48,23.48,0,0,1-2.76-3.21c-.4-.57-.74-1.1-1.13-1.72a17.76,17.76,0,0,1-1-2,24.74,24.74,0,0,1-1.89-8,21.28,21.28,0,0,1,1-8.53A15.47,15.47,0,0,1,81.56,150a13.24,13.24,0,0,1,10.3-2.24,15.83,15.83,0,0,1,4.58,1.84,17.21,17.21,0,0,1,3.72,2.91,14.3,14.3,0,0,1,4.1,9.34A18,18,0,0,1,102,171l-9.54-5.12a7.58,7.58,0,0,0,1.1-3.53,3.55,3.55,0,0,0-1.06-2.45,6.77,6.77,0,0,0-1.44-1.17A6.13,6.13,0,0,0,89.6,158a2.89,2.89,0,0,0-2.2.56,5.14,5.14,0,0,0-2,2.63,11.4,11.4,0,0,0-.56,4.45,14.94,14.94,0,0,0,1,4.76,8,8,0,0,0,.45.93c.19.31.43.72.66,1a12.92,12.92,0,0,0,1.49,1.81,10.08,10.08,0,0,0,3.76,2.33,21.59,21.59,0,0,0,5.28,1,40,40,0,0,0,5.79,0,11.78,11.78,0,0,0,1.41-.12,6.12,6.12,0,0,0,1.12-.2,12,12,0,0,0,2.34-.74,7.72,7.72,0,0,0,3.32-2.49,12.05,12.05,0,0,0,2-4.18c.77-3,.18-6.51-1.33-10a36.89,36.89,0,0,0-6.5-9.7,46.91,46.91,0,0,0-9.2-7.78c-6.85-4.44-14.82-7.47-23-9.74-16.46-4.45-33.91-5.73-51.25-6Z" style="fill:#e5af34"/><circle cx="146.63" cy="65.14" r="5.4" style="fill:#e5af34"/><circle cx="278.61" cy="24.12" r="5.4" style="fill:#e5af34"/><circle cx="104.72" cy="73.94" r="2" style="fill:#e5af34"/><circle cx="218.81" cy="141.37" r="2" style="fill:#e5af34"/><circle cx="51.92" cy="143.37" r="2" style="fill:#e5af34"/><circle cx="300.71" cy="4.85" r="2" style="fill:#e5af34"/><circle cx="164.66" cy="153.38" r="5.4" style="fill:#e5af34"/></g></g></svg>