<svg id="Layer_1" data-name="Layer 1" xmlns="http://www.w3.org/2000/svg" viewBox="0 0 1507.89 890.26"><defs><style>.at-c2-1_1{fill:#367d75;}.at-c2-1_2{font-size:35.66px;}.at-c2-1_2,.at-c2-1_3{fill:#fff;font-family:PermanentMarker}.at-c2-1_3{font-size:21.84px;}</style></defs><title>17</title><rect class="at-c2-1_1" width="1507.89" height="890.26"/><text class="at-c2-1_2" transform="matrix(1, 0.02, -0.02, 1, 820.81, 433.47)">?</text><text class="at-c2-1_2" transform="matrix(0.99, 0.16, -0.16, 0.99, 839.82, 434.08)"> </text><text class="at-c2-1_2" transform="matrix(0.96, 0.29, -0.29, 0.96, 852.12, 435.74)">?</text><text class="at-c2-1_2" transform="matrix(0.91, 0.42, -0.42, 0.91, 870.27, 441.38)"> </text><text class="at-c2-1_2" transform="matrix(0.84, 0.54, -0.54, 0.84, 881.66, 446.29)">?</text><text class="at-c2-1_3" transform="matrix(0.97, 0.26, -0.26, 0.97, 876.77, 390.59)">?</text><text class="at-c2-1_3" transform="matrix(0.92, 0.39, -0.39, 0.92, 887.99, 393.74)"> </text><text class="at-c2-1_3" transform="matrix(0.86, 0.51, -0.51, 0.86, 895.06, 396.54)">?</text><text class="at-c2-1_3" transform="matrix(0.78, 0.62, -0.62, 0.78, 905.05, 402.57)"> </text><text class="at-c2-1_3" transform="matrix(0.69, 0.73, -0.73, 0.69, 911.06, 407.14)">?</text></svg>
