<svg id="Layer_1" data-name="Layer 1" xmlns="http://www.w3.org/2000/svg" viewBox="0 0 1507.89 890.26"><defs><style>.at-c2-2_2{font-size:47.02px;}.at-c2-2_2,.at-c2-2_3{fill:#fff;font-family:PermanentMarker-Regular, Permanent Marker;}.at-c2-2_3{font-size:30.17px;}</style></defs><title>19</title><text class="at-c2-2_2" transform="matrix(0.74, -0.68, 0.68, 0.74, 814.47, 482.36)">k</text><text class="at-c2-2_2" transform="matrix(0.84, -0.54, 0.54, 0.84, 835.92, 462.82)">r</text><text class="at-c2-2_2" transform="matrix(0.91, -0.41, 0.41, 0.91, 856.36, 449.76)">s</text><text class="at-c2-2_2" transform="matrix(0.96, -0.28, 0.28, 0.96, 875.19, 441.19)">s</text><text class="at-c2-2_2" transform="matrix(0.99, -0.14, 0.14, 0.99, 895.05, 435.34)">s</text><text class="at-c2-2_2" transform="matrix(1, -0.04, 0.04, 1, 915.85, 432.59)">.</text><text class="at-c2-2_2" transform="matrix(1, 0.02, -0.02, 1, 926.07, 432.15)">.</text><text class="at-c2-2_3" transform="matrix(0.92, -0.4, 0.4, 0.92, 851.1, 404.03)">k</text><text class="at-c2-2_3" transform="matrix(0.97, -0.24, 0.24, 0.97, 868.2, 396.65)">r</text><text class="at-c2-2_3" transform="matrix(1, -0.09, 0.09, 1, 883.3, 392.99)">s</text><text class="at-c2-2_3" transform="matrix(1, 0.05, -0.05, 1, 896.57, 391.73)">s</text><text class="at-c2-2_3" transform="matrix(0.98, 0.19, -0.19, 0.98, 909.86, 392.33)">s</text><text class="at-c2-2_3" transform="matrix(0.96, 0.29, -0.29, 0.96, 923.06, 395.01)">.</text><text class="at-c2-2_3" transform="matrix(0.94, 0.35, -0.35, 0.94, 929.34, 396.87)">.</text></svg>
