<svg id="Layer_1" data-name="Layer 1" xmlns="http://www.w3.org/2000/svg" viewBox="0 0 1769.49 1080"><defs><style>.at-b3-1_1{fill:#5ea7a2;}.at-b3-1_2{font-size:47.02px;}.at-b3-1_2,.at-b3-1_3{fill:#fff;font-family:PermanentMarker}.at-b3-1_3{font-size:29.17px;}</style></defs><title>20</title><text class="at-b3-1_2" transform="matrix(0.6, -0.8, 0.8, 0.6, 743.15, 657.02)">w</text><text class="at-b3-1_2" transform="matrix(0.69, -0.73, 0.73, 0.69, 766.21, 626.86)">H</text><text class="at-b3-1_2" transform="matrix(0.75, -0.66, 0.66, 0.75, 787.97, 603.56)">O</text><text class="at-b3-1_2" transform="matrix(0.82, -0.57, 0.57, 0.82, 813.68, 581.11)">O</text><text class="at-b3-1_2" transform="matrix(0.87, -0.48, 0.48, 0.87, 841.11, 562.22)">S</text><text class="at-b3-1_2" transform="matrix(0.92, -0.4, 0.4, 0.92, 864.11, 549.42)">S</text><text class="at-b3-1_2" transform="matrix(0.95, -0.31, 0.31, 0.95, 888.21, 538.83)">S</text><text class="at-b3-1_2" transform="matrix(0.97, -0.25, 0.25, 0.97, 913.52, 530.81)">.</text><text class="at-b3-1_2" transform="matrix(0.98, -0.21, 0.21, 0.98, 923.61, 528.24)">.</text><text class="at-b3-1_3" transform="matrix(0.3, -0.95, 0.95, 0.3, 689.02, 650.91)">w</text><text class="at-b3-1_3" transform="matrix(0.4, -0.92, 0.92, 0.4, 696.11, 628.45)">H</text><text class="at-b3-1_3" transform="matrix(0.49, -0.87, 0.87, 0.49, 703.9, 610.26)">O</text><text class="at-b3-1_3" transform="matrix(0.58, -0.82, 0.82, 0.58, 714.17, 591.73)">O</text><text class="at-b3-1_3" transform="matrix(0.66, -0.75, 0.75, 0.66, 726.18, 574.93)">S</text><text class="at-b3-1_3" transform="matrix(0.73, -0.69, 0.69, 0.73, 736.92, 562.59)">S</text><text class="at-b3-1_3" transform="matrix(0.79, -0.62, 0.62, 0.79, 748.76, 551.32)">S</text><text class="at-b3-1_3" transform="matrix(0.83, -0.56, 0.56, 0.83, 761.84, 541.3)">.</text><text class="at-b3-1_3" transform="matrix(0.85, -0.53, 0.53, 0.85, 767.19, 537.68)">.</text></svg>
