<svg xmlns="http://www.w3.org/2000/svg" xmlns:xlink="http://www.w3.org/1999/xlink" viewBox="0 0 989.69 1158.4"><defs><clipPath id="clip-path"><path d="M826.38,353.62c-38.47,0-38.47-1.39-76.93-1.39s-38.47-2.72-76.93-2.72-38.47.32-76.93.32-38.47,2.62-76.93,2.62-38.47-3.11-76.94-3.11-38.46,10.54-76.93,10.54-38.47-8.55-76.94-8.55c-21.24,0-44.57-13.53-44.57-34.77,0-34.06,6.27-34.06,6.27-68.11s-6.23-34.06-6.23-68.12,5.82-34.06,5.82-68.12S251,78.16,251,44.1c0-21.24,15.68-37,36.92-37,38.47,0,38.47-2.45,76.93-2.45s38.47,7,76.93,7,38.4-10.6,76.9-10.6,38.47,9.89,76.94,9.89S634,1.83,672.51,1.83,711,5.58,749.44,5.58,787.91,0,826.38,0c21.24,0,33.68,22.86,33.68,44.1,0,34.05,4.11,34.05,4.11,68.11s-2.67,34.06-2.67,68.11,5.56,34.08,5.56,68.08-5.62,34.06-5.62,68.12C861.44,337.8,847.62,353.62,826.38,353.62Z" style="fill:none"/></clipPath><linearGradient id="linear-gradient" x1="1102.98" y1="456.1" x2="1103.34" y2="520.18" gradientTransform="translate(1726.85 656) rotate(180)" gradientUnits="userSpaceOnUse"><stop offset="0" stop-color="#fafbfb" stop-opacity="0"/><stop offset="1" stop-color="#78a9a8"/></linearGradient><linearGradient id="linear-gradient-2" x1="1452.89" y1="428.95" x2="1453.44" y2="525.19" xlink:href="#linear-gradient"/><linearGradient id="linear-gradient-3" x1="1356.5" y1="534.01" x2="1357.05" y2="630.24" xlink:href="#linear-gradient"/><linearGradient id="linear-gradient-4" x1="954.31" y1="473.34" x2="954.68" y2="537.43" xlink:href="#linear-gradient"/><linearGradient id="linear-gradient-5" x1="1009.32" y1="371.52" x2="1009.62" y2="424.58" xlink:href="#linear-gradient"/></defs><title>Asset 3</title><g id="Layer_2" data-name="Layer 2"><g id="Layer_1-2" data-name="Layer 1"><g id="Layer_1-3" data-name="Layer 1"><path d="M826.38,353.62c-38.47,0-38.47-1.39-76.93-1.39s-38.47-2.72-76.93-2.72-38.47.32-76.93.32-38.47,2.62-76.93,2.62-38.47-3.11-76.94-3.11-38.46,10.54-76.93,10.54-38.47-8.55-76.94-8.55c-21.24,0-44.57-13.53-44.57-34.77,0-34.06,6.27-34.06,6.27-68.11s-6.23-34.06-6.23-68.12,5.82-34.06,5.82-68.12S251,78.16,251,44.1c0-21.24,15.68-37,36.92-37,38.47,0,38.47-2.45,76.93-2.45s38.47,7,76.93,7,38.4-10.6,76.9-10.6,38.47,9.89,76.94,9.89S634,1.83,672.51,1.83,711,5.58,749.44,5.58,787.91,0,826.38,0c21.24,0,33.68,22.86,33.68,44.1,0,34.05,4.11,34.05,4.11,68.11s-2.67,34.06-2.67,68.11,5.56,34.08,5.56,68.08-5.62,34.06-5.62,68.12C861.44,337.8,847.62,353.62,826.38,353.62Z" style="fill:#3176a9"/><g style="clip-path:url(#clip-path)"><path d="M705.8,393s42.22-23.84,79.25-21.67c20.2,1.18,72,6.13,90.05,7.88a122.26,122.26,0,0,0,16.9.48c11.35-.47,29.21-2.22,40.08-8.3l14.25-6.93s7.77-6,11.83-2.8.7,8.84-6.12,13.33-31.7,21.91-49.69,26.47L835,406l-50.7-6.91L735.79,413.4l-26.19,3.94-11.91-7.78Z" style="fill:#fff"/><path d="M756.43,395.79c17.12-4.44,28.34-3.75,28.34-3.75s63.22,7.13,99.83,7.63,79.79-28.61,79.79-28.61c8.72-7.49,15.66-5.2,15.66-5.2a11.51,11.51,0,0,1,1,.85c4.57,4.41-.83,9.13-.83,9.13h.1c4,.29,6,1.63,6.86,3.26,1.64,3-.42,7-.42,7,10.53,1.06-8.94,25.28-33.32,43.26C914,458.45,875.49,466.12,847,468s-65.64-1-86.15-3.11-32.07,1-32.07,1l-18.36.08-5.36-4,4.51-44.68A151.59,151.59,0,0,1,756.43,395.79Z" style="fill:#fff"/><path d="M986.78,386.07s-35.4,39.86-93.69,51.91" style="fill:none;stroke:#2f4962;stroke-miterlimit:10;stroke-width:2.009999990463257px"/><path d="M919.14,444.62q-4.78,2-9.92,3.75" style="fill:none;stroke:#2f4962;stroke-miterlimit:10;stroke-width:2.009999990463257px"/><path d="M988,394.21s-19.86,29.19-64.86,48.73" style="fill:none;stroke:#2f4962;stroke-miterlimit:10;stroke-width:2.009999990463257px"/><path d="M709.6,417.29s41-26.85,75.17-25.25,63.7,6.38,99.83,7.63,72.54-28.88,72.54-28.88" style="fill:none;stroke:#2f4962;stroke-miterlimit:10;stroke-width:2.009999990463257px"/><path d="M855.05,425.52c-2-.27-4-.62-6-1" style="fill:none;stroke:#2f4962;stroke-miterlimit:10;stroke-width:2.009999990463257px"/><path d="M980.34,375.85s-59.12,50.55-114.47,50.39" style="fill:none;stroke:#2f4962;stroke-miterlimit:10;stroke-width:2.009999990463257px"/><path d="M507.14,683.53l18.47-98.81s81.91-104.6,150.53-169.64A148.93,148.93,0,0,1,705.8,393l2.75,17.6,1.05,6.69-9.46,19.11c-1.66,2.2-3.37,4.38-5.07,6.55-3.44,4.37-6.91,8.78-10.5,13.07L532.06,707.4l1.57,13.2Z" style="fill:#5da6a2"/><path d="M581,637l-49,70.39,70.11-126C644.08,458,710.21,417.51,710.21,417.51l8.64,21.89h0l13.49,34.1C667.52,535.7,604,869.91,604,869.91l-72-162.51C539.14,697.79,559,669.11,581,637Z" style="fill:#5da6a2"/><polygon points="706.74 392.85 710.68 417.12 710.61 416.89 733.1 472.78 730.39 473.85 708.58 417.69 708.54 417.57 708.52 417.46 704.87 393.14 706.74 392.85" style="fill:#2f4962"/><path d="M656.37,470.4q5.67-7.59,11.69-14.85c4-4.85,8.12-9.65,12.37-14.31s8.64-9.21,13.31-13.5A88.94,88.94,0,0,1,708.88,416l1.43,2.54a87,87,0,0,0-14.78,11.12c-4.64,4.16-9.06,8.6-13.33,13.17s-8.45,9.26-12.49,14-8,9.66-11.83,14.61Z" style="fill:#2f4962"/><path d="M626.92,521.91s-3.44,5.15-9,13.88" style="fill:none;stroke:#2f4962;stroke-miterlimit:10;stroke-width:2.9200000762939453px"/><ellipse cx="691.11" cy="418.86" rx="1.53" ry="1.57" style="fill:#fff"/><ellipse cx="644.89" cy="531.93" rx="3.8" ry="3.92" style="fill:#fff"/><ellipse cx="627.78" cy="501.55" rx="1.53" ry="1.57" style="fill:#fff"/><ellipse cx="632.2" cy="477.2" rx="1.53" ry="1.57" style="fill:#fff"/><ellipse cx="695.68" cy="459.57" rx="1.53" ry="1.57" style="fill:#fff"/><ellipse cx="716.66" cy="473.31" rx="1.53" ry="1.57" style="fill:#fff"/><ellipse cx="684.47" cy="504.7" rx="1.53" ry="1.57" style="fill:#fff"/><ellipse cx="662.96" cy="504.7" rx="2.65" ry="2.73" style="fill:none;stroke:#fff;stroke-miterlimit:10;stroke-width:0.33000001311302185px"/><ellipse cx="606" cy="510.29" rx="2.65" ry="2.73" style="fill:none;stroke:#fff;stroke-miterlimit:10;stroke-width:0.33000001311302185px"/><ellipse cx="652.29" cy="459.57" rx="2.65" ry="2.73" style="fill:none;stroke:#fff;stroke-miterlimit:10;stroke-width:0.33000001311302185px"/><path d="M617.47,237.28c2.71,5.67,4.62,12.05,9.34,16.2,4.2,3.68,10.06,5,15.64,4.72s11-1.95,16.29-3.63c-.85,9.66-9.1,17.56-18.43,20.17s-19.42.7-28.39-2.95a25.7,25.7,0,0,1-8.42-5c-6-5.83-6.13-15.15-8.53-23.14-1.4-4.69-3.71-9.31-3.42-14.2C592.77,209.19,614,229.9,617.47,237.28Z" style="fill:#2f4962"/><path d="M593.45,225.65s-41.74-85.41-19.82-107.75c5.73-5.84,15,6.93,18.78,14.18s5.07,15.5,6.3,23.59q2.07,13.7,4.13,27.38c1.44,9.51,3.42,20,11,25.88,6.56,5.1,15.54,5.35,23.85,5.39-9.16,14-29.5,19.17-44.25,11.33" style="fill:#2f4962"/><path d="M574.14,148.76A22.37,22.37,0,0,1,589.78,163c1.59,4.65,1.57,9.66,1.76,14.57.32,8.49,1.35,17.13,5,24.82s10.19,14.35,18.45,16.32" style="fill:none;stroke:#5da6a2;stroke-miterlimit:10;stroke-width:0.6899999976158142px"/><path d="M624.89,267a21.68,21.68,0,0,0,7.74.47" style="fill:none;stroke:#5da6a2;stroke-miterlimit:10;stroke-width:0.6899999976158142px"/><path d="M593.27,230.46c5.24,2.36,9,7.13,11.76,12.17s4.69,10.49,7.5,15.49q.38.67.78,1.32a16.92,16.92,0,0,0,2.41,3.11,13.86,13.86,0,0,0,4.21,2.81" style="fill:none;stroke:#5da6a2;stroke-miterlimit:10;stroke-width:0.6899999976158142px"/><path d="M538.64,305.88c-6.13,16.72-20.94,28.51-35.45,38.83a212.17,212.17,0,0,1-22.55,14.47,144.39,144.39,0,0,1-18.73,8.34,170.29,170.29,0,0,1-81,8.85l106.51-86Z" style="fill:#2f4962"/><path d="M493.9,329.47c-13.76,11.31-30.71,19-48.09,23.4-24.83,6.34-50.75,6.73-76.38,6.79" style="fill:none;stroke:#5da6a2;stroke-miterlimit:10;stroke-width:0.6899999976158142px"/><path d="M504.76,319c-1.71,2-3.51,3.84-5.38,5.64" style="fill:none;stroke:#5da6a2;stroke-miterlimit:10;stroke-width:0.6899999976158142px"/><path d="M494.31,312.82c-9.26,10.33-21.65,17.49-34.72,22.14s-26.85,6.94-40.61,8.67" style="fill:none;stroke:#5da6a2;stroke-miterlimit:10;stroke-width:0.6899999976158142px"/><path d="M482.14,309.76c-10.69,8.84-24,14.07-37.63,16.73S417,329.4,403.14,329" style="fill:none;stroke:#5da6a2;stroke-miterlimit:10;stroke-width:0.6899999976158142px"/><path d="M444.19,325.53a505.26,505.26,0,0,0-61.53,56.17c-7.66,8.26-15.54,18.22-14.31,29.42-40-18.45-132-45.36-140.06-88.7-.27-1.47,61.41-14.83,62.16-16.14a6.14,6.14,0,0,1,2.47-2.1c16.46-9.46,36.14-10.78,54.74-14.55,22.6-4.58,44.2-13,66.25-19.77,15.25-4.67,32.67-8.31,46.41-.22,11.38,6.69,17.54,20.05,28.84,26.9,2.65,1.61,4.55,3.38,5.15,6.3-7.08,4-17.78,3.34-25.76,7C459.77,313.93,451.82,319.64,444.19,325.53Z" style="fill:#fff"/><path d="M572,126.28c16.24,48.39,32.7,99.13,24.61,149.53-1.67,10.45-4.75,21.34-12.54,28.5-9.28,8.53-22.91,9.8-35.48,10.53-15.25.89-30.57,1.61-45.78.19A165.13,165.13,0,0,1,400,265.53L482,148.67l33.33-12.33Z" style="fill:#fff"/><path d="M574.9,288.89c4.5-1.62-1.31-10.54-5.75-12.32s-13.21.62-17.35,3C551.8,279.58,553.14,296.69,574.9,288.89Z" style="fill:none;stroke:#2f4962;stroke-miterlimit:10;stroke-width:2.680000066757202px"/><path d="M46.14,1004.58c-.61-26.46-1.77-53.16,3-79.18,4.5-24.34,14.1-47.39,23.74-70.19,27.17-64.25,55.36-128.72,69.47-197,11.13-53.93,13.29-109.43,25-163.23,9.91-45.4-9.43-93.42,13.38-133.91,22.58-40.1,71.72-30.26,111.87-15.83Q347.86,365.1,401,390.38c21.72,10.34,43.31,21.46,62,36.67a196.28,196.28,0,0,1,34,36.29c-14.24,11.22-18,40.78-21.57,57.13a321.7,321.7,0,0,0-7.36,71.22c.43,47.77,11.48,94.75,17,142.2,13.57,116.62-6.36,234.6-1.89,351.89a207.64,207.64,0,0,0-27,2.82c-24.47,4.34-47.65,14-71.5,20.94-109.46,32.07-227.62,8-340.22,26.16Q47.59,1070.2,46.14,1004.58Z" style="fill:#fff"/><path d="M403.42,384.63a79.31,79.31,0,0,1,14.69,25,108.38,108.38,0,0,1,6.19,28.28,165.57,165.57,0,0,1-.24,28.86c-.83,9.57-2.26,19-3.82,28.47L420,496.7h-1.5A146.74,146.74,0,0,1,274.79,318.87l4.58,1A142.64,142.64,0,0,0,418.49,493.18l-1.74,1.48c1.59-9.38,3-18.76,3.91-28.19A161.76,161.76,0,0,0,421,438.2a104.53,104.53,0,0,0-5.88-27.46,76.39,76.39,0,0,0-14-24.1Z" style="fill:#e5af34"/><path d="M165.46,282.62c14.92-8.8,28.19-16,41.14-23.77,6.43-2.87,12.85-5.75,19.19-8.8A391.47,391.47,0,0,0,295,207.4c15.24-11.75,30.24-25.72,34.75-43.84,3.09-12.41.89-25.36,1.14-38.11.88-44.78,35.95-87.1,81.67-98.53a170.89,170.89,0,0,1,32.31-4.33c32.35-1.7,66.15,1.82,93.8,17.74a94.37,94.37,0,0,1,27.75,24.31c9.3,14.18,14.57,30.89,13.88,47.6s-5.38,29.52-16.15,42c-13,15.12-55.81,56.92-93.31,83.61C341.2,330.08,307,336.7,274.81,350.59c-35.25,15.22-74.33,23.9-112.49,30.05q-1.22-14.19-2.42-28.39,1.84-29.79,3.68-59.56C163.82,289.28,164.07,285.74,165.46,282.62Z" style="fill:#2f4962"/><path d="M468.06,591.65a321.37,321.37,0,0,1,7.36-71.25c3.56-16.35,7.33-45.91,21.57-57.13,18.22,24.84,31.72,53.56,42.8,82.48a681.49,681.49,0,0,1,40.28,163.33c3.59,30.3,5.14,60.85,9.85,91,4.06,26,10.45,51.56,16.83,77.08q27.63,110.55,55.27,221.1-68.26-8.8-137.08-12c-13.9-.66-27.87-1.12-41.76-.51C478.71,968.45,468.49,639.4,468.06,591.65Z" style="fill:#5da6a2"/><path d="M674,432.66s7.08,28.56,31.93,56.29l-5,9.25s-24.45-22.74-34-57.42Z" style="fill:#e5af34"/><path d="M434.14,292.4c-3.13-1.91-6.39-4-9.82-6.18" style="fill:none;stroke:#2f4962;stroke-miterlimit:10;stroke-width:2.680000066757202px"/><path d="M506.49,317.27c-27.57-2.8-43.8-8.26-65.24-20.65" style="fill:none;stroke:#2f4962;stroke-miterlimit:10;stroke-width:2.680000066757202px"/><path d="M399.85,443.84c3.08,1.86,6.29,3.5,9.54,5.14l-1.31,2.34c-3.1-1.92-6.22-3.87-9.19-6Z" style="fill:#2f4962"/><path d="M387.75,377.45a45.76,45.76,0,0,0,6.12,62.39l-1.77,2a47.94,47.94,0,0,1-5.71-65.44Z" style="fill:#2f4962"/><path d="M369.46,468c.33-10.14.61-20.33-1.72-30a62,62,0,0,0-5.18-13.93,64.15,64.15,0,0,0-8.35-12.29A59.76,59.76,0,0,0,330.14,395,61.58,61.58,0,0,0,301,391.33l-.45-3.9a65.35,65.35,0,0,1,30.85,4.19,63.23,63.23,0,0,1,25.28,18,67.19,67.19,0,0,1,8.63,13,65.47,65.47,0,0,1,5.27,14.68,76.88,76.88,0,0,1,1.75,15.42c.13,5.14-.09,10.26-.31,15.35Z" style="fill:#2f4962"/><path d="M404.14,580.51c27.74,69.44,39,354.15,38.34,508.85,0,5-.49,10.24-3.18,14.43-4.14,6.43-12.48,8.39-20,9.76-111.4,20.41-224.22,31.8-336.9,43.17-19,1.92-39,3.71-56.66-3.79-5.62-2.39-11-5.81-14.47-10.83-3.71-5.36-5-12-6-18.46-13.79-88.9,1.35-179.82,23.81-266.94S81.36,684.24,97.72,595.77c5.86-31.71,10.22-64.49,25.63-92.82,16.42-30.19,39.37-57.09,76-50.78C243.14,459.72,365,482.33,404.14,580.51Z" style="fill:#5da6a2"/><circle cx="513.69" cy="248.4" r="20.26" style="fill:#e5af34"/><path d="M534.52,210a44.68,44.68,0,0,0,7.62,1.42,37.71,37.71,0,0,0,7.66,0,24,24,0,0,0,7.16-1.87,18.46,18.46,0,0,0,3.1-1.81,17.92,17.92,0,0,0,2.59-2.41l3.09,2.76a21.9,21.9,0,0,1-3.4,2.9,22.93,22.93,0,0,1-3.89,2.05,27.51,27.51,0,0,1-8.35,1.82,41.35,41.35,0,0,1-8.32-.34,46.69,46.69,0,0,1-8.09-1.84Z" style="fill:#2f4962"/><path d="M534.49,180.81A21,21,0,0,1,542,176a26,26,0,0,1,8.58-1.67,36.53,36.53,0,0,1,16.64,3.62,25.81,25.81,0,0,1,7.17,4.93,25.47,25.47,0,0,1,5,7.08,47.93,47.93,0,0,1,4.24,16.24c.56,5.52.6,10.92,1.14,16.23a42.2,42.2,0,0,0,3.9,15.08c.27.57.65,1.18,1,2a4.38,4.38,0,0,1-1.33,5.34,10.63,10.63,0,0,1-2,1.25,24.7,24.7,0,0,1-8.14,2.73,17.21,17.21,0,0,1-4.42.06,15.05,15.05,0,0,1-4.3-1.2,12.33,12.33,0,0,1-6.35-6.25l2.46-1.06a9.7,9.7,0,0,0,5.06,4.77,13,13,0,0,0,7.2.84,22.17,22.17,0,0,0,7.15-2.51c1.15-.57,2-1.3,2.07-1.79a1.88,1.88,0,0,0-.18-1.07c-.19-.48-.53-1-.85-1.68a45,45,0,0,1-4.41-16.14c-.62-5.47-.73-10.93-1.33-16.19a44.44,44.44,0,0,0-4-15,21.4,21.4,0,0,0-10.62-10.21,32.56,32.56,0,0,0-14.86-3.08c-5,.2-10,2-13.27,5.44Z" style="fill:#2f4962"/><path d="M553.24,170.82s12-.87,16.29,8.82c0,0-12.79-2.51-20.75,2.78s-29.11,7.32-34,.21-5.42-12.66-1-10.55,8,7.08,12,2.21,9.44-7.07,13.45-3.25C539.22,171,547.65,165.19,553.24,170.82Z" style="fill:#e5af34"/><path d="M408.78,43.94s-17,167.46-232.15,238.46" style="fill:none;stroke:#5da6a2;stroke-miterlimit:10;stroke-width:1.340000033378601px"/><path d="M334.36,206.89c-37.09,34.15-87.28,66.52-155,89.73" style="fill:none;stroke:#5da6a2;stroke-miterlimit:10;stroke-width:1.340000033378601px"/><path d="M356.14,185.12q-5.72,6.21-11.94,12.39" style="fill:none;stroke:#5da6a2;stroke-miterlimit:10;stroke-width:1.340000033378601px"/><path d="M433.14,49.57C426.72,73,410.77,117.39,374,164.12" style="fill:none;stroke:#5da6a2;stroke-miterlimit:10;stroke-width:1.340000033378601px"/><path d="M437,32.31s-.37,2.57-1.41,7.24" style="fill:none;stroke:#5da6a2;stroke-miterlimit:10;stroke-width:1.340000033378601px"/><path d="M466.14,35.77S419,238.51,179.3,309.77" style="fill:none;stroke:#5da6a2;stroke-miterlimit:10;stroke-width:1.340000033378601px"/><path d="M209.33,325.72q-14.57,4.44-30,8.41" style="fill:none;stroke:#5da6a2;stroke-miterlimit:10;stroke-width:1.340000033378601px"/><path d="M508.61,72.48c-20.22,54.15-86,179.63-275.83,245.59" style="fill:none;stroke:#5da6a2;stroke-miterlimit:10;stroke-width:1.340000033378601px"/><path d="M516.61,46.54s-1,4.77-3.59,13.13" style="fill:none;stroke:#5da6a2;stroke-miterlimit:10;stroke-width:1.340000033378601px"/><path d="M476.37,177.1q-2.79,3.39-5.74,6.82c-51.4,59.66-140,126.43-291.32,165.11" style="fill:none;stroke:#5da6a2;stroke-miterlimit:10;stroke-width:1.340000033378601px"/><path d="M539,59.67s-8.1,42.49-46.62,96.6" style="fill:none;stroke:#5da6a2;stroke-miterlimit:10;stroke-width:1.340000033378601px"/><path d="M564.14,81.9S506.35,282.56,180.75,361" style="fill:none;stroke:#5da6a2;stroke-miterlimit:10;stroke-width:1.340000033378601px"/><path d="M378.14,53s-12.39,58.37-41.55,93" style="fill:none;stroke:#5da6a2;stroke-miterlimit:10;stroke-width:1.340000033378601px"/><path d="M492.91,39.4s-57.77,216.19-313.6,282.37" style="fill:none;stroke:#5da6a2;stroke-miterlimit:10;stroke-width:1.340000033378601px"/><path d="M410.83,338.68A187.8,187.8,0,0,1,390.29,353a75,75,0,0,1-11.41,5.43,53.76,53.76,0,0,1-12.36,3l-.29-2.67c8.06-.75,15.81-3.74,23-7.69a186.51,186.51,0,0,0,20.58-13.74Z" style="fill:#2f4962"/><path d="M162.51,460.89c19.86-3.49,42.18,1.92,61.63,7.51,43.7,12.52,83.25,26.15,117.17,53.59s54.77,65.51,65.4,108.6" style="fill:none;stroke:#2f4962;stroke-miterlimit:10;stroke-width:2.9200000762939453px"/><path d="M154.87,466c19.86-3.48,39.84,1.29,61.95,7.1,41.77,11,83.25,26.15,117.17,53.6s54.77,65.51,65.41,108.59" style="fill:none;stroke:#e5af34;stroke-miterlimit:10;stroke-width:1.4600000381469727px"/><path d="M371.8,570.64a22.55,22.55,0,0,1-20.53-7.9A24.25,24.25,0,0,1,347,540.57c-10.54-1-22.43-2.66-28.59-11.53-3.29-4.75-4.28-10.74-5.18-16.5a32.26,32.26,0,0,1-26.94-.64,34,34,0,0,1-17.35-21.27,25.61,25.61,0,0,1-24.39,4.24c-8.13-2.89-16-9.11-18.06-17.73a49.34,49.34,0,0,1-27.33,3.51c-9.72-1.46-19.19-7.23-23.45-16.35" style="fill:none;stroke:#e5af34;stroke-miterlimit:10;stroke-width:1.4600000381469727px"/><path d="M225.63,488.2c-.57,1.72-4,7.3-5.66,6.71s-1-7.14-.46-8.86a3.2,3.2,0,0,1,4.05-2l.05,0A3.33,3.33,0,0,1,225.63,488.2Z" style="fill:#e5af34"/><path d="M267.68,504c-.84,1.61-5.06,6.61-6.65,5.76s.08-7.24.91-8.86a3.21,3.21,0,0,1,4.32-1.4l.06,0A3.35,3.35,0,0,1,267.68,504Z" style="fill:#e5af34"/><path d="M307.61,526c-1.14,1.42-6.31,5.48-7.69,4.31s1.53-7.1,2.68-8.52a3.21,3.21,0,0,1,4.51-.52l.07.06A3.35,3.35,0,0,1,307.61,526Z" style="fill:#e5af34"/><path d="M510.77,522c1.59.86,6.51,5.2,5.63,6.8s-7.22-.16-8.81-1a3.25,3.25,0,0,1-1.33-4.4l0,0A3.32,3.32,0,0,1,510.77,522Z" style="fill:#e5af34"/><ellipse cx="198.76" cy="474.75" rx="1.53" ry="1.57" style="fill:none;stroke:#2f4962;stroke-miterlimit:10;stroke-width:1.340000033378601px"/><ellipse cx="246.2" cy="487.82" rx="1.53" ry="1.57" style="fill:none;stroke:#2f4962;stroke-miterlimit:10;stroke-width:1.340000033378601px"/><ellipse cx="289.26" cy="506.03" rx="1.53" ry="1.57" style="fill:none;stroke:#2f4962;stroke-miterlimit:10;stroke-width:1.340000033378601px"/><ellipse cx="327.8" cy="528.96" rx="1.53" ry="1.57" style="fill:none;stroke:#2f4962;stroke-miterlimit:10;stroke-width:1.340000033378601px"/><path d="M211.55,532.7c-3.83,2.47-8.47-4.58-6-7.76.15-.19.49.06.34.25-2,2.93,2.05,10,5.64,7.49h0Z" style="fill:none;stroke:#fff;stroke-miterlimit:10;stroke-width:1.340000033378601px"/><path d="M212.8,531.19c3.94,2.29,8.27-5,5.66-8.12-.16-.19-.49.08-.34.27,2.18,2.84-1.61,10.15-5.31,7.83h0Z" style="fill:none;stroke:#fff;stroke-miterlimit:10;stroke-width:1.340000033378601px"/><path d="M212.22,530a8.59,8.59,0,0,0,1.1-5.06,10,10,0,0,0-1.45-4.59,25.28,25.28,0,0,1-2.27-3.68c-1.31-3.44.61-5.69,1.54-6.8" style="fill:none;stroke:#fff;stroke-miterlimit:10;stroke-width:1.340000033378601px"/><path d="M213.22,508.28a11,11,0,0,1,2.39-.66,1.31,1.31,0,0,1,1.46.91,24,24,0,0,1,.72,3.13,30.31,30.31,0,0,1,.38,6.66,15.13,15.13,0,0,1-3.77,10,6.77,6.77,0,0,1-2.63,1.71,2.42,2.42,0,0,1-1-.07,5.51,5.51,0,0,1-2.1-1,10.8,10.8,0,0,1-3.35-5.8,31.49,31.49,0,0,1-1.19-9c0-1,.07-2,.13-3l.16-2.71a.72.72,0,0,1,.08-.32.66.66,0,0,1,.49-.2,6.72,6.72,0,0,1,4.39,1.33c.63.47,1,1.36,1.72.66A6.79,6.79,0,0,1,213.22,508.28Z" style="fill:none;stroke:#fff;stroke-miterlimit:10;stroke-width:1.340000033378601px"/><ellipse cx="235.89" cy="511.46" rx="1.53" ry="1.57" style="fill:#fff"/><ellipse cx="277.13" cy="527.13" rx="1.53" ry="1.57" style="fill:#fff"/><ellipse cx="193.54" cy="497.53" rx="1.53" ry="1.57" style="fill:#fff"/><path d="M264.22,566.11s-27-18.31-5.15-51.7" style="fill:none;stroke:#fff;stroke-miterlimit:10;stroke-width:1.340000033378601px"/><path d="M519.78,498.5a38.94,38.94,0,0,1,3.27,5.15c.5.87,1,1.75,1.41,2.65s.93,1.77,1.33,2.68l1.27,2.71c.41.91.78,1.83,1.18,2.74.8,1.82,1.52,3.68,2.24,5.53,2.85,7.42,5.35,15,7.56,22.59,1.12,3.8,2.12,7.64,3.17,11.46s1.95,7.69,2.85,11.55,1.78,7.73,2.6,11.61l2.39,11.64-2.86.54-2.26-11.62c-.78-3.86-1.64-7.71-2.46-11.57s-1.81-7.68-2.71-11.52-2-7.64-3-11.43c-2.11-7.6-4.51-15.11-7.25-22.48-.69-1.85-1.38-3.69-2.16-5.49-.38-.91-.74-1.82-1.13-2.72L524,509.84c-.39-.9-.84-1.77-1.27-2.65s-.88-1.75-1.35-2.6a38.7,38.7,0,0,0-3-4.88Z" style="fill:#2f4962"/><path d="M427.21,505.19a55.34,55.34,0,0,1,10.87,18.91,23.36,23.36,0,0,1,1.45,7.2,14.59,14.59,0,0,1-8.62,13.42,13.18,13.18,0,0,1-15.22-4c-2.37-3.15-3.07-7.25-3.26-11.19a54.47,54.47,0,0,1,1.77-16.81c1.33-5,2.77-9,2.64-13,0-1.49-1-5.37.22-6.28,3.12-2.43,4.13,3.69,4.59,5.21C422.54,501.59,425.24,503,427.21,505.19Z" style="fill:#e5af34"/><path d="M429.24,529.24c-4.39-.44-9.21-.1-12.62,2.72a2.94,2.94,0,0,0-.76.85,2.84,2.84,0,0,0,0,2.18c1.25,3.61,4.93,5.94,8.7,6.59a10,10,0,0,0,5.63-.46,9,9,0,0,0,4.48-4.48c.63-1.31,2-4.66.84-6S430.8,529.4,429.24,529.24Z" style="fill:#fff"/><path d="M429.45,531.1q-2.71-9.2-4.81-18.54c-.47-2.1-3.7-1.21-3.23.89q2.08,9.36,4.8,18.54C426.82,534.06,430.06,533.18,429.45,531.1Z" style="fill:#fff"/><path d="M426.78,523.88c-1.46-1.8-3.72-2.56-5.87-3.17a1.68,1.68,0,0,0-.9,3.23c1.65.47,3.29.94,4.4,2.31a1.68,1.68,0,0,0,2.37,0A1.7,1.7,0,0,0,426.78,523.88Z" style="fill:#fff"/><path d="M427,521a13,13,0,0,1,2.53-2.6,1.68,1.68,0,0,0,0-2.37,1.72,1.72,0,0,0-2.37,0,15.57,15.57,0,0,0-3.05,3.28A1.67,1.67,0,0,0,427,521Z" style="fill:#fff"/><path d="M503.5,473.72c-15.25,30.21-18.72,64.8-21.94,98.49-1.88,19.66-.27,86.07-.61,105.81" style="fill:none;stroke:#2f4962;stroke-miterlimit:10;stroke-width:2.9200000762939453px"/><path d="M510.19,480.18c-11.06,25.7-17.41,65.26-18,92.7-.5,22.74.56,73.47.06,96.21" style="fill:none;stroke:#e5af34;stroke-miterlimit:10;stroke-width:1.4600000381469727px"/><path d="M509.53,477.84c5.25,13.38,5.16,38.86-10.26,42.81a2.49,2.49,0,0,0-1.15,3.33l.06.11c8.38,8.47,10.37,24.17,7.63,34.26-2.55,9.4-7,14.12-13.61,21.29,9.57,7,14,19.61,13.28,31.46s-5.93,23-12.55,32.88" style="fill:none;stroke:#e5af34;stroke-miterlimit:10;stroke-width:1.4600000381469727px"/><ellipse cx="507.03" cy="502.88" rx="1.53" ry="1.57" style="fill:none;stroke:#2f4962;stroke-miterlimit:10;stroke-width:1.340000033378601px"/><path d="M407.82,516.57l-5.85-3c-1.91-1-3.61,1.9-1.69,2.9l5.85,3c1.91,1,3.61-1.9,1.69-2.89Z" style="fill:#e5af34"/><path d="M438.6,510.34a33.08,33.08,0,0,0,4.85-4.46c1.42-1.61-.94-4-2.37-2.37a27.7,27.7,0,0,1-4.17,3.93,1.74,1.74,0,0,0-.6,2.29,1.69,1.69,0,0,0,2.29.61Z" style="fill:#e5af34"/><path d="M444.92,531.8a27,27,0,0,1,6,.85c2.08.54,3-2.69.89-3.23a30.59,30.59,0,0,0-6.93-1c-2.15-.06-2.15,3.29,0,3.35Z" style="fill:#e5af34"/><path d="M399.56,53c0,20,16.33,34.13,35.55,33.84-19.22.29-35.18,15.35-35.66,33.64.48-18.29-14.71-32.87-33.93-32.57C384.74,87.64,399.56,71.32,399.56,53Z" style="fill:#fff"/><path d="M462.27,56.78c0,11.48,9.35,19.55,20.36,19.38-11,.17-20.16,8.8-20.43,19.27.27-10.47-8.43-18.82-19.43-18.66A20.06,20.06,0,0,0,462.27,56.78Z" style="fill:#fff"/><path d="M669.83,403s2,15.38,7.22,22.9l-8,8.86s-8.85-14.74-8-23.25Z" style="fill:#e5af34"/><path d="M572.22,58.08c-1.41-2.27-3-4.43-4.54-6.63a4.45,4.45,0,0,0-7.84,1c-6.21,17.45-8.71,41-3.77,48.54,2.38,3.67,1.23,2.08-1.37,5.59,3.1-4.19,9.18-7.54,13.7-9.92,3.58-1.89,8.72-2.68,10.23-6.85C582.05,80.34,577.19,66.13,572.22,58.08Z" style="fill:#d17475"/><path d="M584.34,102.09a9.25,9.25,0,0,0-16-8.56,53.39,53.39,0,0,1-4,4.37c-8.79,6.78-31.57,19.71-85,29.66q-11.18,2-23.7,3.89t-23.82,3.12c-54,5.91-79.55.11-89.93-3.84a54.56,54.56,0,0,1-5.05-3,9.25,9.25,0,0,0-12.7,12.77,28.53,28.53,0,0,0,11.46,7.64c14.8,7,39.73,11.58,98.3,4.84q10.82-1.18,22.44-2.9l2.12-.32,2.11-.31q11.64-1.71,22.33-3.7c58-10.47,80.55-22.1,92.71-33A28.69,28.69,0,0,0,584.34,102.09Z" style="fill:#d17475"/><path d="M509.78,112.47c-.5-1.9-5.91-8.36-5.91-8.36s-1.48,8.29-1,10.19a3.56,3.56,0,1,0,6.91-1.73l0-.1Z" style="fill:#d17475"/><path d="M545.94,99.31c-.65-1.85-6.54-7.87-6.54-7.87s-.84,8.37-.19,10.22a3.56,3.56,0,0,0,6.73-2.35Z" style="fill:#d17475"/><path d="M433,124.23c-.29-1.94-4.93-9-4.93-9s-2.41,8.07-2.12,10a3.56,3.56,0,0,0,7-1Z" style="fill:#d17475"/><path d="M395.34,128c0-2-3.44-9.62-3.44-9.62s-3.66,7.55-3.68,9.51a3.56,3.56,0,1,0,7.12.11Z" style="fill:#d17475"/><path d="M355.37,124.73c.16-2-2.76-9.86-2.76-9.86s-4.17,7.31-4.34,9.27a3.56,3.56,0,1,0,7.1.59Z" style="fill:#d17475"/><path d="M471.49,120c-.29-2-4.92-9-4.92-9s-2.41,8.07-2.13,10a3.56,3.56,0,1,0,7.05-1Z" style="fill:#d17475"/><rect x="440.72" y="123.91" width="17.27" height="17.27" transform="translate(75.03 414.27) rotate(-53.4)" style="fill:#d17475"/><polygon points="490.89 137.29 477.21 127.95 487.32 113.13 501.19 123.43 490.89 137.29" style="fill:#d17475"/><polygon points="530.98 128.94 516.61 120.7 525.54 105.14 540.17 114.32 530.98 128.94" style="fill:#d17475"/><rect x="402.48" y="128.12" width="17.27" height="17.27" transform="translate(41.38 362.63) rotate(-49.82)" style="fill:#d17475"/><polygon points="373.64 148.94 362.02 136.16 374.78 124.54 385.93 139.79 373.64 148.94" style="fill:#d17475"/><rect x="484.94" y="124.86" width="10.95" height="10.95" transform="translate(109.18 465.23) rotate(-56.18)" style="fill:none;stroke:#fff;stroke-miterlimit:10;stroke-width:1.850000023841858px"/><rect x="524" y="116.34" width="10.95" height="10.95" transform="translate(188.91 545.14) rotate(-64.14)" style="fill:none;stroke:#fff;stroke-miterlimit:10;stroke-width:1.850000023841858px"/><rect x="466.75" y="133.84" width="3.73" height="3.73" transform="translate(94.02 448.28) rotate(-55.99)" style="fill:#fff"/><rect x="508.69" y="128.25" width="3.73" height="3.73" transform="translate(118.28 481.86) rotate(-56.18)" style="fill:#fff"/><rect x="548.39" y="115.82" width="3.73" height="3.73" transform="translate(274.95 608.43) rotate(-72.78)" style="fill:#fff"/><rect x="429.34" y="141.24" width="3.73" height="3.73" transform="translate(58.45 402.85) rotate(-53.23)" style="fill:#fff"/><rect x="390.94" y="144.2" width="3.73" height="3.73" transform="translate(21.76 340.89) rotate(-48.1)" style="fill:#fff"/><rect x="351.27" y="141.09" width="3.73" height="3.73" transform="translate(17.73 323.64) rotate(-50.35)" style="fill:#fff"/><rect x="444.58" y="132.13" width="10.95" height="10.95" transform="translate(64.16 407) rotate(-51.92)" style="fill:none;stroke:#fff;stroke-miterlimit:10;stroke-width:1.850000023841858px"/><rect x="406.31" y="135.45" width="10.95" height="10.95" transform="translate(42.23 370.84) rotate(-50.78)" style="fill:none;stroke:#fff;stroke-miterlimit:10;stroke-width:1.850000023841858px"/><rect x="367.72" y="136.63" width="10.95" height="10.95" transform="translate(4.91 296.49) rotate(-43.59)" style="fill:none;stroke:#fff;stroke-miterlimit:10;stroke-width:1.850000023841858px"/><path d="M344.14,141.19a46.46,46.46,0,0,1-19.64-9.86" style="fill:none;stroke:#fff;stroke-miterlimit:10;stroke-width:1.850000023841858px"/><path d="M583.34,95.81s-6.6,9.33-23.06,17.12" style="fill:none;stroke:#fff;stroke-miterlimit:10;stroke-width:1.850000023841858px"/><path d="M572.74,88.3q-1.12-9.52-1.61-19.09c-.11-2.14-3.46-2.16-3.35,0q.5,9.57,1.61,19.09C569.64,90.42,573,90.44,572.74,88.3Z" style="fill:#fff"/><path d="M571.4,80.69c-1.13-2-3.16-3.19-5.2-4.17a1.72,1.72,0,0,0-2.29.6,1.69,1.69,0,0,0,.6,2.29c1.5.72,3.16,1.45,4,3,1,1.89,3.94.2,2.89-1.69Z" style="fill:#fff"/><path d="M571.9,77.81a12.52,12.52,0,0,1,2.9-2.16c1.9-1,.21-3.93-1.69-2.89a15.88,15.88,0,0,0-3.58,2.68,1.68,1.68,0,0,0,2.37,2.37Z" style="fill:#fff"/><path d="M575.4,82.85c-1.3,1.94-2.08,3.73-4.23,4.92a12.5,12.5,0,0,1-6.68,1.41c-2.16-.09-2.15,3.27,0,3.35a15.82,15.82,0,0,0,8.37-1.87c2.71-1.49,3.79-3.66,5.43-6.12,1.2-1.8-1.7-3.47-2.89-1.69Z" style="fill:#fff"/></g><path d="M550.62,181.5h0c.08-.14.16-.27.25-.4h0c.08-.12.18-.24.27-.35l.05-.05c.09-.11.19-.21.29-.31l.07-.06.3-.26.1-.08.29-.21.14-.08.29-.17.18-.09.27-.12.23-.09.25-.09.27-.07.23,0a.68.68,0,0,0,.34-.06h.71a5.31,5.31,0,0,1,2.38.57,7.69,7.69,0,0,1,.58-.7,8,8,0,0,1,4.85-2.48,8.39,8.39,0,0,1,1-.06,7.74,7.74,0,0,1,1.59.17l.51.12a8,8,0,0,1,11.42-5.44,13.21,13.21,0,0,1-.31-2.08v-.81a12.67,12.67,0,0,1,16.23-12.18,11.88,11.88,0,0,1,.49-2.28,12.68,12.68,0,0,1,20.74-5.46l.45.44a18.86,18.86,0,0,1,26.66.84l.08.09c.35.37.68.76,1,1.16a18.64,18.64,0,0,1,3.44,6.82c.43,0,.88-.07,1.32-.07a12.63,12.63,0,0,1,8.22,3,13,13,0,0,1,3.19,4.12,7.92,7.92,0,0,1,8,1.47c.18.16.35.32.51.49a8,8,0,0,1,2.13,4.38,8,8,0,0,1,10.89,2.79,7.84,7.84,0,0,1,.77,1.76,5.33,5.33,0,0,1,.17.66,7.92,7.92,0,0,1,8.51,2.95,5.3,5.3,0,1,1,0,9.46A7.93,7.93,0,0,1,679,190.52,8,8,0,0,1,668.35,194a8.06,8.06,0,0,1-1.68-1.15,8,8,0,0,1-13.65.92,8,8,0,0,1-9.74-2.2,7.94,7.94,0,0,1-10.71,6.07,18.92,18.92,0,0,1-26.74-.58,19.41,19.41,0,0,1-2.88-3.92,7.88,7.88,0,0,1-8.42.9,8,8,0,0,1-13.66-.92,7.94,7.94,0,0,1-11.21-.65,8.13,8.13,0,0,1-1.15-1.69A7.93,7.93,0,0,1,557.6,189a5.29,5.29,0,0,1-7.68-4.73A5.22,5.22,0,0,1,550.62,181.5Z" style="fill:url(#linear-gradient)"/><path d="M163.93,199.4h0c.12-.2.25-.4.39-.59h0c.13-.18.27-.36.42-.53l.07-.07c.14-.16.28-.31.43-.46l.11-.1a5.63,5.63,0,0,1,.45-.38l.15-.12.44-.32.21-.13.43-.25.27-.13.41-.19.34-.12.38-.14.41-.1.33-.09.52-.07H170a5.34,5.34,0,0,1,.8,0,7.92,7.92,0,0,1,3.57.85,11.11,11.11,0,0,1,.88-1.05,11.89,11.89,0,0,1,7.28-3.72,11.76,11.76,0,0,1,1.45-.09,11.37,11.37,0,0,1,2.4.25c.26.05.51.12.77.18a11.93,11.93,0,0,1,14.14-9.23,11.53,11.53,0,0,1,3,1.06,19.55,19.55,0,0,1-.47-3.13v-1.21a19,19,0,0,1,24.37-18.43,19.24,19.24,0,0,1,.74-3.43A19,19,0,0,1,260,149.47c.23.22.45.43.67.66a28.32,28.32,0,0,1,40,1.28l.12.12c.52.56,1,1.13,1.49,1.73a28.6,28.6,0,0,1,5.16,10.26A18.88,18.88,0,0,1,321.83,168a19.32,19.32,0,0,1,4.79,6.19,11.88,11.88,0,0,1,4.13-.75,12.61,12.61,0,0,1,2.21.2,11.8,11.8,0,0,1,5.65,2.75,8.73,8.73,0,0,1,.76.73,11.91,11.91,0,0,1,3.21,6.57,11.93,11.93,0,0,1,16.35,4.2,12.17,12.17,0,0,1,1.16,2.64c.1.33.18.66.25,1a11.65,11.65,0,0,1,3.16-.44,12,12,0,0,1,9.62,4.86,8,8,0,1,1,0,14.21,11.94,11.94,0,0,1-16.39,2.75,11.94,11.94,0,0,1-16.06,5.25,11.77,11.77,0,0,1-2.53-1.72,12,12,0,0,1-20.51,1.38,11.8,11.8,0,0,1-5.25,1.22,11.94,11.94,0,0,1-9.36-4.52,11.91,11.91,0,0,1-13.72,9.77,12.07,12.07,0,0,1-2.37-.66,28.41,28.41,0,0,1-44.47-6.75,11.89,11.89,0,0,1-12.65,1.34,11.94,11.94,0,0,1-20.5-1.38,11.93,11.93,0,0,1-16.84-1,12.06,12.06,0,0,1-1.73-2.53,12,12,0,0,1-16.39-2.76,7.77,7.77,0,0,1-3.57.86,8,8,0,0,1-6.86-12Z" style="fill:url(#linear-gradient-2)"/><path d="M260.33,94.4h0c.12-.2.25-.4.39-.59v0c.13-.18.27-.36.42-.53l.06-.07c.14-.16.29-.31.44-.46l.11-.09a5.34,5.34,0,0,1,.44-.39l.16-.12.44-.32.21-.13.43-.25.27-.13.41-.19.34-.12.37-.14.41-.1.34-.08a4.67,4.67,0,0,1,.52-.08h.26a5.34,5.34,0,0,1,.8,0,7.92,7.92,0,0,1,3.57.85,11.11,11.11,0,0,1,.88-1,11.89,11.89,0,0,1,7.28-3.72,11.76,11.76,0,0,1,1.45-.09,12.07,12.07,0,0,1,2.4.25l.76.19a12,12,0,0,1,11.71-9.5,11.84,11.84,0,0,1,5.44,1.32,19.55,19.55,0,0,1-.47-3.13V74.47a19,19,0,0,1,24.37-18.29,19.24,19.24,0,0,1,.74-3.43,19,19,0,0,1,31.14-8.35c.23.21.45.42.67.65A28.6,28.6,0,0,1,363,40.83a28.3,28.3,0,0,1,34.3,5.62c.52.56,1,1.14,1.49,1.73A30.4,30.4,0,0,1,401.28,52a27.82,27.82,0,0,1,2.62,6.45,18.88,18.88,0,0,1,14.33,4.44A19.32,19.32,0,0,1,423,69.07a11.88,11.88,0,0,1,4.13-.75,12.5,12.5,0,0,1,2.2.2A11.88,11.88,0,0,1,435,71.27c.26.23.52.48.76.73A12,12,0,0,1,439,78.58a11.95,11.95,0,0,1,17.5,6.82c.09.33.18.66.25,1a11.85,11.85,0,0,1,12.77,4.42,8,8,0,1,1,0,14.21,11.93,11.93,0,0,1-16.36,2.78,11.95,11.95,0,0,1-18.57,3.51,12,12,0,0,1-20.51,1.38,11.9,11.9,0,0,1-14.61-3.3,11.91,11.91,0,0,1-13.72,9.77,12.07,12.07,0,0,1-2.37-.66,28.41,28.41,0,0,1-44.47-6.75,11.87,11.87,0,0,1-7.39,2.57,12,12,0,0,1-5.26-1.22,12,12,0,0,1-20.51-1.39,11.93,11.93,0,0,1-18.56-3.5,11.93,11.93,0,0,1-16.39-2.76,7.77,7.77,0,0,1-3.57.86,7.94,7.94,0,0,1-6.86-12Z" style="fill:url(#linear-gradient-3)"/><path d="M699.31,164.26h0c.08-.13.17-.27.26-.39h0l.28-.35v-.05l.3-.3.07-.07a3.47,3.47,0,0,1,.29-.25l.11-.08a1.94,1.94,0,0,1,.29-.21l.23-.16.29-.17.18-.08.27-.13.22-.08.25-.09.28-.07.22-.06.35-.05h.7a5.19,5.19,0,0,1,2.38.57,8,8,0,0,1,5.43-3.18,8.39,8.39,0,0,1,1-.06,7.83,7.83,0,0,1,1.6.17,4.7,4.7,0,0,1,.51.12,8,8,0,0,1,9.51-6.13,8.52,8.52,0,0,1,1.91.68,13.23,13.23,0,0,1-.32-2.08V151a12.7,12.7,0,0,1,12.7-12.69,13.21,13.21,0,0,1,3.53.51,13.64,13.64,0,0,1,.5-2.28A12.68,12.68,0,0,1,763.39,131c.15.14.3.28.44.43a18.86,18.86,0,0,1,26.67.93c.34.37.67.75,1,1.15a18.68,18.68,0,0,1,1.69,2.54,18.39,18.39,0,0,1,1.74,4.29,11.85,11.85,0,0,1,1.33-.07,12.7,12.7,0,0,1,11.4,7.15,7.83,7.83,0,0,1,2.75-.5,8,8,0,0,1,5.24,2c.17.15.34.31.5.48a7.86,7.86,0,0,1,2.14,4.38,7.91,7.91,0,0,1,11.62,4.55c.07.22.12.44.17.67a7.92,7.92,0,0,1,8.51,3,5.15,5.15,0,0,1,2.37-.57,5.3,5.3,0,1,1-2.37,10,8,8,0,0,1-10.92,1.84A7.94,7.94,0,0,1,817,176.74a8.34,8.34,0,0,1-1.68-1.15,8,8,0,0,1-13.66.92,7.92,7.92,0,0,1-9.73-2.2,8,8,0,0,1-7.84,6.62,7.83,7.83,0,0,1-2.87-.55,18.92,18.92,0,0,1-26.75-.59,19.23,19.23,0,0,1-2.87-3.9,7.91,7.91,0,0,1-8.42.89,8,8,0,0,1-13.66-.92,7.94,7.94,0,0,1-12.37-2.37,8,8,0,0,1-10.92-1.84,5.19,5.19,0,0,1-2.38.57,5.24,5.24,0,0,1-4.53-8Z" style="fill:url(#linear-gradient-4)"/><path d="M656.9,269.24h0l.21-.33h0l.23-.3h0l.24-.26.06-.05.24-.22L658,268l.24-.17.12-.08.23-.13.15-.08.23-.1.18-.07.21-.07.23-.06.19-.05h.87a4.49,4.49,0,0,1,2,.47,6.71,6.71,0,0,1,.48-.58,6.53,6.53,0,0,1,4-2.05,5.37,5.37,0,0,1,.8-.05,6.6,6.6,0,0,1,1.33.14,3.2,3.2,0,0,1,.42.1,6.58,6.58,0,0,1,9.45-4.51,11.16,11.16,0,0,1-.26-1.72v-.67a10.49,10.49,0,0,1,13.43-10.09,11.18,11.18,0,0,1,.41-1.89,10.49,10.49,0,0,1,17.17-4.51,4.17,4.17,0,0,1,.37.36,15.8,15.8,0,0,1,3.23-2.33,15.62,15.62,0,0,1,18.92,3.1,10.42,10.42,0,0,1,.82,1,15.6,15.6,0,0,1,2.84,5.65,10.94,10.94,0,0,1,1.11-.23,10.46,10.46,0,0,1,6.8,2.51,10.61,10.61,0,0,1,2.64,3.41,6.57,6.57,0,0,1,2.28-.41,7,7,0,0,1,1.21.11,6.53,6.53,0,0,1,3.12,1.52,5.33,5.33,0,0,1,.42.4,6.63,6.63,0,0,1,1.77,3.62,6.58,6.58,0,0,1,9,2.34,6.29,6.29,0,0,1,.63,1.43,4.92,4.92,0,0,1,.14.55,6.41,6.41,0,0,1,1.74-.24,6.57,6.57,0,0,1,5.3,2.68,4.39,4.39,0,1,1,0,7.83,6.59,6.59,0,0,1-9,1.52,6.57,6.57,0,0,1-8.83,2.89,6.75,6.75,0,0,1-1.41-1,6.58,6.58,0,0,1-8.85,2.91,6.51,6.51,0,0,1-2.46-2.14,6.58,6.58,0,0,1-8-1.82,6.61,6.61,0,0,1-6.5,5.47,6.44,6.44,0,0,1-2.37-.45,15.65,15.65,0,0,1-22.13-.47,15.83,15.83,0,0,1-2.39-3.25,6.55,6.55,0,0,1-7,.74,6.59,6.59,0,0,1-11.3-.76,6.58,6.58,0,0,1-9.3-.56,6.17,6.17,0,0,1-.94-1.37,6.59,6.59,0,0,1-9-1.52,4.39,4.39,0,0,1-5.76-6.13Z" style="fill:url(#linear-gradient-5)"/></g></g></g></svg>