<svg xmlns="http://www.w3.org/2000/svg" viewBox="0 0 1037.49 380.86"><title>Asset 2</title><g id="Layer_2" data-name="Layer 2"><g id="Layer_1-2" data-name="Layer 1"><path d="M1012.83,186.81c0-37,3.28-37,3.28-74s-4.29-37-4.29-74c0-14.78-9.83-26.53-21.73-26.53-28.65,0-28.65,7.8-57.31,7.8s-28.66-7.22-57.32-7.22-28.65,3.81-57.31,3.81-28.66-7.63-57.31-7.63-28.66,7.55-57.31,7.55S674.87,13,646.22,13,622.43,0,593.77,0s-33.52,4.46-62.18,4.46S502.94,12,474.28,12,445.63,6.94,417,6.94s-28.65,12.38-57.31,12.38c-11.89,0-26.56,4.78-26.56,19.56,0,37,11.63,37,11.63,74s-7.7,37-7.7,74c0,23.53,1.08,32.1,1.87,44.74a9.57,9.57,0,0,1-10.12,10.16c-39-2.29-107.34-3.5-113.17-3.53q-19.08-.08-38.17.05l-4.07-.05c-55.59-.22-111.3.68-166.57,4.59-2.48.18-5.39.53-6.44,1.91s.52,3.07,2.4,4.17c7.47,4.35,18.81,4.94,29.19,5.25q81.16,2.43,162.48,2.13,43.17.21,86.33-.44a6.9,6.9,0,0,1,7,6.9h0a8.22,8.22,0,0,1-8.48,8.21c-13.74-.43-24.28-.66-26.16-.67q-17.81-.09-35.6.13c-3.49-.08-5.85-.13-6.64-.13-41.81-.22-83.7.67-125.26,4.5-1.87.17-4.06.52-4.85,1.87s.39,3,1.81,4.09c5.61,4.27,14.14,4.85,22,5.15q63.88,2.5,127.89,2,33.7.28,67.4-.35a6.65,6.65,0,0,1,6.79,6.65h0a6.94,6.94,0,0,1-7.15,6.93c-2-.07-3.41-.1-3.89-.1-10.5-.08-21,0-31.51.33-5.74-.21-9.83-.33-10.73-.33-26-.19-52.11.55-78,3.77-1.16.15-2.52.44-3,1.57s.25,2.53,1.13,3.43c3.49,3.59,8.81,4.07,13.67,4.33,29.11,1.53,58.27,2.14,87.41,1.59q19.59.36,39.17,0a6.6,6.6,0,0,1,6.73,6.6h0a8.26,8.26,0,0,1-8,8.27q-7,.18-14,.74c-7.57-.55-14.55-.83-15.47-.84-14.25-.14-28.53.42-42.7,2.84a1.84,1.84,0,0,0-1.65,1.18,3.13,3.13,0,0,0,.62,2.58c1.91,2.69,4.82,3.06,7.48,3.25a480.57,480.57,0,0,0,57.05.86q13.13.58,26.26.46a13.83,13.83,0,0,1,12.8,7.89c3.35,7.36,9.3,12.29,16.81,12.29,28.66,0,28.66,7.87,57.32,7.87s28.66-8.47,57.32-8.47,28.65,8.52,57.31,8.52,28.66-13.31,57.31-13.31,28.66,11.62,57.31,11.62,28.66-14.33,57.31-14.33S732.2,358,760.86,358s28.65-3.57,57.31-3.57,28.65-.43,57.31-.43,28.65,3.69,57.31,3.69,28.65,1.89,57.3,1.89c11.9,0,22.46-10.08,22.46-24.85,0-37,5.22-37,5.22-74S1012.83,223.79,1012.83,186.81Z" style="fill:#3176a9"/><path d="M127.5,243.7H113.85c-3,0-3,4.7,0,4.7H127.5c3,0,3-4.7,0-4.7Z" style="fill:#2f4962"/><path d="M105.08,244.9a26.25,26.25,0,0,0-7.44-.68c-3,.17-3,4.87,0,4.7a21.47,21.47,0,0,1,6.19.51c2.94.69,4.2-3.85,1.25-4.53Z" style="fill:#2f4962"/><path d="M180.2,277.7a251.91,251.91,0,0,0-44.79-.38c-3,.24-3,4.89,0,4.65a252.86,252.86,0,0,1,44.79.38c3,.29,3-4.37,0-4.65Z" style="fill:#2f4962"/><path d="M212.29,279.76c-2.41,1.39-7.34.57-10,.49-3.11-.1-6.6,0-9.62-.8a1.85,1.85,0,0,0-1,3.56c3.62,1,7.81.86,11.52.94,3.24.08,8,.69,11-1a1.84,1.84,0,0,0-1.86-3.18Z" style="fill:#2f4962"/><path d="M254.55,307.43a156.28,156.28,0,0,0-32-.32c-2.3.22-2.32,3.82,0,3.61a156.28,156.28,0,0,1,32,.32c2.31.26,2.29-3.35,0-3.61Z" style="fill:#2f4962"/><path d="M277.44,309.11c-1.62,1.1-5.26.5-7.1.43-2.2-.08-4.74,0-6.85-.67-1.75-.56-2.5,2.19-.76,2.75,2.54.82,5.64.72,8.27.8,2.26.06,5.88.51,7.88-.84,1.5-1,.08-3.5-1.44-2.47Z" style="fill:#2f4962"/><path d="M274.27,335.35a119.53,119.53,0,0,0-24.07-.24c-1.73.15-1.74,2.87,0,2.71a119.53,119.53,0,0,1,24.07.24c1.73.19,1.72-2.52,0-2.71Z" style="fill:#2f4962"/><path d="M292,337.54c-1,.93-10.21.36-11.32-.08" style="fill:#3176a9"/><rect x="300.91" y="258.89" width="20.33" height="6.46" rx="2.57" ry="2.57" style="fill:#2f4962"/><rect x="326.76" y="290.22" width="36.01" height="6.46" rx="2.86" ry="2.86" style="fill:#2f4962"/><rect x="350.98" y="319.93" width="45.73" height="6.46" rx="3.23" ry="3.23" style="fill:#2f4962"/><path d="M813.94,193.79,785.8,213.94s-58.09,84.66-18.5,111.84c11.23,7.71,82.05.39,82.05.39s12.64-2.36,19.78-11.09l18.6-18.39,6.2-12.87L888.35,272l-7-10.92-10-22.09Z" style="fill:#2f4962"/><path d="M813.94,193.79,785.8,213.94s-58.09,84.66-18.5,111.84c11.23,7.71,82.05.39,82.05.39s12.64-2.36,19.78-11.09l18.6-18.39,6.2-12.87L888.35,272l-7-10.92-10-22.09Z" style="fill:#2f4962"/><polygon points="826.97 326.3 820.85 368.79 843.43 367.46 858.96 315.68 826.97 326.3" style="fill:#2f4962"/><path d="M849.22,255.25a18,18,0,0,0-2.19-3.34,25.47,25.47,0,0,0-18.42-9.85,49,49,0,0,0-7.56.31c-7.42.88-13,6.94-17.88,12.61" style="fill:#2f4962"/><path d="M786.07,228.39a13.63,13.63,0,0,1,13.16,9.46,19.34,19.34,0,0,1,.33,8.23,36.34,36.34,0,0,1-26.9,29.47c-1.49.36-3.16.72-4,2-1.28,2,.3,4.53,2,6.18A35.85,35.85,0,0,0,783.76,292" style="fill:#2f4962"/><path d="M775.07,310.87c1.34,0,2.67-.31,4-.33a14.39,14.39,0,0,1,6.71,1.85,21.18,21.18,0,0,0,3.79,1.8,4.63,4.63,0,0,0,4-.45,4.43,4.43,0,0,0,1.49-2.11,8.18,8.18,0,0,0-1.32-7.6,12.14,12.14,0,0,0-6.67-4.22c-4.92-1.28-9.81.18-14,2.76-2.51,1.53-3.23,4.41-2.08,6.34A4.39,4.39,0,0,0,775.07,310.87Z" style="fill:#2f4962"/><path d="M839.07,263.81s-15.93,9.61-28-3.76" style="fill:#2f4962"/><path d="M797.17,247.85l-2.21.29c-.74.08-1.5.1-2.24.15s-1.51,0-2.27,0a22,22,0,0,1-2.27-.3,12,12,0,0,1-4.4-1.63c-.35-.2-.66-.47-1-.7a10.19,10.19,0,0,1-.88-.86,6.3,6.3,0,0,1-1.34-2.2l1.86-.57a4.6,4.6,0,0,0,1,1.35,7.68,7.68,0,0,0,.69.59c.27.16.51.35.79.49a9.85,9.85,0,0,0,3.67,1.09,18.45,18.45,0,0,0,2,.14c.67,0,1.34,0,2-.1s1.35-.15,2-.27l2-.39Z" style="fill:#3176a9"/><circle cx="821.94" cy="298.52" r="15.5" transform="translate(-43.32 171.91) rotate(-11.64)" style="fill:#2f4962"/><path d="M848.19,330.35l-6.41,24.22" style="fill:#2f4962"/><path d="M904.75,175.56a11,11,0,0,0-8.54-8.54,83.27,83.27,0,0,0-60.4,2.29,41.37,41.37,0,0,1,13.89-64A9.3,9.3,0,1,0,867.64,110c.57-3.39-.78-6.83-2.61-9.73C857.26,87.88,840.77,82.87,826.54,86s-26.2,13.13-34.71,25c-7.29,10.15-12.49,22-13.79,34.43s1.5,25.46,8.8,35.61c3.82,5.32,8.74,9.73,13.72,14a422.11,422.11,0,0,0,87.64,57.7c3.07,1.51,7.22,4,10.73,4.09,4.3.06,3.79-2.83,4.73-6.8a232.19,232.19,0,0,0,4.63-25.07C910.32,208.43,910,191.43,904.75,175.56Z" style="fill:#5da4a0"/><path d="M904.75,175.56a11,11,0,0,0-8.54-8.54,83.27,83.27,0,0,0-60.4,2.29,41.37,41.37,0,0,1,13.89-64A9.3,9.3,0,1,0,867.64,110c.57-3.39-.78-6.83-2.61-9.73C857.26,87.88,840.77,82.87,826.54,86s-26.2,13.13-34.71,25c-7.29,10.15-12.49,22-13.79,34.43s1.5,25.46,8.8,35.61c3.82,5.32,8.74,9.73,13.72,14a422.11,422.11,0,0,0,87.64,57.7c3.07,1.51,7.22,4,10.73,4.09,4.3.06,3.79-2.83,4.73-6.8a232.19,232.19,0,0,0,4.63-25.07C910.32,208.43,910,191.43,904.75,175.56Z" style="fill:#2e5777"/><path d="M831.82,185.13a30.39,30.39,0,0,1,9.46-6,92.59,92.59,0,0,1,53.77-6.5c1.48,8.12.55,34.6-1.09,42.68" style="fill:#3176a9"/><path d="M895.17,173.32a68.51,68.51,0,0,0-42.8,32" style="fill:#3176a9"/><path d="M928.12,176.16c14.77-7.53,22.06-26.65,17-42.44s-21.21-27-37.79-27.21c4.07,2.42,2.5,9.56-1.93,11.22s-9.54-1.11-12.1-5.08a16.09,16.09,0,0,1,2.11-19.5,23.18,23.18,0,0,1,10-5.39c13.7-4,28.26.1,41.33,5.83,12,5.25,18.62,10.42,28.76,21.84,7.76,8.76,13.71,22.6,14.34,39.77.44,11.78-3.8,25.61-9.22,36.08-6.81,13.15-21.5,28.38-27,32.81-12.21,9.92-27.94,14.14-43.16,18.11A47,47,0,0,0,949,263.3c-1.3,4.24-6.69,5.43-11.13,5.51a77.54,77.54,0,0,1-20-2.25,32.16,32.16,0,0,0-5.49-1.1,33.79,33.79,0,0,0-6.19.42,66.49,66.49,0,0,1-33.86-5c-6.15-2.66.32-6.85-2.64-12.87-2.65-5.37-15-11.46-13.64-17.3A48,48,0,0,1,869.37,207c4.45-4.29,9.69-7.64,14.37-11.66s7.61-10.68,12.6-14.08c3.86-2.64,7.58-.81,11.91-.73A42.94,42.94,0,0,0,928.12,176.16Z" style="fill:#2e5777"/><path d="M792.48,149.16a68.61,68.61,0,0,1,5.89-22.22,71.86,71.86,0,0,1,8.27-12.79c7.63-9.37,17.21-17.56,30.09-17.29-3.47.41-6.45,2.6-9.17,4.8-7.78,6.29-15.2,13.68-18.55,23.11s-2.22,20.08,1.56,29.36,10,17.37,16.84,24.71l-18.84-2c-5-.52-10.05-1.69-13.44-5.74C791.49,166.75,791.78,159,792.48,149.16Z" style="fill:#3176a9"/><path d="M803.1,176.38a61.82,61.82,0,0,1-4-38.94c2.92-13,10.19-24.82,20-32.35" style="fill:none;stroke:#2e5777;stroke-miterlimit:10;stroke-width:1.30371105670929px"/><path d="M922.66,226.52c9.54-3.41,18.69-8.34,25.84-15.51a71.71,71.71,0,0,0,9.32-11.93c8.55-13.32,14.44-29.16,12.29-44.84a74.46,74.46,0,0,0-3.84-14.64c-3-8.5-6.86-17.14-13.9-22.78-4.67-3.75-10.4-5.89-16-8a43.35,43.35,0,0,1,20.84,24.47,49.75,49.75,0,0,1-.44,32.33,71.26,71.26,0,0,1-5.86,12.28,58.45,58.45,0,0,1-7.34,10.24c-10.53,11.4-26.58,15.7-41.9,18.2-8.75,1.43-17.58,2.44-26.43,3a4.92,4.92,0,0,0-3.29,1.05,4.81,4.81,0,0,0-1,1.85c-2,5.67-3.91,12-1.45,17.5a15.33,15.33,0,0,0,9.12,7.74,32.57,32.57,0,0,0,12.16,1.31c3.91-.19,2.53-1.84,4.19-4s4.59-2.22,7.55-2.86A156.9,156.9,0,0,0,922.66,226.52Z" style="fill:#3176a9"/><path d="M963,140.05a64.68,64.68,0,0,1-7,50.85,65.7,65.7,0,0,1-42,29.57,115.88,115.88,0,0,1-18.51,2c-8.68.4-17.38.58-26.06.15" style="fill:none;stroke:#2e5777;stroke-miterlimit:10;stroke-width:1.30371105670929px"/><path d="M836.63,225.18c-10.9-3.83-22.82-5.34-40.78-3.72-6.85.62-14.45-1.31-19.08-6.4-6.24-6.86-4.25-18.64-10.68-25.32-1.81-1.88-4.19-3.23-5.58-5.43s-1.12-5.82,1.35-6.64a5.67,5.67,0,0,1,4,.69,37.51,37.51,0,0,1,14.77,12.47,24.21,24.21,0,0,1-.51-15.59c.81-2.67,2.25-5.35,4.72-6.64s6.12-.52,7.12,2.08c.4-2.94.83-6,2.35-8.53s4.44-4.51,7.36-4a9,9,0,0,1,4.1,2.18,25.89,25.89,0,0,1,8.27,12.51c-.34-3,3.3-5.33,6.3-4.73s5.25,3,7,5.55a47.18,47.18,0,0,1,7.24,15.68,25.72,25.72,0,0,1,16.5-12.86,3.37,3.37,0,0,1,1.86-.06c1.07.39,1.49,1.68,1.61,2.81.46,4.17-1.14,8.31-1,12.5a15.57,15.57,0,0,0,6.85,12.36c-1-5.79,3.6-11.7,9.36-12.93s11.9,1.64,15.5,6.3c2.09,2.69,3.44,6.4,2,9.5-1.29,2.89-4.7,4.42-7.86,4.24a16.23,16.23,0,0,1-8.61-3.67A45.17,45.17,0,0,1,884,230.22a36,36,0,0,1,19.54-2.56c1.42.21,3,.64,3.67,1.91.77,1.46-.08,3.22-.94,4.63a153.94,153.94,0,0,1-14.06,19.58,47.13,47.13,0,0,1,30.22,10c-1.91,4.75-6.92,7.39-11.64,9.36a141.51,141.51,0,0,1-17.2,5.95,61.52,61.52,0,0,1,17.54,32.19c-23.48,2.8-47.94-11.88-56.52-33.92a8.1,8.1,0,0,1-.75-4.2c.33-1.94,1.92-3.39,3.41-4.68,3.53-3.07,10.07-6.78,9.64-12.19-.39-4.89-7.18-13.34-10.56-16.34C847.85,232.46,846.39,230.33,836.63,225.18Z" style="fill:#2e5777"/><path d="M786.94,212.55c60.27-17.25,86.51,28,86.51,28l4.94,7.91" style="fill:none;stroke:#3176a9;stroke-miterlimit:10;stroke-width:1.30371105670929px"/><path d="M853.34,220.45c-3.88-2.75-6.75-7.95-8.22-12.47a26.36,26.36,0,0,1-.45-14.07,6.6,6.6,0,0,1,1.43-3.14,2.62,2.62,0,0,1,3.15-.62,2,2,0,0,1,.14,3.2" style="fill:none;stroke:#3176a9;stroke-miterlimit:10;stroke-width:1.30371105670929px"/><path d="M839.12,213.15c-9.15-4.68-16.8-13.24-18.18-23.43a9.82,9.82,0,0,1,.89-6.42c1.15-1.88,3.73-3,5.66-2a2.09,2.09,0,0,1,1.19,1.72,1.2,1.2,0,0,1-1.45,1.19" style="fill:none;stroke:#3176a9;stroke-miterlimit:10;stroke-width:1.30371105670929px"/><path d="M821.67,209.07c-7.7-1.34-12.43-8.58-16.47-14.72-3.27-5-6.12-10.68-5.65-16.63a7.71,7.71,0,0,1,1.93-4.93,3.82,3.82,0,0,1,4.91-.55c1.39,1.14,1.07,3.89-.68,4.31" style="fill:none;stroke:#3176a9;stroke-miterlimit:10;stroke-width:1.30371105670929px"/><path d="M808.09,208.79c-4-.5-7.25-2.28-10.59-4.45a17.79,17.79,0,0,1-4.61-3.78,9,9,0,0,1-1.82-6.43c.07-.69.44-2.6,1.88-3.28a1.56,1.56,0,0,1,2.12.82,1.46,1.46,0,0,1-.65,2.14" style="fill:none;stroke:#3176a9;stroke-miterlimit:10;stroke-width:1.30371105670929px"/><path d="M794.1,210.84a33.91,33.91,0,0,1-8.1-4.21,6.07,6.07,0,0,1-2-2,2.31,2.31,0,0,1,.21-2.67,1.46,1.46,0,0,1,2.35.44" style="fill:none;stroke:#3176a9;stroke-miterlimit:10;stroke-width:1.30371105670929px"/><path d="M867.15,232.34a26.08,26.08,0,0,1-4.72-6.86,9.62,9.62,0,0,1-1-6.53c.59-2.17,2.73-4,5-3.66a2.15,2.15,0,0,1,1.39.74c.33.42.92,2.85-2.13,2.43" style="fill:none;stroke:#3176a9;stroke-miterlimit:10;stroke-width:1.30371105670929px"/><path d="M855,205.13a21.94,21.94,0,0,0,1,10.45" style="fill:#2e5777"/><path d="M833.73,194.91a22,22,0,0,0,2.79,11.39" style="fill:#2e5777"/><path d="M813.26,190.77a17.58,17.58,0,0,0,5.53,11.32" style="fill:#2e5777"/><path d="M805.51,203.72a12.9,12.9,0,0,1-5.71-6.21" style="fill:#2e5777"/><path d="M793.12,206.87a20.33,20.33,0,0,1-2.6-2" style="fill:#2e5777"/><path d="M868.71,222.78a5,5,0,0,0-.22,3.45,15,15,0,0,0,1.39,3.25" style="fill:#2e5777"/><circle cx="784.61" cy="152.67" r="3.01" transform="translate(-7.62 46.38) rotate(-3.37)" style="fill:#2e5777"/><circle cx="785.47" cy="139.88" r="3.01" transform="translate(-6.86 46.41) rotate(-3.37)" style="fill:#2e5777"/><circle cx="789.35" cy="127.19" r="3.01" transform="translate(-6.11 46.61) rotate(-3.37)" style="fill:#2e5777"/><circle cx="794.7" cy="116.14" r="2.21" transform="matrix(1, -0.06, 0.06, 1, -5.45, 46.91)" style="fill:#2e5777"/><circle cx="901.19" cy="195.09" r="3.93" transform="translate(-9.91 53.31) rotate(-3.37)" style="fill:#2e5777"/><circle cx="916.37" cy="193.03" r="3.08" transform="translate(-9.76 54.19) rotate(-3.37)" style="fill:#2e5777"/><circle cx="929.1" cy="188.38" r="2.59" transform="translate(-9.47 54.93) rotate(-3.37)" style="fill:#2e5777"/><circle cx="938.69" cy="180" r="2.04" transform="translate(-8.96 55.48) rotate(-3.37)" style="fill:#2e5777"/><circle cx="945.47" cy="170.42" r="1.74" transform="translate(-8.38 55.87) rotate(-3.37)" style="fill:#2e5777"/><circle cx="950.71" cy="161.79" r="1.34" transform="translate(-7.87 56.16) rotate(-3.37)" style="fill:#2e5777"/><path d="M786.6,295.46c1,10,20.07,35.41,52.8,35.1s27.3-32.37,13.4-31.18c-9.43.82-12.25,6.12-10.52,11.43,0,0,1.41,8.77,10.69,6.23,0,0-5.2,4.31-17.29,1.72s-20.85-8.87-23.87-16.76c0,0,15.62.55,20.5-9.54s6.9-15.28,16.71-14c0,0-9.53-7.68-15.78-5.06,0,0-10.22-21,28.14-18.32,0,0-37.54-21-61.8,3.17C799.58,258.25,784.52,273.78,786.6,295.46Z" style="fill:#2e5777"/><path d="M805.57,269.27h0a8.68,8.68,0,0,1,5.42-.65,20.09,20.09,0,0,1,5,1.74,7.9,7.9,0,0,1,2.15,1.28c1.78,1.67,1.6,4.65.74,7.09a16.71,16.71,0,0,1-5.71,7.71h0l-.19.14a14.33,14.33,0,0,1-3.14,1.72l-.39.14a19.72,19.72,0,0,1-10.62,1.43,3.17,3.17,0,0,1-2.61-3.93C797.49,280.93,800.59,271.34,805.57,269.27Z" style="fill:#2f4962"/><path d="M803,285.28a16.2,16.2,0,0,0,10.82-5.66c.77-.91,1.46-2.11,1.08-3.23a3.21,3.21,0,0,0-1.55-1.64,4.35,4.35,0,0,0-3.56-.58" style="fill:#2e5777"/><path d="M773.74,240a55.54,55.54,0,0,1-7.42,6.23c-1.74,1.14-3.6,2.09-5.26,3.35a29.16,29.16,0,0,0-3.88,3.74c-1.31,1.46-2.63,3.16-2.61,5.15,0,1.8,1.14,3.35,2.21,4.77l5,6.54" style="fill:#2f4962"/><path d="M627.27,352.62c.46.69.66,1,.9,1.34,5.93,7.37,13.82,10.7,23.08,11.39a9.65,9.65,0,0,1,4.57,1.65,78.28,78.28,0,0,0,22.75,11.1v0l.66.17,1.77.5a2.11,2.11,0,0,0,.26,0l2.49.64-.06.05.89.16,3,.78.19-.22c8.18,1.22,16,.79,23.48-2.16,8.4-3.3,16.59-7.2,24.7-11.18,8.48-4.15,17.19-5.86,26.52-4,3.21.64,6.43,1.22,9.64,1.83l.45-.5c-2.84-3.35-5.58-6.8-8.54-10-7.33-8-16.16-14.08-25.39-19.62h0l-3.7-2.43a32,32,0,0,1-10.4-12.2,13.56,13.56,0,0,0-6.8-6.28,27.31,27.31,0,0,0-16.31-2.05c-6.08,1.08-11.55,3.17-16.39,7.62-5,4.65-7,9.64-5.72,16.14.64,3.22,1.4,6.41,2.22,9.59,1.74,6.7,5.84,11,12.65,12.91a15.35,15.35,0,0,0,18.1-7.52c4.4-8.41-4-16.27-10.11-16-4.25.18-6.11,3.46-3.89,7.09a27.37,27.37,0,0,0,1.69,2.24,2.16,2.16,0,0,1-.54,3.18,2.62,2.62,0,0,1-2.51-.33,15.44,15.44,0,0,1-4.82-10.11A4.87,4.87,0,0,1,696,331a28.66,28.66,0,0,1,8-.35c6.73.71,12,5,13.38,10.77a38.21,38.21,0,0,1,.58,5.77l-2.59,6.52a16.55,16.55,0,0,1-12,9l-7.58.21c-9.2-1.48-16.28-6.11-18.88-15.24-1.23-4.34-3.25-6.13-7.24-6.63-.27,0-.52-.14-.78-.19-8-1.37-15.42-1-22.13,4.72C641.4,350.17,635.35,354,627.27,352.62Z" style="fill:#2f4962"/><path d="M658.19,270.46c.26.4.37.6.51.77,3.41,4.24,7.94,6.15,13.26,6.54a5.62,5.62,0,0,1,2.62,1,45,45,0,0,0,13.07,6.38h0l.39.1,1,.28h.15l1.43.37,0,0,.51.09,1.73.45.11-.12a25.84,25.84,0,0,0,13.48-1.24c4.83-1.9,9.53-4.14,14.19-6.43a23.42,23.42,0,0,1,15.23-2.3c1.85.37,3.7.71,5.54,1.06l.26-.29c-1.63-1.93-3.2-3.91-4.9-5.77a63.62,63.62,0,0,0-14.59-11.27h0l-2.13-1.4a18.46,18.46,0,0,1-6-7,7.73,7.73,0,0,0-3.9-3.6,15.63,15.63,0,0,0-9.37-1.18,17.79,17.79,0,0,0-9.41,4.38c-2.9,2.67-4,5.53-3.29,9.27.37,1.84.8,3.68,1.27,5.5a9.72,9.72,0,0,0,7.27,7.42A8.8,8.8,0,0,0,707,269.14c2.53-4.83-2.28-9.35-5.8-9.2-2.44.1-3.51,2-2.24,4.07a15.1,15.1,0,0,0,1,1.29,1.24,1.24,0,0,1-.32,1.83,1.52,1.52,0,0,1-1.44-.19,8.89,8.89,0,0,1-2.76-5.81,2.79,2.79,0,0,1,2.24-3.08,16.3,16.3,0,0,1,4.57-.2,8.52,8.52,0,0,1,7.68,6.18,22.67,22.67,0,0,1,.34,3.32l-1.49,3.74a9.5,9.5,0,0,1-6.88,5.18l-4.35.12c-5.28-.85-9.35-3.51-10.84-8.75-.71-2.49-1.87-3.53-4.17-3.81-.15,0-.29-.09-.44-.11-4.6-.79-8.86-.58-12.71,2.71C666.3,269.05,662.83,271.23,658.19,270.46Z" style="fill:#2f4962"/><path d="M562.15,302.56c.26.39.37.59.51.76,3.41,4.24,7.94,6.15,13.26,6.55a5.41,5.41,0,0,1,2.62.95,45.17,45.17,0,0,0,13.07,6.37h0l.39.1c.34.09.67.2,1,.28a.77.77,0,0,0,.15,0l1.43.36,0,0,.51.1,1.73.44.11-.12a25.74,25.74,0,0,0,13.48-1.24c4.83-1.9,9.53-4.14,14.19-6.42a23.3,23.3,0,0,1,15.23-2.3l5.54,1.05.26-.29c-1.63-1.92-3.2-3.91-4.9-5.77-4.21-4.6-9.29-8.08-14.59-11.27h0l-2.13-1.4a18.43,18.43,0,0,1-6-7,7.8,7.8,0,0,0-3.9-3.61,15.79,15.79,0,0,0-9.37-1.18,17.86,17.86,0,0,0-9.42,4.38c-2.89,2.67-4,5.54-3.28,9.27.37,1.85.8,3.68,1.27,5.51a9.74,9.74,0,0,0,7.27,7.42A8.82,8.82,0,0,0,611,301.23c2.53-4.83-2.28-9.34-5.8-9.2-2.44.11-3.51,2-2.24,4.07.28.46.65.86,1,1.29a1.24,1.24,0,0,1-.31,1.83,1.52,1.52,0,0,1-1.44-.19,8.87,8.87,0,0,1-2.76-5.81,2.79,2.79,0,0,1,2.24-3.08,16.3,16.3,0,0,1,4.57-.2,8.52,8.52,0,0,1,7.68,6.18,22.67,22.67,0,0,1,.34,3.32l-1.49,3.75a9.52,9.52,0,0,1-6.88,5.17l-4.35.13c-5.28-.86-9.35-3.52-10.84-8.76-.71-2.49-1.87-3.52-4.17-3.81-.15,0-.29-.08-.44-.11-4.6-.79-8.86-.58-12.71,2.71C570.26,301.15,566.79,303.32,562.15,302.56Z" style="fill:#2f4962"/><path d="M973.48,305.34c.21.31.29.46.4.59a13.63,13.63,0,0,0,10.17,5,4.19,4.19,0,0,1,2,.73,34.46,34.46,0,0,0,10,4.89h0l.29.08.78.22h.11l1.1.28,0,0,.39.08,1.33.34.08-.1a19.67,19.67,0,0,0,10.34-.95c3.7-1.45,7.31-3.17,10.89-4.92a17.88,17.88,0,0,1,11.68-1.77c1.41.28,2.83.54,4.25.81l.19-.22c-1.25-1.48-2.45-3-3.76-4.43a48.83,48.83,0,0,0-11.18-8.64h0l-1.63-1.07a14.23,14.23,0,0,1-4.59-5.38,5.94,5.94,0,0,0-3-2.77,12,12,0,0,0-7.19-.9,13.68,13.68,0,0,0-7.22,3.36c-2.22,2.05-3.09,4.25-2.52,7.11.29,1.42.62,2.82,1,4.22a7.43,7.43,0,0,0,5.57,5.69,6.76,6.76,0,0,0,8-3.31c1.94-3.71-1.76-7.17-4.45-7.06-1.88.08-2.7,1.52-1.72,3.12a11.58,11.58,0,0,0,.74,1,1,1,0,0,1-.23,1.4,1.15,1.15,0,0,1-1.11-.14,6.79,6.79,0,0,1-2.12-4.46,2.14,2.14,0,0,1,1.72-2.36,12.45,12.45,0,0,1,3.5-.15,6.54,6.54,0,0,1,5.9,4.74,17,17,0,0,1,.25,2.54l-1.14,2.88a7.31,7.31,0,0,1-5.27,4l-3.34.09c-4-.66-7.18-2.69-8.32-6.71-.54-1.92-1.43-2.71-3.19-2.93a3.38,3.38,0,0,1-.34-.08c-3.53-.61-6.8-.44-9.75,2.08C979.71,304.26,977,305.93,973.48,305.34Z" style="fill:#2f4962"/><path d="M906.83,357c.39.5.56.75.77,1,4.94,5.32,11.16,7.43,18.28,7.45a7.4,7.4,0,0,1,3.58,1,60,60,0,0,0,18,7.25h0l.52.1c.46.09.91.2,1.38.28h.2l1.93.35,0,0,.69.08,2.35.43.13-.18a34.46,34.46,0,0,0,17.85-2.93c6.25-3,12.29-6.43,18.29-9.91,6.26-3.64,12.83-5.43,20.06-4.52,2.49.32,5,.59,7.48.88l.32-.41c-2.36-2.41-4.64-4.9-7.08-7.22-6-5.73-13.14-9.88-20.51-13.62h0l-3-1.66a24.49,24.49,0,0,1-8.62-8.77,10.36,10.36,0,0,0-5.55-4.42,21,21,0,0,0-12.59-.69,23.94,23.94,0,0,0-12.12,6.73c-3.61,3.84-4.85,7.77-3.49,12.67.66,2.42,1.42,4.82,2.22,7.21a13,13,0,0,0,10.38,9.19,11.79,11.79,0,0,0,13.44-6.75c2.9-6.68-3.94-12.23-8.61-11.7-3.25.37-4.49,3-2.59,5.63.41.58.94,1.09,1.41,1.63a1.66,1.66,0,0,1-.23,2.46,2,2,0,0,1-2-.12,11.78,11.78,0,0,1-4.23-7.46,3.74,3.74,0,0,1,2.7-4.33,21.7,21.7,0,0,1,6.06-.69c5.19.17,9.42,3.15,10.82,7.5a28.12,28.12,0,0,1,.76,4.39L974.27,353a12.73,12.73,0,0,1-8.67,7.55l-5.78.57c-7.12-.63-12.8-3.78-15.28-10.62-1.18-3.26-2.82-4.52-5.91-4.68-.2,0-.4-.09-.6-.11-6.2-.61-11.86.08-16.67,4.82C917.51,354.31,913.09,357.54,906.83,357Z" style="fill:#2f4962"/></g></g></svg>