<svg id="Layer_1" data-name="Layer 1" xmlns="http://www.w3.org/2000/svg" viewBox="0 0 1007.47 400"><defs><style>.cls-1{fill:#d6a236;}</style></defs><title>bingkai ratu purbasari</title><path class="cls-1" d="M797,251.57H220.44c-17.37,0-31.67-14.23-36.3-27.61l2.87-1c4.29,12.39,17.46,25.57,33.43,25.57H797c14.63,0,29.14-11,33.76-25.54l2.89.92C828.6,239.68,812.85,251.57,797,251.57Z"/><path class="cls-1" d="M187,181l-2.93-.81c3.95-14.4,18-29.7,36.33-29.7H797c17.44,0,32.87,12.06,36.69,28.68l-3,.68C827.17,164.61,813,153.54,797,153.54H220.44C203.63,153.54,190.69,167.7,187,181Z"/><path class="cls-1" d="M185.58,225.32,153.84,202l31.74-23.29L217.32,202ZM158.91,202l26.67,19.56L212.25,202l-26.67-19.56Z"/><polygon class="cls-1" points="170.93 202.04 185.44 191.39 199.95 202.04 185.44 212.69 170.93 202.04"/><polygon class="cls-1" points="113.68 202.04 128.19 191.39 142.7 202.04 128.19 212.69 113.68 202.04"/><rect class="cls-1" x="52.37" y="200.54" width="38.33" height="3"/><path class="cls-1" d="M800.53,201.29,832.27,178,864,201.29l-31.74,23.28Zm31.74-19.56L805.6,201.29l26.67,19.56,26.67-19.56Z"/><polygon class="cls-1" points="846.92 201.29 832.41 190.64 817.9 201.29 832.41 211.94 846.92 201.29"/><polygon class="cls-1" points="904.17 201.29 889.66 190.64 875.15 201.29 889.66 211.94 904.17 201.29"/><rect class="cls-1" x="927.14" y="199.79" width="38.33" height="3"/></svg>
