<svg id="Layer_1" data-name="Layer 1" xmlns="http://www.w3.org/2000/svg" viewBox="0 0 1769.49 1080"><defs><style>.cls-1{fill:#5ea7a2;}.cls-2{fill:#3176a9;}.cls-3{fill:#4d7d7b;}.cls-4{fill:#304a63;}</style></defs><title>24</title><rect class="cls-1" x="-33.35" y="-18.4" width="1863.75" height="1114.83"/><path class="cls-2" d="M1016.27,626.32c-3.65-4.69-51.67-25.05-51.67-25.05,6.78-2.09,10.44-24,12.52-29.23s7.83-14.09,13-17.75,13.57-10.44,0-12.53-65.24,23.49-68.9,26.1,0,19.32,0,19.32C902,573.6,891,589.78,891,589.78s7.71-4.29,12.53.53c6.26,6.26,23,20.88,33.92,26.1S987,618,987,618,1019.93,631,1016.27,626.32ZM969,585.2l-1-.59a14.69,14.69,0,0,0,2.07-9.49c-.13-1-.62-3.54-2.48-4.35l.45-1c2.31,1,3,3.72,3.16,5.26A15.85,15.85,0,0,1,969,585.2Zm8.51-33.45a6.43,6.43,0,0,1,1.49,1.56,3.26,3.26,0,0,1,.84,2.54l-1.12-.23a2.34,2.34,0,0,0-.64-1.64,5.73,5.73,0,0,0-1.21-1.3,1.75,1.75,0,0,0-1.41-.31l-.31-1.09A2.83,2.83,0,0,1,977.52,551.75ZM958.1,558.5a13.91,13.91,0,0,1,2.85-3.17l.73.87a12.75,12.75,0,0,0-2.62,2.9,7,7,0,0,0-1.12,3.57h-1.13A8,8,0,0,1,958.1,558.5ZM940,566.7l.75.84a16.21,16.21,0,0,0-4.24,17.4l-1.06.41A17.36,17.36,0,0,1,940,566.7Zm-19.28,29.6a12,12,0,0,1-3-.69,4.78,4.78,0,0,1-2.6-1.86,23.09,23.09,0,0,0,3,.13c1,0,1.91.1,2.86.16a29.55,29.55,0,0,1,5.82,1A9.78,9.78,0,0,1,920.76,596.3Zm14.9,6.22a15.42,15.42,0,0,1-3.68.76,10.26,10.26,0,0,1-3.88-.42,6.12,6.12,0,0,1-3.2-2.2,21.73,21.73,0,0,0,6.91.36,28.53,28.53,0,0,1,7.28,0A15.81,15.81,0,0,1,935.66,602.52Zm9.43,6a13.13,13.13,0,0,1-7.61-1.36c2.61-.48,5-.62,7.38-.9s4.76-.54,7.42-.58A13.17,13.17,0,0,1,945.09,608.5ZM943.9,595h0l0,0c-.83-.32-1.66-.64-2.49-1a55.26,55.26,0,0,1-10.5-5.66,53,53,0,0,1,10.52,3.22,13.4,13.4,0,0,1-1.08-4.79,30,30,0,0,1,1.64-10.93c1.41-3.74,5.15-6.93,8.23-8.43a10.86,10.86,0,0,1,9.72,0,14.88,14.88,0,0,1,5-11.29,11,11,0,0,1,6.53-2.66h0a7.46,7.46,0,0,1,3.73,1.31,4.12,4.12,0,0,1,1.65,3.27,5.81,5.81,0,0,1-1.61,4.16,3.58,3.58,0,0,1-5.7-4.31l1.87,1.27a1.31,1.31,0,0,0,2.09,1.58,3.57,3.57,0,0,0,1.08-2.7,1.86,1.86,0,0,0-.73-1.45,5.38,5.38,0,0,0-2.38-.86h0a8.8,8.8,0,0,0-5,2.07,13.21,13.21,0,0,0-3.17,4.37,12,12,0,0,0-.82,7.21,17.94,17.94,0,0,1,1.52,1.94c1.66,2.51,2.32,4.72,2,6.77a8,8,0,0,1-1.32,3.19,8.69,8.69,0,0,1-5.9,4.07,5.78,5.78,0,0,1-6.3-3.83,4.6,4.6,0,0,1,1.16-4.25,3.89,3.89,0,0,1,3.61-1.29l-.43,2.23a1.7,1.7,0,0,0-1.52.61,2.39,2.39,0,0,0-.63,2.1,3.52,3.52,0,0,0,3.81,2.18,6.38,6.38,0,0,0,4.3-3.07,5.73,5.73,0,0,0,1-2.3c.24-1.46-.3-3.14-1.63-5.15a11,11,0,0,0-2.23-2.55,8.27,8.27,0,0,0-8.61-.61c-3.17,1.55-6.09,4.51-7.11,7.19a27.56,27.56,0,0,0-1.49,10.07c0,2.21.92,5.08,2.74,6.53l0,0a47.89,47.89,0,0,1,7.48,4.25A49.14,49.14,0,0,1,943.9,595Zm14.78,3.47a4.91,4.91,0,0,1,2.61,2.15,5,5,0,0,1-6-2.16A4.88,4.88,0,0,1,958.68,598.51Zm-3.61-7.86-.61,0a10.25,10.25,0,0,1-5.16-1.73l.63-.94a9.09,9.09,0,0,0,4.6,1.54,16,16,0,0,0,2.4-.09,4.71,4.71,0,0,0,3.1-1l.83.78a5.74,5.74,0,0,1-3.83,1.39C956.4,590.6,955.74,590.65,955.07,590.65Zm4.49,23.46a11.83,11.83,0,0,1-3.09,0,4.83,4.83,0,0,1-3-1.19,22.38,22.38,0,0,0,2.89-.58c1-.22,1.88-.36,2.82-.52a29.23,29.23,0,0,1,5.89-.42A9.81,9.81,0,0,1,959.56,614.11Z"/><path class="cls-3" d="M951.62,475c-5.9-2.58-44.66-5.63-52.91-5.54A32.37,32.37,0,0,0,883.5,474s-4.91-3.27-14.44-.83-10.91,8.37-10.91,8.37c5.36-3.17,15.7,2.43,15.7,2.43-4.77,11.48-1.55,33.18-1.55,33.18A65.16,65.16,0,0,0,889.52,511c1.34,10.6,3.39,25.32,4.42,24.51,1.6-1.27,3.45-6.94,3.45-6.94s.53,5.75,1.62,5.43,3.35-7.31,3.35-7.31.93,4.46,3.36,3.34,1.06-7,1.06-7l3.25,3c10.63-10.66,8.88-41.68,8.31-44.95a6.31,6.31,0,0,1,.84-3.86,3,3,0,0,1,.33-.14c2.53-.76,7.89,0,12-.81S957.51,477.55,951.62,475Zm-68.16,34.51a7.27,7.27,0,0,1-3.1-.63,5,5,0,0,1-2.68-3l.78-.23a4.12,4.12,0,0,0,2.24,2.46,6.82,6.82,0,0,0,3.49.53l.07.81Zm10.44-8.11a8.85,8.85,0,0,1-6.69,3.3,9,9,0,0,1-1.62-.15c-4-.66-5-3.21-5.11-5.25a9.23,9.23,0,0,1,.78-4.94,4.83,4.83,0,0,1,5.14-2.59,3.81,3.81,0,0,1,2.64,2.57,3.22,3.22,0,0,1-.62,3.14l-2.17-2s0-.18,0-.32a.88.88,0,0,0-.53-.58,1.93,1.93,0,0,0-1.87,1.12,6.65,6.65,0,0,0-.44,3.39c.1,1.76,1.09,2.27,2.53,2.51l.21,0a7,7,0,0,0,6.48-1.83c3.23-3.66,4.57-10.73,3.48-14.12-.45-1.38-1.62-4.26-4-3.35-4,.93-7.82,3.08-12,3.9a32.37,32.37,0,0,1,7.6-4.58,44.17,44.17,0,0,1,8.43-2.74A38.26,38.26,0,0,1,905,478a25.63,25.63,0,0,1,8.76,1.69c-3,.41-5.78.68-8.57,1.16l-2.71.49a21.85,21.85,0,0,1,5.75,7.81,32,32,0,0,1,1.68,11.3,13.85,13.85,0,0,1-.76,5.14,6.24,6.24,0,0,1-4.36,3.94,4.87,4.87,0,0,1-1,.1,5.69,5.69,0,0,1-4-1.74,7,7,0,0,1-1.88-4.67,5.27,5.27,0,0,1,2.55-4.93,3.8,3.8,0,0,1,3.7.24,3.09,3.09,0,0,1,1.52,2.73l-2.93-.1s-.09-.14-.28-.23a.9.9,0,0,0-.68,0,2.44,2.44,0,0,0-1,2.24,4,4,0,0,0,1.05,2.71,2.66,2.66,0,0,0,2.35.81,3.49,3.49,0,0,0,2.6-1.69,14,14,0,0,0,.94-4.49c0-4.33.14-7.1-.91-9.87s-4.88-8.07-7.57-9.76l-3.26.7h-.08a13.66,13.66,0,0,1,1.94,3.1C899.4,489.45,897.55,497.24,893.9,501.37Zm-1.37-12.69a2.06,2.06,0,0,0-.28-.54,2,2,0,0,0-.79-.49,6,6,0,0,0-3.11-.35l-.12-.8a6.71,6.71,0,0,1,3.52.4,2.64,2.64,0,0,1,1.12.72,2.52,2.52,0,0,1,.42.78,3.85,3.85,0,0,1,.23,2.06,2.7,2.7,0,0,1-1.2,1.8l-.42-.7a1.83,1.83,0,0,0,.82-1.25A3,3,0,0,0,892.53,488.68Zm15.41,26.93a11.11,11.11,0,0,1-3,.39,20.76,20.76,0,0,1-3.24-.29c-1.67-.26-3.72-.76-4.75-2.36l.68-.44c.86,1.33,2.69,1.77,4.2,2a13.84,13.84,0,0,0,5.9-.08,8.14,8.14,0,0,0,5.34-5.1l.77.26A9,9,0,0,1,907.94,515.61Zm5.42-17.34a30.19,30.19,0,0,0-.7-7.12,11.82,11.82,0,0,0-3.39-6l.54-.61a12.7,12.7,0,0,1,3.64,6.44,32,32,0,0,1,.73,7.3Z"/><path class="cls-2" d="M781.08,517c-1.9-3.33-34.25-13.8-34.25-13.8,4.28-4.28,3.33-17.6,3.33-17.6s3.8.95,4.28-2.86-13.32-6-13.32-6,5.23-4.45,5.71-6.35-15.7,2.37-15.7,2.37,3.33-4.75,3.33-8.56S723.52,468,723.52,468s4.75-11.42,0-10-10,20.94-10.47,26.17,8.09,11.42,8.09,11.42c-19-4.28-26.64,6.18-26.64,6.18s6.18.48,10,.48,17.12,9,24.74,10.94,28.54-1.43,28.54-1.43S783,520.37,781.08,517Zm-48.76-35.45a7,7,0,0,1,6.76,8.85,3.55,3.55,0,0,1-1,1.78,3.85,3.85,0,0,1-2,.87,4,4,0,0,1-3.74-1,2.67,2.67,0,0,1-.48-2.6,2.08,2.08,0,0,1,1.6-1.41l.3,1.79c-.1,0-.16.14-.18.22a.83.83,0,0,0,.11.79,2.51,2.51,0,0,0,2.11.44,2,2,0,0,0,1.07-.4,2,2,0,0,0,.46-.91,5.24,5.24,0,0,0-5-6.57,3.2,3.2,0,0,0-1.46.28,5.4,5.4,0,0,0-1.69,1.71c-.89,1.25-1.77,2.58-1.73,4a7.19,7.19,0,0,0,1,2.94,7.23,7.23,0,0,0,4.9,4.49,64.78,64.78,0,0,0,8.18,3l-.46,1.76a66,66,0,0,1-8.41-3,11.59,11.59,0,0,1-3.56-2,11.45,11.45,0,0,1-2.26-3.32,8.67,8.67,0,0,1-1.23-3.72c-.05-1.94,1-3.63,2.08-5.06a6.86,6.86,0,0,1,2.34-2.27A4.51,4.51,0,0,1,732.32,481.59Zm-10.23-.33a1.92,1.92,0,0,0-.45,1.25l-.91.1a2.72,2.72,0,0,1,.62-1.87,8.53,8.53,0,0,1,4.4-3A18.42,18.42,0,0,1,731,477l0,.91a17.87,17.87,0,0,0-5,.67A7.68,7.68,0,0,0,722.09,481.26Zm20.1,25.3A47.43,47.43,0,0,1,725,502.7l.37-.83a46.65,46.65,0,0,0,16.9,3.78Zm2.19-15.07-.89-.2A6.37,6.37,0,0,0,742,485.6l.66-.61A7.29,7.29,0,0,1,744.38,491.49Z"/><path class="cls-4" d="M897.25,671.41c-5.87-7.56-83.13-40.31-83.13-40.31,10.91-3.36,16.79-38.63,20.15-47s12.6-22.67,21-28.55,21.83-16.8,0-20.16-105,37.79-110.85,42,0,31.08,0,31.08c-31.08-21.84-48.71,4.19-48.71,4.19s12.41-6.9,20.15.84c10.08,10.08,36.95,33.59,54.59,42S850.23,658,850.23,658,903.13,679,897.25,671.41Zm-76-66.16-1.55-1A23.72,23.72,0,0,0,823,589c-.21-1.67-1-5.7-4-7l.72-1.67c3.72,1.61,4.78,6,5.08,8.45A25.43,25.43,0,0,1,821.21,605.25Zm13.69-53.82a10,10,0,0,1,2.4,2.52,5.21,5.21,0,0,1,1.35,4.07l-1.79-.37a3.75,3.75,0,0,0-1-2.63,8.82,8.82,0,0,0-2-2.09,2.77,2.77,0,0,0-2.26-.5l-.5-1.76A4.54,4.54,0,0,1,834.9,551.43Zm-31.23,10.86a21.87,21.87,0,0,1,4.58-5.1l1.18,1.39a20.42,20.42,0,0,0-4.21,4.67,11.2,11.2,0,0,0-1.81,5.75h-1.82A12.84,12.84,0,0,1,803.67,562.29ZM774.6,575.48l1.22,1.36a26.06,26.06,0,0,0-6.82,28l-1.71.65A28,28,0,0,1,774.6,575.48Zm-31,47.62a18.85,18.85,0,0,1-4.85-1.1,7.75,7.75,0,0,1-4.17-3,36.72,36.72,0,0,0,4.74.21c1.56,0,3.08.16,4.6.26a47,47,0,0,1,9.37,1.59A15.67,15.67,0,0,1,743.59,623.1Zm24,10a25.11,25.11,0,0,1-5.92,1.23,16.54,16.54,0,0,1-6.23-.68,9.87,9.87,0,0,1-5.16-3.54,34.9,34.9,0,0,0,11.12.58c3.66-.23,7.6-.81,11.7-.05A24.74,24.74,0,0,1,767.56,633.11Zm15.17,9.63a21.36,21.36,0,0,1-12.25-2.19c4.21-.77,8-1,11.89-1.45s7.65-.87,11.93-.94A21.19,21.19,0,0,1,782.73,642.74Zm-1.9-21.67,0,0-.07-.06c-1.34-.51-2.67-1-4-1.58a89,89,0,0,1-16.9-9.09,85.48,85.48,0,0,1,16.92,5.17,21.25,21.25,0,0,1-1.73-7.71,48.25,48.25,0,0,1,2.63-17.58c2.28-6,8.29-11.14,13.25-13.56a17.45,17.45,0,0,1,15.64,0,23.82,23.82,0,0,1,8-18.16,17.85,17.85,0,0,1,10.5-4.29h0a11.92,11.92,0,0,1,6,2.11,6.66,6.66,0,0,1,2.66,5.26,9.33,9.33,0,0,1-2.59,6.69,5.76,5.76,0,0,1-9.17-6.94l3,2.06a2.1,2.1,0,0,0,3.35,2.54,5.74,5.74,0,0,0,1.74-4.35,3,3,0,0,0-1.17-2.32,8.63,8.63,0,0,0-3.83-1.39h0a14.07,14.07,0,0,0-8.07,3.32,21,21,0,0,0-5.1,7,19.14,19.14,0,0,0-1.33,11.59A27.24,27.24,0,0,1,813,583c2.68,4,3.73,7.59,3.2,10.89a13,13,0,0,1-2.13,5.13,14,14,0,0,1-9.49,6.55c-4.49.62-9.05-2.17-10.13-6.17a7.36,7.36,0,0,1,1.85-6.83,6.29,6.29,0,0,1,5.81-2.08l-.69,3.59a2.74,2.74,0,0,0-2.44,1,3.83,3.83,0,0,0-1,3.39c.68,2.49,3.71,3.82,6.13,3.5s5.09-2.15,6.92-4.94a9.58,9.58,0,0,0,1.58-3.7c.37-2.35-.49-5.06-2.64-8.28a17.39,17.39,0,0,0-3.58-4.11c-3.63-2.87-9.2-3.26-13.86-1-5.09,2.49-9.8,7.25-11.43,11.57a44.32,44.32,0,0,0-2.4,16.21c.09,3.54,1.48,8.17,4.4,10.49l0,.06a78.25,78.25,0,0,1,12,6.83A78.64,78.64,0,0,1,780.83,621.07Zm23.77,5.6a7.9,7.9,0,0,1,4.2,3.45,8.11,8.11,0,0,1-9.64-3.47A7.73,7.73,0,0,1,804.6,626.67ZM798.79,614c-.32,0-.65,0-1,0a16.38,16.38,0,0,1-8.31-2.8l1-1.51a14.59,14.59,0,0,0,7.39,2.48,24.87,24.87,0,0,0,3.87-.14c1.89-.17,3.83-.44,5-1.67l1.34,1.25c-1.61,1.7-4,2-6.17,2.24C800.93,613.93,799.87,614,798.79,614ZM806,651.76a18.79,18.79,0,0,1-5,.07,7.76,7.76,0,0,1-4.77-1.91,37.15,37.15,0,0,0,4.65-.92c1.53-.36,3-.59,4.53-.85a47.18,47.18,0,0,1,9.49-.68A15.78,15.78,0,0,1,806,651.76Z"/><path class="cls-3" d="M949.3,489c-1.3-.22-2.55-.66-3.84-1-3.82-.9-7.8-.5-11.7-.09a19.38,19.38,0,0,1,10.85-3.43c2.6,0,5.2.48,7.77.17,5.39-.65,10.37-4.83,15.67-3.63-1.83-.41-5.42,5-7.46,6C957.36,488.54,952.83,489.59,949.3,489Z"/><path class="cls-2" d="M799.23,509.05c-1.3-.22-2.56-.66-3.84-1-3.82-.9-7.8-.49-11.7-.09a19.38,19.38,0,0,1,10.85-3.43c2.6,0,5.2.49,7.77.17,5.39-.65,10.37-4.83,15.67-3.63-1.83-.41-5.42,5-7.46,6C807.28,508.61,802.75,509.66,799.23,509.05Z"/><path class="cls-2" d="M772.12,491.87c-.77-.13-1.52-.4-2.28-.57a20.84,20.84,0,0,0-7-.05,11.59,11.59,0,0,1,6.46-2.05,41.8,41.8,0,0,0,4.61.11c3.21-.39,6.17-2.87,9.32-2.16-1.09-.25-3.22,3-4.44,3.55A12.3,12.3,0,0,1,772.12,491.87Z"/><path class="cls-4" d="M837.77,625.58c-.77-.14-1.52-.4-2.28-.58a21.11,21.11,0,0,0-7,0,11.63,11.63,0,0,1,6.46-2,39.46,39.46,0,0,0,4.61.1c3.21-.39,6.17-2.87,9.32-2.15-1.09-.25-3.22,3-4.44,3.54A12.22,12.22,0,0,1,837.77,625.58Z"/><path class="cls-2" d="M992.32,600.33c-1.3-.22-2.55-.67-3.84-1-3.81-.89-7.8-.49-11.7-.08a19.42,19.42,0,0,1,10.86-3.44c2.59,0,5.19.49,7.76.18,5.39-.66,10.38-4.83,15.67-3.63-1.83-.42-5.42,5-7.46,6C1000.38,599.89,995.85,600.93,992.32,600.33Z"/><path class="cls-4" d="M872.83,637.41c-2.27-.39-4.45-1.16-6.69-1.69-6.65-1.55-13.59-.85-20.38-.14a33.75,33.75,0,0,1,18.91-6c4.51,0,9,.84,13.53.3,9.38-1.14,18.06-8.41,27.28-6.32-3.18-.72-9.43,8.69-13,10.38C886.86,636.64,879,638.46,872.83,637.41Z"/></svg>