<svg id="Layer_1" data-name="Layer 1" xmlns="http://www.w3.org/2000/svg" xmlns:xlink="http://www.w3.org/1999/xlink" viewBox="0 0 925.32 805.12"><defs><style>.blc2-2-ani_1,.blc2-2-ani_14,.blc2-2-ani_15,.blc2-2-ani_16,.blc2-2-ani_8,.blc2-2-ani_9{fill:none;}.blc2-2-ani_2{fill:#367d75;}.blc2-2-ani_3{fill:url(#lgblcl2-2);}.blc2-2-ani_4{clip-path:url(#cblc2-2-ani);}.blc2-2-ani_5{fill:#e3ab35;}.blc2-2-ani_6{fill:#fff;}.blc2-2-ani_7{fill:#304a63;}.blc2-2-ani_8,.blc2-2-ani_9{stroke:#304a63;}.blc2-2-ani_14,.blc2-2-ani_15,.blc2-2-ani_16,.blc2-2-ani_8,.blc2-2-ani_9{stroke-miterlimit:10;}.blc2-2-ani_8{stroke-width:0.72px;}.blc2-2-ani_9{stroke-width:2.87px;}.blc2-2-ani_10{fill:url(#lgblc2-2_2);}.blc2-2-ani_11{fill:url(#lgblc2-2_3);}.blc2-2-ani_12{fill:#2f5f5b;}.blc2-2-ani_13{fill:#5ea4a0;}.blc2-2-ani_14{stroke:#5ea4a0;stroke-width:0.88px;}.blc2-2-ani_15,.blc2-2-ani_16{stroke:#fff;}.blc2-2-ani_15{stroke-width:1.01px;}.blc2-2-ani_16{stroke-width:0.58px;}.blc2-2-ani_17{fill:#9fa851;}.blc2-2-ani_18{fill:url(#lgblc2-2_4);}.blc2-2-ani_19{fill:url(#lgblc2-2_5);}</style><linearGradient id="lgblcl2-2" x1="758.24" y1="669.77" x2="759.45" y2="603.33" gradientUnits="userSpaceOnUse"><stop offset="0" stop-color="#3b6660" stop-opacity="0"/><stop offset="1" stop-color="#305051"/></linearGradient><clipPath id="cblc2-2-ani"><path class="blc2-2-ani_1" d="M359.94,227.62c49.41,0,130.32-153.71,179.74-153.71s30.17,170.58,30.17,170.58c30.16,0,52.55,13.51,52.55,43.66,0,61.48-11.56,59-11.56,120.46s2,64,2,125.44c0,11.54-10,21.85-21.58,21.85-50.82,0-50.82,4.71-101.65,4.71Z"/></clipPath><linearGradient id="lgblc2-2_2" x1="600.51" y1="690.84" x2="601.02" y2="760.2" xlink:href="#lgblcl2-2"/><linearGradient id="lgblc2-2_3" x1="387.41" y1="597.09" x2="387.73" y2="640.89" xlink:href="#lgblcl2-2"/><linearGradient id="lgblc2-2_4" x1="371.13" y1="743.86" x2="368.36" y2="642.26" xlink:href="#lgblcl2-2"/><linearGradient id="lgblc2-2_5" x1="122.45" y1="630.08" x2="123.11" y2="593.87" xlink:href="#lgblcl2-2"/></defs><title>24</title><rect class="blc2-2-ani_2" x="-1.01" width="926.33" height="805.12"/><path class="blc2-2-ani_3" d="M870,648.56c-7.42-6.18-19.46,3-28.08-1.35-8.93-4.52-8-20.33-17.58-23.22-6-1.8-13.2,2.68-18.64,1.29-.12-7.81-1.56-15-6.91-20.39-1.66-2.26-7.79-6.49-15.9-6.49-22.65,0-24.69,14.84-26.43,20.49-5.69.42-11.91-5.75-18.23-5.27-10,.75-12.48,16.39-22.18,18.87-9.36,2.39-19.13-9.18-27.71-4.74-5.78,3-6.32,11.11-10.65,16-3.6,4-9.35,5.28-14.74,5.74S652,649.81,647,652l-.14.07c-6,2.71-4.6,11.21,1.23,12.54h218a7.79,7.79,0,0,0,7.51-9.91A11.76,11.76,0,0,0,870,648.56Z"/><g class="blc2-2-ani_4"><path class="blc2-2-ani_5" d="M512.73,197.23c0,8.35-3.69,11-8.3,12s-13.72-.69-13.72-.69S512.73,196,512.73,197.23Z"/><path class="blc2-2-ani_6" d="M522.39,157c-7.8-3.74-8.32-16.82-16.36-13.84-11.29,4.17,5,16.74,14.26,17.91C528.63,162.13,522.39,157,522.39,157Z"/><path class="blc2-2-ani_5" d="M758.36,573.05c-.7-21.43,7.87-46.1,4.09-60.12-6.6-24.44-25.59-36.15-31.45-39.26l-.37-1.32s25.36,11.06,33.2,40.12c4.3,15.94-7.38,45.65-3.23,68.71Z"/><path class="blc2-2-ani_7" d="M763.91,632.3c-1.7-15.12,6.05-17,4.9-30s-.54-23.08-3-32.69-5.6-18-7-11.9-6.64,5.95-2.25,23.62S764.73,605,762,614.09,763.91,632.3,763.91,632.3Z"/><path class="blc2-2-ani_5" d="M681.43,577.54c-44.31-54.11-18.57-108.1,1-108.92s31,36.47,27.52,50.39c-7.05,27.94-6.64,51-5.67,68.47.49,8.92,4.9,17.22,5.07,19.17.49,5.75-3,13.57-3.14,21-.37,20.54,2,43.14-.91,96.54h-13.7c2-29,5.2-72.71,5.87-96.54.31-10.88-4.27-11.57-4.81-20.13C692.48,604.18,688.19,585.8,681.43,577.54Z"/><path class="blc2-2-ani_5" d="M574.52,584.84c-30.89-77.35-21.62-125.62-2-126.48s29.15,37.93,24.93,52.42c-8.49,29.06-9.27,53.06-9.2,71.22,0,9.28,4,17.91,4.09,19.94.2,6-3.71,14.11-4.22,21.79-1.42,21.36-.23,44.86-5.88,100.41h-13.7c3.47-30.16,9-75.63,10.84-100.41.87-11.32-3.67-12-3.77-20.94C575.59,599.37,578.57,595,574.52,584.84Z"/><path class="blc2-2-ani_5" d="M736.11,526.66c-18.73,22.58-54,42.22-102.94,42.22-32.28,0-78.22-30-81.16-38.73-7-20.66-.38-66.16,26-89.1,8.79-7.64,20.43,5.45,41.78-3.17,29.06-11.73,27.85,31.22,103.06,32.8C752.41,471.31,747.85,512.49,736.11,526.66Z"/><path class="blc2-2-ani_5" d="M555.7,475.7C564.75,508.82,609.77,534,664,534c31,0,59-8.25,79-21.51-1.62,5.68-4,10.73-6.9,14.18-18.73,22.58-55.24,45.14-104.17,45.14-32.28,0-77-32.95-79.93-41.65C547.78,517.61,548.56,495.93,555.7,475.7Z"/><path class="blc2-2-ani_5" d="M631.23,564.66c51.36,0,89.69-23.69,109.34-47.39.56-.68,1.1-1.43,1.63-2.22a37.5,37.5,0,0,1-6.09,11.61c-18.73,22.58-55.24,47.45-104.17,47.45-32.28,0-77-35.26-79.93-44a39.88,39.88,0,0,1-1.15-4.26C562.87,538.79,601.92,564.66,631.23,564.66Z"/><path class="blc2-2-ani_5" d="M700.19,552.66c-2.07-9.45-6-29.28.69-44l7.84,39Z"/><path class="blc2-2-ani_5" d="M723.21,577.54c-44.3-54.11-18.57-108.1,1-108.92s31,36.47,27.52,50.39c-7,27.94-6.63,51-5.67,68.47.5,8.92,4.91,17.22,5.08,19.17.49,5.75-3,13.57-3.15,21-.36,20.54,2,43.14-.91,96.54h-13.7c2-29,5.21-72.71,5.88-96.54.3-10.88-4.27-11.57-4.81-20.13C734.27,604.18,730,585.8,723.21,577.54Z"/><path class="blc2-2-ani_5" d="M722,579c-14.08-17.2-19.87-35.85-22.25-51.32.43,1.21.88,2.44,1.34,3.66,11.74,31.06,32,58,46.74,65.5,1.43,4.82,3.21,8.55,3.32,9.78.49,5.75-3,13.57-3.15,21-.36,20.54,2,43.14-.91,96.54h-13.7c2-29,5.21-72.71,5.88-96.54.3-10.88-4.27-11.57-4.81-20.13C734.27,604.18,728.78,587.28,722,579Z"/><path class="blc2-2-ani_5" d="M562,506.3c-38.82-52.16,11.84-273.69-38.68-316.71l13.92-23.66s34.35,54.75,36.87,149.57c2.11,79.41,11.65,123.19,40.6,125.64C631.09,442.53,562,506.3,562,506.3Z"/><path class="blc2-2-ani_5" d="M596.28,457.59c-29-2.92-32.59-60.1-30.75-151.87,1.36-67.41-20.27-108.92-30.89-135.12l2.62-4.67s34.35,54.75,36.87,149.57c2.11,79.41,15,122.42,44,124.87,6.89.59.92,16.6-16.63,26.31C606.77,458.65,600.85,458.05,596.28,457.59Z"/><path class="blc2-2-ani_5" d="M557.54,504.63c-.56-12.14,5.84-36,21.5-42.15l-11,42.84Z"/><path class="blc2-2-ani_5" d="M522.19,190.12l5.53-6.61c51.36,47.86,4,265.78,47,319.27a34.42,34.42,0,0,1-12.91,7.38C523,458,572.7,233.14,522.19,190.12Z"/><path class="blc2-2-ani_5" d="M528.35,162.88c6.28-7.89,30.25-9.69,23.42-18.07S527.1,152.35,524,160.57,528.35,162.88,528.35,162.88Z"/><path class="blc2-2-ani_6" d="M531.89,157.29c4.68-4.48,20.11-3.55,16.48-9.48s-16.37,2.66-19,7.63S531.89,157.29,531.89,157.29Z"/><path class="blc2-2-ani_5" d="M532.42,156.3c2.45-2.57,10.87-2.45,8.75-5.59s-8.85,1.86-10.19,4.64S532.42,156.3,532.42,156.3Z"/><path class="blc2-2-ani_5" d="M513.59,154.5c-2.92-2-4.16-10.34-6.92-7.74s3.26,8.44,6.22,9.31S513.59,154.5,513.59,154.5Z"/><path class="blc2-2-ani_5" d="M596.27,588.07c-38.09-75.54-32.16-126.25-12.6-127.1s31.53,40.61,28.65,54.76c-5.78,28.38-4.33,51.83-2.57,69.56.91,9.07,5.69,17.51,6,19.48.75,5.84-2.4,13.79-2.2,21.29.57,20.86,4,43.82,3.47,98.08h-13.7c.67-29.46,1.91-73.88,1.5-98.08-.19-11.06-4.79-11.76-5.72-20.45C598.69,602.26,601.26,598,596.27,588.07Z"/><path class="blc2-2-ani_5" d="M578.4,546.43c7.81,17,18.1,27.39,27.25,25.64a11.34,11.34,0,0,0,3-1c.29,5.1.71,9.86,1.14,14.26.91,9.07,5.69,17.51,6,19.48.75,5.84-2.4,13.79-2.2,21.29.57,20.86,4,43.82,3.47,98.08h-13.7c.67-29.46,1.91-73.88,1.5-98.08-.19-11.06-4.79-11.76-5.72-20.45-.36-3.35,2.21-7.63-2.78-17.54A343.36,343.36,0,0,1,578.4,546.43Z"/><path class="blc2-2-ani_5" d="M531.26,200.88s9.37-7.38,6.91-22.29l-14.45,13.07Z"/><path class="blc2-2-ani_5" d="M541.26,178.28s-3.4,16.54-27.44,18.83c0,0-22,14.78-25.54,12.79s-12.17-11.73-.32-20.32c8.14-5.9,10.47-13.62,9.48-16.37-1.39-3.84,4.75-13.42,7.53-16.29C514.52,147.08,542.52,142.91,541.26,178.28Z"/><path class="blc2-2-ani_5" d="M497.28,176.75c1.09-6.49-.92,11.37,6.31,13.68-16.1-5-22.44,17.22-21.83,9.37s4-10,8.3-12.14S497,178.59,497.28,176.75Z"/><path class="blc2-2-ani_5" d="M517.27,163.07c-7.25,0-14.08,3.82-20,9.49-.59-4.18,5-12.92,7.68-15.64,9.46-9.74,38.72-14.48,37.28,21.75C535.56,156.76,526.39,163.07,517.27,163.07Z"/><path class="blc2-2-ani_5" d="M508.12,199c3-4.36-1.73-9.68,2-6.46,4.54,4,13.34-18.7,18.33-24,2.69-2.84,10.53-7.26,12.92,8.53.39,13.34-12.73,20.52-26.52,21.83,0,0-18.56,12.19-25.25,12.07-3,0-3.65-2.75-4.87-4.31C487.6,207.72,500.44,210.18,508.12,199Z"/><path class="blc2-2-ani_7" d="M499.63,205.87c9.57-4,12.09-10.66,9.34-14.87-2-3-2.93-1-1.77,1C509.54,196,507,201.34,499.63,205.87Z"/><path class="blc2-2-ani_7" d="M486,200.76a1.37,1.37,0,0,1-1.05-.5,1.34,1.34,0,0,1-.28-1.12c.71-3.72,2-9,5.87-8.87,6.52.3-1.4,8.18-3.4,10.08a1.48,1.48,0,0,1-1,.41Z"/><path class="blc2-2-ani_5" d="M515.5,192.27c.41,1.15.15,4.08-1.69,4.39s-2.08-4.39-4.15-6.54S514,188.05,515.5,192.27Z"/><path class="blc2-2-ani_5" d="M500.4,173.14c.46-13.22,9.22-16.61,12.87-12.68,3.5,3.75,8.76,9.68,1.85,14.29S500.15,180.37,500.4,173.14Z"/><path class="blc2-2-ani_5" d="M610.42,617.77c4.17-1.31,6.55-10.31,5.28-13s-8.74-24-12.12-24-5.45,21.25-4.53,24.81S605.5,619.3,610.42,617.77Z"/><path class="blc2-2-ani_5" d="M745.77,621c4.17-1.3,6.43-12.84,5.15-15.52S743.23,579,739.85,579s-6.38,26.33-5.45,29.88S740.85,622.53,745.77,621Z"/><path class="blc2-2-ani_7" d="M615.59,724.14H597.82s5.06-17.37,9.22-17.22C613.5,707.15,615.59,724.14,615.59,724.14Z"/><path class="blc2-2-ani_7" d="M745.41,724.14H727.63s5.07-17.37,9.22-17.22C743.31,707.15,745.41,724.14,745.41,724.14Z"/><path class="blc2-2-ani_7" d="M703,724.14H685.2s5.07-17.37,9.23-17.22C700.88,707.15,703,724.14,703,724.14Z"/><path class="blc2-2-ani_7" d="M580.54,724.14H562.77s5.07-17.37,9.22-17.22C578.45,707.15,580.54,724.14,580.54,724.14Z"/><path class="blc2-2-ani_5" d="M619.76,437.88c29.06-11.73,27.85,31.22,103.06,32.8,19.12.4,24,17.75,21.85,33.79-16.25,7.27-35.9,11.53-57.08,11.53-45.73,0-97.46-21.83-110.34-74.27.25-.23.48-.46.73-.68C586.77,433.41,598.41,446.5,619.76,437.88Z"/><path class="blc2-2-ani_5" d="M724.24,468.62c19.6-.83,31,36.47,27.52,50.39A202.26,202.26,0,0,0,745.89,558a17,17,0,0,1-7.62,3.79c-14.91,3-33.6-16-40.15-43.89C691.73,490.61,712.19,469.12,724.24,468.62Z"/><path class="blc2-2-ani_5" d="M568.3,490.18c0-25.55,13.73-38.12,25.37-38.12s19.21,17.48,19.21,43-2.77,50.73-11.07,52.57C590.46,550.19,568.3,515.73,568.3,490.18Z"/><ellipse class="blc2-2-ani_5" cx="508.35" cy="167.6" rx="4.84" ry="5.69"/><path class="blc2-2-ani_5" d="M504.54,167c0-2.35,1.62-4.25,3.62-4.25s3.62,1.9,3.62,4.25-1.62,4.25-3.62,4.25S504.54,169.37,504.54,167Z"/><path class="blc2-2-ani_5" d="M506.36,166.83a.91.91,0,1,1,.88,1.14A1,1,0,0,1,506.36,166.83Z"/><path class="blc2-2-ani_5" d="M517,162c0,2.15-5.29,1.75-9.31,2.35-8.79,1.31-7.08,6.79-8.41,5.15S502.52,159,507,157.34,517,158.74,517,162Z"/><path class="blc2-2-ani_5" d="M501.7,166.64l-.47-1.66s5.36-5.48,16.16-.24C517.39,164.74,512.48,162.1,501.7,166.64Z"/><path class="blc2-2-ani_5" d="M598.19,429.68c4.59,5.28,9.88,8.67,16,10.05a42.64,42.64,0,0,0,5.61-1.85c5.14-2.07,9.34-2.43,13.18-1.61C622,444.27,610.12,449.85,598.19,429.68Z"/><path class="blc2-2-ani_5" d="M524,157.23c-3.9-20.55-4.46-42.59-6.92-42.58s.67,38.9-5.82,40.6S524,157.23,524,157.23Z"/><path class="blc2-2-ani_6" d="M516.1,124c1.77,3.45,7.26-8,6.53-10.67-1.11-4.09-8.58-4.15-8.36-.9S515.29,122.4,516.1,124Z"/><path class="blc2-2-ani_5" d="M529.72,158.15c-.84-20.74,3.79-43.93,1.34-44.2s-6.55,40.91-13.25,41.86S529.72,158.15,529.72,158.15Z"/><path class="blc2-2-ani_6" d="M527.61,124.9c1,3.74,8.76-6.3,8.61-9.07-.24-4.23-7.53-5.84-8-2.61S527.15,123.21,527.61,124.9Z"/><path class="blc2-2-ani_7" d="M748.56,679.74c0,5.15-.13,10.74-.3,16.85C745,690.74,743.25,685,748.56,679.74Z"/><path class="blc2-2-ani_7" d="M743.75,672c-1,2.79-4.2,5.18-7.29,7.7.51-7.67,1-15.3,1.42-22.56l.28.23C740.9,659.91,745.24,668.05,743.75,672Z"/><path class="blc2-2-ani_7" d="M743.71,581.18a12.48,12.48,0,0,1,2-3.11c.09,3.3.24,6.44.4,9.41a36.92,36.92,0,0,0,.91,6.14c1.83,5.49,3.36,10.68,3.92,11.85a2.75,2.75,0,0,1,.19.61C745,599.88,740.56,587.9,743.71,581.18Z"/><path class="blc2-2-ani_7" d="M756.78,496.18a19.34,19.34,0,0,1-.54,1.92c-.85-1.46-1.74-2.86-2.66-4.18l.9-1.19C755.27,493.83,756,495,756.78,496.18Z"/><path class="blc2-2-ani_7" d="M746.21,503.67c-6-2.59-9.42-10.38-14.72-14-2.45-1.68-5.88-2.3-7.79-4.6-3.41-4.09-4.07-10.57-2.5-15.86.36-.1.73-.24,1.08-.31l.27-.05a11.47,11.47,0,0,1,1.69-.21c6.93-.3,12.83,4.19,17.42,10.71a67,67,0,0,1,9.66,9.33c0,.7-.05,1.39-.09,2.07a66.65,66.65,0,0,0-7.3-7.84A65,65,0,0,1,750,497.54c-.19.63-.38,1.26-.61,1.86l.82-1.07c.53,1.94,1,3.87,1.3,5.74A6.91,6.91,0,0,1,746.21,503.67Z"/><path class="blc2-2-ani_7" d="M714.37,509.8c8.35,1.7,5.9,16.39,6.12,22.76.28,7.62-2.44,23.66-7.8,32.93l-.35-.64c.31-2.21-2.33-6.73-5.74-11.94l-.18-.42-.07,0c-4.08-7.48-6.47-23.87-6.39-28.69C700.09,515.76,705.87,508.07,714.37,509.8Z"/><path class="blc2-2-ani_7" d="M726.18,585.38A42,42,0,0,0,722,579a99.58,99.58,0,0,1-7.46-10.43C720.36,563.66,724.17,578.88,726.18,585.38Z"/><path class="blc2-2-ani_7" d="M667,559.78c.29-7.41,9-29.48,19.71-27.23,3,.64,10.93,18.13,11,22,0,5.3-28,14.44-30.25,15A49.31,49.31,0,0,1,667,559.78Z"/><path class="blc2-2-ani_7" d="M687.47,500.68l4.11,9.18c-2.31,5.35-11.27,16.57-17.17,18.35-8.43,2.53-17.56-8.33-14.14-16.38C663.42,504.43,680.07,497.72,687.47,500.68Z"/><path class="blc2-2-ani_7" d="M677.4,481.61c-6,1.17-14-1.73-17.36-6.74-4.44-6.72-5.81-15.94-1.19-22.12a97,97,0,0,0,36.39,15C689.63,473.27,683.55,480.42,677.4,481.61Z"/><path class="blc2-2-ani_7" d="M567.28,318.09a4.28,4.28,0,0,0-.66.82c0-.14-.07-.27-.1-.4Z"/><path class="blc2-2-ani_7" d="M566.62,318.91c2.62,11.22,9.44,23.95-6,28.62-2.56.78-2,2.8-5.77.77-2.76-1.5-3.24-3.74-3.22-6.68,0-6.15,6.73-9.9,10-14.3C563.19,325.21,565.27,320.86,566.62,318.91Z"/><path class="blc2-2-ani_7" d="M551.83,311.81c2.92,2.63,1.52,8,.09,11.71a4.65,4.65,0,0,0-4.81-3.08l-.35.05q0-4.69,0-9.31C548.75,310.59,550.52,310.63,551.83,311.81Z"/><path class="blc2-2-ani_7" d="M602.44,435.94c-4.11,15.86-19.66,11.61-24.12-.38-6-16.1,1.85-30.77,3.07-46.16,3.92,18.35,9.46,31.89,16.87,40.38a.61.61,0,0,0-.07-.1,36,36,0,0,0,4.4,4.27A6.42,6.42,0,0,1,602.44,435.94Z"/><path class="blc2-2-ani_7" d="M555.89,462c.06,6-3.11,7.69-7.22,7.33-.75-5.44-1.32-11.21-1.77-17.23a14.38,14.38,0,0,1,1.64-.49C554.32,450.32,555.86,458.59,555.89,462Z"/><path class="blc2-2-ani_7" d="M554.05,358.72c.06,6.41-3.52,7.9-8,7.25q.16-8.76.34-17.54l.33-.1C552.48,347,554,355.29,554.05,358.72Z"/><path class="blc2-2-ani_7" d="M607.73,688.88c-1.3-6.33,4.69-11.19,8.68-9.52.2,5.2.36,10.81.46,17l-.37-.11C612.66,695.1,609.07,695.34,607.73,688.88Z"/><path class="blc2-2-ani_7" d="M583.23,504.49c-2.74-1.45-6.14-25.19-5.1-28.89l22.48-13.51c2.74-3.68,6.83-1.61,9.22,1.44,4.25,5.43,1.81,14.46-.11,20.26C607.39,490.83,592.9,509.62,583.23,504.49Z"/><path class="blc2-2-ani_7" d="M602.86,531.73c-5.07,6.23-20.65,10.84-27,5.95l-3.67-12.74c3.7-4.51,15.42-12.8,21.58-12.87C602.62,512,608.38,524.94,602.86,531.73Z"/><path class="blc2-2-ani_7" d="M563.75,541.69c.06,2.25-.54-.82-1.78.32-.65-2.43-1.44-.09-2-2.43-4.41-4-7.3-7.44-8-9.43-.25-.73-.47-1.49-.68-2.27-.07-.25-.12-.5-.19-.75-.13-.56-.27-1.13-.39-1.71-.06-.3-.12-.59-.18-.9s-.11-.65-.17-1C556.07,525.31,563.63,536.88,563.75,541.69Z"/><path class="blc2-2-ani_7" d="M617.4,572.1l-1.42-.4.71-.25A3.91,3.91,0,0,1,617.4,572.1Z"/><path class="blc2-2-ani_7" d="M604,591.27c-2-5.5.77-11.88,3.54-16.53l1.26-.46c.18,2.63.38,5.2.6,7.64.11,1.14.21,2.27.32,3.37A49.42,49.42,0,0,0,613.09,598C609.46,598.38,605.55,595.39,604,591.27Z"/><path class="blc2-2-ani_7" d="M550.12,208.55v.26a2.42,2.42,0,0,0-.53-.33Z"/><path class="blc2-2-ani_7" d="M555.24,232.45c2.45.76,4.17,6.17,4.06,8.57-.24,5.88-4.6,4.73-8.44,2.51-4.35-2.5-5.87-4.59-6.32-9.48C548.09,233.83,552.6,231.62,555.24,232.45Z"/><path class="blc2-2-ani_7" d="M536.42,181.18c-.48-2.07-.78-7.44,3-8.06a7.3,7.3,0,0,1,2.81,0c0,.67.07,1.34.08,2,.92,1.85,1.94,4,3,6.33C541.67,184.61,537.67,186.44,536.42,181.18Z"/><path class="blc2-2-ani_6" d="M743.23,639.07a12.89,12.89,0,0,1,4.76-8.9c0,6.87.16,14.1.34,22.72a3.85,3.85,0,0,1-2-.36C742,650.46,742.72,642.86,743.23,639.07Z"/><path class="blc2-2-ani_6" d="M738.49,596.55c1.06,2.14-.19,4.59.39,6.77s2.79,3.82,3.13,6.14c.4,2.72-1.15,7.12-3.36,11.26-1-4.17-3-6.29-3.85-10.66-.17-.46-.31-.88-.4-1.23a12.33,12.33,0,0,1-.17-2.83,86.31,86.31,0,0,0-4.77-13.89C732.45,590.72,736.05,591.64,738.49,596.55Z"/><path class="blc2-2-ani_6" d="M735.22,546.83c-1.18-5.5-.3-6,3.7-10.52,2.08-2.38,7.53-11.88,12.64-16.44-.37,1.47-.72,2.94-1,4.39-.1.45-.18.89-.28,1.33-.28,1.28-.55,2.56-.8,3.82-.09.43-.16.86-.24,1.3-.24,1.25-.48,2.5-.69,3.74l-.18,1.11c-.21,1.29-.41,2.56-.6,3.82,0,.29-.07.57-.11.86-.19,1.33-.37,2.66-.53,4,0,.2,0,.39-.07.59-.16,1.39-.31,2.77-.44,4.13l0,.3c-.14,1.44-.26,2.87-.37,4.28v.09c-.11,1.48-.21,2.93-.28,4.36,0,.59,0,1.16-.08,1.74C740.69,559.52,736.08,550.89,735.22,546.83Z"/><path class="blc2-2-ani_6" d="M706.37,482.9c5.62,1.71,9,7.79,11,12.81l-2.9,9.26c-5.42,1.82-17.83-8.54-19.42-13.56C693,484.66,700.26,481,706.37,482.9Z"/><path class="blc2-2-ani_6" d="M641.08,530.85c-.53,10.16,7.28,17.87,5.8,28.94a84.24,84.24,0,0,0-.53,13.56,140.85,140.85,0,0,1-14.41.76c-1.22,0-2.46-.07-3.72-.16a90.75,90.75,0,0,1-7.94-9.86C610.82,550.32,624.78,530,641.08,530.85Z"/><path class="blc2-2-ani_6" d="M564.81,373.06c-1-3.56-.47-12.77,2.88-15.39,2-1.6,5.29-2.1,8.69-2.54q.82,8.72,1.93,16.57l-.06.06C573.37,377.41,567.33,381.78,564.81,373.06Z"/><path class="blc2-2-ani_6" d="M568.6,397.82,566,429.11c-3.23,7.47-12.94,9.71-14.8-.47-.43-2.35,1.45-4.36,1.5-6.61s-1.62-4.44-1.3-6.78C552.19,409.42,563.68,398.6,568.6,397.82Z"/><path class="blc2-2-ani_6" d="M569.31,263.49q1.34,8.24,2.36,17.12a24.21,24.21,0,0,1-7.33-2C561.64,273.06,562.59,266.12,569.31,263.49Z"/><path class="blc2-2-ani_6" d="M561.85,502.78c-2.37,7.73-3.84,19.91-11.53,15.9a6.19,6.19,0,0,1-.59-.41c-.15-1.72-.25-3.49-.29-5.33v-.6c0-.88,0-1.78,0-2.69,0-.21,0-.42,0-.63,0-1,.07-2,.12-3,0-.11,0-.22,0-.34a104.49,104.49,0,0,1,1.19-10.65l16.54-27.93C566.17,473.91,564.05,495.59,561.85,502.78Z"/><path class="blc2-2-ani_6" d="M614,619.48a39.48,39.48,0,0,0-.49,6.58c.16,5.82.54,11.82,1,18.6a32.2,32.2,0,0,1-9.7,4.34c.08-8.64.09-16.5,0-22.94a32.25,32.25,0,0,0-.29-3.85,12.45,12.45,0,0,1,2.93-2.18A9.47,9.47,0,0,1,614,619.48Z"/><path class="blc2-2-ani_6" d="M644.68,451.18c-5.08,6.24-22.93,8.06-29.23,3.16l-1.4-9.95a45.63,45.63,0,0,1,9.29-7.72l.17-.05c.54-.14,1.07-.26,1.6-.36l.22,0c.47-.08.93-.16,1.38-.21l.21,0a20.33,20.33,0,0,1,3-.1H630a16.93,16.93,0,0,1,2.88.38h0c4.79,1,9,3.88,13.86,7.54A10.44,10.44,0,0,1,644.68,451.18Z"/><path class="blc2-2-ani_6" d="M558.05,224.62c-10.15.95-7.87-8.39-7.93-15.81,1.12.85,3,3,4.31,3.86a21.65,21.65,0,0,0,3.37,1.72c1,3.22,2,6.58,3,10.1C559.68,225.32,559.42,224.48,558.05,224.62Z"/><path class="blc2-2-ani_6" d="M551.92,323.52a16.75,16.75,0,0,1,.91,8.29c-.7,5-3.16,6.6-6.29,6.46.1-6,.18-11.9.22-17.78l.35-.05A4.65,4.65,0,0,1,551.92,323.52Z"/><path class="blc2-2-ani_7" d="M548.73,279c5.6-.08,6.94,4.5,5.39,8.68-2.73,1.82-5.67,3.18-7.55,2.43q-.12-5.06-.31-10A3.33,3.33,0,0,1,548.73,279Z"/><path class="blc2-2-ani_7" d="M547.58,244.33l-.4.12c.33.1.62-.11.82.09a33.37,33.37,0,0,0-4.09,3.73c-.16-1.37-.33-2.73-.51-4.07A15.64,15.64,0,0,0,547.58,244.33Z"/><path class="blc2-2-ani_8" d="M735.46,556.52a3.46,3.46,0,0,1,2.54,1.4c3.58,5,3.7,11.92-3.33,15.8-5.19,2.87-9-4.66-9.94-7.94C722.26,557.52,728.58,556,735.46,556.52Z"/><path class="blc2-2-ani_8" d="M730.31,516c-2.45-9.52-3.37-9.52.62-9.52s7.38-1.22,10.46,4.62C745.89,519.64,733.79,529.57,730.31,516Z"/><path class="blc2-2-ani_8" d="M553.06,373.3c3.52,3.17.76,10.29-.78,13.79l0,.1c-1.51,3.37-6.6,2.15-6.55-1.54q.07-4.9.16-9.84a3.38,3.38,0,0,1,2.43-3.24C550.14,372.06,551.8,372.17,553.06,373.3Z"/><path class="blc2-2-ani_8" d="M562.91,304.31c.66-2.63,3.43-4.05,6.39-4.84a3.43,3.43,0,0,1,4.27,3.13c.13,2.09.23,4.2.33,6.34a3.46,3.46,0,0,1-5.24,3.1C565,309.82,562.17,307.27,562.91,304.31Z"/><path class="blc2-2-ani_8" d="M560,440.63c7.5,2.79,18.62,14,7.36,21-8.87,5.53-7-16.44-7.5-21l.13.22A1.28,1.28,0,0,1,560,440.63Z"/><path class="blc2-2-ani_8" d="M541.78,208.54c-6.51,2-8.13-3.45-6.39-9.25,1-3.39,5-7.82,8.45-9.76a9.19,9.19,0,0,1,1.1-.52,3.42,3.42,0,0,1,4.43,1.91c.83,2,1.68,4.19,2.55,6.46a3.48,3.48,0,0,1-.48,3.31C548.8,204.24,545.79,207.29,541.78,208.54Z"/><path class="blc2-2-ani_8" d="M556.15,262.64l-1,3.69a3.51,3.51,0,0,1-2.32,2.37,6.65,6.65,0,0,1-5.7-.55,3.43,3.43,0,0,1-1.59-2.69c-.12-1.75-.25-3.5-.39-5.22a3.43,3.43,0,0,1,4.42-3.56c1.59.51,3.23,1.25,4.68,1.86A3.45,3.45,0,0,1,556.15,262.64Z"/><path class="blc2-2-ani_8" d="M626.57,492.43,635.14,474a3.45,3.45,0,0,1,5.36-1.18c6,5.23,10.83,16.93,12.82,22.88,4.87,14.62-11,29.1-25.57,27.05a3.43,3.43,0,0,1-2.83-4C626.39,510.14,622.57,501.55,626.57,492.43Z"/><path class="blc2-2-ani_7" d="M524.48,168.8A16.31,16.31,0,0,0,522,168a15.58,15.58,0,0,0-5.13-.41,17,17,0,0,0-5,1.13l-1.16.5-.66.34c.31-.35.62-.69.95-1a15,15,0,0,1,3.65-2.6,13.47,13.47,0,0,1,4.23-1.38,13.78,13.78,0,0,1,2.22-.2c.74,0,1.49.08,2.24.11l.18-1.67c-.82,0-1.64-.1-2.46-.06a16.86,16.86,0,0,0-2.45.28,15.27,15.27,0,0,0-4.64,1.63,16.53,16.53,0,0,0-3.91,2.93,17.06,17.06,0,0,0-2.93,3.93l.88.43,1,1.2a14.16,14.16,0,0,1,1.81-1.07l1-.45,1-.38a14.26,14.26,0,0,1,4.21-.76,12.81,12.81,0,0,1,4.18.53,14.39,14.39,0,0,1,2,.73c.65.28,1.25.68,1.88,1l1.7-2.87C526,169.54,525.29,169.11,524.48,168.8Z"/><path class="blc2-2-ani_7" d="M560.62,538.91c2.58,2.3,5.39,4.47,8.21,6.56s5.74,4.08,8.69,6,5.94,3.77,9,5.54,6.13,3.48,9.23,5.14l-1.36,2.52c-3.11-1.75-6.19-3.54-9.22-5.42s-6-3.82-9-5.82-5.82-4.11-8.64-6.3-5.57-4.42-8.22-6.9Z"/><path class="blc2-2-ani_9" d="M679.38,565.39s23.58-10,32-16.61"/><ellipse class="blc2-2-ani_5" cx="598.09" cy="491.25" rx="5.64" ry="2.63" transform="translate(-142.48 716.16) rotate(-56.29)"/><ellipse class="blc2-2-ani_5" cx="606.09" cy="481.87" rx="2.55" ry="1.19" transform="translate(-131.12 718.64) rotate(-56.29)"/><ellipse class="blc2-2-ani_5" cx="600.75" cy="481.43" rx="1.72" ry="0.8" transform="translate(-133.14 714) rotate(-56.29)"/><ellipse class="blc2-2-ani_5" cx="627.2" cy="549.12" rx="5.64" ry="2.63" transform="translate(-177.67 766.13) rotate(-56.29)"/><ellipse class="blc2-2-ani_5" cx="635.2" cy="539.74" rx="2.55" ry="1.19" transform="translate(-166.31 768.61) rotate(-56.29)"/><ellipse class="blc2-2-ani_5" cx="629.86" cy="539.3" rx="1.72" ry="0.8" transform="translate(-168.32 763.97) rotate(-56.29)"/><ellipse class="blc2-2-ani_5" cx="711.74" cy="545.99" rx="2.63" ry="5.64" transform="translate(-47.67 68.53) rotate(-5.33)"/><ellipse class="blc2-2-ani_5" cx="712.04" cy="533.67" rx="1.19" ry="2.55" transform="translate(-46.53 68.5) rotate(-5.33)"/><ellipse class="blc2-2-ani_5" cx="707.62" cy="536.69" rx="0.8" ry="1.72" transform="translate(-46.83 68.1) rotate(-5.33)"/><ellipse class="blc2-2-ani_7" cx="731.03" cy="568.24" rx="1.57" ry="3.37" transform="matrix(1, -0.09, 0.09, 1, -49.66, 70.42)"/><ellipse class="blc2-2-ani_7" cx="731.21" cy="560.89" rx="0.71" ry="1.52" transform="translate(-48.97 70.4) rotate(-5.33)"/><ellipse class="blc2-2-ani_7" cx="728.57" cy="562.69" rx="0.48" ry="1.02" transform="translate(-49.15 70.16) rotate(-5.33)"/><ellipse class="blc2-2-ani_5" cx="624.6" cy="451.73" rx="5.64" ry="2.63" transform="translate(-60.03 97.52) rotate(-8.52)"/><ellipse class="blc2-2-ani_5" cx="636.92" cy="451.34" rx="2.55" ry="1.19" transform="translate(-59.84 99.34) rotate(-8.52)"/><ellipse class="blc2-2-ani_5" cx="633.66" cy="447.09" rx="1.72" ry="0.8" transform="translate(-59.25 98.81) rotate(-8.52)"/><ellipse class="blc2-2-ani_5" cx="672.51" cy="509.99" rx="5.64" ry="2.63" transform="translate(-68.14 105.26) rotate(-8.52)"/><ellipse class="blc2-2-ani_5" cx="684.83" cy="509.6" rx="2.55" ry="1.19" transform="translate(-67.94 107.09) rotate(-8.52)"/><ellipse class="blc2-2-ani_5" cx="681.56" cy="505.35" rx="1.72" ry="0.8" transform="translate(-67.35 106.55) rotate(-8.52)"/><ellipse class="blc2-2-ani_5" cx="582.22" cy="427.86" rx="2.63" ry="5.64" transform="translate(-124.41 277.12) rotate(-24.27)"/><ellipse class="blc2-2-ani_5" cx="585.9" cy="439.6" rx="1.19" ry="2.54" transform="translate(-128.91 279.67) rotate(-24.27)"/><ellipse class="blc2-2-ani_5" cx="589.13" cy="435.34" rx="0.8" ry="1.71" transform="translate(-126.87 280.62) rotate(-24.27)"/><ellipse class="blc2-2-ani_5" cx="564.2" cy="339.44" rx="3.42" ry="2.02" transform="translate(-93.97 358.25) rotate(-32.67)"/><ellipse class="blc2-2-ani_5" cx="557.58" cy="343.26" rx="1.55" ry="0.91" transform="translate(-97.08 355.27) rotate(-32.67)"/><ellipse class="blc2-2-ani_5" cx="561.58" cy="344.73" rx="1.04" ry="0.62" transform="translate(-97.24 357.67) rotate(-32.67)"/><ellipse class="blc2-2-ani_7" cx="550.96" cy="260.97" rx="1.35" ry="2.27" transform="translate(-50.28 160.08) rotate(-15.82)"/><ellipse class="blc2-2-ani_7" cx="552.38" cy="265.85" rx="0.61" ry="1.02" transform="translate(-51.55 160.65) rotate(-15.82)"/><ellipse class="blc2-2-ani_7" cx="553.9" cy="263.28" rx="0.41" ry="0.69" transform="translate(-50.79 160.96) rotate(-15.82)"/><ellipse class="blc2-2-ani_5" cx="553.47" cy="236.65" rx="1.35" ry="2.27" transform="translate(-47.93 262.01) rotate(-25.56)"/><ellipse class="blc2-2-ani_5" cx="555.7" cy="241.21" rx="0.61" ry="1.02" transform="translate(-49.69 263.41) rotate(-25.56)"/><ellipse class="blc2-2-ani_5" cx="556.76" cy="238.42" rx="0.41" ry="0.69" transform="translate(-48.38 263.6) rotate(-25.56)"/><ellipse class="blc2-2-ani_6" cx="541.56" cy="197.52" rx="2.27" ry="1.35" transform="translate(26.96 457.3) rotate(-46.82)"/><ellipse class="blc2-2-ani_6" cx="538.11" cy="201.26" rx="1.02" ry="0.61" transform="translate(23.15 455.97) rotate(-46.82)"/><ellipse class="blc2-2-ani_6" cx="541.09" cy="201.23" rx="0.69" ry="0.41" transform="translate(24.11 458.14) rotate(-46.82)"/></g><path class="blc2-2-ani_10" d="M698.64,723.16c2-.38,4.31-1.13,4.73-3.09.47-2.17-1.86-3.91-4-4.47s-4.6-.64-6.18-2.2l61.91-5.15c4.46-.37,9.58-1.12,11.95-4.92-7-4.41-15.53-5.42-23.75-6.33l-37-4.09a8.47,8.47,0,0,1,6.51-4.55c-5.37-6-14.38-6.66-22.43-6.87q-105-2.84-210.07-1c-12.82.22-25.79.51-38.12,4-3.9,1.09-8.5,3.64-8.09,7.67l31.27,7.16c2.8.64,6.36,2.46,5.59,5.22-.44,1.62-2.22,2.41-3.79,3l-11.65,4.34c-1.24.46-2.64,1.1-2.95,2.39-.45,1.89,1.75,3.26,3.6,3.88,14.65,4.94,30.42,5.1,45.88,5.29q44.22.52,88.43,1.77a9.23,9.23,0,0,1,4.91,1.07c1.41.94,2.17,3.08,1.09,4.39s-2.9,1.12-4.07,2.15c-1.56,1.38-.94,4.15.7,5.44s3.87,1.49,5.95,1.59c8.59.39,18.42.65,26.6-2.4,5.13-1.91,9.21-5.77,14.38-7.55,8.29-2.86,18.17-1.65,26.82-2.35A283.52,283.52,0,0,0,698.64,723.16Z"/><path class="blc2-2-ani_11" d="M449.38,617.51c1.24-.25,2.71-.72,3-2s-1.18-2.47-2.53-2.82-2.91-.41-3.9-1.39L485,608.09c2.82-.24,6.05-.71,7.55-3.11-4.42-2.78-9.81-3.42-15-4l-23.36-2.58a5.34,5.34,0,0,1,4.11-2.87c-3.39-3.79-9.08-4.21-14.16-4.34q-66.32-1.79-132.66-.65c-8.09.14-16.28.33-24.07,2.52-2.47.69-5.37,2.29-5.11,4.84l19.75,4.52c1.76.41,4,1.55,3.53,3.3-.28,1-1.4,1.52-2.4,1.89l-7.35,2.74c-.78.29-1.67.7-1.87,1.51-.28,1.2,1.11,2.06,2.28,2.45,9.25,3.12,19.21,3.23,29,3.34q27.93.33,55.84,1.12a5.75,5.75,0,0,1,3.1.68,2,2,0,0,1,.69,2.77c-.62.75-1.83.71-2.57,1.36-1,.87-.59,2.62.44,3.43a6.41,6.41,0,0,0,3.76,1c5.43.26,11.63.42,16.8-1.51,3.24-1.2,5.81-3.64,9.08-4.77,5.24-1.8,11.47-1,16.93-1.48A183.48,183.48,0,0,0,449.38,617.51Z"/><path class="blc2-2-ani_12" d="M475.16,657.7c-1.62-1.09-2.83-3.25-2.06-5a.69.69,0,0,1,.89-.33h0a.67.67,0,0,1,.37.87c-.4,1,.52,2.81,1.91,3.66a2.12,2.12,0,0,0,1.48.38,1.67,1.67,0,0,0,.6-.32l.1-.1.19-.26.65.1.22.62-.23.24a2.26,2.26,0,0,1-.57.46,2,2,0,0,1-.32.17,3,3,0,0,1-2.38-.05A4.28,4.28,0,0,1,475.16,657.7Zm-1.79-4.83Z"/><path class="blc2-2-ani_12" d="M478.88,655.81l.5-.44.29.1a1.63,1.63,0,0,0,2-1c.79-1.45.72-3.5-.15-4.2a.69.69,0,0,1,.84-1.1c1.54,1.12,1.54,3.63.66,5.41-.8,1.62-2.18,2.36-3.61,1.95l-.3,0Zm3.29-6.39h0Z"/><path class="blc2-2-ani_12" d="M480.11,667.59a4.8,4.8,0,0,0,4.63-.71,6.92,6.92,0,0,0,2.49-4.55,2.56,2.56,0,0,0-.13-1.51,2.11,2.11,0,0,0-2-1.13,4.44,4.44,0,0,0-1.92.58,16.19,16.19,0,0,0-3.47,2.38l.72.81a14.9,14.9,0,0,1,3.24-2.22,3.44,3.44,0,0,1,1.45-.47,1.05,1.05,0,0,1,1,.5,1.6,1.6,0,0,1,0,.9,6,6,0,0,1-2.07,3.85,3.65,3.65,0,0,1-4,.36l-.57.92A4.37,4.37,0,0,0,480.11,667.59Z"/><path class="blc2-2-ani_12" d="M479.82,666c.23,0,5.51-.81,7.29-4.75l-1-.44c-1.52,3.39-6.39,4.11-6.44,4.12Z"/><path class="blc2-2-ani_12" d="M477,677.72a4.25,4.25,0,0,0,2.6.19,5.85,5.85,0,0,0,3.5-2.67,2.32,2.32,0,0,0,.44-1.25,1.84,1.84,0,0,0-1.18-1.61,3.57,3.57,0,0,0-1.71-.22,13.85,13.85,0,0,0-3.5.64l.33,1a13.06,13.06,0,0,1,3.22-.59,3.07,3.07,0,0,1,1.23.13.82.82,0,0,1,.53.63,1.35,1.35,0,0,1-.27.65,4.85,4.85,0,0,1-2.84,2.21,3,3,0,0,1-3.08-1l-.9.6A3.58,3.58,0,0,0,477,677.72Z"/><path class="blc2-2-ani_12" d="M476.07,675.57c.18,0,4.54,1.28,7.28-1.17l-.72-.81c-2.29,2-6.22,1-6.26.94Z"/><path class="blc2-2-ani_12" d="M473.19,678.12a4.08,4.08,0,0,0,1.18.29l.08-1.08a3.62,3.62,0,0,1-3-2.65,5.81,5.81,0,0,1,.61-4.33,1.65,1.65,0,0,1,.56-.7,1,1,0,0,1,1.08.18,3.31,3.31,0,0,1,.89,1.23,15.14,15.14,0,0,1,1.3,3.71l1.06-.22a16.94,16.94,0,0,0-1.39-4,4.36,4.36,0,0,0-1.21-1.6,2.07,2.07,0,0,0-2.25-.27,2.62,2.62,0,0,0-1,1.15,6.91,6.91,0,0,0-.69,5.13A4.88,4.88,0,0,0,473.19,678.12Z"/><path class="blc2-2-ani_12" d="M474.91,677.2l.75-.78s-3.53-3.49-2.75-7.13l-1.06-.23C470.94,673.29,474.75,677,474.91,677.2Z"/><path class="blc2-2-ani_12" d="M477.15,668.14a3.41,3.41,0,0,0,2.39.11l-.35-1a2.61,2.61,0,0,1-2.73-.89,4.33,4.33,0,0,1-.86-3.08,1.17,1.17,0,0,1,.14-.59.7.7,0,0,1,.67-.16,2.55,2.55,0,0,1,.94.56,11,11,0,0,1,2,2.15l.88-.63a12.22,12.22,0,0,0-2.19-2.35,3.46,3.46,0,0,0-1.38-.78,1.72,1.72,0,0,0-1.77.55,2.15,2.15,0,0,0-.37,1.17,5.4,5.4,0,0,0,1.11,3.86A3.88,3.88,0,0,0,477.15,668.14Z"/><path class="blc2-2-ani_12" d="M479.35,667.2l.11,0,.38-1s-3.44-1.33-4-4l-1,.22C475.4,665.45,478.69,666.93,479.35,667.2Z"/><path class="blc2-2-ani_12" d="M479.41,655.5a6.56,6.56,0,0,0-.06-4,7.54,7.54,0,0,0-1.85-3.09c-.27-.27-.55-.52-.83-.76a7.45,7.45,0,0,1-1.24-1.28,3.87,3.87,0,0,1,0-4.29l-1-.49a4.93,4.93,0,0,0,.1,5.39,8,8,0,0,0,1.42,1.48c.26.23.52.46.76.7a6.39,6.39,0,0,1,1.6,2.64,5.31,5.31,0,0,1,.09,3.24Z"/><path class="blc2-2-ani_12" d="M476.14,655.61a8,8,0,0,1-3.45-3.6,22.55,22.55,0,0,1-2.32-6c-.16-.69-.28-1.37-.4-2.06l-.33-1.85a1,1,0,0,1,0-.51.94.94,0,0,1,.65-.55,5.37,5.37,0,0,1,3.55.2,3.25,3.25,0,0,1,.45.25l.17.1,0,0a4.75,4.75,0,0,1,1.23-1.49h0a7.69,7.69,0,0,1,1.62-.9,1.46,1.46,0,0,1,1.81.6,17.35,17.35,0,0,1,1,2.07,20.88,20.88,0,0,1,1.36,4.54,10.8,10.8,0,0,1-1,7.68,5.07,5.07,0,0,1-1.77,1.83,2.24,2.24,0,0,1-.86.15,4.32,4.32,0,0,1-1.64-.32Zm1.65-15.48a6.56,6.56,0,0,0-1.4.76,4.24,4.24,0,0,0-1,1.28,1,1,0,0,1-.64.49,1.31,1.31,0,0,1-1-.28,1.78,1.78,0,0,0-.3-.17,4.13,4.13,0,0,0-2.71-.19l.3,1.71c.12.67.24,1.34.39,2a21.53,21.53,0,0,0,2.21,5.74,7,7,0,0,0,3,3.15,3.17,3.17,0,0,0,1.35.29,1.09,1.09,0,0,0,.45-.07,4.42,4.42,0,0,0,1.22-1.33,9.66,9.66,0,0,0,.88-7,20.58,20.58,0,0,0-1.3-4.32,15.82,15.82,0,0,0-1-1.93.37.37,0,0,0-.17-.16A.36.36,0,0,0,477.79,640.13Z"/><path class="blc2-2-ani_12" d="M461.05,687c26-10.12,18.37-31.76,18.29-32l-1,.37c.32.85,7.35,20.88-17.66,30.6Z"/><path class="blc2-2-ani_12" d="M455,666.12c-1.14-.38-2.21-1.46-2-2.61a.42.42,0,0,1,.47-.34h0a.42.42,0,0,1,.37.45c-.07.68.77,1.58,1.73,1.86a1.38,1.38,0,0,0,.94,0,1,1,0,0,0,.3-.29l0-.08.08-.19.4,0,.23.33-.1.18a1.64,1.64,0,0,1-.26.37l-.16.15a1.84,1.84,0,0,1-1.42.36A3.3,3.3,0,0,1,455,666.12Zm-1.85-2.57Z"/><path class="blc2-2-ani_12" d="M456.93,664.38l.22-.34h.19c.63,0,.89-.48,1-.92a2.29,2.29,0,0,0-.78-2.46.42.42,0,0,1-.21-.54.41.41,0,0,1,.53-.25c1.1.41,1.51,1.9,1.28,3.09a1.88,1.88,0,0,1-1.81,1.75l-.19,0Zm.89-4.32Z"/><path class="blc2-2-ani_12" d="M459.59,671.16a3,3,0,0,0,2.63-1.19,4.22,4.22,0,0,0,.72-3.1,1.58,1.58,0,0,0-.32-.87,1.31,1.31,0,0,0-1.35-.35,2.74,2.74,0,0,0-1,.67,10.45,10.45,0,0,0-1.66,2l.56.36a9.46,9.46,0,0,1,1.55-1.85,2.39,2.39,0,0,1,.78-.51.65.65,0,0,1,.66.14,1,1,0,0,1,.17.52,3.64,3.64,0,0,1-.59,2.62,2.24,2.24,0,0,1-2.3.87l-.18.64A2.33,2.33,0,0,0,459.59,671.16Z"/><path class="blc2-2-ani_12" d="M459.16,670.27c.13-.06,3.13-1.38,3.53-4l-.65-.1c-.35,2.26-3.11,3.49-3.14,3.5Z"/><path class="blc2-2-ani_12" d="M459.41,677.67a2.65,2.65,0,0,0,1.57-.31,3.66,3.66,0,0,0,1.63-2.16,1.4,1.4,0,0,0,.06-.82,1.17,1.17,0,0,0-1-.76,2.28,2.28,0,0,0-1.05.16,8.45,8.45,0,0,0-2,1l.36.56a8,8,0,0,1,1.81-.88,1.89,1.89,0,0,1,.75-.13.53.53,0,0,1,.42.29.82.82,0,0,1,0,.43,3.05,3.05,0,0,1-1.32,1.78,1.84,1.84,0,0,1-2-.11l-.43.5A2.2,2.2,0,0,0,459.41,677.67Z"/><path class="blc2-2-ani_12" d="M458.51,676.55c.12,0,2.9,0,4.12-1.89l-.56-.36c-1,1.59-3.53,1.59-3.55,1.58Z"/><path class="blc2-2-ani_12" d="M457.23,678.53a2.29,2.29,0,0,0,.74,0l-.13-.65a2.24,2.24,0,0,1-2.2-1.08,3.61,3.61,0,0,1-.35-2.67,1,1,0,0,1,.22-.5.64.64,0,0,1,.67-.08,2.34,2.34,0,0,1,.73.58,9.39,9.39,0,0,1,1.37,2l.59-.31a10.3,10.3,0,0,0-1.47-2.12,2.6,2.6,0,0,0-1-.75,1.29,1.29,0,0,0-1.38.21,1.64,1.64,0,0,0-.4.84,4.3,4.3,0,0,0,.43,3.16A3,3,0,0,0,457.23,678.53Z"/><path class="blc2-2-ani_12" d="M458.09,677.7l.32-.58s-2.67-1.49-2.81-3.77l-.66,0C455.1,676,458,677.64,458.09,677.7Z"/><path class="blc2-2-ani_12" d="M457.93,672a2.08,2.08,0,0,0,1.43-.33l-.37-.54a1.61,1.61,0,0,1-1.76-.08,2.64,2.64,0,0,1-1-1.69.67.67,0,0,1,0-.37.42.42,0,0,1,.37-.2,1.53,1.53,0,0,1,.64.17,7.18,7.18,0,0,1,1.54,1l.42-.52a7.88,7.88,0,0,0-1.69-1,2,2,0,0,0-.94-.23,1,1,0,0,0-1,.61,1.32,1.32,0,0,0,0,.76,3.27,3.27,0,0,0,1.29,2.1A2.41,2.41,0,0,0,457.93,672Z"/><path class="blc2-2-ani_12" d="M459.08,671.05h.07l.06-.66s-2.26-.22-3-1.71l-.59.3C456.45,670.67,458.64,671,459.08,671.05Z"/><path class="blc2-2-ani_12" d="M457.19,664.11a4.06,4.06,0,0,0-.68-2.33,4.62,4.62,0,0,0-1.61-1.52c-.2-.12-.41-.22-.62-.32a4.3,4.3,0,0,1-.94-.55,2.37,2.37,0,0,1-.72-2.54l-.65-.13a3,3,0,0,0,.94,3.18,5,5,0,0,0,1.08.64,5.07,5.07,0,0,1,.57.29,3.85,3.85,0,0,1,1.38,1.3,3.28,3.28,0,0,1,.59,1.9Z"/><path class="blc2-2-ani_12" d="M455.27,664.71a4.8,4.8,0,0,1-2.63-1.56,13.71,13.71,0,0,1-2.37-3.19c-.21-.38-.39-.77-.58-1.15l-.5-1a.65.65,0,0,1-.06-.3.55.55,0,0,1,.29-.43,3.27,3.27,0,0,1,2.14-.46,1.63,1.63,0,0,1,.3.07l.12,0v0a3,3,0,0,1,.48-1.08h0a4.65,4.65,0,0,1,.81-.8.9.9,0,0,1,1.17,0,9.58,9.58,0,0,1,.95,1.06,12.61,12.61,0,0,1,1.56,2.46,6.67,6.67,0,0,1,.68,4.71,3.08,3.08,0,0,1-.75,1.38,1.43,1.43,0,0,1-.48.23,2.77,2.77,0,0,1-1,.08Zm-1.57-9.43a3.8,3.8,0,0,0-.7.68,2.43,2.43,0,0,0-.39.92.65.65,0,0,1-.29.4.81.81,0,0,1-.65,0l-.2,0a2.57,2.57,0,0,0-1.64.34l.46,1c.18.38.36.76.56,1.12a12.93,12.93,0,0,0,2.26,3,4.34,4.34,0,0,0,2.27,1.38,2,2,0,0,0,.85,0,.7.7,0,0,0,.26-.12,2.9,2.9,0,0,0,.5-1,6,6,0,0,0-.63-4.29,12,12,0,0,0-1.48-2.34,9.36,9.36,0,0,0-.89-1,.22.22,0,0,0-.13-.06A.2.2,0,0,0,453.7,655.28Z"/><path class="blc2-2-ani_12" d="M451.5,685.79c13.74-10.27,5.65-21.83,5.57-21.94l-.54.39c.32.45,7.78,11.15-5.43,21Z"/><path class="blc2-2-ani_12" d="M626.79,599.47c-1.62-1.09-2.83-3.25-2-5a.68.68,0,0,1,.88-.34h0a.67.67,0,0,1,.38.86c-.41,1,.52,2.82,1.91,3.67a2.14,2.14,0,0,0,1.47.38,1.63,1.63,0,0,0,.61-.32l.09-.1.2-.27.65.1.22.62-.23.25a3,3,0,0,1-.57.46,2,2,0,0,1-.32.17,3.06,3.06,0,0,1-2.39,0A5.66,5.66,0,0,1,626.79,599.47ZM625,594.64h0Z"/><path class="blc2-2-ani_12" d="M630.52,597.58l.49-.44.3.1a1.61,1.61,0,0,0,2-1c.8-1.45.73-3.49-.14-4.2a.69.69,0,0,1,.84-1.09c1.53,1.12,1.54,3.63.66,5.41-.81,1.61-2.19,2.36-3.61,1.95l-.3,0Zm3.28-6.39h0Z"/><path class="blc2-2-ani_12" d="M631.75,609.36a4.79,4.79,0,0,0,4.63-.72,6.89,6.89,0,0,0,2.48-4.54,2.67,2.67,0,0,0-.12-1.52,2.13,2.13,0,0,0-2-1.12,4.44,4.44,0,0,0-1.92.58,16.25,16.25,0,0,0-3.48,2.38l.72.81a15.37,15.37,0,0,1,3.25-2.23,3.57,3.57,0,0,1,1.44-.46,1,1,0,0,1,1,.5,1.79,1.79,0,0,1,0,.9,5.94,5.94,0,0,1-2.08,3.85,3.63,3.63,0,0,1-4,.36l-.57.92A3.81,3.81,0,0,0,631.75,609.36Z"/><path class="blc2-2-ani_12" d="M631.46,607.77c.23,0,5.51-.8,7.28-4.74l-1-.44c-1.53,3.39-6.4,4.11-6.45,4.12Z"/><path class="blc2-2-ani_12" d="M628.63,619.49a4.3,4.3,0,0,0,2.59.19,5.85,5.85,0,0,0,3.51-2.68,2.21,2.21,0,0,0,.43-1.25,1.85,1.85,0,0,0-1.18-1.61,3.66,3.66,0,0,0-1.71-.21,13.78,13.78,0,0,0-3.49.64l.33,1a13,13,0,0,1,3.22-.59,3.07,3.07,0,0,1,1.23.13.81.81,0,0,1,.52.63,1.24,1.24,0,0,1-.26.65,4.88,4.88,0,0,1-2.85,2.21,3,3,0,0,1-3.08-1l-.89.61A3.58,3.58,0,0,0,628.63,619.49Z"/><path class="blc2-2-ani_12" d="M627.71,617.34c.18,0,4.54,1.27,7.27-1.17l-.72-.81c-2.28,2-6.22.95-6.26.94Z"/><path class="blc2-2-ani_12" d="M624.83,619.89a4,4,0,0,0,1.17.29l.09-1.08a3.64,3.64,0,0,1-3-2.65,5.91,5.91,0,0,1,.61-4.33,1.74,1.74,0,0,1,.57-.7,1.07,1.07,0,0,1,1.08.17,3.69,3.69,0,0,1,.89,1.24,15.57,15.57,0,0,1,1.3,3.71l1.05-.23a16.58,16.58,0,0,0-1.39-4,4.45,4.45,0,0,0-1.2-1.61,2.1,2.1,0,0,0-2.26-.26,2.66,2.66,0,0,0-1,1.15,6.91,6.91,0,0,0-.69,5.13A4.86,4.86,0,0,0,624.83,619.89Z"/><path class="blc2-2-ani_12" d="M626.55,619l.75-.78s-3.54-3.5-2.76-7.13l-1-.23C622.58,615.06,626.38,618.81,626.55,619Z"/><path class="blc2-2-ani_12" d="M628.79,609.91a3.4,3.4,0,0,0,2.39.11l-.36-1a2.59,2.59,0,0,1-2.72-.89,4.34,4.34,0,0,1-.87-3.09,1.24,1.24,0,0,1,.15-.58.68.68,0,0,1,.67-.16,2.52,2.52,0,0,1,.94.55,12,12,0,0,1,2,2.15l.88-.63a12.89,12.89,0,0,0-2.2-2.35,3.4,3.4,0,0,0-1.37-.77,1.72,1.72,0,0,0-1.78.55,2.13,2.13,0,0,0-.36,1.17,5.35,5.35,0,0,0,1.11,3.86A4,4,0,0,0,628.79,609.91Z"/><path class="blc2-2-ani_12" d="M631,609l.11,0,.37-1s-3.44-1.32-4-4l-1.06.22C627,607.22,630.33,608.7,631,609Z"/><path class="blc2-2-ani_12" d="M631.05,597.27a6.56,6.56,0,0,0-.06-3.95,7.39,7.39,0,0,0-1.86-3.09c-.26-.27-.54-.52-.83-.77a7.41,7.41,0,0,1-1.24-1.27,3.88,3.88,0,0,1,0-4.29l-1-.49a5,5,0,0,0,.1,5.39,8.32,8.32,0,0,0,1.42,1.48,10.33,10.33,0,0,1,.77.7,6.35,6.35,0,0,1,1.59,2.64,5.29,5.29,0,0,1,.1,3.23Z"/><path class="blc2-2-ani_12" d="M627.78,597.38a8,8,0,0,1-3.45-3.6,22.51,22.51,0,0,1-2.33-6c-.15-.68-.27-1.37-.39-2l-.33-1.86a.87.87,0,0,1,0-.5.94.94,0,0,1,.65-.55,5.37,5.37,0,0,1,3.55.2,3.25,3.25,0,0,1,.45.25l.17.1,0-.05a4.84,4.84,0,0,1,1.23-1.48h0a7.45,7.45,0,0,1,1.62-.9,1.44,1.44,0,0,1,1.8.6,16,16,0,0,1,1,2.07,22.12,22.12,0,0,1,1.36,4.54,10.77,10.77,0,0,1-1,7.67,5,5,0,0,1-1.78,1.84,2.35,2.35,0,0,1-.85.15,4.32,4.32,0,0,1-1.64-.32Zm1.64-15.49a6.69,6.69,0,0,0-1.39.77,4.34,4.34,0,0,0-1,1.27,1,1,0,0,1-.63.5,1.35,1.35,0,0,1-1-.28,2.28,2.28,0,0,0-.3-.17,4.09,4.09,0,0,0-2.72-.19l.31,1.71c.12.67.24,1.34.39,2a21.14,21.14,0,0,0,2.21,5.75,7.07,7.07,0,0,0,3,3.15,3.4,3.4,0,0,0,1.35.29,1.35,1.35,0,0,0,.46-.07,4.68,4.68,0,0,0,1.22-1.33,9.77,9.77,0,0,0,.88-7,20.58,20.58,0,0,0-1.3-4.32,15.13,15.13,0,0,0-1-1.93.33.33,0,0,0-.17-.16A.45.45,0,0,0,629.42,581.89Z"/><path class="blc2-2-ani_12" d="M612.69,628.77c26-10.11,18.36-31.75,18.28-32l-1,.37c.31.85,7.35,20.88-17.67,30.6Z"/><path class="blc2-2-ani_12" d="M606.67,607.88c-1.14-.38-2.21-1.46-2-2.6a.42.42,0,0,1,.46-.35h0a.42.42,0,0,1,.37.45c-.07.67.77,1.58,1.73,1.86a1.3,1.3,0,0,0,.93,0,.85.85,0,0,0,.31-.29.43.43,0,0,0,0-.07l.07-.19.41,0,.22.34-.09.18a1.64,1.64,0,0,1-.26.37l-.16.15a1.89,1.89,0,0,1-1.42.36A2.65,2.65,0,0,1,606.67,607.88Zm-1.86-2.56h0Z"/><path class="blc2-2-ani_12" d="M608.57,606.15l.22-.34H609c.63,0,.88-.48,1-.92a2.33,2.33,0,0,0-.78-2.47.4.4,0,0,1-.21-.54.41.41,0,0,1,.53-.24c1.09.41,1.51,1.9,1.28,3.09a1.89,1.89,0,0,1-1.82,1.75l-.19,0Zm.89-4.32h0Z"/><path class="blc2-2-ani_12" d="M611.23,612.93a3,3,0,0,0,2.62-1.19,4.24,4.24,0,0,0,.73-3.1,1.69,1.69,0,0,0-.32-.88,1.34,1.34,0,0,0-1.36-.34,2.89,2.89,0,0,0-1,.66,10.09,10.09,0,0,0-1.66,2l.55.36a9.51,9.51,0,0,1,1.56-1.85,2.15,2.15,0,0,1,.78-.51.64.64,0,0,1,.66.13,1,1,0,0,1,.17.53,3.66,3.66,0,0,1-.59,2.62,2.25,2.25,0,0,1-2.3.87l-.19.64A2.7,2.7,0,0,0,611.23,612.93Z"/><path class="blc2-2-ani_12" d="M610.8,612c.13,0,3.13-1.38,3.53-4l-.65-.1c-.35,2.26-3.12,3.48-3.14,3.5Z"/><path class="blc2-2-ani_12" d="M611.05,619.44a2.61,2.61,0,0,0,1.56-.31,3.62,3.62,0,0,0,1.64-2.17,1.37,1.37,0,0,0,0-.81,1.12,1.12,0,0,0-1-.76,2.26,2.26,0,0,0-1.05.16,8.45,8.45,0,0,0-2,1l.36.56a8,8,0,0,1,1.81-.89,2,2,0,0,1,.75-.12.51.51,0,0,1,.42.29.94.94,0,0,1,0,.43,3,3,0,0,1-1.33,1.78,1.83,1.83,0,0,1-2-.11l-.43.5A2.2,2.2,0,0,0,611.05,619.44Z"/><path class="blc2-2-ani_12" d="M610.15,618.32c.11,0,2.9,0,4.11-1.89l-.55-.36c-1,1.59-3.53,1.58-3.56,1.58Z"/><path class="blc2-2-ani_12" d="M608.86,620.3a2.69,2.69,0,0,0,.75,0l-.13-.66a2.23,2.23,0,0,1-2.21-1.07,3.66,3.66,0,0,1-.35-2.67,1.07,1.07,0,0,1,.22-.51.67.67,0,0,1,.67-.07,2.13,2.13,0,0,1,.73.58,9.43,9.43,0,0,1,1.38,2l.59-.31a10.08,10.08,0,0,0-1.48-2.12,2.69,2.69,0,0,0-1-.76,1.28,1.28,0,0,0-1.38.22,1.56,1.56,0,0,0-.4.84,4.26,4.26,0,0,0,.43,3.16A3,3,0,0,0,608.86,620.3Z"/><path class="blc2-2-ani_12" d="M609.73,619.47l.32-.58s-2.67-1.49-2.81-3.77l-.66,0C606.74,617.81,609.61,619.4,609.73,619.47Z"/><path class="blc2-2-ani_12" d="M609.57,613.74a2.08,2.08,0,0,0,1.43-.33l-.38-.55a1.59,1.59,0,0,1-1.76-.07,2.68,2.68,0,0,1-1-1.69.78.78,0,0,1,0-.37.41.41,0,0,1,.37-.2,1.57,1.57,0,0,1,.65.17,7.56,7.56,0,0,1,1.54.94l.42-.51a7.72,7.72,0,0,0-1.69-1,2.08,2.08,0,0,0-.94-.24,1.05,1.05,0,0,0-1,.62,1.29,1.29,0,0,0,0,.75,3.35,3.35,0,0,0,1.3,2.11A2.41,2.41,0,0,0,609.57,613.74Z"/><path class="blc2-2-ani_12" d="M610.71,612.82h.08l.05-.66s-2.25-.22-3-1.72l-.59.31C608.09,612.43,610.28,612.77,610.71,612.82Z"/><path class="blc2-2-ani_12" d="M608.83,605.88a4.05,4.05,0,0,0-.69-2.33,4.5,4.5,0,0,0-1.6-1.52c-.2-.12-.41-.22-.62-.32a4.83,4.83,0,0,1-.95-.55,2.41,2.41,0,0,1-.72-2.54l-.65-.13a3,3,0,0,0,.95,3.17,4.63,4.63,0,0,0,1.08.65,6.1,6.1,0,0,1,.57.29,3.85,3.85,0,0,1,1.38,1.3,3.28,3.28,0,0,1,.59,1.9Z"/><path class="blc2-2-ani_12" d="M606.91,606.48a4.92,4.92,0,0,1-2.64-1.56,13.88,13.88,0,0,1-2.36-3.19c-.21-.38-.39-.77-.58-1.16l-.5-1a.55.55,0,0,1-.07-.3.6.6,0,0,1,.29-.43,3.3,3.3,0,0,1,2.14-.47l.31.08.11,0,0,0a2.92,2.92,0,0,1,.48-1.09h0a4.94,4.94,0,0,1,.81-.79.88.88,0,0,1,1.17.05,10.7,10.7,0,0,1,.95,1.06,13.12,13.12,0,0,1,1.56,2.46,6.66,6.66,0,0,1,.68,4.71,3.24,3.24,0,0,1-.75,1.38,1.4,1.4,0,0,1-.49.23,2.7,2.7,0,0,1-1,.08ZM605.34,597a3.81,3.81,0,0,0-.7.69,2.43,2.43,0,0,0-.39.92.64.64,0,0,1-.3.39.75.75,0,0,1-.64,0l-.2,0a2.49,2.49,0,0,0-1.64.34l.46,1c.18.38.36.75.56,1.12a13.17,13.17,0,0,0,2.25,3,4.37,4.37,0,0,0,2.28,1.38,2,2,0,0,0,.84-.05.79.79,0,0,0,.26-.12,2.7,2.7,0,0,0,.51-1,6,6,0,0,0-.63-4.28,13.13,13.13,0,0,0-1.48-2.35,11.91,11.91,0,0,0-.89-1,.18.18,0,0,0-.13-.06A.22.22,0,0,0,605.34,597Z"/><path class="blc2-2-ani_12" d="M603.13,627.56c13.75-10.27,5.66-21.83,5.58-21.94l-.54.38c.32.45,7.78,11.16-5.43,21Z"/><path class="blc2-2-ani_12" d="M295.69,644.11c-1.62-1.09-2.83-3.25-2.05-5a.68.68,0,0,1,.88-.34h0a.68.68,0,0,1,.37.86c-.4,1,.52,2.82,1.91,3.67a2.1,2.1,0,0,0,1.48.37,1.41,1.41,0,0,0,.6-.32l.1-.09.19-.27.65.1.22.62-.23.25a3,3,0,0,1-.57.46l-.32.17a3.06,3.06,0,0,1-2.39-.06A4.82,4.82,0,0,1,295.69,644.11Zm-1.79-4.83h0Z"/><path class="blc2-2-ani_12" d="M299.42,642.22l.49-.44.3.1a1.62,1.62,0,0,0,2-1c.8-1.45.73-3.49-.14-4.2a.69.69,0,0,1,.84-1.09c1.53,1.12,1.54,3.63.66,5.4s-2.19,2.37-3.61,2l-.3-.06Zm3.28-6.39h0Z"/><path class="blc2-2-ani_12" d="M300.65,654a4.79,4.79,0,0,0,4.63-.72,6.94,6.94,0,0,0,2.49-4.54,2.77,2.77,0,0,0-.13-1.52,2.13,2.13,0,0,0-2-1.12,4.31,4.31,0,0,0-1.92.58,16.19,16.19,0,0,0-3.47,2.38l.71.8a15.7,15.7,0,0,1,3.25-2.22,3.29,3.29,0,0,1,1.44-.46,1,1,0,0,1,1,.5,1.69,1.69,0,0,1,0,.9,5.93,5.93,0,0,1-2.07,3.84,3.63,3.63,0,0,1-4,.37l-.57.92A3.81,3.81,0,0,0,300.65,654Z"/><path class="blc2-2-ani_12" d="M300.36,652.41c.23,0,5.51-.8,7.28-4.74l-1-.44c-1.53,3.39-6.4,4.11-6.45,4.11Z"/><path class="blc2-2-ani_12" d="M297.53,664.13a4.3,4.3,0,0,0,2.59.19,5.9,5.9,0,0,0,3.51-2.68,2.21,2.21,0,0,0,.43-1.25,1.85,1.85,0,0,0-1.18-1.61,3.53,3.53,0,0,0-1.71-.21,13.78,13.78,0,0,0-3.49.64l.33,1a12.55,12.55,0,0,1,3.22-.6,3.48,3.48,0,0,1,1.23.13.82.82,0,0,1,.52.64,1.24,1.24,0,0,1-.26.65,4.88,4.88,0,0,1-2.85,2.21,2.94,2.94,0,0,1-3.07-1l-.9.61A3.58,3.58,0,0,0,297.53,664.13Z"/><path class="blc2-2-ani_12" d="M296.61,662c.18,0,4.54,1.27,7.27-1.18l-.72-.8c-2.28,2-6.22,1-6.25.94Z"/><path class="blc2-2-ani_12" d="M293.73,664.53a4,4,0,0,0,1.18.28l.08-1.07a3.64,3.64,0,0,1-3-2.65,5.86,5.86,0,0,1,.62-4.33,1.59,1.59,0,0,1,.56-.7,1.07,1.07,0,0,1,1.08.17,3.39,3.39,0,0,1,.89,1.23,15.44,15.44,0,0,1,1.3,3.71l1.05-.22a16,16,0,0,0-1.39-4,4.45,4.45,0,0,0-1.2-1.61,2.09,2.09,0,0,0-2.25-.26,2.65,2.65,0,0,0-1,1.14,6.94,6.94,0,0,0-.69,5.14A4.88,4.88,0,0,0,293.73,664.53Z"/><path class="blc2-2-ani_12" d="M295.45,663.6l.75-.77s-3.54-3.5-2.76-7.13l-1.05-.23C291.48,659.69,295.28,663.45,295.45,663.6Z"/><path class="blc2-2-ani_12" d="M297.69,654.55a3.41,3.41,0,0,0,2.39.11l-.35-1a2.63,2.63,0,0,1-2.73-.89,4.39,4.39,0,0,1-.87-3.09,1.24,1.24,0,0,1,.15-.58.68.68,0,0,1,.67-.16,2.52,2.52,0,0,1,.94.55,11.66,11.66,0,0,1,2,2.15l.88-.63a13.19,13.19,0,0,0-2.19-2.35,3.51,3.51,0,0,0-1.38-.77,1.7,1.7,0,0,0-1.77.55,2,2,0,0,0-.37,1.17,5.34,5.34,0,0,0,1.11,3.85A3.91,3.91,0,0,0,297.69,654.55Z"/><path class="blc2-2-ani_12" d="M299.89,653.61l.11,0,.38-1s-3.45-1.32-4-4l-1.05.22C295.94,651.86,299.23,653.34,299.89,653.61Z"/><path class="blc2-2-ani_12" d="M300,641.91a6.56,6.56,0,0,0-.06-3.95,7.39,7.39,0,0,0-1.86-3.09c-.26-.27-.54-.52-.82-.77a7.13,7.13,0,0,1-1.25-1.27,3.88,3.88,0,0,1,0-4.29l-1-.49a5,5,0,0,0,.1,5.38,7.73,7.73,0,0,0,1.43,1.48c.26.23.52.46.76.71a6.38,6.38,0,0,1,1.59,2.63,5.32,5.32,0,0,1,.1,3.24Z"/><path class="blc2-2-ani_12" d="M296.68,642a8,8,0,0,1-3.45-3.59,22.16,22.16,0,0,1-2.32-6c-.16-.68-.28-1.37-.4-2.06l-.33-1.85a1,1,0,0,1,0-.5.94.94,0,0,1,.65-.55,5.31,5.31,0,0,1,3.55.2,3.25,3.25,0,0,1,.45.25l.17.1,0-.05a4.84,4.84,0,0,1,1.23-1.48h0a7.45,7.45,0,0,1,1.62-.9,1.43,1.43,0,0,1,1.8.6,16,16,0,0,1,1,2.07,21.28,21.28,0,0,1,1.36,4.54,10.77,10.77,0,0,1-1,7.67,5,5,0,0,1-1.77,1.84,2.25,2.25,0,0,1-.86.14,4.31,4.31,0,0,1-1.64-.31Zm1.64-15.48a6.69,6.69,0,0,0-1.39.77,4,4,0,0,0-1,1.27,1.06,1.06,0,0,1-.64.5,1.32,1.32,0,0,1-1-.29l-.3-.17a4.13,4.13,0,0,0-2.71-.18l.3,1.71c.12.67.24,1.34.39,2a21.14,21.14,0,0,0,2.21,5.75,7,7,0,0,0,3,3.14,3.24,3.24,0,0,0,1.35.29,1.38,1.38,0,0,0,.46-.06,4.68,4.68,0,0,0,1.22-1.33,9.72,9.72,0,0,0,.88-7,20.38,20.38,0,0,0-1.3-4.32,16,16,0,0,0-1-1.94.35.35,0,0,0-.17-.15A.39.39,0,0,0,298.32,626.53Z"/><path class="blc2-2-ani_12" d="M281.59,673.41c26-10.11,18.36-31.75,18.28-32l-1,.37c.31.85,7.35,20.88-17.66,30.6Z"/><path class="blc2-2-ani_12" d="M275.57,652.52c-1.14-.38-2.21-1.46-2-2.6a.42.42,0,0,1,.46-.35h0a.43.43,0,0,1,.37.45c-.07.68.77,1.59,1.73,1.86a1.27,1.27,0,0,0,.94,0,1,1,0,0,0,.3-.29l0-.07.07-.19.41,0,.23.33-.1.19a1.38,1.38,0,0,1-.26.36,1.21,1.21,0,0,1-.16.16,1.89,1.89,0,0,1-1.42.36A3.35,3.35,0,0,1,275.57,652.52ZM273.72,650h0Z"/><path class="blc2-2-ani_12" d="M277.47,650.79l.22-.34h.19c.63,0,.88-.48,1-.92a2.33,2.33,0,0,0-.78-2.47.4.4,0,0,1-.21-.54.41.41,0,0,1,.53-.24c1.09.41,1.51,1.89,1.28,3.09a1.89,1.89,0,0,1-1.82,1.75l-.18,0Zm.89-4.32h0Z"/><path class="blc2-2-ani_12" d="M280.13,657.56a3,3,0,0,0,2.63-1.18,4.28,4.28,0,0,0,.72-3.1,1.66,1.66,0,0,0-.32-.88,1.32,1.32,0,0,0-1.36-.34,2.76,2.76,0,0,0-1,.66,9.81,9.81,0,0,0-1.66,2l.56.36a9.46,9.46,0,0,1,1.55-1.85,2,2,0,0,1,.78-.51.64.64,0,0,1,.66.13,1,1,0,0,1,.17.53,3.66,3.66,0,0,1-.59,2.62,2.25,2.25,0,0,1-2.3.87l-.18.64A2.32,2.32,0,0,0,280.13,657.56Z"/><path class="blc2-2-ani_12" d="M279.7,656.67c.13,0,3.13-1.38,3.53-4l-.65-.1c-.35,2.26-3.12,3.48-3.14,3.49Z"/><path class="blc2-2-ani_12" d="M280,664.08a2.59,2.59,0,0,0,1.57-.32,3.6,3.6,0,0,0,1.63-2.16,1.3,1.3,0,0,0,.05-.81,1.11,1.11,0,0,0-1-.76,2.28,2.28,0,0,0-1.05.15,8.91,8.91,0,0,0-2,1l.36.55a8.42,8.42,0,0,1,1.81-.88,2,2,0,0,1,.75-.12.51.51,0,0,1,.42.29,1,1,0,0,1-.05.43,3,3,0,0,1-1.33,1.77,1.81,1.81,0,0,1-2-.1l-.43.5A2.28,2.28,0,0,0,280,664.08Z"/><path class="blc2-2-ani_12" d="M279.05,663c.12,0,2.9,0,4.11-1.9l-.55-.35c-1,1.58-3.53,1.58-3.56,1.58Z"/><path class="blc2-2-ani_12" d="M277.77,664.94a2.31,2.31,0,0,0,.74,0l-.13-.65a2.22,2.22,0,0,1-2.2-1.08,3.54,3.54,0,0,1-.35-2.66A1,1,0,0,1,276,660a.67.67,0,0,1,.67-.07,2,2,0,0,1,.73.58,9.08,9.08,0,0,1,1.38,2l.59-.31a10,10,0,0,0-1.47-2.12,2.73,2.73,0,0,0-1-.76,1.28,1.28,0,0,0-1.38.22,1.56,1.56,0,0,0-.4.84,4.23,4.23,0,0,0,.43,3.15A3,3,0,0,0,277.77,664.94Z"/><path class="blc2-2-ani_12" d="M278.63,664.11l.32-.58s-2.67-1.49-2.81-3.78l-.66,0C275.64,662.45,278.51,664,278.63,664.11Z"/><path class="blc2-2-ani_12" d="M278.47,658.38a2.08,2.08,0,0,0,1.43-.33l-.38-.55a1.61,1.61,0,0,1-1.76-.07,2.7,2.7,0,0,1-1-1.69.93.93,0,0,1,0-.37.42.42,0,0,1,.37-.2,1.43,1.43,0,0,1,.65.17,7.14,7.14,0,0,1,1.54.94l.42-.51a7.54,7.54,0,0,0-1.69-1,2.17,2.17,0,0,0-.94-.23,1.05,1.05,0,0,0-1,.62,1.29,1.29,0,0,0,0,.75,3.3,3.3,0,0,0,1.3,2.1A2.43,2.43,0,0,0,278.47,658.38Z"/><path class="blc2-2-ani_12" d="M279.62,657.46h.07l.06-.66s-2.26-.22-3-1.72l-.59.31C277,657.07,279.18,657.41,279.62,657.46Z"/><path class="blc2-2-ani_12" d="M277.73,650.52a4.05,4.05,0,0,0-.69-2.33,4.62,4.62,0,0,0-1.6-1.53l-.62-.31a4.47,4.47,0,0,1-.94-.55,2.4,2.4,0,0,1-.73-2.54l-.65-.13a3,3,0,0,0,.95,3.17,5,5,0,0,0,1.08.65,5.07,5.07,0,0,1,.57.29,3.85,3.85,0,0,1,1.38,1.3,3.28,3.28,0,0,1,.59,1.9Z"/><path class="blc2-2-ani_12" d="M275.81,651.12a5,5,0,0,1-2.64-1.56,13.88,13.88,0,0,1-2.36-3.19c-.21-.38-.39-.77-.58-1.16l-.5-1a.55.55,0,0,1-.07-.3.56.56,0,0,1,.3-.43,3.2,3.2,0,0,1,2.13-.47l.31.07.12,0v0A3,3,0,0,1,273,642h0a5,5,0,0,1,.81-.8.9.9,0,0,1,1.17.06,9.68,9.68,0,0,1,.95,1.06,13.12,13.12,0,0,1,1.56,2.46,6.66,6.66,0,0,1,.68,4.71,3.24,3.24,0,0,1-.75,1.38,1.39,1.39,0,0,1-.49.22,2.52,2.52,0,0,1-1,.09Zm-1.57-9.44a4.16,4.16,0,0,0-.7.69,2.37,2.37,0,0,0-.39.92.64.64,0,0,1-.3.39.79.79,0,0,1-.64,0l-.2,0a2.56,2.56,0,0,0-1.64.33l.46,1c.18.37.36.75.56,1.12a13.17,13.17,0,0,0,2.25,3,4.37,4.37,0,0,0,2.28,1.38,2.18,2.18,0,0,0,.84-.05.79.79,0,0,0,.26-.12,2.79,2.79,0,0,0,.51-1,6,6,0,0,0-.63-4.28,13.13,13.13,0,0,0-1.48-2.35,9.25,9.25,0,0,0-.89-1,.18.18,0,0,0-.13-.06A.18.18,0,0,0,274.24,641.68Z"/><path class="blc2-2-ani_12" d="M272,672.2c13.75-10.27,5.66-21.83,5.58-22l-.54.39c.32.45,7.78,11.16-5.43,21Z"/><path class="blc2-2-ani_7" d="M522,509.28c6.52,5.55,14.32,21,14.82,31.16,1.18,23.74-6.18,59.37-8.24,65.71-2.95,9.07-29.23,102.55-29.23,102.55H495s13.77-90.08,16.91-106.51-1.5-35.76-10.89-56.65c-8.67-19.26-14.16-45.91-7.49-53C504.94,480.46,504,494,522,509.28Z"/><path class="blc2-2-ani_7" d="M681.34,589.31c-5.56-11.82-60.24-48.61-61-104.52-.52-36,48.61-74,58.34-27.82s-13.22,93.24,17.28,119.38c5.68,4.87,10.23,11.58,5.68,21.88-5.14,11.61-25.66,73.2-43,110.47h-7C669.46,659.54,687.82,603.09,681.34,589.31Z"/><path class="blc2-2-ani_7" d="M544.27,522.87c101.45,23.61,110.6-64.42,174.57-50.09-.49,2.27-1.09,4.64-1.85,7.15,0,0-41.06,90.35-180.42,76.57,0,0-69.69-2.84-68.06-84.68C478.74,513.1,513,515.59,544.27,522.87Z"/><path class="blc2-2-ani_7" d="M531.82,551.05c81.14,8,132-16,162-40.41-23.55,25.74-72,56.72-155.89,48.42,0,0-49.49-4.57-64.8-52.26C491.52,548.11,531.82,551.05,531.82,551.05Z"/><path class="blc2-2-ani_7" d="M664.59,473.44s-13.77,27.69,0,59.69l14-8.43Z"/><path class="blc2-2-ani_7" d="M501.12,489.85s-6.88,34.64,10.73,60.57l16,6.28Z"/><path class="blc2-2-ani_7" d="M721.31,589.31c-5.56-11.82-60.23-48.61-61-104.52-.52-36,48.62-74,58.34-27.82S705.4,550.21,735.9,576.35c5.67,4.87,11.34,12.15,5.67,21.88s-27.82,72.65-42.94,110.47h-7C707.27,663.86,727.8,603.09,721.31,589.31Z"/><path class="blc2-2-ani_7" d="M660.27,484.79c0-.39,0-.78,0-1.17,2.15,2.35,4.36,4.66,6.73,6.93,17.06,16.39,36.13,27.1,52.54,30.88-1,21.94.41,41.28,16.33,54.92,5.67,4.87,11.34,12.15,5.67,21.88s-27.82,72.65-42.94,110.47h-7c15.67-44.84,36.2-105.61,29.71-119.39C715.75,577.49,661.08,540.7,660.27,484.79Z"/><path class="blc2-2-ani_7" d="M550.08,506.13c6.66,5.29,11.64,29.76,12.42,39.43,1.81,22.63-5.14,59.31-7,65.36C552.77,619.56,529,708.7,529,708.7h-6c14.62-80.17,12-80.13,15.67-101.56,2.7-15.67-5.71-30-15.12-50.24-7.57-16.2-23.24-41-23.24-64.29C500.37,476.6,531.71,491.54,550.08,506.13Z"/><path class="blc2-2-ani_7" d="M660.49,489.62c13.15,46.17,59.8,84.09,64.6,94.3,2.16,4.57,0,15.13-4.39,28.8,2.06-10.89,2.56-19.27.61-23.41C715.91,577.84,660.54,543.13,660.49,489.62Z"/><path class="blc2-2-ani_7" d="M558,549.21c-.58-7.21-2.22-28.15-5.77-40.56,5.54,8.16,10.89,27.79,11.58,36.38,3.29,41-13.9,85.53-24.94,126.67C553.24,603.24,560.27,577,558,549.21Z"/><path class="blc2-2-ani_6" d="M698.63,708.7H687.82s7-16.21,10.8-15.39S698.63,708.7,698.63,708.7Z"/><path class="blc2-2-ani_6" d="M657.84,708.7H647s7-16.21,10.8-15.39S657.84,708.7,657.84,708.7Z"/><path class="blc2-2-ani_6" d="M528.74,708.7H517.93s7-16.21,10.8-15.39S528.74,708.7,528.74,708.7Z"/><path class="blc2-2-ani_6" d="M498.49,708.7H487.68s7-16.21,10.81-15.39S498.49,708.7,498.49,708.7Z"/><path class="blc2-2-ani_7" d="M731.41,463.83c-6.89-9-16.06-16.85-27.17-17.21-9.49-.3-18.24,5-25.57,11.07s-14,13.1-22.44,17.43a41.7,41.7,0,0,1-24.2,4.2c-6-.77-11.76-2.85-17.77-3.36-5.78-.48-11.57.49-17.31,1.3a246.52,246.52,0,0,1-48.48,2.18c-8.72-.52-18.24-2-24.06-8.5-6.37-7.16-6.72-18.82-14.42-24.53-5.05-3.73-12.59-4.28-15.9-9.62-1.66-2.68-1.83-6-1.77-9.18.18-9.31,1.78-19.08-2-27.6-1.25-2.84-3.1-5.55-3.26-8.64a15,15,0,0,1,1.46-6.31c3.75-9.11,9.16-17.67,10.13-27.68.2-2.12,1.12-7.17,1.76-12.41-2.56-12.86-7-24.12-16.54-31.56-9.21-7.16-25.32,38.29-25.32,38.29,20.39,12.35-16.72,142.73,33.67,183,18.95,22.57,44.32,21.85,44.32,21.85,3.11.31,6.16.54,9.17.75l1.94.13q4.37.27,8.6.41l1.47,0q3.81.1,7.51.09h1.49c2.68,0,5.31-.09,7.9-.19l1.89-.08c2.51-.12,5-.26,7.42-.45l.68-.06c2.41-.19,4.77-.43,7.11-.69l1.92-.22c2.31-.29,4.58-.59,6.81-.94.56-.08,1.1-.18,1.65-.27,1.87-.3,3.72-.62,5.53-1l1.71-.32q3.11-.63,6.11-1.32l2-.48c1.76-.43,3.5-.87,5.21-1.34l1.68-.46q2.5-.72,4.95-1.49l2-.63c1.74-.57,3.46-1.15,5.15-1.76l1.76-.66c1.29-.48,2.57-1,3.82-1.48l1.79-.71c1.55-.64,3.08-1.3,4.57-2,.64-.28,1.27-.57,1.89-.86,1.2-.56,2.38-1.12,3.54-1.69.7-.34,1.39-.69,2.07-1,1.14-.58,2.27-1.17,3.38-1.77.6-.32,1.19-.65,1.78-1q2-1.08,3.83-2.19c.53-.31,1-.63,1.56-1,.92-.56,1.82-1.12,2.71-1.69.51-.32,1-.64,1.51-1,1.17-.76,2.31-1.53,3.43-2.31.5-.34,1-.69,1.48-1,.9-.64,1.78-1.28,2.65-1.92l1.49-1.12c.9-.68,1.77-1.37,2.64-2.06l1.23-1c1-.82,2-1.63,2.93-2.45l.94-.82c.78-.68,1.55-1.36,2.29-2,.28-.26.57-.51.84-.77.92-.85,1.81-1.7,2.68-2.54l.75-.74c.85-.84,1.68-1.67,2.48-2.5l.15-.16c.88-.91,1.72-1.82,2.54-2.71l.42-.46,1.6-1.8c9,5.18,16.41,7.22,18.11,3.83,1.51-3,2.77-9.49,3.4-17.28,2.45,3.14,5,4.57,8.07,3.51a2.66,2.66,0,0,0,.94-.62,5.87,5.87,0,0,0,1-.2C739.07,490.13,737.74,477,731.41,463.83Z"/><path class="blc2-2-ani_6" d="M517.89,421.14c-.79-1.21-1.57-2.46-2.37-3.73q1.08,1.89,2.31,3.71Z"/><path class="blc2-2-ani_13" d="M488.55,385.06a15,15,0,0,0-1.46,6.31c.16,3.09,2,5.8,3.26,8.64,3.75,8.52,2.15,18.29,2,27.6-.06,3.16.11,6.5,1.77,9.18,3.31,5.34,10.85,5.89,15.9,9.62,7.7,5.71,8,17.37,14.42,24.53,5.82,6.52,15.34,8,24.06,8.5A246.52,246.52,0,0,0,597,477.26c5.74-.81,11.53-1.78,17.31-1.3,6,.51,11.78,2.59,17.77,3.36a41.7,41.7,0,0,0,24.2-4.2c8.45-4.33,15.12-11.38,22.44-17.43s16.08-11.37,25.57-11.07c11.11.36,20.28,8.22,27.17,17.21a64.63,64.63,0,0,0-15.2-20.59l.24-.18c-42.6-36.94-143.07,17.65-191.43-17-.67-.52-1.34-1-2-1.51l-.08-.07a37.42,37.42,0,0,1-11.65-16.18c-7.35-19.54-6.87-43.37-10.85-63.31-.64,5.24-1.56,10.29-1.76,12.41C497.71,367.39,492.3,376,488.55,385.06Zm29.34,36.08-.06,0q-1.23-1.81-2.31-3.71C516.32,418.68,517.1,419.93,517.89,421.14Z"/><path class="blc2-2-ani_7" d="M490.12,331c13.93-10.25,24.42-26.26,17.51-49.32-30.43,4.69-27.95,42.17-27.95,42.17Z"/><path class="blc2-2-ani_6" d="M490.2,326.88c9.9-7.29,17.36-18.68,12.45-35.08-21.65,3.35-19.87,30-19.87,30Z"/><path class="blc2-2-ani_7" d="M476.26,323.51c2.5-12.89.12-27.23-15.6-36.55-14.58,18.28,6.09,37.92,6.09,37.92Z"/><path class="blc2-2-ani_6" d="M474.17,321.16c1.78-9.17.09-19.36-11.09-26-10.37,13,4.33,27,4.33,27Z"/><path class="blc2-2-ani_7" d="M490.18,327c4.93-3.61,7.29-13,4.86-21.06-10.76,1.66-14,15-14,15Z"/><path class="blc2-2-ani_7" d="M493.2,343.15c-.59,11-15.15,24.8-44.68,13.34,0,0-27.27,5.79-35.12,1.36-6.21-3.52-7.78-9.05-5-14.05,4.59-8.23,21.88-10.94,28.9-16.88,3.38-2.87,8.45-16.91,22.55-18.23S495.08,308,493.2,343.15Z"/><path class="blc2-2-ani_7" d="M460.94,326.11c-14.15,1.54-27.82,21.61-51.28,15.94,5.89-6.91,21.15-9.63,27.65-15.13,3.38-2.87,8.45-16.91,22.55-18.23,12.93-1.21,31.73-.77,33.34,26.37C483.09,331.65,478.49,324.19,460.94,326.11Z"/><path class="blc2-2-ani_7" d="M491.39,348.86s-3,15.6-26.13,25.53c-.45-7.67-1.66-11.8-2.43-18.84Z"/><path class="blc2-2-ani_7" d="M451.19,326.58c-7.91,37.88,27.65,11.14,40.58,22-4.31,9.37-18.37,18.58-43.12,9,0,0-27.4,4.7-35.25.27-4.63-2.62-6.67-6.36-6.26-10.17C418.42,350.9,451.19,326.58,451.19,326.58Z"/><path class="blc2-2-ani_7" d="M459.86,351.9c-11.34,6.76-26.2,14.05-35.38,12.16A11.48,11.48,0,0,1,415,353.52Z"/><path class="blc2-2-ani_7" d="M444.72,359.8c-5.9,5-15.38,6.79-20.78,5.67-4-.83-5.8-4.37-7.13-6.5-1.33-.26-3,.5-5-.48-7.6-3.75-5.07-14.89,4.33-18.63a104.39,104.39,0,0,0,22.41,8.8C443.07,349.78,444.26,355.67,444.72,359.8Z"/><path class="blc2-2-ani_7" d="M418.81,347c-2.84,2.7-9.86,7-10.94,6.75s-5.13-11.88,10-16.07S421.21,344.75,418.81,347Z"/><path class="blc2-2-ani_7" d="M407.93,353.92s-3.14-4.25,1.12-5.57a95.06,95.06,0,0,1,10.74-2.52S416.24,351.2,407.93,353.92Z"/><path class="blc2-2-ani_13" d="M723.89,491l1.53-1.65a44.8,44.8,0,0,1-4.71-5.32c-1.45-1.89-2.58-3.87-3.94-6a17.59,17.59,0,0,0-2.47-3.1,9.83,9.83,0,0,0-3.61-2.28,19.31,19.31,0,0,0-7.9-.57l.32,3.46a16.52,16.52,0,0,1,6.57.11c1.88.53,3.38,2.09,4.72,4s2.7,4.1,4.31,6A46.32,46.32,0,0,0,723.89,491Z"/><path class="blc2-2-ani_13" d="M689.17,586.55l-8.82,1.25A16.78,16.78,0,0,0,689.17,586.55Z"/><path class="blc2-2-ani_13" d="M721.14,588.86a8.64,8.64,0,0,0,9.56-.09Z"/><path class="blc2-2-ani_13" d="M551,600.21l-7-1A8.58,8.58,0,0,0,551,600.21Z"/><path class="blc2-2-ani_13" d="M519.13,596.21l-6.92-3.07A7.57,7.57,0,0,0,519.13,596.21Z"/><path class="blc2-2-ani_13" d="M539.71,590c-.8-3-1.73-6-2.79-8.89A102.28,102.28,0,0,0,529,564.22a39.82,39.82,0,0,0-5.06-7.07c.54.18,1.07.38,1.61.54a96.28,96.28,0,0,0,12.11,3.09l.54-3.43a93.49,93.49,0,0,1-11.75-2.7c-3.89-1.1-7.74-2.38-11.52-3.82a112.37,112.37,0,0,1-11.08-4.89c-3.49-1.85-6.75-4.23-8.49-7.6l-2,1c2,4,5.64,6.78,9.26,8.83a112.87,112.87,0,0,0,11.26,5.3c1.2.5,2.42.94,3.63,1.4a20.21,20.21,0,0,1,4.19,3.36,35.13,35.13,0,0,1,5.09,7.26A99.48,99.48,0,0,1,534.22,582q1.49,4.29,2.56,8.69c.37,1.46.69,2.94,1,4.42a9.08,9.08,0,0,1,.21,2c0,.62-.06,1.47-.1,2.2a111.45,111.45,0,0,1-2.41,17.92l3.39.76a116.37,116.37,0,0,0,2.19-18.52c0-.8.07-1.48.06-2.39a12.07,12.07,0,0,0-.31-2.58C540.46,593,540.11,591.46,539.71,590Z"/><polygon class="blc2-2-ani_13" points="697.21 566.4 700.99 570.57 703.2 567.88 698.76 564.77 697.21 566.4"/><path class="blc2-2-ani_13" d="M674.23,538.09a28.6,28.6,0,0,0-6.6-2.78l.4-.2q1.9-1,3.78-2c2.51-1.39,5-2.85,7.4-4.37a123.76,123.76,0,0,0,14-10.09L690.93,516a118.88,118.88,0,0,1-13.43,10c-2.35,1.53-4.74,3-7.18,4.42-1.21.7-2.44,1.39-3.67,2.06l-.92.49c-.37.19-.64.37-1,.55l-1.84,1.06a179,179,0,0,1-30.86,13.72l.71,2.13a182.26,182.26,0,0,0,31.53-13.34l.23-.13a23.59,23.59,0,0,1,8.38,3.29,30.33,30.33,0,0,1,7.38,6.6c4.32,5.34,8.29,11,13,16.36l2.56-2.35c-4.63-5-8.79-10.54-13.35-15.84A32.63,32.63,0,0,0,674.23,538.09Z"/><path class="blc2-2-ani_5" d="M431.47,352.45c-1.85,2.17-6.64,3.95-15,6.36l1.62,2.14s12.29-4.32,14.23-8C433.88,349.46,431.47,352.45,431.47,352.45Z"/><path class="blc2-2-ani_5" d="M419.39,346.35s-4.67,1.64-7.43,2.49a1.49,1.49,0,0,0-.85,2.54A18,18,0,0,0,419.39,346.35Z"/><path class="blc2-2-ani_13" d="M457.26,358.31l-.54,2.19a68.39,68.39,0,0,0,22.59,2.24l-.33-3.46A65.31,65.31,0,0,1,457.26,358.31Z"/><path class="blc2-2-ani_5" d="M472.4,324.46a19.6,19.6,0,0,0-3-.95,19.16,19.16,0,0,0-6.22-.49,20.84,20.84,0,0,0-6,1.37l-1.41.61-.8.41c.38-.43.76-.84,1.16-1.22a18,18,0,0,1,4.42-3.16,16.34,16.34,0,0,1,5.13-1.67,17.24,17.24,0,0,1,2.69-.24c.9,0,1.81.09,2.71.13l.22-2c-1,0-2-.13-3-.07a19.67,19.67,0,0,0-8.59,2.31A20,20,0,0,0,455,323a20.43,20.43,0,0,0-3.56,4.75l1.06.53,1.17,1.45a15.92,15.92,0,0,1,2.2-1.29c.39-.21.8-.37,1.2-.55l1.24-.46a17,17,0,0,1,5.1-.92,15.5,15.5,0,0,1,5.07.64,15.07,15.07,0,0,1,2.4.89c.79.33,1.52.82,2.28,1.21l2.07-3.49C474.27,325.34,473.37,324.83,472.4,324.46Z"/><path class="blc2-2-ani_6" d="M488.3,369.09a14.33,14.33,0,0,1-.42,6.13,35.9,35.9,0,0,1-2.23,5.72c-1.71,3.63-3.67,7-4.25,10.53s.64,6.85,2.19,10.55a33.37,33.37,0,0,1,2,5.81,10.38,10.38,0,0,1-.37,6.15c.12-4.12-2.1-7.3-4.05-10.77a30.94,30.94,0,0,1-2.66-5.65,14.54,14.54,0,0,1-.51-6.66c.84-4.44,3.18-8,5.3-11.28S487.52,373.09,488.3,369.09Z"/><path class="blc2-2-ani_6" d="M497.28,451.3c3.87.28,7.35,2.77,9.85,5.76A51.12,51.12,0,0,1,513,467a49.84,49.84,0,0,0,5.74,9.38A24.49,24.49,0,0,0,527,483a38.23,38.23,0,0,0,10.32,3.32,74.83,74.83,0,0,0,11.06,1.16c7.49.33,15.27.18,22.72,1.95-7.62-.33-15.08.59-22.75.76s-15.66-.55-22.91-4.09a27,27,0,0,1-9.29-7.62,45.89,45.89,0,0,1-5.63-10.27c-1.49-3.52-2.76-7-4.79-10.09A15.52,15.52,0,0,0,497.28,451.3Z"/><path class="blc2-2-ani_6" d="M608.51,486.23a48.75,48.75,0,0,1,13.65-.13c4.54.53,9,1.36,13.44,2.06a71.09,71.09,0,0,0,13.2,1,29.83,29.83,0,0,0,12.41-2.86,38.9,38.9,0,0,0,10.3-7.82c3.17-3.09,6.07-6.58,9.37-9.79a40.5,40.5,0,0,1,11.17-8.21c4.2-1.93,9.06-2.87,13.5-1.7A21.49,21.49,0,0,0,692.84,462a42.53,42.53,0,0,0-10,8.57c-3,3.33-5.81,6.84-9,10.22a41,41,0,0,1-11.12,8.63,32.62,32.62,0,0,1-13.86,3,64.24,64.24,0,0,1-13.77-1.6C626.2,488.93,617.63,486.13,608.51,486.23Z"/><circle class="blc2-2-ani_5" cx="481.06" cy="341.23" r="6.66"/><path class="blc2-2-ani_14" d="M468.2,430.75a9.48,9.48,0,0,0,8.94,3.94"/><path class="blc2-2-ani_14" d="M473.33,441.8a15.34,15.34,0,0,0,7.7.23"/><path class="blc2-2-ani_14" d="M468.33,439.3a15.46,15.46,0,0,0,2.54,1.56"/><path class="blc2-2-ani_14" d="M468.85,449.64a11.28,11.28,0,0,0,8.34,1.35"/><path class="blc2-2-ani_14" d="M481,461.42a18.87,18.87,0,0,0,3-1.15"/><path class="blc2-2-ani_14" d="M468.84,461a19.53,19.53,0,0,0,9.73,1"/><path class="blc2-2-ani_14" d="M471.1,471a15.75,15.75,0,0,0,9.37,0"/><path class="blc2-2-ani_14" d="M491.06,478a6.51,6.51,0,0,0,2.32-1.44"/><path class="blc2-2-ani_14" d="M471.53,479.06c2.21,2.23,6.82,2.63,9.89,1.95a55.47,55.47,0,0,0,5.9-1.49c.52-.18,1-.37,1.55-.59"/><path class="blc2-2-ani_14" d="M475.59,493.08a21,21,0,0,0,15.91.81"/><path class="blc2-2-ani_14" d="M511.47,500.81c1.71-1,3.46-2,5.35-3.27"/><path class="blc2-2-ani_14" d="M481.42,504.87c2.87,1.74,10.22,2.21,13.54,1.65a48.58,48.58,0,0,0,12.42-3.64"/><path class="blc2-2-ani_14" d="M509.25,517.42c.94-.61,1.89-1.25,2.89-1.93"/><path class="blc2-2-ani_14" d="M488.44,521.26c.66.93,4.76,1.43,5.91,1.39a25.67,25.67,0,0,0,13-4.07"/><path class="blc2-2-ani_14" d="M500.62,535.58a29.05,29.05,0,0,0,22.24-7.3"/><path class="blc2-2-ani_14" d="M515,543.32a21,21,0,0,0,15-8.74"/><path class="blc2-2-ani_14" d="M556.07,534.58a28,28,0,0,0,2.61-4.72"/><path class="blc2-2-ani_14" d="M529.42,550.6a39,39,0,0,0,12.6-4.3,38.36,38.36,0,0,0,11.8-8.82"/><path class="blc2-2-ani_14" d="M569.85,540.77a30.93,30.93,0,0,0,1.58-3"/><path class="blc2-2-ani_14" d="M554.13,554.85a35.07,35.07,0,0,0,14.52-12.18"/><path class="blc2-2-ani_14" d="M572.39,554.44a19.83,19.83,0,0,0,5.93-10.1"/><path class="blc2-2-ani_14" d="M588.05,551.47c2.12-4.43,2.46-9.91,2.62-15"/><path class="blc2-2-ani_14" d="M584.66,556.09a14,14,0,0,0,2.05-2.32"/><path class="blc2-2-ani_14" d="M600.09,552.58c4-3.34,4.12-9.35,3.9-14.56"/><path class="blc2-2-ani_14" d="M615.11,548.58A66.19,66.19,0,0,0,616,539"/><path class="blc2-2-ani_14" d="M626.43,547.94a13.18,13.18,0,0,0,1-8.25"/><path class="blc2-2-ani_14" d="M641,531.64a15.22,15.22,0,0,0-1-3.36"/><path class="blc2-2-ani_14" d="M640.16,542.26a73.73,73.73,0,0,0,1.06-7.68"/><path class="blc2-2-ani_14" d="M468.51,422.07a5,5,0,0,0,4.14,2.73"/><path class="blc2-2-ani_14" d="M473.65,486.17a15.69,15.69,0,0,0,8.34,1.76"/><path class="blc2-2-ani_14" d="M488.19,499.89l1.49.13a20.81,20.81,0,0,0,3.35.12,21.11,21.11,0,0,0,6.74-2.05"/><path class="blc2-2-ani_14" d="M488,514.18a11,11,0,0,0,6.4-.24"/><path class="blc2-2-ani_14" d="M504,527.11a16,16,0,0,0,8.63-3"/><path class="blc2-2-ani_14" d="M534.9,541.63l3.06-2.4a19.59,19.59,0,0,0,1.76-1.5,9.76,9.76,0,0,0,2.61-4.7"/><path class="blc2-2-ani_14" d="M556.38,545.62a14.77,14.77,0,0,0,5.44-6.71"/><path class="blc2-2-ani_14" d="M579.74,540.86l.6-3.05"/><path class="blc2-2-ani_14" d="M622,541.3a27,27,0,0,0-.78-8.59"/><path class="blc2-2-ani_14" d="M634.27,539.56a15.83,15.83,0,0,0,.18-5.66"/><path class="blc2-2-ani_14" d="M649.06,537.06a11.89,11.89,0,0,0-.47-5"/><path class="blc2-2-ani_14" d="M656.12,533.48a20.74,20.74,0,0,0-.13-2.61"/><path class="blc2-2-ani_14" d="M663.83,530.33a9.79,9.79,0,0,0-.13-2"/><path class="blc2-2-ani_14" d="M596.45,548.06a19.79,19.79,0,0,0,.63-6.5"/><path class="blc2-2-ani_14" d="M517.58,520.74a17.43,17.43,0,0,0,3.43-3.38"/><path class="blc2-2-ani_14" d="M488.43,487.1a10.14,10.14,0,0,0,4.34-.89"/><path class="blc2-2-ani_14" d="M468.92,414.63a8.69,8.69,0,0,0,2,1.5"/><path class="blc2-2-ani_13" d="M488.94,333l-.81-1.53c3.13-1.66,8.95-7.68,9-7.74l1.25,1.2C498.14,325.22,492.32,331.25,488.94,333Z"/><ellipse class="blc2-2-ani_15" cx="626.47" cy="452.96" rx="14.05" ry="3.06" transform="translate(-100.23 189.24) rotate(-15.92)"/><ellipse class="blc2-2-ani_15" cx="568.31" cy="446.46" rx="13.74" ry="3.13" transform="translate(-10.7 13.96) rotate(-1.39)"/><ellipse class="blc2-2-ani_6" cx="595.28" cy="458.66" rx="9.83" ry="2.22" transform="translate(-47.1 68.7) rotate(-6.35)"/><ellipse class="blc2-2-ani_6" cx="602.2" cy="446.39" rx="9.83" ry="2.22" transform="translate(-45.7 69.39) rotate(-6.35)"/><ellipse class="blc2-2-ani_6" cx="548.71" cy="456.62" rx="1.26" ry="5.51" transform="translate(6.36 920.78) rotate(-80.32)"/><ellipse class="blc2-2-ani_6" cx="542.2" cy="447.35" rx="1.26" ry="5.49" transform="translate(22.44 920.59) rotate(-81.84)"/><ellipse class="blc2-2-ani_6" cx="515.94" cy="427.34" rx="0.96" ry="5.99" transform="translate(-140.22 562.49) rotate(-51.27)"/><ellipse class="blc2-2-ani_15" cx="530.74" cy="437.95" rx="1.26" ry="5.49" transform="translate(-22.26 847.44) rotate(-76.05)"/><ellipse class="blc2-2-ani_6" cx="568.71" cy="458.68" rx="1.26" ry="5.5" transform="translate(105.92 1024.05) rotate(-89.58)"/><ellipse class="blc2-2-ani_6" cx="648" cy="437.96" rx="5.75" ry="1.2" transform="translate(-116.2 271.5) rotate(-21.77)"/><ellipse class="blc2-2-ani_6" cx="621.64" cy="440.19" rx="5.6" ry="1.23" transform="translate(-73.29 128.3) rotate(-11.13)"/><ellipse class="blc2-2-ani_6" cx="668.96" cy="438.73" rx="5.58" ry="0.84" transform="translate(-112.61 268.02) rotate(-20.94)"/><ellipse class="blc2-2-ani_6" cx="516.27" cy="436.5" rx="1.4" ry="5.58" transform="translate(-139.12 602.43) rotate(-54.42)"/><path class="blc2-2-ani_7" d="M330.63,489.59c3.77,3.21,8.27,12.13,8.56,18,.68,13.72-3.57,34.3-4.76,38-1.7,5.24-16.89,59.24-16.89,59.24h-2.49s7.95-52,9.76-61.52-.86-20.66-6.29-32.73c-5-11.12-8.18-26.52-4.32-30.6C320.81,472.94,320.26,480.75,330.63,489.59Z"/><path class="blc2-2-ani_7" d="M422.7,535.82c-3.21-6.83-34.79-28.09-35.26-60.38-.3-20.78,28.08-42.75,33.7-16.07s-7.63,53.86,10,69C434.4,531.14,437,535,434.4,541c-3,6.71-14.82,42.28-24.81,63.81h-4C415.84,576.38,426.44,543.78,422.7,535.82Z"/><path class="blc2-2-ani_7" d="M343.52,497.44c58.6,13.64,63.89-37.21,100.84-28.94-.28,1.32-.63,2.68-1.07,4.13,0,0-23.71,52.19-104.22,44.23,0,0-40.25-1.64-39.31-48.91C305.67,491.79,325.45,493.23,343.52,497.44Z"/><path class="blc2-2-ani_7" d="M336.33,513.71c46.87,4.64,76.26-9.23,93.57-23.34-13.6,14.87-41.6,32.76-90,28,0,0-28.58-2.64-37.43-30.18A43,43,0,0,0,336.33,513.71Z"/><path class="blc2-2-ani_7" d="M413,468.88a43.86,43.86,0,0,0,0,34.49l8.08-4.88Z"/><path class="blc2-2-ani_7" d="M318.6,478.36s-4,20,6.2,35L334,517Z"/><path class="blc2-2-ani_7" d="M445.79,535.82c-3.21-6.83-34.79-28.09-35.26-60.38-.3-20.78,28.08-42.75,33.7-16.07s-7.63,53.86,10,69c3.28,2.81,6.56,7,3.28,12.64s-16.07,42-24.8,63.81h-4.06C437.68,578.88,449.54,543.78,445.79,535.82Z"/><path class="blc2-2-ani_7" d="M410.53,475.44c0-.22,0-.45,0-.67,1.24,1.35,2.52,2.69,3.88,4,9.86,9.47,20.87,15.65,30.36,17.84-.55,12.67.23,23.84,9.42,31.72,3.28,2.81,6.56,7,3.28,12.64s-16.07,42-24.8,63.81h-4.06c9.05-25.9,20.91-61,17.16-69C442.58,529,411,507.73,410.53,475.44Z"/><path class="blc2-2-ani_7" d="M346.88,487.77c3.85,3.05,6.72,17.19,7.17,22.77,1.05,13.08-3,34.26-4.06,37.76-1.56,5-15.28,56.48-15.28,56.48h-3.44c8.45-46.31,6.92-46.29,9.05-58.66,1.56-9-3.3-17.36-8.73-29-4.37-9.37-13.42-23.72-13.42-37.14C318.17,470.71,336.27,479.34,346.88,487.77Z"/><path class="blc2-2-ani_7" d="M410.65,478.23c7.6,26.67,34.55,48.57,37.32,54.47,1.25,2.64,0,8.74-2.53,16.64,1.18-6.29,1.47-11.13.35-13.52C442.67,529.19,410.68,509.14,410.65,478.23Z"/><path class="blc2-2-ani_7" d="M351.48,512.65c-.34-4.16-1.28-16.26-3.34-23.43,3.21,4.72,6.29,16.06,6.69,21,1.9,23.7-8,49.4-14.41,73.16C348.71,543.86,352.76,528.68,351.48,512.65Z"/><path class="blc2-2-ani_6" d="M432.69,604.78h-6.25s4.06-9.36,6.24-8.89S432.69,604.78,432.69,604.78Z"/><path class="blc2-2-ani_6" d="M409.13,604.78h-6.24s4.05-9.36,6.24-8.89S409.13,604.78,409.13,604.78Z"/><path class="blc2-2-ani_6" d="M334.55,604.78h-6.24s4.06-9.36,6.24-8.89S334.55,604.78,334.55,604.78Z"/><path class="blc2-2-ani_6" d="M317.08,604.78h-6.24s4.05-9.36,6.24-8.89S317.08,604.78,317.08,604.78Z"/><path class="blc2-2-ani_7" d="M451.62,463.33c-4-5.19-9.27-9.73-15.69-9.94-5.48-.17-10.54,2.9-14.77,6.4s-8.08,7.56-13,10.06a24.05,24.05,0,0,1-14,2.43c-3.45-.45-6.79-1.65-10.26-1.94a45.47,45.47,0,0,0-10,.75,141.8,141.8,0,0,1-28,1.26c-5-.3-10.54-1.14-13.9-4.91-3.68-4.14-3.88-10.87-8.33-14.17-2.92-2.16-7.27-2.47-9.18-5.56a9.58,9.58,0,0,1-1-5.3c.1-5.37,1-11-1.14-15.94-.73-1.64-1.79-3.21-1.89-5a8.58,8.58,0,0,1,.85-3.63c2.16-5.27,5.29-10.22,5.85-16,.12-1.23.65-4.15,1-7.18-1.48-7.43-4-13.93-9.56-18.22-5.32-4.14-14.62,22.11-14.62,22.11,11.77,7.14-9.67,82.45,19.44,105.68a34.75,34.75,0,0,0,25.6,12.62c1.8.18,3.56.32,5.3.44l1.12.07c1.68.1,3.34.19,5,.24l.85,0c1.47,0,2.91,0,4.34,0h.86c1.54,0,3.06,0,4.56-.11l1.1-.05c1.44-.07,2.88-.15,4.28-.26l.39,0c1.4-.11,2.76-.25,4.11-.4l1.11-.13c1.33-.16,2.65-.34,3.93-.54l.95-.16c1.09-.17,2.15-.36,3.2-.56l1-.18c1.2-.24,2.38-.5,3.54-.77l1.14-.27c1-.25,2-.51,3-.78l1-.26c1-.28,1.92-.57,2.86-.86l1.14-.37c1-.33,2-.66,3-1l1-.38,2.2-.86,1-.41c.9-.37,1.78-.75,2.65-1.14l1.09-.5c.69-.32,1.37-.65,2-1l1.2-.59c.66-.34,1.31-.68,1.95-1l1-.56c.75-.42,1.49-.84,2.21-1.27l.9-.55c.53-.32,1.05-.65,1.57-1l.87-.55c.68-.45,1.34-.89,2-1.34l.86-.6,1.53-1.11.86-.65,1.52-1.19.71-.57c.58-.47,1.15-.94,1.7-1.41l.54-.48c.45-.39.89-.79,1.32-1.18l.49-.44c.53-.49,1-1,1.55-1.47l.43-.42c.49-.49,1-1,1.43-1.45l.09-.09c.51-.53,1-1.05,1.46-1.57l.25-.26.92-1c5.2,3,9.48,4.17,10.46,2.21.87-1.75,1.6-5.48,2-10,1.42,1.81,2.92,2.64,4.67,2a1.48,1.48,0,0,0,.54-.35,3.89,3.89,0,0,0,.55-.12C456.05,478.52,455.28,471,451.62,463.33Z"/><path class="blc2-2-ani_6" d="M328.28,438.68l-1.36-2.16c.41.73.86,1.44,1.33,2.14Z"/><path class="blc2-2-ani_5" d="M311.34,417.84a8.58,8.58,0,0,0-.85,3.63c.1,1.79,1.16,3.36,1.89,5,2.17,4.92,1.24,10.57,1.14,15.94a9.58,9.58,0,0,0,1,5.3c1.91,3.09,6.26,3.4,9.18,5.56,4.45,3.3,4.65,10,8.33,14.17,3.36,3.77,8.86,4.61,13.9,4.91a141.8,141.8,0,0,0,28-1.26,45.47,45.47,0,0,1,10-.75c3.47.29,6.81,1.49,10.26,1.94a24.05,24.05,0,0,0,14-2.43c4.89-2.5,8.74-6.57,13-10.06s9.29-6.57,14.77-6.4c6.42.21,11.71,4.75,15.69,9.94a37.33,37.33,0,0,0-8.78-11.89l.14-.1C418.37,430,360.34,461.53,332.4,441.5l-1.15-.87-.05,0a21.75,21.75,0,0,1-6.73-9.34c-4.24-11.29-4-25.06-6.26-36.58-.37,3-.9,5.95-1,7.18C316.63,407.62,313.5,412.57,311.34,417.84Zm16.94,20.84,0,0c-.47-.7-.92-1.41-1.33-2.14Z"/><path class="blc2-2-ani_7" d="M312.25,386.62c8-5.92,14.1-15.17,10.11-28.49-17.58,2.71-16.14,24.35-16.14,24.35Z"/><path class="blc2-2-ani_6" d="M312.29,384.23c5.72-4.21,10-10.79,7.19-20.27C307,365.89,308,381.29,308,381.29Z"/><path class="blc2-2-ani_7" d="M304.24,382.28c1.44-7.45.07-15.73-9-21.12-8.42,10.56,3.51,21.91,3.51,21.91Z"/><path class="blc2-2-ani_6" d="M303,380.92c1-5.29.05-11.18-6.41-15-6,7.52,2.51,15.58,2.51,15.58Z"/><path class="blc2-2-ani_7" d="M312.28,384.29c2.85-2.09,4.21-7.49,2.81-12.17-6.22,1-8.08,8.66-8.08,8.66Z"/><path class="blc2-2-ani_7" d="M314,393.63c-.35,6.36-8.76,14.32-25.82,7.7,0,0-15.75,3.34-20.28.78-3.59-2-4.49-5.22-2.89-8.11,2.66-4.76,12.64-6.32,16.7-9.75,1.95-1.66,4.88-9.77,13-10.53S315.11,373.31,314,393.63Z"/><path class="blc2-2-ani_7" d="M295.39,383.78c-8.18.89-16.07,12.48-29.62,9.21,3.4-4,12.22-5.56,16-8.74,1.95-1.66,4.88-9.77,13-10.53,7.46-.7,18.32-.44,19.25,15.23C308.18,387,305.53,382.67,295.39,383.78Z"/><path class="blc2-2-ani_7" d="M313,396.92s-1.75,9-15.09,14.75c-.27-4.43-1-6.82-1.41-10.89Z"/><path class="blc2-2-ani_7" d="M289.75,384.05c-4.56,21.88,16,6.44,23.45,12.72-2.49,5.42-10.62,10.73-24.91,5.19,0,0-15.83,2.71-20.36.15-2.68-1.51-3.86-3.67-3.62-5.87C270.83,398.1,289.75,384.05,289.75,384.05Z"/><path class="blc2-2-ani_7" d="M294.77,398.68c-6.56,3.9-15.14,8.11-20.44,7a6.61,6.61,0,0,1-5.46-6.08Z"/><path class="blc2-2-ani_7" d="M286,403.24a16.13,16.13,0,0,1-12,3.28c-2.33-.48-3.35-2.53-4.12-3.76-.77-.15-1.75.29-2.9-.28-4.39-2.16-2.93-8.6,2.5-10.75a60.93,60.93,0,0,0,12.94,5.08C285.07,397.45,285.75,400.86,286,403.24Z"/><path class="blc2-2-ani_7" d="M271.05,395.87c-1.64,1.56-5.69,4.05-6.32,3.9s-3-6.86,5.77-9.28S272.44,394.55,271.05,395.87Z"/><path class="blc2-2-ani_7" d="M264.77,399.85s-1.81-2.46.65-3.22a56.09,56.09,0,0,1,6.2-1.46A13.59,13.59,0,0,1,264.77,399.85Z"/><path class="blc2-2-ani_5" d="M447.28,479l.88-1a25.52,25.52,0,0,1-2.72-3.07c-.84-1.09-1.49-2.24-2.28-3.48a9.7,9.7,0,0,0-1.42-1.79,5.68,5.68,0,0,0-2.09-1.32,11.26,11.26,0,0,0-4.56-.33l.18,2a9.61,9.61,0,0,1,3.8.06,5.44,5.44,0,0,1,2.73,2.31c.76,1.1,1.56,2.37,2.48,3.47A28.42,28.42,0,0,0,447.28,479Z"/><path class="blc2-2-ani_5" d="M427.22,534.22l-5.09.73A9.76,9.76,0,0,0,427.22,534.22Z"/><path class="blc2-2-ani_5" d="M445.69,535.56a5,5,0,0,0,5.52-.06Z"/><path class="blc2-2-ani_5" d="M347.41,542.11l-4-.58A5,5,0,0,0,347.41,542.11Z"/><path class="blc2-2-ani_5" d="M329,539.8,325,538A4.4,4.4,0,0,0,329,539.8Z"/><path class="blc2-2-ani_5" d="M340.89,536.19q-.69-2.61-1.61-5.14a59.49,59.49,0,0,0-4.58-9.72,23.5,23.5,0,0,0-2.92-4.09c.31.1.61.22.92.31a57.39,57.39,0,0,0,7,1.79l.31-2a55.33,55.33,0,0,1-6.79-1.55c-2.24-.64-4.47-1.38-6.65-2.21a65.62,65.62,0,0,1-6.4-2.82,11.12,11.12,0,0,1-4.9-4.4l-1.17.59a12.54,12.54,0,0,0,5.36,5.1,63.93,63.93,0,0,0,6.5,3.06c.69.29,1.39.54,2.09.81a11.33,11.33,0,0,1,2.43,1.94,20.69,20.69,0,0,1,2.94,4.19,58.76,58.76,0,0,1,4.3,9.54c.57,1.65,1.06,3.33,1.48,5,.21.84.4,1.7.57,2.55a5.08,5.08,0,0,1,.12,1.14c0,.36,0,.85-.06,1.27a65,65,0,0,1-1.39,10.36l2,.44a67.14,67.14,0,0,0,1.26-10.7c0-.47,0-.86,0-1.38a7.23,7.23,0,0,0-.18-1.49C341.32,537.93,341.12,537.06,340.89,536.19Z"/><polygon class="blc2-2-ani_5" points="431.87 522.58 434.05 524.99 435.32 523.43 432.76 521.64 431.87 522.58"/><path class="blc2-2-ani_5" d="M418.59,506.23a16,16,0,0,0-3.81-1.6l.23-.12,2.19-1.18c1.44-.8,2.87-1.65,4.27-2.53a70.42,70.42,0,0,0,8.09-5.82l-1.32-1.52a69.31,69.31,0,0,1-7.76,5.8c-1.35.89-2.74,1.74-4.14,2.55-.71.41-1.41.81-2.12,1.2l-.54.28c-.21.11-.37.21-.56.32l-1.06.61a104,104,0,0,1-17.82,7.92l.4,1.24a105.26,105.26,0,0,0,18.22-7.71l.13-.07a13.54,13.54,0,0,1,4.84,1.89,17.41,17.41,0,0,1,4.26,3.82c2.5,3.08,4.79,6.37,7.5,9.45l1.48-1.36c-2.68-2.86-5.08-6.09-7.71-9.15A18.79,18.79,0,0,0,418.59,506.23Z"/><path class="blc2-2-ani_6" d="M278.36,399c-1.06,1.25-3.83,2.28-8.64,3.67l.94,1.24s7.1-2.5,8.22-4.6C279.76,397.27,278.36,399,278.36,399Z"/><path class="blc2-2-ani_6" d="M271.39,395.47s-2.7.95-4.29,1.44a.86.86,0,0,0-.49,1.47A10.41,10.41,0,0,0,271.39,395.47Z"/><path class="blc2-2-ani_5" d="M293.26,402.38l-.31,1.26a39.52,39.52,0,0,0,13.05,1.3l-.19-2A37.84,37.84,0,0,1,293.26,402.38Z"/><path class="blc2-2-ani_6" d="M302,382.83a11.6,11.6,0,0,0-1.73-.55,10.87,10.87,0,0,0-3.59-.28,12.07,12.07,0,0,0-3.48.79l-.81.35-.46.24a8.94,8.94,0,0,1,.66-.71,10.65,10.65,0,0,1,2.56-1.82,9.36,9.36,0,0,1,3-1,10,10,0,0,1,1.55-.14c.52,0,1.05.06,1.57.08l.13-1.17c-.58,0-1.15-.07-1.73,0a10.91,10.91,0,0,0-1.71.19,10.42,10.42,0,0,0-3.25,1.15,11.48,11.48,0,0,0-2.74,2.05,12,12,0,0,0-2.05,2.75l.61.3.68.84a9.46,9.46,0,0,1,1.27-.75c.23-.12.46-.21.69-.31l.72-.27a9.9,9.9,0,0,1,2.94-.53,8.74,8.74,0,0,1,2.93.37,10.08,10.08,0,0,1,1.39.51c.45.19.88.47,1.32.7l1.19-2C303.09,383.34,302.57,383,302,382.83Z"/><path class="blc2-2-ani_6" d="M311.2,408.61a8.35,8.35,0,0,1-.25,3.54,19.65,19.65,0,0,1-1.29,3.3c-1,2.1-2.12,4.07-2.45,6.08s.37,4,1.26,6.1a19.72,19.72,0,0,1,1.15,3.35,6,6,0,0,1-.22,3.56c.07-2.38-1.21-4.22-2.34-6.23a17.5,17.5,0,0,1-1.54-3.26,8.47,8.47,0,0,1-.29-3.85,18.41,18.41,0,0,1,3.07-6.51A17.87,17.87,0,0,0,311.2,408.61Z"/><path class="blc2-2-ani_6" d="M316.38,456.1a8.59,8.59,0,0,1,5.69,3.32,29.93,29.93,0,0,1,3.4,5.76,28.8,28.8,0,0,0,3.32,5.41,14.13,14.13,0,0,0,4.78,3.79,22,22,0,0,0,6,1.92,46.26,46.26,0,0,0,6.39.67c4.33.19,8.82.1,13.12,1.12-4.4-.19-8.7.34-13.13.44a28.13,28.13,0,0,1-13.24-2.36,15.66,15.66,0,0,1-5.37-4.4,27.15,27.15,0,0,1-3.25-5.94,35.43,35.43,0,0,0-2.77-5.82A8.88,8.88,0,0,0,316.38,456.1Z"/><path class="blc2-2-ani_6" d="M380.63,476.27a28.17,28.17,0,0,1,7.89-.07c2.62.3,5.2.79,7.76,1.19a41,41,0,0,0,7.62.56,17.25,17.25,0,0,0,7.17-1.65,22.34,22.34,0,0,0,5.95-4.51c1.83-1.79,3.51-3.81,5.42-5.66a23.1,23.1,0,0,1,6.45-4.74,11.73,11.73,0,0,1,7.79-1,12.45,12.45,0,0,0-7.34,1.85,24.76,24.76,0,0,0-5.77,5c-1.72,1.92-3.36,3.95-5.19,5.9a23.74,23.74,0,0,1-6.42,5,18.73,18.73,0,0,1-8,1.75,37.49,37.49,0,0,1-7.95-.93C390.85,477.83,385.9,476.22,380.63,476.27Z"/><circle class="blc2-2-ani_6" cx="307.01" cy="392.52" r="3.85"/><path class="blc2-2-ani_5" d="M304.05,446.81a5.77,5.77,0,0,1-4.68-2.44l.42-.29a5.22,5.22,0,0,0,4.92,2.17l.07.51A6,6,0,0,1,304.05,446.81Z"/><path class="blc2-2-ani_5" d="M305,451.22a9.08,9.08,0,0,1-2.57-.37l.14-.49a8.61,8.61,0,0,0,4.33.13l.11.5A9,9,0,0,1,305,451.22Z"/><path class="blc2-2-ani_5" d="M301,450.3a10,10,0,0,1-1.51-.93l.31-.41a8.27,8.27,0,0,0,1.43.87Z"/><path class="blc2-2-ani_5" d="M303.33,456.34a6.81,6.81,0,0,1-3.51-1l.27-.44a6.26,6.26,0,0,0,4.63.75l.11.5A6.83,6.83,0,0,1,303.33,456.34Z"/><path class="blc2-2-ani_5" d="M307.07,462.19l-.15-.49a10.85,10.85,0,0,0,1.7-.65l.22.45A11.19,11.19,0,0,1,307.07,462.19Z"/><path class="blc2-2-ani_5" d="M303.82,462.65a11.23,11.23,0,0,1-3.95-.71l.17-.48a11,11,0,0,0,5.5.55l.07.5A11.89,11.89,0,0,1,303.82,462.65Z"/><path class="blc2-2-ani_5" d="M303.91,468.15a9,9,0,0,1-2.73-.43l.15-.48a8.85,8.85,0,0,0,5.27,0l.14.5A10.38,10.38,0,0,1,303.91,468.15Z"/><path class="blc2-2-ani_5" d="M312.89,471.74l-.21-.46c1.05-.48,1.2-.69,1.22-.72l.45.24C314.26,471,314,471.23,312.89,471.74Z"/><path class="blc2-2-ani_5" d="M305.54,473.69a6.1,6.1,0,0,1-4.21-1.38l.36-.36c1.15,1.16,3.68,1.45,5.47,1.06a33.46,33.46,0,0,0,3.38-.86c.3-.1.58-.2.88-.33l.2.47c-.31.13-.61.24-.91.35a32.92,32.92,0,0,1-3.44.87A8.58,8.58,0,0,1,305.54,473.69Z"/><path class="blc2-2-ani_5" d="M309,481.65a12.24,12.24,0,0,1-5.28-1.19L304,480a11.76,11.76,0,0,0,9,.46l.17.48A12.34,12.34,0,0,1,309,481.65Z"/><path class="blc2-2-ani_5" d="M324.7,484.92l-.25-.45c.93-.52,1.91-1.12,3.08-1.88l.27.43C326.63,483.79,325.64,484.39,324.7,484.92Z"/><path class="blc2-2-ani_5" d="M313.13,488.38c-2.11,0-4.78-.36-6-1.12l.26-.44c1.57,1,5.75,1.24,7.65.92a28,28,0,0,0,7.11-2.08l.21.46a28.09,28.09,0,0,1-7.24,2.12A11.92,11.92,0,0,1,313.13,488.38Z"/><path class="blc2-2-ani_5" d="M323.43,494.5l-.27-.43c.54-.34,1.08-.71,1.66-1.1l.29.42Z"/><path class="blc2-2-ani_5" d="M314.61,497.57c-.7,0-3.08-.25-3.55-.92l.42-.29c.27.38,2.4.74,3.2.69a14.54,14.54,0,0,0,7.4-2.31l.27.44a15,15,0,0,1-7.66,2.38Z"/><path class="blc2-2-ani_5" d="M319.94,505.12c-.55,0-1.1,0-1.66-.08l.06-.51A16.59,16.59,0,0,0,331,500.38l.35.37A17.09,17.09,0,0,1,319.94,505.12Z"/><path class="blc2-2-ani_5" d="M326.61,509.5l-.05-.5a11.83,11.83,0,0,0,8.49-4.95l.42.3A12.37,12.37,0,0,1,326.61,509.5Z"/><path class="blc2-2-ani_5" d="M350.55,504.34l-.42-.29a15.21,15.21,0,0,0,1.48-2.68l.47.21A16.55,16.55,0,0,1,350.55,504.34Z"/><path class="blc2-2-ani_5" d="M335,513.71l-.07-.51a22.21,22.21,0,0,0,7.2-2.46,21.82,21.82,0,0,0,6.74-5l.38.34a22.41,22.41,0,0,1-6.89,5.15A22.78,22.78,0,0,1,335,513.71Z"/><path class="blc2-2-ani_5" d="M358.52,507.91l-.44-.26c.33-.56.63-1.14.9-1.72l.47.21Q359,507,358.52,507.91Z"/><path class="blc2-2-ani_5" d="M349.32,516.14l-.21-.46a19.79,19.79,0,0,0,8.28-6.95l.42.29A20.29,20.29,0,0,1,349.32,516.14Z"/><path class="blc2-2-ani_5" d="M359.94,515.86l-.35-.37a11.16,11.16,0,0,0,3.35-5.71l.5.12A11.79,11.79,0,0,1,359.94,515.86Z"/><path class="blc2-2-ani_5" d="M369,514.07l-.46-.22c1.21-2.53,1.4-5.73,1.49-8.54h.51C370.49,508.18,370.29,511.46,369,514.07Z"/><path class="blc2-2-ani_5" d="M367,516.81l-.34-.37a8.36,8.36,0,0,0,1.14-1.3l.42.29A8.09,8.09,0,0,1,367,516.81Z"/><path class="blc2-2-ani_5" d="M375.93,514.8l-.33-.39c2.24-1.87,2.29-5.22,2.17-8.21l.5,0C378.42,509.52,378.23,512.88,375.93,514.8Z"/><path class="blc2-2-ani_5" d="M384.69,512.33l-.5-.08a37.31,37.31,0,0,0,.49-5.47h.51A38.29,38.29,0,0,1,384.69,512.33Z"/><path class="blc2-2-ani_5" d="M391.21,512l-.46-.22a7.37,7.37,0,0,0,.57-4.6l.49-.11A7.82,7.82,0,0,1,391.21,512Z"/><path class="blc2-2-ani_5" d="M399.16,502.55a8.31,8.31,0,0,0-.58-1.88l.47-.21a8.83,8.83,0,0,1,.61,2Z"/><path class="blc2-2-ani_5" d="M399.16,508.67l-.5-.06c.07-.56.17-1.09.26-1.63a17.74,17.74,0,0,0,.35-2.79l.51,0a17.75,17.75,0,0,1-.36,2.86C399.33,507.6,399.23,508.13,399.16,508.67Z"/><path class="blc2-2-ani_5" d="M302.14,441a3.1,3.1,0,0,1-2.61-1.72l.46-.22a2.62,2.62,0,0,0,2.17,1.43Z"/><path class="blc2-2-ani_5" d="M306.93,477.53a9.18,9.18,0,0,1-4.32-1.07l.24-.45a8.85,8.85,0,0,0,4.68,1l0,.51C307.35,477.53,307.14,477.53,306.93,477.53Z"/><path class="blc2-2-ani_5" d="M313.44,484.58a14.15,14.15,0,0,1-1.47-.09l-.86-.07,0-.51.86.07a10.9,10.9,0,0,0,1.89.07,12,12,0,0,0,3.82-1.16l.2.47a12.71,12.71,0,0,1-4,1.2Z"/><path class="blc2-2-ani_5" d="M312.63,492.88a6.86,6.86,0,0,1-1.69-.21l.13-.5a6.14,6.14,0,0,0,3.55-.13l.17.48A6.62,6.62,0,0,1,312.63,492.88Z"/><path class="blc2-2-ani_5" d="M320.3,500.14l0-.51a9.1,9.1,0,0,0,4.85-1.69l.3.41A9.56,9.56,0,0,1,320.3,500.14Z"/><path class="blc2-2-ani_5" d="M338.27,508.47l-.32-.4,1.77-1.39a11.4,11.4,0,0,0,1-.84,5.55,5.55,0,0,0,1.44-2.59l.49.11a5.92,5.92,0,0,1-1.57,2.84,12.26,12.26,0,0,1-1,.89Z"/><path class="blc2-2-ani_5" d="M350.66,510.79l-.29-.43a8.23,8.23,0,0,0,3.05-3.75l.48.18A8.88,8.88,0,0,1,350.66,510.79Z"/><polygon class="blc2-2-ani_5" points="364.26 507.88 363.76 507.78 364.11 506.02 364.61 506.12 364.26 507.88"/><path class="blc2-2-ani_5" d="M388.66,508.1l-.51,0a15.45,15.45,0,0,0-.45-4.88l.5-.12A16.11,16.11,0,0,1,388.66,508.1Z"/><path class="blc2-2-ani_5" d="M395.76,507.13l-.5-.11a8.66,8.66,0,0,0,.1-3.17l.5-.08A9.26,9.26,0,0,1,395.76,507.13Z"/><path class="blc2-2-ani_5" d="M404.31,505.67l-.51-.06a6.7,6.7,0,0,0-.26-2.78l.49-.15A7.2,7.2,0,0,1,404.31,505.67Z"/><path class="blc2-2-ani_5" d="M408.39,503.57h-.51a12,12,0,0,0-.08-1.47l.51-.06A13.13,13.13,0,0,1,408.39,503.57Z"/><path class="blc2-2-ani_5" d="M412.84,501.75h-.51a5.5,5.5,0,0,0-.07-1.08l.5-.08A5.08,5.08,0,0,1,412.84,501.75Z"/><path class="blc2-2-ani_5" d="M373.91,512.06l-.49-.14a11.07,11.07,0,0,0,.35-3.67l.51,0A11.59,11.59,0,0,1,373.91,512.06Z"/><path class="blc2-2-ani_5" d="M328.26,496.41,328,496a10,10,0,0,0,1.94-1.9l.4.31A10.39,10.39,0,0,1,328.26,496.41Z"/><path class="blc2-2-ani_5" d="M311.35,477h-.08v-.51a5.41,5.41,0,0,0,2.4-.49l.21.46A6.12,6.12,0,0,1,311.35,477Z"/><path class="blc2-2-ani_5" d="M301,436a5.35,5.35,0,0,1-1.2-.91l.36-.36a4.87,4.87,0,0,0,1.09.82Z"/><path class="blc2-2-ani_5" d="M311.56,387.78l-.47-.89c1.81-.95,5.17-4.43,5.21-4.47l.72.7C316.88,383.27,313.51,386.75,311.56,387.78Z"/><ellipse class="blc2-2-ani_16" cx="391.01" cy="457.05" rx="8.12" ry="1.76" transform="translate(-110.38 124.8) rotate(-15.92)"/><ellipse class="blc2-2-ani_16" cx="357.41" cy="453.3" rx="7.94" ry="1.81" transform="matrix(1, -0.02, 0.02, 1, -10.93, 8.83)"/><ellipse class="blc2-2-ani_6" cx="372.99" cy="460.35" rx="5.68" ry="1.28" transform="translate(-48.66 44.11) rotate(-6.35)"/><ellipse class="blc2-2-ani_6" cx="376.99" cy="453.26" rx="5.68" ry="1.28" transform="translate(-47.85 44.51) rotate(-6.35)"/><ellipse class="blc2-2-ani_6" cx="346.09" cy="459.17" rx="0.73" ry="3.18" transform="matrix(0.17, -0.99, 0.99, 0.17, -164.72, 723.16)"/><ellipse class="blc2-2-ani_6" cx="342.33" cy="453.82" rx="0.73" ry="3.17" transform="translate(-155.47 728.29) rotate(-81.84)"/><ellipse class="blc2-2-ani_6" cx="327.16" cy="442.26" rx="0.56" ry="3.46" transform="translate(-222.54 420.8) rotate(-51.27)"/><ellipse class="blc2-2-ani_16" cx="335.71" cy="448.39" rx="0.73" ry="3.17" transform="translate(-180.4 666.07) rotate(-76.05)"/><ellipse class="blc2-2-ani_6" cx="357.64" cy="460.36" rx="0.73" ry="3.18" transform="translate(-105.3 814.65) rotate(-89.58)"/><ellipse class="blc2-2-ani_6" cx="403.44" cy="448.39" rx="3.32" ry="0.69" transform="translate(-137.5 181.56) rotate(-21.77)"/><ellipse class="blc2-2-ani_6" cx="388.22" cy="449.68" rx="3.24" ry="0.71" transform="translate(-79.51 83.41) rotate(-11.13)"/><ellipse class="blc2-2-ani_6" cx="415.55" cy="448.84" rx="3.23" ry="0.49" transform="translate(-132.95 178.13) rotate(-20.94)"/><ellipse class="blc2-2-ani_6" cx="327.35" cy="447.55" rx="0.81" ry="3.22" transform="translate(-227.11 453.4) rotate(-54.42)"/><circle class="blc2-2-ani_17" cx="697.99" cy="637.63" r="6.13"/><circle class="blc2-2-ani_5" cx="615.49" cy="656.16" r="3.07"/><circle class="blc2-2-ani_17" cx="642.38" cy="747.34" r="3.07"/><circle class="blc2-2-ani_5" cx="394.24" cy="663.01" r="3.07"/><circle class="blc2-2-ani_17" cx="328.28" cy="673.37" r="3.07"/><circle class="blc2-2-ani_5" cx="748.92" cy="693.64" r="3.07"/><path class="blc2-2-ani_12" d="M684.38,727.24s29.73-.45,30-6.74c.21-4.89-18.1-1.5-18.1-1.5s20.08-5.19,29.45-9.73a16.27,16.27,0,0,0,5.63-3.86c1.48-1.79,2.2-4.48,1.13-6.57-1.44-2.82-5.13-3.2-8.19-2.94-12.28,1-21.13,7.5-32.35,12.8a100.45,100.45,0,0,0,22.53-15c6.39-5.5,13.78-10.6,18.18-18.12,2.76-4.71,4.06-11.79-.36-15.94-4.27-4-10.69-2.5-15.61-.92a64.07,64.07,0,0,0-33,25.06,118.87,118.87,0,0,0,5.18-17.18c.52-2.37.79-5.29-1.05-6.78-2.37-1.93-5.73.38-7.72,2.73a60.4,60.4,0,0,0-11,19.54c2.11-16.19,4.22-32.7,1.44-48.78-.63-3.67-1.56-7.39-3.63-10.44s-5.47-5.32-9-5.06c-3.38.24-6.25,2.62-8.61,5.16a49.92,49.92,0,0,0-13,30.63,50.44,50.44,0,0,0,9.14,32.11,65.26,65.26,0,0,0-11.74-10.86c-1-.7-2.42-1.32-3.2-.41a2.51,2.51,0,0,0-.39,1.81c.39,7.76,5.11,14.44,9.64,20.61a47.33,47.33,0,0,0-38.94-18.73c-1.79.07-3.83.4-4.8,2a5.31,5.31,0,0,0-.56,3.13c.49,7.79,6.83,13.68,13.13,17.89,5.29,3.54,10.9,6.54,16.49,9.55a43.84,43.84,0,0,0-9.83-.77,2.65,2.65,0,0,0-2.08.71c-.9,1.14.25,2.78,1.37,3.7,8,6.54,19.12,12.6,29.27,12.2Z"/><path class="blc2-2-ani_17" d="M700.39,691.68a168.59,168.59,0,0,0-18.31,14.17c-5.66,5.19-12,11.41-15.85,18.06l-.4-1.3a76.5,76.5,0,0,1,14.61-18.51,169.79,169.79,0,0,1,18.27-14.8Z"/><path class="blc2-2-ani_17" d="M673.81,694.93a74.06,74.06,0,0,0-6.21,28.14h-1.89a76.59,76.59,0,0,1,5.41-29.26Z"/><path class="blc2-2-ani_17" d="M662.71,673.67a84,84,0,0,0-.5,12.29,118.77,118.77,0,0,0,1.06,12.33c1.11,8.22,2.83,16.38,4.31,24.6l-1.85.36c-1.65-8.16-3.54-16.3-4.83-24.61a122.55,122.55,0,0,1-1.35-12.57,86.91,86.91,0,0,1,.26-12.7Z"/><path class="blc2-2-ani_17" d="M647,697.12c1.4,2.24,3,4.43,4.62,6.58s3.33,4.26,5.07,6.36c3.46,4.18,7,8.28,10.65,12.37L666,723.7c-3.74-4-7.47-8-11.09-12.08-1.81-2.06-3.6-4.14-5.34-6.27s-3.42-4.33-5-6.67Z"/><path class="blc2-2-ani_17" d="M698,712.87c-5.28,2.09-10.7,3.27-16,4.74a74.2,74.2,0,0,0-7.73,2.51,43.44,43.44,0,0,0-8.07,3.79l-.13-1.61a37.56,37.56,0,0,1,7.38-4.16,76.32,76.32,0,0,1,7.87-2.84c5.29-1.65,10.61-3,15.52-5.13Z"/><path class="blc2-2-ani_17" d="M638.58,706.19c2.2,1.51,4.53,2.93,6.88,4.3s4.73,2.72,7.12,4c4.79,2.63,9.64,5.18,14.5,7.7l-.85,1.69c-4.94-2.37-9.87-4.77-14.77-7.26-2.45-1.25-4.89-2.52-7.31-3.84s-4.83-2.68-7.19-4.19Z"/><circle class="blc2-2-ani_17" cx="707.72" cy="707.98" r="2.17"/><circle class="blc2-2-ani_17" cx="706.7" cy="685.56" r="2.17"/><circle class="blc2-2-ani_17" cx="675.98" cy="686.58" r="2.17"/><circle class="blc2-2-ani_17" cx="661.61" cy="665.19" r="2.17"/><circle class="blc2-2-ani_17" cx="642.38" cy="691.47" r="2.17"/><circle class="blc2-2-ani_17" cx="628.26" cy="702.13" r="2.17"/><path class="blc2-2-ani_18" d="M384.88,729.1s23.83-.36,24.05-5.4c.17-3.92-14.5-1.21-14.5-1.21s16.09-4.15,23.59-7.79a12.83,12.83,0,0,0,4.51-3.09,5,5,0,0,0,.91-5.26c-1.15-2.27-4.12-2.57-6.57-2.36-9.83.83-16.92,6-25.91,10.26a80.64,80.64,0,0,0,18.05-12c5.12-4.41,11-8.49,14.56-14.52,2.22-3.77,3.25-9.44-.28-12.77s-8.57-2-12.51-.73a51.26,51.26,0,0,0-26.45,20.08,95.31,95.31,0,0,0,4.14-13.77c.42-1.9.63-4.24-.83-5.43-1.91-1.55-4.59.3-6.19,2.19A48.45,48.45,0,0,0,372.6,693c1.7-13,3.39-26.2,1.16-39.08a21.28,21.28,0,0,0-2.91-8.36c-1.65-2.44-4.38-4.27-7.24-4.06s-5,2.1-6.9,4.13a40,40,0,0,0-10.4,24.55,40.42,40.42,0,0,0,7.32,25.72,52.11,52.11,0,0,0-9.41-8.71c-.77-.55-1.93-1-2.56-.32a2.05,2.05,0,0,0-.31,1.45c.31,6.21,4.09,11.57,7.72,16.51a37.89,37.89,0,0,0-31.19-15c-1.44.06-3.07.32-3.85,1.58a4.3,4.3,0,0,0-.45,2.51c.4,6.24,5.48,11,10.52,14.33,4.24,2.83,8.73,5.24,13.21,7.65a35.84,35.84,0,0,0-7.87-.62,2.11,2.11,0,0,0-1.67.58c-.72.91.2,2.23,1.1,3,6.4,5.24,15.32,10.1,23.45,9.78Z"/><path class="blc2-2-ani_17" d="M381.49,722c-5.16,0-13.12.65-13.13,1.6s7.94,1.8,13.1,1.85,5.58-.72,5.59-1.67S386.65,722.06,381.49,722Z"/><path class="blc2-2-ani_17" d="M366,740.6c0-5.16-.65-13.12-1.6-13.13s-1.81,7.94-1.85,13.1.72,5.59,1.67,5.59S366,745.77,366,740.6Z"/><path class="blc2-2-ani_17" d="M351.33,712.66c3.61,3.68,9.74,8.82,10.42,8.15s-4.34-6.89-7.95-10.57-4.46-3.44-5.14-2.77S347.71,709,351.33,712.66Z"/><path class="blc2-2-ani_17" d="M377.62,734.51c-3.62-3.68-9.74-8.82-10.42-8.15s4.33,6.89,7.95,10.57,4.46,3.44,5.14,2.77S381.23,738.19,377.62,734.51Z"/><path class="blc2-2-ani_17" d="M353.55,736.73c3.68-3.62,8.82-9.74,8.15-10.42s-6.89,4.34-10.57,8-3.44,4.46-2.77,5.14S349.86,740.34,353.55,736.73Z"/><path class="blc2-2-ani_17" d="M375.4,710.44c-3.69,3.62-8.82,9.74-8.15,10.42s6.88-4.34,10.57-8,3.44-4.46,2.77-5.14S379.08,706.83,375.4,710.44Z"/><path class="blc2-2-ani_17" d="M347.45,725.15c5.16.05,13.13-.65,13.13-1.6s-7.93-1.8-13.09-1.85-5.59.72-5.6,1.67S342.29,725.11,347.45,725.15Z"/><path class="blc2-2-ani_17" d="M362.9,706.57c0,5.16.65,13.12,1.61,13.13s1.8-7.94,1.85-13.1-.72-5.58-1.68-5.59S363,701.4,362.9,706.57Z"/><path class="blc2-2-ani_5" d="M579.37,696.25a27,27,0,0,1,1.51-4.7,19.93,19.93,0,0,1,2.68-4.28l2,1.78a17.41,17.41,0,0,0-2.73,3.5,25.14,25.14,0,0,0-1.83,4.19Z"/><path class="blc2-2-ani_5" d="M570.9,694.5a50.07,50.07,0,0,0-.53-9.8l2.69-.28a52.23,52.23,0,0,1-.42,10.24Z"/><path class="blc2-2-ani_5" d="M562.35,696.51a72.5,72.5,0,0,1-3.18-9.17l2.64-.58a69.55,69.55,0,0,0,2.19,9.15Z"/><path class="blc2-2-ani_17" d="M433,749.89a26.71,26.71,0,0,1,1.51-4.7,20.1,20.1,0,0,1,2.68-4.27l2,1.77a17.8,17.8,0,0,0-2.74,3.51,25.59,25.59,0,0,0-1.82,4.19Z"/><path class="blc2-2-ani_17" d="M424.53,748.15a49.44,49.44,0,0,0-.52-9.81l2.69-.28a51.54,51.54,0,0,1-.43,10.25Z"/><path class="blc2-2-ani_17" d="M416,750.16a73,73,0,0,1-3.18-9.17l2.64-.59a70.88,70.88,0,0,0,2.18,9.16Z"/><path class="blc2-2-ani_12" d="M249.65,661.14a27.34,27.34,0,0,1,1.52-4.7,19.47,19.47,0,0,1,2.68-4.27l2,1.77a17.46,17.46,0,0,0-2.74,3.5,25.12,25.12,0,0,0-1.82,4.19Z"/><path class="blc2-2-ani_12" d="M241.18,659.39a49.3,49.3,0,0,0-.52-9.8l2.69-.28a52.2,52.2,0,0,1-.43,10.24Z"/><path class="blc2-2-ani_12" d="M232.64,661.4a71,71,0,0,1-3.18-9.17l2.64-.58a69.51,69.51,0,0,0,2.18,9.15Z"/><path class="blc2-2-ani_17" d="M282.2,698.94a27.19,27.19,0,0,1,1.51-4.69,20.32,20.32,0,0,1,2.68-4.28l2,1.77a18.13,18.13,0,0,0-2.73,3.51,25.12,25.12,0,0,0-1.82,4.19Z"/><path class="blc2-2-ani_17" d="M273.73,697.2a50.85,50.85,0,0,0-.52-9.8l2.68-.28a52.23,52.23,0,0,1-.42,10.24Z"/><path class="blc2-2-ani_17" d="M265.19,699.21A71.48,71.48,0,0,1,262,690l2.63-.58a69.55,69.55,0,0,0,2.19,9.15Z"/><path class="blc2-2-ani_17" d="M752.83,738.7a27.34,27.34,0,0,1,1.52-4.7,19.47,19.47,0,0,1,2.68-4.27l2,1.77a17.77,17.77,0,0,0-2.73,3.5,25.12,25.12,0,0,0-1.82,4.19Z"/><path class="blc2-2-ani_17" d="M744.36,737a49.3,49.3,0,0,0-.52-9.8l2.69-.28a52.34,52.34,0,0,1-.43,10.25Z"/><path class="blc2-2-ani_17" d="M735.82,739a71,71,0,0,1-3.18-9.17l2.64-.58a69.51,69.51,0,0,0,2.18,9.15Z"/><path class="blc2-2-ani_19" d="M183.36,618.52c-4-3.37-10.6,1.64-15.3-.73-4.87-2.47-4.36-11.08-9.58-12.66-3.25-1-7.2,1.46-10.16.7-.07-4.25-.85-8.16-3.77-11.11-.9-1.23-4.25-3.54-8.66-3.53-12.35,0-13.46,8.08-14.4,11.16-3.11.23-6.5-3.13-9.94-2.87-5.44.41-6.8,8.93-12.09,10.28-5.1,1.31-10.43-5-15.1-2.58-3.15,1.63-3.45,6.06-5.81,8.7-2,2.2-5.09,2.89-8,3.13s-6,.2-8.68,1.38l-.08,0a3.64,3.64,0,0,0,.67,6.83h118.8a4.25,4.25,0,0,0,4.09-5.4A6.43,6.43,0,0,0,183.36,618.52Z"/></svg>
