<svg id="Layer_1" data-name="Layer 1" xmlns="http://www.w3.org/2000/svg" xmlns:xlink="http://www.w3.org/1999/xlink" viewBox="0 0 925.32 805.12"><defs><style>.blc2-2-3_1,.blc2-2-3_11,.blc2-2-3_13,.blc2-2-3_16,.blc2-2-3_17,.blc2-2-3_18,.blc2-2-3_19{fill:none;}.blc2-2-3_2{fill:#367d75;}.blc2-2-3_3{fill:url(#linear-gradient);}.blc2-2-3_4{fill:url(#lgblc2-2-3_2);}.blc2-2-3_5{fill:#9fa851;}.blc2-2-3_6{fill:url(#lgblc2-2-3_3);}.blc2-2-3_7{fill:url(#lgblc2-2-3_4);}.blc2-2-3_8{fill:url(#lgblc2-2-3_5);}.blc2-2-3_9{clip-path:url(#cblc2-2-3);}.blc2-2-3_10{fill:#fff;}.blc2-2-3_11,.blc2-2-3_13,.blc2-2-3_17,.blc2-2-3_18,.blc2-2-3_19{stroke:#fff;}.blc2-2-3_11,.blc2-2-3_17,.blc2-2-3_18{stroke-linecap:round;stroke-linejoin:round;}.blc2-2-3_11{stroke-width:13.7px;}.blc2-2-3_12{fill:#304a63;}.blc2-2-3_13,.blc2-2-3_16,.blc2-2-3_19{stroke-miterlimit:10;}.blc2-2-3_13{stroke-width:1.14px;}.blc2-2-3_14{fill:#5ea7a2;}.blc2-2-3_15{fill:#e6b034;}.blc2-2-3_16{stroke:#5ea7a2;stroke-width:1.08px;}.blc2-2-3_17,.blc2-2-3_18{stroke-width:2.16px;}.blc2-2-3_18{stroke-dasharray:0 10.72;}.blc2-2-3_19{stroke-width:1.71px;}</style><linearGradient id="linear-gradient" x1="303.39" y1="633.99" x2="316.83" y2="506.29" gradientUnits="userSpaceOnUse"><stop offset="0" stop-color="#3b6660" stop-opacity="0"/><stop offset="0.64" stop-color="#9fa851"/></linearGradient><linearGradient id="lgblc2-2-3_2" x1="369.76" y1="531.81" x2="379.76" y2="436.81" xlink:href="#linear-gradient"/><linearGradient id="lgblc2-2-3_3" x1="551.01" y1="646.56" x2="551.32" y2="688.91" gradientUnits="userSpaceOnUse"><stop offset="0" stop-color="#3b6660" stop-opacity="0"/><stop offset="1" stop-color="#305051"/></linearGradient><linearGradient id="lgblc2-2-3_4" x1="669.95" y1="589.91" x2="670.71" y2="547.89" xlink:href="#lgblc2-2-3_3"/><linearGradient id="lgblc2-2-3_5" x1="671.31" y1="521.46" x2="671.86" y2="491.02" xlink:href="#lgblc2-2-3_3"/><clipPath id="cblc2-2-3"><path class="blc2-2-3_1" d="M486.94,227.94c34-.46,34,2.76,68,2.37s34,2,67.94,1.68c26.57,0,37.42,8.41,45.62,24.29,7.84,15.17,9.24,33.67,9.24,55.94.3,29.65,5.9,29.58,6.32,59.23s1.85,29.62,2.28,59.26-1.13,29.67-.71,59.31-3.56,29.7-3.14,59.35,2.39,29.61,2.71,59.26c0,20-1.18,38.33-3.52,53.52-3.66,23.71-10,36.18-27.7,36.18-29.84,0-29.84,7.31-59.67,7.31s-29.84-1.54-59.67-1.54-29.84-7.05-59.67-7.05c-41.71,0-52.25-18.76-52.25-47.49,0-27.36-3.86-27.36-3.86-54.71s0-27.35,0-54.7-.1-27.36-.1-54.71,2.05-27.35,2.05-54.71,3.17-27.35,3.17-54.71-4.76-27.36-4.76-54.71c0-24.62,1.89-48.17,10.82-64.31C439.64,239.49,459.46,228.45,486.94,227.94Z"/></clipPath></defs><title>30</title><rect class="blc2-2-3_2" x="-1.01" width="926.33" height="805.12"/><path class="blc2-2-3_3" d="M421.72,614.75c-7.8-6.5-20.46,3.16-29.53-1.43-9.39-4.74-8.41-21.37-18.48-24.41-6.27-1.89-13.88,2.82-19.6,1.36-.13-8.21-1.64-15.75-7.26-21.44-1.75-2.37-8.2-6.83-16.72-6.82-23.82,0-26,15.6-27.79,21.54-6,.45-12.52-6-19.17-5.54-10.49.79-13.13,17.23-23.32,19.84-9.85,2.52-20.12-9.65-29.14-5-6.08,3.14-6.65,11.69-11.2,16.8-3.78,4.24-9.83,5.56-15.49,6s-11.55.38-16.75,2.66l-.16.07c-6.29,2.85-4.83,11.78,1.3,13.18H417.6a8.2,8.2,0,0,0,7.9-10.42A12.56,12.56,0,0,0,421.72,614.75Z"/><path class="blc2-2-3_4" d="M457.79,517.5c-5.8-4.84-15.22,2.34-22-1.07-7-3.53-6.25-15.9-13.75-18.16-4.66-1.4-10.32,2.1-14.58,1-.09-6.1-1.21-11.71-5.4-15.94-1.3-1.77-6.1-5.08-12.44-5.08-17.72,0-19.31,11.6-20.67,16-4.45.34-9.31-4.49-14.26-4.12-7.81.59-9.76,12.82-17.35,14.76-7.32,1.87-15-7.18-21.68-3.71-4.51,2.34-4.94,8.7-8.33,12.49-2.81,3.16-7.31,4.14-11.52,4.49s-8.59.28-12.46,2l-.12.05c-4.68,2.12-3.6,8.77,1,9.81H454.72a6.09,6.09,0,0,0,5.88-7.75A9.26,9.26,0,0,0,457.79,517.5Z"/><path class="blc2-2-3_5" d="M486.94,227.94c34-.46,34,2.76,68,2.37s34,2,67.94,1.68c26.57,0,37.42,8.41,45.62,24.29,7.84,15.17,9.24,33.67,9.24,55.94.3,29.65,5.9,29.58,6.32,59.23s1.85,29.62,2.28,59.26-1.13,29.67-.71,59.31-3.56,29.7-3.14,59.35,2.39,29.61,2.71,59.26c0,20-1.18,38.33-3.52,53.52-3.66,23.71-10,36.18-27.7,36.18-29.84,0-29.84,7.31-59.67,7.31s-29.84-1.54-59.67-1.54-29.84-7.05-59.67-7.05c-41.71,0-52.25-18.76-52.25-47.49,0-27.36-3.86-27.36-3.86-54.71s0-27.35,0-54.7-.1-27.36-.1-54.71,2.05-27.35,2.05-54.71,3.17-27.35,3.17-54.71-4.76-27.36-4.76-54.71c0-24.62,1.89-48.17,10.82-64.31C439.64,239.49,459.46,228.45,486.94,227.94Z"/><path class="blc2-2-3_6" d="M610.93,666.3c1.2-.24,2.63-.7,2.89-1.89s-1.14-2.39-2.45-2.73-2.81-.39-3.77-1.34l37.8-3.15c2.72-.23,5.85-.69,7.3-3-4.28-2.7-9.49-3.32-14.51-3.87l-22.58-2.5a5.19,5.19,0,0,1,4-2.78c-3.28-3.66-8.78-4.06-13.69-4.19q-64.12-1.73-128.28-.63c-7.82.14-15.74.32-23.28,2.43-2.38.67-5.18,2.23-4.93,4.69l19.09,4.37c1.71.4,3.88,1.5,3.42,3.19-.28,1-1.36,1.47-2.32,1.83l-7.11,2.65c-.76.28-1.62.68-1.81,1.46-.27,1.16,1.08,2,2.2,2.37,8.95,3,18.58,3.12,28,3.23q27,.31,54,1.08a5.57,5.57,0,0,1,3,.66,1.93,1.93,0,0,1,.67,2.67c-.61.73-1.77.69-2.48,1.32-1,.84-.58,2.53.42,3.32a6.23,6.23,0,0,0,3.64,1c5.24.24,11.24.4,16.24-1.46,3.13-1.17,5.62-3.53,8.78-4.62,5.06-1.74,11.09-1,16.37-1.43A176.12,176.12,0,0,0,610.93,666.3Z"/><path class="blc2-2-3_7" d="M740.63,576.5c-4.7-3.91-12.31,1.9-17.76-.86-5.65-2.86-5.06-12.85-11.12-14.68-3.77-1.14-8.35,1.7-11.78.82-.08-4.94-1-9.47-4.37-12.9-1.05-1.42-4.93-4.1-10.06-4.1-14.32,0-15.61,9.38-16.71,13-3.6.27-7.53-3.63-11.52-3.33-6.32.48-7.9,10.37-14,11.93-5.92,1.52-12.1-5.8-17.53-3-3.65,1.88-4,7-6.73,10.09-2.27,2.55-5.91,3.35-9.32,3.63s-6.94.23-10.07,1.6l-.09,0a4.22,4.22,0,0,0,.78,7.93H738.14a4.93,4.93,0,0,0,4.75-6.27A7.44,7.44,0,0,0,740.63,576.5Z"/><path class="blc2-2-3_8" d="M722.51,511.74c-3.4-2.83-8.92,1.38-12.87-.62s-3.66-9.31-8-10.64c-2.73-.82-6.05,1.23-8.54.59,0-3.57-.71-6.85-3.16-9.34a9.9,9.9,0,0,0-7.29-3c-10.37,0-11.31,6.8-12.1,9.39-2.61.19-5.46-2.64-8.35-2.42-4.58.35-5.72,7.51-10.17,8.65-4.28,1.09-8.76-4.21-12.69-2.18-2.65,1.37-2.9,5.1-4.88,7.32-1.65,1.85-4.28,2.42-6.75,2.63s-5,.16-7.3,1.16l-.06,0a3.06,3.06,0,0,0,.56,5.74h99.85a3.56,3.56,0,0,0,3.44-4.54A5.4,5.4,0,0,0,722.51,511.74Z"/><g class="blc2-2-3_9"><path class="blc2-2-3_10" d="M237.06,613.3l-1.65-2.89-14.66,11.18,9.78,18.61a8.65,8.65,0,0,0,5.52,4.34l35,8.75a1.47,1.47,0,0,0,1.6-2.2l-4.36-7a6,6,0,0,0-3.66-2.67l-20.76-5.18a6.78,6.78,0,0,1-4.59-3.93l-6.72-15.95Z"/><path class="blc2-2-3_10" d="M370.78,663.06l5,5.12a11.66,11.66,0,0,0,5.52,3.13L416.79,680a6,6,0,0,1,3.28,2.1l5.56,7a.83.83,0,0,1-.85,1.33l-74.6-18.35.12-13.61Z"/><path class="blc2-2-3_10" d="M501.58,651.2,516.21,646l5.95,6,25.28,1a8.56,8.56,0,0,1,5,1.89l5.21,4.21a1.79,1.79,0,0,1-1.19,3.19l-47.73-1.89Z"/><path class="blc2-2-3_10" d="M543.26,621.93l4.63-11.49,34.76,1.39,16.07,23.58a1.09,1.09,0,0,1-.93,1.72l-9.62-.38a5.26,5.26,0,0,1-4.06-2.17l-6.59-9.07a6.9,6.9,0,0,0-5.42-2.85Z"/><path class="blc2-2-3_11" d="M255.38,437.48c-14.49-14.93-29.88-25.59-39.72-43.92-11-20.46-15.29-42.18-4.84-60.16,2.71-4.66,10.1-11.64,18.09-16.17,5.55-3.14,16.38-7.55,22.72-8.28a147,147,0,0,1,70.52,9.32c11.79,4.67,22.94,10.85,34.76,15.45,34.16,13.29,66.26,19.64,100,5.24,11.46-4.89,22.81-15.79,27.87-22.87,7.44-10.42,7.84-23.84,2.64-32.14,0,0-9.7-21.32-50-12.84"/><path class="blc2-2-3_12" d="M227.63,634.68c18.82-17.45,40.58-34.87,59.4-52.31,10-9.3,20.22-18.8,27-30.71,4-7.1,6.75-15.4,5.16-23.4-1.33-6.69-5.59-12.84-5.22-19.65.42-7.63,6.8-13.89,14-16.5s15-2.3,22.67-1.85c36,2.16,87.16-.1,122.53,7.11l-18.26,83.3,88.43,41.26,4.63-11.49-47-36a18.52,18.52,0,0,1-6.17-21l34.36-95.63L496.8,398.49c-16.4,12.87-39.82,9.18-60.3,5.28-37.75-7.18-75.83-12.85-114.16-15.48-9.43-.65-19.16-1.08-28.09,2C285,393.55,271.94,401.8,265,408.75c-11.15,11.22-16.18,22.55-19.71,38-4.32,18.87,2.45,38.36,9.78,56.27q9,22,19.41,43.42c1.4,2.89,2.86,6,2.54,9.18-.36,3.58-2.86,6.53-5.28,9.2-18.86,20.86-28.78,32.57-49.53,49.3a5.93,5.93,0,0,0-1.54,7.38Z"/><path class="blc2-2-3_13" d="M529.82,521.67l-9-10.08a4.63,4.63,0,0,1,.41-6.61l10.3-9,9,10.12a4.63,4.63,0,0,1-.42,6.62Z"/><path class="blc2-2-3_14" d="M530.3,514.5l-4-4.44a2,2,0,0,1,.18-2.92l4.55-3.95,4,4.46a2,2,0,0,1-.19,2.92Z"/><path class="blc2-2-3_12" d="M314.58,481.71l34.14,83.85A31.19,31.19,0,0,1,351,577.63l-.85,94.5,20.6-9.07,3.65-90.6a33.52,33.52,0,0,0-.52-7.35l-15.83-85.42"/><path class="blc2-2-3_12" d="M435.9,487.83l-2.66,67.45a22,22,0,0,0,4.63,14.38l70.91,90.75,10.85-11L468,562l8.15-80.53"/><path class="blc2-2-3_15" d="M525.2,595.67a16.45,16.45,0,0,1-9.54,12.76c-5,2.34-.64,9.72,4.32,7.39a24.22,24.22,0,0,0,13.47-17.88c.37-2.3-.59-4.57-3-5.26-2-.58-4.9.71-5.26,3Z"/><path class="blc2-2-3_15" d="M503.74,628.82a17,17,0,0,1-12.23,7c-5.44.47-5.49,9,0,8.56a26.36,26.36,0,0,0,19.62-11.2c3.21-4.49-4.21-8.77-7.39-4.32Z"/><path class="blc2-2-3_15" d="M371.47,634.33c-6,1.7-13.68,4.15-19-.41-4.17-3.56-10.26,2.47-6.05,6.05,8.05,6.87,17.88,5.31,27.35,2.62,5.29-1.51,3-9.77-2.27-8.26Z"/><path class="blc2-2-3_15" d="M243.07,590.68c.86,8.9,7.1,16.64,16.05,18.47,5.38,1.1,7.68-7.15,2.28-8.25-5-1-9.26-5-9.77-10.22-.52-5.43-9.09-5.49-8.56,0Z"/><path class="blc2-2-3_10" d="M331.58,490.43s16.48-21.11,29-25.44,26.09-4.72,39.34-4.09c15.41.72,62.26,10.91,76.66,22.48l-3.5,14S339.07,488,331.58,490.43Z"/><ellipse class="blc2-2-3_12" cx="382.37" cy="486.84" rx="1.62" ry="4.12" transform="translate(-119.15 849.73) rotate(-87.74)"/><path class="blc2-2-3_15" d="M452.25,255.66c-9.17-1.49-18.48,1.32-27.77,1.33a46.43,46.43,0,0,1-29.7-10.85c2.46,5.52,5.07,11.25,9.73,15.1,3.48,2.87,7.84,4.46,12.21,5.59-7-1-8.29,4.12-16.49,2.08,7,12.13,24.8,17,38.75,15.46,6.5-.72,12.52-3.65,18.7-5.78s12.56-3,19-1.11C475.74,266.09,462.54,257.33,452.25,255.66Z"/><ellipse class="blc2-2-3_13" cx="412.5" cy="410.53" rx="3.19" ry="17.26" transform="translate(-39.49 777.13) rotate(-83.91)"/><ellipse class="blc2-2-3_13" cx="340.01" cy="409.08" rx="3.19" ry="17.26" transform="translate(-102.84 703.76) rotate(-83.91)"/><ellipse class="blc2-2-3_10" cx="373.47" cy="402.56" rx="2.27" ry="12.3" transform="translate(-66.45 731.2) rotate(-83.91)"/><ellipse class="blc2-2-3_10" cx="380.79" cy="417.4" rx="2.27" ry="12.3" transform="translate(-74.66 751.75) rotate(-83.91)"/><ellipse class="blc2-2-3_10" cx="316.09" cy="398.28" rx="1.28" ry="6.94" transform="translate(-113.48 670.32) rotate(-83.91)"/><ellipse class="blc2-2-3_10" cx="354.38" cy="424.58" rx="1.28" ry="6.94" transform="translate(-105.41 731.9) rotate(-83.91)"/><ellipse class="blc2-2-3_10" cx="343.04" cy="397.91" rx="1.28" ry="6.94" transform="translate(-89.03 696.78) rotate(-83.91)"/><ellipse class="blc2-2-3_10" cx="439.73" cy="419.72" rx="1.28" ry="6.94" transform="translate(-24.29 812.43) rotate(-83.91)"/><ellipse class="blc2-2-3_10" cx="410.97" cy="427.64" rx="1.28" ry="6.94" transform="translate(-57.87 790.91) rotate(-83.91)"/><polygon class="blc2-2-3_15" points="492.5 595.96 497.93 599.44 496.94 601.42 490.9 598.99 492.5 595.96"/><path class="blc2-2-3_15" d="M483.56,464.47c-2.63,11.92-5.39,23.74-8.12,35.59l-8.2,35.54-4.07,17.78-2,8.88a35.57,35.57,0,0,0-1.13,8.65,12.25,12.25,0,0,0,.77,4,15.63,15.63,0,0,0,2.12,3.57,22.86,22.86,0,0,0,6.43,5.64l8,4.3,8,4.42-1,1.95-8.08-4.21-4-2.07-2-1-1-.51c-.35-.19-.71-.37-1.06-.57a25.61,25.61,0,0,1-7.28-6.24,18.52,18.52,0,0,1-2.55-4.22,15.11,15.11,0,0,1-1-4.91,38,38,0,0,1,1.09-9.4l2-8.92,4-17.8,8-35.58c2.67-11.86,5.38-23.73,7.94-35.57Z"/><path class="blc2-2-3_15" d="M349.82,492l-7.63-.23a66.16,66.16,0,0,0-7.45,0A26.2,26.2,0,0,0,321.5,497a16.55,16.55,0,0,0-2.49,2.46,15.22,15.22,0,0,0-1.82,2.95,17.83,17.83,0,0,0-1.36,6.92,28.78,28.78,0,0,0,.88,7.25,31.43,31.43,0,0,0,2.56,6.88l-1.95,1.05a33.59,33.59,0,0,1-2.9-7.34,30.78,30.78,0,0,1-1.1-7.84,20.31,20.31,0,0,1,1.42-8,17.37,17.37,0,0,1,2.11-3.58,19.49,19.49,0,0,1,2.86-3,25.56,25.56,0,0,1,7-4.07,28.15,28.15,0,0,1,3.8-1.25,25.79,25.79,0,0,1,4-.76,66.45,66.45,0,0,1,7.81-.16l7.64.08Z"/><path class="blc2-2-3_15" d="M612.2,434.67c-5.9-2.29-11.82-5.25-15.64-10.29s-4.9-12.64-1-17.6a71.21,71.21,0,0,1-19-9.21c-3.4-2.34-6.78-5.24-7.86-9.22a13,13,0,0,1-.22-5.28c1.2-8.34,8.26-15.11,16.35-17.46,7.93-2.31,16.58-.88,24.15,2.45,2.79,13.38,3.48,14.21,14.77,18.31,14,5.1,29.16,20.44,19.09,35.64a74.15,74.15,0,0,1-13.27,15C623.91,438.53,617.76,436.82,612.2,434.67Z"/><path class="blc2-2-3_12" d="M578.73,329.29a30.59,30.59,0,0,1,14.59,5.57l-3.83-2.07c-16.26,6.78-26.56,23.15-32.37,39.79-5,14.28-7.12,31.22,1.46,43.68,4.38,6.36,11,10.74,17.56,14.83,11.23,7,22.9,13.8,35.65,17.28-7.55,3.32-105.4,38.24-134-35.17C477.79,413.2,444.32,317.23,578.73,329.29Z"/><path class="blc2-2-3_10" d="M557.12,372.58c5.81-16.64,16.11-33,32.37-39.79l3.83,2.07c5.36,3.81,10.7,10.21,13.11,21,1.12,5,1.92,9,2.6,12.22-7.57-3.33-16.22-4.76-24.15-2.45-8.09,2.35-15.15,9.12-16.35,17.46a13,13,0,0,0,.22,5.28c1.08,4,4.46,6.88,7.86,9.22a71.21,71.21,0,0,0,19,9.21c-3.92,5-2.84,12.56,1,17.6s9.74,8,15.64,10.29c5.56,2.15,11.71,3.86,17.42,2.38a70.77,70.77,0,0,1-17.83,11.32c-12.75-3.48-24.42-10.24-35.65-17.28-6.54-4.09-13.18-8.47-17.56-14.83C550,403.8,552.12,386.86,557.12,372.58Z"/><path class="blc2-2-3_12" d="M644.35,411.05a12.25,12.25,0,0,1-4.65,3.74,10.14,10.14,0,0,1-2.9,1,16.81,16.81,0,0,1-3,.19,34.31,34.31,0,0,1-11.42-2.08l.81-2.13a32.18,32.18,0,0,0,10.66,2.32,14.64,14.64,0,0,0,2.66-.07,8.28,8.28,0,0,0,2.46-.75,10.65,10.65,0,0,0,4.2-3.11Z"/><path class="blc2-2-3_16" d="M504.73,361.09q-2-1.81-4.24-3.49"/><path class="blc2-2-3_16" d="M521.37,383.08A77,77,0,0,0,507,363.17"/><path class="blc2-2-3_16" d="M504.62,383.05c-3-2.56-5.88-4.13-17.14-8.34"/><path class="blc2-2-3_16" d="M513.28,389.55c-1.08-.91-5.08-3.3-5.87-4"/><path class="blc2-2-3_16" d="M487,394.32a21.68,21.68,0,0,0-4.54.6"/><path class="blc2-2-3_16" d="M510.37,398.69c-4.7-1.58-15.17-4.1-20.37-4.35"/><path class="blc2-2-3_16" d="M508.46,408.86c-4.17-.58-11.12.17-15.25,2.13"/><path class="blc2-2-3_16" d="M514.52,419c-1.26.63-8,4.31-9.94,5.61"/><path class="blc2-2-3_16" d="M520.25,431.52c-1.33,2.51-3.29,6.27-5.5,10.11"/><path class="blc2-2-3_16" d="M529.33,447.12c-.19.78-.37,1.57-.54,2.35"/><path class="blc2-2-3_16" d="M532.12,437.77q-1.27,3.62-2.26,7.32"/><path class="blc2-2-3_16" d="M544,438.72l.37,12.63"/><path class="blc2-2-3_16" d="M554.73,435.24a152.56,152.56,0,0,0,8.38,16.16"/><path class="blc2-2-3_16" d="M574.11,441.32q2.58,2.25,5.26,4.38"/><path class="blc2-2-3_16" d="M565.82,433.53q2.5,2.54,5.12,5"/><path class="blc2-2-3_16" d="M532.9,375.12a194,194,0,0,1-10.39-23.52"/><path class="blc2-2-3_16" d="M541.26,345.94c-.43-2.12-.78-4-1-5.59"/><path class="blc2-2-3_16" d="M546.24,372.82c-.31-5.61-2.63-15.65-4.35-23.81"/><path class="blc2-2-3_16" d="M554.92,358.32a89.56,89.56,0,0,0,4.48-20.52"/><path class="blc2-2-3_16" d="M499.19,389.25c-1.65-1.18-3.54-2.43-5.55-2.11"/><path class="blc2-2-3_16" d="M500,415.76a9.44,9.44,0,0,0-3.11,1.81"/><path class="blc2-2-3_16" d="M525.5,373.82a13.88,13.88,0,0,0-2-4.16"/><path class="blc2-2-3_16" d="M532.9,349.85a15.12,15.12,0,0,0-1.49-3.6"/><path class="blc2-2-3_16" d="M511.1,431.58a7.7,7.7,0,0,0-2.37,2.45"/><path class="blc2-2-3_16" d="M527.09,432.85l-1.62,3.38"/><path class="blc2-2-3_16" d="M550.25,441.18a11.68,11.68,0,0,0,1.58,5.44"/><path class="blc2-2-3_10" d="M527.56,457.34a41.42,41.42,0,0,1,6.16,19.19,49.56,49.56,0,0,1-.48,10.06,97.25,97.25,0,0,0-1,9.79l-1.48,0c0-3.37.47-6.69.81-10a48.12,48.12,0,0,0,.28-9.73,39.4,39.4,0,0,0-6.22-18.1Z"/><path class="blc2-2-3_12" d="M576.59,385.74c.75-.9,1.41-1.86,2.23-2.7a23.53,23.53,0,0,1,2.6-2.39,21.07,21.07,0,0,1,6.11-3.48,23.21,23.21,0,0,1,6.79-1.48l1.73-.06c.57,0,1.15,0,1.72.06a21.54,21.54,0,0,1,3.51.51l-.8,3.27a19.61,19.61,0,0,0-2.87-.26c-.49,0-1,0-1.48,0l-1.48.12a19.33,19.33,0,0,0-5.65,1.5,17.5,17.5,0,0,0-4.86,3.08,19.65,19.65,0,0,0-2,2.05c-.64.72-1.15,1.57-1.74,2.33Z"/><path class="blc2-2-3_12" d="M576.5,375.14c1-.5,2-1.09,3-1.5a21,21,0,0,1,3.19-1.08,20.32,20.32,0,0,1,6.68-.67,22.35,22.35,0,0,1,6.53,1.35,23.48,23.48,0,0,1,5.9,3.15l-1,1.33a22.1,22.1,0,0,0-5.47-2.75,21,21,0,0,0-6-1.1,18.54,18.54,0,0,0-6,.75,19.56,19.56,0,0,0-2.86,1c-.94.4-1.8,1-2.71,1.43Z"/><circle class="blc2-2-3_10" cx="541.77" cy="405.81" r="23.64" transform="translate(-126.36 297.22) rotate(-27.6)"/><circle class="blc2-2-3_12" cx="541.77" cy="405.81" r="12.48" transform="translate(-126.36 297.22) rotate(-27.6)"/><path class="blc2-2-3_15" d="M531.39,457.14c-5.73-10.49-19.54-15.62-29.07-22-10.3-6.85-19.93-15.53-23.27-27.85-1.44-5.32-9.7-3.06-8.25,2.27,3.15,11.62,11,20.81,20.33,28.06a178.85,178.85,0,0,0,16.21,10.79c5.73,3.52,13.31,6.89,16.65,13,2.64,4.84,10,.52,7.4-4.32Z"/><line class="blc2-2-3_17" x1="527.69" y1="459.3" x2="527.69" y2="459.3"/><path class="blc2-2-3_18" d="M520.37,451.63c-.5-.35-1-.68-1.51-1-8.71-5.73-18-10.63-26.15-17.12-6.75-5.37-12.8-12.07-16.1-19.95"/><line class="blc2-2-3_17" x1="474.93" y1="408.46" x2="474.93" y2="408.46"/><path class="blc2-2-3_15" d="M608.43,357.35c-6.66-4.78-14.54-9.89-23.15-8.5-4.3.7-7.74,3.13-11.31,5.43a44.05,44.05,0,0,1-13.23,5.85,61.2,61.2,0,0,1-28.23,0c-8.66-2-22-9.36-17.32-20.41,1.42-3.34-3.49-6.25-4.93-2.88-3.42,8-.37,16.78,6.24,22.24,7.42,6.14,18,7.81,27.32,8.29,9.88.51,20-1.07,28.84-5.63,5.28-2.73,9.87-7.62,16.22-7.38,6.17.24,11.85,4.5,16.67,8,3,2.14,5.84-2.81,2.88-4.93Z"/><path class="blc2-2-3_15" d="M516.12,333.54c-1.43,6.77,2.35,11.81,7.18,14.65a28.43,28.43,0,0,0,11.68,3.9c9.71.94,22.22-2.09,30.83-6.68,3.86-2.06,7.37-4.76,11.31-6.66s8.56-3,12.69-1.51a7.66,7.66,0,0,0,1.69.51c1.8.2,3.39-1.36,4-3.08a18,18,0,0,0,.45-5.39,23.84,23.84,0,0,1,4.41-13.22,49.15,49.15,0,0,0,5.57,16.31c2,3.59,5.39,8.82,6.13,12.86,1.48,8-1.19,15.34-3.21,16.81-1.83,1.33-10.21-7.64-12.23-8.58-4.78-2.23-6.38-4.84-11.46-3.41-8.85,2.48-15.55,10.22-24.47,12.45-5.18,1.3-10.64.61-15.89-.41s-11.87,1.42-16.84-.16c-4.74-1.5-7.79-7-11.69-10.08s-7.15-8.58-6.51-13.5a8,8,0,0,1,1.56-3.14Z"/><path class="blc2-2-3_19" d="M605.78,333.33a17.53,17.53,0,0,0,6.12,21.92"/><ellipse class="blc2-2-3_12" cx="627.55" cy="396.99" rx="1.57" ry="4.42" transform="translate(-90.91 584.7) rotate(-46.96)"/></g></svg>
