<svg xmlns="http://www.w3.org/2000/svg" xmlns:xlink="http://www.w3.org/1999/xlink" viewBox="0 0 1507.89 890.26"><defs><style>.bl-c1-2_1{isolation:isolate;}.bl-c1-2_2{fill:#367d75;}.bl-c1-2_3{fill:#9fa851;}.bl-c1-2_4{fill:url(#lgblc1-2);}.bl-c1-2_5{fill:url(#lgblc1-2_2);}.bl-c1-2_6{fill:url(#lgblc1-2_3);}.bl-c1-2_7{fill:url(#lgblc1-2_4);}.bl-c1-2_8{fill:url(#lgblc1-2_5);}.bl-c1-2_9{fill:url(#lgblc1-2_6);}.bl-c1-2_10{fill:url(#lgblc1-2_7);}.bl-c1-2_11{fill:#b9bbbd;mix-blend-mode:soft-light;}.bl-c1-2_12{fill:#b27438;}.bl-c1-2_13{fill:#e5af36;}.bl-c1-2_14{fill:#885532;}.bl-c1-2_15{fill:#2f5f5b;}</style><linearGradient id="lgblc1-2" x1="628.17" y1="570.87" x2="628.84" y2="662.2" gradientUnits="userSpaceOnUse"><stop offset="0" stop-color="#3b6660" stop-opacity="0"/><stop offset="1" stop-color="#305051"/></linearGradient><linearGradient id="lgblc1-2_2" x1="509.46" y1="531.05" x2="509.69" y2="563.7" xlink:href="#lgblc1-2"/><linearGradient id="lgblc1-2_3" x1="875.86" y1="542.44" x2="876.1" y2="575.08" xlink:href="#lgblc1-2"/><linearGradient id="lgblc1-2_4" x1="578.06" y1="416.06" x2="578.19" y2="433.51" xlink:href="#lgblc1-2"/><linearGradient id="lgblc1-2_5" x1="521.03" y1="436.57" x2="521.23" y2="464.34" xlink:href="#lgblc1-2"/><linearGradient id="lgblc1-2_6" x1="1987.54" y1="451.16" x2="1957.54" y2="395.57" gradientTransform="matrix(-1, 0.01, 0.01, 1, 2900.02, -20.32)" gradientUnits="userSpaceOnUse"><stop offset="0" stop-color="#4b8373"/><stop offset="1" stop-color="#305051"/></linearGradient><linearGradient id="lgblc1-2_7" x1="1862.54" y1="440.39" x2="1876.69" y2="351.8" xlink:href="#lgblc1-2_6"/></defs><title>7</title><g class="bl-c1-2_1"><g id="Layer_1" data-name="Layer 1"><path class="bl-c1-2_3" d="M1117.94,324.46c-49.91-.09-49.65,8.42-99,8.42-49.12,0-49.12-13.13-98.24-13.13s-49.12,15.69-98.24,15.69S773.31,337,724.19,337,675.08,317.88,626,317.88s-49.12,5.48-98.24,5.48c-29.36,0-41.17,2.89-56.42,5.22A45.8,45.8,0,0,0,437.14,353c-.58,1.17-1.13,2.34-1.64,3.5-14.72,33.73-16.15,69.68-16.66,105.06q-.94,65.71,1.74,131.4c.59,14.56,1.35,29.26,6.58,43.31a15.9,15.9,0,0,0,6.37,8.15c21.15.83,31,2.3,66.43,2.3,49.12,0,49.12,5.4,98.23,5.4s49.12-2,98.23-2,49.12-5.65,98.23-5.65S843.77,643,892.88,643s49.11,6,98.23,6c50.62,0,49.07-10.12,102.88-9.5,30.64.35,55.73-24,55.76-54.18,0-55.57,7.2-55.75,7.2-111.67,0-54.42,3.11-56,3.3-107.32C1160.33,343.34,1141.27,324.51,1117.94,324.46Z"/><path class="bl-c1-2_4" d="M757.39,613.43c2.59-.51,5.67-1.5,6.23-4.08.62-2.85-2.46-5.15-5.28-5.88s-6.06-.85-8.14-2.9l81.53-6.78c5.87-.49,12.61-1.48,15.73-6.48-9.21-5.8-20.45-7.14-31.27-8.34l-48.71-5.38a11.17,11.17,0,0,1,8.57-6c-7.08-7.9-18.93-8.76-29.54-9.05q-138.27-3.72-276.63-1.34c-16.87.29-34,.68-50.2,5.24-5.14,1.44-11.18,4.79-10.64,10.1L450.22,582c3.68.84,8.36,3.23,7.36,6.87-.59,2.13-2.93,3.18-5,3.95l-15.33,5.71c-1.64.61-3.49,1.46-3.9,3.15-.59,2.49,2.32,4.29,4.74,5.11,19.3,6.5,40.06,6.72,60.43,7q58.23.71,116.44,2.34c2.23.07,4.6.17,6.46,1.41s2.87,4,1.44,5.77-3.82,1.49-5.35,2.84c-2.07,1.81-1.24,5.46.92,7.16s5.09,2,7.83,2.09c11.32.53,24.26.86,35-3.15,6.75-2.51,12.12-7.6,18.94-10,10.92-3.76,23.92-2.17,35.31-3.09A378.11,378.11,0,0,0,757.39,613.43Z"/><path class="bl-c1-2_5" d="M555.64,546.27c.92-.18,2-.54,2.22-1.46S557,543,556,542.71s-2.17-.31-2.91-1l29.14-2.42c2.1-.18,4.5-.53,5.62-2.32-3.29-2.07-7.31-2.55-11.18-3L559.24,532a4,4,0,0,1,3.07-2.15c-2.53-2.82-6.77-3.13-10.56-3.23q-49.43-1.33-98.87-.48c-6,.1-12.13.24-17.94,1.87-1.83.52-4,1.72-3.8,3.61L445.86,535c1.31.3,3,1.15,2.63,2.45-.21.76-1.05,1.14-1.79,1.41l-5.48,2c-.58.22-1.25.53-1.39,1.13-.21.89.83,1.53,1.69,1.83,6.9,2.32,14.32,2.4,21.6,2.48q20.81.25,41.61.84a4.31,4.31,0,0,1,2.31.5,1.5,1.5,0,0,1,.52,2.07c-.47.56-1.37.53-1.92,1a1.77,1.77,0,0,0,.33,2.56,4.84,4.84,0,0,0,2.8.75c4.05.18,8.67.3,12.52-1.13,2.42-.9,4.33-2.72,6.77-3.55,3.9-1.35,8.55-.78,12.62-1.11A134.44,134.44,0,0,0,555.64,546.27Z"/><path class="bl-c1-2_6" d="M922,557.65c.93-.18,2-.53,2.23-1.45s-.88-1.85-1.89-2.11-2.16-.3-2.91-1l29.14-2.43c2.1-.17,4.51-.52,5.62-2.31-3.29-2.08-7.31-2.55-11.18-3l-17.41-1.93a4,4,0,0,1,3.07-2.14c-2.53-2.82-6.77-3.13-10.56-3.23q-49.41-1.34-98.86-.48c-6,.1-12.14.24-17.94,1.87-1.84.52-4,1.71-3.81,3.61l14.72,3.37c1.31.3,3,1.16,2.63,2.46-.21.76-1,1.13-1.79,1.41l-5.48,2c-.58.22-1.24.52-1.39,1.13-.21.89.83,1.53,1.7,1.82,6.89,2.33,14.31,2.4,21.59,2.49q20.81.25,41.62.84a4.33,4.33,0,0,1,2.31.5,1.5,1.5,0,0,1,.51,2.06c-.46.57-1.37.53-1.91,1a1.75,1.75,0,0,0,.33,2.56,4.79,4.79,0,0,0,2.8.74c4,.19,8.66.31,12.52-1.12,2.41-.9,4.33-2.72,6.76-3.56,3.91-1.34,8.55-.78,12.62-1.1A134.46,134.46,0,0,0,922,557.65Z"/><path class="bl-c1-2_7" d="M602.75,424.19c.5-.09,1.09-.29,1.19-.78s-.47-1-1-1.12a3.15,3.15,0,0,1-1.55-.56L617,420.44c1.12-.09,2.41-.28,3-1.24a13.89,13.89,0,0,0-6-1.59l-9.31-1a2.15,2.15,0,0,1,1.64-1.15c-1.35-1.51-3.62-1.67-5.65-1.73q-26.42-.7-52.85-.25a37.53,37.53,0,0,0-9.59,1c-1,.27-2.14.91-2,1.93l7.87,1.8c.7.16,1.6.62,1.41,1.32-.12.4-.56.6-1,.75l-2.93,1.09c-.31.12-.66.28-.74.6-.12.48.44.82.9,1,3.69,1.24,7.66,1.28,11.55,1.33q11.13.13,22.25.45a2.23,2.23,0,0,1,1.23.27.79.79,0,0,1,.28,1.1c-.25.3-.73.28-1,.54a1,1,0,0,0,.18,1.37,2.64,2.64,0,0,0,1.5.4,17.54,17.54,0,0,0,6.69-.6c1.29-.48,2.32-1.46,3.62-1.9,2.09-.72,4.57-.42,6.75-.59A74.12,74.12,0,0,0,602.75,424.19Z"/><path class="bl-c1-2_8" d="M560.32,449.51c.79-.15,1.73-.46,1.9-1.24s-.75-1.57-1.61-1.79a5.13,5.13,0,0,1-2.47-.88l24.79-2.06c1.79-.15,3.84-.45,4.79-2-2.81-1.77-6.22-2.18-9.52-2.54l-14.81-1.64a3.38,3.38,0,0,1,2.61-1.82c-2.15-2.4-5.76-2.67-9-2.75q-42.06-1.14-84.13-.41c-5.13.09-10.33.21-15.27,1.59-1.56.44-3.4,1.46-3.24,3.07L466.91,440c1.12.25,2.54,1,2.23,2.08-.17.65-.88,1-1.51,1.21L463,445c-.5.19-1.06.45-1.18,1-.18.76.7,1.31,1.44,1.55,5.87,2,12.18,2,18.38,2.12q17.7.21,35.41.71a3.63,3.63,0,0,1,2,.43,1.28,1.28,0,0,1,.44,1.76c-.4.47-1.16.45-1.63.86a1.49,1.49,0,0,0,.28,2.18,4.15,4.15,0,0,0,2.38.63c3.45.16,7.38.26,10.66-1,2-.76,3.68-2.31,5.76-3,3.32-1.14,7.27-.66,10.73-.94A113.22,113.22,0,0,0,560.32,449.51Z"/><path class="bl-c1-2_9" d="M883.29,384.29c7.52-16.27,23.91-25.23,39.11-33.08a4.11,4.11,0,0,1,3.76-.11c27.09-11.21,61.86-22.52,86.69-.29,10.31,9.24,16.83,24.69,16,38.57-.39,6.77-2.93,12.93-8.18,17.36-5.06,4.27-11.72,6.33-16.53,10.9-5.45,5.18-7.22,13-9.83,19.81a56.34,56.34,0,0,1-10.47,17.6c-8.93,9.94-22,15.79-35.43,13.42-13.12-2.32-22.43-11.53-25.67-24.23-.86-3.37-1.45-7.14-3.64-9.95s-5.64-3.76-9-4.46C903.57,428.49,897,428,891.46,424,878.83,414.91,877.12,397.63,883.29,384.29Z"/><path class="bl-c1-2_10" d="M951.42,385.63a74.79,74.79,0,0,1,12.42-39.85,71.1,71.1,0,0,1,30.9-26c15.3-6.49,32.09-5.66,47.93-1.66,28.28,7.15,66.73,22,70.8,55.46,1.81,14.94-5.09,27.31-17.18,35.61-6,4.14-13,7.57-17.11,13.85-4.24,6.43-6,14.13-10.88,20.2-11,13.72-30.13,15.76-46.29,12.26-18.22-4-35.79-12.81-51.09-23.39C955.13,416.77,952,392.83,951.42,385.63Z"/><path class="bl-c1-2_11" d="M1020.22,446c6.88,6.9,17.25,10.52,26.93,8.38a30,30,0,0,0,21.1-17.72c2.33-5.74,2.29-12.07,5-17.73,2.3-4.82,6.48-8.5,11.1-11,7.59-4.18,18.6-5.69,21.64-14.8,2-5.87,1.39-12.2,1.21-18.28a60.5,60.5,0,0,1,1.45-16.68,44.54,44.54,0,0,1,4.82,15.47c1.81,14.94-5.09,27.31-17.18,35.61-6,4.14-13,7.57-17.11,13.85-4.24,6.43-6,14.13-10.88,20.2-11,13.72-30.13,15.76-46.29,12.26a117.4,117.4,0,0,1-13.83-4C1008.05,446,1015.17,441,1020.22,446Z"/><path class="bl-c1-2_2" d="M962.08,399.36c5.55,12.23,15.65,22.88,29.09,26,11.07,2.6,26.61-1.14,29.32-13.94,1.31-6.17-1.7-11.76-5.6-16.29-2.1-2.44-4.49-4.6-6.74-6.89s-5.26-5.57-1-7c5.94-2,12.22,5.79,17,8.31a33.78,33.78,0,0,0,17.2,3.79c12.22-.57,23.75-7.41,28.92-18.69a35,35,0,0,0-2.38-33.58,3.92,3.92,0,0,0-.66-5c-11.74-11.73-24.76-24.08-42-26.2-16.53-2-32.82,7.38-46.49,15.63-11.67,7.05-21.89,16.73-23.92,30.83S956.3,386.59,962.08,399.36Z"/><path class="bl-c1-2_12" d="M1005.77,461.5c-1.56-6-3.23-12-4.91-18a186.44,186.44,0,0,1-60.63-85.86l7.1-2.55a177.24,177.24,0,0,0,48.32,69.72c-2.34-8.5-4.6-17.06-6.59-25.72-1.2-5.3-2.32-10.63-3.31-16s-1.79-10.77-2.46-16.2S982.2,356,982,350.51s-.2-11,0-16.47l7.54.22c-.16,21,3.91,41.89,9.54,62.32,5.33,19.36,12.12,38.45,18.25,58a270,270,0,0,0,16.22-132.65l7.45-1.15a278.8,278.8,0,0,1,1.54,86A81.16,81.16,0,0,0,1054,394.32c5.89-8.19,8.58-17,7.59-24.93l7.49-.95c1.23,9.79-1.95,20.55-8.95,30.29-5.5,7.64-12.5,13.79-19.44,19.63a279.73,279.73,0,0,1-17,57.92c1.16,4.38,2.28,8.78,3.3,13.22q1.8,8.06,3.17,16.27t2,16.59c.43,5.58.66,11.19.63,16.83s-.41,11.31-1,17a154,154,0,0,1-3,16.93c-1.41,5.59-9.21,25.73-11.33,31.16L1006,598.36c2-4.5,4-25.12,5.42-29.88a137.63,137.63,0,0,0,3.26-14.66c.78-5,1.29-10,1.59-15.12s.26-10.23.08-15.37C1015.56,502.73,1011.17,482.07,1005.77,461.5Z"/><path class="bl-c1-2_13" d="M1053.94,419.07c0,.82,1.44,1.47,3.19,1.44s3.16-.71,3.15-1.53-1.44-1.47-3.19-1.44S1053.93,418.25,1053.94,419.07Z"/><path class="bl-c1-2_13" d="M928.22,409.72c0,.82,1.44,1.46,3.19,1.44s3.16-.72,3.15-1.54-1.44-1.46-3.19-1.44S928.21,408.89,928.22,409.72Z"/><path class="bl-c1-2_13" d="M942.28,415.83c0,1,1.77,1.8,3.92,1.77s3.88-.87,3.86-1.88-1.77-1.8-3.92-1.77S942.26,414.82,942.28,415.83Z"/><ellipse class="bl-c1-2_13" cx="932.61" cy="420.85" rx="6.51" ry="3.05" transform="translate(-6.08 13.74) rotate(-0.84)"/><ellipse class="bl-c1-2_13" cx="1050.74" cy="428.46" rx="6.51" ry="3.05" transform="translate(-6.18 15.48) rotate(-0.84)"/><path class="bl-c1-2_14" d="M1051.72,397.28c.79-1,1.56-1.95,2.29-3,5.89-8.19,8.58-17,7.59-24.93l7.49-.95c1.23,9.79-1.95,20.55-8.95,30.29-.56.76-1.13,1.5-1.71,2.24a38.71,38.71,0,0,1-6.34-3.43C1052,397.46,1051.85,397.36,1051.72,397.28Z"/><path class="bl-c1-2_14" d="M947.33,355.1a175.54,175.54,0,0,0,19,36.43c-1.43,1.11-2.81,2.26-4.13,3.51-.91.86-1.8,1.77-2.65,2.72a183.91,183.91,0,0,1-19.32-40.11Z"/><path class="bl-c1-2_14" d="M1033.87,324.55l7.94,1.12a277.59,277.59,0,0,1,2.41,65.63c-3.26-2.91-6.39-6-9.71-8.8A268,268,0,0,0,1033.87,324.55Z"/><path class="bl-c1-2_14" d="M989.54,334.26a198.5,198.5,0,0,0,4.63,42.22c-1.1.48-2.19,1-3.27,1.46-1.86.84-3.73,1.69-5.6,2.57-.77-4.52-1.45-9.06-2-13.61-.63-5.44-1.09-10.91-1.34-16.39s-.2-11,0-16.47Z"/><path class="bl-c1-2_2" d="M896.87,350.68c1.69-20.3,15.14-39.5,37-39.74,11.93-.13,23.46,4.12,35-1,10.47-4.69,18.22-13.6,26.34-21.38,15.72-15.06,35.62-24.25,57.77-22.37a70.82,70.82,0,0,1,54,33.44c5.94,9.81,9.73,23,3.26,33.46-3,4.92-7.69,8.27-12,12-2.72,2.36-6.47,6.06-7.47,10a21.84,21.84,0,0,1-1.63,23.43c-6.05,8.11-16.63,11.28-26.35,9.38s-17.47-8.64-23-16.62c-5.15-7.42-8.62-16.22-14.88-22.83-6.59-6.94-16.23-9.12-24.91-4.6-8.93,4.65-9.66,15.23-16.78,21.53-8.4,7.42-20,2.68-29.31,7.57-9.5,5-15.57,14.62-26,18.17-9.62,3.27-19.29-.68-24.87-9C897.09,373.39,896,361,896.87,350.68Z"/><path class="bl-c1-2_11" d="M911.63,389.87c8.94.33,17.38-4.07,23.94-9.84,7.11-6.26,13.61-12.9,23.43-14.27,7-1,17.42,2,22-4.88,2.24-3.39,3.53-7.31,5.8-10.69a29,29,0,0,1,9.1-8.73c7.17-4.32,16.52-5.73,24.54-3.06,17.68,5.92,22.39,26.33,37.22,35.94,6.79,4.4,15.43,6.18,22.61,1.59,3.35-2.13,4.77-5.31,5.63-9.08,1.18-5.1,1.88-10.24,4.8-14.73a6,6,0,0,1,3.12-2.51,14.83,14.83,0,0,0-3,5.48,21.84,21.84,0,0,1-1.63,23.43c-6.05,8.11-16.63,11.28-26.35,9.38s-17.47-8.64-23-16.62c-5.15-7.42-8.62-16.22-14.88-22.83-6.59-6.94-16.23-9.12-24.91-4.6-8.93,4.65-9.66,15.23-16.78,21.53-8.4,7.42-20,2.68-29.31,7.57-9.5,5-15.57,14.62-26,18.17a20.51,20.51,0,0,1-16.44-1.27Z"/><path class="bl-c1-2_13" d="M1046.92,343.65c0,1.69,3,3,6.55,3s6.49-1.46,6.46-3.15-3-3-6.55-3S1046.89,342,1046.92,343.65Z"/><path class="bl-c1-2_13" d="M1040.35,332.68c0,1,1.77,1.8,3.91,1.77s3.88-.88,3.87-1.89-1.77-1.8-3.92-1.77S1040.33,331.67,1040.35,332.68Z"/><ellipse class="bl-c1-2_13" cx="1028.02" cy="324.87" rx="3.17" ry="1.49" transform="translate(-4.66 15.13) rotate(-0.84)"/><path class="bl-c1-2_13" d="M956,338.37c0,.82,1.44,1.46,3.19,1.44s3.16-.71,3.15-1.53-1.44-1.47-3.19-1.44S955.94,337.55,956,338.37Z"/><path class="bl-c1-2_13" d="M946.7,329.64c0,1,1.77,1.8,3.92,1.77s3.88-.87,3.87-1.88-1.77-1.8-3.92-1.77S946.69,328.63,946.7,329.64Z"/><path class="bl-c1-2_13" d="M947.23,349.36c0,1.68,2.95,3,6.55,2.95s6.48-1.46,6.46-3.14-3-3-6.55-3S947.2,347.67,947.23,349.36Z"/><path class="bl-c1-2_2" d="M979.12,326.6c-2.75,3.49-2.55,8.38-2.55,8.38A13.33,13.33,0,0,0,984,330.7c2.75-3.5,2.55-8.38,2.55-8.38A13.33,13.33,0,0,0,979.12,326.6Z"/><path class="bl-c1-2_2" d="M967.45,326.37a9.26,9.26,0,0,0,5.1,2.7,8.75,8.75,0,0,0-1.81-5.37,9.22,9.22,0,0,0-5.1-2.69A8.71,8.71,0,0,0,967.45,326.37Z"/><path class="bl-c1-2_2" d="M1028.35,305.92a9.3,9.3,0,0,0-1.88,5.45,8.81,8.81,0,0,0,5-2.61,9.24,9.24,0,0,0,1.88-5.45A8.74,8.74,0,0,0,1028.35,305.92Z"/><path class="bl-c1-2_13" d="M605.31,625.42a47.7,47.7,0,0,1,3.21-8.17,35.47,35.47,0,0,1,5.23-7.28l3.42,3.37a30.74,30.74,0,0,0-5.24,5.92,44.94,44.94,0,0,0-3.7,7.22Z"/><path class="bl-c1-2_13" d="M590.47,621.38a88.53,88.53,0,0,0,.17-17.45l4.8-.2a93,93,0,0,1-1.9,18.13Z"/><path class="bl-c1-2_13" d="M575.1,624a127.36,127.36,0,0,1-4.63-16.62l4.75-.74a123.74,123.74,0,0,0,2.85,16.48Z"/><path class="bl-c1-2_2" d="M744.78,651.25a48.32,48.32,0,0,1,1.29-8.68,35.42,35.42,0,0,1,3.46-8.27l4.09,2.52a31.32,31.32,0,0,0-3.78,6.94,45.54,45.54,0,0,0-2,7.87Z"/><path class="bl-c1-2_2" d="M729.41,650.65a89.25,89.25,0,0,0-3.75-17l4.63-1.27a92.44,92.44,0,0,1,2.22,18.1Z"/><path class="bl-c1-2_2" d="M715,656.65a127.56,127.56,0,0,1-8.24-15.17l4.45-1.78a125.71,125.71,0,0,0,6.49,15.41Z"/><path class="bl-c1-2_3" d="M307,601.3a27.82,27.82,0,0,1,.73-4.88,20.47,20.47,0,0,1,1.95-4.66l2.3,1.42a18.12,18.12,0,0,0-2.13,3.9,25,25,0,0,0-1.11,4.43Z"/><path class="bl-c1-2_3" d="M298.32,601a50.18,50.18,0,0,0-2.11-9.59l2.61-.72a53.26,53.26,0,0,1,1.25,10.18Z"/><path class="bl-c1-2_3" d="M290.22,604.33a71.5,71.5,0,0,1-4.63-8.53l2.51-1a70.4,70.4,0,0,0,3.64,8.67Z"/><path class="bl-c1-2_2" d="M547.93,634a27.35,27.35,0,0,1,1.26-4.77,20.53,20.53,0,0,1,2.45-4.41l2.13,1.66a17.86,17.86,0,0,0-2.54,3.65,25.57,25.57,0,0,0-1.6,4.28Z"/><path class="bl-c1-2_2" d="M539.38,632.69a49.76,49.76,0,0,0-1-9.76l2.67-.42a52.43,52.43,0,0,1,.12,10.25Z"/><path class="bl-c1-2_2" d="M531,635.15a71.17,71.17,0,0,1-3.67-9l2.61-.72a68.5,68.5,0,0,0,2.67,9Z"/><path class="bl-c1-2_2" d="M465.3,459.84a25.49,25.49,0,0,1,1.26-4.77,19.85,19.85,0,0,1,2.44-4.41l2.14,1.66a17.21,17.21,0,0,0-2.55,3.64,25,25,0,0,0-1.59,4.28Z"/><path class="bl-c1-2_2" d="M456.74,458.55a49.77,49.77,0,0,0-1-9.77l2.67-.42a52.43,52.43,0,0,1,.12,10.25Z"/><path class="bl-c1-2_2" d="M448.32,461a71.78,71.78,0,0,1-3.67-9l2.61-.72a69,69,0,0,0,2.67,9Z"/><path class="bl-c1-2_13" d="M564.88,469.6a27.35,27.35,0,0,1,1.26-4.77,20.11,20.11,0,0,1,2.45-4.41l2.13,1.66a17.48,17.48,0,0,0-2.54,3.65,25,25,0,0,0-1.6,4.28Z"/><path class="bl-c1-2_13" d="M556.33,468.31a50.53,50.53,0,0,0-1-9.76l2.66-.42a50.92,50.92,0,0,1,.12,10.25Z"/><path class="bl-c1-2_13" d="M547.91,470.77a71.17,71.17,0,0,1-3.67-9l2.6-.72a70.67,70.67,0,0,0,2.67,9Z"/><path class="bl-c1-2_13" d="M795.57,627.8a27,27,0,0,1,.73-4.88,19.61,19.61,0,0,1,2-4.66l2.3,1.42a17.29,17.29,0,0,0-2.13,3.9,25.19,25.19,0,0,0-1.11,4.43Z"/><path class="bl-c1-2_13" d="M786.93,627.46a51,51,0,0,0-2.11-9.59l2.6-.72a51.71,51.71,0,0,1,1.25,10.18Z"/><path class="bl-c1-2_13" d="M778.83,630.83a71.56,71.56,0,0,1-4.64-8.53l2.51-1a72,72,0,0,0,3.65,8.67Z"/><path class="bl-c1-2_3" d="M403.57,577.93a28,28,0,0,1,.73-4.88,19.37,19.37,0,0,1,1.95-4.65l2.3,1.41a17.14,17.14,0,0,0-2.13,3.91,24.86,24.86,0,0,0-1.11,4.42Z"/><path class="bl-c1-2_3" d="M394.93,577.59a51,51,0,0,0-2.11-9.59l2.6-.71a51.52,51.52,0,0,1,1.25,10.17Z"/><path class="bl-c1-2_3" d="M386.83,581a71.56,71.56,0,0,1-4.64-8.53l2.51-1a70.71,70.71,0,0,0,3.65,8.67Z"/><path class="bl-c1-2_2" d="M823.16,574.23a27.1,27.1,0,0,1,1.57-4.68,19.8,19.8,0,0,1,2.72-4.24l2,1.79a17.23,17.23,0,0,0-2.77,3.48,25.78,25.78,0,0,0-1.87,4.16Z"/><path class="bl-c1-2_2" d="M814.71,572.4a49.38,49.38,0,0,0-.42-9.81l2.69-.25a51.5,51.5,0,0,1-.53,10.24Z"/><path class="bl-c1-2_2" d="M806.15,574.31a73.07,73.07,0,0,1-3.09-9.2l2.65-.56a68,68,0,0,0,2.09,9.18Z"/><circle class="bl-c1-2_15" cx="529.38" cy="576.62" r="2.49"/><circle class="bl-c1-2_13" cx="684.72" cy="634.15" r="2.49"/><circle class="bl-c1-2_2" cx="587.99" cy="650.65" r="5.73"/><path class="bl-c1-2_3" d="M1163.41,499l.12-.23a103.19,103.19,0,0,1,11.85-12.42c9.37-3.72,18.9,5,28.36.76,1-.42.18-1.85-.77-1.43-8.15,3.64-16.59-2.64-25-1.61,5.92-5.06,12.23-9.7,18.54-14.35.84-.62-.28-1.8-1.11-1.19-3.89,2.87-7.78,5.74-11.58,8.69a10.87,10.87,0,0,0-.17-6.62c-1.77-5.27-2.34-10.05,0-15.3.41-1-1.15-1.41-1.56-.46a19.45,19.45,0,0,0-1.28,12c.46,2.11,1.63,4.11,1.91,6.24a9.58,9.58,0,0,1-1.43,5.94.82.82,0,0,0-.12.34q-3.42,2.75-6.69,5.65a.65.65,0,0,0-.21.19,111.11,111.11,0,0,0-8.57,8.52,26.9,26.9,0,0,0-.13-16.32c-.33-1-1.91-.61-1.58.39a25.36,25.36,0,0,1-1.77,20c-.59.75-1.18,1.52-1.76,2.3a74.56,74.56,0,0,0-7.15,11.81,32.94,32.94,0,0,0-3.14-13.83c-.44-1-1.87-.17-1.43.78a29.87,29.87,0,0,1,2.57,17.57c-.58,1.45-1.13,2.92-1.62,4.42-2.72,8.27-4.75,17.13-11.38,23.28a.81.81,0,0,0,1.11,1.18c5.64-5.23,8.2-12.43,10.44-19.59.35-1.13.71-2.24,1.09-3.35a1.07,1.07,0,0,0,.2-.22c3.13-5,9.34-4.93,14.58-4.55,1,.07,1.08-1.55,0-1.63-4.56-.32-9.6-.27-13.25,2.37a.79.79,0,0,0,.12-.28c.05-.2.08-.41.12-.61a71.57,71.57,0,0,1,7.5-14.27.76.76,0,0,0,.35-.13c6.5-4.27,15.18-3,21,1.87.8.66,2-.44,1.19-1.11-5.63-4.73-13.69-6.48-20.43-3.56.25-.33.5-.64.76-1A.73.73,0,0,0,1163.41,499Z"/><path class="bl-c1-2_3" d="M1180.35,518.72c-5-2.19-7.88-7.84-13.53-8.7-4.41-.66-7,2.63-9,6.05a.79.79,0,0,0,.1.94.72.72,0,0,0,.21.65,17.39,17.39,0,0,0,22.39,2.55A.82.82,0,0,0,1180.35,518.72Z"/><path class="bl-c1-2_3" d="M1218.85,460.11a.62.62,0,0,0-.16-.1c-5.31-2.55-12.21-3.7-17.72-1-4.64,2.24-7.66,7.12-8.48,12.09a.62.62,0,0,0,0,.59.67.67,0,0,0,.38.41,14.08,14.08,0,0,0,14.76,2.08c5.64-2.33,9.31-7.65,11.58-13.1A.69.69,0,0,0,1218.85,460.11Z"/><path class="bl-c1-2_3" d="M1222.34,491l-.14-.1c-5.63-3.09-10-8.85-16.56-10.09-4.51-.85-9.52,1.29-10.7,6a.85.85,0,0,0,0,.39.68.68,0,0,0,.07.23c2.09,4.49,5.87,8.13,10.93,8.8,5.76.76,11.57-1.57,16.77-3.74C1223.54,492.13,1223.09,491.05,1222.34,491Z"/><path class="bl-c1-2_3" d="M1190.35,452.44c-.2-5.8-4-11-4.56-16.81a.83.83,0,0,0-1.37-.61,26.67,26.67,0,0,0-5.13,6.12,47.08,47.08,0,0,0-4.19,6.89,10.68,10.68,0,0,0-.52,7.89c1,2.73,3.36,4.36,5.71,5.86a.67.67,0,0,0,.39.13.94.94,0,0,0,.3,0A9.3,9.3,0,0,0,1190.35,452.44Z"/><path class="bl-c1-2_3" d="M1153.7,491.8c-2.62-5.25-8-8.19-12.92-10.83a.82.82,0,0,0-1.15,1.08c2.9,5.46.2,11.81,2.21,17.5,1.36,3.85,5.16,6.84,9.32,5.3a1.1,1.1,0,0,0,.28-.17.71.71,0,0,0,.68-.22C1155.48,501,1155.81,496,1153.7,491.8Z"/><path class="bl-c1-2_3" d="M1169.81,483.33A12.88,12.88,0,0,0,1171,471.4c-2.62-7-9.12-11.35-13.89-16.75-.59-.67-1.47,0-1.38.75.81,6.76-1.74,13.5-.42,20.23,1,5,4.63,9.49,10,9.81h.12A5.41,5.41,0,0,0,1169.81,483.33Z"/><path class="bl-c1-2_3" d="M1204.53,515a.6.6,0,0,0-.33-.4c-5.08-5.18-8.08-12.72-14.75-16.21-4.53-2.37-10.37-2-13.58,2.32a7.08,7.08,0,0,0-.37,3.33c1.66,11.81,18.69,13.15,28.28,12.13l.21,0A.8.8,0,0,0,1204.53,515Z"/><path class="bl-c1-2_3" d="M1181.74,461.91c.72-3-.14-5.87-.27-8.83a22.08,22.08,0,0,1,2-10.12c.15-.32-.31-.61-.46-.29a22.74,22.74,0,0,0-2.13,9c-.09,3.44,1.16,6.92.26,10.31C1181.37,461.94,1181.56,461.92,1181.74,461.91Z"/><path class="bl-c1-2_3" d="M1210.13,463.28a32.27,32.27,0,0,1-10.33,5.7,44.49,44.49,0,0,1-5.19,1.24,7.24,7.24,0,0,0-2.1.72.5.5,0,0,1,0,.12.59.59,0,0,0,0,.55c1.16-.89,2.92-.94,4.31-1.24a32.14,32.14,0,0,0,4.87-1.48,32.57,32.57,0,0,0,8.86-5.22C1210.77,463.45,1210.4,463.06,1210.13,463.28Z"/><path class="bl-c1-2_3" d="M1215.35,490.66a41.85,41.85,0,0,1-11.25-1.28c-3.07-.79-6-2.21-9.15-2.62v0a.85.85,0,0,0,0,.39.65.65,0,0,0,0,.13c3.4.45,6.61,2.06,10,2.83a42.42,42.42,0,0,0,10.41,1.06C1215.69,491.19,1215.7,490.65,1215.35,490.66Z"/><path class="bl-c1-2_3" d="M1186.89,505.85c1.82,1.29,3.55,2.69,5.34,4a9.72,9.72,0,0,0,5.3,2.3c.35,0,.36-.52,0-.54-2.6-.13-4.61-1.9-6.58-3.42-1.78-1.36-3.55-2.72-5.42-3.94a26.13,26.13,0,0,0-9.32-4c-.12.14-.24.28-.35.43l0,.06A27.53,27.53,0,0,1,1186.89,505.85Z"/><path class="bl-c1-2_3" d="M1176.19,518.64c-5.93-.33-12.53-4.22-18.43-2.44a.75.75,0,0,0,0,.57c5.87-1.89,12.52,2.08,18.42,2.41C1176.52,519.2,1176.54,518.66,1176.19,518.64Z"/><path class="bl-c1-2_3" d="M1145.22,486.8c-.18-.3-.66,0-.47.25a47,47,0,0,1,6.58,17.71l.11-.08a.73.73,0,0,0,.41,0A47.08,47.08,0,0,0,1145.22,486.8Z"/><path class="bl-c1-2_3" d="M1159.42,461.63a.27.27,0,0,0-.48.26,52.7,52.7,0,0,1,6.36,23.55h.11a3.05,3.05,0,0,0,.44,0A53.43,53.43,0,0,0,1159.42,461.63Z"/><path class="bl-c1-2_2" d="M1205.77,580.41c-5.66-6.59-15.84-6.42-24.38-4.8s-17.73,4.07-25.58.36c-16.44-7.76-13.69-35-29.2-44.45-9.85-6-23-2.18-33.72-6.42-8.52-3.36-14.85-11.56-23.84-13.32-9.71-1.9-19.33,4.53-25.09,12.57s-8.81,17.67-13.51,26.37-11.91,17-21.63,18.84c-12.81,2.41-27.7-6.72-38.21,1-11.65,8.53-6.78,30.64-19.65,37.18-8.21,4.17-18.05-1.22-27.22-.34-9.88,1-17.77,9.33-21.18,18.65,0,.09-.07.19-.1.28-5.09,14.23,5.72,29.16,20.83,29.16h291.56Z"/><path class="bl-c1-2_3" d="M1115.87,590.49c-1.46-1.4-1.92.21-2.64.85-1.54,1.38-2.76,3.15-4.84,3.83-1.32,2.58-4,3.49-6.24,4.75a27.35,27.35,0,0,1-8.74,3.41c2.62-4,6.35-7.05,9.31-10.76a153.61,153.61,0,0,0,12-21c.23-1,.47-2.09.7-3.14l-3.14-1a36.28,36.28,0,0,1-5.08,11.4c-1.33,4.76-4.42,8.39-7.71,11.89-1.55,2.48-3.65,4.47-6.23,7a55.18,55.18,0,0,1,1.14-10c.24-6.33,2-12.34,3.91-18.32l-2.86-1.27q-2,8.73-3.89,17.46a79.51,79.51,0,0,1-2.28,15.42c-.38,1.56-1.7,2.31-2.72,3.32-2,2-4,3.94-6.16,6.06-.72-1.74-.2-3.49-.3-5.16-.47-7.79-1-15.57-2.19-23.3a7.06,7.06,0,0,1,.19-1.81c-.91-1.8.34-2.89,1.26-4.17,5-6.93,10.94-13.24,13.63-21.62.35-1.1.73-2.18,1.1-3.27l-2.29-1c-.29,3.9-2.4,7-4.41,10.19-2.4,3.79-5.71,6.79-8.88,10a79.3,79.3,0,0,1,6.22-26l-3-1.15c-1.24,4.09-3.45,7.78-4.6,11.92-2.2,7.91-2.74,16-2.91,24.14.11,3.93.32,8.74.55,13.94a33.79,33.79,0,0,1-7.84-3.9c-.74-.46-1.47-.93-2.2-1.41l.25-.15a61.05,61.05,0,0,1-8.12-22.71l-2.91.42a64.37,64.37,0,0,0,5.93,19.09,122.71,122.71,0,0,1-20.41-18.71l-2.22,1.93A125.5,125.5,0,0,0,1053,582.81c-.55,0-1.09,0-1.64,0a88.7,88.7,0,0,1-20.72-3.25l-.8,2.84a92.48,92.48,0,0,0,21.41,3.35,16.19,16.19,0,0,0,5-.39q4.43,3.36,9.15,6.32a39.09,39.09,0,0,0,7.79,4c.57.2,1.16.38,1.74.53.59,13.27,1.22,28.44.67,38.24,1.22.28,2.4,1,3.63,1.26.16-3.68.67-19.46,3.65-22.18a14.71,14.71,0,0,1,4-2.79c5.33-2.3,10.62-4.71,15.89-7.15,3.13-1.46,5.63-3.85,8.3-6,1.35-1.44,2.8-2.8,4-4.35C1115.63,592.51,1117.36,591.92,1115.87,590.49Zm-23,12.89.35,0-.33.25Z"/><path class="bl-c1-2_15" d="M1023.72,619.92c-1-1-1.37.15-1.88.6-1.1,1-2,2.24-3.44,2.73-.94,1.84-2.83,2.48-4.45,3.38a19.21,19.21,0,0,1-6.22,2.43c1.86-2.85,4.52-5,6.63-7.66a110.22,110.22,0,0,0,8.53-14.93c.17-.75.33-1.49.5-2.24l-2.23-.74a26.11,26.11,0,0,1-3.62,8.12c-.95,3.39-3.15,6-5.49,8.47a29.45,29.45,0,0,1-4.44,5,38.79,38.79,0,0,1,.81-7.15,48.89,48.89,0,0,1,2.79-13l-2-.91q-1.39,6.22-2.77,12.44a56.53,56.53,0,0,1-1.62,11c-.27,1.12-1.22,1.65-1.94,2.37-1.41,1.41-2.85,2.8-4.39,4.31-.51-1.23-.14-2.48-.21-3.67-.34-5.55-.73-11.09-1.56-16.59a4.75,4.75,0,0,1,.13-1.29c-.65-1.28.25-2.06.9-3,3.55-4.93,7.79-9.43,9.71-15.4.24-.78.52-1.55.78-2.32l-1.63-.75c-.21,2.79-1.71,5-3.14,7.26-1.71,2.7-4.07,4.84-6.32,7.13a56.23,56.23,0,0,1,4.43-18.51l-2.12-.81c-.88,2.9-2.45,5.53-3.27,8.48a68.73,68.73,0,0,0-2.08,17.19c.08,2.8.23,6.22.39,9.93a24.13,24.13,0,0,1-5.58-2.78l-1.57-1,.18-.11a43.53,43.53,0,0,1-5.78-16.17l-2.07.29a45.63,45.63,0,0,0,4.22,13.6,87,87,0,0,1-14.53-13.32l-1.58,1.37A89.42,89.42,0,0,0,979,614.45c-.38,0-.78,0-1.16,0A63.07,63.07,0,0,1,963,612.12l-.56,2a65.52,65.52,0,0,0,15.24,2.39,11.49,11.49,0,0,0,3.54-.28c2.1,1.59,4.28,3.09,6.52,4.5a27.58,27.58,0,0,0,5.55,2.82c.41.14.82.27,1.24.38.42,9.45.87,20.25.47,27.23.87.2,1.71.7,2.59.9.11-2.62.47-13.87,2.6-15.8a10.46,10.46,0,0,1,2.86-2c3.8-1.65,7.56-3.36,11.32-5.1,2.23-1,4-2.74,5.91-4.25,1-1,2-2,2.85-3.1C1023.55,621.35,1024.79,620.94,1023.72,619.92Zm-16.36,9.18h.26l-.24.19Z"/><circle class="bl-c1-2_15" cx="1058.02" cy="538.25" r="2.6"/><circle class="bl-c1-2_2" cx="892.1" cy="608.77" r="2.6"/><circle class="bl-c1-2_2" cx="1007.36" cy="538.82" r="2.6"/><circle class="bl-c1-2_2" cx="953.09" cy="563.66" r="5.4"/><circle class="bl-c1-2_15" cx="940.28" cy="641.68" r="7.42"/><path class="bl-c1-2_2" d="M1078.45,469.78c6.37-.06,16.2.8,16.21,2s-9.8,2.22-16.17,2.28-6.89-.89-6.9-2.07S1072.08,469.84,1078.45,469.78Z"/><path class="bl-c1-2_2" d="M1097.52,492.72c-.06-6.37.8-16.2,2-16.21s2.23,9.8,2.28,16.17-.89,6.89-2.06,6.9S1097.58,499.09,1097.52,492.72Z"/><path class="bl-c1-2_2" d="M1115.68,458.23c-4.46,4.55-12,10.88-12.86,10.06s5.35-8.5,9.81-13.05,5.51-4.24,6.35-3.42S1120.14,453.68,1115.68,458.23Z"/><path class="bl-c1-2_2" d="M1083.23,485.2c4.47-4.55,12-10.89,12.86-10.06s-5.35,8.5-9.81,13-5.51,4.25-6.35,3.42S1078.77,489.74,1083.23,485.2Z"/><path class="bl-c1-2_2" d="M1112.94,487.94c-4.55-4.47-10.88-12-10.06-12.87s8.5,5.36,13,9.82,4.24,5.5,3.42,6.34S1117.49,492.4,1112.94,487.94Z"/><path class="bl-c1-2_2" d="M1086,455.49c4.55,4.46,10.89,12,10.06,12.86s-8.5-5.35-13-9.82-4.24-5.5-3.42-6.34S1081.42,451,1086,455.49Z"/><path class="bl-c1-2_2" d="M1120.46,473.65c-6.37.06-16.19-.8-16.21-2s9.8-2.23,16.17-2.29,6.89.89,6.9,2.07S1126.83,473.59,1120.46,473.65Z"/><path class="bl-c1-2_2" d="M1101.39,450.71c.06,6.37-.8,16.19-2,16.2s-2.22-9.79-2.28-16.16.89-6.9,2.07-6.91S1101.33,444.34,1101.39,450.71Z"/><path class="bl-c1-2_15" d="M1245.24,379.47a27,27,0,0,0-.73-4.88,19.37,19.37,0,0,0-2-4.65l-2.3,1.41a17.14,17.14,0,0,1,2.13,3.91,24.86,24.86,0,0,1,1.11,4.42Z"/><path class="bl-c1-2_15" d="M1253.88,379.13a51,51,0,0,1,2.11-9.59l-2.6-.71a51.62,51.62,0,0,0-1.25,10.18Z"/><path class="bl-c1-2_15" d="M1262,382.5a71.56,71.56,0,0,0,4.64-8.53l-2.51-1a69.18,69.18,0,0,1-3.65,8.67Z"/></g></g></svg>
