<svg xmlns="http://www.w3.org/2000/svg" xmlns:xlink="http://www.w3.org/1999/xlink" viewBox="0 0 387.96 361.77" width="240"><defs><style>.cls-1,.cls-13,.cls-15,.cls-18,.cls-19,.cls-20,.cls-21,.cls-22,.cls-23,.cls-24,.cls-26{fill:none;}.cls-2{fill:#3176a9;}.cls-3,.cls-4,.cls-5,.cls-6,.cls-7,.cls-8,.cls-9{opacity:0.8;isolation:isolate;}.cls-3{fill:url(#linear-gradient);}.cls-4{fill:url(#linear-gradient-2);}.cls-5{fill:url(#linear-gradient-3);}.cls-6{fill:url(#linear-gradient-4);}.cls-7{fill:url(#linear-gradient-5);}.cls-8{fill:url(#linear-gradient-6);}.cls-9{fill:url(#linear-gradient-7);}.cls-10{fill:#e3ae35;}.cls-11{clip-path:url(#clip-path);}.cls-12{fill:#2f4962;}.cls-13,.cls-18{stroke:#5da6a2;}.cls-13,.cls-15,.cls-18,.cls-19,.cls-20,.cls-21,.cls-22,.cls-23,.cls-24,.cls-26{stroke-miterlimit:10;}.cls-13,.cls-23,.cls-24{stroke-width:0.08px;}.cls-14{fill:#fff;}.cls-15,.cls-20,.cls-22{stroke:#2f4962;}.cls-15{stroke-width:0.31px;}.cls-16{fill:#e5af34;}.cls-17{fill:#5da6a2;}.cls-18,.cls-19,.cls-22{stroke-width:0.15px;}.cls-19,.cls-23,.cls-26{stroke:#fff;}.cls-20{stroke-width:0.33px;}.cls-21,.cls-24{stroke:#e5af34;}.cls-21{stroke-width:0.17px;}.cls-25{fill:#d17475;}.cls-26{stroke-width:0.21px;}</style><linearGradient id="linear-gradient" x1="139.06" y1="43.9" x2="139.06" y2="77.2" gradientTransform="matrix(1, 0, 0, -1, 0, 378.44)" gradientUnits="userSpaceOnUse"><stop offset="0" stop-color="#fafbfb" stop-opacity="0"/><stop offset="1" stop-color="#78a9a8"/></linearGradient><linearGradient id="linear-gradient-2" x1="375.86" y1="38.64" x2="376.49" y2="147.95" gradientTransform="translate(502 378.44) rotate(180)" xlink:href="#linear-gradient"/><linearGradient id="linear-gradient-3" x1="439.77" y1="137.4" x2="440.04" y2="183.19" gradientTransform="translate(502 378.44) rotate(180)" xlink:href="#linear-gradient"/><linearGradient id="linear-gradient-4" x1="312.23" y1="137.4" x2="312.5" y2="183.19" gradientTransform="translate(502 378.44) rotate(180)" xlink:href="#linear-gradient"/><linearGradient id="linear-gradient-5" x1="368.73" y1="227.57" x2="368.99" y2="273.36" gradientTransform="translate(502 378.44) rotate(180)" xlink:href="#linear-gradient"/><linearGradient id="linear-gradient-6" x1="239.85" y1="107.37" x2="240.46" y2="213.7" gradientTransform="translate(502 378.44) rotate(180)" xlink:href="#linear-gradient"/><linearGradient id="linear-gradient-7" x1="259.3" y1="89.94" x2="259.64" y2="149.39" gradientTransform="translate(502 378.44) rotate(180)" xlink:href="#linear-gradient"/><clipPath id="clip-path"><path class="cls-1" d="M122.21,133.55h27.4a52.26,52.26,0,0,1,52.26,52.26h0V301.74H71.11V184.65a51.1,51.1,0,0,1,51.1-51.1Z"/></clipPath></defs><title>2Asset 1</title><g id="Layer_2" data-name="Layer 2"><g id="Layer_1-2" data-name="Layer 1"><g id="Layer_1-3" data-name="Layer 1"><path class="cls-2" d="M53.84,4C73.06,4,73.06,5.4,92.28,5.4s19.22-.48,38.44-.48S149.94,7.7,169.16,7.7s19.22-4.58,38.44-4.58S226.82,4,246,4s19.22,3.83,38.44,3.83S303.7,0,322.92,0s19.22,5.38,38.45,5.38c14.22,0,26.53,25.77,26.53,56.19,0,39.87-2.52,39.87-2.52,79.74s2.15,39.87,2.15,79.74.43,39.86.43,79.73c0,30.42-12.37,52.85-26.59,52.85-19.22,0-19.22,7.76-38.44,7.76s-17.61-6-36.83-6-20.83,6.38-40,6.38-19.76-8-39-8-18.68,1.36-37.9,1.36-19.26-6.86-38.48-6.86-19.22,1.13-38.44,1.13-19.22,7.26-38.44,7.26c-14.23,0-27.66-25.45-27.66-55.87,0-39.86,1.68-39.86,1.68-79.73s-1.43-39.79-1.43-79.7,3.72-39.87,3.72-79.74C30.17,31.15,39.61,4,53.84,4Z"/><ellipse class="cls-3" cx="139.06" cy="313.19" rx="115.69" ry="21.97"/><path class="cls-4" d="M1.29,308.41h0c.14-.23.29-.46.44-.68v-.05c.15-.2.31-.41.48-.6l.07-.08a4.89,4.89,0,0,1,.5-.52l.12-.11.5-.44.18-.13c.16-.13.33-.25.5-.37l.24-.14c.16-.1.32-.2.49-.29l.31-.15c.15-.07.3-.15.46-.21L6,304.5l.43-.15a3.59,3.59,0,0,1,.47-.12l.38-.1a4.22,4.22,0,0,0,.59-.09h.29c.3,0,.61-.05.92-.05a9,9,0,0,1,4,1,12.72,12.72,0,0,1,1-1.2,13.52,13.52,0,0,1,8.27-4.22,13.11,13.11,0,0,1,4.37.19l.87.2a13.57,13.57,0,0,1,16.07-10.49A13.86,13.86,0,0,1,47,290.68a21.29,21.29,0,0,1-.54-3.55c0-.46-.05-.92-.05-1.38A21.62,21.62,0,0,1,74.13,265a21.62,21.62,0,0,1,36.3-13.28c.26.24.51.48.75.74a33,33,0,0,1,6.67-4.8,32.16,32.16,0,0,1,39,6.39,25.46,25.46,0,0,1,1.69,2,33.65,33.65,0,0,1,2.89,4.3,32.87,32.87,0,0,1,3,7.32,21.25,21.25,0,0,1,2.26-.12,21.46,21.46,0,0,1,14,5.16,22,22,0,0,1,5.44,7,13.42,13.42,0,0,1,4.69-.85,14.12,14.12,0,0,1,2.51.23,13.53,13.53,0,0,1,6.42,3.13c.3.26.58.53.86.82a13.6,13.6,0,0,1,3.65,7.47,13.58,13.58,0,0,1,18.59,4.81,13.94,13.94,0,0,1,1.3,3c.11.37.21.75.29,1.13a13.55,13.55,0,0,1,14.51,5,8.94,8.94,0,0,1,4-1,9,9,0,0,1,0,18.07,8.94,8.94,0,0,1-4-1,13.55,13.55,0,0,1-18.62,3.13,13.56,13.56,0,0,1-18.22,6,13.75,13.75,0,0,1-2.87-2,13.58,13.58,0,0,1-18.25,6,13.43,13.43,0,0,1-5.05-4.41,13.32,13.32,0,0,1-6,1.4,13.56,13.56,0,0,1-10.64-5.14,13.56,13.56,0,0,1-15.66,11.07,13.11,13.11,0,0,1-2.61-.72,32.24,32.24,0,0,1-50.52-7.54,13.54,13.54,0,0,1-14.37,1.53,13.57,13.57,0,0,1-23.29-1.57A13.57,13.57,0,0,1,33.7,327a13.86,13.86,0,0,1-1.94-2.86,13.56,13.56,0,0,1-18.62-3.12A9,9,0,0,1,1.29,308.43Z"/><path class="cls-5" d="M10.06,227.89h0a1.75,1.75,0,0,1,.18-.29h0l.2-.25h0a1.37,1.37,0,0,1,.2-.22l0,0,.22-.18.07-.06.21-.15.1-.06.21-.12.12-.06.2-.09.16-.06.18-.07.19,0h.92a3.74,3.74,0,0,1,1.7.41,4,4,0,0,1,.41-.51,5.71,5.71,0,0,1,3.47-1.77h.69a5.52,5.52,0,0,1,1.14.12l.36.09a5.68,5.68,0,0,1,8.16-3.89,8.37,8.37,0,0,1-.22-1.49v-.57a9.06,9.06,0,0,1,11.59-8.71,9.07,9.07,0,0,1,15.18-5.53l.31.31a13.79,13.79,0,0,1,2.79-2A13.37,13.37,0,0,1,65.28,201a13.53,13.53,0,0,1,9.9,4.31c.24.27.48.54.7.83A13.92,13.92,0,0,1,77.09,208,13.65,13.65,0,0,1,78.34,211a7.37,7.37,0,0,1,.94,0,9.07,9.07,0,0,1,8.15,5.1,5.89,5.89,0,0,1,2-.35,4.85,4.85,0,0,1,1,.1,5.83,5.83,0,0,1,2.69,1.3l.36.35A5.79,5.79,0,0,1,95,220.65a5.59,5.59,0,0,1,2.88-.79,5.71,5.71,0,0,1,5.45,4,4.21,4.21,0,0,1,.12.48,5.64,5.64,0,0,1,6.08,2.1,3.7,3.7,0,0,1,1.7-.4,3.79,3.79,0,0,1,0,7.57,3.71,3.71,0,0,1-1.7-.41,5.69,5.69,0,0,1-7.8,1.31A5.69,5.69,0,0,1,94.08,237a5.62,5.62,0,0,1-1.18-.81,5.68,5.68,0,0,1-9.75.66,5.69,5.69,0,0,1-7-1.57,5.69,5.69,0,0,1-5.6,4.72,5.49,5.49,0,0,1-2-.39A13.52,13.52,0,0,1,49.4,239a13.26,13.26,0,0,1-2-2.73,5.68,5.68,0,0,1-6,.64,5.69,5.69,0,0,1-9.76-.66,5.67,5.67,0,0,1-8-.47,5.43,5.43,0,0,1-.82-1.2,5.55,5.55,0,0,1-3.22,1A5.62,5.62,0,0,1,15,233.22a3.78,3.78,0,0,1-5-5.28Z"/><path class="cls-6" d="M137.57,227.89h0a1.75,1.75,0,0,1,.18-.29h0l.2-.25h0a1.45,1.45,0,0,1,.21-.22l.05,0,.21-.18.07-.06.21-.15.1-.06.21-.12.13-.06a.66.66,0,0,1,.19-.09l.16-.06.18-.07.19,0h.92a3.74,3.74,0,0,1,1.7.41,4,4,0,0,1,.41-.51,5.71,5.71,0,0,1,3.47-1.77h.69a5.52,5.52,0,0,1,1.14.12l.36.09a5.69,5.69,0,0,1,5.57-4.52,5.57,5.57,0,0,1,2.59.63,8.37,8.37,0,0,1-.22-1.49v-.57a9.06,9.06,0,0,1,11.59-8.71,9.07,9.07,0,0,1,15.18-5.53l.31.31a13.79,13.79,0,0,1,2.79-2,13.37,13.37,0,0,1,6.43-1.64,13.53,13.53,0,0,1,9.9,4.31c.24.27.48.54.7.83A13.92,13.92,0,0,1,204.6,208a13.65,13.65,0,0,1,1.25,3.07,7.53,7.53,0,0,1,1,0,9,9,0,0,1,5.86,2.16,9.1,9.1,0,0,1,2.28,2.94,5.89,5.89,0,0,1,2-.35,5.33,5.33,0,0,1,1.05.1,5.83,5.83,0,0,1,2.69,1.3l.36.35a5.79,5.79,0,0,1,1.53,3.13,5.59,5.59,0,0,1,2.88-.79,5.71,5.71,0,0,1,5.45,4,4.21,4.21,0,0,1,.12.48,5.64,5.64,0,0,1,6.08,2.1,3.7,3.7,0,0,1,1.7-.4,3.79,3.79,0,0,1,0,7.57,3.71,3.71,0,0,1-1.7-.41,5.69,5.69,0,0,1-7.8,1.31,5.69,5.69,0,0,1-7.66,2.48,5.62,5.62,0,0,1-1.18-.81,5.68,5.68,0,0,1-9.75.66,5.69,5.69,0,0,1-7-1.57,5.69,5.69,0,0,1-5.6,4.72,5.49,5.49,0,0,1-2.05-.39A13.5,13.5,0,0,1,175,236.22a5.68,5.68,0,0,1-6,.64,5.69,5.69,0,0,1-9.76-.66,5.67,5.67,0,0,1-8-.47,5.43,5.43,0,0,1-.82-1.2,5.55,5.55,0,0,1-3.22,1,5.64,5.64,0,0,1-4.57-2.32,3.78,3.78,0,0,1-5-5.28Z"/><path class="cls-7" d="M80.9,137.72h0l.18-.28h0l.2-.25h0l.21-.22v-.05l.21-.18.07-.06.21-.15.1-.06.21-.12.13-.06.19-.09.16-.06.18-.06.2-.05h.91a3.74,3.74,0,0,1,1.7.41,5,5,0,0,1,.42-.5,5.61,5.61,0,0,1,3.46-1.77,5.34,5.34,0,0,1,.69,0,5.52,5.52,0,0,1,1.14.12l.37.09a5.68,5.68,0,0,1,6.72-4.4,5.75,5.75,0,0,1,1.44.51,8.39,8.39,0,0,1-.23-1.49v-.57a9.07,9.07,0,0,1,9.07-9.07h0a9.1,9.1,0,0,1,2.53.36,9.06,9.06,0,0,1,15.17-5.52l.32.31a12.57,12.57,0,0,1,2.79-2A13.46,13.46,0,0,1,146,115.13c.25.27.48.54.71.83a14.63,14.63,0,0,1,1.21,1.81,14.1,14.1,0,0,1,1.24,3.07c.31,0,.63,0,1,0a9.06,9.06,0,0,1,8.15,5.11,5.66,5.66,0,0,1,2-.36,4.85,4.85,0,0,1,1,.1A5.71,5.71,0,0,1,164,127l.36.34a5.62,5.62,0,0,1,1.53,3.13,5.68,5.68,0,0,1,7.78,2,6.08,6.08,0,0,1,.55,1.25,4.21,4.21,0,0,1,.12.48,5.5,5.5,0,0,1,1.51-.21,5.69,5.69,0,0,1,4.57,2.31,3.86,3.86,0,0,1,1.7-.4,3.79,3.79,0,0,1,.39,7.57,2.54,2.54,0,0,1-.39,0,3.71,3.71,0,0,1-1.7-.41,5.67,5.67,0,0,1-7.8,1.31,5.67,5.67,0,0,1-7.62,2.49,5.26,5.26,0,0,1-1.21-.82,5.68,5.68,0,0,1-9.76.66,5.68,5.68,0,0,1-7-1.57,5.7,5.7,0,0,1-5.61,4.72,5.92,5.92,0,0,1-2-.38,13.51,13.51,0,0,1-19.1-.42,13.13,13.13,0,0,1-2.06-2.8,5.62,5.62,0,0,1-6,.64,5.69,5.69,0,0,1-7.9,1.48,5.62,5.62,0,0,1-1.86-2.13,5.68,5.68,0,0,1-8.83-1.67,5.68,5.68,0,0,1-7.8-1.31,3.86,3.86,0,0,1-1.7.4,3.89,3.89,0,0,1-3.24-5.89Z"/><path class="cls-8" d="M140.7,240.53h0a5.74,5.74,0,0,1,.43-.66v-.05a5.09,5.09,0,0,1,.46-.58l.07-.08.48-.51.12-.11.49-.43.17-.12a4.41,4.41,0,0,1,.49-.36l.24-.14c.15-.09.31-.19.47-.27l.3-.15.45-.21.37-.14.42-.14.45-.12a2.62,2.62,0,0,0,.38-.09l.57-.09h.29a8.49,8.49,0,0,1,.88-.05,8.78,8.78,0,0,1,4,1,11,11,0,0,1,1-1.17,13.19,13.19,0,0,1,8-4.11,14.35,14.35,0,0,1,1.61-.1,12.4,12.4,0,0,1,2.64.28c.29.06.57.13.85.21a13.21,13.21,0,0,1,19-9,20.1,20.1,0,0,1-.52-3.45c0-.44,0-.89,0-1.34a21,21,0,0,1,20.86-21.14,21.22,21.22,0,0,1,6.08.86,19.55,19.55,0,0,1,.82-3.79,21,21,0,0,1,34.41-9.05l.73.72a31.73,31.73,0,0,1,6.48-4.66,31.32,31.32,0,0,1,37.9,6.21c.57.62,1.12,1.26,1.64,1.92a30.54,30.54,0,0,1,2.81,4.21,31.47,31.47,0,0,1,2.89,7.12,20.13,20.13,0,0,1,2.2-.12,21.07,21.07,0,0,1,18.9,11.84,13,13,0,0,1,4.57-.83,14.26,14.26,0,0,1,2.43.22,13.26,13.26,0,0,1,6.25,3c.29.26.57.52.84.8a13.21,13.21,0,0,1,3.54,7.27,13.21,13.21,0,0,1,18.09,4.66,13.63,13.63,0,0,1,1.28,2.93c.11.36.2.73.28,1.11a13.15,13.15,0,0,1,14.12,4.89,8.7,8.7,0,0,1,3.94-.95,8.79,8.79,0,0,1,0,17.58,8.69,8.69,0,0,1-3.94-.94,13.19,13.19,0,0,1-18.11,3,13.18,13.18,0,0,1-20.52,3.88,13.2,13.2,0,0,1-22.66,1.52,13.15,13.15,0,0,1-16.11-3.6A13.19,13.19,0,0,1,279.22,268a13.75,13.75,0,0,1-2.6-.73,31.38,31.38,0,0,1-49.14-7.46,13.12,13.12,0,0,1-14,1.48,13.21,13.21,0,0,1-22.66-1.52,13.18,13.18,0,0,1-18.62-1.1,12.91,12.91,0,0,1-1.9-2.78,13.19,13.19,0,0,1-18.1-3,8.78,8.78,0,0,1-11.53-12.28Z"/><path class="cls-9" d="M174.76,271.42h0l.24-.37h0c.09-.12.17-.23.26-.33h0l.27-.29.07-.06.27-.24.1-.07.27-.2.13-.08.27-.15.17-.08.25-.12.21-.08.23-.08.25-.06.21-.06h1a5,5,0,0,1,2.2.52c.17-.22.35-.44.54-.65a7.34,7.34,0,0,1,4.5-2.29,6.69,6.69,0,0,1,.9-.06,7.45,7.45,0,0,1,1.48.16l.47.11a7.38,7.38,0,0,1,10.6-5.05,12.5,12.5,0,0,1-.3-1.93v-.75a11.77,11.77,0,0,1,11.76-11.76,12.25,12.25,0,0,1,3.24.46,11.76,11.76,0,0,1,19.7-7.18l.41.41a17.55,17.55,0,0,1,24.85.86c.32.35.62.71.91,1.07a19,19,0,0,1,1.58,2.36,17.54,17.54,0,0,1,1.61,4c.41,0,.82-.07,1.23-.07a11.72,11.72,0,0,1,7.62,2.81,12,12,0,0,1,3,3.83,7.12,7.12,0,0,1,2.55-.47,7.83,7.83,0,0,1,1.36.13,7.41,7.41,0,0,1,3.5,1.7c.16.14.32.29.47.45a7.45,7.45,0,0,1,2,4.06,7.3,7.3,0,0,1,3.74-1,7.4,7.4,0,0,1,7.07,5.25,6.25,6.25,0,0,1,.16.62,7.48,7.48,0,0,1,2-.27,7.36,7.36,0,0,1,5.93,3,4.92,4.92,0,1,1,0,8.78A7.38,7.38,0,0,1,293.9,280a7.38,7.38,0,0,1-10,3,6.87,6.87,0,0,1-1.47-1,7.37,7.37,0,0,1-12.67.85,7.35,7.35,0,0,1-9-2,7.38,7.38,0,0,1-8.53,6,6.85,6.85,0,0,1-1.41-.39,17.53,17.53,0,0,1-27.54-4.17,7.32,7.32,0,0,1-7.81.83,7.38,7.38,0,0,1-12.67-.85,7.39,7.39,0,0,1-10.42-.63,6.76,6.76,0,0,1-1-1.54,7.39,7.39,0,0,1-10.13-1.7,4.91,4.91,0,0,1-6.44-6.87Z"/><path class="cls-10" d="M122.21,133.55h27.4a52.26,52.26,0,0,1,52.26,52.26h0V301.74H71.11V184.65a51.1,51.1,0,0,1,51.1-51.1Z"/><g class="cls-11"><path class="cls-12" d="M151.89,217.55a5.32,5.32,0,0,0,1.07,1.84,2.54,2.54,0,0,0,1.78.54,7.94,7.94,0,0,0,1.86-.41,2.84,2.84,0,0,1-2.1,2.3,5.15,5.15,0,0,1-3.24-.34,2.92,2.92,0,0,1-1-.57c-.68-.67-.7-1.73-1-2.64a4.53,4.53,0,0,1-.39-1.62C149.08,214.35,151.49,216.71,151.89,217.55Z"/><path class="cls-12" d="M149.16,216.22s-4.76-9.73-2.26-12.27c.65-.67,1.71.78,2.14,1.61a8.93,8.93,0,0,1,.72,2.69l.47,3.12a4.38,4.38,0,0,0,1.25,3,4.32,4.32,0,0,0,2.72.61,4,4,0,0,1-5,1.29"/><path class="cls-13" d="M147,207.46a2.58,2.58,0,0,1,1.78,1.62,6.19,6.19,0,0,1,.2,1.66,7.05,7.05,0,0,0,.57,2.83,3.25,3.25,0,0,0,2.1,1.86"/><path class="cls-13" d="M152.74,220.94a2.6,2.6,0,0,0,.88,0"/><path class="cls-13" d="M149.14,216.77a3.16,3.16,0,0,1,1.34,1.39c.31.57.53,1.19.85,1.76l.09.15a2.42,2.42,0,0,0,.27.36,1.75,1.75,0,0,0,.48.32"/><path class="cls-12" d="M142.91,225.36c-.7,1.91-2.38,3.25-4,4.43a26.69,26.69,0,0,1-2.57,1.65,16.87,16.87,0,0,1-2.13.95,19.59,19.59,0,0,1-9.23,1l12.13-9.8Z"/><path class="cls-13" d="M137.81,228.05a14.08,14.08,0,0,1-5.48,2.67,34.85,34.85,0,0,1-8.7.77"/><path class="cls-13" d="M139.05,226.85c-.19.23-.4.44-.61.65"/><path class="cls-13" d="M137.86,226.15a9.49,9.49,0,0,1-4,2.53,22.14,22.14,0,0,1-4.62,1"/><path class="cls-13" d="M136.48,225.81a9.67,9.67,0,0,1-4.29,1.9,22,22,0,0,1-4.72.29"/><path class="cls-14" d="M132.15,227.6a57.39,57.39,0,0,0-7,6.4c-.87.94-1.77,2.08-1.63,3.35-4.56-2.1-15-5.16-16-10.1,0-.17,7-1.69,7.08-1.84a.66.66,0,0,1,.28-.24c1.88-1.08,4.12-1.23,6.24-1.66,2.58-.52,5-1.48,7.55-2.25,1.74-.53,3.72-1,5.29,0,1.29.77,2,2.29,3.28,3.07a1.1,1.1,0,0,1,.59.72c-.81.45-2,.38-2.93.8A14.89,14.89,0,0,0,132.15,227.6Z"/><path class="cls-14" d="M146.71,204.9c1.85,5.51,3.73,11.3,2.81,17a5.63,5.63,0,0,1-1.43,3.25,6.44,6.44,0,0,1-4,1.2,34.85,34.85,0,0,1-5.21,0,18.83,18.83,0,0,1-11.71-5.64l9.26-13.26,3.8-1.4Z"/><path class="cls-15" d="M146.26,223.36c.5-.22-.55-1-1.06-1.18a1.8,1.8,0,0,0-1.57.12S143,224.78,146.26,223.36Z"/><path class="cls-14" d="M86.79,305a43,43,0,0,1,.35-9,38.26,38.26,0,0,1,2.7-8c3.1-7.33,6.31-14.67,7.92-22.46,1.27-6.14,1.51-12.46,2.85-18.59,1.13-5.18-1.08-10.65,1.52-15.26s8.17-3.45,12.75-1.81A132.94,132.94,0,0,1,127.23,235a34.64,34.64,0,0,1,7.06,4.18,22.68,22.68,0,0,1,3.88,4.13c-1.63,1.28-2.06,4.65-2.46,6.51a35.63,35.63,0,0,0-.84,8.11c0,5.45,1.31,10.8,1.94,16.21,1.54,13.29-.73,26.73-.22,40.09a26.36,26.36,0,0,0-3.08.33,79.2,79.2,0,0,0-8.15,2.38c-12.47,3.66-25.94.91-38.77,3Q87,312.44,86.79,305Z"/><path class="cls-16" d="M127.5,234.34a10.48,10.48,0,0,1,2.38,6.07,26.48,26.48,0,0,1-.46,6.53v.17h-.17a16.64,16.64,0,0,1-16.37-20.27l.52.12a16.2,16.2,0,0,0,15.85,19.75l-.2.16a25.67,25.67,0,0,0,.49-6.43,10.24,10.24,0,0,0-2.26-5.87Z"/><path class="cls-12" d="M100.43,222.71c1.7-1,3.21-1.82,4.69-2.7l2.18-1a44.75,44.75,0,0,0,7.89-4.86c1.73-1.34,3.44-2.93,4-5a20.32,20.32,0,0,0,.13-4.34,12.32,12.32,0,0,1,9.3-11.23,18.94,18.94,0,0,1,3.68-.49c3.69-.2,7.54.2,10.69,2a10.48,10.48,0,0,1,3.16,2.77,9.4,9.4,0,0,1,1.59,5.42,7.3,7.3,0,0,1-1.85,4.79,76.2,76.2,0,0,1-10.63,9.52c-14.77,10.51-18.66,11.27-22.33,12.85a54.25,54.25,0,0,1-12.81,3.42l-.28-3.23.42-6.79A3.1,3.1,0,0,1,100.43,222.71Z"/><path class="cls-17" d="M134.87,257.92a35.63,35.63,0,0,1,.84-8.11c.4-1.86.83-5.23,2.46-6.51a40.14,40.14,0,0,1,4.87,9.4,78,78,0,0,1,4.59,18.61c.41,3.45.59,6.93,1.12,10.37.47,3,1.19,5.87,1.92,8.78l6.3,25.19q-7.78-1-15.62-1.37c-1.58-.07-3.18-.13-4.76-.06C136.08,300.86,134.92,263.37,134.87,257.92Z"/><path class="cls-15" d="M131,223.83l-1.12-.71"/><path class="cls-15" d="M139.25,226.66a16.44,16.44,0,0,1-7.43-2.35"/><polygon class="cls-12" points="127.1 241.08 128.18 241.67 128.04 241.93 126.99 241.25 127.1 241.08"/><path class="cls-12" d="M125.72,233.52a5.21,5.21,0,0,0,.7,7.11l-.21.23a5.56,5.56,0,0,1-1.78-3.64,5.43,5.43,0,0,1,1.15-3.84Z"/><path class="cls-12" d="M123.63,243.84a13.53,13.53,0,0,0-.19-3.42,7,7,0,0,0-7.61-5.32v-.44a7.36,7.36,0,0,1,8,5.68,13.77,13.77,0,0,1,.16,3.51Z"/><path class="cls-17" d="M127.59,256.66c3.16,7.91,4.44,40.35,4.37,58a3.17,3.17,0,0,1-.36,1.65,3.32,3.32,0,0,1-2.28,1.11c-12.7,2.33-25.55,3.62-38.39,4.92-2.17.22-4.45.42-6.46-.43a3.61,3.61,0,0,1-1.64-1.24,4.78,4.78,0,0,1-.68-2.1c-1.57-10.13.15-20.49,2.71-30.42s6-19.65,7.82-29.73c.67-3.61,1.17-7.34,2.92-10.57,1.87-3.44,4.49-6.51,8.66-5.79C109.24,242.89,123.12,245.47,127.59,256.66Z"/><circle class="cls-16" cx="140.07" cy="218.81" r="2.31"/><path class="cls-12" d="M142.43,214.44a4.84,4.84,0,0,0,1.74.15,2.21,2.21,0,0,0,1.46-.69l.36.31a2.59,2.59,0,0,1-1.79.77,5.12,5.12,0,0,1-1.87-.24Z"/><path class="cls-12" d="M142.43,211.11a2.64,2.64,0,0,1,1.83-.74,4.07,4.07,0,0,1,1.9.41,2.93,2.93,0,0,1,1.39,1.37A5.38,5.38,0,0,1,148,214a9.87,9.87,0,0,0,.58,3.57.83.83,0,0,1,.14.55.71.71,0,0,1-.41.42,2.84,2.84,0,0,1-.93.31,1.58,1.58,0,0,1-1.72-.84l.28-.12a1.28,1.28,0,0,0,1.4.64,2.37,2.37,0,0,0,.81-.28c.29-.17.3-.21.12-.52a9.82,9.82,0,0,1-.65-3.68,3.27,3.27,0,0,0-1.68-2.88,2.88,2.88,0,0,0-3.2.27Z"/><path class="cls-16" d="M144.58,210a2,2,0,0,1,1.85,1,3.64,3.64,0,0,0-2.36.32c-.91.6-3.32.83-3.88,0s-.62-1.44-.11-1.2.91.81,1.37.25,1.07-.81,1.53-.37C143,210,143.94,209.33,144.58,210Z"/><path class="cls-18" d="M128.11,195.52s-1.93,19.07-26.45,27.17"/><path class="cls-18" d="M119.64,214.08A49.22,49.22,0,0,1,102,224.31"/><path class="cls-18" d="M122.11,211.6c-.43.48-.88,1-1.36,1.42"/><path class="cls-18" d="M130.88,196.16a37.52,37.52,0,0,1-6.73,13.06"/><path class="cls-18" d="M131.33,194.22a3.21,3.21,0,0,1-.16.83"/><path class="cls-18" d="M134.65,194.59s-5.37,23.1-32.68,31.22"/><path class="cls-18" d="M105.43,227.62c-1.11.34-2.25.67-3.42,1"/><path class="cls-18" d="M139.49,198.77c-2.3,6.17-9.8,20.47-31.43,28"/><path class="cls-18" d="M140.43,195.81s-.11.55-.41,1.5"/><path class="cls-18" d="M135.82,210.69c-.22.26-.43.52-.66.78-5.85,6.8-16,14.4-33.19,18.81"/><path class="cls-18" d="M143,197.31s-.93,4.84-5.31,11"/><path class="cls-18" d="M145.82,199.84s-6.59,22.87-43.69,31.81"/><path class="cls-18" d="M124.63,196.55s-1.42,6.65-4.74,10.61"/><path class="cls-18" d="M137.7,195s-6.59,24.62-35.73,32.16"/><path class="cls-12" d="M128.35,229.1a21.79,21.79,0,0,1-2.34,1.63,7.34,7.34,0,0,1-2.71,1v-.3a6.84,6.84,0,0,0,2.62-.88,22.75,22.75,0,0,0,2.34-1.57Z"/><path class="cls-19" d="M103,276.22c-.17.13-.42,0-.56-.14a1.82,1.82,0,0,1-.31-.56,2.53,2.53,0,0,0-.67-.85.51.51,0,0,1,.42,0,2.2,2.2,0,0,1,.34.28c-.12-.34.37-.68.22-1a3.42,3.42,0,0,0,.39.73c.09.12.2.22.28.35a1,1,0,0,1-.11,1.16"/><path class="cls-19" d="M102.87,274.83a1.47,1.47,0,0,1,.21-1,2.9,2.9,0,0,0,.09.59c.07.19.19.35.27.54a1.1,1.1,0,0,1,0,.76.89.89,0,0,1-.51.56"/><path class="cls-19" d="M101.82,274.72a3.67,3.67,0,0,0-1.13-1.22,1.81,1.81,0,0,0-1.16-.19,1.17,1.17,0,0,0-.88.74"/><path class="cls-19" d="M104.72,271.68a.83.83,0,0,0-.78-.37,1.15,1.15,0,0,0-.75.46,1.91,1.91,0,0,0-.37.82,3.59,3.59,0,0,0,0,1.84v.13"/><path class="cls-19" d="M101,273.71a.6.6,0,0,0-.68,0c-.13.13-.14.35-.29.47s-.59,0-.8.16l-.1.09a.27.27,0,0,1-.34-.07.36.36,0,0,1-.13-.33"/><path class="cls-19" d="M104.72,271.68a.49.49,0,0,1,0,.41.33.33,0,0,1-.34.18c-.12,0-.24-.13-.35-.08s-.11.17-.17.27a.6.6,0,0,1-.41.25.91.91,0,0,0-.46.16.88.88,0,0,0-.32.74"/><path class="cls-19" d="M104.2,271.31a1.58,1.58,0,0,0-.81-.39H103c-.15,0-.18-.1-.22-.3a1.35,1.35,0,0,1-.54.57,1.14,1.14,0,0,1-.7.1.94.94,0,0,0-.41,0,.44.44,0,0,0-.37.4.51.51,0,0,0-.62.21c-.12.16-.15.38-.28.53a.77.77,0,0,1-.75.19.23.23,0,0,1,0,.31c-.06.11-.18.16-.27.23a.78.78,0,0,0-.23.91"/><path class="cls-19" d="M102.72,273.22a2,2,0,0,1,.4-1,.82.82,0,0,1,.43-.32.53.53,0,0,1,.52.22"/><path class="cls-19" d="M100.54,273.43a1,1,0,0,0-1.19.87"/><path class="cls-19" d="M103,276.22a2.3,2.3,0,0,0,1,1.09"/><path class="cls-19" d="M102.29,274.57c-1.26-2.45-2.61-2-2.61-2"/><path class="cls-19" d="M102.36,271.11a4,4,0,0,0,0,3.4"/><path class="cls-19" d="M102.53,272v.21"/><path class="cls-19" d="M103.29,270.91a1.77,1.77,0,0,0-.68.85"/><path class="cls-19" d="M100.25,272.93l.23.09"/><path class="cls-19" d="M99,273.07a1.93,1.93,0,0,1,1.06-.18"/><path class="cls-19" d="M101.43,272.62l.08.18"/><path class="cls-19" d="M100.15,271.88a1.34,1.34,0,0,1,1.16.58"/><path class="cls-19" d="M101.43,271.22a1.28,1.28,0,0,0-.22.68"/><path class="cls-19" d="M102.78,275.65a.64.64,0,0,1-.19.62"/><path class="cls-19" d="M102.65,275.36s0,.09.07.14"/><path class="cls-19" d="M110.13,279.27a.47.47,0,0,1,.16-.57,1.89,1.89,0,0,1,.57-.28,2.65,2.65,0,0,0,.88-.65.51.51,0,0,1,0,.42,1.32,1.32,0,0,1-.29.33c.34-.1.67.4,1,.26a3.24,3.24,0,0,0-.75.36c-.12.09-.23.19-.36.27a1.07,1.07,0,0,1-1.16-.14"/><path class="cls-19" d="M111.57,279.22a1.49,1.49,0,0,1,1,.25,2,2,0,0,0-.59.07c-.19.06-.36.17-.55.24a1.1,1.1,0,0,1-.76,0,.84.84,0,0,1-.55-.52"/><path class="cls-19" d="M111.71,278.16a3.65,3.65,0,0,0,1.26-1.08,1.88,1.88,0,0,0,.23-1.16,1.25,1.25,0,0,0-.72-.9"/><path class="cls-19" d="M114.66,281.16a.83.83,0,0,0,.39-.76,1.22,1.22,0,0,0-.43-.77,2.12,2.12,0,0,0-.81-.4,3.86,3.86,0,0,0-1.85-.05h-.13"/><path class="cls-19" d="M112.75,277.36a.62.62,0,0,0,0-.67c-.13-.14-.36-.16-.47-.31s0-.58-.14-.81l-.08-.09a.27.27,0,0,1,.08-.34.39.39,0,0,1,.33-.12"/><path class="cls-19" d="M114.66,281.16a.49.49,0,0,1-.41,0,.29.29,0,0,1-.17-.35c0-.12.14-.23.09-.34s-.17-.13-.27-.18a.55.55,0,0,1-.23-.42,1.59,1.59,0,0,0-.14-.47.94.94,0,0,0-.73-.34"/><path class="cls-19" d="M115,280.65a1.63,1.63,0,0,0,.42-.8v-.38c0-.16.1-.17.3-.2a1.34,1.34,0,0,1-.56-.57,1.1,1.1,0,0,1-.07-.69,1.41,1.41,0,0,0,0-.41.48.48,0,0,0-.39-.39.56.56,0,0,0-.19-.63c-.16-.12-.38-.15-.53-.29a.81.81,0,0,1-.16-.76.24.24,0,0,1-.32,0,.89.89,0,0,1-.22-.29.76.76,0,0,0-.9-.25"/><path class="cls-19" d="M113.15,279.11a2.16,2.16,0,0,1,.95.43.88.88,0,0,1,.3.45.56.56,0,0,1-.23.51"/><path class="cls-19" d="M113.05,276.92a1.12,1.12,0,0,0-.11-.74,1,1,0,0,0-.73-.47"/><path class="cls-19" d="M110.13,279.27a2.21,2.21,0,0,0-1.11,1"/><path class="cls-19" d="M111.85,278.64c2.48-1.18,2.1-2.54,2.1-2.54"/><path class="cls-19" d="M115.3,278.82a4.12,4.12,0,0,0-3.4-.16"/><path class="cls-19" d="M114.37,279h-.2"/><path class="cls-19" d="M115.43,279.75a1.83,1.83,0,0,0-.83-.7"/><path class="cls-19" d="M113.55,276.65a1.6,1.6,0,0,1-.1.23"/><path class="cls-19" d="M113.43,275.38a1.93,1.93,0,0,1,.15,1.06"/><path class="cls-19" d="M113.82,277.83l-.18.08"/><path class="cls-19" d="M114.61,276.58a1.37,1.37,0,0,1-.62,1.15"/><path class="cls-19" d="M115.18,277.87a1.37,1.37,0,0,0-.67-.25"/><path class="cls-19" d="M110.75,279.09a.61.61,0,0,1-.61-.21"/><path class="cls-19" d="M111,279l-.14.07"/><path class="cls-20" d="M100.05,243a16.35,16.35,0,0,1,7,.85c5,1.42,9.49,3,13.35,6.1a22.49,22.49,0,0,1,7.46,12.38"/><path class="cls-21" d="M99.18,243.61c2.27-.39,4.54.15,7.06.81,4.76,1.25,9.49,3,13.35,6.11a22.49,22.49,0,0,1,7.46,12.37"/><path class="cls-21" d="M126.24,260.22a8.76,8.76,0,0,1-1.45-.08,1.46,1.46,0,0,1-.86-.5,1.69,1.69,0,0,1-.3-.6,5.92,5.92,0,0,1,.27-3.48"/><path class="cls-21" d="M123.9,255.53a2.55,2.55,0,0,1-2.34-.9,2.76,2.76,0,0,1-.49-2.52c-1.2-.11-2.55-.31-3.25-1.32a4.32,4.32,0,0,1-.59-1.88,3.66,3.66,0,0,1-3.07-.07,3.83,3.83,0,0,1-2-2.43,2.91,2.91,0,0,1-2.78.49,3.08,3.08,0,0,1-2.06-2,5.72,5.72,0,0,1-3.11.4,3.53,3.53,0,0,1-2.68-1.87"/><path class="cls-16" d="M107.25,246.14c-.07.19-.46.83-.65.76s-.12-.81,0-1a.36.36,0,0,1,.45-.24h0A.4.4,0,0,1,107.25,246.14Z"/><path class="cls-16" d="M112,247.93c-.1.19-.58.76-.76.66s0-.83.1-1a.37.37,0,0,1,.5-.16A.4.4,0,0,1,112,247.93Z"/><path class="cls-16" d="M116.59,250.45c-.13.16-.72.62-.88.49s.18-.81.31-1a.35.35,0,0,1,.5-.07h0a.4.4,0,0,1,.07.55Z"/><path class="cls-16" d="M120.23,253.27c-.14.15-.76.57-.91.43s.23-.8.37-1a.39.39,0,0,1,.55.55Z"/><path class="cls-16" d="M122.62,256.66c-.17.12-.86.4-1,.23s.39-.73.56-.85a.37.37,0,0,1,.52.1.38.38,0,0,1-.1.52h0Z"/><path class="cls-16" d="M139.31,256.22c.2.06.87.4.81.6s-.8.18-1,.13a.38.38,0,1,1,.19-.73Z"/><path class="cls-16" d="M139.74,250c.18.1.74.6.64.78s-.82,0-1-.12a.38.38,0,0,1-.1-.53.39.39,0,0,1,.47-.13Z"/><ellipse class="cls-22" cx="104.19" cy="244.6" rx="0.17" ry="0.18"/><ellipse class="cls-22" cx="109.59" cy="246.09" rx="0.17" ry="0.18"/><ellipse class="cls-22" cx="114.5" cy="248.17" rx="0.17" ry="0.18"/><ellipse class="cls-22" cx="118.89" cy="250.78" rx="0.17" ry="0.18"/><ellipse class="cls-22" cx="122.2" cy="254.08" rx="0.17" ry="0.18"/><ellipse class="cls-22" cx="124.48" cy="258.35" rx="0.17" ry="0.18"/><path class="cls-23" d="M110.76,273.09a.83.83,0,0,1,.69-.21.77.77,0,0,1,.53.21.56.56,0,0,1,.09.17.62.62,0,0,1-.1.59.4.4,0,0,1-.56,0,.19.19,0,0,1-.06-.2.14.14,0,0,1,.16-.1"/><path class="cls-23" d="M107.51,272.07a.81.81,0,0,0-.1-.71A.78.78,0,0,0,107,271a.54.54,0,0,0-.18,0,.56.56,0,0,0-.49.35.38.38,0,0,0,.23.5.26.26,0,0,0,.21,0,.14.14,0,0,0,0-.19"/><path class="cls-23" d="M104.21,274a.77.77,0,0,1,.37-.61.69.69,0,0,1,.53-.2l.18.06a.58.58,0,0,1,.32.51.39.39,0,0,1-.4.38h0A.23.23,0,0,1,105,274v-.18"/><path class="cls-23" d="M101.12,275.44a.83.83,0,0,0-.55-.45.73.73,0,0,0-.58,0,.41.41,0,0,0-.14.12.56.56,0,0,0-.13.58.39.39,0,0,0,.5.23h0a.25.25,0,0,0,.12-.16.15.15,0,0,0-.11-.16"/><path class="cls-23" d="M112.32,280.62a1,1,0,0,1,.86.87.54.54,0,0,1,0,.18.57.57,0,0,1-.49.34.38.38,0,0,1-.4-.36v0a.19.19,0,0,1,.1-.19.15.15,0,0,1,.18,0"/><path class="cls-23" d="M110.73,277.62a.84.84,0,0,0,.42-.58.73.73,0,0,0,0-.58l-.12-.14a.6.6,0,0,0-.6-.1.39.39,0,0,0-.2.52.2.2,0,0,0,.17.12.14.14,0,0,0,.15-.12"/><path class="cls-24" d="M114.43,273.54c-.08,0-.1-.11-.08-.19s.21-.09.29-.09a1.3,1.3,0,0,1,.9.49,2.24,2.24,0,0,1,.54.9c0,.13.07.48-.13.49h0c.18,0,.11-.38.08-.48a2,2,0,0,0-.34-.64,2.29,2.29,0,0,0-.57-.55.8.8,0,0,0-.39-.14h-.16c-.1,0-.31.14-.14.23h0Z"/><path class="cls-24" d="M116,275.14c-.45.5-1.2-.16-1.5-.53a1.48,1.48,0,0,1-.34-.85c0-.19.07-.37.27-.26h0c-.29-.17-.2.36-.16.49a1.59,1.59,0,0,0,.39.69c.29.33.94.84,1.36.42Z"/><path class="cls-24" d="M116,275.14h0a1.19,1.19,0,0,1-.08-.2.85.85,0,0,0-.38-.37,7.84,7.84,0,0,1-.82-.41,1.12,1.12,0,0,1-.38-.46c0-.12,0-.23.12-.21s0,.05,0,.05c-.22,0,.06.36.11.41a1.68,1.68,0,0,0,.67.43,1.85,1.85,0,0,1,.59.34.72.72,0,0,1,.12.21.66.66,0,0,1,.06.2Z"/><path class="cls-24" d="M116,274.22a.15.15,0,0,1,.19-.08c.13.06.12.2.12.32s0,.64-.24.68h0c.17,0,.19-.33.21-.46v-.38a.15.15,0,0,0-.15-.14.14.14,0,0,0-.12.09Z"/><path class="cls-24" d="M116,275.14c-.11.51-1,.31-1.11-.14h0c.07.4,1,.64,1.06.15Z"/><path class="cls-24" d="M116,275.12a4.22,4.22,0,0,1,1.27,4h0a4.32,4.32,0,0,0-1.25-4Z"/><path class="cls-24" d="M116.12,275.1l.09.12.22.24a4.32,4.32,0,0,1,.54.8,3.84,3.84,0,0,1,.27,2.84h0a3.84,3.84,0,0,0-.32-2.91,6,6,0,0,0-.55-.77l-.17-.21a.36.36,0,0,1-.07-.1Z"/><path class="cls-24" d="M106.55,275.22c0-.08.08-.13.15-.14s.16.17.18.25a1.26,1.26,0,0,1-.19,1,2.13,2.13,0,0,1-.7.79c-.11.07-.43.22-.5,0h0s.39,0,.48-.08a1.94,1.94,0,0,0,.51-.52,2.76,2.76,0,0,0,.35-.71,1,1,0,0,0,0-.41s0-.1,0-.15-.23-.26-.26-.06Z"/><path class="cls-24" d="M105.5,277.13c-.62-.28-.21-1.2,0-1.59a1.55,1.55,0,0,1,.7-.59c.18-.06.38,0,.33.19h0c.07-.33-.41-.08-.52,0a1.73,1.73,0,0,0-.53.58c-.23.39-.52,1.16,0,1.43Z"/><path class="cls-24" d="M105.5,277.13h0a1.09,1.09,0,0,1,.17-.13.88.88,0,0,0,.24-.48,5.61,5.61,0,0,1,.14-.9,1.11,1.11,0,0,1,.32-.5c.09-.09.2-.1.23,0h0c0-.21-.32.18-.36.23a1.78,1.78,0,0,0-.21.78,1.86,1.86,0,0,1-.14.66.93.93,0,0,1-.16.18.66.66,0,0,1-.17.12Z"/><path class="cls-24" d="M106.34,276.79a.14.14,0,0,1,.13.16c0,.09-.15.17-.27.21s-.6.2-.72,0h0a2.31,2.31,0,0,0,.5.06l.22-.06.14-.06a.15.15,0,0,0,.08-.19.14.14,0,0,0-.08-.09Z"/><path class="cls-24" d="M105.5,277.13c-.52,0-.62-.91-.2-1.1m0,.05c-.36.18-.32,1.11.18,1.05Z"/><path class="cls-24" d="M105.51,277.07a4.23,4.23,0,0,1-3.41,2.43h0a4.33,4.33,0,0,0,3.4-2.4h0Z"/><path class="cls-24" d="M105.57,277.22a1.26,1.26,0,0,0-.09.13s-.1.18-.16.27a4.08,4.08,0,0,1-.6.77,3.82,3.82,0,0,1-2.62,1.12h0a3.84,3.84,0,0,0,2.68-1.19,7.09,7.09,0,0,0,.56-.76l.15-.23a.09.09,0,0,1,.08-.09h0Z"/><path class="cls-19" d="M105.64,251.22c-.43.28-1-.52-.68-.89h0c-.23.34.23,1.14.64.86Z"/><path class="cls-19" d="M105.79,251c.44.26.94-.58.64-.93h0c.25.33-.18,1.16-.6.89Z"/><path class="cls-19" d="M105.43,252.78a.67.67,0,0,0,.75.11,1.09,1.09,0,0,0,.52-.58.34.34,0,0,0,0-.2.25.25,0,0,0-.21-.18.71.71,0,0,0-.29,0,2.55,2.55,0,0,0-.62.23"/><path class="cls-19" d="M105.43,252.56a1.58,1.58,0,0,0,1.27-.45"/><path class="cls-19" d="M104.43,254.11a.58.58,0,0,0,.54.34.92.92,0,0,0,.6-.27.34.34,0,0,0,.09-.14.24.24,0,0,0-.09-.21.92.92,0,0,0-.23-.09,2.62,2.62,0,0,0-.56,0"/><path class="cls-19" d="M104.53,254a1.3,1.3,0,0,0,1.12.09"/><path class="cls-19" d="M104.13,254.33a.67.67,0,0,1-.43-.62A1.09,1.09,0,0,1,104,253a.4.4,0,0,1,.16-.12.28.28,0,0,1,.26.1.81.81,0,0,1,.11.27,3,3,0,0,1,.07.66"/><path class="cls-19" d="M104.31,254.22a1.53,1.53,0,0,1-.17-1.33"/><path class="cls-19" d="M105.31,252.9a.51.51,0,0,1-.49-.29.76.76,0,0,1,0-.59.24.24,0,0,1,.07-.13.17.17,0,0,1,.21,0,.46.46,0,0,1,.16.15,1.73,1.73,0,0,1,.25.44"/><path class="cls-19" d="M105.43,252.76a1.21,1.21,0,0,1-.53-.87"/><path class="cls-19" d="M105.72,250.9a1.07,1.07,0,0,0,.12-.58,1.21,1.21,0,0,0-.16-.52,1.83,1.83,0,0,1-.26-.42.68.68,0,0,1,.18-.77"/><path class="cls-19" d="M105.83,248.43a1.29,1.29,0,0,1,.28-.08.14.14,0,0,1,.16.1c0,.12.06.24.08.36a3.89,3.89,0,0,1,.05.76,1.73,1.73,0,0,1-.43,1.13.83.83,0,0,1-.3.2h-.11a.66.66,0,0,1-.24-.11,1.2,1.2,0,0,1-.38-.67,3.36,3.36,0,0,1-.14-1v-.65h.06a.82.82,0,0,1,.5.15c.07.06.12.16.2.08A.55.55,0,0,1,105.83,248.43Z"/><path class="cls-19" d="M105.71,250.89s.44,3.69-4.07,4.3"/><path class="cls-19" d="M105.72,257.22c-.47-.21-.08-1.09.38-1h0c-.41,0-.83.81-.37,1Z"/><path class="cls-19" d="M106,257.22c0,.52,1,.48,1.12,0h0c-.14.38-1.08.47-1.08,0Z"/><path class="cls-19" d="M104.28,257.85a.67.67,0,0,0,.31.69,1.11,1.11,0,0,0,.78.12.45.45,0,0,0,.18-.07.28.28,0,0,0,0-.28.66.66,0,0,0-.17-.23,2.9,2.9,0,0,0-.54-.4"/><path class="cls-19" d="M104.49,257.76a1.56,1.56,0,0,0,1.06.83"/><path class="cls-19" d="M102.63,257.73a.56.56,0,0,0,0,.63.83.83,0,0,0,.55.36h.17a.21.21,0,0,0,.12-.19.49.49,0,0,0,0-.24,2.31,2.31,0,0,0-.28-.48"/><path class="cls-19" d="M102.82,257.73a1.29,1.29,0,0,0,.53,1"/><path class="cls-19" d="M102.28,257.6a.67.67,0,0,1,.29-.7,1.06,1.06,0,0,1,.76-.15.34.34,0,0,1,.19.07.27.27,0,0,1,.06.27.81.81,0,0,1-.17.24,2.54,2.54,0,0,1-.52.41"/><path class="cls-19" d="M102.49,257.68s.37-.78,1-.86"/><path class="cls-19" d="M104.12,257.82a.5.5,0,0,1,0-.57.82.82,0,0,1,.49-.34.38.38,0,0,1,.15,0,.2.2,0,0,1,.12.17.74.74,0,0,1,0,.21,2,2,0,0,1-.24.45"/><path class="cls-19" d="M104.29,257.81a1.11,1.11,0,0,1,.45-.9"/><path class="cls-19" d="M106,257.08a1.06,1.06,0,0,0,.56-.2,1.35,1.35,0,0,0,.35-.43,2,2,0,0,1,.21-.44.72.72,0,0,1,.75-.27"/><path class="cls-19" d="M108.17,255.84l.21.19a.14.14,0,0,1,0,.19,2.16,2.16,0,0,1-.25.27,4.37,4.37,0,0,1-.62.44,1.68,1.68,0,0,1-1.19.25A.71.71,0,0,1,106,257a.14.14,0,0,1,0-.1.57.57,0,0,1,0-.26,1.18,1.18,0,0,1,.35-.68,3.38,3.38,0,0,1,.79-.67l.3-.17.27-.15h0a.69.69,0,0,1,.14.5c0,.09-.06.19,0,.21A.78.78,0,0,1,108.17,255.84Z"/><path class="cls-19" d="M106,257.07s-2.87,2.36-5.82-1.1"/><path class="cls-19" d="M111.43,260.8c-.28.44-1.09-.07-1-.52h0c-.07.4.68.93.94.51Z"/><path class="cls-19" d="M111.48,260.58c.51.05.61-.91.2-1.11m0,0c.36.19.32,1.12-.17,1.06Z"/><path class="cls-19" d="M111.88,262.32a.68.68,0,0,0,.72-.21,1,1,0,0,0,.23-.75.31.31,0,0,0,0-.19.26.26,0,0,0-.26-.09.48.48,0,0,0-.25.14,2.37,2.37,0,0,0-.47.48"/><path class="cls-19" d="M111.82,262.1a1.69,1.69,0,0,0,1-.93"/><path class="cls-19" d="M111.53,263.94a.56.56,0,0,0,.62.09,1,1,0,0,0,.44-.5.43.43,0,0,0,0-.16.26.26,0,0,0-.16-.15,1,1,0,0,0-.24,0,2.36,2.36,0,0,0-.52.21"/><path class="cls-19" d="M111.56,263.75a1.34,1.34,0,0,0,1-.38"/><path class="cls-19" d="M111.36,264.22a.68.68,0,0,1-.66-.37,1.08,1.08,0,0,1,0-.79.26.26,0,0,1,.09-.17.28.28,0,0,1,.28,0,.8.8,0,0,1,.21.2,3,3,0,0,1,.34.57"/><path class="cls-19" d="M111.43,264.07a1.55,1.55,0,0,1-.71-1.14"/><path class="cls-19" d="M111.83,262.48a.52.52,0,0,1-.57-.07.73.73,0,0,1-.27-.53.17.17,0,0,1,0-.14.18.18,0,0,1,.18-.1.44.44,0,0,1,.21.07,2.78,2.78,0,0,1,.41.29"/><path class="cls-19" d="M111.84,262.31a1.2,1.2,0,0,1-.83-.57"/><path class="cls-19" d="M111.36,260.49a1,1,0,0,0-.13-.58,1.13,1.13,0,0,0-.37-.41,2.12,2.12,0,0,1-.43-.28.73.73,0,0,1-.16-.77"/><path class="cls-19" d="M110.43,258.22a.79.79,0,0,1,.22-.18.14.14,0,0,1,.19,0,3.15,3.15,0,0,1,.22.29,4.32,4.32,0,0,1,.36.67,1.74,1.74,0,0,1,.08,1.21.89.89,0,0,1-.19.31h-.1a.57.57,0,0,1-.26,0,1.19,1.19,0,0,1-.63-.44,3.51,3.51,0,0,1-.55-.88c0-.1-.09-.21-.13-.31l-.11-.29h0a.78.78,0,0,1,.52-.07c.09,0,.17.09.21,0A.79.79,0,0,1,110.43,258.22Z"/><path class="cls-19" d="M111.34,260.48s2,3.17-1.89,5.61"/><path class="cls-19" d="M116.12,254.88c-.15.5-1.07.23-1.09-.23h0c0,.4.91.71,1,.23Z"/><path class="cls-19" d="M116.12,254.66c.51-.09.35-1-.1-1.12v.05c.39.09.6,1,.11,1.07Z"/><path class="cls-19" d="M117,256.22a.71.71,0,0,0,.64-.4,1.05,1.05,0,0,0,0-.78.32.32,0,0,0-.1-.17.22.22,0,0,0-.27,0,.58.58,0,0,0-.21.2,2.52,2.52,0,0,0-.32.58"/><path class="cls-19" d="M116.85,256a1.53,1.53,0,0,0,.68-1.15"/><path class="cls-19" d="M117.06,257.89a.57.57,0,0,0,.63-.09.91.91,0,0,0,.28-.59.25.25,0,0,0,0-.17.21.21,0,0,0-.2-.1.79.79,0,0,0-.23.09,1.87,1.87,0,0,0-.45.33"/><path class="cls-19" d="M117,257.7A1.31,1.31,0,0,0,118,257"/><path class="cls-19" d="M117,258.22a.67.67,0,0,1-.73-.19,1,1,0,0,1-.25-.74.31.31,0,0,1,0-.19.27.27,0,0,1,.27-.09.67.67,0,0,1,.25.13,2.62,2.62,0,0,1,.48.46"/><path class="cls-19" d="M117,258s-.82-.25-1-.9"/><path class="cls-19" d="M117,256.39a.51.51,0,0,1-.56.09.77.77,0,0,1-.4-.43.22.22,0,0,1,.16-.29.37.37,0,0,1,.21,0,2.34,2.34,0,0,1,.48.18"/><path class="cls-19" d="M116.93,256.22a1.19,1.19,0,0,1-1-.33"/><path class="cls-19" d="M116,254.6a1,1,0,0,0-.27-.52,1.1,1.1,0,0,0-.47-.29,3.71,3.71,0,0,1-.47-.16.72.72,0,0,1-.36-.7"/><path class="cls-19" d="M114.43,252.64a.78.78,0,0,1,.16-.24.15.15,0,0,1,.2,0,2.64,2.64,0,0,1,.29.21,4,4,0,0,1,.52.56,1.69,1.69,0,0,1,.4,1.14.79.79,0,0,1-.1.34l-.09.07a.57.57,0,0,1-.25.06,1.1,1.1,0,0,1-.72-.26,3.37,3.37,0,0,1-.77-.69l-.21-.27-.18-.25h0v-.06a.77.77,0,0,1,.48-.2c.09,0,.19,0,.2-.07A.58.58,0,0,1,114.43,252.64Z"/><path class="cls-19" d="M116,254.6s2.72,2.54-.33,5.91"/><path class="cls-19" d="M141.63,256.31c-.3.43-1.09-.12-1-.56h0c-.09.39.64,1,.91.55Z"/><path class="cls-19" d="M141.69,256.1c.52.08.67-.88.26-1.1h0c.35.21.25,1.15-.24,1.06Z"/><path class="cls-19" d="M142,257.85a.69.69,0,0,0,.74-.17,1.06,1.06,0,0,0,.27-.74.31.31,0,0,0,0-.19.28.28,0,0,0-.26-.1.58.58,0,0,0-.26.13,2.34,2.34,0,0,0-.49.45"/><path class="cls-19" d="M142,257.63a1.59,1.59,0,0,0,1-.88"/><path class="cls-19" d="M141.57,259.46a.57.57,0,0,0,.62.11.88.88,0,0,0,.46-.47.43.43,0,0,0,0-.16.25.25,0,0,0-.17-.16h-.24a2.37,2.37,0,0,0-.53.18"/><path class="cls-19" d="M141.61,259.27a1.31,1.31,0,0,0,1.08-.33"/><path class="cls-19" d="M141.43,259.77a.67.67,0,0,1-.63-.41,1.05,1.05,0,0,1,0-.78.45.45,0,0,1,.11-.17.28.28,0,0,1,.28,0,1,1,0,0,1,.2.21,2.55,2.55,0,0,1,.31.59"/><path class="cls-19" d="M141.5,259.58a1.53,1.53,0,0,1-.65-1.17"/><path class="cls-19" d="M142,258a.52.52,0,0,1-.56-.09.8.8,0,0,1-.25-.54.38.38,0,0,1,0-.15.2.2,0,0,1,.19-.09.6.6,0,0,1,.21.08,2.37,2.37,0,0,1,.39.32"/><path class="cls-19" d="M142,257.84a1.23,1.23,0,0,1-.81-.61"/><path class="cls-19" d="M141.58,256a1,1,0,0,0-.1-.58,1.2,1.2,0,0,0-.34-.43,2.92,2.92,0,0,1-.4-.29.7.7,0,0,1-.12-.78"/><path class="cls-19" d="M140.77,253.66a.92.92,0,0,1,.22-.17.15.15,0,0,1,.2,0l.21.3a4.32,4.32,0,0,1,.32.69,1.68,1.68,0,0,1,0,1.21.9.9,0,0,1-.21.3h-.1a.57.57,0,0,1-.26,0,1.24,1.24,0,0,1-.61-.47,3.45,3.45,0,0,1-.5-.9,1.21,1.21,0,0,0-.11-.32l-.1-.3h0a.12.12,0,0,1,0-.05.77.77,0,0,1,.52,0c.08,0,.16.1.21,0A.64.64,0,0,1,140.77,253.66Z"/><path class="cls-19" d="M141.57,256s1.77,3.26-2.18,5.5"/><ellipse class="cls-14" cx="120.67" cy="258.63" rx="0.17" ry="0.18"/><ellipse class="cls-14" cx="139.84" cy="258.02" rx="0.17" ry="0.18"/><ellipse class="cls-14" cx="141.08" cy="251.92" rx="0.17" ry="0.18"/><ellipse class="cls-14" cx="113.97" cy="258.12" rx="0.17" ry="0.18"/><ellipse class="cls-14" cx="107.98" cy="258.12" rx="0.17" ry="0.18"/><ellipse class="cls-14" cx="107.81" cy="252.86" rx="0.17" ry="0.18"/><ellipse class="cls-14" cx="108.42" cy="248.79" rx="0.17" ry="0.18"/><ellipse class="cls-14" cx="113.12" cy="250.57" rx="0.17" ry="0.18"/><ellipse class="cls-14" cx="117.53" cy="253.38" rx="0.17" ry="0.18"/><ellipse class="cls-14" cx="103.59" cy="247.2" rx="0.17" ry="0.18"/><path class="cls-19" d="M111.43,254.76c.08-.52,1-.39,1.12.06h0c-.1-.4-1-.57-1.06-.07Z"/><path class="cls-19" d="M111.48,255c-.49.16-.18,1.08.28,1.09V256c-.41,0-.75-.9-.28-1Z"/><path class="cls-19" d="M110.43,253.56a.65.65,0,0,0-.57.49,1.06,1.06,0,0,0,.09.78.27.27,0,0,0,.13.15.26.26,0,0,0,.27,0,.84.84,0,0,0,.18-.23,2.8,2.8,0,0,0,.23-.63"/><path class="cls-19" d="M110.54,253.73a1.58,1.58,0,0,0-.49,1.25"/><path class="cls-19" d="M110.05,251.94a.56.56,0,0,0-.61.18.89.89,0,0,0-.19.63.16.16,0,0,0,.22.22.43.43,0,0,0,.21-.11,3,3,0,0,0,.39-.41"/><path class="cls-19" d="M110.1,252.12s-.68.24-.8.79"/><path class="cls-19" d="M110.07,251.57a.67.67,0,0,1,.75.08,1.07,1.07,0,0,1,.37.69.34.34,0,0,1,0,.2.29.29,0,0,1-.24.13.84.84,0,0,1-.28-.09,2.66,2.66,0,0,1-.54-.39"/><path class="cls-19" d="M110.06,251.8a1.54,1.54,0,0,1,1.11.74"/><path class="cls-19" d="M110.43,253.4a.49.49,0,0,1,.54-.18.8.8,0,0,1,.46.37.33.33,0,0,1,0,.14.18.18,0,0,1-.13.16.37.37,0,0,1-.21,0,1.71,1.71,0,0,1-.5-.1"/><path class="cls-19" d="M110.43,253.56a1.23,1.23,0,0,1,1,.17"/><path class="cls-19" d="M111.63,255a.93.93,0,0,0,.35.48,1.12,1.12,0,0,0,.5.21,4.53,4.53,0,0,1,.49.08.74.74,0,0,1,.47.64"/><path class="cls-19" d="M113.43,256.72l-.12.26a.16.16,0,0,1-.19,0l-.32-.17a3,3,0,0,1-.6-.46,1.66,1.66,0,0,1-.58-1.07.7.7,0,0,1,0-.35l.08-.08a.66.66,0,0,1,.24-.11,1.23,1.23,0,0,1,.75.15,3.84,3.84,0,0,1,.87.57l.24.23.22.22h0v0a.7.7,0,0,1-.45.28c-.08,0-.19,0-.18.1A.92.92,0,0,1,113.43,256.72Z"/><path class="cls-19" d="M111.64,255s-3.07-2.09-.58-5.9"/><polygon class="cls-12" points="144.23 258.64 144.42 259.37 144.09 259.43 144.02 258.67 144.23 258.64"/><path class="cls-12" d="M140.76,247.31a11.67,11.67,0,0,1,1.22,2.45c.33.84.61,1.7.86,2.57.51,1.74.91,3.5,1.26,5.27l-.33.06c-.33-1.76-.7-3.53-1.19-5.25-.24-.87-.51-1.73-.83-2.57a11.69,11.69,0,0,0-1.15-2.39Z"/><path class="cls-16" d="M130.21,248.07a6.38,6.38,0,0,1,1.22,2.15,3.23,3.23,0,0,1,.17.82,1.69,1.69,0,0,1-1,1.53,1.5,1.5,0,0,1-1.74-.45,2.25,2.25,0,0,1-.37-1.28,6.47,6.47,0,0,1,.2-1.91,5.41,5.41,0,0,0,.3-1.49c0-.17-.1-.61,0-.71.35-.28.47.42.52.59C129.68,247.66,130,247.82,130.21,248.07Z"/><path class="cls-14" d="M130.43,250.81a2,2,0,0,0-1.44.31.28.28,0,0,0-.09.1.28.28,0,0,0,0,.25,1.23,1.23,0,0,0,1,.75,1.17,1.17,0,0,0,.64-.05,1.1,1.1,0,0,0,.51-.51c.07-.15.23-.53.1-.68S130.62,250.83,130.43,250.81Z"/><path class="cls-14" d="M130.43,251c-.21-.7-.39-1.41-.55-2.12,0-.24-.42-.13-.37.1.16.72.35,1.42.55,2.12C130.13,251.36,130.5,251.26,130.43,251Z"/><path class="cls-14" d="M130.17,250.22a1.46,1.46,0,0,0-.67-.36.19.19,0,0,0-.24.14.18.18,0,0,0,.14.23,1.1,1.1,0,0,1,.5.26c.17.18.44-.09.27-.27Z"/><path class="cls-14" d="M130.16,249.91a2,2,0,0,1,.31-.34c.19-.16-.08-.43-.27-.27a2,2,0,0,0-.31.34C129.74,249.83,130,250.1,130.16,249.91Z"/><path class="cls-20" d="M138.91,244.49c-1.74,3.44-2.14,7.38-2.5,11.22-.22,2.24,0,9.81-.07,12.06"/><path class="cls-21" d="M139.67,245.22a32.1,32.1,0,0,0-2,10.57c-.06,2.59.06,8.37,0,11"/><path class="cls-21" d="M139.59,245c.6,1.52.59,4.43-1.16,4.88-.07,0-.11.08-.14.14a.28.28,0,0,0,0,.25,4.4,4.4,0,0,1,.87,3.9,5.44,5.44,0,0,1-1.55,2.43,4.17,4.17,0,0,1,1.51,3.58,7.74,7.74,0,0,1-1.43,3.75"/><ellipse class="cls-22" cx="139.31" cy="247.81" rx="0.17" ry="0.18"/><ellipse class="cls-22" cx="138.46" cy="253.36" rx="0.17" ry="0.18"/><ellipse class="cls-22" cx="138.29" cy="259.58" rx="0.17" ry="0.18"/><path class="cls-16" d="M128,249.37l-.67-.35c-.22-.11-.41.22-.19.33l.66.35C128,249.81,128.22,249.48,128,249.37Z"/><path class="cls-16" d="M127.7,251.29c-.22.25-.45.48-.69.71s.09.44.27.27.47-.46.69-.71S127.87,251.11,127.7,251.29Z"/><path class="cls-16" d="M131.55,248.63a3.89,3.89,0,0,0,.52-.48c.16-.18-.11-.45-.27-.27a3.89,3.89,0,0,1-.52.48C131.09,248.51,131.36,248.78,131.55,248.63Z"/><path class="cls-16" d="M132.23,251.11a4.08,4.08,0,0,1,.69.09.19.19,0,0,0,.23-.13.19.19,0,0,0-.13-.24,5.36,5.36,0,0,0-.79-.11c-.24,0-.24.37,0,.39Z"/><path class="cls-16" d="M130.75,253.16a3.26,3.26,0,0,0,.13.68.18.18,0,0,0,.23.13.19.19,0,0,0,.14-.23,4.19,4.19,0,0,1-.13-.69c0-.24-.41-.13-.37.11Z"/><path class="cls-14" d="M127.06,196.55a3.86,3.86,0,0,0,3.87,3.86h.13a4.07,4.07,0,0,0-4.06,3.83,3.68,3.68,0,0,0-3.65-3.71h-.21A4,4,0,0,0,127.06,196.55Z"/><path class="cls-14" d="M134.21,197a2.21,2.21,0,0,0,2.19,2.24h.13a2.33,2.33,0,0,0-2.33,2.19,2.11,2.11,0,0,0-2.1-2.12H132A2.29,2.29,0,0,0,134.21,197Z"/><path class="cls-25" d="M146.74,197.13c-.16-.26-.35-.51-.52-.76a.51.51,0,0,0-.72-.11.48.48,0,0,0-.17.23c-.71,2-1,4.67-.43,5.53.27.42.14.24-.16.64a4.63,4.63,0,0,1,1.56-1.13c.41-.22,1-.31,1.17-.78A5,5,0,0,0,146.74,197.13Z"/><path class="cls-25" d="M148.12,202.14a1.05,1.05,0,0,0-.63-1.35,1,1,0,0,0-1.19.35c-.12.14-.26.31-.45.5-1,.77-3.6,2.24-9.69,3.38-.85.15-1.75.3-2.7.44s-1.85.26-2.71.35c-6.15.68-9.06,0-10.25-.43-.23-.13-.42-.25-.57-.35a1.06,1.06,0,0,0-1.5,0,1,1,0,0,0,0,1.49,3.21,3.21,0,0,0,1.3.87c1.69.79,4.53,1.32,11.2.55.82-.09,1.68-.2,2.56-.33H134c.89-.13,1.73-.27,2.55-.42,6.61-1.19,9.17-2.52,10.56-3.77A3.24,3.24,0,0,0,148.12,202.14Z"/><path class="cls-25" d="M139.62,203.33a5.63,5.63,0,0,0-.67-1,5.15,5.15,0,0,0-.11,1.17.4.4,0,0,0,.78-.17Z"/><path class="cls-25" d="M143.74,201.83a6.44,6.44,0,0,0-.74-.9,4.58,4.58,0,0,0,0,1.17.4.4,0,0,0,.51.25.42.42,0,0,0,.25-.52h0Z"/><path class="cls-25" d="M130.87,204.67a5.45,5.45,0,0,0-.56-1,4.53,4.53,0,0,0-.24,1.15.41.41,0,0,0,.46.34.41.41,0,0,0,.34-.47Z"/><path class="cls-25" d="M126.58,205.09a5.25,5.25,0,0,0-.39-1.09,5.49,5.49,0,0,0-.42,1.08.41.41,0,0,0,.4.41.4.4,0,0,0,.41-.39Z"/><path class="cls-25" d="M122,204.72a6.2,6.2,0,0,0-.31-1.12,5.14,5.14,0,0,0-.5,1.06.4.4,0,0,0,.43.38A.41.41,0,0,0,122,204.72Z"/><path class="cls-25" d="M135.26,204.22a6.1,6.1,0,0,0-.56-1,4.46,4.46,0,0,0-.24,1.14.4.4,0,1,0,.8-.12h0Z"/><rect class="cls-25" x="131.79" y="204.61" width="1.97" height="1.97" transform="translate(-111.45 189.61) rotate(-53.4)"/><polygon class="cls-25" points="137.47 206.16 135.91 205.09 137.06 203.4 138.64 204.58 137.47 206.16"/><polygon class="cls-25" points="142.04 205.2 140.4 204.27 141.42 202.49 143.08 203.54 142.04 205.2"/><rect class="cls-25" x="127.36" y="205.12" width="1.97" height="1.97" transform="translate(-111.93 171.18) rotate(-49.82)"/><polygon class="cls-25" points="124.11 207.48 122.79 206.03 124.24 204.7 125.51 206.44 124.11 207.48"/><rect class="cls-26" x="136.79" y="204.73" width="1.25" height="1.25" transform="translate(-109.68 205.22) rotate(-56.18)"/><rect class="cls-26" x="141.26" y="203.79" width="1.25" height="1.25" transform="translate(-103.95 242.93) rotate(-64.14)"/><rect class="cls-14" x="134.92" y="205.92" width="0.42" height="0.42" transform="translate(-111.33 203.67) rotate(-56.18)"/><rect class="cls-14" x="139.5" y="205.12" width="0.42" height="0.42" transform="translate(-108.64 207.11) rotate(-56.18)"/><rect class="cls-14" x="144.03" y="203.71" width="0.42" height="0.42" transform="translate(-93.24 281.32) rotate(-72.78)"/><rect class="cls-14" x="130.02" y="205.55" width="0.42" height="0.42" transform="translate(-112.51 186.49) rotate(-53.13)"/><rect class="cls-14" x="126.08" y="206.94" width="0.42" height="0.42" transform="translate(-112.23 162.81) rotate(-48.1)"/><rect class="cls-14" x="121.57" y="206.59" width="0.42" height="0.42" transform="translate(-115.15 168.61) rotate(-50.35)"/><rect class="cls-26" x="132.18" y="205.55" width="1.25" height="1.25" transform="translate(-111.4 183.56) rotate(-51.92)"/><rect class="cls-26" x="127.85" y="205.99" width="1.25" height="1.25" transform="translate(-112.83 175.5) rotate(-50.78)"/><rect class="cls-26" x="123.42" y="206.08" width="1.25" height="1.25" transform="translate(-108.32 142.52) rotate(-43.59)"/><path class="cls-26" d="M120.75,206.6a5.35,5.35,0,0,1-2.23-1.12"/><path class="cls-26" d="M148,201.43a7.18,7.18,0,0,1-2.63,2"/><path class="cls-14" d="M146.8,200.57c-.09-.72-.15-1.45-.19-2.17a.19.19,0,0,0-.38,0,19.84,19.84,0,0,0,.18,2.17C146.41,200.81,146.83,200.82,146.8,200.57Z"/><path class="cls-14" d="M146.64,199.71a1.31,1.31,0,0,0-.59-.48c-.22-.11-.41.22-.19.33a1.08,1.08,0,0,1,.45.34c.14.2.47,0,.33-.19Z"/><path class="cls-14" d="M146.7,199.38a1.59,1.59,0,0,1,.33-.25c.21-.13,0-.46-.19-.33a2.1,2.1,0,0,0-.41.31c-.18.16.09.43.27.27Z"/><path class="cls-14" d="M147.1,200a1.28,1.28,0,0,1-1.24.72.19.19,0,1,0,0,.38,1.66,1.66,0,0,0,1.57-.91C147.56,199.94,147.23,199.74,147.1,200Z"/></g><path class="cls-12" d="M163,134.38l29.28-8.11a20.49,20.49,0,0,1,27.1,19.35V296.71a11.68,11.68,0,0,1-11.7,11.65,11.37,11.37,0,0,1-1.75-.14l-42-6.49Z"/><path class="cls-12" d="M112.6,134.38l-29.27-8.11a20.46,20.46,0,0,0-27.1,19.35V297.44a11,11,0,0,0,11,11,11.5,11.5,0,0,0,1.76-.14l42.72-6.6Z"/><polygon class="cls-10" points="191.37 244.29 187.74 244.29 187.74 305.22 189.56 305.22 193.88 251.49 191.37 244.29"/><polygon class="cls-10" points="184.84 244.29 188.47 244.29 188.47 305.22 186.65 305.22 182.33 251.49 184.84 244.29"/><polygon class="cls-10" points="184.84 244.29 188.47 244.29 188.47 198.05 186.65 198.05 182.33 238.84 184.84 244.29"/><polygon class="cls-10" points="191.37 244.29 187.74 244.29 187.74 198.05 189.56 198.05 193.88 238.84 191.37 244.29"/><polygon class="cls-10" points="86.75 244.29 83.12 244.29 83.12 305.22 84.93 305.22 89.26 251.49 86.75 244.29"/><polygon class="cls-10" points="80.21 244.29 83.84 244.29 83.84 305.22 82.03 305.22 77.7 251.49 80.21 244.29"/><polygon class="cls-10" points="80.21 244.29 83.84 244.29 83.84 198.05 82.03 198.05 77.7 238.84 80.21 244.29"/><polygon class="cls-10" points="86.75 244.29 83.12 244.29 83.12 198.05 84.93 198.05 89.26 238.84 86.75 244.29"/><ellipse class="cls-10" cx="187.74" cy="176.55" rx="3.59" ry="11.46"/><ellipse class="cls-10" cx="187.74" cy="151.98" rx="3.59" ry="3.08"/><ellipse class="cls-10" cx="83.84" cy="176.55" rx="3.59" ry="11.46"/><ellipse class="cls-10" cx="83.84" cy="151.98" rx="3.59" ry="3.08"/></g></g></g></svg>