<svg id="Layer_1" data-name="Layer 1" xmlns="http://www.w3.org/2000/svg" xmlns:xlink="http://www.w3.org/1999/xlink" viewBox="0 0 925.32 805.12"><defs><style>.blc2-2-4_1,.blc2-2-4_11,.blc2-2-4_12{fill:none;}.blc2-2-4_2{fill:#367d75;}.blc2-2-4_3{fill:#9fa851;}.blc2-2-4_4{fill:url(#lgblc2-2-4);}.blc2-2-4_5{fill:url(#lgblc2-2-4_2);}.blc2-2-4_6{clip-path:url(#cpblc2-2-4);}.blc2-2-4_7{fill:#304a63;}.blc2-2-4_8{fill:#fff;}.blc2-2-4_9{fill:#5ea4a0;}.blc2-2-4_10{fill:#e3ab35;}.blc2-2-4_11{stroke:#5ea4a0;stroke-width:1.61px;}.blc2-2-4_11,.blc2-2-4_12{stroke-miterlimit:10;}.blc2-2-4_12{stroke:#fff;stroke-width:1.84px;}</style><linearGradient id="lgblc2-2-4" x1="147.97" y1="387.94" x2="148.73" y2="346.07" gradientUnits="userSpaceOnUse"><stop offset="0" stop-color="#3b6660" stop-opacity="0"/><stop offset="1" stop-color="#305051"/></linearGradient><linearGradient id="lgblc2-2-4_2" x1="528.81" y1="241.46" x2="529.86" y2="183.65" xlink:href="#lgblc2-2-4"/><clipPath id="cpblc2-2-4"><path class="blc2-2-4_1" d="M182.79,56.43C210.5,56.7,210.53,53,238.24,53s27.71,2.16,55.42,2.16,27.71-.51,55.42-.51,27.72-2,55.43-2,27.72-.9,55.44-.74c35.72.5,48.43,27.47,48.43,58.43.7,33.56,0,33.59,1,67.14s4.61,33.44,5.64,67-3.88,33.67-3.2,67.23c0,34.88,1.21,59.49-38,59.49-30.59,0-30.59,7.2-61.17,7.2s-30.58-.7-61.17-.7S320.92,375,290.33,375s-30.58.09-61.17.09-30.59,1.67-61.17,1.67c-6.85,0-34.93-17.83-34.93-37.34,0-27.87-1.15-27.87-1.15-55.73S129,255.8,129,227.93s-2-27.86-2-55.73,6.92-27.86,6.92-55.73c0-17.68,1.41-32.24,9.49-43.89C151.27,61.25,161.71,55.67,182.79,56.43Z"/></clipPath></defs><title>28</title><rect class="blc2-2-4_2" x="-1.01" width="926.33" height="805.12"/><path class="blc2-2-4_3" d="M182.79,56.43C210.5,56.7,210.53,53,238.24,53s27.71,2.16,55.42,2.16,27.71-.51,55.42-.51,27.72-2,55.43-2,27.72-.9,55.44-.74c35.72.5,48.43,27.47,48.43,58.43.7,33.56,0,33.59,1,67.14s4.61,33.44,5.64,67-3.88,33.67-3.2,67.23c0,34.88,1.21,59.49-38,59.49-30.59,0-30.59,7.2-61.17,7.2s-30.58-.7-61.17-.7S320.92,375,290.33,375s-30.58.09-61.17.09-30.59,1.67-61.17,1.67c-6.85,0-34.93-17.83-34.93-37.34,0-27.87-1.15-27.87-1.15-55.73S129,255.8,129,227.93s-2-27.86-2-55.73,6.92-27.86,6.92-55.73c0-17.68,1.41-32.24,9.49-43.89C151.27,61.25,161.71,55.67,182.79,56.43Z"/><path class="blc2-2-4_4" d="M218.42,374.58c-4.68-3.9-12.27,1.89-17.7-.86-5.63-2.84-5-12.81-11.08-14.63-3.76-1.13-8.32,1.69-11.75.81-.08-4.92-1-9.44-4.36-12.85-1-1.42-4.91-4.09-10-4.09-14.27,0-15.56,9.35-16.65,12.91-3.59.27-7.51-3.62-11.49-3.32-6.3.47-7.87,10.33-14,11.9-5.9,1.5-12-5.79-17.46-3-3.64,1.88-4,7-6.71,10.06-2.27,2.54-5.9,3.34-9.29,3.62s-6.92.23-10,1.59l-.1,0a4.21,4.21,0,0,0,.78,7.9H216a4.91,4.91,0,0,0,4.73-6.25A7.45,7.45,0,0,0,218.42,374.58Z"/><path class="blc2-2-4_5" d="M626.06,223c-6.46-5.38-16.93,2.61-24.44-1.18-7.77-3.93-7-17.69-15.29-20.2-5.19-1.56-11.49,2.33-16.22,1.12-.1-6.79-1.35-13-6-17.74-1.44-2-6.78-5.65-13.83-5.64-19.71,0-21.48,12.9-23,17.82-5,.37-10.36-5-15.86-4.58-8.69.65-10.87,14.26-19.3,16.41-8.15,2.09-16.65-8-24.11-4.12-5,2.6-5.5,9.67-9.27,13.89-3.13,3.51-8.13,4.6-12.82,5s-9.55.31-13.86,2.2l-.13,0c-5.2,2.36-4,9.76,1.08,10.91H622.64a6.77,6.77,0,0,0,6.54-8.62A10.34,10.34,0,0,0,626.06,223Z"/><g class="blc2-2-4_6"><path class="blc2-2-4_7" d="M440.06,518.08c11.9,10.14,26.16,38.37,27.07,56.89,2.15,43.36-11.3,108.41-15.06,120-5.38,16.55-53.38,187.25-53.38,187.25H390.8s25.14-164.48,30.88-194.48-2.74-65.3-19.9-103.45c-15.82-35.17-25.85-83.84-13.67-96.73C409,465.46,407.27,490.15,440.06,518.08Z"/><path class="blc2-2-4_7" d="M731.1,664.22c-10.16-21.58-110-88.77-111.46-190.86-.95-65.7,88.77-135.13,106.53-50.8s-24.13,170.25,31.56,218c10.36,8.88,18.67,21.15,10.36,40-9.37,21.21-46.85,133.67-78.41,201.72H676.85C709.41,792.45,742.94,689.38,731.1,664.22Z"/><path class="blc2-2-4_7" d="M480.81,542.9c185.25,43.11,202-117.63,318.77-91.47-.89,4.15-2,8.47-3.38,13.05,0,0-75,165-329.45,139.82,0,0-127.25-5.18-124.28-154.62C361.15,525.06,423.7,529.61,480.81,542.9Z"/><path class="blc2-2-4_7" d="M458.09,594.35C606.24,609,699.15,565.16,753.87,520.56c-43,47-131.51,103.57-284.65,88.43,0,0-90.36-8.36-118.32-95.43C384.49,589,458.09,594.35,458.09,594.35Z"/><path class="blc2-2-4_7" d="M700.52,452.64s-25.15,50.56,0,109L726,546.23Z"/><path class="blc2-2-4_7" d="M402,482.6s-12.57,63.26,19.6,110.61l29.22,11.46Z"/><path class="blc2-2-4_7" d="M804.09,664.22c-10.16-21.58-110-88.77-111.46-190.86-.94-65.7,88.78-135.13,106.53-50.8s-24.13,170.25,31.56,218c10.37,8.88,20.73,22.19,10.37,40s-50.8,132.67-78.42,201.72H749.85C778.45,800.35,815.94,689.38,804.09,664.22Z"/><path class="blc2-2-4_7" d="M692.63,473.36c0-.71,0-1.42.06-2.13,3.92,4.28,8,8.51,12.28,12.65,31.15,29.93,66,49.49,95.95,56.39-1.73,40.05.75,75.38,29.8,100.28,10.37,8.88,20.73,22.19,10.37,40s-50.8,132.67-78.42,201.72H749.85c28.6-81.87,66.09-192.84,54.24-218C793.93,642.64,694.12,575.45,692.63,473.36Z"/><path class="blc2-2-4_7" d="M491.42,512.33c12.17,9.66,21.26,54.34,22.68,72,3.31,41.34-9.37,108.3-12.83,119.35-4.93,15.79-48.33,178.55-48.33,178.55H442.09C468.79,735.84,464,735.9,470.7,696.77c4.93-28.6-10.43-54.87-27.62-91.73-13.81-29.59-42.42-75-42.42-117.39C400.66,458.41,457.88,485.69,491.42,512.33Z"/><path class="blc2-2-4_7" d="M693,482.18c24,84.3,109.2,153.54,118,172.19,3.93,8.35,0,27.63-8,52.59,3.75-19.88,4.66-35.19,1.11-42.74C794.23,643.28,693.12,579.89,693,482.18Z"/><path class="blc2-2-4_7" d="M506,591c-1.06-13.16-4-51.4-10.53-74.06,10.12,14.9,19.87,50.75,21.14,66.42,6,74.95-25.39,156.19-45.55,231.3C497.2,689.65,510,641.67,506,591Z"/><path class="blc2-2-4_7" d="M822.54,435.09c-12.58-16.43-29.33-30.78-49.61-31.42-17.34-.55-33.32,9.16-46.69,20.2s-25.55,23.93-41,31.83a76.17,76.17,0,0,1-44.19,7.68c-10.92-1.42-21.47-5.21-32.45-6.14-10.55-.89-21.11.9-31.6,2.37a449.74,449.74,0,0,1-88.53,4c-15.92-.94-33.31-3.61-43.92-15.52-11.65-13.07-12.27-34.37-26.35-44.79-9.21-6.82-23-7.82-29-17.56-3-4.91-3.34-11-3.23-16.76.32-17,3.25-34.85-3.61-50.41-2.28-5.18-5.65-10.13-5.94-15.78-.2-4,1.16-7.84,2.67-11.51,6.83-16.64,16.73-32.28,18.49-50.54.37-3.87,2-13.1,3.22-22.68-4.68-23.48-12.73-44-30.21-57.61-16.82-13.08-46.23,69.91-46.23,69.91C361.58,252.89,293.81,491,385.83,564.4c34.6,41.21,80.92,39.9,80.92,39.9,5.69.56,11.25,1,16.76,1.37l3.53.24q8,.5,15.7.74l2.69.07q7,.18,13.72.16h2.71c4.89,0,9.69-.16,14.43-.34l3.46-.16c4.58-.21,9.11-.47,13.54-.82l1.24-.1c4.41-.35,8.72-.79,13-1.27l3.51-.41c4.21-.51,8.37-1.07,12.44-1.7,1-.15,2-.33,3-.49q5.13-.84,10.11-1.78c1-.2,2.09-.38,3.11-.59q5.69-1.12,11.16-2.41c1.22-.28,2.42-.57,3.62-.87,3.21-.78,6.39-1.59,9.51-2.44l3.06-.85c3.07-.87,6.08-1.78,9.05-2.71,1.21-.38,2.42-.76,3.61-1.15q4.78-1.56,9.4-3.22c1.09-.39,2.15-.8,3.23-1.2q3.54-1.32,7-2.7c1.09-.44,2.19-.86,3.26-1.31,2.85-1.17,5.63-2.38,8.36-3.6l3.45-1.58q3.28-1.53,6.46-3.09c1.27-.63,2.53-1.25,3.77-1.89,2.1-1.07,4.15-2.15,6.18-3.24,1.09-.59,2.18-1.18,3.25-1.78,2.38-1.32,4.72-2.66,7-4,1-.57,1.89-1.15,2.84-1.73q2.52-1.53,5-3.09l2.76-1.76q3.2-2.1,6.25-4.22c.91-.63,1.81-1.26,2.7-1.9,1.64-1.17,3.26-2.34,4.84-3.51.91-.68,1.82-1.36,2.72-2.05,1.64-1.25,3.24-2.5,4.82-3.75.76-.61,1.51-1.21,2.25-1.82,1.83-1.49,3.62-3,5.35-4.47.59-.5,1.15-1,1.72-1.5,1.42-1.24,2.82-2.49,4.18-3.73l1.54-1.39q2.52-2.34,4.89-4.65l1.37-1.34c1.55-1.54,3.07-3.06,4.53-4.58l.28-.28c1.6-1.67,3.13-3.32,4.62-4.95l.77-.85c1-1.1,2-2.2,2.92-3.28,16.43,9.46,30,13.18,33.07,7,2.75-5.51,5.06-17.32,6.21-31.55,4.47,5.73,9.23,8.35,14.74,6.4a4.62,4.62,0,0,0,1.71-1.12,11.59,11.59,0,0,0,1.75-.36C836.53,483.11,834.09,459.17,822.54,435.09Z"/><path class="blc2-2-4_8" d="M432.64,357.15c-1.43-2.22-2.87-4.51-4.31-6.83q2,3.46,4.21,6.77Z"/><path class="blc2-2-4_9" d="M379.08,291.26c-1.51,3.67-2.87,7.54-2.67,11.51.29,5.65,3.66,10.6,5.94,15.78C389.21,334.11,386.28,352,386,369c-.11,5.77.19,11.85,3.23,16.76,6.05,9.74,19.81,10.74,29,17.56,14.08,10.42,14.7,31.72,26.35,44.79,10.61,11.91,28,14.58,43.92,15.52a449.74,449.74,0,0,0,88.53-4c10.49-1.47,21-3.26,31.6-2.37,11,.93,21.53,4.72,32.45,6.14a76.17,76.17,0,0,0,44.19-7.68c15.44-7.9,27.62-20.78,41-31.83s29.35-20.75,46.69-20.2c20.28.64,37,15,49.61,31.42-6.59-13.74-16.14-27.53-27.75-37.6l.43-.33C717.43,329.7,534,429.39,445.66,366.08c-1.23-.95-2.44-1.88-3.65-2.75l-.15-.12a68.6,68.6,0,0,1-21.26-29.55C407.18,298,408.05,254.46,400.79,218c-1.18,9.58-2.85,18.81-3.22,22.68C395.81,259,385.91,274.62,379.08,291.26Zm53.56,65.89-.1-.06q-2.25-3.3-4.21-6.77C429.77,352.64,431.21,354.93,432.64,357.15Z"/><path class="blc2-2-4_7" d="M381.94,192.58c25.43-18.72,44.58-48,32-90.07-55.57,8.58-51,77-51,77Z"/><path class="blc2-2-4_8" d="M382.08,185c18.09-13.32,31.7-34.11,22.74-64.07-39.53,6.11-36.29,54.77-36.29,54.77Z"/><path class="blc2-2-4_7" d="M356.63,178.86c4.57-23.53.22-49.71-28.48-66.74-26.62,33.37,11.11,69.25,11.11,69.25Z"/><path class="blc2-2-4_8" d="M352.82,174.57c3.25-16.74.16-35.35-20.26-47.47-18.93,23.75,7.91,49.25,7.91,49.25Z"/><path class="blc2-2-4_7" d="M382,185.21c9-6.6,13.33-23.65,8.89-38.47-19.66,3-25.53,27.38-25.53,27.38Z"/><path class="blc2-2-4_7" d="M387.57,214.73C386.49,234.85,359.9,260,306,239.09c0,0-49.8,10.56-64.11,2.47-11.35-6.41-14.21-16.51-9.13-25.65,8.39-15,40-20,52.77-30.82,6.17-5.23,15.43-30.88,41.19-33.29S391,150.53,387.57,214.73Z"/><path class="blc2-2-4_7" d="M328.66,183.61c-25.85,2.82-50.8,39.46-93.64,29.11,10.75-12.61,38.62-17.58,50.48-27.63,6.17-5.23,15.43-30.88,41.19-33.29,23.6-2.21,57.93-1.4,60.87,48.15C369.1,193.72,360.7,180.11,328.66,183.61Z"/><path class="blc2-2-4_7" d="M384.26,225.16s-5.54,28.48-47.71,46.61c-.83-14-3-21.55-4.44-34.41Z"/><path class="blc2-2-4_7" d="M310.85,184.47c-14.44,69.17,50.49,20.34,74.11,40.22-7.88,17.1-33.56,33.91-78.74,16.38,0,0-50.05,8.58-64.36.49C233.4,236.78,229.67,230,230.42,223,251,228.89,310.85,184.47,310.85,184.47Z"/><path class="blc2-2-4_7" d="M326.69,230.71c-20.72,12.34-47.85,25.65-64.61,22.19s-17.27-19.23-17.27-19.23Z"/><path class="blc2-2-4_7" d="M299.05,245.14c-10.78,9.05-28.09,12.39-38,10.35-7.35-1.51-10.58-8-13-11.87-2.44-.48-5.54.91-9.18-.89-13.87-6.84-9.25-27.19,7.92-34,9.93,5.37,26.44,12.52,40.91,16.06C296,226.83,298.2,237.59,299.05,245.14Z"/><path class="blc2-2-4_7" d="M251.72,221.83c-5.18,4.94-18,12.82-20,12.33s-9.37-21.7,18.24-29.35S256.11,217.64,251.72,221.83Z"/><path class="blc2-2-4_7" d="M231.86,234.4s-5.73-7.77,2-10.17a172.93,172.93,0,0,1,19.6-4.61S247,229.42,231.86,234.4Z"/><path class="blc2-2-4_9" d="M808.8,484.7l2.79-3A82.39,82.39,0,0,1,803,472c-2.66-3.45-4.72-7.08-7.2-11a33.08,33.08,0,0,0-4.5-5.68,18,18,0,0,0-6.61-4.16c-5-1.74-10-1.32-14.42-1l.58,6.32c4.35-.5,8.52-.87,12,.21s6.17,3.81,8.62,7.29,4.94,7.48,7.87,10.95A86.26,86.26,0,0,0,808.8,484.7Z"/><path class="blc2-2-4_9" d="M745.4,659.17l-16.11,2.3A30.77,30.77,0,0,0,745.4,659.17Z"/><path class="blc2-2-4_9" d="M803.78,663.39a15.75,15.75,0,0,0,17.46-.17Z"/><path class="blc2-2-4_9" d="M493.11,684.11l-12.7-1.83A15.61,15.61,0,0,0,493.11,684.11Z"/><path class="blc2-2-4_9" d="M434.91,676.81l-12.64-5.61A13.8,13.8,0,0,0,434.91,676.81Z"/><path class="blc2-2-4_9" d="M472.48,665.39q-2.18-8.24-5.09-16.25a186.94,186.94,0,0,0-14.48-30.73,71.94,71.94,0,0,0-9.23-12.91c1,.32,1.95.68,2.93,1a178,178,0,0,0,22.11,5.64l1-6.27a172.29,172.29,0,0,1-21.45-4.92q-10.67-3-21-7A205,205,0,0,1,407,585c-6.36-3.39-12.31-7.74-15.49-13.88L387.82,573c3.62,7.39,10.3,12.38,16.91,16.13a209.76,209.76,0,0,0,20.56,9.68c2.19.9,4.41,1.71,6.62,2.55a36.15,36.15,0,0,1,7.66,6.13,64.85,64.85,0,0,1,9.3,13.26,182.6,182.6,0,0,1,13.6,30.15q2.68,7.83,4.68,15.86c.67,2.68,1.25,5.37,1.8,8.07a17.5,17.5,0,0,1,.39,3.62c0,1.13-.12,2.69-.19,4a205,205,0,0,1-4.4,32.73l6.19,1.39a209.82,209.82,0,0,0,4-33.82c.05-1.47.13-2.71.12-4.37a22.65,22.65,0,0,0-.57-4.71C473.87,670.9,473.22,668.13,472.48,665.39Z"/><polygon class="blc2-2-4_9" points="760.08 622.38 766.99 629.99 771.01 625.07 762.92 619.41 760.08 622.38"/><path class="blc2-2-4_9" d="M718.12,570.68a51.36,51.36,0,0,0-12.06-5.06l.73-.37c2.33-1.21,4.64-2.46,6.92-3.73q6.85-3.81,13.51-8a224.1,224.1,0,0,0,25.56-18.42l-4.16-4.8a218.23,218.23,0,0,1-24.52,18.34q-6.44,4.22-13.11,8.07c-2.22,1.29-4.46,2.55-6.7,3.77l-1.69.9c-.67.34-1.17.67-1.77,1l-3.36,1.93a326.68,326.68,0,0,1-56.34,25l1.28,3.9A331.4,331.4,0,0,0,700,568.91l.4-.23a43.09,43.09,0,0,1,15.31,6,55.32,55.32,0,0,1,13.48,12.06c7.89,9.75,15.14,20.15,23.69,29.87l4.69-4.28c-8.47-9.06-16.05-19.25-24.37-28.94A60.35,60.35,0,0,0,718.12,570.68Z"/><path class="blc2-2-4_10" d="M274.84,231.71c-3.37,3.95-12.12,7.21-27.31,11.6l3,3.92s22.43-7.89,26-14.53C279.24,226.24,274.84,231.71,274.84,231.71Z"/><path class="blc2-2-4_10" d="M252.79,220.57s-8.53,3-13.57,4.55c-4.21,1.3-1.55,4.63-1.55,4.63A32.81,32.81,0,0,0,252.79,220.57Z"/><path class="blc2-2-4_9" d="M321.93,242.41l-1,4a124.86,124.86,0,0,0,41.23,4.1l-.6-6.32A119.45,119.45,0,0,1,321.93,242.41Z"/><path class="blc2-2-4_10" d="M349.58,180.59a37.2,37.2,0,0,0-5.46-1.72,34.78,34.78,0,0,0-11.36-.9,37.64,37.64,0,0,0-11,2.51l-2.57,1.1-1.46.75c.68-.77,1.38-1.53,2.11-2.23a33.36,33.36,0,0,1,8.08-5.76,29.58,29.58,0,0,1,9.35-3.05,31.24,31.24,0,0,1,4.92-.44c1.65-.07,3.31.17,5,.23l.39-3.68c-1.82,0-3.63-.24-5.44-.13a33.94,33.94,0,0,0-5.42.61,33,33,0,0,0-10.26,3.61,36.28,36.28,0,0,0-8.66,6.49,38,38,0,0,0-6.49,8.68l1.94,1,2.13,2.64a30.43,30.43,0,0,1,4-2.36c.71-.37,1.46-.66,2.19-1l2.25-.84a31.88,31.88,0,0,1,9.32-1.68,28,28,0,0,1,9.25,1.18,30,30,0,0,1,4.39,1.61c1.44.62,2.78,1.5,4.17,2.22l3.77-6.37C353,182.22,351.36,181.27,349.58,180.59Z"/><path class="blc2-2-4_8" d="M378.62,262.09a25.92,25.92,0,0,1-.78,11.19,62.74,62.74,0,0,1-4.07,10.45c-3.12,6.62-6.7,12.86-7.75,19.23-1.27,6.27,1.16,12.52,4,19.26a61.62,61.62,0,0,1,3.63,10.61c.76,3.73.82,7.81-.69,11.23.22-7.52-3.83-13.32-7.39-19.67a56,56,0,0,1-4.86-10.32,26.55,26.55,0,0,1-.93-12.16c1.54-8.1,5.8-14.54,9.69-20.58S377.2,269.4,378.62,262.09Z"/><path class="blc2-2-4_8" d="M395,412.21c7.08.51,13.44,5.06,18,10.52s7.68,12.06,10.75,18.19S430,453,434.24,458a44.52,44.52,0,0,0,15.11,12,70.29,70.29,0,0,0,18.84,6.07,138.81,138.81,0,0,0,20.21,2.11c13.67.61,27.87.33,41.48,3.56-13.91-.59-27.53,1.08-41.53,1.39s-28.6-1-41.84-7.46a49.57,49.57,0,0,1-17-13.91A84.25,84.25,0,0,1,419.27,443c-2.73-6.42-5-12.82-8.75-18.41S401.75,414.13,395,412.21Z"/><path class="blc2-2-4_8" d="M598.12,476c8.18-1.47,16.65-1.12,24.92-.23s16.45,2.49,24.54,3.75,16.15,2.14,24.11,1.79a54.59,54.59,0,0,0,22.66-5.22c7-3.37,13.1-8.57,18.81-14.27s11.08-12,17.11-17.87,12.63-11.41,20.39-15,16.54-5.25,24.65-3.11c-8.3-.71-16.33,1.81-23.21,5.88s-12.79,9.66-18.26,15.66S723.23,459.85,717.45,466s-12.4,11.82-20.3,15.77a59.66,59.66,0,0,1-25.32,5.52,117.25,117.25,0,0,1-25.14-2.94C630.41,480.92,614.77,475.81,598.12,476Z"/><circle class="blc2-2-4_10" cx="365.4" cy="211.23" r="12.17"/><path class="blc2-2-4_11" d="M341.92,374.69a17.3,17.3,0,0,0,16.32,7.19"/><path class="blc2-2-4_11" d="M351.28,394.86a28,28,0,0,0,14.07.42"/><path class="blc2-2-4_11" d="M342.16,390.3a27.12,27.12,0,0,0,4.63,2.84"/><path class="blc2-2-4_11" d="M343.09,409.19a20.73,20.73,0,0,0,15.23,2.46"/><path class="blc2-2-4_11" d="M365.35,430.69a33.7,33.7,0,0,0,5.48-2.11"/><path class="blc2-2-4_11" d="M343.09,429.93a35.67,35.67,0,0,0,17.76,1.76"/><path class="blc2-2-4_11" d="M347.2,448.2a28.76,28.76,0,0,0,17.11,0"/><path class="blc2-2-4_11" d="M383.66,460.94c1.91-.88,3.83-1.89,4.22-2.63"/><path class="blc2-2-4_11" d="M348,462.9c4,4.08,12.45,4.79,18.05,3.56a102.49,102.49,0,0,0,10.78-2.72c.94-.33,1.86-.68,2.82-1.08"/><path class="blc2-2-4_11" d="M355.41,488.5a38.21,38.21,0,0,0,29,1.48"/><path class="blc2-2-4_11" d="M420.93,502.61c3.12-1.74,6.32-3.72,9.76-6"/><path class="blc2-2-4_11" d="M366.05,510c5.24,3.18,18.67,4,24.72,3a89.44,89.44,0,0,0,22.69-6.64"/><path class="blc2-2-4_11" d="M416.88,532.94c1.7-1.1,3.44-2.27,5.27-3.52"/><path class="blc2-2-4_11" d="M378.86,540c1.21,1.71,8.71,2.62,10.8,2.54,9.64-.36,16.54-3.1,23.8-7.43"/><path class="blc2-2-4_11" d="M401.11,566.11a53.06,53.06,0,0,0,40.6-13.33"/><path class="blc2-2-4_11" d="M427.28,580.24a38.32,38.32,0,0,0,27.41-16"/><path class="blc2-2-4_11" d="M502.37,564.27a51.27,51.27,0,0,0,4.75-8.61"/><path class="blc2-2-4_11" d="M453.7,593.52c8.74-1.1,16.34-4.5,23-7.84a70.28,70.28,0,0,0,21.54-16.1"/><path class="blc2-2-4_11" d="M527.53,575.58c1.05-1.79,2-3.62,2.89-5.5"/><path class="blc2-2-4_11" d="M498.82,601.29a64,64,0,0,0,26.51-22.24"/><path class="blc2-2-4_11" d="M532.16,600.55A36.26,36.26,0,0,0,543,582.1"/><path class="blc2-2-4_11" d="M560.75,595.12c3.88-8.09,4.51-18.09,4.79-27.32"/><path class="blc2-2-4_11" d="M554.58,603.55a25.31,25.31,0,0,0,3.73-4.24"/><path class="blc2-2-4_11" d="M582.75,597.15c7.32-6.09,7.52-17.07,7.12-26.59"/><path class="blc2-2-4_11" d="M610.16,589.85a119.74,119.74,0,0,0,1.58-17.42"/><path class="blc2-2-4_11" d="M630.85,588.67a24.05,24.05,0,0,0,1.83-15.06"/><path class="blc2-2-4_11" d="M657.48,558.92a27.23,27.23,0,0,0-1.88-6.14"/><path class="blc2-2-4_11" d="M655.9,578.3c.64-4.83,1.83-9.28,2-14"/><path class="blc2-2-4_11" d="M342.48,358.83a9.08,9.08,0,0,0,7.55,5"/><path class="blc2-2-4_11" d="M351.87,475.88a28.61,28.61,0,0,0,15.22,3.22"/><path class="blc2-2-4_11" d="M378.41,500.93l2.72.24a39.07,39.07,0,0,0,6.11.22c4.3-.31,8.36-2,12.32-3.74"/><path class="blc2-2-4_11" d="M378,527a20,20,0,0,0,11.68-.44"/><path class="blc2-2-4_11" d="M407.36,550.64a29.35,29.35,0,0,0,15.75-5.51"/><path class="blc2-2-4_11" d="M463.7,577.15l5.59-4.39a35.15,35.15,0,0,0,3.23-2.74,18,18,0,0,0,4.76-8.58"/><path class="blc2-2-4_11" d="M502.93,584.43a27,27,0,0,0,9.93-12.25"/><path class="blc2-2-4_11" d="M545.58,575.75l1.1-5.57"/><path class="blc2-2-4_11" d="M622.68,576.54a49.28,49.28,0,0,0-1.42-15.68"/><path class="blc2-2-4_11" d="M645.15,573.37a28.7,28.7,0,0,0,.33-10.33"/><path class="blc2-2-4_11" d="M672.16,568.81a21.62,21.62,0,0,0-.85-9.11"/><path class="blc2-2-4_11" d="M685.06,562.27a37.86,37.86,0,0,0-.25-4.76"/><path class="blc2-2-4_11" d="M699.13,556.51a17,17,0,0,0-.23-3.56"/><path class="blc2-2-4_11" d="M576.09,588.9A35.49,35.49,0,0,0,577.24,577"/><path class="blc2-2-4_11" d="M432.08,539a32.48,32.48,0,0,0,6.27-6.18"/><path class="blc2-2-4_11" d="M378.86,477.59a18.63,18.63,0,0,0,7.92-1.64"/><path class="blc2-2-4_11" d="M343.24,345.26a15.26,15.26,0,0,0,3.61,2.73"/><path class="blc2-2-4_9" d="M379.79,196.26l-1.49-2.81c5.72-3,16.35-14,16.45-14.13l2.29,2.2C396.59,182,386,193,379.79,196.26Z"/><ellipse class="blc2-2-4_12" cx="630.92" cy="415.23" rx="25.66" ry="5.58" transform="translate(-89.71 189.01) rotate(-15.92)"/><ellipse class="blc2-2-4_12" cx="524.71" cy="403.36" rx="25.09" ry="5.72" transform="matrix(1, -0.02, 0.02, 1, -9.66, 12.89)"/><ellipse class="blc2-2-4_8" cx="573.97" cy="425.65" rx="17.94" ry="4.05" transform="translate(-43.58 66.14) rotate(-6.35)"/><ellipse class="blc2-2-4_8" cx="586.6" cy="403.24" rx="17.94" ry="4.05" transform="translate(-41.02 67.4) rotate(-6.35)"/><ellipse class="blc2-2-4_8" cx="488.92" cy="421.93" rx="2.3" ry="10.06" transform="translate(-9.18 832.98) rotate(-80.32)"/><ellipse class="blc2-2-4_8" cx="477.03" cy="405" rx="2.31" ry="10.02" transform="translate(8.44 819.74) rotate(-81.84)"/><ellipse class="blc2-2-4_8" cx="429.08" cy="368.46" rx="1.76" ry="10.93" transform="translate(-126.81 472.69) rotate(-51.27)"/><ellipse class="blc2-2-4_12" cx="456.11" cy="387.84" rx="2.31" ry="10.02" transform="translate(-30.26 736.98) rotate(-76.05)"/><ellipse class="blc2-2-4_8" cx="525.45" cy="425.69" rx="2.3" ry="10.05" transform="translate(95.96 948.04) rotate(-89.58)"/><ellipse class="blc2-2-4_8" cx="670.23" cy="387.86" rx="10.49" ry="2.2" transform="translate(-96.04 276.17) rotate(-21.77)"/><ellipse class="blc2-2-4_8" cx="622.09" cy="391.93" rx="10.23" ry="2.25" transform="translate(-63.96 127.48) rotate(-11.13)"/><ellipse class="blc2-2-4_8" cx="708.5" cy="389.26" rx="10.2" ry="1.54" transform="translate(-92.32 278.89) rotate(-20.94)"/><ellipse class="blc2-2-4_8" cx="429.69" cy="385.18" rx="2.55" ry="10.19" transform="translate(-133.59 510.55) rotate(-54.42)"/></g><path class="blc2-2-4_2" d="M277.74,350.07c-1.46-1.4-1.93.21-2.65.85-1.54,1.38-2.75,3.15-4.84,3.83-1.31,2.58-4,3.49-6.24,4.75a27.26,27.26,0,0,1-8.74,3.41c2.62-4,6.36-7.05,9.31-10.76a153.16,153.16,0,0,0,12-21c.24-1,.47-2.09.71-3.14l-3.14-1a36.51,36.51,0,0,1-5.08,11.4c-1.34,4.76-4.42,8.39-7.71,11.89a41.06,41.06,0,0,1-6.24,7,55.18,55.18,0,0,1,1.14-10c.25-6.33,2-12.34,3.92-18.32l-2.87-1.27q-1.94,8.73-3.88,17.46a80.29,80.29,0,0,1-2.28,15.42c-.38,1.56-1.71,2.31-2.72,3.32-2,2-4,3.93-6.17,6.06-.72-1.74-.19-3.49-.29-5.16-.48-7.79-1-15.57-2.2-23.3a7.06,7.06,0,0,1,.19-1.81c-.91-1.8.34-2.89,1.26-4.17,5-6.93,11-13.24,13.63-21.62.35-1.1.73-2.18,1.1-3.27l-2.28-1c-.3,3.9-2.41,7-4.41,10.19-2.4,3.79-5.72,6.79-8.88,10a79,79,0,0,1,6.22-26l-3-1.15c-1.24,4.09-3.45,7.78-4.6,11.92-2.2,7.91-2.74,16-2.91,24.13.1,3.94.31,8.74.54,13.95a33.74,33.74,0,0,1-7.83-3.9c-.74-.46-1.48-.93-2.21-1.41l.25-.15a61,61,0,0,1-8.11-22.71l-2.91.42A63.79,63.79,0,0,0,221.76,344a122.77,122.77,0,0,1-20.42-18.71l-2.22,1.93a126.18,126.18,0,0,0,15.74,15.19c-.54,0-1.09,0-1.63,0a88.78,88.78,0,0,1-20.73-3.25l-.79,2.83a91.88,91.88,0,0,0,21.41,3.36,16.15,16.15,0,0,0,5-.39q4.42,3.34,9.16,6.31a38.08,38.08,0,0,0,7.79,4c.57.2,1.15.38,1.74.53.59,13.27,1.22,28.44.66,38.24,1.23.28,2.41,1,3.63,1.26.16-3.68.67-19.47,3.66-22.18a14.56,14.56,0,0,1,4-2.79c5.33-2.3,10.62-4.71,15.89-7.15,3.13-1.46,5.62-3.85,8.3-6,1.35-1.44,2.79-2.8,4-4.35C277.49,352.09,279.23,351.5,277.74,350.07Zm-23,12.89.36,0-.33.25Z"/><circle class="blc2-2-4_2" cx="298.39" cy="358.83" r="4.38"/><circle class="blc2-2-4_2" cx="213.95" cy="361.33" r="4.38"/><circle class="blc2-2-4_2" cx="229.36" cy="303.08" r="3.08"/></svg>
