<svg id="Layer_1" data-name="Layer 1" xmlns="http://www.w3.org/2000/svg" viewBox="0 0 460.94 437.28"><defs><style>.blc2-2-bird1_1{fill:#367d75;}.blc2-2-bird1_2{fill:#e5af36;}.blc2-2-bird1_3{fill:#9fa851;}</style></defs><title>23</title><path class="blc2-2-bird1_2" d="M329.4,284.81c-2.64-3.39-37.3-18.09-37.3-18.09,4.89-1.51,7.53-17.33,9-21.1s5.65-10.17,9.42-12.81,9.8-7.54,0-9.05-47.1,17-49.74,18.84,0,14,0,14c-13.94-9.8-21.85,1.88-21.85,1.88s5.56-3.1,9,.38c4.52,4.52,16.58,15.07,24.49,18.84s35.8,1.13,35.8,1.13S332,288.2,329.4,284.81Zm-34.12-29.69-.7-.43a10.6,10.6,0,0,0,1.5-6.84c-.1-.76-.45-2.56-1.8-3.14l.33-.76c1.67.73,2.14,2.69,2.28,3.8A11.41,11.41,0,0,1,295.28,255.12ZM301.42,231a4.59,4.59,0,0,1,1.08,1.13,2.37,2.37,0,0,1,.61,1.83l-.81-.16a1.68,1.68,0,0,0-.46-1.18,3.92,3.92,0,0,0-.88-.94,1.22,1.22,0,0,0-1-.23l-.23-.79A2.06,2.06,0,0,1,301.42,231Zm-14,4.87a9.67,9.67,0,0,1,2-2.28l.53.62a9,9,0,0,0-1.89,2.1,5.06,5.06,0,0,0-.81,2.58h-.82A5.8,5.8,0,0,1,287.41,235.84Zm-13,5.92.54.61a11.7,11.7,0,0,0-3.06,12.56l-.77.3A12.56,12.56,0,0,1,274.37,241.76Zm-13.92,21.37a8.44,8.44,0,0,1-2.17-.49,3.48,3.48,0,0,1-1.88-1.35,17.41,17.41,0,0,0,2.13.1c.7,0,1.38.07,2.06.11a20.75,20.75,0,0,1,4.21.72A7.12,7.12,0,0,1,260.45,263.13Zm10.76,4.49a11.76,11.76,0,0,1-2.66.56,7.65,7.65,0,0,1-2.8-.31,4.43,4.43,0,0,1-2.31-1.59,15.75,15.75,0,0,0,5,.26,20.91,20.91,0,0,1,5.25,0A11.26,11.26,0,0,1,271.21,267.62Zm6.8,4.32a9.45,9.45,0,0,1-5.49-1c1.88-.35,3.59-.45,5.33-.65s3.43-.39,5.35-.42A9.55,9.55,0,0,1,278,271.94Zm-.85-9.72h0l0,0-1.8-.71a39.67,39.67,0,0,1-7.58-4.08,38.14,38.14,0,0,1,7.59,2.32,9.5,9.5,0,0,1-.77-3.46,21.53,21.53,0,0,1,1.18-7.89,12.51,12.51,0,0,1,5.94-6.08,7.81,7.81,0,0,1,7,0,10.75,10.75,0,0,1,3.57-8.15,8,8,0,0,1,4.71-1.92h0a5.43,5.43,0,0,1,2.69.94,3,3,0,0,1,1.19,2.36,4.23,4.23,0,0,1-1.16,3,2.59,2.59,0,0,1-4.12-3.12l1.36.92a.94.94,0,0,0,1.5,1.14,2.59,2.59,0,0,0,.78-1.95,1.34,1.34,0,0,0-.53-1,3.91,3.91,0,0,0-1.71-.62h0a6.36,6.36,0,0,0-3.62,1.49,9.4,9.4,0,0,0-2.29,3.16,8.59,8.59,0,0,0-.59,5.2,12.67,12.67,0,0,1,1.09,1.4A6.88,6.88,0,0,1,293,250a5.81,5.81,0,0,1-.95,2.3,6.28,6.28,0,0,1-4.26,2.94,4.16,4.16,0,0,1-4.55-2.77,3.28,3.28,0,0,1,.84-3.06,2.82,2.82,0,0,1,2.6-.94l-.31,1.61a1.26,1.26,0,0,0-1.09.44,1.7,1.7,0,0,0-.45,1.52,2.53,2.53,0,0,0,2.75,1.58,4.7,4.7,0,0,0,3.1-2.22,4.4,4.4,0,0,0,.71-1.66,5.38,5.38,0,0,0-1.18-3.72,7.79,7.79,0,0,0-1.61-1.84,6,6,0,0,0-6.22-.44,10.86,10.86,0,0,0-5.13,5.19,19.82,19.82,0,0,0-1.07,7.27,6.5,6.5,0,0,0,2,4.71l0,0a34.45,34.45,0,0,1,5.4,3.06A34.64,34.64,0,0,1,277.16,262.22Zm10.66,2.51a3.56,3.56,0,0,1,1.89,1.55,3.65,3.65,0,0,1-4.33-1.56A3.57,3.57,0,0,1,287.82,264.73Zm-2.6-5.68h-.44a7.35,7.35,0,0,1-3.73-1.25l.46-.68a6.45,6.45,0,0,0,3.32,1.11,11.08,11.08,0,0,0,1.73-.06,3.47,3.47,0,0,0,2.24-.75l.6.56a4.15,4.15,0,0,1-2.77,1C286.18,259,285.7,259.05,285.22,259.05ZM288.46,276a7.93,7.93,0,0,1-2.23,0,3.39,3.39,0,0,1-2.14-.86,16.11,16.11,0,0,0,2.09-.41c.68-.16,1.36-.26,2-.38a20.76,20.76,0,0,1,4.26-.3A7.12,7.12,0,0,1,288.46,276Z"/><path class="blc2-2-bird1_3" d="M282.07,185.77c-3.64-1.59-27.54-3.47-32.63-3.42a20,20,0,0,0-9.39,2.8s-3-2-8.9-.51-6.73,5.16-6.73,5.16c3.31-2,9.68,1.5,9.68,1.5-2.94,7.08-1,20.47-1,20.47A40.33,40.33,0,0,0,243.76,208c.83,6.53,2.1,15.61,2.73,15.11,1-.78,2.13-4.28,2.13-4.28s.33,3.55,1,3.35,2.06-4.5,2.06-4.5.58,2.74,2.07,2,.66-4.33.66-4.33l2,1.84c6.55-6.57,5.47-25.71,5.12-27.72a3.91,3.91,0,0,1,.52-2.39l.2-.08c1.57-.47,4.87,0,7.39-.5S285.7,187.36,282.07,185.77Zm-42,21.29a4.43,4.43,0,0,1-1.91-.39,3.1,3.1,0,0,1-1.66-1.83l.48-.14a2.58,2.58,0,0,0,1.39,1.52,4.2,4.2,0,0,0,2.15.32l0,.5Zm6.44-5a5.44,5.44,0,0,1-4.13,2,5.72,5.72,0,0,1-1-.09c-2.49-.41-3.08-2-3.15-3.24a5.66,5.66,0,0,1,.48-3,3,3,0,0,1,3.17-1.6,2.35,2.35,0,0,1,1.63,1.58,2,2,0,0,1-.38,1.94l-1.34-1.21a.28.28,0,0,0,0-.2.53.53,0,0,0-.32-.36,1.21,1.21,0,0,0-1.16.7,4.09,4.09,0,0,0-.27,2.09c.06,1.08.67,1.4,1.56,1.54l.13,0a4.34,4.34,0,0,0,4-1.13c2-2.25,2.82-6.61,2.14-8.71-.27-.85-1-2.62-2.45-2.06-2.45.57-4.83,1.9-7.41,2.41a19.54,19.54,0,0,1,4.69-2.83,26.78,26.78,0,0,1,5.2-1.69,23.9,23.9,0,0,1,5.47-.55,15.8,15.8,0,0,1,5.4,1.05c-1.83.25-3.56.42-5.28.72l-1.68.29a13.41,13.41,0,0,1,3.55,4.82,20.05,20.05,0,0,1,1,7,8.7,8.7,0,0,1-.47,3.16,3.83,3.83,0,0,1-2.69,2.43,2.62,2.62,0,0,1-.62.07,3.51,3.51,0,0,1-2.49-1.08,4.28,4.28,0,0,1-1.16-2.88,3.25,3.25,0,0,1,1.57-3,2.37,2.37,0,0,1,2.29.15,1.89,1.89,0,0,1,.93,1.68l-1.8-.06a.37.37,0,0,0-.17-.14.56.56,0,0,0-.42,0,1.51,1.51,0,0,0-.59,1.39,2.45,2.45,0,0,0,.64,1.66,1.65,1.65,0,0,0,1.46.5,2.14,2.14,0,0,0,1.6-1,8.61,8.61,0,0,0,.58-2.77c0-2.67.09-4.38-.56-6.08a16,16,0,0,0-4.67-6l-2,.42h-.05a8.4,8.4,0,0,1,1.19,1.92C249.86,194.71,248.72,199.51,246.47,202.05Zm-.85-7.82a1.11,1.11,0,0,0-.17-.33,1.35,1.35,0,0,0-.49-.31,3.7,3.7,0,0,0-1.92-.21l-.07-.5a4.23,4.23,0,0,1,2.17.25,1.58,1.58,0,0,1,.69.45,1.35,1.35,0,0,1,.26.48,2.28,2.28,0,0,1,.14,1.27,1.66,1.66,0,0,1-.74,1.11l-.25-.43a1.14,1.14,0,0,0,.5-.77A1.82,1.82,0,0,0,245.62,194.23Zm9.51,16.61a7,7,0,0,1-1.86.24,12.6,12.6,0,0,1-2-.18,4.07,4.07,0,0,1-2.93-1.46l.42-.27a3.68,3.68,0,0,0,2.59,1.24,8.61,8.61,0,0,0,3.64,0,5,5,0,0,0,3.29-3.15l.48.16A5.56,5.56,0,0,1,255.13,210.84Zm3.34-10.7a18.87,18.87,0,0,0-.43-4.39A7.34,7.34,0,0,0,256,192l.33-.38a7.88,7.88,0,0,1,2.25,4,19.4,19.4,0,0,1,.44,4.51Z"/><path class="blc2-2-bird1_2" d="M114.33,163.15c-1-1.83-18.86-7.59-18.86-7.59,2.36-2.36,1.84-9.69,1.84-9.69a1.82,1.82,0,0,0,2.35-1.58c.27-2.09-7.33-3.3-7.33-3.3s2.88-2.46,3.14-3.5-8.64,1.3-8.64,1.3,1.83-2.61,1.83-4.71-6,2.1-6,2.1,2.62-6.29,0-5.51-5.5,11.53-5.76,14.41,4.45,6.29,4.45,6.29c-10.48-2.36-14.67,3.4-14.67,3.4s3.41.26,5.5.26,9.43,5,13.62,6,15.72-.79,15.72-.79S115.38,165,114.33,163.15ZM87.49,143.64a3.91,3.91,0,0,1,3.05,1.52,4,4,0,0,1,.67,3.35,1.94,1.94,0,0,1-.54,1,2.05,2.05,0,0,1-1.11.48,2.23,2.23,0,0,1-2.06-.57,1.44,1.44,0,0,1-.26-1.43,1.13,1.13,0,0,1,.88-.78l.16,1s-.09.08-.1.12a.45.45,0,0,0,.06.43,1.37,1.37,0,0,0,1.16.25,1.19,1.19,0,0,0,.59-.22,1,1,0,0,0,.25-.51,2.88,2.88,0,0,0-2.76-3.61,1.65,1.65,0,0,0-.81.16,2.87,2.87,0,0,0-.93.94,3.83,3.83,0,0,0-.95,2.17,3.93,3.93,0,0,0,.56,1.62,5.41,5.41,0,0,0,1,1.55,5.46,5.46,0,0,0,1.66.92,37.12,37.12,0,0,0,4.5,1.63l-.25,1a33.46,33.46,0,0,1-4.63-1.67,6.13,6.13,0,0,1-2-1.11A6.37,6.37,0,0,1,84.46,150a4.92,4.92,0,0,1-.67-2.05,4.7,4.7,0,0,1,1.14-2.79,3.85,3.85,0,0,1,1.29-1.25A2.48,2.48,0,0,1,87.49,143.64Zm-5.63-.18a1,1,0,0,0-.25.68l-.5.06a1.49,1.49,0,0,1,.34-1,4.74,4.74,0,0,1,2.42-1.68,9.84,9.84,0,0,1,2.86-.39v.5A9.47,9.47,0,0,0,84,142,4.17,4.17,0,0,0,81.86,143.46Zm11.06,13.92a26.1,26.1,0,0,1-9.49-2.12l.2-.46a25.33,25.33,0,0,0,9.31,2.08Zm1.2-8.29-.48-.11a3.52,3.52,0,0,0-.84-3.13l.36-.34A4,4,0,0,1,94.12,149.09Z"/><path class="blc2-2-bird1_3" d="M124.41,209.66c-.8-1.4-14.37-5.79-14.37-5.79,1.79-1.8,1.39-7.38,1.39-7.38a1.4,1.4,0,0,0,1.8-1.2c.2-1.6-5.59-2.52-5.59-2.52s2.2-1.87,2.4-2.67-6.59,1-6.59,1a8,8,0,0,0,1.4-3.6c0-1.59-4.59,1.6-4.59,1.6s2-4.79,0-4.19-4.2,8.78-4.4,11,3.4,4.79,3.4,4.79c-8-1.8-11.18,2.59-11.18,2.59s2.59.2,4.19.2,7.19,3.79,10.38,4.59,12-.6,12-.6S125.21,211.06,124.41,209.66ZM104,194.79a3,3,0,0,1,2.33,1.16,3.06,3.06,0,0,1,.51,2.55,1.47,1.47,0,0,1-.41.74,1.56,1.56,0,0,1-.85.37,1.7,1.7,0,0,1-1.57-.43,1.12,1.12,0,0,1-.2-1.09.86.86,0,0,1,.67-.59l.12.75s-.06.06-.07.09a.37.37,0,0,0,0,.33,1,1,0,0,0,.89.19.92.92,0,0,0,.45-.17.84.84,0,0,0,.19-.38,2.2,2.2,0,0,0-2.11-2.76,1.38,1.38,0,0,0-.61.12,2.12,2.12,0,0,0-.71.72,2.94,2.94,0,0,0-.73,1.65,3.17,3.17,0,0,0,.43,1.24,4.21,4.21,0,0,0,.79,1.18,4.11,4.11,0,0,0,1.27.7,27.49,27.49,0,0,0,3.43,1.24l-.19.74a26.87,26.87,0,0,1-3.53-1.28,4.78,4.78,0,0,1-1.5-.84,5,5,0,0,1-.94-1.39,3.7,3.7,0,0,1-.52-1.57,3.62,3.62,0,0,1,.87-2.12,2.81,2.81,0,0,1,1-.95A1.77,1.77,0,0,1,104,194.79Zm-4.29-.14a.73.73,0,0,0-.19.52l-.38,0a1.12,1.12,0,0,1,.26-.78,3.63,3.63,0,0,1,1.84-1.28,7.81,7.81,0,0,1,2.19-.3v.38a7.63,7.63,0,0,0-2.07.29A3.18,3.18,0,0,0,99.66,194.65Zm8.43,10.61a19.61,19.61,0,0,1-7.23-1.62l.15-.35a19.26,19.26,0,0,0,7.09,1.59Zm.92-6.32-.37-.08a2.71,2.71,0,0,0-.64-2.39l.28-.26A3.06,3.06,0,0,1,109,198.94Z"/></svg>
