<svg id="Layer_1" data-name="Layer 1" xmlns="http://www.w3.org/2000/svg" xmlns:xlink="http://www.w3.org/1999/xlink" viewBox="0 0 1507.89 890.26"><defs><style>.blc2-1-1l_1{fill:#367d75;}.blc2-1-1l_2{fill:url(#lgblc2-1-1l);}.blc2-1-1l_3{fill:url(#lgblc2-1-1l_2);}.blc2-1-1l_4{fill:#e5af36;}.blc2-1-1l_5{fill:#9fa851;}.blc2-1-1l_6{fill:#2f5f5b;}</style><linearGradient id="lgblc2-1-1l" x1="834.97" y1="421.18" x2="844.45" y2="331.15" gradientUnits="userSpaceOnUse"><stop offset="0" stop-color="#3b6660" stop-opacity="0"/><stop offset="0.64" stop-color="#9fa851"/></linearGradient><linearGradient id="lgblc2-1-1l_2" x1="961.75" y1="376.42" x2="971.22" y2="286.39" xlink:href="#lgblc2-1-1l"/></defs><title>16</title><path class="blc2-1-1l_2" d="M918.39,407.62c-5.5-4.59-14.42,2.22-20.81-1-6.62-3.35-5.93-15.07-13-17.21-4.41-1.33-9.78,2-13.81,1-.09-5.79-1.15-11.1-5.12-15.12-1.23-1.67-5.78-4.81-11.79-4.81-16.79,0-18.3,11-19.59,15.19-4.22.31-8.83-4.26-13.51-3.91-7.4.56-9.25,12.15-16.44,14-6.94,1.77-14.18-6.8-20.55-3.51-4.28,2.21-4.68,8.24-7.89,11.83-2.67,3-6.93,3.92-10.92,4.26s-8.14.26-11.81,1.87l-.11.05c-4.43,2-3.41,8.31.92,9.3H915.49a5.78,5.78,0,0,0,5.57-7.35A8.71,8.71,0,0,0,918.39,407.62Z"/><path class="blc2-1-1l_3" d="M1045.17,362.85c-5.5-4.58-14.43,2.23-20.82-1-6.62-3.35-5.93-15.07-13-17.22-4.42-1.33-9.79,2-13.81,1-.09-5.79-1.16-11.1-5.13-15.11-1.23-1.67-5.78-4.81-11.78-4.81-16.79,0-18.3,11-19.59,15.18-4.22.32-8.83-4.26-13.52-3.9-7.39.55-9.25,12.15-16.44,14-6.94,1.77-14.18-6.81-20.54-3.52-4.28,2.21-4.69,8.24-7.89,11.84-2.67,3-6.94,3.92-10.93,4.25s-8.14.27-11.81,1.88l-.11.05c-4.43,2-3.4,8.31.92,9.29h161.57a5.78,5.78,0,0,0,5.57-7.35A8.8,8.8,0,0,0,1045.17,362.85Z"/><path class="blc2-1-1l_4" d="M947.13,511.14a46.31,46.31,0,0,1,3-7.74,34.12,34.12,0,0,1,5-6.9l3.24,3.2a29.39,29.39,0,0,0-5,5.6,42,42,0,0,0-3.51,6.85Z"/><path class="blc2-1-1l_4" d="M933.07,507.32a83.91,83.91,0,0,0,.16-16.54l4.55-.19a88,88,0,0,1-1.8,17.18Z"/><path class="blc2-1-1l_4" d="M918.5,509.79A122.47,122.47,0,0,1,914.12,494l4.5-.7a117.56,117.56,0,0,0,2.7,15.62Z"/><path class="blc2-1-1l_5" d="M848.36,473.15a45,45,0,0,1,1.22-8.23,34.18,34.18,0,0,1,3.28-7.83l3.88,2.38a29.74,29.74,0,0,0-3.58,6.58,41.77,41.77,0,0,0-1.88,7.46Z"/><path class="blc2-1-1l_5" d="M833.8,472.57a84.77,84.77,0,0,0-3.56-16.15l4.39-1.2a88.07,88.07,0,0,1,2.1,17.14Z"/><path class="blc2-1-1l_5" d="M820.15,478.26a122.92,122.92,0,0,1-7.81-14.37l4.23-1.7a118.07,118.07,0,0,0,6.14,14.62Z"/><path class="blc2-1-1l_5" d="M732.79,453.18a25.94,25.94,0,0,1,.69-4.62,18.77,18.77,0,0,1,1.85-4.41l2.18,1.34a16.93,16.93,0,0,0-2,3.7,24.12,24.12,0,0,0-1,4.2Z"/><path class="blc2-1-1l_5" d="M724.6,452.86a47.41,47.41,0,0,0-2-9.09l2.47-.67a49.24,49.24,0,0,1,1.18,9.64Z"/><path class="blc2-1-1l_5" d="M716.93,456.06a69.4,69.4,0,0,1-4.4-8.09l2.38-1a65.61,65.61,0,0,0,3.46,8.22Z"/><path class="blc2-1-1l_5" d="M933.89,373a26,26,0,0,1,.69-4.63,19.1,19.1,0,0,1,1.84-4.41l2.18,1.35a16.45,16.45,0,0,0-2,3.7,24,24,0,0,0-1.06,4.19Z"/><path class="blc2-1-1l_5" d="M925.7,372.64a48.17,48.17,0,0,0-2-9.09l2.47-.68a50.11,50.11,0,0,1,1.18,9.65Z"/><path class="blc2-1-1l_5" d="M918,375.83a68.4,68.4,0,0,1-4.39-8.08l2.38-.95a67.74,67.74,0,0,0,3.45,8.22Z"/><path class="blc2-1-1l_5" d="M868.81,309.3a26,26,0,0,1,.69-4.63,19.13,19.13,0,0,1,1.85-4.41l2.18,1.35a16.71,16.71,0,0,0-2,3.7,24.23,24.23,0,0,0-1,4.19Z"/><path class="blc2-1-1l_5" d="M860.62,309a47.41,47.41,0,0,0-2-9.09l2.47-.68a49.34,49.34,0,0,1,1.18,9.65Z"/><path class="blc2-1-1l_5" d="M853,312.17a68.46,68.46,0,0,1-4.4-8.08l2.38-.95a66.25,66.25,0,0,0,3.46,8.22Z"/><path class="blc2-1-1l_4" d="M812.31,376.47a46.22,46.22,0,0,1,2.82-7.82,33.74,33.74,0,0,1,4.76-7l3.33,3.1a30,30,0,0,0-4.81,5.75,43.55,43.55,0,0,0-3.31,6.94Z"/><path class="blc2-1-1l_4" d="M798.15,373.05a84.55,84.55,0,0,0-.31-16.54l4.54-.32a88.43,88.43,0,0,1-1.31,17.23Z"/><path class="blc2-1-1l_4" d="M783.65,375.94a121.83,121.83,0,0,1-4.83-15.63l4.48-.83A117.23,117.23,0,0,0,786.45,375Z"/><circle class="blc2-1-1l_6" cx="875.89" cy="409.19" r="2.36"/><circle class="blc2-1-1l_6" cx="760.43" cy="491.73" r="2.36"/><circle class="blc2-1-1l_6" cx="878.26" cy="563.55" r="2.36"/><circle class="blc2-1-1l_6" cx="715.45" cy="359.56" r="6.97"/><circle class="blc2-1-1l_6" cx="944.59" cy="299.21" r="5.43"/></svg>
