<svg id="Layer_22" data-name="Layer 22" xmlns="http://www.w3.org/2000/svg" xmlns:xlink="http://www.w3.org/1999/xlink" viewBox="0 0 704.62 383.89" width="600"><defs><linearGradient id="linear-gradient" x1="331.41" y1="219.48" x2="332.23" y2="361.88" gradientTransform="translate(774.39 456.26) rotate(180)" gradientUnits="userSpaceOnUse"><stop offset="0" stop-color="#fafbfb" stop-opacity="0"/><stop offset="1" stop-color="#78a9a8"/></linearGradient><linearGradient id="linear-gradient-2" x1="632.26" y1="108.67" x2="632.9" y2="220.93" xlink:href="#linear-gradient"/><linearGradient id="linear-gradient-3" x1="430.81" y1="74.77" x2="431.12" y2="127.82" xlink:href="#linear-gradient"/><linearGradient id="linear-gradient-4" x1="624.38" y1="376.81" x2="624.69" y2="429.87" xlink:href="#linear-gradient"/><linearGradient id="linear-gradient-5" x1="454.95" y1="343.8" x2="455.25" y2="396.86" xlink:href="#linear-gradient"/><linearGradient id="linear-gradient-6" x1="579.09" y1="275.31" x2="579.56" y2="357.03" xlink:href="#linear-gradient"/><clipPath id="clip-path"><path d="M627.26,349.75c-35.79,0-35.79,8.94-71.58,8.94S519.9,357,484.11,357s-35.79,4.1-71.58,4.1-35.79-2-71.57-2-35.79-9-71.58-9-35.79,1.81-71.58,1.81-35.79,7.71-71.58,7.71S90.43,357,54.62,357c-11.83,0-24.77-11.29-24.77-23.12,0-38.31,1.1-38.31,1.1-76.63s3.84-38.32,3.84-76.64,1.49-38.32,1.49-76.64-1.66-38.32-1.66-76.64c0-11.82,8.24-26,20.07-26,35.78,0,35.78,3.55,71.57,3.55s35.79.85,71.58.85,35.79-4.18,71.57-4.18H341c35.79,0,35.79-.72,71.57-.72S448.35,5,484.14,5s35.79-5,71.59-5,35.79,1.27,71.58,1.27c11.82,0,19.78,14.27,19.78,26.09,0,38.32,47.23,24.68,47.23,63s10.3,56,10.3,94.33S647.56,219,647.56,257.27,649,295.59,649,333.91C649,345.74,639.08,349.75,627.26,349.75Z" style="fill:none"/></clipPath></defs><title>Artboard 1</title><g id="Layer_22" data-name="Layer 22"><path d="M626,349.75c-37.5,0-37.5,8.94-75,8.94S513.44,357,476,357s-37.51,4.13-75,4.13-37.5-2.06-75-2.06-37.5-8.93-75-8.93S213.45,352,176,352s-37.51,7.71-75,7.71S63.44,357,26,357C13.56,357,0,345.74,0,333.91c0-38.31,1.15-38.31,1.15-76.63s4-38.32,4-76.64S6.62,142.32,6.62,104,4.8,65.68,4.8,27.36c0-11.82,8.64-26,21-26,37.5,0,37.5,3.55,75,3.55s37.5.85,75,.85,37.5-4.18,75-4.18h75c37.51,0,37.51-.72,75-.72S438.31,5,475.8,5s37.51-5,75-5,37.51,1.27,75,1.27c12.4,0,20.73,14.27,20.73,26.09,0,38.32,7.77,38.32,7.77,76.64s-11.08,38.31-11.08,76.63S647,219,647,257.27s1.54,38.32,1.54,76.64C648.72,345.74,638.35,349.75,626,349.75Z" style="fill:#3176a9"/><g><path d="M280.28,195.89h0c.18-.3.37-.59.58-.88v-.07a9.22,9.22,0,0,1,.62-.78l.09-.11c.21-.23.43-.46.65-.68l.16-.14q.31-.3.66-.57l.23-.18.65-.47.31-.19.64-.37.4-.19c.2-.1.4-.2.6-.28l.5-.19c.19-.06.37-.14.56-.19l.61-.16a3,3,0,0,0,.5-.12,4.81,4.81,0,0,1,.76-.12l.39-.06a11.6,11.6,0,0,1,6.47,1.21,14.93,14.93,0,0,1,1.3-1.56,17.63,17.63,0,0,1,10.77-5.51,19.24,19.24,0,0,1,2.15-.13,18.44,18.44,0,0,1,3.55.37c.38.08.76.18,1.13.28a17.68,17.68,0,0,1,20.94-13.67,17.45,17.45,0,0,1,4.43,1.57,28.92,28.92,0,0,1-.7-4.63c0-.59-.06-1.19-.06-1.79a28.16,28.16,0,0,1,36.06-27.07,29.18,29.18,0,0,1,1.1-5.07A28.18,28.18,0,0,1,422.42,122c.33.32.66.64,1,1a42.72,42.72,0,0,1,8.68-6.25,41.94,41.94,0,0,1,50.76,8.32c.76.83,1.5,1.69,2.2,2.57a42.32,42.32,0,0,1,7.63,15.17,28.94,28.94,0,0,1,2.94-.15A28.19,28.19,0,0,1,521,158.56a17.62,17.62,0,0,1,17.75,3.27c.39.34.76.7,1.12,1.07a17.73,17.73,0,0,1,4.75,9.73,17.68,17.68,0,0,1,25.91,10.12c.14.48.27,1,.37,1.48a17.55,17.55,0,0,1,18.9,6.54,11.78,11.78,0,1,1,0,21,17.63,17.63,0,0,1-24.25,4.07A17.65,17.65,0,0,1,538.05,221a17.69,17.69,0,0,1-30.35,2.05,17.65,17.65,0,0,1-21.58-5,17.64,17.64,0,0,1-20.34,14.44,17.33,17.33,0,0,1-3.47-1,42,42,0,0,1-65.8-10,17.59,17.59,0,0,1-18.72,2,17.69,17.69,0,0,1-30.35-2A17.67,17.67,0,0,1,320,216.42a17.65,17.65,0,0,1-24.25-4.08,11.59,11.59,0,0,1-5.29,1.27,11.75,11.75,0,0,1-10.15-17.71Z" style="opacity:0.800000011920929;isolation:isolate;fill:url(#linear-gradient); mix-blend-mode: multiply"/><path d="M13.91,315.36h0c.14-.23.29-.47.45-.69v-.05a7.42,7.42,0,0,1,.49-.62l.07-.09.51-.53.13-.11.52-.46.18-.13c.17-.13.34-.26.51-.37l.25-.15c.08-.05.33-.21.5-.3l.32-.15.47-.22.4-.14a3.29,3.29,0,0,1,.44-.16,2.25,2.25,0,0,0,.48-.12A2.79,2.79,0,0,1,20,311q.3-.06.6-.09l.31-.05c.3,0,.62-.05.93-.05a9.28,9.28,0,0,1,4.17,1,14.9,14.9,0,0,1,1-1.23,13.92,13.92,0,0,1,8.49-4.34,13.9,13.9,0,0,1,4.49.19c.31.06.6.14.9.22A13.93,13.93,0,0,1,57.4,295.84a13.72,13.72,0,0,1,3.51,1.24,23.65,23.65,0,0,1-.55-3.65c0-.47,0-.94,0-1.41a22.21,22.21,0,0,1,28.43-21.34A22.21,22.21,0,0,1,126,257.13c.26.25.52.5.77.76a33.68,33.68,0,0,1,6.83-5,33,33,0,0,1,40,6.57c.6.65,1.18,1.32,1.73,2a32.61,32.61,0,0,1,3,4.44,33.27,33.27,0,0,1,3,7.52,22.53,22.53,0,0,1,2.32-.12,22.06,22.06,0,0,1,14.39,5.3,22.39,22.39,0,0,1,5.59,7.22,13.89,13.89,0,0,1,14,2.58,10,10,0,0,1,.88.84,14,14,0,0,1,3.75,7.67,13.95,13.95,0,0,1,20.42,8,11.61,11.61,0,0,1,.3,1.16,13.84,13.84,0,0,1,14.9,5.17,9.15,9.15,0,0,1,4.17-1,9.28,9.28,0,1,1-4.17,17.57,13.93,13.93,0,0,1-19.12,3.21,13.94,13.94,0,0,1-18.78,6,13.61,13.61,0,0,1-2.83-1.93,13.95,13.95,0,0,1-23.92,1.61,13.92,13.92,0,0,1-17.05-3.85,13.92,13.92,0,0,1-16,11.39,14.36,14.36,0,0,1-2.73-.76,33.12,33.12,0,0,1-51.88-7.88,13.87,13.87,0,0,1-14.75,1.57,13.95,13.95,0,0,1-23.93-1.61,13.93,13.93,0,0,1-21.66-4.09,13.91,13.91,0,0,1-19.11-3.21,9.27,9.27,0,0,1-12.18-13Z" style="opacity:0.6000000238418579;isolation:isolate;fill:url(#linear-gradient-2); mix-blend-mode: multiply"/><path d="M282.92,366.26h0a1.85,1.85,0,0,1,.21-.33h0a3.25,3.25,0,0,1,.23-.29h0a1.88,1.88,0,0,1,.24-.25l.06-.06.24-.21.09-.06.24-.18.12-.07.23-.14.15-.07.23-.11.18-.06.21-.08.23-.06h.19l.28-.05h.59a4.36,4.36,0,0,1,2,.47c.15-.2.32-.39.49-.58a6.59,6.59,0,0,1,4-2,7.16,7.16,0,0,1,.8-.05,6.5,6.5,0,0,1,1.32.14l.43.1a6.61,6.61,0,0,1,9.45-4.51,11.16,11.16,0,0,1-.26-1.72v-.67a10.45,10.45,0,0,1,10.19-10.72,10.3,10.3,0,0,1,3.26.43,11.18,11.18,0,0,1,.41-1.89,10.5,10.5,0,0,1,17.17-4.52l.37.36a16.08,16.08,0,0,1,3.23-2.33,15.65,15.65,0,0,1,18.92,3.11c.28.3.55.62.82.95a15.65,15.65,0,0,1,2.84,5.66,10.14,10.14,0,0,1,1.1-.06,10.53,10.53,0,0,1,9.44,5.92,6.35,6.35,0,0,1,2.28-.42,6.13,6.13,0,0,1,1.21.12,6.56,6.56,0,0,1,3.12,1.51l.42.4a6.56,6.56,0,0,1,1.77,3.63,6.53,6.53,0,0,1,3.34-.92,6.61,6.61,0,0,1,6.31,4.69,3,3,0,0,0,.14.55,6.41,6.41,0,0,1,1.74-.24,6.57,6.57,0,0,1,5.3,2.68,4.39,4.39,0,1,1,0,7.83,6.59,6.59,0,0,1-9,1.52,6.6,6.6,0,0,1-8.87,2.87,7.09,7.09,0,0,1-1.37-.94,6.6,6.6,0,0,1-8.86,2.91,6.67,6.67,0,0,1-2.45-2.15,6.54,6.54,0,0,1-8-1.82,6.58,6.58,0,0,1-7.59,5.36,6.94,6.94,0,0,1-1.28-.36,15.66,15.66,0,0,1-22.14-.5,15.4,15.4,0,0,1-2.38-3.23,6.59,6.59,0,0,1-7,.75,6.59,6.59,0,0,1-11.3-.77,6.57,6.57,0,0,1-9.28-.52,6.75,6.75,0,0,1-1-1.41,6.59,6.59,0,0,1-9-1.52,4.41,4.41,0,0,1-6.39-3.9,4.43,4.43,0,0,1,.6-2.22Z" style="opacity:0.4000000059604645;isolation:isolate;fill:url(#linear-gradient-3); mix-blend-mode: multiply"/><path d="M89.28,64.21h0a3,3,0,0,1,.21-.33h0l.23-.3h0a1.88,1.88,0,0,1,.24-.25H90l.24-.22.09-.06.24-.18.12-.07.23-.13.15-.08.23-.1.18-.07.21-.07.23-.06h1a4.34,4.34,0,0,1,2,.48,7,7,0,0,1,.49-.59,6.62,6.62,0,0,1,4-2,7.18,7.18,0,0,1,2.12.09l.43.11a6.58,6.58,0,0,1,9.45-4.51,11.29,11.29,0,0,1-.26-1.73v-.66a10.48,10.48,0,0,1,13.46-10.35,11.18,11.18,0,0,1,.41-1.89,10.49,10.49,0,0,1,17.17-4.51,4.17,4.17,0,0,1,.37.36,15.8,15.8,0,0,1,3.23-2.33,15.59,15.59,0,0,1,18.91,3.1,9.11,9.11,0,0,1,.82,1A14.81,14.81,0,0,1,167,41a16.12,16.12,0,0,1,1.44,3.55,10.14,10.14,0,0,1,1.1-.06,10.48,10.48,0,0,1,6.8,2.51A10.61,10.61,0,0,1,179,50.37a6.55,6.55,0,0,1,2.27-.41,7.1,7.1,0,0,1,1.22.11,6.57,6.57,0,0,1,3.12,1.52c.14.12.28.26.42.4a6.63,6.63,0,0,1,1.77,3.62,6.59,6.59,0,0,1,9.65,3.77c0,.18.1.37.14.55a6.41,6.41,0,0,1,1.74-.24,6.57,6.57,0,0,1,5.3,2.68,4.43,4.43,0,1,1,2.42,8.3,2.94,2.94,0,0,1-.42,0,4.36,4.36,0,0,1-2-.47,6.59,6.59,0,0,1-9,1.52,6.63,6.63,0,0,1-5.87,3.6,6.53,6.53,0,0,1-4.37-1.67,6.58,6.58,0,0,1-8.85,2.91,6.51,6.51,0,0,1-2.46-2.14A6.58,6.58,0,0,1,166,72.6a6.61,6.61,0,0,1-6.5,5.47,6.4,6.4,0,0,1-2.37-.45,15.65,15.65,0,0,1-24.52-3.81,6.55,6.55,0,0,1-7,.74,6.59,6.59,0,0,1-11.3-.76,6.58,6.58,0,0,1-9.29-.55,7,7,0,0,1-1-1.39,6.57,6.57,0,0,1-9-1.51,4.36,4.36,0,0,1-2,.47,4.4,4.4,0,0,1-4.38-4.4,4.46,4.46,0,0,1,.6-2.2Z" style="opacity:0.6000000238418579;isolation:isolate;fill:url(#linear-gradient-4); mix-blend-mode: multiply"/><path d="M258.79,97.22h0l.22-.33h0a2.17,2.17,0,0,1,.24-.29h0l.24-.26h.06l.25-.21.08-.07a2.2,2.2,0,0,1,.25-.17.41.41,0,0,1,.11-.07l.24-.14.15-.07.22-.11.19-.07.21-.07.22-.06h1.06a4.36,4.36,0,0,1,2,.47,6.71,6.71,0,0,1,.48-.58,6.58,6.58,0,0,1,4-2,5.34,5.34,0,0,1,.8,0,6.5,6.5,0,0,1,1.32.14l.42.1a6.6,6.6,0,0,1,7.8-5.1,6.44,6.44,0,0,1,1.66.59,9.92,9.92,0,0,1-.26-1.72v-.67a10.49,10.49,0,0,1,13.44-10.35,10.5,10.5,0,0,1,17.58-6.4l.37.36a15.65,15.65,0,0,1,22.11.73l0,0a9.11,9.11,0,0,1,.82,1,15.65,15.65,0,0,1,1.4,2.1,15.2,15.2,0,0,1,1.44,3.55,10.14,10.14,0,0,1,1.1-.06,10.46,10.46,0,0,1,6.8,2.51,10.61,10.61,0,0,1,2.64,3.41,6.57,6.57,0,0,1,2.28-.41,7.1,7.1,0,0,1,1.22.11,6.5,6.5,0,0,1,3.11,1.52,5.33,5.33,0,0,1,.42.4,6.56,6.56,0,0,1,1.77,3.63,6.57,6.57,0,0,1,9,2.29,6.22,6.22,0,0,1,.65,1.47,5.12,5.12,0,0,1,.15.56,6.41,6.41,0,0,1,1.74-.24,6.57,6.57,0,0,1,5.3,2.68,4.34,4.34,0,0,1,2-.48,4.39,4.39,0,1,1-2,8.31,6.57,6.57,0,0,1-9,1.51,6.57,6.57,0,0,1-8.83,2.89,6.06,6.06,0,0,1-1.4-1,6.59,6.59,0,0,1-11.31.76,6.56,6.56,0,0,1-8.06-1.82,6.58,6.58,0,0,1-6.49,5.47,6.69,6.69,0,0,1-2.38-.44,15.66,15.66,0,0,1-22.14-.5,15.4,15.4,0,0,1-2.38-3.23,6.53,6.53,0,0,1-7,.74,6.6,6.6,0,0,1-11.31-.76,6.59,6.59,0,0,1-9.29-.71,7,7,0,0,1-.87-1.3,6.59,6.59,0,0,1-9-1.52,4.38,4.38,0,0,1-5.78-6.13Z" style="opacity:0.4000000059604645;isolation:isolate;fill:url(#linear-gradient-5); mix-blend-mode: multiply"/><path d="M101.88,157.48h0a4.45,4.45,0,0,1,.33-.51h0l.35-.45.06-.06c.12-.13.24-.27.37-.39l.09-.08a3,3,0,0,1,.38-.33l.13-.1c.12-.09.24-.19.37-.27l.18-.11c.12-.07.24-.15.37-.21l.23-.11a2.11,2.11,0,0,1,.34-.16l.29-.11.32-.11a2.25,2.25,0,0,1,.35-.09l.29-.07.43-.07h.91a6.81,6.81,0,0,1,3,.73c.23-.31.48-.61.74-.9a10,10,0,0,1,7.42-3.23,10.37,10.37,0,0,1,2,.21l.65.16a10.15,10.15,0,0,1,11.86-8.07,10.36,10.36,0,0,1,2.8,1,16.9,16.9,0,0,1-.4-2.66v-1a16.15,16.15,0,0,1,16.12-16.18,16.39,16.39,0,0,1,4.57.65,16.2,16.2,0,0,1,20.89-13.51,16.22,16.22,0,0,1,6.19,3.6c.19.18.38.36.56.55a24.52,24.52,0,0,1,5-3.58,24.06,24.06,0,0,1,29.12,4.77c.44.48.87,1,1.27,1.48a23.81,23.81,0,0,1,2.16,3.28,24.06,24.06,0,0,1,2.22,5.47,16,16,0,0,1,1.69-.09A16.13,16.13,0,0,1,236,130.77a16.59,16.59,0,0,1,4.07,5.26,10,10,0,0,1,3.51-.64,9.79,9.79,0,0,1,1.87.18,10.09,10.09,0,0,1,4.8,2.33c.22.2.44.4.64.62a10.15,10.15,0,0,1,2.73,5.61,10.15,10.15,0,0,1,14.87,5.8c.08.28.15.57.21.85a10.64,10.64,0,0,1,2.69-.37,10.12,10.12,0,0,1,8.16,4.13,6.76,6.76,0,1,1,0,12.06,10.14,10.14,0,0,1-13.93,2.31A10.13,10.13,0,0,1,252,173.37a9.82,9.82,0,0,1-2.15-1.46,10.14,10.14,0,0,1-17.42,1.17,10.13,10.13,0,0,1-12.41-2.8,10.13,10.13,0,0,1-11.69,8.29,10.49,10.49,0,0,1-2-.55,24.11,24.11,0,0,1-37.75-5.76,10.08,10.08,0,0,1-10.74,1.15,10.15,10.15,0,0,1-17.41-1.18,10.13,10.13,0,0,1-14.31-.86,10,10,0,0,1-1.46-2.14,10.11,10.11,0,0,1-13.91-2.33,6.75,6.75,0,0,1-8.86-9.44Z" style="fill:url(#linear-gradient-6); mix-blend-mode: multiply"/></g><g style="clip-path:url(#clip-path)"><path d="M137.88,559.48c16.4-32.68,9.81-75.41-15.67-101.63-9.72-10-21.87-17.8-29.59-29.42-6.59-9.92-9.27-21.5-10.27-33.49C81.2,381,89.91,362.19,103.8,360.52c14.4-1.74,30.22,2.81,44.55.6-11,11.87-5.14,31.54,4.78,44.36s23.49,23.65,28.18,39.15c8.31,27.51-14.9,56-10.58,84.46" style="fill:#9ea751"/><path d="M123.09,378.06a16,16,0,0,0-3,9.41l-2-.13a20.59,20.59,0,0,1,1.2-5.37,15.35,15.35,0,0,1,2.8-4.74Z" style="fill:#fff"/><path d="M108.42,80c-.63-1.5-10.18-23-11.38-20s3.44,17.66,3.44,17.66l-4-4.54s-2.82,2.82-1.22,5.29,7.6,20.17,7.13,27S112.62,90.05,108.42,80Z" style="fill:#fff"/><path d="M128.82,120.53s-13.25,6.6-22,3.8-16.2-19.93-27.6-26.79-.92-8.74,2.15-7.33,11.28,11.3,17.33,11.6,6.09-11.15,5.11-17.42-7.38-37-3.89-40.49S108,62.22,108,62.22s-2-23.49,2-26.29,4.89,34.65,4.89,34.65,3.33,16.59,7.59,23.83S128.82,120.53,128.82,120.53Z" style="fill:#fff"/><path d="M283.94,251.89l-70.61-31a18.14,18.14,0,0,1-6.76-5.13l-77.75-95.23-22,3.8,64.8,110.37a63.11,63.11,0,0,0,20.18,21.06l58.59,37.82Z" style="fill:#fff"/><path d="M414.1,289.33l-5.1,6.46L330.62,395l-66.49-59.22s-24.77-2.82-26.85-34.48c0-.39-.07-.83-.09-1.27-.57-11.6,3.84-25.07,10.64-36.8a94.49,94.49,0,0,1,7.49-10.91c12.23-15.24,28.11-23.74,39.14-12.92C315.29,259.78,414.1,289.33,414.1,289.33Z" style="fill:#e3ae35"/><path d="M372.3,480.91a177,177,0,0,1,79.85-48c16.28-4.57,33.31-6.82,48.77-13.67,13.7-6.11,26.36-16.81,30.85-30.77-1.69-1.87-3.44-3.76-5.27-5.66-21.71-22.63-52.38-47.07-76.41-65.08-21.33-16-37.44-26.84-37.44-26.84a65.5,65.5,0,0,0-38.9.71,52.83,52.83,0,0,1-1.52,27.63c-5.3,16.3-15.87,30.47-21.4,46.69-5.33,15.63-5.74,32.45-8.59,48.72-7.8,44.7-34.32,84.91-69,114.12-33.9,28.52-61.49,43.09-104.21,54.91.36.54,6.78,10.1,12.23,17.81a11.46,11.46,0,0,0,12.27,4.44c60.59-16,107-42.41,149-90C352.67,504.42,361.74,492,372.3,480.91Z" style="fill:#2f4962"/><path d="M342.24,414.64c2.85-16.27,3.26-33.09,8.59-48.72,5.53-16.22,16.1-30.39,21.4-46.69a52.83,52.83,0,0,0,1.52-27.63c-26.45,8.34-50.64,31.4-69.44,57.91-23.1,32.4-38.07,70-39.23,91.93-2.61,48.39-78.31,58.36-78.31,58.36s-39.3-23.69-56,3.85a41.13,41.13,0,0,0-4.18,9.36c-3.46,11.17,2.87,30.17,14.89,52,2.74,5.06,5.8,10.27,9.13,15.53v.06a11.12,11.12,0,0,0,12.65,4.79c39.83-11.89,78.11-29.93,109.87-56.65C307.92,499.55,334.44,459.34,342.24,414.64Z" style="fill:#e3ae35"/><path d="M491.24,347.51c-3.67-2.79-13.22-12.46-17.49-14.22-4.87-2-3.67,8.66-8.91,8.16l-43-4.1q9.38-12.25,18-25.07a205.54,205.54,0,0,1-19.69-14.53c-28.48,20.49-41.66,45.68-40.24,85.09.22,6.23,1.15,17.43.45,27.68a89.2,89.2,0,0,1-3.8,17.61,3.55,3.55,0,0,0,5.55,3.88l.15-.11c.59-.34,30.52-18.08,65.69-26h0c7.25-1.61,14.46-3.5,22-5.87,9.22-2.89,18.54-6.32,25.91-12.57,5.33-4.5,10.74-11.79,11.15-19C507.44,360.22,497.24,352.07,491.24,347.51Z" style="fill:#e3ae35"/><path d="M473.31,367.39c-7.05,6.57-28.54,15.28-47.13,17.74-4.19.55-16.29.66-19.85-1.62-2.09-1.34-3.3-3.71-4.13-6.05-5.27-14.78.72-31,7.26-45.28,1.34-2.91,2.75-5.89,5.09-8.09a17.72,17.72,0,0,1,8.28-4.06c9.5-2.17,18.21-5.65,27.21-1.91,8.07,3.34,25.45,15.32,30.33,23C485.47,349.13,479.29,361.83,473.31,367.39Z" style="fill:#fff"/><path d="M301.62,274.59c-.57-3.71-.43-7.48-.65-11.22a58,58,0,0,0-21.09-41c-6.1-5-13.28-8.7-18.3-14.74a26.67,26.67,0,0,1-4.94-8.94c-3.3,8.68-1.71,18.52,1.63,27.19a27.17,27.17,0,0,0,5.5,9.4c2.7,2.74,6.24,4.45,9.55,6.4,8.15,4.81,15.51,11.76,18.42,20.76,1,3,1.44,6.24,2.76,9.14,2.09,4.64,6.16,9,9.5,12.78C305.06,283.13,301.94,276.58,301.62,274.59Z" style="fill:#e3ae35"/><polygon points="456.42 343.56 454.03 349.1 452.95 348.66 454.71 342.98 456.42 343.56" style="fill:#2f4962"/><path d="M114.62,137.63s1.64-12.46,18-12.45" style="fill:none;stroke:#e2a849;stroke-miterlimit:10;stroke-width:3.5999999046325684px"/><path d="M422.14,371.4a27.65,27.65,0,0,1,22.72-11.46l-.14,3.6A24.72,24.72,0,0,0,424,372.79Z" style="fill:#2f4962"/><path d="M411.32,371.73a22.7,22.7,0,0,0,4-9.55,16.49,16.49,0,0,0-1.39-9.81l3.28-1.51a19.82,19.82,0,0,1,1,11.86,25.26,25.26,0,0,1-5,10.41Z" style="fill:#2f4962"/><path d="M285,380.38a277.81,277.81,0,0,1,33.27-51.79l2.78,2.3a274.66,274.66,0,0,0-34,50.55Z" style="fill:#2f4962"/><path d="M372,295.33c-26.88,23.63-37.11,60.54-45.05,95.43S311.12,462.6,287,489.07c-7.38,8.12-16,14.94-24.73,21.67-10.27,8-20.62,15.86-31.45,23.07-27.64,18.4-49.54,29-81.63,37.48" style="fill:none;stroke:#fff;stroke-miterlimit:10;stroke-width:3.5999999046325684px"/><path d="M453.62,151.57l-40.33,18.91S319.9,264,363.62,307.7c12.41,12.39,103.76,19.7,103.76,19.7s16.54,0,27.62-9.4l27.84-18.93,10.86-14.83-4.27-16.33-6.32-15.46-7.41-30.32Z" style="fill:#fff"/><path d="M453.62,151.57l-40.33,18.91S319.9,264,363.62,307.7c12.41,12.39,103.76,19.7,103.76,19.7s16.54,0,27.62-9.4l27.84-18.93,10.86-14.83-4.27-16.33-6.32-15.46-7.41-30.32Z" style="fill:#fff"/><polygon points="439.04 322.33 421.36 374.67 450.25 378.28 482.03 316.37 439.04 322.33" style="fill:#fff"/><path d="M482.18,238.13a21.84,21.84,0,0,0-1.5-3.84c-.65-1.24-1.39-2.5-2.16-3.69a31.92,31.92,0,0,0-5.53-6.41,29.7,29.7,0,0,0-7.11-4.61,38.32,38.32,0,0,0-4-1.6c-.68-.21-1.4-.48-2-.62s-1.37-.29-2.08-.42c-1.43-.24-2.89-.44-4.35-.61l-2.17-.21a20.81,20.81,0,0,0-2.09,0A23.32,23.32,0,0,0,441,218c-5.3,2.21-10,5.8-14.68,9.46l-1.4-1.74c4.62-3.76,9.4-7.56,15.09-10.06a26,26,0,0,1,9.09-2.21h2.37c.78,0,1.52.11,2.27.18,1.51.15,3,.33,4.51.56.76.11,1.51.24,2.3.42s1.51.43,2.26.65a41.75,41.75,0,0,1,4.32,1.65,34.65,34.65,0,0,1,4.13,2.18,32.93,32.93,0,0,1,3.78,2.76,34.83,34.83,0,0,1,6.22,7,46.66,46.66,0,0,1,2.42,4,25.43,25.43,0,0,1,1.81,4.43Z" style="fill:#2f4962"/><path d="M410.45,187.13a19.32,19.32,0,0,1,13.37,9.3,18.41,18.41,0,0,1,2.48,8,24.86,24.86,0,0,1-.95,8.09,47,47,0,0,1-18.05,25.26,49,49,0,0,1-14,7c-1.24.41-2.54.66-3.81,1a36.3,36.3,0,0,1-3.89.66,37.4,37.4,0,0,1-3.91.31,8.8,8.8,0,0,0-3.25.57,2.53,2.53,0,0,0-1.48,2,6,6,0,0,0,.56,3.07,14.4,14.4,0,0,0,1.8,3.05c.73,1,1.49,2,2.3,2.93A44.85,44.85,0,0,0,393,267.94l-1.12,1.93a47.29,47.29,0,0,1-12.06-9.94c-.86-1-1.67-2-2.45-3.07a17.13,17.13,0,0,1-2.11-3.51,8.37,8.37,0,0,1-.77-4.38,5,5,0,0,1,2.86-3.92,10.85,10.85,0,0,1,4.21-.86c1.29-.08,2.48-.23,3.72-.34a34.41,34.41,0,0,0,3.65-.65,25,25,0,0,0,3.58-1,46.28,46.28,0,0,0,13.12-6.76,44,44,0,0,0,16.68-23.77,21.51,21.51,0,0,0,.78-7,15.2,15.2,0,0,0-2.11-6.51,16,16,0,0,0-11-7.57Z" style="fill:#2f4962"/><path d="M377,290.42a38.48,38.48,0,0,0,5.26.18,17.62,17.62,0,0,1,5.51,1.08,18.43,18.43,0,0,1,4.85,2.69,22.07,22.07,0,0,0,3.71,2.49,5.11,5.11,0,0,0,1.79.51,3,3,0,0,0,1.74-.34,6,6,0,0,0,2.6-3.62,8.35,8.35,0,0,0-.21-4.8,9.63,9.63,0,0,0-2.68-4,16.39,16.39,0,0,0-4-2.58,20,20,0,0,0-4.39-1.53,23.66,23.66,0,0,0-9.26.13,42.45,42.45,0,0,0-4.71,1.13,6.18,6.18,0,0,0-3.26,1.91,3.92,3.92,0,0,0-.81,4,4.14,4.14,0,0,0,1.49,1.82A6.16,6.16,0,0,0,377,290.42Zm-.08.46a7.51,7.51,0,0,1-4.83-2.54,6,6,0,0,1-1.21-2.83,7.27,7.27,0,0,1,.3-3.21,8.1,8.1,0,0,1,4.45-4.78,27.2,27.2,0,0,1,5.33-1.8,21.62,21.62,0,0,1,11.45.52,18.75,18.75,0,0,1,5.2,2.59,16.65,16.65,0,0,1,4,4.16A15,15,0,0,1,404,293.73a12.56,12.56,0,0,1-.8,2.75,7.91,7.91,0,0,1-1.65,2.57,6,6,0,0,1-3,1.65,8,8,0,0,1-3.37-.09,12.39,12.39,0,0,1-5.13-3c-1.31-1.16-2.4-2.28-3.68-3.33a13.37,13.37,0,0,0-4.25-2.52A34,34,0,0,0,376.93,290.88Z" style="fill:#2f4962"/><path d="M469.62,247.69a34.21,34.21,0,0,1-5.06,1.41,40.53,40.53,0,0,1-5.15.67,32.32,32.32,0,0,1-10.45-1,28.71,28.71,0,0,1-5-1.89,29.11,29.11,0,0,1-4.57-2.85,32.17,32.17,0,0,1-7.17-7.91l4.42-2.72a27.44,27.44,0,0,0,5.73,6.92,24.33,24.33,0,0,0,3.68,2.54,25.65,25.65,0,0,0,4.14,1.77,28.14,28.14,0,0,0,9.07,1.26,36.32,36.32,0,0,0,4.66-.4,30.14,30.14,0,0,0,4.5-1Z" style="fill:#2f4962"/><path d="M408,222.2l-3.36-.64c-1.12-.26-2.23-.62-3.34-.93-.55-.19-1.09-.44-1.63-.65a11.74,11.74,0,0,1-1.62-.72,19.38,19.38,0,0,1-3.07-1.9,14.23,14.23,0,0,1-4.65-5.74,11,11,0,0,1-.62-1.78,12.76,12.76,0,0,1-.37-1.84,11.72,11.72,0,0,1-.09-1.87,7.42,7.42,0,0,1,.06-.94,8.31,8.31,0,0,1,.15-1l3.37.75a7.35,7.35,0,0,0,0,1.24,10.26,10.26,0,0,0,.13,1.36,8.4,8.4,0,0,0,.34,1.31,6.4,6.4,0,0,0,.5,1.25,10.33,10.33,0,0,0,3.62,4,8.3,8.3,0,0,0,1.2.75l1.29.64a11.34,11.34,0,0,0,1.37.52c.47.16.92.35,1.39.48,1,.22,1.94.49,2.94.68l3,.43Z" style="fill:#2f4962"/><circle cx="439.17" cy="286.05" r="19.94" style="fill:#e3ae35"/><polygon points="466.52 333.16 452.19 362.06 450.17 361.11 463.39 331.68 466.52 333.16" style="fill:#2f4962"/><path d="M572.77,149.75a18.09,18.09,0,0,0-2.14-7.21c-1.56-2.49-4.13-4.14-6.67-5.6a107.14,107.14,0,0,0-77-11.23A53.25,53.25,0,0,1,519.52,48c-3.3,5.73-.67,14,5.33,16.82s14-.55,16.29-6.76c1.51-4.16.61-8.82-1-12.93-6.94-17.43-26.64-27.64-45.39-27S458.52,28.59,445,41.58c-11.61,11.14-21,24.9-25.51,40.34s-4.07,32.57,2.79,47.13c3.59,7.62,8.79,14.36,14.09,20.91a544.54,544.54,0,0,0,97.43,93.54c3.53,2.63,8.18,6.79,12.62,7.68,5.43,1.08,5.46-2.69,7.57-7.5A299.36,299.36,0,0,0,565.72,213C572.12,192.66,575.69,171.07,572.77,149.75Z" style="fill:#5da4a0"/><path d="M572.77,149.75a18.09,18.09,0,0,0-2.14-7.21c-1.56-2.49-4.13-4.14-6.67-5.6a107.14,107.14,0,0,0-77-11.23A53.25,53.25,0,0,1,519.52,48c-3.3,5.73-.67,14,5.33,16.82s14-.55,16.29-6.76c1.51-4.16.61-8.82-1-12.93-6.94-17.43-26.64-27.64-45.39-27S458.52,28.59,445,41.58c-11.61,11.14-21,24.9-25.51,40.34s-4.07,32.57,2.79,47.13c3.59,7.62,8.79,14.36,14.09,20.91a544.54,544.54,0,0,0,97.43,93.54c3.53,2.63,8.18,6.79,12.62,7.68,5.43,1.08,5.46-2.69,7.57-7.5A299.36,299.36,0,0,0,565.72,213C572.12,192.66,575.69,171.07,572.77,149.75Z" style="fill:#9ea751"/><path d="M478.23,144.79c4-2.76,8.68-4.22,13.37-5.35a119.18,119.18,0,0,1,69.58,4.36,83.77,83.77,0,0,1-6.07,31.07" style="fill:none;stroke:#fff;stroke-linecap:round;stroke-linejoin:round;stroke-width:2.509999990463257px"/><path d="M561.17,144.67a88.23,88.23,0,0,0-61.66,30.46" style="fill:none;stroke:#fff;stroke-linecap:round;stroke-linejoin:round;stroke-width:2.509999990463257px"/><path d="M602.2,156c20.46-6.06,34.16-28.55,31.47-49.72S613.13,67.13,592.21,63c4.58,4,.92,12.68-5.07,13.74S575.33,73.08,573,67.45a20.72,20.72,0,0,1,7.23-24.19c4.06-2.78,9-4,13.9-4.47,18.28-1.85,35.75,6.73,50.94,17,13.93,9.45,21.14,17.55,31.29,34.38,7.78,12.9,12.07,31.81,8.85,53.69-2.2,15-10.8,31.52-20.11,43.5-11.7,15-33.86,30.89-41.8,35.22-17.78,9.7-38.68,11.36-58.87,12.82a60.48,60.48,0,0,0,43.73,35.73c-2.64,5.07-9.75,5.32-15.39,4.38A100,100,0,0,1,568,268a42.18,42.18,0,0,0-6.7-2.68,44.11,44.11,0,0,0-7.94-.91,85.47,85.47,0,0,1-41.67-14.25c-7.16-4.81,2-8.6-.34-16.9-2.08-7.42-16.26-18-13.21-25.09a61.63,61.63,0,0,1,22.47-26.86c6.64-4.39,14-7.41,20.92-11.4s12.12-11.73,19.24-14.87c5.5-2.44,9.79.75,15.24,1.87A55.22,55.22,0,0,0,602.2,156Z" style="fill:#9ea751"/><path d="M436.85,90.07a88.58,88.58,0,0,1,12.66-26.75A92.24,92.24,0,0,1,463,49.06C474.82,39,488.87,30.87,505.1,34.23c-4.49-.3-8.77,1.78-12.73,3.92-11.32,6.15-22.44,13.76-28.89,24.91S456,88,458.58,100.59s8.61,24.33,15.53,35.21l-23.38-6.91c-6.22-1.84-12.32-4.49-15.66-10.42C431.49,112.13,433.62,102.41,436.85,90.07Z" style="fill:#fff"/><path d="M443.8,127a65.39,65.39,0,0,1-3.18-25.22A73.75,73.75,0,0,1,446.81,77a77.91,77.91,0,0,1,13.81-21.38,68.8,68.8,0,0,1,20.17-15.26.12.12,0,0,1,.16.06h0a.12.12,0,0,1,0,.16,68.08,68.08,0,0,0-19.34,15.87,76.27,76.27,0,0,0-13,21.32,89,89,0,0,0-5.55,24.2,93.09,93.09,0,0,0,1,25,.13.13,0,0,1-.11.15h0a.13.13,0,0,1-.16-.1Z" style="fill:#5da4a0"/><path d="M583.51,218.44c12.87-2.09,25.61-6.18,36.34-13.59a91.3,91.3,0,0,0,14.58-12.91c13.94-14.86,25.1-33.52,26.06-53.87a97.29,97.29,0,0,0-1.44-19.43c-1.79-11.46-4.67-23.3-12.26-32.08-5-5.84-11.78-9.89-18.41-13.84A55.76,55.76,0,0,1,649,108.56a64,64,0,0,1-8.12,40.82,92.23,92.23,0,0,1-10.28,14.17,75.34,75.34,0,0,1-11.68,11.25c-16,12-37.32,13.64-57.29,13.22q-17.13-.36-34.17-2.33c-1.51-.18-3.17-.33-4.41.55a6.33,6.33,0,0,0-1.65,2.12c-3.8,6.77-7.8,14.3-5.93,21.77,1.25,5.13,5.14,9.33,9.73,11.93s9.85,3.78,15.08,4.5c5,.68,3.64-1.73,6.24-4.1s6.33-1.74,10.23-1.85A203,203,0,0,0,583.51,218.44Z" style="fill:#fff"/><path d="M654.9,118.42a83.74,83.74,0,0,1-9.16,47A82.29,82.29,0,0,1,631.41,185a86.1,86.1,0,0,1-30.64,19.66,28.06,28.06,0,0,1-2.88,1l-2.92.94c-2,.53-3.93,1.12-5.94,1.51a82,82,0,0,1-24.41,1.62c-4.06-.33-8.08-.85-12.08-1.44s-8-1.18-12-1.93-7.94-1.49-11.89-2.35-7.87-1.83-11.75-2.94l.06-.25c4,.74,7.92,1.47,11.9,2.07s8,1.23,12,1.75c8,1,16,2.16,23.93,2.59a84.68,84.68,0,0,0,11.92,0c1,0,2-.12,3-.22s2-.17,2.95-.32c2-.29,3.93-.55,5.87-1s3.87-.88,5.8-1.35l2.86-.86c1-.27,1.89-.6,2.82-1a82.88,82.88,0,0,0,11-4.74,82,82,0,0,0,19.31-14,80.6,80.6,0,0,0,14.3-19,82.86,82.86,0,0,0,10-46.4Z" style="fill:#5da4a0"/><path d="M474.93,196.61c-12.89-7.4-27.63-12.1-50.73-14.25-8.81-.82-18-5-22.65-12.56-6.3-10.15-1-24.59-7.6-34.55-1.84-2.8-4.54-5.07-5.79-8.18s0-7.63,3.27-8.08c1.79-.25,3.48.76,4.94,1.81A48.25,48.25,0,0,1,412.15,140a31.15,31.15,0,0,1,3-19.85c1.66-3.18,4.11-6.24,7.54-7.29s7.86.77,8.52,4.3c1.19-3.64,2.45-7.38,5-10.25s6.67-4.68,10.25-3.33a11.58,11.58,0,0,1,4.68,3.72,33.37,33.37,0,0,1,7.48,17.8c.27-3.93,5.42-6,9.08-4.52s5.93,5.1,7.59,8.67a60.35,60.35,0,0,1,5.49,21.55,33.08,33.08,0,0,1,23.9-12.41,4.09,4.09,0,0,1,2.36.36c1.27.73,1.5,2.46,1.39,3.93-.4,5.38-3.39,10.25-4.22,15.58A20.11,20.11,0,0,0,510,175.54c0-7.58,7.3-14,14.87-14.18S539.55,166.22,543,173c2,3.9,2.85,8.9.36,12.51-2.32,3.35-7,4.48-11,3.52s-7.28-3.65-10-6.66a58.13,58.13,0,0,1,11.2,31.74A46.16,46.16,0,0,1,559,215.39c1.75.6,3.66,1.52,4.2,3.28.63,2-.86,4.06-2.27,5.65a200.17,200.17,0,0,1-22.38,21.49,60.68,60.68,0,0,1,35.9,19.79c-3.53,5.56-10.49,7.72-16.93,9.12a183,183,0,0,1-23.17,3.5A79.14,79.14,0,0,1,549,323.06c-30.38-1.94-57.91-26.25-63.6-56.15a10.44,10.44,0,0,1,0-5.49c.88-2.38,3.22-3.84,5.41-5.13,5.19-3.05,14.33-6.22,15-13.17.66-6.28-6-18.56-9.53-23.15C487.44,208.45,486.09,205.42,474.93,196.61Z" style="fill:#365263"/><path d="M414.92,168.18a127.93,127.93,0,0,1,34.57,1.14,95.46,95.46,0,0,1,32.42,12.12,93.84,93.84,0,0,1,35,38c.65,1.31,1.26,2.63,1.83,4l1.6,4,3.18,8a1.25,1.25,0,1,1-2.33.93h0l-3.15-8-1.55-4c-.53-1.3-1.11-2.59-1.73-3.85a90.11,90.11,0,0,0-8.91-14.45,91.4,91.4,0,0,0-25-22.8,93.48,93.48,0,0,0-31.7-12.14,125.89,125.89,0,0,0-34.07-1.33h0a.81.81,0,0,1-.15-1.62Z" style="fill:#fff"/><path d="M496.62,195.13a28.86,28.86,0,0,1-6.39-11.54,42.9,42.9,0,0,1-1.46-6.42,32.76,32.76,0,0,1-.26-6.64,36.29,36.29,0,0,1,3.25-12.82,9.1,9.1,0,0,1,2.1-3,5.06,5.06,0,0,1,3.88-1.3,3.8,3.8,0,0,1,2.12.89,3.43,3.43,0,0,1,1.16,2.11,4,4,0,0,1-.27,2.26,3.68,3.68,0,0,1-1.64,1.8H499a1.26,1.26,0,0,1-1.17-2.23l.12-.05a1.41,1.41,0,0,0,.61-1.43,1.07,1.07,0,0,0-.33-.67,1.48,1.48,0,0,0-.8-.34,2.69,2.69,0,0,0-2.07.68,6.87,6.87,0,0,0-1.58,2.23A32.91,32.91,0,0,0,492,183,27.16,27.16,0,0,0,497.78,194h0a.83.83,0,0,1-1.16,1.18Z" style="fill:#fff"/><path d="M480.41,182.62a55.55,55.55,0,0,1-5.9-5.26,50.67,50.67,0,0,1-5-6.13,42.66,42.66,0,0,1-3.89-6.91,36.1,36.1,0,0,1-2.52-7.56,32.6,32.6,0,0,1-.81-8,15.92,15.92,0,0,1,1.85-8,8,8,0,0,1,3.24-3.09,7.23,7.23,0,0,1,4.52-.74,5.55,5.55,0,0,1,2.26,1,4.39,4.39,0,0,1,1.62,2.06,3.38,3.38,0,0,1,.2,1.51,2.8,2.8,0,0,1-.68,1.55,2.94,2.94,0,0,1-1.39.91,2.45,2.45,0,0,1-1.91-.2,1.25,1.25,0,1,1,1.19-2.2l.05,0h0a.64.64,0,0,0,.22-.14.38.38,0,0,0,.1-.2,1,1,0,0,0-.06-.41,2.7,2.7,0,0,0-2-1.49,4.8,4.8,0,0,0-3,.47,5.68,5.68,0,0,0-2.34,2.19,13.83,13.83,0,0,0-1.62,6.91,30.82,30.82,0,0,0,.65,7.48,34.86,34.86,0,0,0,2.28,7.2,41.71,41.71,0,0,0,3.64,6.66,48,48,0,0,0,4.73,6,52.9,52.9,0,0,0,5.63,5.16h0a.81.81,0,0,1,.13,1.14h0a.84.84,0,0,1-1.17.08Z" style="fill:#fff"/><path d="M459.49,173.48a21.64,21.64,0,0,1-7.85-5.21,37.56,37.56,0,0,1-5.44-7.57c-1.49-2.71-2.76-5.51-4-8.31a76.23,76.23,0,0,1-3.29-8.63,36.13,36.13,0,0,1-1.63-9.22,25.15,25.15,0,0,1,.27-4.75,18.84,18.84,0,0,1,1.3-4.67,9.4,9.4,0,0,1,3.19-4,6.62,6.62,0,0,1,5.33-1,5.1,5.1,0,0,1,2.51,1.52,4.34,4.34,0,0,1,1.07,2.9,5,5,0,0,1-.88,2.86,3.8,3.8,0,0,1-2.84,1.65,1.25,1.25,0,0,1-.2-2.5h.06a1.25,1.25,0,0,0,1-.59,2.58,2.58,0,0,0,.46-1.42,2,2,0,0,0-.43-1.3,2.83,2.83,0,0,0-1.33-.81,4.27,4.27,0,0,0-3.39.58,7.14,7.14,0,0,0-2.41,3,15.65,15.65,0,0,0-1.18,4.08,22.43,22.43,0,0,0-.31,4.33,34.27,34.27,0,0,0,1.44,8.7,76.87,76.87,0,0,0,3.11,8.44c1.17,2.8,2.38,5.56,3.79,8.19a35.43,35.43,0,0,0,5.07,7.26,20,20,0,0,0,7.16,4.89h0a.81.81,0,0,1-.44,1.56l-.13,0Z" style="fill:#fff"/><path d="M442.41,170a28.69,28.69,0,0,1-9.61-5.39c-1.43-1.15-2.77-2.39-4.08-3.62a24,24,0,0,1-3.71-4.21,12.63,12.63,0,0,1-1.25-11.34,7,7,0,0,1,1.81-2.64,4.81,4.81,0,0,1,1.56-.91,3.3,3.3,0,0,1,2.06-.06,3.07,3.07,0,0,1,1.7,1.32,4.09,4.09,0,0,1,.63,1.82,3.14,3.14,0,0,1-.55,2.12,3.34,3.34,0,0,1-1.76,1.18,1.25,1.25,0,1,1-.74-2.39h0a.88.88,0,0,0,.46-.26.55.55,0,0,0,.09-.43,1.69,1.69,0,0,0-.22-.7.69.69,0,0,0-.37-.32,1.62,1.62,0,0,0-1.34.45,4.83,4.83,0,0,0-1.21,1.75,10.38,10.38,0,0,0,.88,9.29,22.18,22.18,0,0,0,3.31,3.92c1.27,1.24,2.54,2.47,3.88,3.61a27.16,27.16,0,0,0,8.92,5.28.81.81,0,0,1-.49,1.54Z" style="fill:#fff"/><path d="M424.06,169.21a44.69,44.69,0,0,1-9.31-6.92,12.64,12.64,0,0,1-2-2.32,5,5,0,0,1-.85-3.46,3.4,3.4,0,0,1,2.67-3,3.31,3.31,0,0,1,2.18.38,2.72,2.72,0,0,1,1.41,2.08,1.24,1.24,0,0,1-2.42.47l-.12-.31s0-.07-.14-.18a.94.94,0,0,0-.57-.13c-.26,0-.7.39-.79,1-.29,1.25.77,2.65,2.09,4a43,43,0,0,0,8.67,7,.81.81,0,0,1,.23,1.12.8.8,0,0,1-1,.28Z" style="fill:#fff"/><path d="M511.21,213.26a35.13,35.13,0,0,1-4-8.19c-1-2.84-1.77-6-1-9.32a7.73,7.73,0,0,1,7.47-6.11,5.33,5.33,0,0,1,2.7.87,3.45,3.45,0,0,1,1.12,1.22,2.67,2.67,0,0,1,.28,1,5.21,5.21,0,0,1,0,.79,3.41,3.41,0,0,1-.52,1.64,2.8,2.8,0,0,1-1.54,1.14,5,5,0,0,1-2.94-.17,1.26,1.26,0,0,1,.69-2.42h.07a3.08,3.08,0,0,0,1.44.2.43.43,0,0,0,.23-.14,1.07,1.07,0,0,0,.14-.47,1.82,1.82,0,0,0,0-.33v-.12a1,1,0,0,0-.37-.41,3.07,3.07,0,0,0-1.49-.49,4.78,4.78,0,0,0-3.33,1.17,6,6,0,0,0-2,3.16,10.83,10.83,0,0,0-.23,4.05,23,23,0,0,0,1,4.17,33.23,33.23,0,0,0,3.64,7.89.81.81,0,0,1-.24,1.11h0A.81.81,0,0,1,511.21,213.26Z" style="fill:#fff"/><path d="M502.84,175.53A28.18,28.18,0,0,0,501.62,189" style="fill:none;stroke:#fff;stroke-linecap:round;stroke-linejoin:round;stroke-width:2.509999990463257px"/><path d="M478.36,157.63a28.35,28.35,0,0,0,.86,15.06" style="fill:none;stroke:#fff;stroke-linecap:round;stroke-linejoin:round;stroke-width:2.509999990463257px"/><path d="M453.42,147.58a22.64,22.64,0,0,0,4.35,15.63" style="fill:none;stroke:#fff;stroke-linecap:round;stroke-linejoin:round;stroke-width:2.509999990463257px"/><path d="M440.62,162.13a16.59,16.59,0,0,1-5.77-9.2" style="fill:none;stroke:#fff;stroke-linecap:round;stroke-linejoin:round;stroke-width:2.509999990463257px"/><path d="M424.16,163.25a24.87,24.87,0,0,1-2.82-3.16" style="fill:none;stroke:#fff;stroke-linecap:round;stroke-linejoin:round;stroke-width:2.509999990463257px"/><path d="M516.11,201.13a6.5,6.5,0,0,0-1.09,4.32,19.22,19.22,0,0,0,1,4.43" style="fill:none;stroke:#fff;stroke-linecap:round;stroke-linejoin:round;stroke-width:1.9600000381469727px"/><circle cx="426.03" cy="92.64" r="3.88" style="fill:none;stroke:#fff;stroke-miterlimit:10;stroke-width:1.25px"/><circle cx="430.1" cy="76.67" r="3.88" style="fill:none;stroke:#fff;stroke-miterlimit:10;stroke-width:1.25px"/><circle cx="437.98" cy="61.51" r="3.88" style="fill:none;stroke:#fff;stroke-miterlimit:10;stroke-width:1.25px"/><circle cx="447.35" cy="48.79" r="2.85" transform="translate(365.08 491.21) rotate(-85.69)" style="fill:none;stroke:#fff;stroke-miterlimit:10;stroke-width:1.25px"/><circle cx="563.65" cy="173.62" r="5.05" style="fill:none;stroke:#fff;stroke-miterlimit:10;stroke-width:1.25px"/><circle cx="588.47" cy="173.36" r="3.97" transform="translate(368.74 746.13) rotate(-85.43)" style="fill:none;stroke:#fff;stroke-miterlimit:10;stroke-width:1.25px"/><circle cx="600.53" cy="171.66" r="3.33" transform="translate(384.23 757.59) rotate(-85.69)" style="fill:none;stroke:#fff;stroke-miterlimit:10;stroke-width:1.25px"/><circle cx="614.63" cy="163.3" r="2.63" style="fill:none;stroke:#fff;stroke-miterlimit:10;stroke-width:1.25px"/><circle cx="625.45" cy="152.76" r="2.24" style="fill:none;stroke:#fff;stroke-miterlimit:10;stroke-width:1.25px"/><circle cx="634.11" cy="143.06" r="1.73" transform="translate(443.79 764.63) rotate(-85.69)" style="fill:none;stroke:#fff;stroke-miterlimit:10;stroke-width:1.25px"/><path d="M458.8,305.2c-1.12,12.85,17.11,49.51,58.61,56.77s42.12-34.57,24.25-36.31c-12.12-1.18-16.93,4.87-16,12,0,0-.28,11.44,12.07,10.39,0,0-7.59,4.25-22.29-1.87s-24.31-16.11-26.28-26.79c0,0,19.63,4.35,28.17-7.28s12.31-17.73,24.42-13.8c0,0-10.25-12-18.78-10.1,0,0-8-29,39.9-16.6,0,0-42.6-35.33-79-10.46C483.93,261.13,461.24,277.27,458.8,305.2Z" style="fill:#e3ae35"/><path d="M488.94,276.49h0a11.05,11.05,0,0,1,7,.44,25.9,25.9,0,0,1,5.84,3.36,9.84,9.84,0,0,1,2.43,2.12c1.86,2.53.94,6.26-.73,9.14a21.46,21.46,0,0,1-9,8.43h0l-.28.12a18.17,18.17,0,0,1-4.38,1.45l-.52.08a25.42,25.42,0,0,1-13.78-.67,4.09,4.09,0,0,1-2.54-5.2c0-.13.1-.26.16-.39C476,289.35,482.15,277.94,488.94,276.49Z" style="fill:#fff"/><path d="M482.05,295a19.64,19.64,0,0,0,12.57-3.56,11.54,11.54,0,0,0,2.34-2.07,2.7,2.7,0,0,0,.54-1,1.14,1.14,0,0,0-.07-.75,4.78,4.78,0,0,0-1.82-1.72,3.26,3.26,0,0,0-2.23-.53l-.54-3.41a6.66,6.66,0,0,1,4.52,1.14A9.79,9.79,0,0,1,499,284.5a5.66,5.66,0,0,1,1.35,2,4.29,4.29,0,0,1,.09,2.74,6,6,0,0,1-1.18,2.08,10,10,0,0,1-1.5,1.41,17,17,0,0,1-1.56,1.11,22.24,22.24,0,0,1-14.4,3.44Z" style="fill:#2f4962"/><circle cx="529.03" cy="358.88" r="0.13" style="fill:#fff"/><path d="M516.42,358.9a.48.48,0,1,1,.48-.48h0A.47.47,0,0,1,516.42,358.9Z" style="fill:#fff"/><circle cx="504.17" cy="355.37" r="0.78" style="fill:#fff"/><path d="M492.84,350.85a1,1,0,1,1,.05,0Z" style="fill:#fff"/><circle cx="483.05" cy="341.85" r="1.32" style="fill:#fff"/><path d="M475.2,332.9a.94.94,0,1,1,.94-.94A1,1,0,0,1,475.2,332.9Z" style="fill:#fff"/><path d="M434.51,323.81a95.58,95.58,0,0,1-1.45,17.55l-1.15-.18a93.86,93.86,0,0,0,.8-17.33Z" style="fill:#2f4962"/><path d="M404.84,319.87c21.48,3.15,32.09,4.45,50.25,1.7" style="fill:none;stroke:#2f4962;stroke-miterlimit:10;stroke-width:1.7999999523162842px"/><path d="M366.28,303.92c-.58-1.11-2.49-4.54-2.85-6.62" style="fill:none;stroke:#2f4962;stroke-miterlimit:10;stroke-width:1.350000023841858px"/><path d="M370.62,306.57c-.58-1.68-2-7.56-1.64-8.72" style="fill:none;stroke:#2f4962;stroke-miterlimit:10;stroke-width:1.350000023841858px"/><path d="M373.9,309a16.82,16.82,0,0,1,1.18-7.22" style="fill:none;stroke:#2f4962;stroke-miterlimit:10;stroke-width:1.350000023841858px"/></g></g></svg>