<svg id="Layer_23" data-name="Layer 23" xmlns="http://www.w3.org/2000/svg" xmlns:xlink="http://www.w3.org/1999/xlink" viewBox="0 0 545.62 351.32" width="400"><defs><clipPath id="clip-path"><path d="M439.78,351.23c-39.21,0-39.21.09-78.41.09s-39.21-1.89-78.41-1.89-39.21-2.92-78.42-2.92-39.2,4.38-78.41,4.38c-26,0-50.18-24.41-50.18-52.19,0-41,6-41,6-81.92s-3.53-41-3.53-81.93,3.14-41,3.14-81.92c0-27.78,18.54-48.71,44.54-48.71C165.3,4.22,165.3,0,204.51,0s39.2,4.14,78.41,4.14,39.24-1.79,78.44-1.79S400.57,7,439.78,7C465.78,7,488,25.19,488,53c0,41,1.56,41,1.56,81.92s-2.88,41-2.88,81.93,2.19,41,2.19,81.92C488.91,326.48,465.78,351.23,439.78,351.23Z" style="fill:none"/></clipPath><linearGradient id="linear-gradient" x1="294.19" y1="334.37" x2="282.43" y2="116.34" gradientTransform="matrix(1, 0, 0, -1, 0, 386.7)" gradientUnits="userSpaceOnUse"><stop offset="0" stop-color="#fafbfb" stop-opacity="0"/><stop offset="1" stop-color="#78a9a8"/></linearGradient><linearGradient id="linear-gradient-2" x1="505.79" y1="299.85" x2="426.19" y2="225.41" gradientTransform="matrix(1, 0, 0, -1, 0, 386.7)" gradientUnits="userSpaceOnUse"><stop offset="0" stop-color="#335471"/><stop offset="1" stop-color="#396589"/></linearGradient><linearGradient id="linear-gradient-3" x1="120.27" y1="299.85" x2="40.67" y2="225.41" xlink:href="#linear-gradient-2"/><linearGradient id="linear-gradient-4" x1="191.41" y1="328.37" x2="144.7" y2="284.69" xlink:href="#linear-gradient-2"/></defs><title>Artboard 1</title><g id="Layer_23" data-name="Layer 23"><path d="M439.78,351.23c-39.21,0-39.21.09-78.41.09s-39.21-1.89-78.41-1.89-39.21-2.92-78.42-2.92-39.2,4.38-78.41,4.38c-26,0-50.18-24.41-50.18-52.19,0-41,6-41,6-81.92s-3.53-41-3.53-81.93,3.14-41,3.14-81.92c0-27.78,18.54-48.71,44.54-48.71C165.3,4.22,165.3,0,204.51,0s39.2,4.14,78.41,4.14,39.24-1.79,78.44-1.79S400.57,7,439.78,7C465.78,7,488,25.19,488,53c0,41,1.56,41,1.56,81.92s-2.88,41-2.88,81.93,2.19,41,2.19,81.92C488.91,326.48,465.78,351.23,439.78,351.23Z" style="fill:#3176a9"/><g style="clip-path:url(#clip-path)"><path d="M98.28,186.91c11.36-5.15,20.26-16.12,23.41-28.87,2.25-9.11,2.76-20.6,10.69-24.72,7.25-3.77,15.49,1.47,22.76,5.17,17.51,8.92,38.45,9,56.6,1.73s33.51-21.61,44-39c1.73-2.87,3.61-6.06,6.68-7,2.18-.68,4.51-.08,6.68.62a80.08,80.08,0,0,1,27.71,15.51c5.12,4.41,9.9,9.58,16,12.14,5.24,2.19,11,2.26,16.63,1.93a125.9,125.9,0,0,0,37.3-8c13.15-5,29-11.82,39.77-2.27C416,122.54,415,139,423,149c6.72,8.47,18.17,10.4,28.56,10.5s21.26-1,30.78,3.5c16,7.53,22.62,27.64,27.53,45.61,3.49,12.77,7,26,5.38,39.2-.94,7.67,7.15,82.41,4.11,89.43-23.42,54.05-82.74,27.42-137.44,39-18,3.8-36.46,4.6-54.83,4.59-82.81,0-164.9-16-245.66-35.54C71.68,343,61.6,340.35,54,333.49c-12.11-10.93-14.77-29.85-13.27-46.71,1.1-12.3,3.93-24.33,6.76-36.3,3.73-15.81,5-42.61,13.36-56.14C68.11,182.58,85.65,192.62,98.28,186.91Z" style="fill:url(#linear-gradient)"/><path d="M528.19,407.9c0-27.52-6.53-53.47-14.08-78.3-7.82-25.73-14.27-53-28.86-74.37-14.74-21.63-37.33-36.15-57.6-51.88-20-15.58-41.25-29.61-65.34-38-23.23-8.06-48-9-73.75-9S239.17,161,215.94,169.1c-24.09,8.36-46.56,18.46-66.61,34.05-20.24,15.75-41,31.76-55.76,53.39C79,278,70,303.54,62.13,329.29c-7.48,24.83-10,51.06-10,78.61s-.28,54.75,7.27,79.57c7.82,25.74,25.13,46.1,39.72,67.52,14.73,21.63,30.4,41.36,50.65,57.11,20,15.58,41.29,29,65.38,37.39,23.23,8.06,47.71,17.17,73.47,17.17s51.15-6.06,74.39-14.12c24.09-8.36,44.1-25.3,64.15-40.89A242.94,242.94,0,0,0,479.31,556c14.59-21.42,27.54-43.83,35.34-69.6C522.21,461.56,528.19,435.41,528.19,407.9Z" style="fill:#357d74"/><path d="M428.15,238.91a15.5,15.5,0,0,1-9,4.47s.27-5.84,3.81-9.76a15.41,15.41,0,0,1,9-4.47S431.65,235,428.15,238.91Z" style="fill:#5da4a0"/><path d="M415,225.81a12,12,0,0,1,2.86,6.58,10.33,10.33,0,0,1-6.25-2.78,12.08,12.08,0,0,1-2.85-6.58A10.33,10.33,0,0,1,415,225.81Z" style="fill:#5da4a0"/><path d="M253.51,193.82a15.49,15.49,0,0,1-9,4.46s.27-5.83,3.81-9.76a15.43,15.43,0,0,1,9-4.46S257.05,189.89,253.51,193.82Z" style="fill:#5da4a0"/><path d="M240.37,180.71a12.16,12.16,0,0,1,2.86,6.59,10.4,10.4,0,0,1-6.25-2.79,12,12,0,0,1-2.86-6.58A10.45,10.45,0,0,1,240.37,180.71Z" style="fill:#5da4a0"/><path d="M148.55,271.28a12,12,0,0,1,2.86,6.58,10.33,10.33,0,0,1-6.25-2.78,12.2,12.2,0,0,1-2.86-6.58A10.33,10.33,0,0,1,148.55,271.28Z" style="fill:#5da4a0"/><path d="M365.75,223.58a10.61,10.61,0,0,1-6.16,3,12,12,0,0,1,2.6-6.68,10.58,10.58,0,0,1,6.16-3.05A12,12,0,0,1,365.75,223.58Z" style="fill:#5da4a0"/><path d="M175.37,222.43a12,12,0,0,1-2.85-6.58,10.45,10.45,0,0,1,6.24,2.78,12.06,12.06,0,0,1,2.86,6.59A10.4,10.4,0,0,1,175.37,222.43Z" style="fill:#5da4a0"/><path d="M165.35,299.58c-1.58-1.23-2.71-3.58-1.87-5.39a.66.66,0,0,1,.86-.34l0,0h0a.74.74,0,0,1,.34.94c-.44,1.09.43,3,1.78,4a2,2,0,0,0,1.47.45,1.56,1.56,0,0,0,.61-.32l.1-.1.21-.28.64.14.2.67-.24.25a2.71,2.71,0,0,1-.59.47,2,2,0,0,1-.32.17,2.87,2.87,0,0,1-2.38-.15A4.58,4.58,0,0,1,165.35,299.58Z" style="fill:#5da4a0"/><path d="M169.14,297.69l.51-.45.3.12c1,.39,1.6-.34,2-1,.85-1.52.85-3.7,0-4.49a.76.76,0,0,1-.07-1,.66.66,0,0,1,.92-.15l0,0c1.5,1.26,1.41,3.94.47,5.8-.86,1.7-2.26,2.44-3.67,1.95l-.3-.07Zm3.51-6.7Z" style="fill:#5da4a0"/><path d="M170,310.35a4.57,4.57,0,0,0,4.66-.59,7.56,7.56,0,0,0,2.64-4.77,3.07,3.07,0,0,0-.08-1.62,2.11,2.11,0,0,0-1.93-1.27,3.92,3.92,0,0,0-1.94.55,16.83,16.83,0,0,0-3.55,2.41l.69.89a15.69,15.69,0,0,1,3.32-2.26,3.31,3.31,0,0,1,1.46-.44,1,1,0,0,1,1,.57,2.11,2.11,0,0,1,0,1,6.42,6.42,0,0,1-2.2,4,3.45,3.45,0,0,1-4,.25l-.6,1A5.36,5.36,0,0,0,170,310.35Z" style="fill:#5da4a0"/><path d="M169.73,308.61c.22,0,5.53-.65,7.44-4.79l-1-.51c-1.64,3.57-6.53,4.15-6.58,4.16Z" style="fill:#5da4a0"/><path d="M166.49,321a4.06,4.06,0,0,0,2.59.3,5.91,5.91,0,0,0,3.59-2.73,2.52,2.52,0,0,0,.48-1.32,2,2,0,0,0-1.12-1.76,3.32,3.32,0,0,0-1.7-.3,13.54,13.54,0,0,0-3.52.56l.3,1.11a11.85,11.85,0,0,1,3.24-.51,3,3,0,0,1,1.22.18.86.86,0,0,1,.5.7,1.55,1.55,0,0,1-.28.69,5,5,0,0,1-2.93,2.25,2.88,2.88,0,0,1-3-1.22l-.91.61A3.69,3.69,0,0,0,166.49,321Z" style="fill:#5da4a0"/><path d="M165.65,318.69c.19.06,4.5,1.53,7.32-1l-.69-.88c-2.36,2.1-6.25.79-6.29.77Z" style="fill:#5da4a0"/><path d="M162.65,321.35a3.68,3.68,0,0,0,1.16.34l.13-1.14a3.75,3.75,0,0,1-2.9-2.94,6.65,6.65,0,0,1,.77-4.6,1.72,1.72,0,0,1,.58-.73,1,1,0,0,1,1.08.23,3.75,3.75,0,0,1,.84,1.34,16.86,16.86,0,0,1,1.17,4l1.07-.19a19.45,19.45,0,0,0-1.25-4.3,4.89,4.89,0,0,0-1.15-1.76,2,2,0,0,0-2.25-.36,2.73,2.73,0,0,0-1,1.18,7.76,7.76,0,0,0-.87,5.46A5.15,5.15,0,0,0,162.65,321.35Z" style="fill:#5da4a0"/><path d="M164.43,320.35l.78-.8s-3.41-3.86-2.51-7.72l-1-.28C160.65,316.06,164.27,320.21,164.43,320.35Z" style="fill:#5da4a0"/><path d="M167,310.8a3.25,3.25,0,0,0,2.39.2l-.32-1.1a2.52,2.52,0,0,1-2.69-1,4.83,4.83,0,0,1-.76-3.33,1.23,1.23,0,0,1,.17-.62.64.64,0,0,1,.67-.14,2.5,2.5,0,0,1,.92.62,12.58,12.58,0,0,1,1.93,2.37l.89-.64a13.46,13.46,0,0,0-2.1-2.59,3.53,3.53,0,0,0-1.35-.87,1.64,1.64,0,0,0-1.8.52,2.25,2.25,0,0,0-.4,1.23,6.07,6.07,0,0,0,1,4.16A4,4,0,0,0,167,310.8Z" style="fill:#5da4a0"/><path d="M169.21,309.88l.11.05.42-1.07s-3.4-1.54-3.86-4.42l-1.06.19C165.33,307.86,168.56,309.56,169.21,309.88Z" style="fill:#5da4a0"/><path d="M169.65,297.35a7.4,7.4,0,0,0,.08-4.22,8.13,8.13,0,0,0-1.75-3.37c-.25-.29-.52-.57-.8-.84a7.67,7.67,0,0,1-1.19-1.41,4.35,4.35,0,0,1,.12-4.58l-1-.56a5.57,5.57,0,0,0-.09,5.75,9,9,0,0,0,1.37,1.64c.26.25.51.51.74.78a6.83,6.83,0,0,1,1.5,2.87,6,6,0,0,1,0,3.46Z" style="fill:#5da4a0"/><path d="M166.41,297.35a8.29,8.29,0,0,1-3.32-4,25.46,25.46,0,0,1-2.12-6.53c-.13-.74-.22-1.48-.32-2.22l-.27-2a1.23,1.23,0,0,1,0-.54,1,1,0,0,1,.67-.55,5,5,0,0,1,3.54.34,2.52,2.52,0,0,1,.44.28l.17.12v-.05a5.14,5.14,0,0,1,1.28-1.54h0a7.33,7.33,0,0,1,1.65-.9,1.41,1.41,0,0,1,1.79.71,20.38,20.38,0,0,1,1,2.24,24.35,24.35,0,0,1,1.2,4.9,12.29,12.29,0,0,1-1.24,8.16,5.21,5.21,0,0,1-1.84,1.89,2.14,2.14,0,0,1-.87.13,4.16,4.16,0,0,1-1.62-.4Zm2.18-16.46a6.47,6.47,0,0,0-1.42.76,4.72,4.72,0,0,0-1.06,1.33,1,1,0,0,1-.65.5,1.27,1.27,0,0,1-1-.34,1.81,1.81,0,0,0-.29-.19,3.91,3.91,0,0,0-2.71-.3l.25,1.83c.09.72.19,1.45.32,2.16a23.43,23.43,0,0,0,2,6.22,7.29,7.29,0,0,0,2.85,3.47,3.15,3.15,0,0,0,1.34.36,1.19,1.19,0,0,0,.46-.06,4.58,4.58,0,0,0,1.26-1.37,10.91,10.91,0,0,0,1.12-7.43,22.77,22.77,0,0,0-1.15-4.67,17.63,17.63,0,0,0-.89-2.1.46.46,0,0,0-.17-.17.33.33,0,0,0-.26,0Z" style="fill:#5da4a0"/><path d="M150.24,330.35c26.35-9.83,19.46-33.23,19.38-33.46l-1,.36c.28.92,6.62,22.56-18.72,32Z" style="fill:#5da4a0"/><path d="M397.81,306.35a3.15,3.15,0,0,1-1.54,1.94,2,2,0,0,1-.34.14,2.48,2.48,0,0,1-.72.13h-.34l-.32-.62.36-.59h.46a1.38,1.38,0,0,0,.64-.26,2.28,2.28,0,0,0,.71-1.44c.28-1.72-.44-3.72-1.48-4.13a.73.73,0,0,1-.4-.91h0a.67.67,0,0,1,.81-.47h0c1.81.6,2.61,3.09,2.36,5.16A5.35,5.35,0,0,1,397.81,306.35Zm-2.2-5.88Z" style="fill:#5da4a0"/><path d="M394.52,307.57l-.17.29a3,3,0,0,1-3.85,1.49c-1.92-.56-3.79-2.34-3.61-4.36a.69.69,0,1,1,1.38.1c0,1.2,1.43,2.71,3,3.1a1.58,1.58,0,0,0,2.06-.84l.12-.31.66-.08ZM387.19,305Z" style="fill:#5da4a0"/><path d="M402.14,316.35a4.91,4.91,0,0,1-3.61,3.19,6.53,6.53,0,0,1-5-1.24,2.83,2.83,0,0,1-1-1.17,2.38,2.38,0,0,1,.47-2.38,4.25,4.25,0,0,1,1.71-1.12,16,16,0,0,1,4.08-1.09l.13,1.15a14.45,14.45,0,0,0-3.82,1,3.57,3.57,0,0,0-1.3.83,1.17,1.17,0,0,0-.28,1.14,1.79,1.79,0,0,0,.65.66,5.63,5.63,0,0,0,4.25,1.08,3.75,3.75,0,0,0,2.92-2.92l1.06.2C402.29,315.91,402.22,316.13,402.14,316.35Z" style="fill:#5da4a0"/><path d="M401.15,314.94c-.18.16-4.26,3.83-8.39,2.45l.33-1.09c3.55,1.18,7.32-2.2,7.35-2.23Z" style="fill:#5da4a0"/><path d="M411.78,321a4.6,4.6,0,0,1-1.57,2.21,5.59,5.59,0,0,1-4.33.9,2.22,2.22,0,0,1-1.23-.54,2.08,2.08,0,0,1-.42-2.08,3.88,3.88,0,0,1,1-1.52,14.27,14.27,0,0,1,2.8-2.34l.55,1a12.71,12.71,0,0,0-2.58,2.16,3.36,3.36,0,0,0-.72,1.07.91.91,0,0,0,.12.87,1.3,1.3,0,0,0,.66.25,4.69,4.69,0,0,0,3.55-.7,3.26,3.26,0,0,0,1.27-3.2l1-.28A4,4,0,0,1,411.78,321Z" style="fill:#5da4a0"/><path d="M410.79,318.73c-.08.18-2.06,4.53-5.71,5l-.12-1.15c3.05-.37,4.84-4.29,4.86-4.33Z" style="fill:#5da4a0"/><path d="M414.65,318.24a4.68,4.68,0,0,1-.57,1.14l-.86-.69a4.1,4.1,0,0,0,0-4.27,5.86,5.86,0,0,0-3.64-2.58,1.62,1.62,0,0,0-.9,0,1.14,1.14,0,0,0-.59,1,4.1,4.1,0,0,0,.33,1.58,16.46,16.46,0,0,0,1.92,3.67l-.87.69a17.53,17.53,0,0,1-2-3.93,4.88,4.88,0,0,1-.4-2.1,2.24,2.24,0,0,1,1.3-2,2.47,2.47,0,0,1,1.52,0,7,7,0,0,1,4.3,3.09A5.5,5.5,0,0,1,414.65,318.24Z" style="fill:#5da4a0"/><path d="M412.78,319l-1.08.05c0-.05-.27-5.31-3.51-7.26l.54-1C412.49,313,412.77,318.71,412.78,319Z" style="fill:#5da4a0"/><path d="M404.52,314.35a3.57,3.57,0,0,1-1.51,2l-.53-1a2.86,2.86,0,0,0,1.15-2.8,4.69,4.69,0,0,0-1.73-2.88,1.16,1.16,0,0,0-.54-.3.67.67,0,0,0-.56.42,2.78,2.78,0,0,0-.21,1.14,13.17,13.17,0,0,0,.28,3.13l-1.06.25a15.07,15.07,0,0,1-.3-3.42,3.89,3.89,0,0,1,.34-1.64,1.68,1.68,0,0,1,1.59-1,2.06,2.06,0,0,1,1.12.53,5.86,5.86,0,0,1,2.14,3.63A4.56,4.56,0,0,1,404.52,314.35Z" style="fill:#5da4a0"/><path d="M402.36,315.41a.61.61,0,0,1-.05.12l-1-.41s1.29-3.69-.34-6l.86-.69C403.65,311,402.59,314.69,402.36,315.41Z" style="fill:#5da4a0"/><path d="M393.57,307.16a6.88,6.88,0,0,1-2.92-2.81,8.39,8.39,0,0,1-1.08-3.68v-1.2a8.07,8.07,0,0,0-.13-1.9,3.94,3.94,0,0,0-3.19-3.06l.28-1.12a5.06,5.06,0,0,1,4,3.9,9.47,9.47,0,0,1,.16,2.19v1.11a7.09,7.09,0,0,0,.91,3.14,5.48,5.48,0,0,0,2.36,2.38Z" style="fill:#5da4a0"/><path d="M395.76,304.81a4.52,4.52,0,0,1-.85,1.53,2.39,2.39,0,0,1-.68.59,4.91,4.91,0,0,1-2.55.11,10.78,10.78,0,0,1-6.39-4.66,24,24,0,0,1-2.49-4.31,18.54,18.54,0,0,1-.86-2.29,1.59,1.59,0,0,1,.75-1.87,7.69,7.69,0,0,1,1.75-.66h0a4.6,4.6,0,0,1,1.92.07h.06v-.2a2.59,2.59,0,0,1,.11-.54,5.59,5.59,0,0,1,2.21-3,.9.9,0,0,1,.84-.13,1,1,0,0,1,.39.34l1.17,1.58c.43.58.86,1.17,1.27,1.78a24.63,24.63,0,0,1,3,6.14,9.06,9.06,0,0,1,.4,5.3ZM383,295.17a.53.53,0,0,0,0,.25,20.44,20.44,0,0,0,.81,2.14,21.82,21.82,0,0,0,2.37,4.11,9.76,9.76,0,0,0,5.81,4.26,4.2,4.2,0,0,0,1.8,0,1,1,0,0,0,.35-.31,3.56,3.56,0,0,0,.68-1.29,8,8,0,0,0-.38-4.6,23.54,23.54,0,0,0-2.83-5.84c-.4-.59-.82-1.16-1.24-1.73l-1.08-1.46a4.43,4.43,0,0,0-1.66,2.3,2.29,2.29,0,0,1-.07.36,1.41,1.41,0,0,1-.45,1,1,1,0,0,1-.8.16,3.9,3.9,0,0,0-1.63-.17,6.63,6.63,0,0,0-1.5.57.41.41,0,0,0-.18.25Z" style="fill:#5da4a0"/><path d="M429.31,314.84c-24.84,13.62-35.94-7.85-36-8.07l1-.55c.42.85,10.72,20.68,34.6,7.6Z" style="fill:#5da4a0"/><path d="M211.1,201.61a3.33,3.33,0,0,1-1.1-2.26V199a2.8,2.8,0,0,1,.17-.76l.12-.34.65-.08.37.58-.15.31v.14a1.8,1.8,0,0,0,0,.73,2.13,2.13,0,0,0,1,1.24c1.38.93,3.39,1,4.14.1a.65.65,0,0,1,.92,0l0,0h0a.77.77,0,0,1,.08,1c-1.2,1.55-3.67,1.41-5.36.37A4.93,4.93,0,0,1,211.1,201.61Zm5.93,0Z" style="fill:#5da4a0"/><path d="M211.28,197.88l-.18-.26c-1-1.17-.93-2.85.17-4.38s3.46-2.86,5.14-1.91a.74.74,0,0,1,.28,1,.66.66,0,0,1-.85.36l0,0c-1-.5-2.89.4-3.84,1.84a1.83,1.83,0,0,0,0,2.35l.22.24-.18.68Z" style="fill:#5da4a0"/><path d="M200.84,202.12a5.36,5.36,0,0,1-1.4-4.78,7.38,7.38,0,0,1,3-4.52,2.55,2.55,0,0,1,1.41-.6,2.13,2.13,0,0,1,1.88,1.37,4.89,4.89,0,0,1,.32,2.11,18.56,18.56,0,0,1-.6,4.45l-1-.31a17.73,17.73,0,0,0,.56-4.16,3.79,3.79,0,0,0-.22-1.6,1.05,1.05,0,0,0-.87-.7,1.71,1.71,0,0,0-.83.38,6.37,6.37,0,0,0-2.54,3.8,4,4,0,0,0,1.42,4l-.57,1A4,4,0,0,1,200.84,202.12Z" style="fill:#5da4a0"/><path d="M202.39,201.65c-.07-.23-1.71-5.66,1-9.22l.83.74c-2.37,3.06-.87,8.07-.86,8.12Z" style="fill:#5da4a0"/><path d="M193.12,209.88a4.68,4.68,0,0,1-1.32-2.4,6.62,6.62,0,0,1,.86-4.62,2.42,2.42,0,0,1,.93-1,1.76,1.76,0,0,1,2,.38,3.84,3.84,0,0,1,1,1.54,15.93,15.93,0,0,1,1,3.65l-1.07.17a14.44,14.44,0,0,0-.89-3.37,3.69,3.69,0,0,0-.65-1.12.78.78,0,0,0-.81-.2,1.36,1.36,0,0,0-.46.55,5.5,5.5,0,0,0-.73,3.78,3.05,3.05,0,0,0,2.28,2.46l-.15,1.14A3.49,3.49,0,0,1,193.12,209.88Z" style="fill:#5da4a0"/><path d="M195.45,209.75c-.12-.15-3.14-3.76-2.15-7.53l1,.31c-.83,3.16,1.89,6.41,1.92,6.45Z" style="fill:#5da4a0"/><path d="M194.43,213.71a3.93,3.93,0,0,1-.77-1l.93-.59a3.53,3.53,0,0,0,3.69,1.62,5.88,5.88,0,0,0,3.62-2.63,1.85,1.85,0,0,0,.38-.87,1.11,1.11,0,0,0-.63-.89,3.37,3.37,0,0,0-1.5-.28,14.26,14.26,0,0,0-3.9.51l-.27-1.12a15.52,15.52,0,0,1,4.18-.54,4.17,4.17,0,0,1,2,.4,2.22,2.22,0,0,1,1.23,2,2.9,2.9,0,0,1-.59,1.49,6.87,6.87,0,0,1-4.3,3.08A4.67,4.67,0,0,1,194.43,213.71Z" style="fill:#5da4a0"/><path d="M194.51,211.63l.36-1.09s4.7,1.75,7.62-.71l.67.9C199.76,213.59,194.72,211.71,194.51,211.63Z" style="fill:#5da4a0"/><path d="M201.65,205.22A3.64,3.64,0,0,1,200.5,203l1.07-.14a2.7,2.7,0,0,0,2,2.2,4.08,4.08,0,0,0,3.15-.62,1.42,1.42,0,0,0,.46-.42.74.74,0,0,0-.15-.71,2.43,2.43,0,0,0-.91-.64,11.13,11.13,0,0,0-2.81-.91l.17-1.14a11.94,11.94,0,0,1,3.08,1,3.5,3.5,0,0,1,1.3.95,1.94,1.94,0,0,1,.29,2,2.23,2.23,0,0,1-.89.91,5.05,5.05,0,0,1-4,.74A3.81,3.81,0,0,1,201.65,205.22Z" style="fill:#5da4a0"/><path d="M201.52,202.67l-.09-.09.75-.84s2.7,2.68,5.35,1.95l.27,1.12C204.83,205.63,202.06,203.17,201.52,202.67Z" style="fill:#5da4a0"/><path d="M212,197.1a6.37,6.37,0,0,1,3.57-1.8,7,7,0,0,1,3.6.32c.35.13.7.28,1.05.44a6.65,6.65,0,0,0,1.69.59,3.81,3.81,0,0,0,3.86-2l.87.69a4.87,4.87,0,0,1-4.89,2.44,7.85,7.85,0,0,1-2-.67,9.06,9.06,0,0,0-1-.4,6.05,6.05,0,0,0-3.07-.29,5.25,5.25,0,0,0-3,1.43Z" style="fill:#5da4a0"/><path d="M213.2,200.16a4.69,4.69,0,0,1-1-1.42,2.57,2.57,0,0,1-.25-.9,5.71,5.71,0,0,1,.87-2.56,10.82,10.82,0,0,1,6.46-4.56,20.06,20.06,0,0,1,4.67-.82,14.85,14.85,0,0,1,2.31,0,1.5,1.5,0,0,1,1.39,1.45,8.92,8.92,0,0,1-.1,2h0a5.2,5.2,0,0,1-.79,1.88v.05l.17.12a2.53,2.53,0,0,1,.42.31,5.79,5.79,0,0,1,1.74,3.31,1.1,1.1,0,0,1-.2.88,1,1,0,0,1-.44.26l-1.81.56c-.67.2-1.35.41-2,.58a20.83,20.83,0,0,1-6.44.61,7.53,7.53,0,0,1-4.74-1.61Zm13.2-9a.41.41,0,0,0-.21-.1,15.57,15.57,0,0,0-2.16,0,18.79,18.79,0,0,0-4.46.78,9.71,9.71,0,0,0-5.89,4.14,5,5,0,0,0-.65,1.79,1.34,1.34,0,0,0,.14.47,3.48,3.48,0,0,0,.85,1.16,6.69,6.69,0,0,0,4.13,1.36,20.15,20.15,0,0,0,6.14-.58c.66-.17,1.31-.37,2-.57l1.67-.51a4.49,4.49,0,0,0-1.37-2.52,1.79,1.79,0,0,0-.28-.2,1.39,1.39,0,0,1-.7-.84,1.19,1.19,0,0,1,.17-.84,4.59,4.59,0,0,0,.69-1.57,7.43,7.43,0,0,0,.08-1.7A.41.41,0,0,0,226.4,191.16Z" style="fill:#5da4a0"/><path d="M191.8,229.54C189.42,199.82,212.22,197,212.45,197l.12,1.15c-.9.1-22,2.77-19.69,31.34Z" style="fill:#5da4a0"/><path d="M298.8,198.7a2.87,2.87,0,0,1,2.38-.16l.33.16a3.29,3.29,0,0,1,.59.47l.24.25-.19.67-.65.14-.21-.27a.47.47,0,0,0-.1-.1,1.56,1.56,0,0,0-.61-.32,2.07,2.07,0,0,0-1.47.47c-1.34,1-2.19,2.92-1.75,4a.76.76,0,0,1-.33.94h0a.65.65,0,0,1-.87-.29l0,0c-.85-1.79.27-4.15,1.84-5.39A4.47,4.47,0,0,1,298.8,198.7Zm-2.42,5.78Z" style="fill:#5da4a0"/><path d="M301.92,200.35l.31-.07c1.4-.5,2.81.23,3.68,1.92,1,1.86,1.06,4.54-.43,5.8a.65.65,0,0,1-.92,0,.39.39,0,0,1-.08-.1.76.76,0,0,1,.06-1c.84-.79.83-3,0-4.49-.38-.67-1-1.39-2-1l-.3.11-.51-.44Z" style="fill:#5da4a0"/><path d="M302.5,188.46a4.53,4.53,0,0,1,4.65.56,7.49,7.49,0,0,1,2.68,4.74,3,3,0,0,1-.06,1.62,2.16,2.16,0,0,1-1.93,1.29,4.13,4.13,0,0,1-1.94-.54,16.83,16.83,0,0,1-3.57-2.38l.68-.89a14.94,14.94,0,0,0,3.34,2.22,3.14,3.14,0,0,0,1.46.43,1,1,0,0,0,1-.57,2.11,2.11,0,0,0,0-1,6.44,6.44,0,0,0-2.24-4,3.43,3.43,0,0,0-4-.21l-.61-1A4.53,4.53,0,0,1,302.5,188.46Z" style="fill:#5da4a0"/><path d="M302.28,190.16c.22,0,5.53.61,7.47,4.74l-1,.52c-1.66-3.56-6.56-4.1-6.61-4.11Z" style="fill:#5da4a0"/><path d="M299,177.79a4.06,4.06,0,0,1,2.59-.33,5.93,5.93,0,0,1,3.61,2.7,2.59,2.59,0,0,1,.49,1.32,2,2,0,0,1-1.11,1.77,3.33,3.33,0,0,1-1.7.31,13.1,13.1,0,0,1-3.52-.53l.29-1.11a12.22,12.22,0,0,0,3.24.49,3.16,3.16,0,0,0,1.22-.2.86.86,0,0,0,.5-.7,1.53,1.53,0,0,0-.29-.68,4.86,4.86,0,0,0-2.94-2.23,2.87,2.87,0,0,0-3,1.24l-.92-.61A3.69,3.69,0,0,1,299,177.79Z" style="fill:#5da4a0"/><path d="M298.12,180.12c.18-.06,4.48-1.56,7.32.93l-.68.89c-2.38-2.08-6.26-.74-6.3-.72Z" style="fill:#5da4a0"/><path d="M295.14,177.53a3.91,3.91,0,0,1,1.16-.36l.13,1.15a3.73,3.73,0,0,0-2.87,3,6.57,6.57,0,0,0,.79,4.59,1.82,1.82,0,0,0,.59.73,1,1,0,0,0,1.08-.24,3.88,3.88,0,0,0,.84-1.35,18.63,18.63,0,0,0,1.14-4l1.06.19a18.36,18.36,0,0,1-1.22,4.3,4.69,4.69,0,0,1-1.14,1.77,2,2,0,0,1-2.24.38,2.62,2.62,0,0,1-1-1.18,7.86,7.86,0,0,1-.91-5.45A5.18,5.18,0,0,1,295.14,177.53Z" style="fill:#5da4a0"/><path d="M296.89,178.44l.79.79s-3.39,3.89-2.45,7.74l-1.05.29C293.1,182.79,296.74,178.61,296.89,178.44Z" style="fill:#5da4a0"/><path d="M299.51,188a3.2,3.2,0,0,1,2.39-.22l-.31,1.11A2.52,2.52,0,0,0,298.9,190a4.86,4.86,0,0,0-.73,3.34,1.23,1.23,0,0,0,.17.62.64.64,0,0,0,.67.14,2.47,2.47,0,0,0,.92-.64,11.81,11.81,0,0,0,1.91-2.38l.9.63a13.46,13.46,0,0,1-2.09,2.61,3.46,3.46,0,0,1-1.34.89,1.68,1.68,0,0,1-1.8-.51,2.45,2.45,0,0,1-.42-1.23,6.08,6.08,0,0,1,1-4.17A4,4,0,0,1,299.51,188Z" style="fill:#5da4a0"/><path d="M301.75,188.91l.11,0,.42,1.06s-3.38,1.57-3.82,4.45l-1.07-.19C297.88,191,301.1,189.23,301.75,188.91Z" style="fill:#5da4a0"/><path d="M302.3,201.35a7.52,7.52,0,0,1,.11,4.23,8.17,8.17,0,0,1-1.72,3.38c-.25.3-.53.57-.8.85a7.3,7.3,0,0,0-1.18,1.42,4.37,4.37,0,0,0,.15,4.58l-.94.57a5.57,5.57,0,0,1-.13-5.76,8.24,8.24,0,0,1,1.36-1.64c.25-.26.5-.52.73-.79a7,7,0,0,0,1.48-2.88,6,6,0,0,0,0-3.47Z" style="fill:#5da4a0"/><path d="M299.2,201.35a4.35,4.35,0,0,1,1.62-.41,2.16,2.16,0,0,1,.87.12,5.29,5.29,0,0,1,1.85,1.88,12.21,12.21,0,0,1,1.3,8.15,24.29,24.29,0,0,1-1.17,4.9,18.62,18.62,0,0,1-.95,2.26,1.41,1.41,0,0,1-1.78.72,7.72,7.72,0,0,1-1.65-.89h0a5,5,0,0,1-1.29-1.53h0l-.16.11a3,3,0,0,1-.44.29,5,5,0,0,1-3.54.37,1,1,0,0,1-.67-.55,1,1,0,0,1,0-.54l.25-2c.09-.73.18-1.48.31-2.21a25.11,25.11,0,0,1,2.07-6.55,8.38,8.38,0,0,1,3.29-4Zm2.4,16.53a.35.35,0,0,0,.17-.17,17.71,17.71,0,0,0,.88-2.11,22.08,22.08,0,0,0,1.12-4.67,11,11,0,0,0-1.17-7.42,4.49,4.49,0,0,0-1.28-1.36,1.14,1.14,0,0,0-.45-.06,3.32,3.32,0,0,0-1.34.37,7.48,7.48,0,0,0-2.83,3.5,24,24,0,0,0-2,6.23c-.12.71-.21,1.44-.3,2.16l-.23,1.84a3.89,3.89,0,0,0,2.7-.33,1.81,1.81,0,0,0,.29-.19,1.24,1.24,0,0,1,1-.35,1,1,0,0,1,.65.5,4.37,4.37,0,0,0,1.07,1.31,6,6,0,0,0,1.43.76.32.32,0,0,0,.34,0Z" style="fill:#5da4a0"/><path d="M282.65,168.59c26.43,9.63,19.69,33.08,19.62,33.31l-1-.35c.28-.92,6.47-22.61-18.93-31.87Z" style="fill:#5da4a0"/><path d="M382.48,203.46a3.29,3.29,0,0,1,1-2.29,2.09,2.09,0,0,1,.29-.23,3.18,3.18,0,0,1,.67-.32l.32-.1.46.51-.21.67-.32.06h-.13a1.45,1.45,0,0,0-.56.42,2.34,2.34,0,0,0-.34,1.59c.14,1.73,1.31,3.48,2.41,3.59a.7.7,0,0,1,.61.77h0a.68.68,0,0,1-.7.67c-1.89-.08-3.26-2.28-3.51-4.35A5.46,5.46,0,0,1,382.48,203.46Zm3.53,5.09Z" style="fill:#5da4a0"/><path d="M385.37,201.35l.09-.32a3.1,3.1,0,0,1,3.37-2.49c2,0,4.22,1.23,4.53,3.24a.72.72,0,0,1-.56.82.69.69,0,0,1-.8-.55c-.23-1.17-2-2.23-3.68-2.17a1.64,1.64,0,0,0-1.79,1.37v.33l-.62.26Zm7.69.46Z" style="fill:#5da4a0"/><path d="M375.92,195a5.14,5.14,0,0,1,2.73-4.07,6.53,6.53,0,0,1,5.18-.17,2.51,2.51,0,0,1,1.29.85,2.39,2.39,0,0,1,.11,2.42,4.47,4.47,0,0,1-1.38,1.55,16.08,16.08,0,0,1-3.69,2.16l-.4-1.07a14.85,14.85,0,0,0,3.45-2,3.57,3.57,0,0,0,1.07-1.15,1.24,1.24,0,0,0,0-1.18,1.76,1.76,0,0,0-.79-.46,5.57,5.57,0,0,0-4.37.11,3.92,3.92,0,0,0-2.12,3.61l-1.08.11A4.21,4.21,0,0,1,375.92,195Z" style="fill:#5da4a0"/><path d="M377.2,196.05c.13-.2,3.21-4.86,7.52-4.65l-.07,1.15c-3.71-.18-6.55,4.12-6.58,4.16Z" style="fill:#5da4a0"/><path d="M365.48,193.1a4.65,4.65,0,0,1,1-2.57,5.82,5.82,0,0,1,4-2.05,2.19,2.19,0,0,1,1.31.19,2,2,0,0,1,.9,1.9,4,4,0,0,1-.58,1.74,14.8,14.8,0,0,1-2.15,3l-.77-.81a13.79,13.79,0,0,0,2-2.79,3.61,3.61,0,0,0,.43-1.23.89.89,0,0,0-.33-.81,1.17,1.17,0,0,0-.69-.06,4.71,4.71,0,0,0-3.26,1.65,3.31,3.31,0,0,0-.47,3.43l-.94.56A4,4,0,0,1,365.48,193.1Z" style="fill:#5da4a0"/><path d="M367,195c0-.2.92-4.94,4.34-6.37l.39,1.08c-2.86,1.19-3.66,5.47-3.66,5.51Z" style="fill:#5da4a0"/><path d="M363.4,196.52a4.12,4.12,0,0,1,.28-1.25l1,.43a4.07,4.07,0,0,0,1,4.13,5.65,5.65,0,0,0,4.14,1.51,1.59,1.59,0,0,0,.88-.2A1.19,1.19,0,0,0,371,200a3.94,3.94,0,0,0-.7-1.44,16.15,16.15,0,0,0-2.72-3l.67-.9a17.33,17.33,0,0,1,2.92,3.25,4.7,4.7,0,0,1,.89,1.92,2.29,2.29,0,0,1-.78,2.27,2.58,2.58,0,0,1-1.48.4,6.61,6.61,0,0,1-4.89-1.82A5.41,5.41,0,0,1,363.4,196.52Z" style="fill:#5da4a0"/><path d="M365,195.35l1-.34c0,.05,1.52,5.06,5.12,6.07l-.28,1.12C366.7,201,365.07,195.57,365,195.35Z" style="fill:#5da4a0"/><path d="M374.09,197.57a3.71,3.71,0,0,1,1-2.33l.74.83a2.94,2.94,0,0,0-.44,3,4.45,4.45,0,0,0,2.37,2.32,1.1,1.1,0,0,0,.59.14.72.72,0,0,0,.44-.56,2.84,2.84,0,0,0-.07-1.16,13.22,13.22,0,0,0-1-3l1-.53a14.18,14.18,0,0,1,1.11,3.23,4,4,0,0,1,.07,1.68,1.79,1.79,0,0,1-1.3,1.42,1.93,1.93,0,0,1-1.2-.21,5.49,5.49,0,0,1-2.94-2.92A4.32,4.32,0,0,1,374.09,197.57Z" style="fill:#5da4a0"/><path d="M375.92,195.93v-.13l1.07.13s-.37,3.92,1.77,5.74l-.67.9C375.7,200.53,375.86,196.69,375.92,195.93Z" style="fill:#5da4a0"/><path d="M386.39,201.52a6.49,6.49,0,0,1,3.5,2,8,8,0,0,1,1.91,3.26c.12.38.22.77.31,1.16a8.22,8.22,0,0,0,.58,1.8,3.81,3.81,0,0,0,3.81,2.1V213a4.85,4.85,0,0,1-4.76-2.69,8.94,8.94,0,0,1-.67-2.07c-.09-.37-.18-.73-.29-1.08a6.83,6.83,0,0,0-1.63-2.8,5.17,5.17,0,0,0-2.84-1.66Z" style="fill:#5da4a0"/><path d="M384.83,204.35a5.09,5.09,0,0,1,.45-1.71,2.8,2.8,0,0,1,.52-.75,4.85,4.85,0,0,1,2.44-.8,10.3,10.3,0,0,1,7.29,2.77,21.78,21.78,0,0,1,3.43,3.49,16.15,16.15,0,0,1,1.38,2,1.61,1.61,0,0,1-.28,2,7.56,7.56,0,0,1-1.53,1.11h0a4.57,4.57,0,0,1-1.88.46h-.06a.67.67,0,0,0,0,.2,5,5,0,0,1,0,.55,5.92,5.92,0,0,1-1.42,3.49.82.82,0,0,1-1.14.21.39.39,0,0,1-.1-.08l-1.51-1.21c-.55-.45-1.11-.9-1.65-1.37a23.4,23.4,0,0,1-4.33-5.13,8.8,8.8,0,0,1-1.65-5A1.85,1.85,0,0,1,384.83,204.35Zm14.66,5.85a.4.4,0,0,0-.05-.24,18,18,0,0,0-1.29-1.85,20.6,20.6,0,0,0-3.27-3.33,9.36,9.36,0,0,0-6.63-2.54,4.44,4.44,0,0,0-1.74.52,1.53,1.53,0,0,0-.26.4,3.73,3.73,0,0,0-.36,1.43,7.91,7.91,0,0,0,1.47,4.35,22.7,22.7,0,0,0,4.13,4.88c.52.46,1.07.9,1.61,1.34l1.39,1.11a4.59,4.59,0,0,0,1.06-2.67,2.29,2.29,0,0,0,0-.37,1.47,1.47,0,0,1,.2-1.1,1,1,0,0,1,.73-.36,3.8,3.8,0,0,0,1.59-.35,6.75,6.75,0,0,0,1.32-1,.35.35,0,0,0,.1-.19Z" style="fill:#5da4a0"/><path d="M350,203.81c20.78-19.92,36.63-2.18,36.78-2l-.79.78c-.61-.71-15.3-17.08-35.27,2.07Z" style="fill:#5da4a0"/><path d="M366.23,324.27a3.44,3.44,0,0,1,.23-2.54,3.28,3.28,0,0,1,.2-.31,3.06,3.06,0,0,1,.53-.55l.27-.21.59.31v.7l-.28.18a.31.31,0,0,0-.11.09,1.49,1.49,0,0,0-.39.6,2.42,2.42,0,0,0,.19,1.61c.69,1.58,2.35,2.79,3.42,2.49a.66.66,0,0,1,.8.48v0h0a.74.74,0,0,1-.44.89c-1.8.61-3.8-1-4.69-2.81A5.44,5.44,0,0,1,366.23,324.27Z" style="fill:#5da4a0"/><path d="M368.28,321.25v-.33a3.29,3.29,0,0,1,2.37-3.57c1.87-.71,4.36-.38,5.29,1.39a.75.75,0,0,1-.26,1,.66.66,0,0,1-.9-.19l0,0c-.6-1-2.62-1.35-4.16-.68a1.72,1.72,0,0,0-1.24,1.94l.06.32-.49.47Zm7.37-2.38Z" style="fill:#5da4a0"/><path d="M357.36,318.73a5.4,5.4,0,0,1,1.26-4.82,6.71,6.71,0,0,1,4.81-2.06,2.5,2.5,0,0,1,1.49.33,2.34,2.34,0,0,1,.88,2.23,4.73,4.73,0,0,1-.81,2,17.64,17.64,0,0,1-2.77,3.38l-.71-.87a16.4,16.4,0,0,0,2.59-3.16,3.77,3.77,0,0,0,.63-1.47,1.14,1.14,0,0,0-.38-1.1,1.51,1.51,0,0,0-.89-.16,5.73,5.73,0,0,0-4.06,1.71,4.06,4.06,0,0,0-.84,4.17l-1,.49A5.16,5.16,0,0,1,357.36,318.73Z" style="fill:#5da4a0"/><path d="M358.9,319.24c.06-.24,1.45-5.75,5.58-7.12l.32,1.1c-3.55,1.18-4.84,6.26-4.86,6.31Z" style="fill:#5da4a0"/><path d="M346.93,320.75a4.88,4.88,0,0,1,.12-2.78,6.18,6.18,0,0,1,3.07-3.37,2.13,2.13,0,0,1,1.3-.3,1.89,1.89,0,0,1,1.46,1.45,4.39,4.39,0,0,1,0,1.84,15.28,15.28,0,0,1-1.06,3.63l-1-.48a14.44,14.44,0,0,0,1-3.34,3.66,3.66,0,0,0,0-1.32.84.84,0,0,0-.57-.64,1.34,1.34,0,0,0-.68.19,5.1,5.1,0,0,0-2.53,2.74,3.33,3.33,0,0,0,.66,3.4l-.7.87A3.85,3.85,0,0,1,346.93,320.75Z" style="fill:#5da4a0"/><path d="M349,322c0-.2-.73-5,2-7.57l.71.87c-2.31,2.17-1.69,6.48-1.68,6.52Z" style="fill:#5da4a0"/><path d="M346.08,324.73a4.27,4.27,0,0,1-.14-1.28H347a3.9,3.9,0,0,0,2.27,3.51,5.53,5.53,0,0,0,4.37-.1,1.81,1.81,0,0,0,.77-.5,1.24,1.24,0,0,0,0-1.18,3.56,3.56,0,0,0-1.12-1.1,14.83,14.83,0,0,0-3.53-1.84l.35-1.1a16.49,16.49,0,0,1,3.78,2,4.56,4.56,0,0,1,1.45,1.48,2.36,2.36,0,0,1,0,2.43,2.6,2.6,0,0,1-1.25.91,6.52,6.52,0,0,1-5.18.08A5.07,5.07,0,0,1,346.08,324.73Z" style="fill:#5da4a0"/><path d="M347.2,323l.86-.7s3.05,4.19,6.76,3.83l.09,1.15C350.65,327.73,347.34,323.22,347.2,323Z" style="fill:#5da4a0"/><path d="M356.46,321.8a3.85,3.85,0,0,1,.18-2.55l1,.51a2.92,2.92,0,0,0,.55,3,4.24,4.24,0,0,0,3,1.31,1.13,1.13,0,0,0,.6-.08.78.78,0,0,0,.23-.69,2.75,2.75,0,0,0-.44-1.06,12.19,12.19,0,0,0-1.89-2.4l.73-.85a12.78,12.78,0,0,1,2.07,2.62,3.82,3.82,0,0,1,.6,1.56,1.84,1.84,0,0,1-.76,1.81,2,2,0,0,1-1.2.24,5.14,5.14,0,0,1-3.69-1.67A4.05,4.05,0,0,1,356.46,321.8Z" style="fill:#5da4a0"/><path d="M357.65,319.59a.29.29,0,0,0,0-.13l1-.27s.91,3.82,3.5,4.75l-.34,1.09C358.92,324,357.84,320.35,357.65,319.59Z" style="fill:#5da4a0"/><path d="M369.28,321a6.12,6.12,0,0,1,3.92.57,7.39,7.39,0,0,1,2.84,2.36,9.11,9.11,0,0,1,.66,1,7.68,7.68,0,0,0,1.12,1.48,3.67,3.67,0,0,0,4.26.58l.37,1.08a4.68,4.68,0,0,1-5.34-.79,8.61,8.61,0,0,1-1.3-1.7c-.19-.3-.39-.61-.61-.9a6.34,6.34,0,0,0-2.42-2,5,5,0,0,0-3.21-.52Z" style="fill:#5da4a0"/><path d="M368.73,324.28a5.32,5.32,0,0,1-.12-1.78,2.33,2.33,0,0,1,.25-.89,4.93,4.93,0,0,1,2-1.65,10.17,10.17,0,0,1,7.74-.07,21.07,21.07,0,0,1,4.34,2,16.45,16.45,0,0,1,1.94,1.36,1.62,1.62,0,0,1,.38,2,8.69,8.69,0,0,1-1.09,1.6h0a4.91,4.91,0,0,1-1.62,1.12h0c0,.06.06.13.08.19a4.29,4.29,0,0,1,.19.5,6,6,0,0,1-.22,3.8,1,1,0,0,1-.62.62.85.85,0,0,1-.5,0l-1.8-.59c-.67-.22-1.34-.43-2-.68a22.16,22.16,0,0,1-5.72-3.24,8.35,8.35,0,0,1-3.15-4.11Zm15.66.12a.41.41,0,0,0-.14-.2,13.28,13.28,0,0,0-1.8-1.27,18.79,18.79,0,0,0-4.14-1.93,9,9,0,0,0-7,0,4.63,4.63,0,0,0-1.47,1.13,1.91,1.91,0,0,0-.12.47,3.85,3.85,0,0,0,.13,1.47,7.51,7.51,0,0,0,2.77,3.54,21,21,0,0,0,5.44,3.08c.64.24,1.3.46,2,.67l1.66.54a4.72,4.72,0,0,0,.14-2.9,3.45,3.45,0,0,0-.14-.34,1.51,1.51,0,0,1-.16-1.1,1,1,0,0,1,.57-.61,4,4,0,0,0,1.38-.92,6.43,6.43,0,0,0,.93-1.38A.43.43,0,0,0,384.39,324.4Z" style="fill:#5da4a0"/><path d="M335.81,336.48C349,310.16,369.53,321,369.74,321.15l-.49,1c-.81-.44-19.85-10.45-32.49,14.85Z" style="fill:#5da4a0"/><ellipse cx="191.22" cy="318.65" rx="3.42" ry="3.66" style="fill:#e5af34"/><ellipse cx="128.48" cy="255.39" rx="3.42" ry="3.66" style="fill:#e5af34"/><ellipse cx="329.23" cy="184.88" rx="3.42" ry="3.66" style="fill:#e5af34"/><ellipse cx="449.71" cy="242.72" rx="3.42" ry="3.66" style="fill:#e5af34"/><ellipse cx="285.32" cy="329.73" rx="3.42" ry="3.66" style="fill:#e5af34"/><ellipse cx="309.64" cy="328.5" rx="1.42" ry="1.51" style="fill:#e5af34"/><ellipse cx="279.07" cy="189.66" rx="1.42" ry="1.51" style="fill:#e5af34"/><ellipse cx="214.78" cy="327.1" rx="1.42" ry="1.51" style="fill:#e5af34"/><ellipse cx="202.76" cy="237.59" rx="1.42" ry="1.51" style="fill:#e5af34"/></g><path d="M231.17,222.91a69.57,69.57,0,0,1-4.06,43.38,9.46,9.46,0,0,0-1.07,3.63c0,3.92,5.14,6,8.9,4.81s6.62-4.16,10-6.15c6.18-3.66,13.75-3.78,20.93-3.66q11.37.19,22.73.84" style="fill:none"/><path d="M161.14,265.63c-1.73-3.46-5.56-5.23-9.11-6.75a6,6,0,0,0-3.29-.72c-1.12.19-2.16,1.31-1.82,2.4a3,3,0,0,0,1.16,1.35l15.29,11.89a8.73,8.73,0,0,0-2.79-8.6" style="fill:none"/><path d="M308.65,308.94a4.26,4.26,0,0,0,.06,1.88c.6,1.76,3,2,4.81,1.92a102.1,102.1,0,0,0,10.31-1.1c1.91-.3,3.94-.74,5.24-2.16.41-.45.82-1,1.42-1a1.71,1.71,0,0,1,1,.43c2.21,1.66,4,4.07,6.67,4.8a2.19,2.19,0,0,0,2-.24,2.74,2.74,0,0,0,.55-2.37c-.65-7.52.1-20.54-10.51-15.8-3.75,1.67-6.9,4.29-10.89,5.51C313.73,302.48,309.54,301.9,308.65,308.94Z" style="fill:#9ea751"/><path d="M160.37,257.46c4.65,2.29,9.83,4.08,13.11,8.09,3,3.68,4.19,9,8.23,11.47,2.35,1.47,5.25,1.68,8,1.85L208.34,280a2.21,2.21,0,0,0,1.34-.19c.7-.44.7-1.45.55-2.26a22.65,22.65,0,0,0-5-9.9,40.29,40.29,0,0,0-20.58-13.45c-4.17-1.13-8.66-1.65-12.2-4.13-3.73-2.6-5.84-7-9.42-9.78a14.5,14.5,0,0,0-14-2C141.07,241.53,157.07,255.83,160.37,257.46Z" style="fill:#9ea751"/><path d="M219.49,296.79c7.59-.25,15.19-1.18,22.76-.57,11.44.94,22.43,5.4,33.91,5.8,7.52.26,15.14-1.22,22.53.23a19.82,19.82,0,0,1-4.06,6.2c-3.59,3.3-9,3.51-13.83,3.59q-24,.4-47.92,2.29c-5.87.46-11.81,1-17.6-.05s-11-3.53-16.08-6.4a27,27,0,0,1-7.8-6A5.38,5.38,0,0,1,190,299c-.35-5.42,7.5-5.09,10.79-4.2A62.28,62.28,0,0,0,219.49,296.79Z" style="fill:#9ea751"/><path d="M224.11,252.84c3.15,7.42,5.58,15.6,11.63,20.93,5,4.39,11.81,6.18,18.44,6.26s13.17-1.42,19.64-2.91c2.12-.49,4.53-1.19,5.46-3.17s0-4.13-.69-6.13a33,33,0,0,1,9-34.69c-1.22-1.42-3.29-1.65-5.08-2.2s-3.71-2-3.34-3.87c.49-2.36,3.84-2.39,5.85-3.72,0-3.23-4-4.54-7.05-5.66A21.77,21.77,0,0,1,266,206.88c-4.61,1.74-5.09,8.16-8.5,11.73-2.08,2.16-5.11,3.11-8.07,3.62-10.21,1.74-21-.79-30.91,2.23-6.6,2-11.13,7.31-5.93,13.11C217.19,242.71,221.29,246.2,224.11,252.84Z" style="fill:#9ea751"/><path d="M235.94,240.64a11.55,11.55,0,0,1-6.48,3,11.34,11.34,0,0,1,2.74-6.57,11.5,11.5,0,0,1,6.47-3A11.33,11.33,0,0,1,235.94,240.64Z" style="fill:#e5af34"/><path d="M258.93,267.83a11.49,11.49,0,0,1-3-6.48,11.27,11.27,0,0,1,6.57,2.74,11.55,11.55,0,0,1,3,6.48A11.4,11.4,0,0,1,258.93,267.83Z" style="fill:#e5af34"/><path d="M227.26,232.79a7.84,7.84,0,0,1,2,4.43,6.7,6.7,0,0,1-6.54-6.3A7.7,7.7,0,0,1,227.26,232.79Z" style="fill:#e5af34"/><path d="M268.41,259.9A7.86,7.86,0,0,1,264,262a7.71,7.71,0,0,1,1.87-4.49,7.86,7.86,0,0,1,4.43-2.06A7.71,7.71,0,0,1,268.41,259.9Z" style="fill:#e5af34"/><path d="M185.8,266.19a11.39,11.39,0,0,1-3-6.48,9.85,9.85,0,0,1,9.58,9.22A11.3,11.3,0,0,1,185.8,266.19Z" style="fill:#e5af34"/><path d="M195.28,260.4a7.85,7.85,0,0,1-4.43,2.05,7.71,7.71,0,0,1,1.87-4.49,7.89,7.89,0,0,1,4.44-2.06A7.82,7.82,0,0,1,195.28,260.4Z" style="fill:#e5af34"/><path d="M219.43,307.72a11.49,11.49,0,0,1-3-6.48A11.27,11.27,0,0,1,223,304a11.5,11.5,0,0,1,3,6.47A11.33,11.33,0,0,1,219.43,307.72Z" style="fill:#e5af34"/><path d="M228.91,299.79a7.86,7.86,0,0,1-4.43,2.06,6.71,6.71,0,0,1,6.3-6.55A7.78,7.78,0,0,1,228.91,299.79Z" style="fill:#e5af34"/><path d="M268.41,236.55a7.85,7.85,0,0,1-4.43,2,7.78,7.78,0,0,1,1.87-4.49,7.86,7.86,0,0,1,4.43-2.06A7.74,7.74,0,0,1,268.41,236.55Z" style="fill:#e5af34"/><path d="M190.85,254.63a6.06,6.06,0,0,1-1.43,3.49,5.19,5.19,0,0,1,.14-7A6,6,0,0,1,190.85,254.63Z" style="fill:#e5af34"/><path d="M232.15,228.57a6.13,6.13,0,0,1-1.43,3.48,6,6,0,0,1-1.3-3.52,6.13,6.13,0,0,1,1.43-3.48A6,6,0,0,1,232.15,228.57Z" style="fill:#e5af34"/><path d="M262.4,256.23a6,6,0,0,1-1.43,3.48,6,6,0,0,1-1.29-3.52,6.13,6.13,0,0,1,1.43-3.48A6,6,0,0,1,262.4,256.23Z" style="fill:#e5af34"/><path d="M319.76,302.86a6,6,0,0,1-.1,3.76A5.18,5.18,0,0,1,317.3,300,6.05,6.05,0,0,1,319.76,302.86Z" style="fill:#e5af34"/><path d="M224.13,296.35a6.13,6.13,0,0,1-1.43,3.48,5.17,5.17,0,0,1,.13-7A6,6,0,0,1,224.13,296.35Z" style="fill:#e5af34"/><path d="M254.23,306.72a7.86,7.86,0,0,1-4.43,2.06,7.74,7.74,0,0,1,1.87-4.5,7.85,7.85,0,0,1,4.43-2A7.78,7.78,0,0,1,254.23,306.72Z" style="fill:#e5af34"/><path d="M326,306.72a7.86,7.86,0,0,1-4.43,2.06,6.74,6.74,0,0,1,6.31-6.55A7.79,7.79,0,0,1,326,306.72Z" style="fill:#e5af34"/><path d="M325.24,229.14c-6,3.45-13.77,2.89-19.58,6.67-7.58,4.92-9.18,15.19-9.49,24.22-.18,5.32-.15,10.77,1.65,15.78s5.7,9.56,10.88,10.8c3.64.86,8.17-.5,9.38-4,2.39-7-9.67-12.63-7.8-19.81,1.28-4.89,8.48-5.72,12.58-2.76s6,8,8.14,12.58,5.46,9.29,10.44,10.19a12.35,12.35,0,0,0,6.42-.77c2.65-1,5.33-3,5.41-5.86.06-2.05-1.27-3.85-2.54-5.46-7.56-9.63-15.82-19.76-27.48-23.48a4.29,4.29,0,0,1-2.53-1.47c-1.3-2.06,1.67-4.2,4.07-4.65,3.68-.69,7.52-.76,11-2.15a15.83,15.83,0,0,0,9.71-14.87c-.16-4.66-4.35-14.79-10.09-10.54C330.44,217.2,331.77,225.4,325.24,229.14Z" style="fill:#9ea751"/><path d="M403,253c-2.84-2.45-5.27-5.38-8.32-7.55-8.93-6.35-21-5-31.82-3.34a8.17,8.17,0,0,0-4.08,1.39c-2.37,2-1.68,6,.56,8.15s5.42,2.81,8.42,3.49S374,256.72,376,259c2.94,3.37,2.4,8.43,3.49,12.76,1.72,6.75,7.57,11.74,13.86,14.73s13.2,4.43,19.71,6.9c7.21,2.73,13.89,6.71,21.12,9.37s15.41,3.93,22.57,1.1a5.55,5.55,0,0,0,2.94-2.14,5.91,5.91,0,0,0,.53-3.07,48.9,48.9,0,0,0-17.84-36.34c-6.44-5.26-11.25-1-19-1.37A33.63,33.63,0,0,1,403,253Z" style="fill:#9ea751"/><path d="M356.72,294.88a6.57,6.57,0,0,1,5.5-1.33,4.89,4.89,0,0,1,3.73,4c.33,3-2.9,5.56-5.92,5.29s-5.49-2.65-6.83-5.36" style="fill:#9ea751"/><path d="M304.4,251.76a11.55,11.55,0,0,1-3-6.48A11.27,11.27,0,0,1,308,248a11.43,11.43,0,0,1,3,6.47A11.32,11.32,0,0,1,304.4,251.76Z" style="fill:#e5af34"/><path d="M313.88,243.83a7.86,7.86,0,0,1-4.43,2.06,6.74,6.74,0,0,1,6.31-6.55A7.79,7.79,0,0,1,313.88,243.83Z" style="fill:#e5af34"/><path d="M344.58,272.06a5.38,5.38,0,0,1-1.37,3.11,4.68,4.68,0,0,1,.29-6.31A5.43,5.43,0,0,1,344.58,272.06Z" style="fill:#e5af34"/><path d="M308.65,241.81a5.38,5.38,0,0,1-1.37,3.1,4.68,4.68,0,0,1,.29-6.31A5.46,5.46,0,0,1,308.65,241.81Z" style="fill:#e5af34"/><path d="M336.82,228.26a5.38,5.38,0,0,1-1.37,3.1,4.68,4.68,0,0,1,.29-6.31A5.46,5.46,0,0,1,336.82,228.26Z" style="fill:#e5af34"/><path d="M263.65,232.1a5.54,5.54,0,0,1-1.37,3.11,4.68,4.68,0,0,1,.29-6.31A5.43,5.43,0,0,1,263.65,232.1Z" style="fill:#e5af34"/><path d="M250.16,301.9a5.38,5.38,0,0,1-1.37,3.1,4.68,4.68,0,0,1,.29-6.31A5.46,5.46,0,0,1,250.16,301.9Z" style="fill:#e5af34"/><path d="M160.93,245.94a5.38,5.38,0,0,1-1.37,3.1,4.68,4.68,0,0,1,.29-6.31A5.46,5.46,0,0,1,160.93,245.94Z" style="fill:#e5af34"/><path d="M322.76,300.08a5.45,5.45,0,0,1-1.37,3.1,5.43,5.43,0,0,1-1.08-3.2,5.54,5.54,0,0,1,1.37-3.11A5.46,5.46,0,0,1,322.76,300.08Z" style="fill:#e5af34"/><path d="M362.05,295.35a5.38,5.38,0,0,1-1.37,3.1,5.35,5.35,0,0,1-1.09-3.2,5.54,5.54,0,0,1,1.37-3.11A5.47,5.47,0,0,1,362.05,295.35Z" style="fill:#e5af34"/><path d="M431.53,282.35a5.54,5.54,0,0,1-1.37,3.11,4.68,4.68,0,0,1,.28-6.32A5.4,5.4,0,0,1,431.53,282.35Z" style="fill:#e5af34"/><path d="M377.39,241.81a5.45,5.45,0,0,1-1.37,3.1,4.67,4.67,0,0,1,.28-6.31A5.4,5.4,0,0,1,377.39,241.81Z" style="fill:#e5af34"/><path d="M289.82,302.28a5.43,5.43,0,0,1-1.37,3.07,5.46,5.46,0,0,1-1.08-3.21,5.54,5.54,0,0,1,1.37-3.11A5.44,5.44,0,0,1,289.82,302.28Z" style="fill:#e5af34"/><path d="M391,275.41a11.55,11.55,0,0,1-3-6.48,11.34,11.34,0,0,1,6.57,2.74,11.5,11.5,0,0,1,3,6.47A11.33,11.33,0,0,1,391,275.41Z" style="fill:#e5af34"/><path d="M400.52,267.48a7.86,7.86,0,0,1-4.43,2.06A7.74,7.74,0,0,1,398,265a7.85,7.85,0,0,1,4.43-2.05A7.78,7.78,0,0,1,400.52,267.48Z" style="fill:#e5af34"/><path d="M436.13,286.8a7.86,7.86,0,0,1-4.43,2.06,7.74,7.74,0,0,1,1.87-4.5,7.91,7.91,0,0,1,4.43-2.05A7.71,7.71,0,0,1,436.13,286.8Z" style="fill:#e5af34"/><path d="M394.1,263.61a6,6,0,0,1-.11,3.76,5.16,5.16,0,0,1-2.35-6.59A6.05,6.05,0,0,1,394.1,263.61Z" style="fill:#e5af34"/><path d="M536.23,119.74c-8.07-8.83-17.81-15.51-28-21.62h0l-4.08-2.68A35.36,35.36,0,0,1,492.7,82a14.86,14.86,0,0,0-7.5-6.91,30.12,30.12,0,0,0-18-2.27c-6.7,1.2-12.73,3.49-18,8.4-5.57,5.12-7.74,10.62-6.31,17.78.71,3.54,1.54,7.06,2.45,10.56,1.91,7.39,6.43,12.12,13.93,14.23a16.93,16.93,0,0,0,19.94-8.29c4.85-9.27-4.38-17.93-11.13-17.64-4.69.19-6.73,3.8-4.29,7.8.53.87,1.24,1.65,1.86,2.47a2.39,2.39,0,0,1-.36,3.35,1.88,1.88,0,0,1-.23.16,2.89,2.89,0,0,1-2.77-.37A17,17,0,0,1,457,100.14a5.39,5.39,0,0,1,4.31-5.92,31.77,31.77,0,0,1,8.76-.38c7.41.78,13.18,5.49,14.73,11.86a42.45,42.45,0,0,1,.65,6.37l-2.86,7.18a18.26,18.26,0,0,1-13.19,9.92l-8.34.24c-10.13-1.64-17.94-6.74-20.8-16.79-1.36-4.78-3.58-6.76-8-7.3a5.43,5.43,0,0,1-.86-.22c-8.81-1.51-17-1.11-24.37,5.2-5.9,5-12.57,9.2-21.47,7.74.51.75.73,1.13,1,1.47,6.53,8.12,15.22,11.79,25.43,12.55a10.64,10.64,0,0,1,5,1.82A86.86,86.86,0,0,0,442,146.11h0l.74.19c.65.18,1.29.38,1.94.55a1.41,1.41,0,0,0,.29,0l2.74.71-.06.05c.32.07.65.12,1,.18l3.32.86.21-.24c9,1.34,17.61.87,25.86-2.38,9.26-3.63,18.28-7.93,27.22-12.31,9.34-4.58,18.94-6.46,29.21-4.41,3.53.7,7.08,1.34,10.62,2l.49-.54C542.51,127.11,539.49,123.35,536.23,119.74Z" style="fill:url(#linear-gradient-2)"/><path d="M150.71,119.74c-8.07-8.83-17.8-15.51-28-21.62h0l-4.06-2.68A35.36,35.36,0,0,1,107.2,82a14.92,14.92,0,0,0-7.49-6.91,30.12,30.12,0,0,0-18-2.27C75,74,69,76.31,63.66,81.22,58.1,86.34,55.92,91.84,57.35,99c.71,3.54,1.54,7.06,2.45,10.56,1.91,7.39,6.43,12.12,13.93,14.23a16.93,16.93,0,0,0,19.94-8.29c4.85-9.27-4.38-17.93-11.13-17.64-4.69.19-6.73,3.8-4.29,7.8.53.87,1.24,1.65,1.86,2.47a2.39,2.39,0,0,1-.36,3.35,1.88,1.88,0,0,1-.23.16,2.89,2.89,0,0,1-2.77-.37,17,17,0,0,1-5.31-11.13,5.39,5.39,0,0,1,4.31-5.92,31.77,31.77,0,0,1,8.76-.38c7.42.78,13.18,5.49,14.73,11.86a42.45,42.45,0,0,1,.65,6.37L97,119.25a18.22,18.22,0,0,1-13.19,9.92l-8.34.24c-10.13-1.64-17.94-6.74-20.8-16.79-1.36-4.78-3.58-6.76-8-7.3a5.43,5.43,0,0,1-.86-.22c-8.81-1.51-17-1.11-24.37,5.2C15.58,115.3,8.9,119.5,0,118c.51.75.73,1.13,1,1.47,6.53,8.12,15.22,11.79,25.43,12.55a10.75,10.75,0,0,1,5,1.82,86.81,86.81,0,0,0,25.06,12.23h0l.74.19c.65.18,1.29.38,2,.55a1.31,1.31,0,0,0,.28,0l2.74.71-.06.05,1,.18,3.32.86.22-.24c9,1.34,17.6.87,25.85-2.38,9.26-3.63,18.28-7.93,27.22-12.31,9.34-4.58,18.94-6.46,29.21-4.41,3.54.7,7.08,1.34,10.62,2l.49-.54C157,127.11,154,123.35,150.71,119.74Z" style="fill:url(#linear-gradient-3)"/><path d="M209.26,77.62c-4.74-5.18-10.45-9.1-16.42-12.69h0l-2.39-1.58a20.77,20.77,0,0,1-6.72-7.89,8.71,8.71,0,0,0-4.4-4.06,17.68,17.68,0,0,0-10.54-1.32A20,20,0,0,0,158.2,55c-3.27,3-4.54,6.24-3.7,10.44q.63,3.12,1.43,6.19A10.94,10.94,0,0,0,164.11,80a9.91,9.91,0,0,0,11.7-4.86c2.85-5.44-2.57-10.52-6.53-10.35-2.75.11-4,2.23-2.52,4.57a14.58,14.58,0,0,0,1.09,1.46,1.37,1.37,0,0,1-.26,1.93l-.09.07a1.71,1.71,0,0,1-1.62-.21,10,10,0,0,1-3.11-6.54,3.16,3.16,0,0,1,2.53-3.47,18.44,18.44,0,0,1,5.14-.22c4.35.46,7.73,3.22,8.64,7a24.56,24.56,0,0,1,.38,3.73l-1.68,4.26A10.69,10.69,0,0,1,170,83.17l-4.89.14c-6-1-10.53-4-12.21-9.85-.79-2.81-2.1-4-4.68-4.29a3,3,0,0,1-.5-.12c-5.17-.89-10-.65-14.31,3-3.45,3-7.37,5.4-12.59,4.54.3.44.42.66.58.86,3.83,4.77,8.94,6.92,14.92,7.37a6.16,6.16,0,0,1,2.95,1.06A50.76,50.76,0,0,0,154,93.06h0l.43.11,1.15.32h.16l1.61.41h0L158,94l2,.5.12-.14A29.14,29.14,0,0,0,175.24,93c5.44-2.14,10.73-4.66,16-7.23a26.26,26.26,0,0,1,17.14-2.59c2.07.41,4.15.79,6.23,1.18l.29-.32C212.94,81.94,211.17,79.71,209.26,77.62Z" style="fill:url(#linear-gradient-4)"/><path d="M274.41,128.87c5.16,0,13.12.65,13.13,1.61s-7.94,1.8-13.1,1.85-5.58-.73-5.59-1.68S269.25,128.92,274.41,128.87Z" style="fill:#e5af34"/><path d="M289.86,147.46c-.05-5.16.65-13.12,1.6-13.13s1.8,7.93,1.85,13.1-.72,5.58-1.67,5.59S289.91,152.62,289.86,147.46Z" style="fill:#e5af34"/><path d="M304.57,119.51c-3.62,3.69-9.74,8.82-10.42,8.15s4.34-6.88,8-10.57,4.46-3.43,5.14-2.77S308.19,115.83,304.57,119.51Z" style="fill:#e5af34"/><path d="M278.28,141.35c3.62-3.68,9.74-8.82,10.42-8.15s-4.34,6.89-7.95,10.57-4.46,3.44-5.14,2.77S274.65,145.05,278.28,141.35Z" style="fill:#e5af34"/><path d="M302.35,143.58c-3.68-3.61-8.82-9.74-8.15-10.42s6.89,4.34,10.57,8,3.44,4.45,2.77,5.14S306,147.2,302.35,143.58Z" style="fill:#e5af34"/><path d="M280.5,117.29c3.69,3.62,8.82,9.74,8.15,10.43s-6.89-4.34-10.57-8-3.44-4.46-2.77-5.14S276.82,113.68,280.5,117.29Z" style="fill:#e5af34"/><path d="M308.45,132c-5.17,0-13.13-.65-13.14-1.61s7.94-1.8,13.1-1.85,5.59.72,5.6,1.68S313.65,132,308.45,132Z" style="fill:#e5af34"/><path d="M293,113.42c0,5.16-.65,13.12-1.6,13.13s-1.8-7.94-1.85-13.1.72-5.58,1.67-5.59S293,108.26,293,113.42Z" style="fill:#e5af34"/><path d="M189.65,154.59c3.66,0,9.3.47,9.31,1.14s-5.63,1.28-9.29,1.31-4-.51-4-1.18S186,154.63,189.65,154.59Z" style="fill:#e5af34"/><path d="M200.57,167.78c0-3.66.46-9.31,1.14-9.32s1.28,5.63,1.31,9.29-.51,4-1.19,4S200.65,171.44,200.57,167.78Z" style="fill:#e5af34"/><path d="M211,148c-2.57,2.61-6.91,6.25-7.39,5.78s3.07-4.88,5.64-7.5,3.16-2.44,3.64-2S213.57,145.35,211,148Z" style="fill:#e5af34"/><path d="M192.36,163.45c2.57-2.61,6.91-6.25,7.39-5.78s-3.07,4.89-5.64,7.5-3.16,2.44-3.64,2S189.8,166.07,192.36,163.45Z" style="fill:#e5af34"/><path d="M209.43,165c-2.61-2.57-6.25-6.91-5.78-7.39s4.89,3.07,7.5,5.64,2.44,3.16,2,3.64S212,167.59,209.43,165Z" style="fill:#e5af34"/><path d="M193.94,146.35c2.61,2.56,6.25,6.9,5.78,7.39s-4.89-3.08-7.5-5.65-2.44-3.16-2-3.64S191.32,143.82,193.94,146.35Z" style="fill:#e5af34"/><path d="M213.75,156.82c-3.66,0-9.3-.46-9.31-1.14s5.63-1.28,9.29-1.31,4,.51,4,1.19S217.41,156.79,213.75,156.82Z" style="fill:#e5af34"/><path d="M202.8,143.64c0,3.66-.46,9.3-1.14,9.31s-1.28-5.63-1.31-9.29.51-4,1.19-4S202.76,140,202.8,143.64Z" style="fill:#e5af34"/><path d="M361.85,154.59c3.66,0,9.31.47,9.31,1.14s-5.63,1.28-9.29,1.31-4-.51-4-1.18S358.19,154.63,361.85,154.59Z" style="fill:#e5af34"/><path d="M372.81,167.78c0-3.66.46-9.31,1.13-9.32s1.28,5.63,1.32,9.29-.51,4-1.19,4S372.84,171.44,372.81,167.78Z" style="fill:#e5af34"/><path d="M383.24,148c-2.56,2.61-6.91,6.25-7.39,5.78s3.08-4.88,5.64-7.5,3.16-2.44,3.64-2S385.8,145.35,383.24,148Z" style="fill:#e5af34"/><path d="M364.65,163.45c2.56-2.61,6.9-6.25,7.39-5.78s-3.08,4.89-5.64,7.5-3.16,2.44-3.65,2S362,166.07,364.65,163.45Z" style="fill:#e5af34"/><path d="M381.65,165c-2.62-2.57-6.26-6.91-5.78-7.39s4.88,3.07,7.49,5.64,2.44,3.16,2,3.64S384.28,167.59,381.65,165Z" style="fill:#e5af34"/><path d="M366.17,146.35c2.61,2.56,6.25,6.9,5.78,7.39s-4.88-3.08-7.5-5.65-2.43-3.16-2-3.64S363.56,143.82,366.17,146.35Z" style="fill:#e5af34"/><path d="M386,156.82c-3.66,0-9.31-.46-9.31-1.14s5.62-1.28,9.28-1.31,4,.51,4,1.19S389.65,156.79,386,156.82Z" style="fill:#e5af34"/><path d="M375,143.64c0,3.66-.46,9.3-1.14,9.31s-1.28-5.63-1.31-9.29.51-4,1.19-4S375,140,375,143.64Z" style="fill:#e5af34"/><path d="M436.8,194.78c2.57,0,6.52.32,6.53.8s-3.95.89-6.51.92-2.77-.36-2.78-.83S434.24,194.81,436.8,194.78Z" style="fill:#e5af34"/><path d="M444.48,204c0-2.57.32-6.52.8-6.53s.89,3.95.91,6.51-.35,2.77-.83,2.78S444.5,206.58,444.48,204Z" style="fill:#e5af34"/><path d="M451.79,190.13c-1.8,1.83-4.84,4.38-5.18,4.05s2.16-3.42,3.95-5.25,2.22-1.71,2.55-1.37S453.58,188.35,451.79,190.13Z" style="fill:#e5af34"/><path d="M438.73,201c1.79-1.83,4.84-4.38,5.17-4.05s-2.15,3.42-4,5.25-2.21,1.71-2.55,1.38S436.93,202.82,438.73,201Z" style="fill:#e5af34"/><path d="M450.65,202.09c-1.83-1.8-4.38-4.84-4-5.18s3.42,2.16,5.25,4,1.7,2.22,1.37,2.56S452.51,203.89,450.65,202.09Z" style="fill:#e5af34"/><path d="M439.83,189c1.83,1.8,4.38,4.84,4.05,5.18s-3.42-2.16-5.25-4-1.71-2.22-1.38-2.56S438,187.24,439.83,189Z" style="fill:#e5af34"/><path d="M453.71,196.35c-2.56,0-6.52-.32-6.52-.8s3.94-.89,6.51-.92,2.77.36,2.77.84S456.28,196.35,453.71,196.35Z" style="fill:#e5af34"/><path d="M446,187.11c0,2.56-.33,6.52-.8,6.52s-.9-3.94-.92-6.51.36-2.77.83-2.78S446,184.54,446,187.11Z" style="fill:#e5af34"/><path d="M123.65,194.78c2.56,0,6.52.32,6.52.8s-3.94.89-6.5.92-2.78-.36-2.78-.83S121.06,194.81,123.65,194.78Z" style="fill:#e5af34"/><path d="M131.29,204c0-2.57.33-6.52.8-6.53s.9,3.95.92,6.51-.36,2.77-.83,2.78S131.32,206.58,131.29,204Z" style="fill:#e5af34"/><path d="M138.65,190.13c-1.79,1.83-4.84,4.38-5.17,4.05s2.15-3.42,4-5.25,2.21-1.71,2.55-1.37S140.4,188.35,138.65,190.13Z" style="fill:#e5af34"/><path d="M125.54,201c1.8-1.83,4.84-4.38,5.18-4.05s-2.15,3.42-4,5.25-2.21,1.71-2.55,1.38S123.75,202.82,125.54,201Z" style="fill:#e5af34"/><path d="M137.5,202.09c-1.83-1.8-4.38-4.84-4.05-5.18s3.42,2.16,5.25,4,1.71,2.22,1.38,2.56S139.33,203.89,137.5,202.09Z" style="fill:#e5af34"/><path d="M126.65,189c1.83,1.8,4.38,4.84,4,5.18s-3.43-2.16-5.26-4-1.7-2.22-1.37-2.56S124.82,187.24,126.65,189Z" style="fill:#e5af34"/><path d="M140.53,196.35c-2.57,0-6.52-.32-6.52-.8s3.94-.89,6.5-.92,2.78.36,2.78.84S143.09,196.35,140.53,196.35Z" style="fill:#e5af34"/><path d="M132.85,187.11c0,2.56-.32,6.52-.79,6.52s-.9-3.94-.92-6.51.35-2.77.83-2.78S132.83,184.54,132.85,187.11Z" style="fill:#e5af34"/></g></svg>