<svg xmlns="http://www.w3.org/2000/svg" xmlns:xlink="http://www.w3.org/1999/xlink" viewBox="0 0 498.12 361.77" width="300"><defs><style>.cls-1,.cls-12,.cls-13,.cls-14,.cls-15,.cls-16,.cls-18,.cls-20,.cls-21,.cls-22,.cls-23,.cls-4,.cls-5,.cls-6,.cls-7{fill:none;}.cls-2{fill:#3176a9;}.cls-3{fill:#fff;}.cls-4,.cls-5,.cls-6,.cls-7{stroke:#a0a952;}.cls-12,.cls-13,.cls-14,.cls-15,.cls-16,.cls-21,.cls-22,.cls-23,.cls-4,.cls-5,.cls-6,.cls-7{stroke-miterlimit:10;}.cls-4{stroke-width:2.58px;}.cls-5{stroke-width:1.57px;}.cls-6{stroke-width:1.28px;}.cls-7{stroke-width:0.94px;}.cls-8{clip-path:url(#clip-path);}.cls-9{fill:#9ea751;}.cls-10{fill:#2f4962;}.cls-11{fill:#e3ae35;}.cls-12,.cls-16{stroke:#e3ae35;}.cls-12{stroke-width:1.77px;}.cls-13,.cls-15,.cls-18,.cls-20,.cls-21{stroke:#fff;}.cls-13,.cls-22{stroke-width:0.59px;}.cls-14{stroke:#e2a849;}.cls-14,.cls-15{stroke-width:1.18px;}.cls-17{fill:#5da4a0;}.cls-18,.cls-20{stroke-linecap:round;stroke-linejoin:round;}.cls-18{stroke-width:0.82px;}.cls-19{fill:#365263;}.cls-20{stroke-width:0.64px;}.cls-21{stroke-width:0.41px;}.cls-22,.cls-23{stroke:#2f4962;}.cls-23{stroke-width:0.44px;}.cls-24{opacity:0.8;isolation:isolate;fill:url(#linear-gradient);}</style><clipPath id="clip-path"><path class="cls-1" d="M403,357.81c-18.64,0-18.64-1.45-37.29-1.45s-18.64.49-37.29.49-18.64-2.79-37.29-2.79-18.64,4.59-37.29,4.59-18.65-.91-37.29-.91-18.65-3.82-37.29-3.82-18.65,7.85-37.3,7.85-18.64-5.39-37.29-5.39c-13.8,0-25.74-25.76-25.74-56.18,0-39.87,2.45-39.87,2.45-79.74s-2.09-39.87-2.09-79.74-.42-39.87-.42-79.74c0-30.42,12-52.84,25.8-52.84,18.64,0,18.64-7.76,37.29-7.76s18.65,9.85,37.29,9.85S197.86,0,216.5,0s18.65,12.09,37.29,12.09,18.65-5.4,37.29-5.4,18.65,6.81,37.3,6.81,18.64-1.13,37.29-1.13S384.32,5.11,403,5.11c13.8,0,26.83,25.44,26.83,55.86,0,39.87-1.62,39.87-1.62,79.74s1.36,39.87,1.36,79.74-3.62,39.88-3.62,79.78C425.91,330.62,416.76,357.81,403,357.81Z"/></clipPath><linearGradient id="linear-gradient" x1="152.65" y1="286.68" x2="153.08" y2="361.21" gradientTransform="translate(564.96 406.46) rotate(180)" gradientUnits="userSpaceOnUse"><stop offset="0" stop-color="#fafbfb" stop-opacity="0"/><stop offset="1" stop-color="#78a9a8"/></linearGradient></defs><title>Asset 1</title><g id="Layer_2" data-name="Layer 2"><g id="Layer_1-2" data-name="Layer 1"><g id="Layer_1-3" data-name="Layer 1"><path class="cls-2" d="M403,357.81c-18.64,0-18.64-1.45-37.29-1.45s-18.64.49-37.29.49-18.64-2.79-37.29-2.79-18.64,4.59-37.29,4.59-18.65-.91-37.29-.91-18.65-3.82-37.29-3.82-18.65,7.85-37.3,7.85-18.64-5.39-37.29-5.39c-13.8,0-25.74-25.76-25.74-56.18,0-39.87,2.45-39.87,2.45-79.74s-2.09-39.87-2.09-79.74-.42-39.87-.42-79.74c0-30.42,12-52.84,25.8-52.84,18.64,0,18.64-7.76,37.29-7.76s18.65,9.85,37.29,9.85S197.86,0,216.5,0s18.65,12.09,37.29,12.09,18.65-5.4,37.29-5.4,18.65,6.81,37.3,6.81,18.64-1.13,37.29-1.13S384.32,5.11,403,5.11c13.8,0,26.83,25.44,26.83,55.86,0,39.87-1.62,39.87-1.62,79.74s1.36,39.87,1.36,79.74-3.62,39.88-3.62,79.78C425.91,330.62,416.76,357.81,403,357.81Z"/><path class="cls-3" d="M395.72,275.79c-8.65-9.46-19.08-16.62-30-23.16h0l-4.38-2.87a37.72,37.72,0,0,1-12.27-14.4,16,16,0,0,0-8-7.41,32.35,32.35,0,0,0-19.25-2.43c-7.17,1.29-13.64,3.74-19.35,9-6,5.49-8.29,11.39-6.75,19.06.76,3.79,1.65,7.57,2.62,11.31,2.05,7.92,6.89,13,14.93,15.25,8.5,2.39,17.27-1,21.37-8.88,5.19-9.93-4.7-19.21-11.93-18.91-5,.21-7.22,4.08-4.6,8.36a30.14,30.14,0,0,0,2,2.65,2.57,2.57,0,0,1-.41,3.6l-.23.16a3.13,3.13,0,0,1-3-.39,18.13,18.13,0,0,1-5.68-11.94,5.75,5.75,0,0,1,4.61-6.33,33.58,33.58,0,0,1,9.39-.41c7.94.84,14.12,5.88,15.79,12.71a45.82,45.82,0,0,1,.69,6.82l-3,7.65a19.56,19.56,0,0,1-14.14,10.64l-8.93.25c-10.86-1.76-19.23-7.21-22.29-18-1.46-5.12-3.84-7.24-8.56-7.83a6.14,6.14,0,0,1-.92-.22c-9.44-1.63-18.2-1.19-26.11,5.56-6.32,5.4-13.47,9.87-23,8.3.55.81.78,1.21,1.07,1.57,7,8.71,16.32,12.63,27.25,13.45A11.39,11.39,0,0,1,268,290.9,92.7,92.7,0,0,0,294.86,304h0l.79.2c.69.2,1.38.41,2.08.59h.3l2.94.75-.06.06,1,.2,3.56.91.23-.25c9.65,1.43,18.86.92,27.71-2.55,9.92-3.9,19.58-8.51,29.16-13.2,10-4.9,20.3-6.92,31.3-4.73,3.79.76,7.59,1.45,11.39,2.16.17-.19.35-.38.52-.58C402.44,283.69,399.21,279.61,395.72,275.79Z"/><path class="cls-4" d="M280.91,280.23c12.9,9.9,29.88,14.91,45.78,11.59,16.5-3.44,31.1-16.66,34.21-33.23"/><path class="cls-4" d="M271,269a21.09,21.09,0,0,0,3.58,5.47"/><path class="cls-4" d="M304,252.1c-1-6.13,3.62-12,9.21-13.8s11.73-1.37,17.44.08a27.66,27.66,0,0,1,9.36,4,21.9,21.9,0,0,1,6.31,7.32,26.57,26.57,0,0,1,3.2,14.69s-.41,15.28-10.64,22.84"/><path class="cls-4" d="M383.35,274.94c2,.72,4,1.53,5.95,2.39"/><path class="cls-4" d="M346.31,282.28c12.39-8.74,20.92-11.21,30-9.32"/><path class="cls-3" d="M226.81,280.11c-5.26-5.74-11.59-10.09-18.21-14.06h0l-2.69-1.75a22.9,22.9,0,0,1-7.45-8.74,9.72,9.72,0,0,0-4.88-4.5,19.68,19.68,0,0,0-11.67-1.48,22.29,22.29,0,0,0-11.74,5.47c-3.62,3.33-5,6.91-4.1,11.57.46,2.3,1,4.59,1.59,6.87a12.1,12.1,0,0,0,9.06,9.26,11,11,0,0,0,13-5.4c3.15-6-2.85-11.66-7.24-11.48-3.06.13-4.39,2.48-2.8,5.08.35.57.81,1.07,1.22,1.61a1.56,1.56,0,0,1-.25,2.18l-.14.1a1.9,1.9,0,0,1-1.8-.24,11,11,0,0,1-3.45-7.24,3.47,3.47,0,0,1,2.8-3.85,20.54,20.54,0,0,1,5.7-.25c4.82.51,8.57,3.57,9.58,7.72a26.17,26.17,0,0,1,.42,4.14l-1.85,4.67a11.88,11.88,0,0,1-8.59,6.46l-5.42.15c-6.6-1.06-11.68-4.38-13.54-10.92-.88-3.11-2.33-4.4-5.19-4.75a3.82,3.82,0,0,1-.56-.14c-5.73-1-11.05-.72-15.86,3.38-3.83,3.28-8.17,6-14,5,.34.49.48.73.65,1,4.25,5.29,9.91,7.67,16.55,8.17a6.89,6.89,0,0,1,3.27,1.18,56.27,56.27,0,0,0,16.31,8h0l.48.12,1.26.36h.19l1.78.46h0l.63.12,2.17.55.13-.15A32.2,32.2,0,0,0,189,297.23c6-2.36,11.89-5.16,17.71-8,6.07-3,12.32-4.21,19-2.87,2.3.45,4.61.87,6.91,1.31l.32-.36C230.91,284.91,228.91,282.43,226.81,280.11Z"/><path class="cls-5" d="M157.06,282.79c7.84,6,18.15,9.06,27.8,7,10-2.09,18.89-10.12,20.77-20.18"/><path class="cls-5" d="M151.1,276a12.65,12.65,0,0,0,2.17,3.33"/><path class="cls-5" d="M171.14,265.73c-.61-3.72,2.19-7.27,5.58-8.38a19.25,19.25,0,0,1,10.59,0,17.12,17.12,0,0,1,5.69,2.44,13.21,13.21,0,0,1,3.83,4.44,16.2,16.2,0,0,1,1.94,8.92s-.24,9.28-6.45,13.88"/><path class="cls-5" d="M219.3,279.59c1.24.44,2.45.94,3.61,1.46"/><path class="cls-5" d="M196.8,284.05c7.53-5.3,12.71-6.8,18.25-5.65"/><path class="cls-3" d="M269.11,319.52c-4.3-4.7-9.49-8.26-14.9-11.51h0L252,306.58a18.7,18.7,0,0,1-6.1-7.16,8,8,0,0,0-4-3.68,16.07,16.07,0,0,0-9.57-1.2,18.13,18.13,0,0,0-9.61,4.47c-3,2.73-4.12,5.65-3.36,9.47.38,1.88.82,3.76,1.31,5.62a9.91,9.91,0,0,0,7.42,7.58,9,9,0,0,0,10.62-4.45c2.58-4.93-2.33-9.54-5.92-9.39-2.5.1-3.59,2-2.29,4.15a14.29,14.29,0,0,0,1,1.32,1.27,1.27,0,0,1-.2,1.79l-.11.08a1.57,1.57,0,0,1-1.48-.2,9,9,0,0,1-2.82-5.93,2.86,2.86,0,0,1,2.29-3.15,17,17,0,0,1,4.67-.2,8.71,8.71,0,0,1,7.84,6.32,22.64,22.64,0,0,1,.34,3.38l-1.53,3.83a9.73,9.73,0,0,1-7,5.28l-4.44.13c-5.4-.87-9.56-3.59-11.08-8.94-.72-2.55-1.9-3.6-4.25-3.89a4.35,4.35,0,0,1-.46-.11c-4.69-.81-9-.6-13,2.76-3.14,2.68-6.7,4.9-11.44,4.12.28.41.39.61.53.79,3.48,4.32,8.11,6.27,13.55,6.68a5.62,5.62,0,0,1,2.67,1A45.85,45.85,0,0,0,219,333.56h0l.39.1,1,.29h.15l1.46.38h0l.52.1,1.76.45.12-.13a26.17,26.17,0,0,0,13.77-1.26c4.93-1.94,9.73-4.23,14.49-6.56a23.85,23.85,0,0,1,15.56-2.35c1.88.38,3.77.72,5.65,1.07l.26-.29C272.45,323.45,270.84,321.42,269.11,319.52Z"/><path class="cls-6" d="M212,321.71c6.41,4.92,14.85,7.41,22.75,5.76,8.2-1.71,15.45-8.28,17-16.51"/><path class="cls-6" d="M207.14,316.17a10.64,10.64,0,0,0,1.78,2.72"/><path class="cls-6" d="M223.55,307.75c-.5-3,1.79-5.95,4.57-6.86a15.77,15.77,0,0,1,8.67,0,13.93,13.93,0,0,1,4.65,2,11,11,0,0,1,3.14,3.64,13.41,13.41,0,0,1,1.59,7.29s-.21,7.6-5.28,11.37"/><path class="cls-6" d="M263,319.1c1,.35,2,.76,3,1.19"/><path class="cls-6" d="M244.55,322.75c6.16-4.35,10.4-5.57,14.93-4.63"/><path class="cls-3" d="M135,256.48a47.68,47.68,0,0,0-10.87-8.4h0l-1.59-1a13.72,13.72,0,0,1-4.45-5.23,5.8,5.8,0,0,0-2.91-2.68,11.63,11.63,0,0,0-7-.88,13.24,13.24,0,0,0-7,3.26,6.88,6.88,0,0,0-2.45,6.91c.28,1.38.6,2.75,1,4.1a7.21,7.21,0,0,0,5.42,5.53,6.57,6.57,0,0,0,7.77-3.26c1.88-3.6-1.71-7-4.33-6.85-1.82.07-2.62,1.48-1.67,3a10.23,10.23,0,0,0,.73,1,.93.93,0,0,1-.16,1.31l-.07.05a1.16,1.16,0,0,1-1.08-.14,6.53,6.53,0,0,1-2.06-4.33,2.07,2.07,0,0,1,1.67-2.3,12.17,12.17,0,0,1,3.41-.14,6.33,6.33,0,0,1,5.72,4.61,17.09,17.09,0,0,1,.25,2.47l-1.11,2.79a7.11,7.11,0,0,1-5.12,3.86l-3.24.09c-3.94-.64-7-2.62-8.09-6.53-.52-1.86-1.39-2.62-3.1-2.84a2,2,0,0,1-.33-.08c-3.43-.59-6.6-.43-9.47,2-2.29,2-4.89,3.58-8.34,3,.19.29.28.44.38.57a13.27,13.27,0,0,0,9.88,4.88,4.26,4.26,0,0,1,2,.7,33.28,33.28,0,0,0,9.74,4.76h0l.29.07.75.22h.11l1.07.27h0l.38.07,1.29.34.09-.1a19.15,19.15,0,0,0,10-.92c3.6-1.41,7.11-3.09,10.58-4.79a17.38,17.38,0,0,1,11.29-1.64c1.37.27,2.75.52,4.13.78l.19-.21C137.47,259.34,136.3,257.87,135,256.48Z"/><path class="cls-7" d="M93.38,258.08a20.8,20.8,0,0,0,16.61,4.2c6-1.25,11.27-6,12.4-12"/><path class="cls-7" d="M89.82,254a7.32,7.32,0,0,0,1.3,2"/><path class="cls-7" d="M101.79,247.89a4.77,4.77,0,0,1,3.34-5,11.5,11.5,0,0,1,6.32,0,10,10,0,0,1,3.39,1.46,7.79,7.79,0,0,1,2.29,2.65,9.8,9.8,0,0,1,1.17,5.33s-.15,5.54-3.86,8.29"/><path class="cls-7" d="M130.55,256.17c.75.26,1.47.56,2.16.87"/><path class="cls-7" d="M117.12,258.83c4.49-3.16,7.59-4.06,10.89-3.38"/><path class="cls-3" d="M427.44,231.72a47.68,47.68,0,0,0-10.87-8.4h0l-1.58-1a13.49,13.49,0,0,1-4.45-5.23,5.78,5.78,0,0,0-2.92-2.68,11.63,11.63,0,0,0-7-.88,13.21,13.21,0,0,0-7,3.26,6.86,6.86,0,0,0-2.45,6.91c.27,1.38.6,2.74,1,4.1a7.23,7.23,0,0,0,5.41,5.53,6.56,6.56,0,0,0,7.75-3.22c1.89-3.6-1.7-7-4.32-6.85-1.83.07-2.62,1.47-1.67,3,.21.34.48.64.72,1a.91.91,0,0,1-.14,1.29l-.09.07a1.14,1.14,0,0,1-1.07-.14,6.58,6.58,0,0,1-2.07-4.33,2.09,2.09,0,0,1,1.68-2.3,12.1,12.1,0,0,1,3.4-.14,6.36,6.36,0,0,1,5.73,4.6,18.77,18.77,0,0,1,.25,2.48l-1.11,2.79a7.13,7.13,0,0,1-5.13,3.86l-3.24.09c-3.94-.64-7-2.62-8.08-6.53-.53-1.86-1.39-2.62-3.1-2.84a2.09,2.09,0,0,1-.34-.08c-3.42-.59-6.6-.43-9.47,2-2.29,2-4.88,3.58-8.34,3,.2.29.28.44.39.57a13.27,13.27,0,0,0,9.88,4.88,4.26,4.26,0,0,1,2,.7A33.53,33.53,0,0,0,391,242h0l.28.07.76.22h.11l1.06.27h0l.38.07,1.29.33.08-.09a19.23,19.23,0,0,0,10-.92c3.6-1.41,7.1-3.09,10.58-4.79a17.32,17.32,0,0,1,11.35-1.71c1.37.27,2.75.52,4.12.78l.19-.21C429.91,234.58,428.71,233.11,427.44,231.72Z"/><path class="cls-7" d="M385.79,233.32a20.78,20.78,0,0,0,16.6,4.2c6-1.25,11.28-6,12.41-12.05"/><path class="cls-7" d="M382.22,229.23a8,8,0,0,0,1.3,2"/><path class="cls-7" d="M394.19,223.13a4.77,4.77,0,0,1,3.34-5,11.54,11.54,0,0,1,6.33,0,10.29,10.29,0,0,1,3.39,1.45,7.83,7.83,0,0,1,2.29,2.66,9.65,9.65,0,0,1,1.16,5.32s-.15,5.55-3.85,8.29"/><path class="cls-7" d="M423,231.41c.74.26,1.46.56,2.15.87"/><path class="cls-7" d="M409.52,234.07c4.5-3.17,7.59-4.06,10.9-3.38"/><g class="cls-8"><path class="cls-9" d="M17.55,201.39A4.57,4.57,0,0,1,19,202.87a16.24,16.24,0,0,1,2.25,7.95h0A7.1,7.1,0,0,1,20.7,214a2.74,2.74,0,0,1-.29.46c-1.75,2.31-8.71,2.51-11,3.64C7.59,219,1.19,206.69.15,194.43a31.9,31.9,0,0,1,.48-9.35C2.53,176.23,14.32,199.5,17.55,201.39Z"/><path class="cls-10" d="M244,226.73s-15.85,23-42.5,24.78c-4.6.31-10.83-.75-18-2.71-34.34-9.4-90.11-39.57-90.11-39.57-11.7,2.73-71.48,5.55-71.48,5.55-.45-.24-.85-.49-1.24-.73a11.5,11.5,0,0,1-3.11-2.87,6.53,6.53,0,0,1,0-7.81l1.36-.5c9.16-3.42,62.09-23,72.74-23.56h.71c9.52.41,75.56,19.23,80.59,18.88,3.09-.23,13.34.36,20.8.85,4.69.31,8.28.58,8.28.58Z"/><path class="cls-11" d="M56.6,213.52a1.13,1.13,0,0,1-.64-.35C45,201.83,47.9,192.17,48,191.78a1.19,1.19,0,0,1,1.49-.81h0a1.2,1.2,0,0,1,.8,1.51h0c-.11.37-2.49,8.75,7.36,19a1.22,1.22,0,0,1-.13,1.72,1.19,1.19,0,0,1-1,.28Z"/><path class="cls-11" d="M40.81,193.5c-.71.33-1,1.37-.88,2.38a1.74,1.74,0,0,0,1.87,1.63h.06c3.89-.41,7.59-1.78,11.44-2.45,4.19-.72,6.76-2.09,9.2-1.63A9.64,9.64,0,0,1,66.08,195a.89.89,0,0,0,1.24-.26.91.91,0,0,0,.1-.8,15.22,15.22,0,0,0-1.26-2.6,3.23,3.23,0,0,1-.7-1.78,2.79,2.79,0,0,1,1.41-1.93A22.66,22.66,0,0,1,69.54,186a.69.69,0,0,0,.28-.92.72.72,0,0,0-.48-.35,9.4,9.4,0,0,1-1.81-.53S44.15,191.94,40.81,193.5Z"/><path class="cls-12" d="M113.28,219.34a95.29,95.29,0,0,1-25.8-14.11"/><path class="cls-13" d="M3.09,185.9a58.3,58.3,0,0,0,8.18,31.87"/><path class="cls-9" d="M18.12,212.74a4.67,4.67,0,0,1,1.42,1.48,16.23,16.23,0,0,1,2.24,7.95h0a7.29,7.29,0,0,1-.53,3.23,3.4,3.4,0,0,1-.28.45c-1.75,2.32-8.71,2.52-11,3.64-1.82.89-8.23-11.45-9.26-23.71a32.24,32.24,0,0,1,.47-9.35C3.1,187.61,14.91,210.85,18.12,212.74Z"/><path class="cls-10" d="M244.58,238.08s-15.85,23-42.51,24.79c-4.59.31-10.82-.76-18-2.72C149.74,250.76,94,220.59,94,220.59c-11.7,2.72-71.49,5.55-71.49,5.55l-1.24-.73a12,12,0,0,1-3.11-2.88,6.48,6.48,0,0,1,0-7.8l1.36-.51c9.16-3.42,62.09-23,72.74-23.55a4.09,4.09,0,0,1,.7,0c9.53.41,75.56,19.23,80.59,18.88,3.1-.23,13.35.36,20.81.85,4.69.31,8.27.58,8.27.58Z"/><path class="cls-11" d="M57.17,224.88a1.19,1.19,0,0,1-.64-.35c-10.93-11.35-8.06-21-7.94-21.4a1.22,1.22,0,0,1,2.33.73c-.11.36-2.49,8.74,7.36,19a1.22,1.22,0,0,1-1.11,2Z"/><path class="cls-11" d="M41.38,204.85a2.3,2.3,0,0,0-.88,2.39,1.75,1.75,0,0,0,1.86,1.63h.07c3.88-.41,7.59-1.78,11.44-2.44,4.18-.73,6.76-2.1,9.2-1.63a9.41,9.41,0,0,1,3.57,1.55.9.9,0,0,0,1.25-.24.93.93,0,0,0,.1-.81,15,15,0,0,0-1.27-2.61A3.29,3.29,0,0,1,66,200.9,2.78,2.78,0,0,1,67.44,199a21.47,21.47,0,0,1,2.67-1.64.69.69,0,0,0,.28-.92.72.72,0,0,0-.48-.35,9.4,9.4,0,0,1-1.81-.53S44.72,203.3,41.38,204.85Z"/><path class="cls-12" d="M113.85,230.69A94.9,94.9,0,0,1,88,216.59"/><path class="cls-13" d="M3.65,197.23a58.4,58.4,0,0,0,8.19,31.87"/><path class="cls-3" d="M170.05,194.23c-.53-.06-8.21-.7-7.55.12s5.63,1.79,5.63,1.79l-1.94.43s.37,1.25,1.33,1.18,7,1,8.9,2.21S173.61,194.64,170.05,194.23Z"/><path class="cls-3" d="M184.91,194.79s-.2,4.85-2.38,6.93-8.29,1.51-12.06,3.71-2.66-1.11-1.77-1.77,5-1.46,6.07-3.16-2.25-3.51-4.21-4.21-11.82-3.72-12.26-5.27,6.54.57,6.54.57-7.06-3.14-7.24-4.73,10.74,4,10.74,4,5.3,1.66,8.06,1.57S184.91,194.79,184.91,194.79Z"/><path class="cls-3" d="M251.74,180.57l-24,7.43a6,6,0,0,1-2.73.54l-40.31-1.71-3.87,6.22L222,201.23a20.74,20.74,0,0,0,9.56-.35l22-6.12Z"/><path class="cls-9" d="M176,180.86c-.62-3.08-.91-6.56-3.29-8.61a9.56,9.56,0,0,0-5.92-1.88c-13.07-.56-24.93,8.91-31,20.49s-7.45,25-8.43,38c-.18,2.47-.34,5,.58,7.35a15.53,15.53,0,0,0,4.39,5.49,128.37,128.37,0,0,0,77.3,32.53c-7.09-8.15-13.73-16.8-18.47-26.51s-9-20.47-8-31.22c.32-3.41-.66-9,1.64-11.52,1.69-1.86,9.79-.09,9-2.22-.47-1.24-1.22-5.62-2.59-6.85C186.37,191.59,177.3,187.23,176,180.86Z"/><path class="cls-3" d="M141.14,194.12a98.37,98.37,0,0,0,19.77,17.45,62.73,62.73,0,0,0,24.29,9.66l-.1.65A63,63,0,0,1,160.59,212a98.92,98.92,0,0,1-19.77-17.61Z"/><path class="cls-3" d="M136.42,189.31a.28.28,0,0,1,.37-.09l.13.08.17.14.31.29.56.59,1.1,1.2-.51.43-1-1.27-.5-.62-.27-.29-.12-.12h0s.07.07.18-.09Z"/><polygon class="cls-3" points="170.39 256.3 173.18 266.22 172.54 266.41 169.97 256.4 170.39 256.3"/><path class="cls-3" d="M177.77,184.7a20.33,20.33,0,0,0-5.5,6,36.65,36.65,0,0,0-3.51,7.44l-.67,2c-.22.65-.35,1.33-.53,2a36.63,36.63,0,0,0-.89,4c-.21,1.37-.46,2.72-.64,4.09l-.35,4.12a40.61,40.61,0,0,0-.15,4.13v4.13l.23,4.14c.1,1.37.09,2.76.3,4.12.34,2.74.58,5.5,1,8.22l1.43,8.16-.66.13-1.4-8.19c-.43-2.74-.66-5.51-1-8.26-.2-1.37-.19-2.77-.28-4.15l-.22-4.15v-4.16a38.48,38.48,0,0,1,.17-4.16l.36-4.15c.18-1.37.44-2.74.66-4.11a37.76,37.76,0,0,1,.91-4.06c.19-.67.31-1.36.54-2l.69-2a37.57,37.57,0,0,1,3.58-7.52L173,188.7c.42-.56.89-1.08,1.33-1.62a15.75,15.75,0,0,1,3.15-2.78Z"/><path class="cls-3" d="M150.82,221.23a172.25,172.25,0,0,0,.57,34.43l-.66.07a174.2,174.2,0,0,1-.34-34.55Z"/><path class="cls-3" d="M175.3,177.23a18.92,18.92,0,0,0-5.39,2.6c-.86.54-1.63,1.21-2.43,1.83s-1.48,1.38-2.23,2.06a39.71,39.71,0,0,0-6.94,9.95,26.73,26.73,0,0,0-1.33,2.75l-1.17,2.81c-.42.93-.67,1.92-1,2.88l-.9,2.92c-.47,2-1,3.95-1.41,5.94l-1,6-.66-.09,1.06-6.06c.45-2,1-4,1.45-6l1-2.93a27.59,27.59,0,0,1,1-2.9l1.18-2.84a28.39,28.39,0,0,1,1.35-2.77,40.32,40.32,0,0,1,7.08-10c.76-.7,1.48-1.43,2.28-2.09a27.76,27.76,0,0,1,2.47-1.84,19.24,19.24,0,0,1,5.57-2.68Z"/><path class="cls-3" d="M172.75,172.46a29.72,29.72,0,0,0-10.36,3.47,38.72,38.72,0,0,0-8.79,6.57,47.41,47.41,0,0,0-6.79,8.66,62.11,62.11,0,0,0-4.82,9.91,89.3,89.3,0,0,0-5.08,21.44,152.24,152.24,0,0,0-.92,22.08h-.67a152.11,152.11,0,0,1,1-22.17,89.41,89.41,0,0,1,5.16-21.57,62.9,62.9,0,0,1,4.88-10,48,48,0,0,1,6.89-8.73c5.29-5.17,12-9.15,19.47-10.12Z"/><path class="cls-3" d="M128.39,219a89.24,89.24,0,0,0,12.11,8.58A77.12,77.12,0,0,0,153.91,234a48.61,48.61,0,0,0,14.45,3,36.94,36.94,0,0,0,7.35-.49,33.19,33.19,0,0,0,7-2.17l.28.61a34.12,34.12,0,0,1-7.19,2.19,37.62,37.62,0,0,1-7.49.47,49.06,49.06,0,0,1-14.61-3.09,76.65,76.65,0,0,1-13.43-6.5,91.13,91.13,0,0,1-12.14-8.68Z"/><path class="cls-3" d="M159,171.06a43.37,43.37,0,0,0,3.74,10.84,70.51,70.51,0,0,0,5.86,9.91c1.13,1.55,2.26,3.11,3.5,4.57s2.51,2.92,3.8,4.34,2.7,2.73,4,4.1,2.86,2.57,4.29,3.86l-.44.5c-1.43-1.3-2.88-2.58-4.29-3.9s-2.77-2.7-4.06-4.15-2.61-2.85-3.79-4.38-2.38-3.06-3.51-4.63a70.43,70.43,0,0,1-5.85-10,44.22,44.22,0,0,1-3.73-11Z"/><path class="cls-11" d="M293.85,176l-1.09,2.47-16.69,38-26-13.32s-8.1,1.15-11.38-8.73a1.62,1.62,0,0,0-.13-.39c-1.14-3.64-.85-8.28.34-12.57a31,31,0,0,1,1.48-4.08c2.62-5.85,7-9.86,11.36-7.34C260,174.78,293.85,176,293.85,176Z"/><path class="cls-10" d="M255.75,225a58,58,0,0,1,30.49,2.18c5.23,1.84,10.23,4.45,15.67,5.53,4.81,1,10.24.47,14.08-2.43-.1-.82-.21-1.65-.34-2.51-1.56-10.17-5.18-22.52-8.23-31.89-2.71-8.32-5-14.27-5-14.27a21.52,21.52,0,0,0-10.51-7.14,17.37,17.37,0,0,1-5.63,7.12c-4.49,3.38-10,5.19-14.55,8.5-4.38,3.19-7.66,7.62-11.5,11.46-10.53,10.52-25.23,16.31-40.06,17.6-14.48,1.26-24.64,0-38.34-4.93,0,.22-.08,4-.07,7.09a3.74,3.74,0,0,0,2.45,3.51c19.29,7.13,36.73,8.81,57,4C246,227.6,250.82,226,255.75,225Z"/><path class="cls-11" d="M260.18,201.54c3.84-3.84,7.12-8.27,11.5-11.46,4.55-3.31,10.06-5.12,14.55-8.5a17.37,17.37,0,0,0,5.63-7.12c-8.68-2.76-19.52-1.13-29.57,2.43-12.31,4.34-23.42,11.6-27.87,17.28-9.84,12.5-32,.88-32,.88s-6.08-13.77-15.75-9.52a13.62,13.62,0,0,0-2.89,1.72c-3,2.35-4.92,8.64-5.81,16.77-.22,1.88-.39,3.85-.48,5.9h0a3.64,3.64,0,0,0,2.5,3.67c12.93,4.33,26.61,6.71,40.18,5.53C234.91,217.85,249.65,212.06,260.18,201.54Z"/><path class="cls-11" d="M316,241.23a36.22,36.22,0,0,0,0-11c-3.84,2.9-9.27,3.39-14.08,2.43-5.44-1.08-10.44-3.69-15.67-5.53A58,58,0,0,0,255.78,225c-4.93,1-9.71,2.61-14.6,3.78-19.6,4.69-40.32,1.87-59.4-4.88a3.1,3.1,0,0,0-4,1.86,3.17,3.17,0,0,0-.18,1.22h0v.5c1.23,18.28,5.46,36.64,11.64,40.87l.54.36c17.93,11.82,50.07,8.24,77.44-.1C293,260.78,314.47,248.71,316,241.23Z"/><path class="cls-10" d="M262.56,214.28a1.61,1.61,0,0,0-.49.13A4.43,4.43,0,0,0,262.56,214.28Z"/><path class="cls-11" d="M312.84,211.63c-.46-1.44-1.2-5.84-2-7.12-.93-1.45-2.62,1.64-3.93.51l-10.76-9.2q4.83-1.53,9.56-3.34a65.3,65.3,0,0,1-2.54-7.61c-11.51.12-19.8,4.4-26.86,15.24a83.43,83.43,0,0,1-5.1,7.52,30,30,0,0,1-4.36,4,1.16,1.16,0,0,0-.2,1.64,1.15,1.15,0,0,0,1,.45h.06a83,83,0,0,1,22.54,5.41h0c2.25.93,4.54,1.79,7,2.57a24,24,0,0,0,9.33,1.52c2.28-.2,5.11-1.14,6.59-3C314.79,218.1,313.59,214,312.84,211.63Z"/><path class="cls-3" d="M304.28,213.58c-3.13.44-10.54-1.28-16-4.13-1.23-.64-4.5-2.89-5-4.18a3.66,3.66,0,0,1,0-2.4c1.38-5,6-8.19,10.49-10.78a8.26,8.26,0,0,1,2.9-1.22,5.84,5.84,0,0,1,3,.48c3,1.21,6,1.92,7.66,4.62,1.53,2.42,3.94,8.91,3.81,11.89S306.91,213.23,304.28,213.58Z"/><path class="cls-11" d="M293.91,254.7c-2,1.66-24.39,23.24-34,26.91-4.17,1.59-10-1.18-15.23-5.48a50.9,50.9,0,0,1-6.29-6.08,34.86,34.86,0,0,1-6.32-9.68,7.28,7.28,0,0,1-.56-3.63c1.29-7.1,11-4.93,11-4.93l14.6-11.21S295.71,251.9,293.91,254.7Z"/><path class="cls-11" d="M256.91,180.6c-.49-1.13-.75-2.34-1.13-3.5a19,19,0,0,0-10.09-11.3c-2.35-1.06-4.93-1.66-7-3.16a8.63,8.63,0,0,1-2.3-2.44c-.33,3,1,6,2.76,8.5a8.56,8.56,0,0,0,2.52,2.53,14.34,14.34,0,0,0,3.56,1.25,13,13,0,0,1,7.57,5.07,26,26,0,0,0,1.61,2.68,18.43,18.43,0,0,0,4.07,3.28C258.71,183,257.18,181.23,256.91,180.6Z"/><path class="cls-11" d="M278.61,259.51c1.06.62,4.12,3,5.12,3.71a19.07,19.07,0,0,0,14.82,3.13c2.52-.53,5-1.58,7.53-1.6a8.68,8.68,0,0,1,3.3.59c-1.52-2.63-4.36-4.26-7.26-5.2a8.86,8.86,0,0,0-3.53-.55,14.69,14.69,0,0,0-3.6,1.1,13,13,0,0,1-9.1.39c-1-.37-1.89-.92-2.9-1.19"/><polygon class="cls-10" points="304.24 204 302.55 205.04 302.35 204.72 303.89 203.52 304.24 204"/><path class="cls-3" d="M189.72,255.56s-7.82,3.55-6.24,4.44,8.58-1.34,8.58-1.34Z"/><path class="cls-3" d="M194.47,257.77a2.08,2.08,0,0,1-.59.43c-2.69,1.44-9.22-.52-9.87-.73H184s-6.88.73-7.62-.06,6.19-2,6.19-2l-.29-1.92s-6.51-1.24-7.07-3.19,8.26.65,8.26.65l-.36-1.86s-6.92-4.34-6.78-5.92c.06-.76,1.89,0,3.75,1s4,2.34,4,2.34a49.48,49.48,0,0,1-4.2-4.95,2.23,2.23,0,0,1-.54-1.27c.25-1.07,4.61,3.43,8.21,5.22s7.45,3.87,7.45,3.87,1.08,3.8.44,6.55A3.87,3.87,0,0,1,194.47,257.77Z"/><path class="cls-3" d="M191.63,258.23l59.72,11.29a5,5,0,0,0,2.34-.11l31.5-12.32-14.84-14.32-17.09,9L194,249"/><path class="cls-3" d="M270.35,242.76s25.46,8.12,14.84,14.32"/><path class="cls-14" d="M198.7,249.23s3.85,6.53-.26,10.32"/><path class="cls-10" d="M289.79,205a9.06,9.06,0,0,1,8.26,1.22l-.72.93a8.15,8.15,0,0,0-7.3-1.42Z"/><path class="cls-10" d="M286.82,203.05a7.39,7.39,0,0,0,2.89-1.8,5.5,5.5,0,0,0,1.48-2.89l1.16.21a6.52,6.52,0,0,1-2,3.38,8.42,8.42,0,0,1-3.34,1.83Z"/><path class="cls-10" d="M246.4,256.23c1.87-.38,3.66.14,5.34.14a5.26,5.26,0,0,0,2.37-.47,23.34,23.34,0,0,0,2.18-1.36l8.81-5.84.64,1-8.92,5.67a23.53,23.53,0,0,1-2.32,1.37,6.06,6.06,0,0,1-2.78.51c-1.83-.06-3.54-.57-5.17-.26Z"/><path class="cls-10" d="M251.28,181.53a90.75,90.75,0,0,1,18.7-7.62l.31,1.14a89.64,89.64,0,0,0-18.66,7.18Z"/><path class="cls-15" d="M314.69,236.93c-9.31,5.21-21,4.41-30.94.41-4.32-1.74-8.5-4.08-13.12-4.7-6.11-.82-12.16,1.46-18.11,3.1-23.94,6.58-49.45,2.86-73.71-2.46"/><path class="cls-15" d="M290.68,175.12c-11.68,1.27-21.39,9.25-30.1,17.12s-17.8,16.3-29.26,18.86a62.41,62.41,0,0,1-10.73,1.13c-4.26.2-8.53.37-12.79.26-10.89-.27-18.77-1.56-29-5.34"/><path class="cls-11" d="M267,211.12a14.12,14.12,0,0,0-5.45-.36,6.34,6.34,0,0,0-1.77.47,3.7,3.7,0,0,0-2.07,3.42,3.31,3.31,0,0,0,2.57,3,5,5,0,0,0,2.87-.5,13.76,13.76,0,0,0,3.58-2.25,11.65,11.65,0,0,1,2.63-2c.34-.15,1.31-.38,1.39-.74.2-1-1.29-.52-1.68-.46C268.36,211.78,267.76,211.32,267,211.12Z"/><path class="cls-3" d="M261.41,213.32a4.21,4.21,0,0,1,.78,3.13.82.82,0,0,1-.1.26.73.73,0,0,1-.5.23,2.71,2.71,0,0,1-2.43-1.22,2.46,2.46,0,0,1-.52-1.32,2.22,2.22,0,0,1,.51-1.5c.23-.28.83-1,1.24-.84S261.21,213,261.41,213.32Z"/><path class="cls-3" d="M261.16,214.29c1.58-.27,3.14-.59,4.69-1a.42.42,0,0,0,.27-.53.41.41,0,0,0-.49-.28c-1.55.37-3.12.69-4.69,1C260.41,213.57,260.63,214.38,261.16,214.29Z"/><path class="cls-3" d="M262.64,214.08a2.11,2.11,0,0,1,1,.74c.36.4.95-.19.59-.59a2.79,2.79,0,0,0-1.37-1,.43.43,0,0,0-.51.32.42.42,0,0,0,.29.49Z"/><path class="cls-3" d="M264.24,213.36a4.72,4.72,0,0,0,.39-1.05.42.42,0,0,0-.32-.5.41.41,0,0,0-.49.28,3.53,3.53,0,0,1-.31.84C263.26,213.41,264,213.84,264.24,213.36Z"/><path class="cls-11" d="M266.17,217.44l1.33,1c.43.32.85-.41.42-.72l-1.32-1C266.16,216.4,265.74,217.12,266.17,217.44Z"/><path class="cls-11" d="M261.59,218.76c-.26.68-.51,1.36-.72,2.05-.16.52.64.74.81.22.21-.69.45-1.37.72-2.05C262.6,218.48,261.79,218.26,261.59,218.76Z"/><path class="cls-11" d="M265.45,209.28a8.4,8.4,0,0,1,.44-1.48c.21-.5-.6-.72-.8-.22a7.57,7.57,0,0,0-.45,1.47C264.54,209.58,265.34,209.8,265.45,209.28Z"/><path class="cls-11" d="M259.85,209.68a8,8,0,0,0-1-1.44c-.35-.41-.94.19-.59.6a7.73,7.73,0,0,1,.85,1.26c.25.48,1,.06.72-.42Z"/><path class="cls-11" d="M255.83,215a13,13,0,0,1-1.48.4c-.52.12-.3.92.23.81a12.79,12.79,0,0,0,1.48-.4C256.54,215.67,256.35,214.83,255.83,215Z"/><path class="cls-16" d="M131.63,199.52l-31.72-7.29a27.83,27.83,0,0,0-5.82-.72A50.23,50.23,0,0,0,67.47,199"/><path class="cls-3" d="M179.32,240.23s-5.74.62-4.16,10l1.17,7.13s1,4.36,10.65,2.82l1.93-8.75-2.38-5.37Z"/><path class="cls-3" d="M339.7,151.93l-14.39-2.53s-42.71,7.5-39.2,27.47c1,5.67,24.13,24.87,24.13,24.87s4.44,3.11,9.19,2.69l11,.17,5.72-1.93,1.93-5.19,1.22-5.35L343,182.6Z"/><path class="cls-3" d="M339.7,151.93l-14.39-2.53s-42.71,7.5-39.2,27.47c1,5.67,24.13,24.87,24.13,24.87s4.44,3.11,9.19,2.69l11,.17,5.72-1.93,1.93-5.19,1.22-5.35L343,182.6Z"/><polygon class="cls-3" points="303.58 195.03 288.96 205.74 296.03 212.16 316.25 201.54 303.58 195.03"/><path class="cls-10" d="M331.05,180.55a8.59,8.59,0,0,0,.44-2.71,10.08,10.08,0,0,0-3-7.57,18,18,0,0,0-2.15-1.86,7.69,7.69,0,0,0-2.55-1,21.5,21.5,0,0,0-5.72-.23v-.73a21.55,21.55,0,0,1,6,.15,8.66,8.66,0,0,1,2.85,1.12,18.55,18.55,0,0,1,2.32,1.93,11,11,0,0,1,1.87,2.41,10.77,10.77,0,0,1,1.19,2.82,11.68,11.68,0,0,1,.36,3,10.53,10.53,0,0,1-.45,3Z"/><path class="cls-10" d="M321.42,153.34a6.28,6.28,0,0,1,1.83,5,6.12,6.12,0,0,1-.83,2.6,8.09,8.09,0,0,1-1.78,2,15.52,15.52,0,0,1-9.62,3.37,16.54,16.54,0,0,1-5.09-.77,15.55,15.55,0,0,1-2.38-1c-.36-.22-.75-.43-1.1-.66a3.21,3.21,0,0,0-1-.45c-.6-.14-1,.42-1.2,1.18a8.62,8.62,0,0,0,0,2.38,15.07,15.07,0,0,0,1.25,4.71l-.66.31a15.47,15.47,0,0,1-1.37-4.94,9.65,9.65,0,0,1,0-2.63,2.73,2.73,0,0,1,.62-1.32,1.67,1.67,0,0,1,1.51-.52,3.78,3.78,0,0,1,1.31.63c.36.22.71.4,1.06.61a14.79,14.79,0,0,0,2.25.93,15.34,15.34,0,0,0,4.81.68,14.48,14.48,0,0,0,9-3.24,7.32,7.32,0,0,0,1.54-1.74,5,5,0,0,0,.66-2.15,5.28,5.28,0,0,0-1.53-4.11Z"/><path class="cls-10" d="M292.91,174.75a10.55,10.55,0,0,0,1.38,1,6,6,0,0,1,1.28,1.33,6.7,6.7,0,0,1,.79,1.64,6,6,0,0,0,.53,1.37,1.25,1.25,0,0,0,.91.71,2,2,0,0,0,1.38-.48,2.92,2.92,0,0,0,.88-2.9,6.51,6.51,0,0,0-1.46-2.68,7.87,7.87,0,0,0-2.52-1.71,13.26,13.26,0,0,0-1.47-.59,2.19,2.19,0,0,0-1.24-.1,1.29,1.29,0,0,0-1,.92A1.59,1.59,0,0,0,292.91,174.75Zm-.11.11a2.46,2.46,0,0,1-.81-1.59,2.12,2.12,0,0,1,.9-1.79A2.59,2.59,0,0,1,295,171a8.54,8.54,0,0,1,1.77.52,6.45,6.45,0,0,1,4.16,5.83,5,5,0,0,1-1.39,3.34,3.43,3.43,0,0,1-1.66,1,2.21,2.21,0,0,1-2-.79,4.17,4.17,0,0,1-.82-1.77c-.13-.56-.21-1.06-.36-1.59a4.5,4.5,0,0,0-.67-1.48,11.44,11.44,0,0,0-1.17-1.24Z"/><path class="cls-10" d="M325.91,180.76a12.3,12.3,0,0,1-3.13-1.37,10.41,10.41,0,0,1-2.61-2.25,9.49,9.49,0,0,1-1-1.44,9,9,0,0,1-.67-1.64,10.72,10.72,0,0,1-.45-3.47l1.7.1a8.82,8.82,0,0,0,.25,2.94,8.72,8.72,0,0,0,.49,1.38,8.82,8.82,0,0,0,3,3.3,10.63,10.63,0,0,0,2.72,1.35Z"/><path class="cls-10" d="M314.15,162.29l-.78-.8c-.25-.28-.48-.59-.72-.88a7.43,7.43,0,0,1-1.08-2.07,4.63,4.63,0,0,1-.17-2.42,4.15,4.15,0,0,1,1.18-2.17l.76.84a3,3,0,0,0-.73,1.56,3.38,3.38,0,0,0,.22,1.75,5.87,5.87,0,0,0,1,1.64c.22.24.43.49.66.73l.73.69Z"/><circle class="cls-11" cx="310.49" cy="185.31" r="6.54" transform="translate(-26.9 315.36) rotate(-51.91)"/><polygon class="cls-10" points="308.91 203.11 299.62 208.17 299.25 207.53 308.35 202.13 308.91 203.11"/><path class="cls-17" d="M372,173.93a4.59,4.59,0,0,0,0-5.1,35.19,35.19,0,0,0-18.54-17.54,17.47,17.47,0,0,1,23.41-14.72,3.93,3.93,0,1,0,3.91,6.78,6.13,6.13,0,0,0,2.16-3.66c1.42-6-1.94-12.45-7.09-15.82s-11.7-4-17.79-3.09a30.68,30.68,0,0,0-14.46,6A22,22,0,0,0,335.5,140a34.16,34.16,0,0,0-.16,8.27,178.22,178.22,0,0,0,8.5,43.49c.45,1.37.91,3.37,1.94,4.44,1.25,1.32,2,.31,3.44-.58a101,101,0,0,0,8.94-6C363.77,185.33,368.8,180.23,372,173.93Z"/><path class="cls-9" d="M372,173.93a4.59,4.59,0,0,0,0-5.1,35.19,35.19,0,0,0-18.54-17.54,17.47,17.47,0,0,1,23.41-14.72,3.93,3.93,0,1,0,3.91,6.78,6.13,6.13,0,0,0,2.16-3.66c1.42-6-1.94-12.45-7.09-15.82s-11.7-4-17.79-3.09a30.68,30.68,0,0,0-14.46,6A22,22,0,0,0,335.5,140a34.16,34.16,0,0,0-.16,8.27,178.22,178.22,0,0,0,8.5,43.49c.45,1.37.91,3.37,1.94,4.44,1.25,1.32,2,.31,3.44-.58a101,101,0,0,0,8.94-6C363.77,185.33,368.8,180.23,372,173.93Z"/><path class="cls-18" d="M347.6,154.77a12.68,12.68,0,0,1,4.6,1.08,39.09,39.09,0,0,1,17.85,14.3,27.89,27.89,0,0,1-7.49,7.2"/><path class="cls-18" d="M369.91,170.38a29,29,0,0,0-22.3-3.46"/><path class="cls-9" d="M378.77,181.16c6.63,2.23,14.55-1.22,17.83-7.41s1.86-14.37-3-19.44c.48,1.94-2.14,3.58-4,2.73s-2.48-3.2-2-5.15a6.8,6.8,0,0,1,6.5-5.13,9.81,9.81,0,0,1,4.58,1.43c5.25,3,8.32,8.55,10.46,14.18,2,5.17,2.36,8.7,1.91,15.13-.35,4.93-2.77,10.82-7.76,16.09-3.42,3.61-8.85,6.42-13.61,7.88-6,1.83-14.91,1.9-17.86,1.56-6.6-.75-12.53-4.25-18.22-7.67a19.85,19.85,0,0,0,5,17.84c-1.67.86-3.62-.41-5-1.73a32.59,32.59,0,0,1-5.23-6.7,9,9,0,0,0-3.29-3.74,28.17,28.17,0,0,1-8.49-11.7c-1-2.64,2.16-1.93,3.1-4.6.84-2.39-1-7.91,1.19-9.23a20.29,20.29,0,0,1,11.1-3c2.61.07,5.17.66,7.76.89s5.47-.86,8-.37c1.94.39,2.49,2,3.74,3.38A18,18,0,0,0,378.77,181.16Z"/><path class="cls-3" d="M346.82,132.23a28.86,28.86,0,0,1,8.45-4.79,30,30,0,0,1,6.3-1.29c5.08-.47,10.38,0,14.11,4a8,8,0,0,0-4.16-1.35c-4.2-.49-8.62-.54-12.45,1.23a17.58,17.58,0,0,0-8.4,9.15,35.08,35.08,0,0,0-2.48,12.39l-5-6.27c-1.32-1.67-2.46-3.53-2.24-5.75C341.23,137.17,343.64,135,346.82,132.23Z"/><path class="cls-17" d="M341.71,143.5a21.4,21.4,0,0,1,3.9-7.38,24.29,24.29,0,0,1,6.34-5.48,25.45,25.45,0,0,1,7.74-3.13,22.44,22.44,0,0,1,8.29-.29h0a22.17,22.17,0,0,0-8.19.61,24.91,24.91,0,0,0-7.48,3.29,28.84,28.84,0,0,0-6.06,5.45,30.47,30.47,0,0,0-4.45,6.88h0a.06.06,0,0,1,0,.07A.06.06,0,0,1,341.71,143.5Z"/><path class="cls-3" d="M362,194.4a29.06,29.06,0,0,0,12.32,3.21,29.58,29.58,0,0,0,6.35-.72c6.55-1.35,13.06-4.26,17.16-9.54a32.31,32.31,0,0,0,3.28-5.48c1.68-3.42,3.14-7.14,2.76-10.93a23.67,23.67,0,0,0-2.33-7.19,18.28,18.28,0,0,1-1.22,13.48,21,21,0,0,1-9.88,9.42,29.85,29.85,0,0,1-5.44,1.86,24.63,24.63,0,0,1-5.25.82c-6.56.19-12.6-3.38-17.88-7.26q-4.53-3.33-8.73-7.08a2.1,2.1,0,0,0-1.29-.68,1.88,1.88,0,0,0-.84.26c-2.29,1.08-4.78,2.37-5.7,4.73a6.36,6.36,0,0,0,.36,5,13.38,13.38,0,0,0,3.2,4c1.21,1.13,1.3.23,2.44.08s2,.73,3.1,1.43A65.33,65.33,0,0,0,362,194.4Z"/><path class="cls-17" d="M400,181a27.58,27.58,0,0,1-11.33,10.89,27,27,0,0,1-7.55,2.57,29.94,29.94,0,0,1-4,.4,29.61,29.61,0,0,1-4-.18,27.61,27.61,0,0,1-3.94-.73c-.33-.08-.65-.16-1-.27l-1-.29c-.63-.24-1.27-.45-1.88-.72a26.5,26.5,0,0,1-6.84-4.18c-1-.85-2-1.75-3-2.66s-1.92-1.83-2.84-2.78-1.85-1.9-2.75-2.87-1.76-2-2.59-3h.06c.92.94,1.85,1.88,2.8,2.8s1.9,1.83,2.88,2.72c2,1.78,3.88,3.59,5.93,5.21a28.8,28.8,0,0,0,3.2,2.26c.27.17.55.34.84.5s.56.32.85.47c.58.29,1.16.59,1.76.84l1.81.73.93.31c.31.11.62.2.94.28a26,26,0,0,0,3.83.79,26.62,26.62,0,0,0,7.82-.1,26.1,26.1,0,0,0,7.45-2.41A27.24,27.24,0,0,0,399.91,181Z"/><path class="cls-19" d="M336.91,168.05c-2.07-4.42-5.13-8.46-10.93-13.4a9.77,9.77,0,0,1-3.71-7.64c.23-3.91,4.37-6.79,4.48-10.71a16.44,16.44,0,0,1,0-3.29c.25-1.07,1.43-2,2.4-1.55a2.38,2.38,0,0,1,1,1.42,16,16,0,0,1,.6,8.14,10.28,10.28,0,0,1,4.56-4.79,4.5,4.5,0,0,1,3.4-.53,2.21,2.21,0,0,1,1.49,2.73v0a9.14,9.14,0,0,1,3.27-1.81,3.19,3.19,0,0,1,3.38,1,3.91,3.91,0,0,1,.55,1.88,11,11,0,0,1-1.33,6.19c.81-1,2.58-.58,3.29.5a5.22,5.22,0,0,1,.4,3.76,20.11,20.11,0,0,1-2.59,6.82,10.88,10.88,0,0,1,8.76,1.18,1.39,1.39,0,0,1,.56.54,1.33,1.33,0,0,1-.37,1.32c-1.12,1.37-2.84,2.11-4.07,3.38a6.6,6.6,0,0,0-1.7,5.73,5,5,0,0,1,6.66-1,6.77,6.77,0,0,1,2.69,6.53,4.11,4.11,0,0,1-2.27,3.43,3.42,3.42,0,0,1-3.6-1.12,6.88,6.88,0,0,1-1.44-3.68,19.12,19.12,0,0,1-3,10.65,15.08,15.08,0,0,1,6.55,5.13,2,2,0,0,1,.5,1.67c-.21.67-1,.93-1.67,1.09a66.8,66.8,0,0,1-10,1.58,19.92,19.92,0,0,1,5.91,12.08c-2,.83-4.28.1-6.27-.74a63,63,0,0,1-6.88-3.43,25.88,25.88,0,0,1-4.52,14.8,23.37,23.37,0,0,1-6.47-27.07,3.31,3.31,0,0,1,1-1.47,3.75,3.75,0,0,1,2.42-.36c2,.16,5,1,6.53-.69,1.36-1.56,1.9-6.11,1.81-8C338.06,173.59,338.27,172.52,336.91,168.05Z"/><path class="cls-3" d="M326.2,149.1l2.4,1.52a20.31,20.31,0,0,1,2.31,1.61l2.23,1.77a10.49,10.49,0,0,1,1,1l1,1a30.31,30.31,0,0,1,6.43,9.35,30.84,30.84,0,0,1,2.55,11.07,33,33,0,0,1-.31,5.71c-.15.94-.35,1.88-.59,2.8l-.65,2.74a.44.44,0,0,1-.5.31.41.41,0,0,1-.3-.5h0l.67-2.75c.24-.9.44-1.8.59-2.72a33.35,33.35,0,0,0,.34-5.56A30.15,30.15,0,0,0,341,165.62a29.36,29.36,0,0,0-6.25-9.2l-1-1a7.87,7.87,0,0,0-1-1l-2.18-1.76a20.11,20.11,0,0,0-2.3-1.6l-2.31-1.5h0a.26.26,0,0,1,0-.38.27.27,0,0,1,.32-.07Z"/><path class="cls-3" d="M343,171.74a9.25,9.25,0,0,1,.47-4.3,11.75,11.75,0,0,1,2-3.84,12.23,12.23,0,0,1,3.29-2.83,3,3,0,0,1,1.13-.4,1.61,1.61,0,0,1,1.28.38,1.29,1.29,0,0,1,.41.64,1.17,1.17,0,0,1-.09.78,1.26,1.26,0,0,1-1.28.73h0a.41.41,0,0,1-.36-.46.4.4,0,0,1,.46-.36h0a.49.49,0,0,0,.44-.27.39.39,0,0,0-.12-.48,1.3,1.3,0,0,0-1.53.09A11.06,11.06,0,0,0,346,164a11.37,11.37,0,0,0-2,3.6,8.67,8.67,0,0,0-.51,4h0a.28.28,0,0,1-.23.3A.26.26,0,0,1,343,171.74Z"/><path class="cls-3" d="M341.05,165.33a16.42,16.42,0,0,1-.78-5.11,13.51,13.51,0,0,1,1-5.1,10.77,10.77,0,0,1,1.29-2.29,5.06,5.06,0,0,1,2-1.81,2.53,2.53,0,0,1,2.81.44,1.66,1.66,0,0,1,.47,1.54,1.42,1.42,0,0,1-.23.44,1,1,0,0,1-.48.29.86.86,0,0,1-1-.43.41.41,0,1,1,.75-.35H347c.08,0,.08,0,.12-.15a.89.89,0,0,0-.26-.79,1.76,1.76,0,0,0-1.94-.29,4.41,4.41,0,0,0-1.74,1.55,9.83,9.83,0,0,0-1.23,2.13,12.59,12.59,0,0,0-1,4.84,15.6,15.6,0,0,0,.68,4.94.27.27,0,0,1-.18.33.26.26,0,0,1-.34-.11A.19.19,0,0,1,341.05,165.33Z"/><path class="cls-3" d="M337.16,158.93a7.18,7.18,0,0,1-1.13-2.88,12.05,12.05,0,0,1,0-3.06,30.3,30.3,0,0,1,.51-3,23,23,0,0,1,.74-2.94,9,9,0,0,1,3.5-5,3.07,3.07,0,0,1,1.62-.48,2.21,2.21,0,0,1,1.61.75,1.7,1.7,0,0,1,.38.88,1.43,1.43,0,0,1-.26,1,1.65,1.65,0,0,1-.77.61,1.28,1.28,0,0,1-1.08-.1h0a.41.41,0,0,1-.15-.56h0a.42.42,0,0,1,.57-.13h0c.17.14.55,0,.75-.27a.66.66,0,0,0,.13-.43.87.87,0,0,0-.2-.46,1.44,1.44,0,0,0-1-.49,2.26,2.26,0,0,0-1.22.36,8.46,8.46,0,0,0-3.24,4.58,23.47,23.47,0,0,0-.76,2.85c-.21,1-.41,1.94-.53,2.92a10.83,10.83,0,0,0,0,2.9,6.47,6.47,0,0,0,1,2.67.27.27,0,0,1,0,.38.26.26,0,0,1-.38,0,.18.18,0,0,1-.05-.07Z"/><path class="cls-3" d="M333.24,154.76a9.47,9.47,0,0,1-1.57-3.26c-.16-.58-.29-1.16-.41-1.74a8,8,0,0,1-.2-1.83,4.13,4.13,0,0,1,1.8-3.28,2.25,2.25,0,0,1,1-.37,1.28,1.28,0,0,1,1.16.43,1.19,1.19,0,0,1,0,1.28,1,1,0,0,1-.55.46,1,1,0,0,1-.69,0,.41.41,0,0,1,.21-.79h0c.18,0,.18,0,.28-.08a.3.3,0,0,0,0-.39.54.54,0,0,0-.44-.13,1.55,1.55,0,0,0-.66.24,3.42,3.42,0,0,0-1.52,2.66,13.82,13.82,0,0,0,.51,3.38,8.87,8.87,0,0,0,1.4,3.1.27.27,0,0,1-.05.37.26.26,0,0,1-.37-.05Z"/><path class="cls-3" d="M328.45,151.1a14.92,14.92,0,0,1-1.19-3.62,3.74,3.74,0,0,1-.11-1,1.63,1.63,0,0,1,.42-1.09,1.12,1.12,0,0,1,1.29-.3,1.1,1.1,0,0,1,.51.51.85.85,0,0,1,0,.82.41.41,0,0,1-.55.16h0a.4.4,0,0,1-.15-.56.25.25,0,0,0-.13-.22.38.38,0,0,0-.41.12c-.31.29-.29.86-.18,1.46a13.42,13.42,0,0,0,1,3.51.26.26,0,0,1-.13.34h0A.26.26,0,0,1,328.45,151.1Z"/><path class="cls-3" d="M343.54,179.36a10.85,10.85,0,0,1,.46-3,5.3,5.3,0,0,1,1.49-2.68,2.53,2.53,0,0,1,3.16-.23,1.78,1.78,0,0,1,.56.74,1.11,1.11,0,0,1,.07.54,1.13,1.13,0,0,1-.24.52,1,1,0,0,1-1.08.36,1.61,1.61,0,0,1-.76-.6.4.4,0,0,1,.06-.58.41.41,0,0,1,.58.06h0a1.1,1.1,0,0,0,.35.33c.06,0,.1,0,.22-.1s0-.47-.25-.71a1.81,1.81,0,0,0-2.25.22,4.7,4.7,0,0,0-1.35,2.34,10.32,10.32,0,0,0-.51,2.81.27.27,0,0,1-.28.25A.25.25,0,0,1,343.54,179.36Z"/><path class="cls-18" d="M348.41,167.66a9.18,9.18,0,0,0-2.87,3.38"/><path class="cls-18" d="M345.21,158.23a9.46,9.46,0,0,0-2.61,4.21"/><path class="cls-18" d="M340.42,150.83a7.44,7.44,0,0,0-1.79,5"/><path class="cls-18" d="M334.22,152.32a5.44,5.44,0,0,1,.18-3.56"/><path class="cls-18" d="M329.61,149.52a7.12,7.12,0,0,1-.16-1.38"/><path class="cls-20" d="M347.15,177A2.2,2.2,0,0,0,346,178a5.91,5.91,0,0,0-.57,1.38"/><circle class="cls-21" cx="343.44" cy="130.93" r="1.27"/><circle class="cls-21" cx="347.55" cy="127.41" r="1.27"/><circle class="cls-21" cx="352.52" cy="124.83" r="1.27"/><circle class="cls-21" cx="357.44" cy="123.18" r="0.93"/><circle class="cls-21" cx="365.08" cy="178.6" r="1.66" transform="translate(-22.28 301.64) rotate(-43.69)"/><circle class="cls-21" cx="370.21" cy="182.6" r="1.3"/><circle class="cls-21" cx="375.37" cy="185.07" r="1.09"/><circle class="cls-21" cx="380.73" cy="185.49" r="0.86"/><circle class="cls-21" cx="385.63" cy="184.7" r="0.74"/><circle class="cls-21" cx="389.78" cy="183.73" r="0.57"/><path class="cls-11" d="M312.12,194.15c-2.73,3.24-4.75,16.52,5,26.3s17.83-1.33,13.36-5.17c-3-2.6-5.46-1.89-6.55.2a3.33,3.33,0,0,0,.61,4.67,3.21,3.21,0,0,0,.67.4s-2.84-.29-5.64-4.71-3.48-8.91-2-12.15c0,0,4.44,4.87,8.93,3.36s6.65-2.43,9.16.91c0,0-.49-5.15-3.13-6.26,0,0,3.31-9.29,13.84,3.08,0,0-4.77-17.53-19.22-17.71C327.18,187.07,318,187.12,312.12,194.15Z"/><path class="cls-3" d="M325.63,192.14h0a3.62,3.62,0,0,1,1.79,1.44,8.51,8.51,0,0,1,.94,2,3.86,3.86,0,0,1,.25,1,2.93,2.93,0,0,1-1.92,2.32,7.05,7.05,0,0,1-4,.56h-.1a6.05,6.05,0,0,1-1.45-.43L321,199a8.29,8.29,0,0,1-3.58-2.72,1.33,1.33,0,0,1,.29-1.87l.12-.08C319.72,193.14,323.53,191.23,325.63,192.14Z"/><path class="cls-10" d="M320.28,195.82a6.44,6.44,0,0,0,4,1.42,4.27,4.27,0,0,0,1-.12c.3-.09.44-.22.46-.38a1.73,1.73,0,0,0-.16-.81,1.1,1.1,0,0,0-.5-.56l.5-1a2.15,2.15,0,0,1,1,1.16,2.55,2.55,0,0,1,.17,1.47,1.33,1.33,0,0,1-.49.75,1.87,1.87,0,0,1-.71.34,5.11,5.11,0,0,1-1.29.1,7.25,7.25,0,0,1-4.52-1.8Z"/><path class="cls-3" d="M317.54,219.47a.16.16,0,0,1-.15-.16.15.15,0,0,1,.15-.15h0a.17.17,0,0,1,.16.15A.16.16,0,0,1,317.54,219.47Z"/><circle class="cls-3" cx="314.83" cy="216.18" r="0.26"/><path class="cls-3" d="M312.84,212.9a.35.35,0,0,1-.34-.35.34.34,0,0,1,.34-.34.34.34,0,0,1,.34.34h0A.35.35,0,0,1,312.84,212.9Z"/><path class="cls-3" d="M311.71,209a.43.43,0,0,1,0-.86.43.43,0,0,1,.43.43h0A.43.43,0,0,1,311.71,209Z"/><path class="cls-3" d="M311.47,204.74a.31.31,0,1,1,.31-.31h0A.31.31,0,0,1,311.47,204.74Z"/><path class="cls-10" d="M302.09,194.57a32.67,32.67,0,0,1-3.7,4.43l-.28-.26a31.67,31.67,0,0,0,3.49-4.5Z"/><path class="cls-22" d="M294.91,187.91c5.17,4.9,7.77,7.25,13.16,9.94"/><path class="cls-23" d="M287.53,176.35A9.14,9.14,0,0,1,288,174"/><path class="cls-23" d="M288.19,177.88a9.93,9.93,0,0,1,1.21-2.65"/><path class="cls-23" d="M288.61,179.16a5.41,5.41,0,0,1,1.68-1.72"/></g><path class="cls-24" d="M327.15,98.38h0l.3-.46h0c.1-.15.21-.28.32-.42a.12.12,0,0,0,.05,0l.34-.36.08-.07c.12-.1.23-.21.35-.3l.12-.09.34-.25.17-.1.33-.19.21-.1.31-.15.26-.1.3-.1.32-.08.26-.07.4-.06h.82a6.21,6.21,0,0,1,2.77.66,5.84,5.84,0,0,1,.68-.81,9.13,9.13,0,0,1,5.63-2.88,8.47,8.47,0,0,1,1.13-.07,9.7,9.7,0,0,1,1.86.19,2.13,2.13,0,0,1,.59.15,9.25,9.25,0,0,1,10.85-7.3,9.41,9.41,0,0,1,2.47.86,14,14,0,0,1-.37-2.42v-.94A14.71,14.71,0,0,1,376.91,68.7a15.21,15.21,0,0,1,.58-2.66,14.73,14.73,0,0,1,24.12-6.34c.18.16.35.33.52.5a22.2,22.2,0,0,1,4.54-3.27,21.94,21.94,0,0,1,26.56,4.36c.4.43.79.88,1.15,1.34a22.81,22.81,0,0,1,2,2.95,22,22,0,0,1,2,5,15.4,15.4,0,0,1,1.54-.08,14.8,14.8,0,0,1,13.26,8.32,9.15,9.15,0,0,1,3.2-.58,9,9,0,0,1,1.71.16,9.18,9.18,0,0,1,4.38,2.13c.2.18.4.36.59.56a9.21,9.21,0,0,1,2.48,5.09,9.26,9.26,0,0,1,12.67,3.28,9.55,9.55,0,0,1,.89,2,6.69,6.69,0,0,1,.2.77,9.65,9.65,0,0,1,2.45-.34,9.23,9.23,0,0,1,7.44,3.77,6.16,6.16,0,1,1,0,11,9.25,9.25,0,0,1-12.69,2.13,9.25,9.25,0,0,1-12.44,4,8.86,8.86,0,0,1-1.94-1.32,9.24,9.24,0,0,1-15.88,1.07A9.23,9.23,0,0,1,434.91,110a9.23,9.23,0,0,1-12.46,7.06,22,22,0,0,1-31.11-.7,21.77,21.77,0,0,1-3.33-4.53,9.21,9.21,0,0,1-9.8,1,9.25,9.25,0,0,1-15.88-1.07,9.21,9.21,0,0,1-14.42-2.68A9.23,9.23,0,0,1,335.22,107a6.16,6.16,0,0,1-8.09-8.6Z"/><ellipse class="cls-3" cx="333.97" cy="94.41" rx="9.43" ry="4.04"/><ellipse class="cls-3" cx="358.45" cy="80.72" rx="18.54" ry="5.97"/><ellipse class="cls-3" cx="388.02" cy="61.07" rx="31.05" ry="9.99"/></g></g></g></svg>