<svg id="Layer_1" data-name="Layer 1" xmlns="http://www.w3.org/2000/svg" viewBox="0 0 460.94 437.28"><defs><style>.blc2-2-bird2_1{fill:#367d75;}.blc2-2-bird2_2{fill:#304a63;}</style></defs><title>22</title><path class="blc2-2-bird2_2" d="M270.18,179.51c-2.8-1.23-21.18-2.67-25.09-2.63a15.31,15.31,0,0,0-7.22,2.15s-2.33-1.55-6.85-.39-5.17,4-5.17,4c2.54-1.51,7.45,1.15,7.45,1.15-2.27,5.44-.74,15.74-.74,15.74a30.85,30.85,0,0,0,8.16-2.9c.64,5,1.61,12,2.1,11.62.76-.6,1.64-3.29,1.64-3.29s.25,2.73.77,2.58,1.58-3.47,1.58-3.47.45,2.11,1.6,1.58.5-3.33.5-3.33l1.54,1.42c5-5.06,4.22-19.77,3.94-21.32a3,3,0,0,1,.4-1.83.56.56,0,0,1,.16-.07c1.2-.36,3.74,0,5.68-.38S273,180.73,270.18,179.51Zm-32.33,16.37a3.45,3.45,0,0,1-1.47-.3,2.37,2.37,0,0,1-1.27-1.41l.37-.11a2,2,0,0,0,1.06,1.17,3.26,3.26,0,0,0,1.66.25l0,.38Zm5-3.85a4.2,4.2,0,0,1-3.17,1.57,4.11,4.11,0,0,1-.77-.08,2.52,2.52,0,0,1-2.42-2.48,4.35,4.35,0,0,1,.37-2.35,2.29,2.29,0,0,1,2.43-1.23,1.82,1.82,0,0,1,1.26,1.22,1.5,1.5,0,0,1-.3,1.49l-1-.93s0-.08,0-.15a.44.44,0,0,0-.25-.28.93.93,0,0,0-.89.54,3.15,3.15,0,0,0-.21,1.61c.05.83.52,1.07,1.2,1.18l.1,0a3.36,3.36,0,0,0,3.08-.87,8.43,8.43,0,0,0,1.65-6.7c-.21-.65-.77-2-1.89-1.58-1.88.43-3.71,1.46-5.7,1.85a15.44,15.44,0,0,1,3.6-2.18,21.73,21.73,0,0,1,4-1.3,18.63,18.63,0,0,1,4.21-.42,12.07,12.07,0,0,1,4.16.81c-1.41.19-2.74.32-4.07.55l-1.28.23a10.32,10.32,0,0,1,2.72,3.7,15,15,0,0,1,.8,5.37,6.39,6.39,0,0,1-.36,2.43,2.94,2.94,0,0,1-2.07,1.87,2.61,2.61,0,0,1-.48.05,2.71,2.71,0,0,1-1.91-.83,3.31,3.31,0,0,1-.89-2.21,2.51,2.51,0,0,1,1.21-2.34,1.8,1.8,0,0,1,1.75.11,1.48,1.48,0,0,1,.72,1.3L247,192a.29.29,0,0,0-.14-.11.4.4,0,0,0-.32,0,1.15,1.15,0,0,0-.45,1.06,1.87,1.87,0,0,0,.5,1.28,1.25,1.25,0,0,0,1.11.39,1.67,1.67,0,0,0,1.23-.8,6.44,6.44,0,0,0,.45-2.13,12.72,12.72,0,0,0-.43-4.68,12.46,12.46,0,0,0-3.59-4.63l-1.55.33h0a6.45,6.45,0,0,1,.91,1.48C245.41,186.38,244.53,190.07,242.8,192Zm-.65-6a.83.83,0,0,0-.13-.25.91.91,0,0,0-.38-.24,2.82,2.82,0,0,0-1.47-.16l-.06-.38a3.21,3.21,0,0,1,1.68.19,1.23,1.23,0,0,1,.52.34,1.18,1.18,0,0,1,.21.37,1.88,1.88,0,0,1,.1,1,1.26,1.26,0,0,1-.57.85l-.19-.33a.87.87,0,0,0,.38-.59A1.36,1.36,0,0,0,242.15,186Zm7.31,12.77A5,5,0,0,1,248,199a9.35,9.35,0,0,1-1.53-.14,3.13,3.13,0,0,1-2.26-1.12l.33-.21a2.78,2.78,0,0,0,2,.95,6.63,6.63,0,0,0,2.8,0,3.82,3.82,0,0,0,2.53-2.42l.36.13A4.21,4.21,0,0,1,249.46,198.78Zm2.57-8.22a14.2,14.2,0,0,0-.33-3.37,5.61,5.61,0,0,0-1.61-2.86l.26-.29a6,6,0,0,1,1.72,3.05,14.7,14.7,0,0,1,.35,3.47Z"/><path class="blc2-2-bird2_2" d="M205.55,236.24c-.8-1.41-14.5-5.84-14.5-5.84,1.81-1.81,1.41-7.45,1.41-7.45a1.4,1.4,0,0,0,1.81-1.21c.21-1.61-5.63-2.54-5.63-2.54s2.21-1.89,2.41-2.7-6.64,1-6.64,1a8,8,0,0,0,1.41-3.63c0-1.61-4.64,1.62-4.64,1.62s2-4.84,0-4.23-4.23,8.86-4.43,11.07,3.43,4.84,3.43,4.84c-8.06-1.82-11.28,2.61-11.28,2.61s2.62.21,4.23.21,7.25,3.82,10.47,4.63,12.08-.61,12.08-.61S206.36,237.65,205.55,236.24Zm-20.64-15a3,3,0,0,1,2.86,3.75,1.43,1.43,0,0,1-.41.75,1.64,1.64,0,0,1-.86.37,1.72,1.72,0,0,1-1.58-.43,1.11,1.11,0,0,1-.2-1.11.86.86,0,0,1,.67-.59l.13.76s-.07.06-.08.09a.34.34,0,0,0,.05.33,1,1,0,0,0,.89.19.87.87,0,0,0,.46-.17.83.83,0,0,0,.19-.39A2.21,2.21,0,0,0,184.9,222a1.46,1.46,0,0,0-.62.12,2.26,2.26,0,0,0-.71.73,3,3,0,0,0-.74,1.67,3.14,3.14,0,0,0,.44,1.24,4.17,4.17,0,0,0,.79,1.2,4.28,4.28,0,0,0,1.28.7,25.06,25.06,0,0,0,3.46,1.25l-.19.75a26.42,26.42,0,0,1-3.56-1.29,4.67,4.67,0,0,1-1.51-.85,5,5,0,0,1-.95-1.4,3.61,3.61,0,0,1-.52-1.58,3.54,3.54,0,0,1,.88-2.14,2.76,2.76,0,0,1,1-1A1.9,1.9,0,0,1,184.91,221.23Zm-4.33-.14a.82.82,0,0,0-.19.53l-.38,0a1.11,1.11,0,0,1,.26-.79,3.63,3.63,0,0,1,1.86-1.28,7.56,7.56,0,0,1,2.2-.31v.39a7.42,7.42,0,0,0-2.1.28A3.22,3.22,0,0,0,180.58,221.09Zm8.51,10.71a20,20,0,0,1-7.3-1.63l.16-.35a19.79,19.79,0,0,0,7.15,1.6Zm.92-6.37-.37-.09a2.69,2.69,0,0,0-.65-2.41l.29-.26A3.09,3.09,0,0,1,190,225.43Z"/></svg>
