<svg id="Layer_1" data-name="Layer 1" xmlns="http://www.w3.org/2000/svg" xmlns:xlink="http://www.w3.org/1999/xlink" viewBox="0 0 1507.89 890.26"><defs><style>.blc2-1_1{fill:#367d75;}.blc2-1_2{fill:#9fa851;}.blc2-1_3{fill:none;stroke:#367d75;stroke-miterlimit:10;stroke-width:3.62px;}.blc2-1_4{fill:#e5af36;}.blc2-1_5{fill:#2f5f5b;}.blc2-1_6{fill:url(#lgblc2-1);}</style><linearGradient id="lgblc2-1" x1="1056.43" y1="516.01" x2="1057.09" y2="479.8" gradientUnits="userSpaceOnUse"><stop offset="0" stop-color="#3b6660" stop-opacity="0"/><stop offset="1" stop-color="#305051"/></linearGradient></defs><title>20</title><path class="blc2-1_2" d="M292.83,269.75c35.15,0,35.15-9.42,70.3-9.42s35.15,5.89,70.3,5.89,35.14-1.39,70.29-1.39,35.15-5.59,70.3-5.59,35.14-2,70.29-2,35.15,5.33,70.3,5.33,35.15,2.81,70.3,2.81,35.14-9.83,70.29-9.83,35.15,14.35,70.3,14.35,35.16,1.21,70.31,1.21c21.45,0,46.09,13.82,46.09,43,0,59.46-12.94,65.35-12.94,124.81s6.17,53.58,6.17,113c0,11.16-7.14,21.14-15.35,21.14-36.15,0-36.15,4.55-72.3,4.55s-36.16-13.4-72.31-13.4-36.15,3.15-72.31,3.15-36.15,8-72.3,8-36.16,5.41-72.31,5.41-36.15-18.92-72.31-18.92-36.15,1.57-72.3,1.57S477.48,579,441.33,579,405.17,566,369,566s-36.16,8.31-72.32,8.31c-19.69,0-41.21-23.85-41.21-50.63,0-54.79,2.37-54.79,2.37-109.58S263,359.29,263,304.5C263,280.63,275.28,269.75,292.83,269.75Z"/><path class="blc2-1_1" d="M881.82,234.34a246.19,246.19,0,0,0,29.5,42.86,229,229,0,0,0,37.9,35.42,209.19,209.19,0,0,0,21.78,14,187.11,187.11,0,0,0,23.4,10.85,169,169,0,0,0,24.67,7.12,156.53,156.53,0,0,0,25.41,2.78l-.21,9a165.58,165.58,0,0,1-26.95-3.34,179.76,179.76,0,0,1-25.88-7.89,196.37,196.37,0,0,1-24.27-11.71,216,216,0,0,1-22.39-14.85,235.56,235.56,0,0,1-38.52-37.08,253.27,253.27,0,0,1-29.58-44.39Z"/><path class="blc2-1_1" d="M979.71,253.21a99.35,99.35,0,0,0,14.36,16.87,77.42,77.42,0,0,0,8.5,7,72.61,72.61,0,0,0,9.49,5.58,92.5,92.5,0,0,0,20.81,7.29,75.43,75.43,0,0,0,21.81,1.8l.26,3.61a78.92,78.92,0,0,1-22.81-2.18,96.18,96.18,0,0,1-21.42-7.84,75.63,75.63,0,0,1-9.78-5.94,78.39,78.39,0,0,1-8.71-7.4,101.87,101.87,0,0,1-14.46-17.51Z"/><path class="blc2-1_3" d="M799.09,256.12s102.2,65.3,162.72,7.67"/><path class="blc2-1_1" d="M596.43,455.88a47.61,47.61,0,0,1,2.3-8.47,35.28,35.28,0,0,1,4.4-7.81l3.77,3a30.69,30.69,0,0,0-4.56,6.46,44.21,44.21,0,0,0-2.89,7.58Z"/><path class="blc2-1_1" d="M581.24,453.49a89,89,0,0,0-1.74-17.36l4.74-.73a92.57,92.57,0,0,1,.11,18.23Z"/><path class="blc2-1_1" d="M566.25,457.78a127.75,127.75,0,0,1-6.42-16l4.63-1.26a124.78,124.78,0,0,0,4.65,16.07Z"/><path class="blc2-1_1" d="M528.15,369.72a27.82,27.82,0,0,1,.73-4.88,20.47,20.47,0,0,1,2-4.66l2.3,1.42a18.12,18.12,0,0,0-2.13,3.9,24.75,24.75,0,0,0-1.11,4.43Z"/><path class="blc2-1_1" d="M519.51,369.38a50,50,0,0,0-2.11-9.59l2.6-.72a51.71,51.71,0,0,1,1.25,10.18Z"/><path class="blc2-1_1" d="M511.41,372.75a72.28,72.28,0,0,1-4.63-8.53l2.51-1a70.4,70.4,0,0,0,3.64,8.67Z"/><path class="blc2-1_1" d="M482.43,498.71a27.12,27.12,0,0,1,.72-4.89,20.59,20.59,0,0,1,2-4.65l2.3,1.42a18.12,18.12,0,0,0-2.13,3.9,25.63,25.63,0,0,0-1.11,4.43Z"/><path class="blc2-1_1" d="M473.78,498.37a49.27,49.27,0,0,0-2.11-9.59l2.61-.72a53.26,53.26,0,0,1,1.25,10.18Z"/><path class="blc2-1_1" d="M465.68,501.74a73.08,73.08,0,0,1-4.63-8.53l2.51-1a69.89,69.89,0,0,0,3.64,8.68Z"/><path class="blc2-1_1" d="M702.16,462.48a27.4,27.4,0,0,1,1.27-4.77,20.49,20.49,0,0,1,2.46-4.4L708,455a17.21,17.21,0,0,0-2.55,3.64,25.48,25.48,0,0,0-1.61,4.27Z"/><path class="blc2-1_1" d="M693.61,461.17a50.61,50.61,0,0,0-1-9.77l2.66-.41a51.66,51.66,0,0,1,.1,10.25Z"/><path class="blc2-1_1" d="M685.18,463.61a73.31,73.31,0,0,1-3.64-9l2.61-.72a69.6,69.6,0,0,0,2.64,9Z"/><path class="blc2-1_1" d="M725.78,336.66a27.29,27.29,0,0,1,1.51-4.7,20.51,20.51,0,0,1,2.68-4.27l2,1.77a17.46,17.46,0,0,0-2.73,3.51,25,25,0,0,0-1.83,4.18Z"/><path class="blc2-1_1" d="M717.31,334.92a50.21,50.21,0,0,0-.53-9.81l2.69-.28a52.3,52.3,0,0,1-.42,10.25Z"/><path class="blc2-1_1" d="M708.77,336.93a73.09,73.09,0,0,1-3.19-9.17l2.64-.59a68.79,68.79,0,0,0,2.19,9.15Z"/><path class="blc2-1_1" d="M639.48,395.12a28,28,0,0,1,.73-4.88,19.54,19.54,0,0,1,1.95-4.65l2.3,1.41a17.35,17.35,0,0,0-2.13,3.91,24.75,24.75,0,0,0-1.11,4.43Z"/><path class="blc2-1_1" d="M630.84,394.78a51,51,0,0,0-2.11-9.59l2.6-.71a51.62,51.62,0,0,1,1.25,10.18Z"/><path class="blc2-1_1" d="M622.74,398.16a72.48,72.48,0,0,1-4.64-8.54l2.51-1a70.71,70.71,0,0,0,3.65,8.67Z"/><path class="blc2-1_4" d="M290.54,402a28,28,0,0,1,.73-4.88,20.21,20.21,0,0,1,2-4.65l2.3,1.41a17.54,17.54,0,0,0-2.13,3.91,24.86,24.86,0,0,0-1.11,4.42Z"/><path class="blc2-1_4" d="M281.9,401.62a50.18,50.18,0,0,0-2.11-9.59l2.6-.71a51.62,51.62,0,0,1,1.25,10.18Z"/><path class="blc2-1_4" d="M273.8,405a71.5,71.5,0,0,1-4.63-8.53l2.5-1a70.71,70.71,0,0,0,3.65,8.67Z"/><path class="blc2-1_1" d="M555.25,289.21a28.07,28.07,0,0,1,.73-4.89,20.4,20.4,0,0,1,1.95-4.65l2.3,1.42a18.12,18.12,0,0,0-2.13,3.9,24.75,24.75,0,0,0-1.11,4.43Z"/><path class="blc2-1_1" d="M546.61,288.87a49.85,49.85,0,0,0-2.11-9.59l2.6-.72a51.71,51.71,0,0,1,1.25,10.18Z"/><path class="blc2-1_1" d="M538.51,292.24a73.08,73.08,0,0,1-4.63-8.53l2.51-1a69.89,69.89,0,0,0,3.64,8.68Z"/><path class="blc2-1_2" d="M613.76,266.75a50,50,0,0,1,3.21-8.5,36.76,36.76,0,0,1,5.32-7.61l3.58,3.45a32.13,32.13,0,0,0-5.34,6.19,46.31,46.31,0,0,0-3.73,7.53Z"/><path class="blc2-1_2" d="M598.35,262.77a91.67,91.67,0,0,0-.06-18.07l5-.27a95.77,95.77,0,0,1-1.72,18.79Z"/><path class="blc2-1_2" d="M582.47,265.68a132.15,132.15,0,0,1-5-17.14l4.9-.83a129.35,129.35,0,0,0,3.18,17Z"/><path class="blc2-1_2" d="M677.81,262.45a29,29,0,0,1,1.41-5.06,20.75,20.75,0,0,1,2.67-4.66l2.24,1.79a19.12,19.12,0,0,0-2.75,3.85,27,27,0,0,0-1.76,4.53Z"/><path class="blc2-1_2" d="M668.72,261a53.22,53.22,0,0,0-1-10.41l2.84-.41a55.34,55.34,0,0,1,0,10.92Z"/><path class="blc2-1_2" d="M659.72,263.46a76.83,76.83,0,0,1-3.78-9.62l2.78-.73a75.92,75.92,0,0,0,2.72,9.64Z"/><path class="blc2-1_2" d="M784.19,266.93a29,29,0,0,1,1.41-5.06,21.45,21.45,0,0,1,2.67-4.67l2.25,1.8a18.78,18.78,0,0,0-2.76,3.85,27,27,0,0,0-1.76,4.53Z"/><path class="blc2-1_2" d="M775.1,265.44a52.39,52.39,0,0,0-1-10.41l2.85-.42a55.33,55.33,0,0,1,0,10.92Z"/><path class="blc2-1_2" d="M766.1,267.94a79,79,0,0,1-3.78-9.62l2.78-.73a75.92,75.92,0,0,0,2.72,9.64Z"/><path class="blc2-1_4" d="M524.79,446.91a39.61,39.61,0,0,1,1.68-7.05,29.34,29.34,0,0,1,3.43-6.55l3.19,2.36a25.41,25.41,0,0,0-3.6,5.44,36,36,0,0,0-2.19,6.33Z"/><path class="blc2-1_4" d="M512.2,445.32A73.41,73.41,0,0,0,510.32,431l3.9-.71a76.52,76.52,0,0,1,.54,15Z"/><path class="blc2-1_4" d="M499.93,449.23a106.81,106.81,0,0,1-5.7-13.06L498,435a104.66,104.66,0,0,0,4.23,13.14Z"/><circle class="blc2-1_4" cx="624.26" cy="425.21" r="2.49"/><circle class="blc2-1_5" cx="579.5" cy="343.01" r="2.49"/><circle class="blc2-1_1" cx="626.76" cy="298.71" r="2.49"/><circle class="blc2-1_5" cx="430.36" cy="463.61" r="2.49"/><circle class="blc2-1_5" cx="300.64" cy="476.93" r="2.49"/><circle class="blc2-1_4" cx="732.01" cy="374.94" r="2.49"/><circle class="blc2-1_4" cx="317.48" cy="440.37" r="7.36"/><circle class="blc2-1_5" cx="630.65" cy="357.13" r="5.73"/><path class="blc2-1_1" d="M592,444.23l-.57-.21c2.65-7.19,1.11-15.65.29-20.2l-.09-.48c-.77-4.26.73-9.75.79-10l.59.16c0,.06-1.53,5.59-.78,9.71l.08.48C593.15,428.31,594.71,436.89,592,444.23Z"/><path class="blc2-1_1" d="M596,418.33A7.65,7.65,0,0,1,592.1,421a6.62,6.62,0,0,1,5-7.33A7.6,7.6,0,0,1,596,418.33Z"/><path class="blc2-1_1" d="M587.85,417.69a7.64,7.64,0,0,1-.59-4.72,6.61,6.61,0,0,1,4.18,7.83A7.65,7.65,0,0,1,587.85,417.69Z"/><path class="blc2-1_1" d="M594.84,411.39a7.66,7.66,0,0,1-2.5,4,6.61,6.61,0,0,1,1.64-8.72A7.69,7.69,0,0,1,594.84,411.39Z"/><path class="blc2-1_1" d="M596.4,424.18a7.71,7.71,0,0,1-3.9,2.71,6.61,6.61,0,0,1,5-7.34A7.68,7.68,0,0,1,596.4,424.18Z"/><path class="blc2-1_1" d="M597,430.29a7.7,7.7,0,0,1-4.08,2.45,6.62,6.62,0,0,1,5.46-7A7.68,7.68,0,0,1,597,430.29Z"/><path class="blc2-1_1" d="M588.07,425.09A7.65,7.65,0,0,1,586,420.8a6.62,6.62,0,0,1,6.45,6.1A7.62,7.62,0,0,1,588.07,425.09Z"/><path class="blc2-1_1" d="M588.89,431.34a7.63,7.63,0,0,1-2.46-4.07,6.62,6.62,0,0,1,7,5.44A7.67,7.67,0,0,1,588.89,431.34Z"/><path class="blc2-1_1" d="M364.9,465.17l-.57-.21c2.65-7.18,1.11-15.65.29-20.19l-.09-.48c-.77-4.27.73-9.75.79-10l.59.16c0,.06-1.52,5.58-.78,9.71l.09.48C366.05,449.26,367.61,457.83,364.9,465.17Z"/><path class="blc2-1_1" d="M368.91,439.28A7.65,7.65,0,0,1,365,442a6.63,6.63,0,0,1,5-7.34A7.67,7.67,0,0,1,368.91,439.28Z"/><path class="blc2-1_1" d="M360.75,438.64a7.68,7.68,0,0,1-.58-4.72,6.64,6.64,0,0,1,4.18,7.83A7.65,7.65,0,0,1,360.75,438.64Z"/><path class="blc2-1_1" d="M367.74,432.33a7.65,7.65,0,0,1-2.5,4.05,6.64,6.64,0,0,1,1.64-8.72A7.67,7.67,0,0,1,367.74,432.33Z"/><path class="blc2-1_1" d="M369.31,445.13a7.67,7.67,0,0,1-3.91,2.7,6.61,6.61,0,0,1,5-7.33A7.72,7.72,0,0,1,369.31,445.13Z"/><path class="blc2-1_1" d="M369.87,451.24a7.7,7.7,0,0,1-4.08,2.45,6.64,6.64,0,0,1,5.46-7A7.62,7.62,0,0,1,369.87,451.24Z"/><path class="blc2-1_1" d="M361,446a7.68,7.68,0,0,1-2.05-4.29,6.62,6.62,0,0,1,6.45,6.1A7.7,7.7,0,0,1,361,446Z"/><path class="blc2-1_1" d="M361.79,452.28a7.62,7.62,0,0,1-2.46-4.06,6.62,6.62,0,0,1,7,5.44A7.64,7.64,0,0,1,361.79,452.28Z"/><path class="blc2-1_1" d="M672.68,348.71l-.57-.21c2.66-7.18,1.12-15.65.29-20.2l-.09-.47c-.77-4.27.73-9.75.79-10l.59.16c0,.06-1.52,5.58-.78,9.71l.09.48C673.84,332.8,675.39,341.37,672.68,348.71Z"/><path class="blc2-1_1" d="M676.69,322.82a7.65,7.65,0,0,1-3.91,2.71,6.63,6.63,0,0,1,5-7.34A7.67,7.67,0,0,1,676.69,322.82Z"/><path class="blc2-1_1" d="M668.53,322.18a7.69,7.69,0,0,1-.58-4.72,6.64,6.64,0,0,1,4.18,7.83A7.7,7.7,0,0,1,668.53,322.18Z"/><path class="blc2-1_1" d="M675.52,315.87a7.67,7.67,0,0,1-2.49,4.05,7.69,7.69,0,0,1-.86-4.68,7.6,7.6,0,0,1,2.5-4A7.62,7.62,0,0,1,675.52,315.87Z"/><path class="blc2-1_1" d="M677.09,328.67a7.67,7.67,0,0,1-3.91,2.7,6.63,6.63,0,0,1,5-7.33A7.63,7.63,0,0,1,677.09,328.67Z"/><path class="blc2-1_1" d="M677.65,334.78a7.7,7.7,0,0,1-4.08,2.45,6.63,6.63,0,0,1,5.47-7A7.67,7.67,0,0,1,677.65,334.78Z"/><path class="blc2-1_1" d="M668.76,329.58a7.68,7.68,0,0,1-2-4.29,6.62,6.62,0,0,1,6.44,6.1A7.68,7.68,0,0,1,668.76,329.58Z"/><path class="blc2-1_1" d="M669.57,335.82a7.69,7.69,0,0,1-2.46-4.06,6.62,6.62,0,0,1,7,5.44A7.66,7.66,0,0,1,669.57,335.82Z"/><path class="blc2-1_1" d="M698.72,457.17l-.82-.3c3.8-10.29,1.6-22.41.42-28.91l-.13-.69c-1.1-6.1,1-13.95,1.13-14.28l.84.23c0,.08-2.18,8-1.11,13.9l.12.68C700.37,434.39,702.6,446.66,698.72,457.17Z"/><path class="blc2-1_1" d="M704.46,420.11a10.92,10.92,0,0,1-5.59,3.87,9.48,9.48,0,0,1,7.14-10.5A11,11,0,0,1,704.46,420.11Z"/><path class="blc2-1_1" d="M692.78,419.18a11,11,0,0,1-.84-6.75,9.48,9.48,0,0,1,6,11.21A11,11,0,0,1,692.78,419.18Z"/><path class="blc2-1_1" d="M702.79,410.16a11,11,0,0,1-3.58,5.79,9.46,9.46,0,0,1,2.35-12.48A11,11,0,0,1,702.79,410.16Z"/><path class="blc2-1_1" d="M705,428.47a11,11,0,0,1-5.6,3.88,9.48,9.48,0,0,1,7.15-10.5A11,11,0,0,1,705,428.47Z"/><path class="blc2-1_1" d="M705.83,437.22a11,11,0,0,1-5.84,3.51,9.5,9.5,0,0,1,7.83-10A11,11,0,0,1,705.83,437.22Z"/><path class="blc2-1_1" d="M693.1,429.78a10.93,10.93,0,0,1-2.93-6.14,9.47,9.47,0,0,1,9.22,8.73A11,11,0,0,1,693.1,429.78Z"/><path class="blc2-1_1" d="M694.27,438.72a11,11,0,0,1-3.52-5.82,9.47,9.47,0,0,1,10,7.78A11,11,0,0,1,694.27,438.72Z"/><path class="blc2-1_1" d="M612.41,523.9a6.64,6.64,0,1,0-2-.1,106.09,106.09,0,0,1-1.19,11.94A90.14,90.14,0,0,1,604.84,551c-3.19,9.09-7.05,18.6-6.92,28.38,0,1.35,2.11,1.46,2.09.11-.14-10.28,4.19-20.23,7.51-29.78A98.09,98.09,0,0,0,612.41,523.9Z"/><path class="blc2-1_1" d="M636.64,534.64a6.56,6.56,0,1,0-7.86,10.2c-2.87,7.78-6.18,15-11.46,21.62a72.49,72.49,0,0,0-11.62,21.65,1,1,0,0,0,2,.66A73,73,0,0,1,620,566.46c5-6.23,8.1-13.53,10.78-21a6.49,6.49,0,0,0,5.27-1.57A6.56,6.56,0,0,0,636.64,534.64Z"/><path class="blc2-1_1" d="M595.44,533a6.56,6.56,0,1,0-8.76,9.78,7.47,7.47,0,0,0,.63.48c-3.08,11.26,4.88,24,.56,35.39-.48,1.26,1.51,1.91,2,.66,4.26-11.24-3.59-24.13-.65-35.14A6.55,6.55,0,0,0,595.44,533Z"/><circle class="blc2-1_1" cx="579.5" cy="518.59" r="2.6"/><circle class="blc2-1_1" cx="550.68" cy="552.08" r="2.6"/><circle class="blc2-1_2" cx="586.29" cy="578.54" r="2.6"/><ellipse class="blc2-1_2" cx="546.32" cy="579.83" rx="28.66" ry="2.6"/><path class="blc2-1_1" d="M1107,553.62a1.54,1.54,0,0,1-.17-.19,103.66,103.66,0,0,1-7.34-15.52c-.11-10.07,11.44-15.85,10.89-26.19-.05-1.05-1.67-.83-1.61.21.47,8.91-8.42,14.53-10.47,22.72-2.6-7.33-4.66-14.89-6.74-22.46-.27-1-1.78-.38-1.5.61,1.28,4.67,2.55,9.33,4,13.93a10.91,10.91,0,0,0-6.24-2.21c-5.55-.25-10.22-1.42-14.3-5.45-.74-.73-1.73.56-1,1.29a19.46,19.46,0,0,0,10.73,5.5c2.13.33,4.42,0,6.51.46a9.55,9.55,0,0,1,5,3.46.76.76,0,0,0,.27.24c.89,2.78,1.84,5.54,2.87,8.27a.79.79,0,0,0,.1.27,113.05,113.05,0,0,0,4.88,11.05,26.88,26.88,0,0,0-15.28-5.73c-1,0-1.26,1.56-.21,1.61a25.38,25.38,0,0,1,18.07,8.84c.49.83,1,1.65,1.51,2.47a73.78,73.78,0,0,0,8.46,10.91,33,33,0,0,0-14-2c-1,.07-.83,1.68.21,1.61a29.81,29.81,0,0,1,17.33,3.91c1.15,1.06,2.32,2.11,3.54,3.1,6.74,5.51,14.28,10.58,17.64,19a.81.81,0,0,0,1.51-.61c-2.86-7.13-8.66-12.11-14.54-16.77-.93-.73-1.84-1.47-2.74-2.22a.91.91,0,0,0-.13-.26c-3.56-4.74-1.25-10.49,1-15.25.45-.95-1.06-1.56-1.5-.62-1.94,4.14-3.7,8.86-2.54,13.22a1.14,1.14,0,0,0-.22-.22l-.53-.33a71.77,71.77,0,0,1-10.63-12.12.76.76,0,0,0,0-.37c-1.66-7.6,2.61-15.26,9.28-19,.91-.5.31-2-.61-1.5-6.43,3.56-11,10.45-10.65,17.79-.22-.35-.42-.7-.63-1A.83.83,0,0,0,1107,553.62Z"/><path class="blc2-1_1" d="M1131.48,544.89c-3.82,3.85-10.14,4.54-13,9.51-2.2,3.87-.06,7.48,2.41,10.57a.76.76,0,0,0,.91.25.75.75,0,0,0,.69,0,17.38,17.38,0,0,0,10.41-20A.82.82,0,0,0,1131.48,544.89Z"/><path class="blc2-1_1" d="M1090.6,487.92a.72.72,0,0,0-.15.11c-4.28,4-7.84,10.07-7.33,16.17.43,5.13,3.89,9.7,8.24,12.25a.62.62,0,0,0,.54.24.67.67,0,0,0,.52-.21,14.12,14.12,0,0,0,7.25-13c-.16-6.1-3.81-11.43-8.08-15.51A.69.69,0,0,0,1090.6,487.92Z"/><path class="blc2-1_1" d="M1120.67,495.74a.71.71,0,0,0-.14.1c-4.91,4.15-11.85,6.15-15.37,11.83-2.41,3.91-2.21,9.36,1.76,12.14a.88.88,0,0,0,.37.15.92.92,0,0,0,.24,0c4.93-.34,9.69-2.56,12.13-7.05,2.78-5.09,2.7-11.36,2.54-17C1122.17,495,1121,495.07,1120.67,495.74Z"/><path class="blc2-1_1" d="M1073.22,511.77c-5.49-1.89-11.73-.22-17.34-1.78a.83.83,0,0,0-1.06,1.06,27,27,0,0,0,3.87,7,47,47,0,0,0,4.94,6.38,10.76,10.76,0,0,0,7.18,3.32c2.89,0,5.27-1.58,7.51-3.23a.71.71,0,0,0,.26-.32.66.66,0,0,0,.15-.26A9.29,9.29,0,0,0,1073.22,511.77Z"/><path class="blc2-1_1" d="M1096.8,560.1c-5.84.57-10.5,4.49-14.75,8.18a.81.81,0,0,0,.59,1.45c6.15-.74,11.1,4.06,17.13,4.22,4.08.12,8.24-2.35,8.29-6.79a.88.88,0,0,0-.06-.33.68.68,0,0,0,0-.71C1106,561.75,1101.48,559.65,1096.8,560.1Z"/><path class="blc2-1_1" d="M1094.67,542a12.87,12.87,0,0,0-10.71-5.38c-7.45-.06-13.87,4.44-20.62,7-.84.31-.52,1.38.2,1.56,6.6,1.67,12,6.47,18.74,7.65,5,.89,10.52-.91,12.74-5.8,0,0,0-.07,0-.11A5.43,5.43,0,0,0,1094.67,542Z"/><path class="blc2-1_1" d="M1136.68,521a.64.64,0,0,0-.49.17c-6.66,2.88-14.77,3-20.42,8-3.84,3.38-5.55,9-2.71,13.5a7.07,7.07,0,0,0,3,1.55c11.62,2.69,19-12.73,21.48-22a.75.75,0,0,0,0-.21A.81.81,0,0,0,1136.68,521Z"/><path class="blc2-1_1" d="M1079,523.2c-2.49-1.73-5.53-2-8.34-2.92a21.88,21.88,0,0,1-8.71-5.53c-.24-.25-.68.07-.44.32a22.71,22.71,0,0,0,7.6,5.21c3.18,1.32,6.88,1.4,9.72,3.46C1078.85,523.56,1078.91,523.38,1079,523.2Z"/><path class="blc2-1_1" d="M1090.43,497.2a32.17,32.17,0,0,1,1.61,11.69,45.06,45.06,0,0,1-.7,5.29,6.61,6.61,0,0,0-.08,2.21l.1.06a.6.6,0,0,0,.5.23c-.41-1.4.17-3.06.39-4.47a31.87,31.87,0,0,0,.37-5.07,33,33,0,0,0-1.69-10.15C1090.82,496.66,1090.32,496.87,1090.43,497.2Z"/><path class="blc2-1_1" d="M1117.86,502.15a42.07,42.07,0,0,1-5.23,10c-1.84,2.58-4.22,4.81-5.73,7.6l0,0a.88.88,0,0,0,.37.15h.13c1.64-3,4.3-5.44,6.22-8.28a42.46,42.46,0,0,0,4.72-9.34C1118.48,502,1118,501.82,1117.86,502.15Z"/><path class="blc2-1_1" d="M1121.82,534.17c1.86-1.24,3.79-2.35,5.67-3.55a9.64,9.64,0,0,0,4-4.12c.14-.31-.36-.52-.5-.2-1.06,2.38-3.43,3.62-5.55,4.92-1.91,1.17-3.81,2.33-5.62,3.64a26,26,0,0,0-7.08,7.26c.09.16.17.33.27.48l0,0A27.46,27.46,0,0,1,1121.82,534.17Z"/><path class="blc2-1_1" d="M1129.92,548.75c-2.44,5.41-8.44,10.17-8.89,16.32a.71.71,0,0,0,.53.2c.34-6.15,6.43-10.93,8.86-16.32C1130.57,548.64,1130.06,548.43,1129.92,548.75Z"/><path class="blc2-1_1" d="M1089.08,566.22c-.34.06-.27.6.07.53A46.94,46.94,0,0,1,1108,567a.74.74,0,0,0,0-.14.61.61,0,0,0,.11-.4A47.27,47.27,0,0,0,1089.08,566.22Z"/><path class="blc2-1_1" d="M1070.69,543.94a.27.27,0,0,0,.07.53A52.72,52.72,0,0,1,1095,547l0-.1a3.5,3.5,0,0,0,.15-.41A53.3,53.3,0,0,0,1070.69,543.94Z"/><path class="blc2-1_1" d="M952.89,452.77l.12-.22a103.19,103.19,0,0,1,11.85-12.42c9.36-3.72,18.9,5,28.36.76.95-.43.18-1.86-.78-1.43-8.15,3.64-16.58-2.65-25-1.62,5.92-5,12.23-9.69,18.55-14.35.84-.62-.28-1.8-1.11-1.18-3.9,2.87-7.79,5.73-11.59,8.69a10.87,10.87,0,0,0-.17-6.62c-1.76-5.27-2.34-10.05,0-15.3.42-1-1.14-1.42-1.55-.47a19.46,19.46,0,0,0-1.29,12c.46,2.11,1.63,4.11,1.91,6.25a9.57,9.57,0,0,1-1.42,5.94.82.82,0,0,0-.12.34c-2.28,1.83-4.52,3.7-6.69,5.64a.62.62,0,0,0-.22.2,112.79,112.79,0,0,0-8.56,8.52,26.9,26.9,0,0,0-.14-16.32c-.33-1-1.91-.61-1.58.38a25.38,25.38,0,0,1-1.76,20c-.6.75-1.19,1.51-1.76,2.29a73.63,73.63,0,0,0-7.15,11.82,33.06,33.06,0,0,0-3.14-13.83c-.44-.95-1.87-.17-1.43.77a29.89,29.89,0,0,1,2.57,17.58c-.59,1.45-1.14,2.92-1.63,4.42-2.72,8.27-4.75,17.12-11.37,23.27a.81.81,0,0,0,1.11,1.19c5.63-5.23,8.2-12.43,10.43-19.59.35-1.13.72-2.25,1.1-3.36a.65.65,0,0,0,.19-.21c3.14-5,9.35-4.93,14.59-4.56,1,.08,1.08-1.55,0-1.62-4.55-.33-9.59-.27-13.24,2.37a1,1,0,0,0,.12-.28l.12-.62A71.79,71.79,0,0,1,949.71,457a.81.81,0,0,0,.35-.12c6.5-4.28,15.19-3,21,1.86.79.67,2-.44,1.19-1.11-5.63-4.73-13.7-6.47-20.43-3.56l.75-1A.78.78,0,0,0,952.89,452.77Z"/><path class="blc2-1_1" d="M969.83,472.48c-5-2.18-7.88-7.83-13.54-8.69-4.4-.67-7,2.62-9,6a.76.76,0,0,0,.1.94.73.73,0,0,0,.21.66A17.4,17.4,0,0,0,970,474,.83.83,0,0,0,969.83,472.48Z"/><path class="blc2-1_1" d="M1008.33,413.87l-.16-.1c-5.31-2.54-12.22-3.7-17.72-1-4.64,2.24-7.66,7.11-8.48,12.08a.61.61,0,0,0,0,.6.66.66,0,0,0,.38.4,14.11,14.11,0,0,0,14.77,2.09c5.64-2.33,9.31-7.66,11.58-13.1A.7.7,0,0,0,1008.33,413.87Z"/><path class="blc2-1_1" d="M1011.82,444.75a.71.71,0,0,0-.14-.1c-5.64-3.09-10-8.85-16.56-10.09-4.51-.86-9.53,1.29-10.7,6a.86.86,0,0,0,0,.39c0,.07,0,.15.07.23,2.1,4.48,5.88,8.13,10.94,8.8,5.75.76,11.57-1.57,16.77-3.74C1013,445.9,1012.56,444.81,1011.82,444.75Z"/><path class="blc2-1_1" d="M979.82,406.21c-.2-5.8-4-11-4.56-16.81a.82.82,0,0,0-1.37-.61,26.91,26.91,0,0,0-5.13,6.11,47.12,47.12,0,0,0-4.18,6.9,10.68,10.68,0,0,0-.52,7.89c1,2.72,3.36,4.36,5.7,5.86a.94.94,0,0,0,.4.13.71.71,0,0,0,.3,0A9.28,9.28,0,0,0,979.82,406.21Z"/><path class="blc2-1_1" d="M943.18,445.57c-2.62-5.25-8-8.19-12.93-10.83a.81.81,0,0,0-1.14,1.07c2.89,5.47.2,11.81,2.2,17.5,1.36,3.85,5.16,6.84,9.32,5.3a.82.82,0,0,0,.29-.17.68.68,0,0,0,.67-.22C945,454.78,945.28,449.78,943.18,445.57Z"/><path class="blc2-1_1" d="M959.29,437.09a12.86,12.86,0,0,0,1.18-11.92c-2.62-7-9.12-11.36-13.89-16.76-.59-.67-1.47,0-1.38.75.81,6.76-1.74,13.51-.42,20.24,1,5,4.63,9.49,10,9.8h.13A5.41,5.41,0,0,0,959.29,437.09Z"/><path class="blc2-1_1" d="M994,468.75a.59.59,0,0,0-.33-.39c-5.08-5.19-8.09-12.73-14.76-16.21-4.53-2.37-10.36-2-13.58,2.31a7.29,7.29,0,0,0-.37,3.34c1.66,11.8,18.7,13.15,28.29,12.13a.83.83,0,0,0,.21-.06A.81.81,0,0,0,994,468.75Z"/><path class="blc2-1_1" d="M971.22,415.67c.72-2.94-.15-5.86-.27-8.82a22,22,0,0,1,2-10.13c.14-.31-.32-.6-.46-.29a22.83,22.83,0,0,0-2.14,9c-.08,3.44,1.17,6.93.27,10.32Z"/><path class="blc2-1_1" d="M999.61,417a32,32,0,0,1-10.34,5.71,43.54,43.54,0,0,1-5.19,1.24,6.79,6.79,0,0,0-2.09.71.5.5,0,0,0,0,.12.61.61,0,0,0,0,.56c1.17-.89,2.92-.95,4.31-1.25a31.76,31.76,0,0,0,4.87-1.47,32.88,32.88,0,0,0,8.87-5.22C1000.25,417.22,999.87,416.82,999.61,417Z"/><path class="blc2-1_1" d="M1004.83,444.42a41.84,41.84,0,0,1-11.25-1.27c-3.07-.79-6-2.21-9.15-2.62v0a.86.86,0,0,0,0,.39s0,.08,0,.12c3.41.45,6.62,2.07,10,2.84a42.85,42.85,0,0,0,10.41,1C1005.17,445,1005.18,444.41,1004.83,444.42Z"/><path class="blc2-1_1" d="M976.37,459.62c1.82,1.28,3.55,2.68,5.34,4a9.7,9.7,0,0,0,5.3,2.31c.35,0,.36-.53,0-.54-2.61-.13-4.61-1.91-6.59-3.42-1.77-1.36-3.54-2.72-5.42-3.94a26,26,0,0,0-9.31-4l-.36.42a.15.15,0,0,1,0,.06A27.55,27.55,0,0,1,976.37,459.62Z"/><path class="blc2-1_1" d="M965.66,472.41c-5.92-.33-12.52-4.23-18.42-2.44a.75.75,0,0,0,0,.57c5.86-1.89,12.51,2.08,18.41,2.41C966,473,966,472.43,965.66,472.41Z"/><path class="blc2-1_1" d="M934.7,440.56c-.18-.29-.66,0-.48.26a46.63,46.63,0,0,1,6.58,17.71l.12-.09a.65.65,0,0,0,.41,0A47.14,47.14,0,0,0,934.7,440.56Z"/><path class="blc2-1_1" d="M948.9,415.4c-.17-.31-.65,0-.48.25a52.74,52.74,0,0,1,6.36,23.55h.11a2.4,2.4,0,0,0,.43,0A53.34,53.34,0,0,0,948.9,415.4Z"/><path class="blc2-1_1" d="M1000.08,506.42c-5.66-6.59-15.84-6.42-24.38-4.8s-17.73,4.07-25.59.36c-16.43-7.76-13.68-35-29.19-44.44-9.85-6-23-2.19-33.72-6.43-8.52-3.36-14.85-11.56-23.84-13.32-9.71-1.9-19.33,4.53-25.09,12.57s-8.82,17.67-13.52,26.37-11.9,17-21.62,18.84c-12.82,2.41-27.7-6.72-38.22,1-11.64,8.53-6.77,30.64-19.64,37.18-8.21,4.17-18.06-1.21-27.22-.33-9.88.94-17.78,9.32-21.19,18.64,0,.09-.06.19-.1.28-5.08,14.23,5.73,29.16,20.84,29.16h291.55Z"/><path class="blc2-1_2" d="M910.18,516.5c-1.46-1.4-1.93.21-2.65.85-1.54,1.38-2.75,3.15-4.84,3.84-1.31,2.58-4,3.48-6.24,4.74a27.21,27.21,0,0,1-8.73,3.41c2.62-4,6.35-7.05,9.3-10.76a154.16,154.16,0,0,0,12-21c.23-1.05.47-2.1.7-3.15l-3.14-1a36.51,36.51,0,0,1-5.08,11.4c-1.34,4.76-4.42,8.4-7.71,11.89a41.06,41.06,0,0,1-6.24,7,55.14,55.14,0,0,1,1.15-10c.24-6.33,2-12.34,3.91-18.32l-2.87-1.27q-1.93,8.73-3.88,17.46A79.51,79.51,0,0,1,883.57,527c-.38,1.56-1.7,2.31-2.72,3.32-2,2-4,3.94-6.16,6.06-.72-1.74-.2-3.48-.3-5.15-.48-7.8-1-15.58-2.2-23.31a7.53,7.53,0,0,1,.19-1.81c-.91-1.79.35-2.89,1.26-4.17,5-6.92,11-13.24,13.64-21.62.35-1.1.73-2.18,1.09-3.27l-2.28-1c-.29,3.91-2.4,7-4.41,10.2-2.4,3.78-5.71,6.78-8.88,10a79.11,79.11,0,0,1,6.22-26l-3-1.15c-1.24,4.09-3.45,7.78-4.6,11.92-2.2,7.91-2.74,16-2.91,24.14.1,3.93.31,8.74.54,13.94a33.74,33.74,0,0,1-7.83-3.9c-.74-.46-1.48-.93-2.2-1.41l.24-.15a61,61,0,0,1-8.11-22.71l-2.91.42a64.07,64.07,0,0,0,5.93,19.09,122.31,122.31,0,0,1-20.41-18.71l-2.22,1.93a124.79,124.79,0,0,0,15.74,15.19c-.55,0-1.1,0-1.64,0A88.62,88.62,0,0,1,825,505.55l-.8,2.84a92.4,92.4,0,0,0,21.41,3.35,16.15,16.15,0,0,0,5-.39q4.43,3.36,9.16,6.32a38.82,38.82,0,0,0,7.79,4c.57.2,1.15.38,1.74.53.59,13.28,1.22,28.44.66,38.24,1.23.28,2.41,1,3.63,1.26.16-3.68.68-19.46,3.66-22.18a14.56,14.56,0,0,1,4-2.79c5.33-2.3,10.62-4.71,15.89-7.15,3.13-1.46,5.62-3.85,8.3-6,1.35-1.44,2.8-2.8,4-4.35C909.93,518.52,911.67,517.93,910.18,516.5Zm-23,12.89.36,0-.33.25Z"/><path class="blc2-1_5" d="M1135,568.93c-12.29-10.24-32.22,5-46.5-2.24-14.79-7.48-13.24-33.66-29.1-38.44-9.87-3-21.86,4.44-30.86,2.13-.2-12.92-2.58-24.78-11.44-33.75-2.75-3.73-12.9-10.75-26.32-10.74-37.5,0-40.88,24.56-43.75,33.91-9.43.71-19.72-9.51-30.18-8.72-16.53,1.24-20.67,27.14-36.73,31.24-15.5,4-31.67-15.2-45.88-7.85-9.56,4.94-10.46,18.41-17.63,26.44-6,6.67-15.48,8.75-24.39,9.5s-18.18.6-26.38,4.19l-.24.11c-9.9,4.48-7.61,18.55,2,20.75h360.85a12.9,12.9,0,0,0,12.44-16.41C1139.79,575.13,1138.13,571.56,1135,568.93Z"/><path class="blc2-1_5" d="M812.85,545.75c-1-1-1.37.15-1.88.61-1.1,1-2,2.23-3.45,2.72-.93,1.84-2.82,2.48-4.44,3.38a19.26,19.26,0,0,1-6.23,2.43c1.87-2.85,4.53-5,6.63-7.66A110.28,110.28,0,0,0,812,532.3c.16-.75.33-1.49.5-2.24l-2.24-.74a25.78,25.78,0,0,1-3.62,8.12c-.95,3.39-3.14,6-5.49,8.47a29.45,29.45,0,0,1-4.44,5,39.67,39.67,0,0,1,.81-7.15,49.68,49.68,0,0,1,2.79-13l-2-.91-2.76,12.44a57.32,57.32,0,0,1-1.63,11c-.27,1.12-1.21,1.65-1.93,2.37-1.42,1.41-2.85,2.8-4.39,4.31-.52-1.23-.14-2.48-.22-3.67-.33-5.55-.72-11.09-1.56-16.59a5.25,5.25,0,0,1,.14-1.29c-.65-1.28.24-2.06.89-3,3.55-4.93,7.8-9.43,9.71-15.4.25-.78.52-1.55.78-2.32l-1.62-.74c-.21,2.78-1.72,5-3.14,7.26-1.71,2.69-4.07,4.83-6.33,7.12a56.48,56.48,0,0,1,4.43-18.51l-2.11-.81c-.89,2.9-2.46,5.54-3.28,8.48a68.72,68.72,0,0,0-2.07,17.19c.07,2.8.22,6.22.39,9.93A23.94,23.94,0,0,1,778,544.8l-1.57-1,.17-.11a43.51,43.51,0,0,1-5.77-16.17l-2.08.3A45.68,45.68,0,0,0,773,541.41a87.43,87.43,0,0,1-14.54-13.32l-1.58,1.37a88.83,88.83,0,0,0,11.21,10.82c-.39,0-.78,0-1.16,0A63.53,63.53,0,0,1,752.16,538l-.57,2a65.68,65.68,0,0,0,15.25,2.39,11.54,11.54,0,0,0,3.54-.28q3.15,2.38,6.52,4.5a27.77,27.77,0,0,0,5.54,2.82c.41.14.83.27,1.25.38.41,9.45.86,20.25.47,27.23.87.2,1.71.7,2.58.9.12-2.62.48-13.86,2.61-15.8a10.17,10.17,0,0,1,2.86-2c3.79-1.64,7.56-3.36,11.31-5.1,2.23-1,4-2.74,5.91-4.25,1-1,2-2,2.85-3.1C812.67,547.18,813.91,546.77,812.85,545.75Zm-16.36,9.18.25,0-.23.18Z"/><path class="blc2-1_1" d="M900,586.21c-1.19-1.14-1.57.18-2.16.7-1.26,1.12-2.25,2.56-3.95,3.12-1.07,2.11-3.23,2.84-5.09,3.88a22.25,22.25,0,0,1-7.12,2.78c2.14-3.27,5.18-5.75,7.59-8.78a125.18,125.18,0,0,0,9.77-17.1c.19-.85.38-1.7.58-2.56L897,567.4a29.55,29.55,0,0,1-4.14,9.3c-1.09,3.88-3.6,6.84-6.28,9.7a34.06,34.06,0,0,1-5.09,5.72,45,45,0,0,1,.93-8.18c.2-5.16,1.64-10.06,3.19-14.94l-2.33-1q-1.59,7.13-3.17,14.24a65,65,0,0,1-1.86,12.57c-.31,1.28-1.39,1.89-2.22,2.71-1.62,1.62-3.26,3.21-5,4.94-.58-1.41-.16-2.84-.24-4.2-.39-6.35-.83-12.7-1.79-19a5.79,5.79,0,0,1,.16-1.48c-.75-1.46.28-2.36,1-3.4,4.07-5.65,8.93-10.8,11.12-17.63.29-.89.6-1.78.89-2.66l-1.86-.86c-.24,3.19-2,5.75-3.59,8.32-2,3.08-4.66,5.53-7.24,8.15a64.08,64.08,0,0,1,5.07-21.18l-2.43-.94c-1,3.33-2.81,6.34-3.74,9.71-1.8,6.46-2.24,13-2.38,19.69.09,3.2.26,7.13.45,11.37a27.75,27.75,0,0,1-6.4-3.18c-.6-.38-1.2-.76-1.79-1.15l.2-.12a50.08,50.08,0,0,1-6.62-18.52l-2.37.34a52.28,52.28,0,0,0,4.84,15.57A100,100,0,0,1,837.67,566l-1.81,1.57A101.55,101.55,0,0,0,848.7,580c-.45,0-.9,0-1.34,0a73.23,73.23,0,0,1-16.9-2.65l-.65,2.31a75.37,75.37,0,0,0,17.46,2.73,13,13,0,0,0,4.06-.32q3.6,2.75,7.46,5.15a32,32,0,0,0,6.36,3.24c.46.16.94.31,1.42.43.48,10.83,1,23.19.54,31.19,1,.22,2,.8,3,1,.13-3,.55-15.87,3-18.08a11.64,11.64,0,0,1,3.28-2.28c4.35-1.88,8.66-3.84,12.95-5.83,2.56-1.19,4.59-3.14,6.77-4.87,1.1-1.17,2.28-2.28,3.27-3.55C899.77,587.86,901.18,587.38,900,586.21Zm-18.74,10.52.29,0-.27.21Z"/><path class="blc2-1_1" d="M1073.23,586.21c-1.19-1.14-1.57.18-2.16.7-1.26,1.12-2.25,2.56-4,3.12-1.07,2.11-3.23,2.84-5.09,3.88a22.25,22.25,0,0,1-7.12,2.78c2.13-3.27,5.18-5.75,7.59-8.78a125.18,125.18,0,0,0,9.77-17.1l.57-2.56-2.56-.85a29.55,29.55,0,0,1-4.14,9.3c-1.09,3.88-3.6,6.84-6.29,9.7a33.53,33.53,0,0,1-5.08,5.72,45,45,0,0,1,.93-8.18c.2-5.16,1.64-10.06,3.19-14.94l-2.33-1q-1.59,7.13-3.17,14.24a65,65,0,0,1-1.86,12.57c-.31,1.28-1.39,1.89-2.22,2.71-1.62,1.62-3.26,3.21-5,4.94-.58-1.41-.16-2.84-.24-4.2-.39-6.35-.83-12.7-1.79-19a5.79,5.79,0,0,1,.16-1.48c-.75-1.46.27-2.36,1-3.4,4.07-5.65,8.93-10.8,11.12-17.63.29-.89.6-1.78.89-2.66l-1.86-.86c-.24,3.19-2,5.75-3.59,8.32-2,3.08-4.66,5.53-7.24,8.15a64.08,64.08,0,0,1,5.07-21.18l-2.43-.94c-1,3.33-2.81,6.34-3.75,9.71-1.79,6.46-2.23,13-2.37,19.69.09,3.2.26,7.13.45,11.37a27.75,27.75,0,0,1-6.4-3.18c-.6-.38-1.2-.76-1.79-1.15l.2-.12a49.9,49.9,0,0,1-6.62-18.52l-2.37.34a52.28,52.28,0,0,0,4.84,15.57A99.56,99.56,0,0,1,1010.93,566l-1.81,1.57A102.14,102.14,0,0,0,1022,580c-.44,0-.89,0-1.33,0a73.23,73.23,0,0,1-16.9-2.65l-.65,2.31a75.37,75.37,0,0,0,17.46,2.73,13,13,0,0,0,4.06-.32q3.6,2.75,7.46,5.15a32.18,32.18,0,0,0,6.35,3.24c.47.16.95.31,1.43.43.48,10.83,1,23.19.54,31.19,1,.22,2,.8,3,1,.13-3,.55-15.87,3-18.08a11.64,11.64,0,0,1,3.28-2.28c4.34-1.88,8.66-3.84,13-5.83,2.56-1.19,4.59-3.14,6.77-4.87,1.1-1.17,2.28-2.28,3.27-3.55C1073,587.86,1074.44,587.38,1073.23,586.21Zm-18.74,10.52.29,0-.27.21Z"/><path class="blc2-1_1" d="M996.5,566c-1.46-1.4-1.92.21-2.64.85-1.54,1.38-2.76,3.15-4.84,3.84-1.32,2.58-4,3.48-6.24,4.74a27.61,27.61,0,0,1-8.74,3.42c2.62-4,6.35-7.06,9.31-10.77a153.5,153.5,0,0,0,12-21c.23-1,.47-2.1.7-3.15l-3.14-1a36.28,36.28,0,0,1-5.08,11.4c-1.33,4.76-4.42,8.4-7.71,11.89-1.55,2.48-3.65,4.47-6.23,7a55.18,55.18,0,0,1,1.14-10c.24-6.33,2-12.34,3.91-18.32l-2.86-1.27q-1.95,8.73-3.89,17.46a79.51,79.51,0,0,1-2.28,15.42c-.38,1.56-1.7,2.31-2.72,3.32-2,2-4,3.94-6.16,6.06-.72-1.74-.2-3.48-.3-5.15-.47-7.8-1-15.58-2.19-23.31a7.1,7.1,0,0,1,.19-1.81c-.91-1.79.34-2.89,1.26-4.16,5-6.93,10.94-13.25,13.63-21.63.35-1.1.73-2.18,1.1-3.27l-2.29-1c-.29,3.91-2.4,7-4.4,10.2-2.41,3.78-5.72,6.78-8.89,10a79.36,79.36,0,0,1,6.22-26l-3-1.14c-1.24,4.08-3.45,7.77-4.6,11.91-2.2,7.91-2.74,16-2.91,24.14.11,3.93.32,8.74.55,13.94a33.79,33.79,0,0,1-7.84-3.9c-.74-.46-1.47-.93-2.2-1.41l.25-.15a61.05,61.05,0,0,1-8.12-22.71l-2.91.42a64.37,64.37,0,0,0,5.93,19.09,122.71,122.71,0,0,1-20.41-18.71l-2.22,1.93a124.79,124.79,0,0,0,15.74,15.19c-.55,0-1.09,0-1.64,0a89.21,89.21,0,0,1-20.72-3.24l-.8,2.83a92.48,92.48,0,0,0,21.42,3.35,16.15,16.15,0,0,0,5-.39q4.42,3.36,9.15,6.32a39.09,39.09,0,0,0,7.79,4c.57.2,1.16.38,1.75.53.58,13.28,1.21,28.44.66,38.24,1.22.28,2.4,1,3.63,1.26.16-3.68.67-19.46,3.65-22.18a14.71,14.71,0,0,1,4-2.79c5.33-2.3,10.62-4.7,15.89-7.15,3.13-1.46,5.63-3.85,8.3-6,1.35-1.44,2.8-2.8,4-4.35C996.26,568,998,567.44,996.5,566Zm-23,12.89.35,0-.32.25Z"/><circle class="blc2-1_1" cx="1013.94" cy="547.54" r="2.6"/><circle class="blc2-1_1" cx="923.4" cy="579.18" r="2.6"/><circle class="blc2-1_5" cx="847.14" cy="464.08" r="2.6"/><circle class="blc2-1_1" cx="681.23" cy="534.6" r="2.6"/><circle class="blc2-1_1" cx="796.49" cy="464.66" r="2.6"/><circle class="blc2-1_1" cx="742.22" cy="489.49" r="5.4"/><circle class="blc2-1_1" cx="900.45" cy="429.27" r="5.4"/><circle class="blc2-1_5" cx="1020.51" cy="611.17" r="2.6"/><circle class="blc2-1_5" cx="923.03" cy="617.37" r="7.42"/><circle class="blc2-1_5" cx="729.4" cy="567.51" r="7.42"/><circle class="blc2-1_1" cx="990.32" cy="512.59" r="2.6"/><path class="blc2-1_6" d="M1117.34,504.45c-4-3.37-10.6,1.64-15.3-.74-4.87-2.46-4.36-11.08-9.58-12.65-3.25-1-7.2,1.46-10.16.7-.07-4.25-.85-8.16-3.77-11.11-.9-1.23-4.25-3.54-8.66-3.54-12.35,0-13.46,8.09-14.4,11.17-3.11.23-6.5-3.13-9.94-2.87-5.44.41-6.8,8.93-12.09,10.28-5.1,1.31-10.43-5-15.1-2.58-3.15,1.62-3.45,6.06-5.81,8.7-2,2.2-5.09,2.88-8,3.13s-6,.19-8.68,1.38l-.08,0a3.64,3.64,0,0,0,.67,6.84h118.8a4.25,4.25,0,0,0,4.09-5.41A6.44,6.44,0,0,0,1117.34,504.45Z"/></svg>
