<svg id="Layer_1" data-name="Layer 1" xmlns="http://www.w3.org/2000/svg" xmlns:xlink="http://www.w3.org/1999/xlink" viewBox="0 0 925.32 805.12"><defs><style>.cblc2-2_1{fill:#367d75;}.cblc2-2_2{fill:url(#lgcblc2);}.cblc2-2_3{fill:url(#lgcblc2-2_2);}.cblc2-2_4{fill:url(#lgcblc2-2_3);}</style><linearGradient id="lgcblc2" x1="355.27" y1="559.65" x2="358.17" y2="400.2" gradientUnits="userSpaceOnUse"><stop offset="0" stop-color="#3b6660" stop-opacity="0"/><stop offset="1" stop-color="#305051"/></linearGradient><linearGradient id="lgcblc2-2_2" x1="652.59" y1="650.33" x2="654.66" y2="536.65" xlink:href="#lgcblc2"/><linearGradient id="lgcblc2-2_3" x1="380.21" y1="354.26" x2="381.26" y2="296.45" xlink:href="#lgcblc2"/></defs><title>25</title><path class="cblc2-2_2" d="M623.51,508.76c-17.81-14.85-46.7,7.2-67.4-3.26-21.43-10.84-19.19-48.79-42.19-55.72-14.3-4.31-31.68,6.44-44.72,3.1-.29-18.73-3.74-35.93-16.58-48.93-4-5.41-18.71-15.58-38.16-15.57-54.36,0-59.25,35.6-63.42,49.16-13.66,1-28.58-13.79-43.75-12.65-24,1.8-30,39.34-53.23,45.29-22.47,5.74-45.91-22-66.51-11.38C173.69,466,172.39,485.48,162,497.12c-8.63,9.68-22.44,12.7-35.37,13.78s-26.34.86-38.22,6.07l-.36.16c-14.35,6.5-11,26.9,3,30.09H614.09a18.7,18.7,0,0,0,18-23.79C630.48,517.73,628.08,512.57,623.51,508.76Z"/><path class="cblc2-2_3" d="M843.84,614.05c-12.69-10.59-33.29,5.13-48.05-2.32C780.51,604,782.11,576.94,765.71,572c-10.2-3.07-22.59,4.59-31.89,2.21-.21-13.36-2.66-25.62-11.82-34.89-2.85-3.86-13.34-11.11-27.21-11.1-38.76,0-42.24,25.38-45.22,35-9.74.73-20.38-9.83-31.19-9-17.08,1.29-21.36,28-38,32.29-16,4.1-32.73-15.7-47.42-8.11-9.88,5.11-10.81,19-18.21,27.32-6.16,6.9-16,9-25.22,9.83s-18.79.61-27.26,4.32l-.25.12c-10.24,4.63-7.87,19.17,2.12,21.45h373a13.33,13.33,0,0,0,12.86-17C848.81,620.45,847.1,616.76,843.84,614.05Z"/><path class="cblc2-2_4" d="M477.46,335.81c-6.46-5.38-16.93,2.61-24.44-1.18-7.77-3.93-7-17.69-15.29-20.2-5.19-1.56-11.49,2.33-16.22,1.12-.1-6.79-1.35-13-6-17.74-1.44-2-6.78-5.65-13.83-5.64-19.71,0-21.48,12.9-23,17.82-5,.37-10.36-5-15.86-4.58-8.69.65-10.87,14.26-19.3,16.41-8.15,2.09-16.65-8-24.11-4.12-5,2.6-5.5,9.67-9.27,13.89-3.13,3.51-8.13,4.6-12.82,5s-9.55.31-13.86,2.2l-.13,0c-5.2,2.36-4,9.76,1.08,10.91H474a6.77,6.77,0,0,0,6.54-8.62A10.34,10.34,0,0,0,477.46,335.81Z"/></svg>
