<svg id="Layer_1" data-name="Layer 1" xmlns="http://www.w3.org/2000/svg" xmlns:xlink="http://www.w3.org/1999/xlink" viewBox="0 0 925.32 805.12"><defs><style>.blc2-2-5_1{fill:#367d75;}.blc2-2-5_2{fill:#e5af36;}.blc2-2-5_3{fill:#9fa851;}.blc2-2-5_4{fill:#2f5f5b;}.blc2-2-5_5{fill:url(#lgblc2-2-5);}.blc2-2-5_6{fill:url(#lgblc2-2-5_2);}.blc2-2-5_7{fill:url(#lgblc2-2-5_3);}.blc2-2-5_8{fill:url(#lgblc2-2-5_4);}</style><linearGradient id="lgblc2-2-5" x1="625.52" y1="449.2" x2="626.09" y2="418.04" gradientUnits="userSpaceOnUse"><stop offset="0" stop-color="#3b6660" stop-opacity="0"/><stop offset="1" stop-color="#305051"/></linearGradient><linearGradient id="lgblc2-2-5_2" x1="493.16" y1="308.55" x2="494.22" y2="250.74" xlink:href="#lgblc2-2-5"/><linearGradient id="lgblc2-2-5_3" x1="346.55" y1="451.83" x2="347.6" y2="394.02" xlink:href="#lgblc2-2-5"/><linearGradient id="lgblc2-2-5_4" x1="466.55" y1="555.86" x2="467.6" y2="498.05" xlink:href="#lgblc2-2-5"/></defs><title>26</title><path class="blc2-2-5_2" d="M559.41,628.49a48.53,48.53,0,0,1,3.21-8.17,35.85,35.85,0,0,1,5.23-7.28l3.42,3.37a31.43,31.43,0,0,0-5.24,5.92,44.94,44.94,0,0,0-3.7,7.22Z"/><path class="blc2-2-5_2" d="M544.58,624.45a88.53,88.53,0,0,0,.16-17.45l4.8-.2a93,93,0,0,1-1.89,18.13Z"/><path class="blc2-2-5_2" d="M529.2,627.06a127.47,127.47,0,0,1-4.62-16.63l4.74-.73a126,126,0,0,0,2.86,16.48Z"/><path class="blc2-2-5_3" d="M455.18,588.39a48.08,48.08,0,0,1,1.29-8.67,35.67,35.67,0,0,1,3.46-8.27L464,574a31.54,31.54,0,0,0-3.78,6.94,45.54,45.54,0,0,0-2,7.87Z"/><path class="blc2-2-5_3" d="M439.82,587.79a89.27,89.27,0,0,0-3.76-17l4.63-1.27a92.53,92.53,0,0,1,2.22,18.1Z"/><path class="blc2-2-5_3" d="M425.42,593.79a128.22,128.22,0,0,1-8.24-15.17l4.46-1.78a124.25,124.25,0,0,0,6.48,15.42Z"/><path class="blc2-2-5_3" d="M333.23,567.33a28,28,0,0,1,.73-4.88,20.47,20.47,0,0,1,2-4.66l2.3,1.42a17.69,17.69,0,0,0-2.13,3.9,25.19,25.19,0,0,0-1.11,4.43Z"/><path class="blc2-2-5_3" d="M324.59,567a50.18,50.18,0,0,0-2.11-9.59l2.6-.72a51.71,51.71,0,0,1,1.25,10.18Z"/><path class="blc2-2-5_3" d="M316.49,570.36a70.1,70.1,0,0,1-4.63-8.53l2.5-1A72,72,0,0,0,318,569.5Z"/><path class="blc2-2-5_3" d="M545.44,482.67a27.14,27.14,0,0,1,.72-4.88,20.4,20.4,0,0,1,2-4.65l2.3,1.41a17.94,17.94,0,0,0-2.12,3.91,24.76,24.76,0,0,0-1.12,4.43Z"/><path class="blc2-2-5_3" d="M536.79,482.33a49.43,49.43,0,0,0-2.11-9.59l2.61-.71a53.16,53.16,0,0,1,1.25,10.18Z"/><path class="blc2-2-5_3" d="M528.69,485.71a73.08,73.08,0,0,1-4.63-8.53l2.51-1a67.72,67.72,0,0,0,3.65,8.67Z"/><path class="blc2-2-5_3" d="M476.77,415.5a27,27,0,0,1,.72-4.88,20.47,20.47,0,0,1,1.95-4.66l2.3,1.42a17.65,17.65,0,0,0-2.12,3.9,25.2,25.2,0,0,0-1.12,4.43Z"/><path class="blc2-2-5_3" d="M468.12,415.16a49.43,49.43,0,0,0-2.11-9.59l2.61-.72A53.26,53.26,0,0,1,469.87,415Z"/><path class="blc2-2-5_3" d="M460,418.53a71.5,71.5,0,0,1-4.63-8.53l2.51-1a69,69,0,0,0,3.65,8.67Z"/><path class="blc2-2-5_2" d="M417.14,486.38a48.4,48.4,0,0,1,3-8.25,35.25,35.25,0,0,1,5-7.43l3.52,3.27a31.5,31.5,0,0,0-5.08,6.06,46.28,46.28,0,0,0-3.49,7.33Z"/><path class="blc2-2-5_2" d="M402.2,482.77a88.39,88.39,0,0,0-.33-17.45l4.79-.34a92.66,92.66,0,0,1-1.38,18.18Z"/><path class="blc2-2-5_2" d="M386.9,485.82a128.37,128.37,0,0,1-5.09-16.49l4.72-.88a125.39,125.39,0,0,0,3.32,16.4Z"/><circle class="blc2-2-5_4" cx="484.24" cy="520.9" r="2.49"/><circle class="blc2-2-5_4" cx="362.39" cy="608" r="2.49"/><circle class="blc2-2-5_4" cx="486.73" cy="683.79" r="2.49"/><circle class="blc2-2-5_4" cx="314.93" cy="468.54" r="7.36"/><circle class="blc2-2-5_4" cx="556.73" cy="404.85" r="5.73"/><path class="blc2-2-5_5" d="M677.94,439.26c-3.48-2.91-9.13,1.4-13.17-.64s-3.75-9.53-8.25-10.89c-2.79-.84-6.19,1.26-8.74.61,0-3.66-.73-7-3.24-9.56a10.1,10.1,0,0,0-7.45-3c-10.63,0-11.58,7-12.4,9.61-2.67.2-5.58-2.69-8.55-2.47-4.68.35-5.85,7.69-10.4,8.85-4.39,1.12-9-4.31-13-2.23-2.7,1.4-3,5.22-5,7.49-1.69,1.89-4.38,2.48-6.91,2.69s-5.15.17-7.47,1.19l-.07,0a3.13,3.13,0,0,0,.58,5.88H676.1a3.66,3.66,0,0,0,3.52-4.65A5.53,5.53,0,0,0,677.94,439.26Z"/><path class="blc2-2-5_6" d="M590.41,290.1c-6.46-5.39-16.93,2.61-24.43-1.18-7.78-3.93-7-17.69-15.3-20.2-5.18-1.57-11.49,2.33-16.21,1.12-.11-6.79-1.36-13-6-17.74-1.44-2-6.78-5.65-13.83-5.64-19.71,0-21.48,12.9-23,17.82-4.95.37-10.36-5-15.86-4.59-8.69.66-10.86,14.26-19.3,16.42-8.14,2.08-16.64-8-24.11-4.12-5,2.59-5.5,9.67-9.26,13.89-3.14,3.51-8.14,4.6-12.83,5s-9.55.32-13.85,2.2l-.13.06c-5.21,2.36-4,9.75,1.07,10.91H587a6.77,6.77,0,0,0,6.54-8.62A10.21,10.21,0,0,0,590.41,290.1Z"/><path class="blc2-2-5_7" d="M443.8,433.38c-6.46-5.38-16.94,2.61-24.44-1.18-7.77-3.93-7-17.69-15.29-20.2-5.19-1.56-11.49,2.33-16.22,1.12-.1-6.79-1.35-13-6-17.73-1.45-2-6.78-5.65-13.83-5.65-19.71,0-21.48,12.91-23,17.82-5,.37-10.37-5-15.87-4.58-8.68.65-10.86,14.26-19.29,16.42-8.15,2.08-16.65-8-24.12-4.13-5,2.6-5.49,9.67-9.26,13.89-3.13,3.51-8.13,4.6-12.82,5s-9.55.31-13.86,2.2l-.13.06c-5.2,2.35-4,9.75,1.08,10.9H440.38a6.77,6.77,0,0,0,6.54-8.62A10.38,10.38,0,0,0,443.8,433.38Z"/><path class="blc2-2-5_8" d="M563.8,537.41c-6.46-5.39-16.93,2.61-24.44-1.18-7.77-3.93-7-17.69-15.29-20.21-5.18-1.56-11.49,2.34-16.22,1.13-.1-6.79-1.35-13-6-17.74-1.44-2-6.78-5.65-13.83-5.64-19.71,0-21.48,12.9-23,17.82-5,.37-10.36-5-15.86-4.59-8.69.66-10.87,14.26-19.3,16.42-8.15,2.08-16.65-8-24.11-4.12-5,2.59-5.5,9.67-9.27,13.89-3.13,3.51-8.13,4.6-12.82,5s-9.55.32-13.86,2.2l-.12.06c-5.21,2.36-4,9.75,1.07,10.91H560.38a6.78,6.78,0,0,0,6.54-8.63A10.35,10.35,0,0,0,563.8,537.41Z"/></svg>
