<svg id="Layer_21" data-name="Layer 21" xmlns="http://www.w3.org/2000/svg" xmlns:xlink="http://www.w3.org/1999/xlink" style="background: #2f4962" viewBox="0 0 704.21 359.88" width="600"><defs><clipPath id="clip-path"><path d="M663.53,353.62c-38.47,0-38.47-1.39-76.93-1.39s-38.47-2.72-76.93-2.72-38.47.32-76.93.32-38.47,2.62-76.93,2.62-38.47-3.11-76.94-3.11-38.46,10.54-76.93,10.54-38.47-8.55-76.94-8.55c-21.24,0-44.57-13.53-44.57-34.77,0-34.06,6.27-34.06,6.27-68.11s-6.23-34.06-6.23-68.12,5.82-34.06,5.82-68.12,1.82-34,1.82-68.11c0-21.24,15.68-37,36.92-37C163.5,7.1,163.5,4.65,202,4.65s38.47,7,76.93,7,38.4-10.6,76.9-10.6,38.47,9.89,76.94,9.89,38.46-9.11,76.93-9.11,38.47,3.75,76.93,3.75S625.06,0,663.53,0c21.24,0,33.68,22.86,33.68,44.1,0,34.05,4.11,34.05,4.11,68.11s-2.67,34.06-2.67,68.11,5.56,34.08,5.56,68.08-5.62,34.06-5.62,68.12C698.59,337.8,684.77,353.62,663.53,353.62Z" style="fill:none"/></clipPath><linearGradient id="linear-gradient" x1="390.71" y1="196.9" x2="391.07" y2="260.98" gradientTransform="translate(851.73 396.8) rotate(180)" gradientUnits="userSpaceOnUse"><stop offset="0" stop-color="#fafbfb" stop-opacity="0"/><stop offset="1" stop-color="#78a9a8"/></linearGradient><linearGradient id="linear-gradient-2" x1="740.62" y1="169.75" x2="741.17" y2="265.99" xlink:href="#linear-gradient"/><linearGradient id="linear-gradient-3" x1="644.24" y1="274.81" x2="644.79" y2="371.04" xlink:href="#linear-gradient"/><linearGradient id="linear-gradient-4" x1="242.05" y1="214.14" x2="242.42" y2="278.23" xlink:href="#linear-gradient"/><linearGradient id="linear-gradient-5" x1="297.05" y1="112.32" x2="297.35" y2="165.38" xlink:href="#linear-gradient"/></defs><title>Artboard 1</title><g id="Layer_21" data-name="Layer 21"><path d="M663.53,353.62c-38.47,0-38.47-1.39-76.93-1.39s-38.47-2.72-76.93-2.72-38.47.32-76.93.32-38.47,2.62-76.93,2.62-38.47-3.11-76.94-3.11-38.46,10.54-76.93,10.54-38.47-8.55-76.94-8.55c-21.24,0-44.57-13.53-44.57-34.77,0-34.06,6.27-34.06,6.27-68.11s-6.23-34.06-6.23-68.12,5.82-34.06,5.82-68.12,1.82-34,1.82-68.11c0-21.24,15.68-37,36.92-37C163.5,7.1,163.5,4.65,202,4.65s38.47,7,76.93,7,38.4-10.6,76.9-10.6,38.47,9.89,76.94,9.89,38.46-9.11,76.93-9.11,38.47,3.75,76.93,3.75S625.06,0,663.53,0c21.24,0,33.68,22.86,33.68,44.1,0,34.05,4.11,34.05,4.11,68.11s-2.67,34.06-2.67,68.11,5.56,34.08,5.56,68.08-5.62,34.06-5.62,68.12C698.59,337.8,684.77,353.62,663.53,353.62Z" style="fill:#3176a9"/><g style="clip-path:url(#clip-path)"><path d="M454.62,237.28c2.71,5.67,4.62,12.05,9.34,16.2,4.2,3.68,10.06,5,15.64,4.72s11-1.95,16.29-3.63c-.85,9.66-9.1,17.56-18.43,20.17s-19.42.7-28.39-2.95a25.7,25.7,0,0,1-8.42-5c-6-5.83-6.13-15.15-8.53-23.14-1.4-4.69-3.71-9.31-3.42-14.2C429.92,209.19,451.1,229.9,454.62,237.28Z" style="fill:#2f4962"/><path d="M430.6,225.65s-41.74-85.41-19.82-107.75c5.73-5.84,15,6.93,18.78,14.18s5.07,15.5,6.3,23.59q2.07,13.7,4.13,27.38c1.44,9.51,3.42,20,11,25.88,6.56,5.1,15.54,5.35,23.85,5.39-9.16,14-29.5,19.17-44.25,11.33" style="fill:#2f4962"/><path d="M411.29,148.76A22.37,22.37,0,0,1,426.93,163c1.59,4.65,1.57,9.66,1.76,14.57.32,8.49,1.35,17.13,5,24.82s10.19,14.35,18.45,16.32" style="fill:none;stroke:#5da6a2;stroke-miterlimit:10;stroke-width:0.6899999976158142px"/><path d="M462,267a21.68,21.68,0,0,0,7.74.47" style="fill:none;stroke:#5da6a2;stroke-miterlimit:10;stroke-width:0.6899999976158142px"/><path d="M430.42,230.46c5.24,2.36,9,7.13,11.76,12.17s4.69,10.49,7.5,15.49l.78,1.32a16.92,16.92,0,0,0,2.41,3.11,13.86,13.86,0,0,0,4.21,2.81" style="fill:none;stroke:#5da6a2;stroke-miterlimit:10;stroke-width:0.6899999976158142px"/><path d="M375.79,305.88c-6.13,16.72-20.94,28.51-35.45,38.83a211.16,211.16,0,0,1-22.55,14.47,144.39,144.39,0,0,1-18.73,8.34,170.27,170.27,0,0,1-81,8.85l106.51-86Z" style="fill:#2f4962"/><path d="M331.05,329.47c-13.76,11.31-30.71,19-48.09,23.4-24.83,6.34-50.75,6.73-76.38,6.79" style="fill:none;stroke:#5da6a2;stroke-miterlimit:10;stroke-width:0.6899999976158142px"/><path d="M341.91,319q-2.57,2.94-5.38,5.64" style="fill:none;stroke:#5da6a2;stroke-miterlimit:10;stroke-width:0.6899999976158142px"/><path d="M331.46,312.82c-9.26,10.33-21.65,17.49-34.72,22.14s-26.85,6.94-40.61,8.67" style="fill:none;stroke:#5da6a2;stroke-miterlimit:10;stroke-width:0.6899999976158142px"/><path d="M319.29,309.76c-10.69,8.84-24,14.07-37.63,16.73s-27.55,2.91-41.37,2.52" style="fill:none;stroke:#5da6a2;stroke-miterlimit:10;stroke-width:0.6899999976158142px"/><path d="M281.34,325.53a505.26,505.26,0,0,0-61.53,56.17c-7.66,8.26-15.54,18.22-14.31,29.42-40-18.45-132-45.36-140.06-88.7-.27-1.47,61.41-14.83,62.16-16.14a6.2,6.2,0,0,1,2.47-2.1c16.46-9.46,36.14-10.78,54.74-14.55,22.6-4.58,44.2-13,66.25-19.77,15.25-4.67,32.67-8.31,46.41-.22,11.38,6.69,17.54,20.05,28.84,26.9,2.65,1.61,4.55,3.38,5.15,6.3-7.08,4-17.78,3.34-25.76,7C296.92,313.93,289,319.64,281.34,325.53Z" style="fill:#fff"/><path d="M409.14,126.28c16.24,48.39,32.7,99.13,24.61,149.53-1.67,10.45-4.75,21.34-12.54,28.5-9.28,8.53-22.91,9.8-35.48,10.53-15.25.89-30.57,1.61-45.78.19a165.16,165.16,0,0,1-102.76-49.5l81.92-116.86,33.33-12.33Z" style="fill:#fff"/><path d="M412.05,288.89c4.5-1.62-1.31-10.54-5.75-12.32s-13.21.62-17.35,3C389,279.58,390.29,296.69,412.05,288.89Z" style="fill:none;stroke:#2f4962;stroke-miterlimit:10;stroke-width:2.680000066757202px"/><path d="M-116.71,1004.58c-.61-26.46-1.77-53.16,3-79.18,4.5-24.34,14.1-47.39,23.74-70.19C-62.8,791-34.61,726.49-20.5,658.21-9.37,604.28-7.21,548.78,4.5,495c9.91-45.4-9.43-93.42,13.38-133.91C40.46,321,89.6,330.81,129.75,345.24Q185,365.1,238.13,390.38c21.72,10.34,43.31,21.46,62,36.67a196.28,196.28,0,0,1,34,36.29c-14.24,11.22-18,40.78-21.57,57.13a322.29,322.29,0,0,0-7.36,71.22c.43,47.77,11.48,94.75,17,142.2,13.57,116.62-6.36,234.6-1.89,351.89a207.64,207.64,0,0,0-27,2.82c-24.47,4.34-47.65,14-71.5,20.94-109.46,32.07-227.62,8-340.22,26.16Q-115.25,1070.2-116.71,1004.58Z" style="fill:#fff"/><path d="M240.57,384.63a79.31,79.31,0,0,1,14.69,25,108.38,108.38,0,0,1,6.19,28.28,165.57,165.57,0,0,1-.24,28.86c-.83,9.57-2.26,19-3.82,28.47l-.24,1.46h-1.5A146.79,146.79,0,0,1,111.94,318.87l4.58,1A142.64,142.64,0,0,0,255.64,493.18l-1.74,1.48c1.59-9.38,3-18.76,3.91-28.19a160.79,160.79,0,0,0,.36-28.27,104.13,104.13,0,0,0-5.88-27.46,76.39,76.39,0,0,0-14-24.1Z" style="fill:#e5af34"/><path d="M2.61,282.62c14.92-8.8,28.19-16,41.14-23.77,6.43-2.87,12.85-5.75,19.19-8.8a391.47,391.47,0,0,0,69.18-42.65c15.24-11.75,30.24-25.72,34.75-43.84,3.09-12.41.89-25.36,1.14-38.11.88-44.78,36-87.1,81.67-98.53A170.89,170.89,0,0,1,282,22.59c32.35-1.7,66.15,1.82,93.8,17.74a94.37,94.37,0,0,1,27.75,24.31c9.3,14.18,14.57,30.89,13.88,47.6s-5.38,29.52-16.15,42c-13,15.12-55.81,56.92-93.31,83.61C178.35,330.08,144.14,336.7,112,350.59,76.71,365.81,37.63,374.49-.53,380.64q-1.2-14.19-2.42-28.39Q-1.1,322.46.73,292.69C1,289.28,1.22,285.74,2.61,282.62Z" style="fill:#2f4962"/><path d="M271.29,292.4c-3.13-1.91-6.39-4-9.82-6.18" style="fill:none;stroke:#2f4962;stroke-miterlimit:10;stroke-width:2.680000066757202px"/><path d="M343.64,317.27c-27.57-2.8-43.8-8.26-65.24-20.65" style="fill:none;stroke:#2f4962;stroke-miterlimit:10;stroke-width:2.680000066757202px"/><circle cx="350.84" cy="248.4" r="20.26" style="fill:#e5af34"/><path d="M371.67,210a45,45,0,0,0,7.62,1.42,37.71,37.71,0,0,0,7.66,0,24,24,0,0,0,7.16-1.87,18.46,18.46,0,0,0,3.1-1.81,17.92,17.92,0,0,0,2.59-2.41l3.09,2.76a21.9,21.9,0,0,1-3.4,2.9A22.93,22.93,0,0,1,395.6,213a27.51,27.51,0,0,1-8.35,1.82,41.35,41.35,0,0,1-8.32-.34,46.9,46.9,0,0,1-8.09-1.84Z" style="fill:#2f4962"/><path d="M371.64,180.81a21.07,21.07,0,0,1,7.52-4.85,26,26,0,0,1,8.58-1.67,36.53,36.53,0,0,1,16.64,3.62,25.81,25.81,0,0,1,7.17,4.93,25.47,25.47,0,0,1,5,7.08,47.7,47.7,0,0,1,4.24,16.24c.56,5.52.6,10.92,1.14,16.23a42.2,42.2,0,0,0,3.9,15.08c.27.57.65,1.18,1,2a4.38,4.38,0,0,1-1.33,5.34,10.63,10.63,0,0,1-2,1.25,24.7,24.7,0,0,1-8.14,2.73,17.21,17.21,0,0,1-4.42.06,15.05,15.05,0,0,1-4.3-1.2,12.37,12.37,0,0,1-6.35-6.25l2.46-1.06a9.7,9.7,0,0,0,5.06,4.77,13,13,0,0,0,7.2.84,22.17,22.17,0,0,0,7.15-2.51c1.15-.57,2-1.3,2.07-1.79a1.8,1.8,0,0,0-.18-1.07c-.19-.48-.53-1-.85-1.68a45.17,45.17,0,0,1-4.41-16.14c-.62-5.47-.73-10.93-1.33-16.19a44.21,44.21,0,0,0-4-15,21.4,21.4,0,0,0-10.62-10.21A32.56,32.56,0,0,0,388,178.28c-5,.2-10,2-13.27,5.44Z" style="fill:#2f4962"/><path d="M390.39,170.82s12-.87,16.29,8.82c0,0-12.79-2.51-20.75,2.78s-29.11,7.32-34,.21-5.42-12.66-1-10.55,8,7.08,12,2.21,9.44-7.07,13.45-3.25C376.37,171,384.8,165.19,390.39,170.82Z" style="fill:#e5af34"/><path d="M245.93,43.94S228.93,211.4,13.78,282.4" style="fill:none;stroke:#5da6a2;stroke-miterlimit:10;stroke-width:1.340000033378601px"/><path d="M171.51,206.89c-37.09,34.15-87.28,66.52-155,89.73" style="fill:none;stroke:#5da6a2;stroke-miterlimit:10;stroke-width:1.340000033378601px"/><path d="M193.29,185.12q-5.72,6.21-11.94,12.39" style="fill:none;stroke:#5da6a2;stroke-miterlimit:10;stroke-width:1.340000033378601px"/><path d="M270.29,49.57c-6.42,23.44-22.37,67.82-59.11,114.55" style="fill:none;stroke:#5da6a2;stroke-miterlimit:10;stroke-width:1.340000033378601px"/><path d="M274.14,32.31s-.37,2.57-1.41,7.24" style="fill:none;stroke:#5da6a2;stroke-miterlimit:10;stroke-width:1.340000033378601px"/><path d="M303.29,35.77s-47.17,202.74-286.84,274" style="fill:none;stroke:#5da6a2;stroke-miterlimit:10;stroke-width:1.340000033378601px"/><path d="M46.48,325.72q-14.55,4.44-30,8.41" style="fill:none;stroke:#5da6a2;stroke-miterlimit:10;stroke-width:1.340000033378601px"/><path d="M345.76,72.48c-20.22,54.15-86,179.63-275.83,245.59" style="fill:none;stroke:#5da6a2;stroke-miterlimit:10;stroke-width:1.340000033378601px"/><path d="M353.76,46.54s-1,4.77-3.59,13.13" style="fill:none;stroke:#5da6a2;stroke-miterlimit:10;stroke-width:1.340000033378601px"/><path d="M313.52,177.1q-2.79,3.39-5.74,6.82c-51.4,59.66-140,126.43-291.32,165.11" style="fill:none;stroke:#5da6a2;stroke-miterlimit:10;stroke-width:1.340000033378601px"/><path d="M376.11,59.67s-8.1,42.49-46.62,96.6" style="fill:none;stroke:#5da6a2;stroke-miterlimit:10;stroke-width:1.340000033378601px"/><path d="M401.29,81.9S343.5,282.56,17.9,361" style="fill:none;stroke:#5da6a2;stroke-miterlimit:10;stroke-width:1.340000033378601px"/><path d="M215.29,53s-12.39,58.37-41.55,93" style="fill:none;stroke:#5da6a2;stroke-miterlimit:10;stroke-width:1.340000033378601px"/><path d="M330.06,39.4S272.29,255.59,16.46,321.77" style="fill:none;stroke:#5da6a2;stroke-miterlimit:10;stroke-width:1.340000033378601px"/><path d="M248,338.68A187.8,187.8,0,0,1,227.44,353,75,75,0,0,1,216,358.4a53.51,53.51,0,0,1-12.36,3l-.29-2.67c8.06-.75,15.81-3.74,23-7.69A185.58,185.58,0,0,0,247,337.3Z" style="fill:#2f4962"/><path d="M236.71,53c0,20,16.33,34.13,35.55,33.84-19.22.29-35.18,15.35-35.66,33.64.48-18.29-14.71-32.87-33.93-32.57C221.89,87.64,236.71,71.32,236.71,53Z" style="fill:#fff"/><path d="M299.42,56.78c0,11.48,9.35,19.55,20.36,19.38-11,.17-20.16,8.8-20.43,19.27.27-10.47-8.43-18.82-19.43-18.66A20.06,20.06,0,0,0,299.42,56.78Z" style="fill:#fff"/><path d="M409.37,58.08c-1.41-2.27-3-4.43-4.54-6.63a4.45,4.45,0,0,0-7.84,1c-6.21,17.45-8.71,41-3.77,48.54,2.38,3.67,1.23,2.08-1.37,5.59,3.1-4.19,9.18-7.54,13.7-9.92,3.58-1.89,8.72-2.68,10.23-6.85C419.2,80.34,414.34,66.13,409.37,58.08Z" style="fill:#d17475"/><path d="M421.49,102.09a9.25,9.25,0,0,0-16-8.56,51.65,51.65,0,0,1-4,4.37c-8.79,6.78-31.57,19.71-85,29.66q-11.16,2-23.7,3.89T269,134.57c-54,5.91-79.55.11-89.93-3.84a55.91,55.91,0,0,1-5-3,9.25,9.25,0,0,0-12.7,12.77,28.6,28.6,0,0,0,11.46,7.64c14.8,7,39.73,11.58,98.3,4.84q10.81-1.18,22.44-2.9l2.12-.32,2.11-.31q11.64-1.71,22.33-3.7c58-10.47,80.55-22.1,92.71-33A28.69,28.69,0,0,0,421.49,102.09Z" style="fill:#d17475"/><path d="M346.93,112.47c-.5-1.9-5.91-8.36-5.91-8.36s-1.48,8.29-1,10.19a3.56,3.56,0,1,0,6.91-1.73l0-.1Z" style="fill:#d17475"/><path d="M383.09,99.31c-.65-1.85-6.54-7.87-6.54-7.87s-.84,8.37-.19,10.22a3.56,3.56,0,1,0,6.73-2.35Z" style="fill:#d17475"/><path d="M270.1,124.23c-.29-1.94-4.93-9-4.93-9s-2.41,8.07-2.12,10a3.56,3.56,0,0,0,7-1Z" style="fill:#d17475"/><path d="M232.49,128c0-2-3.44-9.62-3.44-9.62s-3.66,7.55-3.68,9.51a3.56,3.56,0,1,0,7.12.11Z" style="fill:#d17475"/><path d="M192.52,124.73c.16-2-2.76-9.86-2.76-9.86s-4.17,7.31-4.34,9.27a3.56,3.56,0,1,0,7.1.59Z" style="fill:#d17475"/><path d="M308.64,120c-.29-2-4.92-9-4.92-9s-2.41,8.07-2.13,10a3.56,3.56,0,1,0,7.05-1Z" style="fill:#d17475"/><rect x="277.87" y="123.91" width="17.27" height="17.27" transform="translate(9.27 283.53) rotate(-53.4)" style="fill:#d17475"/><polygon points="328.04 137.29 314.36 127.95 324.47 113.13 338.34 123.43 328.04 137.29" style="fill:#d17475"/><polygon points="368.13 128.94 353.76 120.7 362.69 105.14 377.32 114.32 368.13 128.94" style="fill:#d17475"/><rect x="239.64" y="128.12" width="17.27" height="17.27" transform="translate(-16.4 238.21) rotate(-49.82)" style="fill:#d17475"/><polygon points="210.79 148.94 199.17 136.16 211.93 124.54 223.08 139.79 210.79 148.94" style="fill:#d17475"/><rect x="322.1" y="124.86" width="10.95" height="10.95" transform="translate(36.97 329.93) rotate(-56.18)" style="fill:none;stroke:#fff;stroke-miterlimit:10;stroke-width:1.850000023841858px"/><rect x="361.15" y="116.34" width="10.95" height="10.95" transform="translate(97.1 398.6) rotate(-64.14)" style="fill:none;stroke:#fff;stroke-miterlimit:10;stroke-width:1.850000023841858px"/><rect x="303.9" y="133.84" width="3.73" height="3.73" transform="translate(22.25 313.28) rotate(-55.99)" style="fill:#fff"/><rect x="345.84" y="128.25" width="3.73" height="3.73" transform="translate(46.07 346.57) rotate(-56.18)" style="fill:#fff"/><rect x="385.54" y="115.82" width="3.73" height="3.73" transform="translate(160.31 452.88) rotate(-72.78)" style="fill:#fff"/><rect x="266.49" y="141.24" width="3.73" height="3.73" transform="translate(-6.92 272.4) rotate(-53.23)" style="fill:#fff"/><rect x="228.09" y="144.2" width="3.73" height="3.73" transform="translate(-32.33 219.68) rotate(-48.1)" style="fill:#fff"/><rect x="188.43" y="141.09" width="3.73" height="3.73" transform="translate(-41.2 198.25) rotate(-50.35)" style="fill:#fff"/><rect x="281.74" y="132.13" width="10.95" height="10.95" transform="translate(1.75 278.81) rotate(-51.92)" style="fill:none;stroke:#fff;stroke-miterlimit:10;stroke-width:1.850000023841858px"/><rect x="243.46" y="135.45" width="10.95" height="10.95" transform="translate(-17.65 244.67) rotate(-50.78)" style="fill:none;stroke:#fff;stroke-miterlimit:10;stroke-width:1.850000023841858px"/><rect x="204.87" y="136.63" width="10.95" height="10.95" transform="translate(-39.99 184.21) rotate(-43.59)" style="fill:none;stroke:#fff;stroke-miterlimit:10;stroke-width:1.850000023841858px"/><path d="M181.29,141.19a46.51,46.51,0,0,1-19.64-9.86" style="fill:none;stroke:#fff;stroke-miterlimit:10;stroke-width:1.850000023841858px"/><path d="M420.49,95.81s-6.6,9.33-23.06,17.12" style="fill:none;stroke:#fff;stroke-miterlimit:10;stroke-width:1.850000023841858px"/><path d="M409.89,88.3q-1.11-9.52-1.61-19.09c-.11-2.14-3.46-2.16-3.35,0q.51,9.57,1.61,19.09C406.79,90.42,410.14,90.44,409.89,88.3Z" style="fill:#fff"/><path d="M408.55,80.69c-1.13-2-3.16-3.19-5.2-4.17a1.72,1.72,0,0,0-2.29.6,1.69,1.69,0,0,0,.6,2.29c1.5.72,3.16,1.45,4,3,1,1.89,3.94.2,2.89-1.69Z" style="fill:#fff"/><path d="M409.05,77.81a12.73,12.73,0,0,1,2.9-2.16c1.9-1,.21-3.93-1.69-2.89a15.88,15.88,0,0,0-3.58,2.68,1.68,1.68,0,0,0,2.37,2.37Z" style="fill:#fff"/><path d="M412.55,82.85c-1.3,1.94-2.08,3.73-4.23,4.92a12.48,12.48,0,0,1-6.68,1.41c-2.16-.09-2.15,3.27,0,3.35A15.82,15.82,0,0,0,410,90.66c2.71-1.49,3.79-3.66,5.43-6.12,1.2-1.8-1.7-3.47-2.89-1.69Z" style="fill:#fff"/></g><path d="M387.77,181.5h0c.08-.14.16-.27.25-.4h0c.08-.12.18-.24.27-.35l0-.05c.09-.11.19-.21.29-.31l.07-.06.3-.26.1-.08.29-.21.14-.08.29-.17.18-.09.27-.12.23-.09.25-.09.27-.07.23,0a.68.68,0,0,0,.34-.06h.71a5.31,5.31,0,0,1,2.38.57,7.69,7.69,0,0,1,.58-.7,8,8,0,0,1,4.85-2.48,8.39,8.39,0,0,1,1-.06,7.66,7.66,0,0,1,1.59.17l.51.12a8,8,0,0,1,11.42-5.44,13.21,13.21,0,0,1-.31-2.08v-.81a12.67,12.67,0,0,1,16.23-12.18,12.67,12.67,0,0,1,21.23-7.74l.45.44a18.86,18.86,0,0,1,26.66.84l.08.09c.35.37.68.76,1,1.16a18.64,18.64,0,0,1,1.7,2.53,19.21,19.21,0,0,1,1.74,4.29c.43,0,.88-.07,1.32-.07a12.61,12.61,0,0,1,8.22,3,13,13,0,0,1,3.19,4.12,7.92,7.92,0,0,1,8,1.47c.18.16.35.32.51.49a8,8,0,0,1,2.13,4.38,8,8,0,0,1,10.89,2.79,7.84,7.84,0,0,1,.77,1.76,5.33,5.33,0,0,1,.17.66,7.92,7.92,0,0,1,8.51,2.95,5.3,5.3,0,1,1,0,9.46,7.93,7.93,0,0,1-10.91,1.83A8,8,0,0,1,505.5,194a8.34,8.34,0,0,1-1.68-1.15A8,8,0,0,1,493,196.29a8.16,8.16,0,0,1-2.87-2.51,8,8,0,0,1-9.74-2.2,7.94,7.94,0,0,1-10.71,6.07,18.92,18.92,0,0,1-29.62-4.5,7.88,7.88,0,0,1-8.42.9,8,8,0,0,1-13.66-.92,7.94,7.94,0,0,1-11.21-.65,8.13,8.13,0,0,1-1.15-1.69A7.93,7.93,0,0,1,394.75,189a5.29,5.29,0,0,1-7.11-2.33,5.4,5.4,0,0,1-.57-2.4A5.22,5.22,0,0,1,387.77,181.5Z" style="fill:url(#linear-gradient); mix-blend-mode: multiply"/><path d="M1.08,199.4h0c.12-.2.25-.4.39-.59h0c.13-.18.27-.36.42-.53l.07-.07c.14-.16.28-.31.43-.46l.11-.1.45-.38.15-.12.44-.32.21-.13.43-.25.27-.13.41-.19L5.2,196l.38-.14.41-.1.33-.09.52-.07H7.1a5.34,5.34,0,0,1,.8,0,7.89,7.89,0,0,1,3.57.85,12.86,12.86,0,0,1,.88-1.05,11.89,11.89,0,0,1,7.28-3.72,11.76,11.76,0,0,1,1.45-.09,11.37,11.37,0,0,1,2.4.25c.26.05.51.12.77.18a11.94,11.94,0,0,1,14.14-9.23,11.53,11.53,0,0,1,3,1.06,20.75,20.75,0,0,1-.47-3.13v-1.21a19,19,0,0,1,24.37-18.43,19.24,19.24,0,0,1,.74-3.43,19,19,0,0,1,31.14-8.19c.23.22.45.43.67.66a28.33,28.33,0,0,1,40,1.28l.11.12c.52.56,1,1.13,1.49,1.73a28.6,28.6,0,0,1,5.16,10.26,19.15,19.15,0,0,1,2-.11,19.06,19.06,0,0,1,17.12,10.74,11.88,11.88,0,0,1,4.13-.75,12.61,12.61,0,0,1,2.21.2,11.8,11.8,0,0,1,5.65,2.75,8.73,8.73,0,0,1,.76.73,11.91,11.91,0,0,1,3.21,6.57,12,12,0,0,1,16.36,4.2,12.14,12.14,0,0,1,1.15,2.64c.1.33.18.66.25,1a11.65,11.65,0,0,1,3.16-.44,12,12,0,0,1,9.62,4.86,8,8,0,1,1,0,14.21,11.94,11.94,0,0,1-16.39,2.75,12,12,0,0,1-18.59,3.53,12,12,0,0,1-20.51,1.38,11.8,11.8,0,0,1-5.25,1.22,12,12,0,0,1-9.36-4.52,11.91,11.91,0,0,1-13.72,9.77,12.27,12.27,0,0,1-2.37-.66,28.41,28.41,0,0,1-44.47-6.75A11.89,11.89,0,0,1,67,218.18a11.94,11.94,0,0,1-16.6,3.08,12.06,12.06,0,0,1-3.9-4.46,11.93,11.93,0,0,1-16.84-1,12.45,12.45,0,0,1-1.73-2.53,12,12,0,0,1-16.39-2.76,7.77,7.77,0,0,1-3.57.86,8,8,0,0,1-6.86-12Z" style="fill:url(#linear-gradient-2); mix-blend-mode: multiply"/><path d="M97.48,94.4h0c.12-.2.25-.4.39-.59v0c.13-.18.27-.36.42-.53l.06-.07c.14-.16.29-.31.44-.46l.11-.09a5.34,5.34,0,0,1,.44-.39l.16-.12.44-.32.21-.13.43-.25.27-.13.41-.19.34-.12.37-.14.41-.1.34-.08a4.67,4.67,0,0,1,.52-.08h.26a5.34,5.34,0,0,1,.8,0,7.89,7.89,0,0,1,3.57.85,11.11,11.11,0,0,1,.88-1A11.89,11.89,0,0,1,116,86.64a11.76,11.76,0,0,1,1.45-.09,12.07,12.07,0,0,1,2.4.25l.76.19a12,12,0,0,1,11.71-9.5,11.84,11.84,0,0,1,5.44,1.32,19.55,19.55,0,0,1-.47-3.13V74.47a19,19,0,0,1,18.94-19.06,18.81,18.81,0,0,1,5.43.77,19.24,19.24,0,0,1,.74-3.43,19,19,0,0,1,31.14-8.35c.23.21.45.42.67.65a28.6,28.6,0,0,1,5.86-4.22,28.3,28.3,0,0,1,34.3,5.62c.52.56,1,1.14,1.49,1.73A29.35,29.35,0,0,1,238.43,52a27.82,27.82,0,0,1,2.62,6.45,19.15,19.15,0,0,1,2-.11,19.06,19.06,0,0,1,17.12,10.74,11.88,11.88,0,0,1,4.13-.75,12.42,12.42,0,0,1,2.2.2,11.83,11.83,0,0,1,5.66,2.75c.26.23.52.48.76.73a12,12,0,0,1,3.21,6.58,11.92,11.92,0,0,1,17.5,6.82c.09.33.18.66.25,1a11.85,11.85,0,0,1,12.77,4.42,8,8,0,1,1,0,14.21,11.93,11.93,0,0,1-16.36,2.78A11.94,11.94,0,0,1,274.22,113a12.12,12.12,0,0,1-2.5-1.7,12,12,0,0,1-20.51,1.38,11.9,11.9,0,0,1-14.61-3.3,11.91,11.91,0,0,1-13.72,9.77,12.27,12.27,0,0,1-2.37-.66A28.41,28.41,0,0,1,176,111.76a11.85,11.85,0,0,1-7.39,2.57,12,12,0,0,1-5.26-1.22,12,12,0,0,1-20.51-1.39,11.93,11.93,0,0,1-18.56-3.5,11.93,11.93,0,0,1-16.39-2.76,7.77,7.77,0,0,1-3.57.86,7.95,7.95,0,0,1-6.86-12Z" style="fill:url(#linear-gradient-3); mix-blend-mode: multiply"/><path d="M536.46,164.26h0c.08-.13.17-.27.26-.39h0l.28-.35v-.05l.3-.3.07-.07a3.47,3.47,0,0,1,.29-.25l.11-.08a1.94,1.94,0,0,1,.29-.21l.23-.16.29-.17.18-.08L539,162l.22-.08.25-.09.28-.07.22-.06.35-.05h.7a5.16,5.16,0,0,1,2.38.57,8,8,0,0,1,5.43-3.18,8.39,8.39,0,0,1,1-.06,7.76,7.76,0,0,1,1.6.17l.51.12a8,8,0,0,1,9.51-6.13,8.35,8.35,0,0,1,1.91.68,13.23,13.23,0,0,1-.32-2.08V151a12.7,12.7,0,0,1,12.7-12.69,13.15,13.15,0,0,1,3.53.51,13.64,13.64,0,0,1,.5-2.28A12.68,12.68,0,0,1,600.54,131c.15.14.3.28.44.43a19.29,19.29,0,0,1,3.91-2.81,18.86,18.86,0,0,1,22.76,3.74c.34.37.67.75,1,1.15a18.68,18.68,0,0,1,1.69,2.54,18.39,18.39,0,0,1,1.74,4.29,11.85,11.85,0,0,1,1.33-.07,12.69,12.69,0,0,1,11.4,7.15,7.83,7.83,0,0,1,2.75-.5,8,8,0,0,1,5.24,2c.17.15.34.31.5.48a7.86,7.86,0,0,1,2.14,4.38,7.91,7.91,0,0,1,11.62,4.55c.07.22.12.44.17.67a7.92,7.92,0,0,1,8.51,3,5.15,5.15,0,0,1,2.37-.57,5.3,5.3,0,1,1-2.37,10,8,8,0,0,1-10.92,1.84,7.93,7.93,0,0,1-10.67,3.48,8.13,8.13,0,0,1-1.69-1.15,8,8,0,0,1-13.66.92,7.92,7.92,0,0,1-9.73-2.2,8,8,0,0,1-7.84,6.62,7.87,7.87,0,0,1-2.87-.55,18.92,18.92,0,0,1-26.75-.59,19.23,19.23,0,0,1-2.87-3.9,7.91,7.91,0,0,1-8.42.89,8,8,0,0,1-13.66-.92,7.94,7.94,0,0,1-12.37-2.37,8,8,0,0,1-10.92-1.84,5.16,5.16,0,0,1-2.38.57,5.24,5.24,0,0,1-4.53-8Z" style="fill:url(#linear-gradient-4); mix-blend-mode: multiply"/><path d="M494.05,269.24h0l.21-.33h0l.23-.3h0l.24-.26.06-.05.24-.22.09-.06.24-.17.12-.08.23-.13.15-.08.23-.1.18-.07.21-.07.23-.06.19-.05h.87a4.46,4.46,0,0,1,2,.47,6.71,6.71,0,0,1,.48-.58,6.53,6.53,0,0,1,4-2.05,5.37,5.37,0,0,1,.8-.05,6.6,6.6,0,0,1,1.33.14,3.2,3.2,0,0,1,.42.1,6.58,6.58,0,0,1,7.79-5.1,6.44,6.44,0,0,1,1.66.59A11.16,11.16,0,0,1,516,259v-.67a10.49,10.49,0,0,1,13.43-10.09,11.18,11.18,0,0,1,.41-1.89A10.49,10.49,0,0,1,547,241.85a3.15,3.15,0,0,1,.37.36,16.08,16.08,0,0,1,3.23-2.33,15.62,15.62,0,0,1,18.92,3.1,10.42,10.42,0,0,1,.82,1,15.6,15.6,0,0,1,2.84,5.65,10.94,10.94,0,0,1,1.11-.23,10.52,10.52,0,0,1,9.44,5.92,6.57,6.57,0,0,1,2.28-.41,7,7,0,0,1,1.21.11,6.53,6.53,0,0,1,3.12,1.52,5.33,5.33,0,0,1,.42.4,6.63,6.63,0,0,1,1.77,3.62,6.58,6.58,0,0,1,9,2.34,6.29,6.29,0,0,1,.63,1.43,4.92,4.92,0,0,1,.14.55,6.41,6.41,0,0,1,1.74-.24,6.57,6.57,0,0,1,5.3,2.68,4.39,4.39,0,1,1,0,7.83,6.59,6.59,0,0,1-9,1.52,6.57,6.57,0,0,1-8.83,2.89,6.75,6.75,0,0,1-1.41-1,6.58,6.58,0,0,1-8.85,2.91,6.51,6.51,0,0,1-2.46-2.14,6.58,6.58,0,0,1-8-1.82,6.61,6.61,0,0,1-6.5,5.47,6.44,6.44,0,0,1-2.37-.45,15.65,15.65,0,0,1-22.13-.47,16.21,16.21,0,0,1-2.39-3.25,6.55,6.55,0,0,1-7,.74,6.6,6.6,0,0,1-11.3-.76,6.6,6.6,0,0,1-10.24-1.93,6.59,6.59,0,0,1-9-1.52,4.39,4.39,0,0,1-5.76-6.13Z" style="fill:url(#linear-gradient-5); mix-blend-mode: multiply"/></g></svg>