<svg id="Layer_1" data-name="Layer 1" xmlns="http://www.w3.org/2000/svg" viewBox="0 0 1507.89 890.26"><defs><style>.blc2-2_1{fill:#367d75;}.blc2-2_2{fill:#9fa851;}.blc2-2_3{fill:none;stroke:#367d75;stroke-miterlimit:10;stroke-width:3.62px;}.blc2-2_4{fill:#e5af36;}</style></defs><title>21</title><path class="blc2-2_2" d="M681.68,281.23c16.79,0,16.79-9.74,33.58-9.74s16.78,6.09,33.57,6.09,16.79-1.44,33.57-1.44,16.79-5.77,33.58-5.77,16.78-2.09,33.57-2.09,16.79,5.52,33.57,5.52,16.79,2.9,33.58,2.9,16.78-10.16,33.57-10.16,16.79,14.84,33.58,14.84,16.79,1.24,33.57,1.24c10.25,0,22,14.29,22,44.45,0,61.47-.67,61.47-.67,123s-2.56,61.47-2.56,123c0,11.54-3.42,21.85-7.34,21.85-17.26,0-17.26,4.71-34.53,4.71s-17.27-13.86-34.53-13.86-17.27,3.26-34.54,3.26-17.26,8.28-34.53,8.28-17.27,5.59-34.53,5.59-17.27-19.56-34.54-19.56-17.26,1.62-34.53,1.62-17.27,16-34.54,16-17.26-13.41-34.53-13.41-17.27,8.6-34.54,8.6c-9.4,0-19.68-24.66-19.68-52.35,0-56.64-5.14-42.29-5.14-98.94s8.73-71,8.73-127.63C667.44,292.48,673.3,281.23,681.68,281.23Z"/><path class="blc2-2_2" d="M1078.46,379.34c-.69-1.9-1.82-.66-2.75-.4-2,.55-3.87,1.6-6,1.29-2.32,1.74-5.09,1.37-7.69,1.5a27.33,27.33,0,0,1-9.35-.8c4.12-2.44,8.82-3.52,13.11-5.54a153.64,153.64,0,0,0,20-13.51c.67-.83,1.34-1.67,2-2.5l-2.36-2.33a36.33,36.33,0,0,1-9.6,8c-3.3,3.68-7.67,5.58-12.17,7.26a41.19,41.19,0,0,1-8.7,3.54,56,56,0,0,1,5.46-8.5c3-5.57,7.26-10.17,11.61-14.7l-2-2.4-11.2,13.94A79.49,79.49,0,0,1,1050,377c-1,1.24-2.55,1.32-3.91,1.78-2.66.9-5.33,1.76-8.21,2.71.13-1.88,1.37-3.21,2-4.76,3-7.2,6-14.42,8.33-21.87a7.22,7.22,0,0,1,1-1.54c0-2,1.59-2.44,3-3.18,7.54-4,15.68-7,21.79-13.37.8-.83,1.62-1.63,2.43-2.44l-1.59-1.95c-2,3.37-5.27,5.25-8.46,7.2-3.83,2.33-8.13,3.56-12.39,5A79.28,79.28,0,0,1,1071,324.05l-2.16-2.34c-2.92,3.11-6.53,5.45-9.39,8.65-5.47,6.13-9.53,13.14-13.28,20.37-1.65,3.57-3.59,8-5.68,12.74a33.86,33.86,0,0,1-5.31-7c-.45-.75-.9-1.5-1.34-2.25l.28,0a61,61,0,0,1,2.77-24l-2.8-.91a64.08,64.08,0,0,0-3.12,19.75,122.13,122.13,0,0,1-10-25.81l-2.84.75a124.33,124.33,0,0,0,7.4,20.58c-.5-.23-1-.48-1.46-.74a88.81,88.81,0,0,1-17.15-12.07l-2,2.19a92.34,92.34,0,0,0,17.72,12.47,16.32,16.32,0,0,0,4.63,1.85q2.49,5,5.42,9.71a38.85,38.85,0,0,0,5.24,7c.42.44.87.85,1.33,1.25-5.34,12.17-11.48,26.05-16.32,34.59,1,.79,1.73,2,2.7,2.74,1.78-3.23,9.21-17.17,13.09-18.28a14.44,14.44,0,0,1,4.84-.73c5.8.29,11.61.48,17.41.61,3.46.08,6.75-1,10.09-1.68,1.84-.69,3.74-1.28,5.51-2.13C1077.34,381,1079.16,381.28,1078.46,379.34Zm-26.31,1.4.31.18-.41.09Z"/><path class="blc2-2_1" d="M794.35,494.58a2.39,2.39,0,0,0,.12-.22,103.19,103.19,0,0,1,11.85-12.42c9.37-3.72,18.9,5,28.36.76,1-.43.18-1.86-.77-1.43-8.15,3.64-16.59-2.65-25-1.62,5.92-5,12.23-9.69,18.54-14.34.85-.63-.27-1.81-1.11-1.19-3.89,2.87-7.78,5.73-11.58,8.69a10.87,10.87,0,0,0-.17-6.62c-1.77-5.27-2.34-10.05,0-15.3.42-1-1.15-1.42-1.56-.47a19.53,19.53,0,0,0-1.28,12c.46,2.11,1.63,4.11,1.91,6.25a9.58,9.58,0,0,1-1.43,5.94,1,1,0,0,0-.12.34c-2.28,1.83-4.51,3.7-6.69,5.64a.81.81,0,0,0-.21.2,111.11,111.11,0,0,0-8.57,8.52,26.9,26.9,0,0,0-.13-16.32c-.33-1-1.91-.61-1.58.38a25.42,25.42,0,0,1-1.76,20c-.6.75-1.19,1.51-1.77,2.29a75.11,75.11,0,0,0-7.15,11.82,32.91,32.91,0,0,0-3.14-13.83c-.44-.95-1.86-.17-1.43.77A30,30,0,0,1,782.24,512c-.59,1.45-1.14,2.92-1.63,4.42-2.72,8.27-4.75,17.12-11.37,23.27a.81.81,0,0,0,1.11,1.19c5.63-5.23,8.19-12.43,10.43-19.59.35-1.13.71-2.25,1.09-3.35a1.07,1.07,0,0,0,.2-.22c3.14-5,9.34-4.93,14.59-4.56,1,.08,1.07-1.55,0-1.62-4.56-.33-9.6-.27-13.25,2.37a.65.65,0,0,0,.12-.28c.05-.21.08-.41.12-.62a72.37,72.37,0,0,1,7.5-14.27.86.86,0,0,0,.35-.12c6.5-4.28,15.18-3,21,1.86.79.67,2-.44,1.18-1.11-5.63-4.73-13.69-6.47-20.43-3.56l.76-1A.76.76,0,0,0,794.35,494.58Z"/><path class="blc2-2_1" d="M811.29,514.29c-5-2.18-7.88-7.83-13.53-8.69-4.41-.67-7,2.62-9,6a.77.77,0,0,0,.09.94.74.74,0,0,0,.22.66,17.4,17.4,0,0,0,22.38,2.55A.83.83,0,0,0,811.29,514.29Z"/><path class="blc2-2_1" d="M849.8,455.68l-.17-.1c-5.31-2.54-12.21-3.7-17.72-1-4.64,2.24-7.65,7.11-8.48,12.08a.75.75,0,0,0,.36,1,14.1,14.1,0,0,0,14.77,2.09c5.64-2.33,9.31-7.66,11.58-13.1A.72.72,0,0,0,849.8,455.68Z"/><path class="blc2-2_1" d="M853.29,486.56a.78.78,0,0,0-.15-.1c-5.63-3.09-10-8.85-16.56-10.09-4.51-.86-9.52,1.29-10.69,6a1,1,0,0,0,.06.62c2.09,4.48,5.87,8.13,10.94,8.8,5.75.76,11.57-1.57,16.76-3.74C854.48,487.71,854,486.62,853.29,486.56Z"/><path class="blc2-2_1" d="M821.29,448c-.2-5.8-4-11-4.56-16.81a.82.82,0,0,0-1.37-.61,26.41,26.41,0,0,0-5.13,6.11,47.18,47.18,0,0,0-4.19,6.9,10.73,10.73,0,0,0-.52,7.89c1,2.72,3.36,4.36,5.71,5.86a.9.9,0,0,0,.39.13.73.73,0,0,0,.3,0A9.29,9.29,0,0,0,821.29,448Z"/><path class="blc2-2_1" d="M784.64,487.38c-2.62-5.25-7.95-8.19-12.92-10.83a.82.82,0,0,0-1.15,1.07c2.9,5.47.2,11.82,2.21,17.5,1.36,3.85,5.16,6.85,9.32,5.3a.88.88,0,0,0,.28-.17.7.7,0,0,0,.68-.22C786.42,496.59,786.75,491.59,784.64,487.38Z"/><path class="blc2-2_1" d="M800.75,478.9c2.41-3.32,2.68-7.94,1.18-11.92-2.62-7-9.12-11.36-13.88-16.76-.6-.67-1.48,0-1.39.75.81,6.76-1.74,13.51-.42,20.24,1,5,4.63,9.49,10,9.8h.12A5.4,5.4,0,0,0,800.75,478.9Z"/><path class="blc2-2_1" d="M835.48,510.56a.63.63,0,0,0-.34-.39c-5.07-5.19-8.08-12.72-14.75-16.21-4.53-2.37-10.37-2-13.58,2.31a7.14,7.14,0,0,0-.37,3.34c1.66,11.8,18.69,13.15,28.28,12.13a.65.65,0,0,0,.21-.06A.81.81,0,0,0,835.48,510.56Z"/><path class="blc2-2_1" d="M812.69,457.48c.71-2.94-.15-5.86-.28-8.82a22.09,22.09,0,0,1,2-10.13c.15-.31-.31-.6-.46-.29a22.82,22.82,0,0,0-2.13,9c-.09,3.44,1.17,6.93.26,10.32Z"/><path class="blc2-2_1" d="M841.07,458.85a32.1,32.1,0,0,1-10.33,5.71,44.49,44.49,0,0,1-5.19,1.24,6.94,6.94,0,0,0-2.1.71.5.5,0,0,1,0,.12.65.65,0,0,0,0,.56c1.16-.89,2.92-.95,4.31-1.25a31.76,31.76,0,0,0,4.87-1.47,32.83,32.83,0,0,0,8.86-5.22C841.71,459,841.34,458.63,841.07,458.85Z"/><path class="blc2-2_1" d="M846.3,486.23A41.87,41.87,0,0,1,835,485c-3.06-.79-6-2.21-9.15-2.62v0a.74.74,0,0,0,0,.39s0,.08,0,.12c3.41.45,6.61,2.07,10,2.84a42.28,42.28,0,0,0,10.4,1C846.63,486.77,846.65,486.22,846.3,486.23Z"/><path class="blc2-2_1" d="M817.83,501.43c1.82,1.28,3.56,2.69,5.35,4a9.7,9.7,0,0,0,5.29,2.31.27.27,0,0,0,0-.54c-2.61-.13-4.62-1.91-6.59-3.42-1.77-1.36-3.55-2.72-5.42-3.94a26,26,0,0,0-9.32-4c-.11.14-.24.27-.35.42a.31.31,0,0,0,0,.07A27.49,27.49,0,0,1,817.83,501.43Z"/><path class="blc2-2_1" d="M807.13,514.22c-5.92-.33-12.52-4.23-18.43-2.44a.75.75,0,0,0,0,.57c5.86-1.89,12.51,2.08,18.41,2.41C807.47,514.78,807.48,514.24,807.13,514.22Z"/><path class="blc2-2_1" d="M776.17,482.37c-.19-.29-.67,0-.48.26a47,47,0,0,1,6.58,17.71l.11-.09a.68.68,0,0,0,.42,0A47.48,47.48,0,0,0,776.17,482.37Z"/><path class="blc2-2_1" d="M790.36,457.21a.27.27,0,0,0-.47.25A53,53,0,0,1,796.25,481h.1a2.55,2.55,0,0,0,.44,0A53.35,53.35,0,0,0,790.36,457.21Z"/><path class="blc2-2_3" d="M898.88,261.72S964,337.44,1043.32,295"/><path class="blc2-2_1" d="M657.36,359a117.6,117.6,0,0,0,38.74-9.46c3.07-1.31,6.09-2.75,9-4.33l4.39-2.4,4.27-2.61a141.14,141.14,0,0,0,16-11.95,152.19,152.19,0,0,0,14.11-14.17c1.1-1.26,2.13-2.58,3.19-3.86l1.58-1.94,1.5-2c1-1.35,2-2.67,3-4l2.78-4.16c.95-1.37,1.8-2.82,2.65-4.25s1.75-2.84,2.55-4.3c1.56-3,3.22-5.85,4.6-8.9a170.3,170.3,0,0,0,7.58-18.51l7,2.43a179.69,179.69,0,0,1-8.23,19.2c-1.49,3.16-3.27,6.16-5,9.21-.86,1.52-1.83,3-2.73,4.46s-1.83,3-2.85,4.39l-3,4.3c-1,1.4-2.11,2.77-3.16,4.16l-1.6,2.07-1.68,2c-1.13,1.33-2.22,2.69-3.4,4a159.64,159.64,0,0,1-15,14.57,147.51,147.51,0,0,1-17,12.21l-4.51,2.65-4.62,2.44q-4.65,2.4-9.49,4.37a122.73,122.73,0,0,1-40.57,9.22Z"/><path class="blc2-2_1" d="M637,298.34a304.32,304.32,0,0,0,55.07,10.1c4.65.43,9.31.72,14,.92s9.27.26,13.92.1a200.58,200.58,0,0,0,27.67-2.76A192.11,192.11,0,0,0,800.39,290c16.5-8.15,31.68-19.15,43.12-33.26L850,262a128.63,128.63,0,0,1-10.09,10.65A140.6,140.6,0,0,1,828.64,282c-3.92,2.86-8,5.56-12.12,8s-8.42,4.76-12.78,6.82a199.49,199.49,0,0,1-55,16.71A206.4,206.4,0,0,1,720.12,316c-4.79.1-9.62,0-14.38-.29s-9.51-.63-14.25-1.13a310.7,310.7,0,0,1-56-11.06Z"/><path class="blc2-2_2" d="M1103.55,425a9.74,9.74,0,1,0-2.35-1.9,156.72,156.72,0,0,1-12,13.28c-5.7,5.54-12.17,10-18.7,14.5-11.85,8.08-24.88,16.1-33.35,28-1.16,1.62,1.25,3.6,2.42,2,8.9-12.47,22.87-20.6,35.28-29.14C1086,444.05,1095,435.05,1103.55,425Z"/><path class="blc2-2_2" d="M1123.17,459.29A9.77,9.77,0,1,0,1103.7,461a9.47,9.47,0,0,0,1,3.57c-10.3,6.81-20.66,12.58-32.84,15.84a108,108,0,0,0-33.05,15.74c-1.65,1.14.16,3.68,1.81,2.54a108.6,108.6,0,0,1,34.49-15.9c11.55-3,21.65-9.1,31.45-15.69a9.77,9.77,0,0,0,16.58-7.84Z"/><path class="blc2-2_2" d="M1075.19,420.91a9.78,9.78,0,0,0-19.14,4,8.18,8.18,0,0,0,.32,1.13c-13.63,10.8-15.31,33.12-30.55,43-1.69,1.09.13,3.63,1.81,2.54,15-9.73,17-32.13,30.22-42.75a9.77,9.77,0,0,0,17.34-7.93Z"/><circle class="blc2-2_4" cx="766.61" cy="443.22" r="3.82"/><circle class="blc2-2_4" cx="1025.54" cy="407.3" r="3.82"/></svg>
