<svg id="Layer_1" data-name="Layer 1" xmlns="http://www.w3.org/2000/svg" xmlns:xlink="http://www.w3.org/1999/xlink" viewBox="0 0 662.79 400" width="400"><defs><style>.cls-1,.cls-12,.cls-16,.cls-17,.cls-18,.cls-8,.cls-9{fill:none;}.cls-2{fill:#3176a9;}.cls-3{clip-path:url(#clip-path);}.cls-4{fill:#2f4962;}.cls-5{fill:#9ea751;}.cls-6{fill:#fff;}.cls-7{fill:#e3ae35;}.cls-8{stroke:#e2a849;}.cls-17,.cls-18,.cls-8,.cls-9{stroke-miterlimit:10;}.cls-8,.cls-9{stroke-width:2.66px;}.cls-12,.cls-16,.cls-17,.cls-9{stroke:#fff;}.cls-10{fill:#e5af34;}.cls-11{fill:#5da6a2;}.cls-12,.cls-16{stroke-linecap:round;stroke-linejoin:round;}.cls-12{stroke-width:1.98px;}.cls-13{fill:#be6e38;}.cls-14{fill:#eacd38;}.cls-15{fill:#365263;}.cls-16{stroke-width:1.54px;}.cls-17{stroke-width:0.99px;}.cls-18{stroke:#2f4962;stroke-width:2px;}</style><clipPath id="clip-path" transform="translate(108.26)"><path class="cls-1" d="M522.32,317c-24.26-26.52-53.51-46.61-84.07-65h0L426,244c-14.65-10-26-23.9-34.43-40.39C386.64,193.94,379,187.3,369,182.84A90.44,90.44,0,0,0,315,176c-19.05,3.41-36.31,9.78-51.68,23,.08-.65.17-1.3.25-2,1.09-9,2-18.08,2.83-26.35a45.12,45.12,0,0,1,29.91-38c.68-.24,1.36-.5,2-.77,16.59-6.51,32.74-14.22,48.75-22.06,16.73-8.19,33.92-11.57,52.32-7.9,6.33,1.26,12.68,2.41,19,3.61l.7-1.19c-5.54-6.55-10.88-13.29-16.66-19.61C388,69,370.57,57,352.36,46.05h0l-7.31-4.79A62.94,62.94,0,0,1,325,18a29.15,29.15,0,0,0-13.6-13.11A53.9,53.9,0,0,0,278.93.74c-12,2.14-22.79,6.25-32.33,15-10,9.18-13.86,19-11.29,31.85,1.27,6.34,2.76,12.65,4.38,18.91,3.43,13.24,11.52,21.71,25,25.49,14.21,4,28.86-1.76,35.71-14.85,8.68-16.6-7.85-32.1-19.93-31.6-8.4.35-12.07,6.82-7.7,14A55.32,55.32,0,0,0,276.12,64c1.87,2.47.73,4.89-1.07,6.29-1,.74-3.94.32-5-.66a30.41,30.41,0,0,1-9.5-20c-.4-5.06,2.64-9.67,7.72-10.59A56.14,56.14,0,0,1,284,38.33c13.27,1.4,23.6,9.82,26.38,21.24,1,3.88.84,8,1.15,11.4l-5.11,12.86c-4.7,9.5-12.85,15.51-23.63,17.78l-14.93.42c-18.15-2.94-29.61-16.54-34.72-34.55-2.44-8.57-5.72-47.84-32.5-50.5C171,15.54,184.66-2.4,155.06-4.17S113.34,58,83.75,56.23s-29.32-6.87-58.93-8.31C10.82,47.92.68,63.2.68,79.83c.89,11.42.6,11.4,2.13,22.75,2.57,19,2.45,38.34,4.11,57.46,1.38,15.87,2.44,31.77,2.61,47.7.19,18,1.81,36.12,1,54.15-.84,17.7-1.76,35.5-3.67,53.14C3.93,342.14,1.3,341.88-.95,369c0,16.63,11.69,27.32,25.72,27.32,28.23,0,28.23,1,56.46,1s28.23.26,56.46.26,28.23-1.68,56.46-1.68,28.22,4.45,56.45,4.45c1.14,0,19.24,2.89,19.24,2.89,27.07,4,52.91,2.6,77.72-7.14,27.82-10.93,54.92-23.86,81.79-37,28.07-13.75,56.91-19.41,87.79-13.26,10.62,2.12,21.28,4.05,31.92,6.06l1.16-2C541,338.92,532,327.62,522.32,317Zm-161.19-1.48c-7.9,16-21.58,26-39.65,29.84l-25.06.7c-12.68-2.05-24.14-5.91-33.83-11.88-.91-1.89-9.12-8.88-10.14-11.29-5.12-12.07-4.85-5.66-5.56-18.75-.64-11.68-.18-17.86.81-23.76.5,2,1,4,1.53,6,5.74,22.21,19.31,36.43,41.87,42.77,23.84,6.7,48.43-3,59.92-24.92,14.57-27.84-13.17-53.87-33.45-53-14.09.59-20.24,11.44-12.9,23.45a88,88,0,0,0,5.6,7.43c3.15,4.14,1.23,8.2-1.79,10.54-1.62,1.26-6.6.54-8.32-1.11a51,51,0,0,1-15.94-33.41c-.68-8.49,4.43-16.23,12.95-17.77a94.48,94.48,0,0,1,26.33-1.14c22.27,2.34,39.6,16.48,44.27,35.64,1.59,6.51,1.41,13.45,1.93,19.13Z"/></clipPath></defs><title>21-01</title><path class="cls-2" d="M523.18,317.14c-24.26-26.52-53.51-46.6-84.07-65h0l-12.27-8c-14.65-10-26-23.9-34.42-40.39-4.92-9.68-12.61-16.32-22.52-20.78a90.52,90.52,0,0,0-54-6.81c-19,3.41-36.3,9.78-51.67,23,.08-.65.16-1.3.24-2,1.1-9,2-18.08,2.84-26.35a45.11,45.11,0,0,1,29.9-38c.68-.24,1.36-.5,2-.76,16.58-6.52,32.73-14.22,48.75-22.07,16.72-8.19,33.91-11.57,52.31-7.9,6.33,1.26,12.68,2.41,19,3.61l.69-1.19C414.43,98,409.09,91.22,403.3,84.89c-14.45-15.8-31.89-27.77-50.1-38.71h0l-7.31-4.79a62.92,62.92,0,0,1-20.07-23.23,29.15,29.15,0,0,0-13.6-13.11A53.9,53.9,0,0,0,279.78.87c-12,2.14-22.79,6.25-32.33,15-10,9.18-13.86,19-11.29,31.85,1.27,6.34,2.76,12.65,4.38,18.91,3.42,13.24,11.51,21.72,25,25.49,14.21,4,28.87-1.76,35.71-14.85,8.69-16.59-7.84-32.1-19.93-31.6-8.4.35-12.06,6.82-7.69,14A55.2,55.2,0,0,0,277,64.1c1.87,2.47.73,4.89-1.07,6.29-1,.74-3.93.32-5-.66a30.47,30.47,0,0,1-9.5-19.94c-.4-5.06,2.64-9.68,7.72-10.6a56.14,56.14,0,0,1,15.69-.67c13.28,1.39,23.6,9.81,26.39,21.23.94,3.88.83,8,1.15,11.4L307.24,84c-4.71,9.51-12.86,15.51-23.63,17.78l-14.87.35c-18.15-2.93-32.13-12.06-37.25-30.07-2.43-8.56-6.41-12.1-14.3-13.08-.52-.06-1-.29-1.54-.38a84.94,84.94,0,0,0-11.91-1.33h-.33c-29.62-1.44-29.95,4.75-59.55,3s-29.57-2.17-59.17-3.94S55.38,49.47,25.76,48c-14,0-24.13,15.28-24.13,31.91.89,11.42.6,11.4,2.13,22.75,2.57,19,2.44,38.34,4.1,57.46,1.38,15.87,2.45,31.77,2.61,47.7.19,18,1.81,36.12,1,54.15-.83,17.7-1.75,35.5-3.66,53.14C4.88,342.26,2.25,342,0,369.14c0,16.63,11.68,27.32,25.71,27.32,28.23,0,28.23,1,56.46,1s28.23.27,56.47.27S166.86,396,195.09,396s28.23,4.45,56.46,4.45c1.13,0,19.23,2.9,19.23,2.9,27.07,4,52.92,2.6,77.72-7.15,27.83-10.93,54.92-23.86,81.8-37,28.06-13.75,56.91-19.41,87.78-13.26,10.62,2.12,21.28,4,31.92,6.06l1.17-2C541.84,339,532.88,327.7,523.18,317.14ZM362,315.66c-7.89,15.95-21.57,26-39.64,29.84l-25.07.71c-12.68-2.06-24.14-5.92-33.82-11.89-.91-1.89-9.12-8.87-10.15-11.29-5.12-12.07-4.84-5.66-5.56-18.75-.63-11.68-.17-17.86.82-23.76.5,2,1,4,1.52,6,5.75,22.2,19.32,36.43,41.88,42.76,23.84,6.7,48.42-3,59.91-24.92,14.58-27.84-13.16-53.86-33.44-53-14.1.59-20.24,11.44-12.91,23.45a92.07,92.07,0,0,0,5.61,7.43c3.14,4.14,1.23,8.2-1.79,10.54-1.62,1.26-6.61.54-8.32-1.1a51,51,0,0,1-15.94-33.54c-.68-8.49,4.42-16.22,12.94-17.77a94.48,94.48,0,0,1,26.33-1.14c22.28,2.35,39.6,16.48,44.27,35.64,1.59,6.51,1.41,13.45,1.94,19.13Zm26.28-161.94a11.38,11.38,0,0,0,1,1.41c6.27,7.8,14.61,11.31,24.4,12a10.1,10.1,0,0,1,4.82,1.75,83.38,83.38,0,0,0,24,11.73h0l.71.18c.62.18,1.23.37,1.86.53h.27L448,182l-.05.05c.31.07.62.11.93.17L452,183l.2-.22c8.64,1.28,16.89.83,24.81-2.28,8.88-3.49,17.53-7.62,26.11-11.82,9-4.39,18.17-6.2,28-4.23,3.39.67,6.79,1.29,10.19,1.93l.47-.52c-3-3.55-5.89-7.19-9-10.62-7.74-8.47-17.08-14.88-26.84-20.73h0L502,132a33.85,33.85,0,0,1-11-12.89,14.25,14.25,0,0,0-7.19-6.63,28.89,28.89,0,0,0-17.24-2.18c-6.42,1.15-12.2,3.35-17.31,8.06-5.34,4.91-7.43,10.19-6.05,17.06.68,3.39,1.48,6.77,2.34,10.13,1.84,7.09,6.17,11.63,13.37,13.65a16.24,16.24,0,0,0,19.13-8c4.65-8.88-4.2-17.19-10.68-16.92-4.5.19-6.46,3.65-4.12,7.48a29.58,29.58,0,0,0,1.79,2.38,2.29,2.29,0,0,1-.37,3.22l-.2.14a2.81,2.81,0,0,1-2.66-.35,16.26,16.26,0,0,1-5.11-10.63,5.17,5.17,0,0,1,4.13-5.68,30.33,30.33,0,0,1,8.4-.36c7.11.75,12.64,5.26,14.13,11.38a40.16,40.16,0,0,1,.62,6.1l-2.74,6.89a17.52,17.52,0,0,1-12.65,9.52l-8,.23c-9.72-1.58-17.22-6.46-20-16.11-1.3-4.59-3.43-6.48-7.65-7a5,5,0,0,1-.83-.2c-8.45-1.45-16.3-1.07-23.38,5-5.57,4.8-12,8.81-20.51,7.4Z" transform="translate(108.26)"/><g class="cls-3"><path class="cls-4" d="M314.1,469.2s43.24,45.5,34.85,105c-1.44,10.25-6.66,23.47-14.29,38.34C298.12,683.72,206,792.44,206,792.44c.58,27-20.84,159.81-20.84,159.81-.75.87-1.47,1.63-2.18,2.4a26.92,26.92,0,0,1-7.77,5.51c-10.32,4.63-17.15-3.71-17.15-3.71s-.17-1.12-.48-3.22c-3.28-21.74-21.8-147.21-18.17-170.91a13.61,13.61,0,0,1,.28-1.55C145,760,216.9,623.45,218.46,612.23c.93-6.92,7-29.19,11.49-45.36,2.86-10.19,5.1-18,5.1-18Z" transform="translate(108.26)"/><path class="cls-4" d="M265.84,568.46a16,16,0,0,1,9.79-5.62h0l20.79-3.4,81.08-13.16,13.81-12.83L380.6,545.78v.05c.08.67,11.36-23.7,10.73-12.38-1.25,23-18.21,93.09-44.38,117.61-22.43,21.05-53.89,26-53.89,26-48.13,31.53-190.47,66.54-190.47,66.54C88.17,764.27,2.85,849.6-8.71,861.14c-.85.83-1.3,1.29-1.3,1.29a34.59,34.59,0,0,1-7.24.92c-16.06.15-15.67-15.26-15.67-15.26s.32-.62.91-1.82h0c8.13-15.82,66.52-128.71,81.9-141.42C66.44,691.2,223.78,617,231.65,608.79c1.36-1.42,3.37-3.64,5.74-6.41C245.91,592.59,259.32,576.38,265.84,568.46Z" transform="translate(108.26)"/><path class="cls-5" d="M233,604c-14.39-22.8-43.88-34.92-70.15-28.82-10,2.33-19.57,7-29.85,7.47-8.77.39-17.11-2.33-25.06-6.27-9.24-4.58-17.8-17.25-13.56-26.66,4.38-9.75,13.28-18,17.35-27.9,3.28,11.49,17.95,15.26,29.83,13.88s23.88-5.83,35.46-2.88c20.54,5.24,29.71,30.76,49.3,38.86" transform="translate(108.26)"/><path class="cls-5" d="M186.19,611.77c-6.8,1.86-14.57,3.07-18.8,8.71-2.84,3.8-3.39,8.84-3.26,13.58.78,29.38,23.88,54.49,50.8,66.29s57.17,12.79,86.56,12.93c5.58,0,11.38,0,16.41-2.45,4.78-2.31,8.33-6.53,11.61-10.71a288.29,288.29,0,0,0,60.82-178.43c-17.15,17.17-35.5,33.44-56.52,45.57s-44.5,23.41-68.77,22.88c-7.68-.19-20,2.88-26.07-1.88-4.44-3.5-1.75-21.93-6.41-19.78-2.69,1.25-12.41,3.63-14.93,6.87C208.63,586.86,200.37,607.89,186.19,611.77Z" transform="translate(108.26)"/><path class="cls-6" d="M112.74,544.25a11.84,11.84,0,0,0,4.8,5.48l-.85,1.23a13,13,0,0,1-4.86-6.38Z" transform="translate(108.26)"/><path class="cls-6" d="M124.31,581.58a157,157,0,0,1,29.52-41.25l1.06,1.07A155.42,155.42,0,0,0,125.18,582Z" transform="translate(108.26)"/><path class="cls-6" d="M169,574.27a78.23,78.23,0,0,1,18.86-27.42l1,1.1a77.08,77.08,0,0,0-19,26.69Z" transform="translate(108.26)"/><path class="cls-6" d="M-81.06,440c-1.19-.18-18.39-2.32-17-.44s12.46,4.55,12.46,4.55l-4.38.79s.71,2.85,2.88,2.78,15.63,2.89,19.77,5.79S-73.1,441.14-81.06,440Z" transform="translate(108.26)"/><path class="cls-6" d="M-47.68,442.52s-.89,10.88-6,15.35-18.75,2.62-27.43,7.21-5.87-2.74-3.81-4.15,11.44-2.82,13.93-6.52-4.73-8.09-9.06-9.86-26.2-9.45-27-13,14.64,1.89,14.64,1.89-15.61-7.69-15.85-11.3,23.75,10.11,23.75,10.11,11.74,4.22,17.94,4.28S-47.68,442.52-47.68,442.52Z" transform="translate(108.26)"/><path class="cls-6" d="M94.36,394.61,47.9,427.4a13.33,13.33,0,0,1-5.81,2.31l-89.77,12.81-6,15.35L40.74,459a46.43,46.43,0,0,0,21-4.72l46.2-22.58Z" transform="translate(108.26)"/><path class="cls-7" d="M167.59,326.69l2.14,5.68,32.81,87.3-62.73,19.47s-11.21,14.57-32,3.83l-.83-.43c-7.54-4.07-14.37-12-19.18-20.75a68.68,68.68,0,0,1-4-8.88c-5-13.53-4.29-26.8,6.75-29.64C111.29,377.83,167.59,326.69,167.59,326.69Z" transform="translate(108.26)"/><path class="cls-4" d="M272.64,426.06a130.56,130.56,0,0,1,.08-68.71c3.32-12,8.39-23.64,10-36,1.38-10.93-.56-23-7.66-31.19-1.82.36-3.68.74-5.58,1.17-22.56,5.09-49.68,15.14-70.21,23.46-18.23,7.37-31.64,11.91-31.64,11.91-.75.69-1.47,1.41-2.16,2.15-8.55,9.33-7.38,23.83,1.92,32.41a39.12,39.12,0,0,1,3.17,3.27c8.27,9.56,13.19,21.63,21.33,31.3,7.84,9.32,18.3,16,27.49,24,25.26,22,40.54,54,45.76,87.08,5.1,32.27,3.79,55.24-5,86.72.47,0,8.95-.43,15.9-.94a8.43,8.43,0,0,0,7.48-6c13-44.37,14-83.73-.06-128.41C280,447.42,275.62,437,272.64,426.06Z" transform="translate(108.26)"/><path class="cls-7" d="M219.34,419.8c-9.19-8-19.65-14.66-27.49-24-8.14-9.67-13.06-21.74-21.33-31.3-4.43-5.12-11.46-15.82-17.86-17.89-4.81,19.88,1.53,50.34,11.1,72.31,11.66,26.93,29.68,50.7,43.11,59.79,29.56,20.09,7,71.69,7,71.69S184,566.19,195,587.21a31,31,0,0,0,4.32,6.21c5.74,6.44,20.15,9.68,38.52,10.41,4.24.2,8.7.25,13.29.15h0a8.18,8.18,0,0,0,7.84-6.16c7.67-29.68,10.87-60.73,6.09-91C259.88,473.82,244.6,441.76,219.34,419.8Z" transform="translate(108.26)"/><path class="cls-7" d="M299.65,288.37c-6.47-.87-15-.08-24.63,1.78,7.1,8.15,9,20.26,7.66,31.19-1.57,12.37-6.64,24-10,36a130.56,130.56,0,0,0-.08,68.71c3,10.9,7.37,21.36,10.76,32.14,13.58,43.21,10.52,90.12-1.62,134a7,7,0,0,0,7.55,8.81h.1l1.1-.16c40.81-5.63,81.32-18,89.83-32.51.26-.41.48-.81.72-1.26,23.7-42.1,10.7-113.6-12.3-173.66C347.05,337,316.61,290.66,299.65,288.37Z" transform="translate(108.26)"/><path class="cls-4" d="M247.54,412.47c.12.38.24.74.37,1.08A8.09,8.09,0,0,0,247.54,412.47Z" transform="translate(108.26)"/><path class="cls-7" d="M233.74,300.14c-3.17,1.25-12.91,3.6-15.65,5.63-3.12,2.31,4.08,5.61,1.76,8.73l-19,25.56c-2.78-7.05-.85-18.55-4-25.43-5.42,2.63-15.48,7.2-21.17,9.17,2.09,25.79,12.54,46,38,60.08,4,2.24,11.45,5.91,17.65,10.27a65.94,65.94,0,0,1,9.69,9.13,2.62,2.62,0,0,0,4.56-2v-.14c0-.5.21-26.16,8.61-51.38h0c1.75-5.19,3.3-10.46,4.68-16.13,1.68-6.92,3.07-14.11,1.94-21.15-.82-5.08-3.36-11.27-7.79-14.29C247.91,294.76,238.88,298.14,233.74,300.14Z" transform="translate(108.26)"/><path class="cls-6" d="M239.44,319c1.46,7-1.23,23.84-6.76,36.52-1.24,2.85-5.78,10.53-8.58,11.91a8.47,8.47,0,0,1-5.4.31c-11.34-2.31-19.3-12.28-25.82-21.84a18.48,18.48,0,0,1-3.17-6.29,13,13,0,0,1,.59-6.78c2.25-6.83,3.37-13.65,9.16-17.91,5.19-3.82,19.37-10.24,26.06-10.4C232.53,304.39,238.2,313.14,239.44,319Z" transform="translate(108.26)"/><path class="cls-7" d="M298.63,288.25c5.74,1,68.29,10.57,88.58,21.6,8.81,4.78,12.56,18.73,12.9,34a112.22,112.22,0,0,1-1.18,19.64c-1.43,9.91-4,19-7.28,24.93a16.19,16.19,0,0,1-5.39,6.28c-14,8.15-24.43-11.53-24.43-11.53l-40.49-8.54S291.25,289.34,298.63,288.25Z" transform="translate(108.26)"/><path class="cls-7" d="M115.44,392.14c-2.56-1.06-4.89-2.58-7.34-3.87A42.82,42.82,0,0,0,74.15,386c-5.44,2-10.55,5.08-16.27,5.94a19.68,19.68,0,0,1-7.53-.28c4.22,5.39,11,8.13,17.79,9.33a20.14,20.14,0,0,0,8,.1c2.76-.65,5.18-2.24,7.68-3.58,6.14-3.32,13.33-5.32,20.13-3.73,2.28.53,4.48,1.46,6.82,1.74,3.72.44,8-.46,11.69-1.13C122.11,393.14,116.81,392.65,115.44,392.14Z" transform="translate(108.26)"/><path class="cls-7" d="M398.48,329.14c-.51-2.72-1-11.42-1.2-14.17a42.82,42.82,0,0,0-16.48-29.83c-4.6-3.5-10-6.11-13.81-10.45a19.36,19.36,0,0,1-3.84-6.48c-2.24,6.48-.85,13.7,1.81,20a19.92,19.92,0,0,0,4.26,6.81c2,2,4.7,3.14,7.18,4.5,6.12,3.36,11.7,8.32,14.05,14.89.79,2.21,1.21,4.57,2.24,6.68" transform="translate(108.26)"/><polygon class="cls-4" points="326.21 320.62 328.8 324.25 328.12 324.76 325.2 321.48 326.21 320.62"/><path class="cls-8" d="M-42.26,458s-7.24-5.78-1-16.1" transform="translate(108.26)"/><path class="cls-6" d="M530.61,485s18,7,16.94,3.09S532,476.34,532,476.34Z" transform="translate(108.26)"/><path class="cls-6" d="M526.74,473.85a4.6,4.6,0,0,1,1.6.27c6.55,2.09,13.61,15.69,14.3,17.06l.06.12s12,10,11.83,12.37-12.94-6.8-12.94-6.8L539,500.34s8.19,12.43,5.93,16.41S533,502.41,533,502.41l-2.42,3.48s3.82,18,1.07,20.23c-1.32,1.07-3-3-4.31-7.57-1.46-4.84-2.55-10.18-2.55-10.18s-.31,9.54-1.39,14.52c-.32,1.51-.73,2.58-1.21,2.87-2.1,1.29-1.69-12.79-4.44-21.42s-5.43-18-5.43-18,4.43-7.71,9.86-11A8.69,8.69,0,0,1,526.74,473.85Z" transform="translate(108.26)"/><path class="cls-6" d="M531.92,477.72l-75.37-114a11.35,11.35,0,0,0-3.81-3.58l-69.22-31.47.17,46.35,41.19,13.53,88.38,99.74" transform="translate(108.26)"/><path class="cls-6" d="M383.66,375.05s-18.55-25.63-.17-46.35" transform="translate(108.26)"/><path class="cls-8" d="M506.28,480.47s4.49-16.44,17-15.76" transform="translate(108.26)"/><path class="cls-4" d="M222.48,352.88a20.45,20.45,0,0,1,1.41-18.74l2.22,1.46a18.26,18.26,0,0,0-2,16.61Z" transform="translate(108.26)"/><path class="cls-4" d="M218.56,359.84a16.44,16.44,0,0,0-4.49-6.19,12.07,12.07,0,0,0-6.72-2.87l.29-2.64a14.52,14.52,0,0,1,7.89,3.87,18.75,18.75,0,0,1,4.63,7.19Z" transform="translate(108.26)"/><path class="cls-4" d="M369.29,393.89c-3.48-2.52-5.37-6.25-7.93-9a11.4,11.4,0,0,0-4.4-3.18,49,49,0,0,0-5.58-1.53l-23.08-5.59L329,372l23,6a49.2,49.2,0,0,1,5.82,1.73,13.57,13.57,0,0,1,5.07,3.8c2.71,3.1,4.49,6.71,7.49,8.93Z" transform="translate(108.26)"/><path class="cls-4" d="M175.89,442.91a205.32,205.32,0,0,1-20-40.74l2.51-.88a203.28,203.28,0,0,0,19,40.71Z" transform="translate(108.26)"/><path class="cls-9" d="M288.81,294.25c13.15,20.05,13.2,46.5,5.78,69.31-3.24,10-7.83,19.69-8.49,30.14-.88,13.85,5.19,27.05,9.79,40.14,18.52,52.65,14.19,110.43,6.05,165.65" transform="translate(108.26)"/><path class="cls-9" d="M150.33,340.47c4.68,26,29.09,61.6,48.1,79.91s39.34,37.35,46.88,62.64c2.31,7.76,3.32,15.83,4.26,23.87,1.12,9.53,2.16,19.07,2.58,28.65,1.09,24.47-.56,42.33-7.43,65.83" transform="translate(108.26)"/><path class="cls-7" d="M239.74,402.93a31.23,31.23,0,0,0,0,12.26,13.54,13.54,0,0,0,1.33,3.9,8.23,8.23,0,0,0,8,4.1,7.44,7.44,0,0,0,6.28-6.22,11.27,11.27,0,0,0-1.57-6.36,30.47,30.47,0,0,0-5.61-7.67c-2-2-3.88-3.6-5-5.59-.4-.73-1-2.87-1.88-3-2.2-.3-1,3-.76,3.83C241,399.86,240.09,401.28,239.74,402.93Z" transform="translate(108.26)"/><path class="cls-6" d="M245.56,415.19c2-1.45,4.45-2.65,6.9-2.24a1.69,1.69,0,0,1,.61.2,1.56,1.56,0,0,1,.6,1.07,6.17,6.17,0,0,1-2.37,5.66,5.74,5.74,0,0,1-2.87,1.37,5.08,5.08,0,0,1-3.44-.92c-.67-.46-2.28-1.7-2.08-2.65S244.85,415.71,245.56,415.19Z" transform="translate(108.26)"/><path class="cls-6" d="M247.81,415.66q-1.27-5.25-2.9-10.36c-.36-1.16-2.18-.66-1.81.5q1.62,5.13,2.89,10.36C246.28,417.34,248.1,416.84,247.81,415.66Z" transform="translate(108.26)"/><path class="cls-6" d="M247.07,412.38a4.47,4.47,0,0,1,1.48-2.36c.84-.87-.49-2.21-1.33-1.33a6.19,6.19,0,0,0-2,3.19.94.94,0,0,0,1.82.5Z" transform="translate(108.26)"/><path class="cls-6" d="M245.27,408.89a8.46,8.46,0,0,0-2.4-.74,1,1,0,0,0-1.16.66.94.94,0,0,0,.64,1.15h0a7.34,7.34,0,0,1,2,.55,1,1,0,0,0,1.29-.34.94.94,0,0,0-.33-1.28h0Z" transform="translate(108.26)"/><path class="cls-7" d="M254,403.93l2-3.13c.65-1-1-2-1.62-1l-2,3.13c-.66,1,1,2,1.62.95Z" transform="translate(108.26)"/><path class="cls-7" d="M257.68,413.92c1.56.49,3.12.93,4.71,1.31,1.18.28,1.68-1.54.5-1.82-1.58-.38-3.15-.82-4.71-1.3C257,411.74,256.53,413.56,257.68,413.92Z" transform="translate(108.26)"/><path class="cls-7" d="M235.68,406.76a16.64,16.64,0,0,1-3.12-.73c-1.15-.39-1.65,1.43-.5,1.81a18,18,0,0,0,3.62.8.94.94,0,0,0,0-1.88Z" transform="translate(108.26)"/><path class="cls-7" d="M237.74,419.23a16.77,16.77,0,0,0-3.08,2.42A.94.94,0,1,0,236,423a15,15,0,0,1,2.71-2.12,1,1,0,0,0-1-1.63Z" transform="translate(108.26)"/><path class="cls-7" d="M250.25,427.37a30.61,30.61,0,0,1,1.13,3.26.94.94,0,1,0,1.82-.5,33,33,0,0,0-1.13-3.26.94.94,0,0,0-1.82.5Z" transform="translate(108.26)"/><path class="cls-6" d="M127.05,182.94l-18.19,30s-20.33,102.2,27.46,111.73c13.55,2.7,76.67-32.44,76.67-32.44S223.83,285,227,274l10-24.58.65-14.48-9.9-8.85-10.9-7.37-18.17-16.57Z" transform="translate(108.26)"/><path class="cls-6" d="M127.05,182.94l-18.19,30s-20.33,102.2,27.46,111.73c13.55,2.7,76.67-32.44,76.67-32.44S223.83,285,227,274l10-24.58.65-14.48-9.9-8.85-10.9-7.37-18.17-16.57Z" transform="translate(108.26)"/><path class="cls-6" d="M192.17,301.31,200,330.46a10.92,10.92,0,0,0,15.42,6.93l1.87-.93a10.7,10.7,0,0,0,5.85-10.78l-5.39-47.07Z" transform="translate(108.26)"/><path class="cls-4" d="M183.64,227.2a15.91,15.91,0,0,0-2.66-1.87c-1-.53-2-1-3-1.47a24.79,24.79,0,0,0-6.43-1.79,22.94,22.94,0,0,0-6.67.08,28.79,28.79,0,0,0-3.32.7c-.53.15-1.12.29-1.59.47s-1,.41-1.55.64c-1,.46-2.09,1-3.12,1.5-.51.26-1,.53-1.52.81a12.67,12.67,0,0,0-1.39.88,18.27,18.27,0,0,0-4.56,4.8c-2.51,3.76-4,8.19-5.49,12.62l-1.68-.53c1.39-4.48,2.86-9.07,5.5-13.19a20.38,20.38,0,0,1,5-5.43,15.38,15.38,0,0,1,1.56-1c.56-.31,1-.59,1.57-.87,1.05-.56,2.11-1.1,3.2-1.61.55-.25,1.1-.5,1.69-.73s1.18-.38,1.77-.56a31.06,31.06,0,0,1,3.56-.81,25.87,25.87,0,0,1,7.35-.21,27.45,27.45,0,0,1,7.12,1.84c1.13.47,2.22,1,3.32,1.56a19.5,19.5,0,0,1,3.13,2.11Z" transform="translate(108.26)"/><path class="cls-4" d="M114.31,225.14a15.25,15.25,0,0,1,12.84.25,14.57,14.57,0,0,1,5.11,4.14,19.44,19.44,0,0,1,2.91,5.72,37.09,37.09,0,0,1-.8,24.47,38.93,38.93,0,0,1-6.16,10.72c-.63.82-1.37,1.55-2.06,2.33a30.28,30.28,0,0,1-2.26,2.13,28.65,28.65,0,0,1-2.43,1.91,7.15,7.15,0,0,0-1.88,1.8,2,2,0,0,0-.11,1.95,4.84,4.84,0,0,0,1.71,1.77,12.22,12.22,0,0,0,2.52,1.22c.91.34,1.84.65,2.79.92a35.72,35.72,0,0,0,11.64,1.3l.11,1.75A37.28,37.28,0,0,1,126,286.28c-1-.27-2-.59-3-.94a13.65,13.65,0,0,1-2.91-1.39,6.61,6.61,0,0,1-2.42-2.53,4,4,0,0,1,.15-3.82,8.75,8.75,0,0,1,2.39-2.46c.81-.61,1.53-1.23,2.3-1.85s1.42-1.33,2.11-2a19.38,19.38,0,0,0,1.92-2.21,36.9,36.9,0,0,0,5.7-10.17,34.76,34.76,0,0,0,.55-22.89,16.82,16.82,0,0,0-2.57-5,11.9,11.9,0,0,0-4.23-3.35,12.51,12.51,0,0,0-10.55-.14Z" transform="translate(108.26)"/><path class="cls-4" d="M147.05,252.23a40.69,40.69,0,0,1,6.46-6.46,37.81,37.81,0,0,1,7.76-4.85,29,29,0,0,1,8.93-2.58l2.35-.23,2.36.06a9.32,9.32,0,0,1,1.18.05l1.16.17,2.34.36-1,4-2-.38-1-.2a4.81,4.81,0,0,1-1-.07l-2-.13-2,.12a25.7,25.7,0,0,0-8,2,35.6,35.6,0,0,0-7.26,4.17,37.81,37.81,0,0,0-6.17,5.69Z" transform="translate(108.26)"/><path class="cls-4" d="M111.54,239.55l2.55.79c.83.33,1.67.65,2.49,1a22.16,22.16,0,0,1,4.64,2.87,15.94,15.94,0,0,1,3.67,4.18,12.72,12.72,0,0,1,1.18,2.57,9.52,9.52,0,0,1,.38,1.39,10,10,0,0,1,.18,1.54h-2.72a7.58,7.58,0,0,0-.18-.95,9,9,0,0,0-.33-1,9.84,9.84,0,0,0-1-2,12.73,12.73,0,0,0-3.12-3.22,18.37,18.37,0,0,0-4-2.23c-.73-.28-1.48-.53-2.22-.79l-2.31-.59Z" transform="translate(108.26)"/><circle class="cls-10" cx="176.35" cy="277.37" r="15.72" transform="translate(-25.88 385.18) rotate(-76.7)"/><polygon class="cls-4" points="323.18 296.4 326.42 321.62 324.68 321.88 320.49 296.8 323.18 296.4"/><path class="cls-11" d="M204.45,129.64a14.26,14.26,0,0,0-4.56-3.79,13.91,13.91,0,0,0-6.82-.76,84.49,84.49,0,0,0-55.41,26.28A42,42,0,0,1,125,86.14a9.43,9.43,0,1,0,18.81-1.33,8.58,8.58,0,0,0-.23-1.52c-.83-3.39-3.46-6.05-6.32-8-12.18-8.4-29.56-6.49-41.59,2.12s-19.18,22.73-22.38,37.13c-2.75,12.38-2.86,25.5.9,37.61s11.57,23.15,22.44,29.7c5.68,3.43,12,5.58,18.38,7.55a429.1,429.1,0,0,0,104.8,18.74c3.46.18,8.34.88,11.64-.48,4-1.66,2.4-4.16,1.69-8.23a236.51,236.51,0,0,0-5.7-25.23C222.74,158.07,215.74,142.35,204.45,129.64Z" transform="translate(108.26)"/><path class="cls-12" d="M140.27,167.72a30.47,30.47,0,0,1,6.43-9.36,93.87,93.87,0,0,1,47.55-27.55,66,66,0,0,1,9.6,23" transform="translate(108.26)"/><path class="cls-12" d="M194.62,131.38a69.53,69.53,0,0,0-27.13,46.93" transform="translate(108.26)"/><path class="cls-11" d="M226.48,120.86c10.77-12.92,9.92-33.67-1.09-46.38s-30.57-16.67-46.12-10.26c4.76.62,6.15,7.91,2.68,11.23s-9.34,2.78-13.31.1a16.33,16.33,0,0,1-5.83-19,23.31,23.31,0,0,1,7.16-9c11.18-9.2,26.39-11.21,40.87-11.09,13.27.11,21.53,2.27,35.55,8.87,10.74,5.06,21.82,15.59,29.28,31.35,5.11,10.81,6.69,25.4,5.82,37.33-1.1,15-8.71,35.06-12,41.38-7.43,14.13-20.41,24.35-33,34.14a47.66,47.66,0,0,0,44.29,4.3c.49,4.48-4.07,7.75-8.18,9.6a78.92,78.92,0,0,1-19.55,5.89,33.12,33.12,0,0,0-5.56,1.17,34.1,34.1,0,0,0-5.61,2.87,67.48,67.48,0,0,1-33.62,8.78c-6.8,0-2.44-6.51-7.61-10.94-4.61-3.95-18.54-4.71-19.63-10.68a48.69,48.69,0,0,1,3-27.43c2.44-5.79,6-11,8.74-16.63s2.82-13,6.12-18.16c2.55-4,6.75-3.79,10.81-5.44A43.68,43.68,0,0,0,226.48,120.86Z" transform="translate(108.26)"/><path class="cls-6" d="M89.2,149.91a69.84,69.84,0,0,1-3.39-23.09,73.43,73.43,0,0,1,2.6-15.23c3.37-11.78,9-23.25,21.15-28.15-3.07,1.77-5,5-6.63,8.14-4.74,9-8.71,18.83-8.07,29s6,19.61,13.2,26.76,16.28,12.19,25.58,16.31l-18.36,5.69c-4.89,1.51-10,2.44-14.83,0C95.31,166.7,92.5,159.4,89.2,149.91Z" transform="translate(108.26)"/><path class="cls-13" d="M109.92,171.14c-.66-.51-1.31-1-2-1.57l-1.87-1.68-1.77-1.79-1.69-1.87A54.5,54.5,0,0,1,96.75,156,57.54,57.54,0,0,1,90,137a61.39,61.39,0,0,1-.3-20.06,54.24,54.24,0,0,1,6.6-18.8.1.1,0,0,1,.14,0,.09.09,0,0,1,0,.11,53.6,53.6,0,0,0-5.71,18.9,60.15,60.15,0,0,0,.87,19.62,71,71,0,0,0,6.94,18.3,74,74,0,0,0,5.2,8.34l1.48,2,1.51,1.84,1.61,1.89c.57.6,1.13,1.21,1.69,1.83a.11.11,0,0,1-.12.18Z" transform="translate(108.26)"/><path class="cls-6" d="M241.52,170c7.53-7,14.1-15.24,17.9-24.79a72.73,72.73,0,0,0,3.92-14.85c2.65-15.84,1.81-33-6.46-46.73a76.72,76.72,0,0,0-9.43-12.11c-6.18-6.74-13.25-13.24-22.07-15.69-5.85-1.63-12-1.33-18.12-1a44,44,0,0,1,29.21,14.49A50.47,50.47,0,0,1,249,99.64a71.54,71.54,0,0,1-.56,13.8,59.34,59.34,0,0,1-2.74,12.48c-5.26,14.84-18.52,25.27-31.8,33.72q-11.4,7.25-23.43,13.41a3.67,3.67,0,0,0-2.81,4.38v0c.44,6.07,1.16,12.77,5.65,16.9,3.06,2.81,7.45,3.87,11.6,3.57a32.94,32.94,0,0,0,11.85-3.68c3.58-1.73,1.63-2.72,2.31-5.41s3.39-3.91,5.9-5.69A160.06,160.06,0,0,0,241.52,170Z" transform="translate(108.26)"/><path class="cls-14" d="M244.63,73.19A66,66,0,0,1,259.17,108a64.7,64.7,0,0,1-.82,19.14,72.66,72.66,0,0,1-2.55,9.27,71.3,71.3,0,0,1-3.88,8.82,67.62,67.62,0,0,1-5.07,8.19c-.91,1.34-2,2.56-3,3.83a39.32,39.32,0,0,1-3.24,3.59,64.73,64.73,0,0,1-15.3,11.69c-2.81,1.56-5.67,3-8.55,4.34s-5.76,2.71-8.69,4-5.86,2.5-8.83,3.66-6,2.23-9,3.2l-.07-.19c2.92-1.25,5.84-2.5,8.71-3.84s5.76-2.67,8.6-4.08c5.67-2.82,11.42-5.56,16.83-8.76a71.74,71.74,0,0,0,7.83-5.19,64.73,64.73,0,0,0,7.07-6.16c1.13-1.08,2.15-2.27,3.21-3.43a43.58,43.58,0,0,0,2.94-3.66,65.66,65.66,0,0,0,5.1-7.9,67.5,67.5,0,0,0,3.93-8.56,70.77,70.77,0,0,0,2.64-9,63.75,63.75,0,0,0,1.1-18.79,65.48,65.48,0,0,0-13.71-34.81Z" transform="translate(108.26)"/><path class="cls-15" d="M155.45,208.26c-11.69.78-23.08,4-34.2,7.72-6.62,2.2-14,4.55-20.35,1.66-8.57-3.9-11.42-15.69-20.09-19.35-2.43-1-5.2-1.33-7.37-2.83s-3.37-5-1.39-6.73a5.64,5.64,0,0,1,4-1,38.14,38.14,0,0,1,18.76,5.72,24.61,24.61,0,0,1-6.69-14.31c-.3-2.81,0-5.89,1.76-8.08s5.49-2.93,7.47-.9c-.81-2.91-1.62-5.91-1.22-8.9s2.33-6,5.27-6.67a9.24,9.24,0,0,1,4.69.4,26.27,26.27,0,0,1,12.72,8.36c-1.54-2.69.94-6.29,4-6.93s6.12.75,8.77,2.37a47.57,47.57,0,0,1,13,11.73,26.14,26.14,0,0,1,10.25-18.59,3.33,3.33,0,0,1,1.71-.79c1.15-.08,2.06,1,2.63,2,2.09,3.7,2.25,8.2,4,12.06A15.86,15.86,0,0,0,174.5,174c-3.29-5-1.31-12.35,3.56-15.8s11.76-3.23,17-.32c3,1.68,5.76,4.59,5.71,8-.06,3.22-2.62,6-5.64,7.1a16.27,16.27,0,0,1-9.5,0,45.8,45.8,0,0,1,21.27,15.92,36.4,36.4,0,0,1,17.19-10.2c1.41-.37,3.06-.61,4.19.31,1.3,1.06,1.21,3,1,4.7A157.37,157.37,0,0,1,224,207.58a47.84,47.84,0,0,1,32.2-2.71c.12,5.19-3.5,9.65-7.11,13.38a146.23,146.23,0,0,1-13.67,12.43,62.45,62.45,0,0,1,29.23,23c-20.78,12-49.46,8.09-66.27-9a8.2,8.2,0,0,1-2.38-3.61c-.46-1.95.43-3.93,1.31-5.73,2.07-4.27,6.68-10.35,4.11-15.22-2.31-4.41-9.47-6.23-13.82-7.68C176.74,208.79,166.62,209.14,155.45,208.26Z" transform="translate(108.26)"/><path class="cls-6" d="M109,210.73a100.41,100.41,0,0,1,23.17-14.36,75,75,0,0,1,26.6-6.23,74,74,0,0,1,39.55,9.6c2,1.12,3.91,2.51,5.75,3.77l5.58,3.84A1,1,0,0,1,208.5,209h0l-5.57-3.9c-1.88-1.31-3.63-2.6-5.58-3.7a71.83,71.83,0,0,0-38.61-9.6,73.27,73.27,0,0,0-26,5.93,99.8,99.8,0,0,0-22.94,14h0a.65.65,0,0,1-.9-.1.64.64,0,0,1,.1-.9Z" transform="translate(108.26)"/><path class="cls-6" d="M174.31,192.68a22.84,22.84,0,0,1-9.23-4.77,27.6,27.6,0,0,1-10.34-17.65,7,7,0,0,1,.07-2.89,4,4,0,0,1,2-2.55,3,3,0,0,1,1.78-.34,2.76,2.76,0,0,1,1.69.88,3.34,3.34,0,0,1,.81,1.6,2.83,2.83,0,0,1-.29,1.89v.06a1,1,0,1,1-1.89-.67,1,1,0,0,1,.16-.28.22.22,0,0,1,.05-.08,1.12,1.12,0,0,0-.22-1.21.8.8,0,0,0-.51-.29,1.15,1.15,0,0,0-.68.12,2.2,2.2,0,0,0-1,1.36,5.36,5.36,0,0,0-.07,2.15,26,26,0,0,0,9.46,16.78,21.53,21.53,0,0,0,8.57,4.64h0a.64.64,0,0,1,.48.77.64.64,0,0,1-.77.48h-.07Z" transform="translate(108.26)"/><path class="cls-6" d="M158.23,191.57a39.7,39.7,0,0,1-12.12-2.7,32.48,32.48,0,0,1-10.54-6.73,25.94,25.94,0,0,1-4-4.87,12.54,12.54,0,0,1-2.3-6.09,6,6,0,0,1,3.41-5.9,4,4,0,0,1,3.87.29,2.54,2.54,0,0,1,.79.9,2.32,2.32,0,0,1-.28,2.51,1.9,1.9,0,0,1-1.34.71,1,1,0,1,1-.14-2h0a.42.42,0,0,0,.08-.18.28.28,0,0,0,0-.18.61.61,0,0,0-.21-.24,2.09,2.09,0,0,0-2-.1,3.78,3.78,0,0,0-1.77,1.63,4.4,4.4,0,0,0-.58,2.46,10.81,10.81,0,0,0,2,5.24,24.28,24.28,0,0,0,3.7,4.63,30.77,30.77,0,0,0,9.95,6.5,38.43,38.43,0,0,0,11.66,2.78h0a.64.64,0,0,1,.58.69.62.62,0,0,1-.64.62Z" transform="translate(108.26)"/><path class="cls-6" d="M140.51,194.73a17.2,17.2,0,0,1-7.42,0,29.16,29.16,0,0,1-6.88-2.59c-2.16-1.12-4.22-2.41-6.24-3.71a68.47,68.47,0,0,1-5.93-4.22c-3.74-3.09-7.15-7.09-8.18-12.21a7.37,7.37,0,0,1,.33-4,5.21,5.21,0,0,1,3.08-2.95,4,4,0,0,1,2.31-.11,3.48,3.48,0,0,1,2,1.44,3.9,3.9,0,0,1,.67,2.27,3,3,0,0,1-1.14,2.32,1,1,0,0,1-1.37-.37,1,1,0,0,1,.15-1.19h0a1,1,0,0,0,.37-.8,2.08,2.08,0,0,0-.33-1.14,1.55,1.55,0,0,0-.85-.66,2.11,2.11,0,0,0-1.22.05,3.46,3.46,0,0,0-2,1.86,5.67,5.67,0,0,0-.25,3,12.85,12.85,0,0,0,1,3.19,17.36,17.36,0,0,0,1.69,3,27.25,27.25,0,0,0,4.75,5.08,58.68,58.68,0,0,0,5.73,4.18c2,1.32,4,2.6,6.06,3.71a28.06,28.06,0,0,0,6.51,2.55,15.89,15.89,0,0,0,6.83.07h0a.64.64,0,1,1,.28,1.25h0Z" transform="translate(108.26)"/><path class="cls-6" d="M127.74,199.89a22.8,22.8,0,0,1-8.66.66c-1.44-.13-2.86-.36-4.26-.59a18.6,18.6,0,0,1-4.27-1.15,10,10,0,0,1-5.78-6.88,5.69,5.69,0,0,1,0-2.53,3.6,3.6,0,0,1,.63-1.27,2.59,2.59,0,0,1,1.33-.95,2.46,2.46,0,0,1,1.69.13,3.1,3.1,0,0,1,1.2.92,2.45,2.45,0,0,1,.57,1.62,2.7,2.7,0,0,1-.63,1.55,1,1,0,0,1-1.41,0,1,1,0,0,1-.13-1.21h0a.74.74,0,0,0,.19-.36.51.51,0,0,0-.13-.33,1.16,1.16,0,0,0-.46-.36.56.56,0,0,0-.38,0c-.19,0-.54.42-.67.88a3.67,3.67,0,0,0,0,1.68,8.22,8.22,0,0,0,4.64,5.71,17.57,17.57,0,0,0,3.88,1.12c1.38.27,2.76.51,4.13.67a21.37,21.37,0,0,0,8.16-.43.64.64,0,0,1,.79.44A.65.65,0,0,1,127.74,199.89Z" transform="translate(108.26)"/><path class="cls-6" d="M115.41,207.41a35.45,35.45,0,0,1-9.14-.47,10.06,10.06,0,0,1-2.35-.62,4,4,0,0,1-2.08-1.9,2.68,2.68,0,0,1,.44-3.15,2.61,2.61,0,0,1,1.59-.71,2.15,2.15,0,0,1,1.83.75,1,1,0,0,1-1.38,1.37l-.16-.13s0-.06-.17-.06a.63.63,0,0,0-.43.17.85.85,0,0,0-.08,1c.36.94,1.67,1.39,3.11,1.68a34.14,34.14,0,0,0,8.73.79.64.64,0,0,1,.09,1.27Z" transform="translate(108.26)"/><path class="cls-6" d="M191.83,198.21a27.28,27.28,0,0,1-6.23-3.61,13.23,13.23,0,0,1-4.71-5.68,6.07,6.07,0,0,1,2.23-7.27,4.19,4.19,0,0,1,2.15-.62,2.8,2.8,0,0,1,1.27.31,2.26,2.26,0,0,1,.6.51,2.34,2.34,0,0,1,.36.51,2.64,2.64,0,0,1,.37,1.29,2.15,2.15,0,0,1-.51,1.43,4,4,0,0,1-2,1.17,1,1,0,0,1-.9-1.79,1,1,0,0,1,.29-.09h.06a2.34,2.34,0,0,0,1-.49.34.34,0,0,0,.09-.19.94.94,0,0,0-.11-.38.8.8,0,0,0-.15-.21c0-.06-.13-.13,0-.08a.88.88,0,0,0-.42-.11,2.54,2.54,0,0,0-1.2.33,3.78,3.78,0,0,0-1.67,2.22,4.74,4.74,0,0,0,.07,3,11.74,11.74,0,0,0,4.07,5.07,26.7,26.7,0,0,0,5.84,3.58.63.63,0,0,1,.32.83h0A.63.63,0,0,1,191.83,198.21Z" transform="translate(108.26)"/><path class="cls-12" d="M169.84,177.14a22.4,22.4,0,0,0,5.09,9.36" transform="translate(108.26)"/><path class="cls-12" d="M146,176.08a22.41,22.41,0,0,0,7.15,9.51" transform="translate(108.26)"/><path class="cls-12" d="M125.22,180.39a17.88,17.88,0,0,0,9.67,8.35" transform="translate(108.26)"/><path class="cls-12" d="M123.16,195.57a13.11,13.11,0,0,1-7.81-3.51" transform="translate(108.26)"/><path class="cls-12" d="M112.87,203.46a19.91,19.91,0,0,1-3.23-.84" transform="translate(108.26)"/><path class="cls-16" d="M189.74,188.08a5.21,5.21,0,0,0,1.17,3.31,15.53,15.53,0,0,0,2.59,2.47" transform="translate(108.26)"/><circle class="cls-17" cx="191.52" cy="156.32" r="3.06"/><circle class="cls-17" cx="187.22" cy="144.05" r="3.06"/><circle class="cls-17" cx="185.76" cy="130.66" r="3.06"/><circle class="cls-17" cx="186.34" cy="118.23" r="2.24"/><circle class="cls-17" cx="317.2" cy="149.28" r="3.98"/><circle class="cls-17" cx="330.53" cy="141.29" r="3.12"/><circle class="cls-17" cx="340.55" cy="131.86" r="2.63"/><circle class="cls-17" cx="346.14" cy="120.22" r="2.07"/><circle class="cls-17" cx="348.63" cy="108.57" r="1.77"/><circle class="cls-17" cx="332.92" cy="65" r="1.36"/><path class="cls-10" d="M197.64,281.43c4.88,8.92,32.87,25,63.27,11.62s12.51-41.09,0-34.42c-8.47,4.53-9,10.6-5.24,14.85,0,0,4.82,7.63,12.46,1.54,0,0-3.12,6.11-15.44,8.52s-23,.06-29-6.09c0,0,14.78-5.72,15.3-17.08s.32-17,10-19.74c0,0-12-3.36-16.73,1.59,0,0-17.93-15.5,18.92-28.33,0,0-43.4-4.55-56.37,27.65C194.87,241.54,187,262.05,197.64,281.43Z" transform="translate(108.26)"/><path class="cls-6" d="M204.87,249.43h0a8.71,8.71,0,0,1,4.79-2.78,20.13,20.13,0,0,1,5.31-.35,7.7,7.7,0,0,1,2.52.33c2.32.85,3.35,3.7,3.51,6.32a16.87,16.87,0,0,1-2.24,9.47h0l-.13.2a14.13,14.13,0,0,1-2.24,2.87l-.31.28a20,20,0,0,1-9.33,5.58,3.22,3.22,0,0,1-3.93-2.28c0-.11,0-.23-.07-.34C202,263.53,201,253.34,204.87,249.43Z" transform="translate(108.26)"/><path class="cls-4" d="M208.45,264.61a15.52,15.52,0,0,0,6.72-7.85,9.72,9.72,0,0,0,.63-2.38,2.29,2.29,0,0,0-.09-.9.88.88,0,0,0-.38-.47,3.72,3.72,0,0,0-1.94-.33,2.64,2.64,0,0,0-1.7.62l-1.84-2a5.16,5.16,0,0,1,3.46-1.22,8.62,8.62,0,0,1,1.68.16,4.56,4.56,0,0,1,1.76.74,3.37,3.37,0,0,1,1.26,1.75,4.77,4.77,0,0,1,.14,1.88,11.81,11.81,0,0,1-.91,3,17.57,17.57,0,0,1-8,8.56Z" transform="translate(108.26)"/><path class="cls-6" d="M267.18,286.05a.1.1,0,0,1-.1-.1.08.08,0,0,1,.08-.1h0a.09.09,0,0,1,.1.1A.12.12,0,0,1,267.18,286.05Z" transform="translate(108.26)"/><path class="cls-6" d="M258.74,291.53a.38.38,0,0,1-.38-.36h0a.39.39,0,0,1,.31-.44.39.39,0,0,1,.44.32.24.24,0,0,1,0,.12A.38.38,0,0,1,258.74,291.53Z" transform="translate(108.26)"/><circle class="cls-6" cx="357.6" cy="294.51" r="0.61"/><circle class="cls-6" cx="347.73" cy="295.81" r="0.82"/><path class="cls-6" d="M229.56,295.91a1,1,0,1,1,1-1A1,1,0,0,1,229.56,295.91Z" transform="translate(108.26)"/><path class="cls-6" d="M220.09,292.55a.74.74,0,1,1,.74-.74h0A.74.74,0,0,1,220.09,292.55Z" transform="translate(108.26)"/><path class="cls-18" d="M146.21,311.81c-5.61,1.72-6.11-4.1-11.91-3.72-8.64.58-14.52-4-12.51-8s9.91-4.14,17.66-.27S150.5,310.49,146.21,311.81Z" transform="translate(108.26)"/></g></svg>