<svg id="Layer_1" data-name="Layer 1" xmlns="http://www.w3.org/2000/svg" xmlns:xlink="http://www.w3.org/1999/xlink" viewBox="0 0 1507.89 890.26"><defs><style>.bl2c1_1,.bl2c1_15,.bl2c1_16,.bl2c1_17,.bl2c1_19,.bl2c1_20,.bl2c1_21,.bl2c1_22,.bl2c1_23{fill:none;}.bl2c1_2{fill:#367d75;}.bl2c1_3{fill:#9fa851;}.bl2c1_4{fill:url(#lgbl2c1);}.bl2c1_5{fill:url(#lgbl2c1_2);}.bl2c1_6{fill:url(#lgbl2c1_3);}.bl2c1_7{fill:url(#lgbl2c1_4);}.bl2c1_8{fill:url(#lgbl2c1_5);}.bl2c1_9{fill:#e3ab35;}.bl2c1_10{fill:url(#lgbl2c1_6);}.bl2c1_11{clip-path:url(#cpbl2c1);}.bl2c1_12{fill:#304a63;}.bl2c1_13{fill:#fff;}.bl2c1_14{fill:#5ea4a0;}.bl2c1_15,.bl2c1_21{stroke:#5ea4a0;}.bl2c1_15,.bl2c1_16,.bl2c1_17,.bl2c1_20,.bl2c1_21,.bl2c1_22,.bl2c1_23{stroke-miterlimit:10;}.bl2c1_15{stroke-width:1.25px;}.bl2c1_16,.bl2c1_19,.bl2c1_23{stroke:#fff;}.bl2c1_16{stroke-width:1.34px;}.bl2c1_17{stroke:#e5af36;stroke-width:4.29px;}.bl2c1_18{fill:#e5af36;}.bl2c1_19{stroke-linecap:round;stroke-linejoin:round;stroke-width:17.16px;}.bl2c1_20,.bl2c1_22{stroke:#304a63;}.bl2c1_20{stroke-width:2.51px;}.bl2c1_21{stroke-width:1.31px;}.bl2c1_22{stroke-width:3.76px;}.bl2c1_23{stroke-width:2.24px;}.bl2c1_24{fill:#2f5f5b;}</style><linearGradient id="lgbl2c1" x1="706.96" y1="585.27" x2="707.9" y2="533.3" gradientUnits="userSpaceOnUse"><stop offset="0" stop-color="#3b6660" stop-opacity="0"/><stop offset="1" stop-color="#305051"/></linearGradient><linearGradient id="lgbl2c1_2" x1="314.34" y1="549.18" x2="324.34" y2="454.18" gradientUnits="userSpaceOnUse"><stop offset="0" stop-color="#3b6660" stop-opacity="0"/><stop offset="0.64" stop-color="#9fa851"/></linearGradient><linearGradient id="lgbl2c1_3" x1="448.12" y1="501.94" x2="458.12" y2="406.94" xlink:href="#lgbl2c1_2"/><linearGradient id="lgbl2c1_4" x1="1068.9" y1="523.45" x2="1071.65" y2="457.47" xlink:href="#lgbl2c1"/><linearGradient id="lgbl2c1_5" x1="1007.92" y1="486.79" x2="1010.67" y2="420.81" xlink:href="#lgbl2c1"/><linearGradient id="lgbl2c1_6" x1="450.45" y1="644.16" x2="447.68" y2="542.56" xlink:href="#lgbl2c1"/><clipPath id="cpbl2c1"><path class="bl2c1_1" d="M1056.26,575.83c-25.49,0-25.49-3.32-51-3.32s-25.48-2.59-51-2.59-25.49-.88-51-.88-25.49.17-51,.17-25.48,5.77-51,5.77-25.49,1.51-51,1.51-25.49-1.64-51-1.64-25.49-4.19-51-4.19-25.49,2-51,2c-10.93,0-17.91-7.7-17.91-18.64,0-28.18,1.55-28.18,1.55-56.35s-7.7-28.18-7.7-56.36S575,413.08,575,384.91s7.43-28.18,7.43-56.37-3.24-28.18-3.24-56.36c0-10.93,7.32-22.31,18.25-22.31,25.49,0,25.49-.05,51-.05s25.49-.1,51-.1,25.49,2.16,51,2.16,25.48,3.34,51,3.34,25.49-5,51-5,25.49-1.63,51-1.63,25.48,7.37,51,7.37,25.5-4.31,51-4.31,25.49,3.84,51,3.84c10.94,0,18,5.77,18,16.7,0,28.18,4.83,28.18,4.83,56.36s-4.74,28.17-4.74,56.35,2.09,28.18,2.09,56.36-5.33,28.18-5.33,56.36,6.41,28.18,6.41,56.36C1077.51,564.91,1067.2,575.83,1056.26,575.83Z"/></clipPath></defs><title>9</title><rect class="bl2c1_2" width="1507.89" height="890.26"/><path class="bl2c1_3" d="M1056.26,575.83c-25.49,0-25.49-3.32-51-3.32s-25.48-2.59-51-2.59-25.49-.88-51-.88-25.49.17-51,.17-25.48,5.77-51,5.77-25.49,1.51-51,1.51-25.49-1.64-51-1.64-25.49-4.19-51-4.19-25.49,2-51,2c-10.93,0-17.91-7.7-17.91-18.64,0-28.18,1.55-28.18,1.55-56.35s-7.7-28.18-7.7-56.36S575,413.08,575,384.91s7.43-28.18,7.43-56.37-3.24-28.18-3.24-56.36c0-10.93,7.32-22.31,18.25-22.31,25.49,0,25.49-.05,51-.05s25.49-.1,51-.1,25.49,2.16,51,2.16,25.48,3.34,51,3.34,25.49-5,51-5,25.49-1.63,51-1.63,25.48,7.37,51,7.37,25.5-4.31,51-4.31,25.49,3.84,51,3.84c10.94,0,18,5.77,18,16.7,0,28.18,4.83,28.18,4.83,56.36s-4.74,28.17-4.74,56.35,2.09,28.18,2.09,56.36-5.33,28.18-5.33,56.36,6.41,28.18,6.41,56.36C1077.51,564.91,1067.2,575.83,1056.26,575.83Z"/><path class="bl2c1_4" d="M794.39,568.69c-5.81-4.84-15.22,2.34-22-1.07-7-3.53-6.25-15.9-13.75-18.16-4.66-1.4-10.33,2.1-14.58,1-.09-6.1-1.22-11.71-5.4-16-1.3-1.76-6.1-5.07-12.44-5.07-17.72,0-19.31,11.6-20.67,16-4.45.34-9.32-4.49-14.26-4.12-7.81.59-9.77,12.82-17.35,14.76-7.32,1.87-15-7.18-21.68-3.71-4.52,2.34-4.94,8.7-8.33,12.49-2.81,3.16-7.31,4.14-11.53,4.49s-8.58.28-12.45,2l-.12,0c-4.68,2.12-3.6,8.77,1,9.81H791.32a6.1,6.1,0,0,0,5.88-7.75A9.26,9.26,0,0,0,794.39,568.69Z"/><path class="bl2c1_5" d="M402.37,534.86c-5.8-4.84-15.22,2.35-22-1.06-7-3.53-6.26-15.9-13.75-18.16-4.66-1.4-10.33,2.1-14.58,1-.1-6.11-1.22-11.71-5.41-15.95-1.3-1.76-6.09-5.08-12.43-5.07-17.72,0-19.32,11.6-20.67,16-4.46.33-9.32-4.49-14.26-4.12-7.81.59-9.77,12.82-17.36,14.76-7.32,1.87-15-7.18-21.67-3.71-4.52,2.34-4.95,8.7-8.33,12.49-2.82,3.16-7.32,4.14-11.53,4.49s-8.59.28-12.46,2l-.11.05c-4.68,2.12-3.6,8.77,1,9.81h170.5a6.09,6.09,0,0,0,5.87-7.75A9.26,9.26,0,0,0,402.37,534.86Z"/><path class="bl2c1_6" d="M536.15,487.63c-5.8-4.84-15.22,2.34-22-1.07-7-3.53-6.25-15.9-13.75-18.16-4.66-1.4-10.32,2.1-14.58,1-.09-6.1-1.21-11.71-5.4-15.94-1.3-1.77-6.1-5.08-12.44-5.08-17.72,0-19.31,11.6-20.67,16-4.45.34-9.31-4.49-14.26-4.12-7.81.59-9.76,12.82-17.35,14.76-7.32,1.87-15-7.18-21.68-3.71-4.51,2.34-4.94,8.7-8.32,12.5-2.82,3.15-7.32,4.13-11.53,4.48s-8.59.29-12.46,2l-.12.05c-4.68,2.12-3.6,8.77,1,9.81H533.08a6.09,6.09,0,0,0,5.88-7.75A9.26,9.26,0,0,0,536.15,487.63Z"/><path class="bl2c1_7" d="M1180.53,512.81c-7.42-6.19-19.46,3-28.09-1.36-8.93-4.52-8-20.33-17.58-23.22-5.95-1.79-13.2,2.68-18.63,1.29-.12-7.8-1.56-15-6.91-20.39-1.67-2.25-7.8-6.49-15.9-6.48-22.66,0-24.69,14.83-26.43,20.48-5.69.43-11.91-5.74-18.23-5.27-10,.75-12.49,16.39-22.18,18.87-9.36,2.4-19.13-9.18-27.72-4.74-5.77,3-6.32,11.12-10.64,16-3.6,4-9.36,5.29-14.74,5.74s-11,.36-15.93,2.53l-.15.07c-6,2.7-4.6,11.2,1.24,12.53h218a7.79,7.79,0,0,0,7.52-9.91A11.87,11.87,0,0,0,1180.53,512.81Z"/><path class="bl2c1_8" d="M1119.54,476.15c-7.42-6.19-19.46,3-28.08-1.36-8.93-4.51-8-20.33-17.58-23.22-6-1.79-13.2,2.69-18.64,1.3-.12-7.81-1.56-15-6.91-20.39-1.66-2.26-7.8-6.5-15.9-6.49-22.65,0-24.69,14.83-26.43,20.48-5.69.43-11.91-5.74-18.23-5.27-10,.75-12.48,16.4-22.18,18.88-9.36,2.39-19.13-9.18-27.71-4.75-5.78,3-6.32,11.12-10.65,16-3.6,4-9.35,5.29-14.74,5.74s-11,.36-15.93,2.53l-.14.07c-6,2.71-4.6,11.21,1.23,12.54h218a7.79,7.79,0,0,0,7.51-9.92A11.77,11.77,0,0,0,1119.54,476.15Z"/><circle class="bl2c1_9" cx="628.12" cy="482.25" r="7.98"/><circle class="bl2c1_9" cx="520.79" cy="506.36" r="3.99"/><circle class="bl2c1_9" cx="473.98" cy="561.19" r="3.99"/><circle class="bl2c1_9" cx="694.37" cy="555.13" r="3.99"/><circle class="bl2c1_2" cx="1059.29" cy="534.41" r="2.6"/><circle class="bl2c1_2" cx="987.88" cy="543.11" r="5.4"/><path class="bl2c1_10" d="M464.2,629.4s23.82-.37,24-5.4c.17-3.92-14.49-1.21-14.49-1.21s16.08-4.15,23.59-7.79a12.91,12.91,0,0,0,4.51-3.1,5,5,0,0,0,.91-5.25c-1.16-2.27-4.12-2.57-6.57-2.36-9.84.83-16.93,6-25.92,10.26a80.45,80.45,0,0,0,18.05-12c5.12-4.4,11-8.48,14.57-14.51,2.21-3.77,3.25-9.44-.29-12.77s-8.56-2-12.51-.73a51.37,51.37,0,0,0-26.45,20.07,94.59,94.59,0,0,0,4.15-13.77c.41-1.89.63-4.23-.84-5.42-1.9-1.55-4.59.3-6.18,2.19a48.45,48.45,0,0,0-8.85,15.65c1.69-13,3.38-26.2,1.16-39.08a21.28,21.28,0,0,0-2.91-8.36c-1.66-2.44-4.39-4.27-7.25-4.06-2.7.19-5,2.1-6.89,4.13a40.05,40.05,0,0,0-10.41,24.54A40.5,40.5,0,0,0,433,596.16a52.44,52.44,0,0,0-9.41-8.71c-.78-.55-1.93-1.05-2.56-.32a2.05,2.05,0,0,0-.31,1.45c.31,6.21,4.09,11.57,7.72,16.51a37.89,37.89,0,0,0-31.19-15c-1.44,0-3.07.32-3.85,1.58a4.3,4.3,0,0,0-.45,2.51c.4,6.24,5.48,11,10.52,14.33,4.24,2.83,8.73,5.24,13.21,7.65a35.33,35.33,0,0,0-7.88-.62,2.1,2.1,0,0,0-1.66.58c-.73.91.2,2.22,1.1,3,6.4,5.24,15.31,10.1,23.45,9.77Z"/><path class="bl2c1_2" d="M1048.18,601s23.81-.36,24-5.4c.17-3.92-14.49-1.2-14.49-1.2s16.08-4.16,23.58-7.79a12.91,12.91,0,0,0,4.51-3.1,5,5,0,0,0,.9-5.25c-1.15-2.26-4.11-2.56-6.56-2.36-9.83.83-16.92,6-25.9,10.25a80.42,80.42,0,0,0,18-12c5.12-4.4,11-8.48,14.56-14.51,2.21-3.77,3.24-9.43-.29-12.76s-8.56-2-12.5-.73a51.29,51.29,0,0,0-26.44,20.06,94.81,94.81,0,0,0,4.14-13.76c.42-1.89.64-4.23-.83-5.42-1.9-1.55-4.59.3-6.18,2.19a48.4,48.4,0,0,0-8.85,15.64c1.7-13,3.39-26.18,1.16-39.06a21,21,0,0,0-2.91-8.35c-1.65-2.44-4.38-4.27-7.24-4.06-2.7.19-5,2.1-6.89,4.13a40.07,40.07,0,0,0-10.4,24.53,40.49,40.49,0,0,0,7.32,25.71,51.63,51.63,0,0,0-9.4-8.7c-.77-.56-1.93-1.06-2.56-.32a2,2,0,0,0-.31,1.44c.31,6.21,4.09,11.57,7.72,16.5a37.92,37.92,0,0,0-31.18-15c-1.43.06-3.07.32-3.84,1.58a4.3,4.3,0,0,0-.45,2.51c.4,6.23,5.47,11,10.51,14.32,4.24,2.83,8.73,5.24,13.2,7.65a35.2,35.2,0,0,0-7.87-.62,2.13,2.13,0,0,0-1.66.57c-.72.92.2,2.23,1.1,3,6.4,5.24,15.3,10.1,23.44,9.78Z"/><g class="bl2c1_11"><polygon class="bl2c1_12" points="855.21 627.31 955.77 587.69 966.67 775.7 907.22 799.12 855.21 627.31"/><path class="bl2c1_13" d="M830,467.71c-.4-2.5-.92-5.11-.2-7.54,1-3.35,4.1-5.57,7.06-7.44a156.12,156.12,0,0,1,25.24-12.87c5.6-2.25,11.48-4.19,17.51-4,9.76.26,18.42,5.9,27.51,9.45,8.9,3.48,18.62,5.06,26.76,10.05,7.65,4.7,13.31,12.07,17.76,19.87a103.52,103.52,0,0,1,13.11,41.16c2.91,29.92-7.27,59.4-17.29,87.75a17.72,17.72,0,0,1-2.74,5.54c-1.69,2,2.49,11.51.08,12.59-20.27,9.1-47.49,9.22-68.29,17a30.85,30.85,0,0,1-7.73,2.14,31.19,31.19,0,0,1-8.65-.75L823.33,634a30.8,30.8,0,0,1-8.53-2.43c-8.14-4.16-10.88-14.87-9.17-23.85s6.79-16.89,10.76-25.12a109.46,109.46,0,0,0,10.32-56.48c-.93-10.94.14-16.55,2.45-27.23A83.8,83.8,0,0,0,830,467.71Z"/><path class="bl2c1_14" d="M907.81,465A40.66,40.66,0,0,1,912,477.6a72.22,72.22,0,0,1,1,13.12c0,2.19-.14,4.37-.34,6.56s-.55,4.36-.93,6.5c-.75,4.28-1.64,8.49-2,12.73l-1.61-.1a130.35,130.35,0,0,1,1.77-12.94c.33-2.12.63-4.24.79-6.36s.23-4.26.22-6.4a69.06,69.06,0,0,0-1.17-12.7,38.41,38.41,0,0,0-4.14-11.81Z"/><path class="bl2c1_15" d="M905.2,548l-10.62-13.2a5.8,5.8,0,0,1,.95-8.24L909,516l10.66,13.25a5.81,5.81,0,0,1-1,8.25Z"/><path class="bl2c1_14" d="M906.28,539.06l-4.69-5.82a2.56,2.56,0,0,1,.42-3.64L908,525l4.71,5.85a2.57,2.57,0,0,1-.43,3.64Z"/><path class="bl2c1_12" d="M922.26,460.79S942.15,469.43,942,497c-.11,20.39.69,66,1.12,88.34A28.64,28.64,0,0,0,953,606.42l147.59,127.9L1117.68,713,992.52,593.17a28.71,28.71,0,0,1-8.84-21.66l2.15-67s-1.48-61-37.78-75.88Z"/><path class="bl2c1_12" d="M946.23,616.74l-95.36-15.09a8.68,8.68,0,0,1-7-10.78l30.81-118.26-32.07-6.21S824.31,511.88,803,595.91a28.49,28.49,0,0,0,25.82,35.43l117.95,7.39Z"/><path class="bl2c1_12" d="M861.32,829.27c-67.72,22.28-98.78-94.37-98.78-94.37-46.6-150.84,73.51-288.42,73.51-288.42l11.11,8.41-25.7,85.63-4.72,53.26L831.87,620l12.43,11.16,37.58,15.19S932.3,784.82,881,821.87C877.41,824.44,865.83,827.79,861.32,829.27Z"/><ellipse class="bl2c1_16" cx="768.53" cy="622.31" rx="20.27" ry="3.75" transform="translate(86.74 1338.61) rotate(-85.41)"/><ellipse class="bl2c1_16" cx="801.82" cy="542.06" rx="20.31" ry="3.75" transform="translate(55.29 1158.04) rotate(-73.59)"/><ellipse class="bl2c1_13" cx="775.71" cy="576.6" rx="14.44" ry="2.67" transform="translate(45.47 1209.8) rotate(-77.55)"/><ellipse class="bl2c1_13" cx="786.9" cy="589.95" rx="14.44" ry="2.67" transform="translate(41.21 1231.2) rotate(-77.55)"/><ellipse class="bl2c1_13" cx="798.69" cy="511.42" rx="8.17" ry="1.5" transform="translate(-3.68 1017.04) rotate(-64.85)"/><ellipse class="bl2c1_13" cx="812.34" cy="504.92" rx="8.15" ry="1.51" transform="translate(21.09 1042.3) rotate(-66.05)"/><ellipse class="bl2c1_13" cx="787.44" cy="539.07" rx="8.15" ry="1.51" transform="translate(32.96 1123.37) rotate(-72.15)"/><ellipse class="bl2c1_13" cx="776.41" cy="657.09" rx="1.5" ry="8.16" transform="translate(-4.68 5.57) rotate(-0.41)"/><ellipse class="bl2c1_13" cx="785.49" cy="619.21" rx="8.17" ry="1.5" transform="translate(56.26 1303.79) rotate(-81.44)"/><path class="bl2c1_12" d="M958,599.27c15.43,4.91,22.17,11.27,28.64,26.12,4.52,10.37,5.3,23.2,5.52,34.51.6,30.56-3.74,82.78-3.15,113.33l-30.37,3.22L946.05,644.19l-2.8-58.36Z"/><path class="bl2c1_17" d="M943.52,577.42s3.37,23.92,25.14,43.28l51.14,43.8"/><path class="bl2c1_18" d="M839.27,795.46l25.23-68.92,6.31-17.23,3.13-8.58a12.48,12.48,0,0,0,0-7.92,15.54,15.54,0,0,0-4.57-6.73,20.82,20.82,0,0,0-3.43-2.43c-.62-.34-1.24-.66-1.89-.94l-2.08-.9-16.88-7.2,1.52-3.52,16.81,7.35,2.13.94c.75.33,1.47.72,2.19,1.12a24.28,24.28,0,0,1,4,2.9,19.26,19.26,0,0,1,5.52,8.34,15.87,15.87,0,0,1-.13,10.1l-3.24,8.63-6.46,17.17-25.88,68.68Z"/><path class="bl2c1_12" d="M845.09,628.32s55.34-13.87,59.89,25.55c0,0-1.21,118.14,1,158.5l-28.67,11.52Z"/><polygon class="bl2c1_13" points="946.81 638.73 960.33 640.58 983.53 690.07 994.11 685.73 976.78 623.11 945.07 616.36 946.81 638.73"/><path class="bl2c1_13" d="M1008.73,791.1l10.65,5.42c2.76,1.66,10.91,2.37,14.13,2.33l54.56-.6a9,9,0,0,1,5.54,1.82l10.66,8.07a1.25,1.25,0,0,1-.74,2.25l-114.81,1.27-10.47-19.42Z"/><path class="bl2c1_13" d="M876.16,790.85l9.21,5.52a17.31,17.31,0,0,0,9.14,2.48l54.57-.6a9.07,9.07,0,0,1,5.54,1.82l10.66,8.07a1.25,1.25,0,0,1-.74,2.25l-134.11,1.27L842.33,791Z"/><path class="bl2c1_13" d="M785,791.89l9.21,5.53a17.43,17.43,0,0,0,9.15,2.48l54.56-.61a9,9,0,0,1,5.54,1.83l10.66,8.07a1.25,1.25,0,0,1-.74,2.24L747.75,812.6,752.13,793Z"/><path class="bl2c1_19" d="M641.67,885.68c-27.5,7.73-58,1.79-82-13.71-7.38-4.76-14.28-10.47-19.36-17.64-7-9.88-10.19-22.05-11.17-34.13-2.92-35.87,12.51-70.94,32.86-100.63s45.76-55.6,66.68-84.88a393.08,393.08,0,0,0,36.87-64.17c8.88-19.29,16.5-39.66,17.3-60.87s-6.1-43.59-22.2-57.43c-22.33-19.18-58-17-81.92.12s-37.21,46.09-41.66,75.19-1.08,58.76,2.29,88"/><path class="bl2c1_12" d="M551,631.61c-2.72,11.32-10.48,20.71-15,31.44a58.13,58.13,0,0,0-1.82,39.56c-5.2-5.51-10.55-11.3-12.74-18.55-1.64-5.41-1.36-11.21-.56-16.8-2.24,8.49-8.77,7.59-10.38,18-10.61-14-7.64-36.87.88-52.24,4-7.17,10.27-12.7,15.73-18.82s9.57-13,10.48-21.45C550.31,599.43,554.05,618.92,551,631.61Z"/><ellipse class="bl2c1_12" cx="901.96" cy="593.33" rx="7.16" ry="2.8" transform="translate(145.39 1363.5) rotate(-78.85)"/><path class="bl2c1_18" d="M861.38,718.56l-2.8-20.22-1.4-10.1a20.32,20.32,0,0,0-10.4-14.82,20.61,20.61,0,0,0-9-2.4l-20.39-1.1.27-4.28,20.36,1.48a24.46,24.46,0,0,1,10.53,3,23.85,23.85,0,0,1,8,7.43,23.5,23.5,0,0,1,3.87,10.19l1.22,10.16,2.42,20.27Z"/><polygon class="bl2c1_18" points="748.17 799.34 768.86 720.55 771.55 721.23 752.33 800.39 748.17 799.34"/><polygon class="bl2c1_18" points="825.03 695.99 805.71 745.11 796.04 769.68 786.27 794.2 782.3 792.58 792.42 768.21 802.43 743.79 822.46 694.95 825.03 695.99"/><path class="bl2c1_18" d="M914.22,638.84l-16.57-1.3-8.28-.65-8.29-.54-33.2-2.13-16.62-1.07a51.33,51.33,0,0,1-8.46-1.7,38,38,0,0,1-8-3.35,28,28,0,0,1-6.88-5.45,27.07,27.07,0,0,1-4.8-7.36,31.18,31.18,0,0,1-2.31-8.42,35,35,0,0,1-.28-4.34,27.9,27.9,0,0,1,.31-4.41v-.06l0-.07,8.61-32.26,2.68.71-8.36,32.32,0-.12a25.56,25.56,0,0,0-.23,3.87,30.74,30.74,0,0,0,.29,4A27.73,27.73,0,0,0,806,614a24.16,24.16,0,0,0,10.42,11.24,40.57,40.57,0,0,0,15.15,4.51l16.57.94,33.18,1.88c11.07.6,22.13,1.32,33.2,2Z"/><polygon class="bl2c1_18" points="861.58 474.49 866.05 478.42 864.54 480.75 859.11 477.99 861.58 474.49"/><path class="bl2c1_20" d="M825.42,797.57c5.14-.55,20.73,2.27,25.67,3.76,2.59.79,7.21.94,6.27,9.7"/><path class="bl2c1_18" d="M755.63,763.32c13.11,7.69,27.84,14.52,42.64,7,6.16-3.11.74-12.37-5.41-9.26-10.82,5.46-22.56-1.62-31.82-7.05-6-3.5-11.37,5.76-5.41,9.26Z"/><path class="bl2c1_18" d="M850.86,762.08c13.41,6.7,28.86,13,43,4.54,5.92-3.53.53-12.81-5.41-9.26-10.49,6.26-22.45.33-32.2-4.54-6.16-3.08-11.6,6.17-5.42,9.26Z"/><path class="bl2c1_18" d="M961.58,770.54c14.27,1.8,30.64,2.4,40.78-9.75,4.39-5.27-3.16-12.89-7.58-7.58-8.23,9.86-21.8,8-33.2,6.6-6.83-.86-6.77,9.87,0,10.73Z"/><path class="bl2c1_18" d="M919.67,639.18c5.87-9.38,10.38-19.25,5.57-30.11-2.46-5.56-10.62-.75-8.18,4.78,3.17,7.15-1.91,14.7-5.57,20.55-3.25,5.18,4.94,9.94,8.18,4.78Z"/><path class="bl2c1_12" d="M992.24,411.52c0-49.46-25.06-94.37-83.94-93.74-62.42.66-85.39,43.45-85.39,92.91"/><circle class="bl2c1_13" cx="997.44" cy="391.85" r="28.85" transform="translate(559.73 1370.04) rotate(-87.34)"/><circle class="bl2c1_12" cx="997.44" cy="391.85" r="15.23"/><circle class="bl2c1_13" cx="819.32" cy="391.85" r="28.85" transform="translate(389.87 1192.11) rotate(-87.34)"/><circle class="bl2c1_12" cx="819.32" cy="391.85" r="15.23"/><path class="bl2c1_12" d="M989,380.55a54,54,0,0,0-18.82-30.82,21.3,21.3,0,0,0-3.22-2.26c-16-8.2-26.75-14-44.68-15.29-12.4-.88-30.23,1.81-42.61,3-40.44,3.89-47.07,25-47.07,25s-21.62,51.22-.89,88.23l0-.1c7,15.31,22.82,25.78,37,34.12a265.92,265.92,0,0,0,23.92,12.46c6.17,2.82,12.7,5.39,19.46,5.08,9.28-.43,17.57-6.2,25.42-10.48a181.83,181.83,0,0,0,36.61-25.94A42.5,42.5,0,0,0,983,453c.1-.18.19-.37.29-.56C996.05,428.92,992.94,399.16,989,380.55Z"/><path class="bl2c1_21" d="M891.76,338.71a18.58,18.58,0,0,0-5.43-8.52"/><path class="bl2c1_21" d="M896.17,332a18,18,0,0,0-1-5.47"/><path class="bl2c1_21" d="M881.72,335.32a16.84,16.84,0,0,0-6.16-3.32"/><path class="bl2c1_21" d="M873.82,341a23,23,0,0,0-7.42-3.31"/><path class="bl2c1_21" d="M924.68,338.71a18.58,18.58,0,0,1,5.43-8.52"/><path class="bl2c1_21" d="M920.27,332a18,18,0,0,1,1.05-5.47"/><path class="bl2c1_21" d="M934.72,335.32a16.84,16.84,0,0,1,6.16-3.32"/><path class="bl2c1_21" d="M942.62,341a23,23,0,0,1,7.42-3.31"/><path class="bl2c1_21" d="M952.72,443.17a21.76,21.76,0,0,1,3,6.23,46.17,46.17,0,0,1,.6,9.69"/><path class="bl2c1_21" d="M948.65,438a20.84,20.84,0,0,1,2.52,2.9"/><path class="bl2c1_21" d="M961.8,437.14c3.4,1.17,8.15,5.22,8.53,8.8"/><path class="bl2c1_21" d="M968.79,427.62a9.36,9.36,0,0,1,7.56,4.68"/><path class="bl2c1_21" d="M975.17,419a3.86,3.86,0,0,1,4,2"/><path class="bl2c1_21" d="M976.07,407.11a5.7,5.7,0,0,1,3.65.58"/><path class="bl2c1_21" d="M947,457.92a50.27,50.27,0,0,1,.43,12.38"/><path class="bl2c1_21" d="M937.69,471.74c0,2-.14,6.42-.78,8.26"/><path class="bl2c1_21" d="M921.41,478.63a9.93,9.93,0,0,1-.15,3.08,7.61,7.61,0,0,1-1,2.11,18.4,18.4,0,0,1-2.61,3.3"/><path class="bl2c1_21" d="M962.71,430.67a10.39,10.39,0,0,1,4.48,1.58"/><path class="bl2c1_21" d="M964.34,450.52a9.83,9.83,0,0,1,1,4.68"/><path class="bl2c1_21" d="M861.86,441.54a17,17,0,0,0-3.87,6.83,45.62,45.62,0,0,0-1.43,9.6"/><path class="bl2c1_21" d="M866,437.65a16.55,16.55,0,0,0-1.71,1.53"/><path class="bl2c1_21" d="M851.08,437.94a9.73,9.73,0,0,0-6.37,8"/><path class="bl2c1_21" d="M846.25,427.62a9.36,9.36,0,0,0-7.56,4.68"/><path class="bl2c1_21" d="M839.88,419a3.87,3.87,0,0,0-4,2"/><path class="bl2c1_21" d="M839,407.11a5.71,5.71,0,0,0-3.65.58"/><path class="bl2c1_21" d="M868.07,457.92c-.67,2.93-2,8.14-1.63,11.12"/><path class="bl2c1_21" d="M877.35,471.74c0,2-.59,6.11,0,7.95"/><path class="bl2c1_21" d="M893.63,478.63a9.93,9.93,0,0,0,.15,3.08,7.61,7.61,0,0,0,1,2.11,18.85,18.85,0,0,0,2.61,3.3"/><path class="bl2c1_21" d="M852.33,430.67a10.43,10.43,0,0,0-4.48,1.58"/><path class="bl2c1_21" d="M850.7,450.52a9.7,9.7,0,0,0-1,4.68"/><path class="bl2c1_21" d="M907.5,480.54a32.38,32.38,0,0,0,1,10.74"/><path class="bl2c1_21" d="M976.81,395.84a6.09,6.09,0,0,1,4.26-.69"/><path class="bl2c1_21" d="M975.27,387.17a4.94,4.94,0,0,1,3.68-1.48"/><path class="bl2c1_21" d="M973,378c.3-1.32,3.13-3.7,4.32-4.37"/><path class="bl2c1_21" d="M968.49,370.42c0-1.34,2.11-4.2,3.09-5.08"/><path class="bl2c1_21" d="M838.17,395.84a6.06,6.06,0,0,0-4.25-.69"/><path class="bl2c1_21" d="M839.72,387.17a5,5,0,0,0-3.69-1.48"/><path class="bl2c1_21" d="M842,378c-.31-1.32-3.14-3.7-4.32-4.37"/><path class="bl2c1_21" d="M846.5,370.42c0-1.34-2.12-4.2-3.09-5.08"/><path class="bl2c1_13" d="M973.42,410.65a70.58,70.58,0,0,0-.92-8.73c-2.36-10.72-3.51-12.13-7.72-20.79-1.25-2.57-5.85-8.32-7.87-10.35-2.85-2.87-9.95-4.51-14-4.87a102.82,102.82,0,0,0-13.71-.12c-9.87.59-14,2.52-22,6.36-8-3.84-12.09-5.77-21.95-6.36a102.82,102.82,0,0,0-13.71.12c-4,.36-11.13,2-14,4.87-2,2-6.61,7.78-7.86,10.35-4.21,8.66-5.36,10.07-7.72,20.79a70.58,70.58,0,0,0-.92,8.73c-.33,4.68,2.73,8.92,6.11,12.18a29.71,29.71,0,0,0,10,6.73c4.8,1.78,10.06,1.75,15.19,1.7-3,5.56-4.28,11.9-5.08,18.18a34.89,34.89,0,0,0-.17,10.3c1.66,9.76,10.87,17.16,20.68,18.58a18.86,18.86,0,0,0,6.36,0c4.06-.79,7.42-.9,13-3.8,5.58,2.9,8.94,3,13,3.8a18.8,18.8,0,0,0,6.35,0c9.81-1.42,19-8.82,20.69-18.58a35.23,35.23,0,0,0-.17-10.3c-.81-6.28-2.06-12.62-5.08-18.18,5.12.05,10.38.08,15.19-1.7a29.81,29.81,0,0,0,10-6.73C970.68,419.57,973.75,415.33,973.42,410.65Z"/><path class="bl2c1_13" d="M977,399.2a40.06,40.06,0,1,0-80.11,0c0,22.12,23.23,32.39,45.35,32.39S977,421.32,977,399.2Z"/><path class="bl2c1_13" d="M918.68,399.79a40.06,40.06,0,1,0-80.11,0c0,22.12,14.4,33,36.52,33S918.68,421.91,918.68,399.79Z"/><path class="bl2c1_9" d="M957.32,392.7a22.63,22.63,0,0,0-36.41-14.19c-2.28,1.81-4.2,4.05-6.61,5.67a11,11,0,0,1-5,1.87,21.63,21.63,0,0,0-3.22,0,10.94,10.94,0,0,1-5-1.87c-2.41-1.62-4.33-3.86-6.61-5.67A22.63,22.63,0,0,0,858,392.7a19.54,19.54,0,0,0,2.85,13.9c3.9,5.73,10.83,8.48,17.41,10.68a32.61,32.61,0,0,0,29,48.22h.8a32.61,32.61,0,0,0,29-48.22c6.58-2.2,13.51-4.95,17.41-10.68A19.54,19.54,0,0,0,957.32,392.7Z"/><ellipse class="bl2c1_12" cx="917.63" cy="428.03" rx="3.57" ry="1.77" transform="translate(-71.53 644.39) rotate(-37.34)"/><ellipse class="bl2c1_12" cx="896.34" cy="428.03" rx="1.77" ry="3.57" transform="translate(12.32 880.97) rotate(-52.66)"/><path class="bl2c1_12" d="M944.46,403.7c-.9-.46-1.76-1-2.69-1.43a18.62,18.62,0,0,0-2.84-1,18,18,0,0,0-6-.76,20.2,20.2,0,0,0-6,1.08l-1.46.55c-.46.21-1,.4-1.41.64a19,19,0,0,0-2.6,1.53l-2.22-2.75a22,22,0,0,1,3.1-2c.53-.3,1.07-.55,1.61-.83l1.66-.71a24.21,24.21,0,0,1,7.1-1.62,22.46,22.46,0,0,1,7.35.58,24,24,0,0,1,3.52,1.11c1.15.44,2.21,1.05,3.32,1.58Z"/><path class="bl2c1_12" d="M942,391.87c-1.06-.05-2.13-.2-3.2-.16a19.77,19.77,0,0,0-3.17.29,19.1,19.1,0,0,0-6,2,21.7,21.7,0,0,0-5.22,3.72,23.48,23.48,0,0,0-4,5l-1.58-.79a24.56,24.56,0,0,1,4.2-5.61,23.24,23.24,0,0,1,5.59-4.19,21.39,21.39,0,0,1,6.63-2.33,22.87,22.87,0,0,1,3.5-.4c1.18-.07,2.34.06,3.52.09Z"/><path class="bl2c1_12" d="M869.55,399.59c1.11-.53,2.17-1.14,3.32-1.58a24,24,0,0,1,3.52-1.11,22.42,22.42,0,0,1,7.34-.58,24.13,24.13,0,0,1,7.1,1.62l1.67.71c.53.28,1.08.53,1.6.83a20.91,20.91,0,0,1,3.1,2L895,404.27a17.82,17.82,0,0,0-2.6-1.53c-.45-.24-.94-.43-1.41-.64l-1.45-.55a20.21,20.21,0,0,0-6-1.08,20.2,20.2,0,0,0-8.81,1.8c-.93.4-1.79,1-2.69,1.43Z"/><path class="bl2c1_12" d="M874.18,389.49c1.17,0,2.34-.16,3.51-.09a22.73,22.73,0,0,1,3.5.4,21.3,21.3,0,0,1,6.63,2.33,23.49,23.49,0,0,1,5.6,4.19,24.52,24.52,0,0,1,4.19,5.61l-1.58.79a22.87,22.87,0,0,0-4-5,21.7,21.7,0,0,0-5.22-3.72,19,19,0,0,0-6-2,19.9,19.9,0,0,0-3.18-.29c-1.06,0-2.13.11-3.2.16Z"/><path class="bl2c1_12" d="M895.08,449.75c-.15.13-.19.24-.16.19s0,0,.1.12a4.78,4.78,0,0,0,1.21.85,31.31,31.31,0,0,0,3.26,1.39l1.74.67a8.94,8.94,0,0,0,1.59.52,15.27,15.27,0,0,0,3.42.32,41.21,41.21,0,0,0,14-2.54l-.64,1.67a20.33,20.33,0,0,0-4.79-5.47A12.08,12.08,0,0,0,901.49,446a24.65,24.65,0,0,0-6.08,4.15ZM893.52,448a27.24,27.24,0,0,1,6.84-4.51,15.61,15.61,0,0,1,8.31-1.37,15.35,15.35,0,0,1,7.68,3.41,22.32,22.32,0,0,1,5.33,6.3l.69,1.21-1.34.47a43.19,43.19,0,0,1-14.81,2.41,17.81,17.81,0,0,1-3.87-.44,10.28,10.28,0,0,1-1.89-.66l-1.68-.68a29.93,29.93,0,0,1-3.46-1.55,6.07,6.07,0,0,1-1.74-1.31,2.08,2.08,0,0,1-.51-1.56,2.14,2.14,0,0,1,.78-1.34Z"/><path class="bl2c1_9" d="M969.23,352.91a6.9,6.9,0,0,1,4.48-8.66,7.18,7.18,0,0,1,1.63-.3l-.07,0a78.14,78.14,0,0,1-20.95-2.15c-5-1.34-9.68-3.5-14.68-4.65s-10.58-1.14-14.92,1.61a8.88,8.88,0,0,1-1.8,1c-2,.7-4.23-.67-5.34-2.48s-1.41-4-1.93-6c-.64-2.54-4.19-23-7.95-23.08s-8,20.45-8.63,23.08c-.52,2.06-.83,4.23-1.93,6s-3.34,3.18-5.35,2.48a9.45,9.45,0,0,1-1.8-1c-4.33-2.75-9.91-2.75-14.91-1.61s-9.72,3.31-14.68,4.65c-6.47,1.75-15.81,2.05-23.4,1.68-4.6,4.36-5.4,8.67-6.52,11.34.5.16,1.41,1.19,1.88,1.39A40.54,40.54,0,0,0,850,360c11.12-.22,21.08-7.76,32.27-7.86,6.08-.05,10.69,4.76,11.88,10.73a6.37,6.37,0,0,0,.83,1.94,29.9,29.9,0,0,0,1.18,2.93c4.37,9.28,17.8,9.36,22.19.09a25.54,25.54,0,0,0,1.13-2.74s0,0,0-.06c3.62-9.76,7.75-13.16,13.92-12.86,10.78.52,20.48,7.62,31.27,7.83a31.13,31.13,0,0,0,13.12-2.59A6.88,6.88,0,0,1,969.23,352.91Z"/><path class="bl2c1_9" d="M982.36,348.73a6.89,6.89,0,0,0-7-4.78c1.78.53,3.16,1.87,3.95,4.94,0,0,1.27,5.55-.85,8.27l-.61.24,0,0A6.88,6.88,0,0,0,982.36,348.73Z"/><path class="bl2c1_9" d="M979.29,348.89c-.79-3.07-2.17-4.41-3.95-4.94a7.18,7.18,0,0,0-1.63.3,6.89,6.89,0,0,0,4.12,13.15l.61-.24C980.56,354.44,979.29,348.89,979.29,348.89Z"/><path class="bl2c1_9" d="M842.27,348.1a6.92,6.92,0,0,0-7-4.78,6.7,6.7,0,0,0-1.63.31,6.89,6.89,0,0,0,4.13,13.14h0A6.91,6.91,0,0,0,842.27,348.1Z"/><path class="bl2c1_22" d="M855.1,312.35a15.17,15.17,0,0,1,8.13,17.9"/><path class="bl2c1_22" d="M867.24,311.16a15.14,15.14,0,0,1-4.15,19.22"/><ellipse class="bl2c1_23" cx="907.34" cy="349.96" rx="6.14" ry="17.16"/><polygon class="bl2c1_18" points="848.85 467.89 814.8 508.44 812.65 506.69 845.52 465.18 848.85 467.89"/><path class="bl2c1_18" d="M830,439.65c.2.6.56,1.42.88,2.13s.7,1.47,1.1,2.2c.76,1.45,1.63,2.87,2.52,4.28a80.06,80.06,0,0,0,6,8.05l1.65,1.91,1.71,1.86c1.13,1.26,2.35,2.42,3.54,3.62s2.48,2.3,3.72,3.46l3.86,3.31-1.72,2.17-4.07-3.23c-1.31-1.14-2.66-2.24-3.94-3.41s-2.58-2.34-3.79-3.59c-.61-.62-1.24-1.23-1.84-1.86l-1.78-1.92a84.3,84.3,0,0,1-6.59-8.19c-1-1.45-2-2.93-2.86-4.48-.45-.76-.87-1.55-1.29-2.35a27.69,27.69,0,0,1-1.16-2.59Z"/><path class="bl2c1_18" d="M921.94,495.78a111,111,0,0,0,13.75-6.61c4.47-2.49,8.81-5.22,13.06-8.08,2.09-1.48,4.21-2.91,6.25-4.47,1-.77,2.06-1.51,3.07-2.3l3-2.39c2-1.56,3.94-3.27,5.92-4.9s3.82-3.4,5.74-5.1l2.87,3.18c-2,1.69-4,3.41-6,5.06s-4,3.31-6.15,4.85l-3.13,2.35c-1.05.78-2.12,1.51-3.18,2.27-2.12,1.53-4.32,2.94-6.48,4.39-4.4,2.81-8.89,5.48-13.51,7.91a114,114,0,0,1-14.35,6.47Z"/><path class="bl2c1_14" d="M927.7,412.67a8.52,8.52,0,0,0,1.17,2.54,2.33,2.33,0,0,0,2.48.92,2.58,2.58,0,0,0,1.22-1.09,4,4,0,0,0,.62-3.25c-.68-2.28-5.84-4.78-7.84-4.11C926.12,409.34,927.07,410.92,927.7,412.67Z"/><path class="bl2c1_14" d="M937.64,412.23a6.69,6.69,0,0,0,.88,2,1.87,1.87,0,0,0,2,.76,2.13,2.13,0,0,0,1-.85,3.15,3.15,0,0,0,.59-2.57c-.49-1.81-4.58-3.87-6.22-3.37A43.21,43.21,0,0,1,937.64,412.23Z"/><path class="bl2c1_14" d="M937.39,423.79a6.74,6.74,0,0,0,.32,2.2,1.89,1.89,0,0,0,1.71,1.24,2.17,2.17,0,0,0,1.21-.55,3.17,3.17,0,0,0,1.24-2.34c0-1.88-3.43-4.92-5.14-4.86C936.94,420.92,937.31,422.33,937.39,423.79Z"/><path class="bl2c1_14" d="M880.16,422.55a6.68,6.68,0,0,1-.32,2.19,1.89,1.89,0,0,1-1.71,1.25,2.12,2.12,0,0,1-1.21-.56,3.15,3.15,0,0,1-1.24-2.33c0-1.88,3.43-4.92,5.14-4.86C880.61,419.67,880.23,421.08,880.16,422.55Z"/><path class="bl2c1_14" d="M890.37,412.67a8.54,8.54,0,0,1-1.18,2.54,2.31,2.31,0,0,1-2.47.92,2.55,2.55,0,0,1-1.23-1.09,4,4,0,0,1-.62-3.25c.69-2.28,5.85-4.78,7.84-4.11C891.94,409.34,891,410.92,890.37,412.67Z"/><path class="bl2c1_14" d="M880.21,410.67a7,7,0,0,1-1.27,1.86,1.91,1.91,0,0,1-2.09.41,2.14,2.14,0,0,1-.84-1,3.14,3.14,0,0,1-.07-2.63c.84-1.7,5.27-3,6.77-2.26C881.89,408.25,880.93,409.38,880.21,410.67Z"/></g><path class="bl2c1_24" d="M610.41,598.83s38.69-.58,39-8.77c.28-6.36-23.54-1.95-23.54-1.95s26.13-6.75,38.31-12.65c2.67-1.3,5.4-2.7,7.33-5s2.85-5.82,1.47-8.54c-1.87-3.67-6.68-4.16-10.66-3.83-16,1.35-27.49,9.75-42.09,16.66a131.06,131.06,0,0,0,29.32-19.47c8.31-7.15,17.92-13.79,23.65-23.57,3.59-6.13,5.27-15.34-.47-20.74-5.56-5.24-13.9-3.24-20.31-1.19a83.29,83.29,0,0,0-43,32.6A154.37,154.37,0,0,0,616.24,520c.67-3.07,1-6.88-1.36-8.81-3.09-2.51-7.45.49-10,3.55a79,79,0,0,0-14.37,25.42c2.76-21.06,5.51-42.54,1.89-63.46-.83-4.78-2-9.61-4.73-13.58s-7.12-6.92-11.76-6.59c-4.39.31-8.13,3.41-11.19,6.71a65,65,0,0,0-16.9,39.86,65.67,65.67,0,0,0,11.89,41.77,84.84,84.84,0,0,0-15.27-14.14c-1.27-.9-3.14-1.71-4.16-.52a3.33,3.33,0,0,0-.51,2.35c.5,10.09,6.64,18.79,12.54,26.81-12-15.8-31.38-25.13-50.65-24.36-2.33.09-5,.52-6.25,2.57a6.91,6.91,0,0,0-.73,4.08c.64,10.12,8.89,17.79,17.08,23.26,6.89,4.61,14.18,8.52,21.45,12.43a57.18,57.18,0,0,0-12.79-1,3.39,3.39,0,0,0-2.69.93c-1.19,1.48.32,3.62,1.77,4.81,10.4,8.51,24.87,16.4,38.09,15.87Z"/><path class="bl2c1_3" d="M631.24,552.58A215.91,215.91,0,0,0,607.43,571c-7.38,6.75-15.67,14.83-20.62,23.5l-.53-1.7a99.76,99.76,0,0,1,19-24.08,220.71,220.71,0,0,1,23.76-19.26Z"/><path class="bl2c1_3" d="M596.66,556.8a96.66,96.66,0,0,0-8.08,36.61h-2.45a99.48,99.48,0,0,1,7-38.06Z"/><path class="bl2c1_3" d="M582.22,529.15a108,108,0,0,0-.64,16,152,152,0,0,0,1.38,16c1.43,10.68,3.67,21.3,5.6,32l-2.41.46c-2.14-10.62-4.61-21.21-6.29-32a159.51,159.51,0,0,1-1.74-16.35,114.06,114.06,0,0,1,.32-16.53Z"/><path class="bl2c1_3" d="M561.8,559.64c1.81,2.93,3.88,5.77,6,8.57s4.35,5.55,6.6,8.27c4.51,5.45,9.17,10.78,13.86,16.1l-1.81,1.65c-4.86-5.17-9.71-10.38-14.43-15.72-2.35-2.67-4.68-5.38-6.94-8.16s-4.46-5.62-6.48-8.67Z"/><path class="bl2c1_3" d="M628.12,580.13c-6.87,2.73-13.93,4.26-20.77,6.17a99.93,99.93,0,0,0-10.05,3.27c-3.25,1.3-7.65,3-10.49,4.94l-.17-2.1a47.78,47.78,0,0,1,9.59-5.41,99.52,99.52,0,0,1,10.24-3.7c6.88-2.14,13.81-3.89,20.19-6.67Z"/><path class="bl2c1_3" d="M550.83,571.45c2.87,2,5.9,3.81,8.95,5.6s6.15,3.53,9.27,5.24c6.23,3.42,12.53,6.73,18.85,10l-1.09,2.2c-6.43-3.09-12.85-6.22-19.22-9.46-3.19-1.62-6.36-3.27-9.51-5s-6.28-3.48-9.36-5.45Z"/><circle class="bl2c1_3" cx="640.78" cy="573.77" r="2.83"/><circle class="bl2c1_3" cx="639.45" cy="544.61" r="2.83"/><circle class="bl2c1_3" cx="599.49" cy="545.94" r="2.83"/><circle class="bl2c1_3" cx="580.79" cy="518.11" r="2.83"/><circle class="bl2c1_3" cx="555.77" cy="552.3" r="2.83"/><circle class="bl2c1_3" cx="537.4" cy="566.16" r="2.83"/></svg>
