<svg id="Layer_1" data-name="Layer 1" xmlns="http://www.w3.org/2000/svg" viewBox="0 0 1195.73 660.71"><defs><style>.cls-1{fill:#2f4962;}.cls-2{fill:#e5af34;}</style></defs><title>13</title><rect class="cls-1" x="-47.27" y="-46.29" width="1287" height="730.1"/><path class="cls-2" d="M576.42,363.19a655.51,655.51,0,0,1,66.63-3.51,405.39,405.39,0,0,1,66.54,5.56l4.12.73,2,.36c.72.13,1.45.3,2.17.5a28.51,28.51,0,0,1,8,3.69,33.07,33.07,0,0,1,3.48,2.63,21.05,21.05,0,0,1,3.1,3.22,17.61,17.61,0,0,1,3.6,8.29,13.41,13.41,0,0,1-.17,4.68,14.18,14.18,0,0,1-1.78,4.31,19.15,19.15,0,0,1-6.54,6.11,35.33,35.33,0,0,1-8,3.43,67.25,67.25,0,0,1-8.28,1.95,65.93,65.93,0,0,1-17,.72,26.66,26.66,0,0,1-8.49-2.07A15.64,15.64,0,0,1,679,398a11.41,11.41,0,0,1-1.72-9,13.12,13.12,0,0,1,5.3-7.38,18.71,18.71,0,0,1,8.3-3.11,43.93,43.93,0,0,1,8.56-.21l-.13,2.59a40.63,40.63,0,0,0-8,.22,16,16,0,0,0-7.12,2.69,10.45,10.45,0,0,0-4.22,5.85,8.65,8.65,0,0,0,1.4,6.85,12.32,12.32,0,0,0,2.49,2.76,14,14,0,0,0,3.23,2,24.19,24.19,0,0,0,7.62,1.79,63.72,63.72,0,0,0,16.19-.77,66.82,66.82,0,0,0,7.9-1.91,32.62,32.62,0,0,0,7.27-3.17,16.29,16.29,0,0,0,5.5-5.14,11.22,11.22,0,0,0,1.37-3.35,10.6,10.6,0,0,0,.1-3.6,14.51,14.51,0,0,0-3-6.77,24.9,24.9,0,0,0-5.85-5.11,25.33,25.33,0,0,0-7.08-3.24c-.63-.17-1.24-.31-1.89-.43l-2-.34-4.09-.7a402.79,402.79,0,0,0-66-5.17,652.38,652.38,0,0,0-66.23,3.85Z"/><path class="cls-2" d="M564.87,378.55a288,288,0,0,1,36.29,3,178.51,178.51,0,0,1,35.34,9.08l2.14.82,1.08.4c.37.15.75.32,1.11.51a14.51,14.51,0,0,1,3.94,3.12,20.63,20.63,0,0,1,1.61,2.06,13.94,13.94,0,0,1,1.35,2.41,13.49,13.49,0,0,1,1.11,5.87,11.56,11.56,0,0,1-.55,3.13,11.13,11.13,0,0,1-1.4,2.75,11.73,11.73,0,0,1-4.14,3.59,17.32,17.32,0,0,1-4.63,1.67,31.09,31.09,0,0,1-4.66.65,29.18,29.18,0,0,1-9.22-.87,12.4,12.4,0,0,1-4.38-2.08A9.66,9.66,0,0,1,616.69,404a9,9,0,0,1,8.39-6,19.12,19.12,0,0,1,4.63.54l-.33,1.73a18.06,18.06,0,0,0-4.36-.49,7.8,7.8,0,0,0-4.11,1.23,7.32,7.32,0,0,0-2.86,3.6,7.08,7.08,0,0,0,.07,4.72,8,8,0,0,0,1.07,2.06,7.44,7.44,0,0,0,1.55,1.57,11.07,11.07,0,0,0,3.92,1.82,28.06,28.06,0,0,0,8.82.77,29.48,29.48,0,0,0,4.45-.65,15.67,15.67,0,0,0,4.24-1.55,10,10,0,0,0,3.48-3,8.58,8.58,0,0,0,1.07-2.14,8.76,8.76,0,0,0,.42-2.41,11.16,11.16,0,0,0-.95-4.8,15.06,15.06,0,0,0-2.64-3.9,12.66,12.66,0,0,0-3.5-2.75c-.32-.16-.64-.31-1-.44l-1.07-.39-2.13-.8A177.25,177.25,0,0,0,600.79,384a284.14,284.14,0,0,0-36.11-2.72Z"/><path class="cls-2" d="M438.23,309.51a380.26,380.26,0,0,0,38.21-29.73A238.18,238.18,0,0,0,509.13,244l1.79-2.48.9-1.23c.31-.44.6-.91.87-1.38a19.21,19.21,0,0,0,2.1-6.33,24.72,24.72,0,0,0,.3-3.46,18.58,18.58,0,0,0-.25-3.67,18,18,0,0,0-3-7.33,14.36,14.36,0,0,0-6.45-5.13,16,16,0,0,0-7.22-1,23.47,23.47,0,0,0-6.37,1.53,40.55,40.55,0,0,0-5.65,2.67,38.66,38.66,0,0,0-9.62,7.68,16.53,16.53,0,0,0-3.36,5.49,12.82,12.82,0,0,0,4.21,14.13,12.13,12.13,0,0,0,7.3,2.43A12,12,0,0,0,491,244a24.58,24.58,0,0,0,4.76-4l-1.62-1.68a23.67,23.67,0,0,1-4.5,3.73,10.36,10.36,0,0,1-5.47,1.62,9.7,9.7,0,0,1-5.8-1.92,9.41,9.41,0,0,1-3.36-5.3,10.33,10.33,0,0,1-.3-3.06,10,10,0,0,1,.57-2.88,14.81,14.81,0,0,1,3-4.88,37.21,37.21,0,0,1,9.24-7.28,41.13,41.13,0,0,1,5.42-2.52,21.42,21.42,0,0,1,5.84-1.36,13.33,13.33,0,0,1,6.07.82,11.19,11.19,0,0,1,5,4,14.81,14.81,0,0,1,2.44,6,20,20,0,0,1-.09,6.27,16.85,16.85,0,0,1-1.89,5.6,13.6,13.6,0,0,1-.77,1.2l-.9,1.22L506.88,242a235.07,235.07,0,0,1-32.64,35.3,378.38,378.38,0,0,1-38.18,29.31Z"/><path class="cls-2" d="M500.6,276.11a261.05,261.05,0,0,0,30.61-13.41,163.77,163.77,0,0,0,27.95-18.41l1.62-1.35.81-.68c.28-.24.56-.5.82-.77a13.13,13.13,0,0,0,2.48-3.88,18.85,18.85,0,0,0,.79-2.26,13,13,0,0,0,.45-2.5,12.45,12.45,0,0,0-.79-5.42,10.61,10.61,0,0,0-1.41-2.55,10,10,0,0,0-2-2,10.88,10.88,0,0,0-4.66-1.88,16.34,16.34,0,0,0-4.52-.06,28.63,28.63,0,0,0-4.24.83,26.66,26.66,0,0,0-7.74,3.51,11.38,11.38,0,0,0-3.17,3.1,8.83,8.83,0,0,0,.42,10.17,8.33,8.33,0,0,0,4.47,2.86,8.22,8.22,0,0,0,4.58-.19,17.43,17.43,0,0,0,3.86-1.86l-.8-1.4a15.94,15.94,0,0,1-3.64,1.73,7.09,7.09,0,0,1-3.93.16A6.65,6.65,0,0,1,539,237.6a6.55,6.55,0,0,1-1.35-4.11,7.33,7.33,0,0,1,.32-2.11,6.94,6.94,0,0,1,.87-1.82,10.17,10.17,0,0,1,2.87-2.75,25.46,25.46,0,0,1,7.41-3.3,27.7,27.7,0,0,1,4.06-.77,15.12,15.12,0,0,1,4.14.08,9.23,9.23,0,0,1,3.92,1.58,7.6,7.6,0,0,1,2.65,3.51,10.13,10.13,0,0,1,.61,4.44,14,14,0,0,1-1.12,4.18,11.73,11.73,0,0,1-2.22,3.42c-.23.24-.46.46-.71.68l-.81.66L558,242.61a162.1,162.1,0,0,1-27.82,18.08,261.65,261.65,0,0,1-30.52,13.13Z"/></svg>