<svg id="Layer_1" data-name="Layer 1" xmlns="http://www.w3.org/2000/svg" xmlns:xlink="http://www.w3.org/1999/xlink" viewBox="0 0 1507.89 890.26"><defs><style>.blc1-1-c_1{fill:#367d75;}.blc1-1-c_2{fill:url(#lgblc1-1-c);}.blc1-1-c_3{fill:url(#lgblc1-1-c_2);}.blc1-1-c_4{fill:url(#lgblc1-1-c_3);}.blc1-1-c_5{fill:#9fa851;}.blc1-1-c_6{fill:#e5af36;}.blc1-1-c_7{fill:#2f5f5b;}</style><linearGradient id="lgblc1-1-c" x1="835.93" y1="662.48" x2="838.66" y2="512.17" gradientUnits="userSpaceOnUse"><stop offset="0" stop-color="#3b6660" stop-opacity="0"/><stop offset="1" stop-color="#305051"/></linearGradient><linearGradient id="lgblc1-1-c_2" x1="849.46" y1="474.78" x2="850.66" y2="408.34" xlink:href="#lgblc1-1-c"/><linearGradient id="lgblc1-1-c_3" x1="858.29" y1="732.47" x2="859.23" y2="680.5" xlink:href="#lgblc1-1-c"/></defs><title>8</title><path class="blc1-1-c_2" d="M655,652l348.93,6.28a18.7,18.7,0,0,0,18-23.79c-1.64-5.7-4-10.86-8.61-14.67-17.81-14.85-46.7,7.2-67.4-3.26-21.43-10.84-19.19-48.79-42.19-55.72-14.3-4.31-31.68,6.44-44.72,3.1-.29-18.73-3.74-35.93-16.58-48.93-4-5.41-18.71-15.58-38.16-15.57-54.36,0-59.25,35.6-63.42,49.16-13.66,1-28.58-13.79-43.75-12.65-24,1.8-22.86,42.1-46.13,48"/><path class="blc1-1-c_3" d="M961.23,453.58c-7.42-6.19-19.46,3-28.08-1.36-8.94-4.52-8-20.33-17.58-23.22-6-1.79-13.21,2.68-18.64,1.29-.12-7.8-1.56-15-6.91-20.39-1.66-2.25-7.8-6.49-15.9-6.48-22.65,0-24.69,14.83-26.43,20.48-5.69.43-11.91-5.75-18.23-5.27-10,.75-12.48,16.39-22.18,18.87-9.36,2.39-19.13-9.18-27.71-4.74-5.78,3-6.32,11.12-10.65,16-3.6,4-9.35,5.29-14.74,5.74s-11,.36-15.93,2.53l-.15.06c-6,2.71-4.59,11.21,1.24,12.54h218a7.79,7.79,0,0,0,7.51-9.91A11.8,11.8,0,0,0,961.23,453.58Z"/><path class="blc1-1-c_4" d="M945.72,715.88c-5.81-4.84-15.22,2.35-22-1.06-7-3.53-6.26-15.9-13.75-18.16-4.66-1.41-10.33,2.1-14.58,1-.09-6.11-1.22-11.71-5.4-15.95-1.3-1.76-6.1-5.08-12.44-5.08-17.72,0-19.31,11.61-20.67,16-4.46.33-9.32-4.5-14.26-4.12-7.81.58-9.77,12.82-17.35,14.76-7.33,1.87-15-7.18-21.68-3.71-4.52,2.33-4.94,8.7-8.33,12.49-2.81,3.15-7.31,4.14-11.53,4.49s-8.58.28-12.46,2l-.11.05c-4.68,2.12-3.6,8.77,1,9.81H942.65a6.09,6.09,0,0,0,5.87-7.76A9.21,9.21,0,0,0,945.72,715.88Z"/><path class="blc1-1-c_5" d="M789.11,563.07a9.82,9.82,0,1,0-3,0,156.32,156.32,0,0,1-.88,17.85c-.91,7.89-3.08,15.47-5.33,23.06-4.08,13.75-9.1,28.19-8.18,42.74.13,2,3.25,2,3.12,0-1-15.29,4.72-30.42,8.94-44.87C787.54,588.91,788.85,576.23,789.11,563.07Z"/><path class="blc1-1-c_5" d="M826,577.24A9.78,9.78,0,1,0,815,593c-3.68,11.79-8.06,22.81-15.43,33a107.69,107.69,0,0,0-15.67,33.08c-.57,1.93,2.44,2.75,3,.83a108.78,108.78,0,0,1,16.68-34.12c7-9.64,11-20.73,14.47-32A9.77,9.77,0,0,0,826,577.24Z"/><path class="blc1-1-c_5" d="M764.53,577.82A9.78,9.78,0,0,0,752.24,593a8.72,8.72,0,0,0,1,.67c-3.73,17,9.06,35.35,3.49,52.62-.62,1.91,2.39,2.73,3,.83,5.5-17-7.14-35.63-3.59-52.23a9.77,9.77,0,0,0,8.43-17.1Z"/><circle class="blc1-1-c_6" cx="832.87" cy="623.85" r="4.12"/><circle class="blc1-1-c_6" cx="720.19" cy="562" r="4.12"/><path class="blc1-1-c_7" d="M829.48,652.1c-12.29-10.24-32.22,5-46.5-2.24-14.78-7.48-13.24-33.66-29.1-38.44-9.87-3-21.86,4.44-30.86,2.14-.2-12.93-2.58-24.79-11.44-33.76-2.75-3.73-12.9-10.75-26.32-10.74-37.5,0-40.87,24.56-43.75,33.91-9.43.71-19.72-9.51-30.18-8.72-16.53,1.24-20.67,27.14-36.73,31.24-15.49,4-31.67-15.2-45.88-7.85-9.56,4.94-10.46,18.41-17.62,26.44-6,6.68-15.49,8.75-24.4,9.5s-18.18.6-26.37,4.19l-.25.11c-9.9,4.48-7.61,18.55,2.05,20.76H823a12.9,12.9,0,0,0,12.44-16.42C834.29,658.3,832.63,654.73,829.48,652.1Z"/><path class="blc1-1-c_1" d="M599.65,669.56c-1.19-1.14-1.57.18-2.16.7-1.25,1.12-2.25,2.56-3.94,3.13-1.08,2.1-3.24,2.83-5.09,3.87a22.39,22.39,0,0,1-7.13,2.78c2.14-3.27,5.18-5.75,7.59-8.78a124.58,124.58,0,0,0,9.77-17.1c.19-.85.39-1.7.58-2.56l-2.56-.85a29.8,29.8,0,0,1-4.15,9.3c-1.09,3.88-3.6,6.84-6.28,9.7a33.25,33.25,0,0,1-5.09,5.72,45,45,0,0,1,.93-8.18c.2-5.16,1.64-10.06,3.19-14.94l-2.33-1q-1.59,7.13-3.17,14.25A65.21,65.21,0,0,1,578,678.13c-.31,1.27-1.39,1.88-2.22,2.71-1.62,1.61-3.26,3.2-5,4.94-.59-1.42-.16-2.85-.25-4.21-.39-6.35-.83-12.7-1.79-19a5.88,5.88,0,0,1,.16-1.48c-.74-1.46.28-2.35,1-3.39,4.06-5.66,8.92-10.81,11.11-17.64.29-.89.6-1.78.9-2.66l-1.87-.85c-.23,3.18-2,5.74-3.59,8.31-2,3.09-4.66,5.53-7.24,8.16a64.63,64.63,0,0,1,5.07-21.19l-2.42-.94c-1,3.33-2.81,6.34-3.75,9.71-1.8,6.46-2.24,13-2.38,19.69.09,3.21.26,7.13.45,11.37a27.5,27.5,0,0,1-6.39-3.18c-.61-.37-1.2-.76-1.8-1.15l.2-.12a49.82,49.82,0,0,1-6.61-18.52l-2.38.34A52.19,52.19,0,0,0,554,664.6a100.35,100.35,0,0,1-16.65-15.26l-1.81,1.57a101.55,101.55,0,0,0,12.84,12.39c-.45,0-.89,0-1.34,0a73.31,73.31,0,0,1-16.9-2.65L529.5,663A75.29,75.29,0,0,0,547,665.68a13.28,13.28,0,0,0,4-.31q3.62,2.73,7.46,5.15a31.69,31.69,0,0,0,6.36,3.23c.46.16.94.31,1.42.43.48,10.83,1,23.2.54,31.19,1,.22,2,.8,3,1,.13-3,.55-15.87,3-18.08A11.64,11.64,0,0,1,576,686c4.35-1.88,8.66-3.84,13-5.83,2.55-1.19,4.58-3.14,6.77-4.87,1.1-1.17,2.28-2.28,3.26-3.55C599.45,671.21,600.86,670.73,599.65,669.56Zm-18.74,10.52.29,0-.26.21Z"/><path class="blc1-1-c_1" d="M772.91,669.56c-1.19-1.14-1.57.18-2.16.7-1.25,1.12-2.25,2.56-3.94,3.13-1.08,2.1-3.24,2.83-5.09,3.87a22.39,22.39,0,0,1-7.13,2.78c2.14-3.27,5.18-5.75,7.59-8.78a124.58,124.58,0,0,0,9.77-17.1c.19-.85.39-1.7.58-2.56l-2.56-.85a29.8,29.8,0,0,1-4.15,9.3c-1.09,3.88-3.6,6.84-6.28,9.7a33.25,33.25,0,0,1-5.09,5.72,45,45,0,0,1,.93-8.18c.2-5.16,1.64-10.06,3.19-14.94l-2.33-1q-1.59,7.13-3.17,14.25a65.21,65.21,0,0,1-1.86,12.57c-.31,1.27-1.39,1.88-2.22,2.71-1.62,1.61-3.26,3.2-5,4.94-.59-1.42-.16-2.85-.25-4.21-.39-6.35-.83-12.7-1.79-19a5.88,5.88,0,0,1,.16-1.48c-.74-1.46.28-2.35,1-3.39,4.06-5.66,8.92-10.81,11.11-17.64.29-.89.6-1.78.9-2.66l-1.87-.85c-.23,3.18-2,5.74-3.59,8.31-2,3.09-4.66,5.53-7.24,8.16a64.38,64.38,0,0,1,5.07-21.19l-2.42-.94c-1,3.33-2.81,6.34-3.75,9.71-1.8,6.46-2.24,13-2.38,19.69.09,3.21.26,7.13.45,11.37a27.5,27.5,0,0,1-6.39-3.18c-.61-.37-1.2-.76-1.8-1.15l.2-.12a49.82,49.82,0,0,1-6.61-18.52l-2.38.34a52.19,52.19,0,0,0,4.84,15.57,100.35,100.35,0,0,1-16.65-15.26l-1.81,1.57a101.55,101.55,0,0,0,12.84,12.39c-.45,0-.89,0-1.34,0a73.31,73.31,0,0,1-16.9-2.65l-.64,2.31a75.2,75.2,0,0,0,17.45,2.73,13.32,13.32,0,0,0,4.06-.31q3.62,2.73,7.46,5.15a31.43,31.43,0,0,0,6.36,3.23c.46.16.94.31,1.42.43.48,10.83,1,23.2.54,31.19,1,.22,2,.8,3,1,.13-3,.55-15.87,3-18.08a11.64,11.64,0,0,1,3.28-2.28c4.35-1.88,8.66-3.84,13-5.83,2.55-1.19,4.58-3.14,6.77-4.87,1.1-1.17,2.28-2.28,3.26-3.55C772.71,671.21,774.12,670.73,772.91,669.56Zm-18.74,10.52.29,0-.26.21Z"/><path class="blc1-1-c_1" d="M696.18,649.36c-1.45-1.4-1.92.21-2.64.86-1.54,1.37-2.76,3.14-4.84,3.83-1.31,2.58-4,3.48-6.24,4.75a27.49,27.49,0,0,1-8.74,3.41c2.62-4,6.35-7.06,9.31-10.77a153.5,153.5,0,0,0,12-21c.24-1.05.47-2.1.71-3.14l-3.14-1.05a36.51,36.51,0,0,1-5.08,11.4c-1.34,4.76-4.42,8.4-7.71,11.89a41.06,41.06,0,0,1-6.24,7,55.18,55.18,0,0,1,1.14-10c.25-6.33,2-12.34,3.92-18.32L675.74,627q-1.93,8.73-3.88,17.47a81.09,81.09,0,0,1-2.28,15.41c-.39,1.57-1.71,2.31-2.73,3.32-2,2-4,3.94-6.16,6.06-.72-1.74-.19-3.48-.3-5.15-.47-7.8-1-15.58-2.19-23.31a7.1,7.1,0,0,1,.19-1.81c-.91-1.79.34-2.89,1.26-4.16,5-6.93,11-13.25,13.63-21.63.35-1.09.73-2.18,1.1-3.26l-2.29-1c-.29,3.91-2.4,7-4.4,10.2-2.41,3.78-5.72,6.78-8.88,10a78.86,78.86,0,0,1,6.22-26l-3-1.14c-1.24,4.08-3.44,7.77-4.59,11.91-2.21,7.91-2.75,16-2.92,24.14.11,3.93.32,8.74.55,13.94a33.73,33.73,0,0,1-7.84-3.89l-2.2-1.42.25-.15a61.05,61.05,0,0,1-8.12-22.71l-2.91.42a64.09,64.09,0,0,0,5.94,19.09,122.38,122.38,0,0,1-20.42-18.71l-2.22,1.93a124.79,124.79,0,0,0,15.74,15.19c-.54,0-1.09,0-1.63,0A89.21,89.21,0,0,1,611,638.42l-.79,2.83a92.32,92.32,0,0,0,21.41,3.35,16.15,16.15,0,0,0,5-.39q4.43,3.36,9.15,6.32a39.66,39.66,0,0,0,7.79,4c.58.19,1.16.37,1.75.52.59,13.28,1.22,28.45.66,38.25,1.22.27,2.4,1,3.63,1.25.16-3.68.67-19.46,3.66-22.18a14.41,14.41,0,0,1,4-2.79c5.33-2.3,10.62-4.7,15.88-7.15,3.14-1.45,5.63-3.85,8.31-6,1.34-1.44,2.79-2.8,4-4.35C695.94,651.38,697.67,650.79,696.18,649.36Zm-23,12.89.35,0-.32.26Z"/><circle class="blc1-1-c_1" cx="713.62" cy="630.89" r="2.6"/><circle class="blc1-1-c_1" cx="623.09" cy="662.54" r="2.6"/><circle class="blc1-1-c_7" cx="720.19" cy="694.52" r="2.6"/><circle class="blc1-1-c_7" cx="622.71" cy="700.73" r="7.42"/><circle class="blc1-1-c_1" cx="690" cy="595.94" r="2.6"/></svg>
