<svg xmlns="http://www.w3.org/2000/svg" viewBox="0 0 817.85 241.41"><title>Asset 1</title><g id="Layer_2" data-name="Layer 2"><g id="Layer_1-2" data-name="Layer 1"><path d="M415.36,186.31c0,16.35-13.33,27.86-29,27.62,15.68.24,28.72,12.53,29.11,27.46-.39-14.93,12-26.83,27.69-26.59C427.52,214.56,415.36,201.24,415.36,186.31Z" style="fill:#3176a9"/><path d="M590.69,42.18c0,16.35-13.33,27.86-29,27.62,15.68.24,28.72,12.53,29.11,27.46-.39-14.93,12-26.83,27.69-26.59C602.8,70.43,590.69,57.11,590.69,42.18Z" style="fill:#3176a9"/><path d="M473.38,0c0,6.93-5.65,11.82-12.31,11.71,6.66.11,12.19,5.32,12.35,11.66-.16-6.34,5.1-11.39,11.75-11.28A12.14,12.14,0,0,1,473.38,0Z" style="fill:#3176a9"/><path d="M7.57,164A7.24,7.24,0,0,1,.33,171.2H0a7.61,7.61,0,0,1,7.59,7.17,6.89,6.89,0,0,1,6.83-7h.4A7.46,7.46,0,0,1,7.57,164Z" style="fill:#3176a9"/><path d="M707.57,22.81c0,64.9-52.89,110.56-115.14,109.6,62.25,1,114,49.75,115.52,109-1.55-59.23,47.65-106.47,109.9-105.51C755.6,134.92,707.57,82.06,707.57,22.81Z" style="fill:#3176a9"/><path d="M146.89,168.55c0,8.17-6.67,13.93-14.51,13.81,7.84.12,14.36,6.26,14.55,13.73-.19-7.47,6-13.42,13.85-13.3A14.3,14.3,0,0,1,146.89,168.55Z" style="fill:#3176a9"/><path d="M334.52,120.53c0,8.18-6.66,13.93-14.5,13.81,7.84.12,14.36,6.27,14.55,13.73-.19-7.46,6-13.41,13.85-13.29A14.31,14.31,0,0,1,334.52,120.53Z" style="fill:#3176a9"/></g></g></svg>