<svg xmlns="http://www.w3.org/2000/svg" xmlns:xlink="http://www.w3.org/1999/xlink" viewBox="0 0 434.32 402.13"><defs><linearGradient id="linear-gradient" x1="326.24" y1="273.27" x2="110.24" y2="71.27" gradientTransform="matrix(1, 0, 0, -1, 0, 401.4)" gradientUnits="userSpaceOnUse"><stop offset="0" stop-color="#335471"/><stop offset="1" stop-color="#396589"/></linearGradient><linearGradient id="linear-gradient-2" x1="187.3" y1="383.31" x2="87.96" y2="290.41" xlink:href="#linear-gradient"/><linearGradient id="linear-gradient-3" x1="192" y1="43.22" x2="395.81" y2="43.22" xlink:href="#linear-gradient"/></defs><title>Asset 1</title><g id="Layer_2" data-name="Layer 2"><g id="Layer_1-2" data-name="Layer 1"><path d="M408.78,217.3c-21.9-24-48.31-42.08-75.9-58.65h0l-11.07-7.26c-13.23-9-23.51-21.58-31.08-36.47-4.45-8.74-11.39-14.73-20.34-18.76A81.58,81.58,0,0,0,221.64,90c-18.16,3.25-34.53,9.47-49,22.79-15.09,13.9-21,28.82-17.11,48.25,1.93,9.61,4.18,19.16,6.64,28.65,5.19,20,17.44,32.9,37.81,38.62,21.53,6,43.73-2.67,54.1-22.5,13.16-25.14-11.89-48.64-30.2-47.87-12.73.53-18.27,10.32-11.65,21.16,1.45,2.38,3.37,4.48,5.06,6.72,2.84,3.73,1.11,7.4-1.62,9.51-1.46,1.14-6,.49-7.51-1a46.05,46.05,0,0,1-14.39-30.22c-.61-7.66,4-14.65,11.69-16a84.58,84.58,0,0,1,23.77-1c20.11,2.11,35.75,14.87,40,32.17,1.44,5.88,1.27,12.15,1.75,17.27L263.24,216c-7.13,14.4-19.48,23.5-35.8,26.94l-22.63.64c-27.5-4.45-48.69-18.27-56.44-45.56-3.69-13-9.71-18.33-21.66-19.82-.79-.09-1.54-.44-2.33-.58-23.91-4.1-46.1-3-66.14,14.1-16,13.67-34.09,25-58.24,21,1.38,2.05,2,3.08,2.7,4,17.72,22,41.31,32,69,34a28.68,28.68,0,0,1,13.64,4.94c21,14.63,43.55,26,68,33.18h0l2,.51,5.28,1.5c.25,0,.51.05.76.06l7.44,1.91-.16.16c.88.18,1.76.31,2.64.48l9,2.32.58-.64c24.44,3.63,47.77,2.35,70.17-6.45,25.12-9.87,49.59-21.54,73.85-33.43,25.34-12.41,51.39-17.53,79.26-12,9.59,1.92,19.22,3.65,28.82,5.47l1.34-1.47C425.81,237.31,417.64,227,408.78,217.3Z" style="fill:url(#linear-gradient)"/><path d="M225.31,59.16c-10.07-11-22.22-19.36-34.91-27h0l-5.09-3.33A44,44,0,0,1,171,12.06a18.51,18.51,0,0,0-9.35-8.63A37.58,37.58,0,0,0,139.27.61C130.92,2.1,123.39,5,116.74,11.09c-6.94,6.39-9.65,13.25-7.86,22.19.88,4.42,1.92,8.81,3.05,13.18,2.38,9.22,8,15.12,17.39,17.75C139.22,67,149.43,63,154.2,53.87c6.05-11.57-5.47-22.37-13.89-22-5.85.25-8.41,4.75-5.36,9.74a38.28,38.28,0,0,0,2.33,3.08,3,3,0,0,1-.51,4.21l-.24.17c-.67.52-2.74.22-3.45-.46a21.22,21.22,0,0,1-6.64-13.91,6.7,6.7,0,0,1,5.38-7.37,38.52,38.52,0,0,1,10.93-.48c9.25,1,16.44,6.84,18.38,14.8a52.76,52.76,0,0,1,.81,7.94l-3.56,9c-3.28,6.63-9,10.81-16.47,12.39l-10.41.3c-12.64-2-22.39-8.41-26-21-1.7-6-4.47-8.43-10-9.11-.37-.05-.71-.21-1.08-.27C83.42,39,73.22,39.52,64,47.39,56.65,53.67,48.33,58.87,37.22,57c.63,1,.9,1.42,1.24,1.84,8.15,10.14,19,14.71,31.73,15.66a13.3,13.3,0,0,1,6.28,2.27,107.68,107.68,0,0,0,31.28,15.26h0l.92.24c.81.23,1.61.47,2.43.68a2,2,0,0,0,.35,0l3.42.88-.08.07c.41.09.81.15,1.22.23l4.14,1.06.27-.29c11.24,1.67,22,1.08,32.27-3,11.55-4.54,22.81-9.91,34-15.37,11.65-5.71,23.63-8.06,36.45-5.51,4.41.88,8.84,1.68,13.25,2.52l.62-.68C233.15,68.36,229.39,63.61,225.31,59.16Z" style="fill:url(#linear-gradient-2)"/><path d="M386,371.94c-8.33-9.1-18.37-16-28.86-22.29h0l-4.21-2.76a32.76,32.76,0,0,1-4.2-3.41c.16,3.44-3.92,6.4-3.92,6.4a20.35,20.35,0,0,0-.35-11.34l-.23-.32a35.91,35.91,0,0,0-53.28-18.29c-13.77,9.17-10.23,22.88-10.23,22.88-4.17-14.15-23.53-12-23.53-12h0C235.59,335.1,233,347.14,233,347.14a12.24,12.24,0,0,0-.53,7.23c.5,2.5,1.09,5,1.73,7.46.09.34.18.67.29,1A13.33,13.33,0,0,0,222.4,355c-3.76,0-7,.27-9.47,2.79-1.94.66-4,3-5.76,4.55-4.17,3.56-8.88,6.5-15.17,5.47a9.44,9.44,0,0,0,.7,1c4.62,5.74,10.76,8.33,18,8.87a7.34,7.34,0,0,1,3.55,1.28A61.36,61.36,0,0,0,232,387.7h0l.52.14c.46.13.91.27,1.38.38h.2l1.93.5h0l.69.13,2.35.6.15-.17a34.89,34.89,0,0,0,18.27-1.68c1.33-.52,2.66-1.07,4-1.63h.83a8.39,8.39,0,0,1,.81.5,89.13,89.13,0,0,0,25.86,12.62h0l.76.2c.67.19,1.33.39,2,.56H292l2.83.73h-.06c.34.08.67.12,1,.19l3.43.88.22-.24c9.29,1.38,18.16.89,26.67-2.46,9.56-3.75,18.86-8.19,28.08-12.7,9.64-4.72,19.54-6.67,30.14-4.55,3.64.72,7.3,1.38,11,2.08l.51-.57C392.44,379.55,389.34,375.63,386,371.94Z" style="opacity:0.44999998807907104;isolation:isolate;fill:url(#linear-gradient-3)"/></g></g></svg>