<?xml version="1.0" encoding="UTF-8" standalone="no"?>
<!DOCTYPE svg PUBLIC "-//W3C//DTD SVG 1.1//EN" "http://www.w3.org/Graphics/SVG/1.1/DTD/svg11.dtd">
<svg version="1.1" xmlns="http://www.w3.org/2000/svg" xmlns:xlink="http://www.w3.org/1999/xlink" preserveAspectRatio="xMidYMid meet" viewBox="142.9633333333333 246.0102554519723 355.9033333333333 137.85591939108744" width="351.9" height="133.86"><defs><path d="M430.72 291.95C430.72 291.95 430.72 291.95 430.72 291.95C426.45 289.15 424.08 287.59 423.6 287.28C415.11 281.5 408.5 273.42 403.64 263.86C400.79 258.24 396.33 254.39 390.58 251.81C380.52 247.27 369.98 245.94 359.25 247.86C347.58 249.94 337.07 253.94 327.79 262.49C318.09 271.43 314.3 281.01 316.79 293.49C318.02 299.66 319.45 305.8 321.05 311.9C324.38 324.78 332.25 333.02 345.33 336.7C359.16 340.58 373.42 334.98 380.08 322.25C388.53 306.1 372.45 291.01 360.68 291.5C352.51 291.83 348.95 298.13 353.2 305.1C354.13 306.62 355.36 307.97 356.45 309.41C358.27 311.81 357.16 314.16 355.41 315.52C354.47 316.25 351.58 315.83 350.59 314.88C345.12 309.63 341.95 303.06 341.34 295.47C340.95 290.55 343.91 286.06 348.85 285.17C353.89 284.23 359.02 284.01 364.12 284.5C377.04 285.86 387.09 294.05 389.79 305.17C390.71 308.94 390.61 312.97 390.91 316.26C390.42 317.51 386.49 327.51 386 328.76C381.42 338.01 373.49 343.85 363 346.06C361.55 346.1 349.92 346.43 348.47 346.47C330.8 343.62 317.19 334.74 312.21 317.21C309.85 308.88 305.98 305.43 298.3 304.48C297.79 304.42 297.3 304.2 296.8 304.11C281.45 301.47 267.19 302.17 254.33 313.17C244.05 321.94 232.43 329.21 216.91 326.65C217.8 327.99 218.18 328.63 218.65 329.22C230.03 343.38 245.18 349.76 262.98 351.09C266.12 351.38 269.14 352.48 271.74 354.26C285.25 363.66 299.72 370.96 315.43 375.58C315.42 375.58 315.42 375.59 315.4 375.6C316.17 375.8 316.6 375.91 316.68 375.93C317.81 376.27 318.93 376.6 320.08 376.89C320.24 376.92 320.4 376.93 320.57 376.93C320.88 377.02 322.47 377.42 325.33 378.16C325.27 378.22 325.23 378.25 325.22 378.26C325.8 378.38 326.36 378.46 326.93 378.57C327.31 378.67 329.24 379.17 332.71 380.06C332.93 379.81 333.06 379.67 333.08 379.65C348.78 381.98 363.77 381.16 378.15 375.5C394.29 369.17 410 361.67 425.59 354.03C441.87 346.06 458.59 342.78 476.5 346.35C482.66 347.57 488.83 348.68 495.01 349.86C495.3 349.53 495.58 349.23 495.87 348.91C490.41 342.47 485.16 335.84 479.47 329.62C465.4 314.24 448.44 302.59 430.72 291.95Z" id="c2wEdcODBX"></path><linearGradient id="gradientc1C3vZFyGA" gradientUnits="userSpaceOnUse" x1="396.45" y1="310.38" x2="299.4" y2="377.19"><stop style="stop-color: #335471;stop-opacity: 1" offset="0%"></stop><stop style="stop-color: #396589;stop-opacity: 1" offset="100%"></stop></linearGradient><path d="M218.29 317.76C218.29 317.76 218.29 317.76 218.29 317.76C216.8 316.78 215.98 316.24 215.81 316.14C212.86 314.14 210.57 311.32 208.87 307.99C207.9 306.1 206.29 304.62 204.33 303.8C200.93 302.23 197.13 301.76 193.45 302.43C189.39 303.15 185.74 304.54 182.51 307.51C179.14 310.62 177.82 313.95 178.69 318.29C179.12 320.43 179.63 322.57 180.17 324.69C181.33 329.16 184.07 332.02 188.62 333.31C193.42 334.66 198.38 332.71 200.7 328.29C203.63 322.67 198.03 317.42 193.95 317.6C191.11 317.71 189.87 319.9 191.35 322.32C191.68 322.85 192.1 323.32 192.48 323.82C193.11 324.66 192.73 325.49 192.12 325.95C191.79 326.2 190.79 326.06 190.45 325.72C188.57 323.96 187.43 321.55 187.24 318.98C187.1 317.27 188.13 315.71 189.85 315.39C191.6 315.07 193.39 314.99 195.16 315.16C199.65 315.64 203.14 318.5 204.08 322.35C204.42 323.66 204.37 325.06 204.47 326.21C204.3 326.64 202.92 330.11 202.74 330.54C201.15 333.76 198.39 335.79 194.74 336.56C194.24 336.57 190.2 336.69 189.69 336.7C183.55 335.7 178.82 332.62 177.09 326.53C176.27 323.63 174.92 322.43 172.25 322.1C172.08 322.08 171.92 322 171.73 321.97C166.4 321.05 161.44 321.31 156.96 325.12C153.39 328.17 149.35 330.7 143.96 329.81C144.27 330.27 144.4 330.5 144.57 330.7C148.52 335.62 153.79 337.84 159.97 338.3C161.07 338.41 162.11 338.79 163.02 339.41C167.65 342.68 172.77 345.19 178.2 346.82C178.2 346.82 178.2 346.82 178.2 346.82C178.47 346.89 178.62 346.93 178.65 346.93C179.04 347.04 179.43 347.16 179.83 347.27C179.88 347.27 179.94 347.27 180 347.27C180.11 347.3 180.66 347.44 181.66 347.69C181.64 347.72 181.63 347.73 181.63 347.73C181.82 347.77 182.02 347.8 182.22 347.84C182.35 347.87 183.02 348.04 184.22 348.35C184.29 348.27 184.33 348.22 184.34 348.21C189.8 349.02 195.01 348.74 200.01 346.77C205.62 344.6 211.08 342 216.5 339.33C222.17 336.56 227.98 335.42 234.2 336.67C236.34 337.09 238.49 337.48 240.64 337.89C240.67 337.85 240.9 337.59 240.93 337.55C239.04 335.33 237.21 333.02 235.24 330.85C230.35 325.52 224.45 321.46 218.29 317.76Z" id="a5tYtt1EPz"></path><linearGradient id="gradienta6EOEOYDGu" gradientUnits="userSpaceOnUse" x1="213.28" y1="320.53" x2="174.25" y2="345.32"><stop style="stop-color: #335471;stop-opacity: 1" offset="0%"></stop><stop style="stop-color: #396589;stop-opacity: 1" offset="100%"></stop></linearGradient></defs><g><g><use xlink:href="#c2wEdcODBX" opacity="1" fill="url(#gradientc1C3vZFyGA)"></use><g><use xlink:href="#c2wEdcODBX" opacity="1" fill-opacity="0" stroke="#000000" stroke-width="1" stroke-opacity="0"></use></g></g><g><use xlink:href="#a5tYtt1EPz" opacity="1" fill="url(#gradienta6EOEOYDGu)"></use><g><use xlink:href="#a5tYtt1EPz" opacity="1" fill-opacity="0" stroke="#000000" stroke-width="1" stroke-opacity="0"></use></g></g></g></svg>