<svg id="Layer_1" data-name="Layer 1" xmlns="http://www.w3.org/2000/svg" viewBox="0 0 1369.73 660.71"><defs><style>.breath-1{fill:#2f4962;}.breath-2{fill:#e5af34;}</style></defs><title>22</title><path class="breath-2" d="M452.78,351.69a741.55,741.55,0,0,0,107.38.31c17.87-1.21,35.68-3.18,53.4-5.68,17.4-2.47,34.63-7.2,48.47-17.16a60,60,0,0,0,16.61-18.54,64,64,0,0,0,5.15-11.46,40.65,40.65,0,0,0,2.35-11.81,29.81,29.81,0,0,0-8.46-21,29.19,29.19,0,0,0-20.86-8.53,28.61,28.61,0,0,0-20.74,8.37,21.14,21.14,0,0,0-5.44,9.3,18,18,0,0,0,.41,10.29,13.67,13.67,0,0,0,5.9,7.43,11.15,11.15,0,0,0,8.74.9,6.78,6.78,0,0,0,1.69-.89,5.17,5.17,0,0,0,1.21-1.14,5.67,5.67,0,0,0,.95-3.25,6.78,6.78,0,0,0-.94-3.54,3,3,0,0,0-1.89-1.46l2.38-10.56a13.84,13.84,0,0,1,8.66,6.37,17.21,17.21,0,0,1,2.48,9.34,15.47,15.47,0,0,1-6.73,12.91,17.9,17.9,0,0,1-4.28,2.2,21.63,21.63,0,0,1-17.36-1.74,24,24,0,0,1-10.59-13.21,28.07,28.07,0,0,1-.5-16.31,31.33,31.33,0,0,1,8.1-13.71,39.68,39.68,0,0,1,55.73.54,39.25,39.25,0,0,1,10.92,27.92,49.52,49.52,0,0,1-3,14.56,72,72,0,0,1-6,13.08,68.78,68.78,0,0,1-19.35,21.2,93.4,93.4,0,0,1-25.37,12.37,154.49,154.49,0,0,1-27.1,5.88c-18,2.37-36,4.2-54,5.26a746.48,746.48,0,0,1-108.46-1.27Z"/><path class="breath-2" d="M559.05,368.89c23.32.11,46.61.26,69.76-1,11.57-.61,23.12-1.51,34.58-2.9s22.83-3.34,34-5.86c2.79-.68,5.62-1.25,8.38-2l8.31-2.25c5.45-1.76,11.08-3.26,16-5.42a42.48,42.48,0,0,0,13.18-8.33,20.72,20.72,0,0,0,4.16-5.71,20,20,0,0,0,1.18-3.18,10.29,10.29,0,0,0,.27-2.76,8.66,8.66,0,0,0-2.23-5,12.66,12.66,0,0,0-2.3-2.08,23,23,0,0,0-3.08-1.81c-4.22-2.09-8.79-2.3-11.52-.26a7,7,0,0,0-2.88,3.86,4.48,4.48,0,0,0-.12.94l0,.45c0,.11,0,.16.06.29a5.25,5.25,0,0,0,1,1.79,4.93,4.93,0,0,0,1.61,1.29,2,2,0,0,0,1.17.21c.59,0,2-1,3.23-2.79l8.85,6.21a20.18,20.18,0,0,1-4,4.34,13.78,13.78,0,0,1-6.51,2.86,12.72,12.72,0,0,1-7.33-1.21,15.94,15.94,0,0,1-8.22-10,11.5,11.5,0,0,1-.34-1.86c0-.58-.08-1.16-.07-1.74a15.23,15.23,0,0,1,.48-3.38,17.36,17.36,0,0,1,7.28-9.9,18.44,18.44,0,0,1,5.57-2.49,20.19,20.19,0,0,1,5.83-.57,25.79,25.79,0,0,1,10.44,2.86,33.32,33.32,0,0,1,4.42,2.68,23,23,0,0,1,4.12,3.82,18.79,18.79,0,0,1,4.48,10.86,19.91,19.91,0,0,1-.65,5.91,30.15,30.15,0,0,1-1.91,5,30.79,30.79,0,0,1-6.18,8.3,51.88,51.88,0,0,1-16.31,10.12c-5.8,2.41-11.51,3.81-17.18,5.56L708,366c-2.86.75-5.78,1.29-8.66,1.95-11.59,2.43-23.27,4.23-35,5.52s-23.46,2-35.2,2.46c-23.47.91-46.87.43-70.2,0Z"/><path class="breath-2" d="M474.47,367.54c17.74,0,35.66.89,53.27,5.29,8.77,2.27,17.5,5.35,25.52,10.32a55.22,55.22,0,0,1,11,9,45.4,45.4,0,0,1,8.28,12c2.07,4.52,3.39,10.07,2.09,15.71a20.85,20.85,0,0,1-3.56,7.64,17.14,17.14,0,0,1-7,5.51,22.36,22.36,0,0,1-3.9,1.31,15.41,15.41,0,0,1-2.11.41c-.66.09-1.27.15-1.87.21a50.7,50.7,0,0,1-7.37.15,31.85,31.85,0,0,1-7.63-1.43,20,20,0,0,1-7.42-4.43,23.59,23.59,0,0,1-2.76-3.21c-.4-.57-.74-1.1-1.13-1.72a19.07,19.07,0,0,1-1-2,24.91,24.91,0,0,1-1.89-8,21.14,21.14,0,0,1,1-8.53A15.45,15.45,0,0,1,533.8,398a13.21,13.21,0,0,1,10.3-2.24,15.88,15.88,0,0,1,4.58,1.84,17,17,0,0,1,3.72,2.91,14.3,14.3,0,0,1,4.1,9.34,18.09,18.09,0,0,1-2.25,9.06l-9.54-5.12a7.57,7.57,0,0,0,1.1-3.53,3.52,3.52,0,0,0-1.06-2.45,6.56,6.56,0,0,0-1.44-1.17,6.06,6.06,0,0,0-1.47-.68,2.88,2.88,0,0,0-2.2.56,5.11,5.11,0,0,0-2,2.63,11.24,11.24,0,0,0-.56,4.45,15.16,15.16,0,0,0,1,4.76,10,10,0,0,0,.45.93c.19.31.43.72.66,1.05a13.56,13.56,0,0,0,1.49,1.81,10.15,10.15,0,0,0,3.76,2.33,21.94,21.94,0,0,0,5.28,1.05,40.23,40.23,0,0,0,5.79,0c.49,0,1-.07,1.41-.12a7.11,7.11,0,0,0,1.12-.2,12.59,12.59,0,0,0,2.34-.74,7.77,7.77,0,0,0,3.32-2.49,11.9,11.9,0,0,0,2-4.18c.77-3,.18-6.51-1.33-9.95a36.82,36.82,0,0,0-6.5-9.7,46.73,46.73,0,0,0-9.2-7.78c-6.85-4.44-14.82-7.47-23-9.74-16.46-4.45-33.91-5.73-51.25-6Z"/><circle class="breath-2" cx="598.87" cy="313.1" r="5.4"/><circle class="breath-2" cx="730.85" cy="272.08" r="5.4"/><circle class="breath-2" cx="556.96" cy="321.9" r="2"/><circle class="breath-2" cx="671.05" cy="389.33" r="2"/><circle class="breath-2" cx="504.16" cy="391.33" r="2"/><circle class="breath-2" cx="752.95" cy="252.81" r="2"/><circle class="breath-2" cx="616.9" cy="401.34" r="5.4"/></svg>
