<svg id="Layer_1" data-name="Layer 1" xmlns="http://www.w3.org/2000/svg" viewBox="0 0 1507.89 890.26"><defs><style>.c1sun-1{fill:#367d75;}.c1sun-2{fill:#2f5f5b;}.c1sun-3{fill:#e5af36;}.c1sun-4{fill:#9fa851;}</style></defs><title>12</title><circle class="c1sun-2" cx="712.9" cy="408.93" r="173.36"/><path class="c1sun-3" d="M926.64,408.15c-7.93-5.53-15.89-11.87-25.45-13.31-14-2.09-27.73,6.84-41.77,5.3-10.46-1.14-19.36-7.89-29.24-11.52a29.36,29.36,0,0,0-15.78-1.38.57.57,0,0,1-.67-.46Q813,383,812,379.28a.58.58,0,0,1,.46-.71h0a42.13,42.13,0,0,0,9.62-2.82,45.22,45.22,0,0,0,8.64-4.95c.65-.5,1.32-1,2-1.49l1.89-1.56,3.55-3.11c1.17-1,2.34-2,3.53-3s2.39-1.89,3.63-2.74a43.59,43.59,0,0,1,7.82-4.39,44.35,44.35,0,0,1,6.82-2.27,1.94,1.94,0,0,0,1.42-2.25h0a2,2,0,0,0-2.36-1.55,48.76,48.76,0,0,0-7.45,2.25,47.89,47.89,0,0,0-8.71,4.58c-1.37.89-2.68,1.85-4,2.82s-2.52,2-3.74,3l-3.62,3-1.78,1.39c-.6.45-1.22.87-1.82,1.31a40.39,40.39,0,0,1-7.79,4.18,37.07,37.07,0,0,1-8.48,2.23l-.94.12a.56.56,0,0,1-.6-.39,103.56,103.56,0,0,0-8.71-19,.56.56,0,0,1,.18-.77,29.34,29.34,0,0,0,10.72-12.5c4.41-9.56,5.94-20.62,12.53-28.83,8.84-11,24.88-14.42,33.28-25.78,5.74-7.78,6.89-17.89,8.58-27.41,1.56-8.77,4.18-18.11,10.7-24a.57.57,0,0,0-.5-1c-9.84,2.15-16.55,7.46-23.83,15.42-8.12,8.86-10.83,19.39-21.7,25.42-13.12,7.26-21.14,7.66-28.16,17.54-5.46,7.68-7.49,16.77-14.81,23-4.88,4.17-10.4,5.63-15.66,7a.57.57,0,0,1-.47-.09,103.63,103.63,0,0,0-19.3-10.9.58.58,0,0,1-.35-.6,37.17,37.17,0,0,1,1.79-7.51,40.27,40.27,0,0,1,3.89-7.94c.41-.62.81-1.25,1.24-1.87l1.32-1.83,2.86-3.73c1-1.26,1.92-2.55,2.85-3.85s1.84-2.67,2.68-4.07a47.94,47.94,0,0,0,4.24-8.88,49.94,49.94,0,0,0,2.22-9,.57.57,0,0,0-.48-.65l-2.7-.42a.57.57,0,0,0-.65.46,45.09,45.09,0,0,1-2.26,8.15,43.93,43.93,0,0,1-4.1,8c-.8,1.27-1.69,2.5-2.6,3.73s-1.87,2.43-2.86,3.64l-3,3.66-1.49,2c-.49.66-1,1.34-1.42,2a44.77,44.77,0,0,0-4.62,8.81,40.24,40.24,0,0,0-2,7.05.58.58,0,0,1-.76.43,101.78,101.78,0,0,0-14.6-4,.56.56,0,0,1-.38-.27c-3-5.21-6.47-10.52-7-17.67-.75-9.59,4.24-17.46,5.81-26.74,2-12-3.37-17.91-7.51-32.32-3.43-12,2.1-21.31,2.63-33.32.47-10.78-.52-19.27-5.95-27.75a.58.58,0,0,0-1.06.34c.48,8.76-4.27,17.21-9.37,24.51-5.54,7.93-11.88,15.89-13.31,25.45-2.1,14,6.83,27.72,5.3,41.77-1.15,10.46-7.89,19.36-11.53,29.23a29.49,29.49,0,0,0-1.15,16.9.58.58,0,0,1-.42.69c-2.58.61-5.11,1.31-7.61,2.11a.57.57,0,0,1-.73-.43,41.62,41.62,0,0,0-2.52-8,45.22,45.22,0,0,0-4.95-8.64c-.49-.65-1-1.32-1.49-2l-1.56-1.89-3.11-3.55c-1-1.17-2-2.35-3-3.53s-1.89-2.39-2.74-3.63a42.83,42.83,0,0,1-7-15.87.57.57,0,0,0-.67-.44l-2.68.51a.57.57,0,0,0-.45.67,49.66,49.66,0,0,0,2.55,8.88,48.48,48.48,0,0,0,4.57,8.71c.89,1.37,1.85,2.67,2.82,4s2,2.53,3,3.74l3,3.63L667,291.5c.45.6.87,1.22,1.31,1.83a40.39,40.39,0,0,1,4.18,7.79,36.71,36.71,0,0,1,2.17,8.05l-.36.62a103.41,103.41,0,0,0-18,9.14.57.57,0,0,1-.81-.22,29.49,29.49,0,0,0-13.83-12.93c-9.55-4.42-20.61-5.94-28.82-12.53-11-8.84-14.42-24.88-25.78-33.28-7.78-5.75-17.89-6.89-27.41-8.58-8.77-1.56-18.11-4.18-24-10.71a.58.58,0,0,0-1,.51c2.15,9.84,7.46,16.54,15.42,23.83,8.86,8.12,19.39,10.83,25.41,21.7,7.27,13.12,7.66,21.13,17.55,28.16,7.67,5.46,16.77,7.49,23,14.81,5.53,6.47,6.3,14.05,8.47,20.68a.56.56,0,0,1-.06.47,103.57,103.57,0,0,0-5.36,9.54.58.58,0,0,1-.85.21l-.46-.33a41.63,41.63,0,0,0-8.78-4.82,44.13,44.13,0,0,0-9.6-2.63c-.81-.12-1.63-.25-2.44-.35l-2.44-.23-4.71-.32c-1.55-.11-3.08-.24-4.61-.39s-3-.37-4.5-.64a44.78,44.78,0,0,1-8.63-2.44,45.72,45.72,0,0,1-7.5-3.91.58.58,0,0,0-.78.16L562.4,347a.58.58,0,0,0,.15.8,49.87,49.87,0,0,0,8.06,4.49,48.69,48.69,0,0,0,9.39,2.94c1.6.35,3.2.59,4.8.82s3.19.39,4.76.54l4.68.45,2.24.28c.74.11,1.47.25,2.21.37a40.59,40.59,0,0,1,8.46,2.57,37,37,0,0,1,7.56,4.44q.79.6,1.56,1.23a.59.59,0,0,1,.16.66,102.27,102.27,0,0,0-5.39,17,.58.58,0,0,1-.76.41,29.82,29.82,0,0,0-21.27-.16c-9.88,3.64-18.78,10.38-29.24,11.53-14,1.54-27.79-7.4-41.76-5.3-9.56,1.43-17.52,7.78-25.45,13.31-7.31,5.1-15.76,9.85-24.51,9.37a.58.58,0,0,0-.35,1.06c8.48,5.43,17,6.42,27.76,5.95,12-.53,21.37-6.06,33.31-2.63,14.41,4.14,20.36,9.53,32.32,7.51,9.29-1.57,17.16-6.56,26.75-5.81s15.78,6.72,22.88,9.71a.55.55,0,0,1,.34.4,103.17,103.17,0,0,0,5.66,17.62.59.59,0,0,1-.12.63,46.12,46.12,0,0,1-3.66,3.34,36.73,36.73,0,0,1-7.39,4.71,40.12,40.12,0,0,1-8.36,2.89c-.74.15-1.46.32-2.2.45l-2.23.36-4.66.63q-2.36.31-4.74.72c-1.59.28-3.18.59-4.76,1a47.36,47.36,0,0,0-9.27,3.29,49,49,0,0,0-7.9,4.79.57.57,0,0,0-.12.8l1.62,2.2a.56.56,0,0,0,.78.12,46.11,46.11,0,0,1,7.35-4.17,43.45,43.45,0,0,1,8.54-2.76c1.46-.34,3-.58,4.47-.81s3-.4,4.6-.56l4.69-.5,2.43-.33c.81-.12,1.62-.29,2.43-.43a45,45,0,0,0,9.49-3,42.47,42.47,0,0,0,8.6-5.14c.85-.66,1.67-1.34,2.48-2a.56.56,0,0,1,.88.17q1.49,2.93,3.15,5.75a.57.57,0,0,1,0,.54c-3.64,7.42-3.38,16.84-10.05,24.66-6.25,7.32-15.34,9.36-23,14.81-9.88,7-10.28,15.05-17.54,28.16-6,10.88-16.55,13.59-25.42,21.71-7.95,7.28-13.26,14-15.41,23.83a.57.57,0,0,0,1,.5c5.85-6.52,15.18-9.14,24-10.7,9.52-1.69,19.63-2.84,27.4-8.59,11.36-8.39,14.77-24.43,25.79-33.28,8.2-6.59,19.27-8.11,28.82-12.53a29.81,29.81,0,0,0,15.07-15.45.57.57,0,0,1,.84-.25,104.57,104.57,0,0,0,10.62,6.27.57.57,0,0,1,.17.89,51.16,51.16,0,0,0-3.24,4.07,42.42,42.42,0,0,0-4.82,8.79,45.13,45.13,0,0,0-2.63,9.6c-.11.81-.25,1.62-.34,2.44l-.24,2.44-.32,4.71c-.11,1.55-.24,3.08-.39,4.61s-.36,3-.64,4.5A44.28,44.28,0,0,1,650,549a45.57,45.57,0,0,1-3.9,7.49.58.58,0,0,0,.16.79l2.25,1.53a.58.58,0,0,0,.8-.15,50,50,0,0,0,4.49-8.07,47.24,47.24,0,0,0,2.94-9.38c.35-1.6.59-3.2.82-4.8s.39-3.19.54-4.76l.46-4.68.27-2.24c.11-.74.25-1.48.38-2.21a39.83,39.83,0,0,1,2.57-8.46,36.86,36.86,0,0,1,4.43-7.57,47.94,47.94,0,0,1,4.44-5,.57.57,0,0,1,.63-.12,102.86,102.86,0,0,0,13.78,4.78.57.57,0,0,1,.38.77,30,30,0,0,0-.49,22.16c3.63,9.88,10.38,18.78,11.52,29.24,1.54,14-7.39,27.79-5.3,41.76,1.44,9.56,7.78,17.52,13.31,25.45,5.1,7.31,9.85,15.76,9.38,24.51a.57.57,0,0,0,1,.34c5.44-8.48,6.43-17,6-27.75-.52-12-6.05-21.37-2.62-33.32,4.14-14.4,9.52-20.36,7.5-32.31-1.56-9.29-6.56-17.16-5.8-26.75.71-9,6-15.06,9.17-21.69a.56.56,0,0,1,.42-.32,102.89,102.89,0,0,0,17.65-4.64.54.54,0,0,1,.58.12,45.48,45.48,0,0,1,4.31,4.59,37.22,37.22,0,0,1,4.72,7.39,40.48,40.48,0,0,1,2.88,8.36c.15.73.32,1.46.45,2.2l.37,2.23.62,4.66c.21,1.56.45,3.15.72,4.73s.59,3.19,1,4.77a47.36,47.36,0,0,0,3.29,9.27,49.47,49.47,0,0,0,4.79,7.9.58.58,0,0,0,.8.12l2.2-1.62a.58.58,0,0,0,.13-.79,44.89,44.89,0,0,1-4.18-7.34,43.89,43.89,0,0,1-2.76-8.54c-.34-1.47-.58-3-.81-4.48s-.4-3-.56-4.59l-.5-4.69-.33-2.43c-.12-.81-.29-1.62-.43-2.43a45.5,45.5,0,0,0-3-9.5,42.44,42.44,0,0,0-5.15-8.59c-.83-1.09-1.71-2.13-2.62-3.13a.57.57,0,0,1,.19-.91q4.51-2,8.8-4.42a.6.6,0,0,1,.47,0c6.89,2.49,15,3,21.81,8.85,7.32,6.25,9.35,15.35,14.81,23,7,9.88,15,10.28,28.15,17.54,10.88,6,13.59,16.56,21.71,25.42,7.28,8,14,13.26,23.83,15.42a.57.57,0,0,0,.5-1c-6.52-5.85-9.14-15.19-10.7-24-1.69-9.52-2.84-19.63-8.58-27.41-8.4-11.36-24.44-14.77-33.28-25.78-6.59-8.21-8.12-19.27-12.53-28.83A29.47,29.47,0,0,0,797,466.45a.57.57,0,0,1-.18-.82A102.63,102.63,0,0,0,805.37,451a.56.56,0,0,1,.53-.32c1.27,0,2.53.09,3.78.22a36.74,36.74,0,0,1,8.56,1.92,39.21,39.21,0,0,1,7.94,3.89c.63.41,1.26.81,1.88,1.23l1.83,1.33,3.73,2.86c1.25,1,2.54,1.91,3.85,2.85s2.67,1.83,4.07,2.67a48.54,48.54,0,0,0,8.87,4.25,49.18,49.18,0,0,0,7.49,2,2,2,0,0,0,2.35-1.68h0a1.89,1.89,0,0,0-1.49-2.14,44.31,44.31,0,0,1-6.92-2,43.61,43.61,0,0,1-8-4.1c-1.27-.8-2.5-1.7-3.73-2.6s-2.43-1.88-3.64-2.86l-3.66-3-2-1.5c-.66-.48-1.35-.94-2-1.41a45.64,45.64,0,0,0-8.81-4.63,42.53,42.53,0,0,0-9.72-2.46c-.54-.07-1.09-.13-1.64-.18a.57.57,0,0,1-.47-.79,103.14,103.14,0,0,0,4.19-13,.59.59,0,0,1,.28-.36c5.54-3.07,11.06-7,18.67-7.6,9.59-.76,17.46,4.24,26.74,5.8,12,2,17.91-3.36,32.32-7.5,12-3.43,21.31,2.1,33.32,2.62,10.78.48,19.27-.51,27.75-5.95a.57.57,0,0,0-.34-1.05C942.39,418,933.94,413.25,926.64,408.15Z"/><path class="c1sun-2" d="M909.78,492.34c-5.16-8.18-10-17.11-18.3-22.14-12.06-7.35-28.2-4.45-40.55-11.31-9.2-5.11-14.79-14.78-22.48-22a29.45,29.45,0,0,0-14-7.39.58.58,0,0,1-.44-.68q.81-3.78,1.33-7.58a.56.56,0,0,1,.69-.48h0a42.21,42.21,0,0,0,10,1.13,45.27,45.27,0,0,0,9.88-1.21c.79-.21,1.59-.39,2.38-.61l2.35-.72,4.48-1.48c1.48-.5,2.94-1,4.41-1.39s2.94-.81,4.41-1.12a42.17,42.17,0,0,1,16.08-.46,1.94,1.94,0,0,0,2.18-1.52h0a2,2,0,0,0-1.57-2.35,46.55,46.55,0,0,0-17.55,0c-1.61.29-3.18.67-4.75,1.07s-3.1.85-4.61,1.3l-4.5,1.36-2.18.59c-.72.18-1.46.33-2.19.5a39.7,39.7,0,0,1-8.8.83,36.51,36.51,0,0,1-8.68-1.23l-.91-.25a.57.57,0,0,1-.4-.59,102.89,102.89,0,0,0-.65-20.93.58.58,0,0,1,.47-.64,29.43,29.43,0,0,0,14.73-7.37C838.33,378.65,844,369,853.28,364c12.42-6.72,28.53-3.65,40.67-10.86,8.32-4.94,13.29-13.82,18.54-21.94,4.84-7.48,10.87-15.07,19.16-17.94a.57.57,0,0,0-.08-1.1c-9.91-1.83-18.14.46-28,5-10.92,5-17.5,13.68-29.86,15-14.9,1.61-22.45-1.13-32.75,5.26-8,4.95-13.41,12.55-22.58,15.47-6.12,2-11.76,1.16-17.15.41a.57.57,0,0,1-.41-.26,103.15,103.15,0,0,0-13.56-17.54.56.56,0,0,1-.09-.68,36.77,36.77,0,0,1,4.56-6.23,39.84,39.84,0,0,1,6.66-5.81c.63-.41,1.24-.84,1.87-1.25l1.93-1.17,4.08-2.33c1.37-.78,2.75-1.6,4.12-2.45s2.73-1.74,4-2.71a48.44,48.44,0,0,0,7.35-6.53,49.51,49.51,0,0,0,5.52-7.41.56.56,0,0,0-.19-.78l-2.32-1.43a.56.56,0,0,0-.78.17,45.08,45.08,0,0,1-5.24,6.63A43.68,43.68,0,0,1,812,309.3c-1.24.86-2.54,1.65-3.85,2.43s-2.67,1.51-4.05,2.24l-4.16,2.23-2.13,1.21c-.7.42-1.39.88-2.08,1.31a45,45,0,0,0-7.68,6.34,41.36,41.36,0,0,0-4.6,5.71.58.58,0,0,1-.86.11,102.07,102.07,0,0,0-11.91-9.36.58.58,0,0,1-.24-.4c-.72-6-1.89-12.21.36-19,3-9.14,10.68-14.46,15.72-22.41,6.5-10.23,3.84-17.81,5.62-32.69,1.46-12.35,10.19-18.83,15.33-29.7,4.62-9.75,7-18,5.28-27.89a.58.58,0,0,0-1.11-.09c-3,8.25-10.61,14.2-18.14,19-8.18,5.16-17.11,10-22.14,18.3-7.35,12.06-4.45,28.2-11.31,40.55-5.11,9.2-14.78,14.79-22,22.48a29.44,29.44,0,0,0-7.61,15.13.58.58,0,0,1-.66.47q-3.91-.66-7.83-1a.57.57,0,0,1-.51-.68,41.05,41.05,0,0,0,.79-8.36,44.67,44.67,0,0,0-1.21-9.88c-.2-.79-.39-1.6-.61-2.38l-.71-2.35-1.49-4.48c-.49-1.48-1-2.94-1.39-4.41s-.81-2.94-1.12-4.41a44,44,0,0,1-1-8.91,45.08,45.08,0,0,1,.76-8.42.57.57,0,0,0-.44-.66l-2.68-.56a.56.56,0,0,0-.67.44,49.31,49.31,0,0,0-1.1,9.17,48.66,48.66,0,0,0,.84,9.8c.29,1.61.67,3.18,1.07,4.75s.85,3.09,1.31,4.61l1.35,4.5.6,2.17c.18.73.32,1.47.49,2.19a40.47,40.47,0,0,1,.84,8.81,37.26,37.26,0,0,1-1.13,8.26l-.57.43a103.41,103.41,0,0,0-20.08,1.46.57.57,0,0,1-.67-.51,29.49,29.49,0,0,0-7.73-17.28c-7.09-7.78-16.7-13.47-21.71-22.73-6.72-12.42-3.65-28.53-10.86-40.67-4.94-8.31-13.82-13.29-21.94-18.54-7.48-4.84-15.07-10.87-17.93-19.16a.58.58,0,0,0-1.11.08c-1.83,9.91.46,18.15,5,27.95,5,10.92,13.68,17.5,15,29.86,1.61,14.9-1.13,22.45,5.25,32.76,5,8,12.56,13.4,15.48,22.57,2.58,8.11.36,15.39-.22,22.34a.56.56,0,0,1-.24.42A102.83,102.83,0,0,0,645,329.1a.58.58,0,0,1-.87-.13c-.09-.17-.19-.33-.29-.49a42.71,42.71,0,0,0-6.22-7.85,44.85,44.85,0,0,0-7.84-6.14c-.7-.42-1.4-.86-2.11-1.26l-2.16-1.17-4.21-2.12c-1.4-.7-2.76-1.42-4.1-2.15s-2.65-1.5-3.91-2.33a44.09,44.09,0,0,1-7-5.6,45.56,45.56,0,0,1-5.4-6.5.57.57,0,0,0-.78-.16l-2.29,1.49a.57.57,0,0,0-.17.79,50.18,50.18,0,0,0,5.69,7.27,48.37,48.37,0,0,0,7.51,6.35c1.34.94,2.72,1.78,4.11,2.61s2.79,1.6,4.18,2.35l4.13,2.23,2,1.12c.64.39,1.26.81,1.9,1.21a40.29,40.29,0,0,1,6.8,5.64,37.32,37.32,0,0,1,5.25,7c.33.57.65,1.15,1,1.73a.56.56,0,0,1-.11.67,103.07,103.07,0,0,0-11.56,13.61.57.57,0,0,1-.86.08A29.74,29.74,0,0,0,608,339c-10.51-.48-21.33,2.28-31.42-.72-13.54-4-22.75-17.59-36.44-21.08-9.37-2.38-19.17.38-28.62,2.4-8.71,1.87-18.34,3-26.23-.86a.57.57,0,0,0-.72.84c5.71,8.3,13.15,12.5,23.27,16.25,11.28,4.17,22.05,2.7,31.73,10.49,11.68,9.41,15.07,16.68,26.88,19.45,9.16,2.16,18.35.61,26.9,5s11.94,12.31,17.34,17.82a.57.57,0,0,1,.15.5,103.75,103.75,0,0,0-1.62,18.44.56.56,0,0,1-.35.53,44,44,0,0,1-4.67,1.66,36.79,36.79,0,0,1-8.64,1.48,39.71,39.71,0,0,1-8.82-.58c-.74-.15-1.47-.28-2.21-.44l-2.19-.53-4.54-1.22c-1.53-.42-3.08-.81-4.65-1.18s-3.16-.69-4.78-.93a48.05,48.05,0,0,0-9.82-.56,49.91,49.91,0,0,0-9.13,1.35.57.57,0,0,0-.42.69l.63,2.66a.58.58,0,0,0,.68.42,45,45,0,0,1,8.39-1,44.08,44.08,0,0,1,8.94.76c1.48.27,3,.62,4.44,1s3,.81,4.45,1.26l4.52,1.36,2.37.64c.79.2,1.6.36,2.4.54a44.29,44.29,0,0,0,9.91.93,42,42,0,0,0,9.92-1.41c1-.27,2.06-.58,3.08-.92a.57.57,0,0,1,.75.5c.15,2.19.38,4.36.67,6.52a.58.58,0,0,1-.19.51c-6.24,5.43-9.64,14.22-18.83,18.84-8.6,4.32-17.77,2.67-27,4.72-11.83,2.65-15.31,9.88-27.09,19.16-9.76,7.69-20.52,6.1-31.84,10.15-10.16,3.63-17.65,7.76-23.45,16a.58.58,0,0,0,.72.85c7.92-3.75,17.54-2.54,26.23-.58,9.43,2.13,19.2,5,28.59,2.71,13.73-3.33,23.09-16.79,36.67-20.68,10.12-2.89,20.91,0,31.43-.37a29.8,29.8,0,0,0,19.88-8.4.58.58,0,0,1,.88.1,103.49,103.49,0,0,0,7.35,9.9.57.57,0,0,1-.19.88,49.37,49.37,0,0,0-4.56,2.5,42,42,0,0,0-7.85,6.22,45.22,45.22,0,0,0-6.15,7.83c-.42.71-.86,1.41-1.26,2.12l-1.16,2.16-2.13,4.21c-.7,1.4-1.41,2.76-2.14,4.1s-1.51,2.65-2.34,3.9a43.18,43.18,0,0,1-5.6,7,44.47,44.47,0,0,1-6.5,5.4.58.58,0,0,0-.16.78l1.49,2.29a.57.57,0,0,0,.79.17,49.64,49.64,0,0,0,7.27-5.69,47.83,47.83,0,0,0,6.35-7.51c.94-1.34,1.79-2.72,2.62-4.11s1.59-2.79,2.34-4.18l2.23-4.13,1.13-2c.39-.64.8-1.26,1.2-1.9a39.87,39.87,0,0,1,5.65-6.8,37.15,37.15,0,0,1,7-5.25,46.25,46.25,0,0,1,6-2.93.59.59,0,0,1,.63.13A101.85,101.85,0,0,0,649.11,489a.57.57,0,0,1,.06.86,29.89,29.89,0,0,0-9,20.23c-.48,10.51,2.29,21.33-.71,31.42-4,13.54-17.6,22.75-21.08,36.44-2.39,9.37.37,19.16,2.4,28.62,1.87,8.71,3,18.34-.87,26.23a.57.57,0,0,0,.84.72c8.3-5.71,12.51-13.15,16.25-23.27,4.17-11.28,2.7-22.05,10.5-31.73,9.4-11.68,16.67-15.08,19.45-26.88,2.15-9.17.6-18.36,5-26.9,4.13-8,11.42-11.54,16.86-16.44a.57.57,0,0,1,.51-.14,103,103,0,0,0,18.07,2.57.57.57,0,0,1,.49.33,45.71,45.71,0,0,1,2.2,5.91,36.78,36.78,0,0,1,1.47,8.64,39.71,39.71,0,0,1-.58,8.82c-.15.74-.27,1.47-.43,2.21l-.53,2.19-1.23,4.54c-.42,1.52-.81,3.08-1.18,4.64s-.69,3.17-.93,4.78a48.91,48.91,0,0,0-.56,9.83,49.91,49.91,0,0,0,1.35,9.13.58.58,0,0,0,.7.42l2.65-.64a.56.56,0,0,0,.42-.67,46.87,46.87,0,0,1-1-8.39,44,44,0,0,1,.77-8.94c.26-1.48.62-3,1-4.44s.81-3,1.26-4.45l1.36-4.52.64-2.37c.2-.79.36-1.6.55-2.4a45.55,45.55,0,0,0,.93-9.91,42.64,42.64,0,0,0-1.41-9.93c-.35-1.32-.76-2.62-1.21-3.9a.57.57,0,0,1,.53-.76q4.95-.09,9.83-.66a.62.62,0,0,1,.45.15c5.38,5,12.62,8.57,16.66,16.61,4.33,8.6,2.68,17.77,4.73,27,2.64,11.83,9.88,15.31,19.15,27.09,7.69,9.77,6.11,20.52,10.15,31.84,3.63,10.16,7.76,17.65,16,23.45a.57.57,0,0,0,.85-.71c-3.75-7.93-2.54-17.55-.58-26.24,2.14-9.43,5-19.19,2.72-28.59-3.33-13.73-16.8-23.09-20.68-36.67-2.89-10.12,0-20.91-.37-31.43a29.33,29.33,0,0,0-5.86-16.83.57.57,0,0,1,.16-.83,104.16,104.16,0,0,0,13.58-10.16.57.57,0,0,1,.61-.1c1.16.52,2.3,1.08,3.4,1.68a37.52,37.52,0,0,1,7.15,5.08,40.31,40.31,0,0,1,5.81,6.67c.41.62.84,1.23,1.25,1.87l1.17,1.93,2.33,4.08c.78,1.37,1.6,2.75,2.45,4.12s1.74,2.73,2.71,4a46.15,46.15,0,0,0,12.67,12.07,2,2,0,0,0,2.82-.63h0a1.89,1.89,0,0,0-.55-2.55,42.47,42.47,0,0,1-11.36-11.42c-.86-1.23-1.65-2.53-2.43-3.84s-1.51-2.67-2.24-4.05L805,499.6l-1.21-2.13c-.42-.7-.88-1.39-1.32-2.09a44.5,44.5,0,0,0-6.33-7.68,41.86,41.86,0,0,0-8-6q-.71-.42-1.44-.81a.58.58,0,0,1-.13-.91,102.27,102.27,0,0,0,8.89-10.32.54.54,0,0,1,.39-.22c6.3-.69,12.92-2.17,20.16.23,9.14,3,14.45,10.67,22.4,15.72,10.24,6.5,17.82,3.84,32.7,5.61,12.35,1.47,18.83,10.2,29.7,15.34,9.75,4.62,18,7,27.88,5.27a.57.57,0,0,0,.1-1.1C920.48,507.53,914.54,499.87,909.78,492.34Z"/><circle class="c1sun-4" cx="712.9" cy="408.69" r="139.12"/><circle class="c1sun-3" cx="906.35" cy="450.38" r="4.81"/><circle class="c1sun-3" cx="911.15" cy="371.35" r="4.81"/><circle class="c1sun-3" cx="886.23" cy="307.18" r="4.81"/><circle class="c1sun-3" cx="881.42" cy="525" r="4.81"/><circle class="c1sun-3" cx="820.54" cy="576.69" r="4.81"/><circle class="c1sun-3" cx="749.11" cy="602.9" r="4.81"/><circle class="c1sun-3" cx="666.83" cy="602.9" r="4.81"/><circle class="c1sun-3" cx="596.72" cy="576.69" r="4.81"/><circle class="c1sun-3" cx="544.35" cy="515.38" r="4.81"/><circle class="c1sun-3" cx="513.54" cy="442.71" r="4.81"/><circle class="c1sun-3" cx="518.35" cy="364.17" r="4.81"/><circle class="c1sun-3" cx="553.97" cy="297.57" r="4.81"/><circle class="c1sun-3" cx="606.34" cy="243.98" r="4.81"/><circle class="c1sun-3" cx="675.17" cy="214.96" r="4.81"/><circle class="c1sun-3" cx="748.33" cy="214.96" r="4.81"/><circle class="c1sun-3" cx="825.35" cy="243.98" r="4.81"/><path class="c1sun-1" d="M735.56,526.79a30,30,0,0,0-2-5.22,22.8,22.8,0,0,0-3.34-4.66L728,519.06a19.93,19.93,0,0,1,3.35,3.79,28.66,28.66,0,0,1,2.37,4.62Z"/><path class="c1sun-1" d="M745.05,524.21a57,57,0,0,1-.11-11.16l-3.07-.13a59.06,59.06,0,0,0,1.22,11.59Z"/><path class="c1sun-1" d="M754.88,525.88a82.11,82.11,0,0,0,3-10.64l-3-.47A80.68,80.68,0,0,1,753,525.31Z"/><path class="c1sun-2" d="M808.69,467.76a30.13,30.13,0,0,1,2-5.23,23,23,0,0,1,3.34-4.65l2.19,2.15a19.93,19.93,0,0,0-3.35,3.79,28.55,28.55,0,0,0-2.37,4.61Z"/><path class="c1sun-2" d="M799.2,465.17a57,57,0,0,0,.11-11.16l3.07-.12a59.06,59.06,0,0,1-1.22,11.59Z"/><path class="c1sun-2" d="M789.37,466.84a82,82,0,0,1-3-10.63l3-.47a81,81,0,0,0,1.83,10.54Z"/><path class="c1sun-2" d="M682.94,510.7a21.66,21.66,0,0,1,1.48-3.77,16.4,16.4,0,0,1,2.42-3.37l1.58,1.56a14.45,14.45,0,0,0-2.42,2.73,19.79,19.79,0,0,0-1.71,3.34Z"/><path class="c1sun-2" d="M676.08,508.84a41.08,41.08,0,0,0,.07-8.07l2.22-.09a42.71,42.71,0,0,1-.87,8.38Z"/><path class="c1sun-2" d="M669,510a59.41,59.41,0,0,1-2.14-7.68L669,502a58.09,58.09,0,0,0,1.32,7.62Z"/><path class="c1sun-1" d="M612.83,461a22.48,22.48,0,0,1,1.48-3.77,16.79,16.79,0,0,1,2.42-3.37l1.58,1.56a14.81,14.81,0,0,0-2.42,2.73,20.55,20.55,0,0,0-1.71,3.34Z"/><path class="c1sun-1" d="M606,459.17a41.09,41.09,0,0,0,.08-8.07l2.22-.09a43.41,43.41,0,0,1-.88,8.38Z"/><path class="c1sun-1" d="M598.86,460.37a59.41,59.41,0,0,1-2.14-7.68l2.2-.34a56.61,56.61,0,0,0,1.32,7.61Z"/></svg>
