<svg xmlns="http://www.w3.org/2000/svg" xmlns:xlink="http://www.w3.org/1999/xlink" viewBox="0 0 670.84 637.59"><defs><linearGradient id="linear-gradient" x1="36.03" y1="336.32" x2="637.38" y2="336.32" gradientUnits="userSpaceOnUse"><stop offset="0" stop-color="#335471"/><stop offset="1" stop-color="#396589"/></linearGradient></defs><title>Asset 4</title><g style="isolation:isolate"><g id="Layer_2" data-name="Layer 2"><g id="Layer_1-2" data-name="Layer 1"><circle cx="338.99" cy="329.44" r="201.3" style="fill:#2e5777"/><path d="M349.08,597.26c3.09-19.19-9-38.25-6.68-57.56,1.73-14.38,11.15-26.53,16.3-40.07a40.54,40.54,0,0,0,1.55-24.49.79.79,0,0,1,.63-1,142.86,142.86,0,0,0,22.65-5.64.8.8,0,0,1,.83.2q1.8,1.9,3.42,3.94a50.59,50.59,0,0,1,6.36,10.26A55.19,55.19,0,0,1,398,494.49c.19,1,.41,2,.59,3l.45,3.07.79,6.42c.26,2.16.56,4.35.9,6.54s.76,4.39,1.28,6.58A66.54,66.54,0,0,0,406.34,533a67.46,67.46,0,0,0,5.27,9.26,2.78,2.78,0,0,0,3.92.7h0a2.6,2.6,0,0,0,.66-3.53,60.76,60.76,0,0,1-4.67-8.75,60,60,0,0,1-3.65-11.8c-.43-2-.74-4.09-1-6.17s-.5-4.19-.69-6.33l-.61-6.47-.4-3.35c-.16-1.12-.37-2.23-.55-3.35A62.62,62.62,0,0,0,400.65,480a58.39,58.39,0,0,0-6.93-11.93c-.46-.6-.92-1.2-1.4-1.79a.79.79,0,0,1,.31-1.22,142,142,0,0,0,16.8-8.36.8.8,0,0,1,.61-.07c8.36,2.49,17.54,4.14,25.46,11.05,10,8.7,12.64,21.25,20,31.9,9.52,13.7,20.55,14.37,38.49,24.56,14.88,8.45,18.45,23,29.49,35.3,9.92,11.06,19.07,18.46,32.58,21.57a.79.79,0,0,0,.71-1.36c-8.9-8.15-12.36-21-14.38-33.13-2.19-13.13-3.61-27.06-11.41-37.85-11.39-15.76-33.41-20.69-45.42-36-9-11.39-10.88-26.64-16.82-39.86A40.48,40.48,0,0,0,455,416a.79.79,0,0,1-.2-1.1q3-4.37,5.73-8.91a.78.78,0,0,1,1.13-.24h0a58,58,0,0,0,12,6.74,61.71,61.71,0,0,0,13.18,3.73c1.12.17,2.24.36,3.36.5l3.36.35,6.47.5q3.21.25,6.34.6c2.08.25,4.16.53,6.19.93a58.22,58.22,0,0,1,20.65,8,2.67,2.67,0,0,0,3.58-.77h0a2.71,2.71,0,0,0-.75-3.81,66.23,66.23,0,0,0-9.39-5.16,65.39,65.39,0,0,0-12.88-4.16c-2.2-.5-4.4-.86-6.6-1.19s-4.38-.57-6.54-.8l-6.44-.68-3.08-.41c-1-.15-2-.36-3-.54A54.86,54.86,0,0,1,476.44,406a51.06,51.06,0,0,1-10.35-6.2l-1-.8a.78.78,0,0,1-.2-1,141.25,141.25,0,0,0,10.34-26.9.79.79,0,0,1,.94-.56,40.44,40.44,0,0,0,22.62-1.49c13.64-4.86,26-14,40.41-15.43,19.35-1.91,38.15,10.59,57.41,7.91,13.18-1.83,24.23-10.44,35.22-17.94,10.13-6.91,21.83-13.33,33.87-12.54a.79.79,0,0,0,.49-1.45c-11.59-7.6-23.27-9.09-38.11-8.6-16.53.55-29.5,8-45.89,3.12-19.78-5.9-27.89-13.41-44.37-10.8-12.81,2-23.71,8.78-36.9,7.59-8.81-.79-15.55-4.8-22-8.63a.79.79,0,0,1-.37-.55,142.76,142.76,0,0,0-7.86-29.49.78.78,0,0,1,.26-.91,50.05,50.05,0,0,1,9.1-5.47A55,55,0,0,1,491.6,272c1-.19,2-.41,3-.59l3.08-.45,6.42-.79c2.16-.26,4.35-.56,6.53-.9s4.39-.76,6.58-1.29a65.93,65.93,0,0,0,12.82-4.36,68.56,68.56,0,0,0,11-6.45.79.79,0,0,0,.18-1.1L539,253.05a.8.8,0,0,0-1.09-.19,62.08,62.08,0,0,1-10.18,5.62,61.1,61.1,0,0,1-11.8,3.65c-2,.43-4.09.74-6.17,1s-4.2.5-6.34.69l-6.46.61-3.35.4c-1.12.16-2.24.37-3.35.55a62.71,62.71,0,0,0-13.13,3.94,57.62,57.62,0,0,0-8.88,4.8.78.78,0,0,1-1.14-.33A142.16,142.16,0,0,0,457,255.6a.76.76,0,0,1-.09-.64c2.26-7.94,4.11-16.5,10.6-23.93,8.7-10,21.25-12.64,31.9-20,13.7-9.52,14.37-20.55,24.56-38.49,8.45-14.88,23-18.46,35.3-29.5,11.06-9.91,18.46-19.06,21.57-32.57a.79.79,0,0,0-1.35-.71c-8.16,8.9-21,12.36-33.14,14.38-13.13,2.19-27.06,3.61-37.85,11.41-15.76,11.38-20.69,33.41-36,45.42-11.39,8.94-26.64,10.88-39.85,16.81a40.48,40.48,0,0,0-17.74,15.14.79.79,0,0,1-1.08.24q-4.62-2.93-9.4-5.45a.79.79,0,0,1-.28-1.14,58.26,58.26,0,0,0,5.46-10.18,63,63,0,0,0,3.73-13.19c.16-1.12.36-2.23.5-3.35l.35-3.36.5-6.47q.24-3.21.59-6.34c.26-2.09.54-4.16.93-6.19a60.86,60.86,0,0,1,3.46-11.85,63.22,63.22,0,0,1,5.46-10.27.78.78,0,0,0-.2-1.08l-3.1-2.14a.78.78,0,0,0-1.09.19,68,68,0,0,0-6.28,11.06,66.74,66.74,0,0,0-4.16,12.88c-.49,2.19-.85,4.4-1.18,6.59s-.58,4.39-.8,6.55l-.68,6.44-.41,3.08c-.16,1-.36,2-.54,3a55.36,55.36,0,0,1-3.63,11.61,50.66,50.66,0,0,1-5.84,9.88l-.95.24A142.72,142.72,0,0,0,370,194.82a.78.78,0,0,1-.57-1,40.64,40.64,0,0,0-.59-26.06c-4.85-13.65-14-26-15.42-40.41C351.53,108,364,89.2,361.35,70c-1.83-13.19-10.45-24.24-18-35.23C336.49,24.59,330.08,12.89,330.87.85a.79.79,0,0,0-1.45-.49c-7.61,11.59-9.1,23.27-8.61,38.11.55,16.53,8,29.5,3.13,45.89-5.91,19.77-13.41,27.89-10.81,44.37,2,12.8,8.78,23.71,7.59,36.9-1.05,11.67-7.76,19.72-12.19,28.23a.77.77,0,0,1-.53.4,143.18,143.18,0,0,0-14.54,3.91.79.79,0,0,1-1-.63c0-.26-.07-.51-.11-.77a58.67,58.67,0,0,0-3.71-13.28,62.72,62.72,0,0,0-6.66-12c-.67-.91-1.33-1.83-2-2.73l-2.12-2.62-4.21-4.94c-1.39-1.64-2.74-3.27-4.05-4.92s-2.56-3.32-3.71-5a60,60,0,0,1-5.91-10.84,63.32,63.32,0,0,1-3.38-11.13.78.78,0,0,0-.9-.62l-3.7.67a.78.78,0,0,0-.64.91,67.69,67.69,0,0,0,3.35,12.26,66.51,66.51,0,0,0,6.14,12.07c1.2,1.9,2.5,3.72,3.81,5.51s2.69,3.51,4.06,5.2l4.05,5,1.89,2.47c.61.83,1.17,1.69,1.76,2.54A55.12,55.12,0,0,1,282,186.13a51.24,51.24,0,0,1,2.92,11.71c.11.9.21,1.81.28,2.71a.79.79,0,0,1-.49.8,141.1,141.1,0,0,0-21.94,11.09.8.8,0,0,1-1.14-.36A41,41,0,0,0,241.31,191c-13.09-6.22-28.29-8.48-39.49-17.67-15-12.33-19.48-34.46-35-46.18-10.62-8-24.52-9.75-37.6-12.22-12-2.28-24.86-6-32.82-15.09a.79.79,0,0,0-1.37.68c2.82,13.57,10,22.88,20.87,33,12.08,11.3,26.53,15.19,34.66,30.25,9.8,18.15,10.23,29.19,23.73,39,10.48,7.62,23,10.56,31.46,20.72s8.59,22,12.49,31.86a.75.75,0,0,1-.07.71,141.7,141.7,0,0,0-11.89,22.54.79.79,0,0,1-.73.48,64.31,64.31,0,0,1-6.81-.38A50.9,50.9,0,0,1,187,276a55.63,55.63,0,0,1-10.88-5.45c-.85-.58-1.72-1.13-2.56-1.73L171,267l-5.1-4c-1.71-1.34-3.48-2.67-5.27-4s-3.64-2.56-5.57-3.73a65.87,65.87,0,0,0-12.16-6,68.9,68.9,0,0,0-12.31-3.16.79.79,0,0,0-.9.66l-.61,3.7a.78.78,0,0,0,.63.9,62.55,62.55,0,0,1,11.18,3.21,60.08,60.08,0,0,1,10.94,5.74c1.74,1.12,3.42,2.36,5.1,3.62s3.32,2.61,5,4l5,4.13,2.66,2.08c.91.68,1.85,1.32,2.77,2a61.69,61.69,0,0,0,12.08,6.47,58.19,58.19,0,0,0,13.34,3.51c1.46.2,2.92.36,4.38.47a.77.77,0,0,1,.69,1c-1,2.86-1.84,5.74-2.62,8.63a.77.77,0,0,1-.51.54c-10.81,3.57-19.83,12.9-34,13.86-13.21.9-24-6.08-36.72-8.38-16.43-3-24.7,4.37-44.59,9.85-16.5,4.55-29.3-3.2-45.82-4.1-14.83-.81-26.53.43-38.29,7.78a.79.79,0,0,0,.46,1.46c12.05-.53,23.62,6.13,33.6,13.26,10.83,7.73,21.69,16.58,34.83,18.7,19.19,3.09,38.26-9,57.56-6.68,14.38,1.73,26.53,11.14,40.07,16.29a41.12,41.12,0,0,0,29.72-.06.79.79,0,0,1,1,.59,143.15,143.15,0,0,0,4.05,16.49.77.77,0,0,1-.71,1c-2.37.13-4.75.37-7.12.74a57.87,57.87,0,0,0-13.28,3.71,62.42,62.42,0,0,0-12,6.66c-.91.67-1.84,1.32-2.73,2l-2.63,2.12-4.94,4.22c-1.63,1.39-3.26,2.73-4.91,4.05s-3.32,2.56-5,3.71a61.61,61.61,0,0,1-10.84,5.91,62.71,62.71,0,0,1-11.13,3.37.79.79,0,0,0-.62.91l.67,3.7a.78.78,0,0,0,.91.64,68.74,68.74,0,0,0,12.26-3.35,66.1,66.1,0,0,0,12.06-6.14c1.91-1.2,3.72-2.5,5.51-3.82s3.51-2.68,5.2-4.05l5-4.06,2.48-1.88c.83-.61,1.69-1.17,2.53-1.76a54.94,54.94,0,0,1,10.8-5.62A51,51,0,0,1,195,385.08a64.49,64.49,0,0,1,9.24-.49.78.78,0,0,1,.72.5,141.65,141.65,0,0,0,8.56,18.17.78.78,0,0,1-.39,1.11,41.23,41.23,0,0,0-22.27,20.85c-6.22,13.08-8.48,28.29-17.67,39.48-12.33,15-34.46,19.49-46.18,35-8,10.62-9.75,24.52-12.22,37.6-2.28,12.05-6,24.86-15.09,32.81a.79.79,0,0,0,.68,1.37c13.58-2.82,22.89-10,33-20.86,11.31-12.08,15.19-26.54,30.25-34.66,18.16-9.8,29.2-10.23,39-23.73,7.63-10.48,10.56-23,20.72-31.46,9.52-7.95,20.65-8.55,30.17-11.87a.81.81,0,0,1,.72.11,142,142,0,0,0,21.56,12.89.78.78,0,0,1,.44.69,64,64,0,0,1-.36,8.66A50.83,50.83,0,0,1,273.13,483a54.62,54.62,0,0,1-5.45,10.89c-.57.85-1.13,1.72-1.72,2.56l-1.84,2.5-4,5.11c-1.34,1.71-2.67,3.47-4,5.26s-2.56,3.65-3.73,5.57a66.49,66.49,0,0,0-5.95,12.16,69,69,0,0,0-3.16,12.32.78.78,0,0,0,.65.9l3.71.61a.79.79,0,0,0,.9-.63,63.71,63.71,0,0,1,3.2-11.19,61.26,61.26,0,0,1,5.74-10.93c1.13-1.74,2.37-3.43,3.63-5.1s2.61-3.32,4-5l4.13-5,2.08-2.66c.67-.9,1.31-1.84,2-2.76a62.52,62.52,0,0,0,6.47-12.08,58.17,58.17,0,0,0,3.5-13.34c.26-1.86.44-3.73.55-5.59a.79.79,0,0,1,1.08-.69q6.33,2.52,12.82,4.41a.78.78,0,0,1,.49.43c4.19,9.16,11.45,17.61,12.29,30,.9,13.21-6.09,24-8.39,36.72-2.95,16.43,4.37,24.7,9.86,44.59" style="fill:#2e5777"/><g style="opacity:0.25;mix-blend-mode:multiply"><path d="M248.71,574.51c9.93-16,6.28-37.46,15.56-53.8,6.92-12.17,19.85-19.48,29.5-29.62a39.15,39.15,0,0,0,10.54-21.25.75.75,0,0,1,.93-.62,137.62,137.62,0,0,0,22.29,3.43.76.76,0,0,1,.66.49c.6,1.59,1.13,3.18,1.58,4.8a49,49,0,0,1,1.83,11.52,52.81,52.81,0,0,1-.92,11.73c-.2,1-.38,1.95-.61,2.92l-.74,2.91-1.7,6c-.58,2-1.13,4.08-1.64,6.16s-1,4.2-1.31,6.34a64.06,64.06,0,0,0-.9,13.06A64.83,64.83,0,0,0,325,548.82a2.69,2.69,0,0,0,3.23,2.09h0a2.52,2.52,0,0,0,1.92-2.9,59.13,59.13,0,0,1-.9-9.55,57.91,57.91,0,0,1,1.16-11.87c.37-2,.87-3.93,1.39-5.89s1.12-3.92,1.75-5.9l1.87-6,.9-3.14c.27-1.05.5-2.13.76-3.19a59.62,59.62,0,0,0,1.39-13.17,56.06,56.06,0,0,0-1.72-13.22c-.17-.71-.37-1.41-.57-2.12a.76.76,0,0,1,.73-1A136,136,0,0,0,355,471.83a.8.8,0,0,1,.58.17c6.52,5.34,14.09,10.25,18.56,19.36,5.64,11.48,3.32,23.67,5.93,35.92,3.37,15.77,12.95,20.49,25.13,36.28,10.1,13.09,7.86,27.37,13.09,42.48,4.7,13.57,10.09,23.58,21,31.4a.76.76,0,0,0,1.13-.94c-4.88-10.59-3.15-23.37-.42-34.9,2.95-12.52,6.89-25.47,4-38-4.26-18.3-22-30.93-27-49.05-3.72-13.49.26-27.81-.09-41.8a39.11,39.11,0,0,0-6-20.2.75.75,0,0,1,.23-1.05q4.35-2.76,8.43-5.8a.77.77,0,0,1,1.11.21h0a56.62,56.62,0,0,0,8.2,10.51,59.69,59.69,0,0,0,10.36,8.25c.93.57,1.86,1.16,2.8,1.7L444.8,468l5.58,2.86c1.85.95,3.65,1.91,5.43,2.9s3.51,2,5.17,3.15A56.13,56.13,0,0,1,476.4,491.7a2.58,2.58,0,0,0,3.48.65h0a2.63,2.63,0,0,0,.76-3.68,65,65,0,0,0-6.45-8.11,63.79,63.79,0,0,0-9.92-8.52c-1.77-1.26-3.6-2.41-5.44-3.52s-3.69-2.15-5.53-3.16l-5.48-3-2.6-1.52c-.85-.52-1.67-1.08-2.51-1.62a53.31,53.31,0,0,1-9-7.58,49.11,49.11,0,0,1-6.91-9.39c-.21-.36-.41-.73-.61-1.1a.77.77,0,0,1,.18-.94,136.56,136.56,0,0,0,19.28-20.1.76.76,0,0,1,1-.15,39.13,39.13,0,0,0,20.72,7.12c14,.78,28.4-2.76,41.78,1.36,18,5.53,30,23.7,48.21,28.51,12.43,3.29,25.5-.25,38.1-2.83,11.61-2.37,24.44-3.71,34.87,1.49a.77.77,0,0,0,1-1.11c-7.49-11.11-17.34-16.8-30.75-21.91-14.94-5.69-29.29-3.88-42.07-14.37C543.13,405.55,538.7,395.83,523,392c-12.17-3-24.42-1-35.73-7-7.55-4-12.06-10.1-16.37-15.92a.73.73,0,0,1-.12-.62,137.49,137.49,0,0,0,4-29.22.77.77,0,0,1,.58-.72A48.37,48.37,0,0,1,485.56,337a52.76,52.76,0,0,1,11.73.92c1,.2,1.95.38,2.92.61l2.91.74,6,1.7c2,.58,4.09,1.12,6.16,1.64s4.2,1,6.35,1.31a64,64,0,0,0,13.05.9,66,66,0,0,0,12.17-1.65.76.76,0,0,0,.57-.91l-.8-3.55a.76.76,0,0,0-.89-.57,60.5,60.5,0,0,1-11.18,1.2,57.94,57.94,0,0,1-11.88-1.16c-2-.37-3.93-.87-5.89-1.39s-3.92-1.12-5.9-1.75l-6-1.88-3.14-.89c-1-.27-2.13-.51-3.19-.76a59.62,59.62,0,0,0-13.17-1.39,54.41,54.41,0,0,0-9.7.95.76.76,0,0,1-.91-.72,135,135,0,0,0-2.2-20,.76.76,0,0,1,.15-.6c5-6.24,9.84-13.17,18.4-17.37,11.49-5.64,23.67-3.32,35.92-5.94,15.77-3.36,20.49-12.94,36.28-25.12,13.09-10.1,27.38-7.86,42.48-13.09,13.57-4.7,23.58-10.09,31.4-21a.76.76,0,0,0-.94-1.14c-10.59,4.88-23.37,3.16-34.9.43-12.52-3-25.47-6.9-38-4-18.3,4.26-30.93,22.05-49,27-13.5,3.72-27.82-.26-41.81.09a39.08,39.08,0,0,0-21.46,6.86.77.77,0,0,1-1.06-.19c-2-2.88-4.13-5.68-6.33-8.37a.76.76,0,0,1,.17-1.12,55.73,55.73,0,0,0,8.67-7,59.62,59.62,0,0,0,8.25-10.35c.57-.94,1.16-1.86,1.7-2.8l1.57-2.86,2.87-5.59c.94-1.84,1.91-3.65,2.89-5.43s2-3.5,3.15-5.17a58.37,58.37,0,0,1,7.51-9.26,60.51,60.51,0,0,1,8.71-7.12.75.75,0,0,0,.21-1l-1.95-3.06a.76.76,0,0,0-1.05-.23,66.21,66.21,0,0,0-9.73,7.5,63.86,63.86,0,0,0-8.52,9.93c-1.26,1.77-2.4,3.6-3.52,5.43s-2.15,3.7-3.16,5.54l-3,5.48-1.52,2.59c-.52.85-1.08,1.67-1.62,2.51a52.92,52.92,0,0,1-7.58,9,48.51,48.51,0,0,1-8.89,6.63l-.94-.14a136.49,136.49,0,0,0-20.1-17.71.77.77,0,0,1-.14-1.11,39.19,39.19,0,0,0,9.22-23.44c.78-14-2.76-28.41,1.36-41.78,5.53-18,23.7-30,28.51-48.21,3.29-12.43-.25-25.5-2.83-38.1-2.37-11.61-3.71-24.44,1.49-34.87a.76.76,0,0,0-1.11-1c-11.11,7.49-16.8,17.34-21.91,30.75C426.7,80.87,428.51,95.22,418,108c-12.66,15.41-22.38,19.84-26.22,35.5-3,12.17-1,24.41-7,35.72-5.3,10-14.29,14.68-21.42,20.61a.78.78,0,0,1-.62.16,136.49,136.49,0,0,0-14.42-2,.77.77,0,0,1-.68-.95c.07-.24.13-.48.19-.72a56.61,56.61,0,0,0,1.66-13.23A60.18,60.18,0,0,0,348,170c-.26-1.06-.5-2.13-.78-3.19l-.9-3.13-1.91-6q-.94-3-1.78-5.89c-.53-2-1-3.92-1.42-5.88A58.67,58.67,0,0,1,340,134a60.25,60.25,0,0,1,1.15-11.18.76.76,0,0,0-.58-.89l-3.55-.79a.75.75,0,0,0-.9.57,65.33,65.33,0,0,0-1.6,12.18,63.94,63.94,0,0,0,1,13c.36,2.14.84,4.25,1.34,6.34s1.08,4.13,1.67,6.15l1.73,6,.76,2.9c.23,1,.41,2,.62,2.92a53.38,53.38,0,0,1,1,11.72,49,49,0,0,1-1.77,11.53c-.24.85-.49,1.69-.77,2.52a.76.76,0,0,1-.73.53,136.32,136.32,0,0,0-23.7,1.68.76.76,0,0,1-.88-.74,39.61,39.61,0,0,0-10.24-26.37c-9.34-10.43-22-18.13-28.59-30.51-8.78-16.61-4.48-38-13.92-54.24-6.47-11.12-18.21-17.85-28.94-24.94-9.89-6.54-19.91-14.66-23.61-25.72a.76.76,0,0,0-1.47.1c-2.57,13.15.37,24.14,6.24,37.23,6.55,14.59,18,23.46,19.59,39.92,1.95,19.84-1.8,29.84,6.56,43.64,6.49,10.71,16.53,18,20.3,30.22s-.57,22.81-.78,33.06a.74.74,0,0,1-.33.62,136.51,136.51,0,0,0-19,15.63.76.76,0,0,1-.83.17,62.47,62.47,0,0,1-5.93-2.89,49.33,49.33,0,0,1-9.45-6.83,53.46,53.46,0,0,1-7.67-8.93c-.54-.83-1.11-1.65-1.64-2.49l-1.54-2.58-3.06-5.45q-1.54-2.76-3.21-5.51c-1.13-1.83-2.29-3.65-3.57-5.41a65,65,0,0,0-8.61-9.85,66.19,66.19,0,0,0-9.8-7.41.76.76,0,0,0-1,.24l-1.92,3.08a.77.77,0,0,0,.22,1,60.45,60.45,0,0,1,8.77,7,58.45,58.45,0,0,1,7.6,9.2C200,202.25,201,204,202,205.73s2,3.57,3,5.41l2.92,5.55,1.59,2.85c.56.94,1.15,1.86,1.73,2.79a59.73,59.73,0,0,0,8.35,10.28,56.19,56.19,0,0,0,10.58,8.11c1.22.73,2.47,1.41,3.73,2.06a.76.76,0,0,1,.23,1.18q-2.9,3.27-5.57,6.71a.74.74,0,0,1-.65.29c-11-.86-22.49,4.09-35.44-.33-12.11-4.14-19.08-14.39-29.6-21.2-13.53-8.78-23.64-5.34-43.42-7.89-16.4-2.11-24.91-13.8-39.3-20.79-12.91-6.26-23.81-9.53-37-7.37a.76.76,0,0,0-.14,1.47c10.94,4,18.76,14.29,25,24.38,6.76,10.94,13.13,22.88,24.05,29.68,16,9.93,37.46,6.28,53.8,15.56,12.17,6.92,19.48,19.85,29.63,29.5A39.7,39.7,0,0,0,201.94,305a.76.76,0,0,1,.72.92,137.53,137.53,0,0,0-2.55,16.2.77.77,0,0,1-1,.65,64.84,64.84,0,0,0-6.62-2,56.61,56.61,0,0,0-13.23-1.66,60.25,60.25,0,0,0-13.16,1.46c-1.06.26-2.13.49-3.18.77l-3.14.91-6,1.91q-3,.94-5.89,1.78c-2,.52-3.92,1-5.88,1.41a58,58,0,0,1-11.87,1.22A61.2,61.2,0,0,1,119,327.44a.75.75,0,0,0-.89.58l-.79,3.54a.76.76,0,0,0,.57.91,66.17,66.17,0,0,0,12.18,1.6,63.94,63.94,0,0,0,13.05-1c2.15-.36,4.25-.84,6.34-1.34s4.13-1.09,6.15-1.67l6-1.73,2.9-.76c1-.23,2-.41,2.92-.62a52.78,52.78,0,0,1,11.72-1,49,49,0,0,1,11.53,1.77,61.75,61.75,0,0,1,8.42,3,.76.76,0,0,1,.45.72,138.67,138.67,0,0,0,.84,19.39.76.76,0,0,1-.76.85A39.79,39.79,0,0,0,172,362c-10.43,9.34-18.13,22-30.51,28.59-16.61,8.78-38,4.48-54.24,13.92C76.09,411,69.36,422.74,62.27,433.47c-6.53,9.89-14.66,19.91-25.71,23.61a.76.76,0,0,0,.09,1.47c13.15,2.57,24.14-.37,37.24-6.25,14.59-6.54,23.45-18,39.91-19.58,19.85-2,29.85,1.79,43.64-6.56,10.71-6.5,18-16.53,30.23-20.3,11.45-3.52,21.59.1,31.32.7a.78.78,0,0,1,.6.36A136.26,136.26,0,0,0,234,426.47a.76.76,0,0,1,.14.79,63,63,0,0,1-3.56,7.57,49.09,49.09,0,0,1-6.83,9.46A53.4,53.4,0,0,1,214.8,452c-.83.55-1.64,1.11-2.49,1.64l-2.58,1.54-5.45,3.07c-1.84,1-3.68,2.1-5.51,3.2s-3.64,2.3-5.41,3.58a63.34,63.34,0,0,0-9.84,8.61,66,66,0,0,0-7.42,9.79.77.77,0,0,0,.24,1.05l3.08,1.93a.76.76,0,0,0,1-.23,61.55,61.55,0,0,1,7-8.77,58.45,58.45,0,0,1,9.2-7.6c1.66-1.13,3.39-2.16,5.14-3.19s3.57-2,5.41-2.95l5.56-2.92,2.84-1.59c.94-.55,1.86-1.15,2.79-1.72A59.82,59.82,0,0,0,228.71,449a56.19,56.19,0,0,0,8.11-10.58c.93-1.56,1.79-3.16,2.58-4.78a.76.76,0,0,1,1.22-.21q4.69,4.61,9.78,8.73a.75.75,0,0,1,.28.56c.3,9.73,3.61,20-.25,31.3-4.14,12.11-14.39,19.09-21.21,29.6-8.77,13.53-5.33,23.64-7.88,43.42" style="fill:url(#linear-gradient)"/></g><polygon points="300.73 493.94 336.5 456.13 378.89 493.94 300.73 493.94" style="fill:#3176a9"/><path d="M463.79,264.59c2.07-3,2.54-6,1.46-9s-3.07-5.55-3.4-8.64c-.46-4.15,2.18-8.21,1.56-12.34-.42-2.83-2.3-5.18-3.93-7.52s-3.15-5.09-2.7-7.91c-1.94,2.7-2.29,5.34-2.14,8.76s1.79,6.32.77,9.85c-1.22,4.26-2.81,6-2.21,9.55.46,2.74,1.94,5.07,1.71,7.9-.34,4.32-4.31,6.37-3.15,10.55l5.28,3.72,5.78-3.53Z" style="fill:#fff"/><path d="M457.26,264.92c2.68-4.48,3.15-7.91,1.85-12-.9-2.84-2-5.5-1.14-9.51" style="fill:none;stroke:#e5af34;stroke-miterlimit:10;stroke-width:0.65161373290496px"/><circle cx="457.74" cy="244.38" r="1.55" transform="translate(-35.12 82.11) rotate(-9.87)" style="fill:#e5af34"/><path d="M490.25,302.63c2.07-3,2.54-6.06,1.46-9s-3.06-5.55-3.4-8.64c-.46-4.15,2.18-8.21,1.56-12.34-.42-2.83-2.3-5.18-3.93-7.52s-3.15-5.09-2.7-7.91c-1.94,2.7-2.29,5.34-2.14,8.76s1.79,6.32.78,9.85c-1.23,4.26-2.82,6-2.22,9.55.46,2.74,1.94,5.07,1.71,7.9-.34,4.32-4.31,6.37-3.15,10.55l5.28,3.72,5.78-3.53Z" style="fill:#fff"/><path d="M483.72,303c2.68-4.48,3.15-7.91,1.86-12-.9-2.84-2-5.5-1.15-9.51" style="fill:none;stroke:#e5af34;stroke-miterlimit:10;stroke-width:0.65161373290496px"/><circle cx="484.2" cy="282.41" r="1.55" transform="translate(-41.25 87.21) rotate(-9.87)" style="fill:#e5af34"/><path d="M602.78,431.44c2.07-3,2.54-6.06,1.46-9s-3.06-5.54-3.4-8.64c-.46-4.15,2.18-8.21,1.56-12.34-.42-2.82-2.29-5.17-3.93-7.52s-3.15-5.08-2.7-7.9c-1.94,2.69-2.29,5.34-2.14,8.76s1.79,6.31.78,9.84c-1.23,4.26-2.82,6-2.22,9.55.46,2.75,1.94,5.07,1.72,7.91-.35,4.32-4.32,6.37-3.16,10.55l5.28,3.72,5.78-3.53Z" style="fill:#fff"/><path d="M596.25,431.76c2.69-4.47,3.15-7.9,1.86-12-.9-2.84-2-5.5-1.15-9.51" style="fill:none;stroke:#e5af34;stroke-miterlimit:10;stroke-width:0.65161373290496px"/><circle cx="596.74" cy="411.22" r="1.55" transform="translate(-61.68 108.42) rotate(-9.87)" style="fill:#e5af34"/><path d="M629.24,469.47c2.07-3,2.54-6.06,1.47-9s-3.07-5.54-3.41-8.64c-.45-4.14,2.19-8.21,1.57-12.34-.43-2.82-2.3-5.17-3.94-7.52s-3.15-5.08-2.7-7.9c-1.94,2.69-2.29,5.34-2.14,8.76s1.79,6.31.78,9.84c-1.22,4.26-2.82,6-2.22,9.55.46,2.75,1.94,5.07,1.72,7.91-.34,4.32-4.32,6.37-3.16,10.55l5.28,3.72,5.78-3.53Z" style="fill:#fff"/><path d="M622.71,469.79c2.69-4.47,3.15-7.9,1.86-12-.9-2.84-2-5.5-1.15-9.51" style="fill:none;stroke:#e5af34;stroke-miterlimit:10;stroke-width:0.65161373290496px"/><circle cx="623.2" cy="449.25" r="1.55" transform="translate(-67.8 113.52) rotate(-9.87)" style="fill:#e5af34"/><path d="M214.78,264.59c-2.07-3-2.54-6-1.46-9s3.06-5.55,3.4-8.64c.46-4.15-2.18-8.21-1.56-12.34.42-2.83,2.3-5.18,3.93-7.52s3.15-5.09,2.7-7.91c1.94,2.7,2.29,5.34,2.14,8.76s-1.79,6.32-.78,9.85c1.23,4.26,2.82,6,2.22,9.55-.46,2.74-1.94,5.07-1.71,7.9.34,4.32,4.31,6.37,3.15,10.55l-5.28,3.72L215.75,266Z" style="fill:#fff"/><path d="M221.31,264.92c-2.68-4.48-3.15-7.91-1.86-12,.9-2.84,2-5.5,1.15-9.51" style="fill:none;stroke:#e5af34;stroke-miterlimit:10;stroke-width:0.65161373290496px"/><circle cx="220.83" cy="244.38" r="1.55" transform="translate(-57.8 420.03) rotate(-80.13)" style="fill:#e5af34"/><path d="M188.32,302.63c-2.07-3-2.54-6.06-1.46-9s3.06-5.55,3.4-8.64c.45-4.15-2.18-8.21-1.56-12.34.42-2.83,2.29-5.18,3.93-7.52s3.15-5.09,2.7-7.91c1.94,2.7,2.29,5.34,2.14,8.76s-1.79,6.32-.78,9.85c1.23,4.26,2.82,6,2.22,9.55-.46,2.74-1.94,5.07-1.72,7.9.35,4.32,4.32,6.37,3.16,10.55l-5.28,3.72L189.29,304Z" style="fill:#fff"/><path d="M194.85,303c-2.69-4.48-3.15-7.91-1.86-12,.9-2.84,2-5.5,1.15-9.51" style="fill:none;stroke:#e5af34;stroke-miterlimit:10;stroke-width:0.65161373290496px"/><circle cx="194.36" cy="282.41" r="1.55" transform="translate(-117.19 425.47) rotate(-80.13)" style="fill:#e5af34"/><path d="M74.15,437.85c-2.07-3-2.54-6.06-1.47-9s3.07-5.55,3.41-8.64c.45-4.15-2.19-8.22-1.57-12.34.43-2.83,2.3-5.18,3.94-7.53s3.15-5.08,2.7-7.9c1.94,2.7,2.29,5.34,2.14,8.76s-1.79,6.32-.78,9.85c1.22,4.25,2.81,6,2.22,9.55-.47,2.74-1.94,5.07-1.72,7.9.34,4.32,4.32,6.37,3.16,10.55L80.9,442.8l-5.78-3.53Z" style="fill:#fff"/><path d="M80.68,438.18c-2.69-4.48-3.15-7.91-1.86-12,.9-2.83,2-5.5,1.14-9.5" style="fill:none;stroke:#e5af34;stroke-miterlimit:10;stroke-width:0.65161373290496px"/><circle cx="80.19" cy="417.63" r="1.55" transform="matrix(0.17, -0.99, 0.99, 0.17, -345.01, 425.03)" style="fill:#e5af34"/><path d="M47.68,475.88c-2.06-3-2.53-6.06-1.46-9s3.07-5.55,3.41-8.64c.45-4.15-2.19-8.22-1.57-12.34.43-2.83,2.3-5.18,3.93-7.53s3.15-5.08,2.7-7.9c2,2.7,2.3,5.34,2.14,8.76s-1.79,6.32-.77,9.85c1.22,4.26,2.81,6,2.22,9.55-.47,2.74-1.94,5.07-1.72,7.9.34,4.32,4.32,6.37,3.16,10.55l-5.29,3.72-5.78-3.53Z" style="fill:#fff"/><path d="M54.21,476.21c-2.68-4.48-3.14-7.91-1.85-12,.9-2.83,2-5.5,1.14-9.5" style="fill:none;stroke:#e5af34;stroke-miterlimit:10;stroke-width:0.65161373290496px"/><circle cx="53.73" cy="455.66" r="1.55" transform="translate(-404.4 430.46) rotate(-80.13)" style="fill:#e5af34"/><path d="M125.19,579.89H554a0,0,0,0,1,0,0v4.59a18.57,18.57,0,0,1-18.57,18.57H141.23a16,16,0,0,1-16-16v-7.12A0,0,0,0,1,125.19,579.89Z" style="fill:#e5af34"/><polygon points="316.81 121.61 341.14 48.73 365.12 121.61 316.81 121.61" style="fill:#5da4a0"/><rect x="258.66" y="225.34" width="173.79" height="17.56" style="fill:#5da4a0"/><rect x="130.31" y="355.19" width="12.08" height="36.5" style="fill:#e5af34"/><rect x="123.03" y="347.79" width="26.84" height="7.4" rx="3.7" ry="3.7" style="fill:#e5af34"/><polygon points="130.31 347.79 137.77 258.8 142.39 347.79 130.31 347.79" style="fill:#e5af34"/><rect x="534.14" y="353.92" width="12.08" height="36.5" style="fill:#e5af34"/><rect x="526.87" y="346.52" width="26.84" height="7.4" rx="3.7" ry="3.7" style="fill:#e5af34"/><polygon points="534.14 346.52 541.61 257.54 546.23 346.52 534.14 346.52" style="fill:#e5af34"/><rect x="246.58" y="203.14" width="12.08" height="36.5" style="fill:#e5af34"/><rect x="421.16" y="203.14" width="12.08" height="36.5" style="fill:#e5af34"/><path d="M337.13,509.55H54.43V564a16,16,0,0,0,15.95,15.94H604a21.9,21.9,0,0,0,21.9-21.9V509.55Z" style="fill:#3176a9"/><rect x="227.51" y="268.6" width="219.24" height="110.76" style="fill:#5da4a0"/><path d="M28.49,509.55H337.13V383.88H153.32a38.05,38.05,0,0,0-25.71,10L21.35,491.17A10.58,10.58,0,0,0,28.49,509.55Z" style="fill:#5da4a0"/><path d="M218.67,530.24a18.44,18.44,0,0,1,1.07,6.15,18.44,18.44,0,0,1,1.06-6.15Z" style="fill:#2f4962"/><path d="M70.17,530.24a18.44,18.44,0,0,1,1.07,6.15,18.44,18.44,0,0,1,1.06-6.15Z" style="fill:#2f4962"/><path d="M107.3,530.24a18.69,18.69,0,0,1,1.06,6.15,18.69,18.69,0,0,1,1.06-6.15Z" style="fill:#2f4962"/><path d="M181.55,530.24a18.69,18.69,0,0,1,1.06,6.15,18.69,18.69,0,0,1,1.06-6.15Z" style="fill:#2f4962"/><path d="M144.42,530.24a18.44,18.44,0,0,1,1.07,6.15,18.44,18.44,0,0,1,1.06-6.15Z" style="fill:#2f4962"/><path d="M261.75,509.55H54.43v8.36a18.57,18.57,0,0,1,15.74,12.33H72.3a18.54,18.54,0,0,1,35,0h2.12a18.54,18.54,0,0,1,35,0h2.13a18.54,18.54,0,0,1,35,0h2.12a18.54,18.54,0,0,1,35,0h2.13a18.54,18.54,0,0,1,35,0h5.95Z" style="fill:#2f4962"/><path d="M657.44,493,550,389.87a21.47,21.47,0,0,0-14.89-6H375.38V382.3H310.79V508.65l32.36.9H650.77A9.64,9.64,0,0,0,657.44,493Z" style="fill:#5da4a0"/><rect x="260.37" y="388.22" width="157.84" height="121.32" style="fill:#5da4a0"/><path d="M75.07,490.68c3.43-5,9.24-8.76,13.76-12.66l14.64-12.61c2.19-1.88-1-5-3.16-3.17l-16.37,14.1c-4.38,3.77-9.42,7.28-12.74,12.08-1.65,2.37,2.23,4.61,3.87,2.26Z" style="fill:#e5af34"/><path d="M230,491.63c6.64-8.73,13.48-17.31,19.62-26.4,1.62-2.4-2.26-4.64-3.86-2.26-6.15,9.09-13,17.67-19.63,26.4-1.74,2.3,2.14,4.53,3.87,2.26Z" style="fill:#e5af34"/><path d="M190.86,492.36a256.74,256.74,0,0,0,22-27.41c1.62-2.39-2.26-4.64-3.86-2.26A250.33,250.33,0,0,1,187.7,489.2c-1.92,2.13,1.23,5.31,3.16,3.16Z" style="fill:#2f4962"/><path d="M150.81,491.75l27-25.31c2.11-2-1.06-5.14-3.16-3.17l-27,25.31c-2.11,2,1.06,5.13,3.16,3.17Z" style="fill:#e5af34"/><path d="M113,491.26l27.09-24.21c2.16-1.92-1-5.08-3.16-3.16L109.85,488.1c-2.15,1.92,1,5.08,3.16,3.16Z" style="fill:#2f4962"/><path d="M611.2,488.21c-3.31-5.33-8.57-9.41-13.05-13.73L582.07,459c-2.19-2.11-5.54,1.23-3.34,3.34l14.47,13.91c4.65,4.47,10.49,8.81,13.91,14.32,1.61,2.58,5.7.2,4.09-2.39Z" style="fill:#e5af34"/><path d="M456.25,489.28c-6.65-9.76-13.51-19.37-19.63-29.47-1.58-2.6-5.67-.23-4.09,2.39,6.12,10.1,13,19.71,19.63,29.46,1.71,2.5,5.81.14,4.09-2.38Z" style="fill:#e5af34"/><path d="M494.68,489.11a276.62,276.62,0,0,1-21.33-29.61c-1.58-2.6-5.67-.22-4.08,2.39a283.87,283.87,0,0,0,22.07,30.56c1.9,2.37,5.23-1,3.34-3.34Z" style="fill:#2f4962"/><path d="M534.73,488.42q-13.51-14.12-27-28.24c-2.11-2.21-5.45,1.14-3.34,3.34q13.51,14.13,27,28.24c2.11,2.21,5.45-1.14,3.34-3.34Z" style="fill:#e5af34"/><path d="M572.53,487.88l-27.09-27c-2.16-2.15-5.5,1.19-3.34,3.35l27.09,27c2.15,2.15,5.5-1.19,3.34-3.35Z" style="fill:#2f4962"/><path d="M229.38,434.38C236,424.62,242.9,415,249,404.91c.76-1.25-2-1.2-2.6-.24-6.12,10.1-13,19.71-19.63,29.47-.81,1.18,2,1.16,2.6.24Z" style="fill:#e5af34"/><path d="M190.63,434.32a281,281,0,0,0,21.7-30.09c.16-.26-2.29-.17-2.7.5a281,281,0,0,1-21.7,30.09,3.77,3.77,0,0,0,2.7-.5Z" style="fill:#2f4962"/><path d="M150.35,434.18q13.52-14.13,27-28.24c1.14-1.2-1.52-1.35-2.24-.6q-13.52,14.13-27,28.24c-1.14,1.2,1.52,1.35,2.24.6Z" style="fill:#e5af34"/><path d="M112.69,433.32l27.09-27c.72-.71-2-.51-2.52.05l-27.09,27c-.71.71,2,.5,2.52-.05Z" style="fill:#2f4962"/><path d="M455.47,433.71c-6.65-9.76-13.51-19.36-19.62-29.47-.51-.83-3.17.07-2.54,1.1,6.12,10.11,13,19.71,19.63,29.47.55.81,3.21-.12,2.53-1.1Z" style="fill:#e5af34"/><path d="M392.5,467.45c-8.68-8-17.53-15.81-25.76-24.28-.68-.69-3.07.78-2.23,1.65,8.24,8.46,17.09,16.27,25.77,24.28.72.66,3.09-.84,2.22-1.65Z" style="fill:#fff"/><path d="M287.69,467.45c8.67-8,17.52-15.81,25.76-24.28.67-.69,3.06.78,2.22,1.65-8.24,8.46-17.08,16.27-25.76,24.28-.72.66-3.1-.84-2.22-1.65Z" style="fill:#fff"/><path d="M494.3,434.09a277.57,277.57,0,0,1-21.62-30c-.44-.72-3,.3-2.74.74a281.66,281.66,0,0,0,21.78,30.2c.45.55,3-.37,2.58-1Z" style="fill:#2f4962"/><path d="M534.34,433.37l-27-28.24c-.59-.62-3.18.37-2.56,1l27,28.24c.59.62,3.18-.37,2.56-1Z" style="fill:#e5af34"/><path d="M572.15,432.86l-27.09-27c-.53-.52-3.07.48-2.58,1l27.09,27c.53.53,3.06-.47,2.58-1Z" style="fill:#2f4962"/><path d="M461.61,530.24a18.44,18.44,0,0,0-1.06,6.15,18.44,18.44,0,0,0-1.07-6.15Z" style="fill:#2f4962"/><path d="M610.11,530.24a18.44,18.44,0,0,0-1.06,6.15,18.44,18.44,0,0,0-1.07-6.15Z" style="fill:#2f4962"/><path d="M573,530.24a18.69,18.69,0,0,0-1.06,6.15,18.69,18.69,0,0,0-1.06-6.15Z" style="fill:#2f4962"/><path d="M498.73,530.24a18.69,18.69,0,0,0-1.06,6.15,18.69,18.69,0,0,0-1.06-6.15Z" style="fill:#2f4962"/><path d="M535.86,530.24a18.44,18.44,0,0,0-1.06,6.15,18.44,18.44,0,0,0-1.07-6.15Z" style="fill:#2f4962"/><path d="M418.53,509.55H625.85v8.36a18.57,18.57,0,0,0-15.74,12.33H608a18.54,18.54,0,0,0-35,0h-2.12a18.54,18.54,0,0,0-35,0h-2.13a18.54,18.54,0,0,0-35,0h-2.12a18.54,18.54,0,0,0-35,0h-2.13a18.54,18.54,0,0,0-35,0h-6Z" style="fill:#2f4962"/><polygon points="464.1 549.27 460.47 549.27 460.47 579.89 462.28 579.89 466.61 552.89 464.1 549.27" style="fill:#2f4962"/><polygon points="457.56 549.27 461.19 549.27 461.19 579.89 459.38 579.89 455.05 552.89 457.56 549.27" style="fill:#2f4962"/><polygon points="457.56 549.27 461.19 549.27 461.19 526.03 459.38 526.03 455.05 546.53 457.56 549.27" style="fill:#2f4962"/><polygon points="464.1 549.27 460.47 549.27 460.47 526.03 462.28 526.03 466.61 546.53 464.1 549.27" style="fill:#2f4962"/><polygon points="500.94 549.27 497.31 549.27 497.31 579.89 499.12 579.89 503.45 552.89 500.94 549.27" style="fill:#2f4962"/><polygon points="494.4 549.27 498.03 549.27 498.03 579.89 496.22 579.89 491.89 552.89 494.4 549.27" style="fill:#2f4962"/><polygon points="494.4 549.27 498.03 549.27 498.03 526.03 496.22 526.03 491.89 546.53 494.4 549.27" style="fill:#2f4962"/><polygon points="500.94 549.27 497.31 549.27 497.31 526.03 499.12 526.03 503.45 546.53 500.94 549.27" style="fill:#2f4962"/><polygon points="537.78 549.27 534.15 549.27 534.15 579.89 535.96 579.89 540.29 552.89 537.78 549.27" style="fill:#2f4962"/><polygon points="531.24 549.27 534.88 549.27 534.88 579.89 533.06 579.89 528.73 552.89 531.24 549.27" style="fill:#2f4962"/><polygon points="531.24 549.27 534.88 549.27 534.88 526.03 533.06 526.03 528.73 546.53 531.24 549.27" style="fill:#2f4962"/><polygon points="537.78 549.27 534.15 549.27 534.15 526.03 535.96 526.03 540.29 546.53 537.78 549.27" style="fill:#2f4962"/><polygon points="574.62 549.27 570.99 549.27 570.99 579.89 572.8 579.89 577.13 552.89 574.62 549.27" style="fill:#2f4962"/><polygon points="568.08 549.27 571.72 549.27 571.72 579.89 569.9 579.89 565.58 552.89 568.08 549.27" style="fill:#2f4962"/><polygon points="568.08 549.27 571.72 549.27 571.72 526.03 569.9 526.03 565.58 546.53 568.08 549.27" style="fill:#2f4962"/><polygon points="574.62 549.27 570.99 549.27 570.99 526.03 572.8 526.03 577.13 546.53 574.62 549.27" style="fill:#2f4962"/><polygon points="611.46 549.27 607.83 549.27 607.83 579.89 609.65 579.89 613.97 552.89 611.46 549.27" style="fill:#2f4962"/><polygon points="604.92 549.27 608.56 549.27 608.56 579.89 606.74 579.89 602.42 552.89 604.92 549.27" style="fill:#2f4962"/><polygon points="604.92 549.27 608.56 549.27 608.56 526.03 606.74 526.03 602.42 546.53 604.92 549.27" style="fill:#2f4962"/><polygon points="611.46 549.27 607.83 549.27 607.83 526.03 609.65 526.03 613.97 546.53 611.46 549.27" style="fill:#2f4962"/><polygon points="215.9 549.27 219.53 549.27 219.53 579.89 217.72 579.89 213.39 552.89 215.9 549.27" style="fill:#2f4962"/><polygon points="222.44 549.27 218.8 549.27 218.8 579.89 220.62 579.89 224.94 552.89 222.44 549.27" style="fill:#2f4962"/><polygon points="222.44 549.27 218.8 549.27 218.81 526.03 220.62 526.03 224.94 546.53 222.44 549.27" style="fill:#2f4962"/><polygon points="215.9 549.27 219.53 549.27 219.53 526.03 217.72 526.03 213.39 546.53 215.9 549.27" style="fill:#2f4962"/><polygon points="179.06 549.27 182.69 549.27 182.69 579.89 180.87 579.89 176.55 552.89 179.06 549.27" style="fill:#2f4962"/><polygon points="185.59 549.27 181.96 549.27 181.96 579.89 183.78 579.89 188.1 552.89 185.59 549.27" style="fill:#2f4962"/><polygon points="185.59 549.27 181.96 549.27 181.96 526.03 183.78 526.03 188.1 546.53 185.59 549.27" style="fill:#2f4962"/><polygon points="179.06 549.27 182.69 549.27 182.69 526.03 180.87 526.03 176.55 546.53 179.06 549.27" style="fill:#2f4962"/><polygon points="142.22 549.27 145.85 549.27 145.85 579.89 144.03 579.89 139.71 552.89 142.22 549.27" style="fill:#2f4962"/><polygon points="148.75 549.27 145.12 549.27 145.12 579.89 146.94 579.89 151.26 552.89 148.75 549.27" style="fill:#2f4962"/><polygon points="148.75 549.27 145.12 549.27 145.12 526.03 146.94 526.03 151.26 546.53 148.75 549.27" style="fill:#2f4962"/><polygon points="142.22 549.27 145.85 549.27 145.85 526.03 144.03 526.03 139.71 546.53 142.22 549.27" style="fill:#2f4962"/><polygon points="105.38 549.27 109.01 549.27 109.01 579.89 107.19 579.89 102.87 552.89 105.38 549.27" style="fill:#2f4962"/><polygon points="111.91 549.27 108.28 549.27 108.28 579.89 110.1 579.89 114.42 552.89 111.91 549.27" style="fill:#2f4962"/><polygon points="111.91 549.27 108.28 549.27 108.28 526.03 110.1 526.03 114.42 546.53 111.91 549.27" style="fill:#2f4962"/><polygon points="105.38 549.27 109.01 549.27 109.01 526.03 107.19 526.03 102.87 546.53 105.38 549.27" style="fill:#2f4962"/><polygon points="68.54 549.27 72.17 549.27 72.17 579.89 70.35 579.89 66.03 552.89 68.54 549.27" style="fill:#2f4962"/><polygon points="75.07 549.27 71.44 549.27 71.44 579.89 73.26 579.89 77.58 552.89 75.07 549.27" style="fill:#2f4962"/><polygon points="75.07 549.27 71.44 549.27 71.44 526.03 73.26 526.03 77.58 546.53 75.07 549.27" style="fill:#2f4962"/><polygon points="68.54 549.27 72.17 549.27 72.17 526.03 70.35 526.03 66.03 546.53 68.54 549.27" style="fill:#2f4962"/><rect x="196.29" y="369.58" width="284.8" height="14.3" style="fill:#e5af34"/><rect x="241.56" y="383.88" width="37.63" height="37.63" style="fill:#9b5e33"/><rect x="400.09" y="383.88" width="37.63" height="37.63" style="fill:#9b5e33"/><path d="M335.12,388.77s65,2.25,65,32.73h37.63s-.24-28.32,25.33-29.35v-8.27H335.12Z" style="fill:#e5af34"/><path d="M343.15,388.77s-65,2.25-65,32.73H240.56s3.26-27.09-25.34-29.35v-8.27H343.15Z" style="fill:#e5af34"/><path d="M443.79,242.11a20.26,20.26,0,0,0-16.12-8H250.79a20.3,20.3,0,0,0-16.13,8l-65.2,85.7a6.33,6.33,0,0,0,5,10.16h35.64a21.28,21.28,0,0,1,41.43-3.24l0,3.24H269.1c3.85-32.9,33.37-58.86,70.13-61.26,36.75,2.4,66.27,28.36,70.13,61.26h17.51l0-3.24A21.28,21.28,0,0,1,468.33,338h34.35a7,7,0,0,0,5.54-11.18Z" style="fill:#e5af34"/><rect x="239.3" y="195.74" width="26.84" height="7.4" rx="3.7" ry="3.7" style="fill:#e5af34"/><polygon points="246.58 195.74 254.04 106.76 258.66 195.74 246.58 195.74" style="fill:#e5af34"/><rect x="413.89" y="195.74" width="26.84" height="7.4" rx="3.7" ry="3.7" style="fill:#e5af34"/><polygon points="421.16 195.74 428.63 106.76 433.25 195.74 421.16 195.74" style="fill:#e5af34"/><rect x="304.02" y="206.28" width="73.75" height="27.84" style="fill:#5da4a0"/><rect x="313.3" y="142.47" width="53.69" height="36.97" style="fill:#5da4a0"/><path d="M393.68,199.4a4.13,4.13,0,0,1-3.09,6.88h-103a3.72,3.72,0,0,1-2.75-6.11l15-18.19a11.7,11.7,0,0,1,9-4.3h60.77a10.39,10.39,0,0,1,7.76,3.52Z" style="fill:#e5af34"/><path d="M377.57,143.31H304.62a3.88,3.88,0,0,1-2.94-6.4l14-16.32a3.88,3.88,0,0,1,3-1.35h44.76a3.86,3.86,0,0,1,2.92,1.33l14.21,16.32A3.87,3.87,0,0,1,377.57,143.31Z" style="fill:#e5af34"/><path d="M335,526h8.77a16.74,16.74,0,0,1,16.74,16.74v37.13a0,0,0,0,1,0,0H318.63a0,0,0,0,1,0,0V542.4A16.37,16.37,0,0,1,335,526Z" style="fill:#5da4a0"/><rect x="315.04" y="470.43" width="81.3" height="5.75" rx="2.6" ry="2.6" transform="translate(420.88 -115.15) rotate(43.25)" style="fill:#e5af34"/><path d="M292.55,499.16l52.3-55.54a2.59,2.59,0,0,1,3.67-.12l.41.39a2.59,2.59,0,0,1,.11,3.67l-52.3,55.54a2.59,2.59,0,0,1-3.66.12l-.41-.39A2.59,2.59,0,0,1,292.55,499.16Z" style="fill:#e5af34"/><rect x="300.73" y="491.34" width="78.17" height="5.19" rx="2.6" ry="2.6" style="fill:#e5af34"/><rect x="373.88" y="509.55" width="13.73" height="70.35" style="fill:#2f4962"/><rect x="288.66" y="509.55" width="13.73" height="70.35" style="fill:#2f4962"/><polygon points="254.85 491.87 261.75 491.87 261.75 579.89 258.3 579.89 250.09 502.26 254.85 491.87" style="fill:#e5af34"/><polygon points="267.27 491.87 260.37 491.87 260.37 579.89 263.82 579.89 272.04 502.26 267.27 491.87" style="fill:#e5af34"/><polygon points="267.27 491.87 260.37 491.87 260.37 418.42 263.82 418.42 272.04 483.19 267.27 491.87" style="fill:#e5af34"/><polygon points="254.85 491.87 261.75 491.87 261.75 418.42 258.3 418.42 250.09 483.19 254.85 491.87" style="fill:#e5af34"/><polygon points="203.2 351.15 205.13 351.15 205.13 371.37 204.17 371.37 201.87 353.54 203.2 351.15" style="fill:#e5af34"/><polygon points="206.68 351.15 204.75 351.15 204.75 371.37 205.71 371.37 208.01 353.54 206.68 351.15" style="fill:#e5af34"/><polygon points="206.68 351.15 204.75 351.15 204.75 335.81 205.71 335.81 208.01 349.34 206.68 351.15" style="fill:#e5af34"/><polygon points="203.2 351.15 205.13 351.15 205.13 335.81 204.17 335.81 201.87 349.34 203.2 351.15" style="fill:#e5af34"/><polygon points="473.2 351.15 475.13 351.15 475.13 371.37 474.16 371.37 471.87 353.54 473.2 351.15" style="fill:#e5af34"/><polygon points="476.67 351.15 474.74 351.15 474.74 371.37 475.71 371.37 478.01 353.54 476.67 351.15" style="fill:#e5af34"/><polygon points="476.67 351.15 474.74 351.15 474.74 335.81 475.71 335.81 478.01 349.34 476.67 351.15" style="fill:#e5af34"/><polygon points="473.2 351.15 475.13 351.15 475.13 335.81 474.16 335.81 471.87 349.34 473.2 351.15" style="fill:#e5af34"/><polygon points="412.7 491.87 419.6 491.87 419.6 579.89 416.15 579.89 407.93 502.26 412.7 491.87" style="fill:#e5af34"/><polygon points="425.11 491.87 418.22 491.87 418.22 579.89 421.67 579.89 429.88 502.26 425.11 491.87" style="fill:#e5af34"/><polygon points="425.11 491.87 418.22 491.87 418.22 418.42 421.67 418.42 429.88 483.19 425.11 491.87" style="fill:#e5af34"/><polygon points="412.7 491.87 419.6 491.87 419.6 418.42 416.15 418.42 407.93 483.19 412.7 491.87" style="fill:#e5af34"/><path d="M206.71,310.3c2.06-4.72,5.53-8.33,8.24-12l8.77-12c1.31-1.79-.59-4.79-1.89-3L212,296.66c-2.63,3.59-5.65,6.93-7.64,11.49-1,2.25,1.34,4.38,2.32,2.15Z" style="fill:#5da4a0"/><path d="M252.08,311.31l16.2-24.07c1.26-1.88-.64-4.88-1.9-3l-16.2,24.07c-1.26,1.88.64,4.89,1.9,3Z" style="fill:#5da4a0"/><path d="M229.44,310.86l16.22-23c1.29-1.83-.61-4.83-1.89-3l-16.23,23c-1.29,1.83.61,4.84,1.9,3Z" style="fill:#2f4962"/><path d="M474.24,310.3c-2.06-4.72-5.54-8.33-8.25-12l-8.77-12c-1.31-1.79.59-4.79,1.9-3l9.8,13.41c2.62,3.59,5.64,6.93,7.63,11.49,1,2.25-1.34,4.38-2.31,2.15Z" style="fill:#5da4a0"/><path d="M428.86,311.31l-16.19-24.07c-1.26-1.88.63-4.88,1.89-3l16.2,24.07c1.26,1.88-.64,4.89-1.9,3Z" style="fill:#5da4a0"/><path d="M451.51,310.86l-16.23-23c-1.29-1.83.61-4.83,1.9-3l16.22,23c1.29,1.83-.61,4.84-1.89,3Z" style="fill:#2f4962"/><path d="M316.5,268c4.67-8.67,9.48-17.21,13.78-26.19.53-1.12-1.42-1.07-1.83-.22-4.29,9-9.11,17.52-13.78,26.2-.57,1,1.39,1,1.83.21Z" style="fill:#5da4a0"/><path d="M289.3,268a258.3,258.3,0,0,0,15.23-26.75c.11-.24-1.61-.15-1.9.44a252.68,252.68,0,0,1-15.23,26.75,2.19,2.19,0,0,0,1.9-.44Z" style="fill:#2f4962"/><path d="M261,267.82l19-25.1c.81-1.07-1.06-1.2-1.57-.53q-9.48,12.56-19,25.1c-.8,1.07,1.07,1.2,1.57.53Z" style="fill:#5da4a0"/><path d="M234.59,267.06l19-24c.5-.63-1.38-.45-1.77,0l-19,24c-.5.64,1.38.45,1.77,0Z" style="fill:#2f4962"/><path d="M363.51,268c-4.67-8.67-9.48-17.21-13.78-26.19-.53-1.12,1.42-1.07,1.83-.22,4.29,9,9.11,17.52,13.78,26.2.56,1-1.39,1-1.83.21Z" style="fill:#5da4a0"/><path d="M390.71,268a258.3,258.3,0,0,1-15.23-26.75c-.11-.24,1.61-.15,1.9.44a254.37,254.37,0,0,0,15.22,26.75,2.17,2.17,0,0,1-1.89-.44Z" style="fill:#2f4962"/><path d="M419,267.82l-19-25.1c-.81-1.07,1.06-1.2,1.57-.53l19,25.1c.81,1.07-1.06,1.2-1.57.53Z" style="fill:#5da4a0"/><path d="M445.41,267.06l-19-24c-.5-.63,1.38-.45,1.77,0l19,24c.51.64-1.38.45-1.77,0Z" style="fill:#2f4962"/><path d="M294.55,201.74a19.54,19.54,0,0,1,2.84-3.59l3-3.57c.45-.53-.21-1.42-.66-.89l-3.36,4a17.69,17.69,0,0,0-2.62,3.42c-.34.67.46,1.3.79.64Z" style="fill:#5da4a0"/><path d="M310.13,202l5.56-7.17c.43-.55-.22-1.45-.65-.89l-5.56,7.16c-.43.56.22,1.46.65.9Z" style="fill:#5da4a0"/><path d="M302.36,201.9l5.57-6.85c.44-.55-.21-1.44-.65-.9L301.71,201c-.45.54.21,1.43.65.89Z" style="fill:#2f4962"/><path d="M318.58,201.74a19.49,19.49,0,0,1,2.83-3.59l3-3.57c.45-.53-.2-1.42-.65-.89l-3.36,4a17.69,17.69,0,0,0-2.62,3.42c-.34.67.46,1.3.79.64Z" style="fill:#5da4a0"/><path d="M334.16,202l5.56-7.17c.43-.55-.22-1.45-.66-.89l-5.56,7.16c-.43.56.22,1.46.66.9Z" style="fill:#5da4a0"/><path d="M326.38,201.9l5.57-6.85c.45-.55-.21-1.44-.65-.9L325.73,201c-.44.54.21,1.43.65.89Z" style="fill:#2f4962"/><path d="M386.39,201.74a19.49,19.49,0,0,0-2.83-3.59l-3-3.57c-.45-.53.2-1.42.65-.89l3.36,4a17.69,17.69,0,0,1,2.62,3.42c.34.67-.46,1.3-.79.64Z" style="fill:#5da4a0"/><path d="M370.81,202l-5.56-7.17c-.43-.55.22-1.45.66-.89l5.55,7.16c.44.56-.21,1.46-.65.9Z" style="fill:#5da4a0"/><path d="M378.59,201.9,373,195.05c-.45-.55.21-1.44.65-.9l5.57,6.86c.44.54-.21,1.43-.65.89Z" style="fill:#2f4962"/><path d="M362.69,201.74a19.49,19.49,0,0,0-2.83-3.59l-3-3.57c-.45-.53.2-1.42.65-.89l3.36,4a17.69,17.69,0,0,1,2.62,3.42c.34.67-.46,1.3-.79.64Z" style="fill:#5da4a0"/><path d="M347.11,202l-5.56-7.17c-.43-.55.22-1.45.65-.89l5.56,7.16c.44.56-.21,1.46-.65.9Z" style="fill:#5da4a0"/><path d="M354.88,201.9l-5.57-6.85c-.44-.55.22-1.44.66-.9l5.57,6.86c.44.54-.21,1.43-.66.89Z" style="fill:#2f4962"/><path d="M335.1,189.15c1.6-2.58,3.25-5.12,4.73-7.8.18-.33-.49-.32-.63-.06-1.47,2.67-3.13,5.21-4.73,7.79-.19.32.48.31.63.07Z" style="fill:#5da4a0"/><path d="M325.76,189.13a74.79,74.79,0,0,0,5.23-8c0-.07-.55,0-.65.13a73.79,73.79,0,0,1-5.23,8,.79.79,0,0,0,.65-.13Z" style="fill:#2f4962"/><path d="M316.05,189.1l6.52-7.48c.27-.31-.37-.35-.54-.16l-6.51,7.48c-.28.31.36.35.53.16Z" style="fill:#5da4a0"/><path d="M307,188.87l6.53-7.15c.17-.19-.47-.14-.61,0l-6.53,7.15c-.17.19.48.13.61,0Z" style="fill:#2f4962"/><path d="M346.17,189.15c-1.6-2.58-3.25-5.12-4.73-7.8-.18-.33.49-.32.63-.06,1.47,2.67,3.13,5.21,4.73,7.79.19.32-.48.31-.63.07Z" style="fill:#5da4a0"/><path d="M355.51,189.13a73.28,73.28,0,0,1-5.23-8c0-.07.55,0,.65.13a72.32,72.32,0,0,0,5.23,8,.79.79,0,0,1-.65-.13Z" style="fill:#2f4962"/><path d="M365.21,189.1l-6.51-7.48c-.28-.31.36-.35.54-.16l6.51,7.48c.28.31-.36.35-.54.16Z" style="fill:#5da4a0"/><path d="M374.29,188.87l-6.53-7.15c-.17-.19.47-.14.61,0l6.52,7.15c.18.19-.47.13-.6,0Z" style="fill:#2f4962"/><path d="M305.48,138.08a15.43,15.43,0,0,1,2.13-2.89l2.27-2.87c.34-.43-.15-1.15-.49-.73l-2.54,3.22a14.49,14.49,0,0,0-2,2.75c-.26.54.35,1.05.6.52Z" style="fill:#5da4a0"/><path d="M317.22,138.32l4.2-5.77c.32-.45-.17-1.17-.5-.72l-4.19,5.77c-.32.45.17,1.17.49.72Z" style="fill:#5da4a0"/><path d="M311.36,138.21l4.2-5.52c.34-.44-.16-1.16-.49-.72l-4.2,5.52c-.33.44.16,1.16.49.72Z" style="fill:#2f4962"/><path d="M323.6,138.08a15.43,15.43,0,0,1,2.13-2.89l2.27-2.87c.34-.43-.15-1.15-.49-.73L325,134.81a14.06,14.06,0,0,0-2,2.75c-.26.54.34,1.05.6.52Z" style="fill:#5da4a0"/><path d="M335.34,138.32l4.19-5.77c.33-.45-.16-1.17-.49-.72l-4.19,5.77c-.33.45.17,1.17.49.72Z" style="fill:#5da4a0"/><path d="M329.48,138.21l4.2-5.52c.33-.44-.16-1.16-.49-.72l-4.2,5.52c-.33.44.16,1.16.49.72Z" style="fill:#2f4962"/><path d="M374.73,138.08a15.43,15.43,0,0,0-2.13-2.89l-2.27-2.87c-.34-.43.15-1.15.49-.73l2.53,3.22a14.1,14.1,0,0,1,2,2.75c.26.54-.35,1.05-.6.52Z" style="fill:#5da4a0"/><path d="M363,138.32l-4.2-5.77c-.32-.45.17-1.17.49-.72l4.2,5.77c.32.45-.17,1.17-.49.72Z" style="fill:#5da4a0"/><path d="M368.85,138.21l-4.2-5.52c-.34-.44.16-1.16.49-.72l4.2,5.52c.33.44-.16,1.16-.49.72Z" style="fill:#2f4962"/><path d="M356.86,138.08a15,15,0,0,0-2.14-2.89l-2.27-2.87c-.34-.43.16-1.15.49-.73l2.54,3.22a14.53,14.53,0,0,1,2,2.75c.25.54-.35,1.05-.6.52Z" style="fill:#5da4a0"/><path d="M345.11,138.32l-4.19-5.77c-.33-.45.17-1.17.49-.72l4.19,5.77c.33.45-.16,1.17-.49.72Z" style="fill:#5da4a0"/><path d="M351,138.21l-4.2-5.52c-.33-.44.16-1.16.49-.72l4.2,5.52c.34.44-.15,1.16-.49.72Z" style="fill:#2f4962"/><path d="M336.05,127.94c1.21-2.08,2.46-4.13,3.57-6.28.14-.27-.37-.26-.47,0-1.12,2.15-2.36,4.2-3.57,6.28-.15.25.36.24.47,0Z" style="fill:#5da4a0"/><path d="M329,127.93a60.22,60.22,0,0,0,3.94-6.42c0-.05-.41,0-.49.11a61.09,61.09,0,0,1-3.94,6.41.58.58,0,0,0,.49-.1Z" style="fill:#2f4962"/><path d="M321.69,127.9l4.91-6c.21-.26-.27-.29-.4-.13l-4.91,6c-.21.25.27.29.4.13Z" style="fill:#5da4a0"/><path d="M314.85,127.71l4.92-5.75c.13-.16-.36-.11-.46,0l-4.92,5.75c-.13.16.36.11.46,0Z" style="fill:#2f4962"/><path d="M344.4,127.94c-1.21-2.08-2.45-4.13-3.56-6.28-.14-.27.36-.26.47,0,1.11,2.15,2.36,4.2,3.57,6.28.14.25-.36.24-.48,0Z" style="fill:#5da4a0"/><path d="M351.44,127.93a60.22,60.22,0,0,1-3.94-6.42c0-.05.42,0,.49.11a61.09,61.09,0,0,0,3.94,6.41s-.39,0-.49-.1Z" style="fill:#2f4962"/><path d="M358.76,127.9l-4.91-6c-.21-.26.28-.29.41-.13l4.91,6c.21.25-.28.29-.41.13Z" style="fill:#5da4a0"/><path d="M365.6,127.71,360.68,122c-.13-.16.36-.11.46,0l4.92,5.75c.13.16-.35.11-.46,0Z" style="fill:#2f4962"/><circle cx="338.72" cy="350.74" r="82.79" style="fill:#2f4962"/><circle cx="338.55" cy="350.48" r="39.96" style="fill:#b27337"/><path d="M333.42,324.5c-2.07-3-2.54-6.06-1.47-9s3.07-5.55,3.41-8.64c.45-4.15-2.19-8.21-1.57-12.34.43-2.83,2.3-5.18,3.94-7.52s3.14-5.08,2.69-7.91c1.95,2.7,2.3,5.34,2.15,8.77s-1.79,6.31-.78,9.84c1.22,4.26,2.81,6,2.22,9.55-.47,2.74-1.94,5.07-1.72,7.9.34,4.32,4.32,6.38,3.16,10.55l-5.28,3.72-5.78-3.53Z" style="fill:#fff"/><path d="M340,324.82c-2.69-4.48-3.15-7.91-1.86-12,.9-2.84,2-5.5,1.14-9.51" style="fill:none;stroke:#e5af34;stroke-miterlimit:10;stroke-width:0.65161373290496px"/><circle cx="339.46" cy="304.28" r="1.55" style="fill:#e5af34"/><path d="M332,377.81c-2.07,3-2.54,6.06-1.46,9s3.06,5.55,3.4,8.64c.46,4.15-2.18,8.22-1.56,12.34.42,2.83,2.29,5.18,3.93,7.52s3.15,5.09,2.7,7.91c1.94-2.7,2.29-5.34,2.14-8.76s-1.79-6.32-.78-9.85c1.23-4.26,2.82-6,2.22-9.55-.46-2.74-1.94-5.07-1.71-7.9.34-4.32,4.31-6.37,3.15-10.55l-5.28-3.72L333,376.39Z" style="fill:#fff"/><path d="M338.53,377.48c-2.68,4.48-3.15,7.91-1.86,12,.9,2.83,2,5.5,1.15,9.5" style="fill:none;stroke:#e5af34;stroke-miterlimit:10;stroke-width:0.65161373290496px"/><circle cx="338.05" cy="398.03" r="1.55" style="fill:#e5af34"/><path d="M364.48,346.75c3-2.07,6-2.54,9-1.46s5.55,3.06,8.64,3.4c4.15.45,8.21-2.18,12.34-1.57,2.83.43,5.18,2.3,7.52,3.94s5.09,3.15,7.91,2.7c-2.7,1.94-5.34,2.29-8.77,2.14s-6.31-1.79-9.84-.78c-4.26,1.23-6,2.82-9.55,2.22-2.74-.46-5.07-1.94-7.9-1.72-4.32.35-6.37,4.32-10.55,3.16l-3.72-5.28,3.53-5.78Z" style="fill:#fff"/><path d="M364.15,353.28c4.48-2.69,7.91-3.15,12-1.86,2.84.9,5.5,2,9.51,1.15" style="fill:none;stroke:#e5af34;stroke-miterlimit:10;stroke-width:0.65161373290496px"/><circle cx="384.69" cy="352.79" r="1.55" style="fill:#e5af34"/><path d="M311.16,345.33c-3-2.07-6.05-2.54-9-1.46s-5.55,3.07-8.64,3.4c-4.15.46-8.21-2.18-12.34-1.56-2.83.42-5.18,2.3-7.52,3.93s-5.09,3.15-7.91,2.7c2.7,1.94,5.34,2.29,8.76,2.14s6.32-1.79,9.85-.77c4.26,1.22,6,2.81,9.55,2.21,2.74-.46,5.07-1.94,7.9-1.71,4.32.34,6.37,4.31,10.55,3.16l3.72-5.29-3.53-5.78Z" style="fill:#fff"/><path d="M311.49,351.86c-4.48-2.68-7.91-3.15-12-1.85-2.83.9-5.49,2-9.5,1.14" style="fill:none;stroke:#e5af34;stroke-miterlimit:10;stroke-width:0.65161373290496px"/><circle cx="290.95" cy="351.38" r="1.55" style="fill:#e5af34"/><path d="M359.78,366.89c3.61.68,6.08,2.49,7.38,5.31s1.76,6.09,3.7,8.52c2.62,3.25,7.36,4.26,9.84,7.62,1.7,2.29,2,5.28,2.53,8.09s1.37,5.83,3.69,7.5c-3.28-.53-5.4-2.15-7.71-4.68s-3.2-5.73-6.42-7.51c-3.87-2.15-6.24-2.26-8.32-5.18-1.61-2.27-2.21-5-4.37-6.8-3.3-2.82-7.56-1.46-9.69-5.23l1.1-6.37,6.58-1.59Z" style="fill:#fff"/><path d="M354.93,371.28c5.07,1.26,7.82,3.36,9.78,7.15,1.37,2.64,2.5,5.28,5.92,7.53" style="fill:none;stroke:#e5af34;stroke-miterlimit:10;stroke-width:0.65161373290496px"/><circle cx="369.8" cy="385.46" r="1.55" style="fill:#e5af34"/><path d="M323.09,328.19c-.69-3.61-2.49-6.08-5.32-7.38s-6.09-1.76-8.51-3.7c-3.26-2.62-4.27-7.36-7.62-9.84-2.3-1.7-5.29-2-8.1-2.53s-5.82-1.37-7.5-3.69c.53,3.28,2.16,5.4,4.68,7.71s5.73,3.2,7.51,6.42c2.15,3.87,2.27,6.24,5.19,8.32,2.26,1.61,4.95,2.21,6.8,4.37,2.81,3.3,1.45,7.56,5.22,9.69l6.37-1.1,1.59-6.58Z" style="fill:#fff"/><path d="M318.7,333c-1.27-5.06-3.37-7.81-7.16-9.77-2.64-1.37-5.28-2.5-7.53-5.92" style="fill:none;stroke:#e5af34;stroke-miterlimit:10;stroke-width:0.65161373290496px"/><circle cx="304.51" cy="318.17" r="1.55" style="fill:#e5af34"/><path d="M322.08,373.11c-.68,3.61-2.49,6.08-5.31,7.38s-6.09,1.76-8.52,3.71c-3.25,2.61-4.26,7.35-7.62,9.83-2.29,1.7-5.28,2-8.09,2.54s-5.83,1.37-7.5,3.68c.53-3.28,2.15-5.4,4.68-7.71s5.73-3.2,7.51-6.41c2.15-3.88,2.26-6.25,5.18-8.32,2.27-1.62,5-2.22,6.8-4.38,2.82-3.3,1.46-7.56,5.23-9.69l6.37,1.1,1.59,6.58Z" style="fill:#fff"/><path d="M317.69,368.27c-1.26,5.06-3.36,7.81-7.15,9.78-2.64,1.37-5.28,2.49-7.53,5.91" style="fill:none;stroke:#e5af34;stroke-miterlimit:10;stroke-width:0.65161373290496px"/><circle cx="303.51" cy="383.13" r="1.55" transform="translate(-184.91 402.06) rotate(-53.83)" style="fill:#e5af34"/><path d="M360.78,336.41c3.61-.68,6.08-2.48,7.38-5.31s1.76-6.09,3.7-8.52c2.62-3.25,7.36-4.26,9.84-7.61,1.69-2.3,2-5.29,2.53-8.1s1.37-5.83,3.68-7.5c-3.28.53-5.39,2.15-7.71,4.68s-3.2,5.73-6.41,7.51c-3.87,2.15-6.24,2.26-8.32,5.18-1.61,2.27-2.21,5-4.37,6.81-3.3,2.81-7.56,1.45-9.69,5.22l1.1,6.37,6.58,1.59Z" style="fill:#fff"/><path d="M355.93,332c5.07-1.27,7.82-3.37,9.78-7.16,1.37-2.64,2.5-5.28,5.92-7.53" style="fill:none;stroke:#e5af34;stroke-miterlimit:10;stroke-width:0.65161373290496px"/><circle cx="370.8" cy="317.84" r="1.55" transform="translate(-104.62 429.62) rotate(-53.83)" style="fill:#e5af34"/><circle cx="338.55" cy="350.48" r="30.58" style="fill:#e5af34"/><path d="M349.12,328.11a19.32,19.32,0,0,1-.23-5.79,12.78,12.78,0,0,1,2.09-5.48c1.12-1.63,2.4-2.9,3.36-4.43a12.81,12.81,0,0,0,1.9-4.92l1.13.17a14.2,14.2,0,0,1-1.93,5.44c-1,1.66-2.31,3.07-3.24,4.54a11,11,0,0,0-1.71,4.87,17.49,17.49,0,0,0,.36,5.28Z" style="fill:#e5af34"/><path d="M328.87,376.51a17.55,17.55,0,0,0-3.87,3.61,11,11,0,0,0-2.07,4.74c-.32,1.7-.31,3.64-.73,5.52a14,14,0,0,1-2.29,5.3L319,395a12.78,12.78,0,0,0,2-4.91c.34-1.76.27-3.57.57-5.52a12.64,12.64,0,0,1,2.2-5.44,19.66,19.66,0,0,1,4.12-4.08Z" style="fill:#e5af34"/><path d="M361.79,362.32a19.7,19.7,0,0,1,5.8-.23,12.75,12.75,0,0,1,5.47,2.1c1.64,1.11,2.91,2.4,4.43,3.35a12.81,12.81,0,0,0,4.93,1.91l-.18,1.12a13.78,13.78,0,0,1-5.43-1.93c-1.66-1-3.07-2.31-4.54-3.24a11.16,11.16,0,0,0-4.88-1.71,17.84,17.84,0,0,0-5.28.36Z" style="fill:#e5af34"/><path d="M313.4,342.07a17.81,17.81,0,0,0-3.62-3.87,11.26,11.26,0,0,0-4.73-2.07c-1.71-.32-3.65-.31-5.53-.72a14.06,14.06,0,0,1-5.29-2.3l.64-.94a12.73,12.73,0,0,0,4.9,2c1.77.35,3.57.27,5.53.57a12.66,12.66,0,0,1,5.43,2.21,19.15,19.15,0,0,1,4.08,4.11Z" style="fill:#e5af34"/><path d="M347.37,375.72a19.57,19.57,0,0,1,4.26,3.93A12.65,12.65,0,0,1,354,385c.38,1.94.37,3.75.78,5.5a12.81,12.81,0,0,0,2.15,4.83L356,396a13.89,13.89,0,0,1-2.49-5.21c-.49-1.86-.55-3.8-.94-5.49a11,11,0,0,0-2.24-4.65,17.39,17.39,0,0,0-4-3.47Z" style="fill:#e5af34"/><path d="M327.36,327.23a17.79,17.79,0,0,0,.17-5.29,11.16,11.16,0,0,0-1.9-4.81c-1-1.43-2.36-2.79-3.4-4.41a13.85,13.85,0,0,1-2.13-5.36l1.11-.22A12.8,12.8,0,0,0,323.3,312c1,1.49,2.34,2.71,3.52,4.3a12.62,12.62,0,0,1,2.29,5.4,19,19,0,0,1,0,5.79Z" style="fill:#e5af34"/><path d="M314.18,360.57a19.08,19.08,0,0,1-3.93,4.26,12.57,12.57,0,0,1-5.34,2.41c-2,.37-3.75.37-5.5.77a12.68,12.68,0,0,0-4.83,2.15l-.68-.92a14,14,0,0,1,5.21-2.49c1.86-.48,3.8-.55,5.49-.93a11.07,11.07,0,0,0,4.66-2.25,17.8,17.8,0,0,0,3.47-4Z" style="fill:#e5af34"/><path d="M362.68,340.56a17.78,17.78,0,0,0,5.29.17,11.14,11.14,0,0,0,4.81-1.9c1.43-1,2.79-2.36,4.41-3.4a14.1,14.1,0,0,1,5.36-2.13l.22,1.12a12.85,12.85,0,0,0-4.86,2.09c-1.48,1-2.71,2.34-4.3,3.51a12.72,12.72,0,0,1-5.39,2.3,19.77,19.77,0,0,1-5.8,0Z" style="fill:#e5af34"/><circle cx="361.95" cy="299.37" r="1.55" transform="translate(-83.24 449.14) rotate(-58.19)" style="fill:#e5af34"/><circle cx="314.86" cy="404.48" r="1.55" transform="translate(-178.71 542.78) rotate(-67.75)" style="fill:#e5af34"/><circle cx="391.6" cy="374.14" r="1.55" transform="translate(-132.94 509.04) rotate(-58.12)" style="fill:#e5af34"/><circle cx="280.62" cy="329.44" r="1.55" transform="translate(-130.52 464.52) rotate(-67.76)" style="fill:#e5af34"/><circle cx="359.53" cy="404.48" r="1.55" transform="translate(-69.76 74.96) rotate(-10.86)" style="fill:#e5af34"/><circle cx="315.32" cy="297.82" r="1.55" transform="translate(-91.4 147.14) rotate(-23.04)" style="fill:#e5af34"/><circle cx="282.17" cy="375" r="1.55" transform="translate(-72.59 67.77) rotate(-12.15)" style="fill:#e5af34"/><circle cx="391.6" cy="330.99" r="1.55" transform="translate(-98.02 178.76) rotate(-22.93)" style="fill:#e5af34"/><circle cx="338.55" cy="350.48" r="25.23" transform="translate(-137.57 454.2) rotate(-58.28)" style="fill:none;stroke:#fff;stroke-miterlimit:10;stroke-width:0.999015255370234px;stroke-dasharray:12.32874584197998,14.089996337890625"/><polygon points="514.12 579.89 514.83 537.65 517.45 537.65 518.16 579.89 514.12 579.89" style="fill:#e5af34"/><polygon points="477.05 579.89 477.77 537.65 480.38 537.65 481.1 579.89 477.05 579.89" style="fill:#fff"/><polygon points="437.72 579.89 438.43 537.65 441.05 537.65 441.76 579.89 437.72 579.89" style="fill:#e5af34"/><polygon points="399.09 579.89 399.8 537.65 402.42 537.65 403.13 579.89 399.09 579.89" style="fill:#fff"/><polygon points="275.14 579.89 275.86 537.65 278.47 537.65 279.19 579.89 275.14 579.89" style="fill:#fff"/><polygon points="239.54 579.89 240.25 537.65 242.87 537.65 243.58 579.89 239.54 579.89" style="fill:#e5af34"/><polygon points="199.1 579.89 199.82 537.65 202.43 537.65 203.15 579.89 199.1 579.89" style="fill:#fff"/><polygon points="162.75 579.89 163.46 537.65 166.08 537.65 166.79 579.89 162.75 579.89" style="fill:#e5af34"/><polygon points="124.97 579.89 125.69 537.65 128.31 537.65 129.02 579.89 124.97 579.89" style="fill:#fff"/><polygon points="89.03 579.89 89.75 537.65 92.36 537.65 93.08 579.89 89.03 579.89" style="fill:#e5af34"/><polygon points="552.02 579.89 552.74 537.65 555.35 537.65 556.07 579.89 552.02 579.89" style="fill:#fff"/><polygon points="588.64 579.89 589.35 537.65 591.97 537.65 592.68 579.89 588.64 579.89" style="fill:#e5af34"/><path d="M426.68,414.15a.67.67,0,0,1-.62-.73h0a.66.66,0,0,1,.71-.61h0a.67.67,0,0,1,.62.72h0a.66.66,0,0,1-.67.62h-.05Zm1.17-6.66a.66.66,0,0,1-.47-.82h0a.66.66,0,0,1,.83-.47h0a.67.67,0,0,1,.47.82h0a.67.67,0,0,1-.64.5h0A1.25,1.25,0,0,1,427.85,407.49Zm2.22-6.36a.68.68,0,0,1-.32-.9h0a.68.68,0,0,1,.9-.33h0a.71.71,0,0,1,.33.91h0a.7.7,0,0,1-.62.37h0A.74.74,0,0,1,430.07,401.13Zm3.36-5.84a.66.66,0,0,1-.12-.94h0a.67.67,0,0,1,.95-.12h0a.67.67,0,0,1,.11.94h0a.61.61,0,0,1-.52.26h0A.65.65,0,0,1,433.43,395.29Zm4.68-4.82a.66.66,0,0,1,.16-.94h0a.66.66,0,0,1,.93.16h0a.67.67,0,0,1-.15.94h0a.71.71,0,0,1-.39.12h0A.64.64,0,0,1,438.11,390.47Zm5.9-3.17a.68.68,0,0,1,.44-.85h0a.7.7,0,0,1,.85.45h0a.68.68,0,0,1-.44.85h0l-.2,0h0A.69.69,0,0,1,444,387.3Zm6.59-1.23a.67.67,0,0,1,.66-.68h0a.67.67,0,0,1,.69.66h0a.67.67,0,0,1-.66.68h0A.67.67,0,0,1,450.6,386.07Z" style="fill:#2f4962"/><path d="M415,414.39a.91.91,0,0,1-.83-1h0a.9.9,0,0,1,1-.84h0a.91.91,0,0,1,.85,1h0a.93.93,0,0,1-.92.85h0Zm1.61-9.07a.91.91,0,0,1-.65-1.13h0a.91.91,0,0,1,1.13-.63h0a.92.92,0,0,1,.65,1.13h0a.93.93,0,0,1-.89.66h0A.66.66,0,0,1,416.64,405.32Zm3-8.68a.91.91,0,0,1-.43-1.21h0a.93.93,0,0,1,1.22-.45h0a.93.93,0,0,1,.44,1.23h0a.94.94,0,0,1-.83.53h0A.88.88,0,0,1,419.65,396.64Zm4.59-7.95a.9.9,0,0,1-.16-1.28h0a.91.91,0,0,1,1.29-.16h0a.92.92,0,0,1,.16,1.28h0a.93.93,0,0,1-.73.36h0A.89.89,0,0,1,424.24,388.69Zm6.37-6.56a.91.91,0,0,1,.22-1.28h0a.88.88,0,0,1,1.26.21h0a.91.91,0,0,1-.2,1.28h0a1,1,0,0,1-.54.18h0A.92.92,0,0,1,430.61,382.13Zm8.05-4.32a.92.92,0,0,1,.59-1.16h0a1,1,0,0,1,1.16.61h0a.92.92,0,0,1-.61,1.15h0a.68.68,0,0,1-.28,0h0A.9.9,0,0,1,438.66,377.81Zm9-1.67a.92.92,0,0,1,.89-.94h0a.93.93,0,0,1,1,.9h0a.92.92,0,0,1-.91.94h0A.93.93,0,0,1,447.63,376.14Zm18.36,0a.92.92,0,0,1,.93-.91h0a.92.92,0,0,1,.92.91h0a.92.92,0,0,1-.92.92h0A.92.92,0,0,1,466,376.11Zm-9.18,0a.92.92,0,0,1,.92-.91h0a.91.91,0,0,1,.92.91h0a.91.91,0,0,1-.92.92h0A.92.92,0,0,1,456.81,376.11Z" style="fill:#2f4962"/><path d="M253.11,414.15h0a.66.66,0,0,1-.67-.62h0a.67.67,0,0,1,.62-.72h0a.66.66,0,0,1,.71.61h0a.67.67,0,0,1-.62.73Zm-1.31-6.63h0a.67.67,0,0,1-.64-.5h0a.67.67,0,0,1,.47-.82h0a.66.66,0,0,1,.83.47h0a.66.66,0,0,1-.47.82A1.08,1.08,0,0,1,251.8,407.52Zm-2.31-6.34h0a.68.68,0,0,1-.62-.37h0a.69.69,0,0,1,.32-.91h0a.68.68,0,0,1,.9.33h0a.67.67,0,0,1-.32.9A.72.72,0,0,1,249.49,401.18Zm-3.5-5.75h0a.61.61,0,0,1-.52-.26h0a.67.67,0,0,1,.11-.94h0a.67.67,0,0,1,.95.12h0a.66.66,0,0,1-.12.94A.65.65,0,0,1,246,395.43Zm-4.81-4.68h0a.71.71,0,0,1-.39-.12h0a.68.68,0,0,1-.15-.94h0a.66.66,0,0,1,.93-.16h0a.67.67,0,0,1-.39,1.22Zm-6-3h0l-.21,0h0a.68.68,0,0,1-.44-.85h0a.7.7,0,0,1,.85-.45h0a.68.68,0,0,1-.2,1.32Zm-6.62-1h0a.67.67,0,0,1-.66-.68h0a.67.67,0,0,1,.69-.66h0a.66.66,0,0,1,.66.68A.67.67,0,0,1,228.57,386.73Z" style="fill:#2f4962"/><path d="M264.73,414.41h0a.93.93,0,0,1-.92-.85h0a.91.91,0,0,1,.85-1h0a.92.92,0,0,1,1,.84h0a.92.92,0,0,1-.84,1ZM263,405.35h0a.94.94,0,0,1-.89-.66h0a.93.93,0,0,1,.65-1.13h0a.9.9,0,0,1,1.13.63h0a.92.92,0,0,1-.64,1.13A.72.72,0,0,1,263,405.35Zm-3.16-8.61h0a1,1,0,0,1-.84-.53h0a.93.93,0,0,1,.45-1.23h0a.92.92,0,0,1,1.21.45h0a.9.9,0,0,1-.43,1.21A.87.87,0,0,1,259.8,396.74ZM255,388.89h0a.93.93,0,0,1-.73-.36h0a.92.92,0,0,1,.16-1.28h0a.92.92,0,0,1,1.3.16h0a.9.9,0,0,1-.17,1.28A.89.89,0,0,1,255,388.89Zm-6.55-6.37h0a1,1,0,0,1-.54-.18h0a.91.91,0,0,1-.2-1.28h0a.88.88,0,0,1,1.26-.21h0a.91.91,0,0,1,.22,1.28A.92.92,0,0,1,248.49,382.52Zm-8.17-4.07h0a.68.68,0,0,1-.28,0h0a.92.92,0,0,1-.61-1.15h0a1,1,0,0,1,1.16-.61h0a.91.91,0,0,1,.59,1.16A.9.9,0,0,1,240.32,378.45Zm-9-1.41h0a.93.93,0,0,1-.91-.94h0a.94.94,0,0,1,.95-.9h0a.92.92,0,0,1,.89.94A.93.93,0,0,1,231.29,377Zm-18.37,0h0a.92.92,0,0,1-.92-.92h0a.92.92,0,0,1,.92-.91h0a.92.92,0,1,1,0,1.83Zm9.19,0h0a.9.9,0,0,1-.91-.92h0a.9.9,0,0,1,.91-.91h0a.92.92,0,1,1,0,1.83Z" style="fill:#2f4962"/><rect x="334.9" y="157.88" width="9.12" height="23.47" rx="4.56" ry="4.56" style="fill:#e5af34"/><rect x="334.9" y="214.49" width="9.12" height="23.47" rx="4.56" ry="4.56" style="fill:#e5af34"/><rect x="335.12" y="544.72" width="9.12" height="35.17" style="fill:#e5af34"/><circle cx="478.01" cy="226.22" r="2.27" style="fill:#e5af34"/><circle cx="196.64" cy="226.22" r="2.27" style="fill:#e5af34"/><circle cx="397.53" cy="160.95" r="2.27" style="fill:#e5af34"/><circle cx="279.71" cy="160.95" r="2.27" style="fill:#e5af34"/><circle cx="109.13" cy="376.11" r="5.55" style="fill:#e5af34"/><circle cx="164.77" cy="299.37" r="5.55" style="fill:#e5af34"/><circle cx="568.65" cy="376.11" r="5.55" style="fill:#e5af34"/><circle cx="514.12" cy="295.42" r="5.55" style="fill:#e5af34"/><circle cx="665.29" cy="473.31" r="5.55" style="fill:#5da4a0"/><circle cx="6.83" cy="473.31" r="5.55" style="fill:#5da4a0"/><circle cx="27.34" cy="552.96" r="5.55" style="fill:#3176a9"/><circle cx="577.13" cy="593.25" r="5.55" style="fill:#e5af34"/><circle cx="100.39" cy="593.25" r="5.55" style="fill:#e5af34"/></g></g></g></svg>