<svg id="Layer_1" data-name="Layer 1" xmlns="http://www.w3.org/2000/svg" viewBox="0 0 1195.73 660.71"><defs><style>.cls-1{fill:#2f4962;}.cls-2{fill:#fff;}.cls-3,.cls-4{fill:none;stroke:#a0a952;stroke-miterlimit:10;}.cls-3{stroke-width:1.89px;}.cls-4{stroke-width:1.33px;}</style></defs><title>9</title><rect class="cls-1" x="-47.27" y="-46.29" width="1287" height="730.1"/><path class="cls-2" d="M1014.4,311.11c-6.32-6.91-13.94-12.14-21.9-16.92h0l-3.19-2.09a27.7,27.7,0,0,1-9-10.52,11.62,11.62,0,0,0-5.86-5.41,23.55,23.55,0,0,0-14.07-1.78c-5.24.94-10,2.73-14.13,6.58-4.35,4-6,8.31-4.93,13.92.55,2.77,1.2,5.53,1.91,8.26a14.58,14.58,0,0,0,10.91,11.14,13.24,13.24,0,0,0,15.61-6.49c3.79-7.25-3.43-14-8.71-13.81-3.68.15-5.28,3-3.37,6.11.42.68,1,1.29,1.46,1.93a1.87,1.87,0,0,1-.46,2.75,2.27,2.27,0,0,1-2.17-.29,13.25,13.25,0,0,1-4.15-8.71,4.19,4.19,0,0,1,3.37-4.63,24.29,24.29,0,0,1,6.86-.3c5.8.61,10.31,4.29,11.53,9.28a32.67,32.67,0,0,1,.5,5l-2.23,5.62a14.31,14.31,0,0,1-10.33,7.78l-6.53.18c-7.93-1.28-14-5.27-16.28-13.14-1.06-3.75-2.8-5.29-6.25-5.72-.22,0-.44-.13-.67-.17-6.89-1.18-13.3-.87-19.08,4.07-4.61,3.94-9.83,7.21-16.8,6.06.4.59.57.89.78,1.15,5.11,6.36,11.92,9.23,19.9,9.82a8.26,8.26,0,0,1,3.94,1.43,67.57,67.57,0,0,0,19.62,9.57h0l.57.15c.51.14,1,.3,1.53.43a1.38,1.38,0,0,0,.22,0l2.14.55,0,0,.76.14,2.6.66.17-.18c7.05,1.05,13.78.68,20.24-1.86,7.25-2.85,14.3-6.22,21.3-9.65,7.31-3.58,14.83-5.05,22.87-3.45,2.77.55,5.54,1.06,8.31,1.58l.39-.43C1019.31,316.88,1017,313.9,1014.4,311.11Z"/><path class="cls-3" d="M930.49,314.33c9.43,7.23,21.83,10.9,33.45,8.47,12-2.52,22.72-12.17,25-24.27"/><path class="cls-3" d="M923.31,306.18a16,16,0,0,0,2.61,4"/><path class="cls-3" d="M947.42,293.8c-.73-4.47,2.64-8.74,6.73-10.08s8.57-1,12.74.06a19.9,19.9,0,0,1,6.83,2.93,15.91,15.91,0,0,1,4.62,5.34,19.42,19.42,0,0,1,2.33,10.73s-.3,11.16-7.76,16.7"/><path class="cls-3" d="M1005.36,310.49c1.5.52,3,1.12,4.35,1.75"/><path class="cls-3" d="M978.3,315.85c9.06-6.38,15.29-8.19,22-6.8"/><path class="cls-2" d="M1055.79,364.24c-4.46-4.88-9.83-8.57-15.45-11.94h0l-2.25-1.47a19.5,19.5,0,0,1-6.33-7.43,8.25,8.25,0,0,0-4.14-3.82,16.59,16.59,0,0,0-9.93-1.25,18.9,18.9,0,0,0-10,4.64c-3.07,2.83-4.28,5.87-3.48,9.82.39,2,.85,3.9,1.35,5.84a10.29,10.29,0,0,0,7.69,7.86,9.36,9.36,0,0,0,11-4.58c2.68-5.12-2.42-9.91-6.15-9.75-2.59.11-3.72,2.1-2.37,4.31a16.34,16.34,0,0,0,1,1.37,1.31,1.31,0,0,1-.33,1.93,1.59,1.59,0,0,1-1.53-.2,9.37,9.37,0,0,1-2.93-6.15,3,3,0,0,1,2.38-3.27,17.86,17.86,0,0,1,4.84-.21c4.1.43,7.28,3,8.14,6.55a24.16,24.16,0,0,1,.36,3.52l-1.58,4a10.08,10.08,0,0,1-7.29,5.48l-4.61.13c-5.6-.9-9.91-3.72-11.49-9.27-.75-2.65-2-3.74-4.41-4-.16,0-.31-.09-.47-.12-4.87-.83-9.39-.61-13.47,2.87-3.26,2.78-6.94,5.09-11.86,4.28.28.42.4.63.55.81,3.61,4.49,8.41,6.51,14,6.94a5.85,5.85,0,0,1,2.78,1,48,48,0,0,0,13.84,6.76h0l.4.1,1.08.3a.77.77,0,0,0,.15,0l1.52.39,0,0,.54.1,1.84.47.12-.13a27.19,27.19,0,0,0,14.28-1.32c5.12-2,10.1-4.38,15-6.8a24.72,24.72,0,0,1,16.14-2.44c2,.39,3.91.74,5.87,1.12l.27-.31C1059.26,368.31,1057.6,366.21,1055.79,364.24Z"/><path class="cls-4" d="M996.57,366.51c6.66,5.11,15.41,7.69,23.61,6,8.51-1.78,16-8.59,17.63-17.13"/><path class="cls-4" d="M991.51,360.76a10.71,10.71,0,0,0,1.84,2.82"/><path class="cls-4" d="M1008.52,352c-.52-3.15,1.87-6.17,4.75-7.11a16.26,16.26,0,0,1,9,0,14.23,14.23,0,0,1,4.83,2.07,11.22,11.22,0,0,1,3.25,3.77,13.62,13.62,0,0,1,1.65,7.57s-.21,7.88-5.48,11.79"/><path class="cls-4" d="M1049.42,363.8c1.06.37,2.08.79,3.06,1.24"/><path class="cls-4" d="M1030.32,367.59c6.39-4.51,10.79-5.78,15.49-4.81"/><path class="cls-2" d="M270.13,343c-6.32-6.91-13.94-12.14-21.9-16.92h0L245,324a27.67,27.67,0,0,1-9-10.52,11.71,11.71,0,0,0-5.87-5.42,23.6,23.6,0,0,0-14.06-1.77c-5.24.94-10,2.73-14.13,6.58-4.36,4-6.06,8.31-4.94,13.91.56,2.78,1.21,5.53,1.92,8.27a14.59,14.59,0,0,0,10.91,11.14,13.24,13.24,0,0,0,15.6-6.49c3.8-7.25-3.43-14-8.71-13.81-3.67.15-5.27,3-3.36,6.11.42.68,1,1.29,1.46,1.93a1.87,1.87,0,0,1-.47,2.75,2.27,2.27,0,0,1-2.16-.29,13.27,13.27,0,0,1-4.16-8.72,4.22,4.22,0,0,1,3.38-4.63,24.59,24.59,0,0,1,6.85-.29c5.81.61,10.32,4.29,11.53,9.28a32.62,32.62,0,0,1,.51,5l-2.23,5.62a14.27,14.27,0,0,1-10.33,7.77l-6.53.19c-7.93-1.29-14-5.27-16.28-13.15-1.07-3.74-2.8-5.28-6.25-5.71-.23,0-.45-.13-.67-.17-6.9-1.18-13.3-.87-19.08,4.07-4.62,3.94-9.84,7.2-16.81,6.06.4.59.57.89.78,1.15,5.12,6.36,11.92,9.23,19.91,9.82a8.29,8.29,0,0,1,3.94,1.43,67.7,67.7,0,0,0,19.62,9.57h0l.58.15c.51.14,1,.3,1.52.43a1.64,1.64,0,0,0,.22,0l2.15.55-.05,0c.26.06.51.09.77.14l2.59.67.17-.18c7.05,1,13.78.67,20.24-1.86,7.25-2.85,14.31-6.22,21.31-9.65,7.31-3.58,14.82-5.05,22.86-3.45,2.77.55,5.55,1.05,8.32,1.58l.38-.43C275.05,348.81,272.69,345.83,270.13,343Z"/><path class="cls-3" d="M186.23,346.26c9.43,7.23,21.83,10.89,33.44,8.47,12.06-2.52,22.72-12.17,25-24.28"/><path class="cls-3" d="M179.05,338.11a15.49,15.49,0,0,0,2.61,4"/><path class="cls-3" d="M203.16,325.73c-.74-4.47,2.64-8.74,6.72-10.08s8.57-1,12.74.06a20.12,20.12,0,0,1,6.84,2.92,15.92,15.92,0,0,1,4.61,5.35,19.52,19.52,0,0,1,2.34,10.73s-.3,11.16-7.76,16.7"/><path class="cls-3" d="M261.1,342.41c1.5.53,2.95,1.13,4.34,1.76"/><path class="cls-3" d="M234,347.78c9.05-6.38,15.28-8.19,21.94-6.81"/><path class="cls-2" d="M311.53,396.17c-4.46-4.88-9.84-8.57-15.46-11.94h0l-2.26-1.48a19.48,19.48,0,0,1-6.33-7.42,8.21,8.21,0,0,0-4.14-3.82,16.57,16.57,0,0,0-9.92-1.25,18.89,18.89,0,0,0-10,4.64c-3.07,2.83-4.27,5.86-3.48,9.82.39,2,.85,3.9,1.35,5.83a10.3,10.3,0,0,0,7.7,7.87,9.37,9.37,0,0,0,11-4.58c2.67-5.12-2.43-9.91-6.15-9.75-2.59.11-3.72,2.1-2.38,4.31.3.48.69.91,1,1.36a1.31,1.31,0,0,1-.33,1.94,1.59,1.59,0,0,1-1.52-.2,9.41,9.41,0,0,1-2.94-6.15,3,3,0,0,1,2.39-3.27,17.44,17.44,0,0,1,4.84-.21c4.09.43,7.28,3,8.13,6.55a22.85,22.85,0,0,1,.36,3.52l-1.58,4a10.06,10.06,0,0,1-7.29,5.48l-4.6.13c-5.6-.91-9.92-3.72-11.49-9.28-.76-2.64-2-3.73-4.41-4-.17,0-.32-.09-.48-.12-4.87-.84-9.39-.61-13.47,2.87-3.25,2.78-6.94,5.09-11.85,4.28.28.42.4.62.55.81,3.6,4.49,8.41,6.51,14,6.93a5.89,5.89,0,0,1,2.78,1,48,48,0,0,0,13.85,6.76h0l.41.11c.36.1.71.21,1.07.3h.16l1.51.39,0,0,.54.09,1.83.48.12-.13a27.42,27.42,0,0,0,14.29-1.32c5.11-2,10.09-4.38,15-6.8a24.73,24.73,0,0,1,16.14-2.44c2,.39,3.91.74,5.87,1.11l.27-.3C315,400.24,313.33,398.14,311.53,396.17Z"/><path class="cls-4" d="M252.31,398.44c6.65,5.1,15.41,7.69,23.6,6,8.51-1.78,16-8.59,17.64-17.13"/><path class="cls-4" d="M247.24,392.69a11.23,11.23,0,0,0,1.84,2.82"/><path class="cls-4" d="M264.26,384c-.52-3.16,1.86-6.17,4.74-7.11a16.17,16.17,0,0,1,9,0,14.24,14.24,0,0,1,4.83,2.06,11.29,11.29,0,0,1,3.26,3.78,13.77,13.77,0,0,1,1.65,7.57s-.22,7.88-5.48,11.79"/><path class="cls-4" d="M305.15,395.73c1.06.37,2.09.79,3.07,1.23"/><path class="cls-4" d="M286.05,399.51c6.39-4.5,10.79-5.78,15.49-4.8"/></svg>