<svg id="Layer_1" data-name="Layer 1" xmlns="http://www.w3.org/2000/svg" viewBox="0 0 253.25 151.84"><title>29-01</title><g id="Layer_1-2" data-name="Layer 1"><path d="M561.68,358.85a189.93,189.93,0,0,1,17.23-15.08c-6.87-8.22-9.45-17.51-9.45-27.28,0-14.1,8.17-27.27,21.73-37.7,10.54-8.1,24-16.29,40-20.59,13.52-3.63,29-3.31,44.9-3.31s31.39-.36,44.91,3.27c16,4.3,28,14.51,38.5,22.61,13.6,10.43,24.5,21.62,24.5,35.72s-9.36,27.32-22.92,37.75c-10.54,8.1-24.48,14.73-40.48,19-13.52,3.63-28.64,7.86-44.49,7.86-12.32,0-23.65-6.11-34.66-8.36-12.35-2.53-23-9-33.89-9.11-10.36-.08-17.52,6.91-24.88,9.23-10.47,3.29-18.83,5.14-28.08,11.06-9.44,6.05-18.41,13-23.85,22.8C536.06,388.52,548.06,372.06,561.68,358.85Z" transform="translate(-530.75 -254.88)" style="fill:#fff"/></g></svg>