<svg id="Layer_1" data-name="Layer 1" xmlns="http://www.w3.org/2000/svg" xmlns:xlink="http://www.w3.org/1999/xlink" viewBox="0 0 1769.49 1080"><defs><style>.cag2{opacity:0.5;}.cag3{fill:url(#lgcag);}.cag4{fill:url(#lgcag2);}.cag5{fill:url(#lgcag3);}.cag6{fill:url(#lgcag4);}.cag7{fill:url(#lgcag5);}.cag8{fill:url(#lgcag6);}.cag9{fill:url(#lgcag7);}.cag10{fill:url(#lgcag8);}</style><linearGradient id="lgcag" x1="994.72" y1="609.24" x2="995.56" y2="562.81" gradientUnits="userSpaceOnUse"><stop offset="0" stop-color="#3b6660" stop-opacity="0"/><stop offset="1" stop-color="#305051"/></linearGradient><linearGradient id="lgcag2" x1="1164.85" y1="543.47" x2="1165.7" y2="497.04" xlink:href="#lgcag"/><linearGradient id="lgcag3" x1="604.92" y1="535.66" x2="605.76" y2="489.23" xlink:href="#lgcag"/><linearGradient id="lgcag4" x1="777.33" y1="485.34" x2="777.87" y2="455.96" xlink:href="#lgcag"/><linearGradient id="lgcag5" x1="1021.57" y1="502.72" x2="1022.1" y2="473.33" xlink:href="#lgcag"/><linearGradient id="lgcag6" x1="1225.35" y1="509.49" x2="1225.88" y2="480.1" xlink:href="#lgcag"/><linearGradient id="lgcag7" x1="539.87" y1="509.49" x2="540.41" y2="480.1" xlink:href="#lgcag"/><linearGradient id="lgcag8" x1="795.97" y1="599.53" x2="796.82" y2="553.1" xlink:href="#lgcag"/></defs><title>36</title><g class="cag2"><path class="cag3" d="M1072.82,594.42c-5.18-4.33-13.6,2.1-19.62-.95-6.25-3.16-5.59-14.21-12.29-16.23-4.16-1.25-9.22,1.88-13,.91-.09-5.46-1.09-10.47-4.83-14.25-1.16-1.58-5.45-4.54-11.11-4.53-15.83,0-17.25,10.36-18.47,14.31-4,.3-8.32-4-12.74-3.68-7,.52-8.72,11.45-15.5,13.18-6.54,1.68-13.37-6.41-19.36-3.31-4,2.09-4.42,7.77-7.44,11.16-2.52,2.82-6.54,3.7-10.3,4s-7.67.25-11.13,1.77l-.1.05a4.66,4.66,0,0,0,.86,8.76h152.31a5.45,5.45,0,0,0,5.25-6.93A8.27,8.27,0,0,0,1072.82,594.42Z"/></g><g class="cag2"><path class="cag4" d="M1243,528.65c-5.19-4.32-13.6,2.1-19.63-.95-6.24-3.15-5.59-14.21-12.28-16.22-4.17-1.26-9.23,1.87-13,.9-.08-5.46-1.08-10.46-4.82-14.25-1.17-1.57-5.45-4.54-11.12-4.53-15.82,0-17.25,10.36-18.46,14.31-4,.3-8.32-4-12.74-3.68-7,.52-8.72,11.45-15.5,13.19-6.54,1.67-13.37-6.42-19.37-3.32-4,2.09-4.41,7.77-7.44,11.16-2.51,2.82-6.53,3.7-10.29,4s-7.68.25-11.14,1.77l-.1.05c-4.18,1.89-3.21,7.83.87,8.76h152.31a5.45,5.45,0,0,0,5.25-6.93A8.27,8.27,0,0,0,1243,528.65Z"/></g><g class="cag2"><path class="cag5" d="M683,520.84c-5.18-4.32-13.6,2.1-19.62-1-6.24-3.16-5.59-14.21-12.29-16.22-4.16-1.26-9.22,1.87-13,.9-.09-5.46-1.09-10.46-4.83-14.25-1.16-1.57-5.45-4.54-11.11-4.53-15.83,0-17.25,10.36-18.47,14.31-4,.3-8.32-4-12.73-3.68-7,.52-8.73,11.45-15.51,13.19-6.54,1.67-13.36-6.42-19.36-3.32-4,2.09-4.42,7.77-7.44,11.16-2.52,2.82-6.54,3.7-10.3,4s-7.67.25-11.13,1.77l-.1,0A4.66,4.66,0,0,0,528,532H680.28a5.45,5.45,0,0,0,5.25-6.93A8.27,8.27,0,0,0,683,520.84Z"/></g><g class="cag2"><path class="cag6" d="M826.77,476c-3.28-2.73-8.61,1.33-12.42-.6s-3.54-9-7.78-10.27c-2.63-.79-5.84,1.19-8.24.58-.06-3.46-.69-6.63-3.06-9a9.53,9.53,0,0,0-7-2.87c-10,0-10.92,6.56-11.69,9.06-2.52.19-5.27-2.54-8.06-2.33-4.42.33-5.53,7.25-9.81,8.34s-8.47-4.06-12.26-2.09c-2.56,1.32-2.8,4.92-4.71,7.06-1.59,1.78-4.14,2.34-6.52,2.54s-4.86.16-7,1.12l-.07,0a3,3,0,0,0,.55,5.54H825a3.45,3.45,0,0,0,3.33-4.38A5.35,5.35,0,0,0,826.77,476Z"/></g><g class="cag2"><path class="cag7" d="M1071,493.34c-3.29-2.74-8.61,1.32-12.43-.6s-3.53-9-7.77-10.27c-2.64-.8-5.84,1.18-8.24.57-.06-3.46-.69-6.63-3.06-9a9.55,9.55,0,0,0-7-2.87c-10,0-10.92,6.56-11.69,9.06-2.52.19-5.27-2.54-8.07-2.33-4.41.33-5.52,7.25-9.81,8.35-4.14,1-8.46-4.06-12.25-2.1-2.56,1.32-2.8,4.92-4.71,7.06-1.59,1.79-4.14,2.34-6.52,2.54s-4.86.16-7,1.12l-.06,0a3,3,0,0,0,.54,5.54h96.41a3.44,3.44,0,0,0,3.32-4.38A5.19,5.19,0,0,0,1071,493.34Z"/></g><g class="cag2"><path class="cag8" d="M1274.78,500.11c-3.28-2.74-8.6,1.33-12.42-.6s-3.54-9-7.78-10.27c-2.63-.8-5.83,1.18-8.24.57,0-3.45-.69-6.62-3-9a9.56,9.56,0,0,0-7-2.87c-10,0-10.92,6.56-11.69,9.06-2.51.19-5.26-2.54-8.06-2.33-4.41.33-5.52,7.25-9.81,8.35s-8.46-4.06-12.26-2.1c-2.55,1.32-2.79,4.92-4.71,7.06-1.59,1.79-4.13,2.34-6.51,2.54s-4.86.16-7,1.12l-.07,0a3,3,0,0,0,.55,5.55h96.41a3.45,3.45,0,0,0,3.32-4.39A5.15,5.15,0,0,0,1274.78,500.11Z"/></g><g class="cag2"><path class="cag9" d="M589.31,500.11c-3.28-2.74-8.61,1.33-12.42-.6s-3.54-9-7.78-10.27c-2.63-.8-5.83,1.18-8.24.57,0-3.45-.69-6.62-3-9a9.56,9.56,0,0,0-7-2.87c-10,0-10.92,6.56-11.69,9.06-2.51.19-5.26-2.54-8.06-2.33-4.41.33-5.52,7.25-9.81,8.35s-8.46-4.06-12.26-2.1c-2.55,1.32-2.79,4.92-4.71,7.06-1.59,1.79-4.13,2.34-6.52,2.54s-4.85.16-7,1.12l-.07,0a3,3,0,0,0,.55,5.55h96.41a3.45,3.45,0,0,0,3.32-4.39A5.21,5.21,0,0,0,589.31,500.11Z"/></g><g class="cag2"><path class="cag10" d="M874.08,584.71c-5.19-4.33-13.6,2.1-19.62-1-6.25-3.16-5.59-14.21-12.29-16.22-4.16-1.26-9.22,1.87-13,.9-.09-5.46-1.09-10.47-4.83-14.25-1.16-1.58-5.45-4.54-11.11-4.53C797.38,549.67,796,560,794.74,564c-4,.3-8.32-4-12.74-3.68-7,.52-8.72,11.45-15.5,13.19-6.54,1.67-13.37-6.42-19.36-3.32-4,2.09-4.42,7.77-7.44,11.16-2.52,2.82-6.54,3.7-10.3,4s-7.67.25-11.13,1.77l-.11,0C714,589,715,595,719,595.91H871.34a5.45,5.45,0,0,0,5.25-6.93A8.27,8.27,0,0,0,874.08,584.71Z"/></g></svg>