<svg xmlns="http://www.w3.org/2000/svg" viewBox="0 0 211.29 111"><title>Asset 5</title><g id="Layer_2" data-name="Layer 2"><g id="Layer_1-2" data-name="Layer 1"><g id="Layer_1-3" data-name="Layer 1"><path d="M9.31,78.17c5,8.29-9.31-15.4-9.31-24,0-12.4,8.05-24,21.4-33.15C31.77,13.9,45.07,6.7,60.83,2.92,74.14-.27,89.43,0,105,0S136-.31,149.27,2.88C165,6.66,176.81,15.64,187.18,22.77c13.36,9.17,24.11,19,24.11,31.4s-9.22,24-22.57,33.19c-10.38,7.13-24.11,13-39.86,16.73C135.54,107.28,120.66,111,105,111c-12.13,0-23.29-5.38-34.12-7.36-12.17-2.22-22.62-7.93-33.38-8C37.58,95.65,16.82,90.6,9.31,78.17Z" style="fill:#fff"/></g></g></g></svg>