<svg xmlns="http://www.w3.org/2000/svg" xmlns:xlink="http://www.w3.org/1999/xlink" viewBox="0 0 1280.34 494.08"><defs><linearGradient id="linear-gradient" x1="276.93" y1="215.48" x2="277.89" y2="381.48" gradientTransform="translate(1257.63 517.21) rotate(180)" gradientUnits="userSpaceOnUse"><stop offset="0" stop-color="#fafbfb" stop-opacity="0"/><stop offset="1" stop-color="#78a9a8"/></linearGradient><linearGradient id="linear-gradient-2" x1="168.34" y1="371.39" x2="169.3" y2="537.4" xlink:href="#linear-gradient"/><linearGradient id="linear-gradient-3" x1="528.49" y1="48.86" x2="529.24" y2="179.73" xlink:href="#linear-gradient"/><linearGradient id="linear-gradient-4" x1="329.06" y1="64.19" x2="329.82" y2="195.07" xlink:href="#linear-gradient"/><linearGradient id="linear-gradient-5" x1="751.67" y1="320.6" x2="752.1" y2="395.31" xlink:href="#linear-gradient"/><linearGradient id="linear-gradient-6" x1="953.54" y1="26.57" x2="953.97" y2="101.28" xlink:href="#linear-gradient"/><linearGradient id="linear-gradient-7" x1="452.03" y1="34.71" x2="452.38" y2="96.56" xlink:href="#linear-gradient"/><linearGradient id="linear-gradient-8" x1="783.57" y1="92.95" x2="783.93" y2="154.8" xlink:href="#linear-gradient"/><linearGradient id="linear-gradient-9" x1="1186.27" y1="79.71" x2="1186.63" y2="141.57" xlink:href="#linear-gradient"/><linearGradient id="linear-gradient-10" x1="581.25" y1="385.16" x2="581.61" y2="447.02" xlink:href="#linear-gradient"/><linearGradient id="linear-gradient-11" x1="615.45" y1="283.53" x2="615.81" y2="345.39" xlink:href="#linear-gradient"/><linearGradient id="linear-gradient-12" x1="377.69" y1="366.22" x2="378.23" y2="461.48" xlink:href="#linear-gradient"/></defs><title>Asset 1</title><g id="Layer_2" data-name="Layer 2"><g id="Layer_1-2" data-name="Layer 1"><g id="Layer_1-3" data-name="Layer 1"><g style="opacity:0.800000011920929"><path d="M791,254.05h0a9.16,9.16,0,0,1,.67-1l.06-.08c.23-.31.47-.62.72-.91l.11-.12c.25-.28.5-.54.76-.8l.18-.16c.25-.23.51-.46.77-.67l.27-.2c.25-.19.5-.38.76-.55l.37-.22c.24-.15.48-.3.73-.44l.47-.22c.24-.12.47-.23.71-.33s.38-.14.58-.21.43-.17.65-.23l.71-.19.58-.14c.29-.06.59-.1.89-.14l.45-.06a12.75,12.75,0,0,1,1.38-.07,13.64,13.64,0,0,1,6.17,1.47,21.74,21.74,0,0,1,1.51-1.82,20.54,20.54,0,0,1,12.55-6.41,19.38,19.38,0,0,1,2.52-.16,20.47,20.47,0,0,1,4.13.44c.44.09.88.2,1.32.32A20.64,20.64,0,0,1,860.63,227a32.62,32.62,0,0,1-.81-5.39c-.05-.69-.08-1.39-.08-2.09a32.82,32.82,0,0,1,42-31.56,32.84,32.84,0,0,1,55-20c.39.36.77.73,1.14,1.12A49.44,49.44,0,0,1,968,161.81a48.86,48.86,0,0,1,59.17,9.7c.9,1,1.75,2,2.57,3a49,49,0,0,1,8.9,17.69,32.84,32.84,0,0,1,33,18.34,20.54,20.54,0,0,1,20.69,3.8c.45.4.89.82,1.3,1.25a20.58,20.58,0,0,1,5.54,11.35,20.61,20.61,0,0,1,30.2,11.79c.17.56.32,1.14.44,1.72a21,21,0,0,1,5.46-.75,20.62,20.62,0,0,1,16.58,8.39,13.72,13.72,0,1,1,0,24.52,20.57,20.57,0,0,1-28.27,4.75,20.57,20.57,0,0,1-32,6.05,20.62,20.62,0,0,1-35.32,2.29A20.54,20.54,0,0,1,1031,280a20.62,20.62,0,0,1-20.32,17.12,20.33,20.33,0,0,1-7.43-1.4,49,49,0,0,1-76.72-11.65,20.48,20.48,0,0,1-21.82,2.32A20.62,20.62,0,0,1,869.36,284a20.57,20.57,0,0,1-29.05-1.73,20.14,20.14,0,0,1-2.95-4.32,20.57,20.57,0,0,1-28.27-4.75,13.71,13.71,0,0,1-18-19.17Z" style="opacity:0.800000011920929;isolation:isolate;fill:url(#linear-gradient)"/><path d="M899.55,98.14h0a9.16,9.16,0,0,1,.67-1l.06-.08c.23-.31.47-.62.72-.91l.12-.13c.24-.27.49-.54.75-.79l.18-.16c.25-.24.51-.46.77-.67l.27-.2c.25-.19.5-.38.76-.55l.37-.22c.24-.15.48-.3.74-.44l.46-.22c.24-.12.47-.23.71-.33s.38-.14.58-.21.43-.17.65-.24.47-.12.71-.18l.58-.14c.29-.06.59-.1.89-.14l.45-.07c.46,0,.92-.07,1.38-.07a13.65,13.65,0,0,1,6.17,1.48,21.74,21.74,0,0,1,1.51-1.82,20.61,20.61,0,0,1,12.55-6.42,21.3,21.3,0,0,1,2.52-.15,20.47,20.47,0,0,1,4.13.44c.44.09.88.2,1.32.31a20.61,20.61,0,0,1,29.58-14.1,32.62,32.62,0,0,1-.81-5.39c0-.69-.08-1.39-.08-2.09a32.82,32.82,0,0,1,42-31.56,32.85,32.85,0,0,1,55-20c.39.37.77.74,1.15,1.13a50.08,50.08,0,0,1,10.11-7.29,48.89,48.89,0,0,1,59.17,9.71c.9,1,1.75,2,2.57,3a49,49,0,0,1,8.9,17.69A32.8,32.8,0,0,1,1171.87,44a33.21,33.21,0,0,1,8.37,10.61,20.54,20.54,0,0,1,20.69,3.8c.45.4.89.82,1.3,1.25A20.58,20.58,0,0,1,1207.77,71,20.61,20.61,0,0,1,1238,82.79c.17.56.32,1.14.44,1.72a21,21,0,0,1,5.46-.75,20.62,20.62,0,0,1,16.58,8.39,13.72,13.72,0,1,1,0,24.52,20.57,20.57,0,0,1-28.27,4.75,20.57,20.57,0,0,1-32,6,20.61,20.61,0,0,1-35.38,2.38,20.54,20.54,0,0,1-25.21-5.69A20.58,20.58,0,0,1,1115.84,141a19.78,19.78,0,0,1-4-1.11,49,49,0,0,1-76.72-11.65,20.48,20.48,0,0,1-21.82,2.32,20.62,20.62,0,0,1-35.38-2.38,20.55,20.55,0,0,1-32-6,20.57,20.57,0,0,1-28.27-4.75,13.71,13.71,0,0,1-18-19.17Z" style="opacity:0.800000011920929;isolation:isolate;fill:url(#linear-gradient-2)"/><path d="M579.63,430.76h0a8.57,8.57,0,0,1,.52-.81l.05-.07c.18-.24.37-.49.57-.72l.09-.09c.19-.22.38-.43.59-.63l.15-.13c.19-.18.39-.36.6-.53l.21-.16.6-.43.29-.17c.19-.12.38-.24.58-.34l.37-.18.56-.26.45-.17c.18-.06.34-.13.52-.18l.56-.14a2.85,2.85,0,0,0,.46-.12l.7-.11h.35c.36,0,.73,0,1.09,0a10.8,10.8,0,0,1,4.86,1.16,18.18,18.18,0,0,1,1.19-1.44,16.15,16.15,0,0,1,15.14-4.83c.35.07.7.16,1,.25a16.27,16.27,0,0,1,23.32-11.12,26.43,26.43,0,0,1-.64-4.25q-.06-.81-.06-1.65a25.9,25.9,0,0,1,33.2-25,26.5,26.5,0,0,1,1-4.66,25.9,25.9,0,0,1,42.36-11.13c.31.29.61.58.9.88a39.36,39.36,0,0,1,8-5.74,38.51,38.51,0,0,1,46.64,7.65c.7.76,1.38,1.55,2,2.36a40.61,40.61,0,0,1,3.46,5.18,38.7,38.7,0,0,1,3.55,8.76c.9-.09,1.8-.14,2.71-.14A25.75,25.75,0,0,1,794.35,388a26.06,26.06,0,0,1,6.51,8.41,16.32,16.32,0,0,1,5.62-1,16.75,16.75,0,0,1,3,.28,16.26,16.26,0,0,1,7.7,3.74c.35.32.68.65,1,1a16.18,16.18,0,0,1,4.36,8.94,16.23,16.23,0,0,1,22.23,5.7,16.48,16.48,0,0,1,1.58,3.6c.14.44.25.9.35,1.36a16.47,16.47,0,0,1,4.3-.6A16.27,16.27,0,0,1,864.07,426a10.82,10.82,0,0,1,9.75,19.32,10.82,10.82,0,0,1-9.75,0,16.23,16.23,0,0,1-22.29,3.74A16.23,16.23,0,0,1,820,456.16a16,16,0,0,1-3.43-2.34,16.25,16.25,0,0,1-27.89,1.88,16.19,16.19,0,0,1-19.87-4.49,16.25,16.25,0,0,1-16,13.51,15.89,15.89,0,0,1-5.86-1.11,38.63,38.63,0,0,1-60.48-9.18,16.21,16.21,0,0,1-17.2,1.83,16.25,16.25,0,0,1-27.89-1.88A16.23,16.23,0,0,1,618.43,453a16.42,16.42,0,0,1-2.32-3.41,16.21,16.21,0,0,1-22.29-3.75,10.8,10.8,0,0,1-14.19-15.11Z" style="opacity:0.6000000238418579;isolation:isolate;fill:url(#linear-gradient-3)"/><path d="M779.1,415.43h0a8.67,8.67,0,0,1,.53-.81v-.06q.27-.36.57-.72l.09-.1q.29-.33.6-.63L781,413c.2-.18.4-.36.61-.53l.21-.15c.19-.15.39-.3.6-.44l.28-.17c.2-.12.39-.24.59-.34l.37-.18.55-.26.46-.17.51-.18.56-.14.46-.12.7-.1.36-.06c.36,0,.72-.05,1.09-.05a10.8,10.8,0,0,1,4.86,1.16,14.79,14.79,0,0,1,1.19-1.43,16.16,16.16,0,0,1,15.19-4.88c.35.07.7.16,1,.25a16.27,16.27,0,0,1,23.32-11.12,26.43,26.43,0,0,1-.64-4.25c0-.54-.06-1.09-.06-1.65a25.86,25.86,0,0,1,33.15-24.87,24.81,24.81,0,0,1,1-4.66,25.88,25.88,0,0,1,42.35-11.14l.91.88a39.09,39.09,0,0,1,8-5.74,38.53,38.53,0,0,1,46.65,7.65c.71.76,1.38,1.55,2,2.36a38.7,38.7,0,0,1,7,14,24.48,24.48,0,0,1,2.71-.15,25.77,25.77,0,0,1,16.77,6.19,26.06,26.06,0,0,1,6.51,8.41,16.19,16.19,0,0,1,16.31,3,10.49,10.49,0,0,1,1,1A16.33,16.33,0,0,1,1022,394a16.25,16.25,0,0,1,22.25,5.75,16.51,16.51,0,0,1,1.56,3.55c.13.44.25.9.35,1.36a16,16,0,0,1,4.29-.59,16.22,16.22,0,0,1,13.07,6.61,10.83,10.83,0,1,1,0,19.31,16.24,16.24,0,0,1-22.28,3.75,16.23,16.23,0,0,1-21.82,7.11,16,16,0,0,1-3.43-2.34,16.25,16.25,0,0,1-27.89,1.88,16.23,16.23,0,0,1-19.88-4.49,16.24,16.24,0,0,1-16,13.5,15.89,15.89,0,0,1-5.86-1.11,38.61,38.61,0,0,1-60.49-9.18,16.15,16.15,0,0,1-17.2,1.83,16.24,16.24,0,0,1-27.89-1.88,16.22,16.22,0,0,1-22.91-1.34,16,16,0,0,1-2.34-3.43,16.21,16.21,0,0,1-22.28-3.74,10.74,10.74,0,0,1-14.12-15.11Z" style="opacity:0.6000000238418579;isolation:isolate;fill:url(#linear-gradient-4)"/><path d="M420.59,175.14h0a4.66,4.66,0,0,1,.3-.47h0c.1-.14.21-.28.32-.41l.05-.06c.11-.12.22-.24.34-.35l.08-.08c.12-.1.23-.21.35-.3l.12-.09.34-.25.17-.1.33-.19.21-.1c.11,0,.21-.11.32-.15l.26-.1.29-.1.32-.08.26-.07a.93.93,0,0,0,.4-.06h.83a6.21,6.21,0,0,1,2.77.66,10.56,10.56,0,0,1,.68-.82,9.33,9.33,0,0,1,5.65-2.88,8.47,8.47,0,0,1,1.13-.07,9.7,9.7,0,0,1,1.86.19l.6.15a9.26,9.26,0,0,1,10.95-7.18,9.47,9.47,0,0,1,2.36.83,16.58,16.58,0,0,1-.37-2.43v-.94a14.79,14.79,0,0,1,18.92-14.2,14.78,14.78,0,0,1,24.75-9l.52.51a22.52,22.52,0,0,1,4.54-3.4A22,22,0,0,1,526.87,138c.4.43.79.88,1.16,1.34a23,23,0,0,1,2,3,22,22,0,0,1,2,5c.51,0,1-.08,1.55-.08a14.73,14.73,0,0,1,9.57,3.53,14.93,14.93,0,0,1,3.72,4.81,9.25,9.25,0,0,1,3.21-.58,9.79,9.79,0,0,1,1.71.15,9.28,9.28,0,0,1,4.39,2.14c.21.18.4.37.59.56a9.28,9.28,0,0,1,2.49,5.11,9.27,9.27,0,0,1,13.59,5.3,7.44,7.44,0,0,1,.2.78,9.73,9.73,0,0,1,2.46-.34,9.26,9.26,0,0,1,7.46,3.78,6.18,6.18,0,1,1,0,11,9.26,9.26,0,0,1-12.73,2.13,9.26,9.26,0,0,1-12.45,4.06,9.07,9.07,0,0,1-2-1.34,9.28,9.28,0,0,1-15.92,1.08,9.25,9.25,0,0,1-11.35-2.57,9.26,9.26,0,0,1-10.68,7.58,8.84,8.84,0,0,1-1.81-.5,22,22,0,0,1-34.52-5.24,9.21,9.21,0,0,1-5.74,2,9,9,0,0,1-4.08-.95,9.27,9.27,0,0,1-15.9-1.12,9.28,9.28,0,0,1-13.09-.76,9.67,9.67,0,0,1-1.33-2,9.28,9.28,0,0,1-12.72-2.14,6.17,6.17,0,0,1-8.1-8.63Z" style="fill:url(#linear-gradient-5)"/><path d="M218.69,469.17h0l.3-.46h0a4.23,4.23,0,0,1,.33-.41l.05-.06c.11-.12.22-.24.34-.35l.08-.08.34-.3.12-.09.35-.25.16-.1.33-.19.22-.1.31-.15.26-.1.3-.1.32-.08.26-.07.4-.06H224a6.22,6.22,0,0,1,2.78.66,8.58,8.58,0,0,1,.68-.81,9.24,9.24,0,0,1,5.65-2.89,8.47,8.47,0,0,1,1.13-.07,8.9,8.9,0,0,1,1.86.2l.59.14A9.32,9.32,0,0,1,250,457.08a14.25,14.25,0,0,1-.36-2.43v-.94a14.78,14.78,0,0,1,14.77-14.79,15,15,0,0,1,4.15.59,16.18,16.18,0,0,1,.58-2.66,14.8,14.8,0,0,1,24.18-6.36l.52.51a22,22,0,0,1,31.1,1l.08.09c.4.43.78.88,1.15,1.35a21.55,21.55,0,0,1,2,2.95,22,22,0,0,1,2,5,13.25,13.25,0,0,1,1.54-.09,14.71,14.71,0,0,1,9.58,3.54,15.14,15.14,0,0,1,3.72,4.8,9.2,9.2,0,0,1,3.2-.58,8.92,8.92,0,0,1,1.71.16,9.34,9.34,0,0,1,4.4,2.13c.2.18.4.37.58.56a9.34,9.34,0,0,1,2.49,5.11,9.29,9.29,0,0,1,12.71,3.28,8.94,8.94,0,0,1,.89,2c.07.25.14.51.2.77a9.65,9.65,0,0,1,2.45-.34,9.26,9.26,0,0,1,7.46,3.78,6.18,6.18,0,1,1,0,11,9.26,9.26,0,0,1-12.71,2.06,9.28,9.28,0,0,1-8.27,5.07,9.11,9.11,0,0,1-6.14-2.35,9.28,9.28,0,0,1-12.47,4.11,9.19,9.19,0,0,1-3.46-3,9.24,9.24,0,0,1-11.34-2.56A9.26,9.26,0,0,1,316,488.42a8.92,8.92,0,0,1-1.77-.49,22,22,0,0,1-31.11-.59,21.71,21.71,0,0,1-3.42-4.65,9.2,9.2,0,0,1-9.82,1A9.27,9.27,0,0,1,254,482.62a9.26,9.26,0,0,1-13.07-.76,9.07,9.07,0,0,1-1.34-2,9.28,9.28,0,0,1-12.72-2.14,6.18,6.18,0,0,1-8.11-8.63Z" style="fill:url(#linear-gradient-6)"/><path d="M734.84,464.73h0c.08-.14.16-.26.25-.39h0l.27-.34h0l.29-.3.06-.06.29-.25.1-.07.28-.21.14-.08.27-.16.18-.09.26-.12.22-.08.24-.08.26-.07.22-.06.33-.05h.69a5.05,5.05,0,0,1,2.29.55c.18-.24.37-.46.57-.68a7.72,7.72,0,0,1,4.67-2.39c.31,0,.62-.05.94-.05a7.26,7.26,0,0,1,1.54.16,3.89,3.89,0,0,1,.49.12,7.7,7.7,0,0,1,7.53-6.11,7.59,7.59,0,0,1,3.49.85,13.4,13.4,0,0,1-.3-2V452a12.27,12.27,0,0,1,12.13-12.39h.16a12.36,12.36,0,0,1,3.42.5,12.78,12.78,0,0,1,.47-2.21,12.24,12.24,0,0,1,20-5.26l.43.42a18.74,18.74,0,0,1,3.77-2.72,18.21,18.21,0,0,1,22,3.62c.34.36.67.73,1,1.11a18.36,18.36,0,0,1,1.64,2.45,18.83,18.83,0,0,1,1.68,4.14c.42,0,.84-.06,1.28-.06a12.25,12.25,0,0,1,11,6.9,7.54,7.54,0,0,1,2.66-.48,7.4,7.4,0,0,1,1.41.13,7.67,7.67,0,0,1,3.64,1.77c.17.14.33.3.49.46a7.72,7.72,0,0,1,2.06,4.23,7.68,7.68,0,0,1,10.51,2.7,8,8,0,0,1,.74,1.69c.07.21.12.43.17.65a7.92,7.92,0,0,1,2-.29,7.72,7.72,0,0,1,6.18,3.13,5.05,5.05,0,0,1,2.29-.55,5.12,5.12,0,1,1,.45,10.23h-.45a5.05,5.05,0,0,1-2.29-.55,7.68,7.68,0,0,1-10.54,1.77,7.67,7.67,0,0,1-10.34,3.28,7.4,7.4,0,0,1-1.54-1.06,7.67,7.67,0,0,1-13.18.89,7.64,7.64,0,0,1-9.41-2.09,7.64,7.64,0,0,1-10.34,5.86,18.26,18.26,0,0,1-28.59-4.34,7.63,7.63,0,0,1-8.13.86,7.66,7.66,0,0,1-13.18-.89,7.66,7.66,0,0,1-11.91-2.29,7.68,7.68,0,0,1-10.54-1.77,5.05,5.05,0,0,1-2.29.55,5.11,5.11,0,0,1-4.42-7.69Z" style="opacity:0.4000000059604645;isolation:isolate;fill:url(#linear-gradient-7)"/><path d="M403.39,406.49h0c.08-.13.16-.26.25-.38h0c.09-.12.17-.23.27-.34v0a3.83,3.83,0,0,1,.28-.29l.07-.07.29-.25.1-.07a2.83,2.83,0,0,1,.28-.2l.14-.09.27-.16.18-.08.26-.12.21-.08.25-.09.26-.07.22,0h1a5.09,5.09,0,0,1,2.3.55,7.22,7.22,0,0,1,.56-.68,7.69,7.69,0,0,1,4.68-2.39,7.42,7.42,0,0,1,.94-.06,8.84,8.84,0,0,1,1.54.16l.49.12a7.7,7.7,0,0,1,11-5.25,13.21,13.21,0,0,1-.3-2v-.78A12.24,12.24,0,0,1,441,381.37h.22a12.72,12.72,0,0,1,3.41.49,13.93,13.93,0,0,1,.48-2.2,12.24,12.24,0,0,1,20-5.27l.43.42a19.32,19.32,0,0,1,3.76-2.71,18.21,18.21,0,0,1,22,3.62c.33.35.65.73,1,1.11a20.84,20.84,0,0,1,1.63,2.45,18.35,18.35,0,0,1,1.68,4.14c.42,0,.85-.07,1.28-.07a12.2,12.2,0,0,1,7.93,2.93,12.41,12.41,0,0,1,3.08,4,8,8,0,0,1,2.65-.48,9.61,9.61,0,0,1,1.42.13,7.77,7.77,0,0,1,3.64,1.77c.17.15.33.31.48.47a7.7,7.7,0,0,1,2.07,4.22,7.68,7.68,0,0,1,10.51,2.72,7.6,7.6,0,0,1,.74,1.68c.06.21.12.42.16.64a7.65,7.65,0,0,1,8.21,2.84,5.37,5.37,0,0,1,2.3-.55,5.12,5.12,0,1,1,.06,10.24,5,5,0,0,1-2.36-.56,7.64,7.64,0,0,1-10.53,1.77,7.67,7.67,0,0,1-10.33,3.35,7.3,7.3,0,0,1-1.6-1.09,7.68,7.68,0,0,1-13.19.88,7.64,7.64,0,0,1-9.39-2.12,7.64,7.64,0,0,1-10.34,5.86,18.23,18.23,0,0,1-25.79-.55,17.91,17.91,0,0,1-2.79-3.79,7.67,7.67,0,0,1-8.13.87,7.69,7.69,0,0,1-13.18-.89,7.66,7.66,0,0,1-10.83-.63,7.57,7.57,0,0,1-1.11-1.63,7.64,7.64,0,0,1-10.49-1.83,5.11,5.11,0,0,1-7.41-4.56A5.23,5.23,0,0,1,403.39,406.49Z" style="opacity:0.4000000059604645;isolation:isolate;fill:url(#linear-gradient-8)"/><path d="M.7,419.72h0c.07-.13.16-.26.24-.38h0a2.88,2.88,0,0,1,.27-.34V419a3.83,3.83,0,0,1,.28-.29l.07-.07.28-.24.1-.08.29-.2.13-.09.28-.16.17-.08.26-.12.22-.08.24-.09.27-.07.22-.05.33-.05H5a5.09,5.09,0,0,1,2.3.55,7.22,7.22,0,0,1,.56-.68,7.69,7.69,0,0,1,4.68-2.39,7.26,7.26,0,0,1,.93-.06,8,8,0,0,1,1.54.16l.49.12a7.68,7.68,0,0,1,9.11-5.92,8,8,0,0,1,1.89.67,12.07,12.07,0,0,1-.31-2V407A12.25,12.25,0,0,1,38.37,394.6h.18a12.73,12.73,0,0,1,3.42.49,12,12,0,0,1,.48-2.2,12.22,12.22,0,0,1,20-5.26c.15.13.29.27.43.41a19.39,19.39,0,0,1,3.77-2.71,18.22,18.22,0,0,1,22,3.62c.33.35.65.73,1,1.11A18.18,18.18,0,0,1,93,396.65c.42,0,.85-.07,1.28-.07a12.2,12.2,0,0,1,7.93,2.93,12.41,12.41,0,0,1,3.08,4,8,8,0,0,1,2.65-.48,9.61,9.61,0,0,1,1.42.13,7.73,7.73,0,0,1,3.63,1.77c.17.15.33.3.49.47a7.56,7.56,0,0,1,2.06,4.22A7.7,7.7,0,0,1,126,412.35a8,8,0,0,1,.73,1.67c.06.21.11.42.16.64a7.65,7.65,0,0,1,8.21,2.84,5.21,5.21,0,0,1,2.29-.54,5.11,5.11,0,0,1,0,10.22,5.05,5.05,0,0,1-2.29-.55,7.63,7.63,0,0,1-6.18,3.13,7.52,7.52,0,0,1-4.35-1.36,7.66,7.66,0,0,1-10.33,3.3,7,7,0,0,1-1.6-1.1,7.69,7.69,0,0,1-13.18.89,7.67,7.67,0,0,1-9.39-2.13,7.68,7.68,0,0,1-7.57,6.39,7.5,7.5,0,0,1-2.77-.53,18.24,18.24,0,0,1-28.59-4.34,7.63,7.63,0,0,1-8.13.87,7.69,7.69,0,0,1-13.18-.89,7.65,7.65,0,0,1-10.81-.62,7.56,7.56,0,0,1-1.12-1.64,7.66,7.66,0,0,1-10.53-1.76A5.12,5.12,0,0,1,0,422.27,5,5,0,0,1,.7,419.72Z" style="opacity:0.4000000059604645;isolation:isolate;fill:url(#linear-gradient-9)"/><path d="M605.85,114.28h0a3.11,3.11,0,0,1,.25-.38h0a2.88,2.88,0,0,1,.27-.34h0a3.83,3.83,0,0,1,.28-.29l.07-.06L607,113l.1-.08.29-.2.13-.08a2.61,2.61,0,0,1,.28-.17l.17-.08.27-.12.21-.08.25-.09L609,112h.22l.33,0h.68a5.09,5.09,0,0,1,2.3.55,8.77,8.77,0,0,1,.56-.68,7.69,7.69,0,0,1,4.68-2.39,7.13,7.13,0,0,1,2.47.11l.5.11a7.7,7.7,0,0,1,11-5.25,13.22,13.22,0,0,1-.31-2v-.78a12.24,12.24,0,0,1,12.23-12.25h0a12.72,12.72,0,0,1,3.41.49,12,12,0,0,1,.48-2.2,12.24,12.24,0,0,1,20-5.26l.42.42a19,19,0,0,1,3.77-2.72,18.21,18.21,0,0,1,22,3.62c.33.36.67.73,1,1.11a20.84,20.84,0,0,1,1.63,2.45A18.35,18.35,0,0,1,698,91.41c.42,0,.85-.07,1.28-.07a12.2,12.2,0,0,1,7.93,2.93,12.41,12.41,0,0,1,3.08,4,7.76,7.76,0,0,1,2.65-.48,7.5,7.5,0,0,1,1.42.13A7.62,7.62,0,0,1,718,99.68c.17.15.34.31.49.47a7.58,7.58,0,0,1,2.06,4.23,7.68,7.68,0,0,1,11.26,4.39c.06.21.12.42.16.64a8.39,8.39,0,0,1,2-.28,7.65,7.65,0,0,1,6.18,3.13,5.11,5.11,0,1,1,4.57,9.14,5,5,0,0,1-2.27.54,5.09,5.09,0,0,1-2.3-.55,7.67,7.67,0,0,1-10.53,1.77,7.68,7.68,0,0,1-11.94,2.25,7.69,7.69,0,0,1-13.18.89,7.64,7.64,0,0,1-9.39-2.12,7.67,7.67,0,0,1-7.57,6.38,7.5,7.5,0,0,1-2.77-.53,18.23,18.23,0,0,1-25.79-.55,17.91,17.91,0,0,1-2.79-3.79,7.63,7.63,0,0,1-8.13.87,7.67,7.67,0,0,1-13.19-.89,7.67,7.67,0,0,1-10.83-.63,7.84,7.84,0,0,1-1.1-1.62,7.67,7.67,0,0,1-10.53-1.77,5.11,5.11,0,0,1-6.71-7.14Z" style="opacity:0.6000000238418579;isolation:isolate;fill:url(#linear-gradient-10)"/><path d="M571.54,215.91h0c.08-.13.16-.26.25-.38h0c.09-.12.17-.23.27-.34v-.05a3.83,3.83,0,0,1,.28-.29l.07-.06a3.47,3.47,0,0,1,.29-.25l.1-.08a2.83,2.83,0,0,1,.28-.2l.14-.08.27-.17.18-.08.26-.12.21-.08.25-.09.26-.06.22-.06.33-.05h.68a5.09,5.09,0,0,1,2.3.55,8.77,8.77,0,0,1,.56-.68,7.69,7.69,0,0,1,4.68-2.39,7.42,7.42,0,0,1,.94-.06,7.27,7.27,0,0,1,1.54.17l.49.11a7.7,7.7,0,0,1,11-5.25,11.1,11.1,0,0,1-.3-2v-.78a12.25,12.25,0,0,1,12.25-12.25,12.72,12.72,0,0,1,3.41.49,13.93,13.93,0,0,1,.48-2.2,12.24,12.24,0,0,1,20-5.26c.14.13.29.27.43.42a18.21,18.21,0,0,1,25.74.83l.07.07c.33.36.67.73,1,1.11a18.42,18.42,0,0,1,3.31,6.59c.42,0,.85-.06,1.28-.06A12.19,12.19,0,0,1,673,195.8a12.41,12.41,0,0,1,3.08,4,7.76,7.76,0,0,1,2.65-.48,7.5,7.5,0,0,1,1.42.13,7.66,7.66,0,0,1,3.64,1.76c.17.15.33.31.48.47a7.73,7.73,0,0,1,2.07,4.23,7.62,7.62,0,0,1,3.89-1.07,7.71,7.71,0,0,1,7.36,5.46c.06.21.12.43.16.64a8.39,8.39,0,0,1,2-.28,7.69,7.69,0,0,1,6.17,3.13,5.12,5.12,0,1,1,0,9.13,7.67,7.67,0,0,1-10.45,1.68A7.66,7.66,0,0,1,685.14,228a7.29,7.29,0,0,1-1.61-1.1,7.67,7.67,0,0,1-10.31,3.4,7.58,7.58,0,0,1-2.88-2.51,7.64,7.64,0,0,1-9.39-2.12,7.64,7.64,0,0,1-10.34,5.86,18.25,18.25,0,0,1-25.8-.57,18.06,18.06,0,0,1-2.78-3.78,7.63,7.63,0,0,1-8.13.87,7.66,7.66,0,0,1-13.18-.89,7.68,7.68,0,0,1-10.84-.64,8,8,0,0,1-1.1-1.61,7.67,7.67,0,0,1-10.54-1.81,5.11,5.11,0,0,1-6.71-7.14Z" style="opacity:0.4000000059604645;isolation:isolate;fill:url(#linear-gradient-11)"/><path d="M771.09,123.6h0c.12-.2.25-.4.38-.59h0c.13-.18.27-.35.41-.52l.07-.07c.14-.16.28-.31.43-.46l.11-.09a4.09,4.09,0,0,1,.44-.39l.15-.11.44-.32.21-.12a4.45,4.45,0,0,1,.51-.33l.27-.13.4-.19c.11,0,.23-.08.34-.12l.37-.14.41-.1.33-.08.51-.08h.26c.26,0,.53,0,.79,0a7.79,7.79,0,0,1,3.54.85,12.42,12.42,0,0,1,.87-1,11.87,11.87,0,0,1,7.2-3.68,11.6,11.6,0,0,1,1.44-.09,11.87,11.87,0,0,1,2.38.25l.75.19a11.83,11.83,0,0,1,14-9.15,11.61,11.61,0,0,1,3,1,18.9,18.9,0,0,1-.47-3.09v-1.2A18.84,18.84,0,0,1,829.42,85a19.23,19.23,0,0,1,5.33.76,18.85,18.85,0,0,1,31.49-11.54c.22.21.44.43.65.65a28.86,28.86,0,0,1,5.81-4.18,28,28,0,0,1,33.95,5.57q.78.84,1.47,1.71a28.78,28.78,0,0,1,2.52,3.77,28.29,28.29,0,0,1,2.59,6.38c.65-.06,1.31-.1,2-.1a18.71,18.71,0,0,1,12.21,4.5,19.15,19.15,0,0,1,4.74,6.13,12.12,12.12,0,0,1,4.09-.74,12.28,12.28,0,0,1,2.18.2,11.81,11.81,0,0,1,5.6,2.72l.75.72A11.86,11.86,0,0,1,948,108a11.81,11.81,0,0,1,16.18,4.14,12.2,12.2,0,0,1,1.15,2.62c.1.33.18.66.25,1a12.24,12.24,0,0,1,3.13-.43,11.84,11.84,0,0,1,9.52,4.81,7.87,7.87,0,0,1,7,14.08,7.8,7.8,0,0,1-7,0A11.81,11.81,0,0,1,962,137a11.8,11.8,0,0,1-18.37,3.47,11.84,11.84,0,0,1-20.37,1.36,11.8,11.8,0,0,1-14.46-3.27,11.84,11.84,0,0,1-11.66,9.83,11.57,11.57,0,0,1-4.27-.81,28.1,28.1,0,0,1-44-6.68,11.79,11.79,0,0,1-12.52,1.33,11.83,11.83,0,0,1-20.3-1.37,11.8,11.8,0,0,1-16.67-1,11.3,11.3,0,0,1-1.71-2.5,11.8,11.8,0,0,1-16.23-2.75,7.87,7.87,0,0,1-10.33-11Z" style="fill:url(#linear-gradient-12)"/></g></g></g></g></svg>