<svg id="Layer_1" data-name="Layer 1" xmlns="http://www.w3.org/2000/svg" viewBox="0 0 1769.49 1080"><defs><style>.feb{fill:#589894;}</style></defs><title>23</title><path class="feb" d="M823.74,534.72c1.93-5.38,4.76-10.4,7-15.66,6.68-15.64,8-33,9.16-49.94a84.19,84.19,0,0,1,6.51,49c-1.87,11.1-6,21.83-6.58,33.06-1.25,23.52,12.84,48,3.73,69.67,3.14-7.5-17.25-26.9-19.87-36.36C819.56,569.48,818.51,549.34,823.74,534.72Z"/><path class="feb" d="M1046.71,550.85c1.33-3.63,3.28-7,4.83-10.55,4.6-10.54,5.56-22.26,6.46-33.72a57,57,0,0,1,4.14,33.14c-1.33,7.49-4.17,14.73-4.63,22.32-1,15.89,8.42,32.49,2.14,47.12,2.17-5-11.52-18.27-13.24-24.69C1043.7,574.33,1043.09,560.71,1046.71,550.85Z"/><path class="feb" d="M937.37,383c1.44-3.59,3.49-6.91,5.14-10.4,4.92-10.4,6.24-22.08,7.49-33.51a57,57,0,0,1,3.13,33.25c-1.56,7.45-4.61,14.59-5.31,22.17-1.45,15.86,7.43,32.73.71,47.17,2.32-5-10.95-18.62-12.48-25.09C933.64,406.36,933.46,392.73,937.37,383Z"/><path class="feb" d="M767.63,632.53c1.88-7.26,5-14.15,7.28-21.28,6.85-21.22,6.45-44,6-66.29a110.5,110.5,0,0,1,14.36,63.14c-1.12,14.7-5.2,29.19-4.64,43.93,1.19,30.84,22.51,61.05,13.2,90.48,3.22-10.16-25.72-33-30.28-45.08C766.34,678.39,762.55,652.23,767.63,632.53Z"/><path class="feb" d="M971.39,390.59c.66-1.64,1.6-3.15,2.35-4.75,2.25-4.76,2.86-10.1,3.43-15.33a26,26,0,0,1,1.43,15.21c-.71,3.41-2.11,6.67-2.43,10.14-.66,7.25,3.4,15,.33,21.58,1.06-2.28-5-8.52-5.71-11.48C969.69,401.29,969.6,395.05,971.39,390.59Z"/><path class="feb" d="M1022.68,521.43c.66-1.64,1.59-3.15,2.35-4.75,2.25-4.76,2.85-10.1,3.43-15.33a26.13,26.13,0,0,1,1.43,15.21c-.72,3.41-2.11,6.67-2.43,10.14-.67,7.25,3.4,15,.32,21.58,1.06-2.29-5-8.52-5.71-11.48C1021,532.13,1020.89,525.89,1022.68,521.43Z"/><path class="feb" d="M607.21,529.1c.66-1.64,1.6-3.16,2.35-4.76,2.25-4.76,2.86-10.1,3.43-15.33a26.06,26.06,0,0,1,1.43,15.21c-.71,3.41-2.11,6.68-2.43,10.14-.66,7.26,3.4,15,.33,21.58,1.06-2.28-5-8.52-5.71-11.47C605.51,539.79,605.42,533.55,607.21,529.1Z"/><path class="feb" d="M553.05,646c.66-1.64,1.59-3.16,2.35-4.76,2.25-4.75,2.85-10.09,3.42-15.32a26,26,0,0,1,1.43,15.21c-.71,3.41-2.11,6.67-2.42,10.14-.67,7.25,3.4,15,.32,21.57,1.06-2.28-5-8.51-5.71-11.47C551.34,656.68,551.26,650.44,553.05,646Z"/><path class="feb" d="M575.38,675.68c.66-1.65,1.6-3.16,2.35-4.76,2.25-4.76,2.86-10.1,3.43-15.33a26.06,26.06,0,0,1,1.43,15.21c-.71,3.41-2.11,6.68-2.43,10.14-.67,7.26,3.4,15,.32,21.58,1.07-2.28-5-8.52-5.7-11.48C573.68,686.37,573.59,680.13,575.38,675.68Z"/><path class="feb" d="M861.1,552.77c.6-1.67,1.48-3.22,2.17-4.85,2.07-4.83,2.46-10.2,2.83-15.44a26,26,0,0,1,2,15.14c-.58,3.43-1.85,6.75-2,10.23-.38,7.27,4,14.83,1.15,21.54,1-2.32-5.33-8.31-6.14-11.24C859.81,563.52,859.48,557.29,861.1,552.77Z"/><path class="feb" d="M1153,771.52c.44-1.71,1.17-3.34,1.71-5,1.62-5,1.52-10.39,1.41-15.64a26,26,0,0,1,3.39,14.89c-.26,3.47-1.23,6.89-1.09,10.37.28,7.28,5.31,14.41,3.11,21.35.76-2.4-6.07-7.79-7.14-10.64C1152.73,782.34,1151.84,776.17,1153,771.52Z"/></svg>