<svg xmlns="http://www.w3.org/2000/svg" viewBox="0 0 413.57 408.33"><title>Asset 1</title><g id="Layer_2" data-name="Layer 2"><g id="Layer_1-2" data-name="Layer 1"><path d="M406.22,385.68c-6.27-6.84-13.82-12-21.71-16.77h0l-3.16-2.12a27.27,27.27,0,0,1-8.89-10.43,11.58,11.58,0,0,0-5.82-5.37,23.37,23.37,0,0,0-13.94-1.75,26.5,26.5,0,0,0-14,6.51c-4.31,4-6,8.25-4.89,13.8.55,2.75,1.2,5.48,1.9,8.2a14.46,14.46,0,0,0,10.81,11A13.11,13.11,0,0,0,362,382.32c3.77-7.19-3.4-13.91-8.63-13.7-3.64.16-5.23,3-3.34,6.06.42.68,1,1.28,1.45,1.92a1.85,1.85,0,0,1-.29,2.6l-.17.12a2.24,2.24,0,0,1-2.15-.29,13.11,13.11,0,0,1-4.11-8.64,4.17,4.17,0,0,1,3.34-4.59,24.6,24.6,0,0,1,6.8-.29c5.75.61,10.22,4.25,11.43,9.2a32.69,32.69,0,0,1,.5,4.94l-2.22,5.57a14.2,14.2,0,0,1-10.23,7.71l-6.48.18c-7.86-1.27-13.92-5.23-16.14-13-1-3.71-2.77-5.24-6.19-5.67a4.07,4.07,0,0,1-.67-.16c-6.83-1.18-13.18-.87-18.91,4-4.57,3.91-9.75,7.14-16.66,6,.4.59.56.89.77,1.15,5.07,6.3,11.82,9.14,19.74,9.74a8.29,8.29,0,0,1,3.9,1.41,67.31,67.31,0,0,0,19.45,9.49h0l.57.14c.5.15,1,.3,1.51.43h.22l2.12.55h0l.75.14,2.58.66.16-.18c7,1,13.67.67,20.07-1.85,7.19-2.82,14.18-6.16,21.12-9.56,7.25-3.55,14.7-5,22.67-3.42,2.74.55,5.49,1,8.24,1.57l.38-.43C411.09,391.41,408.75,388.45,406.22,385.68Z" style="fill:#e5af34"/><path d="M349,398.94a44.14,44.14,0,0,1-26.52-9.32l1.14-1.49c9.62,7.38,21.73,10.46,32.39,8.23,12.06-2.52,21.94-12.11,24-23.32l1.83.34c-2.23,11.94-12.72,22.14-25.49,24.81A36.3,36.3,0,0,1,349,398.94Z" style="fill:#fff"/><path d="M317.81,385.38a16.35,16.35,0,0,1-2.75-4.21l1.72-.75a14.61,14.61,0,0,0,2.43,3.73Z" style="fill:#fff"/><path d="M365.65,394.79l-1.12-1.51c6.94-5.14,7.32-15.72,7.32-15.83a18.52,18.52,0,0,0-2.2-10.16,14.79,14.79,0,0,0-4.3-5,18.79,18.79,0,0,0-6.46-2.75c-4.62-1.17-8.69-1.2-12.11-.08s-6.7,4.87-6,9l-1.85.3c-.84-5.13,3.05-9.64,7.3-11,3.76-1.24,8.18-1.22,13.15,0a20.7,20.7,0,0,1,7.09,3.05,16.68,16.68,0,0,1,4.85,5.61,20.34,20.34,0,0,1,2.43,11.16C373.71,377.92,373.32,389,365.65,394.79Z" style="fill:#fff"/><path d="M401.18,387.65c-1.43-.65-2.86-1.22-4.23-1.7l.62-1.77c1.42.5,2.9,1.1,4.39,1.77Z" style="fill:#fff"/><path d="M371,391.15l-1.1-1.53c9-6.35,15.51-8.34,22.48-6.9l-.38,1.83C385.51,383.21,379.62,385.06,371,391.15Z" style="fill:#fff"/><path d="M342,123.92c-8.1-8.85-17.86-15.56-28.06-21.68h0l-4.1-2.68a35.36,35.36,0,0,1-11.49-13.49,14.92,14.92,0,0,0-7.51-6.93,30.12,30.12,0,0,0-18-2.27c-6.71,1.2-12.76,3.5-18.1,8.42-5.58,5.14-7.77,10.66-6.33,17.84.71,3.55,1.55,7.08,2.46,10.59,1.91,7.41,6.44,12.16,14,14.27,8,2.24,16.17-1,20-8.31,4.87-9.3-4.39-18-11.16-17.7-4.71.2-6.76,3.82-4.31,7.82.54.88,1.25,1.66,1.87,2.49a2.38,2.38,0,0,1-.37,3.35,1.88,1.88,0,0,1-.23.16,2.9,2.9,0,0,1-2.77-.36,17,17,0,0,1-5.32-11.17,5.39,5.39,0,0,1,4.32-5.94,32,32,0,0,1,8.79-.38c7.43.79,13.21,5.5,14.77,11.9a42.72,42.72,0,0,1,.65,6.38l-2.86,7.2a18.27,18.27,0,0,1-13.24,10l-8.36.24c-10.17-1.65-18-6.76-20.87-16.84-1.36-4.8-3.59-6.78-8-7.33a5.25,5.25,0,0,1-.87-.21c-8.83-1.52-17-1.12-24.44,5.21-5.92,5-12.61,9.23-21.54,7.76.51.76.73,1.14,1,1.48,6.55,8.15,15.27,11.82,25.51,12.59a10.64,10.64,0,0,1,5,1.82,86.72,86.72,0,0,0,25.14,12.27h0l.74.19c.65.19,1.29.39,2,.55h.28l2.75.71-.06,0,1,.18,3.33.86.21-.24c9,1.34,17.66.87,25.94-2.38,9.29-3.65,18.34-8,27.3-12.36,9.37-4.59,19-6.48,29.31-4.42,3.54.7,7.1,1.35,10.65,2l.49-.55C348.28,131.31,345.26,127.5,342,123.92Z" style="fill:#e5af34"/><path d="M268,141.05a57,57,0,0,1-34.28-12l1.47-1.91c12.43,9.53,28.08,13.51,41.87,10.63,15.58-3.26,28.36-15.65,31.08-30.15l2.38.45c-2.9,15.43-16.45,28.62-33,32.06A46.77,46.77,0,0,1,268,141.05Z" style="fill:#fff"/><path d="M227.7,123.52a21.47,21.47,0,0,1-3.55-5.43l2.22-1a18.77,18.77,0,0,0,3.15,4.81Z" style="fill:#fff"/><path d="M289.54,135.62l-1.44-1.94c9-6.66,9.45-20.33,9.46-20.47a24,24,0,0,0-2.85-13.13,18.94,18.94,0,0,0-5.55-6.45,24.31,24.31,0,0,0-8.36-3.56c-6-1.51-11.23-1.55-15.65-.1s-8.67,6.29-7.8,11.57l-2.39.4c-1.08-6.64,3.94-12.46,9.43-14.26,4.87-1.6,10.59-1.58,17,0a26.94,26.94,0,0,1,9.16,3.94,21.58,21.58,0,0,1,6.27,7.26A26.32,26.32,0,0,1,300,113.3C300,113.89,299.46,128.25,289.54,135.62Z" style="fill:#fff"/><path d="M335.48,126.47c-1.86-.85-3.71-1.59-5.47-2.21l.8-2.28c1.83.64,3.74,1.41,5.66,2.28Z" style="fill:#fff"/><path d="M296.42,131,295,129c11.64-8.21,20.06-10.79,29.07-8.92l-.5,2.37C315.22,120.72,307.6,123.11,296.42,131Z" style="fill:#fff"/><path d="M333.21,278.29c-17.86-19.5-39.34-34.3-61.88-47.81h0l-9-5.92c-10.79-7.35-19.17-17.6-25.34-29.73-3.62-7.12-9.28-12-16.57-15.3a66.64,66.64,0,0,0-39.74-5c-14.81,2.65-28.15,7.72-39.93,18.58-12.3,11.33-17.12,23.5-13.94,39.33,1.57,7.83,3.4,15.62,5.41,23.36,4.23,16.34,14.21,26.81,30.82,31.47,17.54,4.93,35.64-2.17,44.1-18.33,10.72-20.5-9.69-39.65-24.62-39-10.37.43-14.9,8.42-9.5,17.26a66.4,66.4,0,0,0,4.13,5.47c2.31,3,.9,6-1.32,7.76-1.19.92-4.86.39-6.13-.82A37.53,37.53,0,0,1,158,235c-.5-6.25,3.26-11.94,9.53-13.08a69.57,69.57,0,0,1,19.38-.84c16.4,1.73,29.14,12.13,32.58,26.23,1.17,4.8,1,9.91,1.43,14.08l-6.31,15.88c-5.82,11.74-15.88,19.15-29.18,22l-18.45.52c-22.42-3.63-39.69-14.9-46-37.14-3-10.57-7.92-14.94-17.65-16.15-.65-.08-1.26-.36-1.91-.47-19.48-3.35-37.58-2.46-53.91,11.49-13,11.13-27.79,20.36-47.48,17.12,1.13,1.67,1.61,2.51,2.21,3.25,14.44,18,33.67,26.07,56.24,27.76a23.41,23.41,0,0,1,11.12,4A191.6,191.6,0,0,0,125,336.68h0l1.62.41c1.44.41,2.86.85,4.31,1.22a4.32,4.32,0,0,0,.62.05l6.07,1.56-.14.13c.73.15,1.44.25,2.16.39l7.35,1.89.46-.52c19.92,3,38.95,1.91,57.2-5.26,20.48-8,40.43-17.56,60.21-27.25,20.65-10.12,41.88-14.28,64.61-9.75,7.81,1.56,15.66,3,23.49,4.46l1.09-1.2C347.09,294.6,340.43,286.19,333.21,278.29Z" style="fill:#e5af34"/><path d="M170.1,316.07c-26,0-53.13-9.33-75.6-26.57l3.24-4.23c27.42,21,61.94,29.8,92.34,23.45,34.36-7.18,62.54-34.51,68.53-66.48l5.24,1c-6.38,34-36.26,63.11-72.68,70.72A103.51,103.51,0,0,1,170.1,316.07Z" style="fill:#fff"/><path d="M81.21,277.42a46.19,46.19,0,0,1-7.82-12l4.88-2.14a41,41,0,0,0,7,10.61Z" style="fill:#fff"/><path d="M217.58,304.09l-3.18-4.3c19.77-14.68,20.84-44.82,20.85-45.13a52.66,52.66,0,0,0-6.28-29,42.11,42.11,0,0,0-12.24-14.22c-4.71-3.36-10.56-5.86-18.43-7.85-13.15-3.34-24.77-3.41-34.51-.21s-19.11,13.86-17.2,25.51l-5.26.87c-2.4-14.63,8.69-27.48,20.79-31.45,10.72-3.51,23.34-3.48,37.49.11,8.54,2.16,15,4.92,20.22,8.69a47.31,47.31,0,0,1,13.82,16,57.91,57.91,0,0,1,6.92,31.8C240.55,256.17,239.45,287.85,217.58,304.09Z" style="fill:#fff"/><path d="M318.87,283.91c-4.1-1.86-8.16-3.5-12.06-4.86l1.77-5c4,1.43,8.25,3.12,12.49,5Z" style="fill:#fff"/><path d="M232.75,293.87l-3.07-4.36c25.66-18.09,44.23-23.78,64.09-19.66l-1.08,5.22C274.19,271.23,257.39,276.5,232.75,293.87Z" style="fill:#fff"/><path d="M103,77.23c0,22.36-18.23,38.1-39.69,37.77,21.46.33,39.28,17.14,39.81,37.55-.53-20.41,16.43-36.69,37.88-36.36C119.55,115.86,103,97.65,103,77.23Z" style="fill:none;stroke:#e5af34;stroke-miterlimit:10;stroke-width:8px"/><path d="M191.36,0c0,13.22-10.78,22.52-23.45,22.32,12.67.2,23.21,10.13,23.53,22.2-.32-12.07,9.7-21.69,22.38-21.49A23.15,23.15,0,0,1,191.36,0Z" style="fill:none;stroke:#e5af34;stroke-miterlimit:10;stroke-width:4.730000019073486px"/></g></g></svg>