<svg xmlns="http://www.w3.org/2000/svg" viewBox="0 0 361.53 269.29"><title>Asset 1</title><g id="Layer_2" data-name="Layer 2"><g id="Layer_1-2" data-name="Layer 1"><path d="M346.87,148.21C334.24,134.4,319,123.94,303.1,114.39h0l-6.39-4.19a55.14,55.14,0,0,1-17.92-21,23.32,23.32,0,0,0-11.72-10.82A47.21,47.21,0,0,0,239,74.84C228.48,76.71,219,80.3,210.71,88c-8.7,8-12.11,16.62-9.86,27.82,1.11,5.54,2.41,11,3.82,16.52,3,11.57,10.06,19,21.8,22.27,12.42,3.49,25.22-1.54,31.2-13,7.59-14.5-6.85-28-17.41-27.61-7.34.31-10.54,6-6.72,12.21.84,1.37,1.94,2.58,2.92,3.87,1.63,2.15.64,4.27-.94,5.49-.84.65-3.43.28-4.33-.58a26.55,26.55,0,0,1-8.32-17.38,8.42,8.42,0,0,1,6.74-9.25,49.23,49.23,0,0,1,13.71-.6c11.6,1.22,20.62,8.58,23,18.56.83,3.39.73,7,1,10l-4.45,11.14c-4.11,8.3-11.23,13.55-20.64,15.53l-13,.37c-15.85-2.57-28.07-10.54-32.54-26.27-2.13-7.48-5.6-10.57-12.49-11.43-.46,0-.89-.25-1.35-.33-13.78-2.37-26.58-1.74-38.13,8.13-9.22,7.88-19.66,14.4-33.59,12.11.8,1.18,1.14,1.77,1.56,2.3,10.18,12.74,23.81,18.44,39.78,19.64a16.59,16.59,0,0,1,7.86,2.84,135.18,135.18,0,0,0,39.22,19.14h0l1.15.29c1,.29,2,.6,3,.87h.44l4.29,1.11-.09.08c.51.11,1,.18,1.53.28l5.19,1.34.33-.37c14.09,2.09,27.55,1.35,40.46-3.72,14.49-5.69,28.6-12.42,42.59-19.27,14.61-7.16,29.63-10.11,45.7-6.9,5.53,1.1,11.08,2.1,16.62,3.15l.77-.85C356.66,159.74,352,153.79,346.87,148.21Z" style="fill:#e5af34"/><path d="M231.46,174.93c-18.42,0-37.58-6.6-53.48-18.79l2.3-3c19.39,14.87,43.81,21.07,65.31,16.58,24.31-5.07,44.24-24.41,48.48-47l3.71.69c-4.52,24.08-25.66,44.65-51.42,50A72.38,72.38,0,0,1,231.46,174.93Z" style="fill:#fff"/><path d="M168.58,147.59a32.56,32.56,0,0,1-5.53-8.47l3.45-1.52a29,29,0,0,0,4.92,7.5Z" style="fill:#fff"/><path d="M265,166.46l-2.25-3c14-10.38,14.75-31.71,14.76-31.92a37.47,37.47,0,0,0-4.44-20.49A29.88,29.88,0,0,0,264.44,101c-3.32-2.38-7.47-4.14-13-5.55-9.31-2.36-17.52-2.41-24.42-.15s-13.51,9.81-12.16,18l-3.72.61c-1.7-10.35,6.14-19.44,14.71-22.24,7.58-2.49,16.5-2.47,26.52.07,6,1.53,10.57,3.49,14.3,6.15a33.44,33.44,0,0,1,9.77,11.31,41,41,0,0,1,4.9,22.49C281.29,132.59,280.52,155,265,166.46Z" style="fill:#fff"/><path d="M336.69,152.18c-2.9-1.31-5.77-2.47-8.53-3.44l1.25-3.56c2.86,1,5.83,2.21,8.83,3.57Z" style="fill:#fff"/><path d="M275.78,159.23l-2.18-3.08c18.16-12.8,31.29-16.83,45.34-13.91l-.77,3.69C305.09,143.22,293.21,146.94,275.78,159.23Z" style="fill:#fff"/><path d="M179.87,212.73c-9.64,10.54-21.26,18.52-33.4,25.82h0l-4.87,3.2a42.15,42.15,0,0,0-13.68,16,17.77,17.77,0,0,1-9,8.25,35.88,35.88,0,0,1-21.45,2.71c-8-1.43-15.2-4.17-21.56-10-6.64-6.12-9.24-12.68-7.53-21.23.85-4.23,1.84-8.44,2.92-12.61C73.64,216,79,210.39,88,207.87c9.48-2.66,19.25,1.18,23.81,9.9,5.79,11.07-5.23,21.41-13.29,21.07-5.6-.23-8-4.54-5.13-9.31.64-1,1.49-2,2.23-3a2.85,2.85,0,0,0-.45-4,2.48,2.48,0,0,0-.26-.19c-.64-.49-2.62-.21-3.31.44a20.31,20.31,0,0,0-6.33,13.3,6.41,6.41,0,0,0,5.14,7.06,37.51,37.51,0,0,0,10.47.46c8.85-.94,15.73-6.55,17.59-14.17a49.69,49.69,0,0,0,.77-7.6l-3.41-8.57c-3.14-6.34-8.57-10.34-15.76-11.85l-10-.28c-12.11,2-21.43,8-24.84,20-1.63,5.71-4.28,8.06-9.53,8.72a5.42,5.42,0,0,0-1,.25c-10.52,1.81-20.29,1.33-29.11-6.2-7-6-15-11-25.63-9.25.61-.9.87-1.35,1.19-1.75,7.8-9.7,18.18-14.08,30.37-15a12.6,12.6,0,0,0,6-2.17,103.48,103.48,0,0,1,29.93-14.6h0l.88-.23c.77-.22,1.54-.45,2.32-.65H71l3.28-.84-.08-.07,1.17-.22,4-1,.25.29c10.76-1.6,21-1,30.89,2.83,11,4.35,21.82,9.49,32.5,14.72,11.15,5.46,22.61,7.71,34.88,5.26,4.22-.84,8.45-1.6,12.68-2.4l.59.64C187.34,203.93,183.75,208.47,179.87,212.73Z" style="fill:#e5af34"/><path d="M91.79,192.34A67.86,67.86,0,0,0,51,206.68L52.73,209c14.8-11.35,33.44-16.08,49.85-12.65,18.55,3.87,33.76,18.63,37,35.88l2.83-.53c-3.45-18.37-19.54-34.07-39.24-38.17A56.48,56.48,0,0,0,91.79,192.34Z" style="fill:#fff"/><path d="M43.8,213.21a24.91,24.91,0,0,0-4.22,6.46l2.64,1.16A22.15,22.15,0,0,1,46,215.1Z" style="fill:#fff"/><path d="M117.42,198.81l-1.71,2.31C126.38,209,127,225.31,127,225.48a28.44,28.44,0,0,1-3.39,15.63,22.74,22.74,0,0,1-6.61,7.68A28.84,28.84,0,0,1,107,253c-7.1,1.8-13.37,1.84-18.64.11S78,245.66,79.05,239.37l-2.84-.47c-1.3,7.9,4.69,14.84,11.23,17,5.78,1.9,12.59,1.88,20.24-.06a31.6,31.6,0,0,0,10.91-4.69,25.3,25.3,0,0,0,7.46-8.63,31.28,31.28,0,0,0,3.82-17.19C129.87,224.68,129.23,207.59,117.42,198.81Z" style="fill:#fff"/><path d="M172.11,209.7c-2.22,1-4.41,1.89-6.52,2.63l1,2.71c2.18-.77,4.45-1.68,6.74-2.72Z" style="fill:#fff"/><path d="M125.62,204.32,124,206.68c13.85,9.76,23.88,12.84,34.6,10.61l-.59-2.82C148,216.59,138.92,213.7,125.62,204.32Z" style="fill:#fff"/><path d="M324.13,30.76c-5.25-5.74-11.57-10.08-18.18-14h0L303.3,15a22.91,22.91,0,0,1-7.45-8.74A9.64,9.64,0,0,0,291,1.79,19.6,19.6,0,0,0,279.31.31a22.32,22.32,0,0,0-11.74,5.46c-3.61,3.33-5,6.91-4.09,11.56.46,2.3,1,4.59,1.59,6.86a12.1,12.1,0,0,0,9,9.25,11,11,0,0,0,13-5.39c3.15-6-2.85-11.65-7.23-11.46-3,.12-4.38,2.47-2.79,5.07a17.21,17.21,0,0,0,1.21,1.6,1.55,1.55,0,0,1-.25,2.18.71.71,0,0,1-.14.1,1.87,1.87,0,0,1-1.8-.23,11,11,0,0,1-3.45-7.24,3.51,3.51,0,0,1,2.81-3.85,20.87,20.87,0,0,1,5.69-.24c4.82.5,8.56,3.56,9.57,7.71a26.17,26.17,0,0,1,.42,4.13l-1.85,4.67a11.85,11.85,0,0,1-8.58,6.45l-5.42.15c-6.59-1.06-11.66-4.37-13.52-10.91-.88-3.11-2.32-4.39-5.19-4.75a3.65,3.65,0,0,1-.55-.13c-5.73-1-11-.73-15.85,3.37-3.83,3.27-8.16,6-14,5,.33.49.47.74.65,1,4.24,5.28,9.9,7.66,16.53,8.16A7,7,0,0,1,246.65,40a56,56,0,0,0,16.29,8h0l.47.12c.43.12.84.25,1.27.36h.19l1.78.46h0l.63.11,2.16.56.13-.15a32.1,32.1,0,0,0,16.81-1.55c6-2.36,11.88-5.16,17.69-8,6.07-3,12.31-4.2,19-2.86,2.3.45,4.6.87,6.9,1.31l.32-.36C328.21,35.59,326.25,33.08,324.13,30.76Z" style="fill:#e5af34"/><path d="M276.2,41.86A37,37,0,0,1,254,34.05l1-1.24c8.06,6.18,18.2,8.76,27.13,6.89,10.1-2.11,18.38-10.14,20.14-19.53l1.54.28c-1.87,10-10.66,18.55-21.36,20.78A29.69,29.69,0,0,1,276.2,41.86Z" style="fill:#fff"/><path d="M250.08,30.5a13.7,13.7,0,0,1-2.3-3.52l1.44-.63a11.62,11.62,0,0,0,2,3.12Z" style="fill:#fff"/><path d="M290.15,38.34l-.93-1.26c5.81-4.31,6.12-13.17,6.13-13.26a15.58,15.58,0,0,0-1.85-8.51,12.48,12.48,0,0,0-3.6-4.18,15.94,15.94,0,0,0-5.41-2.31,18.21,18.21,0,0,0-10.14-.06c-2.87.94-5.62,4.08-5.06,7.5l-1.54.25c-.71-4.29,2.55-8.07,6.11-9.24a19.78,19.78,0,0,1,11,0,17.15,17.15,0,0,1,5.94,2.55,14.07,14.07,0,0,1,4.07,4.77,17,17,0,0,1,2,9.34C296.87,24.26,296.58,33.59,290.15,38.34Z" style="fill:#fff"/><path d="M319.92,32.41c-1.21-.55-2.4-1-3.55-1.43l.52-1.48c1.19.42,2.43.92,3.67,1.48Z" style="fill:#fff"/><path d="M294.61,35.34l-.9-1.28c7.54-5.32,13-7,18.83-5.78l-.32,1.53C306.79,28.68,301.87,30.23,294.61,35.34Z" style="fill:#fff"/></g></g></svg>