<svg id="Layer_1" data-name="Layer 1" xmlns="http://www.w3.org/2000/svg" viewBox="0 0 1769.49 1080"><defs><style>.cls-1{fill:#304a63;}.cls-2{fill:#5ea7a2;}</style></defs><title>8</title><rect class="cls-1" x="-33.35" y="-18.4" width="1863.75" height="1114.83"/><path class="cls-2" d="M1134.82,574.86c-13.74-15-30.31-26.41-47.63-36.81h0l-7-4.55c-8.3-5.66-14.75-13.55-19.5-22.89A25.34,25.34,0,0,0,1048,498.83,51.24,51.24,0,0,0,1017.4,495c-11.39,2-21.66,5.94-30.73,14.3-9.47,8.73-13.18,18.09-10.74,30.28,1.21,6,2.63,12,4.17,18,3.26,12.58,10.94,20.64,23.72,24.23,13.51,3.79,27.44-1.68,33.95-14.12,8.26-15.78-7.46-30.52-18.95-30-8,.33-11.47,6.48-7.31,13.28a49.41,49.41,0,0,0,3.18,4.21c1.78,2.35.69,4.65-1,6-.92.71-3.74.3-4.71-.63a28.89,28.89,0,0,1-9-19c-.39-4.81,2.5-9.19,7.33-10.07a53.33,53.33,0,0,1,14.92-.64c12.62,1.32,22.43,9.33,25.08,20.19.9,3.69.8,7.62,1.1,10.83L1043.5,574c-4.48,9-12.23,14.74-22.46,16.9l-14.21.4c-17.25-2.79-30.55-11.46-35.41-28.59-2.31-8.14-6.09-11.5-13.59-12.43-.5-.06-1-.28-1.46-.36-15-2.58-28.93-1.9-41.5,8.84-10,8.57-21.4,15.68-36.55,13.18.86,1.29,1.23,1.93,1.69,2.51,11.12,13.83,25.93,20.07,43.3,21.36a18,18,0,0,1,8.56,3.1,147.21,147.21,0,0,0,42.68,20.82l0,0,1.25.32c1.11.31,2.2.65,3.32.93a3.54,3.54,0,0,0,.48.05l4.67,1.2-.11.09c.56.12,1.11.2,1.66.31l5.66,1.45.36-.4c15.33,2.28,30,1.47,44-4.05,15.76-6.19,31.11-13.51,46.34-21,15.9-7.79,32.24-11,49.73-7.51,6,1.2,12.06,2.29,18.09,3.43l.83-.93C1145.51,587.41,1140.38,580.93,1134.82,574.86Zm-194-.68a35.8,35.8,0,0,1-6-9.22l3.76-1.65a32,32,0,0,0,5.35,8.17Zm162.79-1.8c-14.23-3-27.17,1.1-46.13,14.47l0,0a74.65,74.65,0,0,1-32,15.47,79.62,79.62,0,0,1-16.22,1.64c-20,0-40.9-7.18-58.2-20.45l2.5-3.26c21.11,16.19,47.68,22.94,71.08,18a69.87,69.87,0,0,0,18.72-6.85h0c15.21-11.3,16-34.5,16.05-34.73a40.63,40.63,0,0,0-4.83-22.3,32.44,32.44,0,0,0-9.43-10.95c-3.62-2.59-8.13-4.51-14.18-6-10.13-2.57-19.07-2.62-26.57-.16s-14.71,10.67-13.24,19.64l-4,.66c-1.84-11.26,6.69-21.15,16-24.2,8.25-2.71,18-2.68,28.86.08,6.56,1.67,11.51,3.79,15.56,6.69a36.39,36.39,0,0,1,10.64,12.31,44.66,44.66,0,0,1,5.33,24.47,61.32,61.32,0,0,1-7.1,25.49c10.77-9.38,18.45-21.78,21-35.27l4,.75a63.88,63.88,0,0,1-12.23,26.85c13-6.87,23.85-8.72,35.26-6.35Zm20.15,6.8c-3.15-1.43-6.28-2.69-9.28-3.74l1.36-3.88c3.11,1.1,6.35,2.4,9.61,3.88Z"/><path class="cls-2" d="M822.39,593.93h0l-5.1-3.34A44,44,0,0,1,803,573.8a18.64,18.64,0,0,0-9.36-8.64,37.56,37.56,0,0,0-22.43-2.82c-8.36,1.49-15.89,4.35-22.54,10.48-6.94,6.4-9.66,13.26-7.87,22.2.89,4.43,1.92,8.82,3.05,13.19,2.39,9.22,8,15.13,17.4,17.77,9.91,2.78,20.12-1.23,24.9-10.36,6.05-11.57-5.47-22.38-13.9-22-5.86.24-8.41,4.75-5.36,9.73a36.74,36.74,0,0,0,2.33,3.09,3,3,0,0,1-.75,4.38c-.67.53-2.74.23-3.45-.46a21.2,21.2,0,0,1-6.63-13.9,6.7,6.7,0,0,1,5.38-7.38,39.37,39.37,0,0,1,10.94-.48c9.26,1,16.45,6.85,18.39,14.81a52.92,52.92,0,0,1,.81,8l-3.56,9c-3.28,6.63-9,10.81-16.48,12.4l-10.41.29c-12.65-2-22.4-8.41-26-21-1.7-6-4.47-8.44-10-9.12-.36,0-.71-.21-1.07-.27-11-1.89-21.21-1.39-30.43,6.49-7.36,6.29-15.69,11.49-26.8,9.66.63,1,.9,1.42,1.24,1.84,8.15,10.14,19,14.72,31.75,15.67a13.24,13.24,0,0,1,6.28,2.27,107.86,107.86,0,0,0,31.29,15.27l0,0,.92.23c.81.23,1.61.48,2.43.69a2.07,2.07,0,0,0,.35,0l3.43.88-.08.07c.41.09.81.14,1.22.22l4.15,1.07.26-.29c11.24,1.67,22,1.08,32.29-3,11.56-4.54,22.82-9.91,34-15.38,11.66-5.72,23.65-8.07,36.47-5.51,4.42.88,8.84,1.68,13.27,2.52.2-.23.4-.46.61-.68-3.91-4.62-7.67-9.37-11.74-13.83C847.24,609.9,835.09,601.55,822.39,593.93ZM715.07,620.42a26.31,26.31,0,0,1-4.42-6.76l2.76-1.21a23.48,23.48,0,0,0,3.92,6Zm119.37-1.32c-10.44-2.17-19.92.8-33.83,10.61h0A54.83,54.83,0,0,1,777.14,641a58.14,58.14,0,0,1-11.89,1.2c-14.7,0-30-5.26-42.68-15l1.83-2.39c15.48,11.87,35,16.82,52.12,13.23a51,51,0,0,0,13.73-5h0c11.16-8.28,11.77-25.3,11.77-25.47a29.76,29.76,0,0,0-3.54-16.35,23.74,23.74,0,0,0-6.91-8,30.52,30.52,0,0,0-10.4-4.43c-7.43-1.88-14-1.92-19.49-.12s-10.78,7.83-9.71,14.41l-3,.48c-1.35-8.25,4.91-15.51,11.74-17.75,6-2,13.17-2,21.17.06a33,33,0,0,1,11.41,4.91,26.68,26.68,0,0,1,7.8,9A32.65,32.65,0,0,1,805,607.74a45.11,45.11,0,0,1-5.25,18.73c7.92-6.88,13.57-16,15.43-25.9l3,.55a46.79,46.79,0,0,1-9,19.69c9.53-5,17.49-6.4,25.86-4.66Zm14.78,5c-2.31-1.05-4.61-2-6.81-2.75l1-2.84c2.28.81,4.66,1.76,7.05,2.84Z"/><path class="cls-2" d="M884.09,523.62c-1.92-2.26-3.76-4.59-5.77-6.78-4.94-5.41-10.9-9.5-17.13-13.24h0l-2.5-1.64a21.68,21.68,0,0,1-7-8.24,9.06,9.06,0,0,0-4.59-4.23,18.35,18.35,0,0,0-11-1.39A21,21,0,0,0,825,493.24c-3.4,3.14-4.74,6.51-3.86,10.9.44,2.17,1,4.32,1.5,6.47a11.41,11.41,0,0,0,8.54,8.71,10.35,10.35,0,0,0,12.21-5.07c3-5.68-2.68-11-6.82-10.81-2.87.12-4.12,2.33-2.63,4.78a18.23,18.23,0,0,0,1.15,1.51,1.46,1.46,0,0,1-.37,2.15,1.77,1.77,0,0,1-1.7-.23,10.41,10.41,0,0,1-3.25-6.82,3.3,3.3,0,0,1,2.64-3.62,19,19,0,0,1,5.37-.23c4.54.48,8.07,3.36,9,7.26a26.8,26.8,0,0,1,.39,3.9l-1.75,4.4a11.17,11.17,0,0,1-8.08,6.08l-5.11.15c-6.21-1-11-4.13-12.74-10.29-.83-2.93-2.2-4.14-4.89-4.47-.18,0-.35-.11-.53-.14-5.4-.92-10.41-.68-14.93,3.19-3.61,3.08-7.7,5.64-13.15,4.74.31.46.44.7.61.9,4,5,9.33,7.22,15.58,7.69a6.6,6.6,0,0,1,3.08,1.11,53,53,0,0,0,15.35,7.5h0l.45.11c.4.11.79.24,1.2.34h.17l1.68.43,0,0,.6.11,2,.52.13-.14A30.26,30.26,0,0,0,842.71,533c5.67-2.23,11.19-4.86,16.67-7.55a27.47,27.47,0,0,1,17.9-2.7c2.16.43,4.34.83,6.51,1.24Zm-75.56-7a12.61,12.61,0,0,1-2.17-3.32l1.35-.59a11.43,11.43,0,0,0,1.93,2.94ZM867.1,516c-5.12-1.06-9.78.4-16.6,5.21h0A27,27,0,0,1,839,526.72a29,29,0,0,1-5.83.59A34.88,34.88,0,0,1,812.21,520l.9-1.17c7.59,5.82,17.15,8.25,25.57,6.49a25,25,0,0,0,6.74-2.47h0c5.47-4.06,5.77-12.41,5.77-12.5a14.53,14.53,0,0,0-1.74-8,11.52,11.52,0,0,0-3.39-3.94,14.76,14.76,0,0,0-5.1-2.17,17,17,0,0,0-9.56-.06c-2.7.88-5.29,3.84-4.77,7.07l-1.45.24c-.67-4.06,2.4-7.61,5.76-8.71a18.45,18.45,0,0,1,10.38,0,16.34,16.34,0,0,1,5.6,2.4,13,13,0,0,1,3.83,4.43,16.13,16.13,0,0,1,1.92,8.81,22.19,22.19,0,0,1-2.58,9.19,22.61,22.61,0,0,0,7.57-12.71l1.45.27a22.89,22.89,0,0,1-4.4,9.66c4.68-2.47,8.59-3.14,12.69-2.29Zm7.25,2.45c-1.13-.52-2.26-1-3.34-1.35l.49-1.39c1.12.39,2.29.86,3.46,1.39Z"/></svg>