<svg id="Layer_1" data-name="Layer 1" xmlns="http://www.w3.org/2000/svg" viewBox="0 0 1769.49 1080"><defs><style>.cls-1{fill:#5ea7a2;}.cls-2{fill:#589894;}.cls-3{fill:#4d7d7b;}</style></defs><title>12</title><rect class="cls-1" x="-33.35" y="-18.4" width="1863.75" height="1114.83"/><path class="cls-2" d="M1135.29,522.93c-13.74-15-30.31-26.41-47.63-36.8h0l-7-4.56c-8.3-5.65-14.75-13.54-19.5-22.89a25.34,25.34,0,0,0-12.76-11.77,51.31,51.31,0,0,0-30.59-3.85c-11.39,2-21.66,5.94-30.73,14.3-9.47,8.72-13.18,18.08-10.74,30.27,1.21,6,2.63,12,4.17,18,3.25,12.58,10.94,20.64,23.72,24.23,13.51,3.79,27.44-1.68,34-14.12,8.26-15.77-7.46-30.52-19-30-8,.34-11.47,6.48-7.31,13.29.91,1.49,2.11,2.81,3.17,4.21,1.78,2.34.7,4.65-1,6-.92.71-3.74.31-4.71-.63a28.85,28.85,0,0,1-9-19c-.38-4.81,2.51-9.19,7.34-10.06a53.71,53.71,0,0,1,14.92-.65c12.62,1.33,22.43,9.34,25.08,20.19.9,3.69.8,7.62,1.1,10.84L1044,522.09c-4.48,9-12.23,14.74-22.47,16.91l-14.2.4c-17.25-2.8-30.55-11.47-35.41-28.59-2.31-8.14-6.1-11.51-13.59-12.44-.5-.06-1-.28-1.47-.36-15-2.58-28.92-1.89-41.49,8.85-10,8.57-21.4,15.67-36.55,13.17.86,1.29,1.23,1.94,1.69,2.51,11.12,13.83,25.93,20.07,43.3,21.37a18.14,18.14,0,0,1,8.56,3.09A147.24,147.24,0,0,0,975,567.83l0,0,1.25.32c1.11.32,2.2.65,3.32.94a3.58,3.58,0,0,0,.48,0l4.66,1.2-.1.1c.56.11,1.11.19,1.66.3l5.65,1.46.36-.41c15.34,2.28,30,1.48,44-4,15.77-6.2,31.12-13.52,46.35-21,15.9-7.79,32.24-11,49.73-7.51,6,1.2,12.06,2.29,18.09,3.43.28-.3.55-.61.83-.92C1146,535.48,1140.85,529,1135.29,522.93Zm-194-.67a35.85,35.85,0,0,1-6-9.23l3.76-1.65a31.83,31.83,0,0,0,5.35,8.17Zm162.79-1.81c-14.24-3-27.17,1.1-46.14,14.47v0a74.54,74.54,0,0,1-32,15.47,79.62,79.62,0,0,1-16.22,1.64c-20,0-40.9-7.18-58.2-20.45l2.5-3.25c21.1,16.18,47.68,22.93,71.08,18a69.65,69.65,0,0,0,18.72-6.85h0c15.21-11.29,16-34.5,16.05-34.73a40.59,40.59,0,0,0-4.83-22.29,32.25,32.25,0,0,0-9.43-11c-3.62-2.59-8.13-4.51-14.18-6-10.13-2.57-19.07-2.62-26.57-.16S990.17,476,991.64,485l-4,.67c-1.85-11.26,6.69-21.15,16-24.21,8.25-2.7,18-2.68,28.86.08,6.56,1.67,11.51,3.79,15.56,6.69a36.48,36.48,0,0,1,10.64,12.31A44.67,44.67,0,0,1,1064,505a61.29,61.29,0,0,1-7.1,25.48c10.77-9.38,18.45-21.78,21-35.27l4,.76a63.79,63.79,0,0,1-12.22,26.85c13-6.88,23.84-8.73,35.26-6.36Zm20.15,6.8c-3.16-1.43-6.28-2.69-9.28-3.74l1.36-3.87c3.11,1.09,6.35,2.4,9.61,3.87Z"/><path class="cls-2" d="M822.86,542h0l-5.1-3.34a44,44,0,0,1-14.3-16.78,18.58,18.58,0,0,0-9.36-8.63,37.58,37.58,0,0,0-22.43-2.83c-8.36,1.49-15.89,4.36-22.54,10.49-6.94,6.39-9.66,13.26-7.87,22.2.89,4.42,1.92,8.82,3.05,13.18,2.39,9.23,8,15.14,17.4,17.77,9.91,2.78,20.12-1.23,24.89-10.35,6.06-11.57-5.46-22.38-13.89-22-5.86.24-8.41,4.75-5.36,9.74.67,1.09,1.55,2.06,2.33,3.09a3,3,0,0,1-.75,4.38c-.67.52-2.74.22-3.46-.46a21.19,21.19,0,0,1-6.62-13.9,6.71,6.71,0,0,1,5.38-7.39,39.36,39.36,0,0,1,10.94-.47c9.25,1,16.45,6.84,18.39,14.81a52.67,52.67,0,0,1,.81,7.94l-3.57,9c-3.28,6.62-9,10.81-16.47,12.39l-10.41.3c-12.66-2.05-22.41-8.41-26-21-1.7-6-4.47-8.44-10-9.12-.36,0-.71-.2-1.07-.26-11-1.9-21.21-1.39-30.43,6.48-7.36,6.29-15.69,11.5-26.81,9.67.64.94.91,1.41,1.25,1.83,8.15,10.15,19,14.72,31.75,15.67a13.34,13.34,0,0,1,6.28,2.27,107.86,107.86,0,0,0,31.29,15.27l0,0,.92.24c.81.23,1.61.48,2.43.68a2,2,0,0,0,.35,0l3.43.89-.08.06c.41.09.81.15,1.22.23l4.14,1.07.27-.3c11.24,1.67,22,1.08,32.29-3,11.56-4.54,22.82-9.91,34-15.38,11.66-5.71,23.64-8.06,36.47-5.51,4.41.88,8.84,1.68,13.26,2.52l.62-.68c-3.91-4.61-7.67-9.36-11.74-13.82C847.71,558,835.55,549.63,822.86,542ZM715.54,568.5a26.19,26.19,0,0,1-4.42-6.77l2.76-1.21a23.15,23.15,0,0,0,3.92,6Zm119.37-1.33C824.47,565,815,568,801.08,577.78h0a54.66,54.66,0,0,1-23.46,11.34,58.17,58.17,0,0,1-11.9,1.21c-14.69,0-30-5.27-42.67-15l1.83-2.39c15.48,11.87,35,16.82,52.12,13.24a51.46,51.46,0,0,0,13.73-5h0c11.16-8.29,11.77-25.3,11.77-25.48A29.74,29.74,0,0,0,799,539.32a23.65,23.65,0,0,0-6.92-8,30.24,30.24,0,0,0-10.4-4.44c-7.42-1.88-14-1.92-19.48-.11s-10.79,7.82-9.71,14.4l-3,.49c-1.35-8.26,4.91-15.51,11.74-17.75,6-2,13.17-2,21.16.06a33,33,0,0,1,11.41,4.9,26.59,26.59,0,0,1,7.81,9,32.78,32.78,0,0,1,3.91,18,45.29,45.29,0,0,1-5.25,18.73c7.92-6.89,13.57-16,15.43-25.91l3,.56a46.88,46.88,0,0,1-9,19.68c9.52-5,17.49-6.39,25.86-4.65Zm14.78,5c-2.32-1-4.61-2-6.81-2.74l1-2.84c2.28.8,4.66,1.75,7,2.84Z"/><path class="cls-3" d="M884.55,471.7c-1.91-2.27-3.76-4.6-5.76-6.78-4.94-5.41-10.9-9.5-17.13-13.25h0l-2.5-1.64a21.53,21.53,0,0,1-7-8.24,9.11,9.11,0,0,0-4.59-4.23,18.5,18.5,0,0,0-11-1.39,21,21,0,0,0-11.06,5.15c-3.4,3.14-4.74,6.51-3.86,10.89q.66,3.26,1.5,6.47a11.41,11.41,0,0,0,8.54,8.72,10.36,10.36,0,0,0,12.21-5.08c3-5.68-2.68-11-6.82-10.81-2.87.12-4.12,2.33-2.63,4.78.33.54.76,1,1.14,1.52a1.45,1.45,0,0,1-.36,2.14,1.79,1.79,0,0,1-1.7-.22,10.46,10.46,0,0,1-3.25-6.82,3.32,3.32,0,0,1,2.64-3.63,19.73,19.73,0,0,1,5.37-.23c4.54.48,8.07,3.36,9,7.27a26.53,26.53,0,0,1,.39,3.9l-1.75,4.39a11.18,11.18,0,0,1-8.08,6.09l-5.11.14c-6.21-1-11-4.13-12.74-10.29-.84-2.92-2.2-4.14-4.89-4.47-.18,0-.35-.1-.53-.13-5.4-.93-10.41-.68-14.93,3.18-3.61,3.09-7.7,5.64-13.15,4.74.31.47.44.7.61.91,4,5,9.32,7.22,15.57,7.68a6.54,6.54,0,0,1,3.09,1.12,52.86,52.86,0,0,0,15.35,7.49h0l.45.12c.4.11.79.23,1.2.33a.88.88,0,0,0,.17,0l1.68.43,0,0c.2.05.4.07.6.11l2,.53.13-.15a30.36,30.36,0,0,0,15.85-1.45c5.67-2.23,11.19-4.87,16.67-7.55,5.72-2.8,11.6-4,17.9-2.7,2.16.43,4.33.82,6.5,1.23Zm-75.56-7a12.77,12.77,0,0,1-2.16-3.31l1.35-.6a11.31,11.31,0,0,0,1.92,2.94Zm58.58-.65c-5.12-1.06-9.78.4-16.6,5.21h0a26.88,26.88,0,0,1-11.51,5.56,28.34,28.34,0,0,1-5.83.59A34.81,34.81,0,0,1,812.68,468l.89-1.17c7.6,5.82,17.16,8.25,25.58,6.49a25.08,25.08,0,0,0,6.74-2.46h0c5.47-4.07,5.77-12.42,5.77-12.5a14.49,14.49,0,0,0-1.74-8,11.43,11.43,0,0,0-3.39-3.94,14.57,14.57,0,0,0-5.1-2.18,17.23,17.23,0,0,0-9.56-.06c-2.71.89-5.3,3.84-4.77,7.07l-1.45.24c-.67-4.05,2.4-7.61,5.76-8.71a18.63,18.63,0,0,1,10.38,0,16.15,16.15,0,0,1,5.6,2.41,13.1,13.1,0,0,1,3.83,4.43,16.08,16.08,0,0,1,1.92,8.8,22.15,22.15,0,0,1-2.58,9.19,22.54,22.54,0,0,0,7.57-12.71l1.45.27a22.93,22.93,0,0,1-4.4,9.67c4.68-2.48,8.58-3.14,12.69-2.29Zm7.25,2.45c-1.14-.51-2.26-1-3.34-1.35l.49-1.39c1.12.4,2.28.86,3.46,1.4Z"/><path class="cls-2" d="M979.93,650.29c-1.91-2.27-3.76-4.6-5.76-6.79-4.94-5.4-10.91-9.5-17.14-13.24h0l-2.5-1.64a21.61,21.61,0,0,1-7-8.24,9.11,9.11,0,0,0-4.59-4.23,18.42,18.42,0,0,0-11-1.39,20.94,20.94,0,0,0-11.06,5.15c-3.41,3.13-4.74,6.5-3.86,10.89.43,2.17.94,4.33,1.5,6.47A11.41,11.41,0,0,0,927,646a10.38,10.38,0,0,0,12.22-5.08c3-5.68-2.68-11-6.82-10.81-2.87.12-4.13,2.33-2.63,4.78a18.65,18.65,0,0,0,1.14,1.51,1.46,1.46,0,0,1-.36,2.15,1.79,1.79,0,0,1-1.7-.22,10.41,10.41,0,0,1-3.25-6.82,3.29,3.29,0,0,1,2.64-3.63,19.34,19.34,0,0,1,5.37-.23c4.54.48,8.07,3.36,9,7.27a25.31,25.31,0,0,1,.4,3.89l-1.75,4.4a11.21,11.21,0,0,1-8.08,6.09l-5.11.14c-6.21-1-11-4.13-12.75-10.29-.83-2.93-2.19-4.14-4.89-4.47-.17,0-.34-.1-.52-.13-5.4-.93-10.41-.68-14.93,3.18-3.62,3.09-7.7,5.64-13.16,4.74.32.47.45.7.61.9,4,5,9.33,7.23,15.58,7.69a6.46,6.46,0,0,1,3.08,1.12,53,53,0,0,0,15.36,7.49h0l.45.11c.4.12.79.24,1.19.34l.18,0,1.68.43,0,0,.6.11,2,.53.13-.15a30.22,30.22,0,0,0,15.84-1.46c5.68-2.22,11.2-4.86,16.68-7.54a27.39,27.39,0,0,1,17.89-2.71c2.17.44,4.34.83,6.51,1.24Zm-75.56-7a12.82,12.82,0,0,1-2.16-3.32l1.35-.59a11.47,11.47,0,0,0,1.92,2.94Zm58.58-.65c-5.12-1.06-9.78.4-16.6,5.21h0a26.78,26.78,0,0,1-11.51,5.57A29.07,29.07,0,0,1,929,654a34.92,34.92,0,0,1-20.94-7.36l.9-1.17c7.6,5.82,17.16,8.25,25.58,6.49a25.2,25.2,0,0,0,6.74-2.46h0C946.74,645.4,947,637.05,947,637a14.55,14.55,0,0,0-1.74-8,11.72,11.72,0,0,0-3.39-3.94,14.85,14.85,0,0,0-5.1-2.17,17.26,17.26,0,0,0-9.57-.06c-2.7.89-5.29,3.84-4.76,7.07l-1.46.24c-.66-4.05,2.41-7.61,5.76-8.71a18.49,18.49,0,0,1,10.39,0,16.34,16.34,0,0,1,5.6,2.4,13.41,13.41,0,0,1,3.83,4.43,16,16,0,0,1,1.91,8.81,21.89,21.89,0,0,1-2.57,9.19,22.66,22.66,0,0,0,7.57-12.71l1.45.27a22.83,22.83,0,0,1-4.4,9.66c4.67-2.47,8.58-3.14,12.69-2.28Zm7.25,2.45c-1.14-.51-2.26-1-3.34-1.35l.49-1.39c1.12.39,2.28.86,3.46,1.39Z"/><circle class="cls-2" cx="988.45" cy="712.87" r="13.3"/><circle class="cls-2" cx="939.85" cy="427.28" r="16.63"/><circle class="cls-3" cx="570.87" cy="578.99" r="6"/><circle class="cls-2" cx="751.08" cy="463.73" r="6"/><circle class="cls-3" cx="828.87" cy="659.97" r="6"/></svg>