<svg xmlns="http://www.w3.org/2000/svg" viewBox="0 0 1769.49 1080"><defs><style>.cls-1{isolation:isolate;}.cls-2{fill:#5ea7a2;}.cls-3{fill:#589894;opacity:0.09;mix-blend-mode:multiply;}</style></defs><title>13</title><g class="cls-1"><g id="Layer_1" data-name="Layer 1"><rect class="cls-2" x="-33.35" y="-18.4" width="1863.75" height="1114.83"/><path class="cls-3" d="M1095.91,848.71c-40-43.75-88.25-76.87-138.66-107.15l0,0-20.23-13.26a155.59,155.59,0,0,1-20.19-16.41c.79,16.54-18.79,30.79-18.79,30.79,5.42-18.32,3.13-37.68-1.71-54.52-.36-.5-.73-1-1.08-1.5a172.63,172.63,0,0,0-256.06-87.91c-66.14,44.06-49.15,109.93-49.15,109.93-20-68-113-57.82-113-57.81h0c-103.69,20.84-115.85,78.67-115.85,78.67-4.26,10.42-5.15,21.77-2.55,34.73,2.41,12,5.23,24,8.3,35.86.42,1.63.9,3.21,1.4,4.77a64,64,0,0,0-58.26-37.52c-18.1,0-33.86,1.31-45.5,13.39-9.36,3.17-19,14.41-27.72,21.86-20,17.1-42.66,31.26-72.88,26.28,1.73,2.57,2.46,3.86,3.38,5,22.18,27.58,51.7,40,86.34,42.61a36,36,0,0,1,17.07,6.17c26.32,18.32,54.5,32.52,85.1,41.52l-.05.05,2.49.64c2.21.63,4.39,1.3,6.62,1.87a5.7,5.7,0,0,0,.95.08l9.31,2.4-.21.19c1.11.23,2.21.39,3.32.61l11.27,2.9.72-.81c30.58,4.54,59.78,2.94,87.8-8.07,6.4-2.51,12.76-5.14,19.1-7.83q2,.12,4,.18c1.35.76,2.66,1.55,3.89,2.41,38.43,26.74,79.56,47.48,124.24,60.62l-.08.07,3.65.93c3.21.92,6.4,1.9,9.65,2.73a10.28,10.28,0,0,0,1.4.12l13.59,3.49-.31.28c1.63.34,3.22.57,4.84.89l16.46,4.24,1-1.18c44.64,6.63,87.27,4.29,128.18-11.78,45.9-18,90.59-39.35,134.92-61.06,46.29-22.68,93.87-32,144.79-21.87,17.52,3.5,35.1,6.67,52.65,10l2.44-2.69C1127,885.25,1112.1,866.4,1095.91,848.71Z"/><path class="cls-3" d="M1505.44,415.54c-40-43.75-88.26-76.87-138.67-107.14l0,0-20.23-13.26a155.59,155.59,0,0,1-20.19-16.41c.79,16.54-18.79,30.79-18.79,30.79,5.42-18.32,3.13-37.68-1.71-54.52-.36-.5-.73-1-1.08-1.5a172.63,172.63,0,0,0-256.06-87.91c-66.14,44.06-49.15,109.93-49.15,109.93-20-68-113-57.81-113-57.81h0c-103.7,20.84-115.86,78.67-115.86,78.67-4.26,10.42-5.15,21.77-2.55,34.73,2.41,12,5.23,24,8.3,35.86.43,1.63.9,3.21,1.4,4.77a64,64,0,0,0-58.26-37.52c-18.1,0-33.86,1.31-45.5,13.39-9.36,3.17-19,14.41-27.71,21.86-20,17.1-42.67,31.26-72.89,26.28,1.73,2.57,2.46,3.86,3.38,5,22.18,27.58,51.7,40,86.34,42.61a36,36,0,0,1,17.07,6.17c26.32,18.32,54.5,32.52,85.1,41.52l0,.05,2.5.64c2.2.63,4.38,1.3,6.61,1.87a5.7,5.7,0,0,0,.95.08l9.31,2.4-.21.19c1.12.23,2.21.39,3.32.61l11.27,2.9.72-.81c30.58,4.54,59.78,2.94,87.8-8.06,6.4-2.52,12.76-5.15,19.1-7.84,1.33.08,2.65.14,4,.18,1.35.76,2.66,1.55,3.89,2.41,38.43,26.74,79.56,47.48,124.24,60.62l-.08.07,3.65.93c3.22.92,6.4,1.9,9.65,2.73a10.28,10.28,0,0,0,1.4.12l13.59,3.49-.3.28c1.62.34,3.21.57,4.83.89L1088,559l1-1.18c44.64,6.63,87.27,4.29,128.18-11.78,45.9-18,90.6-39.35,134.92-61.06,46.29-22.68,93.87-32,144.79-21.87,17.52,3.5,35.1,6.67,52.65,10l2.44-2.69C1536.55,452.08,1521.62,433.23,1505.44,415.54Z"/></g></g></svg>