<svg id="Layer_1" data-name="Layer 1" xmlns="http://www.w3.org/2000/svg" viewBox="0 0 1769.49 1080"><defs><style>.cls-1{fill:#304a63;}.cls-2{fill:#5ea7a2;}</style></defs><title>10</title><rect class="cls-1" x="-33.35" y="-18.4" width="1863.75" height="1114.83"/><path class="cls-2" d="M952.59,500.56c-13.75-15-30.32-26.4-47.63-36.8h0l-7-4.56c-8.3-5.65-14.75-13.54-19.51-22.88a25.28,25.28,0,0,0-12.75-11.77,51.28,51.28,0,0,0-30.6-3.86c-11.39,2-21.66,5.94-30.73,14.3-9.47,8.72-13.18,18.09-10.73,30.27,1.21,6,2.62,12,4.16,18,3.26,12.58,10.95,20.64,23.73,24.23,13.5,3.8,27.43-1.67,33.94-14.11,8.26-15.78-7.46-30.52-18.95-30-8,.33-11.46,6.48-7.31,13.28a51,51,0,0,0,3.18,4.21c1.78,2.34.69,4.65-1,6-.91.71-3.74.31-4.71-.62a28.89,28.89,0,0,1-9-19c-.39-4.81,2.51-9.2,7.33-10.07a53.73,53.73,0,0,1,14.92-.65c12.62,1.33,22.43,9.34,25.08,20.19.9,3.69.8,7.63,1.1,10.84l-4.86,12.22c-4.47,9-12.22,14.75-22.46,16.91l-14.2.4c-17.26-2.79-30.55-11.47-35.42-28.59-2.31-8.14-6.09-11.5-13.59-12.43-.49-.07-1-.28-1.46-.37-15-2.58-28.93-1.89-41.5,8.85-10,8.57-21.39,15.67-36.55,13.18.87,1.28,1.24,1.93,1.7,2.5,11.12,13.84,25.92,20.07,43.29,21.37a18,18,0,0,1,8.56,3.1,147.21,147.21,0,0,0,42.68,20.82l0,0,1.25.33c1.11.31,2.2.65,3.32.93a2.45,2.45,0,0,0,.48,0L802,548l-.11.1c.56.12,1.11.19,1.66.3l5.66,1.46.36-.4c15.33,2.27,30,1.47,44-4.05,15.76-6.19,31.12-13.52,46.34-21,15.9-7.79,32.24-11,49.74-7.51,6,1.2,12.05,2.29,18.08,3.44l.84-.93C963.27,513.12,958.15,506.64,952.59,500.56Zm-194-.67a35.45,35.45,0,0,1-6-9.22l3.75-1.65a32,32,0,0,0,5.35,8.17Zm162.79-1.81c-14.24-2.95-27.17,1.1-46.14,14.48v0a74.61,74.61,0,0,1-32,15.46A79.56,79.56,0,0,1,827,529.65c-20,0-40.9-7.19-58.19-20.45l2.49-3.26c21.11,16.18,47.68,22.93,71.08,18a69.38,69.38,0,0,0,18.73-6.85h0c15.22-11.3,16-34.51,16-34.74a40.51,40.51,0,0,0-4.83-22.29,32.34,32.34,0,0,0-9.43-11c-3.62-2.59-8.12-4.51-14.18-6-10.13-2.57-19.07-2.63-26.57-.17s-14.71,10.68-13.24,19.65l-4,.66C803,452,811.57,442.1,820.89,439c8.25-2.7,18-2.68,28.86.09,6.57,1.66,11.51,3.79,15.56,6.68A36.58,36.58,0,0,1,876,458.12a44.69,44.69,0,0,1,5.33,24.48,61.37,61.37,0,0,1-7.09,25.48c10.76-9.38,18.45-21.77,21-35.27l4,.76A64,64,0,0,1,887,500.42c13-6.88,23.84-8.72,35.25-6.36Zm20.14,6.81c-3.15-1.43-6.28-2.69-9.28-3.75l1.36-3.87c3.11,1.1,6.35,2.4,9.62,3.88Z"/><path class="cls-2" d="M1066.66,449.33c-1.92-2.26-3.77-4.59-5.77-6.78-4.94-5.41-10.9-9.5-17.13-13.24h0l-2.5-1.64a21.57,21.57,0,0,1-7-8.23,9.13,9.13,0,0,0-4.59-4.24,18.5,18.5,0,0,0-11-1.39,21.05,21.05,0,0,0-11.06,5.15c-3.4,3.14-4.74,6.51-3.86,10.89q.66,3.26,1.5,6.47a11.41,11.41,0,0,0,8.54,8.72A10.35,10.35,0,0,0,1026,440c3-5.68-2.68-11-6.82-10.81-2.87.12-4.12,2.33-2.63,4.78.33.54.76,1,1.14,1.52a1.45,1.45,0,0,1-.36,2.15,1.79,1.79,0,0,1-1.7-.23,10.41,10.41,0,0,1-3.25-6.82,3.3,3.3,0,0,1,2.64-3.62,19.34,19.34,0,0,1,5.37-.24c4.54.48,8.07,3.36,9,7.27a26.67,26.67,0,0,1,.39,3.9l-1.75,4.4a11.19,11.19,0,0,1-8.08,6.08l-5.11.14c-6.21-1-11-4.12-12.74-10.28-.84-2.93-2.2-4.14-4.89-4.48-.18,0-.35-.1-.53-.13-5.4-.93-10.41-.68-14.93,3.18-3.61,3.09-7.7,5.64-13.15,4.75.31.46.44.69.61.9,4,5,9.32,7.22,15.58,7.69a6.53,6.53,0,0,1,3.08,1.11,52.73,52.73,0,0,0,15.35,7.49h0l.45.12,1.2.34h.17l1.68.43,0,0,.6.11,2,.52.13-.15a30.26,30.26,0,0,0,15.85-1.45c5.67-2.23,11.19-4.87,16.67-7.55,5.72-2.8,11.6-4,17.9-2.7,2.16.43,4.33.82,6.5,1.23Zm-75.57-7a13,13,0,0,1-2.16-3.32l1.35-.6a11.1,11.1,0,0,0,1.93,2.94Zm58.58-.65c-5.12-1.07-9.78.39-16.6,5.2h0a26.77,26.77,0,0,1-11.51,5.56,28.34,28.34,0,0,1-5.83.59,34.87,34.87,0,0,1-20.94-7.35l.89-1.18c7.6,5.83,17.16,8.26,25.58,6.5a25.1,25.1,0,0,0,6.74-2.47h0c5.47-4.07,5.77-12.42,5.77-12.5a14.51,14.51,0,0,0-1.74-8,11.52,11.52,0,0,0-3.39-3.94,15,15,0,0,0-5.1-2.18,17.12,17.12,0,0,0-9.56-.05c-2.71.88-5.3,3.84-4.77,7.06l-1.45.24c-.67-4.05,2.4-7.61,5.76-8.71a18.63,18.63,0,0,1,10.38,0,16.34,16.34,0,0,1,5.6,2.41,13.1,13.1,0,0,1,3.83,4.43,16.1,16.1,0,0,1,1.92,8.81,22.19,22.19,0,0,1-2.58,9.19,22.6,22.6,0,0,0,7.57-12.72l1.45.28a23,23,0,0,1-4.4,9.66c4.68-2.47,8.58-3.14,12.69-2.29Zm7.25,2.44c-1.14-.51-2.26-1-3.34-1.34l.49-1.4c1.12.4,2.28.87,3.46,1.4Z"/></svg>