<svg id="Layer_1" data-name="Layer 1" xmlns="http://www.w3.org/2000/svg" xmlns:xlink="http://www.w3.org/1999/xlink" viewBox="0 0 2344.68 935.63"><defs><style>.cls-1,.cls-8{fill:#367d75;}.cls-2{fill:#2f5f5b;}.cls-3{fill:#9fa851;}.cls-4{opacity:0.5;}.cls-5{fill:url(#linear-gradient);}.cls-6{fill:url(#linear-gradient-2);}.cls-7{fill:url(#linear-gradient-3);}.cls-8{stroke:#367d76;stroke-miterlimit:10;stroke-width:3px;}.cls-9{fill:#e5af36;}.cls-10{fill:url(#linear-gradient-4);}.cls-11{fill:url(#linear-gradient-5);}.cls-12{fill:url(#linear-gradient-6);}</style><linearGradient id="linear-gradient" x1="1779.97" y1="409.94" x2="1781.18" y2="343.5" gradientUnits="userSpaceOnUse"><stop offset="0" stop-color="#3b6660" stop-opacity="0"/><stop offset="1" stop-color="#305051"/></linearGradient><linearGradient id="linear-gradient-2" x1="1528.28" y1="467.42" x2="1529.49" y2="400.97" xlink:href="#linear-gradient"/><linearGradient id="linear-gradient-3" x1="1337.48" y1="365.79" x2="1338.69" y2="299.34" xlink:href="#linear-gradient"/><linearGradient id="linear-gradient-4" x1="390.19" y1="409.94" x2="391.4" y2="343.5" gradientTransform="matrix(-1, 0, 0, 1, 952.89, 0)" xlink:href="#linear-gradient"/><linearGradient id="linear-gradient-5" x1="138.5" y1="467.42" x2="139.71" y2="400.97" gradientTransform="matrix(-1, 0, 0, 1, 952.89, 0)" xlink:href="#linear-gradient"/><linearGradient id="linear-gradient-6" x1="-52.29" y1="365.79" x2="-51.09" y2="299.34" gradientTransform="matrix(-1, 0, 0, 1, 952.89, 0)" xlink:href="#linear-gradient"/></defs><title>37</title><rect class="cls-1" x="-3.28" y="476.5" width="2350" height="465"/><path class="cls-2" d="M634.05,223.28c5.66-6.59,15.84-6.42,24.38-4.8s17.73,4.07,25.59.36c16.43-7.76,13.68-35,29.19-44.44,9.85-6,23-2.19,33.72-6.42,8.52-3.37,14.85-11.56,23.84-13.33,9.71-1.9,19.33,4.53,25.09,12.58s8.82,17.66,13.51,26.37,11.91,17,21.63,18.84c12.81,2.4,27.7-6.73,38.22,1,11.64,8.53,6.77,30.65,19.64,37.18,8.21,4.17,18.06-1.21,27.22-.33,9.88,1,17.77,9.32,21.18,18.64s3.21,19.52,3,29.45H625Z"/><path class="cls-3" d="M741.91,222.81c.75,1,1.64,1.87,2.48,2.8a27.53,27.53,0,0,0,5.18,3.87c3.3,1.61,6.61,3.19,10,4.71A9.14,9.14,0,0,1,762,236c1.86,1.75,2,11.74,2.05,14.07.78-.16,1.53-.6,2.31-.75-.23-6.21.35-15.79.88-24.17.37-.09.74-.2,1.11-.32a24.81,24.81,0,0,0,5-2.41c2-1.21,4-2.51,5.86-3.88a10.19,10.19,0,0,0,3.14.3A58.08,58.08,0,0,0,795.92,217l-.46-1.8a56.61,56.61,0,0,1-13.15,1.8c-.34,0-.68,0-1,0a79.9,79.9,0,0,0,10.13-9.42L790,206.31A77,77,0,0,1,776.9,217.9a40.65,40.65,0,0,0,4-12l-1.83-.3a38.77,38.77,0,0,1-5.4,14.26l.15.1-1.41.86a21,21,0,0,1-5,2.37c.21-3.28.4-6.32.51-8.81a61.06,61.06,0,0,0-1.55-15.29c-.68-2.63-2-5-2.77-7.59l-1.89.69a49.77,49.77,0,0,1,3.62,16.5,39.76,39.76,0,0,1-5.49-6.42c-1.23-2-2.53-4-2.67-6.5l-1.45.63c.22.69.44,1.38.65,2.08,1.6,5.33,5.29,9.39,8.36,13.83.57.82,1.35,1.53.75,2.65a4.52,4.52,0,0,1,.1,1.15c-.84,4.87-1.27,9.78-1.67,14.71-.08,1.05.23,2.16-.25,3.25-1.34-1.37-2.59-2.63-3.82-3.9-.63-.66-1.46-1.14-1.68-2.14a50.27,50.27,0,0,1-1.26-9.77l-2.25-11.09-1.82.77a44,44,0,0,1,2.25,11.63,35,35,0,0,1,.6,6.36,26.64,26.64,0,0,1-3.86-4.51c-2-2.26-3.94-4.59-4.73-7.62a22.93,22.93,0,0,1-3.07-7.26l-2,.62.41,2a97.72,97.72,0,0,0,7.32,13.4c1.83,2.38,4.15,4.35,5.76,6.92a17.41,17.41,0,0,1-5.49-2.26c-1.42-.83-3.08-1.43-3.88-3.08-1.31-.46-2.06-1.59-3-2.48-.45-.41-.72-1.44-1.66-.57S741.57,222.36,741.91,222.81Zm13.88,6.87-.2-.17h.22Z"/><path class="cls-3" d="M812.42,258.8c.75,1,1.64,1.88,2.48,2.8a27.1,27.1,0,0,0,5.18,3.87c3.3,1.61,6.61,3.2,10,4.72a8.94,8.94,0,0,1,2.5,1.81c1.86,1.75,2,11.74,2.05,14.06.78-.15,1.53-.59,2.31-.75-.23-6.2.35-15.78.88-24.17.37-.09.74-.19,1.11-.31a24.85,24.85,0,0,0,5-2.42c2-1.2,4-2.5,5.86-3.88a10.2,10.2,0,0,0,3.14.31A58.78,58.78,0,0,0,866.44,253l-.47-1.8A56.08,56.08,0,0,1,852.83,253h-1a78.47,78.47,0,0,0,10.13-9.42l-1.38-1.24a77.33,77.33,0,0,1-13.13,11.58,40.36,40.36,0,0,0,4-12l-1.83-.3a38.75,38.75,0,0,1-5.4,14.27l.15.09c-.47.3-.93.59-1.41.87a21.36,21.36,0,0,1-5,2.37c.21-3.29.4-6.32.51-8.81a61,61,0,0,0-1.55-15.29c-.68-2.63-2-5-2.76-7.59l-1.9.69a49.77,49.77,0,0,1,3.62,16.5,39.83,39.83,0,0,1-5.49-6.43c-1.23-2-2.53-4-2.67-6.5l-1.45.64c.22.69.44,1.38.65,2.07,1.6,5.33,5.29,9.4,8.36,13.84.57.82,1.35,1.52.75,2.65a4.48,4.48,0,0,1,.1,1.14c-.84,4.88-1.27,9.79-1.67,14.71-.08,1.06.23,2.17-.25,3.26-1.34-1.37-2.59-2.63-3.82-3.91-.63-.65-1.46-1.14-1.68-2.13a50.27,50.27,0,0,1-1.26-9.77l-2.25-11.09-1.82.77a43.88,43.88,0,0,1,2.25,11.63,34.81,34.81,0,0,1,.6,6.36,26.3,26.3,0,0,1-3.86-4.52c-2-2.25-3.94-4.58-4.73-7.61a23.12,23.12,0,0,1-3.07-7.27l-2,.63.41,2a97,97,0,0,0,7.32,13.39c1.83,2.39,4.15,4.36,5.76,6.92a17,17,0,0,1-5.48-2.26c-1.43-.83-3.09-1.43-3.89-3.07-1.31-.46-2.06-1.6-3-2.48-.44-.42-.72-1.44-1.66-.58S812.08,258.35,812.42,258.8Zm13.88,6.88-.2-.17h.22Z"/><path class="cls-1" d="M441,320.75c7.23-5.28,16.3-7.13,24.84-9.78s17.4-6.75,21.77-14.55c5.26-9.39,3.23-22.73,11.5-29.62,12.29-10.25,32.22,5,46.49-2.25,14.79-7.48,13.25-33.66,29.11-38.44,9.87-3,21.86,4.44,30.86,2.14a49.69,49.69,0,0,1,14.2-34.15A26.06,26.06,0,0,1,631,185.69a46.46,46.46,0,0,1,4.89-2.3c12.43-4.86,29-1.9,35.15,10,.11.2.2.41.29.61a49.82,49.82,0,0,1,15.76,23.71c9.43.7,19.72-9.52,30.18-8.73,16.53,1.24,20.67,27.14,36.73,31.24,15.49,4,31.67-15.19,45.88-7.85,9.56,4.95,10.46,18.41,17.62,26.44,6,6.68,15.49,8.76,24.4,9.5s18.18.6,26.37,4.19,15,12.45,12.73,21.09l-219,1L433.17,344.1C429.06,336.15,433.81,326,441,320.75Z"/><path class="cls-2" d="M1708.62,223.28c-5.66-6.59-15.84-6.42-24.38-4.8s-17.73,4.07-25.59.36c-16.43-7.76-13.68-35-29.19-44.44-9.85-6-23-2.19-33.72-6.42-8.52-3.37-14.85-11.56-23.84-13.33-9.71-1.9-19.33,4.53-25.09,12.58s-8.82,17.66-13.51,26.37-11.91,17-21.63,18.84c-12.81,2.4-27.7-6.73-38.22,1-11.64,8.53-6.77,30.65-19.64,37.18-8.21,4.17-18.06-1.21-27.22-.33-9.88,1-17.77,9.32-21.18,18.64s-3.22,19.52-3,29.45h315.25Z"/><path class="cls-3" d="M1601.23,221.08c-.94-.87-1.22.16-1.66.57-1,.89-1.71,2-3,2.48-.8,1.65-2.46,2.25-3.89,3.08a17.26,17.26,0,0,1-5.48,2.26c1.61-2.57,3.93-4.54,5.76-6.92a97.72,97.72,0,0,0,7.32-13.4l.41-2-2-.62a23.16,23.16,0,0,1-3.07,7.26c-.79,3-2.7,5.36-4.74,7.62a26.1,26.1,0,0,1-3.85,4.51,35,35,0,0,1,.6-6.36,44,44,0,0,1,2.25-11.63l-1.82-.77-2.25,11.09a50.27,50.27,0,0,1-1.26,9.77c-.22,1-1,1.48-1.68,2.14-1.23,1.27-2.48,2.53-3.82,3.9-.48-1.09-.17-2.2-.25-3.25-.4-4.93-.83-9.84-1.67-14.71a4.52,4.52,0,0,1,.1-1.15c-.6-1.12.18-1.83.75-2.65,3.07-4.44,6.76-8.5,8.36-13.83.21-.7.43-1.39.65-2.08l-1.45-.63c-.14,2.47-1.44,4.48-2.67,6.5a39.76,39.76,0,0,1-5.49,6.42,49.77,49.77,0,0,1,3.62-16.5l-1.9-.69c-.73,2.6-2.08,5-2.76,7.59a61.06,61.06,0,0,0-1.55,15.29c.11,2.49.3,5.53.51,8.81a21,21,0,0,1-5-2.37c-.48-.28-.94-.57-1.41-.86l.15-.1a38.77,38.77,0,0,1-5.4-14.26l-1.83.3a40.36,40.36,0,0,0,4,12,77,77,0,0,1-13.13-11.59l-1.38,1.25a79.9,79.9,0,0,0,10.13,9.42c-.35,0-.69,0-1,0a56.6,56.6,0,0,1-13.14-1.8l-.47,1.8a58.24,58.24,0,0,0,13.58,1.86,10.19,10.19,0,0,0,3.14-.3c1.89,1.37,3.85,2.67,5.86,3.88a24.81,24.81,0,0,0,5,2.41c.37.12.74.23,1.11.32.53,8.38,1.11,18,.88,24.17.78.15,1.53.59,2.31.75.06-2.33.19-12.32,2.05-14.07a9.14,9.14,0,0,1,2.5-1.81c3.35-1.52,6.66-3.1,10-4.71a27.53,27.53,0,0,0,5.18-3.87c.84-.93,1.73-1.81,2.48-2.8C1601.1,222.36,1602.19,222,1601.23,221.08Zm-14.37,8.42h.22l-.2.17Z"/><path class="cls-3" d="M1530.72,257.07c-.94-.86-1.22.16-1.66.58-1,.88-1.71,2-3,2.48-.8,1.64-2.46,2.24-3.89,3.07a17,17,0,0,1-5.48,2.26c1.61-2.56,3.93-4.53,5.76-6.92a97,97,0,0,0,7.32-13.39l.41-2-2-.63a23.12,23.12,0,0,1-3.07,7.27c-.79,3-2.7,5.36-4.74,7.61a25.77,25.77,0,0,1-3.85,4.52,34,34,0,0,1,.6-6.36,43.88,43.88,0,0,1,2.25-11.63l-1.82-.77-2.25,11.09A50.27,50.27,0,0,1,1514,264c-.22,1-1,1.48-1.68,2.13-1.23,1.28-2.48,2.54-3.82,3.91-.48-1.09-.17-2.2-.25-3.26-.4-4.92-.83-9.83-1.67-14.71a4.48,4.48,0,0,1,.1-1.14c-.6-1.13.18-1.83.75-2.65,3.07-4.44,6.76-8.51,8.36-13.84.2-.69.43-1.38.65-2.07l-1.45-.64c-.14,2.48-1.44,4.48-2.67,6.5a39.83,39.83,0,0,1-5.49,6.43,49.77,49.77,0,0,1,3.62-16.5l-1.9-.69c-.73,2.59-2.08,5-2.76,7.59a61,61,0,0,0-1.55,15.29c.11,2.49.3,5.52.51,8.81a21.36,21.36,0,0,1-5-2.37c-.48-.28-.94-.57-1.41-.87l.15-.09a38.75,38.75,0,0,1-5.4-14.27l-1.83.3a40.36,40.36,0,0,0,4,12,77.33,77.33,0,0,1-13.13-11.58l-1.38,1.24a78.47,78.47,0,0,0,10.13,9.42h-1a56.08,56.08,0,0,1-13.14-1.81l-.47,1.8a58.78,58.78,0,0,0,13.58,1.87,10.2,10.2,0,0,0,3.14-.31c1.89,1.38,3.85,2.68,5.86,3.88a24.85,24.85,0,0,0,5,2.42c.37.12.74.22,1.11.31.53,8.39,1.11,18,.88,24.17.78.16,1.53.6,2.31.75.06-2.32.19-12.31,2-14.06a9.13,9.13,0,0,1,2.51-1.81c3.35-1.52,6.66-3.11,10-4.72a27.1,27.1,0,0,0,5.18-3.87c.84-.92,1.73-1.8,2.48-2.8C1530.59,258.35,1531.68,258,1530.72,257.07Zm-14.37,8.43h.22l-.2.17Z"/><path class="cls-1" d="M1901.63,320.75c-7.23-5.28-16.3-7.13-24.84-9.78s-17.4-6.75-21.77-14.55c-5.26-9.39-3.24-22.73-11.5-29.62-12.29-10.25-32.22,5-46.5-2.25-14.78-7.48-13.24-33.66-29.1-38.44-9.87-3-21.86,4.44-30.86,2.14a49.69,49.69,0,0,0-14.2-34.15,26,26,0,0,0-11.23-8.41,45.38,45.38,0,0,0-4.88-2.3c-12.43-4.86-29-1.9-35.15,10-.11.2-.2.41-.29.61a49.82,49.82,0,0,0-15.76,23.71c-9.43.7-19.72-9.52-30.18-8.73-16.53,1.24-20.67,27.14-36.73,31.24-15.49,4-31.67-15.19-45.88-7.85-9.56,4.95-10.46,18.41-17.62,26.44-6,6.68-15.49,8.76-24.4,9.5s-18.18.6-26.37,4.19-15,12.45-12.73,21.09l219,1L1909.5,344.1C1913.61,336.15,1908.86,326,1901.63,320.75Z"/><path class="cls-1" d="M2346.26,394.58s-344.78-126.25-1174.93-123c-830.14-3.22-1174.92,123-1174.92,123V538.31l1174.92-24.22,1174.93,24.22Z"/><g class="cls-4"><path class="cls-5" d="M1891.74,388.74c-7.42-6.19-19.46,3-28.08-1.36-8.93-4.52-8-20.33-17.58-23.22-6-1.79-13.2,2.68-18.64,1.29-.12-7.8-1.56-15-6.91-20.39-1.66-2.25-7.8-6.49-15.9-6.48-22.65,0-24.69,14.83-26.43,20.48-5.69.43-11.91-5.74-18.23-5.27-10,.75-12.48,16.39-22.18,18.87-9.36,2.4-19.13-9.18-27.71-4.74-5.78,3-6.32,11.12-10.65,16-3.6,4-9.35,5.29-14.74,5.74s-11,.36-15.93,2.53l-.14.07c-6,2.7-4.6,11.2,1.23,12.53h218a7.78,7.78,0,0,0,7.51-9.91A11.73,11.73,0,0,0,1891.74,388.74Z"/></g><g class="cls-4"><path class="cls-6" d="M1640.05,446.21c-7.42-6.19-19.46,3-28.08-1.36-8.94-4.51-8-20.33-17.58-23.22-6-1.79-13.2,2.69-18.64,1.3-.12-7.81-1.56-15-6.91-20.39-1.66-2.26-7.8-6.5-15.9-6.49-22.65,0-24.69,14.83-26.43,20.48-5.69.43-11.91-5.74-18.23-5.27-10,.75-12.48,16.4-22.18,18.88-9.36,2.39-19.13-9.18-27.71-4.75-5.78,3-6.32,11.12-10.65,16-3.6,4-9.35,5.29-14.74,5.74s-11,.36-15.93,2.53l-.15.07c-6,2.71-4.59,11.21,1.24,12.54h218a7.79,7.79,0,0,0,7.51-9.92A11.77,11.77,0,0,0,1640.05,446.21Z"/></g><g class="cls-4"><path class="cls-7" d="M1449.26,344.58c-7.43-6.19-19.47,3-28.09-1.36-8.93-4.51-8-20.33-17.58-23.22-6-1.79-13.2,2.69-18.64,1.3-.12-7.81-1.55-15-6.91-20.39-1.66-2.26-7.79-6.5-15.9-6.49-22.65,0-24.69,14.83-26.42,20.48-5.7.43-11.91-5.74-18.23-5.27-10,.75-12.49,16.4-22.19,18.88-9.36,2.39-19.13-9.18-27.71-4.75-5.77,3-6.32,11.12-10.65,16-3.59,4-9.35,5.29-14.73,5.74s-11,.36-15.93,2.53l-.15.07c-6,2.71-4.6,11.21,1.24,12.54h218a7.79,7.79,0,0,0,7.51-9.92A11.82,11.82,0,0,0,1449.26,344.58Z"/></g><path class="cls-2" d="M1624.79,411.91c5.16-.05,13.12.65,13.13,1.6s-7.94,1.8-13.1,1.85-5.58-.72-5.59-1.67S1619.63,412,1624.79,411.91Z"/><path class="cls-2" d="M1640.24,430.49c0-5.16.65-13.12,1.61-13.13s1.8,7.94,1.85,13.1-.73,5.59-1.68,5.59S1640.29,435.66,1640.24,430.49Z"/><path class="cls-2" d="M1655,402.55c-3.61,3.68-9.74,8.82-10.42,8.15s4.34-6.89,8-10.57,4.45-3.44,5.14-2.77S1658.57,398.87,1655,402.55Z"/><path class="cls-2" d="M1628.67,424.4c3.61-3.68,9.73-8.82,10.42-8.15s-4.34,6.89-8,10.57-4.46,3.44-5.14,2.77S1625.05,428.08,1628.67,424.4Z"/><path class="cls-2" d="M1652.73,426.62c-3.68-3.62-8.81-9.74-8.15-10.42s6.89,4.34,10.57,7.95,3.44,4.46,2.77,5.14S1656.42,430.23,1652.73,426.62Z"/><path class="cls-2" d="M1630.88,400.33c3.69,3.62,8.82,9.74,8.15,10.42s-6.88-4.34-10.57-7.95-3.43-4.46-2.77-5.14S1627.2,396.72,1630.88,400.33Z"/><path class="cls-2" d="M1658.83,415c-5.16,0-13.12-.65-13.13-1.6s7.93-1.8,13.1-1.85,5.58.72,5.59,1.67S1664,415,1658.83,415Z"/><path class="cls-2" d="M1643.38,396.46c0,5.16-.65,13.12-1.61,13.13s-1.8-7.94-1.85-13.1.72-5.58,1.68-5.59S1643.33,391.29,1643.38,396.46Z"/><path class="cls-3" d="M1896.42,361.49c5.16,0,13.13.66,13.14,1.61s-7.94,1.8-13.1,1.85-5.59-.72-5.6-1.68S1891.26,361.54,1896.42,361.49Z"/><path class="cls-3" d="M1911.87,380.08c0-5.16.65-13.12,1.61-13.13s1.8,7.94,1.85,13.1-.72,5.58-1.68,5.59S1911.92,385.24,1911.87,380.08Z"/><path class="cls-3" d="M1926.59,352.14c-3.62,3.68-9.74,8.82-10.42,8.15s4.33-6.89,7.95-10.57,4.46-3.44,5.14-2.77S1930.2,348.45,1926.59,352.14Z"/><path class="cls-3" d="M1900.3,374c3.61-3.69,9.74-8.82,10.42-8.15s-4.34,6.88-8,10.57-4.46,3.44-5.14,2.77S1896.68,377.67,1900.3,374Z"/><path class="cls-3" d="M1924.37,376.21c-3.69-3.62-8.82-9.74-8.15-10.42s6.88,4.33,10.57,7.95,3.44,4.46,2.77,5.14S1928.05,379.82,1924.37,376.21Z"/><path class="cls-3" d="M1902.52,349.92c3.68,3.61,8.82,9.74,8.15,10.42s-6.89-4.34-10.57-7.95-3.44-4.46-2.77-5.14S1898.83,346.3,1902.52,349.92Z"/><path class="cls-3" d="M1930.46,364.63c-5.16.05-13.12-.65-13.13-1.6s7.94-1.81,13.1-1.85,5.58.72,5.59,1.67S1935.62,364.58,1930.46,364.63Z"/><path class="cls-3" d="M1915,346c0,5.17-.65,13.13-1.6,13.14s-1.81-7.94-1.85-13.1.72-5.59,1.67-5.6S1915,340.88,1915,346Z"/><path class="cls-3" d="M1341.8,332.92c5.17-.05,13.13.65,13.14,1.6s-7.94,1.8-13.1,1.85-5.59-.72-5.6-1.67S1336.64,333,1341.8,332.92Z"/><path class="cls-3" d="M1357.25,351.5c0-5.16.66-13.12,1.61-13.13s1.8,7.94,1.85,13.1-.72,5.58-1.68,5.59S1357.3,356.67,1357.25,351.5Z"/><path class="cls-3" d="M1372,323.56c-3.62,3.68-9.74,8.82-10.42,8.15s4.34-6.89,8-10.57,4.46-3.44,5.14-2.77S1375.58,319.88,1372,323.56Z"/><path class="cls-3" d="M1345.68,345.41c3.62-3.68,9.74-8.82,10.42-8.15s-4.34,6.89-7.95,10.57-4.46,3.44-5.14,2.77S1342.06,349.09,1345.68,345.41Z"/><path class="cls-3" d="M1369.75,347.63c-3.69-3.62-8.82-9.74-8.15-10.42s6.89,4.34,10.57,8,3.44,4.46,2.77,5.14S1373.43,351.24,1369.75,347.63Z"/><path class="cls-3" d="M1347.9,321.34c3.68,3.62,8.82,9.74,8.15,10.42s-6.89-4.34-10.57-7.95-3.44-4.46-2.77-5.14S1344.21,317.73,1347.9,321.34Z"/><path class="cls-3" d="M1375.84,336.05c-5.16.05-13.12-.65-13.13-1.6s7.94-1.8,13.1-1.85,5.58.72,5.59,1.67S1381,336,1375.84,336.05Z"/><path class="cls-3" d="M1360.39,317.47c0,5.16-.65,13.12-1.6,13.13s-1.81-7.94-1.85-13.1.72-5.59,1.67-5.59S1360.34,312.3,1360.39,317.47Z"/><path class="cls-1" d="M1830.8,178.08c2.81,2.87,6.72,7.71,6.19,8.23s-5.3-3.48-8.12-6.35-2.61-3.52-2.08-4S1828,175.21,1830.8,178.08Z"/><path class="cls-1" d="M1828.71,196.79c2.87-2.82,7.72-6.72,8.24-6.19s-3.48,5.3-6.35,8.11-3.52,2.61-4,2.08S1825.84,199.61,1828.71,196.79Z"/><path class="cls-1" d="M1852.34,190c-4,0-10.21-.7-10.2-1.45s6.21-1.28,10.23-1.24,4.33.64,4.33,1.38S1856.36,190,1852.34,190Z"/><path class="cls-1" d="M1825.88,187c4,0,10.21.7,10.2,1.45s-6.21,1.28-10.23,1.24-4.33-.64-4.33-1.38S1821.86,187,1825.88,187Z"/><path class="cls-1" d="M1837.64,201.71c0-4,.7-10.21,1.44-10.21s1.29,6.21,1.25,10.23-.64,4.34-1.39,4.33S1837.6,205.73,1837.64,201.71Z"/><path class="cls-1" d="M1840.58,175.24c0,4-.7,10.21-1.44,10.21s-1.29-6.21-1.25-10.23.64-4.34,1.39-4.33S1840.62,171.22,1840.58,175.24Z"/><path class="cls-1" d="M1847.43,198.87c-2.82-2.87-6.73-7.71-6.2-8.23s5.3,3.48,8.12,6.35,2.61,3.52,2.08,4S1850.24,201.74,1847.43,198.87Z"/><path class="cls-1" d="M1849.51,180.16c-2.87,2.82-7.72,6.73-8.24,6.19s3.48-5.3,6.35-8.11,3.52-2.61,4-2.08S1852.38,177.34,1849.51,180.16Z"/><path class="cls-8" d="M1872.58,334.48l-2-1.2c15.21-25.76,15.2-59.37,15.2-77.42V254c0-16.93,9.58-36.95,10-37.8l2.14,1c-.1.21-9.74,20.39-9.76,36.77v1.89C1888.11,274.14,1888.12,308.17,1872.58,334.48Z"/><path class="cls-1" d="M1906,237.78c-6.71,6.83-16.9,7.68-16.9,7.68s.68-10.2,7.4-17,16.9-7.68,16.9-7.68S1912.75,231,1906,237.78Z"/><path class="cls-1" d="M1875.13,229.61c-2.92-9.11,1-18.54,1-18.54s8.72,5.35,11.65,14.47-1,18.54-1,18.54S1878.06,238.73,1875.13,229.61Z"/><path class="cls-1" d="M1906.4,210.27c-3.42,8.94-12.42,13.8-12.42,13.8s-3.46-9.63,0-18.57,12.42-13.8,12.42-13.8S1909.81,201.33,1906.4,210.27Z"/><path class="cls-1" d="M1903.49,260.52c-6.71,6.82-16.91,7.68-16.91,7.68s.69-10.21,7.4-17,16.91-7.68,16.91-7.68S1910.2,253.69,1903.49,260.52Z"/><path class="cls-1" d="M1901.38,284.41C1894.24,290.78,1884,291,1884,291s1.36-10.14,8.5-16.51,17.38-6.55,17.38-6.55S1908.53,278,1901.38,284.41Z"/><path class="cls-1" d="M1870.83,258.21c-5.66-7.72-4.88-17.92-4.88-17.92s10,2.31,15.63,10,4.88,17.92,4.88,17.92S1876.5,265.93,1870.83,258.21Z"/><path class="cls-1" d="M1869.62,282.79c-6.39-7.12-6.62-17.35-6.62-17.35s10.15,1.32,16.54,8.44,6.62,17.35,6.62,17.35S1876,289.91,1869.62,282.79Z"/><path class="cls-2" d="M1506.44,232.32l-1.24-.46c5.78-15.63,2.43-34.05.63-44l-.19-1c-1.67-9.28,1.58-21.21,1.72-21.71l1.28.35c0,.12-3.31,12.15-1.69,21.13l.18,1C1509,197.7,1512.35,216.35,1506.44,232.32Z"/><path class="cls-2" d="M1515.17,176c-3,4.41-8.5,5.89-8.5,5.89s-.64-5.66,2.36-10.07,8.5-5.89,8.5-5.89S1518.17,171.57,1515.17,176Z"/><path class="cls-2" d="M1497.41,174.58c-2.51-4.71-1.27-10.27-1.27-10.27s5.31,2.06,7.83,6.77,1.27,10.27,1.27,10.27S1499.93,179.28,1497.41,174.58Z"/><path class="cls-2" d="M1512.63,160.86c-1,5.24-5.44,8.8-5.44,8.8s-2.85-4.93-1.86-10.17,5.43-8.81,5.43-8.81S1513.61,155.62,1512.63,160.86Z"/><path class="cls-2" d="M1516,188.7c-3,4.41-8.5,5.89-8.5,5.89s-.64-5.66,2.36-10.07,8.51-5.9,8.51-5.9S1519,184.29,1516,188.7Z"/><path class="cls-2" d="M1517.25,202c-3.28,4.21-8.87,5.33-8.87,5.33s-.26-5.7,3-9.9,8.87-5.32,8.87-5.32S1520.54,197.8,1517.25,202Z"/><path class="cls-2" d="M1497.9,190.68c-3.87-3.67-4.46-9.34-4.46-9.34s5.69.28,9.57,3.95,4.46,9.33,4.46,9.33S1501.77,194.35,1497.9,190.68Z"/><path class="cls-2" d="M1499.68,204.28c-4.21-3.27-5.35-8.86-5.35-8.86s5.69-.28,9.9,3,5.36,8.85,5.36,8.85S1503.9,207.54,1499.68,204.28Z"/><circle class="cls-2" cx="1489.43" cy="320.6" r="4.01"/><circle class="cls-2" cx="1371.69" cy="403.06" r="4.01"/><circle class="cls-2" cx="1278.3" cy="351.02" r="4.01"/><circle class="cls-2" cx="1468.97" cy="195.83" r="4.01"/><circle class="cls-1" cx="1328.23" cy="254.27" r="4.01"/><circle class="cls-2" cx="1603.07" cy="154.32" r="4.01"/><circle class="cls-2" cx="1907.64" cy="164.31" r="4.01"/><circle class="cls-3" cx="1615.64" cy="195.42" r="4.01"/><path class="cls-1" d="M1407.57,233.64c-1.71-1.58-2.22.29-3,1.05-1.75,1.61-3.12,3.68-5.5,4.52-1.46,3-4.5,4.11-7.1,5.62a31.52,31.52,0,0,1-10,4.12c2.94-4.68,7.18-8.27,10.51-12.62a177.7,177.7,0,0,0,13.37-24.45c.24-1.21.49-2.43.74-3.64l-3.65-1.14a41.93,41.93,0,0,1-5.61,13.27c-1.44,5.52-4.91,9.78-8.63,13.89-1.75,2.89-4.12,5.23-7.05,8.24.21-4.39.26-8,1.1-11.61.15-7.31,2.06-14.28,4.12-21.22l-3.34-1.4q-2,10.11-4.1,20.23a92.31,92.31,0,0,1-2.29,17.83c-.41,1.82-1.92,2.71-3.07,3.9-2.25,2.33-4.53,4.63-7,7.12-.87-2-.3-4-.45-5.94-.72-9-1.52-17.95-3-26.84a7.89,7.89,0,0,1,.18-2.09c-1.09-2,.33-3.34,1.36-4.83,5.6-8.11,12.34-15.53,15.26-25.26.38-1.26.79-2.52,1.19-3.78l-2.66-1.16c-.25,4.51-2.62,8.18-4.86,11.86-2.69,4.42-6.45,7.95-10,11.73a91.13,91.13,0,0,1,6.61-30.11l-3.45-1.26c-1.34,4.73-3.81,9.05-5.05,13.84-2.37,9.18-2.81,18.52-2.83,27.92.21,4.53.55,10.07.93,16.07a38.64,38.64,0,0,1-9.12-4.32c-.87-.52-1.72-1.05-2.58-1.59l.29-.17a70.33,70.33,0,0,1-9.86-26l-3.35.55a74.18,74.18,0,0,0,7.26,21.9,141.28,141.28,0,0,1-24-21.15l-2.52,2.28a144.44,144.44,0,0,0,18.49,17.18c-.63,0-1.26,0-1.88,0a102.82,102.82,0,0,1-24-3.3l-.85,3.29a106.75,106.75,0,0,0,24.77,3.4,18.67,18.67,0,0,0,5.73-.56q5.17,3.78,10.7,7.09a45.3,45.3,0,0,0,9.07,4.41c.67.21,1.34.4,2,.56,1,15.31,2,32.8,1.6,44.12,1.42.28,2.79,1.08,4.21,1.37.11-4.25.35-22.48,3.74-25.67a16.6,16.6,0,0,1,4.57-3.31c6.11-2.77,12.16-5.66,18.18-8.6,3.58-1.74,6.41-4.56,9.45-7.06,1.52-1.69,3.16-3.3,4.52-5.11C1407.33,236,1409.32,235.26,1407.57,233.64ZM1381.34,249l.41,0-.37.3Z"/><path class="cls-1" d="M1230.51,200.64c-2.58-2.38-3.33.43-4.56,1.57-2.63,2.44-4.68,5.55-8.28,6.82-2.19,4.52-6.77,6.17-10.68,8.44-4.69,2.73-9.61,5.2-15.06,6.21,4.42-7,10.8-12.45,15.81-19a268.24,268.24,0,0,0,20.12-36.79q.56-2.73,1.12-5.48l-5.49-1.71a63.09,63.09,0,0,1-8.44,20c-2.17,8.32-7.4,14.73-13,20.91-2.63,4.35-6.19,7.88-10.6,12.4.31-6.6.38-12.07,1.65-17.46.22-11,3.09-21.5,6.2-31.94l-5-2.11q-3.09,15.22-6.17,30.45a138.62,138.62,0,0,1-3.45,26.83c-.61,2.74-2.89,4.07-4.62,5.87-3.38,3.5-6.81,7-10.5,10.72-1.31-3-.45-6.05-.69-8.94-1.08-13.52-2.28-27-4.57-40.4a12.67,12.67,0,0,1,.27-3.15c-1.64-3.08.5-5,2-7.27,8.43-12.2,18.57-23.36,23-38,.57-1.91,1.2-3.8,1.8-5.7l-4-1.74c-.38,6.79-3.95,12.3-7.32,17.85-4,6.64-9.7,12-15.09,17.65a137.32,137.32,0,0,1,9.94-45.32l-5.2-1.89c-2,7.12-5.73,13.61-7.59,20.83-3.56,13.81-4.23,27.87-4.27,42,.32,6.82.84,15.17,1.41,24.19-4.44-1.27-8.82-3.56-13.73-6.5q-2-1.17-3.87-2.39l.42-.26a106.25,106.25,0,0,1-14.83-39.18l-5,.83a111.66,111.66,0,0,0,10.92,33,213.06,213.06,0,0,1-36.06-31.82l-3.79,3.42a217.44,217.44,0,0,0,27.83,25.86c-.94,0-1.9,0-2.84,0a154.32,154.32,0,0,1-36.09-5l-1.29,4.95a160.25,160.25,0,0,0,37.29,5.12,28.2,28.2,0,0,0,8.62-.84c5.2,3.78,10.57,7.35,16.1,10.66a67.43,67.43,0,0,0,13.66,6.64c1,.32,2,.61,3,.85,1.46,23,3.05,49.35,2.41,66.39,2.13.43,4.2,1.63,6.34,2.07.16-6.4.53-33.83,5.62-38.64a25.08,25.08,0,0,1,6.89-5c9.18-4.18,18.29-8.53,27.35-12.95,5.4-2.62,9.65-6.87,14.22-10.63,2.3-2.54,4.77-5,6.81-7.69C1230.15,204.16,1233.15,203.08,1230.51,200.64ZM1191,223.78l.62,0c-.18.16-.37.31-.56.46Z"/><path class="cls-2" d="M1735.47,269.09c-1.71-1.59-2.22.28-3,1-1.75,1.62-3.12,3.69-5.5,4.53-1.46,3-4.5,4.1-7.1,5.61a31.78,31.78,0,0,1-10,4.13c2.94-4.68,7.18-8.28,10.51-12.63a177.7,177.7,0,0,0,13.37-24.45c.24-1.21.49-2.42.74-3.64l-3.65-1.13a42,42,0,0,1-5.61,13.26c-1.44,5.53-4.91,9.78-8.63,13.89-1.75,2.89-4.12,5.23-7,8.24.21-4.39.26-8,1.1-11.6.15-7.31,2.06-14.28,4.12-21.22l-3.34-1.41q-2,10.13-4.1,20.23a92.41,92.41,0,0,1-2.29,17.84c-.41,1.81-1.92,2.7-3.07,3.89-2.25,2.33-4.53,4.63-7,7.13-.87-2-.3-4-.45-5.94-.72-9-1.52-17.95-3-26.84a8,8,0,0,1,.18-2.1c-1.09-2.05.33-3.34,1.36-4.83,5.6-8.1,12.34-15.52,15.26-25.25.38-1.27.79-2.53,1.19-3.79l-2.66-1.16c-.25,4.52-2.62,8.18-4.86,11.86-2.69,4.42-6.45,8-10,11.74a91.19,91.19,0,0,1,6.61-30.12l-3.45-1.26c-1.34,4.74-3.81,9-5,13.85-2.37,9.17-2.81,18.51-2.83,27.91.21,4.54.55,10.08.93,16.08a39.1,39.1,0,0,1-9.12-4.33c-.87-.52-1.72-1.05-2.58-1.58l.29-.18a70.33,70.33,0,0,1-9.86-26l-3.35.55a74.09,74.09,0,0,0,7.26,21.9,141.23,141.23,0,0,1-24-21.14l-2.52,2.27a144.52,144.52,0,0,0,18.49,17.19c-.63,0-1.26,0-1.88,0a102.82,102.82,0,0,1-24-3.3l-.85,3.29a106.22,106.22,0,0,0,24.77,3.4,18.66,18.66,0,0,0,5.73-.55c3.45,2.51,7,4.88,10.7,7.08a45.3,45.3,0,0,0,9.07,4.41c.67.22,1.35.41,2,.57,1,15.3,2,32.79,1.6,44.11,1.42.29,2.79,1.08,4.21,1.37.11-4.25.35-22.47,3.74-25.67a16.57,16.57,0,0,1,4.57-3.3c6.11-2.78,12.16-5.67,18.18-8.6,3.58-1.75,6.41-4.57,9.45-7.07,1.52-1.69,3.16-3.29,4.52-5.11C1735.23,271.42,1737.22,270.71,1735.47,269.09Zm-26.23,15.37.41,0-.37.31Z"/><path class="cls-2" d="M1844.55,341c-1.71-1.59-2.21.28-3,1-1.75,1.62-3.11,3.69-5.5,4.53-1.46,3-4.5,4.1-7.1,5.61a31.82,31.82,0,0,1-10,4.13c2.93-4.68,7.17-8.28,10.5-12.63a177.59,177.59,0,0,0,13.37-24.44c.25-1.22.49-2.43.74-3.64l-3.64-1.14a42.23,42.23,0,0,1-5.62,13.26c-1.43,5.53-4.91,9.79-8.63,13.89-1.75,2.89-4.12,5.24-7,8.24.2-4.38.25-8,1.09-11.6.15-7.31,2.06-14.28,4.12-21.22l-3.33-1.41q-2.06,10.13-4.1,20.24a92.43,92.43,0,0,1-2.3,17.83c-.4,1.81-1.91,2.7-3.06,3.89-2.25,2.33-4.53,4.63-7,7.13-.87-2-.3-4-.46-5.94-.72-9-1.52-18-3-26.84a8.41,8.41,0,0,1,.18-2.1c-1.09-2.05.33-3.34,1.36-4.83,5.6-8.1,12.34-15.52,15.26-25.25.38-1.27.79-2.53,1.19-3.79l-2.65-1.15c-.26,4.51-2.62,8.17-4.87,11.86-2.69,4.41-6.44,7.95-10,11.73a91.46,91.46,0,0,1,6.62-30.12l-3.46-1.26c-1.34,4.74-3.81,9-5,13.85-2.37,9.17-2.82,18.52-2.84,27.91.21,4.54.56,10.08.94,16.08a39,39,0,0,1-9.13-4.33c-.87-.51-1.72-1-2.57-1.58l.28-.18a70.69,70.69,0,0,1-9.86-26l-3.35.54a74.09,74.09,0,0,0,7.26,21.9,141.17,141.17,0,0,1-24-21.14l-2.52,2.27a145.19,145.19,0,0,0,18.49,17.19c-.62,0-1.26,0-1.88,0a103.18,103.18,0,0,1-24-3.29l-.86,3.28a106.3,106.3,0,0,0,24.78,3.4,18.6,18.6,0,0,0,5.72-.55c3.46,2.51,7,4.88,10.7,7.08a44.85,44.85,0,0,0,9.08,4.41c.66.22,1.34.41,2,.57,1,15.31,2,32.79,1.6,44.11,1.42.29,2.8,1.08,4.21,1.37.11-4.25.36-22.47,3.74-25.67a16.47,16.47,0,0,1,4.58-3.3c6.1-2.78,12.15-5.67,18.17-8.6,3.59-1.75,6.41-4.57,9.45-7.07,1.53-1.69,3.17-3.29,4.53-5.11C1844.31,343.35,1846.3,342.64,1844.55,341Zm-26.23,15.37.42,0-.38.31Z"/><path class="cls-2" d="M1709.21,320.39c-8.63,9-22,10.19-22,10.19s.66-13.31,9.29-22.28,22-10.19,22-10.19S1717.85,311.43,1709.21,320.39Z"/><path class="cls-2" d="M1812.41,391.92c-5.82,6.05-14.82,6.88-14.82,6.88s.44-9,6.26-15,14.83-6.88,14.83-6.88S1818.24,385.87,1812.41,391.92Z"/><path class="cls-2" d="M1677.49,299.66c5.16,5,5.86,12.64,5.86,12.64s-7.67-.37-12.83-5.34-5.87-12.64-5.87-12.64S1672.32,294.69,1677.49,299.66Z"/><path class="cls-2" d="M1788.06,370.18a14.24,14.24,0,0,1,3.73,8.06,12.25,12.25,0,0,1-11.91-11.46A14.16,14.16,0,0,1,1788.06,370.18Z"/><circle class="cls-2" cx="2025.16" cy="417.36" r="4.12"/><circle class="cls-2" cx="2109.67" cy="366.95" r="4.12"/><circle class="cls-2" cx="1970.12" cy="341.29" r="4.12"/><circle class="cls-2" cx="1856.7" cy="406.77" r="4.12"/><path class="cls-9" d="M1718.31,431.6l1-.35c-4.45-12.62-1.55-27.38,0-35.31l.16-.83c1.45-7.43-1-17.05-1.13-17.45l-1,.26c0,.1,2.52,9.8,1.12,17l-.17.83C1716.69,403.77,1713.76,418.71,1718.31,431.6Z"/><path class="cls-9" d="M1712,386.26a13.44,13.44,0,0,0,6.77,4.83,11.59,11.59,0,0,0-8.55-12.95A13.39,13.39,0,0,0,1712,386.26Z"/><path class="cls-9" d="M1726.23,385.33a13.4,13.4,0,0,0,1.14-8.23,11.58,11.58,0,0,0-7.5,13.58A13.4,13.4,0,0,0,1726.23,385.33Z"/><path class="cls-9" d="M1714.17,374.14a13.38,13.38,0,0,0,4.26,7.13,11.56,11.56,0,0,0-2.64-15.28A13.38,13.38,0,0,0,1714.17,374.14Z"/><path class="cls-9" d="M1711.12,396.46a13.39,13.39,0,0,0,6.76,4.83,11.57,11.57,0,0,0-8.55-13A13.44,13.44,0,0,0,1711.12,396.46Z"/><path class="cls-9" d="M1710,407.13a13.43,13.43,0,0,0,7.06,4.38,11.56,11.56,0,0,0-9.37-12.36A13.37,13.37,0,0,0,1710,407.13Z"/><path class="cls-9" d="M1725.65,398.26a13.35,13.35,0,0,0,3.69-7.45,11.59,11.59,0,0,0-11.41,10.51A13.39,13.39,0,0,0,1725.65,398.26Z"/><path class="cls-9" d="M1724.07,409.16a13.41,13.41,0,0,0,4.4-7.05,11.57,11.57,0,0,0-12.39,9.33A13.45,13.45,0,0,0,1724.07,409.16Z"/><path class="cls-3" d="M1759.44,457.78l1-.35c-4.46-12.62-1.56-27.38,0-35.3l.17-.84c1.45-7.43-1-17.05-1.13-17.45l-1,.26c0,.1,2.52,9.8,1.11,17l-.16.83C1757.82,430,1754.88,444.89,1759.44,457.78Z"/><path class="cls-3" d="M1753.08,412.44a13.43,13.43,0,0,0,6.76,4.83,11.57,11.57,0,0,0-8.54-12.95A13.39,13.39,0,0,0,1753.08,412.44Z"/><path class="cls-3" d="M1767.36,411.51a13.4,13.4,0,0,0,1.14-8.23,11.58,11.58,0,0,0-7.5,13.58A13.4,13.4,0,0,0,1767.36,411.51Z"/><path class="cls-3" d="M1755.3,400.32a13.38,13.38,0,0,0,4.26,7.13,11.55,11.55,0,0,0-2.65-15.28A13.41,13.41,0,0,0,1755.3,400.32Z"/><path class="cls-3" d="M1752.24,422.64a13.43,13.43,0,0,0,6.76,4.83,11.57,11.57,0,0,0-8.54-13A13.39,13.39,0,0,0,1752.24,422.64Z"/><path class="cls-3" d="M1751.11,433.31a13.43,13.43,0,0,0,7.06,4.38,11.58,11.58,0,0,0-9.37-12.36A13.37,13.37,0,0,0,1751.11,433.31Z"/><path class="cls-3" d="M1766.78,424.44a13.41,13.41,0,0,0,3.69-7.44,11.57,11.57,0,0,0-11.42,10.5A13.41,13.41,0,0,0,1766.78,424.44Z"/><path class="cls-3" d="M1765.19,435.34a13.39,13.39,0,0,0,4.41-7,11.59,11.59,0,0,0-12.4,9.33A13.43,13.43,0,0,0,1765.19,435.34Z"/><path class="cls-2" d="M1448.37,320.61a3.06,3.06,0,0,1-2.23-.85,3.11,3.11,0,0,1-.23-.28,2.63,2.63,0,0,1-.35-.64l-.12-.31.43-.5.64.16.09.32a.61.61,0,0,0,.05.12,1.46,1.46,0,0,0,.44.53,2.14,2.14,0,0,0,1.51.21c1.6-.27,3.13-1.57,3.15-2.67a.66.66,0,0,1,.67-.66h0a.67.67,0,0,1,.69.64c.07,1.89-1.86,3.43-3.78,3.83A4.7,4.7,0,0,1,1448.37,320.61Zm4.46-3.9Z"/><path class="cls-2" d="M1446.19,317.88l-.31-.06c-1.47-.16-2.46-1.37-2.59-3.17-.15-2,.8-4.3,2.65-4.76a.69.69,0,0,1,.36,1.33c-1.07.33-1.91,2.19-1.72,3.84.09.72.4,1.61,1.42,1.67l.32,0,.29.6Zm-.2-7.69Z"/><path class="cls-2" d="M1441,327.79a4.81,4.81,0,0,1-4-2.41,7,7,0,0,1-.58-5.15,2.61,2.61,0,0,1,.69-1.36,2.12,2.12,0,0,1,2.25-.29,4.39,4.39,0,0,1,1.56,1.26,16.09,16.09,0,0,1,2.31,3.52l-1,.47a14.89,14.89,0,0,0-2.16-3.28,3.46,3.46,0,0,0-1.16-1,1.08,1.08,0,0,0-1.1.09,1.68,1.68,0,0,0-.37.82,5.94,5.94,0,0,0,.46,4.35,3.64,3.64,0,0,0,3.54,1.84l.19,1.07A4.6,4.6,0,0,1,1441,327.79Z"/><path class="cls-2" d="M1441.88,326.43c-.19-.11-4.79-2.82-4.94-7.14l1.07,0c.14,3.72,4.37,6.22,4.42,6.25Z"/><path class="cls-2" d="M1440.08,338.34a4.25,4.25,0,0,1-2.47-.8,5.85,5.85,0,0,1-2.24-3.8,2.31,2.31,0,0,1,.07-1.32,1.86,1.86,0,0,1,1.7-1.05,3.64,3.64,0,0,1,1.67.45,13.61,13.61,0,0,1,3,1.92l-.69.82a13.06,13.06,0,0,0-2.76-1.76,3.28,3.28,0,0,0-1.19-.35.84.84,0,0,0-.73.39,1.38,1.38,0,0,0,0,.7,4.94,4.94,0,0,0,1.8,3.13,3,3,0,0,0,3.25.2l.59.9A3.61,3.61,0,0,1,1440.08,338.34Z"/><path class="cls-2" d="M1441.75,336.7c-.19,0-4.69-.53-6.3-3.83l1-.48c1.35,2.76,5.4,3.24,5.44,3.24Z"/><path class="cls-2" d="M1443.44,340.15a3.7,3.7,0,0,1-1.19-.18l.33-1a3.6,3.6,0,0,0,3.76-1.32,5.87,5.87,0,0,0,1.07-4.24,1.58,1.58,0,0,0-.25-.86,1.07,1.07,0,0,0-1.07-.25,3.42,3.42,0,0,0-1.29.81,15.18,15.18,0,0,0-2.6,2.94l-.9-.6a16.46,16.46,0,0,1,2.79-3.16,4.35,4.35,0,0,1,1.72-1,2.08,2.08,0,0,1,2.19.61,2.65,2.65,0,0,1,.49,1.44,6.93,6.93,0,0,1-1.3,5A4.9,4.9,0,0,1,1443.44,340.15Z"/><path class="cls-2" d="M1442.21,338.65l-.41-1s4.6-1.91,5.25-5.57l1.06.19C1447.35,336.53,1442.42,338.56,1442.21,338.65Z"/><path class="cls-2" d="M1443.55,329.42a3.34,3.34,0,0,1-2.25-.81l.71-.81a2.59,2.59,0,0,0,2.86.21,4.34,4.34,0,0,0,2-2.53,1.08,1.08,0,0,0,.08-.6.65.65,0,0,0-.56-.39,2.4,2.4,0,0,0-1.07.15,11.38,11.38,0,0,0-2.67,1.24l-.57-.92a12.84,12.84,0,0,1,2.91-1.35,3.51,3.51,0,0,1,1.57-.19,1.71,1.71,0,0,1,1.43,1.18,2.08,2.08,0,0,1-.1,1.22,5.35,5.35,0,0,1-2.49,3.15A3.92,3.92,0,0,1,1443.55,329.42Z"/><path class="cls-2" d="M1441.87,327.72h-.12l0-1.08s3.69.07,5.21-2.2l.9.6C1446.19,327.59,1442.59,327.72,1441.87,327.72Z"/><path class="cls-2" d="M1446.24,316.86a6.62,6.62,0,0,1,1.54-3.64,7.47,7.47,0,0,1,2.89-2.15c.34-.15.7-.28,1.06-.4a7.3,7.3,0,0,0,1.63-.71,3.88,3.88,0,0,0,1.65-4l1.07-.09a4.93,4.93,0,0,1-2.13,4.95,8.16,8.16,0,0,1-1.87.83c-.33.11-.66.23-1,.37a6.37,6.37,0,0,0-2.47,1.83,5.3,5.3,0,0,0-1.31,3Z"/><path class="cls-2" d="M1449,318.2a4.29,4.29,0,0,1-1.64-.33,2.23,2.23,0,0,1-.74-.46,5.25,5.25,0,0,1-1-2.37,10.82,10.82,0,0,1,2-7.48,21,21,0,0,1,3-3.68,16.48,16.48,0,0,1,1.73-1.53,1.45,1.45,0,0,1,1.9.13,7.28,7.28,0,0,1,1.16,1.45h0a4.69,4.69,0,0,1,.58,1.84v.05l.19,0a3,3,0,0,1,.51-.06,5.32,5.32,0,0,1,3.37,1.16.93.93,0,0,1,.39.75.84.84,0,0,1-.17.47l-1,1.6c-.38.59-.75,1.18-1.15,1.75a22.25,22.25,0,0,1-4.43,4.71,7.93,7.93,0,0,1-4.56,2Zm4.26-15.06a.36.36,0,0,0-.22.07,15.53,15.53,0,0,0-1.62,1.42,20.06,20.06,0,0,0-2.84,3.52,9.69,9.69,0,0,0-1.83,6.8,4.59,4.59,0,0,0,.63,1.69,1.14,1.14,0,0,0,.39.23,3.28,3.28,0,0,0,1.36.25,7.05,7.05,0,0,0,3.94-1.8,21.32,21.32,0,0,0,4.21-4.48c.4-.56.76-1.13,1.12-1.71l.93-1.47a4.12,4.12,0,0,0-2.58-.85,1.86,1.86,0,0,0-.34,0,1.29,1.29,0,0,1-1-.11,1,1,0,0,1-.4-.7,4,4,0,0,0-.46-1.56,6.16,6.16,0,0,0-1-1.24A.35.35,0,0,0,1453.3,303.14Z"/><path class="cls-2" d="M1451.33,353c-20.27-19.2-5-36.35-4.85-36.52l.8.73c-.61.67-14.69,16.55,4.79,35Z"/><path class="cls-3" d="M1261.78,381.28a3,3,0,0,1-1,2.15l-.29.2a2.6,2.6,0,0,1-.68.3l-.32.09-.45-.47.21-.63.32-.05.13,0a1.59,1.59,0,0,0,.56-.39,2.13,2.13,0,0,0,.34-1.49c-.12-1.62-1.29-3.26-2.39-3.37a.67.67,0,0,1-.6-.73h0a.68.68,0,0,1,.7-.63c1.89.09,3.26,2.15,3.49,4.09A4.63,4.63,0,0,1,1261.78,381.28Zm-3.51-4.78h0Z"/><path class="cls-3" d="M1258.88,383.22l-.09.3c-.29,1.45-1.58,2.34-3.39,2.31-2,0-4.21-1.17-4.51-3.05a.69.69,0,0,1,.57-.77.67.67,0,0,1,.79.52c.23,1.1,2,2.09,3.67,2.05.73,0,1.64-.26,1.79-1.28l0-.31.62-.23Zm-7.69-.47h0Z"/><path class="cls-3" d="M1268.3,389.22a4.82,4.82,0,0,1-2.75,3.8,6.88,6.88,0,0,1-5.18.13,2.58,2.58,0,0,1-1.29-.8,2.13,2.13,0,0,1-.1-2.26,4.39,4.39,0,0,1,1.39-1.45,16.56,16.56,0,0,1,3.7-2l.39,1a15.6,15.6,0,0,0-3.45,1.88,3.35,3.35,0,0,0-1.08,1.07,1.08,1.08,0,0,0,0,1.1,1.75,1.75,0,0,0,.78.44,5.94,5.94,0,0,0,4.37-.09,3.63,3.63,0,0,0,2.14-3.37l1.08-.09A3.42,3.42,0,0,1,1268.3,389.22Z"/><path class="cls-3" d="M1267,388.24c-.13.19-3.23,4.54-7.54,4.32l0-1.08c3.72.19,6.58-3.81,6.61-3.86Z"/><path class="cls-3" d="M1278.74,391.07a4.26,4.26,0,0,1-1,2.39,5.83,5.83,0,0,1-4,1.9,2.27,2.27,0,0,1-1.31-.18,1.85,1.85,0,0,1-.89-1.79,3.51,3.51,0,0,1,.59-1.62,13.74,13.74,0,0,1,2.16-2.81l.77.76a12.34,12.34,0,0,0-2,2.6,3,3,0,0,0-.44,1.15.82.82,0,0,0,.32.76,1.45,1.45,0,0,0,.7.06,4.88,4.88,0,0,0,3.26-1.53,3,3,0,0,0,.49-3.21l.94-.52A3.56,3.56,0,0,1,1278.74,391.07Z"/><path class="cls-3" d="M1277.25,389.27c0,.18-.94,4.62-4.37,5.94l-.39-1c2.87-1.1,3.69-5.1,3.69-5.14Z"/><path class="cls-3" d="M1280.83,387.87a4,4,0,0,1-.29,1.18l-1-.42a3.63,3.63,0,0,0-1-3.87,5.92,5.92,0,0,0-4.13-1.43,1.78,1.78,0,0,0-.88.18,1.08,1.08,0,0,0-.34,1.05,3.54,3.54,0,0,0,.69,1.35,15.57,15.57,0,0,0,2.71,2.85l-.68.84a16.75,16.75,0,0,1-2.9-3.05,4.44,4.44,0,0,1-.88-1.81,2.08,2.08,0,0,1,.8-2.12,2.58,2.58,0,0,1,1.47-.37,6.92,6.92,0,0,1,4.88,1.73A4.88,4.88,0,0,1,1280.83,387.87Z"/><path class="cls-3" d="M1279.22,389l-1,.31s-1.5-4.74-5.09-5.7l.28-1C1277.55,383.66,1279.16,388.76,1279.22,389Z"/><path class="cls-3" d="M1270.14,386.84a3.36,3.36,0,0,1-1,2.18l-.74-.78a2.63,2.63,0,0,0,.46-2.83,4.34,4.34,0,0,0-2.36-2.18,1.13,1.13,0,0,0-.59-.14.68.68,0,0,0-.44.52,2.55,2.55,0,0,0,.06,1.09,11.68,11.68,0,0,0,1,2.76l-1,.5a12.46,12.46,0,0,1-1.09-3,3.44,3.44,0,0,1-.06-1.57,1.71,1.71,0,0,1,1.3-1.33,2.11,2.11,0,0,1,1.21.21,5.38,5.38,0,0,1,2.92,2.75A3.82,3.82,0,0,1,1270.14,386.84Z"/><path class="cls-3" d="M1268.3,388.37c0,.06,0,.1,0,.12l-1.07-.13s.39-3.67-1.74-5.38l.67-.84C1268.54,384.06,1268.36,387.66,1268.3,388.37Z"/><path class="cls-3" d="M1257.86,383.08a6.54,6.54,0,0,1-3.49-1.85,7.47,7.47,0,0,1-1.9-3.06c-.12-.36-.21-.72-.3-1.09a7.81,7.81,0,0,0-.57-1.69,3.88,3.88,0,0,0-3.81-2v-1.08a4.94,4.94,0,0,1,4.74,2.55,7.84,7.84,0,0,1,.67,1.94c.09.34.17.68.28,1a6.27,6.27,0,0,0,1.62,2.62A5.38,5.38,0,0,0,1258,382Z"/><path class="cls-3" d="M1259.44,380.41a4.45,4.45,0,0,1-.47,1.6,2.46,2.46,0,0,1-.52.7,5.2,5.2,0,0,1-2.45.74,10.77,10.77,0,0,1-7.27-2.63,20.91,20.91,0,0,1-3.42-3.29,16.17,16.17,0,0,1-1.37-1.86,1.45,1.45,0,0,1,.29-1.88,7.9,7.9,0,0,1,1.54-1h0a4.86,4.86,0,0,1,1.88-.42h.06a1.23,1.23,0,0,0,0-.2,4.34,4.34,0,0,1,0-.51,5.34,5.34,0,0,1,1.44-3.26,1,1,0,0,1,.78-.32.94.94,0,0,1,.46.21l1.5,1.14c.56.42,1.11.84,1.65,1.29a22.49,22.49,0,0,1,4.31,4.82,8,8,0,0,1,1.63,4.71A1.21,1.21,0,0,0,1259.44,380.41Zm-14.65-5.54a.46.46,0,0,0,.06.22,16.18,16.18,0,0,0,1.28,1.74,20,20,0,0,0,3.25,3.13,9.73,9.73,0,0,0,6.62,2.41,4.54,4.54,0,0,0,1.74-.48,1.24,1.24,0,0,0,.27-.38,3.19,3.19,0,0,0,.36-1.33,7,7,0,0,0-1.45-4.07,21.35,21.35,0,0,0-4.1-4.59c-.53-.44-1.07-.85-1.61-1.26l-1.38-1.05a4.07,4.07,0,0,0-1.07,2.49,2,2,0,0,0,0,.35,1.28,1.28,0,0,1-.21,1,1,1,0,0,1-.72.34,4.17,4.17,0,0,0-1.6.32,6.94,6.94,0,0,0-1.32.89A.38.38,0,0,0,1244.79,374.87Z"/><path class="cls-3" d="M1294.27,381.12c-20.87,18.54-36.64,1.85-36.79,1.68l.79-.73c.61.67,15.22,16.06,35.29-1.76Z"/><path class="cls-2" d="M1650,343.59c-1.58-1.15-2.71-3.35-1.87-5a.67.67,0,0,1,.89-.3h0a.67.67,0,0,1,.34.88c-.44,1,.43,2.83,1.78,3.73a2.15,2.15,0,0,0,1.47.43,1.73,1.73,0,0,0,.61-.3l.1-.1.21-.26.64.13.2.63-.24.23a2.45,2.45,0,0,1-.59.44,1.37,1.37,0,0,1-.32.16,3,3,0,0,1-2.38-.14A4.33,4.33,0,0,1,1650,343.59Zm-1.62-4.89Z"/><path class="cls-2" d="M1653.79,341.83l.51-.42.3.11a1.62,1.62,0,0,0,2-.95c.85-1.42.85-3.47,0-4.2a.69.69,0,0,1,.88-1.07c1.5,1.18,1.41,3.68.47,5.43-.86,1.59-2.26,2.29-3.67,1.83l-.3-.07Zm3.51-6.27h0Z"/><path class="cls-2" d="M1654.61,353.64a4.78,4.78,0,0,0,4.65-.55,6.9,6.9,0,0,0,2.65-4.46,2.62,2.62,0,0,0-.08-1.51,2.12,2.12,0,0,0-1.93-1.2,4.38,4.38,0,0,0-1.94.52,16.65,16.65,0,0,0-3.55,2.25l.69.83a15.14,15.14,0,0,1,3.32-2.1,3.44,3.44,0,0,1,1.46-.42,1,1,0,0,1,1,.54,1.71,1.71,0,0,1,0,.9,5.92,5.92,0,0,1-2.2,3.77,3.66,3.66,0,0,1-4,.23l-.6.89A3.43,3.43,0,0,0,1654.61,353.64Z"/><path class="cls-2" d="M1654.38,352.05c.22,0,5.53-.61,7.44-4.49l-1-.47c-1.64,3.33-6.53,3.88-6.58,3.89Z"/><path class="cls-2" d="M1651.14,363.66a4.29,4.29,0,0,0,2.59.28,5.88,5.88,0,0,0,3.59-2.55,2.26,2.26,0,0,0,.48-1.24,1.86,1.86,0,0,0-1.12-1.65,3.57,3.57,0,0,0-1.7-.27,13.87,13.87,0,0,0-3.52.52l.3,1a12.63,12.63,0,0,1,3.24-.48,3.22,3.22,0,0,1,1.22.17.81.81,0,0,1,.5.65,1.34,1.34,0,0,1-.28.64,4.88,4.88,0,0,1-2.93,2.11,2.94,2.94,0,0,1-3-1.14l-.91.58A3.7,3.7,0,0,0,1651.14,363.66Z"/><path class="cls-2" d="M1650.29,361.48c.19.06,4.5,1.43,7.32-.92l-.69-.83c-2.36,2-6.25.74-6.29.72Z"/><path class="cls-2" d="M1647.33,363.93a3.65,3.65,0,0,0,1.16.32l.13-1.07a3.63,3.63,0,0,1-2.9-2.75,5.89,5.89,0,0,1,.77-4.31,1.7,1.7,0,0,1,.58-.68,1.08,1.08,0,0,1,1.08.22,3.32,3.32,0,0,1,.84,1.26,15,15,0,0,1,1.17,3.75l1.07-.19a17.12,17.12,0,0,0-1.25-4,4.37,4.37,0,0,0-1.15-1.65,2.08,2.08,0,0,0-2.25-.34,2.61,2.61,0,0,0-1,1.11,6.9,6.9,0,0,0-.87,5.11A4.86,4.86,0,0,0,1647.33,363.93Z"/><path class="cls-2" d="M1649.08,363.06l.78-.74s-3.41-3.62-2.51-7.23l-1-.26C1645.25,359,1648.92,362.9,1649.08,363.06Z"/><path class="cls-2" d="M1651.63,354.09a3.37,3.37,0,0,0,2.39.19l-.32-1a2.6,2.6,0,0,1-2.69-1,4.32,4.32,0,0,1-.76-3.12,1.1,1.1,0,0,1,.17-.57.66.66,0,0,1,.67-.14,2.49,2.49,0,0,1,.92.59,12,12,0,0,1,1.93,2.21l.89-.59a12.2,12.2,0,0,0-2.11-2.43,3.48,3.48,0,0,0-1.34-.82,1.72,1.72,0,0,0-1.8.49,2.08,2.08,0,0,0-.4,1.15,5.39,5.39,0,0,0,1,3.9A3.91,3.91,0,0,0,1651.63,354.09Z"/><path class="cls-2" d="M1653.86,353.23l.11,0,.41-1s-3.39-1.44-3.85-4.14l-1.06.18C1650,351.34,1653.21,352.94,1653.86,353.23Z"/><path class="cls-2" d="M1654.33,341.54a6.58,6.58,0,0,0,.08-4,7.37,7.37,0,0,0-1.75-3.16c-.25-.27-.52-.53-.8-.79a6.65,6.65,0,0,1-1.19-1.32,3.84,3.84,0,0,1,.12-4.28l-1-.53a5,5,0,0,0-.09,5.39,8.4,8.4,0,0,0,1.37,1.53,10.21,10.21,0,0,1,.74.73,6.26,6.26,0,0,1,1.5,2.69,5.32,5.32,0,0,1,0,3.24Z"/><path class="cls-2" d="M1651.06,341.53a8,8,0,0,1-3.32-3.71,22.56,22.56,0,0,1-2.12-6.12c-.13-.68-.22-1.37-.32-2.07l-.27-1.86a1,1,0,0,1,0-.5,1,1,0,0,1,.67-.53,5.31,5.31,0,0,1,3.54.33,2.69,2.69,0,0,1,.44.26l.17.11,0-.05a4.93,4.93,0,0,1,1.28-1.44h0a7.57,7.57,0,0,1,1.65-.84,1.45,1.45,0,0,1,1.79.66,16.61,16.61,0,0,1,.95,2.1,21.37,21.37,0,0,1,1.21,4.59,10.82,10.82,0,0,1-1.24,7.63,5.16,5.16,0,0,1-1.84,1.78,2.3,2.3,0,0,1-.87.11,4.26,4.26,0,0,1-1.62-.37Zm2.18-15.41a7.18,7.18,0,0,0-1.42.71,4.14,4.14,0,0,0-1.06,1.24,1,1,0,0,1-.65.47,1.33,1.33,0,0,1-1-.31,1.27,1.27,0,0,0-.29-.18,4.2,4.2,0,0,0-2.71-.29l.25,1.72c.09.68.19,1.35.32,2a21,21,0,0,0,2,5.82,7,7,0,0,0,2.85,3.25,3.16,3.16,0,0,0,1.34.33,1.14,1.14,0,0,0,.45,0,4.41,4.41,0,0,0,1.27-1.28,9.68,9.68,0,0,0,1.12-7,20.09,20.09,0,0,0-1.15-4.36,16,16,0,0,0-.89-2,.52.52,0,0,0-.17-.16A.39.39,0,0,0,1653.24,326.12Z"/><path class="cls-2" d="M1634.89,372.39c26.35-9.21,19.46-31.1,19.38-31.32l-1,.33c.28.86,6.62,21.12-18.72,30Z"/><path class="cls-2" d="M1953.21,419.32c-1.49-1.26-2.46-3.54-1.5-5.16a.68.68,0,0,1,.92-.24h0a.66.66,0,0,1,.27.9c-.51,1,.21,2.85,1.5,3.85a2.08,2.08,0,0,0,1.42.54,1.52,1.52,0,0,0,.64-.26l.11-.08.22-.24.64.17.14.64-.25.22a2.92,2.92,0,0,1-.62.39,1.51,1.51,0,0,1-.33.13,3,3,0,0,1-2.37-.31A4.47,4.47,0,0,1,1953.21,419.32Zm-1.25-5h0Z"/><path class="cls-2" d="M1957.12,417.85l.54-.38.28.13a1.62,1.62,0,0,0,2-.79c1-1.36,1.11-3.39.32-4.19a.67.67,0,0,1,0-.95.68.68,0,0,1,1-.05c1.4,1.29,1.13,3.78.06,5.45-1,1.52-2.43,2.11-3.8,1.54l-.3-.08Zm4-6Z"/><path class="cls-2" d="M1957,429.7a4.83,4.83,0,0,0,4.68-.2,6.94,6.94,0,0,0,3-4.25,2.69,2.69,0,0,0,0-1.52,2.13,2.13,0,0,0-1.84-1.33,4.33,4.33,0,0,0-2,.36,16.81,16.81,0,0,0-3.72,2l.63.89a15.26,15.26,0,0,1,3.47-1.86,3.58,3.58,0,0,1,1.49-.3,1.05,1.05,0,0,1,.91.61,1.62,1.62,0,0,1-.06.89,5.92,5.92,0,0,1-2.48,3.6,3.66,3.66,0,0,1-4-.07l-.66.85A4.05,4.05,0,0,0,1957,429.7Z"/><path class="cls-2" d="M1956.93,428.09c.23,0,5.56-.19,7.76-3.91l-.93-.55c-1.89,3.2-6.81,3.38-6.86,3.38Z"/><path class="cls-2" d="M1952.82,439.42a4.3,4.3,0,0,0,2.56.48,5.9,5.9,0,0,0,3.78-2.28,2.29,2.29,0,0,0,.57-1.19,1.86,1.86,0,0,0-1-1.73,3.7,3.7,0,0,0-1.67-.41,14.1,14.1,0,0,0-3.55.26l.22,1.06a12.79,12.79,0,0,1,3.27-.24,3.25,3.25,0,0,1,1.2.27.82.82,0,0,1,.45.69,1.36,1.36,0,0,1-.33.61,4.9,4.9,0,0,1-3.07,1.89,3,3,0,0,1-3-1.37l-1,.5A3.51,3.51,0,0,0,1952.82,439.42Z"/><path class="cls-2" d="M1952.14,437.18c.18.07,4.38,1.77,7.37-.36l-.63-.88c-2.5,1.78-6.29.26-6.33.24Z"/><path class="cls-2" d="M1949,439.4a3.63,3.63,0,0,0,1.14.41l.2-1.06a3.6,3.6,0,0,1-2.67-3,5.87,5.87,0,0,1,1.08-4.24,1.61,1.61,0,0,1,.64-.63,1.06,1.06,0,0,1,1,.29,3.58,3.58,0,0,1,.75,1.32,15.4,15.4,0,0,1,.88,3.84l1.08-.11a16.51,16.51,0,0,0-1-4.1,4.2,4.2,0,0,0-1-1.73,2.1,2.1,0,0,0-2.21-.51,2.59,2.59,0,0,0-1.11,1,6.92,6.92,0,0,0-1.26,5A4.89,4.89,0,0,0,1949,439.4Z"/><path class="cls-2" d="M1950.81,438.67l.83-.69s-3.12-3.86-2-7.39l-1-.34C1947.3,434.35,1950.67,438.5,1950.81,438.67Z"/><path class="cls-2" d="M1954,429.92a3.38,3.38,0,0,0,2.36.37l-.24-1.05a2.6,2.6,0,0,1-2.61-1.19,4.3,4.3,0,0,1-.52-3.16,1.21,1.21,0,0,1,.21-.57.68.68,0,0,1,.68-.08,2.55,2.55,0,0,1,.87.65,11.51,11.51,0,0,1,1.76,2.36l.94-.53a13,13,0,0,0-1.92-2.58,3.58,3.58,0,0,0-1.28-.91,1.7,1.7,0,0,0-1.83.35,2.15,2.15,0,0,0-.49,1.12,5.35,5.35,0,0,0,.68,3.95A3.93,3.93,0,0,0,1954,429.92Z"/><path class="cls-2" d="M1956.33,429.23l.1,0,.49-1s-3.28-1.7-3.53-4.42l-1.08.1C1952.6,427.05,1955.7,428.89,1956.33,429.23Z"/><path class="cls-2" d="M1957.68,417.6a6.6,6.6,0,0,0,.37-3.93,7.44,7.44,0,0,0-1.5-3.28c-.23-.29-.48-.57-.74-.85a7.36,7.36,0,0,1-1.09-1.4,3.87,3.87,0,0,1,.44-4.27l-.9-.59a5,5,0,0,0-.5,5.36,8.18,8.18,0,0,0,1.25,1.63c.24.26.48.52.69.79a6.32,6.32,0,0,1,1.29,2.79,5.28,5.28,0,0,1-.26,3.23Z"/><path class="cls-2" d="M1954.42,417.35a8,8,0,0,1-3-4,22.53,22.53,0,0,1-1.64-6.25c-.08-.69-.13-1.39-.17-2.09l-.12-1.88a.83.83,0,0,1,.78-1,5.37,5.37,0,0,1,3.51.59,3.19,3.19,0,0,1,.42.3l.15.12,0,0a5.05,5.05,0,0,1,1.38-1.34h0a8.22,8.22,0,0,1,1.71-.71,1.44,1.44,0,0,1,1.73.79,16.07,16.07,0,0,1,.8,2.17,21.84,21.84,0,0,1,.86,4.66,10.87,10.87,0,0,1-1.82,7.53,5.17,5.17,0,0,1-2,1.62,2.2,2.2,0,0,1-.87.06,4.55,4.55,0,0,1-1.59-.5Zm3.34-15.21a6.89,6.89,0,0,0-1.48.61,4.2,4.2,0,0,0-1.14,1.16,1,1,0,0,1-.69.42,1.3,1.3,0,0,1-1-.39,2.92,2.92,0,0,0-.28-.21,4.14,4.14,0,0,0-2.68-.48l.12,1.73c0,.68.08,1.36.16,2a21.18,21.18,0,0,0,1.57,6,7,7,0,0,0,2.59,3.46,3.26,3.26,0,0,0,1.32.43,1.29,1.29,0,0,0,.45,0,4.48,4.48,0,0,0,1.37-1.19,9.79,9.79,0,0,0,1.64-6.85,20.76,20.76,0,0,0-.82-4.44,17.53,17.53,0,0,0-.74-2,.44.44,0,0,0-.16-.17A.42.42,0,0,0,1957.76,402.14Z"/><path class="cls-2" d="M1936,446.89c27-7.18,21.76-29.54,21.7-29.76l-1,.26c.21.87,5,21.55-20.93,28.46Z"/><path class="cls-3" d="M2069.62,388.1c-1.74.89-4.22.91-5.34-.6a.67.67,0,0,1,.13-.93h0a.66.66,0,0,1,.93.09c.71.85,2.72.9,4.14.09a2.13,2.13,0,0,0,1-1.11,1.59,1.59,0,0,0,0-.69s0-.08,0-.13l-.14-.3.4-.52.65.11.1.32a2.67,2.67,0,0,1,.13.72,2.16,2.16,0,0,1,0,.36,3.09,3.09,0,0,1-1.2,2.07A5.51,5.51,0,0,1,2069.62,388.1Zm-5.1-.76h0Z"/><path class="cls-3" d="M2069.76,383.92l-.15-.64.23-.22a1.6,1.6,0,0,0,0-2.19c-.88-1.4-2.71-2.33-3.75-1.91a.66.66,0,0,1-.87-.36.68.68,0,0,1,.32-.9c1.72-.8,3.92.4,5,2s1,3.06,0,4.1l-.2.24Zm-4-6h0Z"/><path class="cls-3" d="M2080.67,388.52a4.82,4.82,0,0,0,1.61-4.4,7,7,0,0,0-2.79-4.37,2.66,2.66,0,0,0-1.38-.62,2.14,2.14,0,0,0-1.94,1.19,4.39,4.39,0,0,0-.42,2,16.84,16.84,0,0,0,.41,4.19l1.05-.24a15.59,15.59,0,0,1-.38-3.91,3.45,3.45,0,0,1,.29-1.49,1.06,1.06,0,0,1,.91-.62,1.71,1.71,0,0,1,.81.4,6,6,0,0,1,2.37,3.67,3.63,3.63,0,0,1-1.6,3.66l.53.94A3.1,3.1,0,0,0,2080.67,388.52Z"/><path class="cls-3" d="M2079.14,388c.08-.21,2-5.21-.64-8.66l-.86.65c2.23,3,.51,7.58.49,7.63Z"/><path class="cls-3" d="M2088,396.14a4.3,4.3,0,0,0,1.42-2.18,5.89,5.89,0,0,0-.66-4.36,2.28,2.28,0,0,0-.88-1,1.84,1.84,0,0,0-2,.25,3.76,3.76,0,0,0-1,1.4,14.35,14.35,0,0,0-1.12,3.37l1.06.21a12.65,12.65,0,0,1,1-3.11,3,3,0,0,1,.7-1,.79.79,0,0,1,.81-.16,1.31,1.31,0,0,1,.45.55,4.91,4.91,0,0,1,.56,3.56,3,3,0,0,1-2.39,2.19l.1,1.08A3.66,3.66,0,0,0,2088,396.14Z"/><path class="cls-3" d="M2085.71,395.92c.14-.14,3.31-3.37,2.48-6.95l-1.05.25c.69,3-2.16,5.9-2.19,5.93Z"/><path class="cls-3" d="M2086.56,399.66a3.86,3.86,0,0,0,.82-.89l-.91-.59a3.64,3.64,0,0,1-3.76,1.34,5.87,5.87,0,0,1-3.5-2.63,1.62,1.62,0,0,1-.34-.83,1.07,1.07,0,0,1,.68-.86,3.38,3.38,0,0,1,1.5-.19,15.46,15.46,0,0,1,3.88.66l.31-1a16.16,16.16,0,0,0-4.14-.69,4.27,4.27,0,0,0-2,.28,2.07,2.07,0,0,0-1.32,1.84,2.61,2.61,0,0,0,.52,1.43,6.94,6.94,0,0,0,4.17,3.08A4.86,4.86,0,0,0,2086.56,399.66Z"/><path class="cls-3" d="M2086.58,397.72l-.32-1c-.05,0-4.77,1.41-7.58-1l-.7.81C2081.24,399.3,2086.36,397.78,2086.58,397.72Z"/><path class="cls-3" d="M2079.73,391.39a3.41,3.41,0,0,0,1.24-2.05l-1.06-.18a2.61,2.61,0,0,1-2.09,2,4.36,4.36,0,0,1-3.13-.73,1.26,1.26,0,0,1-.44-.41.66.66,0,0,1,.19-.66,2.54,2.54,0,0,1,.93-.56,11.81,11.81,0,0,1,2.85-.72l-.13-1.07a12.47,12.47,0,0,0-3.11.79,3.6,3.6,0,0,0-1.34.83,1.72,1.72,0,0,0-.38,1.82,2.22,2.22,0,0,0,.85.89,5.35,5.35,0,0,0,3.92.88A4,4,0,0,0,2079.73,391.39Z"/><path class="cls-3" d="M2080,389l.09-.08-.7-.82s-2.82,2.38-5.43,1.57l-.32,1C2076.53,391.62,2079.41,389.45,2080,389Z"/><path class="cls-3" d="M2069.74,383.31a6.63,6.63,0,0,0-3.49-1.86,7.5,7.5,0,0,0-3.6.14c-.36.1-.72.23-1.07.36a7.62,7.62,0,0,1-1.72.47,3.87,3.87,0,0,1-3.77-2l-.89.6a4.92,4.92,0,0,0,4.77,2.51,7.71,7.71,0,0,0,2-.53c.33-.12.65-.24,1-.33a6.32,6.32,0,0,1,3.07-.12,5.33,5.33,0,0,1,2.89,1.47Z"/><path class="cls-3" d="M2068.26,386.22a7.94,7.94,0,0,1-4.82,1.29,22.31,22.31,0,0,1-6.4-.87c-.68-.19-1.34-.42-2-.64l-1.78-.61a.89.89,0,0,1-.43-.26,1,1,0,0,1-.17-.83,5.34,5.34,0,0,1,1.89-3,5.08,5.08,0,0,1,.43-.27l.17-.1,0-.05a4.84,4.84,0,0,1-.71-1.79h0a8.28,8.28,0,0,1,0-1.86,1.45,1.45,0,0,1,1.4-1.29,18,18,0,0,1,2.31.09,21.61,21.61,0,0,1,4.63,1,10.85,10.85,0,0,1,6.26,4.56,5.23,5.23,0,0,1,.75,2.45,2.53,2.53,0,0,1-.29.82,4.16,4.16,0,0,1-1.07,1.28Zm-12.77-8.9a6,6,0,0,0,0,1.59,4.17,4.17,0,0,0,.62,1.5,1,1,0,0,1,.13.8,1.33,1.33,0,0,1-.73.74,1.75,1.75,0,0,0-.29.18,4.14,4.14,0,0,0-1.48,2.29l1.65.55c.64.22,1.29.44,1.94.63a21.38,21.38,0,0,0,6.1.83,7,7,0,0,0,4.19-1.08,3,3,0,0,0,.9-1,1,1,0,0,0,.16-.43,4.41,4.41,0,0,0-.57-1.71,9.71,9.71,0,0,0-5.7-4.14,19.55,19.55,0,0,0-4.42-.94,15.53,15.53,0,0,0-2.15-.09.35.35,0,0,0-.22.08A.36.36,0,0,0,2055.49,377.32Z"/><path class="cls-3" d="M2088.49,414.59c3.68-27.68-19-31.41-19.2-31.44l-.16,1.07c.9.13,21.83,3.62,18.29,30.22Z"/><path class="cls-2" d="M1926.11,426.35c3.53,5.32,10.24,7.18,10.24,7.18s1-6.76-2.55-12.08-10.24-7.18-10.24-7.18S1922.58,421,1926.11,426.35Z"/><path class="cls-3" d="M2002.83,450.5c-5.32,3.53-7.18,10.24-7.18,10.24s6.75,1,12.07-2.55S2014.9,448,2014.9,448,2008.15,447,2002.83,450.5Z"/><path class="cls-3" d="M1562.13,491.54a28,28,0,0,1,.73-4.88,19.61,19.61,0,0,1,2-4.66l2.3,1.42a17.14,17.14,0,0,0-2.13,3.91,24.86,24.86,0,0,0-1.11,4.42Z"/><path class="cls-3" d="M1553.49,491.2a50.18,50.18,0,0,0-2.11-9.59l2.6-.71a51.52,51.52,0,0,1,1.25,10.17Z"/><path class="cls-3" d="M1545.39,494.57a70.1,70.1,0,0,1-4.63-8.53l2.5-1a70.71,70.71,0,0,0,3.65,8.67Z"/><path class="cls-3" d="M1932.2,526.46a28,28,0,0,1,.73-4.88,20,20,0,0,1,2-4.66l2.3,1.42a17.54,17.54,0,0,0-2.13,3.91,24.86,24.86,0,0,0-1.11,4.42Z"/><path class="cls-3" d="M1923.56,526.12a50.18,50.18,0,0,0-2.11-9.59l2.6-.71A51.52,51.52,0,0,1,1925.3,526Z"/><path class="cls-3" d="M1915.46,529.49a70.1,70.1,0,0,1-4.63-8.53l2.5-1a71.37,71.37,0,0,0,3.65,8.67Z"/><path class="cls-2" d="M1725.22,533.3a26.06,26.06,0,0,0-.73-4.88,20,20,0,0,0-1.94-4.66l-2.31,1.42a17.29,17.29,0,0,1,2.13,3.9,25.64,25.64,0,0,1,1.12,4.43Z"/><path class="cls-2" d="M1733.86,533a50.2,50.2,0,0,1,2.12-9.59l-2.61-.72a51.71,51.71,0,0,0-1.25,10.18Z"/><path class="cls-2" d="M1742,536.33a71.56,71.56,0,0,0,4.64-8.53l-2.51-1a70.46,70.46,0,0,1-3.65,8.67Z"/><path class="cls-2" d="M1402.72,535.37a26.19,26.19,0,0,1,.73-4.88,20,20,0,0,1,1.94-4.66l2.3,1.42a17.65,17.65,0,0,0-2.12,3.9,26.11,26.11,0,0,0-1.12,4.43Z"/><path class="cls-2" d="M1394.08,535a50.2,50.2,0,0,0-2.12-9.59l2.61-.72a52.47,52.47,0,0,1,1.25,10.18Z"/><path class="cls-2" d="M1386,538.4a71.56,71.56,0,0,1-4.64-8.53l2.51-1a68.33,68.33,0,0,0,3.65,8.67Z"/><path class="cls-3" d="M1229.76,488.66a26.36,26.36,0,0,1,1.49-4.7,20.17,20.17,0,0,1,2.66-4.29l2,1.76a17.7,17.7,0,0,0-2.71,3.52,24.82,24.82,0,0,0-1.8,4.2Z"/><path class="cls-3" d="M1221.28,487a50.86,50.86,0,0,0-.57-9.8l2.68-.29a52.23,52.23,0,0,1-.37,10.24Z"/><path class="cls-3" d="M1212.75,489a70.9,70.9,0,0,1-3.23-9.15l2.63-.6a70.78,70.78,0,0,0,2.23,9.14Z"/><g class="cls-4"><path class="cls-10" d="M450.93,388.74c7.42-6.19,19.46,3,28.08-1.36,8.93-4.52,8-20.33,17.58-23.22,6-1.79,13.2,2.68,18.64,1.29.12-7.8,1.56-15,6.91-20.39,1.66-2.25,7.79-6.49,15.9-6.48,22.65,0,24.69,14.83,26.43,20.48,5.69.43,11.91-5.74,18.23-5.27,10,.75,12.48,16.39,22.18,18.87,9.36,2.4,19.13-9.18,27.71-4.74,5.78,3,6.32,11.12,10.65,16,3.6,4,9.35,5.29,14.74,5.74s11,.36,15.93,2.53l.14.07c6,2.7,4.6,11.2-1.23,12.53h-218a7.78,7.78,0,0,1-7.51-9.91A11.73,11.73,0,0,1,450.93,388.74Z"/></g><g class="cls-4"><path class="cls-11" d="M702.62,446.21c7.42-6.19,19.46,3,28.08-1.36,8.93-4.51,8-20.33,17.58-23.22,6-1.79,13.2,2.69,18.64,1.3.12-7.81,1.56-15,6.91-20.39,1.66-2.26,7.8-6.5,15.9-6.49,22.65,0,24.69,14.83,26.43,20.48,5.69.43,11.91-5.74,18.23-5.27,10,.75,12.48,16.4,22.18,18.88,9.36,2.39,19.13-9.18,27.71-4.75,5.78,3,6.32,11.12,10.65,16,3.6,4,9.35,5.29,14.74,5.74s11,.36,15.93,2.53l.14.07c6,2.71,4.6,11.21-1.23,12.54h-218a7.79,7.79,0,0,1-7.51-9.92A11.77,11.77,0,0,1,702.62,446.21Z"/></g><g class="cls-4"><path class="cls-12" d="M893.41,344.58c7.43-6.19,19.46,3,28.09-1.36,8.93-4.51,8-20.33,17.58-23.22,6-1.79,13.2,2.69,18.64,1.3.12-7.81,1.55-15,6.9-20.39,1.67-2.26,7.8-6.5,15.91-6.49,22.65,0,24.68,14.83,26.42,20.48,5.7.43,11.91-5.74,18.23-5.27,10,.75,12.49,16.4,22.19,18.88,9.36,2.39,19.13-9.18,27.71-4.75,5.77,3,6.32,11.12,10.65,16,3.59,4,9.35,5.29,14.73,5.74s11,.36,15.93,2.53l.15.07c6,2.71,4.6,11.21-1.24,12.54h-218a7.8,7.8,0,0,1-7.52-9.92A11.91,11.91,0,0,1,893.41,344.58Z"/></g><path class="cls-2" d="M717.88,411.91c-5.16-.05-13.12.65-13.13,1.6s7.94,1.8,13.1,1.85,5.58-.72,5.59-1.67S723,412,717.88,411.91Z"/><path class="cls-2" d="M702.43,430.49c.05-5.16-.65-13.12-1.61-13.13s-1.8,7.94-1.85,13.1.72,5.59,1.68,5.59S702.38,435.66,702.43,430.49Z"/><path class="cls-2" d="M687.72,402.55c3.61,3.68,9.74,8.82,10.42,8.15s-4.34-6.89-8-10.57-4.45-3.44-5.14-2.77S684.1,398.87,687.72,402.55Z"/><path class="cls-2" d="M714,424.4c-3.61-3.68-9.74-8.82-10.42-8.15s4.34,6.89,8,10.57,4.46,3.44,5.14,2.77S717.62,428.08,714,424.4Z"/><path class="cls-2" d="M689.94,426.62c3.68-3.62,8.81-9.74,8.15-10.42s-6.89,4.34-10.58,7.95-3.43,4.46-2.76,5.14S686.25,430.23,689.94,426.62Z"/><path class="cls-2" d="M711.79,400.33c-3.69,3.62-8.82,9.74-8.16,10.42s6.89-4.34,10.58-7.95,3.43-4.46,2.77-5.14S715.47,396.72,711.79,400.33Z"/><path class="cls-2" d="M683.84,415c5.16,0,13.12-.65,13.13-1.6s-7.93-1.8-13.1-1.85-5.58.72-5.59,1.67S678.68,415,683.84,415Z"/><path class="cls-2" d="M699.29,396.46c0,5.16.65,13.12,1.61,13.13s1.8-7.94,1.85-13.1-.72-5.58-1.68-5.59S699.34,391.29,699.29,396.46Z"/><path class="cls-3" d="M446.25,361.49c-5.17,0-13.13.66-13.14,1.61s7.94,1.8,13.1,1.85,5.59-.72,5.6-1.68S451.41,361.54,446.25,361.49Z"/><path class="cls-3" d="M430.8,380.08c0-5.16-.66-13.12-1.61-13.13s-1.8,7.94-1.85,13.1.72,5.58,1.68,5.59S430.75,385.24,430.8,380.08Z"/><path class="cls-3" d="M416.08,352.14c3.62,3.68,9.74,8.82,10.42,8.15s-4.33-6.89-7.95-10.57-4.46-3.44-5.14-2.77S412.47,348.45,416.08,352.14Z"/><path class="cls-3" d="M442.37,374c-3.62-3.69-9.74-8.82-10.42-8.15s4.34,6.88,7.95,10.57,4.46,3.44,5.14,2.77S446,377.67,442.37,374Z"/><path class="cls-3" d="M418.3,376.21c3.69-3.62,8.82-9.74,8.15-10.42s-6.88,4.33-10.57,7.95-3.44,4.46-2.77,5.14S414.62,379.82,418.3,376.21Z"/><path class="cls-3" d="M440.15,349.92c-3.68,3.61-8.82,9.74-8.15,10.42s6.89-4.34,10.57-7.95,3.44-4.46,2.77-5.14S443.84,346.3,440.15,349.92Z"/><path class="cls-3" d="M412.21,364.63c5.16.05,13.12-.65,13.13-1.6s-7.94-1.81-13.1-1.85-5.58.72-5.59,1.67S407.05,364.58,412.21,364.63Z"/><path class="cls-3" d="M427.66,346c-.05,5.17.65,13.13,1.6,13.14s1.81-7.94,1.85-13.1-.72-5.59-1.67-5.6S427.71,340.88,427.66,346Z"/><path class="cls-3" d="M1000.87,332.92c-5.17-.05-13.13.65-13.14,1.6s7.94,1.8,13.1,1.85,5.59-.72,5.59-1.67S1006,333,1000.87,332.92Z"/><path class="cls-3" d="M985.41,351.5c.05-5.16-.65-13.12-1.6-13.13s-1.8,7.94-1.85,13.1.72,5.58,1.67,5.59S985.37,356.67,985.41,351.5Z"/><path class="cls-3" d="M970.7,323.56c3.62,3.68,9.74,8.82,10.42,8.15s-4.34-6.89-8-10.57-4.46-3.44-5.14-2.77S967.09,319.88,970.7,323.56Z"/><path class="cls-3" d="M997,345.41c-3.62-3.68-9.74-8.82-10.42-8.15s4.34,6.89,7.95,10.57,4.46,3.44,5.14,2.77S1000.61,349.09,997,345.41Z"/><path class="cls-3" d="M972.92,347.63c3.68-3.62,8.82-9.74,8.15-10.42s-6.89,4.34-10.57,8-3.44,4.46-2.77,5.14S969.24,351.24,972.92,347.63Z"/><path class="cls-3" d="M994.77,321.34c-3.68,3.62-8.82,9.74-8.15,10.42s6.89-4.34,10.57-7.95,3.44-4.46,2.77-5.14S998.45,317.73,994.77,321.34Z"/><path class="cls-3" d="M966.83,336.05c5.16.05,13.12-.65,13.13-1.6s-7.94-1.8-13.1-1.85-5.58.72-5.59,1.67S961.67,336,966.83,336.05Z"/><path class="cls-3" d="M982.28,317.47c0,5.16.65,13.12,1.6,13.13s1.8-7.94,1.85-13.1-.72-5.59-1.67-5.59S982.33,312.3,982.28,317.47Z"/><path class="cls-1" d="M511.87,178.08c-2.81,2.87-6.72,7.71-6.19,8.23s5.3-3.48,8.12-6.35,2.61-3.52,2.08-4S514.69,175.21,511.87,178.08Z"/><path class="cls-1" d="M514,196.79c-2.87-2.82-7.72-6.72-8.24-6.19s3.48,5.3,6.35,8.11,3.52,2.61,4,2.08S516.82,199.61,514,196.79Z"/><path class="cls-1" d="M490.33,190c4,0,10.21-.7,10.2-1.45s-6.21-1.28-10.23-1.24-4.34.64-4.33,1.38S486.31,190,490.33,190Z"/><path class="cls-1" d="M516.79,187c-4,0-10.21.7-10.2,1.45s6.21,1.28,10.23,1.24,4.33-.64,4.33-1.38S520.81,187,516.79,187Z"/><path class="cls-1" d="M505,201.71c0-4-.7-10.21-1.44-10.21s-1.29,6.21-1.25,10.23.64,4.34,1.39,4.33S505.07,205.73,505,201.71Z"/><path class="cls-1" d="M502.09,175.24c0,4,.7,10.21,1.44,10.21s1.29-6.21,1.25-10.23-.64-4.34-1.39-4.33S502.05,171.22,502.09,175.24Z"/><path class="cls-1" d="M495.24,198.87c2.82-2.87,6.73-7.71,6.2-8.23s-5.3,3.48-8.12,6.35-2.61,3.52-2.08,4S492.43,201.74,495.24,198.87Z"/><path class="cls-1" d="M493.16,180.16c2.87,2.82,7.72,6.73,8.24,6.19s-3.48-5.3-6.35-8.11-3.52-2.61-4-2.08S490.29,177.34,493.16,180.16Z"/><path class="cls-8" d="M470.09,334.48l2.05-1.2c-15.21-25.76-15.2-59.37-15.2-77.42V254c0-16.93-9.58-36.95-10-37.8l-2.14,1c.1.21,9.74,20.39,9.76,36.77v1.89C454.56,274.14,454.55,308.17,470.09,334.48Z"/><path class="cls-1" d="M436.63,237.78c6.71,6.83,16.9,7.68,16.9,7.68s-.69-10.2-7.4-17-16.9-7.68-16.9-7.68S429.92,231,436.63,237.78Z"/><path class="cls-1" d="M467.54,229.61c2.92-9.11-1.05-18.54-1.05-18.54s-8.72,5.35-11.65,14.47,1.05,18.54,1.05,18.54S464.61,238.73,467.54,229.61Z"/><path class="cls-1" d="M436.27,210.27c3.42,8.94,12.42,13.8,12.42,13.8s3.46-9.63,0-18.57-12.42-13.8-12.42-13.8S432.85,201.33,436.27,210.27Z"/><path class="cls-1" d="M439.18,260.52c6.71,6.82,16.91,7.68,16.91,7.68s-.69-10.21-7.4-17-16.91-7.68-16.91-7.68S432.47,253.69,439.18,260.52Z"/><path class="cls-1" d="M441.29,284.41c7.14,6.37,17.37,6.55,17.37,6.55s-1.36-10.14-8.5-16.51-17.38-6.55-17.38-6.55S434.14,278,441.29,284.41Z"/><path class="cls-1" d="M471.84,258.21c5.66-7.72,4.88-17.92,4.88-17.92s-10,2.31-15.63,10-4.88,17.92-4.88,17.92S466.17,265.93,471.84,258.21Z"/><path class="cls-1" d="M473.05,282.79c6.39-7.12,6.62-17.35,6.62-17.35s-10.15,1.32-16.54,8.44-6.62,17.35-6.62,17.35S466.65,289.91,473.05,282.79Z"/><path class="cls-2" d="M836.23,232.32l1.24-.46c-5.78-15.63-2.43-34.05-.63-44l.19-1c1.67-9.28-1.58-21.21-1.72-21.71l-1.28.35c0,.12,3.31,12.15,1.69,21.13l-.18,1C833.71,197.7,830.32,216.35,836.23,232.32Z"/><path class="cls-2" d="M827.5,176c3,4.41,8.5,5.89,8.5,5.89s.64-5.66-2.36-10.07-8.5-5.89-8.5-5.89S824.5,171.57,827.5,176Z"/><path class="cls-2" d="M845.26,174.58c2.51-4.71,1.27-10.27,1.27-10.27s-5.31,2.06-7.83,6.77-1.27,10.27-1.27,10.27S842.74,179.28,845.26,174.58Z"/><path class="cls-2" d="M830,160.86c1,5.24,5.44,8.8,5.44,8.8s2.85-4.93,1.86-10.17-5.43-8.81-5.43-8.81S829.06,155.62,830,160.86Z"/><path class="cls-2" d="M826.64,188.7c3,4.41,8.5,5.89,8.5,5.89s.64-5.66-2.36-10.07-8.51-5.9-8.51-5.9S823.64,184.29,826.64,188.7Z"/><path class="cls-2" d="M825.41,202c3.29,4.21,8.88,5.33,8.88,5.33s.26-5.7-3-9.9-8.87-5.32-8.87-5.32S822.13,197.8,825.41,202Z"/><path class="cls-2" d="M844.77,190.68c3.87-3.67,4.46-9.34,4.46-9.34s-5.69.28-9.57,3.95-4.46,9.33-4.46,9.33S840.9,194.35,844.77,190.68Z"/><path class="cls-2" d="M843,204.28c4.21-3.27,5.35-8.86,5.35-8.86s-5.69-.28-9.9,3-5.36,8.85-5.36,8.85S838.77,207.54,843,204.28Z"/><circle class="cls-2" cx="853.24" cy="320.6" r="4.01"/><circle class="cls-2" cx="970.97" cy="403.06" r="4.01"/><circle class="cls-2" cx="1064.37" cy="351.02" r="4.01"/><circle class="cls-2" cx="873.7" cy="195.83" r="4.01"/><circle class="cls-1" cx="1014.44" cy="254.27" r="4.01"/><circle class="cls-2" cx="739.6" cy="154.32" r="4.01"/><circle class="cls-2" cx="435.03" cy="164.31" r="4.01"/><path class="cls-1" d="M936,236.8c1.36,1.81,3,3.42,4.52,5.11,3,2.5,5.87,5.32,9.45,7.06,6,2.94,12.07,5.83,18.17,8.6a16.5,16.5,0,0,1,4.58,3.31c3.39,3.19,3.63,21.42,3.74,25.67,1.42-.29,2.79-1.09,4.21-1.37-.43-11.32.63-28.81,1.6-44.12.68-.16,1.36-.35,2-.56a45.12,45.12,0,0,0,9.08-4.41q5.52-3.32,10.7-7.09a18.64,18.64,0,0,0,5.73.56,106.75,106.75,0,0,0,24.77-3.4l-.85-3.29a102.82,102.82,0,0,1-24,3.3c-.62,0-1.25,0-1.88,0A144.44,144.44,0,0,0,1026.3,209l-2.52-2.28a141.28,141.28,0,0,1-24,21.15,74.18,74.18,0,0,0,7.26-21.9l-3.35-.55a70.33,70.33,0,0,1-9.86,26l.28.17c-.85.54-1.7,1.07-2.57,1.59a38.64,38.64,0,0,1-9.12,4.32c.38-6,.72-11.54.93-16.07,0-9.4-.46-18.74-2.83-27.92-1.24-4.79-3.71-9.11-5-13.84l-3.45,1.26A91.39,91.39,0,0,1,978.67,211c-3.58-3.78-7.34-7.31-10-11.73-2.24-3.68-4.61-7.35-4.86-11.86l-2.66,1.16c.4,1.26.81,2.52,1.19,3.78,2.92,9.73,9.66,17.15,15.26,25.26,1,1.49,2.45,2.78,1.36,4.83a7.89,7.89,0,0,1,.18,2.09c-1.52,8.89-2.32,17.86-3,26.84-.15,1.93.41,4-.45,5.94-2.45-2.49-4.73-4.79-7-7.12-1.15-1.19-2.66-2.08-3.07-3.9a91.54,91.54,0,0,1-2.29-17.83l-4.11-20.23-3.33,1.4c2.06,6.94,4,13.91,4.12,21.22.84,3.59.89,7.22,1.1,11.61-2.93-3-5.3-5.35-7-8.24-3.72-4.11-7.19-8.37-8.63-13.89a41.93,41.93,0,0,1-5.61-13.27l-3.65,1.14c.25,1.21.5,2.43.74,3.64a177.7,177.7,0,0,0,13.37,24.45c3.33,4.35,7.57,7.94,10.51,12.62a31.52,31.52,0,0,1-10-4.12c-2.6-1.51-5.64-2.61-7.1-5.62-2.38-.84-3.75-2.91-5.5-4.52-.81-.76-1.32-2.63-3-1.05S935.34,236,936,236.8Zm25.33,12.54-.38-.3.42,0Z"/><path class="cls-2" d="M608.06,272.24c1.36,1.82,3,3.42,4.52,5.11,3,2.5,5.87,5.32,9.45,7.07,6,2.93,12.07,5.82,18.17,8.6a16.47,16.47,0,0,1,4.58,3.3c3.39,3.2,3.63,21.42,3.74,25.67,1.42-.29,2.79-1.08,4.21-1.37-.43-11.32.63-28.81,1.6-44.11.68-.16,1.36-.35,2-.57a45.12,45.12,0,0,0,9.08-4.41c3.68-2.2,7.24-4.57,10.7-7.08a18.63,18.63,0,0,0,5.73.55,106.22,106.22,0,0,0,24.77-3.4l-.85-3.29a102.82,102.82,0,0,1-24,3.3c-.62,0-1.25,0-1.88,0a144.52,144.52,0,0,0,18.49-17.19l-2.52-2.27a141.23,141.23,0,0,1-24,21.14,74.09,74.09,0,0,0,7.26-21.9l-3.35-.55a70.33,70.33,0,0,1-9.86,26l.28.18c-.85.53-1.7,1.06-2.57,1.58a39.1,39.1,0,0,1-9.12,4.33c.38-6,.72-11.54.93-16.08,0-9.4-.46-18.74-2.83-27.91-1.24-4.8-3.71-9.11-5-13.85l-3.45,1.26a91.44,91.44,0,0,1,6.61,30.12c-3.58-3.78-7.34-7.32-10-11.74-2.24-3.68-4.61-7.34-4.86-11.86l-2.66,1.16c.4,1.26.81,2.52,1.19,3.79,2.92,9.73,9.66,17.15,15.26,25.25,1,1.49,2.45,2.78,1.36,4.83a8,8,0,0,1,.18,2.1c-1.52,8.89-2.32,17.85-3,26.84-.15,1.92.41,3.95-.45,5.94-2.45-2.5-4.73-4.8-7-7.13-1.15-1.19-2.66-2.08-3.07-3.89a91.64,91.64,0,0,1-2.29-17.84l-4.11-20.23-3.33,1.41c2.06,6.94,4,13.91,4.12,21.22.84,3.58.89,7.21,1.1,11.6-2.93-3-5.3-5.35-7-8.24-3.72-4.11-7.19-8.36-8.63-13.89a42,42,0,0,1-5.61-13.26l-3.65,1.13c.25,1.22.5,2.43.74,3.64a177.7,177.7,0,0,0,13.37,24.45c3.33,4.35,7.57,8,10.51,12.63a31.78,31.78,0,0,1-10-4.13c-2.6-1.51-5.64-2.61-7.1-5.61-2.38-.84-3.75-2.91-5.5-4.53-.81-.76-1.32-2.63-3-1S607.44,271.42,608.06,272.24Zm25.33,12.55-.38-.31.42,0Z"/><path class="cls-2" d="M499,344.17c1.36,1.82,3,3.42,4.53,5.11,3,2.5,5.86,5.32,9.45,7.07,6,2.93,12.07,5.82,18.17,8.6a16.47,16.47,0,0,1,4.58,3.3c3.38,3.2,3.63,21.42,3.74,25.67,1.41-.29,2.79-1.08,4.21-1.37-.43-11.32.63-28.8,1.6-44.11.68-.16,1.36-.35,2-.57a44.85,44.85,0,0,0,9.08-4.41c3.67-2.2,7.24-4.57,10.7-7.08a18.6,18.6,0,0,0,5.72.55,106.3,106.3,0,0,0,24.78-3.4l-.86-3.28a103.18,103.18,0,0,1-24,3.29c-.62,0-1.26,0-1.88,0a145.19,145.19,0,0,0,18.49-17.19l-2.52-2.27a141.17,141.17,0,0,1-24,21.14,74.38,74.38,0,0,0,7.26-21.9l-3.35-.54a70.69,70.69,0,0,1-9.86,26l.28.18c-.85.54-1.71,1.07-2.57,1.58a39,39,0,0,1-9.13,4.33c.38-6,.73-11.54.94-16.08,0-9.39-.47-18.74-2.84-27.91-1.23-4.8-3.7-9.11-5-13.85l-3.46,1.26a91.19,91.19,0,0,1,6.61,30.12c-3.58-3.78-7.33-7.32-10-11.73-2.25-3.69-4.61-7.35-4.87-11.86L524.14,296c.39,1.26.81,2.52,1.19,3.79,2.91,9.73,9.65,17.15,15.26,25.25,1,1.49,2.45,2.78,1.36,4.83a8.41,8.41,0,0,1,.18,2.1c-1.53,8.89-2.32,17.86-3,26.84-.16,1.92.41,3.95-.46,5.94-2.45-2.5-4.73-4.8-7-7.13-1.15-1.19-2.66-2.08-3.06-3.89a92.43,92.43,0,0,1-2.3-17.83q-2-10.12-4.1-20.24l-3.33,1.41c2.06,6.94,4,13.91,4.12,21.22.84,3.58.89,7.22,1.09,11.6-2.92-3-5.3-5.35-7-8.24-3.72-4.1-7.2-8.36-8.64-13.89a42.21,42.21,0,0,1-5.61-13.26l-3.64,1.14c.24,1.21.49,2.42.74,3.64a177.59,177.59,0,0,0,13.37,24.44c3.33,4.35,7.57,7.95,10.5,12.63a31.82,31.82,0,0,1-10-4.13c-2.6-1.51-5.64-2.61-7.1-5.61-2.39-.84-3.75-2.91-5.5-4.53-.82-.76-1.32-2.63-3-1S498.36,343.35,499,344.17Zm25.33,12.55-.37-.31.42,0Z"/><path class="cls-2" d="M633.46,320.39c8.63,9,22,10.19,22,10.19s-.66-13.31-9.29-22.28-22-10.19-22-10.19S624.82,311.43,633.46,320.39Z"/><path class="cls-2" d="M530.26,391.92c5.82,6.05,14.82,6.88,14.82,6.88s-.44-9-6.26-15S524,376.88,524,376.88,524.43,385.87,530.26,391.92Z"/><path class="cls-2" d="M665.18,299.66c-5.16,5-5.86,12.64-5.86,12.64s7.67-.37,12.83-5.34S678,294.32,678,294.32,670.35,294.69,665.18,299.66Z"/><path class="cls-2" d="M554.61,370.18a14.24,14.24,0,0,0-3.73,8.06,12.25,12.25,0,0,0,11.91-11.46A14.16,14.16,0,0,0,554.61,370.18Z"/><circle class="cls-2" cx="317.51" cy="417.36" r="4.12"/><circle class="cls-2" cx="233" cy="366.95" r="4.12"/><circle class="cls-2" cx="372.55" cy="341.29" r="4.12"/><circle class="cls-2" cx="485.97" cy="406.77" r="4.12"/><path class="cls-9" d="M624.36,431.6l-1-.35c4.46-12.62,1.56-27.38,0-35.31l-.16-.83c-1.45-7.43,1-17.05,1.13-17.45l1,.26c0,.1-2.52,9.8-1.12,17l.17.83C626,403.77,628.91,418.71,624.36,431.6Z"/><path class="cls-9" d="M630.72,386.26a13.44,13.44,0,0,1-6.77,4.83,11.59,11.59,0,0,1,8.55-12.95A13.47,13.47,0,0,1,630.72,386.26Z"/><path class="cls-9" d="M616.44,385.33a13.4,13.4,0,0,1-1.14-8.23,11.58,11.58,0,0,1,7.5,13.58A13.4,13.4,0,0,1,616.44,385.33Z"/><path class="cls-9" d="M628.5,374.14a13.38,13.38,0,0,1-4.26,7.13A11.56,11.56,0,0,1,626.88,366,13.38,13.38,0,0,1,628.5,374.14Z"/><path class="cls-9" d="M631.55,396.46a13.43,13.43,0,0,1-6.76,4.83,11.57,11.57,0,0,1,8.55-13A13.44,13.44,0,0,1,631.55,396.46Z"/><path class="cls-9" d="M632.69,407.13a13.43,13.43,0,0,1-7.06,4.38A11.56,11.56,0,0,1,635,399.15,13.37,13.37,0,0,1,632.69,407.13Z"/><path class="cls-9" d="M617,398.26a13.35,13.35,0,0,1-3.69-7.45,11.59,11.59,0,0,1,11.41,10.51A13.39,13.39,0,0,1,617,398.26Z"/><path class="cls-9" d="M618.6,409.16a13.41,13.41,0,0,1-4.4-7.05,11.57,11.57,0,0,1,12.39,9.33A13.45,13.45,0,0,1,618.6,409.16Z"/><path class="cls-3" d="M583.23,457.78l-1-.35c4.46-12.62,1.55-27.38,0-35.3l-.17-.84c-1.45-7.43,1-17.05,1.13-17.45l1,.26c0,.1-2.52,9.8-1.11,17l.16.83C584.85,430,587.79,444.89,583.23,457.78Z"/><path class="cls-3" d="M589.59,412.44a13.43,13.43,0,0,1-6.76,4.83,11.57,11.57,0,0,1,8.54-12.95A13.39,13.39,0,0,1,589.59,412.44Z"/><path class="cls-3" d="M575.31,411.51a13.4,13.4,0,0,1-1.14-8.23,11.58,11.58,0,0,1,7.5,13.58A13.4,13.4,0,0,1,575.31,411.51Z"/><path class="cls-3" d="M587.37,400.32a13.38,13.38,0,0,1-4.26,7.13,11.55,11.55,0,0,1,2.65-15.28A13.41,13.41,0,0,1,587.37,400.32Z"/><path class="cls-3" d="M590.43,422.64a13.43,13.43,0,0,1-6.76,4.83,11.57,11.57,0,0,1,8.54-13A13.39,13.39,0,0,1,590.43,422.64Z"/><path class="cls-3" d="M591.56,433.31a13.43,13.43,0,0,1-7.06,4.38,11.58,11.58,0,0,1,9.37-12.36A13.37,13.37,0,0,1,591.56,433.31Z"/><path class="cls-3" d="M575.89,424.44A13.41,13.41,0,0,1,572.2,417a11.57,11.57,0,0,1,11.42,10.5A13.41,13.41,0,0,1,575.89,424.44Z"/><path class="cls-3" d="M577.48,435.34a13.39,13.39,0,0,1-4.41-7,11.59,11.59,0,0,1,12.4,9.33A13.43,13.43,0,0,1,577.48,435.34Z"/><path class="cls-2" d="M893.33,320.51c-1.92-.4-3.85-1.94-3.78-3.83a.67.67,0,0,1,.69-.64h0a.66.66,0,0,1,.67.66c0,1.1,1.55,2.4,3.15,2.67a2.14,2.14,0,0,0,1.51-.21,1.56,1.56,0,0,0,.44-.53.61.61,0,0,0,.05-.12l.09-.32.64-.16.43.5-.12.31a2.63,2.63,0,0,1-.35.64,3.11,3.11,0,0,1-.23.28,3.07,3.07,0,0,1-2.23.85A4.7,4.7,0,0,1,893.33,320.51Zm-3.49-3.8Z"/><path class="cls-2" d="M896.06,317.35l.29-.6.31,0c1-.06,1.34-1,1.43-1.67.19-1.65-.65-3.51-1.72-3.84a.69.69,0,0,1,.36-1.33c1.85.46,2.8,2.78,2.65,4.76-.13,1.8-1.12,3-2.6,3.17l-.3.06Zm.62-7.16Z"/><path class="cls-2" d="M901.65,327.79a4.81,4.81,0,0,0,4-2.41,7,7,0,0,0,.58-5.15,2.61,2.61,0,0,0-.69-1.36,2.12,2.12,0,0,0-2.25-.29,4.39,4.39,0,0,0-1.56,1.26,16.09,16.09,0,0,0-2.31,3.52l1,.47a14.89,14.89,0,0,1,2.16-3.28,3.46,3.46,0,0,1,1.16-1,1.08,1.08,0,0,1,1.1.09,1.68,1.68,0,0,1,.37.82,5.94,5.94,0,0,1-.46,4.35,3.65,3.65,0,0,1-3.55,1.84l-.18,1.07A4.6,4.6,0,0,0,901.65,327.79Z"/><path class="cls-2" d="M900.78,326.43c.2-.11,4.8-2.82,5-7.14l-1.08,0c-.13,3.72-4.36,6.22-4.41,6.25Z"/><path class="cls-2" d="M902.59,338.34a4.28,4.28,0,0,0,2.47-.8,5.85,5.85,0,0,0,2.24-3.8,2.31,2.31,0,0,0-.07-1.32,1.87,1.87,0,0,0-1.7-1.05,3.64,3.64,0,0,0-1.67.45,13.61,13.61,0,0,0-3,1.92l.69.82a13.06,13.06,0,0,1,2.76-1.76,3.28,3.28,0,0,1,1.19-.35.81.81,0,0,1,.72.39,1.27,1.27,0,0,1,0,.7,4.94,4.94,0,0,1-1.8,3.13,3,3,0,0,1-3.25.2l-.59.9A3.61,3.61,0,0,0,902.59,338.34Z"/><path class="cls-2" d="M900.92,336.7c.19,0,4.69-.53,6.3-3.83l-1-.48c-1.35,2.76-5.4,3.24-5.44,3.24Z"/><path class="cls-2" d="M899.23,340.15a3.74,3.74,0,0,0,1.19-.18l-.33-1a3.62,3.62,0,0,1-3.77-1.32,5.91,5.91,0,0,1-1.07-4.24,1.68,1.68,0,0,1,.26-.86,1.07,1.07,0,0,1,1.07-.25,3.42,3.42,0,0,1,1.29.81,15.18,15.18,0,0,1,2.6,2.94l.9-.6a16.46,16.46,0,0,0-2.79-3.16,4.35,4.35,0,0,0-1.72-1,2.08,2.08,0,0,0-2.19.61,2.65,2.65,0,0,0-.49,1.44,6.88,6.88,0,0,0,1.3,5A4.9,4.9,0,0,0,899.23,340.15Z"/><path class="cls-2" d="M900.46,338.65l.41-1s-4.6-1.91-5.25-5.57l-1.06.19C895.32,336.53,900.25,338.56,900.46,338.65Z"/><path class="cls-2" d="M899.12,329.42a3.34,3.34,0,0,0,2.25-.81l-.71-.81a2.59,2.59,0,0,1-2.86.21,4.34,4.34,0,0,1-2-2.53,1.08,1.08,0,0,1-.08-.6.65.65,0,0,1,.56-.39,2.4,2.4,0,0,1,1.07.15,11.38,11.38,0,0,1,2.67,1.24l.57-.92a13,13,0,0,0-2.91-1.35,3.53,3.53,0,0,0-1.57-.19,1.71,1.71,0,0,0-1.43,1.18,2.08,2.08,0,0,0,.1,1.22,5.37,5.37,0,0,0,2.48,3.15A4,4,0,0,0,899.12,329.42Z"/><path class="cls-2" d="M900.8,327.72h.12l0-1.08s-3.68.07-5.21-2.2l-.89.6C896.48,327.59,900.08,327.72,900.8,327.72Z"/><path class="cls-2" d="M896.43,316.86a6.63,6.63,0,0,0-1.55-3.64,7.36,7.36,0,0,0-2.88-2.15c-.35-.15-.7-.28-1.06-.4a7.3,7.3,0,0,1-1.63-.71,3.88,3.88,0,0,1-1.65-4l-1.07-.09a4.93,4.93,0,0,0,2.13,4.95,8.16,8.16,0,0,0,1.87.83c.33.11.66.23,1,.37a6.37,6.37,0,0,1,2.47,1.83,5.3,5.3,0,0,1,1.31,3Z"/><path class="cls-2" d="M893.44,318.19a7.93,7.93,0,0,1-4.55-2,22.25,22.25,0,0,1-4.43-4.71c-.4-.57-.77-1.16-1.15-1.75l-1-1.6a.84.84,0,0,1-.17-.47.93.93,0,0,1,.39-.75,5.32,5.32,0,0,1,3.37-1.16,3,3,0,0,1,.51.06l.19,0v-.05a4.69,4.69,0,0,1,.58-1.84h0a7.28,7.28,0,0,1,1.16-1.45,1.45,1.45,0,0,1,1.9-.13,16.48,16.48,0,0,1,1.73,1.53,21,21,0,0,1,3,3.68,10.82,10.82,0,0,1,2,7.48,5.25,5.25,0,0,1-1,2.37,2.23,2.23,0,0,1-.74.46,4.29,4.29,0,0,1-1.64.33Zm-4.32-14.95a6.25,6.25,0,0,0-1,1.24,4.16,4.16,0,0,0-.45,1.56,1,1,0,0,1-.4.7,1.29,1.29,0,0,1-1,.11,2,2,0,0,0-.34,0,4.1,4.1,0,0,0-2.58.85l.93,1.47c.36.58.72,1.15,1.11,1.71a21.63,21.63,0,0,0,4.22,4.48,7.05,7.05,0,0,0,3.94,1.8,3.28,3.28,0,0,0,1.36-.25,1.14,1.14,0,0,0,.39-.23,4.59,4.59,0,0,0,.63-1.69,9.74,9.74,0,0,0-1.83-6.8,20.55,20.55,0,0,0-2.84-3.52,15.53,15.53,0,0,0-1.62-1.42.36.36,0,0,0-.22-.07A.35.35,0,0,0,889.12,303.24Z"/><path class="cls-2" d="M891.34,353c20.27-19.2,5-36.35,4.85-36.52l-.8.73c.61.67,14.69,16.55-4.79,35Z"/><path class="cls-3" d="M1062.89,384.51c.23-1.94,1.6-4,3.48-4.09a.68.68,0,0,1,.71.63h0a.67.67,0,0,1-.6.73c-1.1.11-2.27,1.75-2.4,3.37a2.17,2.17,0,0,0,.35,1.49,1.48,1.48,0,0,0,.56.39l.13,0,.32.05.21.63-.45.47-.33-.09a3.08,3.08,0,0,1-.67-.29l-.29-.21a3,3,0,0,1-1-2.15A4.64,4.64,0,0,1,1062.89,384.51Zm3.48-3.79Z"/><path class="cls-3" d="M1066.27,387l.62.24,0,.31c.16,1,1.06,1.25,1.8,1.27,1.65,0,3.44-1,3.67-2.05a.68.68,0,0,1,.79-.52.69.69,0,0,1,.57.77c-.3,1.88-2.53,3-4.51,3.06-1.81,0-3.1-.87-3.39-2.32l-.09-.3Zm7.19,0h0Z"/><path class="cls-3" d="M1056.35,393.44a4.8,4.8,0,0,0,2.75,3.79,6.92,6.92,0,0,0,5.18.14,2.64,2.64,0,0,0,1.29-.81,2.13,2.13,0,0,0,.1-2.26,4.32,4.32,0,0,0-1.4-1.45,16.13,16.13,0,0,0-3.7-2l-.38,1a15.16,15.16,0,0,1,3.45,1.87,3.22,3.22,0,0,1,1.07,1.07,1.06,1.06,0,0,1,0,1.1,1.74,1.74,0,0,1-.79.44,5.9,5.9,0,0,1-4.37-.09,3.63,3.63,0,0,1-2.14-3.36l-1.07-.09A3.42,3.42,0,0,0,1056.35,393.44Z"/><path class="cls-3" d="M1057.63,392.46c.13.18,3.23,4.53,7.54,4.31l-.05-1.08c-3.72.19-6.58-3.81-6.61-3.85Z"/><path class="cls-3" d="M1045.91,395.28a4.35,4.35,0,0,0,1,2.4,6,6,0,0,0,4,1.9,2.36,2.36,0,0,0,1.31-.19,1.86,1.86,0,0,0,.89-1.78,3.63,3.63,0,0,0-.59-1.63,14.39,14.39,0,0,0-2.16-2.81l-.77.76a13,13,0,0,1,2,2.6,3,3,0,0,1,.44,1.15.82.82,0,0,1-.32.76,1.34,1.34,0,0,1-.7.06,4.86,4.86,0,0,1-3.27-1.53,3,3,0,0,1-.48-3.21l-.94-.52A3.58,3.58,0,0,0,1045.91,395.28Z"/><path class="cls-3" d="M1047.4,393.48c0,.19.94,4.62,4.37,5.94l.39-1c-2.87-1.1-3.69-5.1-3.7-5.14Z"/><path class="cls-3" d="M1043.82,392.08a4.24,4.24,0,0,0,.28,1.18l1-.42a3.61,3.61,0,0,1,1-3.86,5.88,5.88,0,0,1,4.13-1.44,1.78,1.78,0,0,1,.88.18,1.06,1.06,0,0,1,.33,1,3.45,3.45,0,0,1-.68,1.35,15.57,15.57,0,0,1-2.71,2.85l.68.84a16.77,16.77,0,0,0,2.9-3.05,4.44,4.44,0,0,0,.88-1.81,2.09,2.09,0,0,0-.8-2.12,2.57,2.57,0,0,0-1.47-.36,7,7,0,0,0-4.89,1.72A4.9,4.9,0,0,0,1043.82,392.08Z"/><path class="cls-3" d="M1045.43,393.19l1,.31s1.5-4.74,5.09-5.7l-.28-1C1047.1,387.88,1045.49,393,1045.43,393.19Z"/><path class="cls-3" d="M1054.51,391.05a3.34,3.34,0,0,0,1,2.18l.74-.78a2.61,2.61,0,0,1-.46-2.83,4.38,4.38,0,0,1,2.36-2.18,1.11,1.11,0,0,1,.59-.14.68.68,0,0,1,.44.53,2.5,2.5,0,0,1-.06,1.08,11.92,11.92,0,0,1-1,2.77l1,.49a12.54,12.54,0,0,0,1.09-3,3.63,3.63,0,0,0,.06-1.58,1.72,1.72,0,0,0-1.3-1.33,2.11,2.11,0,0,0-1.21.21,5.34,5.34,0,0,0-2.92,2.75A3.85,3.85,0,0,0,1054.51,391.05Z"/><path class="cls-3" d="M1056.35,392.58c0,.06,0,.1,0,.12l1.07-.13s-.39-3.66,1.74-5.38l-.68-.84C1056.1,388.27,1056.29,391.87,1056.35,392.58Z"/><path class="cls-3" d="M1066.79,387.3a6.61,6.61,0,0,0,3.49-1.86,7.51,7.51,0,0,0,1.9-3.06c.12-.36.21-.72.3-1.09a7.54,7.54,0,0,1,.57-1.68,3.89,3.89,0,0,1,3.81-2v-1.08a5,5,0,0,0-4.75,2.55,7.81,7.81,0,0,0-.66,1.94c-.09.34-.17.68-.28,1a6.27,6.27,0,0,1-1.62,2.62,5.31,5.31,0,0,1-2.84,1.57Z"/><path class="cls-3" d="M1065.2,384.43a8,8,0,0,1,1.63-4.71,22.73,22.73,0,0,1,4.31-4.82c.53-.45,1.09-.87,1.65-1.29l1.5-1.14a.94.94,0,0,1,.46-.21,1,1,0,0,1,.78.33,5.29,5.29,0,0,1,1.44,3.25,2.86,2.86,0,0,1,0,.51c0,.06,0,.13,0,.2h.06a4.9,4.9,0,0,1,1.88.42h0a7.9,7.9,0,0,1,1.54,1,1.45,1.45,0,0,1,.29,1.88,17.19,17.19,0,0,1-1.37,1.87,21,21,0,0,1-3.42,3.28,10.79,10.79,0,0,1-7.27,2.63,5.2,5.2,0,0,1-2.45-.74,2.32,2.32,0,0,1-.52-.7,4.34,4.34,0,0,1-.47-1.6C1065.21,384.56,1065.2,384.5,1065.2,384.43Zm14.53-5.6a6.94,6.94,0,0,0-1.32-.89,4.17,4.17,0,0,0-1.6-.32,1,1,0,0,1-.73-.34,1.31,1.31,0,0,1-.2-1,1.93,1.93,0,0,0,0-.34,4.13,4.13,0,0,0-1.07-2.5l-1.38,1.05c-.54.41-1.09.82-1.61,1.26a21.35,21.35,0,0,0-4.1,4.59,7,7,0,0,0-1.45,4.07,3.27,3.27,0,0,0,.36,1.34,1.31,1.31,0,0,0,.27.37,4.54,4.54,0,0,0,1.74.48,9.73,9.73,0,0,0,6.62-2.41,20.49,20.49,0,0,0,3.25-3.13,15.57,15.57,0,0,0,1.28-1.74.36.36,0,0,0,0-.22A.35.35,0,0,0,1079.73,378.83Z"/><path class="cls-3" d="M1030.38,385.33c20.87,18.54,36.63,1.85,36.79,1.68l-.79-.73c-.61.67-15.22,16.07-35.29-1.76Z"/><path class="cls-2" d="M691.82,344.08a3,3,0,0,1-2.38.14,1.37,1.37,0,0,1-.32-.16,2.45,2.45,0,0,1-.59-.44l-.24-.23.2-.63.64-.13.21.26a.47.47,0,0,0,.1.1,1.73,1.73,0,0,0,.61.3,2.16,2.16,0,0,0,1.47-.43c1.35-.9,2.22-2.71,1.78-3.73a.67.67,0,0,1,.34-.88h0a.67.67,0,0,1,.89.3c.84,1.69-.29,3.89-1.87,5A4.33,4.33,0,0,1,691.82,344.08Zm2.47-5.38Z"/><path class="cls-2" d="M688.71,342.49l-.3.07c-1.41.46-2.81-.24-3.67-1.83-.94-1.75-1-4.25.47-5.43a.69.69,0,0,1,.88,1.07c-.85.73-.85,2.78,0,4.2a1.61,1.61,0,0,0,2,.95l.3-.11.51.42Zm-3.33-6.94h0Z"/><path class="cls-2" d="M688.06,353.64a4.8,4.8,0,0,1-4.66-.55,6.93,6.93,0,0,1-2.64-4.46,2.62,2.62,0,0,1,.08-1.51,2.12,2.12,0,0,1,1.93-1.2,4.41,4.41,0,0,1,1.94.52,16.65,16.65,0,0,1,3.55,2.25l-.69.83a15.14,15.14,0,0,0-3.32-2.1,3.44,3.44,0,0,0-1.46-.42,1,1,0,0,0-1,.54,1.62,1.62,0,0,0,0,.9,5.92,5.92,0,0,0,2.2,3.77,3.64,3.64,0,0,0,4,.23l.61.89A3.43,3.43,0,0,1,688.06,353.64Z"/><path class="cls-2" d="M688.29,352.05c-.22,0-5.53-.61-7.44-4.49l1-.47c1.64,3.33,6.53,3.88,6.58,3.89Z"/><path class="cls-2" d="M691.53,363.66a4.3,4.3,0,0,1-2.59.28,5.88,5.88,0,0,1-3.59-2.55,2.26,2.26,0,0,1-.48-1.24A1.86,1.86,0,0,1,686,358.5a3.57,3.57,0,0,1,1.7-.27,13.87,13.87,0,0,1,3.52.52l-.3,1a12.63,12.63,0,0,0-3.24-.48,3.22,3.22,0,0,0-1.22.17.81.81,0,0,0-.5.65,1.25,1.25,0,0,0,.28.64,4.88,4.88,0,0,0,2.93,2.11,2.94,2.94,0,0,0,3-1.14l.91.58A3.7,3.7,0,0,1,691.53,363.66Z"/><path class="cls-2" d="M692.38,361.48c-.19.06-4.5,1.43-7.32-.92l.69-.83c2.36,2,6.25.74,6.29.72Z"/><path class="cls-2" d="M695.34,363.93a3.63,3.63,0,0,1-1.17.32l-.12-1.07a3.64,3.64,0,0,0,2.9-2.75,5.89,5.89,0,0,0-.77-4.31,1.7,1.7,0,0,0-.58-.68,1.07,1.07,0,0,0-1.08.22,3.32,3.32,0,0,0-.84,1.26,15,15,0,0,0-1.17,3.75l-1.07-.19a17.12,17.12,0,0,1,1.25-4,4.37,4.37,0,0,1,1.15-1.65,2.08,2.08,0,0,1,2.25-.34,2.61,2.61,0,0,1,1,1.11,6.9,6.9,0,0,1,.87,5.11A4.86,4.86,0,0,1,695.34,363.93Z"/><path class="cls-2" d="M693.59,363.06l-.78-.74s3.41-3.62,2.51-7.23l1-.26C697.42,359,693.75,362.9,693.59,363.06Z"/><path class="cls-2" d="M691,354.09a3.37,3.37,0,0,1-2.39.19l.32-1a2.6,2.6,0,0,0,2.69-1,4.32,4.32,0,0,0,.76-3.12,1.1,1.1,0,0,0-.17-.57.66.66,0,0,0-.67-.14,2.49,2.49,0,0,0-.92.59,12,12,0,0,0-1.93,2.21l-.89-.59a12.48,12.48,0,0,1,2.1-2.43,3.6,3.6,0,0,1,1.35-.82,1.7,1.7,0,0,1,1.79.49,2,2,0,0,1,.41,1.15,5.35,5.35,0,0,1-1,3.9A3.81,3.81,0,0,1,691,354.09Z"/><path class="cls-2" d="M688.81,353.23l-.11,0-.42-1s3.4-1.44,3.86-4.14l1.06.18C692.69,351.34,689.46,352.94,688.81,353.23Z"/><path class="cls-2" d="M688.34,341.54a6.51,6.51,0,0,1-.08-4,7.37,7.37,0,0,1,1.75-3.16c.25-.27.52-.53.8-.79a6.65,6.65,0,0,0,1.19-1.32,3.84,3.84,0,0,0-.12-4.28l1-.53a5,5,0,0,1,.09,5.39,8.4,8.4,0,0,1-1.37,1.53,10.21,10.21,0,0,0-.74.73,6.26,6.26,0,0,0-1.5,2.69,5.32,5.32,0,0,0,0,3.24Z"/><path class="cls-2" d="M691.44,341.61a4.26,4.26,0,0,1-1.62.37,2.3,2.3,0,0,1-.87-.11,5.16,5.16,0,0,1-1.84-1.78,10.82,10.82,0,0,1-1.24-7.63,22.21,22.21,0,0,1,1.2-4.59,18.21,18.21,0,0,1,1-2.1,1.45,1.45,0,0,1,1.79-.66,7.57,7.57,0,0,1,1.65.84h0a4.93,4.93,0,0,1,1.28,1.44l0,.05.17-.11a2.69,2.69,0,0,1,.44-.26,5.31,5.31,0,0,1,3.54-.33,1,1,0,0,1,.67.53,1,1,0,0,1,0,.5l-.27,1.86c-.1.7-.19,1.39-.33,2.07a22.21,22.21,0,0,1-2.11,6.12,8,8,0,0,1-3.32,3.71Zm-2.29-15.49a.44.44,0,0,0-.17.16,16,16,0,0,0-.89,2,20.09,20.09,0,0,0-1.15,4.36,9.68,9.68,0,0,0,1.12,7,4.52,4.52,0,0,0,1.26,1.28,1.22,1.22,0,0,0,.46,0,3.19,3.19,0,0,0,1.34-.33,7,7,0,0,0,2.85-3.25,21,21,0,0,0,2-5.82c.13-.67.23-1.34.32-2l.25-1.72a4.2,4.2,0,0,0-2.71.29,1.27,1.27,0,0,0-.29.18,1.33,1.33,0,0,1-1,.31,1,1,0,0,1-.65-.47,4.44,4.44,0,0,0-1.06-1.24,7.18,7.18,0,0,0-1.42-.71A.39.39,0,0,0,689.15,326.12Z"/><path class="cls-2" d="M707.78,372.39c-26.35-9.21-19.46-31.1-19.38-31.32l1,.33c-.28.86-6.62,21.12,18.72,30Z"/><path class="cls-2" d="M388.66,419.88a3,3,0,0,1-2.37.31,1.51,1.51,0,0,1-.33-.13,2.92,2.92,0,0,1-.62-.39l-.25-.22.14-.64.64-.17.22.24.11.08a1.52,1.52,0,0,0,.64.26,2.08,2.08,0,0,0,1.42-.54c1.29-1,2-2.87,1.49-3.85a.67.67,0,0,1,.28-.9h0a.68.68,0,0,1,.92.24c1,1.62,0,3.9-1.5,5.16A4.47,4.47,0,0,1,388.66,419.88Zm2-5.56h0Z"/><path class="cls-2" d="M385.44,418.53l-.3.08c-1.37.57-2.82,0-3.8-1.54-1.07-1.67-1.34-4.16.06-5.45a.69.69,0,0,1,1,1c-.79.8-.64,2.83.32,4.19a1.62,1.62,0,0,0,2.05.79l.28-.13.54.38Zm-3.85-6.67h0Z"/><path class="cls-2" d="M385.63,429.7a4.83,4.83,0,0,1-4.68-.2,6.91,6.91,0,0,1-3-4.25,2.69,2.69,0,0,1-.05-1.52,2.13,2.13,0,0,1,1.84-1.33,4.35,4.35,0,0,1,2,.36,16.81,16.81,0,0,1,3.72,2l-.63.89a15.26,15.26,0,0,0-3.47-1.86,3.61,3.61,0,0,0-1.49-.3,1.05,1.05,0,0,0-.91.61,1.62,1.62,0,0,0,.06.89,5.92,5.92,0,0,0,2.48,3.6,3.64,3.64,0,0,0,4-.07l.67.85A6.06,6.06,0,0,1,385.63,429.7Z"/><path class="cls-2" d="M385.74,428.09c-.23,0-5.56-.19-7.76-3.91l.93-.55c1.89,3.2,6.81,3.38,6.86,3.38Z"/><path class="cls-2" d="M389.84,439.42a4.25,4.25,0,0,1-2.55.48,5.9,5.9,0,0,1-3.78-2.28,2.22,2.22,0,0,1-.57-1.19,1.86,1.86,0,0,1,1-1.73,3.67,3.67,0,0,1,1.67-.41,14.1,14.1,0,0,1,3.55.26l-.22,1.06a12.79,12.79,0,0,0-3.27-.24,3.25,3.25,0,0,0-1.2.27.83.83,0,0,0-.46.69,1.39,1.39,0,0,0,.34.61,4.9,4.9,0,0,0,3.07,1.89,3,3,0,0,0,2.95-1.37l.95.5A3.53,3.53,0,0,1,389.84,439.42Z"/><path class="cls-2" d="M390.53,437.18c-.18.07-4.38,1.77-7.37-.36l.63-.88c2.5,1.78,6.29.26,6.33.24Z"/><path class="cls-2" d="M393.67,439.4a3.63,3.63,0,0,1-1.14.41l-.2-1.06a3.63,3.63,0,0,0,2.67-3,5.87,5.87,0,0,0-1.08-4.24,1.61,1.61,0,0,0-.64-.63,1.06,1.06,0,0,0-1,.29,3.45,3.45,0,0,0-.75,1.32,15,15,0,0,0-.88,3.84l-1.08-.11a17,17,0,0,1,.94-4.1,4.43,4.43,0,0,1,1-1.73,2.12,2.12,0,0,1,2.22-.51,2.59,2.59,0,0,1,1.11,1,6.92,6.92,0,0,1,1.26,5A4.92,4.92,0,0,1,393.67,439.4Z"/><path class="cls-2" d="M391.86,438.67,391,438s3.12-3.86,2-7.39l1-.34C395.37,434.35,392,438.5,391.86,438.67Z"/><path class="cls-2" d="M388.63,429.92a3.38,3.38,0,0,1-2.36.37l.24-1.05a2.6,2.6,0,0,0,2.61-1.19,4.3,4.3,0,0,0,.52-3.16,1.21,1.21,0,0,0-.21-.57.69.69,0,0,0-.68-.08,2.55,2.55,0,0,0-.87.65,11.51,11.51,0,0,0-1.76,2.36l-.94-.53a13,13,0,0,1,1.92-2.58,3.58,3.58,0,0,1,1.28-.91,1.7,1.7,0,0,1,1.83.35,2.15,2.15,0,0,1,.49,1.12,5.35,5.35,0,0,1-.68,3.95A3.93,3.93,0,0,1,388.63,429.92Z"/><path class="cls-2" d="M386.34,429.23l-.1,0-.49-1s3.28-1.7,3.53-4.42l1.07.1C390.07,427.05,387,428.89,386.34,429.23Z"/><path class="cls-2" d="M385,417.6a6.6,6.6,0,0,1-.37-3.93,7.44,7.44,0,0,1,1.5-3.28c.23-.29.48-.57.74-.85a7.36,7.36,0,0,0,1.09-1.4,3.87,3.87,0,0,0-.44-4.27l.9-.59a4.93,4.93,0,0,1,.49,5.36,7.5,7.5,0,0,1-1.25,1.63c-.23.26-.47.52-.68.79a6.32,6.32,0,0,0-1.29,2.79,5.28,5.28,0,0,0,.26,3.23Z"/><path class="cls-2" d="M388.09,417.44a4.55,4.55,0,0,1-1.59.5,2.2,2.2,0,0,1-.87-.06,5.17,5.17,0,0,1-2-1.62,10.87,10.87,0,0,1-1.82-7.53,21.84,21.84,0,0,1,.86-4.66,16.07,16.07,0,0,1,.8-2.17,1.44,1.44,0,0,1,1.73-.79,8.22,8.22,0,0,1,1.71.71h0a5.05,5.05,0,0,1,1.38,1.34l0,0,.15-.12a3.19,3.19,0,0,1,.42-.3,5.37,5.37,0,0,1,3.51-.59,1,1,0,0,1,.7.47.92.92,0,0,1,.08.5l-.12,1.88c0,.7-.09,1.4-.17,2.09a22.53,22.53,0,0,1-1.64,6.25,8,8,0,0,1-3,4Zm-3.45-15.27a.44.44,0,0,0-.16.17,17.53,17.53,0,0,0-.74,2,20.12,20.12,0,0,0-.82,4.44,9.69,9.69,0,0,0,1.64,6.85,4.57,4.57,0,0,0,1.36,1.19,1.36,1.36,0,0,0,.46,0,3.22,3.22,0,0,0,1.31-.43,7,7,0,0,0,2.6-3.46,21.18,21.18,0,0,0,1.57-6c.07-.68.12-1.36.16-2l.12-1.73a4.14,4.14,0,0,0-2.68.48,2.92,2.92,0,0,0-.28.21,1.32,1.32,0,0,1-1,.39,1,1,0,0,1-.69-.42,4.09,4.09,0,0,0-1.15-1.16,6.79,6.79,0,0,0-1.47-.61A.42.42,0,0,0,384.64,402.17Z"/><path class="cls-2" d="M406.72,446.89c-27-7.18-21.76-29.54-21.7-29.76l1,.26c-.21.87-5,21.55,20.93,28.46Z"/><path class="cls-3" d="M272.23,387.57a3.09,3.09,0,0,1-1.2-2.07c0-.12,0-.23,0-.36a3.16,3.16,0,0,1,.14-.72l.1-.32.65-.11.4.52-.14.3c0,.05,0,.09,0,.13a1.59,1.59,0,0,0,0,.69,2.09,2.09,0,0,0,1,1.11c1.42.81,3.43.76,4.14-.09a.66.66,0,0,1,.93-.09h0a.67.67,0,0,1,.13.93c-1.12,1.51-3.6,1.49-5.34.6A5,5,0,0,1,272.23,387.57Zm5.92-.24h0Z"/><path class="cls-3" d="M272.25,384.07l-.2-.24c-1-1-1.05-2.61,0-4.1s3.33-2.83,5.05-2a.68.68,0,0,1,.32.9.66.66,0,0,1-.87.36c-1-.42-2.87.51-3.75,1.91a1.6,1.6,0,0,0,.05,2.19l.23.22-.15.64Zm4.69-6.1h0Z"/><path class="cls-3" d="M262,388.52a4.82,4.82,0,0,1-1.61-4.4,7,7,0,0,1,2.79-4.37,2.66,2.66,0,0,1,1.38-.62,2.14,2.14,0,0,1,1.94,1.19,4.39,4.39,0,0,1,.42,2,16.84,16.84,0,0,1-.41,4.19l-1.06-.24a15.14,15.14,0,0,0,.39-3.91,3.45,3.45,0,0,0-.29-1.49,1.06,1.06,0,0,0-.91-.62,1.71,1.71,0,0,0-.81.4,6,6,0,0,0-2.37,3.67,3.63,3.63,0,0,0,1.6,3.66l-.53.94A2.75,2.75,0,0,1,262,388.52Z"/><path class="cls-3" d="M263.53,388c-.08-.21-2-5.21.64-8.66l.86.65c-2.23,3-.51,7.58-.5,7.63Z"/><path class="cls-3" d="M254.63,396.14a4.3,4.3,0,0,1-1.42-2.18,5.89,5.89,0,0,1,.66-4.36,2.22,2.22,0,0,1,.88-1,1.84,1.84,0,0,1,2,.25,3.76,3.76,0,0,1,1,1.4,14.35,14.35,0,0,1,1.12,3.37l-1.06.21a12.65,12.65,0,0,0-1-3.11,3,3,0,0,0-.7-1,.79.79,0,0,0-.81-.16,1.31,1.31,0,0,0-.45.55,4.91,4.91,0,0,0-.56,3.56,3,3,0,0,0,2.39,2.19l-.1,1.08A3.66,3.66,0,0,1,254.63,396.14Z"/><path class="cls-3" d="M257,395.92c-.14-.14-3.31-3.37-2.48-6.95l1.05.25c-.69,3,2.16,5.9,2.19,5.93Z"/><path class="cls-3" d="M256.11,399.66a3.86,3.86,0,0,1-.82-.89l.91-.59a3.64,3.64,0,0,0,3.76,1.34,5.9,5.9,0,0,0,3.5-2.63,1.62,1.62,0,0,0,.34-.83,1.07,1.07,0,0,0-.68-.86,3.38,3.38,0,0,0-1.5-.19,15.46,15.46,0,0,0-3.88.66l-.32-1a16.31,16.31,0,0,1,4.15-.69,4.27,4.27,0,0,1,2,.28,2.07,2.07,0,0,1,1.32,1.84,2.61,2.61,0,0,1-.52,1.43,6.94,6.94,0,0,1-4.17,3.08A4.86,4.86,0,0,1,256.11,399.66Z"/><path class="cls-3" d="M256.09,397.72l.32-1s4.77,1.41,7.58-1l.7.81C261.43,399.3,256.31,397.78,256.09,397.72Z"/><path class="cls-3" d="M262.94,391.39a3.41,3.41,0,0,1-1.24-2.05l1.06-.18a2.61,2.61,0,0,0,2.09,2,4.32,4.32,0,0,0,3.12-.73,1.29,1.29,0,0,0,.45-.41.68.68,0,0,0-.19-.66,2.54,2.54,0,0,0-.93-.56,11.81,11.81,0,0,0-2.85-.72l.13-1.07a12.47,12.47,0,0,1,3.11.79,3.6,3.6,0,0,1,1.34.83,1.7,1.7,0,0,1,.37,1.82,2.13,2.13,0,0,1-.84.89,5.35,5.35,0,0,1-3.92.88A4,4,0,0,1,262.94,391.39Z"/><path class="cls-3" d="M262.71,389l-.09-.08.7-.82s2.82,2.38,5.43,1.57l.32,1C266.14,391.62,263.26,389.45,262.71,389Z"/><path class="cls-3" d="M272.93,383.31a6.63,6.63,0,0,1,3.49-1.86,7.5,7.5,0,0,1,3.6.14c.36.1.72.23,1.07.36a7.62,7.62,0,0,0,1.72.47,3.87,3.87,0,0,0,3.77-2l.89.6a4.92,4.92,0,0,1-4.77,2.51,7.71,7.71,0,0,1-2-.53c-.33-.12-.65-.24-1-.33a6.32,6.32,0,0,0-3.07-.12,5.33,5.33,0,0,0-2.89,1.47Z"/><path class="cls-3" d="M274.27,386.11a4.16,4.16,0,0,1-1.07-1.28,2.14,2.14,0,0,1-.29-.82,5.12,5.12,0,0,1,.75-2.45,10.85,10.85,0,0,1,6.26-4.56,21.49,21.49,0,0,1,4.63-1,18,18,0,0,1,2.31-.09,1.45,1.45,0,0,1,1.4,1.29,8.28,8.28,0,0,1,0,1.86h0a4.84,4.84,0,0,1-.71,1.79l0,.05.16.1a4,4,0,0,1,.44.27,5.34,5.34,0,0,1,1.89,3,1,1,0,0,1-.17.83.89.89,0,0,1-.43.26l-1.78.61c-.66.22-1.33.45-2,.64a22.36,22.36,0,0,1-6.4.87,7.94,7.94,0,0,1-4.82-1.29Zm12.78-9a.35.35,0,0,0-.22-.08,15.53,15.53,0,0,0-2.15.09,19.55,19.55,0,0,0-4.42.94,9.71,9.71,0,0,0-5.7,4.14,4.62,4.62,0,0,0-.58,1.71,1.26,1.26,0,0,0,.17.43,3,3,0,0,0,.9,1,7,7,0,0,0,4.19,1.08,21.26,21.26,0,0,0,6.09-.83c.66-.19,1.31-.41,1.95-.63l1.64-.55a4.13,4.13,0,0,0-1.47-2.29,1.75,1.75,0,0,0-.29-.18,1.33,1.33,0,0,1-.73-.74,1.06,1.06,0,0,1,.12-.8,4,4,0,0,0,.63-1.5,6.44,6.44,0,0,0,0-1.59A.36.36,0,0,0,287.05,377.08Z"/><path class="cls-3" d="M254.18,414.59c-3.69-27.68,19-31.41,19.2-31.44l.16,1.07c-.9.13-21.83,3.62-18.29,30.22Z"/><path class="cls-2" d="M416.56,426.35c-3.53,5.32-10.24,7.18-10.24,7.18s-1-6.76,2.55-12.08,10.24-7.18,10.24-7.18S420.09,421,416.56,426.35Z"/><path class="cls-3" d="M339.84,450.5c5.32,3.53,7.18,10.24,7.18,10.24s-6.76,1-12.07-2.55S327.76,448,327.76,448,334.52,447,339.84,450.5Z"/><path class="cls-3" d="M780.54,491.54a28,28,0,0,0-.73-4.88,20.47,20.47,0,0,0-1.95-4.66l-2.3,1.42a17.54,17.54,0,0,1,2.13,3.91,24.86,24.86,0,0,1,1.11,4.42Z"/><path class="cls-3" d="M789.18,491.2a50.18,50.18,0,0,1,2.11-9.59l-2.6-.71a51.52,51.52,0,0,0-1.25,10.17Z"/><path class="cls-3" d="M797.28,494.57a70.1,70.1,0,0,0,4.63-8.53l-2.5-1a70.71,70.71,0,0,1-3.65,8.67Z"/><path class="cls-3" d="M410.47,526.46a28,28,0,0,0-.73-4.88,20.47,20.47,0,0,0-1.95-4.66l-2.3,1.42a17.54,17.54,0,0,1,2.13,3.91,24.86,24.86,0,0,1,1.11,4.42Z"/><path class="cls-3" d="M419.11,526.12a50.18,50.18,0,0,1,2.11-9.59l-2.6-.71A51.52,51.52,0,0,0,417.37,526Z"/><path class="cls-3" d="M427.21,529.49a70.1,70.1,0,0,0,4.63-8.53l-2.5-1a71.37,71.37,0,0,1-3.65,8.67Z"/><path class="cls-2" d="M617.45,533.3a26.06,26.06,0,0,1,.73-4.88,20,20,0,0,1,1.94-4.66l2.3,1.42a17.65,17.65,0,0,0-2.12,3.9,25.64,25.64,0,0,0-1.12,4.43Z"/><path class="cls-2" d="M608.81,533a50.2,50.2,0,0,0-2.12-9.59l2.61-.72a52.47,52.47,0,0,1,1.25,10.18Z"/><path class="cls-2" d="M600.71,536.33a71.56,71.56,0,0,1-4.64-8.53l2.51-1a69,69,0,0,0,3.65,8.67Z"/><path class="cls-2" d="M487.41,593.11a28.07,28.07,0,0,0-.73-4.89,19.71,19.71,0,0,0-1.95-4.65l-2.3,1.42a17.29,17.29,0,0,1,2.13,3.9,24.75,24.75,0,0,1,1.11,4.43Z"/><path class="cls-2" d="M496.05,592.77a50,50,0,0,1,2.11-9.59l-2.6-.72a51.71,51.71,0,0,0-1.25,10.18Z"/><path class="cls-2" d="M504.15,596.14a71.62,71.62,0,0,0,4.63-8.53l-2.5-1a72,72,0,0,1-3.65,8.67Z"/><path class="cls-3" d="M1112.91,488.66a26.36,26.36,0,0,0-1.49-4.7,20.17,20.17,0,0,0-2.66-4.29l-2,1.76a17.7,17.7,0,0,1,2.71,3.52,24.82,24.82,0,0,1,1.8,4.2Z"/><path class="cls-3" d="M1121.39,487a50.08,50.08,0,0,1,.57-9.8l-2.68-.29a52.23,52.23,0,0,0,.37,10.24Z"/><path class="cls-3" d="M1129.92,489a70.9,70.9,0,0,0,3.23-9.15l-2.63-.6a70.78,70.78,0,0,1-2.23,9.14Z"/></svg>