<svg xmlns="http://www.w3.org/2000/svg" viewBox="0 0 492.35 336.1"><title>Asset 11</title><g id="Layer_2" data-name="Layer 2"><g id="Layer_1-2" data-name="Layer 1"><path d="M249.38,146.53l18.19,30s20.33,102.17-27.45,111.69c-13.56,2.7-76.68-32.44-76.68-32.44s-10.84-7.25-14-18.25l-10-24.58-.64-14.47,9.95-8.85,10.9-7.38,18.12-16.61Z" style="fill:#fff"/><path d="M249.38,146.53l18.19,30s20.33,102.17-27.45,111.69c-13.56,2.7-76.68-32.44-76.68-32.44s-10.84-7.25-14-18.25l-10-24.58-.64-14.47,9.95-8.85,10.9-7.38,18.12-16.61Z" style="fill:#fff"/><polygon points="184.26 264.9 172.98 306.96 152.46 296.7 158.68 242.19 184.26 264.9" style="fill:#fff"/><path d="M191,188.71a18.73,18.73,0,0,1,3.13-2.12c1.1-.58,2.18-1.08,3.32-1.55a27.14,27.14,0,0,1,7.12-1.84,25.85,25.85,0,0,1,7.35.21,32.75,32.75,0,0,1,3.56.8c.58.19,1.14.33,1.77.57s1.14.47,1.69.73c1.09.51,2.14,1,3.19,1.6l1.58.87c.52.33,1.06.66,1.56,1a20.12,20.12,0,0,1,5,5.43c2.65,4.12,4.12,8.7,5.5,13.19l-1.68.53c-1.44-4.43-3-8.86-5.49-12.62a18.35,18.35,0,0,0-4.56-4.81c-.45-.31-.91-.59-1.39-.88s-1-.54-1.52-.8c-1-.53-2.07-1-3.11-1.5-.52-.24-1.05-.46-1.56-.64s-1.05-.32-1.59-.48a31.37,31.37,0,0,0-3.31-.69,23.37,23.37,0,0,0-6.68-.08,24.73,24.73,0,0,0-6.43,1.79c-1,.44-2.06.94-3,1.47a17.21,17.21,0,0,0-2.67,1.86Z" style="fill:#2f4962"/><path d="M261,191.16a12.57,12.57,0,0,0-10.54.15,11.81,11.81,0,0,0-4.23,3.34,17.13,17.13,0,0,0-2.58,5,34.75,34.75,0,0,0,.56,22.88,36.56,36.56,0,0,0,5.7,10.18c.59.77,1.28,1.46,1.92,2.2s1.39,1.37,2.11,2,1.48,1.23,2.29,1.84a8.84,8.84,0,0,1,2.39,2.41,4,4,0,0,1,.16,3.82,6.6,6.6,0,0,1-2.42,2.54,13.12,13.12,0,0,1-2.92,1.38c-1,.35-2,.67-3,.94a37.25,37.25,0,0,1-12.25,1.25l.11-1.76A35.45,35.45,0,0,0,250,248c.94-.26,1.87-.58,2.79-.92a11.52,11.52,0,0,0,2.52-1.21,4.68,4.68,0,0,0,1.7-1.77,2,2,0,0,0-.1-1.95,7.08,7.08,0,0,0-1.88-1.8c-.81-.59-1.62-1.28-2.43-1.91s-1.53-1.41-2.27-2.13-1.42-1.51-2.06-2.33a38.56,38.56,0,0,1-6.15-10.73,37.1,37.1,0,0,1-.81-24.46,19.61,19.61,0,0,1,2.92-5.72,14.55,14.55,0,0,1,5.11-4.14,15.22,15.22,0,0,1,12.83-.26Z" style="fill:#2f4962"/><path d="M227.23,217.48a38.15,38.15,0,0,0-6.18-5.7,35.62,35.62,0,0,0-7.25-4.16,25.77,25.77,0,0,0-8-2l-2-.12-2,.14c-.33,0-.67,0-1,.07l-1,.2-2,.38-.94-4,2.33-.36,1.17-.18c.39,0,.79,0,1.18,0l2.36-.06,2.35.23a29.21,29.21,0,0,1,8.93,2.57,38.79,38.79,0,0,1,7.76,4.86,40.63,40.63,0,0,1,6.45,6.46Z" style="fill:#2f4962"/><path d="M265.77,206.71l-2.31.6c-.74.26-1.49.51-2.23.79a18.86,18.86,0,0,0-4,2.23,13.1,13.1,0,0,0-3.13,3.22,9.87,9.87,0,0,0-1,2,7.84,7.84,0,0,0-.33,1,6.4,6.4,0,0,0-.18.95l-2.72,0a8.57,8.57,0,0,1,.18-1.54,12.73,12.73,0,0,1,.37-1.38,12.51,12.51,0,0,1,1.19-2.57,15.67,15.67,0,0,1,3.67-4.18,22.1,22.1,0,0,1,4.64-2.87c.82-.36,1.65-.68,2.49-1l2.54-.8Z" style="fill:#2f4962"/><circle cx="200.06" cy="240.99" r="15.72" transform="translate(-50.09 52.5) rotate(-13.3)" style="fill:#e5af34"/><polygon points="164.2 260.38 160.02 285.46 158.28 285.21 161.51 259.99 164.2 260.38" style="fill:#2f4962"/><path d="M172,93.23a11.07,11.07,0,0,1,11.38-4.55A84.4,84.4,0,0,1,238.77,115,42,42,0,0,0,251.4,49.73a9.43,9.43,0,1,1-18.58-2.85c.82-3.39,3.45-6.05,6.32-8,12.17-8.4,29.56-6.49,41.58,2.12s19.19,22.72,22.39,37.16c2.74,12.38,2.86,25.5-.9,37.61s-11.58,23.15-22.44,29.7c-5.69,3.43-12,5.58-18.38,7.55a428.76,428.76,0,0,1-104.8,18.77c-3.47.19-8.34.88-11.64-.47-4-1.67-2.4-4.16-1.69-8.24a237.06,237.06,0,0,1,5.7-25.23C153.65,121.66,160.75,105.94,172,93.23Z" style="fill:#5da6a2"/><path d="M236.17,131.3a30.8,30.8,0,0,0-6.43-9.35A93.87,93.87,0,0,0,182.19,94.4a66.09,66.09,0,0,0-9.6,23" style="fill:none;stroke:#fff;stroke-linecap:round;stroke-linejoin:round;stroke-width:1.97708112091809px"/><path d="M181.81,95A69.5,69.5,0,0,1,209,141.9" style="fill:none;stroke:#fff;stroke-linecap:round;stroke-linejoin:round;stroke-width:1.97708112091809px"/><path d="M150,84.44c-10.77-12.92-9.93-33.66,1.09-46.37s30.57-16.67,46.12-10.26c-4.76.62-6.15,7.91-2.68,11.22s9.33,2.79,13.31.1a16.32,16.32,0,0,0,5.83-19,23.45,23.45,0,0,0-7.17-9C195.29,1.89,180.07-.12,165.6,0c-13.27.11-21.54,2.27-35.55,8.87-10.74,5.06-21.82,15.59-29.28,31.35C95.66,51,94.08,65.63,95,77.56c1.09,15,8.7,35.06,12,41.38,7.42,14.13,20.41,24.35,33,34.14a47.66,47.66,0,0,1-44.29,4.3c-.49,4.48,4.06,7.75,8.17,9.6a79.13,79.13,0,0,0,19.56,5.89A31.77,31.77,0,0,1,129,174a34.5,34.5,0,0,1,5.61,2.87,67.44,67.44,0,0,0,33.57,8.85c6.8,0,2.45-6.52,7.61-10.94,4.62-4,18.55-4.71,19.64-10.69a48.66,48.66,0,0,0-3-27.42c-2.44-5.79-6-11-8.74-16.63s-2.83-13-6.12-18.17c-2.55-4-6.75-3.78-10.82-5.43A43.59,43.59,0,0,1,150,84.44Z" style="fill:#5da6a2"/><path d="M287.24,113.49a69.78,69.78,0,0,0,3.38-23.08A72.86,72.86,0,0,0,288,75.18c-3.37-11.79-9-23.25-21.16-28.15,3.08,1.77,5,5,6.64,8.14,4.74,9,8.7,18.83,8.06,29s-6,19.62-13.19,26.77-16.28,12.19-25.58,16.31l18.36,5.68c4.89,1.52,10,2.44,14.82,0C281.13,130.29,283.93,123,287.24,113.49Z" style="fill:#fff"/><path d="M266.39,134.55c.55-.62,1.12-1.23,1.68-1.83l1.62-1.89,1.56-1.92,1.47-2a71.22,71.22,0,0,0,5.2-8.34,70.25,70.25,0,0,0,6.95-18.3,59.76,59.76,0,0,0,.86-19.61A53.23,53.23,0,0,0,280,61.82a.12.12,0,0,1,0-.14.11.11,0,0,1,.14,0,54.25,54.25,0,0,1,6.55,18.82,61.13,61.13,0,0,1-.29,20.06,58.17,58.17,0,0,1-6.77,19,54.76,54.76,0,0,1-5.85,8.23l-1.69,1.87-1.77,1.79-1.87,1.68c-.64.53-1.29,1.05-2,1.57a.11.11,0,0,1-.14,0A.11.11,0,0,1,266.39,134.55Z" style="fill:#be6e38"/><path d="M134.91,133.59c-7.53-7-14.09-15.24-17.89-24.79A72.42,72.42,0,0,1,113.09,94c-2.65-15.84-1.8-33,6.46-46.73A76.59,76.59,0,0,1,129,35.11c6.19-6.74,13.26-13.25,22.07-15.69,5.86-1.63,12.06-1.34,18.13-1A43.94,43.94,0,0,0,140,32.88,50.51,50.51,0,0,0,127.45,63.2,73.1,73.1,0,0,0,128,77a59,59,0,0,0,2.75,12.49c5.26,14.84,18.51,25.27,31.8,33.72q11.38,7.24,23.43,13.4a5,5,0,0,1,2.65,2.3,4.8,4.8,0,0,1,.16,2.1c-.44,6.08-1.16,12.78-5.65,16.9a15.51,15.51,0,0,1-11.6,3.58,32.92,32.92,0,0,1-11.86-3.65c-3.57-1.73-1.63-2.72-2.3-5.42s-3.39-3.9-5.9-5.68A160.18,160.18,0,0,1,134.91,133.59Z" style="fill:#fff"/><path d="M132,36.9a65.34,65.34,0,0,0-13.71,34.81,63,63,0,0,0,1.1,18.79,64.86,64.86,0,0,0,6.56,17.6A64.84,64.84,0,0,0,131,116c.9,1.29,1.95,2.46,2.93,3.67s2.08,2.35,3.22,3.42a60.73,60.73,0,0,0,7.06,6.16,68.51,68.51,0,0,0,7.83,5.19c5.42,3.21,11.16,5.95,16.84,8.77q4.26,2.1,8.59,4.08c2.88,1.34,5.79,2.59,8.72,3.84l-.07.19c-3-1-6-2.07-9-3.2s-5.9-2.39-8.82-3.66-5.81-2.61-8.69-4-5.75-2.78-8.55-4.34a64.92,64.92,0,0,1-15.31-11.69c-1.14-1.14-2.17-2.39-3.24-3.59s-2-2.5-2.94-3.83a65.77,65.77,0,0,1-5.07-8.2,70.51,70.51,0,0,1-3.88-8.81,69.24,69.24,0,0,1-2.55-9.28,64.37,64.37,0,0,1-.82-19.14,65.9,65.9,0,0,1,14.54-34.83Z" style="fill:#eacd38"/><path d="M221,171.84c11.69.79,23.08,4,34.2,7.73,6.62,2.2,14,4.55,20.35,1.66,8.56-3.91,11.41-15.69,20.09-19.35,2.43-1,5.19-1.33,7.37-2.83s3.37-5,1.39-6.73a5.69,5.69,0,0,0-4-1,38,38,0,0,0-18.75,5.72,24.57,24.57,0,0,0,6.71-14.33c.31-2.82,0-5.89-1.76-8.08s-5.49-2.93-7.46-.91c.8-2.9,1.61-5.9,1.21-8.89s-2.33-6-5.26-6.67a9.32,9.32,0,0,0-4.7.4A26.29,26.29,0,0,0,257.63,127c1.54-2.7-.95-6.29-4-6.93s-6.12.75-8.77,2.36a47.89,47.89,0,0,0-13,11.74,26.09,26.09,0,0,0-10.24-18.59,3.34,3.34,0,0,0-1.71-.8c-1.16-.07-2.06,1-2.63,2-2.09,3.71-2.26,8.21-4,12.07a15.88,15.88,0,0,1-11.34,8.79c3.29-5,1.32-12.35-3.55-15.8s-11.76-3.23-17-.33c-3,1.69-5.76,4.6-5.7,8,.05,3.21,2.62,6,5.64,7.1a16.35,16.35,0,0,0,9.5,0,45.94,45.94,0,0,0-21.27,15.93,36.42,36.42,0,0,0-17.19-10.21c-1.41-.36-3.06-.6-4.19.32-1.3,1.06-1.21,3-1,4.7a157.37,157.37,0,0,0,5.29,23.88,47.84,47.84,0,0,0-32.2-2.71c-.12,5.19,3.5,9.65,7.11,13.38A146.23,146.23,0,0,0,141,194.31a62.38,62.38,0,0,0-29.23,23c20.77,12,49.46,8.1,66.26-9a8,8,0,0,0,2.38-3.61c.47-1.95-.43-3.94-1.3-5.74-2.07-4.26-6.68-10.34-4.12-15.21,2.32-4.41,9.48-6.23,13.82-7.69C199.75,172.38,209.82,172.75,221,171.84Z" style="fill:#365263"/><path d="M266.66,175.31a99.2,99.2,0,0,0-22.93-14,73.6,73.6,0,0,0-26.06-5.92,71.9,71.9,0,0,0-26.37,4A70.77,70.77,0,0,0,179.14,165c-1.95,1.1-3.7,2.4-5.58,3.71L168,172.57a1,1,0,0,1-1.37-.24,1,1,0,0,1,.24-1.38h0l5.59-3.85c1.83-1.26,3.74-2.65,5.75-3.76a73.94,73.94,0,0,1,39.55-9.6A75.11,75.11,0,0,1,244.3,160a100.32,100.32,0,0,1,23.17,14.36.64.64,0,0,1-.8,1Z" style="fill:#fff"/><path d="M201.85,155a21.38,21.38,0,0,0,8.58-4.65,26,26,0,0,0,9.45-16.77,5.34,5.34,0,0,0-.06-2.16,2.13,2.13,0,0,0-1.06-1.35,1.13,1.13,0,0,0-.67-.13.91.91,0,0,0-.51.3,1.1,1.1,0,0,0-.22,1.2,1,1,0,0,1-1.64,1.13l-.05-.09,0-.06a2.82,2.82,0,0,1-.29-1.89,3.21,3.21,0,0,1,.81-1.61,2.77,2.77,0,0,1,1.69-.87,3.06,3.06,0,0,1,1.78.34,4,4,0,0,1,2,2.55,7.08,7.08,0,0,1,.07,2.89,28.6,28.6,0,0,1-3.48,9.83,28.16,28.16,0,0,1-6.84,7.81,22.66,22.66,0,0,1-9.23,4.78.65.65,0,0,1-.76-.49.65.65,0,0,1,.48-.76Z" style="fill:#fff"/><path d="M218.12,153.89a38.65,38.65,0,0,0,11.66-2.78,30.76,30.76,0,0,0,9.94-6.51,23.83,23.83,0,0,0,3.7-4.62,10.8,10.8,0,0,0,2-5.24,4.46,4.46,0,0,0-.58-2.46,3.81,3.81,0,0,0-1.77-1.63,2.09,2.09,0,0,0-2,.1.65.65,0,0,0-.21.24.29.29,0,0,0,0,.17.49.49,0,0,0,.08.19s0,0,0,0a1,1,0,0,1-.13,2,2,2,0,0,1-1.34-.71,2.34,2.34,0,0,1-.52-1.2,2.22,2.22,0,0,1,.24-1.31,2.58,2.58,0,0,1,.78-.91,4,4,0,0,1,3.88-.28,6.05,6.05,0,0,1,3.41,5.9,12.54,12.54,0,0,1-2.31,6.09,26.06,26.06,0,0,1-4,4.87,32.12,32.12,0,0,1-10.53,6.68,39.26,39.26,0,0,1-12.13,2.71.64.64,0,1,1-.09-1.27Z" style="fill:#fff"/><path d="M236.22,157.07a15.74,15.74,0,0,0,6.83-.07,28,28,0,0,0,6.5-2.55c2.08-1.11,4.08-2.39,6.07-3.72a60,60,0,0,0,5.73-4.17,27.5,27.5,0,0,0,4.75-5.08,17.56,17.56,0,0,0,1.69-3,12.7,12.7,0,0,0,1-3.19,5.62,5.62,0,0,0-.26-3,3.37,3.37,0,0,0-2-1.86,2.16,2.16,0,0,0-1.23,0,1.57,1.57,0,0,0-.85.66,2,2,0,0,0-.32,1.13,1,1,0,0,0,.37.8l0,0a1,1,0,0,1,.14,1.39,1,1,0,0,1-1.35.17,3,3,0,0,1-1.15-2.33,3.91,3.91,0,0,1,.68-2.26,3.45,3.45,0,0,1,2-1.44,4.06,4.06,0,0,1,2.32.11,5.21,5.21,0,0,1,3.08,2.95,7.47,7.47,0,0,1,.33,4c-1,5.11-4.45,9.12-8.19,12.21a60.21,60.21,0,0,1-5.93,4.21c-2,1.31-4.07,2.59-6.23,3.72a29.1,29.1,0,0,1-6.88,2.59,17.24,17.24,0,0,1-7.43,0,.64.64,0,0,1,.29-1.25Z" style="fill:#fff"/><path d="M249,162.24a21.06,21.06,0,0,0,8.15.44c1.38-.16,2.75-.41,4.13-.67a17.71,17.71,0,0,0,3.89-1.12,8.26,8.26,0,0,0,4.64-5.71,3.91,3.91,0,0,0,0-1.68c-.13-.46-.48-.86-.68-.88a.49.49,0,0,0-.38,0,1.2,1.2,0,0,0-.45.36.42.42,0,0,0-.13.32.69.69,0,0,0,.19.37v0a1,1,0,0,1-1.53,1.25h0a2.61,2.61,0,0,1-.63-1.55,2.44,2.44,0,0,1,.56-1.63,3.33,3.33,0,0,1,1.21-.92,2.49,2.49,0,0,1,1.69-.12,2.59,2.59,0,0,1,1.32.94,3.56,3.56,0,0,1,.63,1.28,5.56,5.56,0,0,1,0,2.53,10,10,0,0,1-5.78,6.88,18.89,18.89,0,0,1-4.28,1.15c-1.4.23-2.82.46-4.25.59a22.44,22.44,0,0,1-8.66-.67.64.64,0,0,1-.44-.79A.65.65,0,0,1,249,162.24Z" style="fill:#fff"/><path d="M261.11,169.73a33.82,33.82,0,0,0,8.74-.8c1.44-.28,2.75-.73,3.11-1.68a.87.87,0,0,0-.08-1,.72.72,0,0,0-.44-.16c-.15,0-.16,0-.16,0l-.16.13a1,1,0,0,1-1.39-1.36,2.15,2.15,0,0,1,1.84-.75,2.6,2.6,0,0,1,1.59.7,2.68,2.68,0,0,1,.43,3.16,3.93,3.93,0,0,1-2.07,1.9,10.13,10.13,0,0,1-2.35.62A35,35,0,0,1,261,171a.64.64,0,0,1,.08-1.27Z" style="fill:#fff"/><path d="M184.1,160.62a25.77,25.77,0,0,0,5.83-3.57A11.57,11.57,0,0,0,194,152a4.66,4.66,0,0,0,.07-2.95,3.77,3.77,0,0,0-1.66-2.22,2.42,2.42,0,0,0-1.2-.33.92.92,0,0,0-.42.11c.07-.05,0,0-.06.08a1.53,1.53,0,0,0-.14.21.9.9,0,0,0-.11.37.28.28,0,0,0,.09.19,2.22,2.22,0,0,0,1,.5h0a1,1,0,0,1,.72,1.2,1,1,0,0,1-1.2.71h-.06a4.11,4.11,0,0,1-2-1.17,2.27,2.27,0,0,1-.51-1.43,2.65,2.65,0,0,1,.38-1.3,2.87,2.87,0,0,1,.36-.5,1.84,1.84,0,0,1,.59-.51,2.77,2.77,0,0,1,1.28-.31,4.24,4.24,0,0,1,2.14.61,6.09,6.09,0,0,1,2.24,7.28,13.22,13.22,0,0,1-4.72,5.68,27.43,27.43,0,0,1-6.22,3.61.64.64,0,0,1-.51-1.18Z" style="fill:#fff"/><path d="M206.59,140.71a22.32,22.32,0,0,1-5.08,9.36" style="fill:none;stroke:#fff;stroke-linecap:round;stroke-linejoin:round;stroke-width:1.97708112091809px"/><path d="M230.48,139.67a22.4,22.4,0,0,1-7.15,9.5" style="fill:none;stroke:#fff;stroke-linecap:round;stroke-linejoin:round;stroke-width:1.97708112091809px"/><path d="M251.22,144a17.82,17.82,0,0,1-9.68,8.35" style="fill:none;stroke:#fff;stroke-linecap:round;stroke-linejoin:round;stroke-width:1.97708112091809px"/><path d="M253.28,159.16a13.09,13.09,0,0,0,7.8-3.51" style="fill:none;stroke:#fff;stroke-linecap:round;stroke-linejoin:round;stroke-width:1.97708112091809px"/><path d="M263.57,167.05a19.94,19.94,0,0,0,3.23-.85" style="fill:none;stroke:#fff;stroke-linecap:round;stroke-linejoin:round;stroke-width:1.97708112091809px"/><path d="M186.71,151.67a5.08,5.08,0,0,1-1.17,3.31,15.17,15.17,0,0,1-2.59,2.47" style="fill:none;stroke:#fff;stroke-linecap:round;stroke-linejoin:round;stroke-width:1.54177711222039px"/><circle cx="293.17" cy="119.9" r="3.06" style="fill:none;stroke:#fff;stroke-miterlimit:10;stroke-width:0.988540560459044px"/><circle cx="297.48" cy="107.64" r="3.06" style="fill:none;stroke:#fff;stroke-miterlimit:10;stroke-width:0.988540560459044px"/><circle cx="298.94" cy="94.25" r="3.06" style="fill:none;stroke:#fff;stroke-miterlimit:10;stroke-width:0.988540560459044px"/><circle cx="298.36" cy="81.81" r="2.24" style="fill:none;stroke:#fff;stroke-miterlimit:10;stroke-width:0.988540560459044px"/><circle cx="167.49" cy="112.86" r="3.98" style="fill:none;stroke:#fff;stroke-miterlimit:10;stroke-width:0.988540560459044px"/><circle cx="154.16" cy="104.87" r="3.12" style="fill:none;stroke:#fff;stroke-miterlimit:10;stroke-width:0.988540560459044px"/><circle cx="144.15" cy="95.45" r="2.63" style="fill:none;stroke:#fff;stroke-miterlimit:10;stroke-width:0.988540560459044px"/><circle cx="138.56" cy="83.81" r="2.07" style="fill:none;stroke:#fff;stroke-miterlimit:10;stroke-width:0.988540560459044px"/><circle cx="136.06" cy="72.16" r="1.77" style="fill:none;stroke:#fff;stroke-miterlimit:10;stroke-width:0.988540560459044px"/><circle cx="151.77" cy="28.59" r="1.36" style="fill:none;stroke:#fff;stroke-miterlimit:10;stroke-width:0.988540560459044px"/><path d="M178.79,245c-4.88,8.92-32.86,25-63.26,11.62s-12.52-41.09,0-34.42c8.46,4.52,9,10.59,5.24,14.85,0,0-4.82,7.62-12.46,1.54,0,0,3.12,6.1,15.44,8.52s23,.06,28.95-6.09c0,0-14.78-5.72-15.3-17.09s-.32-17-10-19.73c0,0,12-3.36,16.74,1.59,0,0,17.93-15.5-18.92-28.33,0,0,43.39-4.56,56.37,27.65C181.57,205.13,189.4,225.63,178.79,245Z" style="fill:#e5af34"/><path d="M171.57,213h0a8.8,8.8,0,0,0-4.79-2.77,20.59,20.59,0,0,0-5.31-.35,7.9,7.9,0,0,0-2.52.33c-2.33.84-3.35,3.7-3.52,6.31a17,17,0,0,0,2.24,9.47h0l.12.21a15.2,15.2,0,0,0,2.24,2.86l.31.29a20.19,20.19,0,0,0,9.33,5.58,3.23,3.23,0,0,0,4-2.63C174.45,227.12,175.4,216.93,171.57,213Z" style="fill:#fff"/><path d="M167.14,229.74a17.5,17.5,0,0,1-7.95-8.55,11.38,11.38,0,0,1-.9-3,4.56,4.56,0,0,1,.14-1.88,3.35,3.35,0,0,1,1.25-1.76,4.73,4.73,0,0,1,1.77-.73,7.22,7.22,0,0,1,1.67-.16,5.2,5.2,0,0,1,3.47,1.22l-1.84,2a2.55,2.55,0,0,0-1.71-.62,3.62,3.62,0,0,0-1.94.33.86.86,0,0,0-.37.46,2.23,2.23,0,0,0-.09.9,9,9,0,0,0,.63,2.38,15.52,15.52,0,0,0,6.71,7.85Z" style="fill:#2f4962"/><path d="M109.26,249.63a.09.09,0,0,1-.1-.1.1.1,0,0,1,.1-.1.11.11,0,0,1,.1.1A.1.1,0,0,1,109.26,249.63Z" style="fill:#fff"/><path d="M117.73,255.12a.38.38,0,1,1,.38-.37A.38.38,0,0,1,117.73,255.12Z" style="fill:#fff"/><path d="M127.1,258.71a.61.61,0,1,1,.61-.61A.61.61,0,0,1,127.1,258.71Z" style="fill:#fff"/><circle cx="136.97" cy="259.4" r="0.82" style="fill:#fff"/><circle cx="146.87" cy="258.46" r="1.03" style="fill:#fff"/><path d="M156.34,256.14a.74.74,0,1,1,.74-.74A.74.74,0,0,1,156.34,256.14Z" style="fill:#fff"/><path d="M87.49,239.45a54.54,54.54,0,0,0-12.44-9.61h0l-1.82-1.19a15.7,15.7,0,0,1-5.09-6,6.63,6.63,0,0,0-3.34-3.07,13.34,13.34,0,0,0-8-1,15.23,15.23,0,0,0-8,3.73c-2.48,2.28-3.44,4.73-2.81,7.91.32,1.58.69,3.14,1.09,4.7a8.3,8.3,0,0,0,6.2,6.33,7.52,7.52,0,0,0,8.86-3.69c2.16-4.12-1.94-8-5-7.85-2.08.09-3,1.7-1.91,3.47.24.39.56.74.83,1.1a1.05,1.05,0,0,1-.26,1.56,1.28,1.28,0,0,1-1.23-.16,7.51,7.51,0,0,1-2.36-4.95,2.38,2.38,0,0,1,1.92-2.63,13.72,13.72,0,0,1,3.89-.17,7.26,7.26,0,0,1,6.55,5.27,18.49,18.49,0,0,1,.29,2.83l-1.27,3.19a8.11,8.11,0,0,1-5.87,4.42l-3.71.1c-4.5-.72-8-3-9.25-7.46-.6-2.13-1.59-3-3.55-3.25-.12,0-.25-.07-.38-.1-3.92-.67-7.55-.49-10.84,2.32-2.62,2.23-5.58,4.09-9.54,3.44.22.33.32.5.44.65,2.91,3.61,6.77,5.24,11.31,5.58a4.75,4.75,0,0,1,2.23.81,38.48,38.48,0,0,0,11.15,5.44h0l.33.08.87.25h.12l1.22.31,0,0,.44.08,1.47.38.1-.1a22.05,22.05,0,0,0,11.5-1.06c4.12-1.62,8.13-3.53,12.1-5.48a19.94,19.94,0,0,1,13-2c1.57.32,3.15.6,4.73.9l.21-.24C90.28,242.73,88.94,241,87.49,239.45Z" style="fill:#fff"/><path d="M39.83,241.28c5.35,4.11,12.4,6.19,19,4.82,6.84-1.43,12.9-6.92,14.19-13.79" style="fill:none;stroke:#a0a952;stroke-miterlimit:10;stroke-width:1.07179838485052px"/><path d="M35.75,236.65a8.54,8.54,0,0,0,1.48,2.27" style="fill:none;stroke:#a0a952;stroke-miterlimit:10;stroke-width:1.07179838485052px"/><path d="M49.44,229.62a5.45,5.45,0,0,1,3.82-5.72,13.1,13.1,0,0,1,7.24,0,11.51,11.51,0,0,1,3.89,1.66,9.13,9.13,0,0,1,2.62,3,11.06,11.06,0,0,1,1.32,6.09s-.17,6.34-4.4,9.49" style="fill:none;stroke:#a0a952;stroke-miterlimit:10;stroke-width:1.07179838485052px"/><path d="M82.36,239.1c.85.3,1.68.64,2.47,1" style="fill:none;stroke:#a0a952;stroke-miterlimit:10;stroke-width:1.07179838485052px"/><path d="M67,242.15c5.14-3.63,8.68-4.65,12.47-3.87" style="fill:none;stroke:#a0a952;stroke-miterlimit:10;stroke-width:1.07179838485052px"/><path d="M89.45,295.58c-4.79-5.24-10.57-9.21-16.61-12.83h0l-2.42-1.59a21.15,21.15,0,0,1-6.8-8,8.79,8.79,0,0,0-4.45-4.11,17.85,17.85,0,0,0-10.67-1.34,20.4,20.4,0,0,0-10.72,5c-3.3,3-4.59,6.31-3.74,10.56.42,2.1.92,4.19,1.45,6.27A11.07,11.07,0,0,0,43.77,298a10.06,10.06,0,0,0,11.84-4.92c2.87-5.51-2.61-10.65-6.61-10.48-2.79.12-4,2.26-2.55,4.63.32.52.73,1,1.1,1.47a1.4,1.4,0,0,1-.35,2.08,1.72,1.72,0,0,1-1.64-.21,10,10,0,0,1-3.15-6.62A3.19,3.19,0,0,1,45,280.43a18.89,18.89,0,0,1,5.2-.22c4.4.46,7.82,3.25,8.74,7A25.14,25.14,0,0,1,59.3,291l-1.7,4.26a10.86,10.86,0,0,1-7.83,5.9l-5,.14c-6-1-10.66-4-12.35-10-.81-2.84-2.13-4-4.74-4.34-.18,0-.34-.1-.51-.13C22,286,17.13,286.23,12.75,290c-3.5,3-7.47,5.46-12.75,4.59.3.45.43.68.59.88,3.88,4.82,9,7,15.1,7.45a6.19,6.19,0,0,1,3,1.08,51.45,51.45,0,0,0,14.89,7.26h0l.43.11c.39.11.77.23,1.16.33h.17l1.63.42,0,0,.58.11,2,.51.13-.14a29.43,29.43,0,0,0,15.35-1.41c5.5-2.16,10.85-4.72,16.16-7.32a26.55,26.55,0,0,1,17.35-2.62c2.09.42,4.2.8,6.3,1.2l.29-.32C93.18,300,91.39,297.7,89.45,295.58Z" style="fill:#fff"/><path d="M25.81,298c7.15,5.48,16.56,8.26,25.37,6.42,9.14-1.91,17.23-9.23,18.95-18.41" style="fill:none;stroke:#a0a952;stroke-miterlimit:10;stroke-width:1.43105224463546px"/><path d="M20.36,291.84a12,12,0,0,0,2,3" style="fill:none;stroke:#a0a952;stroke-miterlimit:10;stroke-width:1.43105224463546px"/><path d="M38.65,282.45c-.56-3.39,2-6.63,5.1-7.64a17.43,17.43,0,0,1,9.66,0,15.48,15.48,0,0,1,5.19,2.22,12.2,12.2,0,0,1,3.5,4.06,14.72,14.72,0,0,1,1.77,8.14s-.23,8.46-5.89,12.66" style="fill:none;stroke:#a0a952;stroke-miterlimit:10;stroke-width:1.43105224463546px"/><path d="M82.6,295.11c1.14.4,2.24.85,3.29,1.33" style="fill:none;stroke:#a0a952;stroke-miterlimit:10;stroke-width:1.43105224463546px"/><path d="M62.07,299.18c6.87-4.84,11.6-6.21,16.65-5.16" style="fill:none;stroke:#a0a952;stroke-miterlimit:10;stroke-width:1.43105224463546px"/><path d="M386.1,44.57a49.07,49.07,0,0,0-11.18-8.63h0l-1.63-1.07a14.1,14.1,0,0,1-4.58-5.37,5.92,5.92,0,0,0-3-2.76,12.1,12.1,0,0,0-7.18-.91,13.69,13.69,0,0,0-7.21,3.36c-2.23,2.05-3.1,4.25-2.52,7.11.28,1.41.61,2.82,1,4.22a7.45,7.45,0,0,0,5.57,5.68,6.76,6.76,0,0,0,8-3.31c1.94-3.7-1.75-7.16-4.45-7.05-1.87.08-2.69,1.52-1.71,3.12a11.58,11.58,0,0,0,.74,1,.94.94,0,0,1-.24,1.4,1.17,1.17,0,0,1-1.1-.15,6.75,6.75,0,0,1-2.12-4.45,2.14,2.14,0,0,1,1.72-2.36,12.09,12.09,0,0,1,3.5-.15A6.53,6.53,0,0,1,365.55,39a17.1,17.1,0,0,1,.26,2.55l-1.15,2.87a7.25,7.25,0,0,1-5.27,4l-3.33.1c-4.05-.66-7.17-2.69-8.31-6.71-.55-1.91-1.43-2.7-3.19-2.92-.12,0-.23-.07-.35-.09-3.52-.6-6.79-.44-9.74,2.08-2.35,2-5,3.68-8.57,3.09.2.31.29.46.39.59a13.66,13.66,0,0,0,10.17,5,4.24,4.24,0,0,1,2,.72,34.53,34.53,0,0,0,10,4.89h0l.29.07c.26.08.51.16.78.22h.11l1.1.28,0,0,.39.07,1.33.34.08-.1a19.67,19.67,0,0,0,10.34-.95c3.7-1.45,7.3-3.17,10.87-4.92a17.88,17.88,0,0,1,11.68-1.76c1.41.28,2.83.54,4.24.8l.2-.21C388.61,47.52,387.4,46,386.1,44.57Z" style="fill:#e5af34"/><path d="M356.63,51.4A22.79,22.79,0,0,1,343,46.6l.59-.76a21,21,0,0,0,16.68,4.23c6.21-1.3,11.3-6.23,12.38-12l.95.18C372.42,44.39,367,49.64,360.44,51A18.59,18.59,0,0,1,356.63,51.4Z" style="fill:#fff"/><path d="M340.57,44.42a8.46,8.46,0,0,1-1.41-2.17l.88-.39a7.29,7.29,0,0,0,1.26,1.92Z" style="fill:#fff"/><path d="M365.21,49.23l-.58-.77c3.58-2.65,3.77-8.1,3.77-8.15a9.47,9.47,0,0,0-1.13-5.23,7.56,7.56,0,0,0-2.21-2.57,9.64,9.64,0,0,0-3.33-1.42,11.11,11.11,0,0,0-6.24,0,4.46,4.46,0,0,0-3.11,4.61l-.95.16a5.38,5.38,0,0,1,3.76-5.69,12.23,12.23,0,0,1,6.77,0,10.62,10.62,0,0,1,3.66,1.57,8.71,8.71,0,0,1,2.49,2.89,10.39,10.39,0,0,1,1.25,5.75C369.36,40.58,369.16,46.3,365.21,49.23Z" style="fill:#fff"/><path d="M383.51,45.59c-.74-.34-1.48-.63-2.18-.88l.32-.91c.73.26,1.49.56,2.26.91Z" style="fill:#fff"/><path d="M368,47.39l-.55-.79c4.63-3.27,8-4.3,11.58-3.55l-.2.94C375.44,43.3,372.4,44.25,368,47.39Z" style="fill:#fff"/><path d="M484.07,91.16c-7.11-7.78-15.69-13.66-24.65-19h0l-3.59-2.36a31.08,31.08,0,0,1-10.1-11.84,13.13,13.13,0,0,0-6.6-6.1,26.53,26.53,0,0,0-15.83-2c-5.9,1-11.22,3.07-15.91,7.4-4.9,4.51-6.82,9.36-5.55,15.67.62,3.12,1.35,6.22,2.15,9.3,1.69,6.51,5.67,10.69,12.28,12.54a14.9,14.9,0,0,0,17.57-7.3c4.27-8.17-3.86-15.8-9.81-15.55-4.13.17-5.93,3.35-3.78,6.87a24.83,24.83,0,0,0,1.64,2.18,2.1,2.1,0,0,1-.52,3.09,2.56,2.56,0,0,1-2.44-.32,14.94,14.94,0,0,1-4.68-9.81,4.73,4.73,0,0,1,3.8-5.21,27.77,27.77,0,0,1,7.72-.34c6.53.69,11.61,4.83,13,10.45a37.43,37.43,0,0,1,.57,5.61l-2.52,6.33a16.08,16.08,0,0,1-11.62,8.75l-7.35.2C408.9,98.24,402,93.75,399.5,84.89c-1.2-4.22-3.16-6-7-6.44-.25,0-.5-.14-.75-.19-7.77-1.33-15-1-21.48,4.58C365,87.28,359.16,91,351.31,89.66c.45.67.64,1,.88,1.3C358,98.12,365.61,101.35,374.6,102a9.32,9.32,0,0,1,4.43,1.6,76.29,76.29,0,0,0,22.09,10.78h0l.65.17c.57.16,1.14.33,1.72.48a1.81,1.81,0,0,0,.25,0l2.41.62-.05,0,.86.16,2.92.75.19-.2c7.94,1.17,15.51.76,22.79-2.1,8.16-3.2,16.1-7,24-10.85,8.23-4,16.69-5.7,25.74-3.89,3.12.62,6.24,1.18,9.36,1.78l.43-.48C489.6,97.66,487,94.31,484.07,91.16Z" style="fill:#e5af34"/><path d="M419.09,106.21A50.12,50.12,0,0,1,389,95.63l1.29-1.69c10.92,8.38,24.68,11.87,36.79,9.34,13.69-2.85,24.91-13.74,27.3-26.48l2.09.39c-2.54,13.56-14.45,25.14-29,28.17A41.11,41.11,0,0,1,419.09,106.21Z" style="fill:#fff"/><path d="M383.67,90.81A18.29,18.29,0,0,1,380.56,86l1.94-.85a16.55,16.55,0,0,0,2.77,4.22Z" style="fill:#fff"/><path d="M438,101.44l-1.26-1.71c7.87-5.84,8.3-17.85,8.3-18a20.94,20.94,0,0,0-2.5-11.54,16.69,16.69,0,0,0-4.88-5.67,21.35,21.35,0,0,0-7.34-3.13c-5.24-1.32-9.86-1.35-13.75-.08s-7.61,5.52-6.85,10.17l-2.09.34c-1-5.83,3.46-10.95,8.28-12.53,4.27-1.4,9.3-1.38,14.94,0a23.38,23.38,0,0,1,8,3.46,18.78,18.78,0,0,1,5.5,6.37,23,23,0,0,1,2.76,12.67C447.15,82.35,446.72,95,438,101.44Z" style="fill:#fff"/><path d="M478.35,93.4c-1.63-.74-3.25-1.39-4.8-1.94l.7-2c1.61.56,3.29,1.24,5,2Z" style="fill:#fff"/><path d="M444.05,97.37l-1.23-1.74c10.23-7.2,17.62-9.47,25.54-7.83l-.43,2.08C460.56,88.35,453.86,90.45,444.05,97.37Z" style="fill:#fff"/><path d="M210.26,329.12a29,29,0,0,0-6.63-5.13h0l-1-.63a8.37,8.37,0,0,1-2.72-3.19,3.48,3.48,0,0,0-1.78-1.64,7.12,7.12,0,0,0-4.26-.54,8.1,8.1,0,0,0-4.28,2,4.2,4.2,0,0,0-1.5,4.22c.17.84.37,1.68.58,2.51a4.43,4.43,0,0,0,3.31,3.37,4,4,0,0,0,4.73-2c1.15-2.2-1-4.26-2.64-4.19a1.14,1.14,0,0,0-1,1.85c.13.21.29.39.44.59a.56.56,0,0,1-.14.83.69.69,0,0,1-.66-.09,4,4,0,0,1-1.25-2.64,1.27,1.27,0,0,1,1-1.4,7.25,7.25,0,0,1,2.08-.09,3.86,3.86,0,0,1,3.49,2.81,9.29,9.29,0,0,1,.15,1.51l-.67,1.7a4.36,4.36,0,0,1-3.13,2.36l-2,.06c-2.41-.39-4.26-1.6-4.94-4a2,2,0,0,0-1.89-1.73l-.2-.05a6.56,6.56,0,0,0-5.79,1.23c-1.4,1.2-3,2.19-5.09,1.84a3.77,3.77,0,0,0,.24.35,8.11,8.11,0,0,0,6,3,2.57,2.57,0,0,1,1.19.44,20.54,20.54,0,0,0,6,2.9h0l.17.05.46.13h.07l.65.17h0l.24.05.78.2.05-.06a11.71,11.71,0,0,0,6.14-.56c2.2-.86,4.34-1.89,6.46-2.92a10.56,10.56,0,0,1,6.93-1.05l2.52.48.12-.13C211.75,330.87,211,330,210.26,329.12Z" style="fill:#fff"/><path d="M184.83,330.1A12.75,12.75,0,0,0,195,332.67a9.73,9.73,0,0,0,7.57-7.36" style="fill:none;stroke:#a0a952;stroke-miterlimit:10;stroke-width:0.571860766517276px"/><path d="M182.66,327.63a4.76,4.76,0,0,0,.79,1.21" style="fill:none;stroke:#a0a952;stroke-miterlimit:10;stroke-width:0.571860766517276px"/><path d="M190,323.88a2.91,2.91,0,0,1,2-3.06,6.94,6.94,0,0,1,3.86,0,6.19,6.19,0,0,1,2.08.88,4.84,4.84,0,0,1,1.39,1.63,5.77,5.77,0,0,1,.71,3.25s-.09,3.38-2.35,5.06" style="fill:none;stroke:#a0a952;stroke-miterlimit:10;stroke-width:0.571860766517276px"/><path d="M207.53,328.93c.45.16.89.34,1.31.53" style="fill:none;stroke:#a0a952;stroke-miterlimit:10;stroke-width:0.571860766517276px"/><path d="M199.32,330.56c2.75-1.94,4.64-2.48,6.66-2.06" style="fill:none;stroke:#a0a952;stroke-miterlimit:10;stroke-width:0.571860766517276px"/><path d="M119.29,325.35a29,29,0,0,0-6.63-5.13h0l-1-.63A8.37,8.37,0,0,1,109,316.4a3.48,3.48,0,0,0-1.78-1.64,7.12,7.12,0,0,0-4.26-.54,8.1,8.1,0,0,0-4.28,2,4.2,4.2,0,0,0-1.5,4.22c.17.84.37,1.68.58,2.51a4.43,4.43,0,0,0,3.31,3.37,4,4,0,0,0,4.73-2c1.15-2.2-1-4.26-2.64-4.19a1.14,1.14,0,0,0-1,1.85c.13.21.29.39.44.59a.56.56,0,0,1-.14.83.69.69,0,0,1-.66-.09,4,4,0,0,1-1.25-2.64,1.26,1.26,0,0,1,1-1.4,7.25,7.25,0,0,1,2.08-.09,3.87,3.87,0,0,1,3.49,2.81,9.18,9.18,0,0,1,.15,1.51l-.67,1.7a4.36,4.36,0,0,1-3.13,2.36l-2,.06c-2.41-.39-4.26-1.6-4.94-4a2,2,0,0,0-1.89-1.73l-.21-.05c-2.09-.36-4-.27-5.78,1.23-1.4,1.2-3,2.19-5.09,1.84.12.18.17.27.23.35a8.13,8.13,0,0,0,6,3,2.47,2.47,0,0,1,1.19.44,20.54,20.54,0,0,0,5.95,2.9h0l.18.05.46.13h.07l.65.17h0l.24,0,.78.2,0-.06a11.71,11.71,0,0,0,6.14-.56c2.2-.87,4.34-1.89,6.46-2.93a10.61,10.61,0,0,1,6.93-1l2.52.48.11-.13C120.78,327.1,120.07,326.2,119.29,325.35Z" style="fill:#fff"/><path d="M93.86,326.33A12.71,12.71,0,0,0,104,328.89a9.71,9.71,0,0,0,7.57-7.35" style="fill:none;stroke:#a0a952;stroke-miterlimit:10;stroke-width:0.571860766517276px"/><path d="M91.68,323.86a5.08,5.08,0,0,0,.8,1.21" style="fill:none;stroke:#a0a952;stroke-miterlimit:10;stroke-width:0.571860766517276px"/><path d="M99,320.1a2.91,2.91,0,0,1,2-3.05,6.94,6.94,0,0,1,3.86,0A6.19,6.19,0,0,1,107,318a5,5,0,0,1,1.39,1.62,5.82,5.82,0,0,1,.71,3.26s-.09,3.38-2.35,5.06" style="fill:none;stroke:#a0a952;stroke-miterlimit:10;stroke-width:0.571860766517276px"/><path d="M116.56,325.16c.45.16.89.34,1.31.53" style="fill:none;stroke:#a0a952;stroke-miterlimit:10;stroke-width:0.571860766517276px"/><path d="M108.35,326.79c2.75-1.94,4.64-2.48,6.66-2.06" style="fill:none;stroke:#a0a952;stroke-miterlimit:10;stroke-width:0.571860766517276px"/><path d="M129,282.77a28.77,28.77,0,0,0-6.64-5.13h0l-1-.64a8.22,8.22,0,0,1-2.72-3.19,3.6,3.6,0,0,0-1.78-1.64,7.19,7.19,0,0,0-4.26-.53,8.09,8.09,0,0,0-4.29,2,4.19,4.19,0,0,0-1.49,4.22c.17.84.36,1.67.58,2.5a4.4,4.4,0,0,0,3.3,3.38,4,4,0,0,0,4.73-2c1.16-2.2-1-4.25-2.64-4.18a1.13,1.13,0,0,0-1,1.85,4.92,4.92,0,0,0,.44.58.58.58,0,0,1-.14.84.69.69,0,0,1-.66-.09,4,4,0,0,1-1.26-2.64,1.29,1.29,0,0,1,1-1.41,7.65,7.65,0,0,1,2.08-.09,3.9,3.9,0,0,1,3.5,2.82A10.42,10.42,0,0,1,117,281l-.68,1.7a4.32,4.32,0,0,1-3.13,2.36l-2,.05c-2.4-.39-4.25-1.59-4.93-4a2,2,0,0,0-1.9-1.73l-.2-.05c-2.09-.36-4-.27-5.78,1.23-1.4,1.19-3,2.18-5.1,1.83l.24.35a8.08,8.08,0,0,0,6,3,2.6,2.6,0,0,1,1.2.43A20.64,20.64,0,0,0,106.7,289h0l.18,0,.46.13h.06l.65.17h0l.23,0,.79.21,0-.06a11.81,11.81,0,0,0,6.14-.56c2.19-.87,4.33-1.89,6.45-2.93a10.63,10.63,0,0,1,6.93-1l2.52.47.12-.13C130.53,284.52,129.81,283.62,129,282.77Z" style="fill:#fff"/><path d="M103.61,283.74a12.65,12.65,0,0,0,10.13,2.57,9.73,9.73,0,0,0,7.58-7.36" style="fill:none;stroke:#a0a952;stroke-miterlimit:10;stroke-width:0.571860766517276px"/><path d="M101.43,281.27a4.91,4.91,0,0,0,.79,1.22" style="fill:none;stroke:#a0a952;stroke-miterlimit:10;stroke-width:0.571860766517276px"/><path d="M108.74,277.52a2.9,2.9,0,0,1,2-3,6.94,6.94,0,0,1,3.86,0,6.16,6.16,0,0,1,2.07.89,4.74,4.74,0,0,1,1.4,1.62,5.94,5.94,0,0,1,.71,3.25s-.09,3.39-2.35,5.07" style="fill:none;stroke:#a0a952;stroke-miterlimit:10;stroke-width:0.571860766517276px"/><path d="M126.3,282.58c.46.16.9.34,1.32.53" style="fill:none;stroke:#a0a952;stroke-miterlimit:10;stroke-width:0.571860766517276px"/><path d="M118.1,284.21c2.74-1.94,4.63-2.49,6.65-2.07" style="fill:none;stroke:#a0a952;stroke-miterlimit:10;stroke-width:0.571860766517276px"/><path d="M175,308.72a47.53,47.53,0,0,0-10.91-8.43h0l-1.6-1a13.81,13.81,0,0,1-4.46-5.24,5.82,5.82,0,0,0-2.92-2.7,11.77,11.77,0,0,0-7-.88,13.34,13.34,0,0,0-7,3.27,6.89,6.89,0,0,0-2.45,6.94c.27,1.38.6,2.75,1,4.11A7.28,7.28,0,0,0,145,310.3a6.6,6.6,0,0,0,7.78-3.23c1.89-3.61-1.71-7-4.34-6.88-1.83.08-2.63,1.48-1.68,3,.21.34.49.65.73,1a.92.92,0,0,1-.23,1.36,1.12,1.12,0,0,1-1.08-.14,6.54,6.54,0,0,1-2.07-4.34,2.09,2.09,0,0,1,1.68-2.31,12.24,12.24,0,0,1,3.42-.14,6.35,6.35,0,0,1,5.74,4.62,17.36,17.36,0,0,1,.25,2.48l-1.11,2.8A7.11,7.11,0,0,1,149,312.4l-3.25.09c-4-.64-7-2.62-8.11-6.54-.53-1.87-1.39-2.64-3.11-2.85-.11,0-.22-.07-.34-.09-3.43-.59-6.62-.43-9.5,2-2.3,2-4.9,3.59-8.37,3,.2.29.28.44.39.57a13.32,13.32,0,0,0,9.91,4.9,4.22,4.22,0,0,1,2,.7,33.34,33.34,0,0,0,9.77,4.77h0l.29.07.76.22h.11l1.07.27,0,0,.38.07,1.3.34.08-.1a19.32,19.32,0,0,0,10.08-.92c3.61-1.42,7.13-3.1,10.61-4.81a17.48,17.48,0,0,1,11.39-1.72c1.38.28,2.76.53,4.15.79l.19-.21C177.47,311.6,176.29,310.11,175,308.72Z" style="fill:#fff"/><path d="M133.23,310.33a20.88,20.88,0,0,0,16.66,4.21c6-1.25,11.31-6.06,12.44-12.09" style="fill:none;stroke:#a0a952;stroke-miterlimit:10;stroke-width:0.939707716405322px"/><path d="M129.65,306.27a7.94,7.94,0,0,0,1.3,2" style="fill:none;stroke:#a0a952;stroke-miterlimit:10;stroke-width:0.939707716405322px"/><path d="M141.66,300.1a4.79,4.79,0,0,1,3.35-5,11.43,11.43,0,0,1,6.35,0,9.91,9.91,0,0,1,3.4,1.46,8,8,0,0,1,2.3,2.66,9.67,9.67,0,0,1,1.16,5.34s-.15,5.56-3.86,8.32" style="fill:none;stroke:#a0a952;stroke-miterlimit:10;stroke-width:0.939707716405322px"/><path d="M170.52,308.41c.75.26,1.47.56,2.17.87" style="fill:none;stroke:#a0a952;stroke-miterlimit:10;stroke-width:0.939707716405322px"/><path d="M157,311.08c4.51-3.18,7.62-4.08,10.93-3.39" style="fill:none;stroke:#a0a952;stroke-miterlimit:10;stroke-width:0.939707716405322px"/></g></g></svg>