<svg id="Layer_1" data-name="Layer 1" xmlns="http://www.w3.org/2000/svg" viewBox="0 0 1080 1080"><defs><style>.cls-1{fill:#304a63;}.cls-2{fill:#9fa851;}.cls-3{fill:#3176a9;}.cls-4{fill:#fff;}.cls-5{fill:#e5af36;}.cls-11,.cls-14,.cls-15,.cls-16,.cls-17,.cls-6,.cls-7,.cls-8,.cls-9{fill:none;}.cls-6{stroke:#e3a848;}.cls-15,.cls-16,.cls-17,.cls-6,.cls-7,.cls-8,.cls-9{stroke-miterlimit:10;}.cls-6,.cls-9{stroke-width:1.42px;}.cls-7{stroke:#e5af36;stroke-width:2.13px;}.cls-11,.cls-14,.cls-15,.cls-8,.cls-9{stroke:#fff;}.cls-16,.cls-8{stroke-width:0.71px;}.cls-10{fill:#5ea4a0;}.cls-11,.cls-14{stroke-linecap:round;stroke-linejoin:round;}.cls-11{stroke-width:0.99px;}.cls-12{fill:#bd6f39;}.cls-13{fill:#e9cd38;}.cls-14{stroke-width:0.77px;}.cls-15{stroke-width:0.49px;}.cls-16,.cls-17{stroke:#304a63;}.cls-17{stroke-width:0.53px;}</style></defs><title>1</title><rect class="cls-1" x="-10.16" y="-18.4" width="1114.83" height="1114.83"/><path class="cls-2" d="M374.83,403.92A3.54,3.54,0,0,1,375,405v0c0,3.27-2.87,8.57-5.85,11.14a7.11,7.11,0,0,1-2.07,1.28,3,3,0,0,1-.63.17c-3.42.56-9.63-5.06-12.54-6-2.72-.88,4.22-22.88,16.93-33.74a30.87,30.87,0,0,1,2.86-2.18C382.62,369.67,373.6,399.57,374.83,403.92Z"/><path class="cls-2" d="M316.77,504.14a5.54,5.54,0,0,1,1.3,2.08,19.38,19.38,0,0,1,.69,9.88h0a8.4,8.4,0,0,1-1.4,3.66,3.27,3.27,0,0,1-.45.46c-2.62,2.29-10.84.82-13.81,1.58-2.36.6-6.85-15.46-5.06-30.1a38,38,0,0,1,2.84-10.85C305.3,471,313.44,501.13,316.77,504.14Z"/><path class="cls-3" d="M576.35,589.35s-24.23,23.11-56,18.68c-5.46-.76-12.52-3.54-20.46-7.6-38-19.43-96.06-68.5-96.06-68.5-14.4.32-85.26-11-85.26-11-.46-.4-.86-.78-1.27-1.16a14.24,14.24,0,0,1-2.95-4.14,7.81,7.81,0,0,1,2-9.15l1.72-.26c11.59-1.76,78.51-11.74,91.15-9.82a6.17,6.17,0,0,1,.83.15c11.08,2.81,84,41.08,90,41.9,3.69.49,15.58,3.69,24.21,6.1,5.43,1.51,9.57,2.7,9.57,2.7Z"/><path class="cls-3" d="M523.37,563.69a8.58,8.58,0,0,1,3,5.22h0L528.21,580l7.08,43.23,6.85,7.36-6.58-5.7h0c-.35,0,12.65,6,6.61,5.71-12.27-.65-49.66-9.64-62.77-23.58-11.24-12-13.9-28.73-13.9-28.73-16.86-25.64-35.64-101.54-35.64-101.54-11-7.68-56.62-53.12-62.78-59.28l-.69-.69a19,19,0,0,1-.5-3.86c-.09-8.57,8.13-8.37,8.13-8.37l1,.48v0c8.45,4.32,68.71,35.38,75.5,43.57,7.29,8.82,47,92.69,51.38,96.88.76.73,1.94,1.8,3.43,3.06C510.49,553.08,519.14,560.22,523.37,563.69Z"/><path class="cls-2" d="M504.37,546.17c12.16-7.69,18.6-23.43,15.32-37.43-1.25-5.35-3.76-10.44-4-15.92-.21-4.68,1.24-9.13,3.33-13.37,2.44-4.94,9.19-9.51,14.21-7.26,5.2,2.33,9.62,7.07,14.9,9.24-6.13,1.76-8.13,9.58-7.39,15.92s3.13,12.73,1.57,18.91c-2.78,11-16.39,15.87-20.69,26.33"/><path class="cls-2" d="M500.21,521.24c-1-3.63-1.65-7.77-4.66-10-2-1.51-4.72-1.8-7.25-1.73-15.67.44-29.05,12.78-35.32,27.15s-6.78,30.5-6.83,46.18c0,3,0,6.07,1.32,8.75s3.49,4.44,5.72,6.18a153.81,153.81,0,0,0,95.23,32.31c-9.18-9.14-17.87-18.91-24.35-30.12s-12.53-23.71-12.23-36.66c.09-4.1-1.56-10.68,1-13.91,1.86-2.37,11.69-1,10.54-3.43-.66-1.44-1.94-6.62-3.67-8C513.51,533.19,502.29,528.8,500.21,521.24Z"/><path class="cls-4" d="M459.64,540.08a134.18,134.18,0,0,0,11.91,10.44,106,106,0,0,0,13.19,8.73,75.2,75.2,0,0,0,29.9,9.48l-.06.8a76.19,76.19,0,0,1-30.16-9.7A106.62,106.62,0,0,1,471.19,551a135.38,135.38,0,0,1-11.91-10.53Z"/><path class="cls-4" d="M453.58,534.73a.33.33,0,0,1,.43-.14l.16.08a1,1,0,0,1,.22.16,4.16,4.16,0,0,1,.39.32l.73.66,1.41,1.33-.57.56L455,536.27l-.66-.69-.34-.33-.16-.13-.05,0c-.05,0,.09.08.21-.12Z"/><polygon class="cls-4" points="499.92 611.94 504.11 623.57 503.36 623.84 499.43 612.1 499.92 611.94"/><path class="cls-4" d="M502.63,525.69a19,19,0,0,0-3.39,3.49c-.47.68-1,1.33-1.42,2l-1.25,2.13a43.84,43.84,0,0,0-3.56,9.19l-.64,2.39c-.21.8-.3,1.63-.46,2.43a47.82,47.82,0,0,0-.72,4.9c-.13,1.65-.32,3.29-.42,4.94l-.06,5c-.07,1.66.08,3.31.17,5s.18,3.3.32,4.95l.63,4.92.31,2.46.16,1.23.23,1.22.93,4.88.47,2.43.23,1.22.3,1.21,2.4,9.63-.77.22-2.38-9.68-.3-1.21-.22-1.23-.46-2.45-.92-4.9-.23-1.23-.15-1.23-.31-2.48-.61-4.95c-.13-1.65-.2-3.32-.3-5a48.74,48.74,0,0,1-.16-5l.08-5c.11-1.66.3-3.32.44-5a49.11,49.11,0,0,1,.75-4.94c.16-.81.25-1.64.47-2.45l.65-2.42a44.4,44.4,0,0,1,3.65-9.29l1.27-2.16c.45-.71,1-1.37,1.45-2a19.44,19.44,0,0,1,3.53-3.61Z"/><path class="cls-4" d="M473.53,571.63a207.35,207.35,0,0,0,3.62,41.14l-.79.14A208.68,208.68,0,0,1,473,571.62Z"/><path class="cls-4" d="M499,516.91a22.69,22.69,0,0,0-6.25,3.63,34.34,34.34,0,0,0-2.74,2.38c-.87.85-1.66,1.78-2.5,2.66a48.53,48.53,0,0,0-7.45,12.5l-.71,1.68-.35.84-.29.87L477.61,545a35.26,35.26,0,0,0-.94,3.53L475.8,552c-.39,2.41-.83,4.81-1.18,7.23l-.71,7.29-.8-.06.75-7.33c.37-2.43.82-4.85,1.23-7.27l.89-3.59a36.53,36.53,0,0,1,1-3.55l1.17-3.51.29-.87.36-.85.73-1.7a48.47,48.47,0,0,1,7.61-12.62c.85-.89,1.65-1.83,2.54-2.69a34,34,0,0,1,2.81-2.41,23.19,23.19,0,0,1,6.43-3.69Z"/><path class="cls-4" d="M495.58,511.48a35.92,35.92,0,0,0-12.09,5,47.07,47.07,0,0,0-9.95,8.62,56.84,56.84,0,0,0-7.38,10.93,76,76,0,0,0-4.92,12.26A108.12,108.12,0,0,0,457,574.39a186,186,0,0,0,.79,26.49l-.8.08a186,186,0,0,1-.72-26.6,109.13,109.13,0,0,1,4.33-26.24,76.86,76.86,0,0,1,5-12.36,57.27,57.27,0,0,1,7.48-11c5.88-6.64,13.59-12,22.42-13.77Z"/><path class="cls-4" d="M446.51,570.9a109.56,109.56,0,0,0,15.22,9.23,93.08,93.08,0,0,0,16.53,6.51A57.89,57.89,0,0,0,495.79,589a44.63,44.63,0,0,0,8.76-1.21,40.17,40.17,0,0,0,8.21-3.2l.38.71a41,41,0,0,1-8.41,3.23,44.62,44.62,0,0,1-8.91,1.2,59.11,59.11,0,0,1-17.74-2.44,93.52,93.52,0,0,1-16.62-6.63,109.71,109.71,0,0,1-15.26-9.34Z"/><path class="cls-4" d="M479,511a52.72,52.72,0,0,0,5.39,12.64A85.93,85.93,0,0,0,492.24,535l2.24,2.63c.73.89,1.56,1.69,2.34,2.54,1.55,1.71,3.24,3.27,4.91,4.86.81.82,1.7,1.55,2.57,2.31l2.62,2.25c1.8,1.44,3.64,2.83,5.46,4.25l-.47.64c-1.83-1.44-3.67-2.84-5.47-4.3l-2.63-2.28c-.87-.76-1.76-1.51-2.58-2.33-1.67-1.62-3.37-3.2-4.91-4.93-.78-.86-1.62-1.67-2.35-2.57l-2.24-2.66a85.56,85.56,0,0,1-7.86-11.47,53.44,53.44,0,0,1-5.39-12.83Z"/><path class="cls-4" d="M531.5,488.1c-1.13,4.09-.68,8.43,0,12.61s1.67,8.42,1.65,12.76a19,19,0,0,1-4.26,12.08,53.1,53.1,0,0,1-9.45,8.78l-.49-.63a52.47,52.47,0,0,0,9.36-8.6,18.16,18.16,0,0,0,4.18-11.64c.05-4.23-.88-8.43-1.57-12.66s-1.15-8.62,0-12.84Z"/><path class="cls-4" d="M536.17,482a6.26,6.26,0,0,0-2.92,2.56l-.66-.45a7,7,0,0,1,3.4-2.6Z"/><path class="cls-4" d="M516.27,488.21a83.64,83.64,0,0,1,22,15.71l-.57.57A83,83,0,0,0,516,488.67Z"/><path class="cls-4" d="M520.2,512a41.82,41.82,0,0,1,14.64,10l-.59.55A41.07,41.07,0,0,0,520,512.5Z"/><path class="cls-4" d="M508.77,516.55c.11-1.8.28-3.62.34-5.4a10.87,10.87,0,0,0-.21-2.62,6.41,6.41,0,0,0-1.09-2.32,22.15,22.15,0,0,0-3.9-3.62,9.81,9.81,0,0,1-3.41-4.39l.76-.23a9.15,9.15,0,0,0,3.12,4.06,23,23,0,0,1,4,3.8,6.87,6.87,0,0,1,1.15,2.57,10.82,10.82,0,0,1,.2,2.77c-.09,1.83-.28,3.61-.41,5.42Z"/><path class="cls-4" d="M591.65,378.55c.09-.63,1.22-9.8.22-9.05s-2.42,6.65-2.42,6.65l-.42-2.33s-1.52.38-1.48,1.53-1.53,8.35-3.08,10.55S591,382.8,591.65,378.55Z"/><path class="cls-4" d="M590.31,396.36s-5.81-.47-8.19-3.18-1.42-10-3.87-14.63,1.46-3.13,2.21-2,1.51,6.09,3.49,7.42,4.31-2.52,5.25-4.84,5-14,6.9-14.43-1,7.81-1,7.81,4.1-8.32,6-8.45-5.37,12.67-5.37,12.67-2.24,6.27-2.27,9.57S590.31,396.36,590.31,396.36Z"/><path class="cls-4" d="M616,472.09l-17.53-24.76a7.11,7.11,0,0,1-1.23-3.1l-6.9-47.87-8.19-3.18-.54,50.34a24.82,24.82,0,0,0,2.54,11.19l12.08,24.63Z"/><path class="cls-5" d="M652.26,511.1l-3,1.14-46.54,17.57-10.41-33.44s-7.78-6-2.06-17.07c.06-.14.14-.29.22-.44,2.17-4,6.38-7.68,11-10.25a36.36,36.36,0,0,1,4.74-2.16c7.21-2.66,14.29-2.31,15.81,3.57C624.94,481.1,652.26,511.1,652.26,511.1Z"/><path class="cls-3" d="M599.33,567.21a69.62,69.62,0,0,1,36.66,0c6.41,1.76,12.61,4.45,19.21,5.28,5.83.73,12.29-.31,16.63-4.11q-.29-1.46-.63-3c-2.73-12-8.11-26.49-12.57-37.43-3.94-9.72-7.18-16.64-7.18-16.64a25.67,25.67,0,0,0-13.25-7.65,20.76,20.76,0,0,1-6.12,9c-5.09,4.42-11.52,7-16.68,11.4-5,4.19-8.51,9.77-12.77,14.68-11.69,13.49-28.78,21.67-46.41,24.48C539,566,526.76,565.31,510,560.64c0,.25.24,4.77.51,8.48a4.49,4.49,0,0,0,3.24,4c23.67,6.88,44.67,7.4,68.49-.13C588,571.15,593.52,568.81,599.33,567.21Z"/><path class="cls-5" d="M602.63,538.77c4.26-4.91,7.81-10.49,12.77-14.68,5.16-4.35,11.59-7,16.68-11.4a20.76,20.76,0,0,0,6.12-9c-10.61-2.55-23.44.32-35.15,5.45-14.36,6.24-27,15.87-31.86,23C560.49,548,533,536,533,536s-8.44-16-19.64-10a15.73,15.73,0,0,0-3.31,2.31c-3.43,3.06-5.15,10.75-5.53,20.55-.1,2.26-.12,4.64-.07,7.09v0a4.37,4.37,0,0,0,3.3,4.18c15.84,4.07,32.4,5.75,48.52,3.18C573.85,560.44,590.94,552.26,602.63,538.77Z"/><path class="cls-5" d="M672.8,581.51c.46-3.45,0-8-1-13.14-4.34,3.8-10.8,4.84-16.63,4.11-6.6-.83-12.8-3.52-19.21-5.28a69.62,69.62,0,0,0-36.66,0c-5.81,1.6-11.38,3.94-17.13,5.76-23,7.28-48.06,5.68-71.46-.76a3.71,3.71,0,0,0-4.69,4v.06c0,.21.05.4.08.58,3,21.77,9.66,43.37,17.41,47.9l.68.38c22.45,12.6,60.58,5.58,92.6-6.74C646.9,606.83,671.59,590.56,672.8,581.51Z"/><path class="cls-1" d="M606.56,553.81,606,554A2.54,2.54,0,0,0,606.56,553.81Z"/><path class="cls-5" d="M666.47,546.35c-.67-1.69-1.93-6.88-3-8.34-1.24-1.66-3,2.18-4.66.94l-13.65-10.08q5.64-2.24,11.14-4.81a82,82,0,0,1-3.69-8.89c-13.75,1.13-23.3,7-30.81,20.52a99.09,99.09,0,0,1-5.47,9.43,34.92,34.92,0,0,1-4.86,5.17,1.4,1.4,0,0,0,1.08,2.43h.08A99.68,99.68,0,0,1,640,557.27h0c2.77.93,5.59,1.75,8.61,2.48,3.7.9,7.53,1.63,11.28,1,2.71-.44,6-1.8,7.62-4.16C669.35,553.92,667.57,549.1,666.47,546.35Z"/><path class="cls-4" d="M656.39,549.41c-3.7.79-12.71-.63-19.48-3.57-1.52-.66-5.62-3.08-6.36-4.57a4.5,4.5,0,0,1-.17-2.88c1.22-6,6.53-10.3,11.63-13.79a9.72,9.72,0,0,1,3.35-1.69,6.88,6.88,0,0,1,3.62.31c3.64,1.19,7.28,1.78,9.56,4.87,2,2.76,5.47,10.32,5.57,13.89C664.2,545.72,659.54,548.75,656.39,549.41Z"/><path class="cls-5" d="M672.86,581c-.51,3.06-5.58,36.43-11.45,47.26-2.54,4.7-10,6.71-18.13,6.91a61,61,0,0,1-10.47-.61,42.14,42.14,0,0,1-13.3-3.87,8.8,8.8,0,0,1-3.36-2.87c-4.36-7.46,6.13-13,6.13-13l4.52-21.6S672.28,577,672.86,581Z"/><path class="cls-5" d="M617.33,483.33c.56-1.37,1.38-2.61,2.06-3.92a22.81,22.81,0,0,0,1.21-18.11c-1.05-2.9-2.71-5.62-3.18-8.67a10.46,10.46,0,0,1,.15-4c-2.88,2.26-4.34,5.9-5,9.5a10.82,10.82,0,0,0-.05,4.28,17.73,17.73,0,0,0,1.92,4.09c1.78,3.28,2.85,7.11,2,10.74a32.91,32.91,0,0,0-.93,3.64,21.89,21.89,0,0,0,.62,6.23C616.76,486.89,617,484.06,617.33,483.33Z"/><path class="cls-5" d="M651.13,634.25c1.45-.27,6.09-.51,7.56-.65a22.77,22.77,0,0,0,15.87-8.81c1.87-2.46,3.25-5.33,5.56-7.37a10.5,10.5,0,0,1,3.46-2.06c-3.46-1.19-7.31-.44-10.67,1a10.63,10.63,0,0,0-3.63,2.28,17.84,17.84,0,0,0-2.4,3.84c-1.78,3.26-4.43,6.25-7.93,7.5a36.3,36.3,0,0,0-3.56,1.2"/><polygon class="cls-1" points="655.53 537.96 653.6 539.34 653.33 538.97 655.07 537.42 655.53 537.96"/><path class="cls-6" d="M582.05,399.24s3.08-3.86,8.59-.54"/><path class="cls-4" d="M568.11,704.85s-3.73,9.6-1.63,9,6.23-8.33,6.23-8.33Z"/><path class="cls-4" d="M574,702.78a2.87,2.87,0,0,1-.14.86c-1.12,3.49-8.36,7.27-9.09,7.64l-.06,0s-5.31,6.39-6.6,6.32,3.62-6.91,3.62-6.91l-1.85-1.41s-6.63,4.39-8.75,3.18,7.64-6.36,7.64-6.36L557,704.84s-9.58,2.06-10.79.59c-.57-.7,1.62-1.6,4-2.3,2.58-.79,5.43-1.37,5.43-1.37a59.13,59.13,0,0,1-7.75-.73,2.67,2.67,0,0,1-1.54-.65c-.68-1.12,6.83-.91,11.43-2.38s9.62-2.91,9.62-2.91,4.12,2.35,5.87,5.25A4.65,4.65,0,0,1,574,702.78Z"/><path class="cls-4" d="M572,705.55l60.73-40.29a6.08,6.08,0,0,0,1.91-2.06l16.73-36.94-24.72.13-7.19,22-53.13,47.22"/><path class="cls-4" d="M626.63,626.39s13.66-9.92,24.72-.13"/><path class="cls-6" d="M570.49,691.87s8.78,2.38,8.42,9.08"/><path class="cls-1" d="M638.33,540.39a10.92,10.92,0,0,1,10,.74l-.78,1.19a9.76,9.76,0,0,0-8.86-1.08Z"/><path class="cls-1" d="M634.62,538.31a8.79,8.79,0,0,0,3.29-2.4,6.49,6.49,0,0,0,1.53-3.59l1.41.16a7.87,7.87,0,0,1-2.06,4.21,10,10,0,0,1-3.83,2.47Z"/><path class="cls-5" d="M443.85,528.78l-5-14c-1.71-4.67-3.26-9.44-4.53-14.27s-2.25-9.74-3.3-14.58l-3.1-14.59,2.08-.43,2.92,14.63c1,4.88,1.86,9.75,3.09,14.53s2.66,9.51,4.31,14.2l4.85,14.1Z"/><path class="cls-5" d="M399.32,451a1.45,1.45,0,0,1-.88-1.46c1.53-18.83,12.48-23.9,12.94-24.11a1.46,1.46,0,1,1,1.2,2.67c-.41.19-9.84,4.7-11.23,21.67a1.45,1.45,0,0,1-1.57,1.34A1.41,1.41,0,0,1,399.32,451Z"/><path class="cls-5" d="M404.11,420.35c-.86-.37-2,.23-2.84,1.1a2.11,2.11,0,0,0,.07,3c3.45,3.16,7.62,5.41,11.27,8.34,4,3.19,7.25,4.42,8.76,7a11.22,11.22,0,0,1,1.44,4.44,1.08,1.08,0,0,0,2,.38,17.9,17.9,0,0,0,1.34-3.2,4,4,0,0,1,1-2,3.36,3.36,0,0,1,2.85-.26,24.85,24.85,0,0,1,3.59,1.11.82.82,0,0,0,1-1.19,11.29,11.29,0,0,1-1-2.05S408.16,422.12,404.11,420.35Z"/><path class="cls-5" d="M359.63,528a1.54,1.54,0,0,1-.67-.57c-10-16-4.31-26.61-4.07-27.06a1.47,1.47,0,0,1,2.56,1.43c-.22.4-5.07,9.65,4,24.07a1.47,1.47,0,0,1-.46,2A1.45,1.45,0,0,1,359.63,528Z"/><path class="cls-5" d="M346,500.58c-.91.21-1.45,1.37-1.61,2.58a2.09,2.09,0,0,0,1.86,2.38c4.66.47,9.35-.23,14-.07,5.09.17,8.45-.8,11.19.34a11.51,11.51,0,0,1,3.82,2.7,1.08,1.08,0,0,0,1.84-.91,17.8,17.8,0,0,0-.85-3.36,4,4,0,0,1-.38-2.26,3.35,3.35,0,0,1,2.13-1.92,27,27,0,0,1,3.54-1.26.81.81,0,0,0,.07-1.54,11.6,11.6,0,0,1-2-1.06S350.3,499.57,346,500.58Z"/><path class="cls-7" d="M424.73,548.66a114.17,114.17,0,0,1-26.83-22.88"/><path class="cls-2" d="M507.55,500.49c-1.38-1.88-3.17-3.42-4.62-5.24a18.51,18.51,0,0,1-3.93-9.74c-1.65.65-2.51,2.43-3.17,4.07-1.71,4.23-3,9.38-.4,13.1,1.93,2.73,5.66,3.55,8,5.93,6,6.1,4.22,10,5.13,12.63C515.28,515.89,509.94,503.76,507.55,500.49Z"/><path class="cls-8" d="M303.59,482.41a70,70,0,0,0,1.79,39.42"/><path class="cls-8" d="M375.13,379c-9.27,8.58-14.7,20.51-18.7,32.5"/><path class="cls-1" d="M616.57,618.74c1.34-1.86,3.33-2.87,4.8-4.24a6.27,6.27,0,0,0,1.7-2.35,26.87,26.87,0,0,0,.81-3l3-12.31,1.38.34L625,609.46a27.05,27.05,0,0,1-.92,3.11,7.25,7.25,0,0,1-2,2.7c-1.65,1.45-3.58,2.4-4.76,4Z"/><path class="cls-1" d="M590.27,515.62A109.39,109.39,0,0,1,612,504.9l.47,1.34a107.75,107.75,0,0,0-21.7,10.15Z"/><path class="cls-9" d="M670.84,576.45c-10.69,7-24.79,7.07-37,3.13-5.32-1.72-10.51-4.16-16.09-4.5-7.39-.46-14.42,2.79-21.4,5.25-28.07,9.92-58.89,7.65-88.35,3.36"/><path class="cls-9" d="M636.84,504.58c-13.85,2.52-24.78,12.89-34.53,23s-19.89,21-33.38,25A75,75,0,0,1,556.2,555c-5.08.61-10.17,1.17-15.28,1.41-13,.6-22.58-.27-35.12-3.92"/><path class="cls-5" d="M611.65,549.66a16.55,16.55,0,0,0-6.54,0,7.21,7.21,0,0,0-2.08.71,4.36,4.36,0,0,0-2.18,4.26,3.94,3.94,0,0,0,3.32,3.34,6,6,0,0,0,3.39-.84,16.49,16.49,0,0,0,4.09-3,14.31,14.31,0,0,1,3-2.65c.4-.21,1.54-.56,1.6-1,.16-1.17-1.58-.51-2.05-.4C613.28,550.32,612.53,549.83,611.65,549.66Z"/><path class="cls-4" d="M605.11,552.76a5.06,5.06,0,0,1,1.2,3.68.76.76,0,0,1-.11.32.83.83,0,0,1-.57.32,3.29,3.29,0,0,1-3-1.26,3.16,3.16,0,0,1-.73-1.53,2.67,2.67,0,0,1,.49-1.83c.25-.36.9-1.23,1.41-1.12S604.84,552.38,605.11,552.76Z"/><path class="cls-4" d="M604.86,554q2.79-.68,5.53-1.55c.61-.19.35-1.16-.27-1q-2.75.87-5.53,1.56c-.63.15-.36,1.12.27,1Z"/><path class="cls-4" d="M606.61,553.56a2.5,2.5,0,0,1,1.26.78c.47.45,1.18-.26.71-.71a3.36,3.36,0,0,0-1.7-1c-.64-.12-.91.85-.27,1Z"/><path class="cls-4" d="M608.47,552.6a4.92,4.92,0,0,0,.39-1.29c.1-.63-.86-.9-1-.26a4.73,4.73,0,0,1-.29,1c-.26.59.6,1.1.86.51Z"/><path class="cls-5" d="M611.12,557.27l1.67,1.05c.55.35,1.06-.52.51-.86l-1.67-1.06c-.55-.35-1,.52-.51.87Z"/><path class="cls-5" d="M605.8,559.22c-.26.83-.49,1.67-.69,2.51-.15.63.81.9,1,.27.2-.85.43-1.68.69-2.51.2-.62-.77-.89-1-.27Z"/><path class="cls-5" d="M609.6,547.48a8.8,8.8,0,0,1,.39-1.67c.2-.61-.77-.88-1-.26a9.77,9.77,0,0,0-.42,1.93c-.08.64.92.64,1,0Z"/><path class="cls-5" d="M603,548.57a9.71,9.71,0,0,0-1.29-1.64.5.5,0,0,0-.71.71,8.24,8.24,0,0,1,1.13,1.44c.34.55,1.21,0,.87-.51Z"/><path class="cls-5" d="M598.62,555.27a17.87,17.87,0,0,1-1.74.6.5.5,0,0,0,.27,1,16.81,16.81,0,0,0,1.73-.6c.59-.25.34-1.22-.26-1Z"/><path class="cls-4" d="M695.24,471.28l-17.43-1.8s-50.43,12.62-44.54,36.2c1.68,6.7,31,27.68,31,27.68s5.58,3.34,11.22,2.43l13.22-.74,6.67-2.79,1.87-6.38,1-6.49,3.63-11.72Z"/><path class="cls-4" d="M695.24,471.28l-17.43-1.8s-50.43,12.62-44.54,36.2c1.68,6.7,31,27.68,31,27.68s5.58,3.34,11.22,2.43l13.22-.74,6.67-2.79,1.87-6.38,1-6.49,3.63-11.72Z"/><polygon class="cls-4" points="655.72 525.9 639.15 539.96 648.16 547.03 671.42 532.6 655.72 525.9"/><path class="cls-1" d="M687.34,506.25a10.77,10.77,0,0,0,.3-3.28,12.47,12.47,0,0,0-.57-3.28,11.74,11.74,0,0,0-1.46-3,16.47,16.47,0,0,0-1-1.35,9.31,9.31,0,0,0-1.17-1.18,21.53,21.53,0,0,0-2.73-2,9.07,9.07,0,0,0-3.14-1,25.15,25.15,0,0,0-6.86.22l-.12-.87a26,26,0,0,1,7.12-.34,10.1,10.1,0,0,1,3.52,1.1,22.8,22.8,0,0,1,2.93,2.11,10,10,0,0,1,1.32,1.28,14.23,14.23,0,0,1,1.12,1.44,12.75,12.75,0,0,1,1.66,3.27,13.49,13.49,0,0,1,.69,3.6,11.94,11.94,0,0,1-.28,3.7Z"/><path class="cls-1" d="M673.5,474.52a7.59,7.59,0,0,1,2.61,5.85,7.28,7.28,0,0,1-.77,3.19,9.8,9.8,0,0,1-2,2.53A18.54,18.54,0,0,1,662.17,491a19.58,19.58,0,0,1-6.15-.49c-.51-.11-1-.29-1.49-.44s-1-.37-1.44-.56-1-.45-1.39-.69a3.55,3.55,0,0,0-1.21-.47,1,1,0,0,0-.9.37,2.48,2.48,0,0,0-.44,1.15,11.14,11.14,0,0,0,.17,2.85,17.79,17.79,0,0,0,1.9,5.53l-.77.42a18.62,18.62,0,0,1-2.05-5.79,11.21,11.21,0,0,1-.2-3.14,3.17,3.17,0,0,1,.62-1.63,2,2,0,0,1,1.76-.75,4.58,4.58,0,0,1,1.6.56c.45.24.88.43,1.32.65l1.36.52c.47.12.93.29,1.41.39a18,18,0,0,0,5.81.4,17.33,17.33,0,0,0,10.44-4.63,8.38,8.38,0,0,0,1.69-2.22,5.93,5.93,0,0,0,.61-2.62,6.3,6.3,0,0,0-2.19-4.79Z"/><path class="cls-1" d="M641.28,502.57a14.85,14.85,0,0,0,1.74,1.12,7.41,7.41,0,0,1,1.64,1.48,7.9,7.9,0,0,1,1.09,1.9,8.19,8.19,0,0,0,.74,1.59,1.55,1.55,0,0,0,1.16.77,2.36,2.36,0,0,0,1.61-.7,3.48,3.48,0,0,0,.8-3.53,7.58,7.58,0,0,0-2-3.08,9.37,9.37,0,0,0-3.15-1.84c-.58-.22-1.19-.4-1.81-.58a2.64,2.64,0,0,0-1.5,0,1.56,1.56,0,0,0-1.07,1.18A1.93,1.93,0,0,0,641.28,502.57Zm-.12.14a3,3,0,0,1-1.12-1.84,2.57,2.57,0,0,1,.93-2.22,3.17,3.17,0,0,1,2.46-.71,10.83,10.83,0,0,1,2.16.47c2.82.91,5.38,3.55,5.47,6.63a5.8,5.8,0,0,1-1.37,4.1,3.91,3.91,0,0,1-1.9,1.3,2.31,2.31,0,0,1-1.35-.05,3,3,0,0,1-1.11-.72,4.86,4.86,0,0,1-1.13-2c-.2-.66-.34-1.25-.57-1.87a5.26,5.26,0,0,0-.92-1.71A12.65,12.65,0,0,0,641.16,502.71Z"/><path class="cls-1" d="M681.16,506.93a14.19,14.19,0,0,1-3.86-1.37A12.78,12.78,0,0,1,674,503.1a12.24,12.24,0,0,1-1.31-1.64,10.49,10.49,0,0,1-.94-1.9,12.92,12.92,0,0,1-.84-4.11l2,0a11,11,0,0,0,.55,3.48,9.26,9.26,0,0,0,.71,1.61,9.73,9.73,0,0,0,1,1.43,11,11,0,0,0,2.79,2.27,13.6,13.6,0,0,0,3.37,1.38Z"/><path class="cls-1" d="M665.56,485.85l-1-.89c-.33-.32-.63-.67-.94-1a9,9,0,0,1-1.47-2.38,5.62,5.62,0,0,1-.4-2.88A5.08,5.08,0,0,1,663,476l1,.94a3.7,3.7,0,0,0-.74,1.92,4.25,4.25,0,0,0,.4,2.09,7.72,7.72,0,0,0,1.29,1.87c.29.27.56.56.85.82l.94.76Z"/><circle class="cls-5" cx="663.14" cy="513.68" r="7.85" transform="translate(-143.7 743.09) rotate(-53.63)"/><polygon class="cls-1" points="662.79 535.12 652.1 541.96 651.62 541.23 662.04 533.99 662.79 535.12"/><path class="cls-10" d="M735.79,494.83a5.56,5.56,0,0,0-.37-6.11,42.16,42.16,0,0,0-23.68-19.39,20.95,20.95,0,0,1,26.74-19.6,4.71,4.71,0,1,0,5.25,7.77,7.32,7.32,0,0,0,2.28-4.57c1.19-7.28-3.38-14.71-9.83-18.3s-14.34-3.81-21.54-2.18a36.81,36.81,0,0,0-16.78,8.43,26.41,26.41,0,0,0-8.61,16.46,41.64,41.64,0,0,0,.51,9.9,214.58,214.58,0,0,0,13.88,51.29c.66,1.6,1.39,4,2.7,5.14,1.61,1.47,2.39.2,4.08-1a118.1,118.1,0,0,0,10.16-7.95C726.88,509.16,732.45,502.61,735.79,494.83Z"/><path class="cls-2" d="M735.79,494.83a5.56,5.56,0,0,0-.37-6.11,42.16,42.16,0,0,0-23.68-19.39,20.95,20.95,0,0,1,26.74-19.6,4.71,4.71,0,1,0,5.25,7.77,7.32,7.32,0,0,0,2.28-4.57c1.19-7.28-3.38-14.71-9.83-18.3s-14.34-3.81-21.54-2.18a36.81,36.81,0,0,0-16.78,8.43,26.41,26.41,0,0,0-8.61,16.46,41.64,41.64,0,0,0,.51,9.9,214.58,214.58,0,0,0,13.88,51.29c.66,1.6,1.39,4,2.7,5.14,1.61,1.47,2.39.2,4.08-1a118.1,118.1,0,0,0,10.16-7.95C726.88,509.16,732.45,502.61,735.79,494.83Z"/><path class="cls-11" d="M704.93,474a15.54,15.54,0,0,1,5.59.91,46.89,46.89,0,0,1,22.57,15.57,33,33,0,0,1-8.34,9.25"/><path class="cls-11" d="M732.91,490.77a34.72,34.72,0,0,0-27-2.24"/><path class="cls-2" d="M744.45,502.89c8.13,2.11,17.31-2.7,20.69-10.38s1-17.35-5.2-23c.73,2.28-2.26,4.46-4.5,3.6s-3.24-3.62-2.88-6a8.15,8.15,0,0,1,7.34-6.68,11.62,11.62,0,0,1,5.6,1.31c6.53,3.08,10.68,9.51,13.71,16.07,2.78,6,3.57,10.2,3.58,17.93,0,5.93-2.38,13.17-7.9,19.9-3.78,4.61-10,8.43-15.6,10.58-7,2.71-17.67,3.55-21.23,3.4-8-.33-15.34-4-22.44-7.61a23.76,23.76,0,0,0,7.5,20.9c-1.92,1.17-4.36-.18-6.07-1.64a39,39,0,0,1-6.83-7.57,16.42,16.42,0,0,0-1.72-2.26,17.36,17.36,0,0,0-2.49-1.92,33.51,33.51,0,0,1-11.15-13.26c-1.44-3.07,2.42-2.49,3.31-5.76.8-2.93-1.83-9.37.64-11.14a24.27,24.27,0,0,1,13-4.49c3.13-.14,6.24.35,9.37.4s6.46-1.5,9.5-1.12c2.35.3,3.14,2.24,4.76,3.72A21.71,21.71,0,0,0,744.45,502.89Z"/><path class="cls-4" d="M702.07,447.15a35,35,0,0,1,9.69-6.45,36.1,36.1,0,0,1,7.43-2.07c6-1,12.42-.89,17.21,3.54a9.54,9.54,0,0,0-5.09-1.26c-5.06-.22-10.35.09-14.79,2.54s-7.57,6.87-9.26,11.66a42,42,0,0,0-1.9,15l-6.48-7.07c-1.72-1.89-3.24-4-3.17-6.69C695.8,453.49,698.49,450.67,702.07,447.15Z"/><path class="cls-12" d="M696.92,461a26,26,0,0,1,4-9.15,29.06,29.06,0,0,1,7.11-7.1,28.71,28.71,0,0,1,18.88-5.46s0,0,0,.05a0,0,0,0,1-.05.05,26.73,26.73,0,0,0-9.73,1.42,30.17,30.17,0,0,0-8.67,4.58,35.24,35.24,0,0,0-6.77,7,35.71,35.71,0,0,0-4.74,8.61.05.05,0,0,1-.07,0A.06.06,0,0,1,696.92,461Z"/><path class="cls-4" d="M725.49,520.16a34.78,34.78,0,0,0,15,2.79,35.92,35.92,0,0,0,7.54-1.4c7.71-2.18,15.25-6.21,19.7-12.88a38.51,38.51,0,0,0,3.46-6.84c1.72-4.22,3.14-8.8,2.37-13.3a28.53,28.53,0,0,0-3.4-8.39,21.92,21.92,0,0,1-.31,16.26,25.23,25.23,0,0,1-11,12.12,37.24,37.24,0,0,1-6.34,2.69,29.66,29.66,0,0,1-6.22,1.42c-7.82.79-15.35-3-22-7.16q-5.7-3.59-11-7.71a1.85,1.85,0,0,0-2.59-.33c-2.65,1.5-5.51,3.25-6.42,6.16a7.76,7.76,0,0,0,.86,6,16.39,16.39,0,0,0,4.18,4.57c1.54,1.25,1.57.16,2.93-.11s2.49.69,3.83,1.45A80.63,80.63,0,0,0,725.49,520.16Z"/><path class="cls-13" d="M769.83,500.92a32.87,32.87,0,0,1-12.62,14,32.16,32.16,0,0,1-18.34,4.66,32.88,32.88,0,0,1-18-6.15c-2.6-1.89-5-3.93-7.43-6s-4.71-4.27-6.89-6.58l.07-.07c2.36,2.12,4.8,4.14,7.27,6.12s4.94,4,7.54,5.73a34.21,34.21,0,0,0,17.46,6.18A31.59,31.59,0,0,0,757,514.48a32.58,32.58,0,0,0,12.78-13.61Z"/><path class="cls-3" d="M693.31,490.79c-2.85-5.11-6.86-9.68-14.21-15.08-2.81-2.07-5-5.35-5.09-8.83-.07-4.7,4.64-8.5,4.44-13.19-.05-1.32-.51-2.63-.29-3.93s1.53-2.58,2.74-2.06a2.84,2.84,0,0,1,1.3,1.61,19,19,0,0,1,1.41,9.68,12.23,12.23,0,0,1,5-6.08,5.36,5.36,0,0,1,4-.93,2.63,2.63,0,0,1,2,3.17,11.19,11.19,0,0,1,3.75-2.44,3.82,3.82,0,0,1,4.13,1,4.65,4.65,0,0,1,.83,2.2,13.15,13.15,0,0,1-1.07,7.52c.89-1.27,3-.91,4,.32a6.18,6.18,0,0,1,.8,4.46,23.92,23.92,0,0,1-2.51,8.38,13,13,0,0,1,10.57.66,1.63,1.63,0,0,1,.72.6,1.58,1.58,0,0,1-.33,1.61c-1.22,1.73-3.22,2.76-4.58,4.39a7.94,7.94,0,0,0-1.55,7c1.55-2.55,5.29-3.23,7.89-1.77a8.14,8.14,0,0,1,3.77,7.59c-.12,1.72-.85,3.58-2.42,4.29a4.09,4.09,0,0,1-4.4-1,8.15,8.15,0,0,1-2-4.28,23,23,0,0,1-2.65,13,18.25,18.25,0,0,1,8.27,5.58,2.41,2.41,0,0,1,.75,2c-.2.81-1.11,1.19-1.91,1.44a78.24,78.24,0,0,1-11.9,2.71,23.9,23.9,0,0,1,8.09,14c-2.32,1.16-5.11.48-7.56-.36a72.65,72.65,0,0,1-8.52-3.51,31.2,31.2,0,0,1-4.14,18.09c-9.85-6.81-14.2-20.59-10.06-31.82a4.13,4.13,0,0,1,1.12-1.85,4.47,4.47,0,0,1,2.87-.63c2.37,0,6.09.81,7.74-1.39,1.5-2,1.75-7.47,1.48-9.74C695.13,497.32,695.29,496,693.31,490.79Z"/><path class="cls-4" d="M678.84,469a50.41,50.41,0,0,1,11.43,7.4,37.74,37.74,0,0,1,8.47,10.65,36.86,36.86,0,0,1,4,13,37.32,37.32,0,0,1,.12,6.85c-.08,1.15-.3,2.3-.47,3.4l-.55,3.34a.49.49,0,1,1-1-.16h0l.57-3.35c.19-1.13.4-2.19.48-3.31a35.4,35.4,0,0,0-.08-6.67,35.89,35.89,0,0,0-3.8-12.76A36.78,36.78,0,0,0,689.78,477a49.8,49.8,0,0,0-11.21-7.36.31.31,0,0,1-.15-.42A.32.32,0,0,1,678.84,469Z"/><path class="cls-4" d="M700.93,494.68a11.36,11.36,0,0,1,.18-5.19,13.79,13.79,0,0,1,5.76-8.41,3.7,3.7,0,0,1,1.32-.59,2,2,0,0,1,1.57.35,1.53,1.53,0,0,1,.53.73,1.41,1.41,0,0,1,0,.95,1.52,1.52,0,0,1-1.47,1h0a.51.51,0,0,1-.48-.52.5.5,0,0,1,.52-.47h.06a.54.54,0,0,0,.49-.35.45.45,0,0,0-.17-.57c-.46-.37-1.17-.21-1.83.24a13.63,13.63,0,0,0-3.52,3.38,13.49,13.49,0,0,0-2,4.46,10.69,10.69,0,0,0-.26,4.86h0a.33.33,0,0,1-.25.38A.31.31,0,0,1,700.93,494.68Z"/><path class="cls-4" d="M698,487.19a19.69,19.69,0,0,1-1.36-6.05,16.24,16.24,0,0,1,.77-6.18,13.23,13.23,0,0,1,1.34-2.85,6.32,6.32,0,0,1,2.26-2.34,3,3,0,0,1,3.39.28,2,2,0,0,1,.69,1.81,1.22,1.22,0,0,1-.24.55,1.08,1.08,0,0,1-.54.38,1.06,1.06,0,0,1-1.26-.42.5.5,0,0,1,.87-.49s0,0,.09,0,.1-.06.14-.2a1.06,1.06,0,0,0-.38-.91,2.09,2.09,0,0,0-2.35-.19,5.43,5.43,0,0,0-1.95,2,12.12,12.12,0,0,0-1.29,2.66,15.53,15.53,0,0,0-.82,5.87,19.23,19.23,0,0,0,1.24,5.85.32.32,0,0,1-.6.24Z"/><path class="cls-4" d="M692.79,479.87a8.64,8.64,0,0,1-1.59-3.35,15,15,0,0,1-.3-3.66c.05-1.21.19-2.42.35-3.61a31.84,31.84,0,0,1,.64-3.57,11,11,0,0,1,3.76-6.3,3.81,3.81,0,0,1,1.89-.71,2.67,2.67,0,0,1,2,.76,2.09,2.09,0,0,1,.54,1,1.73,1.73,0,0,1-.23,1.19,2,2,0,0,1-.88.79,1.53,1.53,0,0,1-1.29,0l0,0a.48.48,0,0,1-.21-.67.49.49,0,0,1,.67-.2l0,0c.22.15.67,0,.88-.39a.73.73,0,0,0,.12-.52,1,1,0,0,0-.28-.54,1.68,1.68,0,0,0-1.26-.5,2.87,2.87,0,0,0-1.43.54,10.13,10.13,0,0,0-3.48,5.76,28.36,28.36,0,0,0-.67,3.47c-.17,1.18-.32,2.36-.38,3.53a13.94,13.94,0,0,0,.24,3.48,7.9,7.9,0,0,0,1.42,3.1.32.32,0,0,1,0,.45A.34.34,0,0,1,692.79,479.87Z"/><path class="cls-4" d="M687.75,475.22a11.25,11.25,0,0,1-2.15-3.77c-.25-.68-.45-1.36-.64-2.05a9,9,0,0,1-.39-2.17,4.91,4.91,0,0,1,1.87-4.07,2.66,2.66,0,0,1,1.15-.53A1.55,1.55,0,0,1,689,463a1.21,1.21,0,0,1,.31.79,1.57,1.57,0,0,1-.16.74,1.23,1.23,0,0,1-.61.6,1.34,1.34,0,0,1-.83.05.49.49,0,0,1-.36-.6.48.48,0,0,1,.54-.37H688c.22,0,.22,0,.33-.12s.08-.41,0-.47a.65.65,0,0,0-.54-.11,1.71,1.71,0,0,0-.76.34,4.1,4.1,0,0,0-1.59,3.31,8.77,8.77,0,0,0,.32,2c.18.68.36,1.35.58,2a10.55,10.55,0,0,0,1.94,3.58.32.32,0,0,1,0,.45A.31.31,0,0,1,687.75,475.22Z"/><path class="cls-4" d="M681.71,471.24A17.85,17.85,0,0,1,680,467a4.75,4.75,0,0,1-.22-1.19,2,2,0,0,1,.41-1.34,1.33,1.33,0,0,1,1.52-.48,1.27,1.27,0,0,1,.65.56,1.07,1.07,0,0,1,.06,1,.49.49,0,0,1-.66.23.5.5,0,0,1-.23-.66s0-.19-.18-.25-.31,0-.47.18c-.35.36-.27,1.05-.09,1.76a16.6,16.6,0,0,0,1.5,4.11.32.32,0,0,1-.13.44A.33.33,0,0,1,681.71,471.24Z"/><path class="cls-4" d="M702.17,503.76a13.08,13.08,0,0,1,.3-3.58,6.62,6.62,0,0,1,1.55-3.34,3,3,0,0,1,3.76-.54,2.21,2.21,0,0,1,.74.83,1.5,1.5,0,0,1,.13.64,1.47,1.47,0,0,1-.25.65,1.33,1.33,0,0,1-.51.45,1.09,1.09,0,0,1-.75.07,2,2,0,0,1-1-.65.5.5,0,0,1,.72-.68l0,0v0a1.25,1.25,0,0,0,.44.36c.08,0,.13,0,.25-.14s0-.57-.35-.83a2.2,2.2,0,0,0-2.68.38,5.9,5.9,0,0,0-1.42,2.92,13.38,13.38,0,0,0-.37,3.4.32.32,0,0,1-.63,0Z"/><path class="cls-11" d="M707,489.34a11.22,11.22,0,0,0-3.14,4.29"/><path class="cls-11" d="M702.37,478.34a11.17,11.17,0,0,0-2.77,5.26"/><path class="cls-11" d="M696,469.91a8.88,8.88,0,0,0-1.7,6.14"/><path class="cls-11" d="M688.71,472.21a6.58,6.58,0,0,1-.08-4.27"/><path class="cls-11" d="M683,469.25a10,10,0,0,1-.31-1.63"/><path class="cls-14" d="M706.29,500.65a2.5,2.5,0,0,0-1.25,1.23,7.7,7.7,0,0,0-.56,1.7"/><circle class="cls-15" cx="697.91" cy="445.84" r="1.53" transform="matrix(0.66, -0.75, 0.75, 0.66, -98.55, 672.77)"/><circle class="cls-15" cx="702.53" cy="441.28" r="1.53" transform="translate(-93.59 674.69) rotate(-48.47)"/><circle class="cls-15" cx="708.26" cy="437.77" r="1.53" transform="translate(-89.03 677.8) rotate(-48.47)"/><circle class="cls-15" cx="713.99" cy="435.38" r="1.12" transform="translate(-85.3 681.28) rotate(-48.47)"/><circle class="cls-15" cx="727.89" cy="501.04" r="1.99" transform="translate(-129.78 713.82) rotate(-48.47)"/><circle class="cls-15" cx="734.34" cy="505.35" r="1.56" transform="translate(-130.83 720.1) rotate(-48.47)"/><circle class="cls-15" cx="740.73" cy="507.86" r="1.31" transform="translate(-130.55 725.73) rotate(-48.47)"/><circle class="cls-15" cx="747.17" cy="507.9" r="1.03" transform="translate(-128.41 730.57) rotate(-48.47)"/><circle class="cls-15" cx="752.96" cy="506.54" r="0.88" transform="translate(-125.45 734.44) rotate(-48.47)"/><circle class="cls-15" cx="757.84" cy="505.03" r="0.68"/><path class="cls-5" d="M665.86,524.13c-3,4.1-4.27,20.16,8.25,31s21.21-3.12,15.53-7.33c-3.84-2.85-6.69-1.79-7.81.81a4,4,0,0,0,2,6s-3.42-.11-7.14-5.15-4.93-10.36-3.42-14.36c0,0,5.73,5.45,11,3.26s7.74-3.49,11,.29c0,0-1-6.11-4.28-7.21,0,0,3.16-11.39,16.81,2.49,0,0-7.2-20.54-24.5-19.53C683.26,514.37,672.34,515.21,665.86,524.13Z"/><path class="cls-4" d="M681.84,520.56h0a4.48,4.48,0,0,1,2.27,1.57,10.16,10.16,0,0,1,1.29,2.32,3.81,3.81,0,0,1,.39,1.21c.12,1.23-.95,2.3-2.1,2.94a8.42,8.42,0,0,1-4.75,1h-.12a7,7,0,0,1-1.76-.4l-.2-.08a10.11,10.11,0,0,1-4.51-3,1.61,1.61,0,0,1,.33-2.37C674.86,522.27,679.25,519.67,681.84,520.56Z"/><path class="cls-1" d="M675.75,525.42a7.72,7.72,0,0,0,5,1.35,4.35,4.35,0,0,0,1.21-.22c.35-.14.5-.31.51-.5a1.87,1.87,0,0,0-.26-.95,1.29,1.29,0,0,0-.64-.63l.5-1.26a2.61,2.61,0,0,1,1.3,1.3,3,3,0,0,1,.32,1.75,1.64,1.64,0,0,1-.52.94,2.34,2.34,0,0,1-.82.46,5.38,5.38,0,0,1-1.54.23,8.71,8.71,0,0,1-5.56-1.76Z"/><path class="cls-4" d="M678.65,556.52a.05.05,0,0,1,0,0,.05.05,0,1,1,.1,0A.05.05,0,0,1,678.65,556.52Z"/><path class="cls-4" d="M674.49,553.94a.18.18,0,0,1-.18-.18.18.18,0,0,1,.18-.19.18.18,0,0,1,.19.19A.18.18,0,0,1,674.49,553.94Z"/><path class="cls-4" d="M671,550.55a.3.3,0,0,1-.3-.31.29.29,0,0,1,.3-.3.3.3,0,0,1,.31.3A.31.31,0,0,1,671,550.55Z"/><path class="cls-4" d="M668.29,546.48a.41.41,0,1,1,.42-.41A.41.41,0,0,1,668.29,546.48Z"/><path class="cls-4" d="M666.6,541.92a.52.52,0,1,1,.52-.52A.51.51,0,0,1,666.6,541.92Z"/><path class="cls-4" d="M666,536.84a.37.37,0,1,1,0-.73.37.37,0,1,1,0,.73Z"/><path class="cls-1" d="M653.9,525.48a38.19,38.19,0,0,1-4,5.62l-.35-.29a37.63,37.63,0,0,0,3.78-5.68Z"/><path class="cls-16" d="M644.69,518.14c6.61,5.41,9.92,8,16.6,10.76"/><path class="cls-17" d="M634.93,504.94a11.61,11.61,0,0,1,.38-2.81"/><path class="cls-17" d="M635.85,506.72a12.2,12.2,0,0,1,1.22-3.28"/><path class="cls-17" d="M636.47,508.2a6.51,6.51,0,0,1,1.85-2.19"/></svg>