<svg id="Layer_1" data-name="Layer 1" xmlns="http://www.w3.org/2000/svg" viewBox="0 0 400 1007.47"><defs><style>.home-setting-1{fill:#e2ac35;}</style></defs><title>icon home</title><path class="home-setting-1" d="M235.58,707.34,254,686.09V682L233.26,706c-12.3-3.12-25-13-25-25.81V230.29c0-12.5,10.44-23.56,24.84-26.31L254,228.11v-4.05l-18.43-21.25L254,181.57v-4l-21.39,24.65-.14-.53c-15.69,3-27.08,15-27.08,28.65V680.14c0,14.12,14.11,25,27.56,28.23l21,24.26v-4Z"/><polygon class="home-setting-1" points="244 707.45 254.01 718.99 254.01 695.91 244 707.45"/><polygon class="home-setting-1" points="244 753.15 254.01 764.69 254.01 741.61 244 753.15"/><polygon class="home-setting-1" points="254.01 214.24 254.01 191.16 244 202.7 254.01 214.24"/><polygon class="home-setting-1" points="244 157 254.01 168.54 254.01 145.46 244 157"/></svg>
