<svg id="Layer_1" data-name="Layer 1" xmlns="http://www.w3.org/2000/svg" viewBox="0 0 1507.89 890.26"><defs><style>.lutung-2_1{fill:#367d75;}.lutung-2_2{fill:#304a63;}.lutung-2_3{fill:#fff;}.lutung-2_4{fill:#5ea4a0;}.lutung-2_10,.lutung-2_11,.lutung-2_13,.lutung-2_14,.lutung-2_5,.lutung-2_6,.lutung-2_7,.lutung-2_9{fill:none;}.lutung-2_11,.lutung-2_5{stroke:#5ea4a0;}.lutung-2_10,.lutung-2_11,.lutung-2_13,.lutung-2_14,.lutung-2_5,.lutung-2_6,.lutung-2_7{stroke-miterlimit:10;}.lutung-2_5{stroke-width:0.58px;}.lutung-2_14,.lutung-2_6,.lutung-2_9{stroke:#fff;}.lutung-2_6{stroke-width:0.62px;}.lutung-2_7{stroke:#e5af36;stroke-width:1.97px;}.lutung-2_8{fill:#e5af36;}.lutung-2_9{stroke-linecap:round;stroke-linejoin:round;stroke-width:7.9px;}.lutung-2_10,.lutung-2_13{stroke:#304a63;}.lutung-2_10{stroke-width:1.15px;}.lutung-2_11{stroke-width:0.6px;}.lutung-2_12{fill:#e3ab35;}.lutung-2_13{stroke-width:1.73px;}.lutung-2_14{stroke-width:1.03px;}</style></defs><title>15</title><polygon class="lutung-2_2" points="863.6 458.38 913.36 458.38 886.29 540.74 856.88 540.74 863.6 458.38"/><path class="lutung-2_3" d="M879.73,385.77a7.9,7.9,0,0,1,1.19-3.27c1-1.26,2.7-1.69,4.28-2a72.54,72.54,0,0,1,13-1.26,20.72,20.72,0,0,1,8.18,1.23c4.14,1.76,6.89,5.64,10.19,8.7s7.12,5.3,9.76,8.81a24.85,24.85,0,0,1,4.26,11.51,47.65,47.65,0,0,1-1.33,19.84C925.44,442.65,916.1,453.56,907,464a8.11,8.11,0,0,1-2.1,1.91c-1.07.58-.88,5.35-2.09,5.41-10.22.47-21.9-4.07-32.13-4.23a14.14,14.14,0,0,1-3.67-.39,14.42,14.42,0,0,1-3.58-1.78l-14.63-9.07a14.35,14.35,0,0,1-3.25-2.48c-2.78-3.16-2.15-8.21.1-11.77s5.76-6.08,8.85-8.94a50.31,50.31,0,0,0,14-22.45c1.45-4.84,2.85-7.06,5.64-11.25A38.42,38.42,0,0,0,879.73,385.77Z"/><path class="lutung-2_4" d="M913.53,397.72a19,19,0,0,1-.34,6.12,32.34,32.34,0,0,1-1.79,5.79,34.9,34.9,0,0,1-2.74,5.38c-1,1.7-2.14,3.36-3,5.12l-.67-.32c.85-1.84,1.94-3.53,2.94-5.24a32.79,32.79,0,0,0,2.59-5.29,32.15,32.15,0,0,0,1.64-5.64,17.75,17.75,0,0,0,.22-5.76Z"/><path class="lutung-2_5" d="M898.4,432.84l-2.33-7.45a2.66,2.66,0,0,1,1.8-3.36l7.54-2.24,2.34,7.48a2.67,2.67,0,0,1-1.81,3.37Z"/><path class="lutung-2_4" d="M900.36,429.2l-1-3.29a1.16,1.16,0,0,1,.79-1.48l3.33-1,1,3.3a1.18,1.18,0,0,1-.8,1.49Z"/><path class="lutung-2_2" d="M920.42,398.37s7.06,7.06,2.35,18.82c-3.49,8.72-10.84,28.41-14.43,38a13.17,13.17,0,0,0,.68,10.71l41.62,79.69,10.91-6.25-33.38-72.45a13.19,13.19,0,0,1-.13-10.76l12.22-28.33s9.66-26.38-3.37-38.87Z"/><path class="lutung-2_2" d="M904.36,469.21l-38.29-22.56a4,4,0,0,1-1.2-5.8L898,395.4l-12.69-8.08s-15.49,16.4-38.78,48.8a13.13,13.13,0,0,0,5.08,19.54l49.27,23.07Z"/><path class="lutung-2_2" d="M832.13,545.91c-32.76-1.89-26.38-57.09-26.38-57.09C806.93,427.63,880.3,377,880.3,377l9,6.19-25.46,32.34-11,22,2.06,13.77,3.44,6.88L871.82,471s-1.79,67.84-30,75C839.84,546.55,834.31,546,832.13,545.91Z"/><ellipse class="lutung-2_6" cx="827.31" cy="441.61" rx="9.33" ry="1.72" transform="translate(66.85 990.39) rotate(-63.91)"/><ellipse class="lutung-2_6" cx="855.12" cy="412.85" rx="9.35" ry="1.73" transform="translate(3.92 833.74) rotate(-52.08)"/><ellipse class="lutung-2_3" cx="838.1" cy="423.24" rx="6.65" ry="1.23" transform="translate(18.95 882.08) rotate(-56.05)"/><ellipse class="lutung-2_3" cx="840.64" cy="430.85" rx="6.65" ry="1.23" transform="translate(13.76 887.55) rotate(-56.05)"/><ellipse class="lutung-2_3" cx="858.95" cy="399.2" rx="3.76" ry="0.69" transform="translate(-39.71 698.47) rotate(-43.35)"/><ellipse class="lutung-2_3" cx="865.89" cy="398.72" rx="3.75" ry="0.69" transform="translate(-30.94 721.89) rotate(-44.54)"/><ellipse class="lutung-2_3" cx="849.46" cy="409.15" rx="3.75" ry="0.69" transform="translate(-5.56 806.54) rotate(-50.65)"/><ellipse class="lutung-2_3" cx="824.82" cy="457.84" rx="3.76" ry="0.69" transform="translate(100.8 1062.6) rotate(-68.91)"/><ellipse class="lutung-2_3" cx="835.1" cy="443.14" rx="3.76" ry="0.69" transform="translate(33.22 943.89) rotate(-59.94)"/><path class="lutung-2_2" d="M912.36,463.72c5.78,4.7,7.6,8.57,7.86,16,.19,5.2-1.64,10.83-3.46,15.71-4.9,13.19-15.57,34.82-20.47,48l-13.55-3.75,16.91-58.77,8.65-25.47Z"/><path class="lutung-2_7" d="M909.84,451.91a36.12,36.12,0,0,0,3.46,22.78l14.52,27.39"/><path class="lutung-2_8" d="M881.9,538.31l11.62-31.73,2.9-7.93,1.44-3.95a5.67,5.67,0,0,0,0-3.64,7.18,7.18,0,0,0-2.1-3.1,9.38,9.38,0,0,0-1.58-1.12,18.45,18.45,0,0,0-1.83-.85l-7.76-3.31.7-1.62,7.73,3.38a21,21,0,0,1,2,.95,12,12,0,0,1,1.85,1.33,9,9,0,0,1,2.54,3.84,7.33,7.33,0,0,1-.06,4.65l-1.49,4-3,7.9L883,538.71Z"/><path class="lutung-2_2" d="M859.09,457.1s26,3.4,21.34,21c0,0-20.45,50.4-26.33,68.05l-14.23.1Z"/><polygon class="lutung-2_3" points="900.9 478.73 906.38 481.8 907.97 506.91 913.23 506.84 916.38 477.09 903.93 468.85 900.9 478.73"/><path class="lutung-2_3" d="M959.92,536.3l4.9,2.5c1.27.76,5,1.09,6.5,1.07l25.12-.28a4.17,4.17,0,0,1,2.55.84l4.91,3.72a.57.57,0,0,1-.34,1l-52.86.59-4.81-8.94Z"/><path class="lutung-2_3" d="M898.89,536.19l4.24,2.54a8,8,0,0,0,4.21,1.14l25.12-.28a4.2,4.2,0,0,1,2.55.84l4.91,3.72a.58.58,0,0,1-.35,1l-61.73.59,5.47-9.52Z"/><path class="lutung-2_3" d="M856.92,536.67l4.24,2.54a8,8,0,0,0,4.21,1.14l25.12-.28a4.2,4.2,0,0,1,2.55.84l4.91,3.72a.58.58,0,0,1-.35,1l-57.82.54,2-9Z"/><path class="lutung-2_9" d="M819.18,531.39c-12.66,3.56-26.71.83-37.76-6.31a31.86,31.86,0,0,1-8.91-8.12c-3.23-4.55-4.7-10.15-5.15-15.71-1.34-16.51,5.76-32.66,15.13-46.32s21.07-25.6,30.7-39.08a180.69,180.69,0,0,0,17-29.54c4.09-8.88,7.6-18.25,8-28s-2.81-20.07-10.23-26.44c-10.28-8.83-26.69-7.83-37.71,0S773.06,353.13,771,366.52s-.5,27.05,1.05,40.51"/><path class="lutung-2_2" d="M777.44,414.43c-1.25,5.21-4.82,9.54-6.89,14.48a26.71,26.71,0,0,0-.84,18.21c-2.39-2.54-4.86-5.2-5.87-8.54a18,18,0,0,1-.25-7.74c-1,3.91-4,3.5-4.78,8.31-4.89-6.45-3.52-17,.4-24,1.83-3.3,4.73-5.84,7.24-8.66a17.45,17.45,0,0,0,4.83-9.87C777.12,399.62,778.84,408.59,777.44,414.43Z"/><ellipse class="lutung-2_2" cx="889.35" cy="451.71" rx="3.3" ry="1.29" transform="translate(29.16 956.74) rotate(-57.34)"/><path class="lutung-2_8" d="M850.84,498.5l2.22-9.13,1.1-4.56a9.42,9.42,0,0,0-1.95-8.11,9.65,9.65,0,0,0-3.44-2.54l-8.55-3.91.84-1.79,8.47,4.07a11.44,11.44,0,0,1,4,3.08,11.09,11.09,0,0,1,2.19,4.54,10.92,10.92,0,0,1-.06,5l-1.2,4.55-2.38,9.1Z"/><polygon class="lutung-2_8" points="839.97 540.09 849.49 503.82 850.73 504.14 841.89 540.58 839.97 540.09"/><path class="lutung-2_8" d="M875.35,492.52c-6,15.06-11.81,30.17-17.84,45.21l-1.83-.75C861.92,522,868,507,874.17,492Z"/><path class="lutung-2_8" d="M886.93,473.27c-4.6-2.21-9.15-4.52-13.78-6.65l-13.86-6.52-6.94-3.26a20.26,20.26,0,0,1-6.19-4.94,12.57,12.57,0,0,1-2.84-7.46,14.82,14.82,0,0,1,1.92-7.74v0l0,0,9.13-12.37,1,.76-9,12.43,0,0a13.5,13.5,0,0,0-1.65,6.95,11.07,11.07,0,0,0,2.56,6.57,18.64,18.64,0,0,0,5.73,4.49l6.94,3.2,13.89,6.4,13.89,6.45Z"/><polygon class="lutung-2_8" points="892.18 390.55 894.24 392.36 893.54 393.43 891.04 392.16 892.18 390.55"/><path class="lutung-2_10" d="M875.53,539.28c2.37-.25,9.54,1,11.82,1.73,1.19.36,3.32.43,2.89,4.47"/><path class="lutung-2_8" d="M843.4,523.51c6.14,3.59,12.71,6.56,19.63,3.25,2.87-1.37.37-5.63-2.49-4.26-5.07,2.42-10.31-.71-14.65-3.25-2.74-1.61-5.23,2.65-2.49,4.26Z"/><path class="lutung-2_8" d="M887.24,522.94c6.3,3.14,13.15,5.85,19.81,2.09,2.77-1.56.28-5.82-2.49-4.26-4.94,2.78-10.25.19-14.82-2.09-2.84-1.42-5.34,2.84-2.5,4.26Z"/><path class="lutung-2_8" d="M938.21,526.84c6.67.83,14,1,18.78-4.49,2.06-2.4-1.41-5.9-3.5-3.49-3.88,4.49-10,3.71-15.28,3-3.14-.39-3.11,4.55,0,4.94Z"/><path class="lutung-2_8" d="M889,474.51c3.94-2.91,8-6.42,7.75-11.79-.15-2.79-4.52-2.81-4.36,0,.2,3.7-2.9,6-5.59,8-2.23,1.65-.06,5.44,2.2,3.77Z"/><path class="lutung-2_2" d="M952.32,361.56c0-22.77-11.53-43.44-38.63-43.15-28.74.3-39.31,20-39.31,42.77"/><circle class="lutung-2_3" cx="954.72" cy="352.51" r="13.28"/><circle class="lutung-2_2" cx="954.72" cy="352.51" r="7.01"/><circle class="lutung-2_3" cx="872.72" cy="352.51" r="13.28"/><circle class="lutung-2_2" cx="872.72" cy="352.51" r="7.01"/><path class="lutung-2_2" d="M950.82,347.3a24.83,24.83,0,0,0-8.66-14.18,9.2,9.2,0,0,0-1.48-1c-7.37-3.78-12.32-6.45-20.57-7-5.71-.41-13.92.83-19.62,1.38-18.62,1.79-21.67,11.49-21.67,11.49s-10,23.58-.41,40.62l0,0c3.21,7,10.5,11.87,17.05,15.71,3.58,2.09,7.25,4,11,5.74,2.84,1.3,5.85,2.48,9,2.34,4.27-.2,8.09-2.86,11.71-4.83A84,84,0,0,0,944,385.5a19.76,19.76,0,0,0,4.08-4.86,2.1,2.1,0,0,1,.13-.26C954.08,369.57,952.65,355.87,950.82,347.3Z"/><path class="lutung-2_11" d="M906.07,328a8.59,8.59,0,0,0-2.5-3.92"/><path class="lutung-2_11" d="M908.1,325a8.28,8.28,0,0,0-.48-2.52"/><path class="lutung-2_11" d="M901.45,326.48a7.66,7.66,0,0,0-2.84-1.52"/><path class="lutung-2_11" d="M897.81,329.08a10.48,10.48,0,0,0-3.41-1.53"/><path class="lutung-2_11" d="M921.23,328a8.51,8.51,0,0,1,2.5-3.92"/><path class="lutung-2_11" d="M919.2,325a8,8,0,0,1,.48-2.52"/><path class="lutung-2_11" d="M925.85,326.48a7.62,7.62,0,0,1,2.83-1.52"/><path class="lutung-2_11" d="M929.48,329.08a10.53,10.53,0,0,1,3.42-1.53"/><path class="lutung-2_11" d="M934.13,376.13a10.2,10.2,0,0,1,1.38,2.87,21.44,21.44,0,0,1,.28,4.46"/><path class="lutung-2_11" d="M932.26,373.77a9.39,9.39,0,0,1,1.16,1.34"/><path class="lutung-2_11" d="M938.31,373.36c1.57.54,3.76,2.4,3.93,4.05"/><path class="lutung-2_11" d="M941.53,369a4.29,4.29,0,0,1,3.48,2.15"/><path class="lutung-2_11" d="M944.47,365a1.77,1.77,0,0,1,1.85.94"/><path class="lutung-2_11" d="M944.88,359.53a2.65,2.65,0,0,1,1.68.27"/><path class="lutung-2_11" d="M931.49,382.92a23.12,23.12,0,0,1,.19,5.7"/><path class="lutung-2_11" d="M927.21,389.29a15.56,15.56,0,0,1-.36,3.8"/><path class="lutung-2_11" d="M919.72,392.45a4.5,4.5,0,0,1-.07,1.42,3.43,3.43,0,0,1-.45,1,7.65,7.65,0,0,1-1.2,1.52"/><path class="lutung-2_11" d="M938.73,370.38a4.72,4.72,0,0,1,2.06.73"/><path class="lutung-2_11" d="M939.48,379.52a4.43,4.43,0,0,1,.45,2.15"/><path class="lutung-2_11" d="M892.31,375.38a7.9,7.9,0,0,0-1.79,3.15,21.85,21.85,0,0,0-.66,4.41"/><path class="lutung-2_11" d="M894.21,373.59a6.8,6.8,0,0,0-.79.71"/><path class="lutung-2_11" d="M887.34,373.72a4.51,4.51,0,0,0-2.93,3.69"/><path class="lutung-2_11" d="M885.12,369a4.29,4.29,0,0,0-3.48,2.15"/><path class="lutung-2_11" d="M882.19,365a1.78,1.78,0,0,0-1.86.94"/><path class="lutung-2_11" d="M881.77,359.53a2.65,2.65,0,0,0-1.68.27"/><path class="lutung-2_11" d="M895.16,382.92a19.15,19.15,0,0,0-.74,5.12"/><path class="lutung-2_11" d="M899.44,389.29c0,.9-.28,2.81,0,3.65"/><path class="lutung-2_11" d="M906.93,392.45a4.5,4.5,0,0,0,.07,1.42,3.43,3.43,0,0,0,.45,1,8,8,0,0,0,1.2,1.52"/><path class="lutung-2_11" d="M887.92,370.38a4.77,4.77,0,0,0-2.06.73"/><path class="lutung-2_11" d="M887.17,379.52a4.55,4.55,0,0,0-.45,2.15"/><path class="lutung-2_11" d="M913.32,393.34a15,15,0,0,0,.43,4.94"/><path class="lutung-2_11" d="M945.23,354.34a2.76,2.76,0,0,1,1.95-.31"/><path class="lutung-2_11" d="M944.51,350.35a2.3,2.3,0,0,1,1.7-.68"/><path class="lutung-2_11" d="M943.49,346.13c.14-.61,1.44-1.7,2-2"/><path class="lutung-2_11" d="M941.39,342.64a5.09,5.09,0,0,1,1.43-2.34"/><path class="lutung-2_11" d="M881.4,354.34a2.78,2.78,0,0,0-2-.31"/><path class="lutung-2_11" d="M882.11,350.35a2.28,2.28,0,0,0-1.69-.68"/><path class="lutung-2_11" d="M883.14,346.13c-.14-.61-1.44-1.7-2-2"/><path class="lutung-2_11" d="M885.24,342.64a5.09,5.09,0,0,0-1.43-2.34"/><path class="lutung-2_3" d="M943.66,361.16a33.81,33.81,0,0,0-.42-4c-1.09-4.93-1.62-5.58-3.55-9.57a27.87,27.87,0,0,0-3.63-4.76c-1.31-1.32-4.58-2.08-6.43-2.25a49.37,49.37,0,0,0-6.32-.05c-4.54.27-6.43,1.16-10.1,2.93-3.67-1.77-5.56-2.66-10.1-2.93a49.37,49.37,0,0,0-6.32.05c-1.85.17-5.12.93-6.43,2.25a27.87,27.87,0,0,0-3.63,4.76c-1.93,4-2.46,4.64-3.55,9.57a33.81,33.81,0,0,0-.42,4c-.16,2.16,1.26,4.11,2.81,5.61a13.66,13.66,0,0,0,4.63,3.1,19.53,19.53,0,0,0,7,.78,23.7,23.7,0,0,0-2.34,8.37,16.38,16.38,0,0,0-.08,4.74c.77,4.49,5,7.9,9.53,8.55a8.67,8.67,0,0,0,2.92,0,17.36,17.36,0,0,0,6-1.75,17.36,17.36,0,0,0,6,1.75,8.67,8.67,0,0,0,2.92,0c4.52-.65,8.76-4.06,9.53-8.55a16.38,16.38,0,0,0-.08-4.74,23.7,23.7,0,0,0-2.34-8.37,19.53,19.53,0,0,0,7-.78,13.76,13.76,0,0,0,4.63-3.1C942.4,365.27,943.81,363.32,943.66,361.16Z"/><path class="lutung-2_3" d="M945.31,355.89a18.44,18.44,0,1,0-36.88,0c0,10.18,10.7,14.91,20.88,14.91S945.31,366.07,945.31,355.89Z"/><path class="lutung-2_3" d="M918.46,356.16a18.44,18.44,0,0,0-36.88,0c0,10.18,6.63,15.19,16.82,15.19S918.46,366.34,918.46,356.16Z"/><path class="lutung-2_12" d="M936.25,352.9a10.41,10.41,0,0,0-16.76-6.53c-1,.83-1.93,1.86-3,2.6a5,5,0,0,1-2.3.87,9.14,9.14,0,0,0-1.48,0,5.06,5.06,0,0,1-2.31-.87c-1.11-.74-2-1.77-3-2.6a10.41,10.41,0,0,0-16.76,6.53,9,9,0,0,0,1.31,6.4c1.79,2.64,5,3.9,8,4.91a15,15,0,0,0,13.35,22.2h.36a15,15,0,0,0,13.35-22.2c3-1,6.22-2.27,8-4.91A9,9,0,0,0,936.25,352.9Z"/><ellipse class="lutung-2_2" cx="917.98" cy="369.16" rx="1.65" ry="0.82" transform="translate(-35.75 632.53) rotate(-37.34)"/><ellipse class="lutung-2_2" cx="908.18" cy="369.16" rx="0.82" ry="1.65" transform="translate(63.78 867.23) rotate(-52.66)"/><path class="lutung-2_2" d="M931.13,356a10,10,0,0,0-2.77-.31,8.24,8.24,0,0,0-2.73.5,9.15,9.15,0,0,0-2.49,1.31,10.13,10.13,0,0,0-2,2l-1.36-.89a11.51,11.51,0,0,1,2.3-2.46,11.16,11.16,0,0,1,2.89-1.7,10.12,10.12,0,0,1,3.3-.77,12.35,12.35,0,0,1,3.38.23Z"/><path class="lutung-2_2" d="M928.41,351.11a10.75,10.75,0,0,0-2.78.95,8.7,8.7,0,0,0-2.38,1.7,10,10,0,0,0-1.77,2.36,10.64,10.64,0,0,0-1,2.76l-.8-.12a11.33,11.33,0,0,1,2.93-5.67,10.26,10.26,0,0,1,2.58-1.95,12.74,12.74,0,0,1,3-1.11Z"/><path class="lutung-2_2" d="M895.74,355.32a12.64,12.64,0,0,1,3.27-.87,10.36,10.36,0,0,1,3.38.11,11.16,11.16,0,0,1,3.17,1.11,11.6,11.6,0,0,1,2.73,2l-1.16,1.14a9.85,9.85,0,0,0-2.36-1.52,9.33,9.33,0,0,0-2.7-.81,8.31,8.31,0,0,0-2.77,0,10.55,10.55,0,0,0-2.66.84Z"/><path class="lutung-2_2" d="M898.38,350.94a12.35,12.35,0,0,1,3.19.51,9.46,9.46,0,0,1,2.91,1.41,10.72,10.72,0,0,1,2.35,2.21,11.31,11.31,0,0,1,1.62,2.78l-.76.28a10.26,10.26,0,0,0-1.55-2.51,10.06,10.06,0,0,0-2.2-2,8.66,8.66,0,0,0-2.66-1.21,11.41,11.41,0,0,0-2.91-.4Z"/><path class="lutung-2_2" d="M918.72,378.8a.49.49,0,0,0,0-.66,1.8,1.8,0,0,0-.68-.37,10.8,10.8,0,0,0-1.62-.32c-.27,0-.58-.09-.83-.15l-.75-.13c-.51-.07-1-.12-1.53-.14a14.92,14.92,0,0,0-3.27.08c-1,.21-2.53.5-2.16,1.35a.56.56,0,0,0,.14.2s.06,0,.1.07l.16.11.68.44c.45.29.91.57,1.37.81a9,9,0,0,0,2.88.91,6.54,6.54,0,0,0,2.92-.32A5.76,5.76,0,0,0,918.72,378.8Zm.11.08a14.86,14.86,0,0,1-2.28,2.59,4.9,4.9,0,0,1-3.51,1,7.8,7.8,0,0,1-3.37-1.25,9.65,9.65,0,0,1-1.4-1c-.21-.19-.42-.39-.62-.61l-.15-.15a1.5,1.5,0,0,1-.18-.24,1.22,1.22,0,0,1-.2-.55,1.32,1.32,0,0,1,.31-1,1.46,1.46,0,0,1,.86-.47l1.63-.43a26,26,0,0,1,3.33-.79,5.39,5.39,0,0,1,1.79.1,6.37,6.37,0,0,1,1.62.64,15.92,15.92,0,0,1,1.51.83,2.6,2.6,0,0,1,.67.57.7.7,0,0,1,.16.44A.83.83,0,0,1,918.83,378.88Z"/><path class="lutung-2_12" d="M941.73,334.58a3.17,3.17,0,0,1,2.06-4,2.9,2.9,0,0,1,.76-.14h0a36.36,36.36,0,0,1-9.65-1c-2.28-.62-4.45-1.62-6.76-2.14a9.08,9.08,0,0,0-6.87.74,4.15,4.15,0,0,1-.82.47,2.24,2.24,0,0,1-2.46-1.14,9.89,9.89,0,0,1-.89-2.79c-.3-1.17-1.93-10.61-3.66-10.63s-3.67,9.42-4,10.63a9.87,9.87,0,0,1-.88,2.79,2.24,2.24,0,0,1-2.46,1.14,4.54,4.54,0,0,1-.83-.47,9.07,9.07,0,0,0-6.87-.74c-2.3.52-4.47,1.52-6.76,2.14a38.83,38.83,0,0,1-10.77.77,12,12,0,0,0-3,5.22c.23.08.65.55.87.64a18.53,18.53,0,0,0,8.12,1.75c5.12-.1,9.71-3.57,14.86-3.62a5.76,5.76,0,0,1,5.47,4.94,2.68,2.68,0,0,0,.38.89,12.66,12.66,0,0,0,.54,1.35,5.68,5.68,0,0,0,10.22,0,12.23,12.23,0,0,0,.52-1.25v0c1.66-4.5,3.57-6.06,6.41-5.92,5,.23,9.43,3.5,14.39,3.6a14.33,14.33,0,0,0,6-1.19A3.18,3.18,0,0,1,941.73,334.58Z"/><path class="lutung-2_12" d="M947.78,332.66a3.16,3.16,0,0,0-3.23-2.2c.82.24,1.45.86,1.82,2.27,0,0,.58,2.56-.39,3.81l-.29.11h0A3.17,3.17,0,0,0,947.78,332.66Z"/><path class="lutung-2_12" d="M946.37,332.73c-.37-1.41-1-2-1.82-2.27a2.9,2.9,0,0,0-.76.14,3.17,3.17,0,0,0,1.9,6l.29-.11C947,335.29,946.37,332.73,946.37,332.73Z"/><path class="lutung-2_12" d="M883.29,332.37a3.17,3.17,0,0,0-3.24-2.2,3.3,3.3,0,0,0-.75.14,3.17,3.17,0,0,0,1.9,6.05h0A3.17,3.17,0,0,0,883.29,332.37Z"/><path class="lutung-2_13" d="M889.19,315.91a7,7,0,0,1,3.74,8.24"/><path class="lutung-2_13" d="M894.78,315.36a7,7,0,0,1-1.91,8.85"/><ellipse class="lutung-2_14" cx="913.24" cy="333.23" rx="2.83" ry="7.9"/><polygon class="lutung-2_8" points="886.32 387.51 870.64 406.18 869.65 405.37 884.78 386.26 886.32 387.51"/><path class="lutung-2_8" d="M877.62,374.51a20,20,0,0,0,2.07,4,37.93,37.93,0,0,0,2.76,3.71,46.35,46.35,0,0,0,3.18,3.4c.55.55,1.14,1.06,1.71,1.6l1.77,1.52-.79,1-1.87-1.49c-.6-.52-1.22-1-1.81-1.57a45.44,45.44,0,0,1-3.41-3.39,38.24,38.24,0,0,1-3-3.77,22.7,22.7,0,0,1-2.44-4.34Z"/><path class="lutung-2_8" d="M920,400.35a51.55,51.55,0,0,0,6.32-3c2.06-1.15,4.06-2.4,6-3.72s3.85-2.73,5.68-4.22,3.62-3,5.37-4.6l1.32,1.46c-1.82,1.57-3.66,3.12-5.58,4.56s-3.88,2.83-5.89,4.15-4.09,2.52-6.22,3.64a51.72,51.72,0,0,1-6.6,3Z"/></svg>