<svg id="Layer_1" data-name="Layer 1" xmlns="http://www.w3.org/2000/svg" viewBox="0 0 925.32 805.12"><defs><style>.lth_1{fill:#367d75;}.lth_2{fill:#304a63;}.lth_3{fill:#fff;}.lth_4{fill:#e6b034;}.lth_5,.lth_6,.lth_7,.lth_8{fill:none;}.lth_5{stroke:#5ea7a2;stroke-width:1.19px;}.lth_5,.lth_8{stroke-miterlimit:10;}.lth_6,.lth_7,.lth_8{stroke:#fff;}.lth_6,.lth_7{stroke-linecap:round;stroke-linejoin:round;stroke-width:2.38px;}.lth_7{stroke-dasharray:0 11.82;}.lth_8{stroke-width:1.89px;}.lth_9{fill:#e5af36;}.lth_10{fill:#9fa851;}</style></defs><title>32-01</title><path class="lth_2" d="M480.57,369.71a33.75,33.75,0,0,1,16.09,6.14l-4.22-2.29c-17.93,7.48-29.27,25.52-35.68,43.85-5.51,15.75-7.85,34.41,1.61,48.15,4.82,7,12.14,11.82,19.35,16.34,12.38,7.75,25.24,15.21,39.29,19-8.32,3.66-116.15,42.14-147.67-38.76C369.34,462.18,332.45,356.42,480.57,369.71Z"/><path class="lth_3" d="M456.76,417.41c6.41-18.33,17.75-36.37,35.68-43.85l4.22,2.29c5.9,4.2,11.79,11.25,14.44,23.11,1.23,5.49,2.12,9.88,2.86,13.47-8.34-3.67-17.87-5.25-26.61-2.7-8.91,2.6-16.69,10-18,19.25a14.45,14.45,0,0,0,.24,5.82c1.2,4.39,4.92,7.58,8.67,10.15a78.59,78.59,0,0,0,20.9,10.16c-4.32,5.47-3.13,13.83,1.08,19.39s10.74,8.82,17.24,11.34c6.12,2.37,12.91,4.26,19.2,2.62A77.57,77.57,0,0,1,517,500.94c-14.05-3.83-26.91-11.29-39.29-19-7.21-4.52-14.53-9.34-19.35-16.34C448.91,451.82,451.25,433.16,456.76,417.41Z"/><path class="lth_4" d="M517.46,485.84c-6.5-2.52-13-5.79-17.24-11.34s-5.4-13.92-1.08-19.39A78.59,78.59,0,0,1,478.24,445c-3.75-2.57-7.47-5.76-8.67-10.15a14.45,14.45,0,0,1-.24-5.82c1.33-9.2,9.11-16.65,18-19.25,8.74-2.55,18.27-1,26.61,2.7,3.08,14.75,3.84,15.66,16.28,20.18,15.47,5.63,32.14,22.53,21,39.28a82,82,0,0,1-14.62,16.57C530.37,490.1,523.58,488.21,517.46,485.84Z"/><path class="lth_2" d="M552.89,459.81a13.35,13.35,0,0,1-5.13,4.12,11,11,0,0,1-3.19,1.09,18.42,18.42,0,0,1-3.29.21A38.15,38.15,0,0,1,528.7,463l.9-2.35a35.74,35.74,0,0,0,11.74,2.55,15.78,15.78,0,0,0,2.93-.08,9,9,0,0,0,2.71-.83,11.62,11.62,0,0,0,4.63-3.43Z"/><path class="lth_5" d="M399,404.75q-2.24-2-4.67-3.84"/><path class="lth_5" d="M417.36,429A84.68,84.68,0,0,0,401.49,407"/><path class="lth_5" d="M398.91,429c-3.33-2.82-6.48-4.55-18.9-9.18"/><path class="lth_5" d="M408.44,436.12c-1.19-1-5.6-3.64-6.46-4.42"/><path class="lth_5" d="M379.45,441.37a24.59,24.59,0,0,0-5,.66"/><path class="lth_5" d="M405.24,446.19c-5.18-1.74-16.72-4.52-22.45-4.8"/><path class="lth_5" d="M403.13,457.4c-4.6-.64-12.25.19-16.81,2.34"/><path class="lth_5" d="M409.81,468.54c-1.38.71-8.81,4.76-11,6.19"/><path class="lth_5" d="M416.13,482.37c-1.47,2.76-3.63,6.91-6.06,11.14"/><path class="lth_5" d="M426.14,499.56c-.21.86-.41,1.73-.61,2.6"/><path class="lth_5" d="M429.21,489.25q-1.41,4-2.5,8.07"/><path class="lth_5" d="M442.27,490.3l.4,13.92"/><path class="lth_5" d="M454.12,486.47a169.64,169.64,0,0,0,9.24,17.81"/><path class="lth_5" d="M475.48,493.17q2.85,2.47,5.8,4.83"/><path class="lth_5" d="M466.35,484.58q2.76,2.79,5.64,5.46"/><path class="lth_5" d="M430.07,420.21a214.41,214.41,0,0,1-11.45-25.91"/><path class="lth_5" d="M439.28,388.06c-.47-2.34-.86-4.45-1.1-6.16"/><path class="lth_5" d="M444.77,417.68c-.34-6.19-2.9-17.25-4.8-26.24"/><path class="lth_5" d="M454.34,401.7a98.91,98.91,0,0,0,4.93-22.62"/><path class="lth_5" d="M392.92,435.79c-1.82-1.31-3.9-2.68-6.11-2.33"/><path class="lth_5" d="M393.83,465a10.24,10.24,0,0,0-3.42,2"/><path class="lth_5" d="M421.91,418.78a15.23,15.23,0,0,0-2.19-4.58"/><path class="lth_5" d="M430.07,392.37a16.65,16.65,0,0,0-1.65-4"/><path class="lth_5" d="M406,482.44a8.38,8.38,0,0,0-2.6,2.7"/><path class="lth_5" d="M423.67,483.84l-1.79,3.72"/><path class="lth_5" d="M449.19,493a12.84,12.84,0,0,0,1.74,6"/><path class="lth_2" d="M478.22,431.92c.82-1,1.55-2.05,2.46-3a24.56,24.56,0,0,1,2.86-2.63,23.44,23.44,0,0,1,6.73-3.84,25.57,25.57,0,0,1,7.49-1.63l1.9-.06c.64,0,1.27,0,1.9.07a22.56,22.56,0,0,1,3.86.55l-.88,3.61a21.93,21.93,0,0,0-3.16-.29c-.54,0-1.09,0-1.63,0l-1.63.13a21.65,21.65,0,0,0-6.23,1.66,19.42,19.42,0,0,0-5.35,3.39,21.84,21.84,0,0,0-2.24,2.27c-.7.79-1.27,1.72-1.92,2.56Z"/><path class="lth_2" d="M478.11,420.23c1.11-.55,2.17-1.19,3.32-1.65a23.77,23.77,0,0,1,3.51-1.19,22.55,22.55,0,0,1,7.36-.73,24.57,24.57,0,0,1,7.2,1.49,25.64,25.64,0,0,1,6.5,3.47l-1.15,1.46a24.12,24.12,0,0,0-6-3,22.88,22.88,0,0,0-6.64-1.21,20.33,20.33,0,0,0-6.63.82,20.94,20.94,0,0,0-3.16,1.15c-1,.44-2,1.06-3,1.57Z"/><circle class="lth_3" cx="439.84" cy="454.04" r="26.05" transform="translate(-160.31 255.48) rotate(-27.6)"/><circle class="lth_2" cx="439.84" cy="454.04" r="13.75" transform="translate(-160.31 255.48) rotate(-27.6)"/><path class="lth_4" d="M428.4,510.6c-2.94-5.46-7.83-9-12.94-12.25-6.35-4.1-12.93-7.84-19.23-12-11.27-7.52-21.87-17.08-25.5-30.6-1.58-5.86-10.68-3.37-9.1,2.5,3.48,12.94,12.27,23.15,22.72,31.16A213.77,213.77,0,0,0,403,501.7c6,3.68,13.8,7.23,17.26,13.66,2.88,5.35,11,.6,8.15-4.76Z"/><line class="lth_6" x1="424.33" y1="512.98" x2="424.33" y2="512.98"/><path class="lth_7" d="M416.26,504.53l-1.66-1.12c-9.6-6.31-19.83-11.71-28.82-18.86-7.44-5.92-14.11-13.29-17.74-22"/><line class="lth_6" x1="366.18" y1="456.96" x2="366.18" y2="456.96"/><path class="lth_4" d="M513.31,400.63c-7.71-5.54-16.94-11.4-26.88-9.1-4.49,1.05-8.14,3.85-12,6.28a47.72,47.72,0,0,1-15,6.21,67.9,67.9,0,0,1-30.8-.6c-9.28-2.28-23.15-10.54-18.09-22.26,1.59-3.68-3.83-6.88-5.43-3.17-3.83,8.88-.35,18.62,7,24.59,8.23,6.7,19.8,8.53,30.1,9.06,10.9.56,22.18-1.21,31.91-6.34,5.62-3,10.56-8.13,17.31-8,6.93.13,13.31,4.91,18.7,8.78,3.29,2.36,6.44-3.09,3.18-5.43Z"/><path class="lth_4" d="M411.57,374.4c-1.57,7.45,2.59,13,7.92,16.13a31.08,31.08,0,0,0,12.87,4.3c10.7,1,24.49-2.3,34-7.36,4.26-2.27,8.12-5.24,12.46-7.34s9.44-3.27,14-1.66a8.45,8.45,0,0,0,1.86.56c2,.22,3.74-1.5,4.37-3.4s.46-3.94.5-5.94a26.18,26.18,0,0,1,4.86-14.56,54.32,54.32,0,0,0,6.13,18c2.2,4,5.94,9.72,6.77,14.17,1.62,8.8-1.32,16.91-3.55,18.53-2,1.46-11.24-8.42-13.48-9.46-5.26-2.46-7-5.33-12.62-3.76-9.75,2.74-17.14,11.27-27,13.73-5.71,1.43-11.73.66-17.51-.45s-13.08,1.56-18.56-.18C419.36,404,416,398,411.69,394.57s-7.87-9.45-7.17-14.88a8.76,8.76,0,0,1,1.73-3.46Z"/><path class="lth_8" d="M510.39,374.16a19.33,19.33,0,0,0,6.74,24.16"/><ellipse class="lth_2" cx="539.91" cy="444.85" rx="1.74" ry="4.41" transform="translate(-158.69 481.75) rotate(-42.51)"/><path class="lth_9" d="M581.55,577.39a47.7,47.7,0,0,1,3.21-8.17,35.2,35.2,0,0,1,5.23-7.28l3.42,3.37a31,31,0,0,0-5.24,5.91,45.47,45.47,0,0,0-3.7,7.23Z"/><path class="lth_9" d="M566.71,573.35a88.53,88.53,0,0,0,.17-17.45l4.8-.2a93,93,0,0,1-1.9,18.13Z"/><path class="lth_9" d="M551.34,576a127.5,127.5,0,0,1-4.63-16.63l4.75-.74a124.16,124.16,0,0,0,2.85,16.49Z"/><path class="lth_10" d="M476.43,563a34.09,34.09,0,0,1,1-6.29,26.29,26.29,0,0,1,2.56-6l2.95,1.85a22.48,22.48,0,0,0-2.78,5,32.07,32.07,0,0,0-1.49,5.69Z"/><path class="lth_10" d="M465.29,562.42A64.58,64.58,0,0,0,462.68,550l3.36-.89a67,67,0,0,1,1.5,13.13Z"/><path class="lth_10" d="M454.81,566.67a93.17,93.17,0,0,1-5.87-11l3.24-1.27a89.32,89.32,0,0,0,4.6,11.22Z"/></svg>
