<svg id="Layer_1" data-name="Layer 1" xmlns="http://www.w3.org/2000/svg" viewBox="0 0 1507.89 890.26"><defs><style>.lnf_1{fill:#367d75;}.lnf_10,.lnf_11,.lnf_12,.lnf_14,.lnf_15,.lnf_2,.lnf_6,.lnf_8,.lnf_9{fill:none;}.lnf_15,.lnf_2,.lnf_6,.lnf_9{stroke:#fff;}.lnf_2{stroke-linecap:round;stroke-linejoin:round;stroke-width:4.93px;}.lnf_3{fill:#304a63;}.lnf_4{fill:#5ea4a0;}.lnf_5{fill:#e5af36;}.lnf_10,.lnf_11,.lnf_12,.lnf_14,.lnf_15,.lnf_6,.lnf_8,.lnf_9{stroke-miterlimit:10;}.lnf_10,.lnf_6{stroke-width:0.69px;}.lnf_7{fill:#fff;}.lnf_8{stroke:#e3a848;}.lnf_8,.lnf_9{stroke-width:1.37px;}.lnf_10,.lnf_11,.lnf_14{stroke:#304a63;}.lnf_11{stroke-width:0.51px;}.lnf_12{stroke:#5ea4a0;stroke-width:0.67px;}.lnf_13{fill:#e3ab35;}.lnf_14{stroke-width:1.91px;}.lnf_15{stroke-width:1.14px;}</style></defs><title>3</title><path class="lnf_2" d="M1099.54,484.84c3.58-7.66,7.2-15.43,8.64-23.76s.47-17.43-4.49-24.28-14.48-10.68-22.31-7.49c-5.64,2.3-9.56,7.77-11.28,13.62s-1.49,12.09-.83,18.15a112.72,112.72,0,0,0,4.2,20.84c3,9.88,7.59,19.26,10.43,29.2s3.85,20.89-.21,30.4c0,0-15.84,48.51-108.23,17.61-28.87-9.66-45.45-25.5-54.6-42.73"/><path class="lnf_3" d="M1094.9,488.16c-.29,3.33,1,6.59,1.22,9.93A16.77,16.77,0,0,1,1093,509a14.18,14.18,0,0,0,5.16-3.9,11.15,11.15,0,0,0,1.68-4.52c-.16,2.52,1.7,2.86,1.19,5.86,4.16-2.85,5.43-9.35,4.51-14.31-.42-2.31-1.64-4.39-2.57-6.56a10.88,10.88,0,0,1-.9-6.8C1098,479.45,1095.23,484.42,1094.9,488.16Z"/><path class="lnf_4" d="M671.84,550.09a3.81,3.81,0,0,1,1,.43h0c2.74,1.6,5.75,6.61,6.43,10.36a6.76,6.76,0,0,1,.05,2.36,3,3,0,0,1-.16.61c-1.22,3.13-9,5.55-11.17,7.51s-17-14.75-19.86-30.7a29.13,29.13,0,0,1-.41-3.46C647.08,526.76,667.61,549,671.84,550.09Z"/><path class="lnf_3" d="M878.19,504.56a8.25,8.25,0,0,1,5.83.06h0l10.15,3.92,39.58,15.32,9.5-2.11-8,2.7h0c-.14.32,11.25-7.59,8-2.71-6.56,9.93-32.44,36.73-50.51,40.82-15.5,3.52-30.81-2.5-30.81-2.5-29.69,1.47-102.28-20.13-102.28-20.13-11.83,5.45-72.16,21.18-80.33,23.3-.59.14-.91.24-.91.24a17.86,17.86,0,0,1-3.47-1.49c-7.2-4.13-3-10.9-3-10.9s.31-.19.88-.57h0c7.76-4.93,63.29-40,73.47-41.62,10.94-1.76,100.46,6.28,106.11,4.69,1-.27,2.45-.74,4.23-1.36C863,510.11,873.21,506.39,878.19,504.56Z"/><path class="lnf_5" d="M810,553.81l-14.19-2.7c-4.74-.86-9.48-1.92-14.14-3.23s-9.24-2.9-13.8-4.41l-13.69-4.57.66-1.95,13.64,4.74c4.56,1.57,9.06,3.24,13.66,4.56s9.24,2.45,14,3.37l14.15,2.88Z"/><path class="lnf_5" d="M723.21,552.79a1.41,1.41,0,0,1-1.66,0c-15-10.52-13.82-22.16-13.76-22.65a1.42,1.42,0,1,1,2.82.32c-.05.43-.92,10.52,12.57,20a1.43,1.43,0,0,1,.35,2A1.39,1.39,0,0,1,723.21,552.79Z"/><path class="lnf_5" d="M699.94,533.72c-.74.53-.78,1.77-.48,2.91a2,2,0,0,0,2.56,1.43c4.34-1.33,8.26-3.7,12.5-5.31,4.62-1.75,7.26-3.88,10.13-3.89a11.07,11.07,0,0,1,4.42,1,1.05,1.05,0,0,0,1.31-1.5,17.67,17.67,0,0,0-2-2.69,3.81,3.81,0,0,1-1.19-1.87,3.28,3.28,0,0,1,1.19-2.51,24.06,24.06,0,0,1,2.69-2.45.79.79,0,0,0-.52-1.41,10.66,10.66,0,0,1-2.18-.2S703.4,531.21,699.94,533.72Z"/><path class="lnf_6" d="M651.16,537.59c2.62,12,9.91,22.35,18,31.57"/><path class="lnf_4" d="M673.83,484.88a3.49,3.49,0,0,1,.84.68h0c2.22,2.27,3.79,7.89,3.46,11.69a6.68,6.68,0,0,1-.57,2.29,3.2,3.2,0,0,1-.32.54c-2,2.7-10.11,3-12.76,4.3-2.49,1.22-12.52-18.74-11-34.86a29.86,29.86,0,0,1,.52-3.45C656.12,455.84,670,482.69,673.83,484.88Z"/><path class="lnf_3" d="M884.87,495.56a8.25,8.25,0,0,1,5.61,1.6h0l8.75,6.46,34.12,25.25,9.72.48-8.42.48h0c-.23.28,12.86-4.34,8.44-.49-9,7.84-41,26.84-59.51,26-15.88-.71-29-10.56-29-10.56-29-6.44-93.31-46.47-93.31-46.47-12.85,2.12-75.2,1.34-83.63,1.22-.61,0-1,0-1,0a18.86,18.86,0,0,1-3-2.35c-5.85-5.89,0-11.3,0-11.3l1-.32h0c8.79-2.7,71.61-21.81,81.86-20.7,11,1.2,95.22,32.63,101.1,32.59,1,0,2.56-.06,4.44-.19C868.75,496.89,879.59,496,884.87,495.56Z"/><path class="lnf_5" d="M806.07,525l-13-6.36c-4.35-2.08-8.64-4.36-12.79-6.85s-8.13-5.25-12.13-7.9l-12-8,1.15-1.7,11.9,8.18c4,2.72,7.88,5.52,12,8s8.27,4.81,12.58,6.95l12.89,6.51Z"/><path class="lnf_5" d="M722.66,501.07a1.4,1.4,0,0,1-1.61-.42c-11.64-14.1-7.46-25-7.28-25.48a1.42,1.42,0,0,1,2.63,1.05c-.15.41-3.66,9.9,6.84,22.63a1.43,1.43,0,0,1-.19,2A1.39,1.39,0,0,1,722.66,501.07Z"/><path class="lnf_5" d="M705.26,476.53c-.85.32-1.22,1.5-1.23,2.68a2,2,0,0,0,2.09,2.05c4.53-.13,9-1.38,13.46-1.81,4.91-.47,8-1.82,10.8-1.07a11.16,11.16,0,0,1,4,2.11,1,1,0,0,0,1.65-1.1,16.82,16.82,0,0,0-1.23-3.13,3.83,3.83,0,0,1-.65-2.12A3.26,3.26,0,0,1,736,472a26,26,0,0,1,3.24-1.66.79.79,0,0,0-.12-1.49,9.93,9.93,0,0,1-2.05-.77S709.26,475,705.26,476.53Z"/><path class="lnf_6" d="M657.2,467.36c-.64,12.22,3.64,24.17,9,35.19"/><path class="lnf_7" d="M792.32,464.11s1.93,9.78,3.36,8.23.77-10,.77-10Z"/><path class="lnf_7" d="M796.09,459.33a2.51,2.51,0,0,1,.32.77c.91,3.44-3,10.29-3.45,11a.25.25,0,0,1,0,.06s-1,8-2.1,8.6-.63-7.53-.63-7.53l-2.25-.19s-3.13,7-5.5,7.15,2.94-9.17,2.94-9.17l-2.19-.09s-6.76,6.66-8.51,6.09c-.83-.28.49-2.15,2.1-4,1.7-2,3.73-3.94,3.73-3.94a56.71,56.71,0,0,1-6.72,3.43,2.57,2.57,0,0,1-1.59.27c-1.14-.56,5.11-4.29,8.1-7.89s6.35-7.38,6.35-7.38,4.6-.22,7.53,1.24A4.64,4.64,0,0,1,796.09,459.33Z"/><path class="lnf_7" d="M786.11,457.84,820,395.94a5.79,5.79,0,0,1,1.82-2l34.29-19.17,1.9,23.87-20.63,8.74L796.18,462.5"/><path class="lnf_7" d="M858,398.62s8.45-14-1.9-23.87"/><path class="lnf_8" d="M799.42,458.16s-3-8.28-9.44-7.38"/><path class="lnf_4" d="M854.41,397.16a6,6,0,0,0-.37-6.64l-.68.53a5.21,5.21,0,0,1,.31,5.67Z"/><path class="lnf_4" d="M846.83,402.77a4.93,4.93,0,0,0-1.37-5.84l-.53.67a4.1,4.1,0,0,1,1.12,4.8Z"/><path class="lnf_4" d="M848.9,396.1l.86,0a3.44,3.44,0,0,0-3.49-3.24l0,.86a2.46,2.46,0,0,1,1.77.69A2.42,2.42,0,0,1,848.9,396.1Z"/><path class="lnf_4" d="M839.14,403.59l.85.13a4,4,0,0,0-3.22-4.41l-.14.85A3.17,3.17,0,0,1,839.14,403.59Z"/><path class="lnf_4" d="M833.71,407.87a3.15,3.15,0,0,0-2.47-3.69l-.13.85a2.1,2.1,0,0,1,1.42,1,2.18,2.18,0,0,1,.35,1.69Z"/><path class="lnf_4" d="M828.7,414a3.3,3.3,0,0,0-1.58-3.47,8.85,8.85,0,0,0-3.52-1.07l-.13.85a8.29,8.29,0,0,1,3.19.94,2.48,2.48,0,0,1,1.21,2.52Z"/><path class="lnf_4" d="M823.08,418.9l.82-.27a3.7,3.7,0,0,0-2.95-2.46l-.12.85A2.83,2.83,0,0,1,823.08,418.9Z"/><path class="lnf_4" d="M819.15,425.89l.85.13a4.51,4.51,0,0,0-2.19-4.51l-.42.75A3.69,3.69,0,0,1,819.15,425.89Z"/><path class="lnf_4" d="M815.54,430.63l.77-.37a4.45,4.45,0,0,0-4.87-2.35l.19.84A3.63,3.63,0,0,1,815.54,430.63Z"/><path class="lnf_4" d="M815.5,426.85l.83-.21a3.49,3.49,0,0,0-3.24-2.56v.86A2.64,2.64,0,0,1,815.5,426.85Z"/><path class="lnf_4" d="M812.48,435.31l.37-.77a9.79,9.79,0,0,0-5-.94l.07.85A9.08,9.08,0,0,1,812.48,435.31Z"/><path class="lnf_4" d="M801.46,440.65a4,4,0,0,1,2.89-1,4.07,4.07,0,0,1,2.84,1.2l.62-.58a5.05,5.05,0,0,0-6.95-.19Z"/><path class="lnf_4" d="M800.11,447.09a6.94,6.94,0,0,1,4-2.5l-.17-.84a7.71,7.71,0,0,0-4.55,2.82Z"/><path class="lnf_4" d="M827.69,407l.63-.59a7.33,7.33,0,0,0-5.26-2.27V405A6.4,6.4,0,0,1,827.69,407Z"/><path class="lnf_4" d="M834.56,402.76l.51-.69a12.08,12.08,0,0,0-6.25-2.29l-.06.85A11.27,11.27,0,0,1,834.56,402.76Z"/><path class="lnf_4" d="M840.47,398.08l.86-.06a4.77,4.77,0,0,0-3.55-4.18l-.2.84A3.91,3.91,0,0,1,840.47,398.08Z"/><path class="lnf_4" d="M877.54,493.65a34.71,34.71,0,0,0-23.73-31.17c-5.07-1.58-10.56-2-15.25-4.47-4-2.13-7-5.52-9.53-9.35-2.92-4.46-3.43-12.34.92-15.43s10.63-4.55,15-7.9c-1.54,6,4,11.5,9.66,14s12.17,3.64,16.56,8c7.78,7.7,5.2,21.48,11.82,30.2"/><path class="lnf_4" d="M854.68,484.88c-3.51-.95-7.29-2.44-10.65-1-2.26.95-3.82,3.06-5,5.2-7.32,13.3-3.6,30.53,5.32,42.82s22.14,20.65,35.2,28.39c2.48,1.47,5.08,3,8,3.2s5.42-.73,8-1.74a149,149,0,0,0,73.75-63.63c-12.14,3.17-24.56,5.62-37.11,5.54s-26-1.2-36.61-7.8c-3.38-2.09-9.68-3.95-11.13-7.65-1.06-2.72,4.95-10.23,2.32-10.49-1.53-.15-6.48-1.63-8.46-.84C871.19,479.64,862,486.86,854.68,484.88Z"/><path class="lnf_7" d="M850.48,528a130.77,130.77,0,0,0,14.57-4.82,103.68,103.68,0,0,0,13.77-6.72,73,73,0,0,0,22.6-20.31l.63.45A73.67,73.67,0,0,1,879.14,517a103.67,103.67,0,0,1-13.88,6.7,132.49,132.49,0,0,1-14.65,4.77Z"/><path class="lnf_7" d="M843,530.44a.31.31,0,0,1,.1-.43l.14-.1.24-.1c.16-.07.31-.12.46-.17l.91-.28,1.8-.52.19.75-1.83.39-.91.21a4.43,4.43,0,0,0-.43.12l-.2.07,0,0c-.06,0,.11,0,0-.23Z"/><polygon class="lnf_7" points="930.26 529.67 942.02 531.89 941.89 532.65 930.15 530.16 930.26 529.67"/><path class="lnf_7" d="M859.58,485.05a18.15,18.15,0,0,0,1.26,4.55c.33.72.62,1.46,1,2.17l1.16,2.09a42.79,42.79,0,0,0,5.92,7.49l1.69,1.7c.56.57,1.2,1.05,1.8,1.58a46.73,46.73,0,0,0,3.73,3c1.31.92,2.59,1.88,3.92,2.77l4.11,2.49c1.34.87,2.79,1.55,4.22,2.29s2.84,1.47,4.28,2.17l4.42,1.89,2.21,1,1.11.47,1.13.4,4.53,1.62,2.26.81,1.13.41,1.15.34,9.23,2.73-.2.74L910.38,525l-1.16-.35-1.13-.41-2.28-.82-4.54-1.65-1.13-.41-1.11-.47-2.22-1L892.38,518c-1.45-.71-2.87-1.47-4.31-2.2a47,47,0,0,1-4.23-2.32l-4.13-2.52c-1.34-.9-2.63-1.87-3.94-2.81a43.43,43.43,0,0,1-3.75-3.05c-.61-.53-1.25-1-1.82-1.6l-1.7-1.72a43.62,43.62,0,0,1-6-7.62L861.36,492c-.37-.72-.67-1.48-1-2.22a18.45,18.45,0,0,1-1.28-4.71Z"/><path class="lnf_7" d="M883.65,531.91a200.56,200.56,0,0,0,36.12,17.18l-.27.73a201.2,201.2,0,0,1-36.12-17.48Z"/><path class="lnf_7" d="M850.49,483.74a22.44,22.44,0,0,0,0,7,32.08,32.08,0,0,0,.65,3.47c.28,1.14.67,2.25,1,3.38a46.79,46.79,0,0,0,6.77,12.36l1.06,1.42.53.71.58.66,2.35,2.66a34.81,34.81,0,0,0,2.48,2.53l2.54,2.47c1.82,1.51,3.61,3.05,5.45,4.53l5.74,4.17-.44.64-5.75-4.22c-1.85-1.5-3.65-3.07-5.47-4.6l-2.56-2.5c-.83-.85-1.74-1.63-2.49-2.56l-2.35-2.7-.59-.67-.53-.72-1.06-1.44a47.26,47.26,0,0,1-6.8-12.55c-.32-1.15-.71-2.28-1-3.44a35.82,35.82,0,0,1-.64-3.53,22.77,22.77,0,0,1,.09-7.18Z"/><path class="lnf_7" d="M844.26,484a34.68,34.68,0,0,0-1.74,12.57,45.43,45.43,0,0,0,2.3,12.54,55.38,55.38,0,0,0,5.5,11.52,73.11,73.11,0,0,0,7.82,10.13,104.76,104.76,0,0,0,19.7,16.35,178.54,178.54,0,0,0,22.5,12.35l-.33.7a180.14,180.14,0,0,1-22.56-12.46,105.65,105.65,0,0,1-19.78-16.51,73,73,0,0,1-7.86-10.24,55.34,55.34,0,0,1-5.53-11.66c-2.66-8.17-3.32-17.22-.48-25.48Z"/><path class="lnf_7" d="M869.76,554.1a106.1,106.1,0,0,0,15.18-8.16,89.92,89.92,0,0,0,13.57-10.61,56.44,56.44,0,0,0,10.56-13.48,43.22,43.22,0,0,0,3.29-7.9,38.93,38.93,0,0,0,1.37-8.43l.77,0a39.14,39.14,0,0,1-1.43,8.6,43.31,43.31,0,0,1-3.38,8A57.11,57.11,0,0,1,899,535.79a89.64,89.64,0,0,1-13.7,10.62,106.33,106.33,0,0,1-15.3,8.16Z"/><path class="lnf_7" d="M835.69,497.56a51.42,51.42,0,0,0,13.21,1.71,83.81,83.81,0,0,0,13.33-1l3.29-.58c1.11-.17,2.18-.47,3.28-.71,2.18-.45,4.32-1.09,6.47-1.7,1.08-.28,2.13-.66,3.18-1l3.17-1.08c2.09-.79,4.15-1.65,6.23-2.47l.3.71c-2.09.82-4.17,1.67-6.27,2.45l-3.2,1.08c-1.06.35-2.12.73-3.21,1-2.17.6-4.32,1.24-6.53,1.68-1.1.23-2.18.52-3.29.7l-3.33.56a82.69,82.69,0,0,1-13.43.92A51.68,51.68,0,0,1,835.53,498Z"/><path class="lnf_7" d="M842.39,442.49c2.86,2.95,6.7,4.7,10.55,6.14s7.85,2.74,11.47,4.9a19.63,19.63,0,0,1,4.82,4A20,20,0,0,1,872.4,463a51.83,51.83,0,0,1,2.68,12.19l-.76.1a51.39,51.39,0,0,0-2.58-12,17.62,17.62,0,0,0-7.67-9.21c-3.51-2.12-7.47-3.41-11.34-4.91S845,445.89,842,442.83Z"/><path class="lnf_7" d="M839.6,435.6a6.09,6.09,0,0,0,.71,3.69l-.71.33a6.75,6.75,0,0,1-.49-4.11Z"/><path class="lnf_7" d="M835,455.25a81.46,81.46,0,0,1,23.94-10.66l.19.75a80.21,80.21,0,0,0-23.85,10.34Z"/><path class="lnf_7" d="M856.81,463.67a40.37,40.37,0,0,1,15.57-7.29l.17.76a39.65,39.65,0,0,0-15.44,6.93Z"/><path class="lnf_7" d="M855,475.43c-1.44-1-2.88-2-4.33-2.93a10.14,10.14,0,0,0-2.3-1.11,6.43,6.43,0,0,0-2.47-.24,22.32,22.32,0,0,0-4.94,1.48,9.58,9.58,0,0,1-5.34.7l.18-.76a8.84,8.84,0,0,0,4.93-.61,22.74,22.74,0,0,1,5.11-1.44,6.78,6.78,0,0,1,2.72.3,10.82,10.82,0,0,1,2.41,1.19c1.48,1,2.88,2,4.32,3Z"/><path class="lnf_5" d="M895,356.48l.15,3.14,2.35,48.13-33.92-.36s-7.82,5.4-16.35-3.17c-.11-.1-.23-.23-.34-.35-3.07-3.19-5.18-8.16-6.16-13.23a35,35,0,0,1-.58-5c-.31-7.44,2.12-13.86,8-13.51C859.24,372.75,895,356.48,895,356.48Z"/><path class="lnf_3" d="M931,422a67.41,67.41,0,0,1,10.89-33.79c3.53-5.39,7.86-10.3,10.59-16.14,2.4-5.16,3.36-11.42,1.16-16.55-1-.11-1.93-.22-2.93-.3-11.91-1.06-26.84-.4-38.25.45-10.13.74-17.47,1.66-17.47,1.66a25,25,0,0,0-11,9.95,20.12,20.12,0,0,1,6.48,8.32c2.56,6,3.07,12.72,5.55,18.76,2.39,5.83,6.48,10.76,9.74,16.14,9,14.8,11.41,33,8.75,50.07-2.59,16.68-6.86,27.77-16.17,41.86.24.07,4.47,1.21,8,2.05a4.37,4.37,0,0,0,4.64-1.79c13.38-19.78,20.1-39,20.25-63.18C931.25,433.63,930.74,427.79,931,422Z"/><path class="lnf_5" d="M905.77,410.46c-3.26-5.38-7.35-10.31-9.74-16.14-2.48-6-3-12.76-5.55-18.76a20.12,20.12,0,0,0-6.48-8.32c-5.51,9-6.68,21.7-5.44,34,1.48,15.09,6.59,29.63,11.76,36.22,11.37,14.56-7.87,36.38-7.87,36.38s-17.22,3-15.11,15.12a15.78,15.78,0,0,0,1.15,3.74c1.8,4.07,8.38,7.94,17.3,11.2,2.05.77,4.24,1.5,6.51,2.18h0a4.23,4.23,0,0,0,4.83-1.79c8.46-13.39,14.93-28.16,17.36-43.78C917.18,443.44,914.72,425.26,905.77,410.46Z"/><path class="lnf_5" d="M966,358.49c-3-1.44-7.36-2.4-12.39-3,2.2,5.13,1.24,11.39-1.16,16.55-2.73,5.84-7.06,10.75-10.59,16.14A67.41,67.41,0,0,0,931,422c-.26,5.83.25,11.67.21,17.51-.14,23.4-9.06,46-22,65.65a3.59,3.59,0,0,0,2.33,5.52h0l.56.1c21,3.67,42.85,4,49.33-1.8l.56-.51c18.29-16.95,23.16-54.19,21.33-87.37C981.67,389.9,974,362.3,966,358.49Z"/><path class="lnf_3" d="M920.8,411.31c0,.21,0,.41,0,.59A3.86,3.86,0,0,0,920.8,411.31Z"/><path class="lnf_5" d="M931.74,353.87c-1.75.12-6.92-.27-8.58.3-1.91.64,1.11,3.4-.52,4.57l-13.36,9.58q-.37-5.86-1.11-11.7a78.25,78.25,0,0,1-9.3.76c-3,13-.52,23.55,9.76,34.51a98.41,98.41,0,0,1,7.06,7.84,34,34,0,0,1,3.32,6,1.35,1.35,0,0,0,2.56-.27l0-.07a96.3,96.3,0,0,1,12.35-23.92h0c1.68-2.28,3.28-4.63,4.85-7.2,1.92-3.14,3.74-6.46,4.29-10.1.4-2.63.13-6.07-1.57-8.26C939.57,353.46,934.61,353.68,931.74,353.87Z"/><path class="lnf_7" d="M931.57,364.07c-.38,3.65-4.37,11.53-9.09,16.9-1.07,1.21-4.51,4.27-6.11,4.5a4.33,4.33,0,0,1-2.7-.7c-5.21-2.92-7.56-9.09-9.25-14.82a9.47,9.47,0,0,1-.57-3.6,6.75,6.75,0,0,1,1.36-3.24c2.19-3,3.82-6.18,7.34-7.36,3.15-1.06,11.14-2,14.46-1C930.48,355.77,931.89,361,931.57,364.07Z"/><path class="lnf_5" d="M965.55,358.27c2.67,1.39,31.92,16,40.16,24.62,3.58,3.75,3.22,11.2,1,18.77a58.76,58.76,0,0,1-3.68,9.47,40.7,40.7,0,0,1-7.53,11.11,8.47,8.47,0,0,1-3.64,2.24c-8.17,1.8-10.19-9.53-10.19-9.53l-18.57-10.6S961.75,357.65,965.55,358.27Z"/><path class="lnf_5" d="M859,380.42c-1.09-.92-2-2-3-3.06a22.13,22.13,0,0,0-16.33-6.51c-3,.11-6,.83-8.94.36a10.14,10.14,0,0,1-3.66-1.33c1.22,3.31,4.14,5.74,7.27,7.39a10.4,10.4,0,0,0,3.94,1.33,16.89,16.89,0,0,0,4.34-.56c3.55-.66,7.4-.51,10.49,1.35a33,33,0,0,0,3.08,1.93,21.11,21.11,0,0,0,5.93,1.29C862.15,382,859.62,380.91,859,380.42Z"/><path class="lnf_5" d="M1008.21,394.16c.18-1.42,1.33-5.77,1.65-7.16a22.1,22.1,0,0,0-3.4-17.25c-1.71-2.46-4-4.59-5.15-7.33a10.12,10.12,0,0,1-.86-3.79c-2.13,2.83-2.58,6.6-2.27,10.13a10.34,10.34,0,0,0,1,4,16.66,16.66,0,0,0,2.82,3.35c2.48,2.62,4.44,5.94,4.56,9.54a34,34,0,0,0,0,3.64"/><polygon class="lnf_3" points="920.75 361.45 921.45 363.65 921.03 363.79 920.12 361.72 920.75 361.45"/><path class="lnf_7" d="M1048.59,491.69s7.73,6.3,7.84,4.19-5.82-8.22-5.82-8.22Z"/><path class="lnf_7" d="M1048.44,485.61a2.41,2.41,0,0,1,.75.38c2.89,2.07,4.22,9.87,4.34,10.65a.32.32,0,0,1,0,.07s4.31,6.79,3.87,8-5.3-5.39-5.3-5.39l-1.84,1.29s2.06,7.41.32,9-3.59-8.94-3.59-8.94l-1.74,1.33s-1,9.44-2.66,10.12c-.83.32-1-2-.93-4.4,0-2.61.36-5.41.36-5.41a58.6,58.6,0,0,1-3,6.92c-.4.69-.77,1.16-1.06,1.22-1.23.3,1.19-6.56,1.21-11.24s.17-9.73.17-9.73,3.4-3.1,6.59-3.85A4.44,4.44,0,0,1,1048.44,485.61Z"/><path class="lnf_7" d="M1050.38,488.33l-19.08-68A5.77,5.77,0,0,0,1030,418l-29.07-26.41-7.24,22.83,18.12,13.16,27.73,63"/><path class="lnf_7" d="M993.67,414.41s-5.08-15.54,7.24-22.83"/><path class="lnf_8" d="M1037.33,485.63s4.81-7.38,10.87-5.06"/><path class="lnf_3" d="M917.88,378a10.58,10.58,0,0,1,3.65-9l.86,1.07a9.48,9.48,0,0,0-3.63,7.85Z"/><path class="lnf_3" d="M914.85,380.84a8.54,8.54,0,0,0-1.23-3.75,6.24,6.24,0,0,0-2.85-2.47l.56-1.26a7.54,7.54,0,0,1,3.27,3.15,9.69,9.69,0,0,1,1.14,4.27Z"/><path class="lnf_4" d="M841,468.57c-2.24.22-4.4,1-6.64,1.28a18,18,0,0,1-10.06-1.51c-.27,1.69.8,3.29,1.84,4.65,2.69,3.5,6.34,7.14,10.74,6.77,3.23-.27,5.75-3,8.89-3.77,8-2,10.41,1.38,13.06,1.91C857.62,469.68,844.87,468.18,841,468.57Z"/><path class="lnf_3" d="M983.62,421.4c-1.31-1.79-1.65-3.92-2.47-5.69a6.12,6.12,0,0,0-1.67-2.26,25.1,25.1,0,0,0-2.5-1.63l-10.47-6.4.73-1.16,10.34,6.6a26.5,26.5,0,0,1,2.59,1.77,7.09,7.09,0,0,1,1.9,2.67c.84,2,1.14,4,2.27,5.58Z"/><path class="lnf_3" d="M880.74,415a106.31,106.31,0,0,1-3.42-23.21l1.38,0a105.16,105.16,0,0,0,2.9,23Z"/><path class="lnf_9" d="M960.79,358.79c3.29,11.95-.86,25-8.11,35-3.17,4.39-7,8.45-8.94,13.49-2.62,6.67-1.72,14.12-1.52,21.29C943,457.41,931.75,485.14,919,511"/><path class="lnf_9" d="M884.43,368.76c-1.81,13.51,4.5,26.67,11,38.68s13.45,24.59,13.16,38.23a71.33,71.33,0,0,1-1.67,12.41c-1,4.86-2,9.72-3.25,14.5-3.33,12.21-7,20.74-14.06,31.21"/><path class="lnf_5" d="M918.48,405.39a16.06,16.06,0,0,0-1.91,6,6.91,6.91,0,0,0,0,2.13,4.25,4.25,0,0,0,3.28,3.27,3.82,3.82,0,0,0,4.07-2.06,5.8,5.8,0,0,0,.23-3.38,15.67,15.67,0,0,0-1.54-4.66,14.06,14.06,0,0,1-1.56-3.53c-.08-.42-.06-1.58-.45-1.77-1-.49-.94,1.3-1,1.77C919.58,404.08,918.9,404.63,918.48,405.39Z"/><path class="lnf_7" d="M919.39,412.34a4.92,4.92,0,0,1,3.75,0,.88.88,0,0,1,.27.19.79.79,0,0,1,.12.62,3.17,3.17,0,0,1-2,2.41,3,3,0,0,1-1.63.22,2.62,2.62,0,0,1-1.55-1c-.26-.34-.86-1.2-.61-1.64S919,412.48,919.39,412.34Z"/><path class="lnf_7" d="M920.42,412.9c.14-1.85.21-3.7.22-5.55a.49.49,0,0,0-1,0q0,2.77-.21,5.55c0,.63.93.63,1,0Z"/><path class="lnf_7" d="M920.59,411.17a2.45,2.45,0,0,1,1.11-.92c.55-.29.06-1.13-.49-.84a3.34,3.34,0,0,0-1.46,1.27c-.29.56.55,1.05.84.49Z"/><path class="lnf_7" d="M920.23,409.17a5.24,5.24,0,0,0-1.07-.74c-.56-.28-1,.56-.49.84a4.3,4.3,0,0,1,.87.59c.47.41,1.16-.27.69-.69Z"/><path class="lnf_5" d="M925.36,408.12l1.47-1.23c.48-.4-.21-1.08-.69-.69l-1.47,1.23c-.48.4.21,1.09.69.69Z"/><path class="lnf_5" d="M925.58,413.64c.68.49,1.39.95,2.11,1.39.53.32,1-.52.49-.84-.72-.44-1.43-.9-2.11-1.39-.51-.36-1,.48-.49.84Z"/><path class="lnf_5" d="M916,406.67a8.9,8.9,0,0,1-1.54-.91c-.5-.37-1,.48-.49.84a8.9,8.9,0,0,0,1.54.91c.57.27,1.06-.57.49-.84Z"/><path class="lnf_5" d="M914.87,413.09a8.71,8.71,0,0,0-1.9.71c-.56.28-.06,1.12.49.84a7.78,7.78,0,0,1,1.67-.61c.61-.15.35-1.09-.26-.94Z"/><path class="lnf_5" d="M919.78,419.09c0,.59.05,1.19,0,1.78a.49.49,0,0,0,1,0,17.63,17.63,0,0,0,0-1.78c0-.62-1-.62-1,0Z"/><path class="lnf_3" d="M933.71,358.66a36.24,36.24,0,0,1,2.71,6.15L936,365a36.17,36.17,0,0,0-2.88-5.94Z"/><path class="lnf_10" d="M923.06,362.74c7.77-2.85,11.56-4.34,17.14-8.57"/><path class="lnf_11" d="M907.25,364.41a11.27,11.27,0,0,1-2.16-1.7"/><path class="lnf_11" d="M909.19,364.51a11.75,11.75,0,0,1-2.14-2.62"/><path class="lnf_11" d="M910.73,364.73a6.32,6.32,0,0,1-.92-2.63"/><path class="lnf_3" d="M960.38,328.21c2.49-25-7.92-49-37.73-51.66-31.62-2.81-45.39,17.67-47.89,42.69"/><circle class="lnf_7" cx="964" cy="318.52" r="14.67"/><circle class="lnf_3" cx="964" cy="318.52" r="7.74"/><circle class="lnf_7" cx="873.89" cy="309.53" r="14.67"/><circle class="lnf_3" cx="873.89" cy="309.53" r="7.74"/><path class="lnf_3" d="M960.28,312.37a27.39,27.39,0,0,0-8-16.54,10.88,10.88,0,0,0-1.51-1.3c-7.68-5-12.83-8.44-21.84-10-6.23-1.07-15.38-.61-21.7-.63-20.66-.07-25.08,10.25-25.08,10.25S868.68,319,877.3,338.75l0-.05c2.76,8.1,10.24,14.2,17,19.13a135.34,135.34,0,0,0,11.47,7.51c3,1.74,6.15,3.37,9.59,3.55,4.71.26,9.2-2.24,13.39-4a92.52,92.52,0,0,0,19.83-11.27,21.79,21.79,0,0,0,5-4.9l.17-.27C961.43,337.2,961.36,322,960.28,312.37Z"/><path class="lnf_12" d="M913.22,286.3a9.45,9.45,0,0,0-2.32-4.58"/><path class="lnf_12" d="M915.79,283.15a9.25,9.25,0,0,0-.26-2.82"/><path class="lnf_12" d="M908.31,284.08a8.59,8.59,0,0,0-2.95-2"/><path class="lnf_12" d="M904,286.54a11.35,11.35,0,0,0-3.59-2.05"/><path class="lnf_12" d="M929.87,288a9.52,9.52,0,0,1,3.18-4"/><path class="lnf_12" d="M928,284.37a8.84,8.84,0,0,1,.81-2.71"/><path class="lnf_12" d="M935.12,286.76a8.6,8.6,0,0,1,3.29-1.37"/><path class="lnf_12" d="M938.83,290a11.69,11.69,0,0,1,3.93-1.31"/><path class="lnf_12" d="M938.79,342.22a11.12,11.12,0,0,1,1.2,3.31,23.94,23.94,0,0,1-.18,4.93"/><path class="lnf_12" d="M937,339.42a10.52,10.52,0,0,1,1.13,1.6"/><path class="lnf_12" d="M943.69,339.63c1.66.77,3.86,3.05,3.87,4.88"/><path class="lnf_12" d="M947.7,335.17a4.74,4.74,0,0,1,3.59,2.74"/><path class="lnf_12" d="M951.36,331.11a2,2,0,0,1,1.94,1.24"/><path class="lnf_12" d="M952.42,325.16a2.92,2.92,0,0,1,1.82.47"/><path class="lnf_12" d="M935.14,349.4a26,26,0,0,1-.41,6.28"/><path class="lnf_12" d="M929.75,355.92a18,18,0,0,1-.82,4.14"/><path class="lnf_12" d="M921.17,358.58a5.07,5.07,0,0,1-.24,1.55,3.87,3.87,0,0,1-.59,1,9.87,9.87,0,0,1-1.49,1.54"/><path class="lnf_12" d="M944.48,336.4a5.29,5.29,0,0,1,2.18,1"/><path class="lnf_12" d="M944.3,346.53a4.93,4.93,0,0,1,.25,2.41"/><path class="lnf_12" d="M892.91,336.82a8.63,8.63,0,0,0-2.3,3.25,23.2,23.2,0,0,0-1.21,4.79"/><path class="lnf_12" d="M895.19,335.05a9.39,9.39,0,0,0-.94.7"/><path class="lnf_12" d="M887.63,334.45a5,5,0,0,0-3.62,3.73"/><path class="lnf_12" d="M885.72,329a4.75,4.75,0,0,0-4.06,2"/><path class="lnf_12" d="M882.93,324.29a2,2,0,0,0-2.14.83"/><path class="lnf_12" d="M883.07,318.24a3,3,0,0,0-1.88.11"/><path class="lnf_12" d="M895.22,345.42a21.53,21.53,0,0,0-1.38,5.54"/><path class="lnf_12" d="M899.22,352.88c-.1,1-.61,3.05-.37,4"/><path class="lnf_12" d="M907.11,357.18a5.14,5.14,0,0,0-.08,1.56,3.73,3.73,0,0,0,.39,1.12,9.17,9.17,0,0,0,1.15,1.8"/><path class="lnf_12" d="M888.64,330.83a5.3,5.3,0,0,0-2.35.58"/><path class="lnf_12" d="M886.81,340.79a4.93,4.93,0,0,0-.72,2.33"/><path class="lnf_12" d="M914,358.85a16.26,16.26,0,0,0-.06,5.48"/><path class="lnf_12" d="M953.37,319.49a3,3,0,0,1,2.18-.13"/><path class="lnf_12" d="M953,315a2.52,2.52,0,0,1,1.94-.56"/><path class="lnf_12" d="M952.35,310.28a6,6,0,0,1,2.41-2"/><path class="lnf_12" d="M950.43,306.21a5.64,5.64,0,0,1,1.83-2.41"/><path class="lnf_12" d="M883.23,312.5a3.06,3.06,0,0,0-2.12-.56"/><path class="lnf_12" d="M884.45,308.19a2.55,2.55,0,0,0-1.79-.93"/><path class="lnf_12" d="M886,303.67a6,6,0,0,0-2-2.43"/><path class="lnf_12" d="M888.73,300.06a5.53,5.53,0,0,0-1.31-2.72"/><path class="lnf_7" d="M950.9,326.82a37,37,0,0,0,0-4.47c-.66-5.54-1.17-6.31-2.86-10.9a30.27,30.27,0,0,0-3.46-5.64c-1.3-1.59-4.8-2.78-6.83-3.17a55.4,55.4,0,0,0-6.93-.75c-5-.19-7.2.57-11.42,2.11-3.84-2.34-5.82-3.52-10.78-4.32a52.33,52.33,0,0,0-7-.63c-2,0-5.73.45-7.31,1.75a30.89,30.89,0,0,0-4.51,4.85c-2.56,4.16-3.21,4.82-5,10.12a36.06,36.06,0,0,0-.91,4.37c-.4,2.35.94,4.65,2.48,6.47a14.8,14.8,0,0,0,4.75,3.91,21.28,21.28,0,0,0,7.59,1.63,26.08,26.08,0,0,0-3.48,8.94,18,18,0,0,0-.61,5.2c.35,5,4.64,9.23,9.53,10.45a9.68,9.68,0,0,0,3.21.3,19.37,19.37,0,0,0,6.78-1.26,19.4,19.4,0,0,0,6.39,2.57,9.63,9.63,0,0,0,3.21.34c5-.23,10.07-3.5,11.4-8.36a17.85,17.85,0,0,0,.43-5.21,26.15,26.15,0,0,0-1.65-9.46,21.57,21.57,0,0,0,7.77-.1,15,15,0,0,0,5.43-2.89C949.07,331.19,950.83,329.2,950.9,326.82Z"/><path class="lnf_7" d="M953.29,321.2a20.37,20.37,0,0,0-40.53-4c-1.11,11.19,10.12,17.56,21.31,18.68S952.17,332.39,953.29,321.2Z"/><path class="lnf_7" d="M923.76,318.56a20.37,20.37,0,0,0-40.53-4c-1.11,11.19,5.62,17.41,16.81,18.53S922.64,329.75,923.76,318.56Z"/><path class="lnf_13" d="M943.66,316.93a11.5,11.5,0,0,0-17.7-9c-1.24.8-2.33,1.83-3.63,2.53a5.56,5.56,0,0,1-2.63.7,3.64,3.64,0,0,0-.81-.11,4.27,4.27,0,0,0-.82-.06,5.49,5.49,0,0,1-2.44-1.2c-1.14-.94-2-2.17-3.06-3.19a11.49,11.49,0,0,0-19.13,5.34,9.89,9.89,0,0,0,.74,7.17c1.68,3.1,5.05,4.84,8.27,6.28a16.58,16.58,0,0,0,12.23,25.86h0l.2,0,.2,0h0a16.58,16.58,0,0,0,17.09-22.94c3.44-.77,7.09-1.82,9.35-4.52A9.91,9.91,0,0,0,943.66,316.93Z"/><ellipse class="lnf_3" cx="921.8" cy="332.8" rx="1.82" ry="0.9" transform="translate(-37.52 533.22) rotate(-31.65)"/><ellipse class="lnf_3" cx="911.03" cy="331.72" rx="0.9" ry="1.82" transform="translate(46.81 771.2) rotate(-46.96)"/><path class="lnf_3" d="M936.6,321.84a11.46,11.46,0,0,0-2.67-1.53,9.58,9.58,0,0,0-3-.69,10.52,10.52,0,0,0-3.1.25,11,11,0,0,0-2.9,1.1l-1-1.51a12.94,12.94,0,0,1,3.4-1.49,12.53,12.53,0,0,1,3.67-.46,11.35,11.35,0,0,1,3.69.67,13.71,13.71,0,0,1,3.32,1.7Z"/><path class="lnf_3" d="M936,315.73a12.56,12.56,0,0,0-3.23-.26,9.85,9.85,0,0,0-3.16.7,10.93,10.93,0,0,0-2.83,1.62,11.32,11.32,0,0,0-2.25,2.34l-.76-.48a12.25,12.25,0,0,1,2.4-2.62,11.92,11.92,0,0,1,3-1.84,11,11,0,0,1,3.47-.85,13.33,13.33,0,0,1,3.57.2Z"/><path class="lnf_3" d="M898.91,316a14.08,14.08,0,0,1,3.6-1,11.18,11.18,0,0,1,3.74.07,13,13,0,0,1,6.55,3.31l-1.26,1.28a11.09,11.09,0,0,0-2.62-1.65,10.36,10.36,0,0,0-3-.85,9.25,9.25,0,0,0-3.06.08,11.79,11.79,0,0,0-2.92,1Z"/><path class="lnf_3" d="M901.76,311.11a12.89,12.89,0,0,1,3.54.51,10.61,10.61,0,0,1,3.23,1.51,12,12,0,0,1,2.62,2.4,12.39,12.39,0,0,1,1.84,3.05l-.84.32a11.27,11.27,0,0,0-1.75-2.74A10.91,10.91,0,0,0,908,314a9.93,9.93,0,0,0-3-1.3,12,12,0,0,0-3.22-.39Z"/><path class="lnf_3" d="M909.51,341.88a.35.35,0,0,0-.11.1s0,0,0,.1a2.28,2.28,0,0,0,.45.58,16.34,16.34,0,0,0,1.4,1.12l.76.57a5,5,0,0,0,.7.47,8.36,8.36,0,0,0,1.63.63,21,21,0,0,0,7.18.72l-.55.76a12.53,12.53,0,0,0-1.65-3.44,7.32,7.32,0,0,0-2.72-2.45,5.51,5.51,0,0,0-3.52-.39,10.55,10.55,0,0,0-3.46,1.45Zm-.62-1a12.08,12.08,0,0,1,4-1.57,6.83,6.83,0,0,1,4.35.57,8.4,8.4,0,0,1,3.18,2.93,13.44,13.44,0,0,1,1.78,3.84l.21.71-.75,0a21.71,21.71,0,0,1-7.56-.9,8.21,8.21,0,0,1-1.83-.75,4.92,4.92,0,0,1-.83-.58l-.73-.56a16.33,16.33,0,0,1-1.48-1.23,3,3,0,0,1-.66-.91,1.09,1.09,0,0,1,0-.8,1.19,1.19,0,0,1,.5-.57Z"/><path class="lnf_13" d="M951.69,297.39a3.49,3.49,0,0,1,3.55-4.22h0A40.07,40.07,0,0,1,944.71,291c-2.44-.92-4.72-2.26-7.19-3.09s-5.29-1.11-7.63.06a4.86,4.86,0,0,1-1,.43,2.47,2.47,0,0,1-2.58-1.53,11.13,11.13,0,0,1-.67-3.15c-.19-1.32-1-11.87-2.85-12.08s-5.07,9.94-5.54,11.24a10.58,10.58,0,0,1-1.28,3,2.48,2.48,0,0,1-2.83,1,4.56,4.56,0,0,1-.85-.61c-2.06-1.61-4.88-1.89-7.47-1.56s-5.08,1.18-7.66,1.61a42.61,42.61,0,0,1-11.92-.33c-2.55,2-3.17,4.11-3.87,5.4.24.11.65.68.88.8A20.45,20.45,0,0,0,891,295c5.63.45,11.05-2.86,16.72-2.34,3.08.28,5.17,2.94,5.47,6a3.35,3.35,0,0,0,.32,1,13.34,13.34,0,0,0,.45,1.54,6.27,6.27,0,0,0,11.22,1.16c.26-.44.5-.88.71-1.32a.08.08,0,0,1,0,0c2.32-4.75,4.58-6.26,7.69-5.8,5.43.81,10,4.89,15.42,5.54a15.81,15.81,0,0,0,6.77-.65A3.51,3.51,0,0,1,951.69,297.39Z"/><path class="lnf_13" d="M958.55,295.94a3.5,3.5,0,0,0-3.31-2.77c.87.36,1.5,1.11,1.75,2.7,0,0,.36,2.87-.85,4.14l-.32.09h0A3.51,3.51,0,0,0,958.55,295.94Z"/><path class="lnf_13" d="M957,295.87c-.25-1.59-.88-2.34-1.75-2.7a3.5,3.5,0,1,0,.58,6.93l.32-.09C957.35,298.74,957,295.87,957,295.87Z"/><path class="lnf_13" d="M887.71,288.56a3.5,3.5,0,0,0-3.31-2.77,3.41,3.41,0,0,0-.84.07,3.5,3.5,0,0,0,1.42,6.86h0A3.5,3.5,0,0,0,887.71,288.56Z"/><path class="lnf_14" d="M896,271.12a7.7,7.7,0,0,1,3.21,9.47"/><path class="lnf_14" d="M902.21,271.13a7.69,7.69,0,0,1-3.07,9.51"/><ellipse class="lnf_15" cx="920.54" cy="292.78" rx="8.72" ry="3.12" transform="translate(537.88 1179.74) rotate(-84.31)"/><path class="lnf_5" d="M876.86,334.25a17.74,17.74,0,0,0,.78,2.29c.32.77.68,1.54,1.06,2.29a43.4,43.4,0,0,0,2.63,4.38c1,1.41,2,2.76,3.12,4.08.55.66,1.14,1.29,1.71,1.94l1.78,1.87-1,1-1.89-1.84c-.61-.64-1.23-1.26-1.82-1.92-1.18-1.32-2.33-2.67-3.38-4.1a43.59,43.59,0,0,1-2.92-4.48c-.43-.78-.85-1.58-1.22-2.41a17.85,17.85,0,0,1-1-2.62Z"/><path class="lnf_5" d="M920.57,367.28a54.78,54.78,0,0,0,7.28-2.65c2.39-1,4.72-2.19,7-3.43s4.52-2.57,6.7-4,4.31-2.93,6.4-4.48l1.29,1.76c-2.17,1.52-4.36,3-6.63,4.4s-4.57,2.68-6.92,3.91-4.78,2.32-7.24,3.32a58.16,58.16,0,0,1-7.58,2.55Z"/><path class="lnf_4" d="M998.2,411.62a6.05,6.05,0,0,1,2.17-6.29l.51.69a5.23,5.23,0,0,0-1.85,5.37Z"/><path class="lnf_4" d="M1004,419.08a4.91,4.91,0,0,1,2.91-5.24l.33.79a4.11,4.11,0,0,0-2.4,4.31Z"/><path class="lnf_4" d="M1003.79,412.1l-.82-.25a3.44,3.44,0,0,1,4.24-2.17l-.27.82a2.59,2.59,0,0,0-3.15,1.6Z"/><path class="lnf_4" d="M1011.14,422l-.85-.11a4,4,0,0,1,4.3-3.36l-.1.85A3.18,3.18,0,0,0,1011.14,422Z"/><path class="lnf_4" d="M1015.19,427.57a3,3,0,0,1,1.1-2.14,3,3,0,0,1,2.28-.74l-.1.86a2.12,2.12,0,0,0-1.63.53,2.16,2.16,0,0,0-.79,1.53Z"/><path class="lnf_4" d="M1018.35,434.82a3.28,3.28,0,0,1,2.46-2.9,8.64,8.64,0,0,1,3.68-.07l-.1.85a8.3,8.3,0,0,0-3.33,0,2.47,2.47,0,0,0-1.85,2.09Z"/><path class="lnf_4" d="M1022.41,441.08l-.71-.48a3.71,3.71,0,0,1,3.51-1.57l-.12.85A2.85,2.85,0,0,0,1022.41,441.08Z"/><path class="lnf_4" d="M1024.29,448.88l-.85-.11a4.48,4.48,0,0,1,3.33-3.74l.21.83A3.69,3.69,0,0,0,1024.29,448.88Z"/><path class="lnf_4" d="M1026.47,454.42l-.64-.57a4.45,4.45,0,0,1,5.32-.93l-.41.76A3.62,3.62,0,0,0,1026.47,454.42Z"/><path class="lnf_4" d="M1027.54,450.8l-.74-.44a3.49,3.49,0,0,1,3.81-1.57l-.22.83A2.64,2.64,0,0,0,1027.54,450.8Z"/><path class="lnf_4" d="M1028.14,459.76l-.15-.85a9.89,9.89,0,0,1,5.06.46l-.29.81A9,9,0,0,0,1028.14,459.76Z"/><path class="lnf_4" d="M1037.28,467.9a4.19,4.19,0,0,0-5.55-1.41l-.44-.74a5.07,5.07,0,0,1,6.74,1.72Z"/><path class="lnf_4" d="M1036.82,474.47a6.85,6.85,0,0,0-3.2-3.51l.39-.76a7.69,7.69,0,0,1,3.61,3.95Z"/><path class="lnf_4" d="M1021.23,428.35l-.44-.74a7.33,7.33,0,0,1,5.68-.74l-.24.82A6.44,6.44,0,0,0,1021.23,428.35Z"/><path class="lnf_4" d="M1015.77,422.42l-.3-.81a12.13,12.13,0,0,1,6.64-.49l-.18.84A11.16,11.16,0,0,0,1015.77,422.42Z"/><path class="lnf_4" d="M1011.36,416.31l-.81-.3a4.77,4.77,0,0,1,4.56-3.05l0,.86A3.94,3.94,0,0,0,1011.36,416.31Z"/></svg>
