<svg id="Layer_1" data-name="Layer 1" xmlns="http://www.w3.org/2000/svg" xmlns:xlink="http://www.w3.org/1999/xlink" viewBox="0 0 1507.89 890.26"><defs><style>.luchar-1{fill:#367d75;}.luchar-2{opacity:0.8;}.luchar-3{fill:url(#lgluchar);}.luchar-4{fill:url(#lgluchar-2);}.luchar-5{fill:url(#lgluchar-3);}.luchar-6{fill:url(#lgluchar-4);}.luchar-7{fill:#304a63;}.luchar-8{fill:#fff;}.luchar-9{fill:#5ea4a0;}.luchar-10,.luchar-11,.luchar-12,.luchar-14,.luchar-15,.luchar-16,.luchar-18,.luchar-19{fill:none;}.luchar-10,.luchar-16{stroke:#5ea4a0;}.luchar-10,.luchar-11,.luchar-12,.luchar-15,.luchar-16,.luchar-18,.luchar-19{stroke-miterlimit:10;}.luchar-10{stroke-width:0.42px;}.luchar-11,.luchar-14,.luchar-19{stroke:#fff;}.luchar-11{stroke-width:0.45px;}.luchar-12{stroke:#e5af36;stroke-width:1.43px;}.luchar-13{fill:#e5af36;}.luchar-14{stroke-linecap:round;stroke-linejoin:round;stroke-width:5.74px;}.luchar-15,.luchar-18{stroke:#304a63;}.luchar-15{stroke-width:0.84px;}.luchar-16{stroke-width:0.44px;}.luchar-17{fill:#e3ab35;}.luchar-18{stroke-width:1.26px;}.luchar-19{stroke-width:0.75px;}</style><linearGradient id="lgluchar" x1="780.32" y1="412.19" x2="780.95" y2="377.37" gradientUnits="userSpaceOnUse"><stop offset="0" stop-color="#3b6660" stop-opacity="0"/><stop offset="1" stop-color="#305051"/></linearGradient><linearGradient id="lgluchar-2" x1="729.02" y1="363.97" x2="729.44" y2="340.7" xlink:href="#lgluchar"/><linearGradient id="lgluchar-3" x1="697.89" y1="434.68" x2="698.52" y2="399.87" xlink:href="#lgluchar"/><linearGradient id="lgluchar-4" x1="711.04" y1="482.12" x2="711.68" y2="447.31" xlink:href="#lgluchar"/></defs><title>11</title><g class="luchar-2"><path class="luchar-3" d="M838.88,401.07c-3.88-3.24-10.19,1.58-14.71-.71C819.49,398,820,389.71,815,388.2c-3.12-.94-6.92,1.4-9.77.67-.06-4.09-.81-7.84-3.62-10.68-.87-1.18-4.08-3.4-8.33-3.4-11.87,0-12.93,7.77-13.84,10.74-3,.22-6.24-3-9.56-2.77-5.23.4-6.54,8.59-11.62,9.89-4.9,1.26-10-4.81-14.52-2.48-3,1.56-3.31,5.82-5.58,8.36-1.88,2.12-4.9,2.78-7.72,3s-5.75.19-8.35,1.33l-.07,0a3.5,3.5,0,0,0,.65,6.57h114.2a4.08,4.08,0,0,0,3.94-5.19A6.23,6.23,0,0,0,838.88,401.07Z"/></g><g class="luchar-2"><path class="luchar-4" d="M768.17,356.54c-2.6-2.16-6.82,1-9.84-.47s-2.8-7.12-6.16-8.14c-2.08-.62-4.62.94-6.52.46,0-2.74-.55-5.25-2.42-7.14a7.6,7.6,0,0,0-5.57-2.28c-7.94,0-8.65,5.2-9.26,7.18-2,.15-4.17-2-6.39-1.85-3.49.26-4.37,5.74-7.77,6.61s-6.7-3.21-9.7-1.66c-2,1.05-2.22,3.9-3.73,5.59-1.26,1.42-3.28,1.86-5.17,2a17.05,17.05,0,0,0-5.57.88l-.06,0a2.35,2.35,0,0,0,.44,4.4h76.34a2.74,2.74,0,0,0,2.64-3.48A4.15,4.15,0,0,0,768.17,356.54Z"/></g><g class="luchar-2"><path class="luchar-5" d="M756.45,423.57c-3.88-3.24-10.19,1.57-14.71-.71-4.68-2.37-4.19-10.65-9.21-12.17-3.12-.94-6.92,1.41-9.77.68-.06-4.09-.81-7.84-3.62-10.68-.87-1.18-4.08-3.4-8.33-3.4-11.87,0-12.93,7.77-13.84,10.73-3,.22-6.24-3-9.56-2.76-5.23.39-6.54,8.59-11.62,9.89-4.9,1.25-10-4.81-14.52-2.49-3,1.57-3.31,5.83-5.58,8.37-1.88,2.11-4.9,2.77-7.72,3s-5.75.19-8.35,1.32l-.07,0a3.5,3.5,0,0,0,.65,6.57H754.4a4.09,4.09,0,0,0,3.94-5.2A6.2,6.2,0,0,0,756.45,423.57Z"/></g><g class="luchar-2"><path class="luchar-6" d="M769.61,471c-3.89-3.24-10.2,1.57-14.72-.71-4.68-2.37-4.19-10.66-9.21-12.17-3.12-.94-6.91,1.41-9.76.68-.07-4.09-.82-7.85-3.62-10.68-.87-1.19-4.09-3.41-8.33-3.4-11.87,0-12.94,7.77-13.85,10.73-3,.22-6.24-3-9.55-2.76-5.23.39-6.54,8.59-11.63,9.88-4.9,1.26-10-4.8-14.52-2.48-3,1.56-3.31,5.83-5.57,8.37-1.89,2.11-4.9,2.77-7.73,3s-5.75.18-8.34,1.32l-.08,0a3.49,3.49,0,0,0,.65,6.56h114.2a4.08,4.08,0,0,0,3.94-5.19A6.19,6.19,0,0,0,769.61,471Z"/></g><polygon class="luchar-7" points="764.34 407.87 800.5 407.87 780.83 467.73 759.46 467.73 764.34 407.87"/><path class="luchar-8" d="M776.07,355.11a5.55,5.55,0,0,1,.86-2.37,4.91,4.91,0,0,1,3.11-1.45,52.41,52.41,0,0,1,9.43-.92,15,15,0,0,1,5.95.9c3,1.28,5,4.09,7.4,6.31s5.17,3.86,7.09,6.41a18,18,0,0,1,3.1,8.37,34.72,34.72,0,0,1-1,14.41c-2.76,9.67-9.55,17.6-16.14,25.19a5.93,5.93,0,0,1-1.53,1.39c-.78.43-.64,3.89-1.52,3.93-7.43.35-15.92-2.95-23.35-3.07a10,10,0,0,1-2.67-.28,10.21,10.21,0,0,1-2.6-1.3L753.6,406a10.17,10.17,0,0,1-2.36-1.8c-2-2.29-1.56-6,.07-8.55s4.19-4.42,6.43-6.5a36.61,36.61,0,0,0,10.14-16.31,25.73,25.73,0,0,1,4.1-8.17A28.36,28.36,0,0,0,776.07,355.11Z"/><path class="luchar-9" d="M800.62,363.79a13.52,13.52,0,0,1-.24,4.45,23.59,23.59,0,0,1-1.3,4.21,24.83,24.83,0,0,1-2,3.91c-.75,1.24-1.55,2.44-2.17,3.72l-.49-.23c.62-1.34,1.41-2.57,2.14-3.81a24.92,24.92,0,0,0,1.88-3.85,23.45,23.45,0,0,0,1.19-4.1,13.08,13.08,0,0,0,.16-4.18Z"/><path class="luchar-10" d="M789.63,389.32l-1.69-5.42a1.93,1.93,0,0,1,1.3-2.44l5.49-1.63,1.69,5.43a1.93,1.93,0,0,1-1.31,2.45Z"/><path class="luchar-9" d="M791.06,386.67l-.75-2.39a.86.86,0,0,1,.58-1.08l2.42-.72.74,2.4a.85.85,0,0,1-.57,1.08Z"/><path class="luchar-7" d="M805.63,364.27s5.13,5.13,1.71,13.68c-2.53,6.33-7.88,20.64-10.48,27.63a9.62,9.62,0,0,0,.48,7.79l30.26,57.91,7.92-4.54-24.26-52.66a9.6,9.6,0,0,1-.09-7.82l8.88-20.58s7-19.18-2.45-28.26Z"/><path class="luchar-7" d="M794,415.75l-27.83-16.4a2.9,2.9,0,0,1-.87-4.21l24.09-33-9.22-5.86S768.88,368.16,752,391.7a9.54,9.54,0,0,0,3.69,14.2l35.81,16.76Z"/><path class="luchar-7" d="M741.47,471.48C717.67,470.11,722.3,430,722.3,430c.86-44.47,54.18-81.28,54.18-81.28l6.5,4.5-18.5,23.5-8,16,1.5,10,2.5,5,9.83,9.33s-1.29,49.3-21.82,54.54C747.07,472,743.06,471.58,741.47,471.48Z"/><ellipse class="luchar-11" cx="737.97" cy="395.69" rx="6.78" ry="1.25" transform="translate(58.04 884.43) rotate(-63.91)"/><ellipse class="luchar-11" cx="758.18" cy="374.79" rx="6.8" ry="1.25" transform="translate(-3.42 742.59) rotate(-52.08)"/><ellipse class="luchar-8" cx="745.81" cy="382.34" rx="4.83" ry="0.89" transform="matrix(0.56, -0.83, 0.83, 0.56, 12.13, 787.47)"/><ellipse class="luchar-8" cx="747.66" cy="387.87" rx="4.83" ry="0.89" transform="translate(8.36 791.44) rotate(-56.05)"/><ellipse class="luchar-8" cx="760.96" cy="364.87" rx="2.73" ry="0.5" transform="translate(-42.88 621.85) rotate(-43.35)"/><ellipse class="luchar-8" cx="766.01" cy="364.52" rx="2.73" ry="0.5" transform="translate(-35.65 642.01) rotate(-44.54)"/><ellipse class="luchar-8" cx="754.07" cy="372.1" rx="2.73" ry="0.5" transform="translate(-11.82 719.22) rotate(-50.65)"/><ellipse class="luchar-8" cx="736.16" cy="407.48" rx="2.73" ry="0.5" transform="translate(91.03 947.65) rotate(-68.91)"/><ellipse class="luchar-8" cx="743.63" cy="396.8" rx="2.73" ry="0.5" transform="translate(27.68 841.6) rotate(-59.94)"/><path class="luchar-7" d="M799.78,411.75c4.2,3.42,5.52,6.23,5.71,11.65.13,3.78-1.2,7.87-2.52,11.42-3.56,9.58-11.31,25.3-14.87,34.88L778.25,467l12.29-42.71,6.29-18.51Z"/><path class="luchar-12" d="M798,403.17a26.22,26.22,0,0,0,2.51,16.56L811,439.63"/><path class="luchar-13" d="M777.64,466l8.44-23,2.11-5.77,1-2.87a4.21,4.21,0,0,0,0-2.65,5.29,5.29,0,0,0-1.53-2.25,8.27,8.27,0,0,0-2.48-1.43l-5.64-2.41.51-1.18,5.62,2.46a9.54,9.54,0,0,1,2.79,1.66,6.44,6.44,0,0,1,1.84,2.79,5.28,5.28,0,0,1,0,3.38l-1.08,2.89-2.16,5.74-8.66,23Z"/><path class="luchar-7" d="M761.07,407s18.92,2.47,15.5,15.29c0,0-14.86,36.63-19.14,49.45l-10.33.07Z"/><polygon class="luchar-8" points="791.45 422.66 795.43 424.9 796.58 443.14 800.41 443.09 802.7 421.47 793.65 415.49 791.45 422.66"/><path class="luchar-8" d="M834.34,464.5l3.56,1.82a13.35,13.35,0,0,0,4.73.78l18.25-.21a3.06,3.06,0,0,1,1.85.61l3.57,2.7a.42.42,0,0,1-.25.75l-38.41.43-3.5-6.5Z"/><path class="luchar-8" d="M790,464.42l3.08,1.85a5.86,5.86,0,0,0,3.06.83l18.25-.21a3.06,3.06,0,0,1,1.85.61l3.57,2.7a.42.42,0,0,1-.25.75l-44.86.43,4-6.91Z"/><path class="luchar-8" d="M759.49,464.77l3.08,1.85a5.76,5.76,0,0,0,3.06.82l18.25-.2a3.06,3.06,0,0,1,1.85.61l3.57,2.7a.42.42,0,0,1-.25.75l-42,.39,1.46-6.56Z"/><path class="luchar-14" d="M732.06,460.94c-9.2,2.58-19.41.59-27.44-4.59a23.12,23.12,0,0,1-6.48-5.9A22.81,22.81,0,0,1,694.41,439c-1-12,4.18-23.73,11-33.66s15.31-18.6,22.31-28.4A131.35,131.35,0,0,0,740,355.5c3-6.45,5.52-13.26,5.79-20.36s-2-14.58-7.43-19.21c-7.47-6.42-19.4-5.69-27.4,0s-12.45,15.43-13.94,25.16-.36,19.66.77,29.44"/><path class="luchar-7" d="M701.73,375.94c-.91,3.79-3.5,6.93-5,10.52a19.42,19.42,0,0,0-.61,13.23c-1.74-1.84-3.53-3.78-4.26-6.2a13,13,0,0,1-.19-5.63c-.75,2.85-2.93,2.54-3.47,6-3.55-4.69-2.56-12.33.29-17.47,1.33-2.4,3.44-4.25,5.26-6.3a12.62,12.62,0,0,0,3.51-7.18C701.5,365.17,702.75,371.69,701.73,375.94Z"/><ellipse class="luchar-7" cx="783.06" cy="403.03" rx="2.4" ry="0.94" transform="translate(21.2 844.83) rotate(-57.34)"/><path class="luchar-13" d="M755.07,437l1.61-6.64.8-3.31a6.78,6.78,0,0,0-3.92-7.74l-6.21-2.84.61-1.3,6.16,3a8.22,8.22,0,0,1,2.9,2.24,8,8,0,0,1,1.55,6.94l-.87,3.31L756,437.26Z"/><polygon class="luchar-13" points="747.17 467.26 754.09 440.9 754.99 441.13 748.56 467.61 747.17 467.26"/><path class="luchar-13" d="M772.88,432.68c-4.32,10.95-8.58,21.93-13,32.86l-1.33-.54c4.53-10.86,8.95-21.78,13.43-32.66Z"/><path class="luchar-13" d="M781.29,418.7c-3.34-1.61-6.64-3.29-10-4.84l-10.07-4.73-5-2.37a14.83,14.83,0,0,1-4.51-3.6,9.22,9.22,0,0,1-2.06-5.42,10.8,10.8,0,0,1,1.4-5.62h0l0,0,6.63-9,.75.55-6.56,9,0,0a9.85,9.85,0,0,0-1.21,5.05,8.14,8.14,0,0,0,1.87,4.78,13.68,13.68,0,0,0,4.16,3.26l5,2.32,20.19,9.34Z"/><polygon class="luchar-13" points="785.11 358.58 786.6 359.9 786.1 360.68 784.28 359.75 785.11 358.58"/><path class="luchar-15" d="M773,466.67c1.72-.19,6.94.75,8.59,1.25.87.27,2.41.32,2.1,3.25"/><path class="luchar-13" d="M749.66,455.21c4.46,2.61,9.24,4.76,14.27,2.36,2.08-1,.26-4.09-1.81-3.1-3.69,1.76-7.5-.52-10.65-2.36a1.8,1.8,0,0,0-1.81,3.1Z"/><path class="luchar-13" d="M781.52,454.79c4.58,2.28,9.56,4.25,14.4,1.52,2-1.13.2-4.23-1.81-3.1-3.59,2-7.45.14-10.78-1.52-2.06-1-3.87,2.07-1.81,3.1Z"/><path class="luchar-13" d="M818.56,457.62c4.85.61,10.17.76,13.64-3.26,1.51-1.74-1-4.29-2.53-2.54-2.82,3.27-7.25,2.7-11.11,2.22-2.28-.29-2.26,3.3,0,3.58Z"/><path class="luchar-13" d="M782.77,419.6c2.86-2.12,5.83-4.67,5.62-8.57-.11-2-3.28-2-3.17,0,.15,2.69-2.1,4.39-4.05,5.83-1.63,1.2,0,3.95,1.6,2.74Z"/><path class="luchar-7" d="M828.82,337.52c0-16.55-8.38-31.57-28.08-31.36-20.88.22-28.57,14.53-28.57,31.08"/><circle class="luchar-8" cx="830.56" cy="330.94" r="9.65"/><circle class="luchar-7" cx="830.56" cy="330.94" r="5.09"/><circle class="luchar-8" cx="770.97" cy="330.94" r="9.65"/><circle class="luchar-7" cx="770.97" cy="330.94" r="5.09"/><path class="luchar-7" d="M827.72,327.16a18,18,0,0,0-6.29-10.31,6.69,6.69,0,0,0-1.08-.76c-5.35-2.74-9-4.69-15-5.11-4.14-.3-10.11.6-14.25,1-13.53,1.3-15.75,8.35-15.75,8.35s-7.23,17.14-.3,29.52l0,0c2.33,5.12,7.63,8.62,12.39,11.41a89.26,89.26,0,0,0,8,4.17,14.51,14.51,0,0,0,6.51,1.7c3.11-.15,5.88-2.08,8.51-3.51a61.21,61.21,0,0,0,12.25-8.68,14.3,14.3,0,0,0,3-3.53l.09-.19C830.09,343.34,829.05,333.38,827.72,327.16Z"/><path class="luchar-16" d="M795.2,313.16a6.2,6.2,0,0,0-1.81-2.85"/><path class="luchar-16" d="M796.68,310.93a6.05,6.05,0,0,0-.35-1.83"/><path class="luchar-16" d="M791.85,312a5.65,5.65,0,0,0-2.06-1.11"/><path class="luchar-16" d="M789.2,313.91a7.8,7.8,0,0,0-2.48-1.11"/><path class="luchar-16" d="M806.22,313.16a6.14,6.14,0,0,1,1.82-2.85"/><path class="luchar-16" d="M804.74,310.93a6.05,6.05,0,0,1,.35-1.83"/><path class="luchar-16" d="M809.58,312a5.57,5.57,0,0,1,2.06-1.11"/><path class="luchar-16" d="M812.22,313.91a7.8,7.8,0,0,1,2.48-1.11"/><path class="luchar-16" d="M815.6,348.11a7.42,7.42,0,0,1,1,2.08,15.26,15.26,0,0,1,.2,3.24"/><path class="luchar-16" d="M814.24,346.39a7.51,7.51,0,0,1,.84,1"/><path class="luchar-16" d="M818.64,346.09c1.13.39,2.72,1.75,2.85,2.94"/><path class="luchar-16" d="M821,342.91a3.09,3.09,0,0,1,2.53,1.56"/><path class="luchar-16" d="M823.11,340a1.29,1.29,0,0,1,1.34.68"/><path class="luchar-16" d="M823.41,336a1.92,1.92,0,0,1,1.22.2"/><path class="luchar-16" d="M813.68,353a17.37,17.37,0,0,1,.14,4.14"/><path class="luchar-16" d="M810.57,357.66a12.16,12.16,0,0,1-.26,2.77"/><path class="luchar-16" d="M805.13,360a4,4,0,0,1,0,1,2.64,2.64,0,0,1-.33.7,6.27,6.27,0,0,1-.87,1.11"/><path class="luchar-16" d="M818.94,343.92a3.51,3.51,0,0,1,1.5.53"/><path class="luchar-16" d="M819.48,350.56a3.29,3.29,0,0,1,.33,1.57"/><path class="luchar-16" d="M785.2,347.56a5.58,5.58,0,0,0-1.29,2.28,15.09,15.09,0,0,0-.48,3.22"/><path class="luchar-16" d="M786.58,346.26a5.89,5.89,0,0,0-.57.51"/><path class="luchar-16" d="M781.59,346.36a3.28,3.28,0,0,0-2.13,2.67"/><path class="luchar-16" d="M780,342.91a3.12,3.12,0,0,0-2.53,1.56"/><path class="luchar-16" d="M777.85,340a1.31,1.31,0,0,0-1.35.68"/><path class="luchar-16" d="M777.54,336a1.93,1.93,0,0,0-1.22.2"/><path class="luchar-16" d="M787.28,353a13.55,13.55,0,0,0-.54,3.72"/><path class="luchar-16" d="M790.38,357.66a11.25,11.25,0,0,0,0,2.66"/><path class="luchar-16" d="M795.83,360a3.25,3.25,0,0,0,0,1,2.64,2.64,0,0,0,.33.7,5.84,5.84,0,0,0,.87,1.11"/><path class="luchar-16" d="M782,343.92a3.47,3.47,0,0,0-1.49.53"/><path class="luchar-16" d="M781.47,350.56a3.17,3.17,0,0,0-.32,1.57"/><path class="luchar-16" d="M800.47,360.61a10.61,10.61,0,0,0,.32,3.59"/><path class="luchar-16" d="M823.66,332.27a2,2,0,0,1,1.42-.23"/><path class="luchar-16" d="M823.14,329.37a1.67,1.67,0,0,1,1.23-.49"/><path class="luchar-16" d="M822.4,326.3c.1-.44,1-1.24,1.44-1.46"/><path class="luchar-16" d="M820.87,323.77a3.61,3.61,0,0,1,1-1.7"/><path class="luchar-16" d="M777.28,332.27a2,2,0,0,0-1.43-.23"/><path class="luchar-16" d="M777.8,329.37a1.68,1.68,0,0,0-1.24-.49"/><path class="luchar-16" d="M778.54,326.3c-.1-.44-1-1.24-1.44-1.46"/><path class="luchar-16" d="M780.06,323.77a3.59,3.59,0,0,0-1-1.7"/><path class="luchar-8" d="M822.52,337.23a24.06,24.06,0,0,0-.31-2.93,22.51,22.51,0,0,0-2.58-6.95,20,20,0,0,0-2.63-3.46c-1-1-3.33-1.51-4.68-1.63a35,35,0,0,0-4.58,0,16.19,16.19,0,0,0-7.35,2.13,16.11,16.11,0,0,0-7.34-2.13,35.15,35.15,0,0,0-4.59,0c-1.35.12-3.72.67-4.67,1.63a20,20,0,0,0-2.64,3.46,22.51,22.51,0,0,0-2.58,6.95,24.06,24.06,0,0,0-.31,2.93c-.11,1.56.92,3,2,4.07a9.74,9.74,0,0,0,3.36,2.25,14,14,0,0,0,5.08.57,17.24,17.24,0,0,0-1.7,6.08,11.74,11.74,0,0,0,0,3.45c.55,3.26,3.63,5.74,6.92,6.21a6.29,6.29,0,0,0,2.12,0,12.92,12.92,0,0,0,4.35-1.28,13,13,0,0,0,4.36,1.28,6.29,6.29,0,0,0,2.12,0c3.28-.47,6.36-2.95,6.92-6.21a11.74,11.74,0,0,0-.06-3.45,17.22,17.22,0,0,0-1.69-6.08,14,14,0,0,0,5.08-.57,9.83,9.83,0,0,0,3.36-2.25A5.48,5.48,0,0,0,822.52,337.23Z"/><path class="luchar-8" d="M823.72,333.39a13.4,13.4,0,0,0-26.8,0c0,7.41,7.77,10.84,15.17,10.84S823.72,340.8,823.72,333.39Z"/><path class="luchar-8" d="M804.21,333.59a13.4,13.4,0,0,0-26.8,0c0,7.4,4.82,11,12.22,11S804.21,341,804.21,333.59Z"/><path class="luchar-17" d="M817.14,331.22A7.56,7.56,0,0,0,805,326.48c-.77.6-1.41,1.35-2.22,1.89a3.63,3.63,0,0,1-1.67.63,7.3,7.3,0,0,0-1.08,0,3.63,3.63,0,0,1-1.67-.63c-.81-.54-1.45-1.29-2.22-1.89a7.56,7.56,0,0,0-12.18,4.74,6.55,6.55,0,0,0,1,4.65c1.3,1.92,3.62,2.84,5.82,3.57a10.92,10.92,0,0,0,9.7,16.14h.26a10.92,10.92,0,0,0,9.7-16.14c2.2-.73,4.52-1.65,5.82-3.57A6.55,6.55,0,0,0,817.14,331.22Z"/><ellipse class="luchar-7" cx="803.86" cy="343.04" rx="1.2" ry="0.59" transform="translate(-43.3 557.95) rotate(-37.34)"/><ellipse class="luchar-7" cx="796.74" cy="343.04" rx="0.59" ry="1.2" transform="translate(40.71 768.36) rotate(-52.66)"/><path class="luchar-7" d="M812.83,334.9a7.49,7.49,0,0,0-1.85-.83,6.08,6.08,0,0,0-2-.25,7,7,0,0,0-2,.36,7.63,7.63,0,0,0-1.83.91l-.74-.92a8.85,8.85,0,0,1,2.13-1.2,8.32,8.32,0,0,1,2.38-.54,7.51,7.51,0,0,1,2.45.2,9,9,0,0,1,2.29.9Z"/><path class="luchar-7" d="M812,330.94a8.06,8.06,0,0,0-2.14.05,6.39,6.39,0,0,0-2,.66,7.08,7.08,0,0,0-1.74,1.24,7.57,7.57,0,0,0-1.33,1.68l-.53-.26a8.44,8.44,0,0,1,1.4-1.88,7.87,7.87,0,0,1,1.88-1.4,7.29,7.29,0,0,1,2.21-.78,8.83,8.83,0,0,1,2.35-.1Z"/><path class="luchar-7" d="M787.77,333.53a9,9,0,0,1,2.29-.9,7.55,7.55,0,0,1,2.46-.2,8.26,8.26,0,0,1,2.37.54,8.49,8.49,0,0,1,2.13,1.2l-.74.92a7.63,7.63,0,0,0-1.83-.91,6.91,6.91,0,0,0-2-.36,6.11,6.11,0,0,0-2,.25,7.66,7.66,0,0,0-1.85.83Z"/><path class="luchar-7" d="M789.32,330.15a8.81,8.81,0,0,1,2.35.1,7.25,7.25,0,0,1,2.22.78,8,8,0,0,1,1.87,1.4,8.15,8.15,0,0,1,1.4,1.88l-.53.26a7.82,7.82,0,0,0-1.32-1.68,7.13,7.13,0,0,0-1.75-1.24,6.23,6.23,0,0,0-2-.66,8,8,0,0,0-2.13-.05Z"/><path class="luchar-7" d="M804.19,349.86a4.36,4.36,0,0,0-1.92-1.05,4.09,4.09,0,0,0-2.17-.05,13.52,13.52,0,0,0-4.28,1.57l-.47-.83A14.43,14.43,0,0,1,800,348a4.88,4.88,0,0,1,2.51.15,5.11,5.11,0,0,1,2.14,1.28Z"/><path class="luchar-17" d="M821.12,317.91a2.32,2.32,0,0,1,1.5-2.9,3.41,3.41,0,0,1,.54-.1h0a26.26,26.26,0,0,1-7-.72c-1.66-.45-3.23-1.17-4.91-1.56a6.63,6.63,0,0,0-5,.54,3.21,3.21,0,0,1-.6.34,1.61,1.61,0,0,1-1.79-.83,7,7,0,0,1-.64-2c-.22-.85-1.41-7.71-2.66-7.72s-2.67,6.84-2.89,7.72a7,7,0,0,1-.65,2,1.6,1.6,0,0,1-1.78.83,3.65,3.65,0,0,1-.61-.34,6.62,6.62,0,0,0-5-.54c-1.67.39-3.25,1.11-4.91,1.56a28.38,28.38,0,0,1-7.82.56,8.72,8.72,0,0,0-2.19,3.79c.17.06.48.4.63.47a13.59,13.59,0,0,0,5.91,1.27c3.72-.08,7-2.6,10.79-2.63a4.17,4.17,0,0,1,4,3.59,2.09,2.09,0,0,0,.28.65,8.68,8.68,0,0,0,.39,1,4.12,4.12,0,0,0,7.42,0,7.15,7.15,0,0,0,.38-.92v0c1.21-3.26,2.59-4.4,4.66-4.3,3.61.17,6.85,2.55,10.46,2.62a10.47,10.47,0,0,0,4.39-.87A2.3,2.3,0,0,1,821.12,317.91Z"/><path class="luchar-17" d="M825.51,316.51a2.3,2.3,0,0,0-2.35-1.6,2,2,0,0,1,1.33,1.65s.42,1.86-.29,2.77l-.2.08h0A2.3,2.3,0,0,0,825.51,316.51Z"/><path class="luchar-17" d="M824.49,316.56a2,2,0,0,0-1.33-1.65,3.41,3.41,0,0,0-.54.1,2.31,2.31,0,0,0,1.38,4.4l.2-.08C824.91,318.42,824.49,316.56,824.49,316.56Z"/><path class="luchar-17" d="M778.65,316.3a2.31,2.31,0,0,0-2.35-1.6,3.53,3.53,0,0,0-.55.1,2.31,2.31,0,0,0,1.38,4.4h0A2.32,2.32,0,0,0,778.65,316.3Z"/><path class="luchar-18" d="M782.94,304.34a5.11,5.11,0,0,1,2.46,2.5,5.06,5.06,0,0,1,.26,3.49"/><path class="luchar-18" d="M787,303.94a5.07,5.07,0,0,1-1.39,6.43"/><ellipse class="luchar-19" cx="800.42" cy="316.92" rx="2.05" ry="5.74"/><polygon class="luchar-13" points="780.85 356.38 769.46 369.94 768.74 369.36 779.74 355.47 780.85 356.38"/><path class="luchar-13" d="M774.53,346.93a15.56,15.56,0,0,0,1.5,2.88,28.93,28.93,0,0,0,2,2.69,33.6,33.6,0,0,0,2.31,2.47c.81.79,1.66,1.54,2.53,2.27l-.57.73c-.92-.71-1.82-1.45-2.68-2.23a33.85,33.85,0,0,1-2.48-2.46,29,29,0,0,1-2.2-2.74,16.28,16.28,0,0,1-1.78-3.15Z"/><path class="luchar-13" d="M805.3,365.71a36.65,36.65,0,0,0,4.6-2.22c1.5-.83,3-1.74,4.37-2.7s2.79-2,4.13-3.06,2.63-2.2,3.9-3.35l1,1.07c-1.33,1.14-2.67,2.26-4.06,3.31s-2.82,2.06-4.28,3-3,1.83-4.52,2.64a37.14,37.14,0,0,1-4.8,2.16Z"/><path class="luchar-9" d="M807.23,337.9a2.54,2.54,0,0,0,.39.85.77.77,0,0,0,.83.31.89.89,0,0,0,.41-.36,1.34,1.34,0,0,0,.21-1.09,2.94,2.94,0,0,0-2.63-1.38C806.7,336.79,807,337.32,807.23,337.9Z"/><path class="luchar-9" d="M810.55,337.75a2.2,2.2,0,0,0,.3.68.63.63,0,0,0,.66.26.77.77,0,0,0,.34-.28,1.05,1.05,0,0,0,.2-.87,2.33,2.33,0,0,0-2.08-1.12C810.16,336.86,810.4,337.29,810.55,337.75Z"/><path class="luchar-9" d="M794.74,337.9a3,3,0,0,1-.39.85.78.78,0,0,1-.83.31.85.85,0,0,1-.41-.36,1.34,1.34,0,0,1-.21-1.09,2.94,2.94,0,0,1,2.62-1.38C795.27,336.79,795,337.32,794.74,337.9Z"/><path class="luchar-9" d="M791.34,337.23a2.26,2.26,0,0,1-.42.62.64.64,0,0,1-.7.14.67.67,0,0,1-.28-.34,1,1,0,0,1,0-.88,2.4,2.4,0,0,1,2.27-.75A14.48,14.48,0,0,0,791.34,337.23Z"/></svg>
