<svg id="Layer_1" data-name="Layer 1" xmlns="http://www.w3.org/2000/svg" viewBox="0 0 1507.89 890.26"><defs><style>.lutc_1{fill:#367d75;}.lutc_2{fill:#5ea4a0;}.lutc_3,.lutc_6,.lutc_7{fill:none;stroke:#fff;}.lutc_3,.lutc_6{stroke-linecap:round;stroke-linejoin:round;}.lutc_3{stroke-width:0.83px;}.lutc_4{fill:#fff;}.lutc_5{fill:#304a63;}.lutc_6{stroke-width:0.65px;}.lutc_7{stroke-miterlimit:10;stroke-width:0.42px;}</style></defs><title>4</title><path class="lutc_2" d="M814.32,374.24a6.11,6.11,0,0,0-2.11-1.34,6,6,0,0,0-2.89.06,35.59,35.59,0,0,0-21.69,14,17.68,17.68,0,0,1-8.87-26.54,4,4,0,1,0,7.61-2.22,6.19,6.19,0,0,0-3.09-3c-5.54-2.84-12.7-1.08-17.24,3.18s-6.76,10.54-7.3,16.75a30.93,30.93,0,0,0,2.45,15.65,22.21,22.21,0,0,0,11,11.17,35.11,35.11,0,0,0,8.09,2.14,180.73,180.73,0,0,0,44.8,2.06c1.46-.11,3.53-.09,4.83-.84,1.6-.91.78-1.87.25-3.53a98.52,98.52,0,0,0-3.76-10.22C823.54,385.1,819.71,378.93,814.32,374.24Z"/><path class="lutc_2" d="M814.32,374.24a6.11,6.11,0,0,0-2.11-1.34,6,6,0,0,0-2.89.06,35.59,35.59,0,0,0-21.69,14,17.68,17.68,0,0,1-8.87-26.54,4,4,0,1,0,7.61-2.22,6.19,6.19,0,0,0-3.09-3c-5.54-2.84-12.7-1.08-17.24,3.18s-6.76,10.54-7.3,16.75a30.93,30.93,0,0,0,2.45,15.65,22.21,22.21,0,0,0,11,11.17,35.11,35.11,0,0,0,8.09,2.14,180.73,180.73,0,0,0,44.8,2.06c1.46-.11,3.53-.09,4.83-.84,1.6-.91.78-1.87.25-3.53a98.52,98.52,0,0,0-3.76-10.22C823.54,385.1,819.71,378.93,814.32,374.24Z"/><path class="lutc_3" d="M789.62,393.67a13,13,0,0,1,2.17-4.26,39.6,39.6,0,0,1,18.33-14.12,27.81,27.81,0,0,1,5.28,9.08"/><path class="lutc_3" d="M810.31,375.51a29.3,29.3,0,0,0-8.74,21.09"/><path class="lutc_2" d="M823,369.35c3.78-6,2.28-14.6-3-19.3s-13.68-5.28-19.82-1.74c2,0,3,3,1.74,4.54s-3.75,1.67-5.56.77A6.88,6.88,0,0,1,792.9,346a9.85,9.85,0,0,1,2.5-4.16c4.16-4.46,10.4-6.14,16.45-6.88,5.55-.69,9.12-.24,15.34,1.74,4.76,1.52,10,5.31,13.95,11.48,2.73,4.23,4.19,10.24,4.49,15.27.37,6.32-1.71,15.12-2.74,17.94-2.32,6.31-7.18,11.29-11.91,16.07a20.06,20.06,0,0,0,18.73-.64c.45,1.84-1.27,3.46-2.88,4.46a33.74,33.74,0,0,1-7.84,3.54,13.43,13.43,0,0,0-2.26.79,14.12,14.12,0,0,0-2.18,1.51A28.45,28.45,0,0,1,821,412.67c-2.84.36-1.38-2.59-3.78-4.15-2.14-1.4-8-.95-8.78-3.38a20.43,20.43,0,0,1-.26-11.62c.7-2.55,1.89-4.93,2.73-7.43s.47-5.58,1.56-7.92c.84-1.81,2.61-1.95,4.21-2.86A18.4,18.4,0,0,0,823,369.35Z"/><path class="lutc_4" d="M767.31,389.05a29.4,29.4,0,0,1-2.68-9.45,30.09,30.09,0,0,1,.24-6.5c.76-5.11,2.49-10.21,7.28-12.93a8.13,8.13,0,0,0-2.32,3.77c-1.48,4-2.6,8.34-1.77,12.54a17.89,17.89,0,0,0,7,10.45,35.78,35.78,0,0,0,11.58,5.4l-7.35,3.38c-2,.91-4.06,1.58-6.19.83C770.79,395.73,769.21,392.83,767.31,389.05Z"/><path class="lutc_2" d="M777.13,396.76a21.9,21.9,0,0,1-6.32-5.59,24.57,24.57,0,0,1-3.87-7.55,24.28,24.28,0,0,1,.47-16.58,0,0,0,0,1,.06,0,0,0,0,0,1,0,.05,22.7,22.7,0,0,0-1.36,8.19,25.37,25.37,0,0,0,1.44,8.15,29.76,29.76,0,0,0,3.91,7.26,30.69,30.69,0,0,0,5.7,6,0,0,0,0,1,0,.05A0,0,0,0,1,777.13,396.76Z"/><path class="lutc_4" d="M832,389.05a29.38,29.38,0,0,0,6.1-11.34,30.19,30.19,0,0,0,.82-6.42c.24-6.76-1.06-13.86-5.27-19.15a31.41,31.41,0,0,0-4.61-4.54c-3-2.48-6.26-4.8-10.08-5.34a23.93,23.93,0,0,0-7.62.57,18.51,18.51,0,0,1,13,4.44,21.21,21.21,0,0,1,6.9,12,30.43,30.43,0,0,1,.53,5.79,24.78,24.78,0,0,1-.46,5.37C830,376.89,825,382,819.91,386.23q-4.36,3.66-9,6.89a2.15,2.15,0,0,0-1,1.11,2,2,0,0,0,0,.88c.52,2.52,1.19,5.28,3.29,6.75a6.52,6.52,0,0,0,5,.85,14,14,0,0,0,4.75-2.17c1.39-.93.53-1.23.66-2.39s1.2-1.82,2.15-2.7A68.12,68.12,0,0,0,832,389.05Z"/><path class="lutc_2" d="M828,348.45a27.79,27.79,0,0,1,8,13.75,27.13,27.13,0,0,1-1,15.94A27.75,27.75,0,0,1,825.42,391c-2.18,1.6-4.45,3-6.74,4.41s-4.65,2.69-7.07,3.85l0-.07c2.32-1.35,4.57-2.79,6.8-4.27s4.46-2.95,6.54-4.58a28.79,28.79,0,0,0,9.47-12.44,26.64,26.64,0,0,0,1.19-15.62,27.46,27.46,0,0,0-7.64-13.78Z"/><path class="lutc_5" d="M800.13,407.34c-4.84,1-9.55,3-15.79,7.54a9.93,9.93,0,0,1-8.41,1.81c-3.79-1.16-5.63-5.92-9.45-7a16.48,16.48,0,0,1-3.24-.78c-1-.5-1.68-1.89-1-2.73a2.42,2.42,0,0,1,1.63-.63,16,16,0,0,1,8.15,1.36,10.43,10.43,0,0,1-3.6-5.62,4.62,4.62,0,0,1,.29-3.47,2.22,2.22,0,0,1,3.07-.79,9.66,9.66,0,0,1-1-3.64,3.26,3.26,0,0,1,1.84-3.08,3.79,3.79,0,0,1,2-.09,11.05,11.05,0,0,1,5.77,2.79c-.79-1,.05-2.68,1.28-3.12a5.27,5.27,0,0,1,3.79.51,20.22,20.22,0,0,1,6.09,4.18,11,11,0,0,1,3.25-8.33,1.44,1.44,0,0,1,.67-.42c.48-.1.91.29,1.21.68,1.07,1.43,1.39,3.3,2.35,4.81a6.7,6.7,0,0,0,5.22,3,5.1,5.1,0,0,1,.61-6.8,6.87,6.87,0,0,1,7.07-1.07,4.16,4.16,0,0,1,2.83,3.05,3.47,3.47,0,0,1-2,3.27,6.87,6.87,0,0,1-4,.53,19.41,19.41,0,0,1,9.76,5.48,15.29,15.29,0,0,1,6.61-5.21,2,2,0,0,1,1.77-.1c.6.37.67,1.2.67,1.91a65.3,65.3,0,0,1-.9,10.26,20.13,20.13,0,0,1,13.3-2.9c.34,2.16-.93,4.22-2.23,6a63.29,63.29,0,0,1-5,5.94,26.28,26.28,0,0,1,13.47,8,23.67,23.67,0,0,1-28.17-.12,3.44,3.44,0,0,1-1.19-1.38,3.7,3.7,0,0,1,.23-2.46c.62-1.9,2.22-4.69.88-6.58-1.21-1.72-5.55-3.34-7.45-3.7C805.84,407.56,804.84,407.1,800.13,407.34Z"/><path class="lutc_4" d="M778.92,413.36l2.07-2a19.43,19.43,0,0,1,2.14-1.92l2.27-1.77a9.63,9.63,0,0,1,1.2-.8l1.23-.75A30.31,30.31,0,0,1,798.56,402a31.31,31.31,0,0,1,11.5.15,32.7,32.7,0,0,1,5.54,1.67c.9.35,1.77.83,2.61,1.25l2.54,1.3a.42.42,0,1,1-.38.74h0l-2.55-1.32a28.16,28.16,0,0,0-2.53-1.24,32.5,32.5,0,0,0-5.38-1.66,30.51,30.51,0,0,0-11.23-.21,29.59,29.59,0,0,0-10.54,3.94l-1.21.72a8.67,8.67,0,0,0-1.18.79l-2.26,1.72a19.92,19.92,0,0,0-2.12,1.88l-2.06,2,0,0a.27.27,0,0,1-.37-.39Z"/><path class="lutc_4" d="M805.21,402.22a9.56,9.56,0,0,1-4.12-1.48,11.9,11.9,0,0,1-3.28-2.89,12.18,12.18,0,0,1-2-3.91,3.2,3.2,0,0,1-.13-1.21,1.73,1.73,0,0,1,.69-1.18,1.27,1.27,0,0,1,.72-.24,1.16,1.16,0,0,1,.75.28,1.27,1.27,0,0,1,.41,1.43v0a.43.43,0,0,1-.54.25.42.42,0,0,1-.25-.54s0,0,0-.05a.46.46,0,0,0-.16-.49.38.38,0,0,0-.5,0c-.41.27-.46.88-.27,1.52a10.85,10.85,0,0,0,4.87,6.49,9,9,0,0,0,3.83,1.46h0a.26.26,0,0,1,.24.29A.26.26,0,0,1,805.21,402.22Z"/><path class="lutc_4" d="M798.43,402.65a16.65,16.65,0,0,1-5.21-.47,13.53,13.53,0,0,1-4.76-2.21,10.77,10.77,0,0,1-2-1.81,5.36,5.36,0,0,1-1.3-2.42,2.57,2.57,0,0,1,1.1-2.65A1.7,1.7,0,0,1,788,393a1.05,1.05,0,0,1,.37.33.94.94,0,0,1-.49,1.44.42.42,0,0,1-.17-.82s0,0,0-.08,0-.09-.12-.16a.89.89,0,0,0-.83.07,1.77,1.77,0,0,0-.76,1.83,4.54,4.54,0,0,0,1.11,2.09,9.78,9.78,0,0,0,1.8,1.72,12.83,12.83,0,0,0,4.51,2.17,16.32,16.32,0,0,0,5,.52.27.27,0,0,1,.29.25A.28.28,0,0,1,798.43,402.65Z"/><path class="lutc_4" d="M791.21,404.94a7.13,7.13,0,0,1-3.1.41,12,12,0,0,1-3-.7,30.29,30.29,0,0,1-2.8-1.21,22.65,22.65,0,0,1-2.71-1.43,9.23,9.23,0,0,1-4.09-4.65,3,3,0,0,1-.09-1.7,2.23,2.23,0,0,1,1.13-1.4,1.72,1.72,0,0,1,1-.17,1.44,1.44,0,0,1,.9.49,1.68,1.68,0,0,1,.4.91,1.24,1.24,0,0,1-.35,1l0,0a.42.42,0,0,1-.59,0,.41.41,0,0,1,0-.59l0,0c.18-.14.15-.55-.09-.81a.64.64,0,0,0-.39-.23.81.81,0,0,0-.5.09,1.43,1.43,0,0,0-.73.88,2.44,2.44,0,0,0,.06,1.28,8.63,8.63,0,0,0,3.73,4.29,24.65,24.65,0,0,0,2.63,1.43c.9.44,1.81.87,2.74,1.22a11.76,11.76,0,0,0,2.85.7,6.6,6.6,0,0,0,2.86-.34.26.26,0,0,1,.35.15A.27.27,0,0,1,791.21,404.94Z"/><path class="lutc_4" d="M786.17,407.8a9.64,9.64,0,0,1-3.58.75c-.6,0-1.21,0-1.81,0a8.45,8.45,0,0,1-1.84-.24,4.21,4.21,0,0,1-2.8-2.56,2.44,2.44,0,0,1-.12-1.06,1.27,1.27,0,0,1,.69-1,1.19,1.19,0,0,1,1.27.27,1,1,0,0,1,.32.65,1.11,1.11,0,0,1-.17.68.42.42,0,0,1-.73-.4l0,0c.09-.17.08-.17,0-.3s-.31-.16-.37-.12a.56.56,0,0,0-.24.41,1.59,1.59,0,0,0,.08.7,3.46,3.46,0,0,0,2.25,2.13,13.45,13.45,0,0,0,3.45.3,8.82,8.82,0,0,0,3.38-.63.27.27,0,0,1,.35.14A.27.27,0,0,1,786.17,407.8Z"/><path class="lutc_4" d="M781.43,411.62a14.63,14.63,0,0,1-3.85.31,4.74,4.74,0,0,1-1-.13,1.68,1.68,0,0,1-1-.68,1.14,1.14,0,0,1,0-1.34,1.09,1.09,0,0,1,.63-.38.9.9,0,0,1,.81.21.42.42,0,0,1-.58.6s-.15,0-.24.08-.09.25,0,.42c.2.38.77.5,1.39.53a13.83,13.83,0,0,0,3.69-.15.27.27,0,0,1,.31.22A.26.26,0,0,1,781.43,411.62Z"/><path class="lutc_4" d="M812.83,403.57a12,12,0,0,1-2.8-1.17,5.56,5.56,0,0,1-2.28-2.11,2.57,2.57,0,0,1,.53-3.16,1.82,1.82,0,0,1,.86-.38,1.18,1.18,0,0,1,.55.06,1.13,1.13,0,0,1,.46.37,1,1,0,0,1,.09,1.15,1.75,1.75,0,0,1-.77.6.42.42,0,0,1-.56-.2.41.41,0,0,1,.2-.55h0a1.15,1.15,0,0,0,.41-.26c0-.06,0-.1,0-.24s-.46-.16-.76.07a1.83,1.83,0,0,0-.38,2.25,4.85,4.85,0,0,0,2,1.9,11.1,11.1,0,0,0,2.63,1.17.27.27,0,0,1,.18.33A.28.28,0,0,1,812.83,403.57Z"/><path class="lutc_3" d="M802.49,396a9.34,9.34,0,0,0,2.64,3.63"/><path class="lutc_3" d="M792.46,396.85a9.43,9.43,0,0,0,3.51,3.58"/><path class="lutc_3" d="M784,399.8a7.54,7.54,0,0,0,4.5,2.95"/><path class="lutc_3" d="M784,406.25a5.54,5.54,0,0,1-3.45-1"/><path class="lutc_3" d="M780.15,410.11a9.39,9.39,0,0,1-1.4-.17"/><path class="lutc_6" d="M811.39,399.45a2.21,2.21,0,0,0,.67,1.32,6.69,6.69,0,0,0,1.22.89"/><circle class="lutc_7" cx="765.19" cy="392.06" r="1.29"/><circle class="lutc_7" cx="762.71" cy="387.17" r="1.29"/><circle class="lutc_7" cx="761.36" cy="381.66" r="1.29"/><circle class="lutc_7" cx="760.92" cy="376.44" r="0.95"/><circle class="lutc_7" cx="817.28" cy="382.19" r="1.68"/><circle class="lutc_7" cx="822.41" cy="378.12" r="1.32"/><circle class="lutc_7" cx="826.07" cy="373.63" r="1.11"/><circle class="lutc_7" cx="827.76" cy="368.46" r="0.87"/><circle class="lutc_7" cx="828.16" cy="363.46" r="0.74"/><circle class="lutc_7" cx="828.2" cy="359.14" r="0.57"/></svg>
