<svg id="Layer_1" data-name="Layer 1" xmlns="http://www.w3.org/2000/svg" viewBox="0 0 1769.49 1080"><defs><style>.cls-1{fill:#304a63;}.cls-2{fill:#e5af36;}.cls-3{fill:#3176a9;}</style></defs><title>5</title><rect class="cls-1" x="-33.35" y="-18.4" width="1863.75" height="1114.83"/><path class="cls-2" d="M219.26,609.74a21.92,21.92,0,0,0,5.54-11.3A21.92,21.92,0,0,0,213.5,604c-4.65,4.65-7.13,9.71-5.54,11.3S214.61,614.39,219.26,609.74Z"/><path class="cls-3" d="M62.16,440.92a21.87,21.87,0,0,0,5.53-11.31,21.92,21.92,0,0,0-11.3,5.54c-4.65,4.65-7.13,9.71-5.54,11.3S57.51,445.57,62.16,440.92Z"/><path class="cls-3" d="M594.77,655.05a21.92,21.92,0,0,0,5.54-11.3,21.86,21.86,0,0,0-11.3,5.53c-4.65,4.65-7.13,9.71-5.54,11.31S590.12,659.7,594.77,655.05Z"/><path class="cls-3" d="M751.92,492.82a21.92,21.92,0,0,0,5.54-11.3,21.87,21.87,0,0,0-11.31,5.53c-4.65,4.65-7.13,9.72-5.53,11.31S747.27,497.47,751.92,492.82Z"/><path class="cls-3" d="M829.61,668.05a21.92,21.92,0,0,0,5.54-11.3,21.93,21.93,0,0,0-11.31,5.54c-4.65,4.65-7.13,9.71-5.53,11.3S825,672.7,829.61,668.05Z"/><path class="cls-3" d="M660.9,763.12a21.92,21.92,0,0,0,5.54-11.3,21.93,21.93,0,0,0-11.31,5.54c-4.65,4.65-7.12,9.71-5.53,11.3S656.25,767.77,660.9,763.12Z"/><path class="cls-3" d="M1023,734.53a21.86,21.86,0,0,0,5.53-11.3,21.86,21.86,0,0,0-11.3,5.53c-4.65,4.65-7.13,9.71-5.54,11.3S1018.33,739.18,1023,734.53Z"/><path class="cls-3" d="M1032.84,486.69a21.86,21.86,0,0,0,5.53-11.3,21.92,21.92,0,0,0-11.3,5.54c-4.65,4.65-7.13,9.71-5.54,11.3S1028.19,491.34,1032.84,486.69Z"/><path class="cls-3" d="M1235.71,569.09a21.93,21.93,0,0,0,5.54-11.31,21.93,21.93,0,0,0-11.31,5.54c-4.65,4.65-7.12,9.71-5.53,11.3S1231.06,573.74,1235.71,569.09Z"/><path class="cls-3" d="M1209.48,356.93a21.86,21.86,0,0,0,5.53-11.3,21.86,21.86,0,0,0-11.3,5.53c-4.65,4.65-7.13,9.71-5.54,11.3S1204.83,361.58,1209.48,356.93Z"/><path class="cls-2" d="M1498,416.48a21.86,21.86,0,0,0,5.53-11.3,21.92,21.92,0,0,0-11.3,5.54c-4.65,4.65-7.13,9.71-5.53,11.3S1493.3,421.13,1498,416.48Z"/><path class="cls-3" d="M1466.75,646.86a21.93,21.93,0,0,0,5.54-11.31,21.93,21.93,0,0,0-11.31,5.54c-4.65,4.65-7.13,9.71-5.53,11.3S1462.1,651.51,1466.75,646.86Z"/><path class="cls-3" d="M1249.5,818.3A21.92,21.92,0,0,0,1255,807a21.87,21.87,0,0,0-11.31,5.53c-4.65,4.65-7.12,9.71-5.53,11.31S1244.85,823,1249.5,818.3Z"/><path class="cls-3" d="M1663.89,584a21.86,21.86,0,0,0,5.53-11.3,21.86,21.86,0,0,0-11.3,5.53c-4.65,4.65-7.13,9.71-5.53,11.31S1659.24,588.61,1663.89,584Z"/><path class="cls-2" d="M1663.89,380.6a21.86,21.86,0,0,0,5.53-11.3,21.92,21.92,0,0,0-11.3,5.54c-4.65,4.65-7.13,9.71-5.53,11.3S1659.24,385.25,1663.89,380.6Z"/><path class="cls-3" d="M1044.27,338.42a21.92,21.92,0,0,0,5.54-11.3,21.86,21.86,0,0,0-11.3,5.53c-4.65,4.65-7.13,9.71-5.54,11.31S1039.62,343.07,1044.27,338.42Z"/><path class="cls-3" d="M856.4,356.93a21.86,21.86,0,0,0,5.53-11.3,21.86,21.86,0,0,0-11.3,5.53c-4.65,4.65-7.13,9.71-5.54,11.3S851.75,361.58,856.4,356.93Z"/><path class="cls-3" d="M689.19,292a21.93,21.93,0,0,0,5.54-11.31,21.93,21.93,0,0,0-11.31,5.54c-4.65,4.65-7.12,9.71-5.53,11.3S684.54,296.62,689.19,292Z"/><path class="cls-3" d="M286.53,173.47a21.86,21.86,0,0,0,5.53-11.3,21.92,21.92,0,0,0-11.3,5.54c-4.65,4.65-7.13,9.71-5.54,11.3S281.88,178.12,286.53,173.47Z"/><path class="cls-2" d="M1709.13,225.4a21.86,21.86,0,0,0,5.53-11.3,21.86,21.86,0,0,0-11.3,5.53c-4.65,4.65-7.13,9.71-5.54,11.3S1704.48,230.05,1709.13,225.4Z"/><path class="cls-2" d="M475.53,676.72a21.93,21.93,0,0,0,5.54-11.31,21.92,21.92,0,0,0-11.3,5.54c-4.65,4.65-7.13,9.71-5.54,11.3S470.88,681.37,475.53,676.72Z"/><path class="cls-2" d="M502.78,156.07a21.93,21.93,0,0,0,5.54-11.31A21.93,21.93,0,0,0,497,150.3c-4.65,4.65-7.13,9.71-5.53,11.3S498.13,160.72,502.78,156.07Z"/><path class="cls-2" d="M1435.85,74.68a21.92,21.92,0,0,0,5.54-11.3,21.86,21.86,0,0,0-11.3,5.53c-4.65,4.65-7.13,9.71-5.54,11.3S1431.2,79.33,1435.85,74.68Z"/><path class="cls-2" d="M185,115.05a21.86,21.86,0,0,0,5.53-11.3,21.86,21.86,0,0,0-11.3,5.53c-4.65,4.65-7.13,9.71-5.53,11.31S180.37,119.7,185,115.05Z"/><path class="cls-2" d="M210.6,744.56a21.92,21.92,0,0,0,5.54-11.3,21.93,21.93,0,0,0-11.31,5.54c-4.65,4.65-7.12,9.71-5.53,11.3S206,749.21,210.6,744.56Z"/><path class="cls-2" d="M460.1,332.05c10-10,11.86-24.22,11.86-24.22s-14.25,1.9-24.22,11.86-15.27,20.81-11.86,24.22S450.14,342,460.1,332.05Z"/><path class="cls-2" d="M1331.71,225.2c10-10,11.86-24.22,11.86-24.22s-14.26,1.9-24.22,11.86-15.27,20.81-11.86,24.22S1321.74,235.16,1331.71,225.2Z"/><path class="cls-2" d="M347.44,504.5c10-10,11.86-24.22,11.86-24.22s-14.26,1.9-24.22,11.86S319.81,513,323.22,516.36,337.47,514.47,347.44,504.5Z"/></svg>