<svg id="Layer_1" data-name="Layer 1" xmlns="http://www.w3.org/2000/svg" viewBox="0 0 1769.49 1080"><defs><style>.cls-1{fill:#304a63;}.cls-2{fill:#5ea7a2;}</style></defs><title>4</title><rect class="cls-1" x="-33.35" y="-18.4" width="1863.75" height="1114.83"/><path class="cls-2" d="M1202.61,449.4c10-10,11.87-24.22,11.87-24.22s-14.26,1.9-24.22,11.86-15.28,20.81-11.87,24.22S1192.65,459.36,1202.61,449.4Z"/><path class="cls-2" d="M925.29,725.23c10-10,11.86-24.22,11.86-24.22s-14.25,1.9-24.22,11.87-15.27,20.8-11.86,24.22S915.33,735.2,925.29,725.23Z"/><path class="cls-2" d="M798.62,566.32c10-10,11.87-24.22,11.87-24.22S796.23,544,786.27,554,771,574.77,774.4,578.18,788.66,576.28,798.62,566.32Z"/><path class="cls-2" d="M583.19,682.58c10-10,11.86-24.22,11.86-24.22s-14.26,1.9-24.22,11.87S555.56,691,559,694.45,573.22,692.55,583.19,682.58Z"/><path class="cls-2" d="M155.82,510.47c10-10,11.86-24.22,11.86-24.22s-14.25,1.9-24.22,11.87-15.27,20.8-11.86,24.22S145.86,520.44,155.82,510.47Z"/><path class="cls-2" d="M142.35,138.91a21.89,21.89,0,0,0,5.54-11.3,21.93,21.93,0,0,0-11.31,5.54c-4.65,4.65-7.12,9.71-5.53,11.3S137.7,143.56,142.35,138.91Z"/><path class="cls-2" d="M313.31,345.84c10-10,11.86-24.22,11.86-24.22s-14.25,1.9-24.22,11.86-15.27,20.81-11.86,24.22S303.35,355.81,313.31,345.84Z"/><path class="cls-2" d="M257.53,203.46c10-10,11.86-24.22,11.86-24.22s-14.25,1.9-24.22,11.87-15.27,20.8-11.86,24.22S247.57,213.43,257.53,203.46Z"/><path class="cls-2" d="M731.68,362c10-10,11.86-24.22,11.86-24.22s-14.25,1.9-24.22,11.86-15.27,20.81-11.86,24.22S721.72,371.93,731.68,362Z"/><path class="cls-2" d="M1250.41,645.33c10-10,11.86-24.22,11.86-24.22S1248,623,1238.05,633s-15.27,20.81-11.86,24.22S1240.45,655.29,1250.41,645.33Z"/><path class="cls-2" d="M1619.76,465.5c10-10,11.87-24.22,11.87-24.22s-14.26,1.9-24.22,11.86-15.28,20.81-11.87,24.22S1609.8,475.46,1619.76,465.5Z"/><path class="cls-2" d="M1455.83,507.11c10-10,11.86-24.22,11.86-24.22s-14.25,1.9-24.22,11.86-15.27,20.81-11.86,24.22S1445.87,517.07,1455.83,507.11Z"/><path class="cls-2" d="M1491.39,706.68c10-10,11.86-24.22,11.86-24.22s-14.25,1.9-24.22,11.86-15.27,20.81-11.86,24.22S1481.43,716.64,1491.39,706.68Z"/><path class="cls-2" d="M1051.6,561c10-10,11.86-24.22,11.86-24.22s-14.25,1.9-24.22,11.86-15.27,20.81-11.86,24.22S1041.64,571,1051.6,561Z"/><path class="cls-2" d="M986.09,406.15c10-10,11.86-24.21,11.86-24.21s-14.26,1.89-24.22,11.86S958.46,414.6,961.87,418,976.12,416.12,986.09,406.15Z"/><path class="cls-2" d="M409.07,720.86c10-10,11.87-24.22,11.87-24.22s-14.26,1.9-24.22,11.87-15.28,20.8-11.86,24.22S399.11,730.83,409.07,720.86Z"/><path class="cls-2" d="M189.26,682.58c10-10,11.87-24.22,11.87-24.22s-14.26,1.9-24.22,11.87-15.28,20.8-11.86,24.22S179.3,692.55,189.26,682.58Z"/><path class="cls-2" d="M1082.44,821.2c10-10,11.86-24.22,11.86-24.22s-14.26,1.9-24.22,11.86-15.27,20.81-11.86,24.22S1072.47,831.16,1082.44,821.2Z"/><path class="cls-2" d="M731.68,802.64c10-10,11.86-24.22,11.86-24.22s-14.25,1.9-24.22,11.86-15.27,20.81-11.86,24.22S721.72,812.6,731.68,802.64Z"/><path class="cls-2" d="M1419.59,364.4c10-10,11.86-24.22,11.86-24.22s-14.25,1.9-24.22,11.86-15.27,20.81-11.86,24.22S1409.63,374.36,1419.59,364.4Z"/></svg>