<svg id="Layer_1" data-name="Layer 1" xmlns="http://www.w3.org/2000/svg" viewBox="0 0 1769.49 1080"><defs><style>.cls-1{fill:#5ea7a2;}.cls-2{fill:#e6b034;}.cls-3{fill:#fff;}</style></defs><title>26</title><rect class="cls-1" x="-33.35" y="-18.4" width="1863.75" height="1114.83"/><path class="cls-2" d="M682.81,590.5c20-21.88,44.14-38.44,69.34-53.58h0l10.12-6.64c12.08-8.23,21.47-19.72,28.39-33.32,4.06-8,10.4-13.45,18.57-17.13a74.64,74.64,0,0,1,44.54-5.62c16.59,3,31.54,8.65,44.75,20.82,13.78,12.7,19.18,26.33,15.62,44.07-1.76,8.78-3.81,17.51-6.06,26.18-4.74,18.32-15.93,30.05-34.54,35.28-19.66,5.52-39.94-2.44-49.42-20.56-12-23,10.86-44.43,27.59-43.73,11.62.49,16.69,9.43,10.64,19.34-1.33,2.17-3.07,4.09-4.62,6.13-2.59,3.41-1,6.77,1.48,8.69,1.33,1,5.44.45,6.86-.91a42.08,42.08,0,0,0,13.15-27.6c.55-7-3.65-13.38-10.68-14.66a78,78,0,0,0-21.72-.94c-18.37,1.94-32.66,13.59-36.52,29.4-1.31,5.37-1.16,11.09-1.59,15.77l7.07,17.8c6.51,13.16,17.8,21.46,32.7,24.61l20.68.58c25.12-4.06,44.48-16.69,51.56-41.62,3.36-11.85,8.87-16.75,19.78-18.1.72-.09,1.41-.41,2.13-.53,21.84-3.75,42.12-2.75,60.42,12.88,14.61,12.48,31.15,22.82,53.21,19.18-1.26,1.88-1.8,2.82-2.47,3.65-16.19,20.14-37.74,29.22-63,31.11a26.42,26.42,0,0,0-12.47,4.51c-19.21,13.37-39.78,23.74-62.13,30.31l0,0-1.82.47c-1.61.45-3.2,1-4.83,1.36a3.85,3.85,0,0,1-.69.06l-6.8,1.75.15.14c-.81.17-1.61.28-2.42.44l-8.23,2.12-.52-.59c-22.33,3.32-43.65,2.15-64.11-5.89-22.95-9-45.3-19.68-67.46-30.54-23.15-11.34-47-16-72.41-10.93-8.76,1.75-17.55,3.34-26.33,5l-1.22-1.35C667.25,608.78,674.72,599.35,682.81,590.5Z"/><path class="cls-3" d="M865.6,632.84c29.18,0,59.54-10.46,84.73-29.77l-3.64-4.74C916,621.89,877.28,631.72,843.21,624.6c-38.5-8-70.09-38.67-76.8-74.5l-5.87,1.1c7.15,38.14,40.64,70.73,81.45,79.25A116,116,0,0,0,865.6,632.84Z"/><path class="cls-3" d="M965.22,589.52A52.22,52.22,0,0,0,974,576.09l-5.48-2.4a46.19,46.19,0,0,1-7.78,11.89Z"/><path class="cls-3" d="M812.4,619.41l3.56-4.8c-22.15-16.44-23.36-50.22-23.37-50.56a59.11,59.11,0,0,1,7-32.46,47.1,47.1,0,0,1,13.73-15.94c5.27-3.77,11.83-6.57,20.65-8.8,14.74-3.74,27.76-3.82,38.68-.23s21.41,15.53,19.27,28.59l5.9,1c2.68-16.4-9.74-30.79-23.31-35.24-12-3.94-26.15-3.9-42,.12-9.56,2.42-16.76,5.52-22.66,9.73a53.06,53.06,0,0,0-15.48,17.93,64.87,64.87,0,0,0-7.77,35.63C786.66,565.71,787.88,601.21,812.4,619.41Z"/><path class="cls-3" d="M698.89,596.79c4.59-2.08,9.14-3.91,13.51-5.44l-2-5.64c-4.54,1.59-9.25,3.49-14,5.64Z"/><path class="cls-3" d="M795.39,608l3.44-4.88c-28.76-20.28-49.56-26.66-71.82-22l1.21,5.85C749,582.59,767.78,588.49,795.39,608Z"/></svg>