<svg id="Layer_1" data-name="Layer 1" xmlns="http://www.w3.org/2000/svg" viewBox="0 0 1769.49 1080"><defs><style>.cls-1{fill:#5ea7a2;}.cls-2{fill:#e6b034;}.cls-3{fill:#fff;}</style></defs><title>25</title><rect class="cls-1" x="-33.35" y="-18.4" width="1863.75" height="1114.83"/><path class="cls-2" d="M1033.14,590.5c-20-21.88-44.14-38.44-69.35-53.58h0l-10.12-6.64C941.61,522,932.21,510.55,925.3,497c-4.06-8-10.41-13.45-18.58-17.13a74.64,74.64,0,0,0-44.54-5.62c-16.58,3-31.54,8.65-44.74,20.82-13.79,12.7-19.18,26.33-15.63,44.07,1.76,8.78,3.82,17.51,6.07,26.18,4.74,18.32,15.93,30.05,34.54,35.28,19.66,5.52,39.94-2.44,49.42-20.56,12-23-10.86-44.43-27.59-43.73-11.63.49-16.69,9.43-10.64,19.34a75,75,0,0,0,4.62,6.13c2.59,3.41,1,6.77-1.48,8.69-1.33,1-5.44.45-6.86-.91a42,42,0,0,1-13.15-27.6c-.56-7,3.65-13.38,10.68-14.66a78,78,0,0,1,21.72-.94c18.37,1.94,32.66,13.59,36.51,29.4,1.31,5.37,1.17,11.09,1.6,15.77l-7.07,17.8c-6.52,13.16-17.8,21.46-32.71,24.61l-20.67.58c-25.12-4.06-44.48-16.69-51.56-41.62-3.37-11.85-8.87-16.75-19.79-18.1-.72-.09-1.41-.41-2.12-.53-21.84-3.75-42.12-2.75-60.42,12.88-14.61,12.48-31.15,22.82-53.21,19.18,1.26,1.88,1.8,2.82,2.47,3.65,16.19,20.14,37.74,29.22,63,31.11a26.34,26.34,0,0,1,12.46,4.51c19.22,13.37,39.79,23.74,62.13,30.31l0,0,1.83.47c1.61.45,3.2,1,4.82,1.36a4,4,0,0,0,.7.06l6.8,1.75-.15.14c.81.17,1.61.28,2.42.44l8.23,2.12.52-.59c22.32,3.32,43.64,2.15,64.1-5.89,23-9,45.31-19.68,67.47-30.54,23.15-11.34,46.94-16,72.41-10.93,8.76,1.75,17.55,3.34,26.33,5l1.21-1.35C1048.69,608.78,1041.23,599.35,1033.14,590.5Z"/><path class="cls-3" d="M850.35,632.84c-29.19,0-59.55-10.46-84.73-29.77l3.64-4.74c30.72,23.56,69.41,33.39,103.48,26.27,38.5-8,70.08-38.67,76.8-74.5l5.87,1.1c-7.15,38.14-40.64,70.73-81.45,79.25A116,116,0,0,1,850.35,632.84Z"/><path class="cls-3" d="M750.73,589.52A52,52,0,0,1,742,576.09l5.47-2.4a46.24,46.24,0,0,0,7.79,11.89Z"/><path class="cls-3" d="M903.55,619.41l-3.56-4.8c22.15-16.44,23.36-50.22,23.37-50.56a59,59,0,0,0-7-32.46,47,47,0,0,0-13.72-15.94c-5.27-3.77-11.83-6.57-20.65-8.8-14.74-3.74-27.76-3.82-38.68-.23S821.86,522.15,824,535.21l-5.9,1c-2.69-16.4,9.74-30.79,23.31-35.24,12-3.94,26.15-3.9,42,.12,9.56,2.42,16.76,5.52,22.65,9.73a53,53,0,0,1,15.49,17.93,64.87,64.87,0,0,1,7.76,35.63C929.29,565.71,928.06,601.21,903.55,619.41Z"/><path class="cls-3" d="M1017.06,596.79c-4.6-2.08-9.14-3.91-13.52-5.44l2-5.64c4.54,1.59,9.25,3.49,14,5.64Z"/><path class="cls-3" d="M920.56,608l-3.45-4.88c28.76-20.28,49.57-26.66,71.83-22l-1.21,5.85C967,582.59,948.17,588.49,920.56,608Z"/></svg>