<svg id="Layer_1" data-name="Layer 1" xmlns="http://www.w3.org/2000/svg" viewBox="0 0 565.73 440.71"><defs><style>.cls-1{fill:#2f4962;}.cls-2{fill:#fff;}</style></defs><title>32</title><path class="cls-2" d="M164,92.56c-9.88,9.89-26.58,23.66-28.4,21.83S147.48,95.84,157.35,86s12.15-9.21,14-7.39S173.85,82.66,164,92.56Z"/><path class="cls-2" d="M92.3,151.13c9.87-9.89,26.57-23.66,28.4-21.83s-11.9,18.55-21.78,28.44S86.78,167,85,165.12,82.43,161,92.3,151.13Z"/><path class="cls-2" d="M157.43,157.68c-9.9-9.87-23.66-26.57-21.84-28.4s18.55,11.9,28.45,21.78,9.2,12.15,7.38,14S167.32,167.55,157.43,157.68Z"/><path class="cls-2" d="M98.85,86c9.9,9.87,23.66,26.57,21.84,28.4S102.14,102.5,92.24,92.63s-9.21-12.15-7.38-14S89,76.13,98.85,86Z"/><path class="cls-2" d="M174.19,126.48c-14,0-35.52-2.06-35.52-4.65s21.53-4.7,35.51-4.71,15.1,2.08,15.1,4.66S188.17,126.46,174.19,126.48Z"/><path class="cls-2" d="M82.09,117.21c14,0,35.52,2.06,35.52,4.64s-21.53,4.71-35.51,4.72S67,124.49,67,121.91,68.11,117.23,82.09,117.21Z"/><path class="cls-2" d="M123.51,167.89c0-14,2.06-35.52,4.64-35.52s4.7,21.54,4.71,35.51S130.79,183,128.2,183,123.52,181.87,123.51,167.89Z"/><path class="cls-2" d="M132.77,75.79c0,14-2.06,35.52-4.64,35.53s-4.7-21.54-4.72-35.52,2.08-15.1,4.67-15.1S132.76,61.82,132.77,75.79Z"/></svg>
