<?xml version="1.0" encoding="UTF-8" standalone="no"?>
<!DOCTYPE svg PUBLIC "-//W3C//DTD SVG 1.1//EN" "http://www.w3.org/Graphics/SVG/1.1/DTD/svg11.dtd">
<svg xmlns="http://www.w3.org/2000/svg" xmlns:xlink="http://www.w3.org/1999/xlink" preserveAspectRatio="xMidYMid meet" viewBox="0.7812668631439124 0.771304636586251 275.4374662737122 275.45739072682744" width="271.44" height="271.46"><defs><path d="M138.87 60.93C97.28 60.93 63.57 94.64 63.57 136.22C63.57 177.81 97.28 211.52 138.87 211.52C180.45 211.52 214.16 177.81 214.16 136.22C214.16 94.64 180.45 60.93 138.87 60.93Z" id="b23pYaTVEz"></path><path d="M129.2 87.27C125.31 81.56 124.42 75.86 126.45 70.36C128.47 64.86 132.23 59.9 132.86 54.08C133.72 46.26 128.75 38.6 129.91 30.83C130.71 25.52 134.24 21.08 137.32 16.67C140.4 12.26 143.26 7.08 142.41 1.77C146.07 6.85 146.73 11.83 146.44 18.28C146.15 24.96 143.07 30.18 144.98 36.83C147.28 44.85 150.29 48.16 149.16 54.82C148.29 59.99 145.5 64.37 145.93 69.71C146.59 77.85 154.06 81.71 151.87 89.59C151.21 90.05 147.89 92.39 141.91 96.6L131.02 89.96C130.05 88.52 129.45 87.63 129.2 87.27Z" id="aeQ7njtjB"></path><path d="M141.5 87.88C136.45 79.44 135.57 72.98 138.01 65.3C139.7 59.98 141.72 54.94 140.16 47.37" id="d1EGPWu1Dj"></path><path d="M140.59 46.26C138.98 46.26 137.68 47.57 137.68 49.18C137.68 50.79 138.98 52.09 140.59 52.09C142.21 52.09 143.51 50.79 143.51 49.18C143.51 47.57 142.21 46.26 140.59 46.26Z" id="o6bwW4rBfF"></path><path d="M126.53 187.71C122.64 193.42 121.75 199.12 123.78 204.62C125.8 210.12 129.56 215.08 130.19 220.9C131.05 228.72 126.08 236.38 127.25 244.15C128.04 249.46 131.57 253.9 134.65 258.31C137.73 262.72 140.59 267.92 139.74 273.23C143.4 268.15 144.06 263.17 143.77 256.72C143.48 250.03 140.4 244.82 142.31 238.17C144.61 230.15 147.62 226.84 146.49 220.18C145.62 215.01 142.83 210.63 143.26 205.29C143.92 197.15 151.39 193.29 149.24 185.41C148.57 184.95 145.25 182.61 139.27 178.4L128.38 185.04C127.4 186.47 126.78 187.36 126.53 187.71Z" id="baqubsu2r"></path><path d="M138.83 187.1C133.78 195.53 132.9 202 135.34 209.68C137.04 215.03 139.05 220.04 137.49 227.61" id="c2MrZXla3"></path><path d="M137.93 222.89C136.31 222.89 135.01 224.19 135.01 225.8C135.01 227.41 136.31 228.72 137.93 228.72C139.54 228.72 140.84 227.41 140.84 225.8C140.84 224.19 139.54 222.89 137.93 222.89Z" id="a2kwAYptU"></path><path d="M187.72 129.19C193.43 125.3 199.13 124.41 204.63 126.44C210.13 128.46 215.09 132.22 220.91 132.85C228.73 133.71 236.39 128.74 244.16 129.9C249.47 130.7 253.91 134.23 258.32 137.31C262.73 140.39 267.91 143.25 273.22 142.4C268.14 146.06 263.16 146.72 256.71 146.43C250.02 146.14 244.81 143.06 238.16 144.97C230.14 147.27 226.83 150.28 220.17 149.15C215 148.28 210.62 145.49 205.28 145.92C197.14 146.58 193.28 154.05 185.41 151.86C184.94 151.2 182.6 147.88 178.39 141.9L185.03 131.01C186.47 130.04 187.36 129.44 187.72 129.19Z" id="dNKTcluEL"></path><path d="M187.11 141.49C195.54 136.44 202.01 135.56 209.69 138C215.04 139.7 220.05 141.71 227.62 140.15" id="dW0KhOsTF"></path><path d="M225.81 137.67C224.2 137.67 222.9 138.97 222.9 140.58C222.9 142.2 224.2 143.5 225.81 143.5C227.42 143.5 228.73 142.2 228.73 140.58C228.73 138.97 227.42 137.67 225.81 137.67Z" id="a3nq6UKjXS"></path><path d="M87.28 126.52C81.57 122.63 75.87 121.74 70.37 123.77C64.87 125.79 59.91 129.55 54.09 130.18C46.27 131.04 38.61 126.07 30.84 127.24C25.53 128.03 21.09 131.56 16.68 134.64C12.27 137.72 7.09 140.58 1.78 139.73C6.86 143.39 11.84 144.05 18.29 143.76C24.97 143.47 30.19 140.39 36.84 142.3C44.86 144.6 48.17 147.61 54.83 146.48C60 145.61 64.38 142.82 69.72 143.25C77.86 143.91 81.72 151.38 89.59 149.23C90.06 148.56 92.4 145.24 96.61 139.26L89.97 128.37C88.53 127.39 87.64 126.77 87.28 126.52Z" id="b2JfpXwZ40"></path><path d="M87.89 138.82C79.45 133.77 72.99 132.89 65.31 135.33C59.96 137.03 54.95 139.04 47.38 137.48" id="a9I57nFph"></path><path d="M49.19 135C47.58 135 46.27 136.3 46.27 137.92C46.27 139.53 47.58 140.83 49.19 140.83C50.8 140.83 52.1 139.53 52.1 137.92C52.1 136.3 50.8 135 49.19 135Z" id="h2POHMX869"></path><path d="M178.88 167.14C185.67 168.42 190.33 171.83 192.78 177.15C195.24 182.47 196.1 188.62 199.76 193.19C204.68 199.32 213.61 201.22 218.29 207.54C221.48 211.87 222.12 217.51 223.06 222.82C224.01 228.13 225.64 233.78 230 236.95C223.82 235.94 219.83 232.89 215.47 228.13C210.95 223.19 209.45 217.33 203.39 213.97C196.08 209.94 191.63 209.71 187.72 204.21C184.67 199.93 183.55 194.87 179.47 191.39C173.26 186.08 165.23 188.66 161.21 181.55C161.35 180.75 162.05 176.74 163.32 169.54L175.73 166.54C177.41 166.86 178.46 167.06 178.88 167.14Z" id="b10OUGa3so"></path><path d="M169.74 175.41C179.28 177.79 184.48 181.74 188.17 188.88C190.75 193.86 192.88 198.84 199.31 203.07" id="asMPoiFar"></path><path d="M195.7 200.06C194.56 201.2 194.56 203.05 195.7 204.19C196.83 205.33 198.68 205.33 199.82 204.19C200.96 203.05 200.96 201.2 199.82 200.06C198.68 198.93 196.83 198.93 195.7 200.06Z" id="d12nmQTuIH"></path><path d="M109.74 94.23C108.46 87.43 105.05 82.77 99.73 80.31C94.41 77.86 88.25 76.99 83.68 73.34C77.55 68.42 75.65 59.49 69.33 54.82C65 51.62 59.37 50.98 54.06 50.03C48.74 49.09 43.11 47.46 39.94 43.1C40.95 49.28 44 53.27 48.76 57.63C53.7 62.15 59.56 63.66 62.92 69.71C66.95 77.01 67.18 81.48 72.68 85.39C76.95 88.42 82.02 89.56 85.5 93.63C90.81 99.84 88.23 107.87 95.34 111.89C96.14 111.75 100.14 111.06 107.33 109.81L110.34 97.4C110.02 95.71 109.82 94.65 109.74 94.23Z" id="aZQ4vLVT4"></path><path d="M101.47 103.35C99.09 93.82 95.13 88.63 87.99 84.93C83.01 82.35 78.03 80.23 73.8 73.79" id="fqf2YR8EA"></path><path d="M72.69 73.28C71.55 74.42 71.55 76.27 72.69 77.4C73.83 78.54 75.68 78.54 76.82 77.4C77.96 76.27 77.96 74.42 76.82 73.28C75.68 72.14 73.83 72.14 72.69 73.28Z" id="e4jHjh89In"></path><path d="M107.85 178.87C106.56 185.66 103.16 190.32 97.84 192.77C92.52 195.23 86.36 196.09 81.79 199.75C75.66 204.67 73.76 213.6 67.44 218.28C63.11 221.48 57.48 222.12 52.16 223.05C46.85 223.99 41.19 225.64 38.04 229.99C39.04 223.81 42.1 219.82 46.86 215.47C51.79 210.94 57.65 209.44 61 203.38C65.05 196.07 65.27 191.62 70.77 187.71C75.04 184.67 80.1 183.54 83.58 179.46C88.9 173.25 86.32 165.22 93.43 161.2C94.23 161.34 98.23 162.03 105.43 163.28L108.42 175.69C108.12 177.38 107.92 178.44 107.85 178.87Z" id="b2LIwi3t0"></path><path d="M99.56 169.73C97.18 179.27 93.23 184.47 86.09 188.16C81.11 190.74 76.13 192.87 71.9 199.3" id="e7TuRkYFz"></path><path d="M70.51 196.05C69.56 197.35 69.85 199.17 71.15 200.12C72.45 201.07 74.27 200.79 75.22 199.49C76.17 198.19 75.89 196.37 74.59 195.42C73.29 194.47 71.46 194.75 70.51 196.05Z" id="aCEvlQbI7"></path><path d="M180.76 109.72C187.56 108.44 192.21 105.03 194.66 99.71C197.11 94.39 197.98 88.24 201.64 83.67C206.56 77.53 215.49 75.64 220.17 69.31C223.37 64.98 224.01 59.35 224.95 54.03C225.89 48.72 227.53 43.06 231.88 39.91C225.7 40.91 221.71 43.96 217.36 48.73C212.83 53.66 211.33 59.53 205.28 62.87C197.97 66.92 193.51 67.14 189.6 72.64C186.56 76.92 185.42 81.98 181.35 85.46C175.14 90.77 167.11 88.2 163.1 95.3C163.23 96.1 163.93 100.1 165.18 107.3L177.58 110.3C179.27 109.99 180.33 109.8 180.76 109.72Z" id="abimXMcvC"></path><path d="M171.63 101.45C181.17 99.07 186.35 95.12 190.05 87.98C192.63 83 194.76 78.02 201.19 73.78" id="fqUIYeeNM"></path><path d="M197.3 73.03C196.35 74.33 196.63 76.16 197.93 77.11C199.23 78.06 201.05 77.77 202 76.47C202.96 75.18 202.67 73.35 201.37 72.4C200.07 71.45 198.25 71.73 197.3 73.03Z" id="b42SS3ZnZW"></path><path d="M138.87 78.6C107.04 78.6 81.25 104.4 81.25 136.22C81.25 168.05 107.04 193.84 138.87 193.84C170.69 193.84 196.49 168.05 196.49 136.22C196.49 104.4 170.69 78.6 138.87 78.6Z" id="hRCafLXj6"></path><path d="M158.79 94.08C158.48 92.29 158.27 90.49 158.16 88.68C158.06 86.84 158.13 85 158.36 83.17C158.6 81.32 159.06 79.5 159.73 77.76C160.4 76.03 161.27 74.38 162.31 72.85C162.56 72.48 162.82 72.09 163.09 71.73C163.15 71.65 163.42 71.29 163.93 70.64C164.92 69.42 165.47 68.74 165.58 68.6C166.67 67.29 167.68 65.92 168.62 64.5C169.53 63.1 170.29 61.61 170.9 60.06C171.5 58.49 171.95 56.87 172.23 55.22C172.44 55.25 174.14 55.51 174.35 55.55C174.1 57.36 173.67 59.14 173.07 60.86C172.45 62.58 171.66 64.24 170.7 65.8C169.76 67.32 168.73 68.79 167.63 70.21C167.52 70.34 166.99 71.04 166.04 72.28C165.6 72.91 165.36 73.25 165.31 73.32C165.08 73.66 164.86 73.98 164.65 74.36C162.86 77.13 161.76 80.27 161.42 83.55C161.14 86.88 161.36 90.24 162.08 93.51C161.42 93.62 159.44 93.97 158.79 94.08Z" id="i3Q5UyRaSX"></path><path d="M120.63 185.26C117.87 187.15 115.41 189.45 113.32 192.07C111.34 194.69 110.01 197.75 109.43 200.99C109.36 201.4 109.28 201.81 109.22 202.22C109.21 202.31 109.16 202.72 109.06 203.47C108.91 205.04 108.83 205.9 108.81 206.08C108.66 207.86 108.4 209.63 108.05 211.39C107.69 213.18 107.14 214.93 106.42 216.62C105.69 218.28 104.8 219.88 103.76 221.37C103.58 221.25 102.17 220.28 101.99 220.16C102.91 218.76 103.69 217.28 104.33 215.73C104.93 214.18 105.38 212.57 105.65 210.92C105.94 209.25 106.13 207.55 106.23 205.85C106.24 205.68 106.3 204.8 106.4 203.23C106.48 202.43 106.53 201.99 106.54 201.9C106.59 201.45 106.66 200.99 106.72 200.54C107.02 198.72 107.51 196.94 108.19 195.22C108.88 193.5 109.77 191.86 110.85 190.34C111.92 188.84 113.13 187.44 114.47 186.17C115.78 184.92 117.16 183.74 118.6 182.65C119.01 183.17 120.23 184.74 120.63 185.26Z" id="a1QuWxdFiR"></path><path d="M182.66 158.53C184.45 158.23 186.25 158.02 188.06 157.91C189.9 157.8 191.75 157.87 193.58 158.11C195.43 158.35 197.24 158.81 198.99 159.47C200.71 160.15 202.36 161.01 203.89 162.05C204.27 162.32 204.65 162.57 205.02 162.84C205.09 162.9 205.45 163.17 206.11 163.67C207.33 164.66 208.01 165.21 208.15 165.32C209.46 166.41 210.82 167.43 212.24 168.37C213.65 169.27 215.13 170.04 216.69 170.65C218.25 171.25 219.88 171.69 221.53 171.98C221.5 172.19 221.24 173.89 221.2 174.1C219.39 173.85 217.62 173.42 215.89 172.82C214.17 172.2 212.51 171.41 210.95 170.46C209.42 169.51 207.95 168.48 206.54 167.38C206.4 167.27 205.72 166.73 204.5 165.77C203.89 165.33 203.55 165.08 203.48 165.03C203.14 164.79 202.82 164.57 202.44 164.37C199.66 162.57 196.5 161.45 193.21 161.11C189.87 160.83 186.51 161.05 183.25 161.78C183.13 161.13 182.78 159.18 182.66 158.53Z" id="a3swkAvdMH"></path><path d="M91.48 120.37C89.59 117.61 87.3 115.15 84.67 113.07C82.05 111.09 78.99 109.76 75.75 109.18C75.34 109.12 74.94 109.04 74.53 108.98C74.44 108.97 74.03 108.92 73.28 108.83C71.71 108.67 70.85 108.59 70.67 108.57C68.89 108.42 67.12 108.17 65.36 107.82C63.57 107.45 61.82 106.9 60.14 106.18C58.47 105.45 56.88 104.56 55.38 103.52C55.51 103.34 56.47 101.92 56.59 101.75C57.99 102.67 59.47 103.45 61.02 104.08C62.58 104.7 64.19 105.16 65.83 105.44C67.51 105.73 69.2 105.92 70.91 106.02C71.08 106.03 71.95 106.09 73.52 106.2C74.34 106.28 74.79 106.32 74.88 106.33C75.34 106.38 75.79 106.45 76.21 106.52C78.04 106.81 79.84 107.3 81.56 107.98C83.29 108.67 84.93 109.56 86.45 110.64C87.94 111.72 89.34 112.93 90.62 114.26C91.87 115.57 93.05 116.95 94.14 118.4C93.61 118.79 92.01 119.98 91.48 120.37Z" id="bjMujzyK9"></path><path d="M155.49 183.78C156.97 184.83 158.39 185.95 159.76 187.15C161.13 188.38 162.39 189.73 163.52 191.18C164.67 192.65 165.63 194.26 166.38 195.97C167.14 197.67 167.69 199.45 168.05 201.28C168.13 201.73 168.22 202.18 168.29 202.61C168.3 202.7 168.36 203.14 168.47 203.94C168.64 205.51 168.73 206.38 168.75 206.55C168.91 208.25 169.16 209.94 169.51 211.6C169.86 213.23 170.37 214.82 171.05 216.35C171.74 217.88 172.58 219.33 173.55 220.7C173.38 220.83 172 221.84 171.82 221.97C170.72 220.52 169.76 218.96 168.97 217.32C168.18 215.67 167.57 213.94 167.13 212.16C166.72 210.41 166.4 208.63 166.18 206.85C166.15 206.67 166.04 205.81 165.83 204.25C165.71 203.51 165.64 203.1 165.63 203.01C165.55 202.6 165.46 202.2 165.37 201.79C164.67 198.57 163.22 195.57 161.14 193.02C158.98 190.47 156.44 188.27 153.61 186.48C153.99 185.94 155.11 184.32 155.49 183.78Z" id="b21qI1gtVB"></path><path d="M117.79 92.41C118.39 89.12 118.5 85.76 118.11 82.45C117.64 79.19 116.42 76.08 114.53 73.39C114.29 73.05 114.06 72.72 113.81 72.37C113.76 72.3 113.5 71.97 113.03 71.38C112.03 70.19 111.48 69.52 111.37 69.39C110.2 68.02 109.12 66.59 108.13 65.1C107.12 63.57 106.26 61.95 105.58 60.25C104.92 58.55 104.42 56.79 104.11 55C104.32 54.96 106 54.63 106.21 54.59C106.55 56.23 107.05 57.84 107.71 59.38C108.37 60.91 109.19 62.37 110.15 63.73C111.14 65.12 112.2 66.45 113.34 67.71C113.46 67.85 114.04 68.51 115.07 69.71C115.59 70.34 115.88 70.69 115.94 70.76C116.23 71.12 116.49 71.49 116.77 71.85C117.86 73.35 118.79 74.96 119.53 76.66C120.26 78.38 120.79 80.17 121.1 82.01C121.4 83.83 121.53 85.68 121.5 87.52C121.46 89.33 121.31 91.14 121.08 92.94C120.42 92.83 118.45 92.51 117.79 92.41Z" id="j4GAxjtUBu"></path><path d="M92.97 155.23C91.92 156.71 90.8 158.14 89.6 159.5C88.37 160.88 87.02 162.14 85.56 163.27C84.09 164.41 82.48 165.37 80.78 166.13C79.08 166.88 77.3 167.44 75.47 167.8C75.02 167.87 74.57 167.97 74.14 168.03C74.05 168.05 73.61 168.11 72.81 168.22C71.25 168.38 70.38 168.47 70.2 168.49C68.51 168.65 66.82 168.91 65.15 169.26C63.52 169.6 61.93 170.12 60.4 170.8C58.87 171.49 57.42 172.32 56.06 173.3C55.93 173.13 54.91 171.74 54.78 171.57C56.23 170.47 57.79 169.51 59.43 168.71C61.08 167.93 62.81 167.31 64.59 166.88C66.34 166.46 68.12 166.14 69.9 165.93C70.08 165.91 70.94 165.79 72.5 165.58C73.24 165.46 73.66 165.39 73.74 165.38C74.15 165.3 74.56 165.2 74.96 165.12C78.18 164.42 81.19 162.97 83.74 160.89C86.28 158.72 88.48 156.18 90.27 153.36C90.81 153.73 92.43 154.85 92.97 155.23Z" id="b2WNFOW6IW"></path><path d="M184.34 117.54C187.62 118.14 190.98 118.25 194.3 117.85C197.55 117.39 200.66 116.17 203.35 114.28C203.69 114.04 204.01 113.81 204.37 113.55C204.43 113.5 204.76 113.25 205.36 112.78C206.55 111.78 207.22 111.23 207.35 111.12C208.73 109.95 210.17 108.86 211.67 107.86C213.2 106.85 214.82 105.99 216.52 105.31C218.22 104.66 219.98 104.18 221.77 103.87C221.81 104.08 222.13 105.77 222.17 105.98C220.53 106.32 218.93 106.82 217.39 107.47C215.86 108.14 214.4 108.95 213.03 109.91C211.65 110.91 210.32 111.97 209.05 113.11C208.92 113.22 208.25 113.8 207.06 114.84C206.43 115.36 206.08 115.65 206.01 115.71C205.65 115.99 205.28 116.26 204.91 116.54C203.42 117.63 201.81 118.55 200.11 119.29C198.39 120.03 196.6 120.55 194.76 120.86C192.94 121.16 191.09 121.3 189.25 121.26C187.44 121.22 185.63 121.08 183.83 120.84C183.93 120.18 184.23 118.2 184.34 117.54Z" id="c2mZf061pS"></path><path d="M181.56 38.5C180.7 39.87 181.12 41.67 182.49 42.52C183.86 43.38 185.66 42.96 186.51 41.59C187.37 40.22 186.95 38.42 185.58 37.57C184.21 36.71 182.41 37.13 181.56 38.5Z" id="a1wRACp1fQ"></path><path d="M91.56 236.89C90.95 238.38 91.66 240.08 93.15 240.69C94.64 241.3 96.34 240.59 96.95 239.1C97.56 237.6 96.85 235.9 95.36 235.29C93.87 234.68 92.17 235.4 91.56 236.89Z" id="b1GvldY9Qf"></path><path d="M236.33 179.24C235.48 180.61 235.9 182.41 237.26 183.26C238.63 184.11 240.43 183.69 241.28 182.32C242.13 180.95 241.71 179.15 240.34 178.3C238.97 177.45 237.18 177.87 236.33 179.24Z" id="asTvieD6w"></path><path d="M27.05 95.5C26.44 96.99 27.15 98.69 28.64 99.3C30.13 99.91 31.84 99.2 32.45 97.71C33.06 96.22 32.34 94.51 30.85 93.9C29.36 93.29 27.66 94.01 27.05 95.5Z" id="a2iDGX2DPm"></path><path d="M177.86 235.09C176.28 235.39 175.24 236.92 175.55 238.5C175.85 240.08 177.38 241.12 178.96 240.81C180.54 240.51 181.58 238.98 181.27 237.4C180.97 235.82 179.44 234.78 177.86 235.09Z" id="b28oEREnnM"></path><path d="M93.97 34.31C92.49 34.94 91.8 36.65 92.43 38.13C93.06 39.62 94.77 40.31 96.26 39.68C97.74 39.05 98.43 37.33 97.8 35.85C97.17 34.37 95.46 33.68 93.97 34.31Z" id="c3ntSorxx4"></path><path d="M32.05 179.56C30.47 179.9 29.47 181.45 29.81 183.03C30.15 184.6 31.7 185.6 33.27 185.26C34.85 184.92 35.85 183.37 35.51 181.8C35.17 180.23 33.62 179.22 32.05 179.56Z" id="a1d94hK94g"></path><path d="M237.69 96.85C236.2 97.48 235.51 99.19 236.14 100.67C236.77 102.16 238.48 102.85 239.96 102.22C241.44 101.6 242.14 99.89 241.51 98.4C240.88 96.92 239.17 96.23 237.69 96.85Z" id="dN3mnUSZx"></path><path d="M138.87 99.51C118.59 99.51 102.15 115.94 102.15 136.22C102.15 156.5 118.59 172.94 138.87 172.94C159.14 172.94 175.58 156.5 175.58 136.22C175.58 115.94 159.14 99.51 138.87 99.51Z" id="aaB7rxTmt"></path><path d="M138.87 88.68C112.61 88.68 91.32 109.96 91.32 136.22C91.32 162.48 112.61 183.77 138.87 183.77C165.13 183.77 186.41 162.48 186.41 136.22C186.41 109.96 165.13 88.68 138.87 88.68Z" id="c1FU01jis3"></path></defs><g><g><use xlink:href="#b23pYaTVEz" opacity="1" fill="#b27337" fill-opacity="1"></use><g><use xlink:href="#b23pYaTVEz" opacity="1" fill-opacity="0" stroke="#000000" stroke-width="1" stroke-opacity="0"></use></g></g><g><use xlink:href="#aeQ7njtjB" opacity="1" fill="#ffffff" fill-opacity="1"></use><g><use xlink:href="#aeQ7njtjB" opacity="1" fill-opacity="0" stroke="#000000" stroke-width="1" stroke-opacity="0"></use></g></g><g><use xlink:href="#d1EGPWu1Dj" opacity="1" fill="#000000" fill-opacity="0"></use><g><use xlink:href="#d1EGPWu1Dj" opacity="1" fill-opacity="0" stroke="#e5af34" stroke-width="1.85" stroke-opacity="1"></use></g></g><g><use xlink:href="#o6bwW4rBfF" opacity="1" fill="#e5af34" fill-opacity="1"></use><g><use xlink:href="#o6bwW4rBfF" opacity="1" fill-opacity="0" stroke="#000000" stroke-width="1" stroke-opacity="0"></use></g></g><g><use xlink:href="#baqubsu2r" opacity="1" fill="#ffffff" fill-opacity="1"></use><g><use xlink:href="#baqubsu2r" opacity="1" fill-opacity="0" stroke="#000000" stroke-width="1" stroke-opacity="0"></use></g></g><g><use xlink:href="#c2MrZXla3" opacity="1" fill="#000000" fill-opacity="0"></use><g><use xlink:href="#c2MrZXla3" opacity="1" fill-opacity="0" stroke="#e5af34" stroke-width="1.85" stroke-opacity="1"></use></g></g><g><use xlink:href="#a2kwAYptU" opacity="1" fill="#e5af34" fill-opacity="1"></use><g><use xlink:href="#a2kwAYptU" opacity="1" fill-opacity="0" stroke="#000000" stroke-width="1" stroke-opacity="0"></use></g></g><g><use xlink:href="#dNKTcluEL" opacity="1" fill="#ffffff" fill-opacity="1"></use><g><use xlink:href="#dNKTcluEL" opacity="1" fill-opacity="0" stroke="#000000" stroke-width="1" stroke-opacity="0"></use></g></g><g><use xlink:href="#dW0KhOsTF" opacity="1" fill="#000000" fill-opacity="0"></use><g><use xlink:href="#dW0KhOsTF" opacity="1" fill-opacity="0" stroke="#e5af34" stroke-width="1.85" stroke-opacity="1"></use></g></g><g><use xlink:href="#a3nq6UKjXS" opacity="1" fill="#e5af34" fill-opacity="1"></use><g><use xlink:href="#a3nq6UKjXS" opacity="1" fill-opacity="0" stroke="#000000" stroke-width="1" stroke-opacity="0"></use></g></g><g><use xlink:href="#b2JfpXwZ40" opacity="1" fill="#ffffff" fill-opacity="1"></use><g><use xlink:href="#b2JfpXwZ40" opacity="1" fill-opacity="0" stroke="#000000" stroke-width="1" stroke-opacity="0"></use></g></g><g><use xlink:href="#a9I57nFph" opacity="1" fill="#000000" fill-opacity="0"></use><g><use xlink:href="#a9I57nFph" opacity="1" fill-opacity="0" stroke="#e5af34" stroke-width="1.85" stroke-opacity="1"></use></g></g><g><use xlink:href="#h2POHMX869" opacity="1" fill="#e5af34" fill-opacity="1"></use><g><use xlink:href="#h2POHMX869" opacity="1" fill-opacity="0" stroke="#000000" stroke-width="1" stroke-opacity="0"></use></g></g><g><use xlink:href="#b10OUGa3so" opacity="1" fill="#ffffff" fill-opacity="1"></use><g><use xlink:href="#b10OUGa3so" opacity="1" fill-opacity="0" stroke="#000000" stroke-width="1" stroke-opacity="0"></use></g></g><g><use xlink:href="#asMPoiFar" opacity="1" fill="#000000" fill-opacity="0"></use><g><use xlink:href="#asMPoiFar" opacity="1" fill-opacity="0" stroke="#e5af34" stroke-width="1.85" stroke-opacity="1"></use></g></g><g><use xlink:href="#d12nmQTuIH" opacity="1" fill="#e5af34" fill-opacity="1"></use><g><use xlink:href="#d12nmQTuIH" opacity="1" fill-opacity="0" stroke="#000000" stroke-width="1" stroke-opacity="0"></use></g></g><g><use xlink:href="#aZQ4vLVT4" opacity="1" fill="#ffffff" fill-opacity="1"></use><g><use xlink:href="#aZQ4vLVT4" opacity="1" fill-opacity="0" stroke="#000000" stroke-width="1" stroke-opacity="0"></use></g></g><g><use xlink:href="#fqf2YR8EA" opacity="1" fill="#000000" fill-opacity="0"></use><g><use xlink:href="#fqf2YR8EA" opacity="1" fill-opacity="0" stroke="#e5af34" stroke-width="1.85" stroke-opacity="1"></use></g></g><g><use xlink:href="#e4jHjh89In" opacity="1" fill="#e5af34" fill-opacity="1"></use><g><use xlink:href="#e4jHjh89In" opacity="1" fill-opacity="0" stroke="#000000" stroke-width="1" stroke-opacity="0"></use></g></g><g><use xlink:href="#b2LIwi3t0" opacity="1" fill="#ffffff" fill-opacity="1"></use><g><use xlink:href="#b2LIwi3t0" opacity="1" fill-opacity="0" stroke="#000000" stroke-width="1" stroke-opacity="0"></use></g></g><g><use xlink:href="#e7TuRkYFz" opacity="1" fill="#000000" fill-opacity="0"></use><g><use xlink:href="#e7TuRkYFz" opacity="1" fill-opacity="0" stroke="#e5af34" stroke-width="1.85" stroke-opacity="1"></use></g></g><g><use xlink:href="#aCEvlQbI7" opacity="1" fill="#e5af34" fill-opacity="1"></use><g><use xlink:href="#aCEvlQbI7" opacity="1" fill-opacity="0" stroke="#000000" stroke-width="1" stroke-opacity="0"></use></g></g><g><use xlink:href="#abimXMcvC" opacity="1" fill="#ffffff" fill-opacity="1"></use><g><use xlink:href="#abimXMcvC" opacity="1" fill-opacity="0" stroke="#000000" stroke-width="1" stroke-opacity="0"></use></g></g><g><use xlink:href="#fqUIYeeNM" opacity="1" fill="#000000" fill-opacity="0"></use><g><use xlink:href="#fqUIYeeNM" opacity="1" fill-opacity="0" stroke="#e5af34" stroke-width="1.85" stroke-opacity="1"></use></g></g><g><use xlink:href="#b42SS3ZnZW" opacity="1" fill="#e5af34" fill-opacity="1"></use><g><use xlink:href="#b42SS3ZnZW" opacity="1" fill-opacity="0" stroke="#000000" stroke-width="1" stroke-opacity="0"></use></g></g><g><use xlink:href="#hRCafLXj6" opacity="1" fill="#e5af34" fill-opacity="1"></use><g><use xlink:href="#hRCafLXj6" opacity="1" fill-opacity="0" stroke="#000000" stroke-width="1" stroke-opacity="0"></use></g></g><g><use xlink:href="#i3Q5UyRaSX" opacity="1" fill="#e5af34" fill-opacity="1"></use><g><use xlink:href="#i3Q5UyRaSX" opacity="1" fill-opacity="0" stroke="#000000" stroke-width="1" stroke-opacity="0"></use></g></g><g><use xlink:href="#a1QuWxdFiR" opacity="1" fill="#e5af34" fill-opacity="1"></use><g><use xlink:href="#a1QuWxdFiR" opacity="1" fill-opacity="0" stroke="#000000" stroke-width="1" stroke-opacity="0"></use></g></g><g><use xlink:href="#a3swkAvdMH" opacity="1" fill="#e5af34" fill-opacity="1"></use><g><use xlink:href="#a3swkAvdMH" opacity="1" fill-opacity="0" stroke="#000000" stroke-width="1" stroke-opacity="0"></use></g></g><g><use xlink:href="#bjMujzyK9" opacity="1" fill="#e5af34" fill-opacity="1"></use><g><use xlink:href="#bjMujzyK9" opacity="1" fill-opacity="0" stroke="#000000" stroke-width="1" stroke-opacity="0"></use></g></g><g><use xlink:href="#b21qI1gtVB" opacity="1" fill="#e5af34" fill-opacity="1"></use><g><use xlink:href="#b21qI1gtVB" opacity="1" fill-opacity="0" stroke="#000000" stroke-width="1" stroke-opacity="0"></use></g></g><g><use xlink:href="#j4GAxjtUBu" opacity="1" fill="#e5af34" fill-opacity="1"></use><g><use xlink:href="#j4GAxjtUBu" opacity="1" fill-opacity="0" stroke="#000000" stroke-width="1" stroke-opacity="0"></use></g></g><g><use xlink:href="#b2WNFOW6IW" opacity="1" fill="#e5af34" fill-opacity="1"></use><g><use xlink:href="#b2WNFOW6IW" opacity="1" fill-opacity="0" stroke="#000000" stroke-width="1" stroke-opacity="0"></use></g></g><g><use xlink:href="#c2mZf061pS" opacity="1" fill="#e5af34" fill-opacity="1"></use><g><use xlink:href="#c2mZf061pS" opacity="1" fill-opacity="0" stroke="#000000" stroke-width="1" stroke-opacity="0"></use></g></g><g><use xlink:href="#a1wRACp1fQ" opacity="1" fill="#e5af34" fill-opacity="1"></use><g><use xlink:href="#a1wRACp1fQ" opacity="1" fill-opacity="0" stroke="#000000" stroke-width="1" stroke-opacity="0"></use></g></g><g><use xlink:href="#b1GvldY9Qf" opacity="1" fill="#e5af34" fill-opacity="1"></use><g><use xlink:href="#b1GvldY9Qf" opacity="1" fill-opacity="0" stroke="#000000" stroke-width="1" stroke-opacity="0"></use></g></g><g><use xlink:href="#asTvieD6w" opacity="1" fill="#e5af34" fill-opacity="1"></use><g><use xlink:href="#asTvieD6w" opacity="1" fill-opacity="0" stroke="#000000" stroke-width="1" stroke-opacity="0"></use></g></g><g><use xlink:href="#a2iDGX2DPm" opacity="1" fill="#e5af34" fill-opacity="1"></use><g><use xlink:href="#a2iDGX2DPm" opacity="1" fill-opacity="0" stroke="#000000" stroke-width="1" stroke-opacity="0"></use></g></g><g><use xlink:href="#b28oEREnnM" opacity="1" fill="#e5af34" fill-opacity="1"></use><g><use xlink:href="#b28oEREnnM" opacity="1" fill-opacity="0" stroke="#000000" stroke-width="1" stroke-opacity="0"></use></g></g><g><use xlink:href="#c3ntSorxx4" opacity="1" fill="#e5af34" fill-opacity="1"></use><g><use xlink:href="#c3ntSorxx4" opacity="1" fill-opacity="0" stroke="#000000" stroke-width="1" stroke-opacity="0"></use></g></g><g><use xlink:href="#a1d94hK94g" opacity="1" fill="#e5af34" fill-opacity="1"></use><g><use xlink:href="#a1d94hK94g" opacity="1" fill-opacity="0" stroke="#000000" stroke-width="1" stroke-opacity="0"></use></g></g><g><use xlink:href="#dN3mnUSZx" opacity="1" fill="#e5af34" fill-opacity="1"></use><g><use xlink:href="#dN3mnUSZx" opacity="1" fill-opacity="0" stroke="#000000" stroke-width="1" stroke-opacity="0"></use></g></g><g><use xlink:href="#aaB7rxTmt" opacity="1" fill="#000000" fill-opacity="0"></use><g><use xlink:href="#aaB7rxTmt" opacity="1" fill-opacity="0" stroke="#ffffff" stroke-width="4" stroke-opacity="1"></use></g></g><g><use xlink:href="#c1FU01jis3" opacity="1" fill="#000000" fill-opacity="0"></use><g><use xlink:href="#c1FU01jis3" opacity="1" fill-opacity="0" stroke="#ffffff" stroke-width="2.83" stroke-opacity="1"></use></g></g></g></svg>