<svg xmlns="http://www.w3.org/2000/svg" data-name="Layer 1" width="435" height="500"><rect id="backgroundrect" width="100%" height="100%" x="0" y="0" fill="none" stroke="none" class="" style=""/><defs><style>.cls-1{fill:#3176a9;}.cls-2{fill:#b27337;}.cls-3{fill:#fff;}.cls-4,.cls-6,.cls-7{fill:none;}.cls-4{stroke:#e5af34;stroke-width:1.85px;}.cls-4,.cls-7{stroke-miterlimit:10;}.cls-5{fill:#e5af34;}.cls-6,.cls-7{stroke:#fff;}.cls-6{stroke-linecap:round;stroke-linejoin:round;stroke-width:4px;stroke-dasharray:0 20.43;}.cls-7{stroke-width:2.83px;stroke-dasharray:34.99 39.98;}</style></defs><title>6</title><g class="currentLayer" style=""><title>Layer 1</title><g class="selected" id="svg_1"><circle class="cls-2" cx="219.56000518798828" cy="248.07501220703125" r="113.37000274658203" id="svg_2"/><path class="cls-3" d="M205.01001823425293,174.364990234375 c-5.87,-8.6 -7.2,-17.18 -4.15,-25.46 s8.7,-15.74 9.66,-24.51 c1.29,-11.77 -6.2,-23.3 -4.45,-35 c1.21,-8 6.52,-14.69 11.16,-21.33 s8.94,-14.43 7.66,-22.43 c5.51,7.65 6.5,15.15 6.07,24.86 c-0.4400000000000003,10.06 -5.07,17.91 -2.2,27.92 c3.47,12.08 8,17.07 6.29,27.09 c-1.31,7.79 -5.5,14.38 -4.86,22.42 c1,12.26 12.24,18.08 8.95,29.93 l-15,10.56 l-16.4,-10 z" id="svg_3"/><path class="cls-4" d="M223.5300182342529,175.28499023437496 c-7.61,-12.7 -8.93,-22.43 -5.26,-34 c2.55,-8 5.58,-15.6 3.24,-27 " id="svg_4"/><circle class="cls-5" cx="222.1600112915039" cy="117.01498413085938" r="4.389999866485596" id="svg_5"/><path class="cls-3" d="M200.99001823425294,325.60499023437507 c-5.87,8.6 -7.2,17.18 -4.15,25.46 s8.7,15.74 9.66,24.51 c1.29,11.77 -6.2,23.3 -4.44,35 c1.2,8 6.51,14.69 11.15,21.33 S222.1500182342529,446.364990234375 220.87001823425294,454.364990234375 c5.51,-7.65 6.5,-15.15 6.07,-24.86 c-0.4400000000000003,-10.07 -5.07,-17.91 -2.2,-27.93 c3.47,-12.08 8,-17.06 6.29,-27.09 c-1.31,-7.78 -5.5,-14.38 -4.86,-22.42 c1,-12.25 12.24,-18.07 9,-29.92 l-15,-10.56 l-16.4,10 z" id="svg_6"/><path class="cls-4" d="M219.51001823425293,324.684990234375 c-7.61,12.69 -8.93,22.43 -5.26,34 c2.55,8.05 5.58,15.6 3.24,27 " id="svg_7"/><circle class="cls-5" cx="218.14002227783203" cy="382.95497131347656" r="4.389999866485596" id="svg_8"/><path class="cls-3" d="M293.12001823425294,237.494990234375 c8.6,-5.87 17.18,-7.2 25.46,-4.15 s15.74,8.7 24.51,9.66 c11.77,1.29 23.3,-6.2 35,-4.45 c8,1.21 14.69,6.52 21.33,11.16 s14.43,8.94 22.43,7.66 c-7.65,5.51 -15.15,6.5 -24.86,6.07 c-10.07,-0.4400000000000003 -17.91,-5.07 -27.93,-2.2 c-12.08,3.47 -17.06,8 -27.09,6.29 c-7.78,-1.31 -14.38,-5.5 -22.42,-4.86 c-12.25,1 -18.07,12.24 -29.92,8.95 l-10.56,-15 l10,-16.4 z" id="svg_9"/><path class="cls-4" d="M292.200018234253,256.014990234375 c12.69,-7.61 22.43,-8.93 34,-5.26 c8.05,2.55 15.6,5.58 27,3.24 " id="svg_10"/><circle class="cls-5" cx="350.47005462646484" cy="254.64498901367188" r="4.389999866485596" id="svg_11"/><path class="cls-3" d="M141.88001823425293,233.474990234375 c-8.6,-5.87 -17.18,-7.2 -25.46,-4.15 s-15.74,8.7 -24.51,9.66 c-11.77,1.29 -23.3,-6.2 -35,-4.44 c-8,1.2 -14.69,6.51 -21.33,11.15 s-14.43,8.94 -22.43,7.66 c7.65,5.51 15.15,6.5 24.86,6.07 c10.06,-0.4400000000000003 17.91,-5.07 27.92,-2.2 c12.08,3.47 17.07,8 27.09,6.29 c7.79,-1.31 14.38,-5.5 22.42,-4.86 c12.26,1 18.08,12.25 29.93,9 l10.56,-15 l-10,-16.4 z" id="svg_12"/><path class="cls-4" d="M142.80001823425295,251.994990234375 c-12.7,-7.61 -22.43,-8.93 -34,-5.26 c-8.05,2.55 -15.6,5.58 -27,3.24 " id="svg_13"/><circle class="cls-5" cx="84.53001403808594" cy="250.625" r="4.389999866485596" id="svg_14"/><path class="cls-3" d="M279.8000182342529,294.624990234375 c10.23,1.9300000000000002 17.24,7.06 20.94,15.07 s5,17.28 10.5,24.16 c7.41,9.23 20.86,12.09 27.9,21.61 c4.8100000000000005,6.52 5.77,15 7.19,23 s3.88,16.51 10.45,21.27 c-9.31,-1.51 -15.31,-6.11 -21.88,-13.28 c-6.8,-7.43 -9.07,-16.26 -18.19,-21.31 c-11,-6.08 -17.71,-6.42 -23.6,-14.7 c-4.58,-6.44 -6.28,-14.06 -12.41,-19.3 c-9.36,-8 -21.45,-4.12 -27.5,-14.82 L256.38001823425293,298.234990234375 l18.68,-4.51 z" id="svg_15"/><path class="cls-4" d="M266.0500182342529,307.074990234375 c14.36,3.59 22.18,9.54 27.74,20.29 c3.89,7.5 7.09,15 16.78,21.37 " id="svg_16"/><circle class="cls-5" cx="228.85999298095703" cy="855.5750274658203" r="4.389999866485596" transform="rotate(-45 -344.9899597167967,505.63500976562506) " id="svg_17"/><path class="cls-3" d="M175.70001823425292,184.84499023437502 c-1.9300000000000002,-10.24 -7.06,-17.25 -15.07,-20.95 s-17.28,-5 -24.16,-10.5 c-9.23,-7.41 -12.09,-20.85 -21.61,-27.89 c-6.52,-4.82 -15,-5.78 -23,-7.2 S75.38001823425293,114.424990234375 70.61001823425295,107.864990234375 c1.51,9.3 6.11,15.31 13.28,21.87 c7.43,6.8100000000000005 16.26,9.08 21.31,18.19 c6.08,11 6.42,17.72 14.7,23.61 c6.43,4.57 14.06,6.28 19.3,12.41 c8,9.35 4.12,21.44 14.82,27.49 l18.06,-3.13 l4.52,-18.68 z" id="svg_18"/><path class="cls-4" d="M163.25001823425293,198.58499023437503 c-3.59,-14.36 -9.54,-22.17 -20.29,-27.74 c-7.5,-3.88 -15,-7.08 -21.37,-16.77 " id="svg_19"/><circle class="cls-5" cx="124.39002990722656" cy="477.8050079345703" r="4.389999866485596" transform="rotate(-45 -264.249969482422,318.75500488281244) " id="svg_20"/><path class="cls-3" d="M172.85001823425296,312.284990234375 c-1.9300000000000002,10.23 -7.06,17.24 -15.07,20.94 s-17.28,5 -24.16,10.5 c-9.23,7.41 -12.09,20.86 -21.61,27.9 c-6.52,4.82 -15,5.78 -23,7.19 s-16.52,3.89 -21.27,10.45 c1.51,-9.31 6.11,-15.31 13.28,-21.87 c7.43,-6.8100000000000005 16.25,-9.08 21.3,-18.2 c6.09,-11 6.42,-17.71 14.71,-23.6 c6.43,-4.57 14.05,-6.28 19.29,-12.41 c8,-9.36 4.12,-21.45 14.83,-27.5 l18.06,3.13 l4.51,18.68 z" id="svg_21"/><path class="cls-4" d="M160.38001823425293,298.534990234375 c-3.59,14.36 -9.54,22.18 -20.29,27.74 c-7.5,3.89 -15,7.09 -21.36,16.78 " id="svg_22"/><circle class="cls-5" cx="1.1100292205810547" cy="792.8949737548828" r="4.389999866485596" transform="rotate(-53.83000183105469 -384.67996215820295,449.5449829101563) " id="svg_23"/><path class="cls-3" d="M282.63001823425293,208.174990234375 c10.24,-1.9300000000000002 17.25,-7.06 20.94,-15.07 s5,-17.28 10.5,-24.16 c7.42,-9.24 20.86,-12.09 27.9,-21.62 c4.82,-6.51 5.78,-15 7.2,-23 s3.88,-16.52 10.44,-21.27 c-9.31,1.51 -15.31,6.11 -21.87,13.28 c-6.8100000000000005,7.43 -9.08,16.26 -18.19,21.3 c-11,6.09 -17.72,6.43 -23.61,14.71 c-4.57,6.44 -6.28,14.06 -12.41,19.3 c-9.35,8 -21.44,4.12 -27.49,14.82 l3.13,18.07 l18.68,4.51 z" id="svg_24"/><path class="cls-4" d="M268.8900182342529,195.724990234375 c14.36,-3.59 22.17,-9.54 27.74,-20.29 c3.88,-7.5 7.08,-15 16.77,-21.37 " id="svg_25"/><circle class="cls-5" cx="419.7600326538086" cy="685.8650054931641" r="4.389999866485596" transform="rotate(-53.83000183105469 -156.9199829101561,527.7349853515626) " id="svg_26"/><circle class="cls-5" cx="219.56000518798828" cy="248.07501220703125" r="86.76000213623047" id="svg_27"/><path class="cls-5" d="M249.5500182342529,184.624990234375 a72.73,72.73 0 0 1 -0.9400000000000005,-8.13 a45.31,45.31 0 0 1 0.30000000000000027,-8.3 a35.31,35.31 0 0 1 2.06,-8.15 a37.69,37.69 0 0 1 3.88,-7.39 c0.39000000000000035,-0.56 0.78,-1.1400000000000001 1.18,-1.6900000000000008 l1.26,-1.6300000000000003 l2.49,-3.07 a69.24,69.24 0 0 0 4.57,-6.18 a36.47,36.47 0 0 0 3.44,-6.69 a38.48,38.48 0 0 0 2,-7.29 l3.19,0.5 a41.17,41.17 0 0 1 -1.9300000000000002,8 a39.64,39.64 0 0 1 -3.56,7.43 a71.19,71.19 0 0 1 -4.63,6.6400000000000015 l-2.39,3.13 L259.38001823425293,153.364990234375 c-0.35000000000000026,0.51 -0.6800000000000008,1 -1,1.57 a31.49,31.49 0 0 0 -4.87,13.83 a50.39,50.39 0 0 0 1,15 z" id="svg_28"/><path class="cls-5" d="M192.10001823425296,321.914990234375 a50.36,50.36 0 0 0 -11,10.25 a31.48,31.48 0 0 0 -5.87,13.43 c-0.1,0.6200000000000006 -0.22000000000000014,1.24 -0.3100000000000003,1.86 l-0.24000000000000013,1.8800000000000003 l-0.3800000000000003,3.92 a72.48,72.48 0 0 1 -1.1400000000000001,8 a40.56,40.56 0 0 1 -2.46,7.87 a42.26,42.26 0 0 1 -4,7.16 l-2.67,-1.82 a38.41,38.41 0 0 0 3.52,-6.68 a36.65,36.65 0 0 0 2,-7.23 a70.26,70.26 0 0 0 0.8600000000000005,-7.6400000000000015 l0.27,-3.95 l0.2,-2 c0.08000000000000007,-0.6800000000000008 0.19000000000000014,-1.37 0.28,-2.05 a38.34,38.34 0 0 1 2.21,-8 a35.6,35.6 0 0 1 4,-7.36 a44.9,44.9 0 0 1 5.45,-6.28 a74.25,74.25 0 0 1 6.23,-5.3 z" id="svg_29"/><path class="cls-5" d="M285.50001823425293,281.664990234375 a75.75,75.75 0 0 1 8.13,-0.9400000000000005 a45.38,45.38 0 0 1 8.31,0.30000000000000027 a35.88,35.88 0 0 1 8.14,2.06 a38,38 0 0 1 7.39,3.88 c0.5700000000000005,0.4 1.1400000000000001,0.78 1.6900000000000008,1.19 l1.6400000000000001,1.25 l3.07,2.49 a70.72,70.72 0 0 0 6.17,4.58 a38.11,38.11 0 0 0 6.69,3.44 a39.22,39.22 0 0 0 7.29,2 l-0.49000000000000027,3.2 a42.68,42.68 0 0 1 -8,-1.9300000000000002 a41,41 0 0 1 -7.44,-3.56 a74.65,74.65 0 0 1 -6.6400000000000015,-4.6400000000000015 L318.38001823425293,292.564990234375 l-1.53,-1.11 c-0.52,-0.36000000000000026 -1,-0.6900000000000008 -1.57,-1 A31.56,31.56 0 0 0 301.38001823425293,285.554990234375 a49.72,49.72 0 0 0 -15,1 z" id="svg_30"/><path class="cls-5" d="M148.2100182342529,224.21499023437502 a49.88,49.88 0 0 0 -10.25,-11 A31.55,31.55 0 0 0 124.5300182342529,207.364990234375 c-0.6200000000000006,-0.1 -1.23,-0.22000000000000014 -1.85,-0.3100000000000003 l-1.8800000000000003,-0.23 l-3.92,-0.3800000000000003 a72.65,72.65 0 0 1 -8,-1.1400000000000001 a40.29,40.29 0 0 1 -7.86,-2.47 a41.58,41.58 0 0 1 -7.16,-4 l1.82,-2.67 a38,38 0 0 0 6.67,3.52 a36.74,36.74 0 0 0 7.24,2.05 a67.34,67.34 0 0 0 7.6400000000000015,0.8600000000000005 l3.94,0.27 l2.05,0.2 c0.6800000000000008,0.08000000000000007 1.36,0.19000000000000014 2,0.29000000000000026 a37.4,37.4 0 0 1 8.05,2.2 a35.09,35.09 0 0 1 7.36,4 a45.57,45.57 0 0 1 6.28,5.45 a74.38,74.38 0 0 1 5.3100000000000005,6.23 z" id="svg_31"/><path class="cls-5" d="M244.58001823425292,319.684990234375 a75.3,75.3 0 0 1 6.43,5.07 a46.67,46.67 0 0 1 5.67,6.07 a34.85,34.85 0 0 1 4.3100000000000005,7.21 a37.73,37.73 0 0 1 2.51,8 c0.12000000000000002,0.6800000000000008 0.25,1.36 0.36000000000000026,2 l0.27,2 l0.42000000000000026,3.94 a69.17,69.17 0 0 0 1.15,7.6 a36.85,36.85 0 0 0 2.31,7.15 a39.55,39.55 0 0 0 3.77,6.55 l-2.6,1.9100000000000001 a41.73,41.73 0 0 1 -4.3,-7 a40.4,40.4 0 0 1 -2.7600000000000002,-7.77 a73,73 0 0 1 -1.44,-8 l-0.52,-3.91 l-0.3100000000000003,-1.86 c-0.11000000000000007,-0.6200000000000006 -0.25,-1.23 -0.3800000000000003,-1.85 a31.53,31.53 0 0 0 -6.37,-13.2 a49.79,49.79 0 0 0 -11.34,-9.84 z" id="svg_32"/><path class="cls-5" d="M187.82001823425293,182.104990234375 a50.17,50.17 0 0 0 0.48000000000000026,-15 a31.57,31.57 0 0 0 -5.38,-13.64 c-0.36000000000000026,-0.51 -0.7100000000000005,-1 -1.09,-1.53 l-1.17,-1.49 l-2.51,-3 a69,69 0 0 1 -4.87,-6.46 a40,40 0 0 1 -3.84,-7.3 a41.35,41.35 0 0 1 -2.22,-7.91 l3.17,-0.6100000000000005 a38.92,38.92 0 0 0 2.25,7.21 a36.72,36.72 0 0 0 3.68,6.55 a67.21,67.21 0 0 0 4.8100000000000005,6 l2.6,3 l1.31,1.58 c0.43000000000000027,0.54 0.8300000000000005,1.1 1.25,1.6500000000000008 a38.07,38.07 0 0 1 4.15,7.24 a35.49,35.49 0 0 1 2.36,8.06 a45.44,45.44 0 0 1 0.6100000000000005,8.29 a76.06,76.06 0 0 1 -0.6400000000000007,8.16 z" id="svg_33"/><path class="cls-5" d="M150.45001823425292,276.694990234375 a79.49,79.49 0 0 1 -5.07,6.43 a45.46,45.46 0 0 1 -6.08,5.67 a35.26,35.26 0 0 1 -7.2,4.32 a38,38 0 0 1 -8,2.5 c-0.6700000000000008,0.12000000000000002 -1.35,0.26 -2,0.36000000000000026 l-2,0.28 l-3.93,0.41000000000000025 a68.45,68.45 0 0 0 -7.6,1.15 a36.3,36.3 0 0 0 -7.16,2.3200000000000003 a38.1,38.1 0 0 0 -6.54,3.77 l-1.92,-2.6100000000000003 a42.07,42.07 0 0 1 7,-4.3 a40.6,40.6 0 0 1 7.77,-2.7600000000000002 a70.86,70.86 0 0 1 8,-1.4300000000000002 l3.91,-0.53 l1.87,-0.30000000000000027 c0.6200000000000006,-0.12000000000000002 1.23,-0.26 1.84,-0.39000000000000035 a31.5,31.5 0 0 0 13.21,-6.36 a50.56,50.56 0 0 0 9.84,-11.35 z" id="svg_34"/><path class="cls-5" d="M288.0200182342529,219.94499023437504 a50.24,50.24 0 0 0 15,0.47000000000000025 a31.39,31.39 0 0 0 13.63,-5.37 c0.51,-0.3700000000000003 1,-0.7200000000000005 1.53,-1.1 l1.49,-1.1600000000000001 l3,-2.51 A73.8,73.8 0 0 1 329.1800182342529,205.364990234375 a40.6,40.6 0 0 1 7.3,-3.83 A41.8,41.8 0 0 1 344.38001823425293,199.364990234375 l0.6100000000000005,3.18 a37.83,37.83 0 0 0 -7.2,2.24 a37.08,37.08 0 0 0 -6.5600000000000005,3.68 a70.19,70.19 0 0 0 -6,4.8100000000000005 l-3,2.6 l-1.58,1.31 c-0.54,0.43000000000000027 -1.1,0.8400000000000005 -1.6500000000000008,1.25 a37.69,37.69 0 0 1 -7.23,4.15 a35.13,35.13 0 0 1 -8.06,2.36 a45.44,45.44 0 0 1 -8.29,0.6100000000000005 a73.57,73.57 0 0 1 -8.16,-0.6400000000000007 z" id="svg_35"/><circle class="cls-5" cx="413.51059559424203" cy="-120.68376551402474" r="4.389999866485596" transform="matrix(0.53,-0.85,0.85,0.53,170.99,518.71) " id="svg_36"/><circle class="cls-5" cx="38.2700080871582" cy="1039.1449737548828" r="4.389999866485596" transform="rotate(-67.75 -379.7199707031249,635.2349853515626) " id="svg_37"/><circle class="cls-5" cx="400.0800094604492" cy="1004.9250030517578" r="4.389999866485596" transform="rotate(-58.119998931884766 -235.58998107910134,687.0849609375001) " id="svg_38"/><circle class="cls-5" cx="77.85000610351562" cy="604.1449737548828" r="4.389999866485596" transform="rotate(-67.76000213623047 -243.0099945068359,413.10498046875006) " id="svg_39"/><circle class="cls-5" cx="212.7500228881836" cy="511.10499572753906" r="4.389999866485596" transform="rotate(-10.859999656677246 -331.949951171875,107.19499206542959) " id="svg_40"/><circle class="cls-5" cx="147.4699935913086" cy="270.85498046875" r="4.389999866485596" transform="rotate(-23.040000915527344 -271.82995605468756,169.5249938964844) " id="svg_41"/><circle class="cls-5" cx="-0.4799823760986328" cy="393.25502014160156" r="4.389999866485596" transform="rotate(-12.149999618530273 -325.72998046875,72.97499084472666) " id="svg_42"/><circle class="cls-5" cx="344.15001678466797" cy="455.9450225830078" r="4.389999866485596" transform="rotate(-22.93000030517578 -291.5199584960937,260.51498413085943) " id="svg_43"/><circle class="cls-6" cx="219.56000518798828" cy="248.07501220703125" r="55.279998779296875" id="svg_44"/><circle class="cls-7" cx="219.56000518798828" cy="248.07501220703125" r="71.58999633789062" id="svg_45"/></g></g></svg>