<svg id="Layer_1" data-name="Layer 1" xmlns="http://www.w3.org/2000/svg" xmlns:xlink="http://www.w3.org/1999/xlink" viewBox="0 0 925.32 805.12"><defs><style>.txc3l_1{fill:#367d75;}.txc3l_2{fill:url(#lgtxc3);}.txc3l_3{fill:url(#lgtxc3l_2);}.txc3l_4{fill:url(#lgtxc3l_3);}.txc3l_5{fill:url(#lgtxc3l_4);}.txc3l_6{fill:#e5af36;}.txc3l_7{fill:#9fa851;}.txc3l_8{fill:#2f5f5b;}.txc3l_9{fill:url(#lgtxc3l_5);}.txc3l_10{fill:url(#lgtxc3l_6);}.txc3l_11{fill:url(#lgtxc3l_7);}</style><linearGradient id="lgtxc3" x1="383.32" y1="460.09" x2="393.32" y2="365.09" gradientUnits="userSpaceOnUse"><stop offset="0" stop-color="#3b6660" stop-opacity="0"/><stop offset="0.64" stop-color="#9fa851"/></linearGradient><linearGradient id="lgtxc3l_2" x1="517.09" y1="412.85" x2="527.09" y2="317.85" xlink:href="#lgtxc3"/><linearGradient id="lgtxc3l_3" x1="289.54" y1="356.55" x2="297.14" y2="284.35" xlink:href="#lgtxc3"/><linearGradient id="lgtxc3l_4" x1="663.09" y1="377.07" x2="667.75" y2="332.78" xlink:href="#lgtxc3"/><linearGradient id="lgtxc3l_5" x1="587.51" y1="450.33" x2="588.15" y2="414.65" gradientUnits="userSpaceOnUse"><stop offset="0" stop-color="#3b6660" stop-opacity="0"/><stop offset="1" stop-color="#305051"/></linearGradient><linearGradient id="lgtxc3l_6" x1="603.27" y1="533.63" x2="604.21" y2="481.84" xlink:href="#lgtxc3l_5"/><linearGradient id="lgtxc3l_7" x1="451.83" y1="487.44" x2="452.48" y2="451.76" xlink:href="#lgtxc3l_5"/></defs><title>36</title><rect class="txc3l_1" x="-1.01" width="926.33" height="805.12"/><path class="txc3l_2" d="M471.35,445.77c-5.81-4.83-15.22,2.35-22-1.06-7-3.53-6.25-15.9-13.75-18.16-4.66-1.4-10.33,2.1-14.58,1-.09-6.1-1.22-11.71-5.4-15.95-1.3-1.76-6.1-5.08-12.44-5.07-17.72,0-19.31,11.6-20.67,16-4.45.33-9.32-4.49-14.26-4.12-7.81.59-9.77,12.82-17.35,14.76-7.32,1.87-15-7.18-21.68-3.71-4.52,2.34-4.94,8.7-8.33,12.49-2.81,3.16-7.31,4.14-11.52,4.49s-8.59.28-12.46,2l-.12.05c-4.68,2.12-3.6,8.77,1,9.81H468.28a6.1,6.1,0,0,0,5.88-7.75A9.32,9.32,0,0,0,471.35,445.77Z"/><path class="txc3l_3" d="M605.13,398.54c-5.81-4.84-15.23,2.35-22-1.06-7-3.54-6.26-15.91-13.75-18.17-4.66-1.4-10.33,2.1-14.58,1-.1-6.1-1.22-11.71-5.41-15.94-1.3-1.77-6.09-5.08-12.43-5.08-17.72,0-19.31,11.6-20.67,16-4.46.33-9.32-4.5-14.26-4.13-7.81.59-9.77,12.82-17.36,14.76-7.32,1.88-15-7.18-21.67-3.71-4.52,2.34-4.95,8.7-8.33,12.5-2.82,3.15-7.32,4.13-11.53,4.49s-8.59.28-12.46,2l-.11.06c-4.68,2.11-3.6,8.76,1,9.8h170.5a6.09,6.09,0,0,0,5.87-7.75A9.24,9.24,0,0,0,605.13,398.54Z"/><path class="txc3l_4" d="M356.45,345.67c-4.41-3.67-11.57,1.79-16.7-.8-5.31-2.69-4.75-12.09-10.45-13.81-3.54-1.06-7.85,1.6-11.08.77-.07-4.64-.92-8.9-4.11-12.12-1-1.34-4.63-3.86-9.45-3.86-13.47,0-14.68,8.82-15.71,12.18-3.39.25-7.08-3.42-10.84-3.13-5.93.44-7.42,9.74-13.19,11.22-5.56,1.42-11.37-5.46-16.48-2.82-3.43,1.77-3.75,6.61-6.32,9.49-2.14,2.4-5.56,3.15-8.77,3.41s-6.52.22-9.47,1.51l-.09,0a4,4,0,0,0,.74,7.45H354.12a4.62,4.62,0,0,0,4.46-5.89A7,7,0,0,0,356.45,345.67Z"/><path class="txc3l_5" d="M704.14,370.4c-2.71-2.26-7.1,1.09-10.25-.5s-2.91-7.41-6.41-8.46c-2.17-.66-4.81,1-6.8.47,0-2.85-.56-5.46-2.51-7.44a7.9,7.9,0,0,0-5.8-2.37c-8.27,0-9,5.41-9.64,7.48-2.08.15-4.35-2.1-6.65-1.93-3.64.28-4.55,6-8.09,6.89s-7-3.35-10.11-1.73c-2.1,1.09-2.3,4.05-3.88,5.82-1.31,1.47-3.41,1.93-5.38,2.09s-4,.14-5.81.93l0,0a2.43,2.43,0,0,0,.45,4.57h79.5a2.84,2.84,0,0,0,2.74-3.61A4.34,4.34,0,0,0,704.14,370.4Z"/><path class="txc3l_6" d="M501.67,555a49.4,49.4,0,0,1,3.21-8.17,36.24,36.24,0,0,1,5.23-7.28l3.43,3.37a31.14,31.14,0,0,0-5.25,5.92,44.94,44.94,0,0,0-3.7,7.22Z"/><path class="txc3l_6" d="M486.84,551a89.3,89.3,0,0,0,.17-17.45l4.8-.2a93,93,0,0,1-1.9,18.13Z"/><path class="txc3l_6" d="M471.46,553.59A129.36,129.36,0,0,1,466.84,537l4.74-.74a125.4,125.4,0,0,0,2.86,16.48Z"/><path class="txc3l_7" d="M397.44,514.92a48.08,48.08,0,0,1,1.29-8.67A35.69,35.69,0,0,1,402.2,498l4.09,2.51a31.13,31.13,0,0,0-3.78,6.94,44.66,44.66,0,0,0-2,7.87Z"/><path class="txc3l_7" d="M382.08,514.32a88.52,88.52,0,0,0-3.76-17.05L383,496a92.55,92.55,0,0,1,2.23,18.1Z"/><path class="txc3l_7" d="M367.68,520.32a128.22,128.22,0,0,1-8.24-15.17l4.46-1.78a124.25,124.25,0,0,0,6.48,15.42Z"/><path class="txc3l_7" d="M275.5,493.86a27,27,0,0,1,.72-4.88,20.47,20.47,0,0,1,1.95-4.66l2.3,1.42a17.65,17.65,0,0,0-2.12,3.9,25.2,25.2,0,0,0-1.12,4.43Z"/><path class="txc3l_7" d="M266.85,493.52a49.43,49.43,0,0,0-2.11-9.59l2.61-.72a53.26,53.26,0,0,1,1.25,10.18Z"/><path class="txc3l_7" d="M258.75,496.89a71.5,71.5,0,0,1-4.63-8.53l2.51-1a70.4,70.4,0,0,0,3.64,8.67Z"/><path class="txc3l_7" d="M487.7,409.2a26.31,26.31,0,0,1,.73-4.88,19.93,19.93,0,0,1,1.94-4.65l2.3,1.41a17.94,17.94,0,0,0-2.12,3.91,25.64,25.64,0,0,0-1.12,4.43Z"/><path class="txc3l_7" d="M479.06,408.86a50.2,50.2,0,0,0-2.12-9.59l2.61-.71a52.38,52.38,0,0,1,1.25,10.18Z"/><path class="txc3l_7" d="M471,412.24a73.15,73.15,0,0,1-4.64-8.53l2.51-1a68.46,68.46,0,0,0,3.65,8.68Z"/><path class="txc3l_7" d="M419,342a26.19,26.19,0,0,1,.73-4.88,20,20,0,0,1,1.94-4.66l2.31,1.42a17.29,17.29,0,0,0-2.13,3.9,26.11,26.11,0,0,0-1.12,4.43Z"/><path class="txc3l_7" d="M410.39,341.69a50.2,50.2,0,0,0-2.12-9.59l2.61-.72a52.47,52.47,0,0,1,1.25,10.18Z"/><path class="txc3l_7" d="M402.29,345.06a71.56,71.56,0,0,1-4.64-8.53l2.51-1a69.81,69.81,0,0,0,3.65,8.67Z"/><path class="txc3l_7" d="M616.37,614.13a28,28,0,0,1,.73-4.88,20.21,20.21,0,0,1,1.95-4.65l2.3,1.41a17.54,17.54,0,0,0-2.13,3.91,24.86,24.86,0,0,0-1.11,4.42Z"/><path class="txc3l_7" d="M607.73,613.79a50.18,50.18,0,0,0-2.11-9.59l2.6-.71a51.52,51.52,0,0,1,1.25,10.17Z"/><path class="txc3l_7" d="M599.63,617.16a70.1,70.1,0,0,1-4.63-8.53l2.5-1a70.71,70.71,0,0,0,3.65,8.67Z"/><path class="txc3l_7" d="M595.83,469a27.14,27.14,0,0,1,.72-4.88,20.4,20.4,0,0,1,2-4.65l2.3,1.42a17.65,17.65,0,0,0-2.12,3.9,25.64,25.64,0,0,0-1.12,4.43Z"/><path class="txc3l_7" d="M587.18,468.61a49.17,49.17,0,0,0-2.11-9.58l2.61-.72a53.16,53.16,0,0,1,1.25,10.18Z"/><path class="txc3l_7" d="M579.09,472a71.69,71.69,0,0,1-4.64-8.53l2.51-1a68.46,68.46,0,0,0,3.65,8.68Z"/><path class="txc3l_6" d="M359.41,412.91a47.51,47.51,0,0,1,3-8.25,35.63,35.63,0,0,1,5-7.43l3.52,3.27a31.09,31.09,0,0,0-5.07,6.06,45.46,45.46,0,0,0-3.5,7.33Z"/><path class="txc3l_6" d="M344.46,409.3a88.39,88.39,0,0,0-.33-17.45l4.79-.34a91.9,91.9,0,0,1-1.38,18.18Z"/><path class="txc3l_6" d="M329.16,412.35a130,130,0,0,1-5.09-16.49l4.72-.88a123.8,123.8,0,0,0,3.33,16.4Z"/><circle class="txc3l_8" cx="426.5" cy="447.43" r="2.49"/><circle class="txc3l_8" cx="304.66" cy="534.53" r="2.49"/><circle class="txc3l_8" cx="428.99" cy="610.32" r="2.49"/><circle class="txc3l_8" cx="257.2" cy="395.07" r="7.36"/><circle class="txc3l_8" cx="498.99" cy="331.38" r="5.73"/><path class="txc3l_9" d="M647.52,438.94c-4-3.32-10.45,1.62-15.08-.73-4.79-2.42-4.29-10.91-9.44-12.46-3.2-1-7.08,1.44-10,.69-.07-4.19-.84-8-3.71-10.95-.9-1.21-4.19-3.48-8.54-3.48-12.16,0-13.26,8-14.19,11-3.06.23-6.4-3.09-9.79-2.83-5.36.4-6.7,8.8-11.91,10.13-5,1.29-10.27-4.93-14.88-2.54-3.1,1.6-3.4,6-5.72,8.57-1.93,2.17-5,2.84-7.91,3.08s-5.9.2-8.56,1.36l-.08,0a3.59,3.59,0,0,0,.67,6.73h117a4.18,4.18,0,0,0,4-5.32A6.35,6.35,0,0,0,647.52,438.94Z"/><path class="txc3l_10" d="M690.4,517.1c-5.78-4.82-15.17,2.34-21.89-1.06-7-3.52-6.23-15.85-13.7-18.1-4.65-1.4-10.3,2.09-14.53,1-.1-6.09-1.22-11.67-5.39-15.9-1.3-1.75-6.08-5.06-12.4-5.05-17.65,0-19.24,11.56-20.6,16-4.44.33-9.28-4.48-14.21-4.11-7.78.58-9.73,12.78-17.29,14.71-7.3,1.86-14.92-7.16-21.61-3.7-4.5,2.33-4.92,8.67-8.3,12.45-2.8,3.15-7.29,4.12-11.48,4.48s-8.56.28-12.42,2l-.12.05c-4.66,2.11-3.58,8.74,1,9.77H687.35a6.06,6.06,0,0,0,5.85-7.72A9.18,9.18,0,0,0,690.4,517.1Z"/><path class="txc3l_11" d="M511.85,476.05c-4-3.32-10.45,1.62-15.08-.72-4.8-2.43-4.3-10.92-9.44-12.47-3.2-1-7.09,1.44-10,.69-.07-4.19-.84-8-3.71-10.95-.89-1.21-4.19-3.48-8.54-3.48-12.16,0-13.26,8-14.19,11-3.06.23-6.39-3.09-9.79-2.83-5.36.4-6.7,8.8-11.91,10.13-5,1.29-10.27-4.93-14.88-2.54-3.1,1.6-3.39,6-5.72,8.57-1.93,2.17-5,2.84-7.91,3.08s-5.9.2-8.55,1.36l-.08,0a3.58,3.58,0,0,0,.66,6.73h117a4.18,4.18,0,0,0,4-5.32A6.33,6.33,0,0,0,511.85,476.05Z"/></svg>
