<svg id="Layer_1" data-name="Layer 1" xmlns="http://www.w3.org/2000/svg" xmlns:xlink="http://www.w3.org/1999/xlink" viewBox="0 0 925.32 805.12"><defs><style>.txc3r_1{fill:#367d75;}.txc3r_2{fill:url(#lgtxc3r);}.txc3r_3{fill:url(#lgtxc3r_2);}.txc3r_4{fill:url(#lgtxc3r_3);}.txc3r_5{fill:url(#lgtxc3r_4);}.txc3r_6{fill:url(#lgtxc3r_5);}.txc3r_7{fill:#9fa851;}.txc3r_8{fill:url(#lgtxc3r_6);}.txc3r_9{fill:#2f5f5b;}.txc3r_10{fill:#e5af36;}</style><linearGradient id="lgtxc3r" x1="564.46" y1="518.9" x2="566.45" y2="409.45" gradientUnits="userSpaceOnUse"><stop offset="0" stop-color="#3b6660" stop-opacity="0"/><stop offset="1" stop-color="#305051"/></linearGradient><linearGradient id="lgtxc3r_2" x1="620.64" y1="375.74" x2="621.47" y2="330.13" xlink:href="#lgtxc3r"/><linearGradient id="lgtxc3r_3" x1="626.7" y1="552.63" x2="627.35" y2="516.95" xlink:href="#lgtxc3r"/><linearGradient id="lgtxc3r_4" x1="261.98" y1="573.17" x2="262.95" y2="520.05" xlink:href="#lgtxc3r"/><linearGradient id="lgtxc3r_5" x1="331.9" y1="407.19" x2="332.43" y2="377.93" xlink:href="#lgtxc3r"/><linearGradient id="lgtxc3r_6" x1="348.95" y1="478.07" x2="611.35" y2="478.07" gradientUnits="userSpaceOnUse"><stop offset="0" stop-color="#2f5f5b"/><stop offset="1" stop-color="#2f5f5b"/></linearGradient></defs><title>35</title><path class="txc3r_2" d="M748.6,484c-12.23-10.19-32.06,4.94-46.27-2.24-14.71-7.44-13.17-33.49-29-38.25-9.81-3-21.75,4.42-30.7,2.13-.2-12.86-2.57-24.67-11.38-33.59-2.74-3.71-12.85-10.7-26.2-10.69-37.31,0-40.67,24.44-43.53,33.75-9.38.7-19.62-9.46-30-8.68-16.45,1.23-20.57,27-36.55,31.09-15.42,3.94-31.51-15.13-45.65-7.82-9.52,4.92-10.41,18.32-17.54,26.31-5.93,6.65-15.41,8.71-24.28,9.46s-18.09.59-26.24,4.16l-.25.11c-9.85,4.46-7.57,18.47,2,20.66H742.13A12.84,12.84,0,0,0,754.51,494C753.38,490.13,751.73,486.58,748.6,484Z"/><path class="txc3r_3" d="M697.37,361.18c-5.09-4.25-13.36,2.06-19.28-.93-6.13-3.1-5.49-14-12.07-15.94-4.09-1.23-9.06,1.84-12.79.88-.08-5.35-1.07-10.27-4.74-14-1.15-1.55-5.36-4.46-10.92-4.45-15.55,0-17,10.18-18.14,14.06-3.91.29-8.18-3.95-12.52-3.62-6.85.51-8.57,11.25-15.22,12.95-6.43,1.65-13.14-6.3-19-3.25-4,2.05-4.34,7.63-7.31,11-2.47,2.77-6.42,3.63-10.11,3.94s-7.54.25-10.94,1.74l-.1,0a4.58,4.58,0,0,0,.85,8.61H694.68a5.34,5.34,0,0,0,5.15-6.8A8.1,8.1,0,0,0,697.37,361.18Z"/><path class="txc3r_4" d="M686.72,541.24c-4-3.32-10.45,1.61-15.08-.73-4.8-2.42-4.29-10.91-9.44-12.46-3.2-1-7.09,1.44-10,.69-.06-4.19-.83-8-3.71-11-.89-1.21-4.18-3.48-8.53-3.48-12.17,0-13.26,8-14.19,11-3.06.23-6.4-3.09-9.79-2.83-5.36.4-6.71,8.8-11.91,10.13-5,1.29-10.28-4.93-14.89-2.54-3.1,1.6-3.39,6-5.71,8.57-1.93,2.17-5,2.84-7.92,3.08s-5.89.2-8.55,1.36l-.08,0a3.58,3.58,0,0,0,.67,6.73h117a4.18,4.18,0,0,0,4-5.32A6.38,6.38,0,0,0,686.72,541.24Z"/><path class="txc3r_5" d="M351.34,556.21c-5.93-4.94-15.56,2.4-22.45-1.08-7.14-3.61-6.4-16.25-14.06-18.56-4.76-1.44-10.55,2.14-14.9,1-.09-6.24-1.24-12-5.52-16.3-1.33-1.8-6.23-5.19-12.71-5.19-18.11,0-19.74,11.86-21.13,16.38-4.55.34-9.52-4.59-14.58-4.21-8,.6-10,13.1-17.73,15.08-7.48,1.92-15.29-7.33-22.16-3.79-4.61,2.39-5,8.89-8.51,12.77-2.87,3.22-7.47,4.23-11.78,4.59s-8.78.29-12.73,2l-.12,0c-4.78,2.17-3.68,9,1,10H348.2a6.24,6.24,0,0,0,6-7.93A9.53,9.53,0,0,0,351.34,556.21Z"/><path class="txc3r_6" d="M381.13,397.85c-3.27-2.73-8.57,1.32-12.37-.6S365.24,388.3,361,387c-2.63-.8-5.82,1.18-8.21.56-.05-3.43-.69-6.59-3-9a9.52,9.52,0,0,0-7-2.85c-10,0-10.87,6.53-11.64,9-2.5.19-5.24-2.53-8-2.32-4.39.33-5.49,7.22-9.77,8.31-4.12,1.05-8.42-4-12.2-2.09-2.55,1.32-2.79,4.9-4.69,7-1.59,1.77-4.12,2.32-6.49,2.52s-4.84.16-7,1.12l-.06,0a2.94,2.94,0,0,0,.54,5.52h96a3.43,3.43,0,0,0,3.31-4.37A5.21,5.21,0,0,0,381.13,397.85Z"/><path class="txc3r_7" d="M579.21,436.34a6.7,6.7,0,1,0-5.27-1.4,6.58,6.58,0,0,0,3.2,1.41,109,109,0,0,1-.6,12.26,94.51,94.51,0,0,1-3.66,15.82c-2.8,9.44-6.25,19.36-5.61,29.35.08,1.36,2.22,1.37,2.14,0-.67-10.5,3.23-20.89,6.13-30.81A99.67,99.67,0,0,0,579.21,436.34Z"/><path class="txc3r_7" d="M604.52,446.07a6.71,6.71,0,0,0-9.61,9.38,6.88,6.88,0,0,0,2.1,1.45c-2.53,8.09-5.54,15.65-10.6,22.67a73.82,73.82,0,0,0-10.75,22.71,1.07,1.07,0,0,0,2.06.57,74.42,74.42,0,0,1,11.45-23.42c4.84-6.62,7.57-14.24,9.93-22a6.71,6.71,0,0,0,5.42-11.37Z"/><path class="txc3r_7" d="M562.34,446.47a6.71,6.71,0,1,0-8.44,10.44,7.25,7.25,0,0,0,.67.46C552,469,560.78,481.63,557,493.49c-.43,1.31,1.64,1.88,2.06.57,3.77-11.69-4.9-24.46-2.47-35.85a6.71,6.71,0,0,0,5.79-11.74Z"/><path class="txc3r_7" d="M479.69,401.92l.08-.15a70.53,70.53,0,0,1,8.13-8.52c6.43-2.56,13,3.42,19.47.52.66-.3.12-1.28-.53-1-5.59,2.5-11.39-1.81-17.14-1.1,4.06-3.47,8.39-6.66,12.73-9.85.58-.43-.19-1.24-.76-.82-2.68,2-5.35,3.94-7.95,6a7.61,7.61,0,0,0-.12-4.55c-1.21-3.62-1.61-6.9,0-10.5.29-.66-.78-1-1.07-.32a13.45,13.45,0,0,0-.88,8.23c.32,1.45,1.12,2.82,1.32,4.29a6.67,6.67,0,0,1-1,4.08.55.55,0,0,0-.09.23c-1.56,1.26-3.1,2.54-4.59,3.87a.67.67,0,0,0-.15.14,77.25,77.25,0,0,0-5.88,5.85,18.42,18.42,0,0,0-.09-11.21c-.22-.67-1.31-.42-1.08.27a17.45,17.45,0,0,1-1.21,13.75c-.41.52-.82,1-1.21,1.58a50.18,50.18,0,0,0-4.91,8.11,22.54,22.54,0,0,0-2.16-9.5c-.3-.65-1.28-.12-1,.53a20.54,20.54,0,0,1,1.77,12.07c-.4,1-.78,2-1.12,3-1.87,5.68-3.26,11.76-7.81,16-.52.49.24,1.3.77.82,3.86-3.6,5.62-8.54,7.16-13.45q.36-1.17.75-2.31a.44.44,0,0,0,.13-.14c2.16-3.45,6.42-3.39,10-3.13.71.05.74-1.06,0-1.12-3.13-.22-6.59-.18-9.09,1.63a.68.68,0,0,0,.08-.19c0-.14.06-.28.08-.42a49.35,49.35,0,0,1,5.15-9.8.51.51,0,0,0,.24-.09c4.46-2.93,10.42-2.08,14.43,1.28.54.46,1.36-.3.81-.76-3.87-3.24-9.4-4.44-14-2.44l.51-.66A.53.53,0,0,0,479.69,401.92Z"/><path class="txc3r_7" d="M491.31,415.45c-3.4-1.49-5.4-5.38-9.29-6-3-.46-4.8,1.8-6.18,4.14a.53.53,0,0,0,.07.65.48.48,0,0,0,.15.45,11.93,11.93,0,0,0,15.36,1.75A.57.57,0,0,0,491.31,415.45Z"/><path class="txc3r_7" d="M517.75,375.22l-.12-.07c-3.64-1.74-8.38-2.54-12.16-.71a11.2,11.2,0,0,0-5.82,8.3.43.43,0,0,0,0,.4.43.43,0,0,0,.26.28A9.68,9.68,0,0,0,510,384.86c3.87-1.61,6.39-5.26,8-9A.48.48,0,0,0,517.75,375.22Z"/><path class="txc3r_7" d="M520.14,396.41l-.1-.06c-3.86-2.12-6.86-6.08-11.36-6.93-3.1-.59-6.54.88-7.35,4.12a.61.61,0,0,0,0,.27.44.44,0,0,0,.05.15,9.93,9.93,0,0,0,7.5,6c4,.53,8-1.07,11.51-2.56C521,397.2,520.65,396.46,520.14,396.41Z"/><path class="txc3r_7" d="M498.18,370c-.14-4-2.75-7.57-3.13-11.54a.57.57,0,0,0-.94-.42,18.28,18.28,0,0,0-3.53,4.2,32.57,32.57,0,0,0-2.87,4.73,7.38,7.38,0,0,0-.36,5.42c.69,1.87,2.31,3,3.92,4a.58.58,0,0,0,.27.09.66.66,0,0,0,.21,0A6.38,6.38,0,0,0,498.18,370Z"/><path class="txc3r_7" d="M473,397c-1.8-3.6-5.46-5.62-8.87-7.44a.57.57,0,0,0-.79.74c2,3.76.14,8.11,1.52,12,.93,2.65,3.54,4.7,6.4,3.64a.86.86,0,0,0,.19-.11.48.48,0,0,0,.46-.15A7.45,7.45,0,0,0,473,397Z"/><path class="txc3r_7" d="M484.08,391.16a8.83,8.83,0,0,0,.81-8.19c-1.8-4.79-6.26-7.79-9.53-11.5-.41-.46-1,0-.95.52.55,4.64-1.2,9.27-.29,13.89.68,3.45,3.18,6.51,6.85,6.73h.09A3.75,3.75,0,0,0,484.08,391.16Z"/><path class="txc3r_7" d="M507.92,412.89a.47.47,0,0,0-.23-.27c-3.49-3.56-5.55-8.73-10.13-11.13-3.11-1.62-7.12-1.34-9.32,1.59a4.91,4.91,0,0,0-.26,2.29c1.14,8.11,12.84,9,19.42,8.33l.14,0A.56.56,0,0,0,507.92,412.89Z"/><path class="txc3r_7" d="M492.27,376.46c.49-2-.1-4-.19-6.06a15.12,15.12,0,0,1,1.4-6.95c.1-.22-.21-.42-.31-.2a15.77,15.77,0,0,0-1.47,6.15c-.06,2.36.8,4.75.18,7.08Z"/><path class="txc3r_7" d="M511.76,377.4a22.23,22.23,0,0,1-7.1,3.91,30.76,30.76,0,0,1-3.56.86,4.63,4.63,0,0,0-1.44.49s0,0,0,.08a.42.42,0,0,0,0,.38,7.56,7.56,0,0,1,3-.86,20.82,20.82,0,0,0,3.35-1,22.43,22.43,0,0,0,6.08-3.58C512.2,377.52,511.94,377.25,511.76,377.4Z"/><path class="txc3r_7" d="M515.34,396.19a29.09,29.09,0,0,1-7.72-.87c-2.11-.54-4.12-1.52-6.28-1.8v0a.61.61,0,0,0,0,.27s0,.05,0,.08c2.34.31,4.55,1.42,6.84,1.95a29.09,29.09,0,0,0,7.15.72A.19.19,0,0,0,515.34,396.19Z"/><path class="txc3r_7" d="M495.8,406.62c1.25.89,2.44,1.85,3.67,2.76a6.65,6.65,0,0,0,3.64,1.58.19.19,0,0,0,0-.37c-1.79-.09-3.17-1.31-4.53-2.35-1.21-.93-2.43-1.86-3.71-2.7a18.18,18.18,0,0,0-6.4-2.75l-.24.29,0,.05A18.74,18.74,0,0,1,495.8,406.62Z"/><path class="txc3r_7" d="M488.46,415.4c-4.07-.23-8.6-2.9-12.65-1.67a.53.53,0,0,0,0,.39c4-1.3,8.59,1.43,12.64,1.66C488.69,415.79,488.7,415.42,488.46,415.4Z"/><path class="txc3r_7" d="M467.2,393.54c-.12-.2-.45,0-.33.18a32,32,0,0,1,4.52,12.15l.08-.05a.45.45,0,0,0,.28,0A32.35,32.35,0,0,0,467.2,393.54Z"/><path class="txc3r_7" d="M477,376.27c-.12-.21-.45,0-.33.17A36.36,36.36,0,0,1,481,392.61h.37A36.67,36.67,0,0,0,477,376.27Z"/><path class="txc3r_1" d="M514.32,454.55c-3.89-4.53-10.87-4.41-16.73-3.3s-12.17,2.8-17.57.25c-11.28-5.33-9.39-24-20-30.51-6.76-4.13-15.77-1.5-23.14-4.41-5.86-2.31-10.2-7.93-16.37-9.14-6.67-1.31-13.27,3.11-17.23,8.63s-6.05,12.13-9.27,18.1-8.18,11.68-14.85,12.93c-8.79,1.66-19-4.61-26.23.67-8,5.86-4.65,21-13.49,25.53-5.63,2.86-12.39-.84-18.68-.23-6.78.65-12.2,6.4-14.54,12.8a1.07,1.07,0,0,0-.07.19,15.08,15.08,0,0,0,14.3,20H520.55Z"/><path class="txc3r_7" d="M452.61,461.47c-1-1-1.32.14-1.82.58-1.05.95-1.89,2.16-3.32,2.63-.9,1.78-2.72,2.4-4.28,3.26a18.73,18.73,0,0,1-6,2.35c1.8-2.75,4.36-4.84,6.39-7.4a104.41,104.41,0,0,0,8.22-14.39c.17-.71.33-1.43.49-2.15l-2.16-.72a25.06,25.06,0,0,1-3.49,7.83c-.91,3.27-3,5.76-5.29,8.16a27.82,27.82,0,0,1-4.28,4.82,38.11,38.11,0,0,1,.78-6.89A47.9,47.9,0,0,1,440.54,447l-2-.87q-1.32,6-2.66,12a54.83,54.83,0,0,1-1.57,10.58c-.26,1.08-1.17,1.59-1.86,2.29-1.37,1.36-2.75,2.7-4.24,4.16-.49-1.2-.13-2.4-.2-3.54-.33-5.35-.7-10.7-1.51-16a5.28,5.28,0,0,1,.13-1.24c-.62-1.24.24-2,.87-2.86,3.42-4.76,7.51-9.1,9.36-14.85.24-.75.5-1.49.75-2.24l-1.57-.72c-.2,2.68-1.65,4.84-3,7a43.55,43.55,0,0,1-6.1,6.87,54.24,54.24,0,0,1,4.27-17.84l-2-.79c-.85,2.8-2.37,5.34-3.16,8.18a66.63,66.63,0,0,0-2,16.57c.08,2.7.22,6,.38,9.57a23,23,0,0,1-5.38-2.67l-1.51-1,.17-.1a41.84,41.84,0,0,1-5.57-15.6l-2,.29a44,44,0,0,0,4.07,13.11,84.08,84.08,0,0,1-14-12.85l-1.53,1.33a86.59,86.59,0,0,0,10.81,10.43c-.38,0-.75,0-1.12,0A61.18,61.18,0,0,1,394.1,454l-.55,1.95a63.08,63.08,0,0,0,14.7,2.3,11,11,0,0,0,3.41-.27q3,2.31,6.29,4.34A26.91,26.91,0,0,0,423.3,465c.39.14.79.26,1.19.36.41,9.12.84,19.53.46,26.26.84.19,1.65.67,2.49.86.11-2.53.46-13.36,2.51-15.22a10,10,0,0,1,2.76-1.92c3.66-1.58,7.29-3.23,10.91-4.91a29.37,29.37,0,0,0,5.69-4.1c.93-1,1.92-1.92,2.75-3C452.44,462.85,453.63,462.45,452.61,461.47Zm-15.77,8.85.24,0-.22.17Z"/><path class="txc3r_8" d="M606.93,497.46c-8.44-7-22.12,3.41-31.92-1.54-10.15-5.13-9.09-23.1-20-26.39-6.77-2-15,3.05-21.18,1.47-.14-8.87-1.77-17-7.85-23.17-1.89-2.56-8.87-7.38-18.08-7.38-25.74,0-28.05,16.86-30,23.29-6.47.48-13.53-6.53-20.72-6-11.34.85-14.19,18.63-25.21,21.44-10.64,2.72-21.74-10.43-31.49-5.39-6.57,3.4-7.19,12.64-12.1,18.15-4.09,4.59-10.63,6-16.75,6.53s-12.48.41-18.11,2.87l-.16.08c-6.8,3.07-5.23,12.73,1.4,14.25H602.47A8.86,8.86,0,0,0,611,504.41,13.42,13.42,0,0,0,606.93,497.46Z"/><path class="txc3r_9" d="M389.35,481.67c-.71-.69-.94.1-1.29.42a7.21,7.21,0,0,1-2.37,1.87c-.64,1.26-1.93,1.7-3.05,2.32a13.48,13.48,0,0,1-4.27,1.67c1.28-2,3.11-3.45,4.55-5.27a74.63,74.63,0,0,0,5.86-10.24l.34-1.54-1.53-.51a18,18,0,0,1-2.48,5.57,14.34,14.34,0,0,1-3.77,5.82,20.23,20.23,0,0,1-3,3.43,26.42,26.42,0,0,1,.56-4.9,33.87,33.87,0,0,1,1.91-9l-1.4-.62c-.63,2.85-1.27,5.69-1.9,8.54a39.11,39.11,0,0,1-1.11,7.53c-.19.77-.84,1.13-1.33,1.63l-3,3a7.2,7.2,0,0,1-.14-2.52c-.24-3.81-.5-7.62-1.07-11.39a3,3,0,0,1,.09-.89c-.45-.88.16-1.41.61-2,2.44-3.38,5.35-6.47,6.67-10.57.17-.53.35-1.06.53-1.59l-1.11-.51a11,11,0,0,1-2.16,5,30.4,30.4,0,0,1-4.34,4.89,39,39,0,0,1,3-12.7l-1.45-.56c-.61,2-1.69,3.8-2.25,5.82a47,47,0,0,0-1.42,11.8c.05,1.92.15,4.27.26,6.82a16.85,16.85,0,0,1-3.83-1.91l-1.07-.69.12-.07a29.82,29.82,0,0,1-4-11.1l-1.42.2a31,31,0,0,0,2.9,9.33,60.06,60.06,0,0,1-10-9.14l-1.09.94a62.13,62.13,0,0,0,7.7,7.43h-.8a44,44,0,0,1-10.13-1.59l-.39,1.38a44.72,44.72,0,0,0,10.47,1.64,7.73,7.73,0,0,0,2.43-.19q2.16,1.65,4.47,3.09a19.24,19.24,0,0,0,3.81,1.94c.28.1.56.18.85.26.29,6.49.6,13.9.33,18.69.59.13,1.17.48,1.77.62.08-1.8.33-9.52,1.79-10.85a7.17,7.17,0,0,1,2-1.36c2.61-1.13,5.19-2.3,7.77-3.5a21.49,21.49,0,0,0,4.06-2.91c.66-.71,1.36-1.37,1.95-2.13C389.23,482.66,390.08,482.37,389.35,481.67ZM378.12,488h.18l-.16.13Z"/><path class="txc3r_1" d="M449.16,509.45c-.82-.79-1.08.12-1.48.48-.87.77-1.55,1.76-2.71,2.14-.74,1.45-2.22,1.95-3.5,2.66a15.53,15.53,0,0,1-4.89,1.91c1.47-2.24,3.56-3.95,5.21-6a85.63,85.63,0,0,0,6.71-11.73l.39-1.76-1.75-.59a20.52,20.52,0,0,1-2.85,6.39c-.75,2.66-2.47,4.69-4.31,6.65a23.48,23.48,0,0,1-3.49,3.93,30.21,30.21,0,0,1,.63-5.61,38.76,38.76,0,0,1,2.2-10.26l-1.61-.71c-.72,3.26-1.45,6.52-2.17,9.78a44.74,44.74,0,0,1-1.28,8.62c-.21.88-.95,1.3-1.52,1.87l-3.45,3.39a8.11,8.11,0,0,1-.17-2.89c-.27-4.36-.57-8.72-1.23-13a4,4,0,0,1,.11-1c-.51-1,.19-1.62.7-2.33,2.79-3.88,6.13-7.42,7.63-12.11.2-.61.41-1.22.62-1.82l-1.28-.59c-.16,2.19-1.35,3.94-2.47,5.71a35.09,35.09,0,0,1-5,5.6,44.27,44.27,0,0,1,3.48-14.55l-1.66-.64c-.69,2.28-1.93,4.35-2.57,6.67a54,54,0,0,0-1.64,13.51c.06,2.2.18,4.89.31,7.81a19.22,19.22,0,0,1-4.39-2.18l-1.23-.8.14-.08a34.19,34.19,0,0,1-4.54-12.71l-1.63.23A36,36,0,0,0,417.82,506a68.83,68.83,0,0,1-11.43-10.48l-1.24,1.08a70.11,70.11,0,0,0,8.81,8.51c-.31,0-.61,0-.92,0a50.09,50.09,0,0,1-11.6-1.82l-.44,1.59a51.66,51.66,0,0,0,12,1.87,9.12,9.12,0,0,0,2.79-.21q2.48,1.88,5.12,3.53a22.08,22.08,0,0,0,4.36,2.22c.32.11.65.21,1,.3.33,7.43.68,15.92.37,21.41.68.15,1.34.55,2,.7.09-2.06.38-10.9,2.05-12.42a8.17,8.17,0,0,1,2.25-1.56q4.47-1.93,8.89-4a24.69,24.69,0,0,0,4.65-3.34c.75-.81,1.56-1.57,2.24-2.44C449,510.58,450,510.25,449.16,509.45Zm-12.87,7.21.2,0-.18.14Z"/><path class="txc3r_1" d="M568.09,509.45c-.81-.79-1.07.12-1.48.48-.86.77-1.54,1.76-2.71,2.14-.73,1.45-2.22,1.95-3.49,2.66a15.53,15.53,0,0,1-4.89,1.91c1.46-2.24,3.55-3.95,5.21-6a86.69,86.69,0,0,0,6.71-11.73l.39-1.76-1.76-.59a20.27,20.27,0,0,1-2.84,6.39c-.75,2.66-2.47,4.69-4.32,6.65a22.62,22.62,0,0,1-3.49,3.93,31,31,0,0,1,.64-5.61,39.14,39.14,0,0,1,2.19-10.26l-1.6-.71c-.73,3.26-1.45,6.52-2.18,9.78a44.73,44.73,0,0,1-1.27,8.62c-.22.88-1,1.3-1.53,1.87l-3.45,3.39a8.11,8.11,0,0,1-.16-2.89c-.27-4.36-.57-8.72-1.23-13a4,4,0,0,1,.11-1c-.51-1,.19-1.62.7-2.33,2.79-3.88,6.13-7.42,7.63-12.11.2-.61.41-1.22.62-1.82l-1.28-.59c-.17,2.19-1.35,3.94-2.47,5.71a35.59,35.59,0,0,1-5,5.6,44.27,44.27,0,0,1,3.48-14.55L549,482.9c-.7,2.28-1.93,4.35-2.58,6.67a54.48,54.48,0,0,0-1.63,13.51c.06,2.2.18,4.89.31,7.81a19,19,0,0,1-4.39-2.18l-1.23-.8.14-.08a34.39,34.39,0,0,1-4.55-12.71l-1.62.23A35.42,35.42,0,0,0,536.76,506a68.83,68.83,0,0,1-11.43-10.48l-1.24,1.08a68.78,68.78,0,0,0,8.81,8.51c-.31,0-.62,0-.92,0a50.09,50.09,0,0,1-11.6-1.82l-.45,1.59a51.83,51.83,0,0,0,12,1.87,9,9,0,0,0,2.78-.21c1.66,1.25,3.36,2.43,5.13,3.53a22.08,22.08,0,0,0,4.36,2.22c.32.11.64.21,1,.3.33,7.43.69,15.92.38,21.41.68.15,1.34.55,2,.7.09-2.06.37-10.9,2-12.42a8.22,8.22,0,0,1,2.26-1.56q4.47-1.93,8.89-4a25,25,0,0,0,4.65-3.34c.75-.81,1.56-1.57,2.24-2.44C568,510.58,568.93,510.25,568.09,509.45Zm-12.86,7.21.2,0-.18.14Z"/><path class="txc3r_1" d="M515.42,495.58c-1-1-1.32.14-1.81.59-1.06.94-1.89,2.15-3.32,2.63-.91,1.77-2.73,2.39-4.29,3.26a18.76,18.76,0,0,1-6,2.34c1.8-2.75,4.36-4.84,6.39-7.39a105.67,105.67,0,0,0,8.23-14.39l.48-2.16-2.15-.72a25.06,25.06,0,0,1-3.49,7.83c-.92,3.27-3,5.76-5.29,8.16a28.25,28.25,0,0,1-4.28,4.82,38.11,38.11,0,0,1,.78-6.89,47.5,47.5,0,0,1,2.69-12.57l-2-.87-2.67,12a54.8,54.8,0,0,1-1.56,10.59c-.26,1.07-1.17,1.58-1.87,2.28-1.36,1.36-2.75,2.7-4.23,4.16-.5-1.2-.13-2.4-.2-3.54-.33-5.35-.7-10.69-1.51-16a4.8,4.8,0,0,1,.13-1.24c-.63-1.24.23-2,.86-2.86,3.43-4.76,7.52-9.1,9.36-14.85.24-.75.5-1.49.75-2.24l-1.56-.72c-.2,2.69-1.65,4.84-3,7a43.06,43.06,0,0,1-6.1,6.87A54.55,54.55,0,0,1,494,463.81l-2-.79c-.85,2.81-2.36,5.34-3.15,8.18a66.63,66.63,0,0,0-2,16.57c.07,2.7.21,6,.37,9.57a23.14,23.14,0,0,1-5.38-2.67l-1.51-1,.17-.1a42,42,0,0,1-5.57-15.6l-2,.29A44,44,0,0,0,477,491.4a84.14,84.14,0,0,1-14-12.85l-1.52,1.33a86.51,86.51,0,0,0,10.8,10.43c-.37,0-.75,0-1.12,0a60.72,60.72,0,0,1-14.23-2.22l-.54,1.94a63,63,0,0,0,14.7,2.3,11,11,0,0,0,3.41-.27q3,2.31,6.28,4.34a27.19,27.19,0,0,0,5.35,2.72,11.88,11.88,0,0,0,1.2.36c.4,9.12.84,19.53.45,26.26.84.19,1.65.67,2.49.86.11-2.52.47-13.36,2.51-15.22a10.13,10.13,0,0,1,2.76-1.92c3.66-1.58,7.29-3.23,10.91-4.91a29.74,29.74,0,0,0,5.7-4.1c.93-1,1.92-1.92,2.75-3C515.25,497,516.45,496.56,515.42,495.58Zm-15.77,8.85.25,0-.23.17Z"/><circle class="txc3r_1" cx="527.39" cy="482.9" r="1.78"/><circle class="txc3r_1" cx="465.24" cy="504.62" r="1.78"/><circle class="txc3r_9" cx="412.89" cy="425.61" r="1.78"/><circle class="txc3r_1" cx="299" cy="474.02" r="1.78"/><circle class="txc3r_1" cx="378.12" cy="426" r="1.78"/><circle class="txc3r_1" cx="340.86" cy="443.05" r="3.71"/><circle class="txc3r_9" cx="531.9" cy="526.58" r="1.78"/><circle class="txc3r_9" cx="464.99" cy="530.84" r="5.09"/><circle class="txc3r_9" cx="332.07" cy="496.61" r="5.09"/><circle class="txc3r_1" cx="511.18" cy="458.91" r="1.78"/><path class="txc3r_1" d="M435.07,380.86c4.37,0,11.11.55,11.12,1.36s-6.72,1.52-11.1,1.57-4.73-.62-4.74-1.42S430.69,380.9,435.07,380.86Z"/><path class="txc3r_1" d="M448.16,396.61c0-4.38.55-11.12,1.36-11.13s1.52,6.73,1.56,11.1-.61,4.73-1.42,4.74S448.2,401,448.16,396.61Z"/><path class="txc3r_1" d="M460.62,372.93c-3.06,3.12-8.25,7.47-8.83,6.91s3.68-5.84,6.74-9,3.78-2.91,4.36-2.35S463.69,369.81,460.62,372.93Z"/><path class="txc3r_1" d="M438.35,391.44c3.06-3.12,8.25-7.47,8.83-6.9s-3.68,5.83-6.74,8.95-3.78,2.92-4.36,2.35S435.29,394.56,438.35,391.44Z"/><path class="txc3r_1" d="M458.74,393.32c-3.12-3.06-7.47-8.25-6.9-8.83s5.83,3.68,9,6.74,2.92,3.78,2.35,4.36S461.86,396.39,458.74,393.32Z"/><path class="txc3r_1" d="M440.23,371.05c3.12,3.06,7.47,8.25,6.9,8.83s-5.83-3.68-8.95-6.74-2.91-3.78-2.35-4.35S437.11,368,440.23,371.05Z"/><path class="txc3r_1" d="M463.91,383.52c-4.38,0-11.12-.56-11.13-1.36s6.73-1.53,11.1-1.57,4.73.61,4.74,1.42S468.28,383.48,463.91,383.52Z"/><path class="txc3r_1" d="M450.82,367.77c0,4.37-.56,11.12-1.36,11.12s-1.53-6.72-1.57-11.1.61-4.73,1.42-4.73S450.77,363.39,450.82,367.77Z"/><circle class="txc3r_10" cx="609.26" cy="478.07" r="2.83"/><circle class="txc3r_10" cx="531.9" cy="435.61" r="2.83"/><circle class="txc3r_7" cx="530.12" cy="583.5" r="2.83"/><circle class="txc3r_9" cx="425.24" cy="567.44" r="2.83"/><circle class="txc3r_10" cx="326.98" cy="604" r="2.83"/></svg>
