<svg id="Layer_1" data-name="Layer 1" xmlns="http://www.w3.org/2000/svg" viewBox="0 0 1080 1080"><defs><style>.cls-1{fill:#304a63;}.cls-2{fill:#e5af36;}</style></defs><title>2</title><rect class="cls-1" x="-10.16" y="-18.4" width="1114.83" height="1114.83"/><path class="cls-2" d="M547.4,407.76c-14.21,20-28.39,40-42.3,60.16q-10.44,15.1-20.59,30.34c-6.73,10.15-13.37,20.39-19.45,30.69l-7.93-12.8a170.41,170.41,0,0,1,19.12.34c6.22.42,12.31,1,18.33,1.59s11.95,1.14,17.79,1.48a142.79,142.79,0,0,0,17.16.12l.22,0a7.8,7.8,0,0,1,7.2,11.76c-6.24,10.49-12.79,20.44-19.44,30.37s-13.45,19.7-20.35,29.42-13.9,19.36-21.08,28.91-14.45,19-22.54,28.24a6.47,6.47,0,0,1-9.82-8.42l.09-.1c7.37-8.76,14.4-18.29,21.3-27.81s13.64-19.24,20.29-29,13.17-19.6,19.56-29.51,12.66-19.91,18.35-29.93l7.42,11.74a155.52,155.52,0,0,1-19.14.27c-6.24-.25-12.37-.71-18.42-1.17s-12-.92-17.87-1.2a153.77,153.77,0,0,0-17.18,0,8.53,8.53,0,0,1-9.07-7.94,8.43,8.43,0,0,1,1.08-4.76l.06-.1c6.19-11,12.73-21.47,19.35-31.91s13.38-20.75,20.18-31c13.6-20.53,27.44-40.87,41.25-61.17a10,10,0,0,1,16.54,11.24Z"/><path class="cls-2" d="M619.27,415.76c-9,12.56-18,25.07-26.82,37.68q-6.62,9.45-13,19c-4.25,6.34-8.45,12.74-12.26,19.09l-7.92-12.79a109.6,109.6,0,0,1,12.39.28c4,.29,7.84.69,11.62,1.07s7.48.75,11.08,1a87.21,87.21,0,0,0,10.43.14l.32,0a7.77,7.77,0,0,1,7.1,11.76c-4,6.69-8.19,12.94-12.44,19.2s-8.56,12.4-13,18.51-8.84,12.17-13.41,18.17-9.19,12-14.42,17.86a6.47,6.47,0,0,1-9.83-8.41l.1-.11c4.5-5.42,8.89-11.44,13.18-17.42s8.48-12.12,12.62-18.27,8.2-12.35,12.17-18.59,7.87-12.53,11.35-18.75L606,496.85a102,102,0,0,1-12.42.24c-4-.14-7.9-.41-11.71-.68s-7.54-.54-11.17-.68a90.55,90.55,0,0,0-10.45.07,8.5,8.5,0,0,1-8-12.61l.11-.19c3.92-7,8-13.69,12.17-20.31s8.37-13.15,12.62-19.65c8.5-13,17.15-25.86,25.77-38.69a10,10,0,1,1,16.6,11.15Z"/></svg>