<svg id="Layer_1" data-name="Layer 1" xmlns="http://www.w3.org/2000/svg" viewBox="0 0 1080 1080"><defs><style>.cls-1{fill:#304a63;}.cls-2{fill:#e5af36;}</style></defs><title>3</title><rect class="cls-1" x="-10.16" y="-18.4" width="1114.83" height="1114.83"/><path class="cls-2" d="M583,472c-8.73,12.14-17.43,24.24-26,36.42q-6.39,9.13-12.61,18.33c-4.11,6.13-8.17,12.31-11.85,18.45l-7.93-12.8a102.93,102.93,0,0,1,12,.28c3.86.28,7.59.67,11.25,1s7.23.73,10.71,1a83,83,0,0,0,10.05.14H569a7.76,7.76,0,0,1,7.09,11.75c-3.9,6.48-7.94,12.53-12.05,18.58s-8.28,12-12.53,17.89-8.57,11.77-13,17.58-8.89,11.55-14,17.28a6.47,6.47,0,0,1-9.83-8.41l.1-.12c4.34-5.23,8.58-11,12.72-16.84s8.2-11.72,12.2-17.66,7.92-11.95,11.75-18,7.6-12.12,11-18.13l7.41,11.74a99.7,99.7,0,0,1-12,.24c-3.88-.13-7.65-.39-11.34-.65s-7.29-.52-10.79-.66a88.57,88.57,0,0,0-10.08.08,8.49,8.49,0,0,1-8-12.6l.12-.2c3.79-6.81,7.74-13.25,11.76-19.67s8.09-12.72,12.2-19c8.21-12.57,16.57-25,24.9-37.43a10,10,0,0,1,16.61,11.14Z"/></svg>