<?xml version="1.0" encoding="UTF-8" standalone="no"?>
<!DOCTYPE svg PUBLIC "-//W3C//DTD SVG 1.1//EN" "http://www.w3.org/Graphics/SVG/1.1/DTD/svg11.dtd">
<svg version="1.1" xmlns="http://www.w3.org/2000/svg" xmlns:xlink="http://www.w3.org/1999/xlink" preserveAspectRatio="xMidYMid meet" viewBox="0 0 640 320" width="640" height="320"><defs><path d="M115.81 63.56C118.83 63 120.79 63.43 121.67 64.81C122.74 66.5 123.28 69.48 123.28 73.66C123.28 80.77 123.28 137.68 123.28 144.79C123.28 145.59 123.93 146.24 124.74 146.24C124.82 146.25 124.9 146.25 124.99 146.24C144.33 142.87 164.03 139.97 183.53 137.63C184.26 137.54 184.81 136.91 184.81 136.18C184.81 135.65 184.81 131.43 184.81 130.91C184.81 130.49 184.63 130.09 184.32 129.82C184.01 129.54 183.6 129.41 183.19 129.46C168.16 131.26 152.97 133.4 138.01 135.82C138.01 129.4 138.01 78.07 138.01 71.66C138.01 66.98 137.65 63.61 136.89 61.35C136.04 58.83 134.56 57.2 132.53 56.48C130.64 55.83 128.02 55.8 124.55 56.41C120.61 57.14 116.62 57.82 112.72 58.55C112.02 58.68 111.52 59.29 111.53 60C111.53 60.26 111.53 62.37 111.53 62.63C111.52 63.44 112.16 64.1 112.96 64.11C113.06 64.11 113.16 64.1 113.25 64.09C113.24 64.08 115.55 63.6 115.81 63.56Z" id="b1NC1EBkQr"></path><path d="M541.61 199.13L542.21 199.16L542.82 199.19L543.45 199.24L544.08 199.3L544.72 199.38L545.37 199.46L546.02 199.55L546.69 199.65L547.37 199.77L548.06 199.89L548.75 200.03L549.46 200.18L550.18 200.33L550.78 200.47L551.38 200.61L551.98 200.75L552.58 200.89L553.18 201.03L553.78 201.18L554.39 201.32L554.99 201.46L555.59 201.6L556.19 201.74L556.8 201.89L557.4 202.03L558 202.17L558.61 202.32L559.21 202.46L559.81 202.6L560.42 202.75L561.02 202.89L561.63 203.04L562.23 203.18L562.83 203.33L563.44 203.47L564.04 203.62L564.64 203.77L565.25 203.91L565.85 204.06L566.45 204.21L567.05 204.35L567.66 204.5L568.26 204.65L568.86 204.8L569.46 204.95L570.06 205.09L570.67 205.24L571.27 205.39L571.87 205.54L572.47 205.69L573.07 205.84L573.67 205.99L574.27 206.14L574.31 206.15L574.36 206.17L574.41 206.18L574.45 206.2L574.5 206.22L574.54 206.24L574.59 206.26L574.63 206.28L574.67 206.31L574.71 206.33L574.75 206.36L574.79 206.39L574.83 206.42L574.86 206.45L574.9 206.48L574.93 206.51L574.97 206.55L575 206.58L575.03 206.62L575.06 206.65L575.09 206.69L575.12 206.73L575.14 206.77L575.17 206.81L575.19 206.85L575.21 206.89L575.23 206.94L575.25 206.98L575.27 207.03L575.29 207.07L575.3 207.12L575.32 207.16L575.33 207.21L575.34 207.26L575.35 207.3L575.36 207.35L575.36 207.4L575.37 207.45L575.37 207.5L575.37 207.55L575.37 210.84L575.37 210.88L575.37 210.89L575.37 210.91L575.37 210.93L575.37 210.94L575.37 210.96L575.36 210.99L575.36 211.05L575.35 211.11L575.34 211.16L575.32 211.22L575.31 211.28L575.29 211.33L575.27 211.39L575.25 211.44L575.22 211.49L575.2 211.54L575.17 211.59L575.14 211.64L575.11 211.68L575.07 211.73L575.04 211.77L575 211.82L574.96 211.86L574.93 211.9L574.88 211.93L574.84 211.97L574.8 212L574.75 212.04L574.71 212.07L574.66 212.1L574.61 212.13L574.56 212.15L574.51 212.18L574.46 212.2L574.41 212.22L574.35 212.24L574.3 212.25L574.24 212.27L574.19 212.28L574.13 212.29L574.07 212.29L574.02 212.3L573.96 212.3L573.9 212.3L573.84 212.3L573.78 212.3L568.95 211.85L569.07 211.97L569.2 212.1L569.32 212.23L569.45 212.36L569.57 212.49L569.69 212.62L569.82 212.75L569.94 212.88L570.06 213.01L570.18 213.15L570.29 213.28L570.41 213.41L570.53 213.55L570.64 213.69L570.76 213.82L570.87 213.96L570.98 214.1L571.09 214.24L571.2 214.38L571.31 214.52L571.42 214.66L571.53 214.81L571.64 214.95L571.74 215.09L571.85 215.24L571.95 215.38L572.05 215.53L572.16 215.68L572.26 215.83L572.36 215.97L572.46 216.12L572.55 216.27L572.65 216.42L572.75 216.57L572.84 216.73L572.94 216.88L573.03 217.03L573.12 217.18L573.21 217.34L573.3 217.49L573.43 217.72L573.56 217.95L573.69 218.18L573.81 218.41L573.93 218.65L574.05 218.88L574.16 219.12L574.27 219.36L574.38 219.6L574.48 219.84L574.58 220.08L574.68 220.32L574.77 220.57L574.86 220.81L574.95 221.06L575.03 221.3L575.11 221.55L575.19 221.8L575.26 222.05L575.33 222.3L575.4 222.56L575.46 222.81L575.52 223.06L575.58 223.32L575.63 223.57L575.69 223.83L575.73 224.09L575.78 224.35L575.82 224.6L575.85 224.86L575.89 225.12L575.92 225.38L575.94 225.64L575.97 225.91L575.98 226.17L576 226.43L576.01 226.69L576.02 226.95L576.03 227.22L576.03 227.48L576.03 227.94L576.02 228.39L576 228.84L575.98 229.28L575.95 229.71L575.91 230.14L575.87 230.56L575.82 230.97L575.76 231.38L575.7 231.78L575.63 232.18L575.56 232.57L575.48 232.95L575.39 233.33L575.29 233.7L575.19 234.07L575.09 234.42L574.97 234.78L574.85 235.12L574.72 235.46L574.59 235.79L574.45 236.12L574.3 236.44L574.15 236.75L573.99 237.06L573.83 237.36L573.65 237.66L573.48 237.94L573.29 238.22L573.1 238.5L572.9 238.77L572.7 239.03L572.49 239.28L572.27 239.53L572.05 239.78L571.82 240.01L571.58 240.24L571.34 240.46L571.09 240.68L570.83 240.89L570.5 241.15L570.15 241.39L569.8 241.63L569.43 241.85L569.06 242.07L568.68 242.27L568.28 242.46L567.88 242.65L567.47 242.82L567.04 242.98L566.61 243.13L566.17 243.27L565.71 243.39L565.25 243.51L564.78 243.62L564.29 243.71L563.8 243.79L563.29 243.87L562.78 243.93L562.25 243.98L561.72 244.02L561.17 244.05L560.62 244.07L560.05 244.08L559.48 244.08L558.89 244.06L558.29 244.04L557.68 244L557.06 243.96L556.43 243.9L555.79 243.83L555.14 243.76L554.48 243.67L553.81 243.57L553.12 243.45L552.43 243.33L551.73 243.2L551.01 243.06L550.28 242.9L549.54 242.74L548.91 242.6L548.3 242.46L547.71 242.34L547.14 242.23L546.59 242.13L546.07 242.04L545.57 241.95L545.08 241.88L544.62 241.81L544.18 241.75L543.75 241.7L543.35 241.66L542.96 241.63L542.59 241.6L542.24 241.57L541.91 241.56L541.59 241.55L541.29 241.54L541 241.55L540.73 241.55L540.48 241.56L540.24 241.58L540.01 241.6L539.8 241.62L539.6 241.64L539.42 241.67L539.24 241.7L539.08 241.74L538.93 241.77L538.79 241.81L538.66 241.85L538.55 241.89L538.44 241.93L538.34 241.97L538.25 242.02L538.17 242.06L538.1 242.1L538.04 242.14L537.98 242.18L537.93 242.22L537.91 242.23L537.9 242.24L537.88 242.25L537.87 242.27L537.85 242.28L537.84 242.29L537.83 242.31L537.81 242.32L537.8 242.34L537.79 242.35L537.78 242.37L537.77 242.39L537.75 242.4L537.74 242.42L537.73 242.43L537.72 242.45L537.71 242.47L537.71 242.49L537.7 242.5L537.69 242.52L537.68 242.54L537.67 242.56L537.67 242.58L537.66 242.59L537.65 242.61L537.65 242.63L537.64 242.65L537.64 242.67L537.64 242.69L537.63 242.71L537.63 242.73L537.63 242.75L537.63 242.77L537.62 242.79L537.62 242.81L537.62 242.83L537.62 242.85L537.62 242.86L537.62 242.88L537.63 242.9L537.63 243L537.64 243.1L537.66 243.21L537.68 243.32L537.72 243.43L537.76 243.55L537.82 243.67L537.88 243.8L537.96 243.93L538.05 244.06L538.15 244.2L538.27 244.34L538.4 244.48L538.55 244.63L538.72 244.78L538.9 244.93L539.1 245.08L539.31 245.24L539.55 245.4L539.81 245.56L540.08 245.73L540.38 245.89L540.7 246.06L541.04 246.23L541.41 246.4L541.8 246.58L542.21 246.75L542.65 246.93L543.12 247.11L543.61 247.29L544.13 247.47L544.68 247.65L545.26 247.84L545.87 248.02L546.51 248.2L547.18 248.39L547.88 248.57L548.62 248.76L549.39 248.95L550.19 249.13L550.83 249.28L551.47 249.44L552.09 249.6L552.72 249.76L553.34 249.94L553.95 250.11L554.56 250.3L555.16 250.48L555.76 250.68L556.35 250.88L556.94 251.08L557.52 251.3L558.09 251.51L558.66 251.73L559.23 251.96L559.78 252.19L560.34 252.43L560.88 252.68L561.42 252.93L561.96 253.18L562.49 253.44L563.01 253.71L563.53 253.98L564.05 254.26L564.55 254.54L565.05 254.83L565.55 255.12L566.04 255.42L566.52 255.73L567 256.04L567.47 256.35L567.94 256.67L568.4 257L568.85 257.33L569.3 257.67L569.74 258.01L570.18 258.36L570.61 258.71L571.03 259.07L571.45 259.43L571.87 259.81L572.27 260.19L572.67 260.57L573.05 260.96L573.43 261.35L573.79 261.75L574.15 262.16L574.49 262.56L574.82 262.97L575.15 263.39L575.46 263.81L575.76 264.23L576.05 264.66L576.33 265.1L576.6 265.54L576.86 265.98L577.11 266.42L577.35 266.88L577.58 267.33L577.79 267.79L578 268.25L578.2 268.72L578.38 269.19L578.56 269.67L578.72 270.15L578.88 270.63L579.02 271.12L579.15 271.62L579.27 272.11L579.39 272.61L579.49 273.12L579.58 273.63L579.66 274.14L579.72 274.66L579.78 275.18L579.83 275.7L579.87 276.23L579.89 276.76L579.91 277.3L579.91 277.84L579.91 278.41L579.89 278.97L579.86 279.53L579.83 280.07L579.78 280.6L579.72 281.12L579.65 281.64L579.56 282.14L579.47 282.63L579.37 283.12L579.25 283.59L579.13 284.05L578.99 284.5L578.85 284.95L578.69 285.38L578.52 285.8L578.34 286.21L578.15 286.61L577.95 287L577.74 287.38L577.52 287.76L577.29 288.12L577.04 288.47L576.79 288.8L576.52 289.13L576.25 289.45L575.96 289.76L575.66 290.06L575.35 290.34L575.04 290.62L574.71 290.88L574.37 291.14L574.01 291.38L573.65 291.62L573.28 291.84L572.9 292.05L572.51 292.25L572.1 292.44L571.69 292.62L571.26 292.79L571.04 292.87L570.81 292.95L570.58 293.03L570.35 293.1L570.12 293.17L569.9 293.24L569.67 293.31L569.44 293.38L569.21 293.44L568.97 293.5L568.74 293.56L568.51 293.62L568.28 293.67L568.04 293.73L567.81 293.78L567.58 293.82L567.34 293.87L567.11 293.91L566.87 293.96L566.64 294L566.4 294.03L566.16 294.07L565.93 294.1L565.69 294.13L565.45 294.16L565.22 294.19L564.98 294.22L564.74 294.24L564.5 294.26L564.26 294.28L564.02 294.29L563.79 294.31L563.55 294.32L563.31 294.33L563.07 294.33L562.83 294.34L562.59 294.34L562.35 294.34L562.11 294.34L561.87 294.34L561.56 294.33L561.25 294.32L560.93 294.32L560.62 294.3L560.31 294.29L560 294.28L559.69 294.26L559.38 294.24L559.07 294.22L558.75 294.2L558.44 294.18L558.13 294.15L557.82 294.13L557.51 294.1L557.2 294.07L556.89 294.04L556.58 294L556.27 293.97L555.96 293.93L555.66 293.89L555.35 293.85L555.04 293.81L554.73 293.77L554.42 293.72L554.11 293.68L553.81 293.63L553.5 293.58L553.19 293.52L552.88 293.47L552.58 293.41L552.27 293.36L551.97 293.3L551.66 293.24L551.35 293.17L551.05 293.11L550.74 293.04L550.44 292.98L550.14 292.91L549.83 292.84L549.53 292.76L548.85 292.61L548.17 292.44L547.51 292.28L546.85 292.11L546.2 291.93L545.55 291.75L544.92 291.57L544.29 291.38L543.67 291.19L543.06 290.99L542.45 290.79L541.85 290.59L541.26 290.38L540.68 290.16L540.1 289.95L539.53 289.72L538.97 289.5L538.42 289.27L537.87 289.03L537.33 288.79L536.8 288.55L536.27 288.3L535.75 288.05L535.24 287.79L534.74 287.53L534.24 287.26L533.75 286.99L533.26 286.71L532.79 286.43L532.32 286.14L531.85 285.85L531.4 285.56L530.95 285.26L530.5 284.96L530.07 284.65L529.64 284.33L529.21 284.01L528.79 283.69L528.38 283.36L527.98 283.03L527.57 282.68L527.17 282.33L526.79 281.97L526.41 281.61L526.04 281.24L525.68 280.86L525.34 280.48L525 280.09L524.67 279.7L524.36 279.3L524.05 278.9L523.76 278.49L523.47 278.07L523.2 277.65L522.93 277.22L522.68 276.79L522.43 276.35L522.2 275.91L521.97 275.46L521.76 275.01L521.56 274.55L521.37 274.08L521.18 273.61L521.01 273.13L520.85 272.65L520.7 272.17L520.56 271.67L520.43 271.18L520.31 270.67L520.2 270.16L520.1 269.65L520.01 269.13L519.93 268.61L519.86 268.08L519.81 267.54L519.76 267L519.72 266.46L519.7 265.91L519.68 265.35L519.68 264.79L519.68 264.46L519.69 264.13L519.7 263.8L519.72 263.48L519.75 263.16L519.78 262.84L519.82 262.53L519.86 262.21L519.91 261.91L519.96 261.6L520.02 261.3L520.09 261L520.16 260.71L520.23 260.42L520.32 260.13L520.4 259.84L520.5 259.56L520.6 259.28L520.7 259.01L520.81 258.73L520.93 258.46L521.05 258.2L521.18 257.94L521.31 257.68L521.45 257.42L521.6 257.17L521.75 256.92L521.9 256.67L522.06 256.43L522.23 256.19L522.4 255.96L522.58 255.72L522.76 255.49L522.95 255.27L523.15 255.05L523.35 254.83L523.55 254.61L523.77 254.4L523.98 254.19L524.2 253.99L524.38 253.84L524.56 253.68L524.73 253.53L524.91 253.39L525.1 253.24L525.28 253.1L525.46 252.96L525.65 252.82L525.84 252.69L526.03 252.56L526.22 252.43L526.41 252.3L526.61 252.17L526.8 252.05L527 251.93L527.2 251.81L527.4 251.7L527.6 251.58L527.8 251.47L528.01 251.36L528.21 251.26L528.42 251.16L528.63 251.05L528.84 250.96L529.05 250.86L529.26 250.77L529.47 250.68L529.69 250.59L529.9 250.5L530.12 250.42L530.33 250.34L530.55 250.26L530.77 250.19L530.99 250.12L531.21 250.05L531.44 249.98L531.66 249.92L531.88 249.86L532.11 249.8L532.33 249.74L532.17 249.58L532.01 249.42L531.86 249.25L531.7 249.08L531.56 248.91L531.41 248.73L531.27 248.55L531.13 248.37L531 248.19L530.87 248L530.74 247.81L530.62 247.62L530.5 247.43L530.39 247.24L530.27 247.04L530.17 246.84L530.06 246.64L529.96 246.44L529.87 246.23L529.78 246.03L529.69 245.82L529.61 245.61L529.53 245.4L529.45 245.19L529.38 244.97L529.31 244.76L529.25 244.54L529.19 244.32L529.14 244.1L529.09 243.88L529.04 243.66L529 243.44L528.96 243.21L528.93 242.99L528.9 242.76L528.88 242.53L528.86 242.31L528.85 242.08L528.83 241.85L528.83 241.62L528.83 241.46L528.83 241.3L528.84 241.15L528.84 240.99L528.85 240.84L528.86 240.69L528.88 240.54L528.89 240.4L528.91 240.25L528.93 240.11L528.95 239.97L528.97 239.83L529 239.7L529.02 239.56L529.05 239.43L529.08 239.3L529.12 239.17L529.15 239.05L529.19 238.92L529.23 238.8L529.27 238.68L529.31 238.56L529.36 238.44L529.4 238.33L529.45 238.22L529.5 238.11L529.56 238L529.61 237.89L529.67 237.79L529.73 237.68L529.79 237.58L529.85 237.49L529.91 237.39L529.98 237.29L530.05 237.2L530.12 237.11L530.19 237.02L530.26 236.94L530.34 236.85L530.42 236.77L530.46 236.73L530.51 236.68L530.55 236.64L530.6 236.6L530.64 236.55L530.69 236.51L530.73 236.47L530.78 236.43L530.82 236.38L530.87 236.34L530.91 236.3L530.96 236.26L531.01 236.22L531.05 236.18L531.1 236.14L531.15 236.1L531.19 236.06L531.24 236.02L531.29 235.98L531.34 235.94L531.38 235.9L531.43 235.86L531.48 235.82L531.53 235.78L531.58 235.74L531.63 235.7L531.67 235.66L531.72 235.63L531.77 235.59L531.82 235.55L531.87 235.51L531.92 235.48L531.97 235.44L532.02 235.4L532.07 235.37L532.12 235.33L532.17 235.3L532.22 235.26L532.28 235.22L532.33 235.19L532.15 235.04L531.98 234.88L531.81 234.72L531.64 234.56L531.48 234.4L531.31 234.24L531.14 234.08L530.98 233.92L530.82 233.75L530.66 233.58L530.5 233.42L530.34 233.25L530.19 233.07L530.03 232.9L529.88 232.73L529.73 232.55L529.58 232.38L529.43 232.2L529.29 232.02L529.14 231.84L529 231.66L528.86 231.48L528.72 231.29L528.58 231.11L528.44 230.92L528.31 230.73L528.17 230.55L528.04 230.36L527.91 230.17L527.78 229.97L527.66 229.78L527.53 229.59L527.41 229.39L527.29 229.19L527.17 228.99L527.05 228.8L526.93 228.6L526.82 228.39L526.7 228.19L526.59 227.99L526.44 227.72L526.3 227.44L526.16 227.17L526.02 226.89L525.89 226.61L525.76 226.33L525.63 226.05L525.51 225.77L525.39 225.48L525.28 225.2L525.16 224.91L525.06 224.62L524.95 224.33L524.85 224.04L524.76 223.75L524.66 223.45L524.57 223.16L524.49 222.86L524.41 222.57L524.33 222.27L524.26 221.97L524.19 221.67L524.12 221.37L524.06 221.07L524 220.77L523.95 220.47L523.9 220.16L523.85 219.86L523.81 219.55L523.77 219.25L523.73 218.94L523.7 218.63L523.67 218.33L523.65 218.02L523.63 217.71L523.62 217.4L523.6 217.09L523.6 216.78L523.59 216.47L523.59 216.16L523.6 215.7L523.61 215.24L523.63 214.78L523.65 214.34L523.68 213.9L523.72 213.46L523.76 213.03L523.81 212.61L523.87 212.19L523.93 211.78L524.01 211.38L524.08 210.98L524.17 210.59L524.26 210.2L524.36 209.82L524.46 209.45L524.57 209.09L524.69 208.73L524.82 208.37L524.95 208.02L525.09 207.68L525.23 207.35L525.38 207.02L525.54 206.7L525.71 206.38L525.88 206.08L526.06 205.77L526.24 205.48L526.43 205.19L526.63 204.9L526.84 204.63L527.05 204.36L527.27 204.09L527.49 203.84L527.72 203.59L527.96 203.34L528.21 203.1L528.46 202.87L528.72 202.65L528.98 202.43L529.32 202.17L529.68 201.92L530.04 201.68L530.41 201.45L530.79 201.23L531.18 201.03L531.58 200.83L531.99 200.64L532.41 200.47L532.84 200.3L533.28 200.15L533.73 200L534.19 199.87L534.65 199.75L535.13 199.63L535.62 199.53L536.12 199.44L536.62 199.36L537.14 199.29L537.66 199.24L538.2 199.19L538.74 199.15L539.3 199.12L539.86 199.11L540.44 199.11L541.02 199.11L541.61 199.13ZM542.97 255.53L542.52 255.64L542.07 255.77L541.64 255.91L541.22 256.07L540.82 256.23L540.42 256.4L540.04 256.58L539.67 256.77L539.31 256.97L538.96 257.18L538.62 257.4L538.3 257.63L537.99 257.88L537.69 258.13L537.4 258.39L537.13 258.66L536.86 258.95L536.61 259.25L536.37 259.56L536.14 259.89L535.92 260.24L535.72 260.6L535.53 260.98L535.36 261.37L535.2 261.78L535.06 262.21L534.92 262.65L534.81 263.1L534.7 263.57L534.61 264.06L534.53 264.56L534.47 265.07L534.42 265.6L534.39 266.15L534.37 266.71L534.36 267.29L534.37 268.03L534.4 268.75L534.46 269.45L534.54 270.14L534.64 270.82L534.77 271.47L534.91 272.11L535.09 272.74L535.28 273.35L535.5 273.94L535.74 274.52L536 275.09L536.29 275.64L536.6 276.17L536.94 276.69L537.3 277.2L537.68 277.7L538.09 278.18L538.53 278.65L538.98 279.1L539.45 279.54L539.95 279.97L540.46 280.38L540.99 280.78L541.54 281.16L542.11 281.53L542.69 281.89L543.29 282.22L543.91 282.55L544.55 282.86L545.2 283.15L545.87 283.43L546.55 283.69L547.25 283.93L547.96 284.16L548.69 284.37L549.43 284.56L550.19 284.74L550.95 284.9L551.69 285.04L552.41 285.15L553.12 285.24L553.81 285.31L554.48 285.36L555.13 285.38L555.77 285.38L556.39 285.37L556.99 285.33L557.57 285.26L558.14 285.18L558.68 285.08L559.2 284.95L559.71 284.81L560.19 284.64L560.65 284.45L561.09 284.25L561.51 284.02L561.9 283.77L562.28 283.49L562.63 283.19L562.96 282.87L563.27 282.52L563.55 282.15L563.82 281.75L564.06 281.33L564.29 280.88L564.49 280.41L564.67 279.91L564.82 279.38L564.96 278.83L565.08 278.25L565.17 277.65L565.24 277.02L565.3 276.37L565.33 275.68L565.34 274.97L565.3 273.71L565.17 272.48L564.97 271.29L564.68 270.14L564.31 269.02L563.86 267.94L563.33 266.91L562.72 265.91L562.03 264.95L561.26 264.02L560.4 263.14L559.47 262.3L558.45 261.49L557.36 260.73L556.18 260L554.93 259.31L553.59 258.67L552.18 258.06L550.68 257.49L543.91 255.32L543.43 255.42L542.97 255.53ZM545.37 207.46L545.03 207.5L544.7 207.56L544.37 207.62L544.05 207.71L543.73 207.8L543.41 207.91L543.1 208.04L542.79 208.18L542.49 208.33L542.19 208.49L541.9 208.67L541.62 208.86L541.35 209.06L540.98 209.38L540.64 209.74L540.32 210.14L540.03 210.57L539.75 211.04L539.5 211.55L539.28 212.1L539.07 212.68L538.89 213.3L538.74 213.95L538.6 214.65L538.49 215.38L538.4 216.15L538.34 216.95L538.3 217.79L538.28 218.67L538.29 219.58L538.33 220.46L538.39 221.32L538.49 222.15L538.6 222.96L538.74 223.73L538.91 224.49L539.1 225.21L539.32 225.91L539.56 226.59L539.83 227.23L540.13 227.85L540.45 228.45L540.79 229.01L541.16 229.55L541.56 230.06L541.98 230.56L542.42 231.03L542.88 231.49L543.36 231.92L543.86 232.33L544.37 232.72L544.9 233.09L545.44 233.43L546 233.75L546.57 234.05L547.15 234.32L547.74 234.57L548.35 234.79L548.97 234.99L549.59 235.16L550.23 235.3L550.87 235.43L551.5 235.54L552.11 235.62L552.71 235.67L553.28 235.69L553.84 235.68L554.38 235.65L554.9 235.59L555.41 235.5L555.9 235.38L556.37 235.24L556.82 235.07L557.25 234.88L557.67 234.65L558.07 234.4L558.46 234.13L558.82 233.82L559.16 233.47L559.48 233.09L559.77 232.66L560.04 232.2L560.29 231.7L560.51 231.16L560.71 230.58L560.89 229.96L561.04 229.31L561.17 228.62L561.28 227.89L561.36 227.12L561.42 226.32L561.46 225.48L561.47 224.61L561.46 223.74L561.42 222.9L561.35 222.08L561.26 221.27L561.15 220.49L561.01 219.73L560.84 218.99L560.65 218.27L560.43 217.58L560.19 216.9L559.92 216.25L559.63 215.61L559.31 215L558.96 214.41L558.59 213.85L558.2 213.3L557.79 212.79L557.36 212.29L556.91 211.82L556.44 211.36L555.96 210.93L555.45 210.52L554.93 210.14L554.39 209.78L553.83 209.44L553.26 209.13L552.68 208.85L552.08 208.59L551.47 208.36L550.85 208.15L550.22 207.97L549.58 207.82L549.38 207.78L549.19 207.73L548.99 207.69L548.79 207.66L548.59 207.62L548.39 207.59L548.19 207.56L547.99 207.53L547.79 207.51L547.59 207.49L547.39 207.47L547.19 207.46L546.99 207.44L546.79 207.44L546.59 207.43L546.39 207.43L546.05 207.42L545.71 207.43L545.37 207.46Z" id="ffE51P107"></path><path d="M231.67 127.68C232.06 128.1 235.18 131.43 235.57 131.85C235.87 132.17 236.29 132.34 236.73 132.31C240.04 132.08 242.69 131.92 243.35 131.88C244.12 131.83 244.71 131.19 244.71 130.43C244.71 124.24 244.71 74.69 244.71 68.5C244.71 67.7 244.06 67.05 243.26 67.04C243.23 67.04 243.2 67.05 243.17 67.05C239.18 67.29 235.19 67.56 231.22 67.85C230.46 67.9 229.87 68.53 229.87 69.3C229.87 74.27 229.87 114.09 229.87 119.07C226.1 123.42 222.09 125.83 217.96 126.18C214.19 126.5 211.15 125.53 208.67 123.21C206.19 120.9 204.96 116.86 204.96 111.16C204.96 108.8 204.96 89.85 204.96 87.48C204.96 82.8 204.59 79.41 203.83 77.11C202.99 74.57 201.53 72.86 199.48 72.03C197.59 71.25 194.95 71.06 191.43 71.45C187.9 71.83 184.33 72.24 180.84 72.65C180.11 72.74 179.55 73.36 179.56 74.1C179.56 74.37 179.56 76.47 179.56 76.74C179.55 77.54 180.2 78.19 181 78.2C181.06 78.2 181.12 78.2 181.18 78.19C181.32 78.17 182.37 78.05 182.51 78.04C185.57 77.67 187.59 78.25 188.49 79.73C189.58 81.51 190.13 84.53 190.13 88.72C190.13 91.09 190.13 110.07 190.13 112.44C190.13 121.66 192.45 128.04 197.01 131.39C200.75 134.14 205.45 135.53 211.01 135.53C212.08 135.52 213.15 135.47 214.25 135.37C220.76 134.87 226.9 132.15 231.67 127.68Z" id="b7ElCkhqN"></path><path d="M478.59 187.82C476.19 188.46 473.92 189.51 471.88 190.93C470.98 189.35 469.72 188 468.19 187.01C466.29 185.77 463.58 184.9 460.14 184.42C456.22 183.89 452.22 183.36 448.25 182.86C447.46 182.76 446.73 183.32 446.63 184.11C446.62 184.18 446.62 184.24 446.62 184.31C446.62 184.57 446.62 186.68 446.62 186.94C446.61 187.68 447.16 188.3 447.89 188.39C448.15 188.43 450.26 188.69 450.52 188.73C453.75 189.14 455.81 190.27 456.82 192.18C457.93 194.27 458.49 197.47 458.49 201.69C458.49 206.3 458.49 243.2 458.49 247.81C458.49 248.54 459.03 249.16 459.75 249.26C463.65 249.8 467.64 250.37 471.6 250.95C472.01 251.02 472.44 250.9 472.76 250.62C473.08 250.34 473.26 249.94 473.26 249.52C473.26 244.54 473.26 204.73 473.26 199.75C476.94 196.32 480.7 194.97 484.74 195.62C488.47 196.19 491.84 198.15 494.18 201.1C496.7 204.14 497.98 208.62 497.98 214.39C497.98 218.35 497.98 249.97 497.98 253.92C497.97 254.64 498.48 255.25 499.18 255.38C503.14 256.06 507.1 256.78 510.97 257.5C511.06 257.51 511.15 257.51 511.24 257.5C512.04 257.5 512.69 256.85 512.69 256.05C512.69 252.1 512.69 220.47 512.69 216.52C512.69 207.37 510.46 200.44 506.04 195.92C501.63 191.4 495.98 188.59 489.15 187.46C485.64 186.82 482.04 186.94 478.59 187.82Z" id="aHRsDWRtd"></path><path d="M266.1 113.4C266.1 119.58 267.68 124.22 270.8 127.19C273.76 130.03 277.81 131.47 282.84 131.47C282.91 131.47 283.45 131.47 283.52 131.47C287.83 131.36 291.22 130.74 293.88 129.64C296.39 128.58 298.76 127.24 300.95 125.62C301.52 125.2 301.7 124.43 301.38 123.8C301.24 123.54 300.18 121.44 300.05 121.18C299.69 120.47 298.81 120.18 298.1 120.54C298.08 120.55 298.06 120.56 298.05 120.57C296.68 121.35 295.23 122 293.73 122.49C292.12 122.95 290.45 123.18 288.77 123.18C286.42 123.22 284.68 122.65 283.43 121.43C281.79 119.83 280.95 116.99 280.95 112.99C280.95 109.05 280.95 77.49 280.95 73.55C285.77 73.42 290.65 73.32 295.47 73.25C296.27 73.25 296.92 72.6 296.92 71.8C296.92 71.27 296.92 67.06 296.92 66.53C296.92 65.73 296.27 65.08 295.47 65.08C295.47 65.08 295.47 65.08 295.47 65.08C290.69 65.15 285.83 65.25 281 65.38C281 63.55 281 48.94 281 47.11C281 46.31 280.35 45.66 279.55 45.66C279.02 45.67 274.76 45.8 274.23 45.82C273.81 45.83 273.42 46.03 273.16 46.35C269.83 50.41 267.18 53.69 266.51 54.5C266.3 54.76 266.19 55.09 266.19 55.42C266.19 56.46 266.19 64.83 266.19 65.88C262.24 66.05 259.07 66.2 258.28 66.23C257.51 66.27 256.9 66.91 256.9 67.69C256.9 68.21 256.9 72.43 256.9 72.96C256.9 73.76 257.55 74.41 258.35 74.41C258.37 74.41 258.4 74.41 258.42 74.41C260.93 74.28 263.51 74.16 266.1 74.07C266.1 81.93 266.1 109.47 266.1 113.4Z" id="b2quyfjcqv"></path><path d="M424.56 180.11C423.76 180.03 423.05 180.61 422.96 181.4C422.96 181.46 422.96 181.51 422.96 181.56C422.96 186.54 422.96 226.31 422.96 231.28C419.23 234.91 415.41 236.5 411.31 236.13C407.66 235.85 404.27 234.16 401.87 231.41C399.35 228.61 398.07 224.28 398.07 218.54C398.07 216.17 398.07 197.19 398.07 194.82C398.07 190.16 397.7 186.71 396.94 184.29C396.32 181.95 394.84 179.93 392.78 178.65C390.92 177.57 388.3 176.93 384.8 176.69C381.29 176.45 377.73 176.22 374.17 176.01C373.77 175.99 373.38 176.13 373.09 176.41C372.8 176.68 372.64 177.07 372.64 177.46C372.64 177.73 372.64 179.83 372.64 180.1C372.64 180.87 373.24 181.5 374.01 181.55C374.14 181.56 375.2 181.62 375.33 181.63C378.53 181.82 380.58 182.78 381.58 184.58C382.69 186.59 383.25 189.74 383.25 193.95C383.25 196.32 383.25 215.29 383.25 217.66C383.25 226.82 385.52 233.54 390.02 237.63C394.51 241.71 400.18 243.97 407.1 244.59C410.66 244.97 414.26 244.61 417.68 243.54C420.17 242.75 422.51 241.55 424.59 239.97C424.99 240.47 428.19 244.45 428.59 244.95C428.83 245.25 429.18 245.45 429.56 245.49C431.74 245.73 433.97 245.98 436.17 246.21C436.18 246.21 436.31 246.21 436.33 246.21C437.13 246.21 437.78 245.56 437.78 244.76C437.78 238.57 437.78 189.05 437.78 182.86C437.78 182.12 437.21 181.49 436.47 181.42C432.5 180.96 428.49 180.52 424.56 180.11Z" id="a4mO8Aiy3d"></path><path d="M339.18 132.06C342.54 132.11 345.89 131.51 349.03 130.31C351.54 129.34 353.88 127.97 355.95 126.26C356.35 126.72 359.53 130.46 359.93 130.92C360.19 131.23 360.57 131.42 360.98 131.44C361.64 131.47 366.94 131.71 367.6 131.74C368.4 131.77 369.08 131.15 369.12 130.35C369.12 130.33 369.12 130.31 369.12 130.28C369.12 124.09 369.12 74.57 369.12 68.38C369.12 67.6 368.51 66.96 367.74 66.93C363.75 66.73 359.76 66.56 355.78 66.41C354.98 66.38 354.31 67.01 354.28 67.81C354.28 67.83 354.28 67.84 354.28 67.86C354.28 72.84 354.28 112.64 354.28 117.62C350.5 121.55 346.65 123.43 342.49 123.31C338.92 123.32 335.5 121.85 333.05 119.25C330.54 116.65 329.27 112.41 329.27 106.69C329.27 104.32 329.27 85.34 329.27 82.97C329.27 78.31 328.9 74.88 328.14 72.5C327.52 70.19 325.99 68.24 323.91 67.08C322.03 66.1 319.4 65.63 315.87 65.63C312.34 65.63 308.74 65.63 305.23 65.66C304.43 65.66 303.78 66.31 303.78 67.11C303.78 67.38 303.78 69.49 303.78 69.75C303.78 70.14 303.94 70.51 304.21 70.78C304.49 71.04 304.86 71.2 305.25 71.2C305.38 71.2 306.44 71.2 306.57 71.2C309.76 71.2 311.77 71.98 312.74 73.67C313.85 75.59 314.41 78.7 314.41 82.89C314.41 85.27 314.41 104.24 314.41 106.61C314.41 115.8 316.71 122.39 321.23 126.21C325.75 130.04 331.43 131.91 338.4 132.06C338.56 132.06 339.02 132.06 339.18 132.06Z" id="azoLOpeKM"></path><path d="M355.31 173.88C349.38 173.47 343.55 175.63 339.34 179.83C338.53 178.24 337.27 176.93 335.71 176.07C333.74 174.97 331.02 174.4 327.39 174.33C323.76 174.27 320.26 174.22 316.75 174.19C316.36 174.19 315.99 174.34 315.72 174.61C315.45 174.88 315.29 175.25 315.29 175.64C315.29 175.9 315.29 178.01 315.29 178.28C315.29 179.08 315.94 179.73 316.74 179.73C316.88 179.73 317.93 179.73 318.06 179.73C321.26 179.73 323.28 180.61 324.26 182.33C325.37 184.27 325.93 187.41 325.93 191.59C325.93 196.2 325.93 233.09 325.93 237.7C325.93 238.5 326.58 239.15 327.38 239.15C331.35 239.23 335.36 239.33 339.31 239.44C339.31 239.44 339.35 239.44 339.35 239.44C340.16 239.44 340.81 238.79 340.81 237.99C340.81 233.16 340.81 194.53 340.81 189.7C341.98 188.09 343.52 186.79 345.31 185.9C347.36 184.9 349.63 184.43 351.9 184.55C353.92 184.6 355.91 185 357.79 185.72C359.23 186.23 360.49 187.16 361.42 188.38C361.88 189.03 362.78 189.18 363.43 188.73C363.96 188.36 368.21 185.42 368.74 185.06C369.34 184.63 369.53 183.82 369.18 183.17C367.43 180.08 365.79 177.91 364.11 176.55C362.09 174.95 359.13 174.05 355.31 173.88Z" id="a6R02CUhJL"></path><path d="M406.9 69.86C404.47 70.65 402.19 71.85 400.16 73.39C399.25 71.89 397.97 70.64 396.45 69.76C394.53 68.64 391.8 67.94 388.33 67.69C384.38 67.42 380.34 67.16 376.37 66.92C375.57 66.88 374.89 67.49 374.84 68.29C374.84 68.32 374.84 68.35 374.84 68.38C374.84 68.64 374.84 70.75 374.84 71.01C374.84 71.78 375.44 72.42 376.2 72.46C376.47 72.48 378.59 72.61 378.85 72.62C382.06 72.82 384.1 73.79 385.1 75.59C386.21 77.6 386.77 80.76 386.77 84.96C386.77 89.57 386.77 126.47 386.77 131.08C386.77 131.84 387.36 132.48 388.12 132.53C392.09 132.81 396.11 133.11 400.03 133.43C400.44 133.47 400.84 133.33 401.14 133.06C401.43 132.78 401.6 132.39 401.6 131.99C401.6 127.01 401.6 87.19 401.6 82.22C405.34 78.49 409.15 76.86 413.26 77.25C416.92 77.53 420.32 79.26 422.7 82.06C425.21 84.91 426.5 89.28 426.5 95.04C426.5 98.99 426.5 130.61 426.5 134.57C426.49 135.31 427.06 135.94 427.8 136.02C431.75 136.44 435.78 136.89 439.67 137.35C439.69 137.35 439.83 137.35 439.85 137.35C440.65 137.35 441.3 136.7 441.3 135.9C441.3 131.95 441.3 100.32 441.3 96.37C441.3 87.2 439.03 80.4 434.57 76.16C430.11 71.91 424.4 69.47 417.51 68.8C413.94 68.39 410.32 68.75 406.9 69.86Z" id="a1jcxh5y4"></path><path d="M287.03 173.12L287.57 173.14L288.1 173.18L288.63 173.22L289.15 173.26L289.66 173.32L290.17 173.38L290.68 173.45L291.18 173.53L291.67 173.62L292.16 173.71L292.64 173.82L293.12 173.93L293.59 174.05L294.05 174.17L294.51 174.31L294.97 174.45L295.42 174.6L295.86 174.76L296.3 174.93L296.73 175.1L297.15 175.28L297.57 175.47L297.98 175.67L298.39 175.88L298.79 176.09L299.19 176.31L299.58 176.54L299.97 176.78L300.34 177.03L300.72 177.28L301.08 177.54L301.44 177.81L301.8 178.09L302.15 178.37L302.49 178.66L302.83 178.97L303.16 179.28L303.49 179.61L303.81 179.95L304.11 180.3L304.41 180.67L304.7 181.05L304.99 181.44L305.26 181.85L305.53 182.27L305.78 182.7L306.03 183.15L306.27 183.6L306.5 184.08L306.72 184.56L306.94 185.06L307.14 185.57L307.34 186.1L307.52 186.64L307.7 187.19L307.87 187.75L308.04 188.33L308.19 188.92L308.34 189.53L308.47 190.15L308.6 190.78L308.72 191.43L308.83 192.09L308.93 192.77L309.03 193.46L309.11 194.16L309.19 194.88L309.26 195.61L309.32 196.35L309.37 197.11L309.42 197.89L309.45 198.67L309.48 199.48L309.5 200.29L309.51 201.12L309.51 201.97L309.51 237.53L309.51 237.59L309.5 237.65L309.5 237.71L309.49 237.77L309.48 237.83L309.46 237.88L309.45 237.94L309.43 237.99L309.41 238.05L309.39 238.1L309.37 238.15L309.34 238.2L309.32 238.25L309.29 238.3L309.26 238.35L309.23 238.39L309.19 238.44L309.16 238.48L309.12 238.52L309.08 238.56L309.04 238.6L309 238.64L308.96 238.67L308.91 238.71L308.87 238.74L308.82 238.77L308.77 238.8L308.72 238.82L308.67 238.85L308.62 238.87L308.57 238.89L308.51 238.91L308.46 238.93L308.4 238.94L308.35 238.96L308.29 238.97L308.23 238.97L308.17 238.98L308.11 238.98L308.06 238.99L301.43 238.99L301.39 238.99L301.36 238.98L301.33 238.98L301.29 238.98L301.26 238.98L301.23 238.97L301.19 238.97L301.16 238.96L301.13 238.96L301.1 238.95L301.07 238.94L301.03 238.93L301 238.93L300.97 238.92L300.94 238.91L300.91 238.89L300.88 238.88L300.85 238.87L300.82 238.86L300.79 238.84L300.76 238.83L300.73 238.81L300.7 238.8L300.67 238.78L300.64 238.76L300.62 238.75L300.59 238.73L300.56 238.71L300.53 238.69L300.51 238.67L300.48 238.65L300.46 238.63L300.43 238.6L300.41 238.58L300.39 238.56L300.36 238.54L300.34 238.51L300.32 238.49L300.3 238.46L300.27 238.43L296.41 233.53L296.26 233.68L296.11 233.83L295.97 233.97L295.82 234.11L295.67 234.26L295.52 234.4L295.36 234.53L295.21 234.67L295.05 234.81L294.9 234.94L294.74 235.07L294.58 235.2L294.42 235.33L294.26 235.46L294.1 235.59L293.93 235.71L293.77 235.83L293.6 235.95L293.43 236.07L293.27 236.19L293.1 236.31L292.93 236.43L292.75 236.54L292.58 236.65L292.41 236.76L292.23 236.87L292.06 236.98L291.88 237.08L291.7 237.19L291.52 237.29L291.34 237.39L291.16 237.49L290.98 237.58L290.8 237.68L290.62 237.77L290.43 237.87L290.25 237.96L290.06 238.04L289.87 238.13L289.68 238.22L289.44 238.33L289.19 238.44L288.94 238.55L288.68 238.66L288.43 238.76L288.17 238.86L287.9 238.96L287.63 239.06L287.36 239.15L287.09 239.24L286.82 239.33L286.54 239.41L286.25 239.5L285.97 239.58L285.68 239.66L285.39 239.73L285.1 239.8L284.8 239.87L284.5 239.94L284.2 240L283.89 240.07L283.59 240.13L283.27 240.18L282.96 240.24L282.64 240.29L282.32 240.34L282 240.38L281.68 240.43L281.35 240.47L281.02 240.51L280.68 240.54L280.35 240.57L280.01 240.6L279.67 240.63L279.32 240.66L278.97 240.68L278.62 240.7L278.27 240.72L277.91 240.73L277.56 240.74L276.92 240.74L276.7 240.74L276.48 240.73L276.26 240.73L276.04 240.72L275.82 240.71L275.61 240.7L275.39 240.68L275.17 240.67L274.95 240.65L274.74 240.63L274.52 240.61L274.3 240.58L274.08 240.56L273.87 240.53L273.65 240.5L273.44 240.47L273.22 240.44L273.01 240.4L272.79 240.36L272.58 240.32L272.36 240.28L272.15 240.24L271.94 240.19L271.72 240.15L271.51 240.1L271.3 240.05L271.09 240L270.88 239.94L270.66 239.89L270.45 239.83L270.24 239.77L270.04 239.71L269.83 239.64L269.62 239.58L269.41 239.51L269.2 239.44L269 239.37L268.79 239.3L268.59 239.22L268.38 239.15L268.14 239.05L267.9 238.96L267.66 238.86L267.43 238.76L267.19 238.65L266.96 238.54L266.73 238.43L266.5 238.32L266.27 238.2L266.05 238.08L265.82 237.96L265.6 237.83L265.38 237.7L265.16 237.57L264.94 237.43L264.73 237.29L264.52 237.15L264.31 237L264.1 236.86L263.89 236.71L263.69 236.55L263.48 236.4L263.28 236.24L263.09 236.08L262.89 235.91L262.7 235.74L262.51 235.57L262.32 235.4L262.13 235.23L261.95 235.05L261.77 234.87L261.59 234.68L261.41 234.5L261.24 234.31L261.06 234.12L260.89 233.93L260.73 233.73L260.56 233.53L260.4 233.33L260.24 233.13L260.07 232.91L259.91 232.69L259.75 232.47L259.59 232.24L259.44 232.01L259.29 231.77L259.15 231.53L259.01 231.29L258.88 231.04L258.75 230.79L258.62 230.54L258.5 230.28L258.38 230.02L258.27 229.75L258.16 229.48L258.05 229.21L257.95 228.93L257.85 228.65L257.76 228.36L257.67 228.07L257.59 227.78L257.51 227.49L257.43 227.19L257.36 226.88L257.3 226.58L257.23 226.27L257.18 225.95L257.12 225.64L257.07 225.32L257.03 224.99L256.99 224.66L256.95 224.33L256.92 224L256.89 223.66L256.86 223.32L256.84 222.98L256.83 222.63L256.82 222.28L256.81 221.92L256.81 221.57L256.82 221.02L256.84 220.49L256.87 219.96L256.91 219.44L256.97 218.93L257.04 218.42L257.12 217.93L257.22 217.44L257.33 216.95L257.45 216.47L257.58 216.01L257.73 215.54L257.89 215.09L258.06 214.64L258.25 214.2L258.44 213.77L258.65 213.34L258.88 212.93L259.11 212.52L259.36 212.11L259.62 211.72L259.89 211.33L260.18 210.95L260.48 210.58L260.79 210.21L261.11 209.85L261.45 209.5L261.8 209.16L262.16 208.82L262.54 208.49L262.92 208.17L263.32 207.86L263.74 207.56L264.16 207.26L264.6 206.97L265.05 206.69L265.51 206.41L265.98 206.14L266.47 205.88L266.97 205.63L267.46 205.4L267.96 205.17L268.47 204.94L268.98 204.73L269.5 204.51L270.02 204.31L270.56 204.1L271.1 203.91L271.65 203.72L272.2 203.53L272.77 203.35L273.34 203.18L273.91 203.01L274.5 202.85L275.09 202.69L275.69 202.54L276.29 202.39L276.9 202.25L277.52 202.12L278.15 201.99L278.78 201.87L279.42 201.75L280.07 201.64L280.72 201.53L281.38 201.43L282.05 201.34L282.72 201.25L283.4 201.16L284.09 201.09L284.78 201.01L285.48 200.95L286.19 200.89L286.9 200.83L287.62 200.78L288.35 200.74L289.08 200.7L289.82 200.67L290.57 200.64L291.32 200.62L292.08 200.6L294.63 200.6L294.62 200.05L294.6 199.5L294.58 198.96L294.56 198.43L294.54 197.91L294.51 197.4L294.48 196.9L294.44 196.41L294.4 195.93L294.36 195.45L294.31 194.99L294.26 194.53L294.21 194.08L294.15 193.64L294.09 193.21L294.03 192.79L293.96 192.38L293.89 191.97L293.81 191.58L293.73 191.19L293.65 190.81L293.56 190.45L293.47 190.09L293.38 189.74L293.28 189.39L293.18 189.06L293.07 188.74L292.96 188.42L292.85 188.11L292.73 187.82L292.61 187.53L292.49 187.24L292.36 186.97L292.23 186.71L292.09 186.45L291.95 186.21L291.8 185.97L291.65 185.74L291.5 185.52L291.35 185.31L291.19 185.1L291.02 184.91L290.86 184.71L290.69 184.52L290.51 184.34L290.33 184.16L290.15 183.99L289.97 183.82L289.78 183.66L289.59 183.51L289.4 183.36L289.2 183.21L289 183.07L288.79 182.94L288.59 182.81L288.37 182.69L288.16 182.57L287.94 182.46L287.72 182.35L287.49 182.25L287.26 182.15L287.03 182.06L286.79 181.97L286.55 181.89L286.3 181.82L286.05 181.75L285.8 181.69L285.55 181.63L285.29 181.58L285.02 181.53L284.76 181.49L284.48 181.45L284.21 181.42L283.93 181.39L283.65 181.37L283.36 181.35L283.07 181.34L282.78 181.34L282.48 181.34L282.18 181.35L281.91 181.35L281.64 181.37L281.37 181.38L281.11 181.4L280.85 181.42L280.59 181.44L280.33 181.47L280.08 181.5L279.83 181.53L279.58 181.57L279.33 181.6L279.09 181.64L278.85 181.69L278.61 181.73L278.38 181.78L278.15 181.84L277.92 181.89L277.69 181.95L277.47 182.01L277.25 182.07L277.03 182.14L276.81 182.2L276.6 182.27L276.39 182.35L276.19 182.42L275.98 182.5L275.78 182.58L275.59 182.66L275.39 182.75L275.2 182.84L275.01 182.93L274.83 183.02L274.65 183.12L274.47 183.21L274.29 183.32L274.12 183.42L273.95 183.52L273.79 183.63L273.63 183.74L273.47 183.85L273.31 183.97L273.16 184.08L273.01 184.21L272.86 184.34L272.71 184.47L272.57 184.61L272.42 184.75L272.28 184.9L272.15 185.05L272.01 185.21L271.88 185.37L271.75 185.53L271.62 185.7L271.49 185.87L271.36 186.05L271.24 186.23L271.12 186.42L271 186.61L270.89 186.81L270.77 187.01L270.66 187.21L270.55 187.42L270.45 187.63L270.34 187.85L270.24 188.07L270.14 188.3L270.04 188.53L269.95 188.76L269.85 189L269.76 189.24L269.67 189.49L269.59 189.74L269.5 189.99L269.42 190.25L269.34 190.51L269.27 190.78L269.19 191.05L269.12 191.32L269.05 191.6L268.98 191.89L268.97 191.93L268.96 191.98L268.94 192.03L268.93 192.07L268.91 192.12L268.89 192.16L268.87 192.2L268.85 192.24L268.83 192.29L268.8 192.33L268.78 192.37L268.75 192.4L268.72 192.44L268.69 192.48L268.66 192.51L268.63 192.55L268.6 192.58L268.56 192.62L268.53 192.65L268.49 192.68L268.46 192.71L268.42 192.73L268.38 192.76L268.34 192.79L268.3 192.81L268.26 192.83L268.22 192.86L268.18 192.88L268.14 192.9L268.09 192.91L268.05 192.93L268 192.94L267.96 192.96L267.91 192.97L267.87 192.98L267.82 192.99L267.77 193L267.72 193L267.67 193.01L267.63 193.01L267.48 193.02L267.33 193.02L267.18 193.03L267.03 193.03L266.88 193.04L266.73 193.04L266.58 193.05L266.43 193.06L266.28 193.06L266.13 193.07L265.98 193.07L265.84 193.08L265.69 193.09L265.54 193.09L265.39 193.1L265.24 193.1L265.09 193.11L264.94 193.12L264.79 193.12L264.64 193.13L264.49 193.13L264.34 193.14L264.19 193.15L264.05 193.15L263.9 193.16L263.75 193.17L263.6 193.17L263.45 193.18L263.3 193.19L263.15 193.19L263 193.2L262.85 193.2L262.7 193.21L262.55 193.22L262.4 193.22L262.26 193.23L261.96 193.24L261.81 193.25L261.66 193.26L261.64 193.26L261.62 193.26L261.59 193.26L261.53 193.26L261.47 193.25L261.41 193.25L261.36 193.24L261.3 193.23L261.24 193.22L261.19 193.2L261.13 193.18L261.08 193.17L261.03 193.14L260.98 193.12L260.93 193.1L260.88 193.07L260.83 193.04L260.78 193.01L260.74 192.98L260.69 192.94L260.65 192.91L260.61 192.87L260.57 192.83L260.53 192.79L260.49 192.75L260.46 192.71L260.42 192.66L260.39 192.62L260.36 192.57L260.33 192.52L260.3 192.47L260.28 192.42L260.26 192.37L260.23 192.32L260.22 192.26L260.2 192.21L260.18 192.15L260.17 192.1L260.16 192.04L260.15 191.98L260.15 191.92L260.14 191.87L260.14 191.81L260.14 191.62L260.14 191.44L260.13 191.25L260.13 191.06L260.13 190.88L260.13 190.69L260.14 190.51L260.14 190.32L260.14 190.14L260.15 189.95L260.15 189.77L260.16 189.59L260.17 189.4L260.18 189.22L260.19 189.03L260.2 188.85L260.21 188.66L260.22 188.48L260.23 188.29L260.24 188.11L260.26 187.92L260.27 187.74L260.29 187.56L260.31 187.37L260.33 187.19L260.35 187L260.37 186.82L260.39 186.64L260.41 186.45L260.43 186.27L260.46 186.08L260.48 185.9L260.5 185.72L260.53 185.53L260.56 185.35L260.59 185.17L260.62 184.99L260.65 184.8L260.68 184.62L260.71 184.44L260.75 184.28L260.79 184.12L260.83 183.96L260.87 183.8L260.92 183.64L260.97 183.49L261.02 183.33L261.07 183.18L261.13 183.02L261.19 182.87L261.25 182.72L261.31 182.56L261.37 182.41L261.44 182.26L261.51 182.12L261.58 181.97L261.65 181.82L261.73 181.68L261.8 181.53L261.88 181.39L261.96 181.25L262.05 181.11L262.13 180.97L262.22 180.83L262.31 180.69L262.4 180.56L262.49 180.42L262.59 180.29L262.68 180.16L262.78 180.03L262.88 179.9L262.99 179.77L263.09 179.64L263.2 179.52L263.3 179.39L263.41 179.27L263.53 179.15L263.64 179.03L263.76 178.91L263.87 178.8L264.01 178.66L264.15 178.52L264.29 178.39L264.44 178.26L264.59 178.13L264.75 178L264.91 177.87L265.08 177.74L265.25 177.62L265.42 177.49L265.6 177.37L265.78 177.25L265.96 177.14L266.15 177.02L266.35 176.9L266.54 176.79L266.75 176.68L266.95 176.57L267.16 176.46L267.37 176.36L267.59 176.25L267.81 176.15L268.04 176.05L268.27 175.95L268.5 175.86L268.74 175.76L268.98 175.67L269.23 175.57L269.48 175.48L269.73 175.4L269.99 175.31L270.25 175.22L270.51 175.14L270.78 175.06L271.06 174.98L271.33 174.9L271.62 174.83L271.9 174.75L272.19 174.68L272.48 174.61L272.79 174.54L273.09 174.47L273.39 174.41L273.7 174.34L274 174.28L274.31 174.22L274.61 174.16L274.92 174.1L275.23 174.05L275.53 173.99L275.84 173.94L276.15 173.89L276.45 173.84L276.76 173.79L277.07 173.75L277.38 173.7L277.69 173.66L277.99 173.62L278.3 173.58L278.61 173.54L278.92 173.5L279.23 173.46L279.54 173.43L279.85 173.4L280.16 173.37L280.47 173.34L280.78 173.31L281.09 173.29L281.4 173.26L281.71 173.24L282.02 173.22L282.33 173.2L282.64 173.18L282.95 173.17L283.26 173.15L283.58 173.14L283.89 173.13L284.2 173.12L284.51 173.11L284.82 173.11L285.38 173.1L285.94 173.1L286.48 173.11L287.03 173.12ZM290.98 208.84L289.79 208.91L288.63 209.01L287.51 209.13L286.42 209.29L285.36 209.48L284.34 209.7L283.35 209.95L282.4 210.23L281.49 210.54L280.61 210.88L279.77 211.25L278.96 211.65L278.19 212.08L277.45 212.54L276.79 213L276.18 213.48L275.61 213.97L275.09 214.47L274.62 214.99L274.19 215.52L273.81 216.08L273.47 216.64L273.18 217.22L272.93 217.82L272.73 218.44L272.57 219.07L272.46 219.72L272.39 220.39L272.37 221.08L272.39 221.79L272.43 222.48L272.5 223.13L272.59 223.77L272.72 224.38L272.87 224.96L273.05 225.52L273.26 226.05L273.5 226.57L273.76 227.05L274.06 227.51L274.38 227.95L274.73 228.37L275.11 228.76L275.52 229.14L275.97 229.5L276.44 229.83L276.92 230.14L277.42 230.43L277.93 230.69L278.45 230.92L278.99 231.12L279.53 231.3L280.08 231.45L280.64 231.58L281.2 231.67L281.77 231.74L282.34 231.78L282.92 231.79L283.5 231.77L283.96 231.77L284.42 231.74L284.88 231.7L285.33 231.64L285.78 231.56L286.23 231.47L286.67 231.35L287.1 231.22L287.54 231.07L287.96 230.9L288.38 230.71L288.79 230.51L289.19 230.29L289.58 230.05L289.97 229.8L290.34 229.51L290.7 229.21L291.05 228.9L291.4 228.59L291.74 228.27L292.07 227.94L292.39 227.6L292.71 227.26L293.01 226.91L293.31 226.55L293.6 226.18L293.89 225.81L294.16 225.43L294.43 225.05L294.68 224.66L294.68 208.78L292.21 208.8L290.98 208.84Z" id="aT9j0xxiR"></path><path d="M472.22 76.64L472.86 76.67L473.52 76.71L474.18 76.76L474.85 76.82L475.54 76.89L476.23 76.96L476.93 77.05L477.64 77.15L478.36 77.26L478.97 77.36L479.57 77.45L480.18 77.55L480.79 77.65L481.4 77.75L482.01 77.85L482.62 77.94L483.23 78.04L483.83 78.14L484.44 78.24L485.05 78.34L485.66 78.45L486.27 78.55L486.88 78.65L487.49 78.75L488.1 78.85L488.71 78.96L489.32 79.06L489.93 79.16L490.54 79.27L491.15 79.37L491.76 79.47L492.37 79.58L492.98 79.68L493.59 79.79L494.2 79.89L494.81 80L495.42 80.11L496.03 80.21L496.64 80.32L497.25 80.43L497.85 80.53L498.46 80.64L499.07 80.75L499.68 80.86L500.28 80.96L500.89 81.07L501.49 81.18L502.1 81.29L502.71 81.4L502.76 81.41L502.81 81.42L502.86 81.43L502.91 81.45L502.96 81.47L503.01 81.49L503.05 81.51L503.1 81.53L503.14 81.55L503.19 81.58L503.23 81.6L503.27 81.63L503.31 81.66L503.35 81.69L503.39 81.73L503.43 81.76L503.47 81.79L503.5 81.83L503.53 81.87L503.57 81.9L503.6 81.94L503.63 81.98L503.66 82.03L503.68 82.07L503.71 82.11L503.73 82.16L503.75 82.2L503.78 82.25L503.79 82.29L503.81 82.34L503.83 82.39L503.84 82.44L503.86 82.49L503.87 82.54L503.88 82.59L503.88 82.64L503.89 82.69L503.89 82.74L503.9 82.8L503.9 82.85L503.9 86.14L503.9 86.17L503.89 86.2L503.89 86.23L503.89 86.26L503.89 86.29L503.88 86.32L503.88 86.35L503.88 86.38L503.87 86.4L503.87 86.43L503.86 86.46L503.85 86.49L503.85 86.52L503.84 86.55L503.83 86.57L503.82 86.6L503.81 86.63L503.8 86.65L503.79 86.68L503.78 86.71L503.77 86.73L503.76 86.76L503.74 86.79L503.73 86.81L503.72 86.84L503.7 86.86L503.69 86.89L503.67 86.91L503.66 86.94L503.64 86.96L503.62 86.98L503.61 87.01L503.59 87.03L503.57 87.05L503.55 87.08L503.53 87.1L503.51 87.12L503.49 87.14L503.47 87.16L503.45 87.18L503.43 87.2L503.41 87.22L503.39 87.24L503.37 87.26L503.34 87.28L503.32 87.3L503.3 87.31L503.27 87.33L503.25 87.35L503.22 87.36L503.2 87.38L503.17 87.39L503.15 87.41L503.12 87.42L503.1 87.43L503.07 87.45L503.05 87.46L503.02 87.47L502.99 87.48L502.97 87.49L502.94 87.5L502.91 87.51L502.89 87.52L502.86 87.53L502.83 87.54L502.8 87.55L502.77 87.55L502.75 87.56L502.72 87.57L502.69 87.57L502.66 87.58L502.63 87.58L502.6 87.58L502.58 87.59L502.55 87.59L502.52 87.59L502.49 87.59L502.46 87.6L502.43 87.6L502.4 87.6L502.27 87.59L502.15 87.59L502.02 87.58L501.89 87.58L501.76 87.58L501.64 87.57L501.51 87.57L501.38 87.57L501.25 87.56L501.13 87.56L501 87.56L500.87 87.55L500.75 87.55L500.62 87.55L500.49 87.54L500.37 87.54L500.24 87.54L500.11 87.53L499.98 87.53L499.86 87.53L499.73 87.52L499.6 87.52L499.48 87.52L499.22 87.51L498.97 87.51L498.71 87.5L498.59 87.5L498.46 87.49L498.33 87.49L498.21 87.49L498.08 87.48L497.95 87.48L497.83 87.48L497.7 87.47L497.57 87.47L497.45 87.47L497.32 87.47L497.45 87.58L497.58 87.7L497.71 87.83L497.83 87.95L497.96 88.07L498.08 88.19L498.21 88.32L498.33 88.44L498.46 88.57L498.58 88.7L498.7 88.83L498.82 88.96L498.94 89.09L499.05 89.22L499.17 89.35L499.29 89.48L499.4 89.61L499.52 89.75L499.63 89.88L499.74 90.02L499.85 90.15L499.96 90.29L500.07 90.43L500.18 90.57L500.29 90.71L500.39 90.85L500.5 90.99L500.6 91.13L500.71 91.27L500.81 91.41L500.91 91.56L501.01 91.7L501.11 91.85L501.21 92L501.31 92.14L501.4 92.29L501.5 92.44L501.59 92.59L501.68 92.74L501.78 92.89L501.91 93.11L502.04 93.33L502.17 93.56L502.3 93.79L502.42 94.02L502.54 94.25L502.65 94.48L502.76 94.71L502.87 94.95L502.98 95.19L503.08 95.42L503.18 95.66L503.27 95.9L503.36 96.14L503.45 96.39L503.54 96.63L503.62 96.88L503.7 97.12L503.77 97.37L503.84 97.62L503.91 97.86L503.98 98.11L504.04 98.37L504.1 98.62L504.15 98.87L504.2 99.12L504.25 99.38L504.29 99.63L504.33 99.89L504.37 100.14L504.4 100.4L504.43 100.66L504.46 100.91L504.48 101.17L504.5 101.43L504.52 101.69L504.53 101.95L504.54 102.21L504.54 102.47L504.54 102.73L504.54 103.19L504.53 103.64L504.51 104.09L504.49 104.53L504.46 104.97L504.42 105.4L504.38 105.83L504.33 106.24L504.28 106.66L504.21 107.06L504.14 107.46L504.07 107.86L503.99 108.24L503.9 108.63L503.8 109L503.7 109.37L503.59 109.73L503.48 110.09L503.36 110.44L503.23 110.79L503.1 111.13L502.96 111.46L502.81 111.79L502.66 112.11L502.5 112.43L502.33 112.74L502.16 113.04L501.98 113.34L501.79 113.63L501.6 113.91L501.4 114.19L501.19 114.47L500.98 114.73L500.77 115L500.54 115.25L500.31 115.5L500.07 115.74L499.83 115.98L499.58 116.21L499.32 116.43L498.99 116.71L498.64 116.98L498.28 117.24L497.92 117.49L497.54 117.72L497.15 117.95L496.76 118.17L496.35 118.38L495.94 118.57L495.51 118.76L495.08 118.94L494.63 119.1L494.17 119.26L493.71 119.41L493.23 119.54L492.74 119.67L492.25 119.79L491.74 119.89L491.22 119.99L490.69 120.07L490.16 120.15L489.61 120.21L489.05 120.27L488.48 120.32L487.9 120.35L487.31 120.38L486.7 120.39L486.09 120.4L485.47 120.39L484.83 120.38L484.19 120.35L483.53 120.32L482.87 120.27L482.19 120.22L481.5 120.15L480.8 120.08L480.09 119.99L479.37 119.9L478.64 119.79L477.9 119.68L477.25 119.58L476.63 119.49L476.04 119.41L475.46 119.34L474.91 119.27L474.38 119.22L473.87 119.17L473.38 119.13L472.91 119.09L472.47 119.07L472.04 119.04L471.63 119.03L471.23 119.02L470.86 119.02L470.5 119.02L470.16 119.03L469.84 119.04L469.54 119.06L469.25 119.08L468.97 119.1L468.71 119.13L468.47 119.16L468.24 119.2L468.02 119.23L467.82 119.27L467.63 119.32L467.45 119.36L467.29 119.41L467.14 119.45L466.99 119.5L466.86 119.55L466.74 119.6L466.63 119.65L466.53 119.69L466.44 119.74L466.36 119.79L466.28 119.84L466.22 119.88L466.16 119.93L466.11 119.97L466.09 119.98L466.07 120L466.06 120.01L466.04 120.03L466.02 120.04L466.01 120.06L465.99 120.08L465.98 120.09L465.96 120.11L465.95 120.13L465.94 120.15L465.92 120.16L465.91 120.18L465.9 120.2L465.89 120.22L465.88 120.24L465.86 120.26L465.85 120.28L465.84 120.3L465.83 120.32L465.83 120.34L465.82 120.36L465.81 120.38L465.8 120.4L465.79 120.42L465.79 120.44L465.78 120.46L465.78 120.48L465.77 120.51L465.77 120.53L465.76 120.55L465.76 120.57L465.76 120.59L465.76 120.62L465.75 120.64L465.75 120.66L465.75 120.68L465.75 120.71L465.75 120.73L465.75 120.75L465.75 120.83L465.76 120.91L465.78 121L465.8 121.09L465.83 121.19L465.87 121.29L465.91 121.4L465.97 121.51L466.04 121.63L466.12 121.74L466.22 121.87L466.32 121.99L466.45 122.12L466.59 122.25L466.74 122.39L466.91 122.52L467.1 122.66L467.31 122.8L467.54 122.95L467.79 123.09L468.06 123.24L468.35 123.39L468.66 123.54L469 123.69L469.37 123.84L469.76 123.99L470.17 124.14L470.62 124.29L471.09 124.44L471.59 124.59L472.12 124.74L472.67 124.89L473.27 125.04L473.89 125.19L474.55 125.33L475.24 125.48L475.96 125.62L476.72 125.76L477.52 125.9L478.35 126.04L479 126.14L479.64 126.25L480.28 126.37L480.91 126.5L481.54 126.63L482.16 126.76L482.77 126.91L483.38 127.05L483.99 127.21L484.59 127.37L485.18 127.53L485.77 127.71L486.35 127.88L486.92 128.07L487.49 128.26L488.06 128.45L488.62 128.66L489.17 128.86L489.72 129.08L490.26 129.3L490.8 129.52L491.33 129.75L491.85 129.99L492.37 130.24L492.88 130.48L493.39 130.74L493.89 131L494.39 131.27L494.88 131.54L495.36 131.82L495.84 132.1L496.31 132.39L496.78 132.69L497.24 132.99L497.69 133.3L498.14 133.61L498.58 133.93L499.01 134.25L499.44 134.58L499.87 134.92L500.28 135.25L500.68 135.58L501.08 135.92L501.46 136.28L501.84 136.63L502.21 137L502.56 137.38L502.91 137.76L503.25 138.15L503.58 138.55L503.9 138.95L504.21 139.36L504.5 139.78L504.79 140.21L505.07 140.64L505.34 141.07L505.6 141.52L505.85 141.97L506.08 142.42L506.31 142.88L506.53 143.34L506.73 143.81L506.93 144.29L507.11 144.76L507.28 145.25L507.44 145.73L507.59 146.23L507.73 146.72L507.86 147.22L507.97 147.72L508.08 148.23L508.17 148.73L508.25 149.25L508.32 149.76L508.38 150.28L508.42 150.79L508.45 151.31L508.47 151.84L508.48 152.36L508.48 152.89L508.47 153.46L508.45 154.02L508.43 154.57L508.39 155.12L508.34 155.65L508.28 156.18L508.21 156.69L508.13 157.2L508.03 157.7L507.93 158.19L507.82 158.66L507.69 159.13L507.56 159.59L507.41 160.04L507.25 160.48L507.08 160.91L506.9 161.33L506.71 161.74L506.51 162.14L506.3 162.54L506.08 162.92L505.85 163.29L505.6 163.65L505.35 164.01L505.08 164.35L504.8 164.69L504.52 165.01L504.22 165.33L503.91 165.63L503.59 165.93L503.26 166.21L502.92 166.49L502.57 166.75L502.21 167.01L501.83 167.25L501.45 167.49L501.06 167.72L500.65 167.93L500.24 168.14L499.81 168.34L499.55 168.45L499.3 168.56L499.04 168.67L498.77 168.78L498.51 168.88L498.24 168.98L497.97 169.07L497.69 169.17L497.42 169.26L497.14 169.34L496.86 169.43L496.58 169.51L496.29 169.58L496 169.66L495.71 169.73L495.42 169.8L495.12 169.87L494.82 169.93L494.52 169.99L494.21 170.05L493.91 170.1L493.6 170.15L493.28 170.2L492.97 170.25L492.65 170.29L492.33 170.33L492.01 170.37L491.68 170.41L491.35 170.44L491.02 170.47L490.69 170.49L490.35 170.52L490.01 170.54L489.67 170.55L489.32 170.57L488.98 170.58L488.63 170.59L488.27 170.6L487.92 170.6L487.56 170.6L487.31 170.6L487.07 170.6L486.83 170.59L486.59 170.58L486.35 170.58L486.1 170.57L485.86 170.56L485.62 170.55L485.38 170.54L485.14 170.53L484.89 170.51L484.65 170.5L484.41 170.48L484.17 170.47L483.93 170.45L483.69 170.43L483.44 170.42L483.2 170.4L482.96 170.38L482.72 170.35L482.48 170.33L482.24 170.31L482 170.28L481.76 170.26L481.52 170.23L481.27 170.2L481.03 170.18L480.79 170.15L480.55 170.12L480.31 170.09L480.07 170.05L479.83 170.02L479.59 169.99L479.35 169.95L479.11 169.92L478.87 169.88L478.63 169.84L478.4 169.81L478.16 169.77L477.92 169.73L477.23 169.61L476.55 169.5L475.88 169.37L475.21 169.25L474.56 169.12L473.91 168.98L473.26 168.84L472.63 168.69L472 168.54L471.38 168.39L470.77 168.23L470.17 168.06L469.57 167.89L468.98 167.72L468.4 167.54L467.83 167.36L467.26 167.17L466.7 166.97L466.15 166.77L465.6 166.57L465.06 166.36L464.53 166.15L464.01 165.93L463.49 165.7L462.98 165.48L462.48 165.24L461.98 165L461.49 164.76L461.01 164.51L460.53 164.26L460.06 164L459.6 163.73L459.14 163.46L458.7 163.19L458.25 162.91L457.82 162.62L457.39 162.33L456.97 162.04L456.55 161.73L456.14 161.43L455.73 161.11L455.32 160.78L454.93 160.44L454.55 160.1L454.18 159.76L453.81 159.4L453.46 159.04L453.12 158.68L452.79 158.3L452.47 157.92L452.16 157.54L451.86 157.15L451.57 156.75L451.29 156.34L451.02 155.93L450.76 155.51L450.52 155.09L450.28 154.66L450.05 154.23L449.84 153.78L449.63 153.34L449.44 152.88L449.25 152.42L449.08 151.95L448.91 151.48L448.76 151L448.62 150.52L448.48 150.03L448.36 149.53L448.25 149.03L448.15 148.52L448.06 148L447.98 147.48L447.91 146.95L447.85 146.42L447.81 145.88L447.77 145.34L447.74 144.79L447.73 144.23L447.72 143.67L447.72 143.36L447.72 143.04L447.73 142.73L447.74 142.43L447.76 142.12L447.79 141.81L447.82 141.5L447.86 141.2L447.91 140.89L447.96 140.59L448.02 140.29L448.08 139.99L448.15 139.69L448.23 139.4L448.32 139.1L448.4 138.81L448.5 138.52L448.6 138.23L448.71 137.95L448.82 137.66L448.94 137.38L449.06 137.1L449.2 136.83L449.33 136.55L449.47 136.28L449.62 136.02L449.77 135.75L449.93 135.49L450.1 135.23L450.27 134.98L450.44 134.72L450.62 134.47L450.81 134.23L451 133.99L451.2 133.75L451.4 133.52L451.61 133.29L451.82 133.06L452.04 132.84L452.26 132.62L452.44 132.45L452.61 132.29L452.79 132.13L452.98 131.97L453.16 131.81L453.35 131.66L453.53 131.51L453.72 131.36L453.91 131.21L454.1 131.06L454.3 130.92L454.49 130.78L454.69 130.64L454.89 130.51L455.09 130.37L455.29 130.24L455.49 130.11L455.7 129.98L455.9 129.86L456.11 129.74L456.32 129.62L456.53 129.5L456.74 129.39L456.95 129.28L457.17 129.17L457.38 129.06L457.6 128.95L457.82 128.85L458.04 128.75L458.26 128.66L458.48 128.56L458.7 128.47L458.93 128.38L459.15 128.29L459.38 128.21L459.61 128.13L459.83 128.05L460.06 127.97L460.29 127.9L460.53 127.83L460.36 127.68L460.2 127.52L460.04 127.36L459.88 127.19L459.73 127.03L459.58 126.86L459.44 126.69L459.3 126.51L459.16 126.33L459.03 126.15L458.9 125.97L458.77 125.79L458.65 125.6L458.53 125.41L458.42 125.22L458.31 125.02L458.2 124.83L458.1 124.63L458 124.43L457.91 124.23L457.82 124.02L457.74 123.82L457.66 123.61L457.58 123.4L457.51 123.19L457.44 122.98L457.38 122.77L457.32 122.55L457.26 122.33L457.21 122.12L457.16 121.9L457.12 121.68L457.09 121.46L457.05 121.23L457.03 121.01L457 120.79L456.98 120.56L456.97 120.33L456.96 120.11L456.96 119.88L456.96 119.72L456.96 119.57L456.96 119.41L456.97 119.26L456.98 119.11L456.99 118.96L457 118.81L457.02 118.67L457.04 118.52L457.05 118.38L457.07 118.24L457.1 118.1L457.12 117.97L457.15 117.83L457.18 117.7L457.21 117.57L457.24 117.44L457.28 117.31L457.31 117.19L457.35 117.06L457.39 116.94L457.43 116.82L457.48 116.7L457.52 116.59L457.57 116.47L457.62 116.36L457.67 116.25L457.73 116.14L457.79 116.03L457.84 115.93L457.9 115.82L457.96 115.72L458.03 115.62L458.09 115.53L458.16 115.43L458.23 115.34L458.3 115.25L458.38 115.16L458.45 115.07L458.53 114.98L458.58 114.93L458.62 114.89L458.67 114.84L458.71 114.79L458.76 114.75L458.8 114.7L458.85 114.65L458.9 114.61L458.94 114.56L458.99 114.52L459.04 114.47L459.09 114.43L459.13 114.38L459.18 114.34L459.23 114.29L459.28 114.25L459.32 114.2L459.37 114.16L459.42 114.12L459.47 114.07L459.52 114.03L459.57 113.99L459.62 113.95L459.67 113.9L459.72 113.86L459.77 113.82L459.82 113.78L459.87 113.74L459.92 113.69L459.97 113.65L460.02 113.61L460.07 113.57L460.12 113.53L460.18 113.49L460.23 113.45L460.28 113.41L460.33 113.37L460.38 113.33L460.44 113.29L460.49 113.25L460.31 113.11L460.14 112.97L459.97 112.82L459.8 112.67L459.63 112.53L459.46 112.38L459.29 112.22L459.13 112.07L458.97 111.92L458.8 111.76L458.64 111.6L458.48 111.44L458.33 111.28L458.17 111.12L458.02 110.96L457.86 110.79L457.71 110.63L457.56 110.46L457.41 110.29L457.27 110.12L457.12 109.95L456.98 109.77L456.84 109.6L456.7 109.42L456.56 109.25L456.42 109.07L456.29 108.89L456.15 108.71L456.02 108.52L455.89 108.34L455.76 108.16L455.64 107.97L455.51 107.78L455.39 107.59L455.27 107.4L455.15 107.21L455.03 107.02L454.91 106.83L454.8 106.63L454.68 106.44L454.53 106.17L454.39 105.9L454.24 105.63L454.1 105.36L453.97 105.09L453.83 104.81L453.71 104.54L453.58 104.26L453.46 103.98L453.34 103.7L453.23 103.41L453.12 103.13L453.02 102.84L452.91 102.56L452.82 102.27L452.72 101.98L452.63 101.69L452.55 101.4L452.46 101.11L452.38 100.81L452.31 100.52L452.24 100.22L452.17 99.93L452.11 99.63L452.05 99.33L452 99.03L451.94 98.73L451.9 98.43L451.85 98.13L451.82 97.83L451.78 97.53L451.75 97.22L451.72 96.92L451.7 96.62L451.68 96.31L451.67 96.01L451.66 95.7L451.65 95.39L451.65 95.09L451.65 94.78L451.65 94.32L451.66 93.86L451.68 93.4L451.7 92.95L451.73 92.51L451.77 92.07L451.81 91.64L451.86 91.22L451.92 90.8L451.98 90.38L452.06 89.97L452.13 89.57L452.22 89.18L452.31 88.79L452.41 88.4L452.51 88.02L452.62 87.65L452.74 87.28L452.86 86.92L453 86.57L453.13 86.22L453.28 85.87L453.43 85.54L453.59 85.21L453.76 84.88L453.93 84.56L454.11 84.25L454.29 83.94L454.49 83.64L454.69 83.35L454.89 83.06L455.11 82.78L455.33 82.5L455.56 82.23L455.79 81.97L456.03 81.71L456.28 81.46L456.53 81.21L456.8 80.97L457.06 80.74L457.4 80.45L457.75 80.18L458.12 79.92L458.49 79.67L458.87 79.43L459.26 79.19L459.66 78.97L460.07 78.76L460.49 78.56L460.92 78.37L461.36 78.18L461.81 78.01L462.27 77.85L462.74 77.7L463.22 77.56L463.71 77.42L464.21 77.3L464.72 77.19L465.24 77.09L465.77 76.99L466.3 76.91L466.85 76.84L467.41 76.78L467.98 76.73L468.56 76.68L469.14 76.65L469.74 76.63L470.34 76.62L470.96 76.62L471.59 76.63L472.22 76.64ZM471.35 132.87L470.93 133L470.51 133.14L470.09 133.3L469.68 133.47L469.28 133.65L468.88 133.84L468.49 134.05L468.11 134.27L467.73 134.5L467.36 134.75L467 135L466.65 135.27L466.3 135.55L465.97 135.84L465.64 136.15L465.32 136.46L465.01 136.79L464.75 137.11L464.5 137.44L464.27 137.79L464.05 138.16L463.85 138.54L463.66 138.93L463.48 139.34L463.31 139.76L463.16 140.2L463.03 140.65L462.9 141.11L462.8 141.59L462.7 142.08L462.62 142.58L462.56 143.1L462.51 143.64L462.47 144.18L462.45 144.74L462.44 145.32L462.45 146.05L462.49 146.77L462.54 147.47L462.62 148.15L462.73 148.81L462.85 149.45L463 150.08L463.18 150.69L463.37 151.29L463.59 151.86L463.83 152.42L464.1 152.97L464.39 153.49L464.71 154L465.04 154.5L465.41 154.98L465.79 155.45L466.2 155.9L466.64 156.33L467.09 156.75L467.57 157.16L468.07 157.55L468.58 157.92L469.11 158.28L469.66 158.62L470.23 158.95L470.82 159.26L471.42 159.56L472.04 159.84L472.68 160.1L473.34 160.34L474.01 160.58L474.69 160.79L475.4 160.99L476.12 161.17L476.85 161.33L477.6 161.48L478.37 161.61L479.13 161.72L479.88 161.81L480.61 161.88L481.33 161.93L482.02 161.95L482.71 161.95L483.37 161.94L484.01 161.9L484.64 161.84L485.25 161.76L485.84 161.66L486.41 161.53L486.96 161.39L487.49 161.23L488 161.05L488.49 160.85L488.96 160.62L489.41 160.38L489.84 160.12L490.25 159.84L490.63 159.54L491 159.21L491.34 158.86L491.65 158.48L491.95 158.09L492.22 157.67L492.47 157.22L492.7 156.76L492.9 156.26L493.09 155.75L493.25 155.21L493.39 154.64L493.51 154.06L493.61 153.44L493.68 152.8L493.73 152.14L493.77 151.45L493.78 150.74L493.74 149.47L493.62 148.24L493.42 147.06L493.13 145.93L492.77 144.85L492.33 143.81L491.8 142.81L491.2 141.86L490.51 140.96L489.74 140.1L488.88 139.29L487.95 138.52L486.93 137.79L485.83 137.11L484.64 136.47L483.37 135.87L482.02 135.32L480.58 134.81L479.06 134.34L478.7 134.25L478.35 134.16L477.99 134.07L477.63 133.99L477.27 133.9L476.92 133.81L476.56 133.72L476.2 133.63L475.84 133.54L475.48 133.45L475.12 133.37L474.76 133.28L474.39 133.19L474.03 133.1L473.67 133.01L473.31 132.92L472.95 132.83L472.58 132.74L472.22 132.66L471.78 132.76L471.35 132.87ZM474.29 84.59L473.89 84.64L473.5 84.71L473.1 84.8L472.72 84.9L472.34 85.02L471.96 85.16L471.59 85.31L471.23 85.49L470.88 85.67L470.53 85.88L470.19 86.1L469.87 86.33L469.55 86.59L469.17 86.93L468.82 87.32L468.49 87.73L468.19 88.19L467.91 88.67L467.65 89.2L467.42 89.76L467.22 90.36L467.03 90.99L466.87 91.66L466.74 92.37L466.63 93.11L466.54 93.9L466.48 94.72L466.45 95.58L466.43 96.47L466.45 97.38L466.49 98.25L466.55 99.1L466.64 99.92L466.75 100.71L466.89 101.48L467.06 102.22L467.25 102.93L467.47 103.61L467.71 104.26L467.98 104.89L468.27 105.49L468.59 106.05L468.94 106.59L469.31 107.1L469.7 107.59L470.13 108.05L470.58 108.5L471.04 108.92L471.52 109.32L472.02 109.7L472.54 110.05L473.07 110.38L473.61 110.68L474.17 110.96L474.74 111.22L475.32 111.45L475.91 111.65L476.51 111.83L477.12 111.98L477.74 112.1L478.37 112.19L479.02 112.29L479.66 112.35L480.28 112.39L480.88 112.41L481.47 112.39L482.03 112.35L482.58 112.28L483.11 112.19L483.62 112.06L484.11 111.91L484.59 111.74L485.05 111.53L485.49 111.3L485.92 111.04L486.33 110.76L486.73 110.45L487.1 110.11L487.45 109.73L487.78 109.32L488.08 108.87L488.36 108.38L488.61 107.86L488.84 107.3L489.05 106.7L489.23 106.07L489.39 105.4L489.53 104.7L489.64 103.96L489.73 103.18L489.79 102.37L489.83 101.53L489.85 100.65L489.84 99.79L489.8 98.95L489.73 98.13L489.64 97.34L489.52 96.57L489.38 95.82L489.21 95.1L489.02 94.39L488.8 93.71L488.56 93.06L488.29 92.43L487.99 91.82L487.67 91.23L487.33 90.67L486.96 90.13L486.56 89.62L486.15 89.13L485.71 88.66L485.26 88.22L484.78 87.8L484.29 87.4L483.78 87.03L483.25 86.68L482.71 86.36L482.15 86.06L481.58 85.79L481 85.55L480.4 85.33L479.8 85.15L479.18 84.99L478.56 84.86L477.92 84.76L477.77 84.73L477.62 84.71L477.47 84.69L477.32 84.67L477.17 84.65L477.02 84.64L476.87 84.62L476.72 84.61L476.56 84.6L476.41 84.59L476.26 84.58L476.11 84.57L475.96 84.56L475.8 84.56L475.65 84.56L475.5 84.55L475.09 84.55L474.69 84.56L474.29 84.59Z" id="b2kPTTiwhK"></path><path d="M220.15 202.28C213.7 200.17 210.56 197.26 210.56 193.38C210.58 191.08 211.68 188.93 213.54 187.57C215.64 185.84 218.62 184.81 222.46 184.5C227.28 184.13 231.1 184.95 233.82 186.94C236.53 188.94 238.17 191.85 238.81 195.85C238.93 196.59 239.59 197.11 240.33 197.07C240.6 197.05 242.72 196.92 242.98 196.9C243.75 196.85 244.35 196.22 244.35 195.45C244.43 192.41 244.24 189.38 243.79 186.38C243.35 184.2 242.22 182.23 240.57 180.75C236.68 177.12 229.62 175.73 219.58 176.55C212.87 177.1 207.3 179.22 203 182.84C198.72 186.33 196.28 191.61 196.41 197.13C196.41 201.66 197.86 205.37 200.82 208.19C203.63 210.9 207.71 213.07 213.29 214.8C217.25 216.09 220.47 217.17 221.27 217.43C225.19 218.69 228.07 220.14 229.82 221.71C231.37 223.03 232.24 224.98 232.19 227.02C232.2 229.34 231.05 231.52 229.12 232.82C226.94 234.48 223.52 235.51 218.96 235.89C213.84 236.31 209.86 235.56 207.13 233.65C204.4 231.74 202.7 228.87 201.97 224.94C201.84 224.2 201.15 223.68 200.4 223.76C200.13 223.78 198.01 224 197.75 224.03C197.01 224.1 196.44 224.73 196.45 225.48C196.37 228.48 196.56 231.48 197 234.45C197.42 236.63 198.56 238.6 200.24 240.05C203.26 242.77 208.36 244.12 215.72 244.12C218.57 244.12 221.23 243.88 221.85 243.86C228.92 243.29 234.8 241.25 239.31 237.8C243.85 234.54 246.49 229.25 246.38 223.66C246.38 218.96 244.85 215.12 241.81 212.25C238.88 209.46 234.27 207.02 228.13 204.96C225.48 204.06 222.83 203.16 220.15 202.28Z" id="g3DnJJF0EW"></path><path d="M118.99 245.98C114.92 243.9 111.1 241.36 107.61 238.4C98 230.17 88.25 221.92 78.64 213.9C86.75 203.91 95.02 193.86 103.21 184.01C106.66 179.84 109.74 176.87 112.32 175.17C115.06 173.42 118.14 172.25 121.35 171.72C122.05 171.59 122.55 170.98 122.54 170.27C122.54 169.94 122.54 167.3 122.54 166.97C122.54 166.55 122.36 166.14 122.03 165.86C121.7 165.59 121.26 165.47 120.84 165.55C117.56 166.13 114.93 166.62 114.27 166.74C111.4 167.26 108.66 168.3 106.17 169.81C103.89 171.2 101.81 172.89 99.98 174.83C98.29 176.64 96.2 179.1 93.75 182.15C93.49 182.48 91.41 185.1 91.15 185.43C82.88 195.47 74.54 205.71 66.33 215.92C66.33 213.76 66.33 196.52 66.33 194.36C66.33 189.68 65.96 186.33 65.21 184.12C64.35 181.62 62.86 180.05 60.77 179.46C58.89 178.93 56.3 179.08 52.79 179.93C48.89 180.88 44.96 181.87 41.09 182.83C40.44 183 39.99 183.59 40 184.26C40 184.53 40 186.64 40 186.9C40 187.7 40.65 188.35 41.45 188.35C41.57 188.35 41.7 188.34 41.81 188.31C42.07 188.24 44.15 187.71 44.41 187.65C47.35 186.92 49.27 187.17 50.1 188.44C50.83 189.55 51.69 191.96 51.69 197.15C51.69 204.27 51.69 261.17 51.69 268.29C51.69 269.09 52.34 269.74 53.14 269.74C53.25 269.74 53.37 269.73 53.48 269.7C57.3 268.77 61.23 267.83 65.17 266.91C65.83 266.76 66.29 266.17 66.3 265.5C66.3 261.46 66.3 229.16 66.3 225.12C74.62 232.02 82.99 239.07 91.31 246.11C97.2 251.11 102.52 254.37 107.13 255.8C107.13 255.8 107.13 255.8 107.13 255.8C111.49 257.23 116.13 257.58 120.66 256.83C123.77 256.28 126.78 255.29 129.6 253.88C130.09 253.63 130.4 253.13 130.4 252.59C130.4 252.34 130.4 250.33 130.4 250.08C130.4 249.69 130.24 249.31 129.95 249.04C129.68 248.77 129.31 248.62 128.93 248.63C126.03 248.72 122.7 247.83 118.99 245.98Z" id="aR8P0sjnS"></path><path d="M167.52 182.43L168.01 182.45L168.51 182.48L168.99 182.52L169.48 182.57L169.95 182.63L170.42 182.69L170.89 182.77L171.35 182.85L171.8 182.94L172.25 183.04L172.69 183.15L173.13 183.26L173.56 183.39L173.98 183.52L174.4 183.67L174.82 183.82L175.23 183.98L175.63 184.15L176.02 184.32L176.41 184.51L176.8 184.7L177.18 184.91L177.55 185.12L177.92 185.34L178.28 185.57L178.64 185.81L178.99 186.05L179.33 186.31L179.67 186.57L180 186.85L180.33 187.14L180.65 187.45L180.96 187.77L181.26 188.11L181.56 188.46L181.84 188.82L182.12 189.19L182.38 189.59L182.64 189.99L182.89 190.41L183.13 190.84L183.37 191.29L183.59 191.75L183.81 192.23L184.01 192.72L184.21 193.22L184.4 193.74L184.58 194.27L184.75 194.82L184.92 195.38L185.07 195.95L185.22 196.55L185.36 197.15L185.49 197.77L185.61 198.4L185.72 199.05L185.83 199.71L185.92 200.39L186.01 201.08L186.09 201.79L186.16 202.51L186.22 203.25L186.28 204L186.32 204.76L186.36 205.54L186.39 206.34L186.41 207.15L186.42 207.97L186.43 208.81L186.43 244.38L186.42 244.43L186.42 244.49L186.42 244.54L186.41 244.6L186.4 244.65L186.39 244.7L186.38 244.75L186.36 244.8L186.35 244.85L186.33 244.9L186.31 244.95L186.29 245L186.27 245.05L186.24 245.09L186.22 245.14L186.19 245.18L186.16 245.23L186.13 245.27L186.1 245.31L186.06 245.35L186.03 245.39L185.99 245.42L185.95 245.46L185.92 245.49L185.88 245.53L185.83 245.56L185.79 245.59L185.75 245.62L185.7 245.64L185.66 245.67L185.61 245.69L185.56 245.72L185.51 245.74L185.46 245.76L185.41 245.77L185.36 245.79L185.31 245.8L185.26 245.81L185.2 245.82L185.15 245.83L184.98 245.85L184.82 245.87L184.65 245.89L184.49 245.91L184.32 245.93L184.16 245.95L183.83 245.99L183.66 246.01L183.5 246.03L183.33 246.05L183.16 246.07L183 246.09L182.83 246.11L182.67 246.12L182.5 246.14L182.34 246.16L182.17 246.18L182.01 246.2L181.84 246.22L181.68 246.24L181.51 246.26L181.34 246.28L181.18 246.3L181.01 246.32L180.85 246.34L180.68 246.36L180.52 246.38L180.35 246.4L180.19 246.42L180.03 246.44L179.86 246.46L179.7 246.49L179.53 246.51L179.37 246.53L179.2 246.55L179.04 246.57L178.88 246.59L178.71 246.61L178.55 246.63L178.51 246.63L178.48 246.64L178.44 246.64L178.41 246.64L178.37 246.64L178.33 246.64L178.3 246.64L178.26 246.64L178.23 246.63L178.19 246.63L178.16 246.62L178.12 246.62L178.09 246.61L178.05 246.61L178.02 246.6L177.98 246.59L177.95 246.58L177.92 246.57L177.88 246.56L177.85 246.55L177.82 246.53L177.78 246.52L177.75 246.5L177.72 246.49L177.69 246.47L177.66 246.46L177.63 246.44L177.6 246.42L177.57 246.4L177.54 246.38L177.51 246.36L177.48 246.34L177.45 246.32L177.43 246.29L177.4 246.27L177.37 246.25L177.35 246.22L177.32 246.2L177.3 246.17L177.27 246.14L177.18 246.03L177.08 245.92L176.99 245.82L176.9 245.71L176.8 245.6L176.71 245.49L176.61 245.38L176.52 245.27L176.42 245.16L176.33 245.05L176.23 244.94L176.14 244.84L176.05 244.73L175.95 244.62L175.76 244.4L175.67 244.29L175.1 243.64L175.01 243.53L174.82 243.31L174.72 243.2L174.63 243.09L174.54 242.98L174.44 242.88L174.35 242.77L174.25 242.66L174.16 242.55L174.06 242.44L173.97 242.33L173.87 242.22L173.78 242.11L173.69 242L173.59 241.9L173.5 241.79L173.36 241.95L173.21 242.11L173.07 242.27L172.92 242.43L172.77 242.59L172.62 242.75L172.47 242.91L172.32 243.06L172.17 243.21L172.01 243.37L171.86 243.52L171.7 243.66L171.54 243.81L171.38 243.96L171.22 244.1L171.06 244.25L170.9 244.39L170.73 244.53L170.57 244.67L170.4 244.81L170.23 244.94L170.06 245.08L169.89 245.21L169.72 245.35L169.55 245.48L169.38 245.61L169.2 245.73L169.03 245.86L168.85 245.99L168.67 246.11L168.49 246.23L168.31 246.35L168.13 246.47L167.95 246.59L167.77 246.7L167.58 246.82L167.4 246.93L167.21 247.04L167.02 247.15L166.83 247.26L166.56 247.41L166.28 247.56L165.99 247.71L165.71 247.86L165.43 248L165.14 248.14L164.85 248.28L164.57 248.41L164.28 248.54L163.99 248.67L163.7 248.8L163.4 248.92L163.11 249.04L162.81 249.15L162.52 249.27L162.22 249.38L161.92 249.49L161.63 249.59L161.33 249.7L161.02 249.8L160.72 249.89L160.42 249.99L160.12 250.08L159.81 250.17L159.51 250.25L159.2 250.33L158.89 250.41L158.59 250.49L158.28 250.56L157.97 250.63L157.66 250.7L157.35 250.76L157.03 250.83L156.72 250.88L156.41 250.94L156.1 250.99L155.78 251.04L155.47 251.09L155.15 251.13L154.84 251.17L154.76 251.18L154.68 251.2L154.59 251.21L154.51 251.22L154.43 251.23L154.35 251.24L154.27 251.25L154.19 251.26L154.11 251.27L154.03 251.28L153.95 251.29L153.87 251.29L153.79 251.3L153.71 251.31L153.63 251.32L153.55 251.33L153.46 251.33L153.38 251.34L153.3 251.35L153.22 251.35L153.14 251.36L153.06 251.36L152.98 251.37L152.9 251.37L152.82 251.38L152.74 251.38L152.65 251.39L152.57 251.39L152.49 251.39L152.41 251.4L152.33 251.4L152.25 251.4L152.17 251.4L152.09 251.41L152.01 251.41L151.92 251.41L151.84 251.41L151.76 251.41L151.68 251.41L151.6 251.41L151.45 251.41L151.3 251.41L151.15 251.41L151 251.41L150.86 251.4L150.71 251.4L150.56 251.39L150.41 251.38L150.26 251.38L150.11 251.37L149.96 251.36L149.82 251.35L149.67 251.34L149.52 251.33L149.37 251.31L149.22 251.3L149.08 251.28L148.93 251.27L148.78 251.25L148.63 251.23L148.49 251.21L148.34 251.19L148.19 251.17L148.04 251.15L147.9 251.13L147.75 251.11L147.6 251.08L147.46 251.06L147.31 251.03L147.16 251L147.02 250.98L146.87 250.95L146.73 250.92L146.58 250.89L146.44 250.86L146.29 250.82L146.15 250.79L146 250.76L145.86 250.72L145.71 250.69L145.47 250.62L145.24 250.56L145 250.49L144.76 250.41L144.53 250.33L144.3 250.25L144.07 250.17L143.84 250.08L143.61 249.99L143.38 249.89L143.16 249.8L142.94 249.69L142.71 249.59L142.49 249.48L142.28 249.37L142.06 249.25L141.85 249.13L141.64 249.01L141.43 248.88L141.22 248.76L141.01 248.62L140.81 248.49L140.61 248.35L140.41 248.21L140.21 248.07L140.01 247.92L139.82 247.77L139.63 247.61L139.44 247.46L139.25 247.3L139.07 247.13L138.89 246.97L138.71 246.8L138.53 246.63L138.36 246.45L138.19 246.28L138.02 246.1L137.86 245.91L137.69 245.73L137.53 245.54L137.36 245.34L137.2 245.13L137.04 244.93L136.88 244.71L136.73 244.5L136.58 244.27L136.44 244.05L136.3 243.82L136.16 243.58L136.03 243.35L135.91 243.1L135.78 242.86L135.67 242.61L135.55 242.35L135.44 242.09L135.34 241.83L135.24 241.56L135.14 241.29L135.05 241.01L134.96 240.73L134.87 240.45L134.79 240.16L134.72 239.87L134.65 239.58L134.58 239.28L134.52 238.97L134.46 238.66L134.4 238.35L134.35 238.04L134.31 237.71L134.27 237.39L134.23 237.06L134.2 236.73L134.17 236.39L134.15 236.05L134.13 235.71L134.11 235.36L134.1 235.01L134.09 234.66L134.09 234.3L134.1 233.76L134.12 233.23L134.15 232.7L134.19 232.18L134.25 231.66L134.32 231.15L134.4 230.65L134.49 230.15L134.6 229.66L134.72 229.17L134.85 228.69L134.99 228.22L135.15 227.75L135.32 227.29L135.5 226.83L135.7 226.38L135.9 225.93L136.12 225.49L136.35 225.06L136.59 224.63L136.85 224.21L137.12 223.79L137.4 223.38L137.69 222.98L138 222.58L138.32 222.19L138.65 221.8L138.99 221.42L139.34 221.05L139.71 220.68L140.09 220.32L140.48 219.96L140.89 219.62L141.3 219.27L141.73 218.93L142.17 218.6L142.62 218.28L143.09 217.96L143.57 217.65L144.06 217.34L144.54 217.05L145.04 216.76L145.54 216.48L146.04 216.2L146.56 215.93L147.08 215.66L147.61 215.4L148.14 215.14L148.69 214.89L149.24 214.64L149.79 214.39L150.36 214.15L150.93 213.92L151.51 213.69L152.09 213.46L152.69 213.24L153.28 213.03L153.89 212.81L154.5 212.61L155.12 212.41L155.75 212.21L156.38 212.02L157.03 211.83L157.67 211.65L158.33 211.47L158.99 211.3L159.66 211.13L160.33 210.97L161.01 210.81L161.7 210.66L162.39 210.51L163.09 210.37L163.8 210.23L164.52 210.1L165.24 209.97L165.96 209.85L166.7 209.73L167.44 209.62L168.19 209.51L168.94 209.41L171.63 209.05L171.62 208.49L171.6 207.94L171.59 207.4L171.57 206.87L171.54 206.35L171.51 205.84L171.48 205.33L171.45 204.84L171.41 204.36L171.37 203.88L171.32 203.42L171.27 202.96L171.22 202.52L171.16 202.08L171.1 201.65L171.04 201.24L170.97 200.83L170.9 200.43L170.83 200.04L170.75 199.66L170.67 199.29L170.58 198.93L170.49 198.58L170.4 198.24L170.3 197.9L170.2 197.58L170.1 197.27L169.99 196.96L169.88 196.67L169.76 196.39L169.65 196.11L169.52 195.84L169.4 195.59L169.27 195.34L169.13 195.1L169 194.88L168.85 194.66L168.71 194.45L168.56 194.25L168.41 194.06L168.25 193.88L168.09 193.71L167.93 193.54L167.77 193.37L167.6 193.21L167.43 193.06L167.25 192.91L167.07 192.77L166.89 192.64L166.7 192.51L166.51 192.38L166.32 192.26L166.12 192.15L165.92 192.04L165.72 191.94L165.51 191.85L165.3 191.76L165.09 191.67L164.87 191.59L164.65 191.52L164.42 191.45L164.2 191.39L163.96 191.33L163.73 191.28L163.49 191.24L163.24 191.2L163 191.17L162.75 191.14L162.49 191.12L162.24 191.1L161.97 191.09L161.71 191.09L161.44 191.09L161.17 191.09L160.89 191.1L160.61 191.12L160.32 191.14L160.03 191.17L159.74 191.21L159.45 191.25L159.17 191.29L158.9 191.33L158.63 191.37L158.37 191.42L158.1 191.47L157.84 191.53L157.59 191.58L157.33 191.64L157.08 191.7L156.83 191.76L156.58 191.83L156.34 191.9L156.1 191.97L155.86 192.04L155.62 192.12L155.39 192.19L155.16 192.28L154.93 192.36L154.71 192.44L154.49 192.53L154.27 192.62L154.06 192.72L153.84 192.81L153.63 192.91L153.43 193.01L153.22 193.11L153.02 193.22L152.83 193.33L152.63 193.44L152.44 193.55L152.25 193.67L152.07 193.78L151.89 193.9L151.71 194.03L151.53 194.15L151.36 194.28L151.19 194.41L151.02 194.54L150.86 194.67L150.7 194.81L150.54 194.95L150.39 195.09L150.23 195.24L150.08 195.39L149.93 195.55L149.79 195.71L149.64 195.87L149.5 196.04L149.36 196.21L149.23 196.39L149.09 196.57L148.96 196.76L148.83 196.94L148.7 197.14L148.57 197.33L148.45 197.53L148.33 197.74L148.21 197.95L148.09 198.16L147.98 198.37L147.86 198.59L147.75 198.82L147.65 199.05L147.54 199.28L147.44 199.51L147.34 199.75L147.24 200L147.14 200.24L147.05 200.5L146.96 200.75L146.87 201.01L146.78 201.27L146.7 201.54L146.61 201.81L146.53 202.09L146.46 202.37L146.38 202.65L146.31 202.94L146.24 203.23L146.17 203.52L146.16 203.56L146.15 203.61L146.13 203.65L146.12 203.69L146.1 203.73L146.09 203.77L146.07 203.81L146.05 203.85L146.03 203.89L146.01 203.93L145.99 203.96L145.97 204L145.94 204.03L145.92 204.07L145.89 204.1L145.86 204.14L145.83 204.17L145.81 204.2L145.78 204.23L145.74 204.26L145.71 204.29L145.68 204.31L145.65 204.34L145.61 204.37L145.58 204.39L145.54 204.42L145.51 204.44L145.47 204.46L145.43 204.48L145.39 204.5L145.36 204.52L145.32 204.54L145.28 204.55L145.23 204.57L145.19 204.58L145.15 204.59L145.11 204.6L145.07 204.61L145.02 204.62L144.98 204.63L139.06 205.57L139.05 205.58L139.03 205.58L139.01 205.58L138.99 205.58L138.98 205.59L138.96 205.59L138.94 205.59L138.93 205.59L138.91 205.59L138.89 205.59L138.87 205.59L138.85 205.59L138.84 205.59L138.81 205.59L138.75 205.59L138.69 205.59L138.64 205.58L138.58 205.57L138.52 205.56L138.46 205.55L138.41 205.53L138.35 205.51L138.3 205.49L138.25 205.47L138.2 205.45L138.15 205.42L138.1 205.4L138.05 205.37L138 205.33L137.96 205.3L137.91 205.27L137.87 205.23L137.83 205.19L137.79 205.15L137.75 205.11L137.72 205.07L137.68 205.03L137.65 204.98L137.62 204.94L137.59 204.89L137.56 204.84L137.53 204.79L137.51 204.74L137.49 204.69L137.47 204.64L137.45 204.58L137.43 204.53L137.42 204.47L137.41 204.42L137.4 204.36L137.39 204.3L137.38 204.24L137.38 204.18L137.38 204.12L137.38 203.94L137.37 203.75L137.37 203.56L137.37 203.38L137.37 203.19L137.37 203.01L137.38 202.82L137.38 202.63L137.38 202.45L137.39 202.26L137.39 202.08L137.4 201.89L137.41 201.7L137.42 201.52L137.43 201.33L137.44 201.15L137.45 200.96L137.46 200.78L137.47 200.59L137.48 200.4L137.5 200.22L137.51 200.03L137.53 199.85L137.55 199.66L137.56 199.48L137.58 199.29L137.6 199.11L137.62 198.92L137.64 198.74L137.66 198.55L137.69 198.37L137.71 198.18L137.74 198L137.76 197.82L137.79 197.63L137.81 197.45L137.84 197.26L137.87 197.08L137.9 196.9L137.93 196.71L137.97 196.55L138.01 196.38L138.05 196.22L138.1 196.06L138.14 195.89L138.19 195.73L138.24 195.57L138.3 195.41L138.35 195.25L138.41 195.09L138.47 194.93L138.53 194.78L138.59 194.62L138.66 194.47L138.73 194.31L138.8 194.16L138.87 194L138.94 193.85L139.01 193.7L139.09 193.55L139.17 193.4L139.25 193.26L139.33 193.11L139.42 192.96L139.51 192.82L139.59 192.68L139.68 192.53L139.78 192.39L139.87 192.25L139.97 192.11L140.06 191.98L140.16 191.84L140.26 191.71L140.37 191.57L140.47 191.44L140.58 191.31L140.69 191.18L140.8 191.05L140.91 190.92L141.02 190.8L141.16 190.65L141.29 190.49L141.43 190.35L141.58 190.2L141.73 190.05L141.88 189.91L142.04 189.76L142.2 189.62L142.37 189.48L142.54 189.33L142.71 189.19L142.89 189.06L143.07 188.92L143.25 188.78L143.44 188.65L143.64 188.51L143.84 188.38L144.04 188.25L144.24 188.12L144.45 187.99L144.67 187.86L144.88 187.73L145.1 187.61L145.33 187.49L145.56 187.36L145.79 187.24L146.03 187.12L146.27 187L146.52 186.88L146.76 186.77L147.02 186.65L147.27 186.54L147.53 186.42L147.8 186.31L148.07 186.2L148.34 186.09L148.61 185.99L148.89 185.88L149.18 185.78L149.47 185.67L149.76 185.57L150.06 185.47L150.36 185.37L150.66 185.27L150.96 185.17L151.26 185.08L151.56 184.99L151.86 184.89L152.16 184.8L152.46 184.72L152.76 184.63L153.06 184.54L153.37 184.46L153.67 184.38L153.97 184.29L154.28 184.22L154.58 184.14L154.89 184.06L155.19 183.99L155.5 183.91L155.8 183.84L156.11 183.77L156.41 183.7L156.72 183.63L157.03 183.57L157.34 183.5L157.64 183.44L157.95 183.38L158.26 183.32L158.57 183.26L158.88 183.21L159.19 183.15L159.5 183.1L159.81 183.05L160.12 183L160.43 182.95L160.74 182.9L161.05 182.85L161.36 182.81L161.67 182.77L162.23 182.69L162.78 182.63L163.33 182.57L163.87 182.52L164.41 182.49L164.94 182.45L165.47 182.43L165.99 182.42L166.5 182.42L167.01 182.42L167.52 182.43ZM168.05 217.79L166.87 217.99L165.71 218.23L164.59 218.49L163.5 218.77L162.45 219.09L161.43 219.43L160.45 219.79L159.5 220.19L158.59 220.61L157.71 221.05L156.86 221.53L156.06 222.03L155.29 222.55L154.55 223.1L153.89 223.65L153.28 224.21L152.71 224.77L152.19 225.34L151.72 225.92L151.29 226.51L150.91 227.11L150.57 227.72L150.28 228.34L150.03 228.98L149.83 229.63L149.67 230.29L149.56 230.96L149.49 231.66L149.47 232.37L149.48 233.07L149.52 233.74L149.59 234.38L149.67 234.99L149.79 235.58L149.93 236.13L150.1 236.66L150.3 237.16L150.53 237.63L150.78 238.08L151.07 238.5L151.38 238.9L151.72 239.27L152.1 239.62L152.51 239.94L152.93 240.24L153.38 240.52L153.83 240.76L154.29 240.98L154.77 241.17L155.26 241.33L155.77 241.47L156.29 241.58L156.82 241.66L157.37 241.72L157.93 241.75L158.51 241.75L159.1 241.73L159.71 241.68L160.33 241.61L160.81 241.54L161.28 241.46L161.75 241.36L162.22 241.25L162.68 241.11L163.13 240.96L163.58 240.79L164.02 240.6L164.45 240.4L164.88 240.18L165.29 239.94L165.7 239.69L166.1 239.42L166.49 239.13L166.86 238.83L167.24 238.49L167.6 238.15L167.96 237.79L168.31 237.43L168.65 237.07L168.99 236.69L169.32 236.31L169.64 235.92L169.95 235.53L170.25 235.12L170.55 234.72L170.83 234.3L171.11 233.88L171.38 233.46L171.64 233.03L171.64 217.29L169.27 217.61L168.05 217.79Z" id="a2446LPMyW"></path></defs><g><g><g><use xlink:href="#b1NC1EBkQr" opacity="1" fill="#ffffff" fill-opacity="1"></use><g><use xlink:href="#b1NC1EBkQr" opacity="1" fill-opacity="0" stroke="#000000" stroke-width="1" stroke-opacity="0"></use></g></g><g><use xlink:href="#ffE51P107" opacity="1" fill="#ffffff" fill-opacity="1"></use><g><use xlink:href="#ffE51P107" opacity="1" fill-opacity="0" stroke="#000000" stroke-width="1" stroke-opacity="0"></use></g></g><g><use xlink:href="#b7ElCkhqN" opacity="1" fill="#ffffff" fill-opacity="1"></use><g><use xlink:href="#b7ElCkhqN" opacity="1" fill-opacity="0" stroke="#000000" stroke-width="1" stroke-opacity="0"></use></g></g><g><use xlink:href="#aHRsDWRtd" opacity="1" fill="#ffffff" fill-opacity="1"></use><g><use xlink:href="#aHRsDWRtd" opacity="1" fill-opacity="0" stroke="#000000" stroke-width="1" stroke-opacity="0"></use></g></g><g><use xlink:href="#b2quyfjcqv" opacity="1" fill="#ffffff" fill-opacity="1"></use><g><use xlink:href="#b2quyfjcqv" opacity="1" fill-opacity="0" stroke="#000000" stroke-width="1" stroke-opacity="0"></use></g></g><g><use xlink:href="#a4mO8Aiy3d" opacity="1" fill="#ffffff" fill-opacity="1"></use><g><use xlink:href="#a4mO8Aiy3d" opacity="1" fill-opacity="0" stroke="#000000" stroke-width="1" stroke-opacity="0"></use></g></g><g><use xlink:href="#azoLOpeKM" opacity="1" fill="#ffffff" fill-opacity="1"></use><g><use xlink:href="#azoLOpeKM" opacity="1" fill-opacity="0" stroke="#000000" stroke-width="1" stroke-opacity="0"></use></g></g><g><use xlink:href="#a6R02CUhJL" opacity="1" fill="#ffffff" fill-opacity="1"></use><g><use xlink:href="#a6R02CUhJL" opacity="1" fill-opacity="0" stroke="#000000" stroke-width="1" stroke-opacity="0"></use></g></g><g><use xlink:href="#a1jcxh5y4" opacity="1" fill="#ffffff" fill-opacity="1"></use><g><use xlink:href="#a1jcxh5y4" opacity="1" fill-opacity="0" stroke="#000000" stroke-width="1" stroke-opacity="0"></use></g></g><g><use xlink:href="#aT9j0xxiR" opacity="1" fill="#ffffff" fill-opacity="1"></use><g><use xlink:href="#aT9j0xxiR" opacity="1" fill-opacity="0" stroke="#000000" stroke-width="1" stroke-opacity="0"></use></g></g><g><use xlink:href="#b2kPTTiwhK" opacity="1" fill="#ffffff" fill-opacity="1"></use><g><use xlink:href="#b2kPTTiwhK" opacity="1" fill-opacity="0" stroke="#000000" stroke-width="1" stroke-opacity="0"></use></g></g><g><use xlink:href="#g3DnJJF0EW" opacity="1" fill="#ffffff" fill-opacity="1"></use><g><use xlink:href="#g3DnJJF0EW" opacity="1" fill-opacity="0" stroke="#000000" stroke-width="1" stroke-opacity="0"></use></g></g><g><use xlink:href="#aR8P0sjnS" opacity="1" fill="#ffffff" fill-opacity="1"></use><g><use xlink:href="#aR8P0sjnS" opacity="1" fill-opacity="0" stroke="#000000" stroke-width="1" stroke-opacity="0"></use></g></g><g><use xlink:href="#a2446LPMyW" opacity="1" fill="#ffffff" fill-opacity="1"></use><g><use xlink:href="#a2446LPMyW" opacity="1" fill-opacity="0" stroke="#000000" stroke-width="1" stroke-opacity="0"></use></g></g></g></g></svg>