<svg xmlns="http://www.w3.org/2000/svg" xmlns:xlink="http://www.w3.org/1999/xlink" viewBox="0 0 1195.73 660.71"><defs><style>.tc1{isolation:isolate;}.cls-2{fill:#2f4962;}.tc3,.tc4,.tc5,.tc6,.tc7,.tc8,.tc9{opacity:0.8;mix-blend-mode:multiply;}.tc3{fill:url(#lgtc);}.tc4{fill:url(#lgtc2);}.tc5{fill:url(#lgtc3);}.tc6{fill:url(#lgtc4);}.tc7{fill:url(#lgtc5);}.tc8{fill:url(#lgtc6);}.tc9{fill:url(#lgtc7);}</style><linearGradient id="lgtc" x1="85.43" y1="482.75" x2="86.34" y2="325.45" gradientTransform="matrix(-1, 0, 0, 1, 887.15, 0)" gradientUnits="userSpaceOnUse"><stop offset="0" stop-color="#fafbfb" stop-opacity="0"/><stop offset="1" stop-color="#78a9a8"/></linearGradient><linearGradient id="lgtc2" x1="677.43" y1="411.76" x2="677.76" y2="354.63" xlink:href="#lgtc"/><linearGradient id="lgtc3" x1="-20.59" y1="323.95" x2="-20.07" y2="232.78" xlink:href="#lgtc"/><linearGradient id="lgtc4" x1="585.58" y1="354.11" x2="586.1" y2="262.94" xlink:href="#lgtc"/><linearGradient id="lgtc5" x1="471.21" y1="412.43" x2="471.73" y2="321.25" xlink:href="#lgtc"/><linearGradient id="lgtc6" x1="484.65" y1="310.26" x2="485.17" y2="219.09" xlink:href="#lgtc"/><linearGradient id="lgtc7" x1="287.13" y1="373.37" x2="287.65" y2="282.2" xlink:href="#lgtc"/></defs><title>10</title><g class="tc1"><g id="Layer_1" data-name="Layer 1"><rect class="cls-2" x="-47.27" y="-46.29" width="1287" height="730.1"/><path class="tc3" d="M622,437.58l0,0c.2-.33.41-.66.63-1l.06-.07c.22-.3.44-.59.68-.87l.11-.12q.35-.39.72-.75l.17-.16c.24-.21.48-.43.73-.63l.25-.19c.24-.18.48-.36.72-.52l.35-.21c.23-.14.46-.28.7-.41s.3-.14.44-.21.44-.22.67-.31.37-.14.55-.21l.62-.22.67-.17.55-.14.84-.12.43-.07c.43,0,.87-.06,1.31-.06a13,13,0,0,1,5.84,1.39,21.37,21.37,0,0,1,1.43-1.72,19.48,19.48,0,0,1,11.9-6.08,20.7,20.7,0,0,1,2.38-.14,18.82,18.82,0,0,1,3.92.41c.42.09.84.19,1.25.3a19.54,19.54,0,0,1,28-13.37,30.72,30.72,0,0,1-.77-5.11c-.05-.65-.08-1.31-.08-2A31.11,31.11,0,0,1,727,374.93a32.42,32.42,0,0,1,1.21-5.6A31.12,31.12,0,0,1,779.08,356c.37.34.74.7,1.09,1.06a47.21,47.21,0,0,1,9.59-6.9,46.3,46.3,0,0,1,56.06,9.2c.85.91,1.66,1.85,2.43,2.83a46.61,46.61,0,0,1,8.44,16.76,31.56,31.56,0,0,1,3.25-.17,31.14,31.14,0,0,1,28,17.55,19.46,19.46,0,0,1,19.6,3.6c.43.38.84.77,1.24,1.19A19.48,19.48,0,0,1,914,411.82,19.51,19.51,0,0,1,942.63,423a15.6,15.6,0,0,1,.42,1.63,19.43,19.43,0,0,1,20.88,7.24,13,13,0,1,1,0,23.22,19.51,19.51,0,0,1-26.79,4.49,19.5,19.5,0,0,1-30.35,5.74,19.52,19.52,0,0,1-33.52,2.25,19.31,19.31,0,0,1-8.58,2,19.53,19.53,0,0,1-15.31-7.4,19.49,19.49,0,0,1-26.29,14.9,46.43,46.43,0,0,1-72.7-11,19.41,19.41,0,0,1-20.67,2.2A19.53,19.53,0,0,1,696.2,466a19.51,19.51,0,0,1-30.35-5.73,19.5,19.5,0,0,1-26.79-4.5A13,13,0,0,1,622,437.58Z"/><path class="tc4" d="M144.44,395.36v0c.07-.12.15-.24.23-.35l0,0c.08-.1.16-.21.25-.31l0,0a3.45,3.45,0,0,1,.26-.28l.06-.05.26-.23.1-.07a2.48,2.48,0,0,1,.26-.19l.12-.08.26-.15.16-.08.24-.11.2-.07.23-.08.24-.06.2-.05.31-.05.15,0a3.87,3.87,0,0,1,.48,0,4.74,4.74,0,0,1,2.12.51,6.21,6.21,0,0,1,.52-.63,7,7,0,0,1,4.32-2.2,6.11,6.11,0,0,1,.86-.06,7.46,7.46,0,0,1,1.43.15l.45.11a7.1,7.1,0,0,1,6.95-5.63,7,7,0,0,1,3.23.78,11.27,11.27,0,0,1-.28-1.86c0-.24,0-.48,0-.72a11.3,11.3,0,0,1,14.46-10.86,11.31,11.31,0,0,1,18.94-6.89l.39.38a17.56,17.56,0,0,1,3.48-2.5,16.8,16.8,0,0,1,20.37,3.34c.3.33.6.67.88,1a16.47,16.47,0,0,1,1.51,2.26,16.82,16.82,0,0,1,1.55,3.82,11.51,11.51,0,0,1,1.18-.06,11.26,11.26,0,0,1,7.33,2.7,11.4,11.4,0,0,1,2.84,3.68,6.92,6.92,0,0,1,2.45-.45,7,7,0,0,1,4.67,1.76,6,6,0,0,1,.45.42,7.08,7.08,0,0,1,1.9,3.91,7.09,7.09,0,0,1,10.4,4.06,5.66,5.66,0,0,1,.15.59,7.29,7.29,0,0,1,1.88-.26,7.07,7.07,0,0,1,5.7,2.89,4.73,4.73,0,1,1,0,8.43,7.07,7.07,0,0,1-5.7,2.89,7.15,7.15,0,0,1-4-1.25,7.08,7.08,0,0,1-11,2.08,7.09,7.09,0,0,1-12.17.82,7.07,7.07,0,0,1-8.68-2,7.09,7.09,0,0,1-7,5.89,7,7,0,0,1-2.56-.48,16.85,16.85,0,0,1-26.4-4,7.05,7.05,0,0,1-7.51.8,7.1,7.1,0,0,1-12.18-.82,7.08,7.08,0,0,1-11-2.08,7.09,7.09,0,0,1-9.73-1.64,4.71,4.71,0,0,1-6.2-6.59Z"/><path class="tc5" d="M803.58,297.77v0c.11-.19.24-.38.37-.56l0,0c.13-.18.26-.35.4-.51l.06-.06c.13-.15.27-.3.41-.44l.1-.09.43-.37.14-.11c.14-.1.28-.21.42-.3l.2-.12c.13-.08.27-.17.41-.24l.25-.12.39-.18a3,3,0,0,1,.32-.12l.36-.13.39-.1.32-.08.48-.07.25,0c.25,0,.51,0,.76,0a7.56,7.56,0,0,1,3.39.81,9.78,9.78,0,0,1,.83-1,11.27,11.27,0,0,1,6.89-3.52,12.48,12.48,0,0,1,1.38-.08,11.28,11.28,0,0,1,2.27.23c.25.06.49.11.73.18a11.31,11.31,0,0,1,16.24-7.75,18.05,18.05,0,0,1-.44-3c0-.38,0-.76,0-1.15a18,18,0,0,1,23.09-17.33,18.32,18.32,0,0,1,.71-3.24,18,18,0,0,1,29.5-7.76c.22.2.43.4.63.62a26.87,26.87,0,0,1,38.06,1.33c.49.52,1,1.07,1.41,1.64a27.65,27.65,0,0,1,2.41,3.61,26.9,26.9,0,0,1,2.47,6.1c.62-.06,1.25-.1,1.89-.1A18,18,0,0,1,953.18,268a18.32,18.32,0,0,1,4.53,5.86,11.3,11.3,0,0,1,3.92-.7,11,11,0,0,1,2.08.19,11.32,11.32,0,0,1,5.36,2.6q.38.33.72.69a11.3,11.3,0,0,1,3,6.23,11.32,11.32,0,0,1,16.59,6.48c.09.31.17.62.24.94a11.43,11.43,0,0,1,3-.41,11.3,11.3,0,0,1,9.1,4.61,7.43,7.43,0,0,1,3.39-.81,7.54,7.54,0,0,1,0,15.07,7.43,7.43,0,0,1-3.39-.81,11.29,11.29,0,0,1-15.52,2.61,11.3,11.3,0,0,1-17.59,3.32,11.31,11.31,0,0,1-19.43,1.31A11.27,11.27,0,0,1,935.37,312a11.3,11.3,0,0,1-15.24,8.63,26.89,26.89,0,0,1-42.13-6.4,11.28,11.28,0,0,1-12,1.28,11.32,11.32,0,0,1-19.43-1.31A11.3,11.3,0,0,1,829,310.91a11.32,11.32,0,0,1-15.52-2.61,7.53,7.53,0,0,1-9.89-10.53Z"/><path class="tc6" d="M197.41,327.93v0c.12-.19.24-.38.37-.56l0,0c.13-.18.26-.34.4-.51l.06-.06c.13-.15.27-.3.41-.44l.1-.09.43-.37.14-.11.42-.3.2-.12c.13-.08.27-.17.41-.24l.26-.12c.12-.06.25-.13.38-.18l.32-.12.36-.13.39-.1.32-.08.49-.07.24,0c.25,0,.51,0,.76,0a7.56,7.56,0,0,1,3.39.81,9.78,9.78,0,0,1,.83-1,11.27,11.27,0,0,1,6.89-3.52,12.62,12.62,0,0,1,1.38-.08,10.6,10.6,0,0,1,2.27.24l.73.17a11.31,11.31,0,0,1,16.24-7.75,18.05,18.05,0,0,1-.44-3c0-.38,0-.76,0-1.15a18,18,0,0,1,23.09-17.33,18.32,18.32,0,0,1,.71-3.24,18,18,0,0,1,29.5-7.76c.22.2.43.41.63.62a27.17,27.17,0,0,1,5.56-4,26.84,26.84,0,0,1,32.5,5.33c.49.52,1,1.07,1.41,1.64a27.65,27.65,0,0,1,2.41,3.61,26.45,26.45,0,0,1,2.47,6.1c.62-.06,1.25-.1,1.89-.1A18,18,0,0,1,347,298.13a18.18,18.18,0,0,1,4.53,5.86,11.35,11.35,0,0,1,3.92-.7,11.13,11.13,0,0,1,2.09.19,11.29,11.29,0,0,1,5.36,2.61c.24.21.48.44.71.68a11.3,11.3,0,0,1,3,6.23,11.32,11.32,0,0,1,16.59,6.48,9.42,9.42,0,0,1,.24.95,11,11,0,0,1,3-.42,11.3,11.3,0,0,1,9.1,4.61,7.43,7.43,0,0,1,3.39-.81,7.54,7.54,0,0,1,0,15.07,7.43,7.43,0,0,1-3.39-.81,11.29,11.29,0,0,1-15.52,2.61A11.31,11.31,0,0,1,362.48,344a11.32,11.32,0,0,1-19.43,1.3,11.27,11.27,0,0,1-13.85-3.12A11.3,11.3,0,0,1,314,350.82a26.89,26.89,0,0,1-42.13-6.4,11.28,11.28,0,0,1-12,1.28,11.32,11.32,0,0,1-19.43-1.31,11.3,11.3,0,0,1-17.59-3.32,11.29,11.29,0,0,1-15.52-2.61,7.53,7.53,0,0,1-9.89-10.53Z"/><path class="tc7" d="M311.78,386.25v0c.12-.2.24-.39.37-.57l0,0c.13-.17.26-.34.4-.5l.06-.07c.13-.15.27-.3.41-.44l.1-.09.43-.37.14-.1.42-.31.2-.12.41-.24.26-.12c.12-.06.25-.13.38-.18l.32-.12.36-.12.39-.1.32-.08a3.85,3.85,0,0,1,.49-.08l.24,0a6.45,6.45,0,0,1,.76,0,7.43,7.43,0,0,1,3.39.81,8.81,8.81,0,0,1,.83-1,11.28,11.28,0,0,1,6.89-3.53,12.62,12.62,0,0,1,1.38-.08A11.27,11.27,0,0,1,333,379l.73.17a11.34,11.34,0,0,1,11.09-9,11.16,11.16,0,0,1,5.15,1.25,18.05,18.05,0,0,1-.44-3c0-.38-.05-.77-.05-1.15a18.06,18.06,0,0,1,18.06-18.06,17.85,17.85,0,0,1,5,.73,17.56,17.56,0,0,1,.7-3.25,18,18,0,0,1,29.5-7.76c.22.2.43.41.63.62a27.17,27.17,0,0,1,5.56-4,26.84,26.84,0,0,1,32.5,5.33c.49.53,1,1.08,1.41,1.64a27.65,27.65,0,0,1,2.41,3.61,26.52,26.52,0,0,1,2.47,6.11,16.84,16.84,0,0,1,1.89-.1,18,18,0,0,1,16.22,10.17,11.35,11.35,0,0,1,3.92-.71,12,12,0,0,1,2.09.19,11.29,11.29,0,0,1,5.36,2.61c.24.22.48.44.71.68a11.3,11.3,0,0,1,3,6.24,11.3,11.3,0,0,1,16.59,6.47c.09.31.18.63.24.95a11.43,11.43,0,0,1,3-.41,11.29,11.29,0,0,1,9.1,4.6,7.54,7.54,0,1,1,0,13.46A11.32,11.32,0,0,1,494.44,399a11.32,11.32,0,0,1-17.59,3.32,11.32,11.32,0,0,1-19.43,1.31,11.3,11.3,0,0,1-13.85-3.13,11.3,11.3,0,0,1-15.24,8.64,26.91,26.91,0,0,1-42.13-6.4,11.3,11.3,0,0,1-12,1.27,11.31,11.31,0,0,1-19.43-1.31,11.3,11.3,0,0,1-17.59-3.32,11.29,11.29,0,0,1-15.52-2.61,7.43,7.43,0,0,1-3.39.81,7.53,7.53,0,0,1-6.5-11.33Z"/><path class="tc8" d="M298.34,284.08v0a4.92,4.92,0,0,1,.37-.56l0-.05a6.12,6.12,0,0,1,.39-.5.46.46,0,0,0,.07-.07c.13-.15.27-.29.41-.43l.1-.09.42-.37.15-.11.42-.3a1.32,1.32,0,0,1,.2-.12,4.23,4.23,0,0,1,.4-.24l.26-.13.39-.18.32-.11.36-.13.38-.1.33-.08.48-.07.25,0a6.34,6.34,0,0,1,.76,0,7.49,7.49,0,0,1,3.38.81,11.4,11.4,0,0,1,.84-1,11.27,11.27,0,0,1,6.89-3.52,10.43,10.43,0,0,1,1.38-.09,11.27,11.27,0,0,1,2.27.24c.24.05.49.11.73.18a11.31,11.31,0,0,1,16.24-7.75,19.21,19.21,0,0,1-.45-3c0-.38,0-.76,0-1.15a18,18,0,0,1,23.09-17.33,18.43,18.43,0,0,1,.71-3.25,18,18,0,0,1,29.5-7.75c.22.2.43.4.63.61a27.56,27.56,0,0,1,5.56-4,26.84,26.84,0,0,1,32.5,5.33c.49.53,1,1.08,1.4,1.65a26.27,26.27,0,0,1,2.41,3.6,26.73,26.73,0,0,1,2.48,6.11,16.84,16.84,0,0,1,1.89-.1,17.89,17.89,0,0,1,11.68,4.31,18.21,18.21,0,0,1,4.54,5.86,11.3,11.3,0,0,1,3.91-.71,11,11,0,0,1,2.09.2,11.23,11.23,0,0,1,5.36,2.6q.38.33.72.69a11.3,11.3,0,0,1,3,6.23,11.32,11.32,0,0,1,16.59,6.47c.09.31.17.63.24.95a11.43,11.43,0,0,1,3-.41,11.32,11.32,0,0,1,9.1,4.6,7.54,7.54,0,1,1,0,13.46A11.29,11.29,0,0,1,481,296.83a11.31,11.31,0,0,1-17.6,3.32A11.32,11.32,0,0,1,444,301.46a11.18,11.18,0,0,1-5,1.16,11.31,11.31,0,0,1-8.87-4.29A11.3,11.3,0,0,1,414.89,307a26.9,26.9,0,0,1-42.14-6.4,11.24,11.24,0,0,1-7,2.44,11.36,11.36,0,0,1-5-1.16,11.32,11.32,0,0,1-19.43-1.31,11.31,11.31,0,0,1-17.59-3.33,11.31,11.31,0,0,1-15.53-2.6,7.52,7.52,0,0,1-9.88-10.53Z"/><path class="tc9" d="M495.86,347.19v0a4.92,4.92,0,0,1,.37-.56l0-.05a6.12,6.12,0,0,1,.39-.5l.07-.07c.13-.15.27-.29.41-.43l.1-.09.42-.37.15-.11c.14-.1.27-.21.42-.3a1.32,1.32,0,0,1,.2-.12,4.23,4.23,0,0,1,.4-.24l.26-.13.39-.18.32-.11.36-.13.38-.1.33-.08.48-.07.25,0a6.34,6.34,0,0,1,.76,0,7.49,7.49,0,0,1,3.38.81,11.4,11.4,0,0,1,.84-1,11.27,11.27,0,0,1,6.89-3.52,10.43,10.43,0,0,1,1.38-.09,11.27,11.27,0,0,1,2.27.24c.24.05.49.11.72.18a11.32,11.32,0,0,1,16.25-7.75,19.21,19.21,0,0,1-.45-3c0-.38,0-.76,0-1.15a18,18,0,0,1,23.09-17.33,18.43,18.43,0,0,1,.71-3.25,18,18,0,0,1,29.5-7.75c.22.2.43.4.63.61a27.56,27.56,0,0,1,5.56-4,26.84,26.84,0,0,1,32.5,5.33c.49.53,1,1.08,1.4,1.65a25.78,25.78,0,0,1,2.41,3.61,26.47,26.47,0,0,1,2.48,6.1c.62-.06,1.25-.1,1.89-.1a17.89,17.89,0,0,1,11.68,4.31,18.21,18.21,0,0,1,4.54,5.86,11.3,11.3,0,0,1,3.91-.71,11,11,0,0,1,2.09.2,11.23,11.23,0,0,1,5.36,2.6q.38.33.72.69a11.3,11.3,0,0,1,3,6.23,11.32,11.32,0,0,1,16.59,6.47c.09.32.17.63.24.95a11.43,11.43,0,0,1,3-.41,11.32,11.32,0,0,1,9.1,4.6,7.54,7.54,0,1,1,3.38,14.27,7.42,7.42,0,0,1-3.38-.81,11.29,11.29,0,0,1-15.52,2.61,11.31,11.31,0,0,1-17.6,3.32,11.31,11.31,0,0,1-19.43,1.31,11.29,11.29,0,0,1-13.84-3.13,11.3,11.3,0,0,1-15.24,8.64,26.9,26.9,0,0,1-42.14-6.4,11.24,11.24,0,0,1-7,2.44,11.36,11.36,0,0,1-5-1.16,11.32,11.32,0,0,1-19.43-1.31,11.31,11.31,0,0,1-17.59-3.33,11.31,11.31,0,0,1-15.53-2.6,7.52,7.52,0,0,1-9.88-10.53Z"/></g></g></svg>