<svg xmlns="http://www.w3.org/2000/svg" xmlns:xlink="http://www.w3.org/1999/xlink" viewBox="0 0 1369.73 660.71"><defs><style>.cls-2{fill:#2f4962}.tc2-3,.tc2-4,.tc2-5{opacity:0.8;}.tc2-10,.tc2-13,.tc2-14,.tc2-15,.tc2-3,.tc2-4,.tc2-5,.tc2-6,.tc2-7,.tc2-8,.tc2-9{mix-blend-mode:multiply;}.tc2-4{fill:url(#lgtc-a4-2);}.tc2-5{fill:url(#lgtc2-2);}.tc2-13,.tc2-6,.tc2-7{opacity:0.6;}.tc2-6{fill:url(#lgtc2-3);}.tc2-7{fill:url(#lgtc2-4);}.tc2-8{fill:url(#lgtc2-5);}.tc2-9{fill:url(#lgtc2-6);}.tc2-10,.tc2-11,.tc2-12,.tc2-14{opacity:0.4;}.tc2-10{fill:url(#lgtc2-7);}.tc2-11{fill:url(#lgtc2-8);}.tc2-12{fill:url(#lgtc2-9);}.tc2-13{fill:url(#lgtc2-10);}.tc2-14{fill:url(#lgtc2-11);}.tc2-15{fill:url(#lgtc2-12);}</style><linearGradient id="lgtc-a4-2" x1="180.69" y1="373.12" x2="181.65" y2="207.12" gradientTransform="matrix(-1, 0, 0, 1, 1235.15, 0)" gradientUnits="userSpaceOnUse"><stop offset="0" stop-color="#fafbfb" stop-opacity="0"/><stop offset="1" stop-color="#78a9a8"/></linearGradient><linearGradient id="lgtc2-2" x1="72.17" y1="217.21" x2="73.13" y2="51.2" xlink:href="#lgtc-a4-2"/><linearGradient id="lgtc2-3" x1="432.24" y1="539.74" x2="432.99" y2="408.87" xlink:href="#lgtc-a4-2"/><linearGradient id="lgtc2-4" x1="232.76" y1="524.41" x2="233.52" y2="393.53" xlink:href="#lgtc-a4-2"/><linearGradient id="lgtc2-5" x1="655.44" y1="268" x2="655.87" y2="193.29" xlink:href="#lgtc-a4-2"/><linearGradient id="lgtc2-6" x1="857.34" y1="562.03" x2="857.77" y2="487.32" xlink:href="#lgtc-a4-2"/><linearGradient id="lgtc2-7" x1="355.88" y1="553.89" x2="356.23" y2="492.04" xlink:href="#lgtc-a4-2"/><linearGradient id="lgtc2-8" x1="687.33" y1="495.65" x2="687.69" y2="433.8" xlink:href="#lgtc-a4-2"/><linearGradient id="lgtc2-9" x1="1090.02" y1="508.89" x2="1090.38" y2="447.03" xlink:href="#lgtc-a4-2"/><linearGradient id="lgtc2-10" x1="484.87" y1="203.44" x2="485.23" y2="141.58" xlink:href="#lgtc-a4-2"/><linearGradient id="lgtc2-11" x1="519.18" y1="305.07" x2="519.54" y2="243.21" xlink:href="#lgtc-a4-2"/><linearGradient id="lgtc2-12" x1="281.47" y1="222.38" x2="282.01" y2="127.12" xlink:href="#lgtc-a4-2"/></defs><title>18</title><g class="tc2-1"><g id="Layer_1" data-name="Layer 1"><rect class="cls-2" x="-47.27" y="-46.29" width="1480" height="730.1"/><g class="tc2-3"><path class="tc2-4" d="M864.79,325.45l0,0c.21-.35.43-.7.67-1l.06-.08c.23-.31.47-.62.72-.91l.11-.12c.25-.28.5-.54.76-.8l.18-.16c.25-.23.51-.46.77-.67l.27-.2c.25-.19.5-.38.76-.55l.37-.22c.24-.15.48-.3.73-.44l.47-.22c.24-.12.47-.23.71-.33s.38-.14.58-.21.43-.17.65-.23.47-.13.71-.19l.58-.14c.29-.06.59-.1.89-.14l.45-.06a12.75,12.75,0,0,1,1.38-.07,13.62,13.62,0,0,1,6.17,1.47,20.24,20.24,0,0,1,1.51-1.82,20.53,20.53,0,0,1,12.55-6.41,19.05,19.05,0,0,1,2.52-.16,20.17,20.17,0,0,1,4.13.44c.44.09.88.2,1.32.32a20.62,20.62,0,0,1,29.58-14.11,33,33,0,0,1-.81-5.39c-.05-.69-.08-1.39-.08-2.09a32.82,32.82,0,0,1,42-31.56,32.84,32.84,0,0,1,32.61-28.87,32.72,32.72,0,0,1,22.4,8.84c.39.36.77.73,1.14,1.12a49.27,49.27,0,0,1,10.12-7.28,48.85,48.85,0,0,1,59.17,9.7c.9,1,1.75,2,2.57,3a48.93,48.93,0,0,1,8.9,17.69,32.8,32.8,0,0,1,24.71,7.66,33.11,33.11,0,0,1,8.26,10.68,20.53,20.53,0,0,1,20.69,3.8c.45.4.89.82,1.3,1.25a20.59,20.59,0,0,1,5.54,11.35,20.59,20.59,0,0,1,30.2,11.79c.17.56.32,1.14.44,1.72a20.92,20.92,0,0,1,5.46-.75,20.59,20.59,0,0,1,16.58,8.39,13.56,13.56,0,0,1,6.16-1.48,13.73,13.73,0,1,1-6.16,26,20.58,20.58,0,0,1-28.27,4.75,20.59,20.59,0,0,1-32,6.05A20.62,20.62,0,0,1,1130,357.1a20.54,20.54,0,0,1-25.21-5.69,20.62,20.62,0,0,1-20.32,17.12,20.4,20.4,0,0,1-7.43-1.4,49,49,0,0,1-76.72-11.65,20.5,20.5,0,0,1-21.82,2.32,20.62,20.62,0,0,1-35.38-2.38,20.58,20.58,0,0,1-32-6.05,20.58,20.58,0,0,1-28.27-4.75,13.71,13.71,0,0,1-18-19.17Z"/><path class="tc2-5" d="M973.31,169.54l0,0c.21-.35.43-.7.67-1l.06-.08c.23-.31.47-.62.72-.91l.12-.13c.24-.27.49-.54.75-.79l.18-.16c.25-.24.51-.46.77-.67l.27-.2c.25-.19.5-.38.76-.55l.37-.22c.24-.15.48-.3.74-.44l.46-.22c.24-.12.47-.23.71-.33s.38-.14.58-.21.43-.17.65-.24.47-.12.71-.18l.58-.14c.29-.06.59-.1.89-.14l.45-.07c.46,0,.92-.07,1.38-.07a13.63,13.63,0,0,1,6.17,1.48,20.24,20.24,0,0,1,1.51-1.82,20.59,20.59,0,0,1,12.55-6.42,20.93,20.93,0,0,1,2.52-.15,20.17,20.17,0,0,1,4.13.44c.44.09.88.2,1.32.31a20.6,20.6,0,0,1,29.58-14.1,33,33,0,0,1-.81-5.39c0-.69-.08-1.39-.08-2.09a32.82,32.82,0,0,1,42-31.56,32.84,32.84,0,0,1,55-20c.39.37.77.74,1.15,1.13a49.63,49.63,0,0,1,10.11-7.29,48.87,48.87,0,0,1,59.17,9.71c.9,1,1.75,2,2.57,3a48.93,48.93,0,0,1,8.9,17.69,32.8,32.8,0,0,1,24.71,7.66A33.11,33.11,0,0,1,1254,126a20.53,20.53,0,0,1,20.69,3.8c.45.4.89.82,1.3,1.25a20.59,20.59,0,0,1,5.54,11.35,20.59,20.59,0,0,1,30.2,11.79c.17.56.32,1.14.44,1.72a20.92,20.92,0,0,1,5.46-.75,20.59,20.59,0,0,1,16.58,8.39,13.56,13.56,0,0,1,6.16-1.48,13.73,13.73,0,1,1-6.16,26,20.58,20.58,0,0,1-28.27,4.75,20.59,20.59,0,0,1-32,6.05,20.62,20.62,0,0,1-35.38,2.38,20.54,20.54,0,0,1-25.21-5.69,20.58,20.58,0,0,1-27.75,15.72,49,49,0,0,1-76.72-11.65,20.5,20.5,0,0,1-21.82,2.32,20.62,20.62,0,0,1-35.38-2.38,20.58,20.58,0,0,1-32-6,20.58,20.58,0,0,1-28.27-4.75,13.71,13.71,0,0,1-18-19.17Z"/><path class="tc2-6" d="M653.39,502.16l0,0a8.57,8.57,0,0,1,.52-.81l.05-.07c.18-.24.37-.49.57-.72l.09-.09c.19-.22.38-.43.59-.63l.15-.13c.19-.18.39-.36.6-.53l.21-.16.6-.43.29-.17c.19-.12.38-.24.58-.34s.25-.12.37-.18l.56-.26.45-.17c.18-.06.34-.13.52-.18a5.09,5.09,0,0,1,.56-.14c.15,0,.3-.09.46-.12s.46-.07.7-.11l.35,0a9.94,9.94,0,0,1,1.09-.05,10.72,10.72,0,0,1,4.86,1.16,18.18,18.18,0,0,1,1.19-1.44,16.21,16.21,0,0,1,11.88-5.17,15.88,15.88,0,0,1,3.26.34c.35.07.7.16,1,.25a16.25,16.25,0,0,1,23.32-11.12,27.05,27.05,0,0,1-.64-4.25q-.06-.82-.06-1.65A25.88,25.88,0,0,1,740.71,450a26.64,26.64,0,0,1,1-4.66,25.89,25.89,0,0,1,42.36-11.13c.31.29.61.58.9.88a39.45,39.45,0,0,1,8-5.74A38.52,38.52,0,0,1,839.61,437c.7.76,1.38,1.55,2,2.36a40.26,40.26,0,0,1,3.46,5.18,38.58,38.58,0,0,1,3.55,8.76,27,27,0,0,1,2.71-.14,25.73,25.73,0,0,1,16.78,6.19,26,26,0,0,1,6.51,8.41,16.1,16.1,0,0,1,5.62-1,16.38,16.38,0,0,1,3,.28,16.18,16.18,0,0,1,7.7,3.74,13.72,13.72,0,0,1,1,1,16.16,16.16,0,0,1,4.36,8.94,16.23,16.23,0,0,1,23.81,9.3c.14.44.25.9.35,1.36a16.06,16.06,0,0,1,4.3-.6,16.24,16.24,0,0,1,13.07,6.61,10.82,10.82,0,1,1,4.86,20.48,10.72,10.72,0,0,1-4.86-1.16,16.23,16.23,0,0,1-22.29,3.74,16.23,16.23,0,0,1-25.25,4.77,16.25,16.25,0,0,1-27.89,1.88,16.19,16.19,0,0,1-19.87-4.49,16.27,16.27,0,0,1-16,13.51,16.07,16.07,0,0,1-5.86-1.11,38.62,38.62,0,0,1-60.48-9.18,16.22,16.22,0,0,1-17.2,1.83,16.26,16.26,0,0,1-27.89-1.88A16.23,16.23,0,0,1,689.87,521a16.22,16.22,0,0,1-22.29-3.75,10.8,10.8,0,0,1-14.19-15.11Z"/><path class="tc2-7" d="M852.86,486.83l0,0a8.67,8.67,0,0,1,.53-.81l0-.06q.27-.37.57-.72l.09-.1q.28-.33.6-.63l.14-.13c.2-.18.4-.36.61-.53l.21-.15c.19-.15.39-.3.6-.44l.28-.17c.2-.12.39-.24.59-.34s.24-.12.37-.18l.55-.26.46-.17.51-.18.56-.14.46-.12.7-.1.36-.06c.36,0,.72-.05,1.09-.05a10.75,10.75,0,0,1,4.86,1.16,14.79,14.79,0,0,1,1.19-1.43A16.18,16.18,0,0,1,880.13,476a15.86,15.86,0,0,1,3.25.34c.35.07.7.16,1,.25a16.25,16.25,0,0,1,23.32-11.12,27.05,27.05,0,0,1-.64-4.25c0-.54-.06-1.09-.06-1.65a25.86,25.86,0,0,1,33.15-24.87,24.76,24.76,0,0,1,1-4.66,25.88,25.88,0,0,1,42.35-11.14l.91.88a39.11,39.11,0,0,1,8-5.74,38.52,38.52,0,0,1,46.65,7.65c.71.76,1.38,1.55,2,2.36a38.68,38.68,0,0,1,7,13.95,24.21,24.21,0,0,1,2.71-.15,25.73,25.73,0,0,1,16.77,6.19,26,26,0,0,1,6.51,8.41,16.17,16.17,0,0,1,16.31,3c.36.32.7.65,1,1a16.27,16.27,0,0,1,4.37,8.94,16.25,16.25,0,0,1,23.81,9.3c.13.44.25.9.35,1.36a16,16,0,0,1,4.29-.59,16.2,16.2,0,0,1,13.07,6.61,10.83,10.83,0,1,1,0,19.31,16.24,16.24,0,0,1-22.28,3.75,16.23,16.23,0,0,1-25.25,4.77,16.26,16.26,0,0,1-27.89,1.88,16.24,16.24,0,0,1-19.88-4.49,16.25,16.25,0,0,1-16,13.5,16.07,16.07,0,0,1-5.86-1.11,38.63,38.63,0,0,1-60.49-9.18,16.16,16.16,0,0,1-17.2,1.83,16.25,16.25,0,0,1-27.89-1.88,16.23,16.23,0,0,1-25.25-4.77,16.22,16.22,0,0,1-22.28-3.74,10.81,10.81,0,0,1-15.68-9.66A10.72,10.72,0,0,1,852.86,486.83Z"/><path class="tc2-8" d="M494.35,246.54h0a4.66,4.66,0,0,1,.3-.47l0,0c.1-.14.21-.28.32-.41l.05-.06c.11-.12.22-.24.34-.35l.08-.08c.12-.1.23-.21.35-.3l.12-.09.34-.25.17-.1.33-.19.21-.1c.11,0,.21-.11.32-.15l.26-.1.29-.1.32-.08.26-.07c.13,0,.27,0,.4-.06l.21,0c.2,0,.41,0,.62,0a6.12,6.12,0,0,1,2.77.66,10.56,10.56,0,0,1,.68-.82,9.27,9.27,0,0,1,5.65-2.88,8.47,8.47,0,0,1,1.13-.07,9.46,9.46,0,0,1,1.86.19q.3.06.6.15a9.26,9.26,0,0,1,13.31-6.35,16.18,16.18,0,0,1-.37-2.43c0-.31,0-.62,0-.94a14.79,14.79,0,0,1,18.92-14.2,14.78,14.78,0,0,1,24.75-9l.52.51A22.31,22.31,0,0,1,574,205a22,22,0,0,1,26.63,4.37c.4.43.79.88,1.16,1.34a22.71,22.71,0,0,1,2,3,21.85,21.85,0,0,1,2,5c.51,0,1-.08,1.55-.08a14.68,14.68,0,0,1,9.57,3.53,14.86,14.86,0,0,1,3.72,4.81,9.23,9.23,0,0,1,3.21-.58,9.71,9.71,0,0,1,1.71.15,9.24,9.24,0,0,1,4.39,2.14c.21.18.4.37.59.56a9.28,9.28,0,0,1,2.49,5.11,9.18,9.18,0,0,1,4.7-1.29,9.28,9.28,0,0,1,8.89,6.59,7.44,7.44,0,0,1,.2.78,9.43,9.43,0,0,1,2.46-.34,9.25,9.25,0,0,1,7.46,3.78,6.18,6.18,0,1,1,0,11A9.27,9.27,0,0,1,644,257a9.26,9.26,0,0,1-14.41,2.72,9.28,9.28,0,0,1-15.92,1.08,9.26,9.26,0,0,1-11.35-2.57,9.26,9.26,0,0,1-12.49,7.08,22,22,0,0,1-34.52-5.24,9.27,9.27,0,0,1-5.74,2,9.14,9.14,0,0,1-4.08-.95A9.28,9.28,0,0,1,529.59,260a9.27,9.27,0,0,1-14.42-2.72,9.28,9.28,0,0,1-12.72-2.14,6.17,6.17,0,0,1-8.1-8.63Z"/><path class="tc2-9" d="M292.45,540.57h0l.3-.46,0,0a4.23,4.23,0,0,1,.33-.41l.05-.06c.11-.12.22-.24.34-.35l.08-.08.34-.3.12-.09.35-.25.16-.1.33-.19.22-.1.31-.15.26-.1.3-.1.32-.08.26-.07.4-.06.2,0c.21,0,.41,0,.62,0a6.19,6.19,0,0,1,2.78.66,7.48,7.48,0,0,1,.68-.81,9.21,9.21,0,0,1,5.65-2.89,8.36,8.36,0,0,1,1.13-.07,8.76,8.76,0,0,1,1.86.2,5.63,5.63,0,0,1,.59.14,9.29,9.29,0,0,1,9.09-7.37,9.19,9.19,0,0,1,4.22,1,15,15,0,0,1-.36-2.43c0-.31,0-.62,0-.94a14.78,14.78,0,0,1,18.92-14.2,15.74,15.74,0,0,1,.58-2.66,14.79,14.79,0,0,1,24.18-6.36l.52.51a22,22,0,0,1,31.18,1.09c.4.43.78.88,1.15,1.35a21.1,21.1,0,0,1,2,2.95,22.2,22.2,0,0,1,2,5,13,13,0,0,1,1.54-.09,14.66,14.66,0,0,1,9.58,3.54,15,15,0,0,1,3.72,4.8,9.17,9.17,0,0,1,3.2-.58,8.7,8.7,0,0,1,1.71.16,9.26,9.26,0,0,1,4.4,2.13c.2.18.4.37.58.56a9.28,9.28,0,0,1,2.49,5.11,9.28,9.28,0,0,1,13.6,5.31c.07.25.14.51.2.77a9.41,9.41,0,0,1,2.45-.34,9.25,9.25,0,0,1,7.46,3.78,6.18,6.18,0,1,1,0,11A9.26,9.26,0,0,1,442.13,551a9.28,9.28,0,0,1-8.27,5.07,9.17,9.17,0,0,1-6.14-2.35,9.28,9.28,0,0,1-15.93,1.08,9.25,9.25,0,0,1-11.34-2.56A9.26,9.26,0,0,1,388,559.33a22,22,0,0,1-34.53-5.24,9.2,9.2,0,0,1-9.82,1,9.28,9.28,0,0,1-15.92-1.07,9.26,9.26,0,0,1-14.41-2.72,9.28,9.28,0,0,1-12.72-2.14,6.18,6.18,0,0,1-8.11-8.63Z"/><path class="tc2-10" d="M808.6,536.13h0c.08-.14.16-.26.25-.39l0,0,.27-.34,0,0a4.11,4.11,0,0,1,.29-.3l.06-.06.29-.25.1-.07a2.55,2.55,0,0,1,.28-.21l.14-.08.27-.16.18-.09.26-.12.22-.08.24-.08.26-.07.22-.06.33-.05.17,0a4.41,4.41,0,0,1,.52,0,5.06,5.06,0,0,1,2.29.55c.18-.24.37-.46.57-.68a7.66,7.66,0,0,1,4.67-2.39c.31,0,.62-.05.94-.05a7.12,7.12,0,0,1,1.54.16,3.89,3.89,0,0,1,.49.12,7.69,7.69,0,0,1,7.53-6.11,7.59,7.59,0,0,1,3.49.85,13.15,13.15,0,0,1-.3-2q0-.39,0-.78A12.26,12.26,0,0,1,846.46,511a12.09,12.09,0,0,1,3.42.5,12.4,12.4,0,0,1,.47-2.21,12.24,12.24,0,0,1,20-5.26l.43.42a18.46,18.46,0,0,1,3.77-2.72,18.2,18.2,0,0,1,22,3.62q.51.54,1,1.11a18.36,18.36,0,0,1,1.64,2.45,18.72,18.72,0,0,1,1.68,4.14c.42,0,.84-.06,1.28-.06a12.24,12.24,0,0,1,11,6.9,7.56,7.56,0,0,1,2.66-.48,7.32,7.32,0,0,1,1.41.13,7.63,7.63,0,0,1,3.64,1.77c.17.14.33.3.49.46a7.69,7.69,0,0,1,2.06,4.23,7.67,7.67,0,0,1,11.25,4.39c.07.21.12.43.17.65a7.54,7.54,0,0,1,2-.29,7.69,7.69,0,0,1,6.18,3.13,5.06,5.06,0,0,1,2.29-.55,5.12,5.12,0,1,1,0,10.23,5.06,5.06,0,0,1-2.29-.55,7.69,7.69,0,0,1-10.54,1.77A7.67,7.67,0,0,1,920.59,547a7.67,7.67,0,0,1-13.18.89A7.65,7.65,0,0,1,898,545.8a7.67,7.67,0,0,1-10.34,5.86,18.27,18.27,0,0,1-28.59-4.34,7.65,7.65,0,0,1-8.13.86,7.67,7.67,0,0,1-13.18-.89A7.67,7.67,0,0,1,825.85,545a7.69,7.69,0,0,1-10.54-1.77,5.06,5.06,0,0,1-2.29.55,5.11,5.11,0,0,1-4.42-7.69Z"/><path class="tc2-11" d="M477.15,477.89h0c.08-.13.16-.26.25-.38l0,0c.09-.12.17-.23.27-.34l0-.05a3.83,3.83,0,0,1,.28-.29l.07-.07.29-.25.1-.07a2.83,2.83,0,0,1,.28-.2l.14-.09.27-.16.18-.08a2.06,2.06,0,0,1,.26-.12l.21-.08a2.5,2.5,0,0,1,.25-.09l.26-.07.22-.05.33,0,.17,0,.51,0a5.07,5.07,0,0,1,2.3.55,6.13,6.13,0,0,1,.56-.68,7.63,7.63,0,0,1,4.68-2.39,7.3,7.3,0,0,1,.94-.06,7.89,7.89,0,0,1,1.54.16l.49.12a7.67,7.67,0,0,1,11-5.25,12.34,12.34,0,0,1-.3-2q0-.39,0-.78A12.24,12.24,0,0,1,515,452.77a12.38,12.38,0,0,1,3.41.49,13.24,13.24,0,0,1,.48-2.2,12.24,12.24,0,0,1,20-5.27l.43.42a18.73,18.73,0,0,1,3.76-2.71,18.21,18.21,0,0,1,22,3.62c.33.35.65.73,1,1.11a19.3,19.3,0,0,1,1.63,2.45,18.07,18.07,0,0,1,1.68,4.14c.42,0,.85-.07,1.28-.07a12.12,12.12,0,0,1,7.93,2.93,12.35,12.35,0,0,1,3.08,4,7.78,7.78,0,0,1,2.65-.48,8.24,8.24,0,0,1,1.42.13,7.68,7.68,0,0,1,3.64,1.77,5.32,5.32,0,0,1,.48.47,7.67,7.67,0,0,1,2.07,4.22,7.68,7.68,0,0,1,11.25,4.4c.06.21.12.42.16.64a7.64,7.64,0,0,1,8.21,2.84,5.2,5.2,0,0,1,2.3-.55,5.12,5.12,0,1,1-2.3,9.68,7.65,7.65,0,0,1-10.53,1.77,7.68,7.68,0,0,1-11.93,2.26,7.69,7.69,0,0,1-13.19.88,7.65,7.65,0,0,1-9.39-2.12,7.67,7.67,0,0,1-10.34,5.86,18.24,18.24,0,0,1-28.58-4.34,7.68,7.68,0,0,1-8.13.87,7.69,7.69,0,0,1-13.18-.89,7.67,7.67,0,0,1-11.94-2.26A7.65,7.65,0,0,1,483.86,485a5.11,5.11,0,0,1-7.41-4.56A5.14,5.14,0,0,1,477.15,477.89Z"/><path class="tc2-12" d="M74.46,491.12h0c.07-.13.16-.26.24-.38l0,0a2.88,2.88,0,0,1,.27-.34l0-.05a3.83,3.83,0,0,1,.28-.29l.07-.07a3.22,3.22,0,0,1,.28-.24l.1-.08.29-.2.13-.09.28-.16.17-.08.26-.12.22-.08.24-.09.27-.07.22-.05.33-.05.16,0,.52,0a5.1,5.1,0,0,1,2.3.55,6.13,6.13,0,0,1,.56-.68,7.63,7.63,0,0,1,4.68-2.39,7.14,7.14,0,0,1,.93-.06,7.73,7.73,0,0,1,1.54.16l.49.12a7.68,7.68,0,0,1,11-5.25,12.36,12.36,0,0,1-.31-2c0-.26,0-.52,0-.78A12.25,12.25,0,0,1,112.31,466a12.45,12.45,0,0,1,3.42.49,11.49,11.49,0,0,1,.48-2.2,12.22,12.22,0,0,1,20-5.26c.15.13.29.27.43.41a18.8,18.8,0,0,1,3.77-2.71,18.21,18.21,0,0,1,22.05,3.62c.33.35.65.73.95,1.11a18.36,18.36,0,0,1,1.64,2.45,18.07,18.07,0,0,1,1.68,4.14c.42,0,.85-.07,1.28-.07a12.14,12.14,0,0,1,7.93,2.93,12.35,12.35,0,0,1,3.08,4,7.74,7.74,0,0,1,2.65-.48,8.33,8.33,0,0,1,1.42.13,7.74,7.74,0,0,1,3.63,1.77c.17.15.33.3.49.47a7.59,7.59,0,0,1,2.06,4.22,7.69,7.69,0,0,1,11.26,4.4c.06.21.11.42.16.64a7.64,7.64,0,0,1,8.21,2.84,5.18,5.18,0,0,1,2.29-.54,5.11,5.11,0,1,1,0,10.22,5.06,5.06,0,0,1-2.29-.55,7.65,7.65,0,0,1-6.18,3.13,7.56,7.56,0,0,1-4.35-1.36A7.67,7.67,0,0,1,186.44,502a7.69,7.69,0,0,1-13.18.89,7.68,7.68,0,0,1-9.39-2.13,7.68,7.68,0,0,1-7.57,6.39,7.5,7.5,0,0,1-2.77-.53,18.25,18.25,0,0,1-28.59-4.34,7.63,7.63,0,0,1-8.13.87,7.69,7.69,0,0,1-13.18-.89A7.66,7.66,0,0,1,91.7,500a7.66,7.66,0,0,1-10.53-1.76,5.22,5.22,0,0,1-2.3.54,5.11,5.11,0,0,1-5.11-5.11A5,5,0,0,1,74.46,491.12Z"/><path class="tc2-13" d="M679.61,185.68v0a3.11,3.11,0,0,1,.25-.38l0,0a2.88,2.88,0,0,1,.27-.34l0,0a3.83,3.83,0,0,1,.28-.29l.07-.06.28-.25.1-.08.29-.2.13-.08a2.61,2.61,0,0,1,.28-.17l.17-.08.27-.12.21-.08.25-.09.26-.07.22,0,.33-.05.17,0,.51,0a5.07,5.07,0,0,1,2.3.55,7.22,7.22,0,0,1,.56-.68,7.63,7.63,0,0,1,4.68-2.39,7.26,7.26,0,0,1,.93-.06,7.06,7.06,0,0,1,1.54.17l.5.11a7.67,7.67,0,0,1,11-5.25,13.16,13.16,0,0,1-.31-2c0-.26,0-.52,0-.78a12.24,12.24,0,0,1,12.25-12.25,12.38,12.38,0,0,1,3.41.49,11.66,11.66,0,0,1,.48-2.2,12.24,12.24,0,0,1,20-5.26q.21.19.42.42a18.74,18.74,0,0,1,3.77-2.72,18.21,18.21,0,0,1,22,3.62q.5.54,1,1.11a19.3,19.3,0,0,1,1.63,2.45,18.07,18.07,0,0,1,1.68,4.14c.42,0,.85-.07,1.28-.07a12.19,12.19,0,0,1,7.93,2.93,12.39,12.39,0,0,1,3.08,4,7.55,7.55,0,0,1,2.65-.48,7.35,7.35,0,0,1,1.42.13,7.58,7.58,0,0,1,3.63,1.76c.17.15.34.31.49.47a7.62,7.62,0,0,1,2.06,4.23,7.6,7.6,0,0,1,3.9-1.07,7.7,7.7,0,0,1,7.36,5.46c.06.21.12.42.16.64a8,8,0,0,1,2-.28,7.65,7.65,0,0,1,6.18,3.13,5.11,5.11,0,1,1,2.3,9.68,5.2,5.2,0,0,1-2.3-.55,7.68,7.68,0,0,1-10.53,1.77,7.68,7.68,0,0,1-11.94,2.25,7.69,7.69,0,0,1-13.18.89,7.65,7.65,0,0,1-9.39-2.12,7.68,7.68,0,0,1-7.57,6.38,7.5,7.5,0,0,1-2.77-.53,18.24,18.24,0,0,1-28.58-4.34,7.63,7.63,0,0,1-8.13.87,7.68,7.68,0,0,1-13.19-.89,7.67,7.67,0,0,1-11.93-2.25,7.68,7.68,0,0,1-10.53-1.77,5.11,5.11,0,0,1-6.71-7.14Z"/><path class="tc2-14" d="M645.3,287.31v0c.08-.13.16-.26.25-.38l0,0c.09-.12.17-.23.27-.34l0-.05a3.83,3.83,0,0,1,.28-.29l.07-.06a3.47,3.47,0,0,1,.29-.25l.1-.08a2.83,2.83,0,0,1,.28-.2l.14-.08.27-.17.18-.08.26-.12.21-.08.25-.09.26-.06.22-.06.33-.05.17,0a4.36,4.36,0,0,1,.51,0,5.07,5.07,0,0,1,2.3.55,7.22,7.22,0,0,1,.56-.68,7.68,7.68,0,0,1,4.68-2.39,7.3,7.3,0,0,1,.94-.06,7.2,7.2,0,0,1,1.54.17l.49.11a7.67,7.67,0,0,1,11-5.25,12,12,0,0,1-.3-2q0-.39,0-.78a12.25,12.25,0,0,1,12.25-12.25,12.38,12.38,0,0,1,3.41.49,13.46,13.46,0,0,1,.48-2.2,12.24,12.24,0,0,1,20-5.26c.14.13.29.27.43.42a18.21,18.21,0,0,1,25.81.9q.5.54,1,1.11a18.29,18.29,0,0,1,1.63,2.45,18.07,18.07,0,0,1,1.68,4.14c.42,0,.85-.06,1.28-.06a12.17,12.17,0,0,1,7.93,2.92,12.39,12.39,0,0,1,3.08,4,7.55,7.55,0,0,1,2.65-.48,7.35,7.35,0,0,1,1.42.13,7.66,7.66,0,0,1,3.64,1.76c.17.15.33.31.48.47a7.7,7.7,0,0,1,2.07,4.23,7.57,7.57,0,0,1,3.89-1.07,7.7,7.7,0,0,1,7.36,5.46c.06.21.12.43.16.64a8,8,0,0,1,2-.28,7.67,7.67,0,0,1,6.17,3.13,5.12,5.12,0,1,1,0,9.13A7.68,7.68,0,0,1,769.22,296a7.67,7.67,0,0,1-11.93,2.25,7.68,7.68,0,0,1-13.19.89,7.65,7.65,0,0,1-9.39-2.12,7.67,7.67,0,0,1-10.34,5.86,18.25,18.25,0,0,1-28.58-4.35,7.63,7.63,0,0,1-8.13.87,7.67,7.67,0,0,1-13.18-.89,7.68,7.68,0,0,1-11.94-2.25A7.68,7.68,0,0,1,652,294.45a5.11,5.11,0,0,1-6.71-7.14Z"/><path class="tc2-15" d="M844.85,195v0c.12-.2.25-.4.38-.59l0,0c.13-.18.27-.35.41-.52l.07-.07c.14-.16.28-.31.43-.46l.11-.09a4.09,4.09,0,0,1,.44-.39l.15-.11.44-.32.21-.12A4.64,4.64,0,0,1,848,192l.27-.13.4-.19c.11-.05.23-.08.34-.12l.37-.14.41-.1.33-.08a4.5,4.5,0,0,1,.51-.08l.26,0a7,7,0,0,1,.79,0,7.77,7.77,0,0,1,3.54.85,11,11,0,0,1,.87-1.05,11.84,11.84,0,0,1,7.2-3.68,11.48,11.48,0,0,1,1.44-.09,11.64,11.64,0,0,1,2.38.25l.75.19a11.84,11.84,0,0,1,17-8.1,18.58,18.58,0,0,1-.47-3.09c0-.4,0-.8,0-1.2a18.83,18.83,0,0,1,24.12-18.11,18.1,18.1,0,0,1,.74-3.39A18.84,18.84,0,0,1,940,145.59c.22.21.44.43.65.65a28.58,28.58,0,0,1,5.81-4.18,28,28,0,0,1,33.95,5.57q.78.83,1.47,1.71a28.78,28.78,0,0,1,2.52,3.77,27.82,27.82,0,0,1,2.59,6.38c.65-.06,1.31-.1,2-.1a18.72,18.72,0,0,1,12.21,4.5,19.11,19.11,0,0,1,4.74,6.13,11.82,11.82,0,0,1,4.09-.74,11.94,11.94,0,0,1,2.18.2,11.77,11.77,0,0,1,5.6,2.72q.39.35.75.72a11.83,11.83,0,0,1,3.18,6.51,11.81,11.81,0,0,1,17.33,6.76c.1.33.18.66.25,1a12,12,0,0,1,3.13-.43,11.83,11.83,0,0,1,9.52,4.81,7.87,7.87,0,1,1,3.53,14.91,7.76,7.76,0,0,1-3.53-.85,11.81,11.81,0,0,1-16.23,2.73,11.81,11.81,0,0,1-18.37,3.47A11.84,11.84,0,0,1,997,213.19a11.8,11.8,0,0,1-14.46-3.27,11.84,11.84,0,0,1-11.66,9.83,11.66,11.66,0,0,1-4.27-.81,28.1,28.1,0,0,1-44-6.68,11.8,11.8,0,0,1-12.52,1.33,11.83,11.83,0,0,1-20.3-1.37,11.81,11.81,0,0,1-18.38-3.47A11.81,11.81,0,0,1,855.18,206a7.87,7.87,0,0,1-10.33-11Z"/></g></g></g></svg>