<svg xmlns="http://www.w3.org/2000/svg" xmlns:xlink="http://www.w3.org/1999/xlink" viewBox="0 0 1769.49 1080"><defs><style>.cls-1{isolation:isolate;}.cls-2{fill:#5ea7a2;}.cls-3{fill:#e5af36;}.cls-10,.cls-4{fill:none;stroke-miterlimit:10;stroke-width:5px;}.cls-4{stroke:#b27438;}.cls-5{fill:#b27438;}.cls-6{fill:url(#linear-gradient);}.cls-7{fill:#367d75;}.cls-8{fill:#b9bbbd;mix-blend-mode:soft-light;}.cls-9{fill:#885532;}.cls-10{stroke:#e5af36;}.cls-11{fill:#9fa851;}.cls-12{fill:#2f5f5b;}</style><linearGradient id="linear-gradient" x1="1501.32" y1="623.81" x2="1534.44" y2="390.37" gradientTransform="matrix(-1, 0, 0, 1, 2397.72, 0)" gradientUnits="userSpaceOnUse"><stop offset="0" stop-color="#4b8373"/><stop offset="1" stop-color="#305051"/></linearGradient></defs><title>28</title><g class="cls-1"><g id="Layer_1" data-name="Layer 1"><rect class="cls-2" x="-33.35" y="-18.4" width="1863.75" height="1114.83"/><path class="cls-3" d="M861.7,532.79s64.11,294.69,61.65,374.7l105.1,43.08L899.81,542.1Z"/><path class="cls-3" d="M1033.45,889.88l.32-.16C1008.21,959.41,1033.45,889.88,1033.45,889.88Z"/><path class="cls-3" d="M957.28,538.32,969,532.79c5.18,22.35,24.81,43.57,36.42,54.53-10.9-54.58-20.16-94.21-20.16-94.21l27.81-34.05c-.47,66.37,161.41,531.27,161.41,533.3s-135-105.31-140.73-102.64c.18-.49.35-1,.54-1.46,16.11-43.93-5.56-180.78-25-281.15C980.23,597.7,957.28,538.32,957.28,538.32Z"/><path class="cls-3" d="M844.14,891.07H741.78S798.55,537,790.55,489.8s42.24,5.06,42.24,5.06-7.88,76.42-9.77,165.72c3.53-5.47,8.26-15.28,12.7-32.42l11.34,7.67s-11.09,47.5-24.43,54.9C822.32,765.06,827,843.23,844.14,891.07Z"/><path class="cls-4" d="M801,894.65c-3.51-12.77-3.87-26.17-4.21-39.41-1.58-61.22-3.14-122.69,3.87-183.54,1.41-12.29,3.18-24.59,3-37-.18-9.1-1.43-18.16-1.57-27.26-.21-14.6,2.45-29.08,5.11-43.44"/><path class="cls-4" d="M814.93,773.61s-5.66,22.38-19.48,29.25"/><path class="cls-4" d="M796.23,857.5s-17.09-15.52-16.66-31"/><path class="cls-4" d="M781.21,717.91s2.1,16.84,14.31,21.57"/><path class="cls-4" d="M797.67,685.8s16.84-2.1,21.57-14.31"/><path class="cls-4" d="M789.3,615.81s2.1,16.83,14.32,21.57"/><circle class="cls-5" cx="810.08" cy="759.25" r="3.34"/><circle class="cls-5" cx="779.56" cy="813.91" r="3.34"/><circle class="cls-5" cx="784.55" cy="704.9" r="3.34"/><circle class="cls-5" cx="813.42" cy="656.06" r="2.36"/><circle class="cls-5" cx="791.23" cy="603.21" r="2.36"/><path class="cls-6" d="M1066.39,396.67c16.13,11.67,28.29,30,28.92,49.87S1083,487,1063.72,491.83c-12.25,3.07-26,0-37.19,5.83-16.25,8.41-18.79,30-26.24,46.68a70.44,70.44,0,0,1-97.45,33.5C890.55,571.3,880,561,866.46,557.69c-16.85-4.17-34.06,3.29-50.73,8.09s-37.32,5.92-48.66-7.21c-10.57-12.22-8.51-32-19.43-43.9-11.18-12.19-30.28-10.82-46.46-14.29a70.66,70.66,0,0,1-51.3-94l271.49-61Z"/><path class="cls-7" d="M941.83,323.76c7.39,24.5-4,53.36-26.13,66.22-11.37,6.61-25,9.35-34.9,18-11.77,10.38-15.71,27.09-25.71,39.2-11.88,14.39-32.56,20.84-50.52,15.75-26.42-7.49-42.9-36-69.42-43.14-32.58-8.79-67.26,17.81-99.6,8.18-21-6.25-35.19-26.94-39.83-48.36s-1.38-43.69,2.3-65.3Z"/><path class="cls-8" d="M694.65,404.72c40-.39,69.18,31.19,105.52,40.91,20,5.35,41.35-.09,55.75-16.53,2.82-3.23,7.6-3.84,11.52-2.41-3.77,7.08-7.28,14.4-12.35,20.54-11.88,14.39-32.56,20.84-50.52,15.75-26.42-7.49-42.9-36-69.42-43.14-32.58-8.79-67.26,17.81-99.6,8.18a47.36,47.36,0,0,1-11.38-5.14C647.92,417.51,669.77,405,694.65,404.72Z"/><path class="cls-5" d="M702.67,282.89a153.33,153.33,0,0,0,97.81,71.61A384,384,0,0,1,778,290.91l8.35-2.53a374.49,374.49,0,0,0,78.11,129.38q-15.66-63.61-31-127.23l33.83-9.35c19.25,61.88,38.47,123.73,58.13,185.37q3.85,12.09,7.73,24.18A388.82,388.82,0,0,0,975.7,369l7,.7A400.18,400.18,0,0,1,975.14,435a86.61,86.61,0,0,0,29.74-33.23l6.47,2.62A98.11,98.11,0,0,1,970,457.25a407.16,407.16,0,0,1-25.13,70.06Q965,589.2,986,650.68q7.81,22.91,15.83,45.71l8,22.8c2.71,7.55,5.39,15.13,8.14,22.64,11,30,22.33,59.58,35.06,88s26.82,55.7,42.86,81.1,34.31,48.59,54.65,69.06l-61.66,57.62c-23.7-27.07-43.63-56.6-60.44-87s-30.28-62-42.13-93.48-21.68-63.23-31-94.72c-2.33-7.87-4.56-15.72-6.83-23.58l-6.65-23.51q-5.08-18.18-10.09-36.38c-28.19-23.27-48.71-64.77-48.71-64.77l4.54-14.6c7.58,12.11,19.91,21.68,30.33,28.22q-19.76-74-38.21-148.24-1.75-7-3.5-14.08a394,394,0,0,1-67.14-93.2,163.81,163.81,0,0,1-63.2-28.62,160.5,160.5,0,0,1-48.68-57.81Z"/><path class="cls-9" d="M697.22,285.8l5.45-2.91a153.33,153.33,0,0,0,97.81,71.61A384,384,0,0,1,778,290.91l8.35-2.53a373.78,373.78,0,0,0,53,99.14,41,41,0,0,0-9.59-2.71,39.17,39.17,0,0,0-13.53.46q-3.66-6.47-7.08-13a163.81,163.81,0,0,1-63.2-28.62A160.5,160.5,0,0,1,697.22,285.8Z"/><path class="cls-9" d="M982.71,369.65A400.18,400.18,0,0,1,975.14,435a86.61,86.61,0,0,0,29.74-33.23l6.47,2.62a98.12,98.12,0,0,1-37.75,50.56c-.92-2-1.91-4-3-5.87a53.75,53.75,0,0,0-12.08-14.77A387.17,387.17,0,0,0,975.7,369Z"/><path class="cls-9" d="M860.23,400.6q-13.5-55-26.83-110.07l33.83-9.35q22.17,71.29,44.52,142.44a92.52,92.52,0,0,1-39-14C868.47,406.83,864.36,403.7,860.23,400.6Z"/><path class="cls-10" d="M1065.89,927.91c-54.49-120.24-100.49-240.85-133-346.84C915.4,524,884.52,413.54,870.34,355.53"/><path class="cls-7" d="M1152.61,399.52c-1.1,13.52-4,27.41-12.24,38.2s-22.74,17.66-35.66,13.55c-10.76-3.42-18.29-13.39-28.77-17.56-12.67-5-26.86-.8-40.19,2.05s-29.18,3.51-38.54-6.4c-8.21-8.68-8.55-22.76-16.88-31.32-7.73-8-20.24-8.91-31.15-7s-21.43,6.17-32.5,6.84a50.68,50.68,0,0,1-53.07-58.82l151.67-80.48Z"/><path class="cls-11" d="M959,335.88c-16.57-1.72-33.84-6.27-49.47-.47-19.24,7.14-30.82,28.27-50.29,34.76-24.84,8.29-50.38-10.44-67.2-30.5-4.27-5.08-8.56-10.52-14.58-13.31s-13.3-2.56-19.85-.88c-20.68,5.31-35.57,22.77-53.19,34.82s-44.78,17.33-58.1.64c-3.68-4.61-5.78-10.38-9.82-14.67-14.89-15.79-41.54-1.75-62.75-6.37-17.1-3.73-29.39-20.69-30.79-38.15s6.6-34.7,18.43-47.6,28-23.17,33.09-39.9c2-6.61,2-13.7,4-20.33,5-17,21.46-27.65,36.91-36.32,15-8.41,30.65-16.51,47.71-18.41,20.62-2.28,41.35,4.72,62,3.06,26.95-2.17,50.3-18.56,75.25-29a176.76,176.76,0,0,1,81.17-13.1c17.46,1.33,35.28,5.53,49.25,16.08,11.67,8.82,19.85,21.4,30.17,31.76,37.62,37.75,108.7,55.61,102.07,122.82C1078,321.62,999.79,340.1,959,335.88Z"/><path class="cls-8" d="M949.18,391c-10.92,1.91-21.43,6.17-32.5,6.84A51.5,51.5,0,0,1,876,381.24a49.55,49.55,0,0,1-5.65-7.69,69.63,69.63,0,0,0,52.77,16.24c12-1.39,23.15-6.45,35.14-7.87,9.81-1.15,20.52.49,28.59,6.49,7.78,5.78,11,14.45,13.81,23.36,2.37,7.4,4.71,14.91,13.62,15.7,11.08,1,21.65-5.09,32.85-4.56A52.7,52.7,0,0,1,1076,433.75l-.1,0c-12.67-5-26.86-.8-40.19,2.05s-29.18,3.51-38.54-6.4c-8.21-8.68-8.55-22.76-16.88-31.32C972.6,390.09,960.09,389.13,949.18,391Z"/><path class="cls-3" d="M656.89,345.39c0,2.8,5.08,5.07,11.34,5.07s11.35-2.27,11.35-5.07-5.08-5.06-11.35-5.06S656.89,342.6,656.89,345.39Z"/><path class="cls-3" d="M869.18,313.57c0,2.8,5.08,5.07,11.35,5.07s11.34-2.27,11.34-5.07-5.08-5.06-11.34-5.06S869.18,310.78,869.18,313.57Z"/><ellipse class="cls-3" cx="657.91" cy="329.59" rx="5.12" ry="2.29"/><ellipse class="cls-3" cx="899.91" cy="321.63" rx="5.12" ry="2.29"/><path class="cls-3" d="M675.8,326.6c0,1.65,3,3,6.7,3s6.69-1.34,6.69-3-3-3-6.69-3S675.8,325,675.8,326.6Z"/><path class="cls-3" d="M844.93,321.63c0,1.65,3,3,6.7,3s6.7-1.34,6.7-3-3-3-6.7-3S844.93,320,844.93,321.63Z"/><path class="cls-12" d="M970.36,371.48c0,1.4,2.54,2.53,5.67,2.53s5.68-1.13,5.68-2.53S979.17,369,976,369,970.36,370.08,970.36,371.48Z"/><path class="cls-12" d="M981.71,357.47c0,1.4,2.54,2.53,5.67,2.53s5.68-1.13,5.68-2.53-2.54-2.54-5.68-2.54S981.71,356.07,981.71,357.47Z"/><path class="cls-12" d="M953.34,352.4c0,2.8,5.08,5.07,11.35,5.07S976,355.2,976,352.4s-5.08-5.07-11.34-5.07S953.34,349.6,953.34,352.4Z"/><path class="cls-12" d="M634.08,389c0,1.4,2.54,2.53,5.67,2.53s5.67-1.13,5.67-2.53-2.54-2.54-5.67-2.54S634.08,387.63,634.08,389Z"/><path class="cls-12" d="M752.29,381.94c0,1.39,2.54,2.53,5.67,2.53s5.68-1.14,5.68-2.53-2.55-2.54-5.68-2.54S752.29,380.54,752.29,381.94Z"/><path class="cls-12" d="M730.64,393.2c0,2.17,4,3.93,8.82,3.93s8.82-1.76,8.82-3.93-3.95-3.94-8.82-3.94S730.64,391,730.64,393.2Z"/><path class="cls-3" d="M833.59,497.66c0,2.8,5.08,5.07,11.34,5.07s11.35-2.27,11.35-5.07-5.08-5.06-11.35-5.06S833.59,494.87,833.59,497.66Z"/><path class="cls-3" d="M717.36,456.37c0,2,3.61,3.6,8.06,3.6s8.06-1.61,8.06-3.6-3.61-3.6-8.06-3.6S717.36,454.39,717.36,456.37Z"/><ellipse class="cls-3" cx="830.58" cy="511.47" rx="6.44" ry="2.88"/><ellipse class="cls-3" cx="859.62" cy="508.59" rx="3.34" ry="1.49"/><path class="cls-3" d="M736.12,467.19c0,.82,1.49,1.49,3.34,1.49s3.34-.67,3.34-1.49-1.49-1.49-3.34-1.49S736.12,466.36,736.12,467.19Z"/><circle class="cls-3" cx="981.59" cy="675.3" r="3.34"/><circle class="cls-3" cx="978.25" cy="765.89" r="3.34"/><circle class="cls-3" cx="899.67" cy="520.13" r="3.34"/><circle class="cls-3" cx="928.23" cy="648.23" r="3.34"/><circle class="cls-3" cx="932.91" cy="508.59" r="3.34"/><circle class="cls-3" cx="904.63" cy="434.71" r="3.34"/><path class="cls-10" d="M1024.08,831.62s-31.62-19-39.14-46"/><path class="cls-10" d="M988.3,741.68s2.82-27.45-3.36-50.95"/><path class="cls-10" d="M932.91,581.07s-20.16-19.71-29.16-48.28"/><path class="cls-10" d="M903,480.84s4.74-14.89,2.74-30.75"/><path class="cls-11" d="M785.14,507.92c-3.42-5.48-10.11-7.62-10.11-7.62s-1.16,6.75,2.25,12.24,10.11,7.62,10.11,7.62S788.55,513.41,785.14,507.92Z"/><path class="cls-11" d="M995.38,503.63c5.48-3.41,7.62-10.1,7.62-10.1s-6.76-1.17-12.24,2.24-7.63,10.1-7.63,10.1S989.89,507,995.38,503.63Z"/><path class="cls-11" d="M926.19,363.93c5.49-3.4,7.63-10.1,7.63-10.1s-6.76-1.17-12.25,2.24-7.62,10.1-7.62,10.1S920.71,367.34,926.19,363.93Z"/><path class="cls-11" d="M798.62,402.91c-2.69-5.87-9.06-8.83-9.06-8.83s-2,6.56.68,12.43,9.07,8.83,9.07,8.83S801.31,408.78,798.62,402.91Z"/><path class="cls-7" d="M785.08,275.28c-3.56-5.39-10.32-7.34-10.32-7.34s-1,6.79,2.58,12.18,10.31,7.34,10.31,7.34S788.63,280.67,785.08,275.28Z"/><path class="cls-7" d="M822.09,272.2c5.39-3.56,7.33-10.31,7.33-10.31s-6.78-1-12.17,2.58-7.34,10.31-7.34,10.31S816.7,275.76,822.09,272.2Z"/><path class="cls-7" d="M590.79,294.69c-3.56-5.39-10.31-7.34-10.31-7.34s-1,6.79,2.58,12.18,10.31,7.34,10.31,7.34S594.35,300.08,590.79,294.69Z"/><path class="cls-7" d="M627.8,291.61c5.39-3.56,7.34-10.31,7.34-10.31s-6.79-1-12.18,2.58-7.34,10.31-7.34,10.31S622.41,295.17,627.8,291.61Z"/><path class="cls-3" d="M777.58,408.28c-5.26-3.75-12.26-3.14-12.26-3.14s1.53,6.68,6.78,10.43,12.26,3.15,12.26,3.15S782.84,412,777.58,408.28Z"/></g></g></svg>