<svg xmlns="http://www.w3.org/2000/svg" xmlns:xlink="http://www.w3.org/1999/xlink" viewBox="0 0 1769.49 1080"><defs><style>.cls-1{isolation:isolate;}.cls-2{fill:#5ea7a2;}.cls-3{fill:url(#linear-gradient);}.cls-4{fill:url(#linear-gradient-2);}.cls-5{fill:#b9bbbd;mix-blend-mode:soft-light;}.cls-6{fill:#367d75;}.cls-7{fill:#b27438;}.cls-8{fill:#e5af36;}.cls-9{fill:#885532;}.cls-10{fill:#9fa851;}</style><linearGradient id="linear-gradient" x1="1653.63" y1="602.89" x2="1610.33" y2="522.65" gradientTransform="matrix(-1, 0, 0, 1, 2397.72, 0)" gradientUnits="userSpaceOnUse"><stop offset="0" stop-color="#4b8373"/><stop offset="1" stop-color="#305051"/></linearGradient><linearGradient id="linear-gradient-2" x1="1473.21" y1="587.34" x2="1493.64" y2="459.48" xlink:href="#linear-gradient"/></defs><title>29</title><g class="cls-1"><g id="Layer_1" data-name="Layer 1"><rect class="cls-2" x="-33.35" y="-18.4" width="1863.75" height="1114.83"/><path class="cls-3" d="M693.69,492.88c11.2-23.32,35-35.91,57.15-46.91a6,6,0,0,1,5.43-.09c39.34-15.59,89.76-31.18,125.12,1.44,14.69,13.54,23.76,36,22.29,56-.72,9.77-4.51,18.6-12.17,24.88-7.4,6.06-17.06,8.9-24.09,15.38-8,7.36-10.7,18.66-14.61,28.38a81.18,81.18,0,0,1-15.49,25.18c-13.1,14.16-32.12,22.32-51.41,18.62-18.88-3.63-32.12-17.11-36.53-35.5-1.18-4.9-2-10.34-5-14.45s-8.06-5.55-12.92-6.62c-9.38-2.08-18.79-3-26.76-8.86C686.61,537,684.51,512,693.69,492.88Z"/><path class="cls-4" d="M792,496.25c.93-20.2,6.79-40,18.77-57.23,11.28-16.23,26.79-29.35,45.15-36.82,22.21-9.05,46.43-7.49,69.2-1.38,40.67,10.93,95.85,33.13,101,81.55,2.3,21.59-7.92,39.3-25.54,51-8.79,5.84-18.87,10.66-25,19.62-6.27,9.19-8.94,20.27-16.13,28.93-16.22,19.56-43.82,22.1-67.07,16.7-26.21-6.08-51.39-19.23-73.24-34.83C796.69,541.27,792.69,506.66,792,496.25Z"/><path class="cls-5" d="M890,584.88c9.8,10.09,24.68,15.55,38.69,12.67a43.31,43.31,0,0,0,30.82-25.13c3.5-8.24,3.57-17.38,7.6-25.49,3.43-6.9,9.53-12.14,16.26-15.7,11-5.86,27-7.81,31.54-20.89,3-8.44,2.26-17.59,2.14-26.37-.12-8.26.35-16.27,2.44-24a64.19,64.19,0,0,1,6.62,22.43c2.3,21.59-7.92,39.3-25.54,51-8.79,5.84-18.87,10.66-25,19.62-6.27,9.19-8.94,20.27-16.13,28.93-16.22,19.56-43.82,22.1-67.07,16.7a165.41,165.41,0,0,1-19.88-6C872.44,584.63,882.82,577.47,890,584.88Z"/><path class="cls-6" d="M807.09,516.3c7.74,17.78,22.09,33.35,41.43,38.2,15.92,4,38.43-1.08,42.61-19.5,2-8.87-2.21-17-7.74-23.63-3-3.56-6.39-6.73-9.58-10.09-3-3.16-7.48-8.14-1.25-10.12,8.62-2.75,17.51,8.6,24.34,12.34a48.69,48.69,0,0,0,24.75,5.83c17.65-.55,34.43-10.18,42.13-26.36a50.47,50.47,0,0,0-2.72-48.5,5.68,5.68,0,0,0-.85-7.17C943.51,410.14,925,392,900.15,388.6c-23.82-3.28-47.52,10-67.43,21.58-17,9.92-32,23.67-35.17,44C794.37,474.28,799,497.76,807.09,516.3Z"/><path class="cls-7" d="M868.83,606.91c-2.14-8.68-4.41-17.37-6.71-26.07a269.13,269.13,0,0,1-85.69-125.2l10.31-3.53A255.89,255.89,0,0,0,855,553.76c-3.19-12.32-6.27-24.72-9-37.26-1.63-7.68-3.13-15.4-4.44-23.16s-2.37-15.59-3.22-23.44-1.34-15.76-1.59-23.68,0-15.85.42-23.77l10.89.48c-.68,30.34,4.75,60.54,12.44,90.14,7.28,28.06,16.67,55.75,25.12,84.1a389.7,389.7,0,0,0,26.21-191.1l10.79-1.5A402,402,0,0,1,923,528.69,116.19,116.19,0,0,0,939.86,511c8.68-11.69,12.75-24.42,11.49-35.83l10.82-1.2c1.58,14.15-3.24,29.61-13.56,43.52-8.09,10.92-18.32,19.63-28.47,27.92a403.18,403.18,0,0,1-25.77,83.23c1.59,6.34,3.11,12.72,4.48,19.15,1.62,7.78,3,15.61,4.23,23.55s2,15.93,2.57,24,.71,16.16.55,24.31-.83,16.31-1.86,24.47a221.22,221.22,0,0,1-4.71,24.36c-2.14,8-13.84,36.95-17,44.74l-16.41-8.75c2.95-6.45,6.3-36.16,8.45-43a198,198,0,0,0,5-21.09c1.22-7.17,2.06-14.45,2.6-21.79s.59-14.75.45-22.18C882.07,666.61,876.18,636.7,868.83,606.91Z"/><path class="cls-8" d="M939.25,546.7c0,1.18,2,2.14,4.57,2.14s4.57-1,4.57-2.14-2-2.15-4.57-2.15S939.25,545.51,939.25,546.7Z"/><path class="cls-8" d="M758,530.53c0,1.18,2,2.14,4.57,2.14s4.57-1,4.57-2.14-2-2.15-4.57-2.15S758,529.34,758,530.53Z"/><path class="cls-8" d="M778.16,539.65c0,1.46,2.51,2.64,5.62,2.64s5.61-1.18,5.61-2.64-2.51-2.63-5.61-2.63S778.16,538.2,778.16,539.65Z"/><ellipse class="cls-8" cx="764.1" cy="546.7" rx="9.39" ry="4.41"/><ellipse class="cls-8" cx="934.43" cy="560.18" rx="9.39" ry="4.41"/><path class="cls-9" d="M936.5,515.2c1.17-1.38,2.29-2.78,3.36-4.22,8.68-11.69,12.75-24.42,11.49-35.83l10.82-1.2c1.58,14.15-3.24,29.61-13.56,43.52-.81,1.09-1.66,2.15-2.51,3.2a55.52,55.52,0,0,1-9.07-5.09Z"/><path class="cls-9" d="M786.74,452.11a253.21,253.21,0,0,0,26.64,53c-2.07,1.56-4.09,3.2-6,5-1.35,1.23-2.65,2.53-3.89,3.88a266.13,266.13,0,0,1-27-58.3Z"/><path class="cls-9" d="M912.28,409.86l11.44,1.78a401.55,401.55,0,0,1,2.08,94.77c-4.64-4.26-9.1-8.74-13.82-12.91A387.18,387.18,0,0,0,912.28,409.86Z"/><path class="cls-9" d="M848.1,422.93c-.46,20.46,1.87,40.85,5.78,61q-2.39,1-4.74,2c-2.71,1.18-5.43,2.37-8.14,3.59-1-6.54-1.9-13.1-2.62-19.69-.79-7.86-1.34-15.76-1.59-23.68s0-15.85.42-23.77Z"/><path class="cls-10" d="M714,444.66c2.87-29.25,22.68-56.68,54.28-56.56,17.22.06,33.77,6.44,50.48-.75,15.21-6.55,26.58-19.24,38.47-30.3,23-21.4,51.92-34.23,83.84-31.05a102.21,102.21,0,0,1,77.25,49.4c8.36,14.28,13.54,33.34,4,48.36-4.47,7-11.27,11.77-17.52,17.06-4,3.35-9.47,8.61-11,14.33a31.45,31.45,0,0,1-2.85,33.76c-8.9,11.59-24.23,15.93-38.22,13s-25-12.84-32.85-24.47c-7.29-10.82-12.1-23.59-21-33.27C889.5,434,875.64,430.66,863,437c-13,6.52-14.26,21.78-24.68,30.71-12.28,10.54-29,3.45-42.46,10.32-13.81,7-22.78,20.76-38,25.67-13.95,4.51-27.83-1.39-35.71-13.46C713.85,477.44,712.56,459.47,714,444.66Z"/><path class="cls-5" d="M734.48,501.53c12.89.68,25.16-5.5,34.75-13.69,10.39-8.88,19.92-18.32,34.12-20.1,10.11-1.27,25.1,3.26,31.8-6.57,3.3-4.84,5.25-10.48,8.6-15.3a41.7,41.7,0,0,1,13.31-12.42c10.45-6.07,24-7.92,35.48-3.88,25.4,8.9,31.76,38.47,53,52.65,9.7,6.49,22.13,9.24,32.6,2.78,4.88-3,7-7.57,8.32-13,1.8-7.34,2.92-14.75,7.23-21.16a8.8,8.8,0,0,1,4.56-3.56,21.39,21.39,0,0,0-4.42,7.86,31.45,31.45,0,0,1-2.85,33.76c-8.9,11.59-24.23,15.93-38.22,13s-25-12.84-32.85-24.47c-7.29-10.82-12.1-23.59-21-33.27C889.5,434,875.64,430.66,863,437c-13,6.52-14.26,21.78-24.68,30.71-12.28,10.54-29,3.45-42.46,10.32-13.81,7-22.78,20.76-38,25.67a29.67,29.67,0,0,1-23.69-2.18Z"/><path class="cls-8" d="M930.71,437.7c0,2.43,4.2,4.41,9.39,4.41s9.39-2,9.39-4.41-4.2-4.41-9.39-4.41S930.71,435.26,930.71,437.7Z"/><path class="cls-8" d="M921.45,421.73c0,1.45,2.52,2.63,5.62,2.63s5.62-1.18,5.62-2.63-2.52-2.64-5.62-2.64S921.45,420.27,921.45,421.73Z"/><ellipse class="cls-8" cx="903.84" cy="410.2" rx="4.57" ry="2.15"/><path class="cls-8" d="M799.53,428.15c0,1.18,2.05,2.14,4.58,2.14s4.57-1,4.57-2.14-2-2.15-4.57-2.15S799.53,427,799.53,428.15Z"/><path class="cls-8" d="M786.37,415.36c0,1.45,2.52,2.63,5.62,2.63s5.62-1.18,5.62-2.63-2.52-2.64-5.62-2.64S786.37,413.9,786.37,415.36Z"/><path class="cls-8" d="M786.71,443.82c0,2.44,4.2,4.41,9.39,4.41s9.39-2,9.39-4.41-4.2-4.41-9.39-4.41S786.71,441.39,786.71,443.82Z"/><path class="cls-6" d="M838.25,414.82c-4,5-3.86,12-3.86,12s6.74-1,10.79-6,3.87-12,3.87-12S842.3,409.83,838.25,414.82Z"/><path class="cls-6" d="M821.41,414.24c2.71,3.26,7.3,4,7.3,4a12.67,12.67,0,0,0-2.49-7.79c-2.71-3.25-7.3-4-7.3-4A12.63,12.63,0,0,0,821.41,414.24Z"/><path class="cls-6" d="M909.74,386c-2.8,3.17-2.83,7.83-2.83,7.83a12.65,12.65,0,0,0,7.31-3.66c2.8-3.18,2.83-7.83,2.83-7.83A12.65,12.65,0,0,0,909.74,386Z"/><path class="cls-10" d="M890.16,471.87c-2.8,3.17-2.83,7.82-2.83,7.82a12.58,12.58,0,0,0,7.31-3.66c2.8-3.17,2.83-7.82,2.83-7.82A12.65,12.65,0,0,0,890.16,471.87Z"/><path class="cls-10" d="M872.44,468.55c3.17,2.8,7.82,2.83,7.82,2.83a12.65,12.65,0,0,0-3.66-7.31c-3.17-2.8-7.82-2.83-7.82-2.83A12.58,12.58,0,0,0,872.44,468.55Z"/><path class="cls-10" d="M726.38,529.84c3.18,2.8,7.83,2.83,7.83,2.83a12.65,12.65,0,0,0-3.66-7.31c-3.17-2.8-7.82-2.83-7.82-2.83A12.6,12.6,0,0,0,726.38,529.84Z"/><path class="cls-10" d="M966.47,520.31c-2.8,3.17-2.84,7.83-2.84,7.83a12.69,12.69,0,0,0,7.32-3.66c2.8-3.17,2.83-7.83,2.83-7.83A12.65,12.65,0,0,0,966.47,520.31Z"/><path class="cls-6" d="M754.23,461.94c-5.9-2.42-12.59-.16-12.59-.16s2.91,6.19,8.82,8.6,12.59.16,12.59.16S760.14,464.36,754.23,461.94Z"/></g></g></svg>