<svg id="Layer_1" data-name="Layer 1" xmlns="http://www.w3.org/2000/svg" viewBox="0 0 1863.75 1114.83"><defs><style>.cls-1{fill:#304a63;}.cls-2{fill:#fff;}.cls-3{fill:#e6b034;}</style></defs><title>9</title><rect class="cls-1" width="1863.75" height="1114.83"/><path class="cls-2" d="M1243,410.6c11.06-12.09,24.4-21.25,38.34-29.62h0l5.59-3.66a48.44,48.44,0,0,0,15.7-18.42,20.42,20.42,0,0,1,10.27-9.48,41.24,41.24,0,0,1,24.62-3.1c9.17,1.64,17.43,4.78,24.73,11.51,7.62,7,10.61,14.55,8.64,24.36-1,4.86-2.11,9.68-3.35,14.48-2.62,10.12-8.81,16.61-19.09,19.5-10.88,3-22.09-1.35-27.33-11.37-6.64-12.69,6-24.56,15.25-24.17,6.43.27,9.23,5.21,5.89,10.69a41.25,41.25,0,0,1-2.56,3.39c-1.43,1.88-.56,3.74.82,4.8.74.58,3,.25,3.79-.5a23.23,23.23,0,0,0,7.27-15.26,7.36,7.36,0,0,0-5.9-8.1,42.83,42.83,0,0,0-12-.52c-10.15,1.07-18,7.51-20.18,16.25-.73,3-.65,6.13-.89,8.72l3.91,9.84c3.61,7.27,9.84,11.86,18.08,13.6l11.43.33c13.89-2.25,24.59-9.23,28.5-23,1.87-6.56,4.91-9.26,10.94-10,.4,0,.78-.23,1.18-.29,12.07-2.08,23.28-1.53,33.4,7.12,8.08,6.9,17.22,12.61,29.41,10.6-.69,1-1,1.56-1.36,2-9,11.13-20.86,16.15-34.84,17.2a14.45,14.45,0,0,0-6.9,2.49A118.65,118.65,0,0,1,1372,446.74l0,0-1,.26c-.89.25-1.77.52-2.67.75a2.25,2.25,0,0,1-.38,0l-3.76,1,.08.08c-.44.09-.89.15-1.33.24l-4.55,1.17-.29-.32c-12.34,1.83-24.13,1.18-35.44-3.26-12.69-5-25-10.88-37.3-16.88-12.79-6.27-26-8.85-40-6.05-4.85,1-9.71,1.85-14.56,2.77l-.67-.75C1234.35,420.71,1238.48,415.49,1243,410.6Z" transform="translate(33.35 18.4)"/><path class="cls-3" d="M1344,434c16.13,0,32.92-5.78,46.84-16.46l-2-2.62c-17,13-38.37,18.46-57.21,14.52-21.28-4.44-38.74-21.38-42.45-41.18l-3.25.61c3.95,21.08,22.47,39.1,45,43.81A64.41,64.41,0,0,0,1344,434Z" transform="translate(33.35 18.4)"/><path class="cls-3" d="M1399.07,410.06a28.71,28.71,0,0,0,4.85-7.42l-3-1.33a25.37,25.37,0,0,1-4.3,6.57Z" transform="translate(33.35 18.4)"/><path class="cls-3" d="M1314.59,426.59l2-2.66c-12.28-9.11-12.92-27.76-12.92-27.95a32.59,32.59,0,0,1,3.89-17.94,26,26,0,0,1,7.59-8.82,33.11,33.11,0,0,1,11.41-4.86c8.15-2.07,15.34-2.11,21.39-.13s11.83,8.59,10.65,15.81l3.26.53c1.48-9.06-5.39-17-12.89-19.48-6.64-2.18-14.45-2.16-23.22.07a36.41,36.41,0,0,0-12.53,5.38,29.3,29.3,0,0,0-8.56,9.91,35.92,35.92,0,0,0-4.29,19.7C1300.36,396.9,1301,416.53,1314.59,426.59Z" transform="translate(33.35 18.4)"/><path class="cls-3" d="M1251.84,414.08c2.55-1.15,5.06-2.17,7.47-3l-1.09-3.12c-2.5.88-5.11,1.93-7.74,3.12Z" transform="translate(33.35 18.4)"/><path class="cls-3" d="M1305.19,420.25l1.9-2.7c-15.9-11.2-27.41-14.73-39.71-12.18l.68,3.24C1279.52,406.22,1289.92,409.49,1305.19,420.25Z" transform="translate(33.35 18.4)"/><path class="cls-2" d="M950.49,483c18.34-20.05,40.46-35.23,63.56-49.11h0l9.27-6.08c11.08-7.55,19.69-18.08,26-30.54,3.72-7.32,9.53-12.34,17-15.71a68.39,68.39,0,0,1,40.83-5.15c15.2,2.72,28.91,7.93,41,19.08,12.64,11.65,17.59,24.14,14.33,40.41-1.62,8-3.5,16-5.56,24-4.35,16.79-14.61,27.54-31.66,32.33-18,5.07-36.61-2.23-45.3-18.84-11-21.05,10-40.72,25.29-40.08,10.65.44,15.3,8.64,9.75,17.72a67.22,67.22,0,0,1-4.24,5.62c-2.37,3.13-.92,6.2,1.36,8,1.22.95,5,.41,6.29-.83a38.57,38.57,0,0,0,12-25.3c.51-6.42-3.34-12.27-9.79-13.44a71.42,71.42,0,0,0-19.9-.86c-16.85,1.77-29.94,12.46-33.48,26.94-1.2,4.93-1.06,10.17-1.46,14.46l6.48,16.32c6,12.05,16.32,19.67,30,22.56l19,.53c23-3.73,40.77-15.3,47.26-38.15,3.09-10.87,8.13-15.36,18.14-16.6.66-.08,1.29-.37,2-.48,20-3.44,38.61-2.53,55.38,11.8,13.39,11.44,28.55,20.92,48.77,17.59-1.15,1.72-1.64,2.58-2.26,3.34-14.84,18.47-34.59,26.79-57.77,28.52a24.08,24.08,0,0,0-11.43,4.13A196.22,196.22,0,0,1,1164.38,543l0,0-1.68.43c-1.47.42-2.93.87-4.42,1.25a3.32,3.32,0,0,1-.64.05l-6.23,1.61.14.13c-.74.15-1.48.26-2.22.4l-7.54,1.94-.48-.53c-20.47,3-40,2-58.76-5.4-21-8.27-41.53-18-61.84-28-21.22-10.39-43-14.67-66.38-10-8,1.6-16.08,3.06-24.13,4.58l-1.12-1.23C936.23,499.8,943.07,491.16,950.49,483Z" transform="translate(33.35 18.4)"/><path class="cls-3" d="M1118,521.86c26.75,0,54.58-9.59,77.66-27.29l-3.33-4.35c-28.16,21.6-63.62,30.6-94.85,24.08-35.3-7.37-64.25-35.45-70.4-68.28l-5.38,1c6.55,35,37.25,64.82,74.66,72.63A105.37,105.37,0,0,0,1118,521.86Z" transform="translate(33.35 18.4)"/><path class="cls-3" d="M1209.36,482.15a47.7,47.7,0,0,0,8-12.31l-5-2.2a42.53,42.53,0,0,1-7.13,10.9Z" transform="translate(33.35 18.4)"/><path class="cls-3" d="M1069.27,509.55l3.27-4.4c-20.36-15.11-21.42-46-21.42-46.35a54,54,0,0,1,6.44-29.75,43.07,43.07,0,0,1,12.59-14.61c4.83-3.46,10.84-6,18.92-8.07,13.52-3.43,25.45-3.5,35.46-.22s19.63,14.24,17.66,26.21l5.41.89c2.46-15-8.93-28.22-21.36-32.3-11-3.61-24-3.57-38.52.11-8.76,2.22-15.36,5.06-20.76,8.92a48.67,48.67,0,0,0-14.2,16.43,59.5,59.5,0,0,0-7.11,32.67C1045.68,460.32,1046.8,492.87,1069.27,509.55Z" transform="translate(33.35 18.4)"/><path class="cls-3" d="M965.23,488.81c4.22-1.91,8.39-3.59,12.38-5l-1.81-5.17c-4.14,1.46-8.46,3.2-12.83,5.17Z" transform="translate(33.35 18.4)"/><path class="cls-3" d="M1053.68,499.05l3.16-4.48c-26.36-18.58-45.44-24.43-65.84-20.2l1.11,5.37C1011.11,475.79,1028.37,481.21,1053.68,499.05Z" transform="translate(33.35 18.4)"/><path class="cls-2" d="M472.31,477.62c27.7-30.28,61.09-53.21,96-74.16l0,0,14-9.18C599,382.86,612,367,621.58,348.14c5.62-11.05,14.4-18.63,25.71-23.72A103.29,103.29,0,0,1,709,316.64c23,4.11,43.65,12,61.93,28.82,19.09,17.58,26.55,36.45,21.63,61-2.43,12.15-5.28,24.24-8.39,36.23-6.56,25.36-22.06,41.6-47.81,48.83-27.22,7.65-55.29-3.38-68.41-28.45-16.64-31.79,15-61.5,38.18-60.53,16.1.67,23.11,13.05,14.74,26.76-1.84,3-4.26,5.67-6.4,8.49-3.59,4.73-1.4,9.37,2,12,1.85,1.43,7.54.62,9.5-1.27a58.18,58.18,0,0,0,18.2-38.2c.78-9.7-5-18.53-14.78-20.29a107.49,107.49,0,0,0-30.06-1.3c-25.43,2.67-45.21,18.81-50.55,40.69-1.81,7.43-1.6,15.36-2.21,21.83l9.79,24.64c9,18.21,24.64,29.7,45.27,34.06l28.62.81c34.77-5.63,61.57-23.11,71.37-57.61,4.66-16.41,12.28-23.19,27.39-25.06,1-.13,2-.56,3-.74,30.22-5.19,58.29-3.81,83.62,17.83,20.23,17.28,43.12,31.59,73.66,26.56-1.74,2.6-2.49,3.9-3.42,5-22.41,27.88-52.24,40.44-87.25,43.06a36.49,36.49,0,0,0-17.25,6.24c-26.6,18.51-55.07,32.87-86,42l.05,0-2.52.65c-2.23.63-4.43,1.31-6.68,1.89a7.46,7.46,0,0,1-1,.08l-9.41,2.42.21.19c-1.12.24-2.22.4-3.34.62l-11.4,2.93-.72-.81c-30.91,4.59-60.42,3-88.74-8.16-31.76-12.48-62.7-27.24-93.39-42.27-32-15.7-65-22.16-100.22-15.13-12.13,2.42-24.3,4.62-36.45,6.91l-1.68-1.86C450.78,502.92,461.11,489.87,472.31,477.62Z" transform="translate(33.35 18.4)"/><path class="cls-3" d="M725.33,536.24c40.39,0,82.42-14.48,117.28-41.22l-5-6.56C795,521.08,741.5,534.67,694.34,524.83,641,513.7,597.32,471.29,588,421.71l-8.13,1.52c9.9,52.79,56.26,97.9,112.75,109.69A159.42,159.42,0,0,0,725.33,536.24Z" transform="translate(33.35 18.4)"/><path class="cls-3" d="M863.23,476.27a72,72,0,0,0,12.13-18.59l-7.57-3.32A64.24,64.24,0,0,1,857,470.82Z" transform="translate(33.35 18.4)"/><path class="cls-3" d="M651.69,517.65l4.93-6.64c-30.67-22.77-32.34-69.53-32.35-70v-.2A81.51,81.51,0,0,1,634,396.08,65.32,65.32,0,0,1,653,374c7.3-5.22,16.38-9.09,28.58-12.18,20.41-5.18,38.42-5.29,53.55-.33S764.77,383,761.8,401.09l8.16,1.34c2.93-17.82-8.34-40.94-32.25-48.78-16.64-5.45-36.21-5.39-58.16.17-13.23,3.36-23.2,7.64-31.36,13.47a73.49,73.49,0,0,0-21.44,24.82A89.88,89.88,0,0,0,616,441.34C616.1,444.57,618.19,492.78,651.69,517.65Z" transform="translate(33.35 18.4)"/><path class="cls-3" d="M494.56,486.34c6.39-2.89,12.68-5.43,18.71-7.54L510.53,471c-6.25,2.2-12.77,4.83-19.38,7.81Z" transform="translate(33.35 18.4)"/><path class="cls-3" d="M628.14,501.79l4.77-6.76c-39.81-28.06-68.61-36.9-99.43-30.5l1.69,8.1C563.84,466.67,589.92,474.85,628.14,501.79Z" transform="translate(33.35 18.4)"/><path class="cls-2" d="M863,609.5c11.06-12.09,24.4-21.25,38.34-29.62h0l5.59-3.67a48.44,48.44,0,0,0,15.7-18.42,20.36,20.36,0,0,1,10.27-9.47,41.24,41.24,0,0,1,24.62-3.11c9.17,1.64,17.43,4.78,24.73,11.51,7.62,7,10.61,14.56,8.64,24.37-1,4.85-2.11,9.67-3.35,14.47-2.62,10.12-8.81,16.61-19.09,19.5-10.88,3.05-22.09-1.35-27.33-11.36-6.64-12.7,6-24.57,15.25-24.18,6.43.27,9.23,5.21,5.89,10.69a41.25,41.25,0,0,1-2.56,3.39c-1.43,1.89-.56,3.74.82,4.81.74.57,3,.24,3.79-.51a23.21,23.21,0,0,0,7.27-15.26,7.36,7.36,0,0,0-5.9-8.1,42.83,42.83,0,0,0-12-.52c-10.15,1.07-18,7.51-20.18,16.25-.73,3-.65,6.13-.89,8.72l3.91,9.84c3.6,7.27,9.84,11.86,18.08,13.6l11.43.33c13.89-2.25,24.59-9.23,28.5-23,1.87-6.55,4.91-9.26,10.94-10,.4,0,.78-.22,1.18-.29,12.07-2.08,23.28-1.53,33.4,7.12,8.08,6.9,17.22,12.61,29.41,10.6-.69,1-1,1.56-1.36,2-8.95,11.13-20.86,16.15-34.85,17.2a14.45,14.45,0,0,0-6.89,2.49A118.4,118.4,0,0,1,992,645.64l0,0-1,.26c-.89.25-1.77.52-2.67.75a2.25,2.25,0,0,1-.38,0l-3.76,1,.08.08c-.44.09-.89.15-1.33.24l-4.55,1.17-.29-.32c-12.34,1.83-24.13,1.18-35.44-3.26-12.69-5-25-10.88-37.3-16.88-12.79-6.27-25.95-8.85-40-6-4.84,1-9.7,1.84-14.55,2.76l-.67-.75C854.42,619.61,858.55,614.4,863,609.5Z" transform="translate(33.35 18.4)"/><path class="cls-3" d="M964.07,632.91c16.13,0,32.92-5.78,46.84-16.46l-2-2.62c-17,13-38.37,18.46-57.21,14.52C930.41,623.91,913,607,909.24,587.17l-3.25.61c4,21.08,22.47,39.1,45,43.81A63.71,63.71,0,0,0,964.07,632.91Z" transform="translate(33.35 18.4)"/><path class="cls-3" d="M1019.14,609a28.71,28.71,0,0,0,4.85-7.42l-3-1.33a25.37,25.37,0,0,1-4.3,6.57Z" transform="translate(33.35 18.4)"/><path class="cls-3" d="M934.66,625.49l2-2.65c-12.28-9.12-12.92-27.77-12.92-28a32.59,32.59,0,0,1,3.89-17.94,25.89,25.89,0,0,1,7.59-8.81,33.11,33.11,0,0,1,11.41-4.87c8.15-2.07,15.34-2.11,21.39-.13s11.83,8.59,10.65,15.81l3.26.53c1.48-9.06-5.39-17-12.89-19.48-6.64-2.18-14.45-2.15-23.22.07a36.41,36.41,0,0,0-12.53,5.38,29.4,29.4,0,0,0-8.56,9.91,35.92,35.92,0,0,0-4.29,19.7C920.43,595.8,921.11,615.43,934.66,625.49Z" transform="translate(33.35 18.4)"/><path class="cls-3" d="M871.91,613c2.55-1.15,5.06-2.16,7.47-3l-1.09-3.12c-2.5.88-5.11,1.93-7.74,3.12Z" transform="translate(33.35 18.4)"/><path class="cls-3" d="M925.26,619.16l1.9-2.7c-15.9-11.21-27.41-14.74-39.71-12.19l.67,3.24C899.58,605.13,910,608.39,925.26,619.16Z" transform="translate(33.35 18.4)"/><path class="cls-2" d="M325.62,466.69C336.68,454.6,350,445.44,364,437.07h0l5.59-3.66A48.59,48.59,0,0,0,385.24,415a20.38,20.38,0,0,1,10.27-9.48,41.24,41.24,0,0,1,24.62-3.1c9.17,1.64,17.43,4.78,24.73,11.51,7.62,7,10.61,14.55,8.64,24.36-1,4.85-2.11,9.68-3.35,14.47-2.62,10.13-8.81,16.61-19.09,19.5-10.88,3.06-22.09-1.35-27.33-11.36-6.64-12.7,6-24.56,15.25-24.17,6.43.26,9.23,5.21,5.89,10.69a39.47,39.47,0,0,1-2.56,3.38c-1.43,1.89-.56,3.74.82,4.81.74.57,3,.25,3.79-.5a23.23,23.23,0,0,0,7.27-15.26,7.36,7.36,0,0,0-5.9-8.1,42.83,42.83,0,0,0-12-.52c-10.15,1.06-18,7.51-20.18,16.25-.73,3-.65,6.13-.89,8.72l3.91,9.83c3.61,7.28,9.84,11.87,18.08,13.61l11.43.32c13.89-2.25,24.59-9.23,28.5-23,1.87-6.55,4.91-9.26,10.94-10,.4-.05.78-.23,1.18-.3,12.07-2.07,23.28-1.52,33.4,7.12,8.08,6.9,17.22,12.62,29.41,10.61-.69,1-1,1.56-1.36,2-9,11.13-20.86,16.15-34.84,17.19a14.57,14.57,0,0,0-6.9,2.5,118.37,118.37,0,0,1-34.34,16.75l0,0-1,.26c-.89.25-1.77.53-2.67.76a2.25,2.25,0,0,1-.38,0l-3.76,1,.08.07c-.44.1-.89.16-1.33.25L441,506.35l-.29-.33c-12.34,1.84-24.13,1.19-35.44-3.25-12.69-5-25-10.88-37.3-16.88-12.79-6.27-25.95-8.86-40-6.05-4.85,1-9.71,1.85-14.56,2.76l-.67-.74C317,476.79,321.15,471.58,325.62,466.69Z" transform="translate(33.35 18.4)"/><path class="cls-3" d="M426.67,490.1c16.13,0,32.92-5.79,46.84-16.46l-2-2.62c-17,13-38.37,18.45-57.21,14.52-21.28-4.44-38.74-21.38-42.45-41.18l-3.25.61c4,21.08,22.47,39.09,45,43.8A63.71,63.71,0,0,0,426.67,490.1Z" transform="translate(33.35 18.4)"/><path class="cls-3" d="M481.74,466.15a28.71,28.71,0,0,0,4.85-7.42l-3-1.33a25.37,25.37,0,0,1-4.3,6.57Z" transform="translate(33.35 18.4)"/><path class="cls-3" d="M397.26,482.67l2-2.65c-12.28-9.11-12.92-27.77-12.92-27.95a32.63,32.63,0,0,1,3.89-17.95,26,26,0,0,1,7.59-8.81,33.11,33.11,0,0,1,11.41-4.86c8.15-2.07,15.34-2.11,21.39-.13s11.83,8.58,10.65,15.8l3.26.54c1.48-9.06-5.39-17-12.89-19.48-6.64-2.18-14.45-2.16-23.22.07a36.22,36.22,0,0,0-12.53,5.38,29.3,29.3,0,0,0-8.56,9.91A35.89,35.89,0,0,0,383,452.23C383,453,383.71,472.61,397.26,482.67Z" transform="translate(33.35 18.4)"/><path class="cls-3" d="M334.51,470.17c2.55-1.15,5.06-2.17,7.47-3L340.89,464c-2.5.88-5.11,1.93-7.74,3.12Z" transform="translate(33.35 18.4)"/><path class="cls-3" d="M387.86,476.34l1.9-2.7c-15.9-11.2-27.41-14.73-39.71-12.18l.68,3.23C362.19,462.31,372.59,465.58,387.86,476.34Z" transform="translate(33.35 18.4)"/></svg>