<svg id="Layer_1" data-name="Layer 1" xmlns="http://www.w3.org/2000/svg" viewBox="0 0 1769.49 1080"><defs><style>.cls-1{fill:#304a63;}.cls-2{fill:#fff;}.cls-3{fill:#e6b034;}</style></defs><title>7</title><rect class="cls-1" x="-33.35" y="-18.4" width="1863.75" height="1114.83"/><path class="cls-2" d="M786.27,663.32c-17.57-19.2-38.75-33.74-60.88-47h0l-8.88-5.83c-10.61-7.22-18.85-17.31-24.92-29.25-3.57-7-9.14-11.81-16.31-15a65.52,65.52,0,0,0-39.1-4.93c-14.56,2.6-27.69,7.59-39.28,18.27-12.1,11.15-16.84,23.12-13.72,38.7,1.55,7.7,3.35,15.37,5.32,23,4.17,16.08,14,26.38,30.33,31,17.26,4.84,35.06-2.15,43.38-18,10.56-20.16-9.53-39-24.21-38.39-10.21.43-14.66,8.28-9.35,17,1.17,1.9,2.7,3.59,4.06,5.38,2.27,3,.89,5.94-1.3,7.63-1.17.91-4.78.39-6-.8a36.94,36.94,0,0,1-11.55-24.23c-.49-6.15,3.21-11.75,9.38-12.87A68.53,68.53,0,0,1,642.3,607c16.13,1.69,28.67,11.93,32.05,25.8,1.15,4.72,1,9.74,1.4,13.85l-6.21,15.62c-5.71,11.55-15.62,18.85-28.71,21.61l-18.14.51c-22.06-3.57-39.05-14.65-45.27-36.54-2.95-10.4-7.79-14.7-17.37-15.89-.63-.08-1.24-.36-1.87-.46-19.17-3.3-37-2.42-53,11.3-12.82,11-27.34,20-46.71,16.85,1.11,1.64,1.58,2.47,2.17,3.2,14.21,17.68,33.13,25.65,55.33,27.31a23.1,23.1,0,0,1,11,4,188.29,188.29,0,0,0,54.54,26.61l0,0,1.61.41c1.41.4,2.8.83,4.23,1.2a6,6,0,0,0,.61,0l6,1.53a1.59,1.59,0,0,1-.13.13c.71.15,1.41.25,2.12.39l7.23,1.86.46-.52c19.6,2.91,38.31,1.88,56.27-5.17,20.15-7.92,39.77-17.28,59.23-26.81,20.32-10,41.21-14.06,63.57-9.6,7.69,1.54,15.4,2.93,23.11,4.39l1.07-1.18C799.92,679.37,793.37,671.09,786.27,663.32Z"/><path class="cls-3" d="M625.8,700.5c-25.62,0-52.27-9.19-74.38-26.14l3.19-4.16c27,20.69,60.94,29.3,90.84,23.06,33.81-7.06,61.53-34,67.43-65.4l5.15,1c-6.27,33.48-35.68,62.09-71.5,69.57A101.53,101.53,0,0,1,625.8,700.5Z"/><path class="cls-3" d="M538.34,662.47a46,46,0,0,1-7.69-11.79l4.8-2.11A40.86,40.86,0,0,0,542.29,659Z"/><path class="cls-3" d="M672.5,688.71l-3.12-4.21c19.49-14.47,20.51-44.1,20.51-44.4a51.83,51.83,0,0,0-6.17-28.49,41.24,41.24,0,0,0-12.05-14c-4.63-3.31-10.39-5.77-18.13-7.73-12.94-3.28-24.37-3.35-34-.21s-18.79,13.64-16.91,25.11l-5.18.85c-2.36-14.4,8.55-27,20.46-30.94,10.55-3.46,23-3.42,36.88.11,8.4,2.12,14.71,4.84,19.89,8.54a46.54,46.54,0,0,1,13.6,15.74,57,57,0,0,1,6.81,31.28C695.1,641.56,694,672.73,672.5,688.71Z"/><path class="cls-3" d="M772.15,668.85c-4-1.83-8-3.44-11.86-4.78l1.73-5c4,1.39,8.11,3.06,12.3,5Z"/><path class="cls-3" d="M687.43,678.65l-3-4.28c25.25-17.8,43.52-23.4,63.06-19.35l-1.07,5.14C728.21,656.38,711.68,661.56,687.43,678.65Z"/><path class="cls-2" d="M1244.23,611.71c-26.53-29-58.51-51-91.93-71l0,0-13.41-8.79c-16-10.91-28.47-26.14-37.64-44.17-5.38-10.58-13.79-17.84-24.63-22.72a98.9,98.9,0,0,0-59-7.45c-22,3.93-41.81,11.47-59.32,27.6C940,502,932.85,520,937.57,543.56c2.33,11.64,5.06,23.21,8,34.71,6.29,24.28,21.13,39.83,45.79,46.76,26.07,7.32,53-3.24,65.52-27.25,15.94-30.45-14.39-58.9-36.57-58-15.41.64-22.13,12.5-14.11,25.63a101.14,101.14,0,0,0,6.13,8.13c3.43,4.52,1.34,9-2,11.53-1.77,1.37-7.22.59-9.1-1.21a55.79,55.79,0,0,1-17.43-36.59c-.74-9.29,4.84-17.75,14.16-19.44a103.35,103.35,0,0,1,28.79-1.24c24.36,2.56,43.3,18,48.41,39,1.73,7.12,1.54,14.71,2.11,20.91L1068,610.09c-8.64,17.44-23.59,28.45-43.36,32.63l-27.4.77c-33.31-5.39-59-22.13-68.36-55.17-4.46-15.72-11.76-22.21-26.23-24-1-.11-1.87-.53-2.82-.7-28.95-5-55.83-3.65-80.09,17.08-19.37,16.54-41.3,30.25-70.55,25.43,1.67,2.49,2.39,3.73,3.27,4.84,21.47,26.7,50,38.73,83.57,41.24a34.78,34.78,0,0,1,16.52,6c25.48,17.72,52.75,31.47,82.37,40.18l0,0,2.41.62c2.13.61,4.24,1.26,6.4,1.81a6.85,6.85,0,0,0,.93.08l9,2.32-.2.18c1.07.23,2.13.38,3.2.59l10.91,2.81.7-.78c29.59,4.39,57.86,2.84,85-7.81,30.43-12,60.06-26.09,89.44-40.49,30.69-15,62.23-21.22,96-14.49,11.62,2.32,23.27,4.42,34.91,6.62l1.61-1.78C1264.85,635.94,1255,623.44,1244.23,611.71Z"/><path class="cls-3" d="M1001.91,667.84c-38.69,0-78.94-13.86-112.33-39.47l4.82-6.28c40.74,31.24,92,44.26,137.19,34.83,51-10.66,92.91-51.27,101.81-98.76l7.79,1.46c-9.48,50.55-53.88,93.75-108,105A153.11,153.11,0,0,1,1001.91,667.84Z"/><path class="cls-3" d="M869.84,610.41a68.91,68.91,0,0,1-11.62-17.8l7.25-3.19a61.48,61.48,0,0,0,10.32,15.77Z"/><path class="cls-3" d="M1072.43,650l-4.71-6.36c29.37-21.8,31-66.59,31-67v-.18a78.08,78.08,0,0,0-9.34-42.85,62.38,62.38,0,0,0-18.19-21.13c-7-5-15.69-8.7-27.38-11.66-19.54-5-36.79-5.07-51.28-.32S964.14,521.1,967,538.41l-7.81,1.28c-2.8-17.06,8-39.2,30.9-46.71,15.93-5.23,34.67-5.17,55.69.16,12.68,3.21,22.22,7.31,30,12.9a70.25,70.25,0,0,1,20.54,23.76A86.13,86.13,0,0,1,1106.61,577C1106.52,580.05,1104.52,626.22,1072.43,650Z"/><path class="cls-3" d="M1222.92,620.05c-6.11-2.76-12.14-5.19-17.92-7.22l2.62-7.47c6,2.1,12.24,4.62,18.56,7.48Z"/><path class="cls-3" d="M1095,634.85l-4.56-6.47c38.13-26.87,65.71-35.34,95.22-29.21l-1.61,7.75C1156.57,601.22,1131.59,609.05,1095,634.85Z"/><path class="cls-2" d="M575.54,478.87c11.07-12.09,24.4-21.25,38.34-29.62h0l5.59-3.66a48.44,48.44,0,0,0,15.7-18.42,20.42,20.42,0,0,1,10.27-9.48,41.24,41.24,0,0,1,24.62-3.1c9.17,1.64,17.43,4.78,24.73,11.51,7.63,7,10.61,14.55,8.64,24.36-1,4.86-2.11,9.68-3.35,14.48-2.62,10.12-8.81,16.61-19.09,19.5-10.88,3.05-22.09-1.35-27.33-11.37-6.64-12.69,6-24.56,15.26-24.17,6.42.27,9.22,5.21,5.88,10.69a41.25,41.25,0,0,1-2.56,3.39c-1.43,1.88-.56,3.74.82,4.8.74.58,3,.25,3.79-.5A23.23,23.23,0,0,0,684.11,452a7.36,7.36,0,0,0-5.9-8.1,42.82,42.82,0,0,0-12-.52c-10.15,1.07-18.05,7.51-20.18,16.25-.73,3-.64,6.13-.89,8.72l3.92,9.84c3.6,7.27,9.83,11.86,18.07,13.6l11.43.32c13.89-2.24,24.59-9.22,28.51-23,1.86-6.56,4.9-9.26,10.93-10,.4-.05.78-.23,1.18-.29,12.07-2.08,23.28-1.53,33.4,7.12,8.08,6.89,17.22,12.61,29.42,10.6-.7,1-1,1.56-1.37,2-9,11.13-20.86,16.15-34.84,17.2a14.45,14.45,0,0,0-6.89,2.49A118.83,118.83,0,0,1,704.54,515l0,0-1,.25c-.89.26-1.77.53-2.67.76a2.25,2.25,0,0,1-.38,0l-3.76,1,.09.07c-.45.1-.89.16-1.34.25l-4.55,1.17-.29-.32c-12.34,1.83-24.13,1.18-35.44-3.26-12.69-5-25-10.88-37.3-16.88-12.79-6.27-25.95-8.85-40-6.05-4.85,1-9.71,1.85-14.56,2.77l-.67-.75C566.94,489,571.07,483.76,575.54,478.87Z"/><path class="cls-3" d="M676.59,502.28c16.13,0,32.92-5.78,46.84-16.46l-2-2.62c-17,13-38.37,18.46-57.2,14.52-21.29-4.44-38.75-21.38-42.46-41.18l-3.25.61c4,21.08,22.47,39.1,45,43.81A64.41,64.41,0,0,0,676.59,502.28Z"/><path class="cls-3" d="M731.66,478.33a28.71,28.71,0,0,0,4.85-7.42l-3-1.33a25.11,25.11,0,0,1-4.3,6.57Z"/><path class="cls-3" d="M647.18,494.85l2-2.65c-12.28-9.11-12.92-27.76-12.92-27.95a32.59,32.59,0,0,1,3.89-17.94,26,26,0,0,1,7.59-8.82,33.11,33.11,0,0,1,11.41-4.86c8.15-2.07,15.35-2.11,21.39-.13s11.83,8.59,10.65,15.81l3.26.53c1.48-9.06-5.39-17-12.89-19.48-6.64-2.18-14.45-2.16-23.22.07a36.26,36.26,0,0,0-12.52,5.38,29.22,29.22,0,0,0-8.57,9.91,35.92,35.92,0,0,0-4.29,19.7C633,465.17,633.63,484.8,647.18,494.85Z"/><path class="cls-3" d="M584.43,482.35c2.55-1.15,5.06-2.17,7.47-3l-1.09-3.12c-2.5.88-5.11,1.93-7.74,3.12Z"/><path class="cls-3" d="M637.78,488.52l1.9-2.7c-15.9-11.2-27.41-14.73-39.7-12.18l.67,3.24C612.11,474.49,622.51,477.76,637.78,488.52Z"/><path class="cls-2" d="M1306.24,531.5c11.06-12.1,24.4-21.25,38.34-29.62h0l5.59-3.67a48.44,48.44,0,0,0,15.7-18.42,20.38,20.38,0,0,1,10.26-9.47,41.28,41.28,0,0,1,24.63-3.1c9.17,1.63,17.43,4.78,24.73,11.5,7.62,7,10.61,14.56,8.64,24.37-1,4.85-2.11,9.68-3.35,14.47-2.62,10.13-8.81,16.61-19.1,19.5-10.87,3.05-22.08-1.35-27.32-11.36-6.64-12.7,6-24.56,15.25-24.18,6.43.27,9.23,5.22,5.89,10.69a40.13,40.13,0,0,1-2.56,3.39c-1.43,1.89-.56,3.74.82,4.81.74.57,3,.25,3.79-.5a23.23,23.23,0,0,0,7.27-15.26,7.37,7.37,0,0,0-5.9-8.11,43.59,43.59,0,0,0-12-.52c-10.16,1.07-18.05,7.52-20.18,16.25-.73,3-.65,6.14-.89,8.73l3.91,9.83c3.6,7.28,9.84,11.87,18.08,13.61l11.43.32c13.89-2.25,24.59-9.23,28.5-23,1.87-6.55,4.91-9.26,10.94-10,.4-.05.78-.22,1.18-.29,12.07-2.07,23.28-1.52,33.4,7.12,8.07,6.9,17.22,12.62,29.41,10.61-.69,1-1,1.55-1.36,2-9,11.14-20.86,16.16-34.85,17.2a14.66,14.66,0,0,0-6.89,2.49,118.15,118.15,0,0,1-34.34,16.76l0,0-1,.26c-.89.25-1.77.52-2.67.75-.11,0-.25,0-.38,0l-3.76,1,.08.08-1.33.25-4.55,1.17-.29-.33c-12.35,1.83-24.13,1.19-35.44-3.25-12.69-5-25-10.88-37.3-16.89-12.8-6.27-25.95-8.85-40-6-4.84,1-9.7,1.84-14.55,2.76l-.67-.74C1297.64,541.6,1301.77,536.39,1306.24,531.5Z"/><path class="cls-3" d="M1407.29,554.9c16.13,0,32.92-5.78,46.84-16.45l-2-2.63c-17,13-38.37,18.46-57.21,14.53-21.28-4.44-38.74-21.38-42.45-41.18l-3.25.6c4,21.09,22.47,39.1,45,43.81A63.71,63.71,0,0,0,1407.29,554.9Z"/><path class="cls-3" d="M1462.36,531a29,29,0,0,0,4.85-7.43l-3-1.33a25.58,25.58,0,0,1-4.3,6.58Z"/><path class="cls-3" d="M1377.88,547.48l2-2.65c-12.28-9.11-12.92-27.77-12.92-28a32.61,32.61,0,0,1,3.89-17.94,26.07,26.07,0,0,1,7.58-8.81,33.25,33.25,0,0,1,11.42-4.86c8.15-2.07,15.34-2.12,21.38-.14s11.84,8.59,10.66,15.81l3.26.54c1.48-9.07-5.39-17-12.89-19.48-6.64-2.18-14.46-2.16-23.22.06a36.32,36.32,0,0,0-12.53,5.38,29.49,29.49,0,0,0-8.56,9.91,35.94,35.94,0,0,0-4.29,19.7C1363.65,517.79,1364.33,537.42,1377.88,547.48Z"/><path class="cls-3" d="M1315.13,535c2.54-1.16,5.06-2.17,7.47-3l-1.09-3.12c-2.5.88-5.11,1.93-7.74,3.12Z"/><path class="cls-3" d="M1368.48,541.15l1.9-2.7c-15.9-11.21-27.41-14.73-39.71-12.18l.67,3.23C1342.8,527.12,1353.21,530.39,1368.48,541.15Z"/></svg>