<svg xmlns="http://www.w3.org/2000/svg" viewBox="0 0 218.66 95.02"><title>Asset 1</title><g id="Layer_2" data-name="Layer 2"><g id="Layer_1-2" data-name="Layer 1"><path d="M10.26,63.24C19,53.7,29.51,46.47,40.51,39.87h0L44.93,37A38.45,38.45,0,0,0,57.32,22.44,16.13,16.13,0,0,1,65.42,15a32.47,32.47,0,0,1,19.43-2.45c7.24,1.29,13.77,3.77,19.53,9.08,6,5.54,8.37,11.48,6.81,19.23-.76,3.83-1.66,7.64-2.64,11.43-2.07,8-7,13.1-15.07,15.39-8.58,2.41-17.43-1.07-21.56-9-5.25-10,4.73-19.39,12-19.08,5.07.21,7.29,4.11,4.65,8.43-.62.92-1.29,1.82-2,2.68A2.57,2.57,0,0,0,87,54.29l.23.17a3.19,3.19,0,0,0,3-.39,18.34,18.34,0,0,0,5.73-12,5.8,5.8,0,0,0-4.66-6.39,33.41,33.41,0,0,0-9.47-.41c-8,.84-14.25,5.93-15.93,12.82a45.32,45.32,0,0,0-.7,6.89l3.09,7.76c2.84,5.74,7.76,9.36,14.27,10.74l9,.25c11-1.77,19.4-7.28,22.49-18.16,1.47-5.17,3.87-7.31,8.63-7.9a5.06,5.06,0,0,0,.93-.23C133.12,45.76,142,46.19,150,53c6.38,5.45,13.59,10,23.22,8.37-.55.82-.78,1.23-1.08,1.6-7.06,8.78-16.46,12.74-27.5,13.57a11.49,11.49,0,0,0-5.44,2,93.85,93.85,0,0,1-27.1,13.23h0l-.79.2c-.7.2-1.4.41-2.11.6h-.3l-3,.76.07.07-1.06.19-3.59.92-.23-.25c-9.74,1.44-19,.93-28-2.57-10-3.94-19.76-8.59-29.43-13.33-10.1-5-20.48-7-31.59-4.77-3.83.77-7.66,1.46-11.49,2.18-.18-.19-.36-.39-.53-.59C3.51,71.22,6.72,67.1,10.26,63.24Z" style="fill:#fff"/><path d="M90,81.72a61.68,61.68,0,0,0,37-13l-1.59-2.07C112,76.93,95.13,81.21,80.27,78.11c-16.8-3.51-30.58-16.87-33.51-32.5l-2.56.48c3.12,16.64,17.73,30.85,35.54,34.57A51.36,51.36,0,0,0,90,81.72Z" style="fill:#e5af34"/><path d="M133.51,62.82A23,23,0,0,0,137.34,57L135,55.91a20.5,20.5,0,0,1-3.4,5.19Z" style="fill:#e5af34"/><path d="M66.8,75.86l1.55-2.1c-9.69-7.19-10.19-21.91-10.2-22.06a25.82,25.82,0,0,1,3.07-14.16,20.39,20.39,0,0,1,6-6.95,25.77,25.77,0,0,1,9-3.84c6.43-1.63,12.11-1.67,16.88-.11s9.34,6.78,8.41,12.48l2.57.42c1.17-7.15-4.25-13.43-10.17-15.37-5.24-1.72-11.41-1.71-18.33,0a28.87,28.87,0,0,0-9.89,4.24,22.93,22.93,0,0,0-6.75,7.83,28.21,28.21,0,0,0-3.43,15.54C55.57,52.43,56.1,67.92,66.8,75.86Z" style="fill:#e5af34"/><path d="M17.27,66c2-.91,4-1.71,5.9-2.38l-.87-2.46c-2,.69-4,1.52-6.1,2.46Z" style="fill:#e5af34"/><path d="M59.38,70.86l1.5-2.13C48.33,59.88,39.24,57.1,29.54,59.11l.53,2.56C39.11,59.79,47.33,62.37,59.38,70.86Z" style="fill:#e5af34"/><path d="M133,26.94c4.59-5,10.12-8.81,15.91-12.28h0l2.32-1.52a20.2,20.2,0,0,0,6.51-7.64A8.37,8.37,0,0,1,162,1.57,17.1,17.1,0,0,1,172.26.28a19.46,19.46,0,0,1,10.25,4.77c3.16,2.91,4.4,6,3.58,10.1-.4,2-.87,4-1.39,6a10.61,10.61,0,0,1-7.92,8.09,9.62,9.62,0,0,1-11.33-4.72c-2.76-5.26,2.49-10.19,6.32-10,2.67.12,3.83,2.17,2.44,4.44-.33.48-.68,1-1.06,1.41a1.34,1.34,0,0,0,.2,1.89l.14.11a1.68,1.68,0,0,0,1.58-.21,9.66,9.66,0,0,0,3-6.33,3,3,0,0,0-2.45-3.36,17.84,17.84,0,0,0-5-.22c-4.21.45-7.49,3.12-8.37,6.74a24.27,24.27,0,0,0-.37,3.62l1.63,4.05a10.43,10.43,0,0,0,7.5,5.65l4.74.13c5.77-.93,10.2-3.83,11.83-9.54.77-2.72,2-3.84,4.54-4.16a2.81,2.81,0,0,0,.48-.12c5-.86,9.66-.63,13.86,3,3.35,2.86,7.14,5.23,12.2,4.4-.29.43-.41.64-.56.83-3.72,4.62-8.66,6.7-14.46,7.14a5.89,5.89,0,0,0-2.86,1,49.07,49.07,0,0,1-14.27,6.94h0l-.41.11c-.37.1-.74.22-1.11.31h-.16l-1.56.41h0l-.55.1-1.89.49-.12-.14A28.2,28.2,0,0,1,166,41.86c-5.26-2.07-10.39-4.51-15.47-7a25.36,25.36,0,0,0-16.6-2.51c-2,.4-4,.76-6,1.15l-.28-.31C129.51,31.16,131.19,29,133,26.94Z" style="fill:#fff"/><path d="M175,36.65a32.49,32.49,0,0,0,19.43-6.82l-.83-1.09c-7,5.4-15.92,7.65-23.73,6-8.83-1.84-16.08-8.87-17.62-17.08l-1.34.25c1.64,8.77,9.32,16.25,18.64,18.19A27,27,0,0,0,175,36.65Z" style="fill:#e5af34"/><path d="M197.81,26.72a12.25,12.25,0,0,0,2-3.08l-1.26-.55a10.88,10.88,0,0,1-1.78,2.73Z" style="fill:#e5af34"/><path d="M162.76,33.57l.82-1.1c-5.09-3.78-5.36-11.52-5.36-11.59a13.49,13.49,0,0,1,1.61-7.45A10.75,10.75,0,0,1,163,9.78a13.46,13.46,0,0,1,4.73-2,15.69,15.69,0,0,1,8.88,0c2.5.82,4.91,3.56,4.41,6.55l1.36.23c.61-3.76-2.24-7.07-5.35-8.09a17.15,17.15,0,0,0-9.63,0,15,15,0,0,0-5.2,2.23,12.15,12.15,0,0,0-3.55,4.12,14.88,14.88,0,0,0-1.78,8.17C156.86,21.26,157.14,29.4,162.76,33.57Z" style="fill:#e5af34"/><path d="M136.73,28.39c1.06-.48,2.1-.9,3.1-1.25l-.45-1.3c-1,.37-2.12.8-3.22,1.3Z" style="fill:#e5af34"/><path d="M158.86,31l.79-1.12c-6.6-4.65-11.37-6.11-16.47-5.06l.33,1.39C148.21,25.16,152.51,26.48,158.86,31Z" style="fill:#e5af34"/></g></g></svg>