<?xml version="1.0" encoding="UTF-8" standalone="no"?>
<!DOCTYPE svg PUBLIC "-//W3C//DTD SVG 1.1//EN" "http://www.w3.org/Graphics/SVG/1.1/DTD/svg11.dtd">
<svg version="1.1" xmlns="http://www.w3.org/2000/svg" xmlns:xlink="http://www.w3.org/1999/xlink" preserveAspectRatio="xMidYMid meet" viewBox="-0.8499999999999943 73.74372115625111 249.85 100.51255768749782" width="245.85" height="96.51"><defs><path d="M80.5 109.04C80.5 109.04 80.5 109.04 80.5 109.04C78.9 107.99 78.01 107.41 77.83 107.29C74.64 105.11 72.17 102.08 70.33 98.48C69.28 96.44 67.54 94.84 65.42 93.95C61.74 92.26 57.63 91.75 53.65 92.47C49.27 93.25 45.32 94.76 41.83 97.97C38.18 101.33 36.76 104.93 37.7 109.62C38.16 111.95 38.7 114.25 39.3 116.54C40.55 121.38 43.51 124.48 48.43 125.87C53.62 127.33 58.98 125.22 61.49 120.44C64.66 114.37 58.62 108.7 54.2 108.88C51.12 109.01 49.79 111.37 51.38 113.99C51.76 114.55 52.17 115.09 52.61 115.61C53.29 116.51 52.87 117.4 52.22 117.91C51.86 118.18 50.78 118.03 50.4 117.67C48.37 115.76 47.13 113.16 46.93 110.37C46.78 108.52 47.89 106.84 49.75 106.5C51.64 106.15 53.57 106.07 55.49 106.25C60.34 106.76 64.12 109.84 65.14 114.02C65.47 115.44 65.45 116.95 65.56 118.19C65.37 118.66 63.88 122.4 63.7 122.86C61.98 126.34 59 128.53 55.06 129.37C54.51 129.39 50.14 129.51 49.59 129.52C42.95 128.45 37.84 125.11 35.97 118.52C35.08 115.39 33.63 114.1 30.74 113.74C30.55 113.72 30.37 113.63 30.18 113.6C24.4 112.6 19.05 112.87 14.21 117C10.35 120.3 5.98 123.03 0.15 122.07C0.48 122.57 0.62 122.82 0.82 123.04C5.1 128.37 10.79 130.76 17.48 131.26C18.66 131.37 19.8 131.78 20.78 132.45C25.78 135.99 31.33 138.69 37.2 140.45C37.2 140.45 37.2 140.45 37.2 140.45C37.48 140.53 37.64 140.57 37.68 140.57C38.1 140.69 38.52 140.82 38.95 140.93C39.01 140.94 39.08 140.95 39.14 140.95C39.26 140.98 39.86 141.14 40.93 141.41C40.91 141.44 40.9 141.45 40.89 141.45C41.11 141.49 41.32 141.52 41.53 141.57C41.68 141.61 42.4 141.79 43.71 142.13C43.79 142.03 43.84 141.98 43.85 141.97C49.75 142.85 55.38 142.54 60.79 140.41C66.85 138.03 72.76 135.21 78.62 132.34C84.73 129.34 91.02 128.11 97.75 129.45C100.07 129.92 102.39 130.34 104.71 130.79C104.82 130.67 104.92 130.55 105.04 130.43C102.94 128.03 100.97 125.53 98.83 123.2C93.55 117.42 87.17 113.04 80.5 109.04Z" id="bGXpGGE3t"></path><path d="M28.14 126.52C28.24 126.4 29 125.39 29.1 125.27C37.22 131.49 47.43 134.09 56.43 132.21C66.62 130.08 74.97 121.99 76.74 112.53C76.9 112.56 78.14 112.79 78.29 112.82C76.4 122.9 67.55 131.51 56.77 133.76C54.72 134.18 52.63 134.39 50.53 134.39C42.82 134.39 34.79 131.62 28.14 126.52Z" id="aw8doopHC"></path><path d="M24.2 122.94C23.25 121.88 22.46 120.69 21.87 119.39C22.01 119.33 23.17 118.82 23.32 118.76C23.84 119.91 24.53 120.96 25.37 121.9C25.14 122.11 24.44 122.73 24.2 122.94Z" id="h3oWO3gBKW"></path><path d="M63.65 129.57C69.52 125.21 69.82 116.3 69.82 116.21C70.04 113.23 69.4 110.25 67.97 107.63C67.1 105.97 65.86 104.53 64.35 103.42C62.95 102.42 61.22 101.68 58.89 101.09C54.99 100.09 51.56 100.09 48.67 101.02C45.78 101.96 43 105.13 43.58 108.58C43.42 108.61 42.18 108.81 42.02 108.83C41.31 104.5 44.59 100.7 48.18 99.52C51.35 98.48 55.09 98.49 59.28 99.56C61.81 100.2 63.71 101.01 65.28 102.13C66.98 103.38 68.37 105 69.35 106.86C70.92 109.74 71.63 113.01 71.4 116.28C71.39 116.65 71.07 126.03 64.59 130.84C64.4 130.58 63.74 129.7 63.65 129.57Z" id="bJPXykmtD"></path><path d="M94.59 124.86C93.37 124.31 92.17 123.83 91.01 123.42C91.07 123.28 91.48 122.08 91.54 121.93C92.73 122.35 93.98 122.86 95.24 123.43C95.11 123.72 94.72 124.58 94.59 124.86Z" id="dWiw023Yl"></path><path d="M68.17 126.53C75.77 121.17 81.27 119.49 87.15 120.71C87.12 120.86 86.85 122.1 86.82 122.25C81.36 121.11 76.38 122.67 69.08 127.81C68.9 127.56 68.26 126.66 68.17 126.53Z" id="bmji6Olm5"></path><path d="M209.02 100.25C209.02 100.25 209.02 100.25 209.02 100.25C206.59 98.66 205.24 97.78 204.97 97.6C200.15 94.32 196.4 89.73 193.64 84.3C192.02 81.12 189.49 78.93 186.23 77.47C180.67 74.91 174.47 74.13 168.45 75.22C161.83 76.41 155.87 78.68 150.6 83.53C145.1 88.6 142.93 94.04 144.36 101.12C145.06 104.62 145.88 108.12 146.78 111.57C148.67 118.88 153.14 123.57 160.56 125.64C168.41 127.85 176.5 124.67 180.29 117.44C185.08 108.28 175.95 99.71 169.29 99.99C164.65 100.18 162.62 103.75 165.04 107.71C165.57 108.57 166.27 109.34 166.88 110.15C167.92 111.52 167.29 112.85 166.3 113.62C165.76 114.04 164.12 113.8 163.56 113.26C160.49 110.38 158.61 106.45 158.31 102.24C158.08 99.45 159.76 96.91 162.57 96.4C165.43 95.87 168.34 95.74 171.24 96.02C178.57 96.79 184.27 101.44 185.81 107.75C186.33 109.89 186.27 112.18 186.45 114.05C186.16 114.76 183.91 120.44 183.62 121.15C181.03 126.4 176.52 129.71 170.57 130.97C169.75 130.99 163.15 131.18 162.32 131.2C152.3 129.58 144.57 124.54 141.75 114.59C140.41 109.86 138.21 107.91 133.85 107.37C133.56 107.33 133.29 107.21 133 107.16C124.29 105.66 116.2 106.06 108.89 112.3C103.06 117.28 96.46 121.4 87.66 119.96C88.16 120.71 88.38 121.09 88.64 121.42C95.1 129.46 103.7 133.09 113.8 133.83C115.58 134 117.29 134.62 118.77 135.63C126.44 140.97 134.65 145.11 143.56 147.73C143.56 147.73 143.56 147.73 143.56 147.73C144 147.84 144.24 147.91 144.29 147.92C144.93 148.1 145.57 148.3 146.22 148.46C146.31 148.48 146.4 148.49 146.49 148.48C146.67 148.53 147.58 148.76 149.21 149.18C149.17 149.22 149.15 149.24 149.15 149.24C149.48 149.31 149.79 149.35 150.11 149.42C150.33 149.47 151.42 149.76 153.4 150.26C153.52 150.12 153.59 150.04 153.61 150.03C162.51 151.36 171.02 150.88 179.19 147.69C188.35 144.09 197.26 139.84 206.11 135.51C215.35 130.98 224.84 129.12 235.01 131.14C238.5 131.84 242.01 132.48 245.51 133.14C245.67 132.96 245.85 132.78 246 132.61C242.9 128.93 239.92 125.17 236.69 121.63C228.69 112.9 219.08 106.3 209.02 100.25Z" id="b1ZKQXGr9E"></path><path d="M129.93 126.65C130.08 126.46 131.24 124.95 131.39 124.76C143.65 134.16 159.09 138.09 172.68 135.24C188.05 132.03 200.65 119.81 203.35 105.51C203.58 105.56 205.45 105.91 205.68 105.95C202.83 121.17 189.46 134.17 173.17 137.57C170.07 138.22 166.91 138.54 163.75 138.53C152.1 138.53 139.98 134.35 129.93 126.65Z" id="b45BlEidR"></path><path d="M123.99 121.24C122.56 119.65 121.38 117.84 120.49 115.89C120.71 115.79 122.46 115.02 122.68 114.93C123.46 116.66 124.51 118.26 125.78 119.67C125.42 119.99 124.35 120.93 123.99 121.24Z" id="b7nFBzxnl"></path><path d="M183.55 131.26C192.39 124.7 192.89 111.21 192.89 111.08C192.89 111.08 192.89 111.03 192.89 111.02C193.2 106.55 192.23 102.07 190.08 98.13C188.76 95.62 186.88 93.45 184.6 91.77C182.5 90.26 179.88 89.15 176.36 88.25C170.48 86.76 165.28 86.73 160.92 88.16C156.56 89.59 152.38 94.36 153.23 99.57C153 99.61 151.12 99.92 150.88 99.96C150.04 94.82 153.29 88.15 160.18 85.89C164.98 84.32 170.62 84.34 176.95 85.94C180.76 86.91 183.63 88.14 185.99 89.83C188.56 91.72 190.68 94.16 192.17 96.98C194.53 101.32 195.61 106.25 195.27 111.17C195.24 112.11 194.64 126 184.97 133.17C184.69 132.79 183.7 131.45 183.55 131.26Z" id="a4fqPohKI"></path><path d="M230.28 124.15C228.43 123.31 226.61 122.58 224.88 121.97C224.96 121.75 225.59 119.95 225.67 119.72C227.47 120.36 229.35 121.11 231.26 121.97C231.06 122.41 230.47 123.71 230.28 124.15Z" id="buyMz3gIa"></path><path d="M190.39 126.65C201.87 118.56 210.17 116.02 219.06 117.86C219.01 118.09 218.62 119.96 218.57 120.19C210.31 118.48 202.78 120.83 191.76 128.6C191.49 128.21 190.53 126.85 190.39 126.65Z" id="b7QixVNF7C"></path><path d="M113 151.12C113 151.12 113 151.12 113 151.12C112.03 150.48 111.49 150.13 111.39 150.06C109.46 148.7 107.9 146.87 106.86 144.75C106.23 143.52 105.18 142.55 103.9 142.02C101.68 141 99.21 140.69 96.8 141.12C94.16 141.6 91.78 142.5 89.67 144.46C87.48 146.48 86.62 148.65 87.18 151.48C87.46 152.88 87.79 154.27 88.15 155.65C88.91 158.57 90.69 160.44 93.65 161.28C96.79 162.16 100.02 160.89 101.53 158C103.45 154.33 99.8 150.92 97.13 151.03C95.28 151.11 94.47 152.53 95.44 154.11C95.65 154.45 95.93 154.76 96.17 155.09C96.5 155.5 96.43 156.09 96.03 156.42C96 156.44 95.97 156.46 95.94 156.48C95.57 156.62 95.16 156.56 94.85 156.33C93.62 155.18 92.87 153.61 92.75 151.93C92.62 150.83 93.36 149.81 94.45 149.6C95.59 149.39 96.76 149.34 97.91 149.45C100.84 149.76 103.12 151.61 103.73 154.12C103.88 154.95 103.96 155.79 103.99 156.63C103.87 156.91 102.97 159.18 102.86 159.47C101.82 161.56 100.02 162.89 97.65 163.39C97.32 163.4 94.68 163.48 94.35 163.48C90.35 162.82 87.26 160.82 86.14 156.85C85.6 154.96 84.72 154.18 82.98 153.96C82.87 153.96 82.76 153.9 82.65 153.88C79.17 153.28 75.94 153.44 73.02 155.93C70.69 157.93 68.06 159.57 64.54 158.99C64.74 159.29 64.83 159.44 64.93 159.57C67.51 162.78 70.93 164.24 74.98 164.53C75.7 164.59 76.39 164.84 76.98 165.25C80 167.38 83.34 169.02 86.88 170.08C86.88 170.08 86.88 170.08 86.88 170.08C87.06 170.13 87.15 170.15 87.17 170.16C87.43 170.23 87.68 170.31 87.94 170.37C87.98 170.38 88.02 170.38 88.05 170.37C88.13 170.39 88.49 170.49 89.14 170.65L89.11 170.67L89.5 170.74L90.81 171.08C90.86 171.02 90.89 170.99 90.89 170.98C94.45 171.51 97.85 171.31 101.11 170.04C104.78 168.61 108.33 166.91 111.86 165.18C115.55 163.37 119.34 162.62 123.4 163.43C124.8 163.71 126.2 163.96 127.6 164.23C127.62 164.21 127.77 164.04 127.79 164.01C126.53 162.57 125.34 161.07 124.05 159.65C120.86 156.17 117.02 153.53 113 151.12Z" id="aVeq18x9T"></path><path d="M81.41 161.66C81.47 161.58 81.94 160.98 81.99 160.9C86.89 164.66 93.06 166.24 98.49 165.09C104.62 163.81 109.66 158.93 110.73 153.22C110.82 153.24 111.57 153.38 111.66 153.39C110.52 159.47 105.18 164.66 98.66 166.02C97.43 166.28 96.18 166.41 94.92 166.4C90.25 166.4 85.43 164.74 81.41 161.66Z" id="a5mGAsq0AO"></path><path d="M79.04 159.5C78.47 158.86 78 158.14 77.64 157.36C77.73 157.32 78.43 157.02 78.52 156.98C78.83 157.67 79.25 158.31 79.76 158.87C79.61 159 79.18 159.38 79.04 159.5Z" id="a51MU7tN1"></path><path d="M102.83 163.5C106.37 160.87 106.55 155.5 106.55 155.44C106.68 153.65 106.3 151.85 105.43 150.27C104.91 149.27 104.16 148.4 103.25 147.73C102.25 147.06 101.13 146.58 99.95 146.32C97.62 145.73 95.53 145.71 93.79 146.29C92.05 146.86 90.38 148.76 90.72 150.84C90.63 150.86 89.87 150.98 89.78 151C89.35 148.38 91.33 146.09 93.49 145.38C95.41 144.75 97.66 144.76 100.19 145.4C101.48 145.69 102.7 146.21 103.8 146.95C104.83 147.71 105.67 148.68 106.27 149.81C107.21 151.54 107.64 153.51 107.5 155.48C107.5 155.7 107.31 161.36 103.4 164.26C103.28 164.11 102.89 163.57 102.83 163.5Z" id="esgrK0Pwp"></path><path d="M121.49 160.66C120.75 160.32 120.03 160.03 119.33 159.79C119.36 159.7 119.62 158.98 119.65 158.89C120.37 159.14 121.12 159.45 121.88 159.79C121.8 159.96 121.57 160.48 121.49 160.66Z" id="b2djdAXHw2"></path><path d="M105.56 161.66C110.14 158.43 113.46 157.41 117.01 158.15C116.99 158.24 116.83 158.99 116.81 159.08C113.51 158.39 110.51 159.34 106.11 162.44C106 162.28 105.61 161.74 105.56 161.66Z" id="a205bJoqOT"></path></defs><g><g><use xlink:href="#bGXpGGE3t" opacity="1" fill="#ffffff" fill-opacity="1"></use><g><use xlink:href="#bGXpGGE3t" opacity="1" fill-opacity="0" stroke="#000000" stroke-width="1" stroke-opacity="0"></use></g></g><g><use xlink:href="#aw8doopHC" opacity="1" fill="#e5af34" fill-opacity="1"></use><g><use xlink:href="#aw8doopHC" opacity="1" fill-opacity="0" stroke="#000000" stroke-width="1" stroke-opacity="0"></use></g></g><g><use xlink:href="#h3oWO3gBKW" opacity="1" fill="#e5af34" fill-opacity="1"></use><g><use xlink:href="#h3oWO3gBKW" opacity="1" fill-opacity="0" stroke="#000000" stroke-width="1" stroke-opacity="0"></use></g></g><g><use xlink:href="#bJPXykmtD" opacity="1" fill="#e5af34" fill-opacity="1"></use><g><use xlink:href="#bJPXykmtD" opacity="1" fill-opacity="0" stroke="#000000" stroke-width="1" stroke-opacity="0"></use></g></g><g><use xlink:href="#dWiw023Yl" opacity="1" fill="#e5af34" fill-opacity="1"></use><g><use xlink:href="#dWiw023Yl" opacity="1" fill-opacity="0" stroke="#000000" stroke-width="1" stroke-opacity="0"></use></g></g><g><use xlink:href="#bmji6Olm5" opacity="1" fill="#e5af34" fill-opacity="1"></use><g><use xlink:href="#bmji6Olm5" opacity="1" fill-opacity="0" stroke="#000000" stroke-width="1" stroke-opacity="0"></use></g></g><g><use xlink:href="#b1ZKQXGr9E" opacity="1" fill="#ffffff" fill-opacity="1"></use><g><use xlink:href="#b1ZKQXGr9E" opacity="1" fill-opacity="0" stroke="#000000" stroke-width="1" stroke-opacity="0"></use></g></g><g><use xlink:href="#b45BlEidR" opacity="1" fill="#e5af34" fill-opacity="1"></use><g><use xlink:href="#b45BlEidR" opacity="1" fill-opacity="0" stroke="#000000" stroke-width="1" stroke-opacity="0"></use></g></g><g><use xlink:href="#b7nFBzxnl" opacity="1" fill="#e5af34" fill-opacity="1"></use><g><use xlink:href="#b7nFBzxnl" opacity="1" fill-opacity="0" stroke="#000000" stroke-width="1" stroke-opacity="0"></use></g></g><g><use xlink:href="#a4fqPohKI" opacity="1" fill="#e5af34" fill-opacity="1"></use><g><use xlink:href="#a4fqPohKI" opacity="1" fill-opacity="0" stroke="#000000" stroke-width="1" stroke-opacity="0"></use></g></g><g><use xlink:href="#buyMz3gIa" opacity="1" fill="#e5af34" fill-opacity="1"></use><g><use xlink:href="#buyMz3gIa" opacity="1" fill-opacity="0" stroke="#000000" stroke-width="1" stroke-opacity="0"></use></g></g><g><use xlink:href="#b7QixVNF7C" opacity="1" fill="#e5af34" fill-opacity="1"></use><g><use xlink:href="#b7QixVNF7C" opacity="1" fill-opacity="0" stroke="#000000" stroke-width="1" stroke-opacity="0"></use></g></g><g><use xlink:href="#aVeq18x9T" opacity="1" fill="#ffffff" fill-opacity="1"></use><g><use xlink:href="#aVeq18x9T" opacity="1" fill-opacity="0" stroke="#000000" stroke-width="1" stroke-opacity="0"></use></g></g><g><use xlink:href="#a5mGAsq0AO" opacity="1" fill="#e5af34" fill-opacity="1"></use><g><use xlink:href="#a5mGAsq0AO" opacity="1" fill-opacity="0" stroke="#000000" stroke-width="1" stroke-opacity="0"></use></g></g><g><use xlink:href="#a51MU7tN1" opacity="1" fill="#e5af34" fill-opacity="1"></use><g><use xlink:href="#a51MU7tN1" opacity="1" fill-opacity="0" stroke="#000000" stroke-width="1" stroke-opacity="0"></use></g></g><g><use xlink:href="#esgrK0Pwp" opacity="1" fill="#e5af34" fill-opacity="1"></use><g><use xlink:href="#esgrK0Pwp" opacity="1" fill-opacity="0" stroke="#000000" stroke-width="1" stroke-opacity="0"></use></g></g><g><use xlink:href="#b2djdAXHw2" opacity="1" fill="#e5af34" fill-opacity="1"></use><g><use xlink:href="#b2djdAXHw2" opacity="1" fill-opacity="0" stroke="#000000" stroke-width="1" stroke-opacity="0"></use></g></g><g><use xlink:href="#a205bJoqOT" opacity="1" fill="#e5af34" fill-opacity="1"></use><g><use xlink:href="#a205bJoqOT" opacity="1" fill-opacity="0" stroke="#000000" stroke-width="1" stroke-opacity="0"></use></g></g></g></svg>