<svg xmlns="http://www.w3.org/2000/svg" viewBox="0 0 389.58 235.77"><title>Asset 1</title><g id="Layer_2" data-name="Layer 2"><g id="Layer_1-2" data-name="Layer 1"><path d="M166.84,132c0,8.66-7.06,14.75-15.36,14.62,8.3.13,15.2,6.64,15.41,14.54-.21-7.9,6.35-14.2,14.66-14.08A15.13,15.13,0,0,1,166.84,132Z" style="fill:#fff"/><path d="M7.57,63.34A7.22,7.22,0,0,1,.34,70.55H0a7.61,7.61,0,0,1,7.59,7.17,6.89,6.89,0,0,1,6.83-6.95h.4A7.45,7.45,0,0,1,7.57,63.34Z" style="fill:#fff"/><path d="M279.57,0a7.24,7.24,0,0,1-7.26,7.22H272a7.61,7.61,0,0,1,7.6,7.17,6.89,6.89,0,0,1,6.83-7h.4A7.46,7.46,0,0,1,279.57,0Z" style="fill:#fff"/><path d="M382.33,63.34a7.22,7.22,0,0,1-7.23,7.21h-.34a7.63,7.63,0,0,1,7.6,7.17,6.88,6.88,0,0,1,6.81-6.95h.41A7.45,7.45,0,0,1,382.33,63.34Z" style="fill:#fff"/><path d="M102,218.3a8.78,8.78,0,0,1-8.79,8.77H92.8a9.25,9.25,0,0,1,9.23,8.71,8.37,8.37,0,0,1,8.3-8.44h.49A9.08,9.08,0,0,1,102,218.3Z" style="fill:#fff"/></g></g></svg>