<svg id="Layer_1" data-name="Layer 1" xmlns="http://www.w3.org/2000/svg" xmlns:xlink="http://www.w3.org/1999/xlink" viewBox="0 0 929 756"><defs><style>.cls-1{fill:url(#linear-gradient);}.cls-2{fill:url(#linear-gradient-2);}</style><linearGradient id="linear-gradient" x1="2515.5" y1="569.69" x2="2517.6" y2="204.49" gradientTransform="translate(-2042.69)" gradientUnits="userSpaceOnUse"><stop offset="0.23" stop-color="#b66f1e" stop-opacity="0"/><stop offset="1" stop-color="#b66f1e" stop-opacity="0.8"/></linearGradient><linearGradient id="linear-gradient-2" x1="2275.58" y1="377.42" x2="2276.23" y2="264.58" xlink:href="#linear-gradient"/></defs><title>awan</title><path class="cls-1" d="M890,464.82l0-.07c-.46-.78-1-1.54-1.47-2.27l-.13-.17q-.75-1-1.59-2l-.24-.27c-.54-.6-1.09-1.19-1.67-1.75l-.4-.36c-.55-.51-1.11-1-1.69-1.47-.19-.16-.39-.29-.59-.44-.55-.42-1.1-.83-1.68-1.21-.26-.17-.53-.32-.8-.49-.53-.33-1.07-.66-1.62-.95-.34-.18-.69-.33-1-.5-.51-.25-1-.5-1.54-.72s-.85-.31-1.28-.47-1-.36-1.44-.51-1-.27-1.55-.4-.85-.23-1.28-.32c-.65-.13-1.3-.21-2-.29-.33,0-.66-.12-1-.15-1-.1-2-.16-3-.16a30,30,0,0,0-13.56,3.25,42.52,42.52,0,0,0-3.33-4A45.23,45.23,0,0,0,819.49,435a45.71,45.71,0,0,0-5.52-.33,44.56,44.56,0,0,0-9.09.95c-1,.21-2,.44-2.91.7a45.34,45.34,0,0,0-65.07-31,74.71,74.71,0,0,0,1.79-11.86c.1-1.52.17-3,.17-4.6a72.23,72.23,0,0,0-92.49-69.42,72.26,72.26,0,0,0-71.74-63.51,72,72,0,0,0-49.27,19.44c-.86.8-1.7,1.62-2.52,2.47a108.64,108.64,0,0,0-22.26-16A107.48,107.48,0,0,0,370.42,283.1q-3,3.18-5.65,6.58a108,108,0,0,0-19.57,38.91,72.74,72.74,0,0,0-7.56-.4,71.83,71.83,0,0,0-46.81,17.27,72.71,72.71,0,0,0-18.17,23.48,45.11,45.11,0,0,0-45.51,8.37c-1,.87-2,1.79-2.87,2.75a45.34,45.34,0,0,0-12.18,25A45.33,45.33,0,0,0,145.65,431c-.37,1.25-.7,2.51-1,3.8a45.09,45.09,0,0,0-48.46,16.79,30.2,30.2,0,1,0,0,53.91,45.3,45.3,0,0,0,62.18,10.44,45.3,45.3,0,0,0,70.46,13.31,45.34,45.34,0,0,0,77.83,5.24,45.21,45.21,0,0,0,55.46-12.52,45.28,45.28,0,0,0,61.05,34.59A107.75,107.75,0,0,0,592,530.88,45.18,45.18,0,0,0,640,536a45.34,45.34,0,0,0,77.82-5.25,45.3,45.3,0,0,0,70.46-13.31A45.28,45.28,0,0,0,850.44,507,30.15,30.15,0,0,0,890,464.82Z"/><path class="cls-2" d="M361.82,345l0,0c-.14-.24-.29-.48-.45-.7l0-.06c-.16-.21-.32-.42-.49-.62l-.08-.08a6.51,6.51,0,0,0-.51-.54l-.13-.11-.52-.46-.18-.13c-.17-.13-.34-.26-.52-.38l-.25-.15-.5-.29-.32-.16-.48-.22-.39-.14-.44-.16c-.16-.05-.32-.08-.49-.12a2.79,2.79,0,0,0-.39-.1,6,6,0,0,0-.61-.09l-.3-.05c-.31,0-.63-.05-.94-.05a9.34,9.34,0,0,0-4.19,1,13.41,13.41,0,0,0-1-1.23A14,14,0,0,0,340,335.8a13.32,13.32,0,0,0-4.52.19l-.9.21a14,14,0,0,0-13.72-11.13,13.83,13.83,0,0,0-6.38,1.55,24.59,24.59,0,0,0,.55-3.67c0-.47.05-.94.05-1.42a22.31,22.31,0,0,0-28.58-21.45,22.33,22.33,0,0,0-37.39-13.62c-.27.25-.53.5-.78.76a33.79,33.79,0,0,0-6.88-5,33.23,33.23,0,0,0-40.22,6.6c-.61.65-1.19,1.33-1.74,2a33.52,33.52,0,0,0-6,12,22.58,22.58,0,0,0-2.33-.13,22.36,22.36,0,0,0-20.08,12.59,14,14,0,0,0-4.85-.87,14.56,14.56,0,0,0-2.58.23A13.94,13.94,0,0,0,157,318c-.3.27-.6.55-.88.85a14,14,0,0,0-3.77,7.71,14,14,0,0,0-20.53,8q-.17.57-.3,1.17a13.72,13.72,0,0,0-3.7-.51,14,14,0,0,0-11.27,5.7,9.33,9.33,0,1,0,0,16.65,14,14,0,0,0,19.21,3.23,14,14,0,0,0,21.77,4.11,14,14,0,0,0,24.05,1.62,14,14,0,0,0,17.14-3.87,14,14,0,0,0,18.86,10.69,33.3,33.3,0,0,0,52.15-7.92A13.93,13.93,0,0,0,284.54,367a14,14,0,0,0,24-1.62,14,14,0,0,0,21.77-4.11,14,14,0,0,0,19.22-3.23,9.32,9.32,0,0,0,12.24-13Z"/></svg>