<svg id="Layer_1" data-name="Layer 1" xmlns="http://www.w3.org/2000/svg" xmlns:xlink="http://www.w3.org/1999/xlink" viewBox="0 0 2157.64 1179.94"><defs><style>.cls-1,.cls-11,.cls-12,.cls-13,.cls-14,.cls-15,.cls-16,.cls-17,.cls-4,.cls-6,.cls-7{fill:none;}.cls-2{fill:#31769c;}.cls-3{clip-path:url(#clip-path);}.cls-16,.cls-17,.cls-4{stroke:#e2b118;}.cls-11,.cls-12,.cls-4,.cls-6,.cls-7{stroke-miterlimit:10;}.cls-4{stroke-width:6.89px;}.cls-5{fill:#164664;}.cls-6,.cls-7{stroke:#539f9f;}.cls-6{stroke-width:2.37px;}.cls-7{stroke-width:2.51px;}.cls-8{fill:#fff;}.cls-9{fill:#ca7273;}.cls-10{fill:#e2b118;}.cls-11,.cls-12,.cls-13,.cls-14,.cls-15{stroke:#fff;}.cls-11{stroke-width:2.15px;}.cls-12{stroke-width:3.75px;}.cls-13,.cls-14,.cls-15,.cls-16,.cls-17{stroke-linecap:round;stroke-linejoin:round;}.cls-13,.cls-14,.cls-15{stroke-width:4.74px;}.cls-14{stroke-dasharray:0 22.48;}.cls-15{stroke-dasharray:0 19.72;}.cls-16,.cls-17{stroke-width:5.96px;}.cls-17{stroke-dasharray:0 18.55;}.cls-18{fill:#539f9f;}</style><clipPath id="clip-path"><rect class="cls-1" x="1367.02" y="475.45" width="671.8" height="671.8" transform="translate(3405.83 1622.7) rotate(-180)"/></clipPath></defs><title>2</title><rect class="cls-2" x="118.82" y="69.64" width="1920" height="1080"/><g class="cls-3"><path class="cls-4" d="M1050.51,1368.88a384,384,0,0,0-5.51-126.41c-3.54-16.66-8.19-33.08-10.93-49.89-3.26-20-3.78-40.29-4.29-60.53-.53-20.58,1.26-24.94-.26-48"/><circle class="cls-5" cx="1903.07" cy="972.19" r="127.85" transform="translate(-130.05 1630.42) rotate(-45)"/><circle class="cls-5" cx="1857.61" cy="811.61" r="89.97" transform="translate(-29.81 1551.24) rotate(-45)"/><circle class="cls-5" cx="1690.9" cy="730.46" r="127.85" transform="translate(-21.26 1409.59) rotate(-45)"/><path class="cls-6" d="M1766.9,663.67a59.14,59.14,0,0,1,12.26,15.8"/><path class="cls-6" d="M1625.29,690.91c14.87-23.46,40.21-38.95,67-46.32,10.5-2.89,21.54-4.66,32.28-2.89a71,71,0,0,1,16.5,5"/><path class="cls-6" d="M1673.54,685.7c12.7-7.92,27-15.14,41.88-13.67,17.07,1.69,44,17.24,59.29,45.69"/><path class="cls-6" d="M1585.35,701.52c1.54-7.54,5.92-14.18,10.64-20.27a165.29,165.29,0,0,1,79-55.59"/><path class="cls-6" d="M1969.13,935.09a91.67,91.67,0,0,1-2.58,17.66c-.66,2.65-1.43,5.28-2.33,7.87-.5,1.45-1,2.9-1.62,4.32a86.42,86.42,0,0,1-4.07,8.66"/><path class="cls-6" d="M1924.37,852.89a91.16,91.16,0,0,1,41.54,53.44"/><path class="cls-6" d="M1908.47,948.34a47.81,47.81,0,0,1-10.39,8.72"/><path class="cls-6" d="M1908.5,871.77c9.64,12.91,15,29.24,13.52,45.28a55.15,55.15,0,0,1-5,18.23"/><path class="cls-6" d="M1871,887.8a52.49,52.49,0,0,1-34.11,73.43s-29.43,8.53-50.69,3.06"/><path class="cls-6" d="M1846.66,884.41c2,7.19-.58,15-5,21s-10.54,10.51-16.57,14.9"/><path class="cls-7" d="M1841.74,847.89c13.38-4.45,27-9.1,38.26-17.85s20.23-22.35,20.69-38-9.55-32.66-23.65-35.68"/><path class="cls-7" d="M1842.62,821.53c7.45.22,13.59-5.44,18.58-11.21,7.06-8.17,13.65-19,11-30.42a26.31,26.31,0,0,0-12-15.89c-5.59-3.43-12-4.83-18.19-5.28a26.19,26.19,0,0,0-11,1.06c-6.56,2.41-11,8.77-15.08,14.83"/><path class="cls-8" d="M1089.76,1166.46l267,138.88a31.07,31.07,0,0,0,34.8-4.15c52.55-45.9,219-191.23,256.69-224.29,23.24-20.36,53.72-32.48,77.76-39.47h0a291.28,291.28,0,0,1,35.42-8l95.48-21.56c70.32-14.54,113.43,86.12,113.43,86.12l13.79,52.34c9,11.65,7.64,28.74.7,41.69s-18.49,22.72-29.77,32.15c-21.3,17.81-43.09,35.92-68.93,46.08-23.66,9.29-49.48,11.41-74.89,12.21a794.13,794.13,0,0,1-93.32-2.58c-22-1.9-47.33-7.05-57.18-26.77-7-14-3.54-30.73.07-46l.14-.58-238,192.88a61.16,61.16,0,0,1-72.42,3.36L1069.39,1211.3Z"/><path class="cls-8" d="M1562,698.65l-34.37,76s-19,246.75,96.43,255.65c32.75,2.52,171.66-98.27,171.66-98.27s23.51-20.16,27.87-47l16.59-60.82-2.6-34.33-26-18-27.81-14.31-47.45-34Z"/><path class="cls-8" d="M1562,698.65l-34.37,76s-19,246.75,96.43,255.65c32.75,2.52,171.66-98.27,171.66-98.27s23.51-20.16,27.87-47l16.59-60.82-2.6-34.33-26-18-27.81-14.31-47.45-34Z"/><polygon class="cls-8" points="1749.21 959.36 1787.75 1055.37 1833.26 1025.35 1803.13 898.55 1749.21 959.36"/><path class="cls-8" d="M1089.76,1166.46l-10.4-19.28a31.22,31.22,0,0,0-24-16.2l-12.3-1.37c-18.36-1.38-38.4,14.82-43.19,23.91l-14.3,25.32c-5.14,9.76,5.61,36.55,16.07,40.05l6.93,2.32a22.37,22.37,0,0,0,11.84.65l49-10.56"/><path class="cls-9" d="M1642.87,1265.74c2.05-22.84,4.69-47.36,19.84-64.58l49.85-28.74a592.18,592.18,0,0,1,58.6-29.6,15.76,15.76,0,0,0,7.49-22.15c-15.94-28.38-41-64.5-70.61-77.37l18-5.87s37,10.1,80.75,91.13a597.06,597.06,0,0,1,76.38-22.13,16.22,16.22,0,0,0,10.52-24c-16.29-28.06-38.54-58-63.6-68.5l21.92-5s31.45,12.7,74,89.74c14.7-2.11,29.49-3.72,44.37-4.73h0c11.16,22.51,35.32,72.83,47.18,104.63,47.46,127.17,52.32,254.71,88,318.75L1852.3,1631.52l1.3-4.24c16-52.38,6-109.65-28.17-152.48a369.54,369.54,0,0,0-25.92-29c-37-37.52-81.66-66.35-124.61-96.85-8.59-6.1-17.29-12.45-23.26-21.13C1639.52,1310.27,1641,1287,1642.87,1265.74Z"/><path class="cls-5" d="M1708.06,787a39,39,0,0,0-6.81-3.64c-1.18-.51-2.48-.94-3.73-1.4s-2.54-.83-3.82-1.23a59.39,59.39,0,0,0-15.68-2.38,55.16,55.16,0,0,0-7.91.47,60.17,60.17,0,0,0-7.81,1.62c-1.3.31-2.56.78-3.84,1.16s-2.53.91-3.78,1.41-2.56,1-3.62,1.57-2.31,1.25-3.48,1.94c-2.33,1.4-4.64,2.89-6.92,4.42-1.13.77-2.27,1.55-3.35,2.34-.55.4-1,.81-1.54,1.22s-1,.78-1.49,1.25a43.67,43.67,0,0,0-9.4,12.63c-4.86,9.59-7.22,20.46-9.37,31.32l-4.11-.77c2-11,4.17-22.21,9.23-32.68A48.43,48.43,0,0,1,1630.87,792c1.08-1,2.26-1.94,3.39-2.86s2.31-1.69,3.47-2.5c2.32-1.63,4.66-3.19,7.08-4.7,1.22-.76,2.45-1.49,3.78-2.2s2.69-1.23,4-1.83,2.67-1.07,4-1.57,2.72-1,4.13-1.34a67.8,67.8,0,0,1,8.52-1.92,62.52,62.52,0,0,1,8.75-.67,65.57,65.57,0,0,1,17.32,2.33c1.39.41,2.79.8,4.16,1.25s2.73.91,4.12,1.47a45.94,45.94,0,0,1,8,4.1Z"/><path class="cls-5" d="M1544,801.74a34.34,34.34,0,0,1,14.91-4.87,37.24,37.24,0,0,1,15.43,1.84,34.3,34.3,0,0,1,13.23,8.31,46.37,46.37,0,0,1,8.5,12.66,88.15,88.15,0,0,1,5,57.93,92,92,0,0,1-11.48,27,34.82,34.82,0,0,1-2.06,3.06l-2.14,3c-.73,1-1.56,1.9-2.34,2.85s-1.56,1.91-2.4,2.82l-2.59,2.63c-.86.87-1.73,1.79-2.59,2.57a16.81,16.81,0,0,0-3.93,4.78,4.75,4.75,0,0,0,.31,4.63,11.3,11.3,0,0,0,4.53,3.69,24.86,24.86,0,0,0,3,1.24c.52.18,1,.32,1.59.47l1.69.43c2.26.55,4.54,1,6.84,1.38a84.4,84.4,0,0,0,27.83-.23l.75,4.11a88.7,88.7,0,0,1-29.26.54c-2.42-.36-4.83-.83-7.22-1.38l-1.79-.44c-.61-.16-1.24-.33-1.85-.54a25,25,0,0,1-3.63-1.46,15.63,15.63,0,0,1-6.42-5.29,9.55,9.55,0,0,1-1.53-4.45,9.71,9.71,0,0,1,.81-4.61,20.79,20.79,0,0,1,5-6.36c.9-.84,1.66-1.67,2.47-2.5l2.42-2.5c.77-.86,1.48-1.78,2.22-2.67s1.5-1.77,2.18-2.71l2-2.85a33,33,0,0,0,1.91-2.9,87.15,87.15,0,0,0,10.57-25.61,82.61,82.61,0,0,0-5.2-54.14,40.53,40.53,0,0,0-7.48-11,28.3,28.3,0,0,0-10.92-6.69c-8.22-2.74-17.72-1.88-24.91,2.65Z"/><path class="cls-5" d="M1661.6,946.4l.28.07a1.56,1.56,0,0,0,1.06-.22l-.34.23-.71.47-1.43.91-2.86,1.79q-2.86,1.77-5.78,3.47-5.82,3.42-11.86,6.47a127.43,127.43,0,0,1-12.42,5.59A55.58,55.58,0,0,1,1614,968.8l2.29-2.85,2.66,19.36-3.38-2.26c1.09-.33,2.36-.78,3.53-1.23s2.39-1,3.56-1.48c2.35-1.05,4.66-2.22,6.9-3.49a75.26,75.26,0,0,0,12.55-8.88,62.33,62.33,0,0,0,10.14-11.34c.75-1,1.38-2.12,2.06-3.19s1.28-2.18,1.82-3.32c.28-.56.58-1.12.84-1.69l.76-1.73.32-.74a.64.64,0,0,0,.17.33,1.51,1.51,0,0,0,.78.52,2.14,2.14,0,0,0,1.15,0Zm2.89-3.22c0,.13.07.26.1.4a8.55,8.55,0,0,1,.06,2.38,9.69,9.69,0,0,1-.56,2.2,6.4,6.4,0,0,1-.27.61l-.22.48-.88,1.92c-.3.63-.64,1.25-1,1.87-.63,1.26-1.38,2.45-2.09,3.66s-1.5,2.37-2.34,3.49A68.39,68.39,0,0,1,1646,972.45a80.78,80.78,0,0,1-13.68,9.36q-3.63,2-7.44,3.6c-1.26.54-2.55,1.05-3.85,1.53s-2.57.91-4,1.32l-3,.84-.37-3.1-2.35-19.4L1611,964l2.6-.23a50.68,50.68,0,0,0,12.29-3.12,121.41,121.41,0,0,0,12.07-5.18c4-1.92,7.87-4,11.72-6.15q2.89-1.62,5.75-3.32l2.84-1.72,1.4-.87.7-.44.36-.22a2.71,2.71,0,0,1,1.41-.44,2.77,2.77,0,0,1,1.36.33Z"/><path class="cls-5" d="M1628.87,856.41c1-1.7,2-3.13,3-4.64s2.12-2.91,3.23-4.33a103.5,103.5,0,0,1,7.14-8.11,88.94,88.94,0,0,1,16.92-13.68,72.08,72.08,0,0,1,9.79-5.1,64.42,64.42,0,0,1,10.55-3.54c1.8-.51,3.65-.77,5.48-1.14,1.86-.21,3.71-.54,5.58-.61a68.77,68.77,0,0,1,11.21.13l-1.1,9.65a59.53,59.53,0,0,0-9.62-.48c-1.61,0-3.2.22-4.81.33s-3.2.42-4.77.8a56.09,56.09,0,0,0-9.32,2.73,62.94,62.94,0,0,0-8.87,4.2,80.7,80.7,0,0,0-15.93,11.89,95.48,95.48,0,0,0-6.93,7.29c-1.09,1.28-2.15,2.57-3.16,3.91s-2,2.73-2.84,4Z"/><path class="cls-5" d="M1541.51,836.56l6.23,1.15c2.06.54,4.13,1.07,6.17,1.68l3,1.12,1.51.55c.5.21,1,.46,1.48.69l2.93,1.41c1,.53,1.88,1.12,2.81,1.68a37.88,37.88,0,0,1,9.84,8.82,26.53,26.53,0,0,1,1.91,2.76l.86,1.45.75,1.51a16.71,16.71,0,0,1,.68,1.56c.21.53.43,1,.6,1.61s.35,1.09.49,1.67c.06.29.14.56.2.88s.12.57.18,1l-6.42.81-.11-.44c0-.17-.11-.38-.16-.58-.11-.39-.27-.78-.42-1.18a12.06,12.06,0,0,0-.5-1.19,11.41,11.41,0,0,0-.58-1.16l-.63-1.14-.74-1.1a20,20,0,0,0-1.6-2.09,30.56,30.56,0,0,0-8.28-6.71c-.8-.43-1.59-.87-2.39-1.29L1556.8,849c-.43-.17-.84-.37-1.27-.52l-1.33-.42-2.65-.83c-1.81-.45-3.65-.83-5.47-1.22l-5.62-.76Z"/><circle class="cls-10" cx="1705.18" cy="907.46" r="37.35" transform="translate(-142.24 1471.53) rotate(-45)"/><path class="cls-11" d="M1756.65,806.21s31-39.36,59.62-21.6-9,67-20.53,76.3"/><path class="cls-10" d="M1790.32,883.36c18.82,15.14,94.87,25,149.43-32s-9.89-101.57-31.23-75.58c-14.47,17.63-10.07,31.41,2,37.36,0,0,17.5,12.35,28.74-7.94,0,0-1.3,16.23-26.15,32.73s-50.4,21-69.07,13c0,0,27.23-26,18-51.41s-14.75-37.62,4-52.39c0,0-29.3,3.49-35.29,18.7,0,0-53.43-17.72,15.77-79.38,0,0-99.38,29.46-98.58,111.94C1748,798.34,1749.42,850.46,1790.32,883.36Z"/><circle class="cls-10" cx="1922.83" cy="793.14" r="24.78" transform="translate(-93.93 1302.11) rotate(-36.58)"/><path class="cls-10" d="M1830,692.73s-39,19.85-90.66,14.78c-17.79-1.75-34.39-10.24-47.18-22.73-9-8.76-24-18.23-43.79-11.81-33.29,10.82-70.61,2.32-55.49-24.63,13-23.13-16-43.64-16-43.64s-28.52,32.71-10.81,53.11c16.52,19-5.69,36.65-19.08,47.69s-17.32,49.3-17.32,49.3l62.29,6.68L1630.48,732l59.81-6.62,74.6,32.87Z"/><path class="cls-10" d="M1754.44,762.79s-98.83-67.65-164.78,12.86c0,0-16.9-30.19-62-1l2-19.86s28.82-23.37,57.48-7.21c0,0,65.7-69.8,177.64-3.71Z"/><path class="cls-9" d="M1754.44,762.79s-98.83-67.65-164.78,12.86c0,0-16.9-30.19-62-1l2-19.86s28.82-23.37,57.48-7.21c0,0,65.7-69.8,177.64-3.71Z"/><rect class="cls-12" x="1574.74" y="702.26" width="18.69" height="18.7" transform="translate(741.55 -806.89) rotate(36.79)"/><line class="cls-13" x1="1754.77" y1="749.61" x2="1754.77" y2="749.61"/><path class="cls-14" d="M1734.38,740.19c-30.86-12.08-90.84-27-138.23,13.18"/><line class="cls-13" x1="1587.93" y1="761.05" x2="1587.93" y2="761.05"/><path class="cls-15" d="M1570.75,752.34c-7-.85-16.45.32-28.52,6.2"/><line class="cls-13" x1="1533.58" y1="763.3" x2="1533.58" y2="763.3"/><polygon class="cls-5" points="1801.48 941.33 1816.27 999.89 1812.24 1001 1795.25 943.03 1801.48 941.33"/><ellipse class="cls-8" cx="1578.43" cy="636.87" rx="11.92" ry="5.78" transform="translate(841.72 2171.25) rotate(-86.33)"/><path class="cls-12" d="M1609.14,710.24c2.74-7.07,9.89-12.6,17.46-12.17,3.74.21,7.25,1.76,10.74,3.13s7.19,2.59,10.91,2.12,7.41-3.11,7.9-6.82"/><path class="cls-12" d="M1563.09,720.55a5.13,5.13,0,0,0-4.87-1.87c-7,.83-10.51,10.58-17.54,10.9-.3,0-1.54.15-1.68-2.1"/><path class="cls-8" d="M1777.08,806.55h0a20.82,20.82,0,0,1,8-10.45c3.45-2.51,7.41-4.07,11.33-5.59a18.57,18.57,0,0,1,5.83-1.57c5.88-.25,10.72,5.07,13.46,10.67a40.14,40.14,0,0,1,3.69,22.82l0,0-.1.57a34,34,0,0,1-2.31,8.32c-.13.31-.28.61-.42.91a47.63,47.63,0,0,1-15.4,20.73,7.66,7.66,0,0,1-11.18-2.12C1783.57,840.13,1772.24,818.63,1777.08,806.55Z"/><path class="cls-5" d="M1798.76,836.61a36.82,36.82,0,0,0,7.59-23.33l-.07-1.55-.15-1.54a13.23,13.23,0,0,0-.56-2.71,5.19,5.19,0,0,0-1-1.9,2,2,0,0,0-1.23-.67,5.32,5.32,0,0,0-2.07.14,13.05,13.05,0,0,0-2.5.89,6.14,6.14,0,0,0-3.17,2.92l-5.86-2.72a11,11,0,0,1,2.88-3.65,14.84,14.84,0,0,1,3.61-2.19,19,19,0,0,1,3.83-1.16,11,11,0,0,1,4.54,0,7.94,7.94,0,0,1,4.36,2.71,10.86,10.86,0,0,1,2,4,18.64,18.64,0,0,1,.63,3.83l.1,1.78v1.79a42.17,42.17,0,0,1-2.62,13.87,41.33,41.33,0,0,1-7.06,12.13Z"/><path class="cls-1" d="M1802.36,927.12c11.87-11,27.47-16.77,42.72-22.07,10.27-3.57,20.78-7,31.65-7.27,17.54-.36,34.69,8.14,46.39,21.21s18.17,30.34,19.79,47.8c1.2,12.81-.22,26.21-6.48,37.45-11.07,19.83-34.3,28.87-55.72,36.44-5.41,1.91-11.25,3.84-16.77,2.28"/><line class="cls-16" x1="1567.12" y1="1156.61" x2="1567.12" y2="1156.61"/><path class="cls-17" d="M1584.65,1162.56c24.44,12.1,35.95,35.78,40.61,48.68"/><path class="cls-10" d="M1608.5,1244.94c-.44-2.3-17-61.43-70.31-72.19l13-11.37c50,12.69,66.23,57.74,70.38,73"/><circle class="cls-9" cx="1796.27" cy="848.88" r="6.94"/><path class="cls-10" d="M1602.55,666.14a23.73,23.73,0,0,0,6.78-.17c4.26-.56,8.64-1.36,12.21-3.77s6.11-6.81,5.11-11a2.23,2.23,0,0,0-.35-.86c-.62-.85-1.91-.71-2.92-.42-6.06,1.76-11.11,5.65-16.52,8.72-1.76,1-7.7,2.45-8.69,3.76C1596.5,664.63,1600.59,665.83,1602.55,666.14Z"/><path class="cls-10" d="M1563,676.38a17.89,17.89,0,0,1-4.44,2.58c-3,1.34-6.13,2.56-9.39,2.43s-6.65-2-7.67-5.07a2.1,2.1,0,0,1-.12-.7c.07-.79,1-1.21,1.73-1.43,4.61-1.27,9.41-.77,14.13-.93,1.53-.06,6-1.48,7.11-1C1566.29,673,1564.12,675.41,1563,676.38Z"/><path class="cls-5" d="M1753,762.38a55.94,55.94,0,0,1,2.71-7.09c.51-1.14,1-2.27,1.62-3.38s1.16-2.21,1.77-3.29a107.68,107.68,0,0,1,8.25-12.44c1.58-1.93,3.09-3.92,4.78-5.74.83-.93,1.64-1.88,2.5-2.78l2.61-2.67,1.31-1.33,1.36-1.27,2.74-2.54c1.86-1.65,3.8-3.21,5.7-4.82l2.9,3.75c-1.87,1.5-3.79,3-5.63,4.49l-2.71,2.38-1.36,1.18-1.3,1.25-2.59,2.51c-.85.85-1.65,1.74-2.48,2.61-1.69,1.71-3.19,3.59-4.77,5.4a103.56,103.56,0,0,0-8.3,11.77c-.62,1-1.23,2-1.79,3.12s-1.12,2.11-1.65,3.18a54.8,54.8,0,0,0-2.72,6.53Z"/><circle class="cls-8" cx="1944.17" cy="818.89" r="0.24"/><circle class="cls-8" cx="1930.31" cy="838.03" r="0.9"/><path class="cls-8" d="M1912.79,855.37a1.46,1.46,0,1,1,1.46-1.46A1.45,1.45,0,0,1,1912.79,855.37Z"/><circle class="cls-8" cx="1892.32" cy="865.73" r="1.95"/><circle class="cls-8" cx="1869.74" cy="872.68" r="2.46"/><path class="cls-8" d="M1846.18,876.34a1.76,1.76,0,1,1,1.76-1.76A1.76,1.76,0,0,1,1846.18,876.34Z"/><path class="cls-5" d="M1917.83,1152.27c.56.55.91,1,1.32,1.42s.78.89,1.13,1.33c.72.89,1.47,1.77,2.11,2.68l2,2.71,1.86,2.76c.61.93,1.26,1.84,1.84,2.78l1.73,2.81,1.73,2.82c.56.94,1.08,1.91,1.62,2.86l3.22,5.74,3,5.82c2.06,3.86,3.85,7.83,5.74,11.76s3.59,7.94,5.36,11.92c.87,2,1.77,4,2.6,6l2.45,6,2.44,6,1.22,3,1.14,3,4.55,12.2c.78,2,1.49,4.08,2.19,6.13l2.12,6.16c1.4,4.1,2.88,8.18,4.21,12.31l3.95,12.39c1.3,4.14,2.68,8.25,3.87,12.42l3.67,12.46,1.84,6.24.92,3.12.85,3.13,6.83,25.07-4.69,1.26-7.12-24.9-.89-3.11-1-3.09-1.91-6.18-3.81-12.37c-1.23-4.13-2.66-8.2-4-12.3l-4.09-12.27c-1.37-4.09-2.89-8.12-4.33-12.18l-2.18-6.08c-.73-2-1.45-4.06-2.25-6.06l-4.67-12-1.17-3-1.24-3-2.5-6-2.49-5.94c-.85-2-1.77-3.92-2.64-5.88-1.8-3.9-3.49-7.86-5.43-11.67s-3.72-7.73-5.79-11.47l-3-5.66-3.2-5.53c-.54-.92-1-1.86-1.61-2.76l-1.7-2.69-1.7-2.69c-.56-.89-1.19-1.74-1.78-2.61l-1.79-2.59-1.88-2.49c-.62-.85-1.28-1.61-1.93-2.4-.33-.4-.65-.78-1-1.12s-.68-.75-.89-1Z"/><path class="cls-18" d="M985,933.5c9.77,19.85,27.8,49,31.46,47.17s-8.4-33.86-18.17-53.71-13.52-20-17.19-18.17S975.25,913.65,985,933.5Z"/><path class="cls-18" d="M1062.65,1057.74c-9.77-19.85-27.79-49-31.46-47.17s8.4,33.86,18.17,53.71,13.52,20,17.19,18.17S1072.41,1077.59,1062.65,1057.74Z"/><path class="cls-18" d="M961.71,1034.44c19.85-9.77,49-27.79,47.17-31.46s-33.86,8.4-53.71,18.17-20,13.52-18.17,17.19S941.86,1044.2,961.71,1034.44Z"/><path class="cls-18" d="M1086,956.8c-19.85,9.77-49,27.8-47.17,31.46s33.86-8.4,53.71-18.17,20-13.52,18.17-17.19S1105.8,947,1086,956.8Z"/><path class="cls-18" d="M952.46,979.14c20.94,7.13,54.28,15,55.6,11.11s-29.89-18-50.83-25.13-23.69-4.56-25-.69S931.52,972,952.46,979.14Z"/><path class="cls-18" d="M1095.2,1012.1c-20.94-7.13-54.28-15-55.6-11.11s29.89,18,50.83,25.13,23.69,4.56,25,.69S1116.14,1019.23,1095.2,1012.1Z"/><path class="cls-18" d="M1007.35,1067c7.13-20.94,15-54.28,11.11-55.6s-18,29.89-25.13,50.83-4.56,23.69-.69,25S1000.22,1087.94,1007.35,1067Z"/><path class="cls-18" d="M1040.31,924.25c-7.13,20.94-15,54.28-11.11,55.6s18-29.89,25.13-50.83,4.56-23.69.69-25S1047.44,903.31,1040.31,924.25Z"/><path class="cls-10" d="M948.92,934.8c9.45,8.31,25.27,19.7,26.81,18s-11.79-16-21.25-24.28-11.46-7.56-13-5.81S939.46,926.49,948.92,934.8Z"/><path class="cls-10" d="M1094.22,1052.69c-9.45-8.31-25.27-19.7-26.81-18s11.79,16,21.25,24.29,11.46,7.56,13,5.81S1103.68,1061,1094.22,1052.69Z"/><path class="cls-10" d="M965.74,1069.41c8.31-9.46,19.7-25.28,18-26.81s-16,11.79-24.29,21.24-7.56,11.47-5.81,13S957.43,1078.86,965.74,1069.41Z"/><path class="cls-10" d="M1082.49,923c-8.31,9.46-19.7,25.27-18,26.81s16-11.79,24.28-21.24,7.57-11.47,5.82-13S1090.8,913.55,1082.49,923Z"/><path class="cls-10" d="M928,1006.51c12.56-.81,31.8-3.94,31.65-6.26s-19.63-3-32.2-2.15-13.45,2.76-13.3,5.08S915.45,1007.32,928,1006.51Z"/><path class="cls-10" d="M1116.31,984.43c-12.56.81-31.8,3.94-31.65,6.27s19.63,2.95,32.19,2.14,13.45-2.75,13.3-5.08S1128.87,983.62,1116.31,984.43Z"/><path class="cls-10" d="M1033.55,1086.13c-.81-12.56-3.94-31.8-6.26-31.65s-3,19.63-2.15,32.19,2.76,13.45,5.08,13.3S1034.36,1098.69,1033.55,1086.13Z"/><path class="cls-10" d="M1015.05,898.67c.81,12.56,3.94,31.8,6.26,31.65s3-19.63,2.15-32.19-2.76-13.45-5.08-13.3S1014.24,886.11,1015.05,898.67Z"/><circle class="cls-10" cx="1024.73" cy="994.85" r="8.26"/></g></svg>
