<svg id="Layer_1" data-name="Layer 1" xmlns="http://www.w3.org/2000/svg" viewBox="0 0 240 240"><defs><style>.cls-1{fill:#d7a234;}</style></defs><title>1</title><path class="cls-1" d="M41.53,93.12l1-.2c1.2-.22,2,0,2.34.5A7.07,7.07,0,0,1,45.57,97v28.49a.58.58,0,0,0,.21.44.57.57,0,0,0,.37.14h.1c7.75-1.35,15.64-2.51,23.45-3.45a.57.57,0,0,0,.51-.57V119.9a.58.58,0,0,0-.65-.58c-6,.72-12.1,1.57-18.09,2.54V96.17A13.9,13.9,0,0,0,51,92a2.87,2.87,0,0,0-1.76-2,6.73,6.73,0,0,0-3.21,0l-4.73.86a.58.58,0,0,0-.48.57v1.05a.59.59,0,0,0,.21.45A.59.59,0,0,0,41.53,93.12Z"/><path class="cls-1" d="M82,121.68a11.53,11.53,0,0,0,7-3.08l1.56,1.67a.58.58,0,0,0,.46.18l2.66-.17a.58.58,0,0,0,.54-.58V94.9a.58.58,0,0,0-.62-.58l-4.78.32a.59.59,0,0,0-.54.58v19.94A7.29,7.29,0,0,1,83.49,118a4.57,4.57,0,0,1-3.72-1.19c-1-.92-1.49-2.54-1.49-4.82v-9.5a13.85,13.85,0,0,0-.45-4.15,3.07,3.07,0,0,0-1.74-2,6.8,6.8,0,0,0-3.22-.24l-4.24.49a.57.57,0,0,0-.51.57V98.2a.55.55,0,0,0,.2.43.57.57,0,0,0,.45.15l.53-.07q1.85-.21,2.4.69a7.35,7.35,0,0,1,.65,3.59v9.5c0,3.69.93,6.25,2.76,7.59a9.25,9.25,0,0,0,5.6,1.66Q81.34,121.74,82,121.68Z"/><path class="cls-1" d="M102.76,97.13v15.75c0,2.47.63,4.33,1.88,5.53a6.74,6.74,0,0,0,4.82,1.71h.28a11.34,11.34,0,0,0,4.14-.73,13.21,13.21,0,0,0,2.83-1.6.59.59,0,0,0,.18-.73l-.53-1a.58.58,0,0,0-.81-.25,9.06,9.06,0,0,1-1.72.77,6.93,6.93,0,0,1-2,.27,2.8,2.8,0,0,1-2.14-.69,4.66,4.66,0,0,1-1-3.38V96.93c1.93-.06,3.88-.1,5.81-.12a.59.59,0,0,0,.57-.59V94.11a.58.58,0,0,0-.58-.58h0c-1.92,0-3.86.07-5.79.12V86.34a.6.6,0,0,0-.18-.42.61.61,0,0,0-.42-.17l-2.13.07a.59.59,0,0,0-.43.21l-2.66,3.27a.59.59,0,0,0-.13.36v4.19L99.59,94a.58.58,0,0,0-.55.58v2.11a.62.62,0,0,0,.18.43.67.67,0,0,0,.43.16Z"/><path class="cls-1" d="M131.62,120.09a10.75,10.75,0,0,0,3.94-.7,9.93,9.93,0,0,0,2.78-1.62l1.59,1.87a.57.57,0,0,0,.42.21L143,120a.58.58,0,0,0,.43-.16.6.6,0,0,0,.18-.42V94.59a.57.57,0,0,0-.55-.58l-4.79-.21a.63.63,0,0,0-.43.17.58.58,0,0,0-.18.41v19.93a6.28,6.28,0,0,1-4.72,2.28,5.17,5.17,0,0,1-3.77-1.63c-1-1-1.51-2.73-1.51-5v-9.49a14.72,14.72,0,0,0-.45-4.2,3.57,3.57,0,0,0-1.7-2.17,7.07,7.07,0,0,0-3.22-.58H118a.58.58,0,0,0-.57.58v1.06a.58.58,0,0,0,.58.58h.53c1.28,0,2.08.31,2.47,1a7.66,7.66,0,0,1,.67,3.69v9.5c0,3.68.92,6.32,2.73,7.84a10.72,10.72,0,0,0,6.88,2.34Z"/><path class="cls-1" d="M163.39,95a10,10,0,0,0-4.25.43,9.18,9.18,0,0,0-2.7,1.41A4.22,4.22,0,0,0,155,95.4a7.66,7.66,0,0,0-3.26-.83l-4.78-.31a.58.58,0,0,0-.62.58V95.9a.58.58,0,0,0,.55.58l1.06.06a2.81,2.81,0,0,1,2.5,1.19,8.06,8.06,0,0,1,.67,3.76V120a.58.58,0,0,0,.54.58c1.59.11,3.19.24,4.77.36a.56.56,0,0,0,.44-.15.57.57,0,0,0,.19-.43V100.4a5.73,5.73,0,0,1,4.67-2,5.56,5.56,0,0,1,3.78,1.93,7.69,7.69,0,0,1,1.52,5.2v15.83a.58.58,0,0,0,.52.58c1.58.17,3.18.34,4.76.53h.06a.58.58,0,0,0,.59-.58V106.06c0-3.67-.91-6.39-2.7-8.09A11.18,11.18,0,0,0,163.39,95Z"/><path class="cls-1" d="M196.37,121.5a18,18,0,0,0-8.62-3.56c-4.55-.72-5-1.72-5-2.11a.39.39,0,0,1,.14-.32c.26-.22,1.23-.67,4.72-.11,4,.63,6.81.21,8.58-1.3,1.39-1.19,2.09-3,2.09-5.49a7.46,7.46,0,0,0-1.11-3.94,9.82,9.82,0,0,0-1.78-2.17l2,0a.61.61,0,0,0,.42-.17A.55.55,0,0,0,198,102v-1.32a.58.58,0,0,0-.48-.57c-3.23-.59-6.51-1.15-9.75-1.66-3.86-.61-6.73-.14-8.52,1.39a7,7,0,0,0-2.17,5.63,9.17,9.17,0,0,0,1.21,4.66,9.57,9.57,0,0,0,2.32,2.73,6.38,6.38,0,0,0-.79.69,2.83,2.83,0,0,0-.63,2,4.34,4.34,0,0,0,1.43,3.18,8.17,8.17,0,0,0-3.31,1.92,5.91,5.91,0,0,0-1.82,4.42,8.46,8.46,0,0,0,3.38,7.11,19.06,19.06,0,0,0,8.72,3.33,25.27,25.27,0,0,0,3.87.33,11.89,11.89,0,0,0,4.91-.91c2.3-1,3.47-3.1,3.47-6.18A8.85,8.85,0,0,0,196.37,121.5Zm-14,.75a5.5,5.5,0,0,1,2.88-1.66l2.74.68c4,1.13,5.9,3.28,5.9,6.56,0,1.85-.52,3.08-1.58,3.76a6.49,6.49,0,0,1-4.59.6,8.56,8.56,0,0,1-4.7-2.12,5.77,5.77,0,0,1-1.67-4.41A5.1,5.1,0,0,1,182.41,122.25Zm8.7-10.55a4,4,0,0,1-3.35.7,5.52,5.52,0,0,1-3.48-1.85A6.6,6.6,0,0,1,183,106.1c0-1.92.42-3.25,1.25-4a3.54,3.54,0,0,1,2.38-.81,6.67,6.67,0,0,1,1,.08,5.34,5.34,0,0,1,3.46,2,6.78,6.78,0,0,1,1.32,4.41C192.35,109.69,191.93,111,191.11,111.7Z"/><path class="cls-1" d="M47.83,167a8.48,8.48,0,0,1-4-1.06,23.22,23.22,0,0,1-4.55-3c-3.85-3.3-7.76-6.6-11.61-9.81,3.25-4,6.56-8,9.84-12a18.19,18.19,0,0,1,3.65-3.54,9.46,9.46,0,0,1,3.62-1.38.59.59,0,0,0,.48-.58v-1.31a.59.59,0,0,0-.21-.45.59.59,0,0,0-.48-.13l-2.63.48a9.39,9.39,0,0,0-3.24,1.23,11.84,11.84,0,0,0-2.48,2c-.68.72-1.52,1.71-2.5,2.93l-1,1.31c-3.31,4-6.65,8.13-9.94,12.21V145.3a13.35,13.35,0,0,0-.45-4.1,2.64,2.64,0,0,0-1.77-1.86,6.45,6.45,0,0,0-3.19.18l-4.68,1.18a.57.57,0,0,0-.44.56v1.05a.6.6,0,0,0,.73.57l1-.27c1.18-.3,1.94-.19,2.28.32a6.64,6.64,0,0,1,.63,3.49v28.49a.58.58,0,0,0,.22.46.6.6,0,0,0,.36.12h.14c1.53-.38,3.1-.75,4.68-1.12a.58.58,0,0,0,.45-.57V157.62c3.33,2.76,6.7,5.59,10,8.41a19.47,19.47,0,0,0,6.33,3.88h0a11.39,11.39,0,0,0,5.42.41,13.21,13.21,0,0,0,3.58-1.18.58.58,0,0,0,.32-.52v-1a.56.56,0,0,0-.18-.42A.59.59,0,0,0,47.83,167Z"/><path class="cls-1" d="M68.15,142.19c-1.79-1.43-4.21-1.94-7.21-1.52a25,25,0,0,0-4.89,1.17,8,8,0,0,0-3.38,2,5.26,5.26,0,0,0-1.23,2.37,15.59,15.59,0,0,0-.23,3,.58.58,0,0,0,.21.44.57.57,0,0,0,.47.13l2.37-.37a.59.59,0,0,0,.47-.45,6.3,6.3,0,0,1,1.82-3.48,6.82,6.82,0,0,1,3.5-1.42,3.63,3.63,0,0,1,3.59,1.13c.81,1,1.25,3,1.29,6l-1.08.14a25.63,25.63,0,0,0-10,3.18,7.61,7.61,0,0,0-4,6.79,6.67,6.67,0,0,0,1.38,4.5,6.28,6.28,0,0,0,3.27,2.06h0a9.61,9.61,0,0,0,2.36.3,9.47,9.47,0,0,0,1.3-.09,13.23,13.23,0,0,0,4.8-1.57,10.34,10.34,0,0,0,2.67-2.19l1.51,1.74a.56.56,0,0,0,.51.2l2.64-.32a.58.58,0,0,0,.51-.58V151.13C70.85,146.57,70,143.64,68.15,142.19Zm-3.22,12.3v6.3A9.4,9.4,0,0,1,63,163.11h0a4.86,4.86,0,0,1-2.6,1.11,4.06,4.06,0,0,1-3.14-.67,3.47,3.47,0,0,1-1.21-3,4.65,4.65,0,0,1,2-3.71,12,12,0,0,1,5.9-2.2Z"/><path class="cls-1" d="M87.56,149.55l-3.19-1.08c-2.59-.84-3.85-2-3.85-3.56a2.9,2.9,0,0,1,1.2-2.34,6.32,6.32,0,0,1,3.57-1.23,6.68,6.68,0,0,1,4.55,1,5.22,5.22,0,0,1,2,3.56.58.58,0,0,0,.61.49l1.06-.06a.59.59,0,0,0,.55-.58,20.88,20.88,0,0,0-.23-3.64,4.11,4.11,0,0,0-1.29-2.25c-1.55-1.44-4.38-2-8.4-1.68a11.51,11.51,0,0,0-6.64,2.52,7.18,7.18,0,0,0-2.64,5.72,5.9,5.9,0,0,0,1.76,4.43,12.32,12.32,0,0,0,5,2.64l3.18,1.06a9.61,9.61,0,0,1,3.43,1.71,2.73,2.73,0,0,1,1,2.13A2.82,2.82,0,0,1,88,160.7a8,8,0,0,1-4.08,1.22,7.18,7.18,0,0,1-4.73-.89,5.14,5.14,0,0,1-2.07-3.5.59.59,0,0,0-.63-.47l-1.06.11a.58.58,0,0,0-.52.58,20.76,20.76,0,0,0,.22,3.59,4,4,0,0,0,1.29,2.25c1.22,1.08,3.26,1.62,6.2,1.62.76,0,1.58,0,2.46-.1a13,13,0,0,0,7-2.43A6.81,6.81,0,0,0,94.85,157,6,6,0,0,0,93,152.45,14.8,14.8,0,0,0,87.56,149.55Z"/><path class="cls-1" d="M117.47,139.14a10,10,0,0,0-7.21-2.35,23.69,23.69,0,0,0-4.94.6,6.92,6.92,0,0,0-3.44,1.68,4.54,4.54,0,0,0-1.27,2.26,15.15,15.15,0,0,0-.23,2.95.6.6,0,0,0,.18.42.58.58,0,0,0,.43.16l2.39-.1a.57.57,0,0,0,.54-.45,5.38,5.38,0,0,1,1.8-3.22,6.13,6.13,0,0,1,3.5-1,4.14,4.14,0,0,1,3.67,1.59c.82,1.07,1.26,3.13,1.31,6.12l-1,0a23.84,23.84,0,0,0-10.05,2,6.67,6.67,0,0,0-4.07,6.38,7.23,7.23,0,0,0,1.37,4.63,7.38,7.38,0,0,0,3.26,2.41,9.88,9.88,0,0,0,3.41.64h.26a12.07,12.07,0,0,0,4.86-1,8.88,8.88,0,0,0,2.69-1.87l1.55,2a.57.57,0,0,0,.46.22h2.66a.58.58,0,0,0,.58-.58V148.34C120.16,143.8,119.28,140.79,117.47,139.14Zm-3.26,11.93v6.37a8.2,8.2,0,0,1-1.89,2.05h0a4.43,4.43,0,0,1-2.6.79,4.56,4.56,0,0,1-3.2-1.05,4,4,0,0,1-1.25-3.23,4,4,0,0,1,2-3.41,10.92,10.92,0,0,1,5.91-1.5Z"/><path class="cls-1" d="M142,138.17a6.09,6.09,0,0,0-3.53-1.07,8.59,8.59,0,0,0-4.08.75,8.74,8.74,0,0,0-2.32,1.63,3.56,3.56,0,0,0-1.45-1.5,7.12,7.12,0,0,0-3.33-.7l-4.26-.06a.63.63,0,0,0-.41.17.58.58,0,0,0-.17.41v1.06a.57.57,0,0,0,.57.58h.53c1.28,0,2.09.35,2.48,1a7.7,7.7,0,0,1,.67,3.7v18.47a.57.57,0,0,0,.57.58c1.6,0,3.2.07,4.78.12h0a.56.56,0,0,0,.4-.17.55.55,0,0,0,.18-.41V143.44a4.91,4.91,0,0,1,1.81-1.53,5.38,5.38,0,0,1,2.63-.54,7.27,7.27,0,0,1,2.36.47,3.12,3.12,0,0,1,1.45,1.07.58.58,0,0,0,.8.14l2.13-1.47a.58.58,0,0,0,.17-.76A9,9,0,0,0,142,138.17Z"/><path class="cls-1" d="M171,140.12c-1.59-.18-3.19-.36-4.77-.52a.58.58,0,0,0-.45.14.59.59,0,0,0-.19.43v19.92a5.8,5.8,0,0,1-4.66,1.94,5.58,5.58,0,0,1-3.79-1.89A7.55,7.55,0,0,1,155.6,155v-9.49a15,15,0,0,0-.45-4.22,3.85,3.85,0,0,0-1.67-2.26,7.5,7.5,0,0,0-3.2-.79L146,138a.56.56,0,0,0-.43.15.59.59,0,0,0-.19.43v1.05a.58.58,0,0,0,.55.58l.53,0a2.81,2.81,0,0,1,2.5,1.18,8.06,8.06,0,0,1,.67,3.76v9.49c0,3.67.91,6.36,2.71,8a11.34,11.34,0,0,0,6.84,2.78,10.38,10.38,0,0,0,4.24-.42,9.25,9.25,0,0,0,2.77-1.42c.53.66,1.06,1.33,1.6,2a.57.57,0,0,0,.39.22l2.64.29h.07a.54.54,0,0,0,.38-.15.57.57,0,0,0,.2-.43V140.7A.58.58,0,0,0,171,140.12Z"/><path class="cls-1" d="M192.08,142.54a9.89,9.89,0,0,0-4.23.14,8.68,8.68,0,0,0-2.69,1.24,4.53,4.53,0,0,0-1.48-1.57,7.87,7.87,0,0,0-3.22-1c-1.57-.22-3.17-.43-4.76-.63a.59.59,0,0,0-.46.14.61.61,0,0,0-.2.44v1a.59.59,0,0,0,.51.58l1.06.13a3.06,3.06,0,0,1,2.52,1.38,8.52,8.52,0,0,1,.67,3.81v18.47a.58.58,0,0,0,.5.58c1.57.21,3.16.44,4.75.67a.56.56,0,0,0,.46-.13.57.57,0,0,0,.2-.44V147.46a5.3,5.3,0,0,1,4.6-1.65,6,6,0,0,1,3.78,2.19,8.19,8.19,0,0,1,1.52,5.32v15.83a.58.58,0,0,0,.48.58c1.59.27,3.18.56,4.72.85h.11a.57.57,0,0,0,.37-.14.59.59,0,0,0,.21-.45V154.18c0-3.67-.89-6.44-2.66-8.25A11.88,11.88,0,0,0,192.08,142.54Z"/><path class="cls-1" d="M225,171.36a19.07,19.07,0,0,0-8.51-4.13c-4.38-1-5-2-5-2.49a.32.32,0,0,1,.12-.28c.25-.19,1.2-.57,4.65.21,4,.91,6.76.67,8.53-.74,1.38-1.09,2.08-2.9,2.08-5.36a8,8,0,0,0-1.09-4A11.25,11.25,0,0,0,224,152.3l1.93.18a.54.54,0,0,0,.45-.15.57.57,0,0,0,.19-.43v-1.31a.59.59,0,0,0-.44-.57c-3.2-.8-6.44-1.58-9.65-2.31-3.84-.87-6.7-.59-8.49.84-1.43,1.15-2.15,3-2.15,5.5a9.6,9.6,0,0,0,1.2,4.74,10.48,10.48,0,0,0,2.29,2.88,5.08,5.08,0,0,0-.76.63,2.7,2.7,0,0,0-.64,1.94,4.63,4.63,0,0,0,1.41,3.26,7.55,7.55,0,0,0-3.26,1.7,5.56,5.56,0,0,0-1.81,4.32,9.1,9.1,0,0,0,3.32,7.31,20.13,20.13,0,0,0,8.63,3.89,22,22,0,0,0,4.94.64,10.54,10.54,0,0,0,3.76-.62c2.3-.88,3.47-2.9,3.47-6A9.49,9.49,0,0,0,225,171.36Zm-13.85-.2a4.94,4.94,0,0,1,2.83-1.44l2.71.86c3.89,1.38,5.86,3.74,5.87,7,0,1.83-.51,3-1.54,3.62a6.23,6.23,0,0,1-4.53.28,9.17,9.17,0,0,1-4.67-2.44,6.23,6.23,0,0,1-1.67-4.55A4.91,4.91,0,0,1,211.18,171.16Zm.57-16.12c0-1.92.41-3.21,1.22-3.85a3.09,3.09,0,0,1,2-.65,6,6,0,0,1,1.28.15,5.81,5.81,0,0,1,3.45,2.2,7.27,7.27,0,0,1,1.31,4.52c0,1.91-.4,3.2-1.2,3.82a3.78,3.78,0,0,1-3.3.46,6,6,0,0,1-3.46-2.09A7.08,7.08,0,0,1,211.75,155Z"/><path class="cls-1" d="M133.13,52.82c-2.87,2.88-7.73,6.88-8.26,6.35s3.46-5.39,6.33-8.27,3.53-2.68,4.06-2.14S136,50,133.13,52.82Z"/><path class="cls-1" d="M112.29,69.85C115.16,67,120,63,120.55,63.5s-3.46,5.39-6.33,8.27-3.53,2.68-4.06,2.14S109.42,72.72,112.29,69.85Z"/><path class="cls-1" d="M131.22,71.75c-2.87-2.87-6.87-7.72-6.34-8.25s5.39,3.46,8.26,6.33,2.68,3.53,2.15,4.06S134.1,74.62,131.22,71.75Z"/><path class="cls-1" d="M114.2,50.92c2.87,2.87,6.88,7.72,6.34,8.25s-5.39-3.46-8.26-6.33-2.68-3.53-2.15-4.06S111.32,48.05,114.2,50.92Z"/><path class="cls-1" d="M136.1,62.68c-4.07,0-10.33-.6-10.33-1.35S132,60,136.09,60s4.39.61,4.39,1.36S140.16,62.68,136.1,62.68Z"/><path class="cls-1" d="M109.33,60c4.06,0,10.32.6,10.32,1.35s-6.26,1.36-10.32,1.37-4.39-.61-4.39-1.36S105.26,60,109.33,60Z"/><path class="cls-1" d="M121.36,74.72c0-4.06.6-10.32,1.35-10.33s1.37,6.26,1.37,10.33-.6,4.39-1.35,4.39S121.37,78.78,121.36,74.72Z"/><path class="cls-1" d="M124.06,48c0,4.06-.6,10.32-1.35,10.32S121.34,52,121.34,48s.6-4.39,1.35-4.39S124.05,43.89,124.06,48Z"/></svg>
