<svg id="Layer_1" data-name="Layer 1" xmlns="http://www.w3.org/2000/svg" viewBox="130 100 200 200"><defs><style>.cls-1{fill:#373838;}.cls-2{fill:#fff;}</style></defs><title>icon 1-01</title><path class="cls-2" d="M145.14,201.28a2.29,2.29,0,0,0-2.29,2.29v5.6a2.29,2.29,0,0,0,4.57,0v-5.6a2.29,2.29,0,0,0-2.28-2.29Zm0,0"/><path class="cls-2" d="M145.14,218.49a2.29,2.29,0,0,0-2.29,2.29v5.6a2.29,2.29,0,0,0,4.57,0v-5.6a2.29,2.29,0,0,0-2.28-2.29Zm0,0"/><path class="cls-2" d="M156.54,212.69h-5.6a2.29,2.29,0,0,0,0,4.57h5.6a2.29,2.29,0,1,0,0-4.57Zm0,0"/><path class="cls-2" d="M139.33,212.69h-5.6a2.29,2.29,0,0,0,0,4.57h5.6a2.29,2.29,0,1,0,0-4.57Zm0,0"/><path class="cls-2" d="M254.35,174.55a2.29,2.29,0,0,0-2.28,2.29v5.6a2.29,2.29,0,0,0,4.57,0v-5.6a2.29,2.29,0,0,0-2.29-2.29Zm0,0"/><path class="cls-2" d="M254.35,191.76a2.28,2.28,0,0,0-2.28,2.29v5.59a2.29,2.29,0,1,0,4.57,0v-5.59a2.28,2.28,0,0,0-2.29-2.29Zm0,0"/><path class="cls-2" d="M265.76,186h-5.6a2.29,2.29,0,0,0,0,4.58h5.6a2.29,2.29,0,0,0,0-4.58Zm0,0"/><path class="cls-2" d="M248.55,186H243a2.29,2.29,0,0,0,0,4.58h5.6a2.29,2.29,0,0,0,0-4.58Zm0,0"/><path class="cls-2" d="M244.72,207.68a8.62,8.62,0,0,0-14.94-3.3,5.57,5.57,0,0,0-.57-.37,8.61,8.61,0,0,0-11.67,3,8.61,8.61,0,0,0-11.17,3.47l-7.89,13.68a2.43,2.43,0,1,0,4.21,2.43l7.9-13.68a3.74,3.74,0,0,1,4.49-1.66l-10.89,18.87-17.53,4.83a2.93,2.93,0,0,1-3.46-1.67,2.86,2.86,0,0,1-.24-1.15,2.92,2.92,0,0,1,.91-2.11l7.73-7.33A9.49,9.49,0,0,0,179,208.5l-15.15,13.41a12.49,12.49,0,0,0-4.2,9.34v11.3a5.06,5.06,0,0,1-.38,1.95l-1.91,4.43a7,7,0,0,0-7.88,4.33l-4.16,10.83a2.43,2.43,0,1,0,4.54,1.75L154,255a2,2,0,0,1,1.13-1.17,2.07,2.07,0,0,1,1.62,0l31.14,12.95a.05.05,0,0,0,0,0l0,0,.25.1a2.08,2.08,0,0,1,1.15,2.68l-4.25,11.08a2.43,2.43,0,0,0,4.54,1.74l4.25-11.07a6.9,6.9,0,0,0-2-7.78l2.94-6.89a5.17,5.17,0,0,1,2.41-2.6l9.55-4.88a2.43,2.43,0,0,0-2.21-4.33l-9.56,4.87a10.07,10.07,0,0,0-4.67,5.05l-2.82,6.6-25.7-10.69,1.84-4.3a9.89,9.89,0,0,0,.76-3.84v-11.3a7.63,7.63,0,0,1,2.57-5.7l15.14-13.41a4.69,4.69,0,0,1,3.07-1.16,4.63,4.63,0,0,1,3.06,8.09l-.06.05-7.75,7.36a7.82,7.82,0,0,0-2.43,5.64,7.72,7.72,0,0,0,.64,3.08,7.81,7.81,0,0,0,9.23,4.43l27.4-7.56a10.34,10.34,0,0,0,6.75-4.92l11-19.12a3.76,3.76,0,0,1,6.51,3.76L228,231.93a5.46,5.46,0,0,1-2.25,2.14l-12.38,6.32a2.43,2.43,0,1,0,2.21,4.33L228,238.4a10.35,10.35,0,0,0,4.24-4l11.63-20.15a8.55,8.55,0,0,0,.86-6.54Zm-26.83,17a5.44,5.44,0,0,1-3.61,2.62l-.14,0-3.26.9,10.77-18.66a3.75,3.75,0,0,1,5.13-1.37,2.77,2.77,0,0,1,.45.31Zm0,0"/><path class="cls-2" d="M252.79,134.62a2.44,2.44,0,0,0-3.14,1.4l-4.16,10.84a2.1,2.1,0,0,1-2.76,1.18l-1.06-.45h0l0,0-30.33-12.62a2.07,2.07,0,0,1-1.15-2.68l4.25-11.07a2.44,2.44,0,0,0-4.55-1.74l-4.25,11.07a6.92,6.92,0,0,0,1.9,7.71l-2.86,7a5.17,5.17,0,0,1-2.41,2.6l-10.7,5.46a2.43,2.43,0,1,0,2.21,4.33l10.7-5.46a10,10,0,0,0,4.69-5.07l2.72-6.61,25.72,10.7-1.77,4.33a9.86,9.86,0,0,0-.77,3.84v11.3a7.64,7.64,0,0,1-2.56,5.7l-15.15,13.4a4.62,4.62,0,0,1-6.13-6.92l.07-.06,7.74-7.35a7.78,7.78,0,0,0,2.43-5.65,7.7,7.7,0,0,0-.63-3.07,7.83,7.83,0,0,0-9.23-4.44l-27.4,7.57a10.34,10.34,0,0,0-6.75,4.92l-11,19.12a3.76,3.76,0,1,1-6.51-3.76l11.63-20.14a5.46,5.46,0,0,1,2.25-2.14L185.05,162a2.43,2.43,0,1,0-2.22-4.33l-11.33,5.79a10.29,10.29,0,0,0-4.24,4l-11.63,20.15a8.63,8.63,0,0,0,3.15,11.78,8.67,8.67,0,0,0,4.3,1.16,8.69,8.69,0,0,0,6.63-3.1,5.5,5.5,0,0,0,.57.36,8.51,8.51,0,0,0,4.29,1.16,8.58,8.58,0,0,0,7.38-4.14,8.48,8.48,0,0,0,3.69.84,8.69,8.69,0,0,0,7.48-4.31l8.19-14.2a2.43,2.43,0,1,0-4.21-2.43L188.9,189a3.76,3.76,0,0,1-4.49,1.67l10.89-18.87,17.52-4.84a2.94,2.94,0,0,1,3.47,1.68,2.81,2.81,0,0,1,.24,1.14,2.93,2.93,0,0,1-.91,2.12l-7.73,7.33a9.49,9.49,0,0,0,12.62,14.18L235.66,180a12.49,12.49,0,0,0,4.2-9.34v-11.3a5.05,5.05,0,0,1,.4-2l1.81-4.41a7.27,7.27,0,0,0,1.47.16A7,7,0,0,0,250,148.6l4.16-10.84a2.43,2.43,0,0,0-1.4-3.14Zm-74.95,57.64a3.75,3.75,0,0,1-5.13,1.37,2.77,2.77,0,0,1-.45-.31l9.34-16.17a5.44,5.44,0,0,1,3.61-2.62l.14,0,3.26-.9Zm0,0"/></svg>
