<svg id="Layer_1" data-name="Layer 1" xmlns="http://www.w3.org/2000/svg" viewBox="105 100 200 200"><defs><style>.cls-1{fill:#373838;}.cls-2{fill:#fff;}</style></defs><title>icon 3</title><path class="cls-2" d="M158.37,227.18H198c.36,1.74,1.4,2.44,2.37,3.76a13.47,13.47,0,0,0,10.45,4.94h0c7.84,0,11.11-6,11.83-6.63a4.78,4.78,0,0,0,1-2.07h5.47a15.38,15.38,0,0,1,12.94,7,2.27,2.27,0,0,0,1.9,1,2.31,2.31,0,0,0,1.23-.36,2.27,2.27,0,0,0,.66-3.13,19.92,19.92,0,0,0-16.73-9.07h-5.36v-5.07a30.87,30.87,0,0,0,8.07-5.46,2.26,2.26,0,1,0-3.1-3.29,26.13,26.13,0,0,1-44-17.69,2.27,2.27,0,0,0-2.26-2.14h-2.25a4.38,4.38,0,0,1-4.37-4.38V181.5a4.38,4.38,0,0,1,4.37-4.38h2.21a2.26,2.26,0,0,0,2.26-2.26V162a18.78,18.78,0,0,0,5.23.74H237v12.14a2.26,2.26,0,0,0,2.26,2.26h2.2a4.38,4.38,0,0,1,4.38,4.38v3.13a4.38,4.38,0,0,1-4.38,4.38h-2.24a2.25,2.25,0,0,0-2.26,2.14,25.72,25.72,0,0,1-3.14,11.12,2.27,2.27,0,0,0,.9,3.07,2.37,2.37,0,0,0,1.08.27,2.26,2.26,0,0,0,2-1.17,30.48,30.48,0,0,0,3.5-10.91h.17a8.91,8.91,0,0,0,8.9-8.9V181.5a8.91,8.91,0,0,0-8.84-8.9V150.77a27.09,27.09,0,0,0-27.06-27.06h-40.9a2.26,2.26,0,0,0-2.26,2.26v9.79a2.26,2.26,0,0,0,4.52,0v-7.53h38.64A22.56,22.56,0,0,1,237,150.77v7.44H189.91a14.18,14.18,0,0,1-6.28-1.46,1.59,1.59,0,0,0-.32-.16,14.11,14.11,0,0,1-7.52-11.89,2.26,2.26,0,1,0-4.52.2,18.59,18.59,0,0,0,8.9,15.09c0,.16,0,.32,0,.48V172.6a8.91,8.91,0,0,0-8.84,8.9v3.14a8.9,8.9,0,0,0,8.89,8.89h.18a30.78,30.78,0,0,0,17.51,24.06v5.07H158.37a.22.22,0,0,1-.22-.23V209.65a3.58,3.58,0,0,0-2.55-3.42v-5.38l11.76-8.23a6.3,6.3,0,0,0,1.55-8.77,6.3,6.3,0,0,0-8.77-1.55l-2,1.41V180.8a12,12,0,1,0-24.08,0v11.64a8.62,8.62,0,0,0,1.77,5.21l.76,1v7.52a3.58,3.58,0,0,0-2.83,3.49V234.9a12.16,12.16,0,0,0,12.15,12.15h2a2.26,2.26,0,1,0,0-4.52h-2a7.64,7.64,0,0,1-7.63-7.63V210.6h15.36v11.83A4.75,4.75,0,0,0,158.37,227.18Zm60.85-7.91v6.95a.27.27,0,0,1-.06.17c-.75.66-2.93,5-8.34,5h0c-5.42,0-7.58-4.31-8.34-5a.27.27,0,0,1-.06-.17v-6.94a30.75,30.75,0,0,0,8.4,1.16A30.37,30.37,0,0,0,219.22,219.27ZM138.57,180.8a7.52,7.52,0,0,1,15,0v7.25a2.27,2.27,0,0,0,3.56,1.85l5.57-3.9a1.77,1.77,0,0,1,2,2.91L152,197.82a2.26,2.26,0,0,0-1,1.85v6.41h-10v-8.21a2.28,2.28,0,0,0-.47-1.38l-1.23-1.59a4.08,4.08,0,0,1-.83-2.46Z"/><path class="cls-2" d="M246.91,271.2a2.26,2.26,0,0,0-2.38,2.26H198.92a9.93,9.93,0,0,1-9.93-9.93v-16.1a4.91,4.91,0,0,0-4.9-4.9H157a2.34,2.34,0,0,0-2.38,2.14,2.26,2.26,0,0,0,2.25,2.38h27.2a.38.38,0,0,1,.38.38v17.31A13.23,13.23,0,0,0,197.7,278h47.89a3.46,3.46,0,0,0,3.46-3.47v-.92A2.35,2.35,0,0,0,246.91,271.2Z"/><path class="cls-2" d="M201.09,197.5A13.76,13.76,0,0,0,223.57,193a2.26,2.26,0,1,0-4.19-1.7,9.24,9.24,0,0,1-15.1,3.05,9,9,0,0,1-2-3.05,2.26,2.26,0,1,0-4.19,1.69A13.5,13.5,0,0,0,201.09,197.5Z"/><path class="cls-2" d="M244,240.75a8.29,8.29,0,0,0-6.28,2.18,8.33,8.33,0,0,0-6.29-2.18c-3.6.34-6.11,3.12-6.72,7.44-.64,4.53,1.05,8.72,4.9,12.11a20.27,20.27,0,0,0,7.61,4.24,2.07,2.07,0,0,0,.5.06,2.2,2.2,0,0,0,.5-.06,20.42,20.42,0,0,0,7.61-4.24c3.84-3.39,5.54-7.58,4.89-12.11C250.15,243.87,247.64,241.09,244,240.75ZM237.76,260c-2.28-.81-9.48-4.48-8.54-11.16.22-1.53.86-3.4,2.67-3.57h.28a3.82,3.82,0,0,1,3.45,2.39,2.26,2.26,0,0,0,4.28,0,3.8,3.8,0,0,1,3.72-2.38c1.81.17,2.45,2,2.67,3.57C247.23,255.5,240,259.17,237.76,260Z"/><path class="cls-2" d="M266.63,251.77a2.23,2.23,0,0,0-2.38-2.18H258a2.64,2.64,0,0,0-2.26,1.25,2.05,2.05,0,0,0-.27,1,2.24,2.24,0,0,0,2.38,2.18l6.21,0A2.45,2.45,0,0,0,266.63,251.77Z"/><path class="cls-2" d="M263.49,236.25a2.27,2.27,0,0,0-3-1.05l-5.16,2.48a2.27,2.27,0,0,0,2,4.08l5.15-2.49A2.26,2.26,0,0,0,263.49,236.25Z"/><path class="cls-2" d="M263.1,268a2.27,2.27,0,0,0-.74-3.11l-4.88-3a2.26,2.26,0,0,0-3.09,3.14,2.32,2.32,0,0,0,.72.71l4.88,3A2.26,2.26,0,0,0,263.1,268Z"/><path class="cls-2" d="M227.73,174.82a6.69,6.69,0,0,0-9.45-.19,2.29,2.29,0,0,0,3.17,3.3,2.11,2.11,0,0,1,3,0,2.28,2.28,0,1,0,3.3-3.16Zm0,0"/><path class="cls-2" d="M204.08,174.35a6.68,6.68,0,0,0-9.44-.19,2.29,2.29,0,1,0,3.17,3.3,2.1,2.1,0,0,1,3,0,2.29,2.29,0,0,0,1.88.7,2.26,2.26,0,0,0,1.35-.63,2.29,2.29,0,0,0,.07-3.23Zm0,0"/></svg>
