<svg id="Layer_1" data-name="Layer 1" xmlns="http://www.w3.org/2000/svg" viewBox="120 100 200 200"><defs><style>.cls-1{fill:#373737;}.cls-2{fill:#fff;}</style></defs><title>icon 2-01</title><path class="cls-2" d="M277.47,214.72v-.16a.22.22,0,0,1,0-.08.59.59,0,0,0,0-.13s0-.07,0-.1a.36.36,0,0,0,0-.1.65.65,0,0,0,0-.13.19.19,0,0,1,0-.07l-.06-.15v0l-18.08-40.1h13.24a4.18,4.18,0,0,0,4.18-4.18V164a4.19,4.19,0,0,0-4.18-4.18H251.12a14.34,14.34,0,0,1-10.57-4.58,25.87,25.87,0,0,0-18.86-8H207v-5.16a11.82,11.82,0,1,0-15.1,0v5.16H177.21a25.87,25.87,0,0,0-18.86,8,14.35,14.35,0,0,1-10.57,4.59H126.47a4.18,4.18,0,0,0-4.18,4.17v5.54a4.18,4.18,0,0,0,4.18,4.18h13.19l-18,40.1v0l-.06.15a.19.19,0,0,1,0,.07.65.65,0,0,0,0,.13.36.36,0,0,0,0,.1.3.3,0,0,0,0,.1.59.59,0,0,0,0,.13.22.22,0,0,1,0,.08V217a21.06,21.06,0,0,0,21,21h1.8a21.06,21.06,0,0,0,21-21v-2.3a.81.81,0,0,0,0-.16v-.08a.59.59,0,0,1,0-.13.36.36,0,0,1,0-.1l0-.1,0-.13,0-.07-.06-.15v0L147,173.68h1.67a25.83,25.83,0,0,0,18.85-8,14.37,14.37,0,0,1,10.57-4.58H191.9v92.59H168a7.1,7.1,0,0,0-7.1,7.1V265h-4.06a7.23,7.23,0,0,0-7.22,7.23v7.4a2.32,2.32,0,0,0,2.33,2.32h95a2.32,2.32,0,0,0,2.33-2.32v-7.4a7.23,7.23,0,0,0-7.22-7.23H238v-4.13a7.1,7.1,0,0,0-7.1-7.1H207V186.56a2.33,2.33,0,0,0-4.65,0v67.16h-5.8V161.13h5.8v10.73a2.33,2.33,0,0,0,4.65,0V161.13h14.74a12.49,12.49,0,0,1,8.93,3.84,28.13,28.13,0,0,0,20.45,8.71h.74l-18,40.1v0l-.06.15,0,.07,0,.14,0,.09s0,.07,0,.1a.51.51,0,0,1,0,.13v.08a.86.86,0,0,0,0,.16V217a21.06,21.06,0,0,0,21,21h1.8a21.06,21.06,0,0,0,21-21v-2.3Zm-78-88.92A7.18,7.18,0,0,1,203.3,139l-.26.16-.14.08-.38.19-.13.06-.3.13-.13,0-.42.14-.11,0a2,2,0,0,1-.35.09l-.12,0-.45.08h-.07l-.4,0h-1.18l-.4,0h-.07l-.45-.08-.12,0a3.58,3.58,0,0,1-.35-.09l-.12,0-.41-.14-.13,0-.3-.13-.14-.06-.37-.19-.14-.08-.26-.16a7.17,7.17,0,0,1,3.85-13.23Zm2.9,18.64v2.79h-5.8v-2.79l.11,0,.53.12.18,0,.54.09H198a10.89,10.89,0,0,0,1.41.09c.25,0,.49,0,.73,0h0c.22,0,.45,0,.67-.06H201l.54-.09.18,0a5,5,0,0,0,.53-.12Zm-58.1,89h-1.8a16.4,16.4,0,0,1-16.38-16.34h34.56A16.4,16.4,0,0,1,144.25,233.4Zm15.11-21h-32l16-35.55Zm71.55,46h0a2.46,2.46,0,0,1,2.46,2.45V265H184.86a2.33,2.33,0,1,0,0,4.65h57.21a2.58,2.58,0,0,1,2.57,2.58v5.08H154.26v-5.08a2.58,2.58,0,0,1,2.57-2.58H170a2.33,2.33,0,0,0,0-4.65h-4.49v-4.13a2.46,2.46,0,0,1,2.46-2.45h62.92ZM251.12,169A23.55,23.55,0,0,1,234,161.75a17.12,17.12,0,0,0-12.27-5.27H178.08a19,19,0,0,0-14,6.05,21.18,21.18,0,0,1-15.46,6.5H126.94v-4.6h20.84a19,19,0,0,0,14-6.05,21.19,21.19,0,0,1,15.47-6.5h44.48a21.21,21.21,0,0,1,15.47,6.5,19,19,0,0,0,14,6.05H272V169Zm4.4,7.83,16,35.55h-32Zm.93,56.54h-1.8a16.4,16.4,0,0,1-16.38-16.34h34.56A16.4,16.4,0,0,1,256.45,233.4Z"/></svg>
