<svg id="Layer_1" data-name="Layer 1" xmlns="http://www.w3.org/2000/svg" viewBox="19 0 240 240"><defs><style>.cls-1{fill:#383838;}.cls-2{fill:#fff;}</style></defs><title>4</title><path class="cls-2" d="M197.31,181.77v2.47a3.92,3.92,0,0,1-3.92,3.92H127.53l7.46,15.4a3.94,3.94,0,0,1-3.54,5.65H85.63a3.7,3.7,0,0,1-3.33-5.32l7.64-15.78H24.16a3.91,3.91,0,0,1-3.91-3.91v-2.3a4.21,4.21,0,0,1,4.22-4.21H35.2L23.66,163.25a3.83,3.83,0,0,1,.61-5.39l3.34-2.67a2.27,2.27,0,0,1,3.18.34h0c5.62,7,11.22,14.07,16.89,21.05a3.36,3.36,0,0,0,2.24,1.13c10.61.07,21.22.05,31.84.05h1.57c-.32-.4-.43-.58-.58-.73a68,68,0,0,1-18.49-31.11c-3.42-11.78-3-23.32,2-34.58a3.15,3.15,0,0,0-.05-2.91,44.74,44.74,0,0,1-4.19-20.13,46.18,46.18,0,0,1,9.34-27.17,4.32,4.32,0,0,0,1-2.28c.09-5.13,0-10.27,0-15.4a6.72,6.72,0,0,0-.2-1.07H54.37a2.75,2.75,0,0,1-2.75-2.74V34.23a2.14,2.14,0,0,1,2.14-2.14H162.47a3.35,3.35,0,0,1,3.35,3.34V66a2.39,2.39,0,0,1-2.4,2.39h-5.31a2.69,2.69,0,0,1-2.7-2.69V42.6H145.06c0,5.61,0,11.08,0,16.56a3.3,3.3,0,0,0,.72,1.67c10.71,14.91,12.47,30.81,5.42,47.74a3.78,3.78,0,0,0,0,2.69,45.27,45.27,0,0,1,4.16,20.32c-.76,17.4-7.69,32.16-19.78,44.57a21.05,21.05,0,0,1-1.7,1.39,5,5,0,0,0,.79.22l58.63,0A4,4,0,0,1,197.31,181.77ZM103.53,83.93c0-3.59,0-7,0-10.39a1.58,1.58,0,0,0-1.3-1.83q-9.69-3.13-19.32-6.44a1.55,1.55,0,0,0-2,.57c-8.34,10.36-10.76,22-6.64,34.58,7.47,22.77,33.55,32,53.95,19.39,18.31-11.32,22.43-37.28,8.56-53.73-1.07-1.26-1.81-1.25-4.32.15A40.67,40.67,0,0,1,118,71.11c-3.47.45-4.19.93-4.14,2.83.1,3.31,0,6.63,0,10Zm20.69,49.32a47.71,47.71,0,0,1-31.17,0c.4,4.56.7,8.75,1.16,12.92A66.63,66.63,0,0,0,100,168.1a35.25,35.25,0,0,0,5.24,7.83c2.26,2.57,4.52,2.4,7,0a18.28,18.28,0,0,0,2.64-3.18c3.22-4.87,5-10.32,6.41-15.93A111.47,111.47,0,0,0,124.22,133.25ZM82.78,42.54c0,3.54.06,6.88,0,10.22a1.77,1.77,0,0,0,1.5,2.05c7.83,2.56,15.63,5.18,23.45,7.76a2.87,2.87,0,0,0,1.65.15q12.22-4,24.41-8.14c.36-.12.87-.55.88-.84.06-3.72,0-7.45,0-11.2Zm-8.87,78.23c-5.34,15.19,4.19,37.8,14.52,47-.85-3-1.81-6-2.55-9.07a121.8,121.8,0,0,1-3.12-29c0-.65,0-1.55-.42-1.9C79.57,125.36,76.71,123.07,73.91,120.77Zm55.49,46.76c11.77-10.7,19-34.5,14.1-46.81-2.51,2.13-5,4.33-7.6,6.38a3.31,3.31,0,0,0-1.27,2.42c-.39,6.72-.53,13.49-1.44,20.15C132.35,155.79,130.65,161.8,129.4,167.53ZM96.31,198.8h24.83c-1.7-3.45-3.3-6.74-5-10a1.6,1.6,0,0,0-1.23-.61q-6.21-.08-12.43,0a1.6,1.6,0,0,0-1.23.61C99.61,192.06,98,195.36,96.31,198.8Z"/><path class="cls-2" d="M104.55,98.29l1.76,1.9a3.16,3.16,0,0,0,4.57,0l1.82-1.86a3.18,3.18,0,0,1,4.53,0l2.74,2.75a3.17,3.17,0,0,1,0,4.46l-9,9.08a3.15,3.15,0,0,1-4.47,0l-9.19-9.23a3.16,3.16,0,0,1,0-4.46L100,98.17A3.15,3.15,0,0,1,104.55,98.29Z"/><rect class="cls-2" x="82.84" y="84.08" width="10.17" height="10.17" rx="3.58" ry="3.58"/><rect class="cls-2" x="124.42" y="84.08" width="10.18" height="10.17" rx="2.71" ry="2.71"/></svg>
