<svg id="Layer_1" data-name="Layer 1" xmlns="http://www.w3.org/2000/svg" viewBox="45 0 240 240"><defs><style>.cls-1{fill:#383838;}.cls-2{fill:none;stroke:#fff;stroke-linecap:round;stroke-linejoin:round;stroke-width:8.54px;}</style></defs><title>3</title><path class="cls-2" d="M111.62,76.43l25.09-21.18,26.63-23c.52-.44,4.35-4.63,9,0l33.85,31.81a39,39,0,0,1,.46,57.55l-.19.18a1.36,1.36,0,0,1-1.87,0L158.33,77.83a1.4,1.4,0,0,0-1.64-.18L119.22,99.88s-7.49,4.46-15.66-2.33C94.35,89.89,111.62,76.43,111.62,76.43Z"/><path class="cls-2" d="M205.51,122.67c1.82,3.5-2.64,9.68-3.26,10.52a1.29,1.29,0,0,1-.16.17c-4.42,4.16-8.29,4.55-10.8,4.11a1.28,1.28,0,0,0-1.51,1.46c.87,4.22-4.57,8.8-4.57,8.8A10.9,10.9,0,0,1,176,150.8a1.29,1.29,0,0,0-1.49,1.39c.52,5.3-4.06,9.25-4.06,9.25a9.12,9.12,0,0,1-8.33,2.35,1.27,1.27,0,0,0-1.5,1.6c1.24,3.61-1.38,7.13-1.8,7.65a.69.69,0,0,1-.11.13l-13.7,13-.07.07c-.6.68-10.49,11.56-17.77,4.63-4.28-4.07-4.59-7.85-4-10.36a1.29,1.29,0,0,0-1.65-1.43c-4.37,1.06-9.24-2.53-9.89-3l-.13-.12c-3.63-3.64-4.2-6.71-4-8.68a1.32,1.32,0,0,0-1.49-1.4c-4.22.54-9.47-4.44-9.47-4.44-3.68-3.5-4.06-6.9-3.71-9.17a1.28,1.28,0,0,0-1.6-1.39c-4.34,1-9.12-3.74-9.12-3.74L63,128.76h0c-13.6-13.6-18.28-40.69,1.44-61L103.65,32.6a1.37,1.37,0,0,1,1.82,0l28.15,25.25"/><line class="cls-2" x1="188.28" y1="136.35" x2="156.36" y2="106.01"/><line class="cls-2" x1="174.16" y1="150.35" x2="142.52" y2="120.28"/><path class="cls-2" d="M158.8,162.6s-9.13-9.77-17.57-.67l-16.8,15.55"/><path class="cls-2" d="M145.61,157.9s2.88-17.83-15.73-13.62a1.37,1.37,0,0,0-.65.35l-21.06,20.31"/><path class="cls-2" d="M129.5,144.37s3-16.48-13.87-13.92a1.37,1.37,0,0,0-.7.32L93.74,149.48"/><path class="cls-2" d="M115.22,130.51s4.86-10.91-4.13-14.2a12.54,12.54,0,0,0-12.42,2.43l-24.22,21"/></svg>
