<svg id="Layer_1" data-name="Layer 1" xmlns="http://www.w3.org/2000/svg" viewBox="80 70 120 120"><defs><style>.cls-1{fill:#383838;}.cls-2{fill:#fff;}</style></defs><title>2</title><g id="_2nq2Hi" data-name="2nq2Hi"><path class="cls-2" d="M115.83,151.56a39,39,0,0,1-14-3.37,57.34,57.34,0,0,1-5.73-3.2,27,27,0,0,1-9-8.36c-4-6.08-5.81-12.74-4.54-20A27.48,27.48,0,0,1,92.85,99.32,36.66,36.66,0,0,1,105.61,93a57.79,57.79,0,0,1,21.9-1.59,42.14,42.14,0,0,1,10.57,2.44A34.2,34.2,0,0,1,149,100.35a25.1,25.1,0,0,1,7.5,10.72,24.09,24.09,0,0,1,.82,12.71,38.83,38.83,0,0,1-3.77,11,25.7,25.7,0,0,1-8.06,8.87,38.47,38.47,0,0,1-12,5.63A60.45,60.45,0,0,1,115.83,151.56Zm-6.77-34.37a9,9,0,0,0-1.08-4.56c-1.91-3.64-4.33-4.63-7.81-4.42A53.37,53.37,0,0,0,92,109.77c-1.49.33-1.71.68-1.4,2.19s.65,3.16.93,4.75c1,5.66,2,11.33,3,17a1.45,1.45,0,0,0,1.72,1.37,15.24,15.24,0,0,0,3.77-.78,2,2,0,0,0,1.51-2.35,33.85,33.85,0,0,0-.62-3.6c-.27-1.29-.25-1.36.93-1.82a11.94,11.94,0,0,0,1.27-.56C106.6,124.18,109.16,121.77,109.06,117.19Zm19.86,2.26c.67-.45,1.23-.8,1.75-1.2a4.73,4.73,0,0,0,1.3-1.48c1.55-2.78,2-6.52-2.5-7.93a21.73,21.73,0,0,0-8.33-.81A3,3,0,0,0,118.4,111a111.61,111.61,0,0,0,0,16.15,10.38,10.38,0,0,0,1,4.12,1.53,1.53,0,0,0,1,.92,30.4,30.4,0,0,0,8.19.5,3.88,3.88,0,0,0,1.31-.39c2.79-1.24,3.62-3.71,3.93-6.43a5.31,5.31,0,0,0-2.14-5.24A15.21,15.21,0,0,0,128.92,119.45Zm22,4.62a9.47,9.47,0,0,0-1.55-5.93,7.62,7.62,0,0,0-12.86.34,11.75,11.75,0,0,0-.44,11.06c1.25,2.8,3.5,4.77,6.66,4.67A7.66,7.66,0,0,0,150,129,11.82,11.82,0,0,0,150.87,124.07Zm-40.21,4h0c0,1.62,0,3.23,0,4.85,0,1.16.14,1.77,1.25,2.14a3.72,3.72,0,0,0,2.24.06,1.87,1.87,0,0,0,1.62-2c0-3.36,0-6.73,0-10.1,0-1.37-.88-2-2.49-2a2.24,2.24,0,0,0-2.52,2.07C110.63,124.69,110.66,126.37,110.66,128.05Zm4.67-12.14a2,2,0,0,0-2.32-2.08,2.16,2.16,0,1,0-.13,4.32A2.23,2.23,0,0,0,115.33,115.91Z"/><path class="cls-2" d="M97.69,115.51c0-.72-.13-1.22.51-1.41a1.68,1.68,0,0,1,1.65.34,4.49,4.49,0,0,1,1,4.31,1.51,1.51,0,0,1-1.32.92c-.64,0-.91-.43-1.06-1-.25-.92-.51-1.84-.74-2.77A.81.81,0,0,1,97.69,115.51Z"/><path class="cls-2" d="M124.52,123.55c0-.34,0-.74.09-1.13.07-.56-.07-1.32.69-1.45a1.82,1.82,0,0,1,2,1,2.8,2.8,0,0,1-1.64,3.85c-.57.19-.68,0-.87-.38A4.79,4.79,0,0,1,124.52,123.55Z"/><path class="cls-2" d="M124.49,116.45c.21-.61-.27-1.68,1-1.74a1.82,1.82,0,0,1,2,1.86,2.1,2.1,0,0,1-2,1.78C124.33,118.22,124.56,117.28,124.49,116.45Z"/><path class="cls-2" d="M144.3,122.37a4.1,4.1,0,0,1-.41,2c-.56,1.14-1.28,1.59-2.31,1.42a2.26,2.26,0,0,1-1.76-2.11,4.88,4.88,0,0,1,1.05-3.51,1.81,1.81,0,0,1,3,.38A3.25,3.25,0,0,1,144.3,122.37Z"/></g></svg>
