<svg id="Layer_1" data-name="Layer 1" xmlns="http://www.w3.org/2000/svg" xmlns:xlink="http://www.w3.org/1999/xlink" width="250" height="150" viewBox="0 0 400 400"><defs><style>.s2d6-image4_1,.s2d6-image4_10,.s2d6-image4_11,.s2d6-image4_14,.s2d6-image4_15,.s2d6-image4_16,.s2d6-image4_18,.s2d6-image4_20,.s2d6-image4_21,.s2d6-image4_22,.s2d6-image4_23,.s2d6-image4_24,.s2d6-image4_25,.s2d6-image4_26,.s2d6-image4_27,.s2d6-image4_29,.s2d6-image4_32,.s2d6-image4_36,.s2d6-image4_40,.s2d6-image4_41{fill:none;}.s2d6-image4_2{fill:#2e5f5a;}.s2d6-image4_3{fill:#daa534;}.s2d6-image4_4{clip-path:url(#s2d6-image4-cp);}.s2d6-image4_5{fill:url(#s2d6-image4-lg);}.s2d6-image4_6{fill:url(#s2d6-image4-lg_2);}.s2d6-image4_7{fill:url(#s2d6-image4-lg_3);}.s2d6-image4_8{fill:url(#s2d6-image4-lg_4);}.s2d6-image4_37,.s2d6-image4_42,.s2d6-image4_43,.s2d6-image4_9{fill:#fff;}.s2d6-image4_10,.s2d6-image4_11,.s2d6-image4_22,.s2d6-image4_29{stroke:#dba634;}.s2d6-image4_10,.s2d6-image4_11,.s2d6-image4_23,.s2d6-image4_24,.s2d6-image4_25,.s2d6-image4_29,.s2d6-image4_40,.s2d6-image4_41{stroke-linecap:round;stroke-linejoin:round;}.s2d6-image4_10,.s2d6-image4_11,.s2d6-image4_29{stroke-width:2.29px;}.s2d6-image4_11{stroke-dasharray:0 7.13;}.s2d6-image4_12{fill:#dba634;}.s2d6-image4_13{fill:#2f4862;}.s2d6-image4_14,.s2d6-image4_15,.s2d6-image4_16,.s2d6-image4_28{stroke:#5d9e9a;}.s2d6-image4_14,.s2d6-image4_15,.s2d6-image4_16,.s2d6-image4_18,.s2d6-image4_20,.s2d6-image4_21,.s2d6-image4_22,.s2d6-image4_26,.s2d6-image4_27,.s2d6-image4_28,.s2d6-image4_32,.s2d6-image4_36{stroke-miterlimit:10;}.s2d6-image4_14{stroke-width:0.91px;}.s2d6-image4_15{stroke-width:0.96px;}.s2d6-image4_16{stroke-width:0.91px;}.s2d6-image4_17,.s2d6-image4_28{fill:#5d9e9a;}.s2d6-image4_18,.s2d6-image4_21,.s2d6-image4_23,.s2d6-image4_24,.s2d6-image4_25{stroke:#fff;}.s2d6-image4_18{stroke-width:1.42px;}.s2d6-image4_19{fill:#c97475;}.s2d6-image4_20,.s2d6-image4_26,.s2d6-image4_32{stroke:#2f4862;}.s2d6-image4_20{stroke-width:1.48px;}.s2d6-image4_21{stroke-width:0.83px;}.s2d6-image4_22,.s2d6-image4_26{stroke-width:2.88px;}.s2d6-image4_23,.s2d6-image4_24,.s2d6-image4_25{stroke-width:1.82px;}.s2d6-image4_24{stroke-dasharray:0 8.63;}.s2d6-image4_25{stroke-dasharray:0 7.58;}.s2d6-image4_27{stroke:#c97475;}.s2d6-image4_27,.s2d6-image4_28{stroke-width:0.96px;}.s2d6-image4_29{stroke-dasharray:0 7.13;}.s2d6-image4_30{clip-path:url(#s2d6-image4-cp_2);}.s2d6-image4_31{clip-path:url(#s2d6-image4-cp_3);}.s2d6-image4_32{stroke-width:2.2px;}.s2d6-image4_33{fill:#919a51;}.s2d6-image4_34{fill:#d7a234;}.s2d6-image4_35{fill:#357d74;}.s2d6-image4_36{stroke:#d7a234;stroke-width:1.08px;}.s2d6-image4_37{font-size:4.71px;letter-spacing:0.08em;}.s2d6-image4_37,.s2d6-image4_42,.s2d6-image4_43{font-family:PermanentMarker-Regular, Permanent Marker;}.s2d6-image4_38{letter-spacing:0.1em;}.s2d6-image4_39{letter-spacing:0.05em;}.s2d6-image4_40,.s2d6-image4_41{stroke:#357d74;stroke-width:1.29px;}.s2d6-image4_41{stroke-dasharray:0 5.56;}.s2d6-image4_42{font-size:28.98px;}.s2d6-image4_43{font-size:28.98px;}</style><clipPath id="s2d6-image4-cp"><path class="s2d6-image4_1" d="M962,473.31c-34.55,0-34.55-.21-69.11-.21s-34.55-.14-69.11-.14-34.55-6.44-69.11-6.44-34.56,1.57-69.12,1.57-34.55,1.68-69.11,1.68c-16.71,0-26.85-13.58-26.85-30.29,0-31.93-2.55-31.93-2.55-63.87s-3.39-31.93-3.39-63.87-.55-31.94-.55-63.88,6.09-31.93,6.09-63.87c0-16.71,10.54-29.54,27.25-29.54,34.55,0,34.55-3.15,69.11-3.15s34.55,3.1,69.11,3.1,34.55-.73,69.11-.73,34.56.76,69.11.76,34.56,2.78,69.12,2.78c16.71,0,31.05,10.07,31.05,26.78,0,31.93-4.82,31.93-4.82,63.87s4.63,31.93,4.63,63.87-3.09,31.94-3.09,63.88-.31,31.93-.31,63.87C989.49,456.19,978.74,473.31,962,473.31Z"/></clipPath><linearGradient id="s2d6-image4-lg" x1="3000.18" y1="451.05" x2="3000.85" y2="335.63" gradientTransform="matrix(-1, 0, 0, 1, 3949.01, 0)" gradientUnits="userSpaceOnUse"><stop offset="0.23" stop-color="#b66f1e" stop-opacity="0"/><stop offset="1" stop-color="#b66f1e" stop-opacity="0.8"/></linearGradient><linearGradient id="s2d6-image4-lg_2" x1="3303.22" y1="491.57" x2="3303.59" y2="426.37" xlink:href="#s2d6-image4-lg"/><linearGradient id="s2d6-image4-lg_3" x1="3172.02" y1="243.23" x2="3172.44" y2="171.19" xlink:href="#s2d6-image4-lg"/><linearGradient id="s2d6-image4-lg_4" x1="2968.03" y1="322.54" x2="2968.28" y2="280.14" xlink:href="#s2d6-image4-lg"/><clipPath id="s2d6-image4-cp_2"><path class="s2d6-image4_1" d="M666.27,753c45.26-24.25,67.35-5.51,129.36-28.49-31.3-11.85-56.51-.79-56.51-.79-5.21-3-6.33-10-6.2-16.07s.84-12.57-2.48-17.61c-2.55-3.85-6.94-6-11.13-7.94,15.77-4.43,32.63-2,48.56,1.83s31.67,9,48,10.11c15.07,1,37.35-.87,42.69-11.59,7.69-10.45,12.62-21.13,20.2-31.94C902.7,616.37,967,612,967,612c2.16,5.32,7.9,12.37,7.9,12.37s-23.13-2.93-57.67,14.39-27.8,55.34-58.14,91.1S778.66,761,758.21,762.22s-30.1,10.7-46,31.52-40.08-1.62-40.08-1.62a112,112,0,0,0-42.72-19.27C648.68,766.25,666.27,753,666.27,753Z"/></clipPath><clipPath id="s2d6-image4-cp_3"><path class="s2d6-image4_1" d="M1004.72,652.26c7.78,12.63,14.43,26.51,26,35.84,17.74,14.33,45.78,13.84,63-1.1,6.8-5.89,11.92-13.6,19-19.12a41.55,41.55,0,0,1,28.11-8.56c-9.91-3.51-21.37-2.41-30.39-7.8-5-3-8.71-7.68-13.21-11.39s-10.54-6.5-16.06-4.63c-4.17,1.42-7.06,5.16-10.71,7.64-6.5,4.42-14.92,4.59-22.77,4.21-5.31-.25-10.68-.69-15.73-2.34-13.63-4.44-23-16.84-35.07-24.49-9.17-5.79-22.16-10.18-33.09-8.35,5.85,8.05,3.07,7,11.09,12.22C983.72,630.15,999.25,643.39,1004.72,652.26Z"/></clipPath></defs><title>29</title><rect class="s2d6-image4_2" x="-630.11" y="-174.01" width="2900.71" height="1369.93"/><path class="s2d6-image4_3" d="M962,473.31c-34.55,0-34.55-.21-69.11-.21s-34.55-.14-69.11-.14-34.55-6.44-69.11-6.44-34.56,1.57-69.12,1.57-34.55,1.68-69.11,1.68c-16.71,0-26.85-13.58-26.85-30.29,0-31.93-2.55-31.93-2.55-63.87s-3.39-31.93-3.39-63.87-.55-31.94-.55-63.88,6.09-31.93,6.09-63.87c0-16.71,10.54-29.54,27.25-29.54,34.55,0,34.55-3.15,69.11-3.15s34.55,3.1,69.11,3.1,34.55-.73,69.11-.73,34.56.76,69.11.76,34.56,2.78,69.12,2.78c16.71,0,31.05,10.07,31.05,26.78,0,31.93-4.82,31.93-4.82,63.87s4.63,31.93,4.63,63.87-3.09,31.94-3.09,63.88-.31,31.93-.31,63.87C989.49,456.19,978.74,473.31,962,473.31Z"/><g class="s2d6-image4_4"><path class="s2d6-image4_5" d="M817,417.91v0c.15-.24.3-.48.47-.71l0-.06a7.68,7.68,0,0,1,.5-.63l.08-.09c.17-.19.34-.37.52-.55l.13-.11a6.06,6.06,0,0,1,.54-.47l.18-.14.53-.38c.08-.06.17-.1.25-.15l.52-.31.33-.15.48-.23.41-.15.45-.16.49-.13.41-.1c.2,0,.41-.06.62-.09l.31,0c.32,0,.64-.05,1-.05a9.53,9.53,0,0,1,4.29,1,12.63,12.63,0,0,1,1-1.27,14.24,14.24,0,0,1,13.35-4.26c.31.06.61.14.91.22a14.33,14.33,0,0,1,20.57-9.81,22.9,22.9,0,0,1-.57-3.75c0-.48,0-1,0-1.45A22.82,22.82,0,0,1,894,371.94a22.61,22.61,0,0,1,.89-4.11A22.83,22.83,0,0,1,932.21,358c.28.26.54.52.8.78a34.29,34.29,0,0,1,7-5.06,33.94,33.94,0,0,1,41.13,6.75c.62.66,1.22,1.36,1.79,2.08a34.61,34.61,0,0,1,3,4.57,34.06,34.06,0,0,1,3.13,7.72,23.61,23.61,0,0,1,2.39-.12,22.68,22.68,0,0,1,14.79,5.45,23.07,23.07,0,0,1,5.75,7.42,14.25,14.25,0,0,1,4.95-.89,14.2,14.2,0,0,1,9.43,3.54,12.46,12.46,0,0,1,.91.87,14.4,14.4,0,0,1,3.85,7.89,14.22,14.22,0,0,1,7.26-2,14.37,14.37,0,0,1,13.74,10.19q.18.6.3,1.2a14.26,14.26,0,0,1,15.32,5.31,9.54,9.54,0,1,1,0,17,14.31,14.31,0,0,1-19.65,3.3,14.31,14.31,0,0,1-22.27,4.2,14.33,14.33,0,0,1-24.6,1.66,14.28,14.28,0,0,1-17.52-4,14.3,14.3,0,0,1-19.3,10.93,34,34,0,0,1-53.34-8.1A14.26,14.26,0,0,1,896,440.4a14.33,14.33,0,0,1-24.59-1.66,14.31,14.31,0,0,1-22.27-4.21,14.31,14.31,0,0,1-19.65-3.3A9.53,9.53,0,0,1,817,417.91Z"/><path class="s2d6-image4_6" d="M571.3,472.85h0c.08-.14.17-.28.26-.41l0,0,.29-.36,0-.05c.1-.1.19-.21.3-.31l.07-.06.3-.27.11-.07a2.32,2.32,0,0,1,.3-.22l.14-.09.29-.17.18-.09a2.36,2.36,0,0,1,.28-.12,1.57,1.57,0,0,1,.23-.09l.25-.09.28-.07.23-.06.35,0,.18,0a4.78,4.78,0,0,1,.54,0,5.46,5.46,0,0,1,2.42.57A7.93,7.93,0,0,1,579,470a8.09,8.09,0,0,1,4.93-2.52,8.22,8.22,0,0,1,1-.06,7.81,7.81,0,0,1,1.62.17l.52.13a8.08,8.08,0,0,1,11.62-5.54,13.55,13.55,0,0,1-.32-2.12c0-.27,0-.55,0-.82a12.92,12.92,0,0,1,16.51-12.4A12.91,12.91,0,0,1,636.41,439l.45.45a19.18,19.18,0,0,1,27.21,1c.35.37.69.77,1,1.17a19.62,19.62,0,0,1,1.72,2.58,19,19,0,0,1,1.77,4.37,12.21,12.21,0,0,1,1.35-.07,12.89,12.89,0,0,1,11.6,7.27,8,8,0,0,1,4.29-.37,8,8,0,0,1,3.84,1.87,5.9,5.9,0,0,1,.51.49,8,8,0,0,1,2.17,4.45,8.11,8.11,0,0,1,11.87,4.63c.06.22.12.45.17.68a8,8,0,0,1,2.14-.29,8.06,8.06,0,0,1,6.51,3.29,5.39,5.39,0,1,1,0,9.62,8.08,8.08,0,0,1-11.1,1.87,8.08,8.08,0,0,1-12.58,2.37,8.09,8.09,0,0,1-13.89.94,8.07,8.07,0,0,1-9.9-2.24,8.08,8.08,0,0,1-10.9,6.18,19.24,19.24,0,0,1-30.13-4.58,8,8,0,0,1-8.57.91,8.1,8.1,0,0,1-13.9-.93,8.09,8.09,0,0,1-12.58-2.38,8.08,8.08,0,0,1-11.1-1.86A5.46,5.46,0,0,1,576,481a5.39,5.39,0,0,1-5.39-5.39A5.33,5.33,0,0,1,571.3,472.85Z"/><path class="s2d6-image4_7" d="M694.68,222.54h0c.09-.16.19-.3.29-.45l0,0c.1-.14.2-.27.31-.4l0-.05c.11-.12.21-.24.33-.35l.08-.07.33-.29.12-.09a2.75,2.75,0,0,1,.33-.23l.16-.1.32-.19.2-.1.3-.14.26-.09.28-.1.31-.08a1.83,1.83,0,0,1,.25-.06l.39-.06.19,0q.3,0,.6,0a5.92,5.92,0,0,1,2.68.64,8.27,8.27,0,0,1,.65-.79,8.93,8.93,0,0,1,5.45-2.78,7.88,7.88,0,0,1,1.09-.07,8.84,8.84,0,0,1,1.79.19,5.45,5.45,0,0,1,.58.14,8.95,8.95,0,0,1,12.83-6.13,13.78,13.78,0,0,1-.35-2.33c0-.3,0-.61,0-.91a14.22,14.22,0,0,1,18.24-13.69,14.49,14.49,0,0,1,.55-2.57,14.26,14.26,0,0,1,23.32-6.13c.17.16.33.32.49.49a21.55,21.55,0,0,1,4.4-3.16,21.18,21.18,0,0,1,25.67,4.21c.39.42.76.85,1.11,1.3a21.18,21.18,0,0,1,3.87,7.67,14.56,14.56,0,0,1,1.49-.08,14.27,14.27,0,0,1,12.81,8,8.88,8.88,0,0,1,3.1-.56,9,9,0,0,1,1.65.15,8.94,8.94,0,0,1,4.23,2.06,7.27,7.27,0,0,1,.57.54,9,9,0,0,1,2.4,4.93,8.85,8.85,0,0,1,4.53-1.25,9,9,0,0,1,8.57,6.36c.08.25.14.5.2.75a8.74,8.74,0,0,1,2.36-.33,8.94,8.94,0,0,1,7.2,3.64,6,6,0,1,1,0,10.64A9,9,0,0,1,839,232.62a8.93,8.93,0,0,1-13.9,2.62,8.95,8.95,0,0,1-15.35,1,9,9,0,0,1-10.94-2.47,8.92,8.92,0,0,1-12,6.82,21.25,21.25,0,0,1-33.29-5.06,8.85,8.85,0,0,1-5.54,1.93,9,9,0,0,1-3.93-.92,9,9,0,0,1-15.35-1,8.94,8.94,0,0,1-13.9-2.63,8.92,8.92,0,0,1-12.26-2.06,5.95,5.95,0,0,1-8.63-5.32A6,6,0,0,1,694.68,222.54Z"/><path class="s2d6-image4_8" d="M932.53,310.36h0c.05-.09.11-.17.17-.26v0a2.11,2.11,0,0,1,.19-.23l0,0,.2-.21,0,0,.2-.17.07-.05.19-.14.1-.06.18-.11L934,309l.18-.08.15-.05a1.15,1.15,0,0,1,.17-.06l.18,0,.15,0,.23,0,.11,0,.35,0a3.51,3.51,0,0,1,1.58.38,5.81,5.81,0,0,1,.38-.46,5.23,5.23,0,0,1,3.21-1.64,4.58,4.58,0,0,1,.64,0,5.29,5.29,0,0,1,1.06.11l.34.08a5.26,5.26,0,0,1,7.55-3.6,9,9,0,0,1-.21-1.38c0-.18,0-.35,0-.53a8.4,8.4,0,0,1,8.4-8.4,8.22,8.22,0,0,1,2.34.34,7.52,7.52,0,0,1,.33-1.51,8.38,8.38,0,0,1,13.72-3.61,4,4,0,0,1,.29.29,12.51,12.51,0,0,1,2.59-1.86,12.32,12.32,0,0,1,6-1.52,12.45,12.45,0,0,1,9.16,4,9.32,9.32,0,0,1,.65.76,11.69,11.69,0,0,1,1.12,1.68,12.19,12.19,0,0,1,1.16,2.84,8.29,8.29,0,0,1,6.31,1.95,8.42,8.42,0,0,1,2.11,2.73,5.24,5.24,0,0,1,5.28,1,3.34,3.34,0,0,1,.33.32,5.24,5.24,0,0,1,1.42,2.9,5.26,5.26,0,0,1,7.71,3c0,.14.08.29.12.44a5.3,5.3,0,0,1,1.39-.19,5.24,5.24,0,0,1,4.23,2.14,3.5,3.5,0,1,1,0,6.26,16.84,16.84,0,0,0-11.91,4.08,5.27,5.27,0,0,0-8.19,1.57,5.25,5.25,0,0,0-6.65-1.74,5.23,5.23,0,0,1-4.12-2,5.28,5.28,0,0,1-5.19,4.38,5.22,5.22,0,0,1-1.9-.36,12.51,12.51,0,0,1-19.59-3,5.24,5.24,0,0,1-3.26,1.13,5.18,5.18,0,0,1-2.32-.54,15.11,15.11,0,0,0-12.52.72,5.27,5.27,0,0,0-7.68-1.94,5.26,5.26,0,0,1-4.23-2.14,3.5,3.5,0,0,1-4.6-4.9Z"/><path class="s2d6-image4_9" d="M579,479.7l91.65,70.49A11.91,11.91,0,0,0,684,551c23-13.82,95.68-57.59,112.18-67.55,10.16-6.14,22.51-8.67,32.07-9.7h0a113.2,113.2,0,0,1,13.94-.64l37.56-1.72c27.57-.77,37.1,40.2,37.1,40.2l1.7,20.73c2.6,5,.95,11.38-2.55,15.81s-8.52,7.35-13.42,10.16c-9.25,5.3-18.71,10.68-29.17,12.79-9.57,1.92-19.48,1-29.14-.43-11.84-1.72,24-42.34,12.47-45.44-8.18-2.2-10.81,2.62-13.2-5.5-1.71-5.77-53.49,17.85-51.1,12.33l.09-.21-103,56.93a23.47,23.47,0,0,1-27.61-3.6l-93.71-89.84Z"/><line class="s2d6-image4_10" x1="758.23" y1="509.33" x2="758.23" y2="509.33"/><path class="s2d6-image4_11" d="M764.34,513c8.23,6.49,10.66,16.32,11.39,21.53"/><line class="s2d6-image4_10" x1="776.03" y1="538.03" x2="776.03" y2="538.03"/><path class="s2d6-image4_12" d="M766.74,545.82c0-.9-1.48-24.44-20.67-32.73l5.79-3.24c17.76,8.75,20.3,27,20.64,33"/><circle class="s2d6-image4_13" cx="891.67" cy="407.51" r="49.11" transform="translate(-26.99 749.86) rotate(-45)"/><circle class="s2d6-image4_13" cx="874.21" cy="345.82" r="34.56" transform="translate(11.52 719.45) rotate(-45)"/><circle class="s2d6-image4_13" cx="810.16" cy="314.65" r="49.11" transform="translate(14.8 665.03) rotate(-45)"/><path class="s2d6-image4_14" d="M917.05,393.26a35.33,35.33,0,0,1-1,6.78c-.26,1-.55,2-.9,3-.19.56-.4,1.11-.62,1.66a34.73,34.73,0,0,1-1.56,3.33"/><path class="s2d6-image4_14" d="M899.85,361.68a35,35,0,0,1,16,20.53"/><path class="s2d6-image4_14" d="M893.74,398.35a18.35,18.35,0,0,1-4,3.35"/><path class="s2d6-image4_14" d="M893.76,368.94A25.53,25.53,0,0,1,899,386.33a21.29,21.29,0,0,1-1.9,7"/><path class="s2d6-image4_14" d="M879.34,375.09a20.15,20.15,0,0,1-13.1,28.21s-11.31,3.28-19.48,1.18"/><path class="s2d6-image4_14" d="M870,373.79a9.67,9.67,0,0,1-1.92,8.08,28.52,28.52,0,0,1-6.37,5.72"/><path class="s2d6-image4_15" d="M868.11,359.76c5.14-1.71,10.35-3.5,14.7-6.86s7.77-8.58,8-14.59-3.67-12.55-9.09-13.71"/><path class="s2d6-image4_15" d="M868.45,349.64c2.86.08,5.22-2.09,7.14-4.31,2.71-3.14,5.24-7.3,4.2-11.69a10.11,10.11,0,0,0-4.59-6.1,15.38,15.38,0,0,0-7-2,10.06,10.06,0,0,0-4.2.41c-2.52.92-4.23,3.37-5.79,5.7"/><path class="s2d6-image4_9" d="M579.23,482.14,681.81,535.5a12,12,0,0,0,13.37-1.6c20.19-17.63,84.11-73.46,98.61-86.16,8.92-7.82,20.63-12.48,29.87-15.16h0a113.7,113.7,0,0,1,13.61-3.08L874,421.22c27-5.58,43.57,33.09,43.57,33.09l5.3,20.1c3.44,4.48,2.93,11,.27,16s-7.11,8.73-11.44,12.35c-8.18,6.84-16.55,13.8-26.48,17.7-9.09,3.57-19,4.38-28.77,4.69a306.44,306.44,0,0,1-35.85-1c-8.43-.73-18.18-2.71-22-10.28-2.69-5.38-1.36-11.81,0-17.66l.06-.22-91.45,74.09a23.49,23.49,0,0,1-27.82,1.29l-108-72Z"/><path class="s2d6-image4_9" d="M580.63,481.16c-2.35-1.43-1.63-5-2.2-7.7s-4.58-3.7-4.66-6.45c-.16-5.22-2.35-14.57-4.52-21.42a1.43,1.43,0,0,0-2.77.22,195.25,195.25,0,0,0-2.29,34.3,56.73,56.73,0,0,0,1.31,10.21c.8,3.72,1.26,6.49,8.53,10.64"/><path class="s2d6-image4_9" d="M760.66,302.43l-13.21,29.2s-7.28,94.79,37,98.21c12.58,1,65.94-37.75,65.94-37.75s9-7.75,10.71-18.06l6.37-23.36-1-13.19-10-6.93-10.69-5.5L827.64,312Z"/><path class="s2d6-image4_9" d="M760.66,302.43l-13.21,29.2s-7.28,94.79,37,98.21c12.58,1,65.94-37.75,65.94-37.75s9-7.75,10.71-18.06l6.37-23.36-1-13.19-10-6.93-10.69-5.5L827.64,312Z"/><path class="s2d6-image4_13" d="M747.86,324.93s7.85-49.67,55.63-58.94l32.28,34.95s10,15.19,10,16.29-8,5.5-8,5.5l-19-7.15L793,309.83l-15.06,10.5-7,6.8Z"/><path class="s2d6-image4_14" d="M764.91,323.28c-3.3-12.1,7-26.26,8.8-28.6,7.69-9.93,18.4-16.41,30.34-20.29"/><path class="s2d6-image4_16" d="M815.52,312.28s7.7-13.2,20.9,0"/><path class="s2d6-image4_14" d="M839.36,289a22.79,22.79,0,0,1,4.71,6.07"/><path class="s2d6-image4_14" d="M778.11,320c0-20.9,22.3-35.49,32.58-38.32a29.23,29.23,0,0,1,12.41-1.11,27.06,27.06,0,0,1,6.33,1.94"/><path class="s2d6-image4_16" d="M793.76,311c9.86-14.8,22.18-18.07,28.2-17.74,6.91.37,17.64,5.62,23.45,15.68"/><path class="s2d6-image4_17" d="M861.52,301.37A67.84,67.84,0,0,1,827.2,307a30,30,0,0,1-17.86-8.61c-3.4-3.31-9.09-6.9-16.58-4.47-12.6,4.1-26.73.88-21-9.32,4.91-8.76-6.07-16.52-6.07-16.52s-10.79,12.38-4.09,20.1c6.25,7.21-2.15,13.88-7.22,18.06s-6.56,18.66-6.56,18.66l23.58,2.53L786,316.25l22.65-2.51,28.23,12.44Z"/><rect class="s2d6-image4_18" x="764.88" y="304.98" width="7.07" height="7.08" transform="translate(337.76 -398.71) rotate(36.79)"/><ellipse class="s2d6-image4_9" cx="766.28" cy="280.23" rx="4.51" ry="2.19" transform="translate(437.52 1026.98) rotate(-86.33)"/><path class="s2d6-image4_18" d="M777.9,308a7.05,7.05,0,0,1,6.61-4.61,13.39,13.39,0,0,1,4.07,1.19,8.51,8.51,0,0,0,4.13.8,3.33,3.33,0,0,0,3-2.58"/><path class="s2d6-image4_18" d="M760.47,311.91a1.92,1.92,0,0,0-1.84-.71c-2.65.31-4,4-6.64,4.12-.12,0-.58.06-.64-.79"/><path class="s2d6-image4_17" d="M775.41,291.31a9.16,9.16,0,0,0,2.56-.07,10.59,10.59,0,0,0,4.63-1.42,4.13,4.13,0,0,0,1.93-4.16.74.74,0,0,0-.13-.33c-.24-.32-.72-.27-1.11-.16-2.29.67-4.2,2.14-6.25,3.3-.66.38-2.92.93-3.29,1.43C773.12,290.74,774.67,291.19,775.41,291.31Z"/><path class="s2d6-image4_17" d="M760.43,295.19a7,7,0,0,1-1.68,1,8,8,0,0,1-3.55.92,3.15,3.15,0,0,1-2.91-1.92.57.57,0,0,1,0-.26c0-.3.36-.46.65-.54a22.77,22.77,0,0,1,5.35-.36c.58,0,2.25-.56,2.69-.39C761.68,293.9,760.86,294.81,760.43,295.19Z"/><polygon class="s2d6-image4_9" points="832.57 402.58 847.37 439.47 864.85 427.93 853.28 379.23 832.57 402.58"/><path class="s2d6-image4_19" d="M791.71,520.28c.79-8.77,1.8-18.19,7.62-24.81l19.15-11A231.45,231.45,0,0,1,841,473.06a6.05,6.05,0,0,0,2.88-8.51c-6.12-10.9-15.74-24.78-27.12-29.72l6.91-2.25s14.22,3.87,31,35a229.9,229.9,0,0,1,29.34-8.5,6.22,6.22,0,0,0,4-9.21c-6.26-10.78-14.8-22.27-24.43-26.32l8.42-1.9s12.08,4.88,28.42,34.47c5.65-.81,11.34-1.43,17-1.81h0c4.29,8.64,13.57,28,18.13,40.19,18.23,48.85,20.09,97.85,33.8,122.45L872.17,660.8l.5-1.63a64,64,0,0,0-10.82-58.57,143.5,143.5,0,0,0-10-11.13C837.68,575.06,820.52,564,804,552.27c-3.3-2.35-6.65-4.79-8.94-8.12C790.43,537.39,791,528.46,791.71,520.28Z"/><path class="s2d6-image4_20" d="M782.05,395.16A33.09,33.09,0,0,1,766,394.11a4,4,0,0,1-2.55-2.37c-.74-2,.79-3.41,2.08-4.64a27,27,0,0,0,6.41-8.64c.2-.47.4-.95.58-1.44a34.6,34.6,0,0,0-.08-23.76h0a16.11,16.11,0,0,0-12.17-10.42l-8.13-1.54"/><path class="s2d6-image4_13" d="M786.33,363a37.1,37.1,0,0,1,5.15-6.55,35.17,35.17,0,0,1,6.5-5.25,26.88,26.88,0,0,1,7.81-3.31l2.1-.46,2.15-.2c.36,0,.71-.08,1.07-.09l1.08,0,2.16.08-.43,3.7-1.84-.13-.93-.06c-.31,0-.62,0-.92,0l-1.85.1-1.83.33a23.29,23.29,0,0,0-7,2.65,32,32,0,0,0-6.12,4.56,35,35,0,0,0-5,5.83Z"/><path class="s2d6-image4_13" d="M752.78,355.41l2.39.44c.79.21,1.58.41,2.37.65a20,20,0,0,1,4.51,2.09,14.35,14.35,0,0,1,3.78,3.39,12.06,12.06,0,0,1,1.36,2.2,9.49,9.49,0,0,1,.82,2.59l-2.46.31a7.71,7.71,0,0,0-.69-1.75,8.75,8.75,0,0,0-1.14-1.66,11.59,11.59,0,0,0-3.18-2.58,17.4,17.4,0,0,0-3.91-1.58c-.69-.17-1.4-.32-2.1-.47l-2.16-.29Z"/><circle class="s2d6-image4_12" cx="815.65" cy="382.65" r="14.35"/><path class="s2d6-image4_21" d="M835.42,343.75s11.92-15.12,22.9-8.3-3.44,25.74-7.88,29.31"/><path class="s2d6-image4_17" d="M848.36,373.39c7.23,5.81,36.44,9.6,57.4-12.3s-3.8-39-12-29c-5.55,6.77-3.86,12.07.77,14.35,0,0,6.73,4.75,11.05-3.05,0,0-.5,6.24-10.05,12.58s-19.36,8.07-26.53,5c0,0,10.46-10,6.93-19.75s-5.67-14.45,1.53-20.12c0,0-11.26,1.34-13.56,7.18,0,0-20.53-6.81,6.06-30.5,0,0-38.18,11.32-37.87,43C832.09,340.73,832.65,360.75,848.36,373.39Z"/><circle class="s2d6-image4_17" cx="899.26" cy="338.73" r="9.52"/><path class="s2d6-image4_17" d="M1004.72,652.26c7.78,12.63,14.43,26.51,26,35.84,17.74,14.33,45.78,13.84,63-1.1,6.8-5.89,11.92-13.6,19-19.12a41.55,41.55,0,0,1,28.11-8.56c-9.91-3.51-21.37-2.41-30.39-7.8-5-3-8.71-7.68-13.21-11.39s-10.54-6.5-16.06-4.63c-4.17,1.42-7.06,5.16-10.71,7.64-6.5,4.42-14.92,4.59-22.77,4.21-5.31-.25-10.68-.69-15.73-2.34-13.63-4.44-23-16.84-35.07-24.49-9.17-5.79-22.16-10.18-33.09-8.35,5.85,8.05,3.07,7,11.09,12.22C983.72,630.15,999.25,643.39,1004.72,652.26Z"/><path class="s2d6-image4_12" d="M834.57,327.07s-38-26-63.3,4.94c0,0-6.49-11.6-23.82-.38l.78-7.63s11.07-9,22.08-2.77c0,0,25.24-26.81,68.24-1.42Z"/><path class="s2d6-image4_19" d="M834.57,327.07s-38-26-63.3,4.94c0,0-6.49-11.6-23.82-.38l.78-7.63s11.07-9,22.08-2.77c0,0,25.24-26.81,68.24-1.42Z"/><path class="s2d6-image4_9" d="M899.75,806.59s81-17.67,109.3-31.12c17.63-8.38,30.15-8.77,33.82,9.59s-.21,22.18.49,47.74c1,37.89,12,36.64,4.84,49.17-2.51,4.42-10.77,6-15.93,6.85,0,0-28.16,2.38-23.67-8.48a8.3,8.3,0,0,1,6.88-4.93c5.43-.58,12.86-1.13,12.76-9-.13-10.92-6.7-53.56-17.87-49.89-17.31,5.69-118.3,27.86-118.3,27.86l18.67-21.81Z"/><path class="s2d6-image4_13" d="M878.77,650.53c.74,22.9-40.9,62.32-66.18,82.65S699.42,825.91,683.71,845.27s-7.44,37.11-5.65,44.69S699,900.11,699,900.11c27.83,3.25,116.53-3.44,155.88-7,61.45-5.56,111.39,4.36,111.39,4.36s-33.11-63.38-26.77-100.29c1-6,21.4-17.18,21.4-17.18,37.53-15.94,52.49-49.22,52.49-49.22,13.45-29.77-15.27-74.66-15.27-74.66L969.45,617Z"/><path class="s2d6-image4_17" d="M666.27,753c45.26-24.25,67.35-5.51,129.36-28.49-31.3-11.85-56.51-.79-56.51-.79-5.21-3-6.33-10-6.2-16.07s.84-12.57-2.48-17.61c-2.55-3.85-6.94-6-11.13-7.94,15.77-4.43,32.63-2,48.56,1.83s31.67,9,48,10.11c15.07,1,36.09.06,42.69-11.59,7.69-10.45,12.62-21.13,20.2-31.94C902.7,616.37,967,612,967,612c2.16,5.32,7.9,12.37,7.9,12.37s-23.13-2.93-57.67,14.39-27.8,55.34-58.14,91.1S778.66,761,758.21,762.22s-30.1,10.7-46,31.52-40.08-1.62-40.08-1.62a112,112,0,0,0-42.72-19.27C648.68,766.25,666.27,753,666.27,753Z"/><path class="s2d6-image4_12" d="M905.3,806.41c-31.57,7.31-63.06,15-94.28,23.64-15.61,4.34-31.16,8.88-46.49,14.07-7.65,2.6-15.26,5.36-22.65,8.57a97.21,97.21,0,0,0-10.76,5.37,29.69,29.69,0,0,0-4.77,3.43,9.55,9.55,0,0,0-1.77,2.09,2.59,2.59,0,0,0-.37,2.16l-1.77.59a4.41,4.41,0,0,1,.51-3.67,10.65,10.65,0,0,1,2.11-2.56,31.28,31.28,0,0,1,5.06-3.69,100.44,100.44,0,0,1,11-5.55c7.47-3.28,15.1-6.09,22.78-8.75,15.36-5.29,30.92-9.92,46.53-14.35,31.23-8.8,62.7-16.67,94.27-24.16Z"/><path class="s2d6-image4_22" d="M928.21,799.71c-3.46.77-9.07,2-16.26,3.66"/><line class="s2d6-image4_23" x1="834.7" y1="322.01" x2="834.7" y2="322.01"/><path class="s2d6-image4_24" d="M826.87,318.39C815,313.75,792,308,773.76,323.45"/><line class="s2d6-image4_23" x1="770.61" y1="326.4" x2="770.61" y2="326.4"/><path class="s2d6-image4_25" d="M764,323.05c-2.71-.32-6.33.13-11,2.39"/><line class="s2d6-image4_23" x1="749.73" y1="327.27" x2="749.73" y2="327.27"/><path class="s2d6-image4_13" d="M793,724c4.55-1.3,9.13-2.93,13.58-4.7s8.85-3.8,13.12-6A123.63,123.63,0,0,0,832.1,706a99.8,99.8,0,0,0,11.34-8.85l1.27,1.36a102.15,102.15,0,0,1-11.41,9.24,126.15,126.15,0,0,1-12.52,7.65q-6.46,3.47-13.23,6.32a146.51,146.51,0,0,1-13.81,5Z"/><line class="s2d6-image4_26" x1="974.89" y1="624.39" x2="966.99" y2="612.02"/><ellipse class="s2d6-image4_27" cx="910.91" cy="841.02" rx="2.25" ry="8.11" transform="translate(-8.82 9.66) rotate(-0.6)"/><ellipse class="s2d6-image4_27" cx="911.17" cy="865.17" rx="2.25" ry="8.11" transform="translate(-9.08 9.66) rotate(-0.6)"/><ellipse class="s2d6-image4_27" cx="898.97" cy="853.22" rx="8.11" ry="2.25" transform="translate(-8.95 9.53) rotate(-0.6)"/><ellipse class="s2d6-image4_27" cx="923.12" cy="852.97" rx="8.11" ry="2.25" transform="translate(-8.95 9.79) rotate(-0.6)"/><ellipse class="s2d6-image4_27" cx="770.33" cy="860.4" rx="2.25" ry="8.11" transform="translate(-9.03 8.17) rotate(-0.6)"/><ellipse class="s2d6-image4_27" cx="770.59" cy="884.55" rx="2.25" ry="8.11" transform="translate(-9.29 8.18) rotate(-0.6)"/><ellipse class="s2d6-image4_27" cx="758.38" cy="872.61" rx="8.11" ry="2.25" transform="translate(-9.16 8.05) rotate(-0.6)"/><ellipse class="s2d6-image4_27" cx="782.53" cy="872.35" rx="8.11" ry="2.25" transform="translate(-9.16 8.3) rotate(-0.6)"/><ellipse class="s2d6-image4_27" cx="913.25" cy="697.29" rx="1.61" ry="5.79" transform="translate(-7.3 9.67) rotate(-0.6)"/><ellipse class="s2d6-image4_27" cx="913.43" cy="714.53" rx="1.61" ry="5.79" transform="translate(-7.49 9.67) rotate(-0.6)"/><ellipse class="s2d6-image4_27" cx="904.73" cy="706" rx="5.79" ry="1.61" transform="translate(-7.4 9.58) rotate(-0.6)"/><ellipse class="s2d6-image4_27" cx="921.96" cy="705.82" rx="5.79" ry="1.61" transform="translate(-7.39 9.76) rotate(-0.6)"/><ellipse class="s2d6-image4_27" cx="985.73" cy="709.5" rx="1.38" ry="4.98" transform="translate(-7.43 10.44) rotate(-0.6)"/><ellipse class="s2d6-image4_27" cx="985.89" cy="724.32" rx="1.38" ry="4.98" transform="translate(-7.59 10.44) rotate(-0.6)"/><ellipse class="s2d6-image4_27" cx="978.4" cy="716.99" rx="4.98" ry="1.38" transform="translate(-7.51 10.36) rotate(-0.6)"/><ellipse class="s2d6-image4_27" cx="993.22" cy="716.83" rx="4.98" ry="1.38" transform="translate(-7.51 10.52) rotate(-0.6)"/><ellipse class="s2d6-image4_27" cx="700.43" cy="863.21" rx="1.09" ry="3.91" transform="translate(-9.07 7.44) rotate(-0.6)"/><ellipse class="s2d6-image4_27" cx="700.55" cy="874.85" rx="1.09" ry="3.91" transform="translate(-9.19 7.44) rotate(-0.6)"/><ellipse class="s2d6-image4_27" cx="694.67" cy="869.09" rx="3.91" ry="1.09" transform="translate(-9.13 7.38) rotate(-0.6)"/><ellipse class="s2d6-image4_27" cx="706.31" cy="868.97" rx="3.91" ry="1.09" transform="translate(-9.13 7.5) rotate(-0.6)"/><ellipse class="s2d6-image4_27" cx="855.76" cy="771.77" rx="1.61" ry="5.79" transform="translate(-8.09 9.07) rotate(-0.6)"/><ellipse class="s2d6-image4_27" cx="855.95" cy="789.01" rx="1.61" ry="5.79" transform="translate(-8.28 9.07) rotate(-0.6)"/><ellipse class="s2d6-image4_27" cx="847.24" cy="780.48" rx="5.79" ry="1.61" transform="translate(-8.19 8.98) rotate(-0.6)"/><ellipse class="s2d6-image4_27" cx="864.47" cy="780.3" rx="5.79" ry="1.61" transform="translate(-8.18 9.16) rotate(-0.6)"/><ellipse class="s2d6-image4_28" cx="963.67" cy="661.21" rx="2.25" ry="8.11" transform="translate(-6.92 10.2) rotate(-0.6)"/><ellipse class="s2d6-image4_28" cx="963.93" cy="685.36" rx="2.25" ry="8.11" transform="translate(-7.18 10.21) rotate(-0.6)"/><ellipse class="s2d6-image4_28" cx="951.73" cy="673.41" rx="8.11" ry="2.25" transform="translate(-7.05 10.08) rotate(-0.6)"/><ellipse class="s2d6-image4_28" cx="975.88" cy="673.15" rx="8.11" ry="2.25" transform="translate(-7.05 10.33) rotate(-0.6)"/><ellipse class="s2d6-image4_28" cx="936.95" cy="744.11" rx="2.25" ry="8.11" transform="translate(-7.8 9.92) rotate(-0.6)"/><ellipse class="s2d6-image4_28" cx="937.2" cy="768.26" rx="2.25" ry="8.11" transform="translate(-8.05 9.93) rotate(-0.6)"/><ellipse class="s2d6-image4_28" cx="925" cy="756.32" rx="8.11" ry="2.25" transform="matrix(1, -0.01, 0.01, 1, -7.93, 9.8)"/><ellipse class="s2d6-image4_28" cx="949.15" cy="756.06" rx="8.11" ry="2.25" transform="translate(-7.92 10.05) rotate(-0.6)"/><ellipse class="s2d6-image4_28" cx="800.36" cy="782.9" rx="2.25" ry="8.11" transform="translate(-8.21 8.49) rotate(-0.6)"/><ellipse class="s2d6-image4_28" cx="800.61" cy="807.05" rx="2.25" ry="8.11" transform="translate(-8.47 8.49) rotate(-0.6)"/><ellipse class="s2d6-image4_28" cx="788.41" cy="795.1" rx="8.11" ry="2.25" transform="translate(-8.34 8.36) rotate(-0.6)"/><ellipse class="s2d6-image4_28" cx="812.56" cy="794.85" rx="8.11" ry="2.25" transform="translate(-8.34 8.62) rotate(-0.6)"/><ellipse class="s2d6-image4_28" cx="752.02" cy="807.75" rx="1.61" ry="5.79" transform="translate(-8.48 7.98) rotate(-0.6)"/><ellipse class="s2d6-image4_28" cx="752.21" cy="824.98" rx="1.61" ry="5.79" transform="translate(-8.66 7.98) rotate(-0.6)"/><ellipse class="s2d6-image4_28" cx="743.5" cy="816.46" rx="5.79" ry="1.61" transform="translate(-8.57 7.89) rotate(-0.6)"/><ellipse class="s2d6-image4_28" cx="760.73" cy="816.28" rx="5.79" ry="1.61" transform="translate(-8.57 8.07) rotate(-0.6)"/><ellipse class="s2d6-image4_28" cx="882.12" cy="739.08" rx="1.09" ry="3.91" transform="translate(-7.75 9.35) rotate(-0.6)"/><ellipse class="s2d6-image4_28" cx="882.25" cy="750.73" rx="1.09" ry="3.91" transform="translate(-7.87 9.35) rotate(-0.6)"/><ellipse class="s2d6-image4_28" cx="876.36" cy="744.97" rx="3.91" ry="1.09" transform="translate(-7.81 9.29) rotate(-0.6)"/><ellipse class="s2d6-image4_28" cx="888.01" cy="744.84" rx="3.91" ry="1.09" transform="translate(-7.81 9.41) rotate(-0.6)"/><ellipse class="s2d6-image4_28" cx="858.36" cy="867.65" rx="1.09" ry="3.91" transform="translate(-9.1 9.1) rotate(-0.6)"/><ellipse class="s2d6-image4_28" cx="858.48" cy="879.29" rx="1.09" ry="3.91" transform="matrix(1, -0.01, 0.01, 1, -9.23, 9.1)"/><ellipse class="s2d6-image4_28" cx="852.6" cy="873.53" rx="3.91" ry="1.09" transform="translate(-9.17 9.04) rotate(-0.6)"/><ellipse class="s2d6-image4_28" cx="864.25" cy="873.41" rx="3.91" ry="1.09" transform="translate(-9.17 9.17) rotate(-0.6)"/><ellipse class="s2d6-image4_28" cx="821.73" cy="842.13" rx="1.61" ry="5.79" transform="translate(-8.84 8.71) rotate(-0.6)"/><ellipse class="s2d6-image4_28" cx="821.91" cy="859.37" rx="1.61" ry="5.79" transform="translate(-9.02 8.72) rotate(-0.6)"/><ellipse class="s2d6-image4_28" cx="813.2" cy="850.84" rx="5.79" ry="1.61" transform="translate(-8.93 8.63) rotate(-0.6)"/><ellipse class="s2d6-image4_28" cx="830.43" cy="850.66" rx="5.79" ry="1.61" transform="translate(-8.93 8.81) rotate(-0.6)"/><path class="s2d6-image4_12" d="M875.31,645.32l-.16,1.78c.05-.24,7.3-25.53,59.32-37.27.17,0,19.68-4.36,30.2-3.57l-1.94-5.78c-12.05.74-21.5,2-38.22,7.11-30.79,9.39-45,25.42-49,33.22"/><polygon class="s2d6-image4_13" points="852.65 395.66 858.33 418.15 856.78 418.58 850.25 396.31 852.65 395.66"/><path class="s2d6-image4_9" d="M843.27,343.88h0a8.06,8.06,0,0,1,3.07-4,18.43,18.43,0,0,1,4.36-2.15,6.77,6.77,0,0,1,2.24-.6c2.25-.1,4.12,1.94,5.17,4.09a15.51,15.51,0,0,1,1.42,8.77h0s0,.08,0,.21a13.09,13.09,0,0,1-.88,3.2l-.17.35a18.28,18.28,0,0,1-5.91,8,3,3,0,0,1-4.3-.81C845.76,356.78,841.41,348.52,843.27,343.88Z"/><path class="s2d6-image4_13" d="M851.6,355.43a14.18,14.18,0,0,0,2.92-9,8.26,8.26,0,0,0-.31-2.22,2.15,2.15,0,0,0-.38-.73.85.85,0,0,0-.48-.26,3.38,3.38,0,0,0-1.76.4,2.31,2.31,0,0,0-1.21,1.12l-2.26-1a4.81,4.81,0,0,1,2.5-2.24,7.36,7.36,0,0,1,1.47-.45,4.3,4.3,0,0,1,1.75,0,3.06,3.06,0,0,1,1.67,1,4.41,4.41,0,0,1,.77,1.53,10.6,10.6,0,0,1,.28,2.84,16,16,0,0,1-3.72,10Z"/><path class="s2d6-image4_1" d="M853,390.2c4.56-4.21,10.55-6.44,16.41-8.48,4-1.37,8-2.71,12.16-2.79a23.8,23.8,0,0,1,17.82,8.15A32,32,0,0,1,907,405.44c.46,4.92-.09,10.07-2.5,14.38-4.25,7.62-13.17,11.1-21.4,14-2.08.74-4.32,1.48-6.44.88"/><line class="s2d6-image4_10" x1="762.61" y1="478.36" x2="762.61" y2="478.36"/><path class="s2d6-image4_29" d="M769.35,480.65c9.39,4.64,13.81,13.75,15.6,18.7"/><line class="s2d6-image4_10" x1="785.98" y1="502.75" x2="785.98" y2="502.75"/><path class="s2d6-image4_12" d="M778.51,512.29c-.17-.88-6.52-23.6-27-27.73l5-4.37c19.18,4.88,25.44,22.18,27,28"/><path class="s2d6-image4_12" d="M582,506.44l3,2c-1.37-4.78-1-9.84.91-12.64,2.7-4,10.31-6.18,8.48-5.78l-2.6-1.38c-.27,0-4.79.4-8.25,5.53C581.18,497.72,580.39,500.79,582,506.44Z"/><circle class="s2d6-image4_19" cx="850.64" cy="360.14" r="2.66"/><circle class="s2d6-image4_9" cx="907.46" cy="348.62" r="0.09"/><circle class="s2d6-image4_9" cx="902.13" cy="355.98" r="0.34"/><circle class="s2d6-image4_9" cx="895.4" cy="362.08" r="0.56"/><path class="s2d6-image4_9" d="M887.54,367.37a.75.75,0,1,1,.75-.75A.75.75,0,0,1,887.54,367.37Z"/><path class="s2d6-image4_9" d="M878.86,370.23a.95.95,0,1,1,.94-.94A.95.95,0,0,1,878.86,370.23Z"/><path class="s2d6-image4_9" d="M869.8,370.69a.68.68,0,1,1,.68-.68A.67.67,0,0,1,869.8,370.69Z"/><ellipse class="s2d6-image4_22" cx="894.43" cy="777.79" rx="1.09" ry="3.91" transform="translate(-8.15 9.48) rotate(-0.6)"/><ellipse class="s2d6-image4_22" cx="929.25" cy="659.5" rx="1.09" ry="3.91" transform="translate(-6.9 9.84) rotate(-0.6)"/><ellipse class="s2d6-image4_22" cx="722.78" cy="832.05" rx="1.09" ry="3.91" transform="translate(-8.74 7.67) rotate(-0.6)"/><ellipse class="s2d6-image4_22" cx="824.92" cy="774.61" rx="3.91" ry="1.09" transform="matrix(1, -0.01, 0.01, 1, -8.12, 8.74)"/><ellipse class="s2d6-image4_22" cx="947.4" cy="712.79" rx="3.91" ry="1.09" transform="translate(-7.47 10.03) rotate(-0.6)"/><ellipse class="s2d6-image4_22" cx="726.47" cy="881.65" rx="3.91" ry="1.09" transform="translate(-9.26 7.71) rotate(-0.6)"/><ellipse class="s2d6-image4_22" cx="865.04" cy="836.85" rx="3.91" ry="1.09" transform="translate(-8.78 9.17) rotate(-0.6)"/><g class="s2d6-image4_30"><path class="s2d6-image4_9" d="M666.37,813.29a.15.15,0,0,1-.14-.15.14.14,0,0,1,.14-.14.15.15,0,0,1,.15.14A.15.15,0,0,1,666.37,813.29Z"/><path class="s2d6-image4_9" d="M681.8,801.16a.38.38,0,0,1,0-.75.38.38,0,1,1,0,.75Z"/><path class="s2d6-image4_9" d="M695.4,787a.61.61,0,1,1,0-1.21.61.61,0,0,1,0,1.21Z"/><circle class="s2d6-image4_9" cx="709.11" cy="772.1" r="0.81"/><circle class="s2d6-image4_9" cx="724.87" cy="760.2" r="0.98"/><circle class="s2d6-image4_9" cx="743.45" cy="753.61" r="1.15"/><circle class="s2d6-image4_9" cx="763.16" cy="752.04" r="1.37"/><path class="s2d6-image4_9" d="M783,753.66a1.49,1.49,0,0,1,0-3,1.49,1.49,0,1,1,0,3Z"/><circle class="s2d6-image4_9" cx="802.67" cy="750.52" r="1.31"/><circle class="s2d6-image4_9" cx="821.12" cy="743.61" r="0.87"/><path class="s2d6-image4_9" d="M834.75,729.71a.15.15,0,0,1-.15-.15.15.15,0,0,1,.15-.14.14.14,0,0,1,.14.14A.15.15,0,0,1,834.75,729.71Z"/><path class="s2d6-image4_9" d="M625.61,797.19a.2.2,0,0,1-.19-.2.2.2,0,0,1,.19-.19.19.19,0,0,1,.19.19A.19.19,0,0,1,625.61,797.19Z"/><path class="s2d6-image4_9" d="M645.4,792.15a.81.81,0,0,1-.81-.81.81.81,0,1,1,1.62,0A.81.81,0,0,1,645.4,792.15Z"/><path class="s2d6-image4_9" d="M663.67,783.17a1.31,1.31,0,1,1,1.31-1.31A1.3,1.3,0,0,1,663.67,783.17Z"/><path class="s2d6-image4_9" d="M679.77,770.85a1.82,1.82,0,1,1,1.82-1.82A1.81,1.81,0,0,1,679.77,770.85Z"/><circle class="s2d6-image4_9" cx="696.47" cy="757.08" r="1.75"/><path class="s2d6-image4_9" d="M716.27,752a.2.2,0,0,1-.19-.19.2.2,0,1,1,.19.19Z"/><path class="s2d6-image4_9" d="M722.43,720.47a.2.2,0,0,1-.19-.19.2.2,0,1,1,.19.19Z"/><path class="s2d6-image4_9" d="M739.74,712.79a1,1,0,1,1,1-1A1,1,0,0,1,739.74,712.79Z"/><path class="s2d6-image4_9" d="M758.51,709a1.54,1.54,0,1,1,1.54-1.54A1.53,1.53,0,0,1,758.51,709Z"/><circle class="s2d6-image4_9" cx="777.78" cy="707.4" r="1.92"/><path class="s2d6-image4_9" d="M796.57,711.83a.18.18,0,0,1-.19-.19.19.19,0,1,1,.38,0A.18.18,0,0,1,796.57,711.83Z"/><path class="s2d6-image4_9" d="M717.33,702.66a.19.19,0,0,1-.19-.2.19.19,0,0,1,.38,0A.19.19,0,0,1,717.33,702.66Z"/><circle class="s2d6-image4_9" cx="739.01" cy="697.86" r="1.54"/><path class="s2d6-image4_9" d="M760.91,701.41a.18.18,0,0,1-.19-.19.19.19,0,0,1,.19-.19.2.2,0,0,1,.19.19A.19.19,0,0,1,760.91,701.41Z"/><path class="s2d6-image4_9" d="M964.17,630.75a.19.19,0,0,1,0-.38.19.19,0,0,1,0,.38Z"/><path class="s2d6-image4_9" d="M946,631.71a.59.59,0,1,1,.59-.59A.58.58,0,0,1,946,631.71Z"/><path class="s2d6-image4_9" d="M928,634.12a1,1,0,1,1,1-1A1,1,0,0,1,928,634.12Z"/><circle class="s2d6-image4_9" cx="910.62" cy="638.13" r="1.25"/><path class="s2d6-image4_9" d="M895,648.7a1.54,1.54,0,1,1,1.54-1.54A1.54,1.54,0,0,1,895,648.7Z"/><path class="s2d6-image4_9" d="M882.9,662.51a1.91,1.91,0,1,1,1.9-1.9A1.9,1.9,0,0,1,882.9,662.51Z"/><path class="s2d6-image4_9" d="M874.41,678.53a1.92,1.92,0,1,1,1.92-1.92A1.93,1.93,0,0,1,874.41,678.53Z"/><path class="s2d6-image4_9" d="M867.1,694.56a1.35,1.35,0,1,1,1.35-1.35A1.34,1.34,0,0,1,867.1,694.56Z"/><path class="s2d6-image4_9" d="M858.36,709.27a.19.19,0,1,1,0-.38.19.19,0,1,1,0,.38Z"/></g><g class="s2d6-image4_31"><path class="s2d6-image4_9" d="M1150.94,653.08a1.44,1.44,0,1,1,1.45-1.44A1.45,1.45,0,0,1,1150.94,653.08Z"/><path class="s2d6-image4_9" d="M1131.76,653.41a1.39,1.39,0,1,1,1.39-1.38A1.38,1.38,0,0,1,1131.76,653.41Z"/><path class="s2d6-image4_9" d="M1112.93,657.09a1.33,1.33,0,1,1,1.33-1.33A1.33,1.33,0,0,1,1112.93,657.09Z"/><circle class="s2d6-image4_9" cx="1095.08" cy="662.8" r="1.27"/><path class="s2d6-image4_9" d="M1078.72,674.06a1.19,1.19,0,1,1,1.19-1.18A1.19,1.19,0,0,1,1078.72,674.06Z"/><path class="s2d6-image4_9" d="M1061.74,682.91a1.11,1.11,0,1,1,1.1-1.11A1.11,1.11,0,0,1,1061.74,682.91Z"/><circle class="s2d6-image4_9" cx="1043.03" cy="682.66" r="1.02"/><circle class="s2d6-image4_9" cx="1028.61" cy="670.24" r="0.94"/><path class="s2d6-image4_9" d="M1129,633.91a.19.19,0,0,1-.19-.19.19.19,0,0,1,.19-.2.2.2,0,0,1,.19.2A.2.2,0,0,1,1129,633.91Z"/><path class="s2d6-image4_9" d="M1110.79,638.75a.63.63,0,1,1,.63-.62A.62.62,0,0,1,1110.79,638.75Z"/><path class="s2d6-image4_9" d="M1094.34,649.07a1,1,0,1,1,1-1A1,1,0,0,1,1094.34,649.07Z"/><path class="s2d6-image4_9" d="M1076.56,656.65a1.34,1.34,0,1,1,1.34-1.34A1.34,1.34,0,0,1,1076.56,656.65Z"/><path class="s2d6-image4_9" d="M1057.86,661.23a1.69,1.69,0,1,1,1.69-1.68A1.69,1.69,0,0,1,1057.86,661.23Z"/><circle class="s2d6-image4_9" cx="1038.74" cy="658.62" r="2"/><path class="s2d6-image4_9" d="M1021,653a1.76,1.76,0,1,1,1.76-1.76A1.76,1.76,0,0,1,1021,653Z"/><circle class="s2d6-image4_9" cx="1007.13" cy="638.4" r="0.71"/></g><path class="s2d6-image4_26" d="M1020.81,813.81a12.37,12.37,0,0,0-14.11-2.34"/><polygon class="s2d6-image4_13" points="930.65 562.51 933.65 577.32 931.84 577.74 927.85 563.2 930.65 562.51"/><path class="s2d6-image4_13" d="M897.34,476.69a20.63,20.63,0,0,1,1.75,2.09c.52.69,1,1.39,1.48,2.1s.93,1.42,1.37,2.15.89,1.44,1.29,2.18l1.24,2.2,1.16,2.24c.79,1.48,1.48,3,2.2,4.52,2.83,6.07,5.31,12.27,7.59,18.54,1.13,3.14,2.21,6.29,3.27,9.45s2.06,6.34,3,9.53,1.91,6.38,2.8,9.59l2.62,9.63-1.8.48-2.74-9.56c-.93-3.19-1.94-6.34-2.91-9.51s-2.07-6.29-3.11-9.44-2.2-6.25-3.36-9.34c-2.35-6.19-4.88-12.3-7.74-18.24-.73-1.47-1.43-3-2.22-4.41l-1.16-2.17-1.23-2.13c-.4-.71-.83-1.4-1.27-2.09s-.87-1.38-1.34-2-.92-1.33-1.41-2a21,21,0,0,0-1.46-1.71Z"/><line class="s2d6-image4_32" x1="751.93" y1="535.11" x2="799.02" y2="496.01"/><path class="s2d6-image4_32" d="M578,504l96.31,64s15.12,15.11,40.77-4.23l25.65-19.34"/><path class="s2d6-image4_20" d="M779.64,360.5l.52-5.71c.52-6.68,4-9.78,8-12.31a33.93,33.93,0,0,1,24.09-4.43"/><path class="s2d6-image4_20" d="M771.66,408.47l1.7-.67c3.2-1.12,10.35-3,16.22.12C797.41,412.05,778,416.76,771.66,408.47Z"/><circle class="s2d6-image4_19" cx="790.71" cy="378.4" r="4.05"/><circle class="s2d6-image4_19" cx="758.65" cy="380.94" r="4.05"/><circle class="s2d6-image4_19" cx="822.92" cy="349.93" r="4.05"/><circle class="s2d6-image4_19" cx="803.77" cy="406.22" r="4.05"/><circle class="s2d6-image4_19" cx="793.9" cy="393.33" r="1.69"/><circle class="s2d6-image4_19" cx="783.22" cy="421.83" r="1.69"/><circle class="s2d6-image4_19" cx="801.3" cy="450.13" r="1.69"/><circle class="s2d6-image4_19" cx="804.57" cy="473.02" r="1.69"/><circle class="s2d6-image4_19" cx="776.73" cy="474.13" r="1.69"/><circle class="s2d6-image4_19" cx="753.61" cy="493.1" r="1.69"/><circle class="s2d6-image4_19" cx="791.42" cy="467.14" r="1.69"/><circle class="s2d6-image4_19" cx="761.89" cy="496.24" r="1.69"/><circle class="s2d6-image4_19" cx="819.82" cy="472.44" r="1.69"/><circle class="s2d6-image4_19" cx="763.34" cy="403.38" r="1.69"/><circle class="s2d6-image4_19" cx="773.68" cy="387.59" r="1.69"/><circle class="s2d6-image4_19" cx="845.41" cy="380.94" r="1.69"/><circle class="s2d6-image4_19" cx="758.65" cy="370.02" r="1.69"/><circle class="s2d6-image4_19" cx="758.65" cy="349.93" r="1.69"/><circle class="s2d6-image4_19" cx="774.78" cy="342.09" r="1.69"/><circle class="s2d6-image4_19" cx="759.68" cy="334.66" r="1.69"/><circle class="s2d6-image4_19" cx="787.4" cy="330.89" r="1.69"/><circle class="s2d6-image4_19" cx="804.67" cy="362.81" r="1.69"/><circle class="s2d6-image4_19" cx="830.88" cy="366.14" r="1.69"/><circle class="s2d6-image4_19" cx="838.11" cy="394.3" r="1.69"/><circle class="s2d6-image4_19" cx="855.54" cy="448.44" r="1.69"/><circle class="s2d6-image4_19" cx="849.25" cy="426.78" r="1.69"/><circle class="s2d6-image4_19" cx="845.41" cy="436.38" r="1.69"/><circle class="s2d6-image4_19" cx="814.13" cy="445.07" r="1.69"/><circle class="s2d6-image4_19" cx="833.64" cy="465.45" r="1.69"/><circle class="s2d6-image4_19" cx="819.82" cy="458.49" r="1.69"/><circle class="s2d6-image4_19" cx="871.35" cy="445.07" r="1.69"/><circle class="s2d6-image4_19" cx="888.07" cy="428.46" r="1.69"/><circle class="s2d6-image4_19" cx="789.09" cy="353.3" r="1.69"/><circle class="s2d6-image4_19" cx="811.25" cy="329.21" r="1.69"/><circle class="s2d6-image4_19" cx="845.78" cy="413.04" r="4.05"/><circle class="s2d6-image4_19" cx="862.36" cy="436.38" r="4.05"/><circle class="s2d6-image4_19" cx="804.57" cy="460.18" r="4.05"/><circle class="s2d6-image4_19" cx="792.45" cy="482.42" r="4.05"/><circle class="s2d6-image4_19" cx="897.53" cy="437.52" r="4.05"/><path class="s2d6-image4_17" d="M848.69,666.1c-2.89.1-5.77-.47-8.66-.48a23,23,0,0,0-12.53,3.64c-.63-2.1.44-4.31,1.53-6.22,2.81-4.93,6.8-10.18,12.47-10.47,4.15-.21,7.82,2.81,12,3.27,10.55,1.17,13-3.56,16.26-4.69C869.66,661.81,853.72,665.92,848.69,666.1Z"/><path class="s2d6-image4_17" d="M985.21,602c6.56-.47,13.51,1,18.47,5.29,5.94,5.18,8.19,13.6,14.05,18.87a19.82,19.82,0,0,0,20,3.65A19.79,19.79,0,0,1,1040,613c-5.35.63-11,1-15.91-1.12-7.81-3.37-11.95-12.12-19.21-16.57-6.43-3.94-14.78-4-21.79-1.21-5.54,2.2-11.34,6.26-14.74,11.18C972.92,606.37,980.15,602.37,985.21,602Z"/><path class="s2d6-image4_33" d="M626.35,171.8V319.19h83.1l-18.07-51.66a10.64,10.64,0,0,0-9.94-7.44l-7.36.06-13.24-41.5a10.73,10.73,0,0,0-10.06-7.81h-5.87L633,171.11h0C632.06,167.84,626.35,168.43,626.35,171.8Z"/><path class="s2d6-image4_33" d="M583.54,171.8V319.19h-83.1l18.07-51.66a10.65,10.65,0,0,1,10-7.44l7.35.06,13.24-41.5a10.74,10.74,0,0,1,10.06-7.81H565l11.87-39.74h0C577.83,167.84,583.54,168.43,583.54,171.8Z"/><rect class="s2d6-image4_33" x="583.54" y="223.14" width="42.8" height="96.05"/><path class="s2d6-image4_34" d="M610.38,118.49v48.83h20.7l-4.5-17.11c-.39-1.5-1.38-2.48-2.48-2.47l-1.83,0L619,134c-.37-1.55-1.38-2.59-2.51-2.58H615l-3-13.17h0A.84.84,0,0,0,610.38,118.49Z"/><path class="s2d6-image4_34" d="M599.71,118.49v48.83H579l4.5-17.11c.4-1.5,1.38-2.48,2.48-2.47l1.83,0,3.3-13.75c.37-1.55,1.38-2.59,2.51-2.58h1.46l3-13.17h0A.84.84,0,0,1,599.71,118.49Z"/><rect class="s2d6-image4_13" x="564.44" y="253.21" width="81.68" height="61.75"/><rect class="s2d6-image4_13" x="584.4" y="220.54" width="36.75" height="12.09"/><rect class="s2d6-image4_13" x="621.07" y="220.54" width="4.7" height="12.09"/><rect class="s2d6-image4_13" x="603.82" y="196.36" width="3.35" height="0.95"/><rect class="s2d6-image4_13" x="604.93" y="182.85" width="1.13" height="13.51"/><polygon class="s2d6-image4_13" points="606.24 197.12 616.83 217.93 625.89 217.93 611.94 197.12 606.24 197.12"/><polygon class="s2d6-image4_13" points="599.79 197.12 585.6 217.93 601.18 217.93 604.95 197.12 599.79 197.12"/><polygon class="s2d6-image4_13" points="604.95 197.12 601.18 217.93 609.35 217.93 616.83 217.93 606.24 197.12 604.95 197.12"/><path class="s2d6-image4_34" d="M605.34,274.53l-8.75,4.16a16.55,16.55,0,0,0-9.42,14.93V316H623.5V293.62a16.55,16.55,0,0,0-9.42-14.93Z"/><path class="s2d6-image4_9" d="M615.29,276l-8.37-4-.22-.1a2.89,2.89,0,0,0-2.48,0L595.64,276a19.08,19.08,0,0,0-10.9,17.15V315h2.9V293.15a15.91,15.91,0,0,1,.2-2.5,16.12,16.12,0,0,1,9-12.06l8.58-4.06,1.46.69,7.12,3.37a16.12,16.12,0,0,1,9.24,14.56V315h2.9V293.15a18.86,18.86,0,0,0-.18-2.5A19.09,19.09,0,0,0,615.29,276Z"/><path class="s2d6-image4_34" d="M567.29,270.72h-3.86s-4.16,4.22-1.45,6.92h-3.34V315h19.3V277.64l4.07-4a9.81,9.81,0,0,0,2.9-7v-6.52H567.29Z"/><path class="s2d6-image4_34" d="M647.33,277.64h-4.59l7-6.92h-7V260.13H625.89v6.16a10.68,10.68,0,0,0,3.16,7.57l3.81,3.78h-.15V315H652V277.64Z"/><path class="s2d6-image4_34" d="M657.73,235.77a9.47,9.47,0,0,0-7.1-3.2H560.78a9.61,9.61,0,0,0-7.22,3.26l-21.34,24.3h146.9Z"/><path class="s2d6-image4_13" d="M564.44,260.07V315H534.92l6.16-16a4.8,4.8,0,0,1,4.51-3.06h1.89l4.67-13.25a3.94,3.94,0,0,1,3.72-2.62h2l4.21-12.79Z"/><rect class="s2d6-image4_13" x="564.44" y="260.07" width="4.61" height="54.89"/><path class="s2d6-image4_13" d="M646.12,260.07V315h29.52l-6.42-16.63a3.75,3.75,0,0,0-3.53-2.39h-2.61l-4.71-13.36a3.75,3.75,0,0,0-3.57-2.51h-2.09l-4.22-12.79Z"/><rect class="s2d6-image4_13" x="641.51" y="260.07" width="4.61" height="54.89"/><rect class="s2d6-image4_33" x="641.51" y="278.56" width="11.2" height="1.52"/><rect class="s2d6-image4_33" x="641.51" y="294.41" width="22.21" height="1.52"/><rect class="s2d6-image4_33" x="557.85" y="278.56" width="11.2" height="1.52" transform="translate(1126.9 558.64) rotate(-180)"/><rect class="s2d6-image4_33" x="546.84" y="294.41" width="22.21" height="1.52" transform="translate(1115.89 590.34) rotate(-180)"/><rect class="s2d6-image4_13" x="609.01" y="292.1" width="1.03" height="11.75" rx="0.51" ry="0.51"/><rect class="s2d6-image4_13" x="601.29" y="292.1" width="1.03" height="11.75" rx="0.51" ry="0.51"/><rect class="s2d6-image4_9" x="604.04" y="273.32" width="3.27" height="41.64"/><path class="s2d6-image4_9" d="M548.8,254.39a16.47,16.47,0,0,1,3-2.7l3.13-2.68c.39-.33-.18-.9-.57-.56l-3.5,3A14.56,14.56,0,0,0,548.1,254c-.29.42.4.82.7.4Z"/><path class="s2d6-image4_35" d="M606.16,254.09a25.09,25.09,0,0,1,0-5.81c.06-.51-.74-.51-.8,0a25.09,25.09,0,0,0,0,5.81c.06.51.87.52.81,0Z"/><path class="s2d6-image4_9" d="M598.39,254.62c.49-2.05,1.19-4,1.87-6,.17-.49-.61-.7-.77-.21-.69,2-1.38,3.94-1.87,6-.13.51.65.72.77.22Z"/><path class="s2d6-image4_35" d="M590.11,254.6a38.92,38.92,0,0,0,3.22-5.87c.2-.47-.49-.88-.7-.41a37.15,37.15,0,0,1-3.22,5.87c-.28.43.41.83.7.41Z"/><path class="s2d6-image4_9" d="M581.89,254.6c1.42-1.86,2.88-3.68,4.19-5.61.29-.43-.4-.83-.69-.41-1.31,1.94-2.78,3.76-4.19,5.61-.32.41.38.81.69.41Z"/><path class="s2d6-image4_35" d="M573.54,254.74a54.5,54.5,0,0,0,4.7-5.81c.29-.43-.41-.83-.7-.4a53.63,53.63,0,0,1-4.57,5.64c-.34.38.22,1,.57.57Z"/><path class="s2d6-image4_9" d="M565,254.61l5.77-5.38c.38-.35-.19-.92-.57-.57L564.42,254c-.38.35.19.92.57.57Z"/><path class="s2d6-image4_35" d="M556.92,254.5l5.78-5.14c.39-.34-.18-.91-.57-.57l-5.78,5.14c-.39.35.18.92.57.57Z"/><path class="s2d6-image4_9" d="M663.27,254a14.26,14.26,0,0,0-2.71-2.55l-3.49-3c-.39-.34-1,.23-.57.56l3.13,2.68a16.85,16.85,0,0,1,3,2.7c.29.42,1,0,.69-.4Z"/><path class="s2d6-image4_9" d="M613.76,254.4c-.49-2-1.18-4-1.87-6-.17-.49-.94-.28-.77.21.68,2,1.38,3.94,1.87,6,.12.5.89.29.77-.22Z"/><path class="s2d6-image4_35" d="M622,254.19a37.09,37.09,0,0,1-3.21-5.87c-.21-.47-.9-.06-.7.41a38.92,38.92,0,0,0,3.22,5.87c.29.42,1,0,.69-.41Z"/><path class="s2d6-image4_9" d="M630.18,254.19c-1.42-1.85-2.88-3.67-4.19-5.61-.29-.42-1,0-.69.41,1.31,1.93,2.77,3.75,4.19,5.61.31.4,1,0,.69-.41Z"/><path class="s2d6-image4_35" d="M638.41,254.17a53.63,53.63,0,0,1-4.57-5.64c-.29-.43-1,0-.7.4a54.5,54.5,0,0,0,4.7,5.81c.35.38.91-.19.57-.57Z"/><path class="s2d6-image4_9" d="M647,254l-5.77-5.38c-.38-.35-1,.22-.57.57l5.77,5.38c.38.35,1-.22.57-.57Z"/><path class="s2d6-image4_35" d="M655,253.93l-5.78-5.14c-.39-.34-1,.23-.57.57l5.78,5.14c.39.35,1-.22.57-.57Z"/><path class="s2d6-image4_35" d="M606,243.34a25.09,25.09,0,0,1,0-5.81c0-.05-.45,0-.46.12a25.18,25.18,0,0,0,0,5.82c0,.08.48,0,.47-.13Z"/><path class="s2d6-image4_9" d="M598.24,243.79a61.83,61.83,0,0,1,1.87-6c0-.16-.41-.1-.47.05-.69,2-1.38,3.94-1.87,6,0,.17.43.1.47-.06Z"/><path class="s2d6-image4_35" d="M590,243.72a38.05,38.05,0,0,0,3.22-5.87c.1-.23-.37-.19-.44,0a38.05,38.05,0,0,1-3.22,5.87c-.13.19.34.17.44,0Z"/><path class="s2d6-image4_9" d="M581.77,243.66c1.42-1.85,2.88-3.67,4.2-5.6,0-.06-.39,0-.46.08-1.32,1.93-2.78,3.75-4.2,5.6,0,0,.38,0,.46-.08Z"/><path class="s2d6-image4_35" d="M573.45,243.81a54.81,54.81,0,0,0,4.66-5.76c.13-.19-.34-.18-.44,0a53.46,53.46,0,0,1-4.6,5.69c-.2.21.25.24.38.1Z"/><path class="s2d6-image4_9" d="M564.89,243.68l5.78-5.38c.2-.18-.26-.2-.38-.09l-5.78,5.37c-.2.19.26.21.38.1Z"/><path class="s2d6-image4_35" d="M556.82,243.59l5.79-5.14c.21-.19-.24-.25-.39-.13l-5.78,5.14c-.22.19.24.26.38.13Z"/><path class="s2d6-image4_9" d="M613.61,243.76c-.49-2-1.19-4-1.87-6,0-.09-.5,0-.47.13a61.83,61.83,0,0,1,1.87,6c0,.09.49,0,.47-.12Z"/><path class="s2d6-image4_35" d="M621.83,243.61a38.42,38.42,0,0,1-3.2-5.84c-.06-.15-.52,0-.46.13a37.84,37.84,0,0,0,3.23,5.89c.08.12.53,0,.43-.18Z"/><path class="s2d6-image4_9" d="M630.05,243.61c-1.42-1.85-2.88-3.67-4.19-5.6-.08-.12-.53,0-.43.17,1.31,1.94,2.77,3.76,4.19,5.61.09.11.54,0,.43-.18Z"/><path class="s2d6-image4_35" d="M638.33,243.65a53.08,53.08,0,0,1-4.63-5.72c-.13-.18-.57,0-.42.21a51.9,51.9,0,0,0,4.63,5.72c.15.17.59,0,.42-.21Z"/><path class="s2d6-image4_35" d="M646.9,243.55l-5.78-5.37c-.09-.09-.51.09-.44.16l5.78,5.37c.08.08.5-.1.44-.16Z"/><path class="s2d6-image4_9" d="M655,243.44l-5.78-5.14c-.12-.11-.56.07-.43.18l5.78,5.14c.12.1.56-.07.43-.18Z"/><path class="s2d6-image4_36" d="M609.61,214.74c0-3.66,0-3.66-.09-5.87a9.78,9.78,0,0,0-1-4.16,3.5,3.5,0,0,0-6.65.25,11.32,11.32,0,0,0-.65,4.26l-.15,5.52"/><path class="s2d6-image4_34" d="M599.23,214.72l12.43.17a.54.54,0,0,0,0-1.08l-12.43-.17a.54.54,0,0,0,0,1.08Z"/><path class="s2d6-image4_34" d="M634.25,299a19.55,19.55,0,0,1,.24,4.52c0,.7,1,.7,1.08,0a21,21,0,0,0-.27-4.81c-.12-.68-1.16-.39-1,.29Z"/><path class="s2d6-image4_34" d="M626.11,217.93H592.64l-5,5v.2h43.31a.2.2,0,0,0,.19-.2h0Z"/><path class="s2d6-image4_34" d="M616.81,217.93H585.72l-5.05,5v.2h41.19v-.2Z"/><path class="s2d6-image4_34" d="M585.6,217.94l-5.23,5.2h10.46Z"/><path class="s2d6-image4_34" d="M596.06,217.94l-5.23,5.2h10.46Z"/><path class="s2d6-image4_34" d="M606.4,217.94l-5.23,5.2h10.46Z"/><path class="s2d6-image4_34" d="M616.86,217.94l-5.23,5.2h10.46Z"/><polygon class="s2d6-image4_34" points="622.09 223.14 626.08 217.93 631.4 223.14 622.09 223.14"/><text class="s2d6-image4_37" transform="translate(587.63 229.22) scale(1.01 1)">Pa<tspan class="s2d6-image4_38" x="6.51" y="0">sir B</tspan><tspan class="s2d6-image4_39" x="20.08" y="0">at</tspan><tspan class="s2d6-image4_38" x="25.54" y="0">ang</tspan></text><rect class="s2d6-image4_13" x="564.42" y="260.13" width="81.7" height="3.5"/><path class="s2d6-image4_34" d="M604.5,263.64c1.41,0,3.6.18,3.6.44s-2.18.49-3.59.5-1.53-.2-1.54-.46S603.08,263.64,604.5,263.64Z"/><path class="s2d6-image4_34" d="M596.8,263.64c1.41,0,3.6.18,3.6.44s-2.18.49-3.59.5-1.53-.2-1.54-.46S595.38,263.64,596.8,263.64Z"/><path class="s2d6-image4_34" d="M589.18,263.64c1.41,0,3.6.18,3.6.44s-2.18.49-3.59.5-1.53-.2-1.53-.46S587.76,263.64,589.18,263.64Z"/><path class="s2d6-image4_34" d="M619.5,263.64c1.42,0,3.6.18,3.6.44s-2.17.49-3.59.5-1.53-.2-1.53-.46S618.09,263.64,619.5,263.64Z"/><path class="s2d6-image4_34" d="M612.34,263.64c1.41,0,3.59.18,3.6.44s-2.18.49-3.59.5-1.53-.2-1.54-.46S610.92,263.64,612.34,263.64Z"/><path class="s2d6-image4_13" d="M501.9,314.56H708.06a4.7,4.7,0,0,1,4.7,4.7v0a0,0,0,0,1,0,0H497.2a0,0,0,0,1,0,0v0A4.7,4.7,0,0,1,501.9,314.56Z"/><path class="s2d6-image4_13" d="M570.49,164.87h66.65a5.7,5.7,0,0,1,5.7,5.7v0a0,0,0,0,1,0,0H564.79a0,0,0,0,1,0,0v0A5.7,5.7,0,0,1,570.49,164.87Z"/><path class="s2d6-image4_34" d="M558.37,170.57H648a5.84,5.84,0,0,1,5.84,5.84v0a0,0,0,0,1,0,0H552.53a0,0,0,0,1,0,0v0A5.84,5.84,0,0,1,558.37,170.57Z"/><path class="s2d6-image4_35" d="M634,208.78h10.47l.43,2.06h-13A2.07,2.07,0,0,1,634,208.78Z"/><path class="s2d6-image4_35" d="M576.84,208.82H561l-.62,2.06h18.57A2.07,2.07,0,0,0,576.84,208.82Z"/><path class="s2d6-image4_35" d="M587.26,145.91h8.15a1.84,1.84,0,0,1,1.84,1.84v0a0,0,0,0,1,0,0h-10a0,0,0,0,1,0,0v-1.84A0,0,0,0,1,587.26,145.91Z"/><path class="s2d6-image4_35" d="M587.16,129.54h8.15a1.84,1.84,0,0,1,1.84,1.84v0a0,0,0,0,1,0,0h-10a0,0,0,0,1,0,0v-1.84A0,0,0,0,1,587.16,129.54Z"/><path class="s2d6-image4_35" d="M614.37,145.91h8.15a0,0,0,0,1,0,0v1.84a0,0,0,0,1,0,0h-10a0,0,0,0,1,0,0v0A1.84,1.84,0,0,1,614.37,145.91Z"/><path class="s2d6-image4_35" d="M614.28,129.54h8.15a0,0,0,0,1,0,0v1.84a0,0,0,0,1,0,0h-10a0,0,0,0,1,0,0v0A1.84,1.84,0,0,1,614.28,129.54Z"/><polygon class="s2d6-image4_33" points="664.75 314.56 664.8 301.21 665.02 301.21 665.08 314.56 664.75 314.56"/><polygon class="s2d6-image4_33" points="652.72 314.56 652.77 301.21 652.99 301.21 653.04 314.56 652.72 314.56"/><polygon class="s2d6-image4_34" points="658.69 314.56 658.81 301.21 659.24 301.21 659.35 314.56 658.69 314.56"/><polygon class="s2d6-image4_34" points="658.69 294.41 658.81 289.66 659.24 289.66 659.35 294.41 658.69 294.41"/><polygon class="s2d6-image4_34" points="670.49 314.56 670.61 309.81 671.03 309.81 671.15 314.56 670.49 314.56"/><polygon class="s2d6-image4_34" points="645.93 314.56 646.05 301.21 646.47 301.21 646.59 314.56 645.93 314.56"/><polygon class="s2d6-image4_33" points="652.73 294.39 652.79 283.82 652.98 283.82 653.03 294.39 652.73 294.39"/><polygon class="s2d6-image4_34" points="646.09 294.39 646.2 283.82 646.58 283.82 646.68 294.39 646.09 294.39"/><polygon class="s2d6-image4_34" points="646.06 278.56 646.17 270.06 646.6 270.06 646.72 278.56 646.06 278.56"/><polygon class="s2d6-image4_33" points="546.24 314.56 546.3 301.21 546.52 301.21 546.57 314.56 546.24 314.56"/><polygon class="s2d6-image4_33" points="558.27 314.56 558.33 301.21 558.55 301.21 558.6 314.56 558.27 314.56"/><polygon class="s2d6-image4_34" points="551.97 314.56 552.08 301.21 552.51 301.21 552.63 314.56 551.97 314.56"/><polygon class="s2d6-image4_34" points="551.97 294.41 552.08 289.66 552.51 289.66 552.63 294.41 551.97 294.41"/><polygon class="s2d6-image4_34" points="540.17 314.56 540.29 309.81 540.71 309.81 540.83 314.56 540.17 314.56"/><polygon class="s2d6-image4_34" points="564.73 314.56 564.85 301.21 565.27 301.21 565.39 314.56 564.73 314.56"/><polygon class="s2d6-image4_33" points="558.29 294.39 558.34 283.82 558.53 283.82 558.59 294.39 558.29 294.39"/><polygon class="s2d6-image4_34" points="564.64 294.39 564.74 283.82 565.12 283.82 565.23 294.39 564.64 294.39"/><polygon class="s2d6-image4_34" points="564.6 278.56 564.72 270.06 565.15 270.06 565.26 278.56 564.6 278.56"/><path class="s2d6-image4_35" d="M530.53,257.83h24.61a2.3,2.3,0,0,1,2.3,2.3v0a0,0,0,0,1,0,0H530.53a0,0,0,0,1,0,0v-2.3A0,0,0,0,1,530.53,257.83Z"/><path class="s2d6-image4_35" d="M655.18,257.83h24.61a0,0,0,0,1,0,0v2.3a0,0,0,0,1,0,0H652.88a0,0,0,0,1,0,0v0A2.3,2.3,0,0,1,655.18,257.83Z"/><path class="s2d6-image4_34" d="M682.32,306.41a3.52,3.52,0,0,1,3.53-3.51h0v-.56h-3.31a1,1,0,0,1-.15.21,5.59,5.59,0,0,0-1.72,4.82l-.12-.08a5.41,5.41,0,0,0,4.52,4.12l.29-1.52A3.52,3.52,0,0,1,682.32,306.41Z"/><path class="s2d6-image4_34" d="M685.85,305a1.44,1.44,0,1,0,0,2.88h0V305Z"/><path class="s2d6-image4_34" d="M684,300.76h1.2a5.52,5.52,0,0,1,.71-.05h0V300h-6.28a.38.38,0,0,0-.29.36.37.37,0,0,0,.37.36h0a1.37,1.37,0,0,0,.35,0h.29c.24,0,.49,0,.74,0h.07l.27,0a2.48,2.48,0,0,0,.38,0h.32a.46.46,0,0,1,.4.37,3.36,3.36,0,0,1,.13.63,5.64,5.64,0,0,1,.71-.44A.48.48,0,0,1,684,300.76Z"/><path class="s2d6-image4_34" d="M684.12,301.64c-.26.08-.63.32-.71-.2,0-.05,0-.09,0-.14a5.64,5.64,0,0,0-.71.44,1.21,1.21,0,0,1-.1.6h3.31v-1A5.43,5.43,0,0,0,684.12,301.64Z"/><path class="s2d6-image4_34" d="M685.15,300.76h.74v-.05h0A5.52,5.52,0,0,0,685.15,300.76Z"/><path class="s2d6-image4_13" d="M685.86,311.47a4.65,4.65,0,0,1-.75-.06l-.62,3.15h1.4v-3.1Z"/><path class="s2d6-image4_13" d="M685.89,311.46v-1.54h0a3.4,3.4,0,0,1-.45,0l-.29,1.52a4.65,4.65,0,0,0,.75.06Z"/><path class="s2d6-image4_13" d="M682,302.34h-3.1v-3.46h7V284.74c-.15,0-.3.14-.46.42-1,1.7-2,3.38-3,5.08a79.58,79.58,0,0,0-5.22,10.14c-.6,1.52-.31,2.38,1.08,2.89a2.45,2.45,0,0,1,1.7,2.57,1.52,1.52,0,0,0,.57,1.45,5.32,5.32,0,0,1-.14-1.2A5.38,5.38,0,0,1,682,302.34Z"/><path class="s2d6-image4_13" d="M682.43,302.55a1,1,0,0,0,.15-.21H682a5.38,5.38,0,0,0-1.53,3.75,5.32,5.32,0,0,0,.14,1.2l.12.08A5.59,5.59,0,0,1,682.43,302.55Z"/><path class="s2d6-image4_13" d="M682.68,301.74a3.36,3.36,0,0,0-.13-.63.46.46,0,0,0-.4-.37h-.32a2.48,2.48,0,0,1-.38,0l-.27,0h-.07c-.25,0-.5,0-.74,0h-.29a1.37,1.37,0,0,1-.35,0h0a.37.37,0,0,1-.37-.36.38.38,0,0,1,.29-.36h6.28v-1.14h-7v3.46H682A5,5,0,0,1,682.68,301.74Z"/><path class="s2d6-image4_13" d="M682.68,301.74a5,5,0,0,0-.7.6h.6A1.21,1.21,0,0,0,682.68,301.74Z"/><path class="s2d6-image4_13" d="M684,300.76a.48.48,0,0,0-.56.54,5.47,5.47,0,0,1,1.76-.54Z"/><path class="s2d6-image4_13" d="M685.15,300.76a5.47,5.47,0,0,0-1.76.54c0,.05,0,.09,0,.14.08.52.45.28.71.2a5.43,5.43,0,0,1,1.77-.26v-.62Z"/><path class="s2d6-image4_13" d="M685.89,309.68v-1.84h0a1.44,1.44,0,1,1,0-2.88h0V302.9h0a3.51,3.51,0,0,0-.45,7l.05-.21Z"/><path class="s2d6-image4_13" d="M685.45,309.68l-.05.21a3.4,3.4,0,0,0,.45,0h0v-.24Z"/><path class="s2d6-image4_34" d="M687.3,306.41a1.45,1.45,0,0,0-1.41-1.44v2.87A1.44,1.44,0,0,0,687.3,306.41Z"/><path class="s2d6-image4_34" d="M692.18,300h-6.29v.74h0v0h1.84c.41,0,.59.22.58.56v.11c-.06.51-.42.32-.7.25a7.52,7.52,0,0,0-1.74-.28v1.52a3.51,3.51,0,0,1,.45,7l.28,1.53a5.4,5.4,0,0,0,4.5-4l0,0a5.75,5.75,0,0,0-1.72-4.76,1.14,1.14,0,0,1-.23-.31,1.22,1.22,0,0,1-.13-.62,2.73,2.73,0,0,1,.14-.69.45.45,0,0,1,.28-.29h2.65a.36.36,0,0,0,.37-.36A.37.37,0,0,0,692.18,300Z"/><path class="s2d6-image4_35" d="M685.89,311.46v3.1h1.3l-.57-3.15A4.4,4.4,0,0,1,685.89,311.46Z"/><path class="s2d6-image4_35" d="M685.89,309.92v1.54a4.4,4.4,0,0,0,.73,0l-.28-1.53Z"/><path class="s2d6-image4_35" d="M694.38,300c-2.2-5.23-5.26-10-8.08-14.89-.15-.25-.28-.38-.41-.39V300h6.29a.37.37,0,0,1,.28.36.36.36,0,0,1-.37.36h-2.65a.45.45,0,0,0-.28.29,2.73,2.73,0,0,0-.14.69,1.22,1.22,0,0,0,.13.62,1.14,1.14,0,0,0,.23.31,5.75,5.75,0,0,1,1.72,4.76l0,0a2.15,2.15,0,0,0,.65-1.83,2.23,2.23,0,0,1,1.72-2.29,1.84,1.84,0,0,0,1.3-1.37A3,3,0,0,0,694.38,300Z"/><path class="s2d6-image4_35" d="M687.75,300.74h-1.84v0h0v.62a7.52,7.52,0,0,1,1.74.28c.28.07.64.26.7-.25v-.11C688.34,301,688.16,300.74,687.75,300.74Z"/><path class="s2d6-image4_35" d="M687.3,306.41a1.44,1.44,0,0,1-1.41,1.43v1.84h.42l0,.2a3.51,3.51,0,0,0-.45-7V305A1.45,1.45,0,0,1,687.3,306.41Z"/><path class="s2d6-image4_35" d="M686.31,309.68h-.42v.24l.45,0Z"/><path class="s2d6-image4_34" d="M668.31,287.16a3,3,0,0,1,3.06-3h0v-.48h-2.88a.66.66,0,0,1-.12.17,4.88,4.88,0,0,0-1.5,4.19l-.1-.08a4.69,4.69,0,0,0,3.92,3.58l.26-1.32A3.06,3.06,0,0,1,668.31,287.16Z"/><path class="s2d6-image4_34" d="M671.37,285.91a1.25,1.25,0,0,0,0,2.5h0v-2.5Z"/><path class="s2d6-image4_34" d="M669.72,282.26h1a4.44,4.44,0,0,1,.63,0h0v-.6H666a.32.32,0,0,0-.25.31.33.33,0,0,0,.32.32h1.53a1.74,1.74,0,0,0,.32,0h.28a.39.39,0,0,1,.35.31,2.55,2.55,0,0,1,.11.55,5.73,5.73,0,0,1,.62-.38C669.23,282.46,669.36,282.26,669.72,282.26Z"/><path class="s2d6-image4_34" d="M669.87,283c-.22.08-.54.28-.61-.17a.5.5,0,0,1,0-.12,5.73,5.73,0,0,0-.62.38,1,1,0,0,1-.09.53h2.88v-.84A4.86,4.86,0,0,0,669.87,283Z"/><path class="s2d6-image4_34" d="M670.76,282.26h.65v0h0A4.44,4.44,0,0,0,670.76,282.26Z"/><path class="s2d6-image4_13" d="M671.39,291.55a4.65,4.65,0,0,1-.66-.05l-.54,2.73h1.22v-2.69Z"/><path class="s2d6-image4_13" d="M671.41,291.54V290.2h0l-.38,0-.26,1.32a4.65,4.65,0,0,0,.66.05Z"/><path class="s2d6-image4_13" d="M668,283.64h-2.69v-3h6.08V268.37c-.13,0-.26.12-.4.36-.85,1.48-1.73,2.93-2.58,4.41a70.85,70.85,0,0,0-4.53,8.79c-.52,1.32-.27,2.07.94,2.51a2.12,2.12,0,0,1,1.48,2.23,1.31,1.31,0,0,0,.49,1.25,4.42,4.42,0,0,1-.12-1A4.62,4.62,0,0,1,668,283.64Z"/><path class="s2d6-image4_13" d="M668.41,283.81a.66.66,0,0,0,.12-.17H668a4.62,4.62,0,0,0-1.33,3.24,4.42,4.42,0,0,0,.12,1l.1.08A4.88,4.88,0,0,1,668.41,283.81Z"/><path class="s2d6-image4_13" d="M668.62,283.11a2.55,2.55,0,0,0-.11-.55.39.39,0,0,0-.35-.31h-.28a1.74,1.74,0,0,1-.32,0H666a.33.33,0,0,1-.32-.32.32.32,0,0,1,.25-.31h5.45v-1h-6.08v3H668A3.79,3.79,0,0,1,668.62,283.11Z"/><path class="s2d6-image4_13" d="M668.62,283.11a3.79,3.79,0,0,0-.6.53h.51A1,1,0,0,0,668.62,283.11Z"/><path class="s2d6-image4_13" d="M669.72,282.26c-.36,0-.49.2-.48.47a4.64,4.64,0,0,1,1.52-.47Z"/><path class="s2d6-image4_13" d="M670.76,282.26a4.64,4.64,0,0,0-1.52.47.5.5,0,0,0,0,.12c.07.45.39.25.61.17a4.86,4.86,0,0,1,1.54-.22v-.54Z"/><path class="s2d6-image4_13" d="M671.41,290v-1.59h0a1.25,1.25,0,0,1,0-2.5h0v-1.79h0a3,3,0,0,0-.38,6.06l0-.18Z"/><path class="s2d6-image4_13" d="M671,290l0,.18.38,0h0V290Z"/><path class="s2d6-image4_34" d="M672.63,287.16a1.25,1.25,0,0,0-1.22-1.25v2.5A1.25,1.25,0,0,0,672.63,287.16Z"/><path class="s2d6-image4_34" d="M676.86,281.62h-5.45v.64H673c.36,0,.51.18.51.48a.28.28,0,0,1,0,.09c0,.45-.36.29-.6.22a6.09,6.09,0,0,0-1.51-.24v1.32a3,3,0,0,1,.39,6.05l.24,1.33a4.7,4.7,0,0,0,3.9-3.49l0,0a5,5,0,0,0-1.48-4.13.79.79,0,0,1-.2-.26,1.19,1.19,0,0,1-.12-.55,2,2,0,0,1,.13-.59.36.36,0,0,1,.24-.25h2.3a.33.33,0,0,0,.32-.32A.32.32,0,0,0,676.86,281.62Z"/><path class="s2d6-image4_35" d="M671.41,291.54v2.69h1.13l-.5-2.73A4.44,4.44,0,0,1,671.41,291.54Z"/><path class="s2d6-image4_35" d="M671.41,290.2v1.34a4.44,4.44,0,0,0,.63,0l-.24-1.33Z"/><path class="s2d6-image4_35" d="M678.77,281.62c-1.91-4.53-4.56-8.67-7-12.91-.13-.22-.24-.33-.35-.34v13.25h5.45a.32.32,0,0,1,.25.31.33.33,0,0,1-.32.32h-2.3a.36.36,0,0,0-.24.25,2,2,0,0,0-.13.59,1.19,1.19,0,0,0,.12.55.79.79,0,0,0,.2.26,5,5,0,0,1,1.48,4.13l0,0a1.85,1.85,0,0,0,.57-1.59,1.92,1.92,0,0,1,1.49-2,1.59,1.59,0,0,0,1.13-1.19A2.55,2.55,0,0,0,678.77,281.62Z"/><path class="s2d6-image4_35" d="M673,282.25h-1.61v.54a6.09,6.09,0,0,1,1.51.24c.24.07.55.23.6-.22a.28.28,0,0,0,0-.09C673.53,282.43,673.38,282.25,673,282.25Z"/><path class="s2d6-image4_35" d="M672.63,287.16a1.25,1.25,0,0,1-1.22,1.25V290h.36l0,.17a3,3,0,0,0-.39-6.05v1.79A1.25,1.25,0,0,1,672.63,287.16Z"/><path class="s2d6-image4_35" d="M671.77,290h-.36v.2l.39,0Z"/><path class="s2d6-image4_34" d="M640.05,225.34a1.89,1.89,0,0,1,1.9-1.89h0v-.3h-1.78a.76.76,0,0,1-.08.11,3,3,0,0,0-.93,2.6l-.06-.05a2.9,2.9,0,0,0,2.43,2.23l.16-.82A1.9,1.9,0,0,1,640.05,225.34Z"/><path class="s2d6-image4_34" d="M642,224.56a.78.78,0,0,0-.78.78.77.77,0,0,0,.78.77h0v-1.55Z"/><path class="s2d6-image4_34" d="M640.93,222.29h.64l.39,0h0v-.37h-3.38a.2.2,0,0,0-.16.2.19.19,0,0,0,.2.19h1a.69.69,0,0,0,.2,0H640a.26.26,0,0,1,.22.2,2.05,2.05,0,0,1,.07.34,2.55,2.55,0,0,1,.39-.24C640.62,222.41,640.7,222.29,640.93,222.29Z"/><path class="s2d6-image4_34" d="M641,222.77c-.14,0-.34.17-.38-.11a.22.22,0,0,1,0-.08,2.55,2.55,0,0,0-.39.24.61.61,0,0,1,0,.33H642v-.52A2.64,2.64,0,0,0,641,222.77Z"/><path class="s2d6-image4_34" d="M641.57,222.29h.4v0h0Z"/><path class="s2d6-image4_13" d="M642,228.07a2.83,2.83,0,0,1-.41,0l-.33,1.7H642v-1.67Z"/><path class="s2d6-image4_13" d="M642,228.07v-.84h-.26l-.16.82a2.83,2.83,0,0,0,.41,0Z"/><path class="s2d6-image4_13" d="M639.87,223.15h-1.68v-1.87H642v-7.63c-.08,0-.16.08-.24.23-.53.91-1.08,1.82-1.6,2.74a41.57,41.57,0,0,0-2.82,5.47c-.33.82-.17,1.28.58,1.56a1.32,1.32,0,0,1,.92,1.38.8.8,0,0,0,.31.78,2.67,2.67,0,0,1-.08-.64A2.87,2.87,0,0,1,639.87,223.15Z"/><path class="s2d6-image4_13" d="M640.11,223.26a.76.76,0,0,0,.08-.11h-.32a2.87,2.87,0,0,0-.83,2,2.67,2.67,0,0,0,.08.64l.06.05A3,3,0,0,1,640.11,223.26Z"/><path class="s2d6-image4_13" d="M640.24,222.82a2.05,2.05,0,0,0-.07-.34.26.26,0,0,0-.22-.2h-.17a.69.69,0,0,1-.2,0h-1a.19.19,0,0,1-.2-.19.2.2,0,0,1,.16-.2H642v-.61h-3.78v1.87h1.68A2.91,2.91,0,0,1,640.24,222.82Z"/><path class="s2d6-image4_13" d="M640.24,222.82a2.91,2.91,0,0,0-.37.33h.32A.61.61,0,0,0,640.24,222.82Z"/><path class="s2d6-image4_13" d="M640.93,222.29c-.23,0-.31.12-.3.29a3,3,0,0,1,.94-.29Z"/><path class="s2d6-image4_13" d="M641.57,222.29a3,3,0,0,0-.94.29.22.22,0,0,0,0,.08c0,.28.24.15.38.11a2.64,2.64,0,0,1,1-.14v-.34Z"/><path class="s2d6-image4_13" d="M642,227.1v-1h0a.77.77,0,0,1-.78-.77.78.78,0,0,1,.78-.78h0v-1.11h0a1.89,1.89,0,0,0-.24,3.77l0-.12Z"/><path class="s2d6-image4_13" d="M641.73,227.1l0,.12H642v-.13Z"/><path class="s2d6-image4_34" d="M642.73,225.34a.78.78,0,0,0-.76-.78v1.55A.77.77,0,0,0,642.73,225.34Z"/><path class="s2d6-image4_34" d="M645.36,221.89H642v.4h1c.22,0,.32.12.31.3v.06c0,.28-.22.18-.38.14a3.76,3.76,0,0,0-.94-.15v.82a1.89,1.89,0,0,1,.25,3.76l.15.83a2.92,2.92,0,0,0,2.42-2.17h0a3.07,3.07,0,0,0-.92-2.57.48.48,0,0,1-.13-.16.8.8,0,0,1-.07-.34,1.53,1.53,0,0,1,.08-.37.24.24,0,0,1,.15-.16h1.43a.19.19,0,0,0,.2-.19A.2.2,0,0,0,645.36,221.89Z"/><path class="s2d6-image4_35" d="M642,228.07v1.67h.71l-.31-1.7A2.6,2.6,0,0,1,642,228.07Z"/><path class="s2d6-image4_35" d="M642,227.23v.84a2.6,2.6,0,0,0,.4,0l-.15-.83Z"/><path class="s2d6-image4_35" d="M646.55,221.89a71.67,71.67,0,0,0-4.36-8c-.08-.14-.15-.2-.22-.21v8.24h3.39a.2.2,0,0,1,.16.2.19.19,0,0,1-.2.19h-1.43a.24.24,0,0,0-.15.16,1.53,1.53,0,0,0-.08.37.8.8,0,0,0,.07.34.48.48,0,0,0,.13.16,3.07,3.07,0,0,1,.92,2.57h0a1.16,1.16,0,0,0,.36-1,1.2,1.2,0,0,1,.92-1.24,1,1,0,0,0,.71-.73A1.61,1.61,0,0,0,646.55,221.89Z"/><path class="s2d6-image4_35" d="M643,222.28h-1v.34a3.76,3.76,0,0,1,.94.15c.16,0,.35.14.38-.14v-.06C643.3,222.4,643.2,222.28,643,222.28Z"/><path class="s2d6-image4_35" d="M642.73,225.34a.77.77,0,0,1-.76.77v1h.23l0,.11a1.89,1.89,0,0,0-.25-3.76v1.11A.78.78,0,0,1,642.73,225.34Z"/><path class="s2d6-image4_35" d="M642.2,227.1H642v.13l.25,0Z"/><path class="s2d6-image4_34" d="M566.07,225.34a1.9,1.9,0,0,1,1.91-1.89h0v-.3h-1.79a.38.38,0,0,1-.08.11,3,3,0,0,0-.93,2.6l-.06-.05a2.91,2.91,0,0,0,2.44,2.23l.16-.82A1.91,1.91,0,0,1,566.07,225.34Z"/><path class="s2d6-image4_34" d="M568,224.56a.78.78,0,0,0-.78.78.77.77,0,0,0,.78.77h0v-1.55Z"/><path class="s2d6-image4_34" d="M567,222.29h.65a2.47,2.47,0,0,1,.39,0h0v-.37h-3.39a.2.2,0,0,0-.15.2.19.19,0,0,0,.2.19h1a.69.69,0,0,0,.2,0H566a.26.26,0,0,1,.22.2,2.05,2.05,0,0,1,.07.34,3,3,0,0,1,.38-.24A.26.26,0,0,1,567,222.29Z"/><path class="s2d6-image4_34" d="M567,222.77c-.14,0-.33.17-.38-.11,0,0,0,0,0-.08a3,3,0,0,0-.38.24.72.72,0,0,1-.06.33H568v-.52A2.66,2.66,0,0,0,567,222.77Z"/><path class="s2d6-image4_34" d="M567.6,222.29h.4v0h0A2.47,2.47,0,0,0,567.6,222.29Z"/><path class="s2d6-image4_13" d="M568,228.07a2.73,2.73,0,0,1-.41,0l-.34,1.7H568v-1.67Z"/><path class="s2d6-image4_13" d="M568,228.07v-.84h-.26l-.16.82a2.73,2.73,0,0,0,.41,0Z"/><path class="s2d6-image4_13" d="M565.89,223.15h-1.67v-1.87H568v-7.63c-.08,0-.16.08-.25.23-.53.91-1.08,1.82-1.6,2.74a42.81,42.81,0,0,0-2.82,5.47c-.32.82-.16,1.28.58,1.56a1.3,1.3,0,0,1,.92,1.38.82.82,0,0,0,.31.78,2.67,2.67,0,0,1-.07-.64A2.87,2.87,0,0,1,565.89,223.15Z"/><path class="s2d6-image4_13" d="M566.13,223.26a.38.38,0,0,0,.08-.11h-.32a2.87,2.87,0,0,0-.82,2,2.67,2.67,0,0,0,.07.64l.06.05A3,3,0,0,1,566.13,223.26Z"/><path class="s2d6-image4_13" d="M566.27,222.82a2.05,2.05,0,0,0-.07-.34.26.26,0,0,0-.22-.2h-.17a.69.69,0,0,1-.2,0h-1a.19.19,0,0,1-.2-.19.2.2,0,0,1,.15-.2H568v-.61h-3.78v1.87h1.67A3,3,0,0,1,566.27,222.82Z"/><path class="s2d6-image4_13" d="M566.27,222.82a3,3,0,0,0-.38.33h.32A.72.72,0,0,0,566.27,222.82Z"/><path class="s2d6-image4_13" d="M567,222.29a.26.26,0,0,0-.3.29,3,3,0,0,1,1-.29Z"/><path class="s2d6-image4_13" d="M567.6,222.29a3,3,0,0,0-1,.29s0,0,0,.08c.05.28.24.15.38.11a2.66,2.66,0,0,1,1-.14v-.34Z"/><path class="s2d6-image4_13" d="M568,227.1v-1h0a.77.77,0,0,1-.78-.77.78.78,0,0,1,.78-.78h0v-1.11h0a1.89,1.89,0,0,0-.24,3.77l0-.12Z"/><path class="s2d6-image4_13" d="M567.76,227.1l0,.12H568v-.13Z"/><path class="s2d6-image4_34" d="M568.76,225.34a.78.78,0,0,0-.76-.78v1.55A.77.77,0,0,0,568.76,225.34Z"/><path class="s2d6-image4_34" d="M571.39,221.89H568v.4h1c.23,0,.32.12.32.3a.13.13,0,0,1,0,.06c0,.28-.22.18-.37.14a3.84,3.84,0,0,0-.94-.15v.82a1.89,1.89,0,0,1,.24,3.76l.15.83a2.94,2.94,0,0,0,2.43-2.17h0a3.11,3.11,0,0,0-.93-2.57.61.61,0,0,1-.12-.16.58.58,0,0,1-.07-.34,1.17,1.17,0,0,1,.08-.37.25.25,0,0,1,.14-.16h1.44a.18.18,0,0,0,.19-.19A.2.2,0,0,0,571.39,221.89Z"/><path class="s2d6-image4_35" d="M568,228.07v1.67h.7l-.31-1.7A2.47,2.47,0,0,1,568,228.07Z"/><path class="s2d6-image4_35" d="M568,227.23v.84a2.47,2.47,0,0,0,.39,0l-.15-.83Z"/><path class="s2d6-image4_35" d="M572.58,221.89a75.06,75.06,0,0,0-4.36-8c-.08-.14-.15-.2-.22-.21v8.24h3.39a.2.2,0,0,1,.15.2.18.18,0,0,1-.19.19h-1.44a.25.25,0,0,0-.14.16,1.17,1.17,0,0,0-.08.37.58.58,0,0,0,.07.34.61.61,0,0,0,.12.16,3.11,3.11,0,0,1,.93,2.57h0a1.15,1.15,0,0,0,.35-1,1.22,1.22,0,0,1,.93-1.24,1,1,0,0,0,.7-.73A1.67,1.67,0,0,0,572.58,221.89Z"/><path class="s2d6-image4_35" d="M569,222.28h-1v.34a3.84,3.84,0,0,1,.94.15c.15,0,.34.14.37-.14a.13.13,0,0,0,0-.06C569.32,222.4,569.23,222.28,569,222.28Z"/><path class="s2d6-image4_35" d="M568.76,225.34a.77.77,0,0,1-.76.77v1h.22l0,.11a1.89,1.89,0,0,0-.24-3.76v1.11A.78.78,0,0,1,568.76,225.34Z"/><path class="s2d6-image4_35" d="M568.22,227.1H568v.13l.24,0Z"/><path class="s2d6-image4_34" d="M535.19,287.16a3,3,0,0,1,3.06-3h0v-.48h-2.88a.66.66,0,0,1-.12.17,4.88,4.88,0,0,0-1.5,4.19l-.1-.08a4.69,4.69,0,0,0,3.92,3.58l.26-1.32A3.06,3.06,0,0,1,535.19,287.16Z"/><path class="s2d6-image4_34" d="M538.25,285.91a1.25,1.25,0,0,0,0,2.5h0v-2.5Z"/><path class="s2d6-image4_34" d="M536.6,282.26h1a4.35,4.35,0,0,1,.63,0h0v-.6h-5.45a.32.32,0,0,0-.25.31.33.33,0,0,0,.32.32h1.53a1.74,1.74,0,0,0,.32,0H535a.39.39,0,0,1,.35.31,2.55,2.55,0,0,1,.11.55,4.9,4.9,0,0,1,.62-.38C536.11,282.46,536.24,282.26,536.6,282.26Z"/><path class="s2d6-image4_34" d="M536.75,283c-.22.08-.54.28-.62-.17,0,0,0-.08,0-.12a4.9,4.9,0,0,0-.62.38,1,1,0,0,1-.09.53h2.88v-.84A4.86,4.86,0,0,0,536.75,283Z"/><path class="s2d6-image4_34" d="M537.64,282.26h.65v0h0A4.35,4.35,0,0,0,537.64,282.26Z"/><path class="s2d6-image4_13" d="M538.27,291.55a4.65,4.65,0,0,1-.66-.05l-.54,2.73h1.22v-2.69Z"/><path class="s2d6-image4_13" d="M538.29,291.54V290.2h0l-.38,0-.26,1.32a4.65,4.65,0,0,0,.66.05Z"/><path class="s2d6-image4_13" d="M534.9,283.64h-2.69v-3h6.08V268.37c-.14,0-.26.12-.4.36-.85,1.48-1.73,2.93-2.58,4.41a70.85,70.85,0,0,0-4.53,8.79c-.52,1.32-.27,2.07.94,2.51a2.12,2.12,0,0,1,1.48,2.23,1.28,1.28,0,0,0,.49,1.25,4.42,4.42,0,0,1-.12-1A4.62,4.62,0,0,1,534.9,283.64Z"/><path class="s2d6-image4_13" d="M535.29,283.81a.66.66,0,0,0,.12-.17h-.51a4.62,4.62,0,0,0-1.33,3.24,4.42,4.42,0,0,0,.12,1l.1.08A4.88,4.88,0,0,1,535.29,283.81Z"/><path class="s2d6-image4_13" d="M535.5,283.11a2.55,2.55,0,0,0-.11-.55.39.39,0,0,0-.35-.31h-.28a1.74,1.74,0,0,1-.32,0h-1.53a.33.33,0,0,1-.32-.32.32.32,0,0,1,.25-.31h5.45v-1h-6.08v3h2.69A3.79,3.79,0,0,1,535.5,283.11Z"/><path class="s2d6-image4_13" d="M535.5,283.11a3.79,3.79,0,0,0-.6.53h.51A1,1,0,0,0,535.5,283.11Z"/><path class="s2d6-image4_13" d="M536.6,282.26c-.36,0-.49.2-.48.47a4.64,4.64,0,0,1,1.52-.47Z"/><path class="s2d6-image4_13" d="M537.64,282.26a4.64,4.64,0,0,0-1.52.47s0,.08,0,.12c.08.45.4.25.62.17a4.86,4.86,0,0,1,1.54-.22v-.54Z"/><path class="s2d6-image4_13" d="M538.29,290v-1.59h0a1.25,1.25,0,0,1,0-2.5h0v-1.79h0a3,3,0,0,0-.38,6.06l0-.18Z"/><path class="s2d6-image4_13" d="M537.9,290l0,.18.38,0h0V290Z"/><path class="s2d6-image4_34" d="M539.51,287.16a1.25,1.25,0,0,0-1.22-1.25v2.5A1.25,1.25,0,0,0,539.51,287.16Z"/><path class="s2d6-image4_34" d="M543.74,281.62h-5.45v.64h1.61c.36,0,.51.18.51.48a.28.28,0,0,1,0,.09c0,.45-.36.29-.6.22a6.17,6.17,0,0,0-1.51-.24v1.32a3,3,0,0,1,.39,6.05l.24,1.33a4.7,4.7,0,0,0,3.9-3.49l0,0a5,5,0,0,0-1.48-4.13.79.79,0,0,1-.2-.26,1.19,1.19,0,0,1-.12-.55,2,2,0,0,1,.13-.59.36.36,0,0,1,.24-.25h2.3a.33.33,0,0,0,.32-.32A.32.32,0,0,0,543.74,281.62Z"/><path class="s2d6-image4_35" d="M538.29,291.54v2.69h1.13l-.5-2.73A4.44,4.44,0,0,1,538.29,291.54Z"/><path class="s2d6-image4_35" d="M538.29,290.2v1.34a4.44,4.44,0,0,0,.63,0l-.24-1.33Z"/><path class="s2d6-image4_35" d="M545.65,281.62c-1.91-4.53-4.56-8.67-7-12.91-.13-.22-.24-.33-.35-.34v13.25h5.45a.32.32,0,0,1,.25.31.33.33,0,0,1-.32.32h-2.3a.36.36,0,0,0-.24.25,2,2,0,0,0-.13.59,1.19,1.19,0,0,0,.12.55.79.79,0,0,0,.2.26A5,5,0,0,1,542.8,288l0,0a1.85,1.85,0,0,0,.57-1.59,1.92,1.92,0,0,1,1.49-2,1.59,1.59,0,0,0,1.13-1.19A2.55,2.55,0,0,0,545.65,281.62Z"/><path class="s2d6-image4_35" d="M539.9,282.25h-1.61v.54a6.17,6.17,0,0,1,1.51.24c.24.07.55.23.6-.22a.28.28,0,0,0,0-.09C540.41,282.43,540.26,282.25,539.9,282.25Z"/><path class="s2d6-image4_35" d="M539.51,287.16a1.25,1.25,0,0,1-1.22,1.25V290h.36l0,.17a3,3,0,0,0-.39-6.05v1.79A1.25,1.25,0,0,1,539.51,287.16Z"/><path class="s2d6-image4_35" d="M538.65,290h-.36v.2l.39,0Z"/><path class="s2d6-image4_34" d="M519.7,306.41a3.52,3.52,0,0,1,3.53-3.51h0v-.56H520a.7.7,0,0,1-.14.21,5.57,5.57,0,0,0-1.73,4.82l-.11-.08a5.39,5.39,0,0,0,4.51,4.12l.3-1.52A3.51,3.51,0,0,1,519.7,306.41Z"/><path class="s2d6-image4_34" d="M523.23,305a1.44,1.44,0,1,0,0,2.88h0V305Z"/><path class="s2d6-image4_34" d="M521.32,300.76h1.2a5.81,5.81,0,0,1,.72-.05h0V300H517a.36.36,0,0,0-.29.36.36.36,0,0,0,.37.36h0a1.37,1.37,0,0,0,.35,0h.28c.25,0,.5,0,.75,0h.06l.28,0a2.42,2.42,0,0,0,.37,0h.32a.48.48,0,0,1,.41.37,3.34,3.34,0,0,1,.12.63,6.59,6.59,0,0,1,.72-.44A.48.48,0,0,1,521.32,300.76Z"/><path class="s2d6-image4_34" d="M521.5,301.64c-.26.08-.63.32-.72-.2,0-.05,0-.09,0-.14a6.59,6.59,0,0,0-.72.44,1,1,0,0,1-.1.6h3.32v-1A5.43,5.43,0,0,0,521.5,301.64Z"/><path class="s2d6-image4_34" d="M522.52,300.76h.75v-.05h0A5.81,5.81,0,0,0,522.52,300.76Z"/><path class="s2d6-image4_13" d="M523.24,311.47a4.77,4.77,0,0,1-.76-.06l-.61,3.15h1.4v-3.1Z"/><path class="s2d6-image4_13" d="M523.27,311.46v-1.54h0a3.4,3.4,0,0,1-.45,0l-.3,1.52a4.77,4.77,0,0,0,.76.06Z"/><path class="s2d6-image4_13" d="M519.36,302.34h-3.11v-3.46h7V284.74c-.16,0-.3.14-.46.42-1,1.7-2,3.38-3,5.08a79.65,79.65,0,0,0-5.23,10.14c-.6,1.52-.31,2.38,1.08,2.89a2.45,2.45,0,0,1,1.71,2.57,1.52,1.52,0,0,0,.57,1.45,5.33,5.33,0,0,1,1.39-5Z"/><path class="s2d6-image4_13" d="M519.81,302.55a.7.7,0,0,0,.14-.21h-.59a5.33,5.33,0,0,0-1.39,5l.11.08A5.57,5.57,0,0,1,519.81,302.55Z"/><path class="s2d6-image4_13" d="M520.05,301.74a3.34,3.34,0,0,0-.12-.63.48.48,0,0,0-.41-.37h-.32a2.42,2.42,0,0,1-.37,0l-.28,0h-.06c-.25,0-.5,0-.75,0h-.28a1.37,1.37,0,0,1-.35,0h0a.36.36,0,0,1-.37-.36A.36.36,0,0,1,517,300h6.28v-1.14h-7v3.46h3.11A5,5,0,0,1,520.05,301.74Z"/><path class="s2d6-image4_13" d="M520.05,301.74a5,5,0,0,0-.69.6H520A1,1,0,0,0,520.05,301.74Z"/><path class="s2d6-image4_13" d="M521.32,300.76a.48.48,0,0,0-.55.54,5.49,5.49,0,0,1,1.75-.54Z"/><path class="s2d6-image4_13" d="M522.52,300.76a5.49,5.49,0,0,0-1.75.54c0,.05,0,.09,0,.14.09.52.46.28.72.2a5.43,5.43,0,0,1,1.77-.26v-.62Z"/><path class="s2d6-image4_13" d="M523.27,309.68v-1.84h0a1.44,1.44,0,1,1,0-2.88h0V302.9h0a3.51,3.51,0,0,0-.45,7l0-.21Z"/><path class="s2d6-image4_13" d="M522.82,309.68l0,.21a3.4,3.4,0,0,0,.45,0h0v-.24Z"/><path class="s2d6-image4_34" d="M524.68,306.41a1.45,1.45,0,0,0-1.41-1.44v2.87A1.44,1.44,0,0,0,524.68,306.41Z"/><path class="s2d6-image4_34" d="M529.55,300h-6.28v.74h0v0h1.85c.41,0,.59.22.58.56a.41.41,0,0,1,0,.11c-.05.51-.41.32-.69.25a7.52,7.52,0,0,0-1.74-.28v1.52a3.51,3.51,0,0,1,.45,7l.28,1.53a5.39,5.39,0,0,0,4.49-4l0,0a5.71,5.71,0,0,0-1.71-4.76,1,1,0,0,1-.23-.31,1.12,1.12,0,0,1-.13-.62,2.73,2.73,0,0,1,.14-.69.45.45,0,0,1,.28-.29h2.65a.36.36,0,0,0,.08-.72Z"/><path class="s2d6-image4_35" d="M523.27,311.46v3.1h1.3l-.57-3.15A4.48,4.48,0,0,1,523.27,311.46Z"/><path class="s2d6-image4_35" d="M523.27,309.92v1.54a4.48,4.48,0,0,0,.73,0l-.28-1.53Z"/><path class="s2d6-image4_35" d="M531.76,300c-2.2-5.23-5.26-10-8.09-14.89-.15-.25-.28-.38-.4-.39V300h6.28a.36.36,0,0,1-.08.72h-2.65a.45.45,0,0,0-.28.29,2.73,2.73,0,0,0-.14.69,1.12,1.12,0,0,0,.13.62,1,1,0,0,0,.23.31,5.71,5.71,0,0,1,1.71,4.76l0,0a2.16,2.16,0,0,0,.66-1.83,2.22,2.22,0,0,1,1.72-2.29,1.84,1.84,0,0,0,1.3-1.37A3,3,0,0,0,531.76,300Z"/><path class="s2d6-image4_35" d="M525.13,300.74h-1.85v0h0v.62a7.52,7.52,0,0,1,1.74.28c.28.07.64.26.69-.25a.41.41,0,0,0,0-.11C525.72,301,525.54,300.74,525.13,300.74Z"/><path class="s2d6-image4_35" d="M524.68,306.41a1.44,1.44,0,0,1-1.41,1.43v1.84h.41l0,.2a3.51,3.51,0,0,0-.45-7V305A1.45,1.45,0,0,1,524.68,306.41Z"/><path class="s2d6-image4_35" d="M523.68,309.68h-.41v.24l.45,0Z"/><rect class="s2d6-image4_35" x="635.08" y="302.54" width="4.16" height="0.72" rx="0.36" ry="0.36"/><rect class="s2d6-image4_9" x="635.08" y="298.68" width="4.16" height="0.72" rx="0.36" ry="0.36"/><rect class="s2d6-image4_35" x="635.08" y="294.82" width="4.16" height="0.72" rx="0.36" ry="0.36"/><rect class="s2d6-image4_9" x="635.08" y="290.96" width="4.16" height="0.72" rx="0.36" ry="0.36"/><rect class="s2d6-image4_35" x="635.08" y="287.09" width="4.16" height="0.72" rx="0.36" ry="0.36"/><rect class="s2d6-image4_9" x="635.08" y="283.23" width="4.16" height="0.72" rx="0.36" ry="0.36"/><rect class="s2d6-image4_35" x="635.08" y="279.37" width="4.16" height="0.72" rx="0.36" ry="0.36"/><rect class="s2d6-image4_9" x="635.08" y="306.41" width="4.16" height="0.72" rx="0.36" ry="0.36"/><rect class="s2d6-image4_35" x="635.08" y="310.41" width="4.16" height="0.72" rx="0.36" ry="0.36"/><rect class="s2d6-image4_35" x="571.21" y="302.54" width="4.16" height="0.72" rx="0.36" ry="0.36"/><rect class="s2d6-image4_9" x="571.21" y="298.68" width="4.16" height="0.72" rx="0.36" ry="0.36"/><rect class="s2d6-image4_35" x="571.21" y="294.82" width="4.16" height="0.72" rx="0.36" ry="0.36"/><rect class="s2d6-image4_9" x="571.21" y="290.96" width="4.16" height="0.72" rx="0.36" ry="0.36"/><rect class="s2d6-image4_35" x="571.21" y="287.09" width="4.16" height="0.72" rx="0.36" ry="0.36"/><rect class="s2d6-image4_9" x="571.21" y="283.23" width="4.16" height="0.72" rx="0.36" ry="0.36"/><rect class="s2d6-image4_35" x="571.21" y="279.37" width="4.16" height="0.72" rx="0.36" ry="0.36"/><rect class="s2d6-image4_9" x="571.21" y="306.41" width="4.16" height="0.72" rx="0.36" ry="0.36"/><rect class="s2d6-image4_35" x="571.21" y="310.41" width="4.16" height="0.72" rx="0.36" ry="0.36"/><path class="s2d6-image4_9" d="M586,221.55a6.79,6.79,0,0,1,1.08-1l1.06-.91c.14-.12-.06-.32-.2-.2l-1.21,1a5.71,5.71,0,0,0-1,.92c-.11.15.14.29.25.14Z"/><path class="s2d6-image4_35" d="M606.28,221.45a8.87,8.87,0,0,1,0-2.06c0-.18-.27-.18-.29,0a8.87,8.87,0,0,0,0,2.06c0,.18.3.18.28,0Z"/><path class="s2d6-image4_9" d="M603.54,221.63a19.81,19.81,0,0,1,.66-2.11c.06-.18-.22-.25-.28-.08a21.71,21.71,0,0,0-.66,2.12.14.14,0,0,0,.28.07Z"/><path class="s2d6-image4_35" d="M600.61,221.63a12.68,12.68,0,0,0,1.13-2.08c.08-.16-.17-.31-.24-.14a13.91,13.91,0,0,1-1.14,2.07c-.1.15.15.3.25.15Z"/><path class="s2d6-image4_9" d="M597.7,221.63c.5-.66,1-1.3,1.48-2,.11-.15-.14-.29-.24-.14-.47.68-1,1.33-1.48,2-.11.15.13.29.24.15Z"/><path class="s2d6-image4_35" d="M594.75,221.67a19.3,19.3,0,0,0,1.66-2c.11-.15-.14-.29-.24-.14a18.27,18.27,0,0,1-1.62,2c-.12.14.08.34.2.2Z"/><path class="s2d6-image4_9" d="M591.73,221.63l2-1.9a.14.14,0,0,0-.2-.2l-2,1.9c-.14.12.06.32.2.2Z"/><path class="s2d6-image4_35" d="M588.87,221.59l2-1.81c.14-.13-.07-.33-.2-.21l-2.05,1.82c-.13.12.07.32.2.2Z"/><path class="s2d6-image4_9" d="M626.47,221.41a6.11,6.11,0,0,0-1-.92l-1.21-1c-.14-.12-.34.08-.2.2l1.06.91a6.79,6.79,0,0,1,1.08,1c.11.15.36,0,.25-.14Z"/><path class="s2d6-image4_9" d="M609,221.56c-.18-.73-.42-1.42-.66-2.12-.06-.17-.34-.1-.28.08a19.81,19.81,0,0,1,.66,2.11.14.14,0,0,0,.28-.07Z"/><path class="s2d6-image4_35" d="M611.87,221.48a13.91,13.91,0,0,1-1.14-2.07c-.07-.17-.32,0-.24.14a12.68,12.68,0,0,0,1.13,2.08c.1.15.35,0,.25-.15Z"/><path class="s2d6-image4_9" d="M614.77,221.48c-.5-.65-1-1.3-1.48-2-.1-.15-.35,0-.24.14.46.69,1,1.33,1.48,2,.11.14.35,0,.24-.15Z"/><path class="s2d6-image4_35" d="M617.68,221.47a18.27,18.27,0,0,1-1.62-2c-.1-.15-.35,0-.24.14a19.3,19.3,0,0,0,1.66,2c.12.14.32-.06.2-.2Z"/><path class="s2d6-image4_9" d="M620.7,221.43l-2-1.9a.14.14,0,0,0-.2.2l2,1.9c.14.12.34-.08.2-.2Z"/><path class="s2d6-image4_35" d="M623.56,221.39l-2-1.82c-.14-.12-.34.08-.2.21l2.05,1.81c.13.12.33-.08.2-.2Z"/><line class="s2d6-image4_40" x1="559.71" y1="173.49" x2="559.71" y2="173.49"/><line class="s2d6-image4_41" x1="565.27" y1="173.49" x2="645.85" y2="173.49"/><line class="s2d6-image4_40" x1="648.63" y1="173.49" x2="648.63" y2="173.49"/><ellipse class="s2d6-image4_13" cx="659.02" cy="276.14" rx="1.62" ry="1.61"/><ellipse class="s2d6-image4_13" cx="632.91" cy="228.07" rx="1.62" ry="1.61"/><ellipse class="s2d6-image4_13" cx="576.98" cy="228.07" rx="1.62" ry="1.61"/><ellipse class="s2d6-image4_35" cx="576.41" cy="200.3" rx="1.62" ry="1.61"/><ellipse class="s2d6-image4_35" cx="632.91" cy="200.3" rx="1.62" ry="1.61"/><ellipse class="s2d6-image4_34" cx="576.98" cy="216.88" rx="1.01" ry="1.01"/><ellipse class="s2d6-image4_34" cx="632.91" cy="216.88" rx="1.01" ry="1.01"/><ellipse class="s2d6-image4_35" cx="649.49" cy="228.04" rx="1.01" ry="1.01"/><ellipse class="s2d6-image4_35" cx="559.52" cy="228.04" rx="1.01" ry="1.01"/><ellipse class="s2d6-image4_35" cx="659.02" cy="268.67" rx="0.88" ry="0.88"/><ellipse class="s2d6-image4_13" cx="551.11" cy="276.14" rx="1.62" ry="1.61"/><ellipse class="s2d6-image4_34" cx="554.23" cy="267.33" rx="0.88" ry="0.88"/><rect class="s2d6-image4_35" x="584.74" y="312.18" width="41.43" height="2.38"/><polygon class="s2d6-image4_35" points="622.04 164.82 622.1 155.7 622.3 155.7 622.36 164.82 622.04 164.82"/><polygon class="s2d6-image4_35" points="615.26 164.82 615.37 151.47 615.79 151.47 615.9 164.82 615.26 164.82"/><polygon class="s2d6-image4_35" points="615.42 145.9 615.48 134.91 615.68 134.91 615.74 145.9 615.42 145.9"/><polygon class="s2d6-image4_35" points="587.8 164.82 587.86 155.7 588.07 155.7 588.13 164.82 587.8 164.82"/><polygon class="s2d6-image4_35" points="594.26 164.82 594.38 151.47 594.79 151.47 594.91 164.82 594.26 164.82"/><polygon class="s2d6-image4_35" points="594.43 145.9 594.48 134.91 594.69 134.91 594.75 145.9 594.43 145.9"/><path class="s2d6-image4_33" d="M586.18,331.17a12.37,12.37,0,0,0,4,.5c11.22.23,22.47.28,33.69.08,1.87,0,4.15-.19,4.77-.93.36-.42-18-.65-19.13-.66-7.6,0-15.21.07-22.77.44a1.7,1.7,0,0,0-.88.18C585.7,330.91,585.92,331.07,586.18,331.17Zm16.56-.17h0Zm-7.61.16-2.25-.08A15.34,15.34,0,0,1,595.13,331.16Z"/><path class="s2d6-image4_33" d="M640.1,338.43c3.53-.05,7.84-.29,9-1.37.67-.63-34-1-36.19-1-7,0-14,0-20.95.1-1.21,0-2.16.53-2.16,1.16h0c0,.64,1,1.16,2.17,1.17Q616,338.74,640.1,338.43Zm-17.76-.76a52,52,0,0,1-7,0Zm-10.91-.19-14.79-.06C601.57,337.24,606.52,337.26,611.43,337.48Z"/><path class="s2d6-image4_33" d="M568.81,337.57a30.35,30.35,0,0,0,7.55.74l3.52.05c1,0,1.91-.43,1.91-1h0c0-.56-.89-1-1.95-1-3.33.08-6.66.19-10,.31a4.3,4.3,0,0,0-1.67.27C567.9,337.19,568.32,337.42,568.81,337.57Z"/><path class="s2d6-image4_33" d="M536.63,344.24a98.22,98.22,0,0,0,13.76.73q58,.52,116.14.13c6.43-.05,14.29-.29,16.43-1.38,1.24-.62-62-1-65.93-1-26.2,0-52.45.1-78.49.64a13.81,13.81,0,0,0-3,.27C535,343.86,535.75,344.09,536.63,344.24Zm74.49,0a127.67,127.67,0,0,1,15.66.12l-15.66-.12c-2.69.06-5.38.08-8-.06Z"/><path class="s2d6-image4_33" d="M592.88,331.08l2.25.08A15.34,15.34,0,0,0,592.88,331.08Z"/><path class="s2d6-image4_33" d="M596.64,337.42l14.79.06C606.52,337.26,601.57,337.24,596.64,337.42Z"/><path class="s2d6-image4_33" d="M622.34,337.67l-7,0A52,52,0,0,0,622.34,337.67Z"/><path class="s2d6-image4_33" d="M611.12,344.22l15.66.12A127.67,127.67,0,0,0,611.12,344.22Z"/><path class="s2d6-image4_33" d="M611.12,344.22l-8-.06C605.74,344.3,608.43,344.28,611.12,344.22Z"/><path class="s2d6-image4_33" d="M615,350.5c-40.51,0-81.09.1-121.35.64a32.81,32.81,0,0,0-4.7.27c-.8.2.39.43,1.75.58,5.44.61,13.71.69,21.27.73q69.78.4,139.68.27c1.22,0,2.21-.53,2.21-1.17h0c0-.64-1-1.16-2.2-1.17C633.17,350.55,617.34,350.5,615,350.5ZM611.18,352h-.12c-2.67.06-5.34.08-8-.06l8,.06h.14a124.59,124.59,0,0,1,15.59.12Zm31.47-.09h-.28a80.87,80.87,0,0,1-10.34-.21l10.34.21h.28Z"/><path class="s2d6-image4_33" d="M661.92,351.84h0c0,.62,1,1.12,2.14,1.12l27.51-.11c9.95-.05,22.09-.29,25.4-1.38,1-.33-26.27-.58-52.9-.75C662.89,350.72,661.92,351.22,661.92,351.84Z"/><path class="s2d6-image4_33" d="M611.12,352l-8-.06C605.74,352.05,608.43,352,611.12,352Z"/><path class="s2d6-image4_33" d="M611.12,352l15.66.12A127.67,127.67,0,0,0,611.12,352Z"/><path class="s2d6-image4_33" d="M642,351.9Z"/><path class="s2d6-image4_33" d="M642.58,351.89h0Z"/><path class="s2d6-image4_33" d="M642.37,351.89,632,351.68A80.87,80.87,0,0,0,642.37,351.89Z"/><path class="s2d6-image4_33" d="M642.73,351.88h0Z"/><path class="s2d6-image4_33" d="M642.25,351.89h0Z"/></g><text class="s2d6-image4_42" transform="matrix(0.98, -0.22, 0.22, 0.98, 571.7, 370.67)">A</text><text class="s2d6-image4_42" transform="matrix(1, -0.05, 0.05, 1, 590.77, 366.48)">k</text><text class="s2d6-image4_42" transform="matrix(1, 0.08, -0.08, 1, 608.84, 365.66)">u</text><text class="s2d6-image4_42" transform="matrix(0.99, 0.17, -0.17, 0.99, 625.28, 367.14)"> </text><text class="s2d6-image4_42" transform="matrix(0.97, 0.25, -0.25, 0.97, 635.47, 368.81)">p</text><text class="s2d6-image4_42" transform="matrix(0.94, 0.33, -0.33, 0.94, 649.8, 372.48)">e</text><text class="s2d6-image4_42" transform="matrix(0.92, 0.4, -0.4, 0.92, 663.47, 377.21)">r</text><text class="s2d6-image4_42" transform="matrix(0.88, 0.47, -0.47, 0.88, 677.5, 383.27)">g</text><text class="s2d6-image4_42" transform="matrix(0.86, 0.52, -0.52, 0.86, 692.63, 391.47)">i</text><text class="s2d6-image4_43" transform="matrix(1, -0.03, 0.03, 1, 605.06, 402.44)">a</text><text class="s2d6-image4_43" transform="matrix(1, 0.05, -0.05, 1, 620.63, 402.06)">y</text><text class="s2d6-image4_43" transform="matrix(0.99, 0.12, -0.12, 0.99, 631.32, 402.45)">a</text><text class="s2d6-image4_43" transform="matrix(0.98, 0.2, -0.2, 0.98, 647.64, 404.4)">h</text><text class="s2d6-image4_43" transform="matrix(0.97, 0.25, -0.25, 0.97, 663.91, 407.81)">!</text></svg>
