<svg id="Layer_1" data-name="Layer 1" xmlns="http://www.w3.org/2000/svg" xmlns:xlink="http://www.w3.org/1999/xlink" width="330" height="330" viewBox="0 0 778.62 1049.95"><defs><style>.s2d-b2d4-2_1,.s2d-b2d4-2_12,.s2d-b2d4-2_13,.s2d-b2d4-2_15,.s2d-b2d4-2_16,.s2d-b2d4-2_18,.s2d-b2d4-2_19,.s2d-b2d4-2_21,.s2d-b2d4-2_22,.s2d-b2d4-2_23,.s2d-b2d4-2_25,.s2d-b2d4-2_28{fill:none;}.s2d-b2d4-2_2{fill:#357d74;}.s2d-b2d4-2_3{fill:#daa534;}.s2d-b2d4-2_4{clip-path:url(#s2d-b2d4-cp2);}.s2d-b2d4-2_5{fill:url(#s2d-b2d4-lg2);}.s2d-b2d4-2_6{fill:url(#s2d-b2d4-lg2_2);}.s2d-b2d4-2_7{fill:url(#s2d-b2d4-lg2_3);}.s2d-b2d4-2_8{fill:url(#s2d-b2d4-lg2_4);}.s2d-b2d4-2_9{fill:#c97475;}.s2d-b2d4-2_10{fill:#2f4862;}.s2d-b2d4-2_11,.s2d-b2d4-2_30,.s2d-b2d4-2_31,.s2d-b2d4-2_32,.s2d-b2d4-2_33{fill:#fff;}.s2d-b2d4-2_12,.s2d-b2d4-2_13,.s2d-b2d4-2_21,.s2d-b2d4-2_25{stroke:#dba634;}.s2d-b2d4-2_12,.s2d-b2d4-2_13,.s2d-b2d4-2_25{stroke-linecap:round;stroke-linejoin:round;stroke-width:2.98px;}.s2d-b2d4-2_13{stroke-dasharray:0 9.28;}.s2d-b2d4-2_14{fill:#dba634;}.s2d-b2d4-2_15,.s2d-b2d4-2_16,.s2d-b2d4-2_24{stroke:#5d9e9a;}.s2d-b2d4-2_15,.s2d-b2d4-2_16,.s2d-b2d4-2_18,.s2d-b2d4-2_19,.s2d-b2d4-2_21,.s2d-b2d4-2_22,.s2d-b2d4-2_23,.s2d-b2d4-2_24,.s2d-b2d4-2_28{stroke-miterlimit:10;}.s2d-b2d4-2_15{stroke-width:1.18px;}.s2d-b2d4-2_16{stroke-width:1.18px;}.s2d-b2d4-2_17{fill:#919a51;}.s2d-b2d4-2_18,.s2d-b2d4-2_22,.s2d-b2d4-2_28{stroke:#2f4862;}.s2d-b2d4-2_18{stroke-width:1.92px;}.s2d-b2d4-2_19{stroke:#fff;stroke-width:1.08px;}.s2d-b2d4-2_20,.s2d-b2d4-2_24{fill:#5d9e9a;}.s2d-b2d4-2_21,.s2d-b2d4-2_22{stroke-width:3.75px;}.s2d-b2d4-2_23{stroke:#c97475;}.s2d-b2d4-2_23,.s2d-b2d4-2_24{stroke-width:1.25px;}.s2d-b2d4-2_25{stroke-dasharray:0 9.28;}.s2d-b2d4-2_26{clip-path:url(#s2d-b2d4-cp2_2);}.s2d-b2d4-2_27{clip-path:url(#s2d-b2d4-cp2_3);}.s2d-b2d4-2_28{stroke-width:2.86px;}.s2d-b2d4-2_29{fill:#2e5f5a;}.s2d-b2d4-2_30{font-size:50.33px;}.s2d-b2d4-2_30,.s2d-b2d4-2_31,.s2d-b2d4-2_32,.s2d-b2d4-2_33{font-family:PermanentMarker;}.s2d-b2d4-2_31{font-size:37.3px;}.s2d-b2d4-2_32{font-size:22.38px;}.s2d-b2d4-2_33{font-size:22.38px;}</style><clipPath id="s2d-b2d4-cp2"><path class="s2d-b2d4-2_1" d="M502.28,146.19c-37,0-37-3.56-73.95-3.56s-37,.12-73.94.12-37-.24-73.95-.24-37,1.66-73.95,1.66-37,1.36-74,1.36c-21.12,0-42.45,15.94-42.45,36.2,0,41.77,2.4,41.77,2.4,83.54S89.83,307,89.83,348.82s4.3,41.77,4.3,83.55-1.19,41.77-1.19,83.55c0,26.86,24,47,52.05,47,35.73,0,35.73,4.3,71.45,4.3s35.73-3.88,71.46-3.88,35.73,4,71.46,4S395.09,562,430.82,562s35.73-1.58,71.46-1.58c28.49,0,55.45-18.07,55.45-45.4,0-40.06-6-40.06-6-80.13s2.39-40.06,2.39-80.13-.71-40.07-.71-80.14-3.28-40.07-3.28-80.13C550.18,167.2,530.77,146.19,502.28,146.19Z"/></clipPath><linearGradient id="s2d-b2d4-lg2" x1="3764.65" y1="412.26" x2="3765.31" y2="296.85" gradientTransform="matrix(-1, 0, 0, 1, 3949.01, 0)" gradientUnits="userSpaceOnUse"><stop offset="0.23" stop-color="#b66f1e" stop-opacity="0"/><stop offset="1" stop-color="#b66f1e" stop-opacity="0.8"/></linearGradient><linearGradient id="s2d-b2d4-lg2_2" x1="3575.71" y1="523.25" x2="3576.37" y2="407.83" xlink:href="#s2d-b2d4-lg2"/><linearGradient id="s2d-b2d4-lg2_3" x1="3577.62" y1="333.43" x2="3578.04" y2="260.68" xlink:href="#s2d-b2d4-lg2"/><linearGradient id="s2d-b2d4-lg2_4" x1="3726.47" y1="247.02" x2="3726.77" y2="194.32" xlink:href="#s2d-b2d4-lg2"/><clipPath id="s2d-b2d4-cp2_2"><path class="s2d-b2d4-2_1" d="M483.17,875.66c-58.93-31.57-87.67-7.18-168.41-37.08,40.75-15.43,73.57-1,73.57-1,6.78-4,8.24-13.06,8.07-20.91s-1.09-16.37,3.23-22.93c3.31-5,9-7.79,14.49-10.34-20.53-5.77-42.48-2.59-63.22,2.39s-41.22,11.75-62.5,13.15c-19.62,1.3-48.63-1.13-55.57-15.09-10-13.6-16.43-27.5-26.3-41.58-31.16-44.47-114.85-50.12-114.85-50.12C88.87,699,81.4,708.2,81.4,708.2s30.11-3.81,75.07,18.74,36.2,72,75.69,118.59S336.86,886,363.48,887.64s39.18,13.93,59.92,41,52.18-2.12,52.18-2.12a145.67,145.67,0,0,1,55.62-25.08C506.07,892.88,483.17,875.66,483.17,875.66Z"/></clipPath><clipPath id="s2d-b2d4-cp2_3"><path class="s2d-b2d4-2_1" d="M42.56,744.49C32.43,760.93,23.78,779,8.76,791.14c-23.1,18.66-59.6,18-82-1.42C-82.13,782-88.79,772-98,764.82a54.09,54.09,0,0,0-36.59-11.14c12.91-4.57,27.82-3.14,39.57-10.16,6.5-3.89,11.34-10,17.19-14.82s13.72-8.46,20.9-6c5.44,1.84,9.2,6.71,13.95,9.94,8.46,5.76,19.42,6,29.65,5.49,6.91-.33,13.89-.9,20.47-3,17.75-5.79,29.87-21.93,45.66-31.89,11.93-7.54,28.85-13.25,43.07-10.87-7.61,10.48-4,9.09-14.43,15.9C69.9,715.71,49.68,732.94,42.56,744.49Z"/></clipPath></defs><title>10</title><path class="s2d-b2d4-2_3" d="M502.28,146.19c-37,0-37-3.56-73.95-3.56s-37,.12-73.94.12-37-.24-73.95-.24-37,1.66-73.95,1.66-37,1.36-74,1.36c-21.12,0-42.45,15.94-42.45,36.2,0,41.77,2.4,41.77,2.4,83.54S89.83,307,89.83,348.82s4.3,41.77,4.3,83.55-1.19,41.77-1.19,83.55c0,26.86,24,47,52.05,47,35.73,0,35.73,4.3,71.45,4.3s35.73-3.88,71.46-3.88,35.73,4,71.46,4S395.09,562,430.82,562s35.73-1.58,71.46-1.58c28.49,0,55.45-18.07,55.45-45.4,0-40.06-6-40.06-6-80.13s2.39-40.06,2.39-80.13-.71-40.07-.71-80.14-3.28-40.07-3.28-80.13C550.18,167.2,530.77,146.19,502.28,146.19Z"/><g class="s2d-b2d4-2_4"><path class="s2d-b2d4-2_5" d="M52.49,379.12l0,0c.14-.25.3-.49.46-.72l0-.05c.16-.22.33-.43.51-.64l.07-.08c.17-.19.35-.38.53-.55l.13-.12.53-.47.19-.13a5.17,5.17,0,0,1,.53-.39l.25-.15c.17-.1.34-.21.51-.3l.33-.16.49-.23.4-.14.46-.17.49-.12a2.92,2.92,0,0,1,.4-.1l.62-.1.31,0a7.78,7.78,0,0,1,1-.05,9.48,9.48,0,0,1,4.28,1,15.93,15.93,0,0,1,1-1.26,14.28,14.28,0,0,1,8.73-4.46,13.91,13.91,0,0,1,4.62.19l.92.22a14.34,14.34,0,0,1,14-11.38,14.17,14.17,0,0,1,6.52,1.58,23.23,23.23,0,0,1-.56-3.75c0-.48,0-1,0-1.45a22.82,22.82,0,0,1,29.23-21.94,22.25,22.25,0,0,1,.89-4.11,22.82,22.82,0,0,1,37.35-9.82c.27.25.54.51.79.78a35,35,0,0,1,7-5.07,34,34,0,0,1,41.14,6.75c.62.67,1.21,1.36,1.78,2.08a33.65,33.65,0,0,1,3.05,4.57,34.43,34.43,0,0,1,3.14,7.73,23.4,23.4,0,0,1,2.38-.13,22.86,22.86,0,0,1,20.54,12.88A14.25,14.25,0,0,1,262,351.46q.47.42.9.87a14.3,14.3,0,0,1,3.85,7.89,14.33,14.33,0,0,1,21,8.2c.12.39.22.79.31,1.2a14.21,14.21,0,0,1,15.32,5.3,9.54,9.54,0,1,1,0,17,14.32,14.32,0,0,1-19.66,3.3,14.32,14.32,0,0,1-22.27,4.21,14.33,14.33,0,0,1-24.59,1.65,14.27,14.27,0,0,1-17.53-3.95A14.32,14.32,0,0,1,200,408.1,34.06,34.06,0,0,1,146.7,400a14.3,14.3,0,0,1-8.87,3.08,14.14,14.14,0,0,1-6.3-1.47,14.34,14.34,0,0,1-24.6-1.65,14.32,14.32,0,0,1-22.27-4.21A14.31,14.31,0,0,1,65,392.45a9.53,9.53,0,0,1-12.52-13.33Z"/><path class="s2d-b2d4-2_6" d="M241.44,490.11v0c.15-.24.3-.48.47-.71a.21.21,0,0,1,0-.06,7.68,7.68,0,0,1,.5-.63l.08-.09c.17-.19.34-.37.52-.55l.13-.12c.17-.16.35-.31.53-.46l.19-.14.53-.38.25-.16.52-.3.32-.15.49-.23c.13-.06.27-.1.41-.15l.45-.16.49-.13.41-.1c.2,0,.41-.06.61-.09l.32-.05c.31,0,.63-.05,1-.05a9.48,9.48,0,0,1,4.28,1,16.08,16.08,0,0,1,1.05-1.27,14.36,14.36,0,0,1,8.73-4.46,14.55,14.55,0,0,1,1.75-.1,13.5,13.5,0,0,1,2.87.3c.31.06.62.14.92.22a14.33,14.33,0,0,1,20.57-9.81,23.07,23.07,0,0,1-.57-3.75c0-.48,0-1,0-1.45a22.82,22.82,0,0,1,29.23-21.94,22.43,22.43,0,0,1,.89-4.11,22.83,22.83,0,0,1,37.35-9.82l.8.78a34.5,34.5,0,0,1,7-5.06,34,34,0,0,1,41.14,6.75c.62.66,1.22,1.36,1.78,2.07a35,35,0,0,1,3.06,4.57,34.32,34.32,0,0,1,3.13,7.73,23.61,23.61,0,0,1,2.39-.12,22.68,22.68,0,0,1,14.79,5.45,23.07,23.07,0,0,1,5.75,7.42,14.27,14.27,0,0,1,14.38,2.65,12.37,12.37,0,0,1,.91.87,14.36,14.36,0,0,1,3.85,7.89,14.3,14.3,0,0,1,21,8.19c.12.4.23.8.31,1.2a14.26,14.26,0,0,1,15.32,5.31,9.55,9.55,0,1,1,0,17,14.34,14.34,0,0,1-19.66,3.31,14.3,14.3,0,0,1-22.26,4.2,14.33,14.33,0,0,1-24.6,1.66,14.3,14.3,0,0,1-17.53-4A14.29,14.29,0,0,1,389,519.08a34.06,34.06,0,0,1-53.34-8.1,14.26,14.26,0,0,1-15.17,1.62,14.33,14.33,0,0,1-24.59-1.66,14.31,14.31,0,0,1-22.27-4.21,14.32,14.32,0,0,1-19.66-3.3,9.52,9.52,0,0,1-12.51-13.32Z"/><path class="s2d-b2d4-2_7" d="M288.26,312.54v0c.09-.15.19-.3.29-.45l0,0c.1-.14.21-.27.32-.4l0-.06a3.51,3.51,0,0,1,.33-.34.6.6,0,0,1,.08-.08l.33-.29.12-.09.34-.24.15-.09a2.79,2.79,0,0,1,.33-.19l.2-.1.31-.15.26-.09.28-.1.31-.08.26-.07.39-.05a1.2,1.2,0,0,1,.2,0,5.88,5.88,0,0,1,.6,0,6,6,0,0,1,2.7.64,10.13,10.13,0,0,1,.67-.8,9,9,0,0,1,5.5-2.81,10,10,0,0,1,1.1-.06,8.36,8.36,0,0,1,1.81.19c.19,0,.39.08.58.14a9,9,0,0,1,13-6.19,14,14,0,0,1-.35-2.36c0-.3,0-.61,0-.92a14.39,14.39,0,0,1,18.43-13.82,13.7,13.7,0,0,1,.56-2.59,14.39,14.39,0,0,1,23.54-6.2l.51.5a21.56,21.56,0,0,1,14.64-5.8,21.37,21.37,0,0,1,15.72,6.86c.39.42.77.86,1.13,1.31a22.53,22.53,0,0,1,1.92,2.88,21.61,21.61,0,0,1,2,4.87,15.11,15.11,0,0,1,1.51-.08,14.36,14.36,0,0,1,9.33,3.44,14.69,14.69,0,0,1,3.62,4.68,9,9,0,0,1,3.12-.57A8.27,8.27,0,0,1,416,293a8.91,8.91,0,0,1,4.28,2.08,7.27,7.27,0,0,1,.57.54,9,9,0,0,1,2.43,5,8.92,8.92,0,0,1,4.58-1.26,9.06,9.06,0,0,1,8.66,6.42c.07.25.14.5.19.76a9,9,0,0,1,2.39-.33,9,9,0,0,1,7.27,3.67,5.94,5.94,0,0,1,2.7-.64,6,6,0,0,1,0,12,5.94,5.94,0,0,1-2.7-.65,9,9,0,0,1-7.27,3.68,8.94,8.94,0,0,1-5.12-1.6,9,9,0,0,1-14,2.65,9,9,0,0,1-15.5,1.05,9,9,0,0,1-11.05-2.5,9,9,0,0,1-8.91,7.51,8.78,8.78,0,0,1-3.25-.62,21.48,21.48,0,0,1-33.63-5.1,9,9,0,0,1-5.59,1.94,9.12,9.12,0,0,1-4-.92,9,9,0,0,1-15.5-1.05,9,9,0,0,1-14-2.65,9,9,0,0,1-12.39-2.08,6,6,0,0,1-7.89-8.4Z"/><path class="s2d-b2d4-2_8" d="M162.33,231.88h0l.21-.32,0,0a3.25,3.25,0,0,1,.23-.29l0,0a2.77,2.77,0,0,1,.24-.25s0,0,0-.05a1.64,1.64,0,0,1,.25-.21.27.27,0,0,1,.08-.07l.24-.17.12-.07.23-.14.15-.07.23-.11.18-.06.21-.08.22,0,.19-.05.28,0,.14,0a3.25,3.25,0,0,1,.44,0,4.29,4.29,0,0,1,2,.47c.15-.2.31-.39.48-.58a6.55,6.55,0,0,1,4-2,7,7,0,0,1,.8-.05,6.26,6.26,0,0,1,1.31.14l.42.1a6.55,6.55,0,0,1,9.39-4.48,10.86,10.86,0,0,1-.26-1.71c0-.22,0-.44,0-.67a10.41,10.41,0,0,1,13.34-10,10.66,10.66,0,0,1,.41-1.88,10.41,10.41,0,0,1,17-4.48c.13.12.25.23.37.36a15.73,15.73,0,0,1,3.21-2.32,15.52,15.52,0,0,1,18.78,3.08c.28.31.55.63.81,1a16.21,16.21,0,0,1,1.4,2.09,15.83,15.83,0,0,1,1.43,3.53,9.82,9.82,0,0,1,1.09-.06,10.42,10.42,0,0,1,9.37,5.88,6.57,6.57,0,0,1,2.27-.41,6.78,6.78,0,0,1,1.2.11,6.45,6.45,0,0,1,3.1,1.51l.42.39a6.61,6.61,0,0,1,1.75,3.6,6.56,6.56,0,0,1,9.59,3.75c.05.18.1.36.14.54a6.55,6.55,0,0,1,7,2.43,4.29,4.29,0,0,1,2-.47,4.36,4.36,0,1,1,0,8.71,4.42,4.42,0,0,1-2-.46,6.52,6.52,0,0,1-9,1.5,6.54,6.54,0,0,1-10.17,1.92,6.55,6.55,0,0,1-11.23.76,6.45,6.45,0,0,1-2.87.67,6.54,6.54,0,0,1-5.13-2.48,6.55,6.55,0,0,1-6.45,5.44,6.43,6.43,0,0,1-2.36-.45,15.54,15.54,0,0,1-24.35-3.69,6.56,6.56,0,0,1-4.05,1.4,6.45,6.45,0,0,1-2.87-.67,6.54,6.54,0,0,1-11.23-.75A6.54,6.54,0,0,1,177,239.48a6.54,6.54,0,0,1-9-1.51,4.43,4.43,0,0,1-2,.47,4.36,4.36,0,0,1-4.35-4.36A4.44,4.44,0,0,1,162.33,231.88Z"/><path class="s2d-b2d4-2_9" d="M365,364.82l.27,66.33c0,6.18,9.63,6.19,9.61,0l-.27-66.33c0-6.18-9.63-6.2-9.61,0Z"/><path class="s2d-b2d4-2_10" d="M269.76,245.49c-11.41,3.85-21.47,10.82-31.35,17.7-7.48,5.2-24.93,23.48-28.19,29.22-5.57,9.8-14.47,24.32-18.2,35C185.58,345.79,182,365.31,173,382.62s-25.15,32.72-44.64,33.56c1.56,15.59,3.78,32.58,15.09,43.43,5.08,4.87,11.59,8,18.27,10.26a86,86,0,0,0,43.77,2.79,31.83,31.83,0,0,0,10.3-3.56c3.55-2.14,6.32-5.36,8.77-8.71,11.76-16,17.33-35.66,22.63-54.82,2.06-7.47,4.13-15,4.6-22.74.68-11.28-2.07-22.46-3-33.72-2.44-28.9,7.08-57.78,21.49-83a72.77,72.77,0,0,1,10-14.13c3.22-3.38,9.92-6,11.84-10.05C285.42,240.65,276.2,243.31,269.76,245.49Z"/><path class="s2d-b2d4-2_11" d="M596.83,519.84,477.52,611.62a15.54,15.54,0,0,1-17.49,1c-29.9-18-124.56-75-146-88-13.23-8-29.3-11.29-41.75-12.62h0a145.07,145.07,0,0,0-18.14-.83L205.2,509c-35.89-1-48.3,52.34-48.3,52.34l-2.21,27c-3.39,6.52-1.24,14.82,3.31,20.59s11.1,9.56,17.47,13.22c12.05,6.9,24.37,13.91,38,16.65,12.47,2.5,25.36,1.28,38-.55,15.4-2.25-31.28-55.12-16.24-59.17,10.64-2.86,14.06,3.41,17.19-7.16,2.21-7.51,69.62,23.25,66.51,16.07l-.11-.28,134.09,74.12a30.61,30.61,0,0,0,36-4.69l122-117Z"/><line class="s2d-b2d4-2_12" x1="363.45" y1="558.42" x2="363.45" y2="558.42"/><path class="s2d-b2d4-2_13" d="M355.5,563.14c-10.71,8.45-13.88,21.24-14.83,28"/><line class="s2d-b2d4-2_12" x1="340.28" y1="595.79" x2="340.28" y2="595.79"/><path class="s2d-b2d4-2_14" d="M352.37,605.92c0-1.17,1.94-31.82,26.91-42.61l-7.54-4.21c-23.12,11.38-26.42,35.11-26.87,43"/><circle class="s2d-b2d4-2_10" cx="295.84" cy="304.98" r="63.94" transform="translate(-129 298.52) rotate(-45)"/><path class="s2d-b2d4-2_11" d="M596.48,523,462.94,592.48a15.55,15.55,0,0,1-17.4-2.08C419.25,567.45,336,494.77,317.16,478.24,305.54,468.06,290.3,462,278.27,458.5h0a145.16,145.16,0,0,0-17.71-4l-47.75-10.78c-35.17-7.27-56.73,43.07-56.73,43.07L149.18,513c-4.48,5.83-3.81,14.37-.34,20.85s9.24,11.36,14.88,16.08c10.65,8.91,21.55,18,34.48,23,11.83,4.65,24.74,5.71,37.45,6.11a395.08,395.08,0,0,0,46.67-1.29c11-1,23.67-3.53,28.6-13.39,3.49-7,1.76-15.37,0-23l-.07-.29,119,96.46a30.58,30.58,0,0,0,36.22,1.68l140.6-93.77Z"/><path class="s2d-b2d4-2_11" d="M594.65,521.74c3.06-1.85,2.13-6.52,2.87-10s6-4.81,6.07-8.39c.2-6.8,3.06-19,5.88-27.89a1.86,1.86,0,0,1,3.61.28,253.78,253.78,0,0,1,3,44.65,73.58,73.58,0,0,1-1.7,13.3c-1,4.84-1.64,8.45-11.1,13.86"/><path class="s2d-b2d4-2_11" d="M360.29,289.07l17.19,38S396.59,427.93,331.36,450c-50.78,17.16-88-44.18-88-44.18s-10.63-19.4-15.39-30.27a48.8,48.8,0,0,1-2.46-7l-4.39-16.62,1.3-17.17,13-9,13.91-7.16,23.73-17Z"/><path class="s2d-b2d4-2_10" d="M377,318.37s-10.22-64.67-72.43-76.74l-42,45.5s-13,19.78-13,21.21,10.38,7.16,10.38,7.16l24.71-9.31,33.62-7.49,19.61,13.67,9.07,8.86Z"/><path class="s2d-b2d4-2_15" d="M257.83,271.58a29.7,29.7,0,0,0-6.13,7.9"/><path class="s2d-b2d4-2_15" d="M337.56,311.92c0-27.21-29-46.2-42.41-49.89-5.25-1.44-10.77-2.33-16.14-1.44a35.23,35.23,0,0,0-8.25,2.51"/><path class="s2d-b2d4-2_16" d="M317.19,300.17c-12.83-19.27-28.86-23.53-36.71-23.11-9,.49-23,7.32-30.52,20.42"/><path class="s2d-b2d4-2_15" d="M354.75,316.22c4.3-15.76-9.1-34.2-11.46-37.24-10-12.92-23.94-21.36-39.49-26.41"/><polygon class="s2d-b2d4-2_11" points="266.68 419.45 247.41 467.47 224.65 452.45 239.72 389.04 266.68 419.45"/><path class="s2d-b2d4-2_17" d="M319.86,572.68c-1-11.43-2.34-23.69-9.92-32.3L285,526a301.08,301.08,0,0,0-29.3-14.8A7.88,7.88,0,0,1,252,500.12c8-14.19,20.5-32.25,35.31-38.69l-9-2.93s-18.5,5.05-40.38,45.57A299.51,299.51,0,0,0,199.69,493a8.11,8.11,0,0,1-5.26-12c8.15-14,19.28-29,31.8-34.26l-11-2.48s-15.72,6.35-37,44.88c-7.35-1-14.75-1.86-22.19-2.36h0c-5.58,11.26-17.66,36.42-23.6,52.32-23.73,63.6-26.16,127.39-44,159.41l126.64,57.09-.65-2.12c-8-26.2-3-54.84,14.09-76.26a187.91,187.91,0,0,1,13-14.48c18.5-18.76,40.84-33.18,62.33-48.44,4.29-3,8.64-6.22,11.63-10.56C321.54,595,320.82,583.32,319.86,572.68Z"/><path class="s2d-b2d4-2_18" d="M336.11,409.79A43.14,43.14,0,0,0,357,408.42a5.18,5.18,0,0,0,3.33-3.09c1-2.64-1-4.44-2.72-6a35,35,0,0,1-8.33-11.25c-.27-.61-.52-1.24-.77-1.88a45.11,45.11,0,0,1,.12-30.93h0a21,21,0,0,1,15.83-13.56l10.59-2"/><path class="s2d-b2d4-2_10" d="M324.08,369.62a44.68,44.68,0,0,0-6.46-7.61,41.21,41.21,0,0,0-8-5.94,30.73,30.73,0,0,0-9.1-3.47,28.67,28.67,0,0,0-9.6-.32l-.55-4.83a33.4,33.4,0,0,1,11.14.81,35.15,35.15,0,0,1,10.17,4.33,44.11,44.11,0,0,1,8.46,6.83,47.49,47.49,0,0,1,6.69,8.55Z"/><path class="s2d-b2d4-2_10" d="M374.35,359.58l-2.81.37c-.91.2-1.83.39-2.74.61a22.94,22.94,0,0,0-5.09,2.07,15.17,15.17,0,0,0-4.14,3.35,11.72,11.72,0,0,0-1.48,2.17,9.52,9.52,0,0,0-.55,1.17,8.68,8.68,0,0,0-.34,1.1L354,370c.06-.41.12-.65.19-.95s.16-.56.25-.84a12.68,12.68,0,0,1,.63-1.58,15.47,15.47,0,0,1,1.76-2.86,18.93,18.93,0,0,1,4.92-4.41,26.53,26.53,0,0,1,5.88-2.72c1-.31,2.06-.58,3.09-.85l3.11-.57Z"/><circle class="s2d-b2d4-2_14" cx="288.7" cy="393.5" r="18.68"/><path class="s2d-b2d4-2_19" d="M263,342.86s-15.51-19.68-29.81-10.8,4.49,33.5,10.26,38.16"/><path class="s2d-b2d4-2_20" d="M42.56,744.49C32.43,760.93,23.78,779,8.76,791.14c-23.1,18.66-59.6,18-82-1.42C-82.13,782-88.79,772-98,764.82a54.09,54.09,0,0,0-36.59-11.14c12.91-4.57,27.82-3.14,39.57-10.16,6.5-3.89,11.34-10,17.19-14.82s13.72-8.46,20.9-6c5.44,1.84,9.2,6.71,13.95,9.94,8.46,5.76,19.42,6,29.65,5.49,6.91-.33,13.89-.9,20.47-3,17.75-5.79,29.87-21.93,45.66-31.89,11.93-7.54,28.85-13.25,43.07-10.87-7.61,10.48-4,9.09-14.43,15.9C69.9,715.71,49.68,732.94,42.56,744.49Z"/><path class="s2d-b2d4-2_14" d="M264.07,321.15s49.42-33.84,82.4,6.43c0,0,8.45-15.1,31-.5l-1-9.93s-14.41-11.68-28.74-3.6c0,0-32.86-34.91-88.84-1.86Z"/><path class="s2d-b2d4-2_11" d="M179.22,945.41s-105.45-23-142.3-40.53C14,894-2.32,893.47-7.1,917.38s.27,28.86-.64,62.14c-1.36,49.33-15.6,47.7-6.3,64,3.27,5.74,14,7.84,20.74,8.91,0,0,36.66,3.1,30.81-11a10.81,10.81,0,0,0-9-6.42c-7.07-.75-16.73-1.47-16.61-11.74.17-14.22,8.72-69.73,23.27-65,22.53,7.41,154,36.27,154,36.27l-24.31-28.4Z"/><path class="s2d-b2d4-2_10" d="M206.53,742.23c-1,29.82,53.25,81.14,86.15,107.6S440,970.55,460.46,995.76s9.69,48.3,7.35,58.17-27.22,13.21-27.22,13.21c-36.23,4.24-151.71-4.47-202.94-9.11-80-7.25-145,5.66-145,5.66s43.1-82.5,34.84-130.55c-1.34-7.85-27.85-22.37-27.85-22.37C50.78,890,31.3,846.7,31.3,846.7c-17.5-38.76,19.88-97.2,19.88-97.2l37.3-51Z"/><path class="s2d-b2d4-2_20" d="M483.17,875.66c-58.93-31.57-87.67-7.18-168.41-37.08,40.75-15.43,73.57-1,73.57-1,6.78-4,8.24-13.06,8.07-20.91s-1.09-16.37,3.23-22.93c3.31-5,9-7.79,14.49-10.34-20.53-5.77-42.48-2.59-63.22,2.39s-41.22,11.75-62.5,13.15c-19.62,1.3-47,.08-55.57-15.09-10-13.6-16.43-27.5-26.3-41.58-31.16-44.47-114.85-50.12-114.85-50.12C88.87,699,81.4,708.2,81.4,708.2s30.11-3.81,75.07,18.74,36.2,72,75.69,118.59S336.86,886,363.48,887.64s39.18,13.93,59.92,41,52.18-2.12,52.18-2.12a145.67,145.67,0,0,1,55.62-25.08C506.07,892.88,483.17,875.66,483.17,875.66Z"/><path class="s2d-b2d4-2_14" d="M172.84,941.51q30.82,7.29,61.53,15.09c20.46,5.21,40.87,10.62,61.2,16.36s40.58,11.8,60.58,18.68c10,3.47,19.93,7.12,29.64,11.4a128,128,0,0,1,14.26,7.22,41.4,41.4,0,0,1,6.6,4.8,14.3,14.3,0,0,1,2.74,3.33,6.7,6.7,0,0,1,.84,2.23,5,5,0,0,1-.19,2.55l-2.3-.77a3.38,3.38,0,0,0-.48-2.81,12,12,0,0,0-2.29-2.72,38.52,38.52,0,0,0-6.22-4.46,126.06,126.06,0,0,0-14-7c-9.63-4.18-19.53-7.76-29.5-11.16-19.95-6.75-40.2-12.67-60.51-18.31S254,965,233.53,959.92s-41-10-61.54-14.75Z"/><path class="s2d-b2d4-2_21" d="M142.17,936.44c4.5,1,11.8,2.63,21.17,4.77"/><path class="s2d-b2d4-2_10" d="M317.23,841.47a188.89,188.89,0,0,1-18-6.57q-8.79-3.72-17.22-8.23a163.42,163.42,0,0,1-16.29-10l-3.89-2.78c-1.28-.95-2.5-2-3.75-3l-1.87-1.5c-.62-.5-1.2-1.06-1.8-1.58l-3.56-3.2,1.67-1.77,3.53,3.07c.6.5,1.17,1,1.78,1.52l1.86,1.43c1.25.94,2.45,1.93,3.73,2.83l3.86,2.67a161.39,161.39,0,0,0,16.17,9.5q8.35,4.27,17.08,7.79a183.22,183.22,0,0,0,17.69,6.12Z"/><line class="s2d-b2d4-2_22" x1="81.4" y1="708.2" x2="91.68" y2="692.11"/><ellipse class="s2d-b2d4-2_23" cx="164.68" cy="990.22" rx="10.56" ry="2.93" transform="translate(-827.22 1144.45) rotate(-89.4)"/><ellipse class="s2d-b2d4-2_23" cx="164.35" cy="1021.66" rx="10.56" ry="2.93" transform="translate(-858.99 1175.23) rotate(-89.4)"/><ellipse class="s2d-b2d4-2_23" cx="180.24" cy="1006.11" rx="2.93" ry="10.56" transform="translate(-827.72 1175.72) rotate(-89.4)"/><ellipse class="s2d-b2d4-2_23" cx="148.8" cy="1005.78" rx="2.93" ry="10.56" transform="translate(-858.49 1143.96) rotate(-89.4)"/><ellipse class="s2d-b2d4-2_23" cx="347.7" cy="1015.46" rx="10.56" ry="2.93" transform="translate(-671.37 1352.42) rotate(-89.4)"/><ellipse class="s2d-b2d4-2_23" cx="347.36" cy="1046.89" rx="10.56" ry="2.93" transform="matrix(0.01, -1, 1, 0.01, -703.14, 1383.2)"/><ellipse class="s2d-b2d4-2_23" cx="363.25" cy="1031.34" rx="2.93" ry="10.56" transform="translate(-671.87 1383.69) rotate(-89.4)"/><ellipse class="s2d-b2d4-2_23" cx="331.81" cy="1031.01" rx="2.93" ry="10.56" transform="translate(-702.64 1351.93) rotate(-89.4)"/><ellipse class="s2d-b2d4-2_23" cx="161.64" cy="803.12" rx="7.54" ry="2.09" transform="translate(-643.14 956.27) rotate(-89.4)"/><ellipse class="s2d-b2d4-2_23" cx="161.4" cy="825.55" rx="7.54" ry="2.09" transform="translate(-665.81 978.24) rotate(-89.4)"/><ellipse class="s2d-b2d4-2_23" cx="172.74" cy="814.45" rx="2.09" ry="7.54" transform="translate(-643.49 978.59) rotate(-89.4)"/><ellipse class="s2d-b2d4-2_23" cx="150.3" cy="814.22" rx="2.09" ry="7.54" transform="translate(-665.45 955.92) rotate(-89.4)"/><ellipse class="s2d-b2d4-2_23" cx="67.28" cy="819.01" rx="6.48" ry="1.8" transform="matrix(0.01, -1, 1, 0.01, -752.39, 877.64)"/><ellipse class="s2d-b2d4-2_23" cx="67.08" cy="838.3" rx="6.48" ry="1.8" transform="translate(-771.88 896.53) rotate(-89.4)"/><ellipse class="s2d-b2d4-2_23" cx="76.82" cy="828.75" rx="1.8" ry="6.48" transform="translate(-752.69 896.83) rotate(-89.4)"/><ellipse class="s2d-b2d4-2_23" cx="57.53" cy="828.55" rx="1.8" ry="6.48" transform="translate(-771.58 877.34) rotate(-89.4)"/><ellipse class="s2d-b2d4-2_23" cx="438.7" cy="1019.11" rx="5.09" ry="1.41" transform="translate(-584.98 1447.04) rotate(-89.4)"/><ellipse class="s2d-b2d4-2_23" cx="438.54" cy="1034.27" rx="5.09" ry="1.41" transform="matrix(0.01, -1, 1, 0.01, -600.29, 1461.88)"/><ellipse class="s2d-b2d4-2_23" cx="446.2" cy="1026.77" rx="1.41" ry="5.09" transform="translate(-585.22 1462.11) rotate(-89.4)"/><ellipse class="s2d-b2d4-2_23" cx="431.04" cy="1026.61" rx="1.41" ry="5.09" transform="translate(-600.06 1446.8) rotate(-89.4)"/><ellipse class="s2d-b2d4-2_23" cx="236.48" cy="900.07" rx="7.54" ry="2.09" transform="translate(-666.04 1127.04) rotate(-89.4)"/><ellipse class="s2d-b2d4-2_23" cx="236.24" cy="922.51" rx="7.54" ry="2.09" transform="translate(-688.71 1149.01) rotate(-89.4)"/><ellipse class="s2d-b2d4-2_23" cx="247.58" cy="911.41" rx="2.09" ry="7.54" transform="translate(-666.4 1149.36) rotate(-89.4)"/><ellipse class="s2d-b2d4-2_23" cx="225.14" cy="911.17" rx="2.09" ry="7.54" transform="translate(-688.36 1126.69) rotate(-89.4)"/><ellipse class="s2d-b2d4-2_24" cx="96" cy="756.13" rx="10.56" ry="2.93" transform="translate(-661.11 844.15) rotate(-89.4)"/><ellipse class="s2d-b2d4-2_24" cx="95.67" cy="787.57" rx="10.56" ry="2.93" transform="matrix(0.01, -1, 1, 0.01, -692.87, 874.93)"/><ellipse class="s2d-b2d4-2_24" cx="111.55" cy="772.02" rx="2.93" ry="10.56" transform="translate(-661.6 875.42) rotate(-89.4)"/><ellipse class="s2d-b2d4-2_24" cx="80.11" cy="771.69" rx="2.93" ry="10.56" transform="translate(-692.38 843.66) rotate(-89.4)"/><ellipse class="s2d-b2d4-2_24" cx="130.79" cy="864.07" rx="10.56" ry="2.93" transform="translate(-734.61 985.74) rotate(-89.4)"/><ellipse class="s2d-b2d4-2_24" cx="130.46" cy="895.5" rx="10.56" ry="2.93" transform="translate(-766.37 1016.51) rotate(-89.4)"/><ellipse class="s2d-b2d4-2_24" cx="146.34" cy="879.95" rx="2.93" ry="10.56" transform="translate(-735.1 1017) rotate(-89.4)"/><ellipse class="s2d-b2d4-2_24" cx="114.91" cy="879.62" rx="2.93" ry="10.56" transform="translate(-765.88 985.24) rotate(-89.4)"/><ellipse class="s2d-b2d4-2_24" cx="308.61" cy="914.56" rx="10.56" ry="2.93" transform="matrix(0.01, -1, 1, 0.01, -609.15, 1213.5)"/><ellipse class="s2d-b2d4-2_24" cx="308.28" cy="946" rx="10.56" ry="2.93" transform="translate(-640.92 1244.28) rotate(-89.4)"/><ellipse class="s2d-b2d4-2_24" cx="324.16" cy="930.44" rx="2.93" ry="10.56" transform="translate(-609.65 1244.77) rotate(-89.4)"/><ellipse class="s2d-b2d4-2_24" cx="292.72" cy="930.11" rx="2.93" ry="10.56" transform="translate(-640.42 1213.01) rotate(-89.4)"/><ellipse class="s2d-b2d4-2_24" cx="371.53" cy="946.91" rx="7.54" ry="2.09" transform="translate(-579.25 1308.43) rotate(-89.4)"/><ellipse class="s2d-b2d4-2_24" cx="371.29" cy="969.35" rx="7.54" ry="2.09" transform="matrix(0.01, -1, 1, 0.01, -601.92, 1330.4)"/><ellipse class="s2d-b2d4-2_24" cx="382.63" cy="958.25" rx="2.09" ry="7.54" transform="translate(-579.6 1330.75) rotate(-89.4)"/><ellipse class="s2d-b2d4-2_24" cx="360.19" cy="958.01" rx="2.09" ry="7.54" transform="translate(-601.56 1308.08) rotate(-89.4)"/><ellipse class="s2d-b2d4-2_24" cx="202.16" cy="857.52" rx="5.09" ry="1.41" transform="translate(-657.44 1050.62) rotate(-89.4)"/><ellipse class="s2d-b2d4-2_24" cx="202" cy="872.68" rx="5.09" ry="1.41" transform="translate(-672.75 1065.46) rotate(-89.4)"/><ellipse class="s2d-b2d4-2_24" cx="209.66" cy="865.18" rx="1.41" ry="5.09" transform="matrix(0.01, -1, 1, 0.01, -657.68, 1065.7)"/><ellipse class="s2d-b2d4-2_24" cx="194.5" cy="865.02" rx="1.41" ry="5.09" transform="translate(-672.52 1050.39) rotate(-89.4)"/><ellipse class="s2d-b2d4-2_24" cx="233.1" cy="1024.89" rx="5.09" ry="1.41" transform="translate(-794.2 1247.16) rotate(-89.4)"/><ellipse class="s2d-b2d4-2_24" cx="232.94" cy="1040.05" rx="5.09" ry="1.41" transform="translate(-809.51 1262) rotate(-89.4)"/><ellipse class="s2d-b2d4-2_24" cx="240.6" cy="1032.55" rx="1.41" ry="5.09" transform="matrix(0.01, -1, 1, 0.01, -794.43, 1262.24)"/><ellipse class="s2d-b2d4-2_24" cx="225.44" cy="1032.39" rx="1.41" ry="5.09" transform="translate(-809.27 1246.92) rotate(-89.4)"/><ellipse class="s2d-b2d4-2_24" cx="280.79" cy="991.67" rx="7.54" ry="2.09" transform="matrix(0.01, -1, 1, 0.01, -713.79, 1261.98)"/><ellipse class="s2d-b2d4-2_24" cx="280.55" cy="1014.11" rx="7.54" ry="2.09" transform="translate(-736.46 1283.95) rotate(-89.4)"/><ellipse class="s2d-b2d4-2_24" cx="291.89" cy="1003.01" rx="2.09" ry="7.54" transform="translate(-714.14 1284.3) rotate(-89.4)"/><ellipse class="s2d-b2d4-2_24" cx="269.45" cy="1002.77" rx="2.09" ry="7.54" transform="translate(-736.1 1261.63) rotate(-89.4)"/><path class="s2d-b2d4-2_14" d="M211,735.45l.22,2.32c-.07-.31-9.51-33.23-77.24-48.52-.22,0-25.62-5.67-39.31-4.64l2.53-7.53c15.68,1,28,2.61,49.76,9.25,40.08,12.22,58.62,33.09,63.77,43.26"/><polygon class="s2d-b2d4-2_10" points="243.66 411.29 235.16 440.27 233.14 439.72 240.54 410.44 243.66 411.29"/><path class="s2d-b2d4-2_1" d="M240.1,403.33c-5.94-5.48-13.74-8.39-21.36-11-5.14-1.78-10.4-3.52-15.83-3.63-8.77-.19-17.35,4.07-23.2,10.61s-9.09,15.17-9.9,23.9c-.6,6.4.11,13.11,3.24,18.73,5.54,9.92,17.15,14.44,27.87,18.22,2.7,1,5.62,1.92,8.38,1.14"/><line class="s2d-b2d4-2_12" x1="357.74" y1="518.1" x2="357.74" y2="518.1"/><path class="s2d-b2d4-2_25" d="M349,521.08c-12.22,6-18,17.89-20.31,24.34"/><line class="s2d-b2d4-2_12" x1="327.33" y1="549.85" x2="327.33" y2="549.85"/><path class="s2d-b2d4-2_14" d="M337.05,562.27c.22-1.15,8.49-30.72,35.16-36.1l-6.5-5.68c-25,6.34-33.13,28.87-35.2,36.48"/><path class="s2d-b2d4-2_14" d="M592.87,554.65l-3.94,2.63c1.78-6.23,1.25-12.81-1.19-16.46-3.51-5.23-13.42-8.05-11-7.53l3.39-1.8c.34,0,6.24.52,10.74,7.21C593.94,543.31,595,547.3,592.87,554.65Z"/><ellipse class="s2d-b2d4-2_21" cx="186.15" cy="907.9" rx="5.09" ry="1.41" transform="translate(-723.67 1084.46) rotate(-89.4)"/><ellipse class="s2d-b2d4-2_21" cx="140.82" cy="753.92" rx="5.09" ry="1.41" transform="translate(-614.55 886.78) rotate(-89.4)"/><ellipse class="s2d-b2d4-2_21" cx="409.61" cy="978.54" rx="5.09" ry="1.41" transform="translate(-573.2 1377.8) rotate(-89.4)"/><ellipse class="s2d-b2d4-2_21" cx="276.64" cy="903.77" rx="1.41" ry="5.09" transform="matrix(0.01, -1, 1, 0.01, -630, 1170.85)"/><ellipse class="s2d-b2d4-2_21" cx="117.18" cy="823.29" rx="1.41" ry="5.09" transform="translate(-707.3 931.78) rotate(-89.4)"/><ellipse class="s2d-b2d4-2_21" cx="404.8" cy="1043.11" rx="1.41" ry="5.09" transform="translate(-642.52 1436.89) rotate(-89.4)"/><ellipse class="s2d-b2d4-2_21" cx="224.4" cy="984.79" rx="1.41" ry="5.09" transform="matrix(0.01, -1, 1, 0.01, -762.7, 1198.79)"/><g class="s2d-b2d4-2_26"><circle class="s2d-b2d4-2_11" cx="483.03" cy="953.93" r="0.19"/><circle class="s2d-b2d4-2_11" cx="462.95" cy="937.84" r="0.49"/><path class="s2d-b2d4-2_11" d="M445.24,919.9a.79.79,0,1,1,.79-.79A.79.79,0,0,1,445.24,919.9Z"/><path class="s2d-b2d4-2_11" d="M427.4,901.55a1,1,0,1,1,1.05-1A1,1,0,0,1,427.4,901.55Z"/><path class="s2d-b2d4-2_11" d="M406.88,886.28a1.28,1.28,0,1,1,1.27-1.28A1.28,1.28,0,0,1,406.88,886.28Z"/><path class="s2d-b2d4-2_11" d="M382.7,877.92a1.5,1.5,0,1,1,1.5-1.5A1.51,1.51,0,0,1,382.7,877.92Z"/><path class="s2d-b2d4-2_11" d="M357,876.17a1.79,1.79,0,1,1,1.79-1.79A1.79,1.79,0,0,1,357,876.17Z"/><circle class="s2d-b2d4-2_11" cx="331.25" cy="874.57" r="1.94"/><path class="s2d-b2d4-2_11" d="M305.6,874.11a1.71,1.71,0,1,1,1.7-1.71A1.7,1.7,0,0,1,305.6,874.11Z"/><circle class="s2d-b2d4-2_11" cx="281.58" cy="863.41" r="1.13"/><path class="s2d-b2d4-2_11" d="M263.84,845.31a.19.19,0,1,1,.19-.18A.19.19,0,0,1,263.84,845.31Z"/><path class="s2d-b2d4-2_11" d="M536.1,933.16a.25.25,0,1,1,.25-.25A.25.25,0,0,1,536.1,933.16Z"/><circle class="s2d-b2d4-2_11" cx="510.34" cy="925.54" r="1.06"/><path class="s2d-b2d4-2_11" d="M486.55,914.92a1.71,1.71,0,1,1,1.7-1.71A1.71,1.71,0,0,1,486.55,914.92Z"/><path class="s2d-b2d4-2_11" d="M465.6,898.88a2.38,2.38,0,1,1,2.37-2.37A2.37,2.37,0,0,1,465.6,898.88Z"/><path class="s2d-b2d4-2_11" d="M443.86,883.23a2.28,2.28,0,1,1,2.27-2.27A2.28,2.28,0,0,1,443.86,883.23Z"/><path class="s2d-b2d4-2_11" d="M418.07,874.34a.25.25,0,0,1-.25-.25.25.25,0,0,1,.5,0A.25.25,0,0,1,418.07,874.34Z"/><path class="s2d-b2d4-2_11" d="M410.05,833.28a.25.25,0,1,1,.25-.25A.25.25,0,0,1,410.05,833.28Z"/><path class="s2d-b2d4-2_11" d="M387.52,823.29a1.25,1.25,0,1,1,1.25-1.25A1.25,1.25,0,0,1,387.52,823.29Z"/><path class="s2d-b2d4-2_11" d="M363.07,818.41a2,2,0,1,1,2-2A2,2,0,0,1,363.07,818.41Z"/><path class="s2d-b2d4-2_11" d="M338,818.78a2.51,2.51,0,1,1,2.5-2.51A2.51,2.51,0,0,1,338,818.78Z"/><path class="s2d-b2d4-2_11" d="M313.54,822a.25.25,0,0,1-.25-.25.25.25,0,0,1,.5,0A.25.25,0,0,1,313.54,822Z"/><path class="s2d-b2d4-2_11" d="M416.7,810.1a.25.25,0,0,1-.25-.25.25.25,0,0,1,.25-.25.25.25,0,0,1,.25.25A.26.26,0,0,1,416.7,810.1Z"/><circle class="s2d-b2d4-2_11" cx="388.48" cy="803.85" r="2"/><path class="s2d-b2d4-2_11" d="M360,808.48a.25.25,0,0,1,0-.5.25.25,0,1,1,0,.5Z"/><path class="s2d-b2d4-2_11" d="M95.35,716.49a.25.25,0,0,1,0-.5.25.25,0,1,1,0,.5Z"/><path class="s2d-b2d4-2_11" d="M119,717.74a.78.78,0,1,1,.77-.77A.78.78,0,0,1,119,717.74Z"/><path class="s2d-b2d4-2_11" d="M142.4,720.87a1.25,1.25,0,1,1,1.25-1.25A1.25,1.25,0,0,1,142.4,720.87Z"/><circle class="s2d-b2d4-2_11" cx="165.06" cy="726.1" r="1.63"/><circle class="s2d-b2d4-2_11" cx="185.46" cy="737.85" r="2"/><path class="s2d-b2d4-2_11" d="M201.15,757.83a2.48,2.48,0,1,1,2.48-2.48A2.48,2.48,0,0,1,201.15,757.83Z"/><path class="s2d-b2d4-2_11" d="M212.21,778.69a2.51,2.51,0,1,1,2.5-2.5A2.5,2.5,0,0,1,212.21,778.69Z"/><path class="s2d-b2d4-2_11" d="M221.72,799.56a1.76,1.76,0,1,1,1.76-1.76A1.76,1.76,0,0,1,221.72,799.56Z"/><path class="s2d-b2d4-2_11" d="M233.09,818.71a.25.25,0,1,1,0-.5.25.25,0,0,1,0,.5Z"/></g><g class="s2d-b2d4-2_27"><path class="s2d-b2d4-2_11" d="M11.46,769.13a1.23,1.23,0,1,1,1.23-1.23A1.23,1.23,0,0,1,11.46,769.13Z"/><circle class="s2d-b2d4-2_11" cx="-1.73" cy="752.77" r="2.6"/><path class="s2d-b2d4-2_11" d="M21.34,745.41a2.29,2.29,0,1,1,2.29-2.29A2.29,2.29,0,0,1,21.34,745.41Z"/><path class="s2d-b2d4-2_11" d="M39.42,727.37a.92.92,0,1,1,.92-.92A.92.92,0,0,1,39.42,727.37Z"/></g><path class="s2d-b2d4-2_22" d="M21.62,954.8a16.1,16.1,0,0,1,18.37-3"/><polygon class="s2d-b2d4-2_10" points="142.64 628.55 137.45 647.47 135.08 646.93 139 627.64 142.64 628.55"/><path class="s2d-b2d4-2_10" d="M184.92,518.67c-.11.1-.29.3-.45.47s-.32.37-.49.57c-.32.39-.65.77-1,1.19l-.94,1.25-.9,1.3c-.61.85-1.18,1.75-1.74,2.65s-1.13,1.79-1.65,2.72l-1.6,2.77-1.51,2.83c-1,1.87-1.94,3.81-2.9,5.73-3.71,7.73-7,15.69-10.07,23.74-1.51,4-3,8.1-4.38,12.17s-2.77,8.16-4.05,12.28-2.58,8.24-3.79,12.38l-3.56,12.45-2.34-.63L147,600c1.16-4.18,2.43-8.32,3.64-12.48s2.61-8.27,3.91-12.41,2.79-8.22,4.26-12.3c3-8.16,6.21-16.23,9.88-24.14.95-2,1.84-3.95,2.88-5.88l1.5-2.92,1.61-2.86c.53-1,1.1-1.91,1.68-2.84s1.15-1.88,1.79-2.8l.93-1.38,1-1.35c.32-.46.7-.9,1.06-1.35.17-.22.36-.44.56-.66s.38-.44.66-.71Z"/><path class="s2d-b2d4-2_16" d="M288.87,301.89s-10-17.18-27.21,0"/><line class="s2d-b2d4-2_28" x1="371.66" y1="591.97" x2="310.35" y2="541.08"/><path class="s2d-b2d4-2_28" d="M598.11,551.51,472.73,634.78s-19.69,19.67-53.08-5.5L386.26,604.1"/><path class="s2d-b2d4-2_18" d="M338.6,363.81s-2.3-15.44-14.11-22.61a44.2,44.2,0,0,0-31.36-5.76"/><circle class="s2d-b2d4-2_10" cx="338.6" cy="386.74" r="2.3"/><path class="s2d-b2d4-2_18" d="M337.82,426.06c1.15,1.27-2.1,2.67-3.57,3.53a22.47,22.47,0,0,1-10,3.35,12.28,12.28,0,0,1-9.66-3.62,5.77,5.77,0,0,1-1.68-3.64S324.5,411.49,337.82,426.06Z"/><path class="s2d-b2d4-2_14" d="M256.81,333.2a30.58,30.58,0,0,1,3.49,12.48c.42,5.92.14,12-2.15,17.48s-6.87,10.22-12.65,11.54c-6.41,1.46-13.12-1.47-18.15-5.7a26.16,26.16,0,0,1-5.46-6.09c-3.24-5.18-3.94-11.51-4.21-17.61-.41-9,.06-18.46,4.22-26.49,2.08-4,3.45-5.87,7.92-11C228.2,321.24,250.11,320.85,256.81,333.2Z"/><path class="s2d-b2d4-2_11" d="M252.47,340.74h0a11.22,11.22,0,0,0-4.32-5.64,26,26,0,0,0-6.11-3,10,10,0,0,0-3.15-.85c-3.17-.14-5.79,2.74-7.26,5.76a21.78,21.78,0,0,0-2,12.32h0s0,.12.06.31a18.36,18.36,0,0,0,1.24,4.49c.07.16.16.32.23.49a25.84,25.84,0,0,0,8.31,11.19,4.15,4.15,0,0,0,6-1.15C249,358.86,255.08,347.26,252.47,340.74Z"/><path class="s2d-b2d4-2_10" d="M239,358.39a22.45,22.45,0,0,1-5.22-14q0-1,.06-1.92a9.81,9.81,0,0,1,.34-2.07,5.73,5.73,0,0,1,1.08-2.15,4.26,4.26,0,0,1,2.35-1.47,5.93,5.93,0,0,1,2.45,0,9.9,9.9,0,0,1,2.07.63,6.67,6.67,0,0,1,3.5,3.15L242.49,342a3.32,3.32,0,0,0-1.71-1.57,4.78,4.78,0,0,0-2.47-.56,1.11,1.11,0,0,0-.67.37,2.84,2.84,0,0,0-.54,1,11.83,11.83,0,0,0-.43,3.13,19.91,19.91,0,0,0,4.1,12.59Z"/><path class="s2d-b2d4-2_16" d="M215.21,313S196,347.6,196.62,373,184,417.44,169.81,423.17"/><path class="s2d-b2d4-2_16" d="M213,354.89s2.89,32-4.48,50.3S172.56,448,154.65,449.41"/><path class="s2d-b2d4-2_16" d="M224.65,391s3.52,31.55-11.13,40.52"/><path class="s2d-b2d4-2_14" d="M343.79,330.45a17.53,17.53,0,0,0,3,9.22,17.5,17.5,0,0,0,3-9.22c0-5.09-1.34-9.22-3-9.22S343.79,325.36,343.79,330.45Z"/><path class="s2d-b2d4-2_9" d="M238.09,364.82l.27,66.33c0,6.18,9.64,6.19,9.61,0l-.26-66.33c0-6.18-9.64-6.2-9.62,0Z"/><path class="s2d-b2d4-2_17" d="M251.1,328.73s62.39-41.42,95.37-1.15c0,0,8.45-15.1,31-.5l-1-9.93s-14.41-11.68-28.74-3.6c0,0-37.52-42-107.63,8.86Z"/><path class="s2d-b2d4-2_20" d="M245.69,762.5c3.76.14,7.51-.6,11.27-.63a30,30,0,0,1,16.31,4.75c.83-2.74-.57-5.61-2-8.1-3.65-6.41-8.85-13.25-16.23-13.62-5.4-.28-10.18,3.65-15.55,4.24-13.75,1.53-16.92-4.62-21.18-6.1C218.39,756.92,239.14,762.27,245.69,762.5Z"/><path class="s2d-b2d4-2_20" d="M68,679.06c-8.54-.62-17.59,1.27-24,6.89-7.73,6.73-10.67,17.7-18.29,24.56a25.78,25.78,0,0,1-26,4.75,25.85,25.85,0,0,0-2.92-21.83c7,.82,14.27,1.32,20.7-1.45,10.18-4.39,15.56-15.79,25-21.58,8.37-5.13,19.24-5.18,28.36-1.57,7.22,2.86,14.78,8.14,19.2,14.56C84,684.74,74.55,679.53,68,679.06Z"/></g><path class="s2d-b2d4-2_17" d="M507.75,94.7l40.56-11.46a2.66,2.66,0,0,1,3.29,3.26l-11.24,40.63a2.66,2.66,0,0,0,1.64,3.2l39.56,14.56a2.66,2.66,0,0,1,.73,4.57l-33,26.26a2.66,2.66,0,0,0-.55,3.56l23.44,35a2.66,2.66,0,0,1-2.09,4.13L528,220.31a2.66,2.66,0,0,0-2.54,2.55L523.84,265a2.65,2.65,0,0,1-4.12,2.11l-35.16-23.24a2.65,2.65,0,0,0-3.55.58l-26.08,33.11a2.65,2.65,0,0,1-4.57-.71l-14.79-39.47a2.65,2.65,0,0,0-3.21-1.62L391.8,247.2a2.66,2.66,0,0,1-3.28-3.27l11.23-40.62a2.65,2.65,0,0,0-1.64-3.2l-39.55-14.57a2.65,2.65,0,0,1-.74-4.57l33-26.26a2.65,2.65,0,0,0,.55-3.55l-23.44-35A2.66,2.66,0,0,1,370,112l42.1-1.86a2.66,2.66,0,0,0,2.54-2.56l1.63-42.11a2.66,2.66,0,0,1,4.12-2.12l35.16,23.24a2.65,2.65,0,0,0,3.56-.57L485.18,52.9a2.66,2.66,0,0,1,4.58.71l14.78,39.47A2.66,2.66,0,0,0,507.75,94.7Z"/><path class="s2d-b2d4-2_29" d="M501.3,106.78l33.61-9.5a2.2,2.2,0,0,1,2.72,2.71l-9.31,33.66a2.18,2.18,0,0,0,1.36,2.65l32.78,12.07a2.2,2.2,0,0,1,.61,3.79l-27.32,21.76a2.2,2.2,0,0,0-.46,3l19.42,29a2.21,2.21,0,0,1-1.73,3.43l-34.9,1.54A2.2,2.2,0,0,0,516,213l-1.35,34.9a2.2,2.2,0,0,1-3.42,1.75l-29.13-19.26a2.21,2.21,0,0,0-2.95.48L457.52,258.3a2.2,2.2,0,0,1-3.79-.59L441.48,225a2.19,2.19,0,0,0-2.66-1.34l-33.61,9.5a2.21,2.21,0,0,1-2.73-2.71l9.32-33.66a2.21,2.21,0,0,0-1.37-2.66l-32.77-12.07a2.2,2.2,0,0,1-.61-3.79l27.32-21.76a2.21,2.21,0,0,0,.46-2.94l-19.43-29a2.2,2.2,0,0,1,1.74-3.42L422,119.56a2.19,2.19,0,0,0,2.1-2.11l1.35-34.9a2.2,2.2,0,0,1,3.42-1.75L458,100.05a2.19,2.19,0,0,0,2.94-.47l21.61-27.44a2.2,2.2,0,0,1,3.79.59l12.26,32.71A2.2,2.2,0,0,0,501.3,106.78Z"/><text class="s2d-b2d4-2_30" transform="matrix(0.89, 0.46, -0.46, 0.89, 414.63, 152.56)">?</text><text class="s2d-b2d4-2_30" transform="matrix(0.86, 0.51, -0.51, 0.86, 439.13, 165.17)">?</text><text class="s2d-b2d4-2_30" transform="matrix(0.84, 0.55, -0.55, 0.84, 462.91, 179.09)">?</text><text class="s2d-b2d4-2_30" transform="matrix(0.81, 0.59, -0.59, 0.81, 485.95, 194.23)">?</text><text class="s2d-b2d4-2_31" transform="translate(418.85 387.51) rotate(-37.02)">A</text><text class="s2d-b2d4-2_31" transform="matrix(0.84, -0.54, 0.54, 0.84, 439.23, 371.87)">W</text><text class="s2d-b2d4-2_31" transform="translate(469.91 352.62) rotate(-27.86)">A</text><text class="s2d-b2d4-2_31" transform="translate(492.09 340.93) rotate(-24.35)">S</text><text class="s2d-b2d4-2_31" transform="translate(511.43 332.27) rotate(-21.52)"> </text><text class="s2d-b2d4-2_31" transform="translate(523.92 327.22) rotate(-18.53)">S</text><text class="s2d-b2d4-2_31" transform="translate(543.8 320.43) rotate(-14.22)">A</text><text class="s2d-b2d4-2_31" transform="matrix(0.99, -0.16, 0.16, 0.99, 568.66, 314.12)">J</text><text class="s2d-b2d4-2_31" transform="translate(592.71 310.14) rotate(-3.87)">A</text><text class="s2d-b2d4-2_32" transform="matrix(0.83, -0.55, 0.55, 0.83, 443.47, 400.77)">T</text><text class="s2d-b2d4-2_32" transform="matrix(0.85, -0.53, 0.53, 0.85, 454.74, 393.39)">i</text><text class="s2d-b2d4-2_32" transform="translate(460.74 389.65) rotate(-30.38)">d</text><text class="s2d-b2d4-2_32" transform="translate(470.23 384.07) rotate(-28.63)">a</text><text class="s2d-b2d4-2_32" transform="translate(481.53 377.88) rotate(-26.66)">k</text><text class="s2d-b2d4-2_32" transform="matrix(0.91, -0.42, 0.42, 0.91, 494.34, 371.5)"> </text><text class="s2d-b2d4-2_32" transform="matrix(0.92, -0.4, 0.4, 0.92, 501.75, 368)">a</text><text class="s2d-b2d4-2_32" transform="matrix(0.93, -0.36, 0.36, 0.93, 513.56, 362.86)">k</text><text class="s2d-b2d4-2_32" transform="matrix(0.94, -0.33, 0.33, 0.94, 526.89, 357.66)">a</text><text class="s2d-b2d4-2_32" transform="matrix(0.96, -0.3, 0.3, 0.96, 539.03, 353.41)">n</text><text class="s2d-b2d4-2_32" transform="translate(551 349.75) rotate(-15.41)"> </text><text class="s2d-b2d4-2_32" transform="matrix(0.97, -0.24, 0.24, 0.97, 558.85, 347.55)">p</text><text class="s2d-b2d4-2_32" transform="matrix(0.98, -0.2, 0.2, 0.98, 570.13, 344.81)">e</text><text class="s2d-b2d4-2_32" transform="matrix(0.99, -0.16, 0.16, 0.99, 581.18, 342.53)">r</text><text class="s2d-b2d4-2_32" transform="translate(592.99 340.57) rotate(-7)">n</text><text class="s2d-b2d4-2_32" transform="matrix(1, -0.08, 0.08, 1, 605.36, 339.04)">a</text><text class="s2d-b2d4-2_32" transform="matrix(1, -0.03, 0.03, 1, 618.13, 338.04)">h</text><text class="s2d-b2d4-2_33" transform="matrix(0.86, -0.51, 0.51, 0.86, 441.22, 427.04)">k</text><text class="s2d-b2d4-2_33" transform="matrix(0.88, -0.47, 0.47, 0.88, 453.56, 419.79)">u</text><text class="s2d-b2d4-2_33" transform="matrix(0.89, -0.45, 0.45, 0.89, 465, 413.65)"> </text><text class="s2d-b2d4-2_33" transform="matrix(0.91, -0.42, 0.42, 0.91, 472.24, 409.9)">m</text><text class="s2d-b2d4-2_33" transform="matrix(0.92, -0.38, 0.38, 0.92, 488.65, 402.34)">a</text><text class="s2d-b2d4-2_33" transform="matrix(0.94, -0.35, 0.35, 0.94, 500.54, 397.38)">a</text><text class="s2d-b2d4-2_33" transform="matrix(0.95, -0.33, 0.33, 0.95, 512.61, 392.84)">f</text><text class="s2d-b2d4-2_33" transform="matrix(0.96, -0.29, 0.29, 0.96, 522.11, 389.53)">k</text><text class="s2d-b2d4-2_33" transform="matrix(0.97, -0.26, 0.26, 0.97, 535.78, 385.34)">a</text><text class="s2d-b2d4-2_33" transform="matrix(0.98, -0.22, 0.22, 0.98, 548.21, 382.04)">n</text><text class="s2d-b2d4-2_33" transform="matrix(0.98, -0.19, 0.19, 0.98, 560.42, 379.31)"> </text><text class="s2d-b2d4-2_33" transform="matrix(0.99, -0.16, 0.16, 0.99, 568.43, 377.73)">p</text><text class="s2d-b2d4-2_33" transform="matrix(0.99, -0.12, 0.12, 0.99, 579.88, 375.87)">u</text><text class="s2d-b2d4-2_33" transform="matrix(1, -0.08, 0.08, 1, 592.7, 374.34)">r</text><text class="s2d-b2d4-2_33" transform="matrix(1, -0.03, 0.03, 1, 604.61, 373.41)">b</text><text class="s2d-b2d4-2_33" transform="matrix(1, 0.01, -0.01, 1, 617.26, 372.98)">a</text><text class="s2d-b2d4-2_33" transform="matrix(1, 0.06, -0.06, 1, 629.67, 373.16)">s</text><text class="s2d-b2d4-2_33" transform="matrix(0.99, 0.1, -0.1, 0.99, 639.86, 373.7)">a</text><text class="s2d-b2d4-2_33" transform="matrix(0.99, 0.14, -0.14, 0.99, 652.63, 375.04)">r</text><text class="s2d-b2d4-2_33" transform="matrix(0.99, 0.11, -0.11, 0.99, 664.91, 376.76)">i</text><text class="s2d-b2d4-2_33" transform="matrix(1, 0.09, -0.09, 1, 672.24, 377.58)">!</text><text class="s2d-b2d4-2_33" transform="matrix(1, 0.07, -0.07, 1, 678.23, 378.13)">!</text></svg>
