<svg id="Layer_1" data-name="Layer 1" xmlns="http://www.w3.org/2000/svg" xmlns:xlink="http://www.w3.org/1999/xlink" width="280" height="250" viewBox="390 380 370 370"><defs><style>.cls-1,.cls-12,.cls-13,.cls-17,.cls-18,.cls-19,.cls-20,.cls-21{fill:none;}.cls-2{fill:#357d74;}.cls-3{fill:#daa534;}.cls-4{clip-path:url(#clip-path);}.cls-5{fill:url(#linear-gradient);}.cls-6{fill:url(#linear-gradient-2);}.cls-7{fill:url(#linear-gradient-3);}.cls-8{fill:url(#linear-gradient-4);}.cls-9{fill:url(#linear-gradient-5);}.cls-10{fill:url(#linear-gradient-6);}.cls-11{fill:#5d9f9b;}.cls-12,.cls-13,.cls-17,.cls-18{stroke:#fff;}.cls-12,.cls-13,.cls-18{stroke-linecap:round;stroke-linejoin:round;}.cls-12,.cls-13{stroke-width:2.72px;}.cls-13{stroke-dasharray:0 11.11;}.cls-14{fill:#2f4862;}.cls-15{fill:#fff;}.cls-16{fill:#c97475;}.cls-17,.cls-19,.cls-20,.cls-21{stroke-miterlimit:10;}.cls-17{stroke-width:0.77px;}.cls-18{stroke-width:1.81px;}.cls-19{stroke:#2f4862;stroke-width:2.93px;}.cls-20{stroke:#5d9f9b;stroke-width:0.86px;}.cls-21{stroke:#daa534;stroke-width:0.91px;}.cls-22{font-size:20.98px;fill:#2f4962;font-family:PermanentMarker-Regular, Permanent Marker;letter-spacing:0.08em;}</style><clipPath id="clip-path"><path class="cls-1" d="M734.54,715.55c-33.08,0-33.08-.39-66.16-.39s-33.08.1-66.16.1-33.08,2.11-66.16,2.11-33.09,3.21-66.17,3.21-33.08-1.38-66.16-1.38c-17.65,0-28.26-15.51-28.26-33.15,0-40.91-1.38-40.91-1.38-81.82S370,563.32,370,522.41s1.25-40.92,1.25-81.83c0-29.92,24.83-57.46,54.75-57.46,36.12,0,36.12,1.21,72.24,1.21s36.11,2.9,72.23,2.9,36.12.7,72.24.7,36.12,1.36,72.24,1.36c27.56,0,48.1,19.46,48.1,47,0,41.9-.9,41.9-.9,83.8s2.41,41.9,2.41,83.8,2.06,41.9,2.06,83.81C766.57,704.45,751.26,715.55,734.54,715.55Z"/></clipPath><linearGradient id="linear-gradient" x1="3264.98" y1="665.46" x2="3265.43" y2="586.63" gradientTransform="matrix(-1, 0, 0, 1, 3949.01, 0)" gradientUnits="userSpaceOnUse"><stop offset="0.23" stop-color="#b66f1e" stop-opacity="0"/><stop offset="1" stop-color="#b66f1e" stop-opacity="0.8"/></linearGradient><linearGradient id="linear-gradient-2" x1="3326" y1="584.52" x2="3326.25" y2="539.99" xlink:href="#linear-gradient"/><linearGradient id="linear-gradient-3" x1="3531.7" y1="554.41" x2="3531.87" y2="525.45" xlink:href="#linear-gradient"/><linearGradient id="linear-gradient-4" x1="3493.38" y1="486.26" x2="3493.66" y2="437.06" xlink:href="#linear-gradient"/><linearGradient id="linear-gradient-5" x1="3392.05" y1="482.91" x2="3392.22" y2="453.95" xlink:href="#linear-gradient"/><linearGradient id="linear-gradient-6" x1="3239.81" y1="549.36" x2="3239.98" y2="520.4" xlink:href="#linear-gradient"/></defs><title>17</title><path class="cls-3" d="M734.54,715.55c-33.08,0-33.08-.39-66.16-.39s-33.08.1-66.16.1-33.08,2.11-66.16,2.11-33.09,3.21-66.17,3.21-33.08-1.38-66.16-1.38c-17.65,0-28.26-15.51-28.26-33.15,0-40.91-1.38-40.91-1.38-81.82S370,563.32,370,522.41s1.25-40.92,1.25-81.83c0-29.92,24.83-57.46,54.75-57.46,36.12,0,36.12,1.21,72.24,1.21s36.11,2.9,72.23,2.9,36.12.7,72.24.7,36.12,1.36,72.24,1.36c27.56,0,48.1,19.46,48.1,47,0,41.9-.9,41.9-.9,83.8s2.41,41.9,2.41,83.8,2.06,41.9,2.06,83.81C766.57,704.45,751.26,715.55,734.54,715.55Z"/><g class="cls-4"><path class="cls-5" d="M594,642.82h0a5.14,5.14,0,0,1,.32-.49l0,0c.11-.15.23-.29.35-.43l.05-.06c.12-.13.23-.26.36-.38l.09-.08c.11-.11.23-.21.36-.32l.13-.09c.12-.09.23-.18.36-.26l.17-.11.35-.2.23-.11.33-.16.28-.1.31-.11.33-.08.28-.07.42-.07.21,0,.66,0a6.4,6.4,0,0,1,2.93.7,8.41,8.41,0,0,1,.72-.86,9.68,9.68,0,0,1,6-3,9.39,9.39,0,0,1,1.19-.07,9.72,9.72,0,0,1,2,.2l.63.15a9.8,9.8,0,0,1,9.59-7.77A9.7,9.7,0,0,1,627,630a15.67,15.67,0,0,1-.39-2.56c0-.33,0-.66,0-1a15.57,15.57,0,0,1,20-15,15.26,15.26,0,0,1,.61-2.81,15.6,15.6,0,0,1,25.51-6.71c.19.18.37.35.55.54a23.21,23.21,0,0,1,32.9,1.15c.42.45.83.93,1.22,1.42a23.51,23.51,0,0,1,2.08,3.12,22.94,22.94,0,0,1,2.14,5.27c.54,0,1.08-.08,1.63-.08a15.48,15.48,0,0,1,10.11,3.73,15.67,15.67,0,0,1,3.92,5.06,9.78,9.78,0,0,1,9.83,1.81l.62.59a9.88,9.88,0,0,1,2.63,5.39,9.71,9.71,0,0,1,5-1.36,9.81,9.81,0,0,1,9.38,7c.08.27.15.54.21.82a9.59,9.59,0,0,1,2.59-.36,9.75,9.75,0,0,1,7.87,4,6.4,6.4,0,0,1,2.93-.7,6.52,6.52,0,0,1,0,13,6.4,6.4,0,0,1-2.93-.7,9.79,9.79,0,0,1-13.42,2.26,9.78,9.78,0,0,1-15.21,2.87,9.79,9.79,0,0,1-16.8,1.13,9.76,9.76,0,0,1-12-2.7,9.79,9.79,0,0,1-9.64,8.13,9.6,9.6,0,0,1-3.53-.67,23.27,23.27,0,0,1-36.44-5.53,9.72,9.72,0,0,1-10.36,1.1,9.79,9.79,0,0,1-16.8-1.13,9.78,9.78,0,0,1-15.21-2.87,9.76,9.76,0,0,1-13.42-2.26,6.4,6.4,0,0,1-2.93.7,6.5,6.5,0,0,1-5.62-9.8Z"/><path class="cls-6" d="M572.13,571.73h0l.18-.28,0,0a2.35,2.35,0,0,1,.19-.25l0,0,.2-.21,0-.05.21-.18.07-.05.21-.15.09-.06.2-.11a.75.75,0,0,1,.13-.06,1.11,1.11,0,0,1,.19-.09l.15-.06.18-.06.19-.05.15,0,.24,0h.12a2.36,2.36,0,0,1,.37,0,3.69,3.69,0,0,1,1.66.39,4.63,4.63,0,0,1,.4-.48,5.59,5.59,0,0,1,3.37-1.73c.22,0,.45,0,.67,0a5.63,5.63,0,0,1,1.11.12l.36.09a5.53,5.53,0,0,1,5.41-4.4,5.45,5.45,0,0,1,2.52.61,9.81,9.81,0,0,1-.22-1.44c0-.19,0-.38,0-.57a8.82,8.82,0,0,1,8.82-8.82,8.66,8.66,0,0,1,2.46.36,9.17,9.17,0,0,1,.35-1.59,8.81,8.81,0,0,1,14.41-3.79l.31.31a13.09,13.09,0,0,1,9-3.55,13.06,13.06,0,0,1,9.62,4.19q.36.39.69.81a13.18,13.18,0,0,1,1.18,1.76,12.94,12.94,0,0,1,1.21,3c.3,0,.61,0,.92,0a8.78,8.78,0,0,1,5.71,2.11,9,9,0,0,1,2.22,2.86,5.44,5.44,0,0,1,1.91-.34,5.69,5.69,0,0,1,1,.09,5.38,5.38,0,0,1,2.61,1.27,3.76,3.76,0,0,1,.35.34,5.48,5.48,0,0,1,1.49,3,5.52,5.52,0,0,1,8.1,3.16,4.05,4.05,0,0,1,.12.47,5.5,5.5,0,0,1,5.91,2,3.56,3.56,0,0,1,1.65-.4,3.68,3.68,0,1,1-1.65,7,5.53,5.53,0,0,1-4.45,2.25,5.46,5.46,0,0,1-3.13-1,5.53,5.53,0,0,1-8.59,1.63,5.54,5.54,0,0,1-9.5.63,5.47,5.47,0,0,1-2.43.57,5.55,5.55,0,0,1-4.33-2.09,5.53,5.53,0,0,1-7.44,4.22,13.15,13.15,0,0,1-20.58-3.13,5.51,5.51,0,0,1-5.86.62,5.52,5.52,0,0,1-9.49-.64,5.48,5.48,0,0,1-3.66,1.4,5.54,5.54,0,0,1-4.93-3,5.51,5.51,0,0,1-7.58-1.27,3.68,3.68,0,0,1-4.83-5.15Z"/><path class="cls-7" d="M384.22,546.1h0l.12-.18h0l.12-.16,0,0,.13-.14,0,0,.13-.12,0,0,.13-.1.06,0,.13-.07.08,0,.13-.06.1,0,.11,0,.13,0,.1,0,.15,0h.32a2.33,2.33,0,0,1,1.08.26,2.78,2.78,0,0,1,.26-.32,3.58,3.58,0,0,1,2.19-1.12,3.15,3.15,0,0,1,.44,0,3.38,3.38,0,0,1,.72.08l.23.05a3.61,3.61,0,0,1,5.16-2.46,5.75,5.75,0,0,1-.14-.94c0-.12,0-.24,0-.36a5.73,5.73,0,0,1,5.73-5.74,6,6,0,0,1,1.6.23,5.89,5.89,0,0,1,.22-1,5.74,5.74,0,0,1,9.38-2.46l.2.19A8.86,8.86,0,0,1,415.1,530a8.53,8.53,0,0,1,10.32,1.7,5.59,5.59,0,0,1,.45.52,8.2,8.2,0,0,1,1.55,3.08l.6,0a5.7,5.7,0,0,1,3.71,1.37,5.85,5.85,0,0,1,1.45,1.86,3.59,3.59,0,0,1,1.24-.22,3.55,3.55,0,0,1,2.36.89l.23.21a3.61,3.61,0,0,1,1,2,3.59,3.59,0,0,1,5.27,2.06c0,.1.05.2.07.3a3.83,3.83,0,0,1,1-.13,3.62,3.62,0,0,1,2.89,1.46,2.39,2.39,0,1,1,0,4.28,3.62,3.62,0,0,1-2.89,1.46,3.57,3.57,0,0,1-2-.63,3.59,3.59,0,0,1-5.59,1.05,3.6,3.6,0,0,1-6.17.42,3.67,3.67,0,0,1-1.58.37,3.59,3.59,0,0,1-2.82-1.37,3.6,3.6,0,0,1-3.55,3,3.69,3.69,0,0,1-1.29-.24,8.55,8.55,0,0,1-13.39-2,3.53,3.53,0,0,1-2.22.78,3.64,3.64,0,0,1-1.58-.37,3.59,3.59,0,0,1-6.17-.42,3.59,3.59,0,0,1-5.59-1.05,3.6,3.6,0,0,1-4.93-.83,2.46,2.46,0,0,1-1.08.26,2.39,2.39,0,0,1-2.39-2.4A2.32,2.32,0,0,1,384.22,546.1Z"/><path class="cls-8" d="M399.41,472.13h0l.2-.3v0a3,3,0,0,1,.22-.28l0,0,.23-.24.05-.05.23-.19a.24.24,0,0,1,.08-.06,1.84,1.84,0,0,1,.22-.17l.11-.06.22-.13.14-.07.21-.09.17-.07.19-.07.21-.05.17,0,.27,0,.13,0a2.82,2.82,0,0,1,.41,0,4.14,4.14,0,0,1,1.83.43,5.85,5.85,0,0,1,.45-.54,6.09,6.09,0,0,1,3.72-1.9,6,6,0,0,1,.74,0,5.58,5.58,0,0,1,1.23.13l.39.09a6.12,6.12,0,0,1,8.77-4.18,9.36,9.36,0,0,1-.25-1.6c0-.2,0-.41,0-.62a9.73,9.73,0,0,1,12.46-9.35,10.08,10.08,0,0,1,.38-1.75,9.74,9.74,0,0,1,15.93-4.19l.34.33a14.89,14.89,0,0,1,3-2.16,14.52,14.52,0,0,1,17.54,2.88c.27.29.52.58.76.89a13.5,13.5,0,0,1,1.3,1.95,14,14,0,0,1,1.34,3.29,8.5,8.5,0,0,1,1,0,9.63,9.63,0,0,1,6.3,2.32,9.76,9.76,0,0,1,2.45,3.17,5.89,5.89,0,0,1,3.24-.28,6,6,0,0,1,2.89,1.4,4.59,4.59,0,0,1,.39.37,6,6,0,0,1,1.64,3.37,6.1,6.1,0,0,1,8.95,3.49c.05.17.1.34.14.51a6.09,6.09,0,0,1,6.53,2.26,4.07,4.07,0,1,1,0,7.27,6.13,6.13,0,0,1-4.92,2.48A6,6,0,0,1,498,479a6.11,6.11,0,0,1-9.5,1.8,6.1,6.1,0,0,1-10.48.7,6.09,6.09,0,0,1-7.47-1.68,6.12,6.12,0,0,1-6,5.07,6.23,6.23,0,0,1-2.2-.41A14.52,14.52,0,0,1,439.57,481a6,6,0,0,1-6.46.69,6.11,6.11,0,0,1-10.49-.7,6.1,6.1,0,0,1-9.49-1.8,6.11,6.11,0,0,1-8.38-1.4,4.14,4.14,0,0,1-1.83.43,4.07,4.07,0,0,1-4.07-4.07A4.12,4.12,0,0,1,399.41,472.13Z"/><path class="cls-9" d="M523.87,474.59h0l.12-.18h0a1,1,0,0,1,.13-.16l0,0,.13-.13,0,0,.13-.12,0,0,.13-.1.07,0,.13-.07.08,0,.12-.06.1,0,.12,0,.12,0,.1,0,.16,0h.32a2.41,2.41,0,0,1,1.07.25,3.88,3.88,0,0,1,.26-.31,3.55,3.55,0,0,1,2.19-1.12,3.25,3.25,0,0,1,.44,0,3.38,3.38,0,0,1,.72.08l.23.05a3.61,3.61,0,0,1,3.53-2.86,3.57,3.57,0,0,1,1.63.4,5.75,5.75,0,0,1-.14-.94c0-.12,0-.24,0-.36a5.74,5.74,0,0,1,5.73-5.74,5.57,5.57,0,0,1,1.6.23,5.91,5.91,0,0,1,.23-1,5.72,5.72,0,0,1,9.37-2.46l.2.19a8.86,8.86,0,0,1,1.76-1.27,8.56,8.56,0,0,1,10.33,1.69c.15.17.3.35.44.53a8.76,8.76,0,0,1,.77,1.14,8.88,8.88,0,0,1,.79,1.94,5.74,5.74,0,0,1,5.75,3.2,3.63,3.63,0,0,1,1.24-.22,3.71,3.71,0,0,1,.67.06,3.57,3.57,0,0,1,1.7.83c.08.06.15.14.23.21a1.6,1.6,0,0,0,2.78,1.48,3.61,3.61,0,0,1,3.45,2.56c0,.1.06.2.08.3a3.69,3.69,0,0,1,.95-.13,3.6,3.6,0,0,1,2.89,1.46,2.42,2.42,0,0,1,1.08-.26,2.4,2.4,0,1,1-1.08,4.54,11.39,11.39,0,0,0-8.13,2.79,3.6,3.6,0,0,0-5.6,1.06,3.58,3.58,0,0,1-3-1.55,3.62,3.62,0,0,1-4.4-1,3.59,3.59,0,0,1-3.54,3,3.71,3.71,0,0,1-1.3-.24,8.54,8.54,0,0,1-13.38-2,3.58,3.58,0,0,1-2.23.78,3.64,3.64,0,0,1-1.58-.37,3.59,3.59,0,0,1-6.17-.42,3.56,3.56,0,0,1-2.38.91,3.61,3.61,0,0,1-3.21-2,3.57,3.57,0,0,1-2,.63,3.62,3.62,0,0,1-2.89-1.46,2.39,2.39,0,0,1-3.47-2.14A2.39,2.39,0,0,1,523.87,474.59Z"/><path class="cls-10" d="M676.11,541.05h0l.12-.18h0l.12-.16,0,0,.14-.14,0,0,.13-.12.05,0,.13-.1.06,0,.13-.07.09,0,.12-.06.1,0,.11,0,.13,0,.1,0,.15,0h.32a2.33,2.33,0,0,1,1.08.26,4,4,0,0,1,.26-.32,3.58,3.58,0,0,1,2.19-1.12,3.25,3.25,0,0,1,.44,0,3.38,3.38,0,0,1,.72.08l.23,0a3.61,3.61,0,0,1,5.16-2.46,5.75,5.75,0,0,1-.14-.94c0-.12,0-.24,0-.36a5.73,5.73,0,0,1,5.73-5.74,6,6,0,0,1,1.6.23,5.89,5.89,0,0,1,.22-1A5.74,5.74,0,0,1,705,526l.2.19a8.86,8.86,0,0,1,1.76-1.27,8.53,8.53,0,0,1,10.32,1.7,5.59,5.59,0,0,1,.45.52,8.2,8.2,0,0,1,1.55,3.08l.6,0a5.68,5.68,0,0,1,3.71,1.37,5.85,5.85,0,0,1,1.45,1.86,3.59,3.59,0,0,1,1.24-.22,3.52,3.52,0,0,1,.66.06,3.56,3.56,0,0,1,1.71.83l.22.21a1.61,1.61,0,0,0,2.79,1.48,3.61,3.61,0,0,1,3.45,2.56c0,.1.05.2.07.3a3.83,3.83,0,0,1,1-.13,3.62,3.62,0,0,1,2.89,1.46,2.4,2.4,0,1,1,0,4.28,3.62,3.62,0,0,1-2.89,1.46,3.57,3.57,0,0,1-2-.63,13,13,0,0,0-8.8,3,3.59,3.59,0,0,1-3-1.56,3.67,3.67,0,0,1-1.58.37,3.59,3.59,0,0,0-6.36,1.62,3.71,3.71,0,0,1-1.3-.24,8.55,8.55,0,0,1-13.38-2,9.49,9.49,0,0,0-6.77,2,3.59,3.59,0,0,0-5.6-1.07,3.6,3.6,0,0,0-5.24-1.33,3.56,3.56,0,0,1-2.89-1.46,2.46,2.46,0,0,1-1.08.26,2.39,2.39,0,0,1-2.39-2.4A2.32,2.32,0,0,1,676.11,541.05Z"/><path class="cls-11" d="M541.84,463.36c-13.53-4.79-29.14-5.46-29.14-5.46a95,95,0,0,0-28.24,5.46c-24.86,8.8-56.6,26.49-56.59,40.47,0,21.56,13.53,17.5,20.72,11.67s34.67-28.56,63.84-28.56h1.43c29.18,0,56.66,22.72,63.85,28.56s20.69,9.89,20.71-11.67C598.44,489.85,566.69,472.16,541.84,463.36Z"/><line class="cls-12" x1="437.31" y1="504.58" x2="437.31" y2="504.58"/><path class="cls-13" d="M446.24,498c12.62-8.62,37.35-23,65.81-26.21,0,0,35.79,1.82,72,28.81"/><line class="cls-12" x1="588.44" y1="503.98" x2="588.44" y2="503.98"/><path class="cls-14" d="M419.1,560.09c-2.67,3.51-4.46,7.82-8,10.47-5,3.81-12.56,3.38-17.14,7.73-7.75,7.35-1.62,22.34-9.2,29.88-5.62,5.59-16.4,4.28-20.57,11-2.35,3.8-1.72,9.12-4.77,12.39-5.37,5.76-15.63-.28-22.67,3.22-6.4,3.18-7.43,12.83-13.9,15.84-4.37,2-9.53.21-14.31.86-5.84.8-10.65,5.33-13.31,10.6s-3.49,11.25-4.2,17.11c-.44,3.66-.94,7.57-3.38,10.33-2.23,2.51-5.72,3.65-7.86,6.24-3.72,4.49-1.69,11.75,2.77,15.5s10.53,4.86,16.3,5.65c26.26,3.57,52.88,3.32,79.38,3.06l136-1.33a1771.88,1771.88,0,0,0-4.72-181.45c-.27-3.48-.66-7.24-3-9.82-4-4.38-11.11-3-16.73-1.11A230.72,230.72,0,0,0,450.32,544c-5.62,3.18-12,9.37-18.1,11.28C426.93,557,423.44,554.41,419.1,560.09Z"/><path class="cls-14" d="M605.41,560.09c2.68,3.51,4.47,7.82,8,10.47,5,3.81,12.55,3.38,17.14,7.73,7.75,7.35,1.62,22.34,9.2,29.88,5.62,5.59,16.4,4.28,20.57,11,2.35,3.8,1.72,9.12,4.77,12.39,5.36,5.76,15.63-.28,22.67,3.22,6.39,3.18,7.43,12.83,13.9,15.84,4.37,2,9.53.21,14.3.86,5.85.8,10.66,5.33,13.32,10.6s3.49,11.25,4.2,17.11c.44,3.66.94,7.57,3.38,10.33,2.22,2.51,5.72,3.65,7.86,6.24,3.72,4.49,1.69,11.75-2.78,15.5s-10.52,4.86-16.3,5.65c-26.26,3.57-52.87,3.32-79.37,3.06l-136-1.33A1771.88,1771.88,0,0,1,515,537.21c.27-3.48.66-7.24,3-9.82,4-4.38,11.11-3,16.72-1.11A230.82,230.82,0,0,1,574.2,544c5.62,3.18,12,9.37,18.1,11.28C597.59,557,601.08,554.41,605.41,560.09Z"/><path class="cls-11" d="M495.08,552.73a32.24,32.24,0,0,1,.76-5.43,11,11,0,0,1,2.65-5.09,9.71,9.71,0,0,1,5.1-2.75,17.14,17.14,0,0,1,5.62-.12,51.06,51.06,0,0,1,10.46,2.94q5,1.82,10,3.86,9.93,4.08,19.45,9.07c1.58.83,3.16,1.68,4.72,2.55a51.64,51.64,0,0,1,4.65,2.8c3,2,5.79,4.23,8.73,6.14s6,3.58,9.34,3.79a26,26,0,0,1,5.51.67,9.09,9.09,0,0,1,2.67,1.4,9.28,9.28,0,0,1,1.09,1,9.67,9.67,0,0,1,1,1.06c2.36,2.92,3.87,6.19,6.09,8.74a12.68,12.68,0,0,0,3.85,3.07,26.84,26.84,0,0,0,4.79,1.83c1.69.51,3.43,1,5.17,1.62a16.6,16.6,0,0,1,5,2.76l.55.47.49.55c.32.36.65.72,1,1.1a15.29,15.29,0,0,1,1.43,2.51,20.72,20.72,0,0,1,1.54,5.4c.57,3.64.59,7.23,1,10.68a26.24,26.24,0,0,0,1,5c.13.4.32.76.47,1.15l.24.57a5.39,5.39,0,0,0,.3.52l.63,1,.78.92c2.14,2.42,5.45,3.6,8.81,4.62,1.69.52,3.42,1,5.15,1.69a16.42,16.42,0,0,1,5,2.8,11.18,11.18,0,0,1,3.29,4.86c.65,1.81,1,3.6,1.39,5.27a10.54,10.54,0,0,0,2,4.35,6.9,6.9,0,0,0,3.9,2.21,18.29,18.29,0,0,0,5,.18c1.73-.11,3.51-.33,5.34-.43a20.76,20.76,0,0,1,5.64.32,11,11,0,0,1,5.25,2.68c2.91,2.7,4.4,6.12,6.28,9a15.81,15.81,0,0,0,3.16,3.81,8.48,8.48,0,0,0,4.22,1.9c3.2.53,6.74-.31,10.56-.06a16.11,16.11,0,0,1,5.58,1.46,19.39,19.39,0,0,1,4.72,3.21,24.49,24.49,0,0,1,6.18,9.31,48.75,48.75,0,0,1,2.63,10.63c.58,3.56.71,7.2,1.7,10.32a9.62,9.62,0,0,0,2.37,4,27.82,27.82,0,0,0,4.13,3,12.79,12.79,0,0,1,4.22,4.11,10.4,10.4,0,0,1,1.35,5.88,14.84,14.84,0,0,1-5.15,10.27L722,725.83a12.15,12.15,0,0,0,4.22-8.32,7.84,7.84,0,0,0-1-4.39,10.11,10.11,0,0,0-3.4-3.24,31.57,31.57,0,0,1-4.5-3.3,12.17,12.17,0,0,1-3-5.1,29.43,29.43,0,0,1-1.09-5.47c-.22-1.79-.42-3.53-.68-5.28a46.4,46.4,0,0,0-2.45-10.08,21.89,21.89,0,0,0-5.51-8.37,17,17,0,0,0-4.07-2.8,13.46,13.46,0,0,0-4.7-1.23c-3.3-.27-6.89.6-10.78,0a11.87,11.87,0,0,1-2.86-.85c-.45-.22-.89-.48-1.33-.72s-.8-.59-1.21-.88a18.78,18.78,0,0,1-3.64-4.39c-1.95-3.08-3.45-6.34-5.83-8.52s-5.7-2.62-9.14-2.42c-1.73.09-3.49.31-5.31.42a20.42,20.42,0,0,1-5.65-.24,9.28,9.28,0,0,1-5.19-3,12.87,12.87,0,0,1-2.43-5.29,51.86,51.86,0,0,0-1.31-5.07,9,9,0,0,0-2.61-3.9,14,14,0,0,0-4.3-2.41c-1.59-.62-3.28-1.12-5-1.65a37.07,37.07,0,0,1-5.16-1.92,14.15,14.15,0,0,1-4.64-3.37l-1-1.12-.75-1.25c-.12-.21-.25-.42-.36-.63l-.27-.67c-.18-.44-.39-.88-.54-1.32a28.57,28.57,0,0,1-1.13-5.45c-.43-3.63-.44-7.19-1-10.6a18.42,18.42,0,0,0-1.36-4.85A13.83,13.83,0,0,0,612,596l-.8-.91-.4-.45-.46-.4c-2.48-2.12-5.94-2.94-9.36-4a29.26,29.26,0,0,1-5.17-2,15.1,15.1,0,0,1-4.44-3.57c-2.45-2.86-4-6.18-6.11-8.8a8,8,0,0,0-3.75-2.8,24.57,24.57,0,0,0-5.07-.6,16.11,16.11,0,0,1-5.46-1.44,35,35,0,0,1-4.8-2.69c-3-2-5.83-4.21-8.73-6.19-1.45-1-2.93-1.85-4.5-2.72s-3.11-1.71-4.68-2.54q-9.4-5-19.26-9-4.9-2-9.92-3.85A49.11,49.11,0,0,0,509,541.14a15.56,15.56,0,0,0-5,.09,7.9,7.9,0,0,0-4.18,2.22,9.16,9.16,0,0,0-2.22,4.28,30.45,30.45,0,0,0-.73,5.14Z"/><path class="cls-11" d="M488.14,548a32.57,32.57,0,0,1,1.81-5.18,11,11,0,0,1,3.6-4.47,9.71,9.71,0,0,1,5.54-1.69,17.06,17.06,0,0,1,5.53,1,50.09,50.09,0,0,1,9.68,4.94q4.61,2.76,9.07,5.74,8.93,6,17.28,12.71c1.4,1.13,2.77,2.27,4.14,3.43a52.64,52.64,0,0,1,4,3.65c2.54,2.58,4.85,5.29,7.35,7.74s5.17,4.68,8.42,5.55a25.67,25.67,0,0,1,5.27,1.73,9,9,0,0,1,2.34,1.9,10.94,10.94,0,0,1,.89,1.17,11.17,11.17,0,0,1,.73,1.24c1.75,3.32,2.58,6.82,4.26,9.76a12.68,12.68,0,0,0,3.17,3.77,27.14,27.14,0,0,0,4.35,2.73c1.55.83,3.16,1.63,4.74,2.6a16.41,16.41,0,0,1,4.33,3.68l.45.58.38.62c.24.43.49.84.72,1.27a14.53,14.53,0,0,1,.91,2.75,20.49,20.49,0,0,1,.45,5.6c-.15,3.67-.84,7.2-1.1,10.67a26.28,26.28,0,0,0,0,5.1c0,.42.15.81.23,1.22l.12.61c0,.19.13.38.2.57l.4,1.15.59,1.05c1.62,2.8,4.64,4.61,7.73,6.26,1.56.85,3.16,1.68,4.73,2.67a16.66,16.66,0,0,1,4.32,3.72,11.33,11.33,0,0,1,2.27,5.41c.28,1.9.24,3.72.33,5.44a10.66,10.66,0,0,0,1.07,4.66,6.94,6.94,0,0,0,3.38,2.93,18.76,18.76,0,0,0,4.87,1.15c1.72.23,3.5.36,5.32.62a21.54,21.54,0,0,1,5.47,1.42,11.06,11.06,0,0,1,4.62,3.67c2.32,3.21,3.12,6.86,4.39,10.05a16,16,0,0,0,2.35,4.36,8.62,8.62,0,0,0,3.76,2.69c3,1.14,6.68,1,10.37,2a16,16,0,0,1,5.19,2.53,19,19,0,0,1,4,4.07,24.47,24.47,0,0,1,4.23,10.34,48.53,48.53,0,0,1,.5,10.94c-.13,3.61-.72,7.2-.36,10.45a9.54,9.54,0,0,0,1.53,4.41,28.77,28.77,0,0,0,3.47,3.73,12.64,12.64,0,0,1,3.33,4.85,10.43,10.43,0,0,1,.18,6,14.87,14.87,0,0,1-7.07,9.06l-1.31-2.39a12.18,12.18,0,0,0,5.77-7.33,7.74,7.74,0,0,0-.1-4.5,10.05,10.05,0,0,0-2.69-3.85,29.73,29.73,0,0,1-3.77-4.11A12.23,12.23,0,0,1,674,736.9a29.71,29.71,0,0,1,0-5.58c.14-1.8.28-3.55.37-5.31a45.79,45.79,0,0,0-.43-10.36,22,22,0,0,0-3.76-9.29,16.52,16.52,0,0,0-3.44-3.54,13.43,13.43,0,0,0-4.36-2.14c-3.19-.91-6.87-.76-10.57-2.11a11.55,11.55,0,0,1-2.64-1.4c-.41-.3-.78-.64-1.16-1s-.68-.74-1-1.11a18.83,18.83,0,0,1-2.71-5c-1.31-3.41-2.13-6.89-4-9.5s-5.07-3.68-8.48-4.16c-1.71-.25-3.48-.39-5.29-.63a20.89,20.89,0,0,1-5.49-1.35,9.23,9.23,0,0,1-4.51-4,12.92,12.92,0,0,1-1.34-5.66c-.09-1.84-.05-3.6-.29-5.23a8.93,8.93,0,0,0-1.79-4.33,14.08,14.08,0,0,0-3.74-3.21c-1.45-.92-3-1.74-4.58-2.6a36.72,36.72,0,0,1-4.68-2.89,14.29,14.29,0,0,1-3.89-4.22l-.71-1.29-.49-1.37c-.07-.23-.17-.46-.23-.69l-.14-.7c-.09-.47-.2-.94-.26-1.41a28.73,28.73,0,0,1,0-5.56c.29-3.64,1-7.14,1.12-10.59a18.15,18.15,0,0,0-.38-5,13.09,13.09,0,0,0-.75-2.32l-.6-1-.31-.52-.37-.48c-2-2.56-5.25-4.05-8.4-5.75a28.2,28.2,0,0,1-4.67-3,14.93,14.93,0,0,1-3.66-4.37c-1.84-3.29-2.68-6.83-4.26-9.82a8.14,8.14,0,0,0-3.13-3.49,25.21,25.21,0,0,0-4.86-1.58,16.06,16.06,0,0,1-5.07-2.48,34.3,34.3,0,0,1-4.17-3.58c-2.58-2.54-4.9-5.27-7.35-7.78a50.57,50.57,0,0,0-3.88-3.55q-2-1.72-4.09-3.41-8.25-6.72-17.11-12.66-4.43-3-9-5.72a49.52,49.52,0,0,0-9.31-4.8,15.47,15.47,0,0,0-4.93-.9,7.93,7.93,0,0,0-4.54,1.36,9.38,9.38,0,0,0-3,3.76,30.45,30.45,0,0,0-1.71,4.9Z"/><path class="cls-11" d="M486.21,531.05a31.64,31.64,0,0,1,3.11-4.52,11,11,0,0,1,4.64-3.37,9.79,9.79,0,0,1,5.79-.18,17.08,17.08,0,0,1,5.08,2.4,50.2,50.2,0,0,1,8,7.31q3.72,3.87,7.24,7.92,7.07,8.08,13.35,16.8c1,1.45,2.08,2.92,3.09,4.39a53.81,53.81,0,0,1,2.91,4.58c1.77,3.16,3.29,6.38,5.06,9.4s3.76,5.87,6.67,7.56a25.48,25.48,0,0,1,4.63,3.06,8.92,8.92,0,0,1,1.76,2.44,11.52,11.52,0,0,1,.55,1.37,11.82,11.82,0,0,1,.38,1.38c.81,3.67.7,7.27,1.55,10.54a12.78,12.78,0,0,0,2.07,4.47,27.86,27.86,0,0,0,3.47,3.78c1.28,1.21,2.63,2.4,3.9,3.75a16.14,16.14,0,0,1,3.21,4.69l.29.67.19.71c.13.47.26.94.37,1.41a14.8,14.8,0,0,1,.16,2.89,20.67,20.67,0,0,1-1,5.52c-1.11,3.5-2.7,6.73-3.86,10a26.68,26.68,0,0,0-1.3,4.94c-.06.41-.06.82-.09,1.23l0,.62c0,.2,0,.4,0,.6l.1,1.22.29,1.17c.83,3.12,3.27,5.66,5.81,8.07,1.28,1.22,2.61,2.45,3.86,3.81a16.43,16.43,0,0,1,3.2,4.73,11.42,11.42,0,0,1,.77,5.82c-.23,1.9-.75,3.65-1.11,5.33a10.52,10.52,0,0,0-.19,4.77,6.89,6.89,0,0,0,2.49,3.72,18.65,18.65,0,0,0,4.39,2.39c1.61.67,3.29,1.27,5,2a21.54,21.54,0,0,1,4.9,2.8,11.17,11.17,0,0,1,3.5,4.75c1.39,3.71,1.2,7.44,1.59,10.86a15.83,15.83,0,0,0,1.13,4.81,8.5,8.5,0,0,0,2.92,3.59c2.63,1.9,6.18,2.74,9.48,4.66a16.3,16.3,0,0,1,4.35,3.8,19.69,19.69,0,0,1,2.78,5A24.61,24.61,0,0,1,624,741.79a48.94,48.94,0,0,1-2.4,10.69c-1.07,3.45-2.58,6.76-3.09,10a9.67,9.67,0,0,0,.32,4.65,27.76,27.76,0,0,0,2.37,4.51,12.67,12.67,0,0,1,1.94,5.56,10.51,10.51,0,0,1-1.41,5.87,14.85,14.85,0,0,1-9.2,6.88l-.64-2.65a12.13,12.13,0,0,0,7.49-5.56,7.77,7.77,0,0,0,1.09-4.36,10.06,10.06,0,0,0-1.59-4.42,30.75,30.75,0,0,1-2.55-5,12.14,12.14,0,0,1-.42-5.9,29.64,29.64,0,0,1,1.47-5.39c.6-1.69,1.2-3.34,1.75-5a46.34,46.34,0,0,0,2.31-10.11,22.16,22.16,0,0,0-1.19-9.95,16.72,16.72,0,0,0-2.4-4.32,13.61,13.61,0,0,0-3.64-3.21c-2.84-1.72-6.44-2.54-9.65-4.81a12,12,0,0,1-2.18-2c-.31-.4-.58-.82-.87-1.24s-.46-.88-.68-1.33a18.34,18.34,0,0,1-1.3-5.55c-.38-3.63-.26-7.21-1.42-10.23s-3.93-4.88-7.09-6.24c-1.59-.69-3.26-1.29-4.95-2a20.83,20.83,0,0,1-4.94-2.74,9.26,9.26,0,0,1-3.3-5,12.75,12.75,0,0,1,.19-5.82c.4-1.8.89-3.48,1.09-5.12a9.06,9.06,0,0,0-.59-4.65,14.46,14.46,0,0,0-2.77-4.08c-1.15-1.27-2.44-2.47-3.74-3.71a38.05,38.05,0,0,1-3.76-4,14.37,14.37,0,0,1-2.64-5.09l-.34-1.43-.12-1.45c0-.24,0-.48,0-.72l.05-.72c0-.48,0-1,.12-1.43a28.94,28.94,0,0,1,1.42-5.38c1.23-3.43,2.81-6.62,3.86-9.92a18,18,0,0,0,.95-4.94,13.22,13.22,0,0,0-.11-2.44l-.31-1.17-.15-.58-.24-.56c-1.27-3-4-5.29-6.59-7.75a28.65,28.65,0,0,1-3.73-4.09,14.7,14.7,0,0,1-2.38-5.18c-.92-3.66-.8-7.3-1.54-10.6a8.08,8.08,0,0,0-2.1-4.18,24.58,24.58,0,0,0-4.28-2.8,16.62,16.62,0,0,1-4.24-3.73,35.74,35.74,0,0,1-3.09-4.55c-1.82-3.13-3.33-6.37-5-9.44a50,50,0,0,0-2.81-4.44c-1-1.47-2-2.92-3-4.36q-6.2-8.65-13.19-16.71-3.48-4-7.15-7.88a50.26,50.26,0,0,0-7.72-7.07,15.32,15.32,0,0,0-4.53-2.16,7.86,7.86,0,0,0-4.73.12,9.2,9.2,0,0,0-3.9,2.84,30.09,30.09,0,0,0-2.94,4.27Z"/><path class="cls-11" d="M506.66,505.38a32.51,32.51,0,0,1,4.41-3.27,10.93,10.93,0,0,1,5.49-1.67,9.64,9.64,0,0,1,5.53,1.71,17.26,17.26,0,0,1,4,3.92,51.87,51.87,0,0,1,5.23,9.52q2.25,4.88,4.27,9.85,4,9.94,7.15,20.23.78,2.57,1.5,5.15a53.46,53.46,0,0,1,1.27,5.28c.64,3.56,1,7.1,1.73,10.53s1.65,6.78,3.85,9.32a25.7,25.7,0,0,1,3.38,4.4,9,9,0,0,1,.87,2.88,10.41,10.41,0,0,1,.07,1.47,11.22,11.22,0,0,1-.08,1.43c-.43,3.73-1.7,7.1-2,10.47a12.84,12.84,0,0,0,.5,4.9,27,27,0,0,0,2.06,4.71c.82,1.56,1.7,3.13,2.46,4.81a16.46,16.46,0,0,1,1.52,5.48l0,.73,0,.73c0,.48-.06,1-.11,1.46a16.41,16.41,0,0,1-.8,2.78,20.49,20.49,0,0,1-2.77,4.88c-2.19,2.95-4.75,5.49-6.9,8.21a25.81,25.81,0,0,0-2.84,4.25c-.19.37-.32.76-.49,1.14l-.24.56c-.07.2-.1.4-.16.59l-.31,1.18-.1,1.2c-.23,3.22,1.25,6.42,2.87,9.53.81,1.57,1.67,3.16,2.41,4.85A16.23,16.23,0,0,1,552,664.1a11.37,11.37,0,0,1-1.16,5.76c-.84,1.72-1.9,3.21-2.79,4.68a10.55,10.55,0,0,0-1.73,4.45,6.87,6.87,0,0,0,1.16,4.33,18.38,18.38,0,0,0,3.37,3.68c1.3,1.16,2.7,2.27,4,3.51a21,21,0,0,1,3.73,4.25,11.08,11.08,0,0,1,1.76,5.62c.12,4-1.27,7.43-2,10.79a16.13,16.13,0,0,0-.5,4.92,8.61,8.61,0,0,0,1.6,4.34c1.87,2.65,4.95,4.6,7.45,7.49a16.24,16.24,0,0,1,2.87,5,19.34,19.34,0,0,1,1,5.62,24.58,24.58,0,0,1-2.3,10.92,49,49,0,0,1-5.75,9.34c-2.13,2.91-4.64,5.54-6.16,8.44a9.49,9.49,0,0,0-1.21,4.5,27.88,27.88,0,0,0,.77,5,12.58,12.58,0,0,1,0,5.89,10.41,10.41,0,0,1-3.24,5.09A14.81,14.81,0,0,1,542,791.28l.26-2.71a12.18,12.18,0,0,0,8.89-2.82,7.82,7.82,0,0,0,2.45-3.77,10.13,10.13,0,0,0-.07-4.7,30.28,30.28,0,0,1-.8-5.52,12.23,12.23,0,0,1,1.52-5.73,30.61,30.61,0,0,1,3.14-4.61c1.12-1.41,2.22-2.78,3.29-4.18a46.65,46.65,0,0,0,5.47-8.82,22,22,0,0,0,2.11-9.79,16.94,16.94,0,0,0-.86-4.87,13.37,13.37,0,0,0-2.41-4.21c-2.12-2.55-5.25-4.5-7.55-7.69a11.93,11.93,0,0,1-1.41-2.64c-.16-.47-.28-1-.41-1.45s-.15-1-.22-1.48a18.2,18.2,0,0,1,.58-5.67c.82-3.56,2.1-6.9,2-10.14s-2.12-5.89-4.68-8.21c-1.27-1.17-2.66-2.27-4-3.49a20.73,20.73,0,0,1-3.79-4.2,9.27,9.27,0,0,1-1.49-5.81,12.82,12.82,0,0,1,2.07-5.44c1-1.56,2-3,2.69-4.48a9,9,0,0,0,1-4.59,14.47,14.47,0,0,0-1.3-4.76c-.68-1.58-1.51-3.13-2.33-4.72a37.6,37.6,0,0,1-2.24-5,14.22,14.22,0,0,1-.85-5.67l.14-1.46.37-1.41c.06-.23.11-.48.19-.7l.28-.66c.19-.44.36-.89.57-1.31a28.11,28.11,0,0,1,3.1-4.63c2.28-2.85,4.81-5.35,6.88-8.12a18.59,18.59,0,0,0,2.5-4.37,12.88,12.88,0,0,0,.68-2.35l.09-1.2.05-.6,0-.61c-.23-3.25-2.07-6.3-3.72-9.47a29,29,0,0,1-2.2-5.08,15,15,0,0,1-.56-5.67c.32-3.76,1.62-7.16,2-10.53a8.13,8.13,0,0,0-.63-4.64,25.46,25.46,0,0,0-3.14-4,16.17,16.17,0,0,1-2.79-4.91,33.87,33.87,0,0,1-1.44-5.3c-.71-3.56-1.09-7.12-1.71-10.57a52,52,0,0,0-1.21-5.12c-.48-1.71-1-3.41-1.47-5.11q-3.06-10.2-7-20.09-2-4.93-4.21-9.77a48.71,48.71,0,0,0-5-9.2,15.09,15.09,0,0,0-3.57-3.52,7.91,7.91,0,0,0-4.52-1.42,9.23,9.23,0,0,0-4.61,1.41,30.74,30.74,0,0,0-4.17,3.09Z"/><path class="cls-11" d="M528.84,552.87a30.45,30.45,0,0,0-.72-5.14,9.16,9.16,0,0,0-2.22-4.28,7.9,7.9,0,0,0-4.18-2.22,15.56,15.56,0,0,0-5-.09A48.93,48.93,0,0,0,506.64,544q-5,1.8-9.92,3.85-9.84,4.08-19.26,9-2.35,1.25-4.68,2.54c-1.57.87-3,1.72-4.5,2.72-2.9,2-5.7,4.2-8.74,6.19a34.32,34.32,0,0,1-4.79,2.69,16.11,16.11,0,0,1-5.46,1.44,24.57,24.57,0,0,0-5.07.6,8.09,8.09,0,0,0-3.76,2.8c-2.13,2.62-3.65,5.94-6.1,8.8a15,15,0,0,1-4.45,3.57,29.17,29.17,0,0,1-5.16,2c-3.42,1.05-6.88,1.87-9.36,4l-.46.4-.4.45-.8.91a13.83,13.83,0,0,0-1.19,2.13,18.42,18.42,0,0,0-1.36,4.85c-.53,3.41-.54,7-1,10.6a29.36,29.36,0,0,1-1.13,5.45c-.15.44-.36.88-.54,1.32l-.28.67c-.1.21-.24.42-.35.63l-.75,1.25-1,1.12a14.25,14.25,0,0,1-4.64,3.37,38,38,0,0,1-5.16,1.92c-1.71.53-3.4,1-5,1.65a14.2,14.2,0,0,0-4.3,2.41,8.93,8.93,0,0,0-2.6,3.9,51.86,51.86,0,0,0-1.31,5.07,12.87,12.87,0,0,1-2.43,5.29,9.31,9.31,0,0,1-5.19,3,20.42,20.42,0,0,1-5.65.24c-1.82-.11-3.59-.33-5.31-.42-3.44-.2-6.82.16-9.14,2.42s-3.88,5.44-5.83,8.52A18.59,18.59,0,0,1,346,665.8c-.4.29-.79.6-1.2.88s-.88.5-1.33.72a12,12,0,0,1-2.86.85c-3.9.6-7.48-.27-10.79,0a13.46,13.46,0,0,0-4.69,1.23,16.77,16.77,0,0,0-4.07,2.8,21.89,21.89,0,0,0-5.51,8.37,46.4,46.4,0,0,0-2.45,10.08c-.26,1.75-.46,3.49-.68,5.28a30.26,30.26,0,0,1-1.09,5.47,12.19,12.19,0,0,1-3,5.1,30.48,30.48,0,0,1-4.5,3.3,10.07,10.07,0,0,0-3.39,3.24,7.84,7.84,0,0,0-1,4.39,12.15,12.15,0,0,0,4.22,8.32l-1.75,2.09a14.85,14.85,0,0,1-5.16-10.27,10.49,10.49,0,0,1,1.36-5.88,12.7,12.7,0,0,1,4.22-4.11,27.82,27.82,0,0,0,4.13-3,9.62,9.62,0,0,0,2.37-4c1-3.12,1.11-6.76,1.7-10.32a48.19,48.19,0,0,1,2.63-10.63,24.49,24.49,0,0,1,6.18-9.31,19.14,19.14,0,0,1,4.71-3.21,16.23,16.23,0,0,1,5.59-1.46c3.81-.25,7.36.59,10.56.06a8.48,8.48,0,0,0,4.22-1.9,16.29,16.29,0,0,0,3.16-3.81c1.87-2.88,3.37-6.3,6.28-9a11,11,0,0,1,5.24-2.68,20.86,20.86,0,0,1,5.65-.32c1.83.1,3.6.32,5.34.43a18.29,18.29,0,0,0,5-.18,6.9,6.9,0,0,0,3.9-2.21,10.54,10.54,0,0,0,2-4.35c.43-1.67.74-3.46,1.39-5.27a11.24,11.24,0,0,1,3.28-4.86,16.58,16.58,0,0,1,5-2.8c1.73-.66,3.46-1.17,5.15-1.69,3.36-1,6.67-2.2,8.81-4.62l.78-.92.63-1a5.39,5.39,0,0,0,.3-.52l.24-.57c.15-.39.34-.75.47-1.15a26.24,26.24,0,0,0,1-5c.43-3.45.45-7,1-10.68a20.72,20.72,0,0,1,1.54-5.4,15.23,15.23,0,0,1,1.42-2.51c.31-.38.65-.74,1-1.1l.49-.55.55-.47a16.6,16.6,0,0,1,5-2.76c1.74-.64,3.48-1.11,5.16-1.62a26.66,26.66,0,0,0,4.8-1.83,12.68,12.68,0,0,0,3.85-3.07c2.22-2.55,3.73-5.82,6.09-8.74a10.68,10.68,0,0,1,1-1.06,10.26,10.26,0,0,1,1.1-1,9.16,9.16,0,0,1,2.66-1.4,26.16,26.16,0,0,1,5.52-.67c3.35-.21,6.4-1.89,9.34-3.79s5.73-4.11,8.72-6.14a53.23,53.23,0,0,1,4.66-2.8c1.56-.87,3.14-1.72,4.72-2.55q9.51-5,19.45-9.07,5-2,10-3.86a51.06,51.06,0,0,1,10.46-2.94,17.14,17.14,0,0,1,5.62.12,9.71,9.71,0,0,1,5.1,2.75,11,11,0,0,1,2.65,5.09,32.24,32.24,0,0,1,.76,5.43Z"/><path class="cls-11" d="M535.84,548.51a30.45,30.45,0,0,0-1.71-4.9,9.32,9.32,0,0,0-3-3.76,7.87,7.87,0,0,0-4.53-1.36,15.47,15.47,0,0,0-4.93.9,49.52,49.52,0,0,0-9.31,4.8c-3,1.84-6,3.75-9,5.72q-8.85,5.94-17.11,12.66-2.07,1.68-4.09,3.41a50.57,50.57,0,0,0-3.88,3.55c-2.46,2.51-4.77,5.24-7.35,7.78a34.3,34.3,0,0,1-4.17,3.58,16.16,16.16,0,0,1-5.07,2.48,25.21,25.21,0,0,0-4.86,1.58,8.14,8.14,0,0,0-3.13,3.49c-1.58,3-2.42,6.53-4.27,9.82a14.89,14.89,0,0,1-3.65,4.37,28.2,28.2,0,0,1-4.67,3c-3.15,1.7-6.39,3.19-8.4,5.75l-.38.48-.3.52-.6,1a12.32,12.32,0,0,0-.75,2.32,18.54,18.54,0,0,0-.39,5c.16,3.45.84,7,1.13,10.59a28.73,28.73,0,0,1,0,5.56c-.06.47-.18.94-.26,1.41l-.15.7c-.05.23-.15.46-.22.69l-.49,1.37-.71,1.29a14.29,14.29,0,0,1-3.89,4.22,36.72,36.72,0,0,1-4.68,2.89c-1.57.86-3.13,1.68-4.58,2.6a14.08,14.08,0,0,0-3.74,3.21,8.93,8.93,0,0,0-1.79,4.33c-.24,1.63-.21,3.39-.29,5.23a12.8,12.8,0,0,1-1.35,5.66,9.21,9.21,0,0,1-4.5,4,20.89,20.89,0,0,1-5.49,1.35c-1.81.24-3.58.38-5.29.63-3.41.48-6.66,1.49-8.48,4.16s-2.74,6.09-4.06,9.5a18.28,18.28,0,0,1-2.71,5c-.33.37-.65.76-1,1.11s-.76.66-1.16,1a11.76,11.76,0,0,1-2.64,1.4c-3.7,1.35-7.38,1.2-10.57,2.11a13.43,13.43,0,0,0-4.36,2.14,16.8,16.8,0,0,0-3.45,3.54,22.07,22.07,0,0,0-3.75,9.29,45.79,45.79,0,0,0-.43,10.36c.09,1.76.23,3.51.37,5.31a29.71,29.71,0,0,1,0,5.58,12.23,12.23,0,0,1-1.95,5.59A30.37,30.37,0,0,1,346,746.6a10.05,10.05,0,0,0-2.69,3.85,7.74,7.74,0,0,0-.1,4.5,12.15,12.15,0,0,0,5.77,7.33l-1.31,2.39a14.83,14.83,0,0,1-7.07-9.06,10.43,10.43,0,0,1,.18-6,12.64,12.64,0,0,1,3.33-4.85,28.77,28.77,0,0,0,3.47-3.73,9.65,9.65,0,0,0,1.53-4.41c.36-3.25-.23-6.84-.36-10.45a49.11,49.11,0,0,1,.49-10.94,24.62,24.62,0,0,1,4.24-10.34,19,19,0,0,1,4-4.07,15.86,15.86,0,0,1,5.19-2.53c3.69-1,7.33-.87,10.37-2a8.62,8.62,0,0,0,3.76-2.69,16,16,0,0,0,2.35-4.36c1.27-3.19,2.07-6.84,4.39-10.05a11.06,11.06,0,0,1,4.62-3.67,21.44,21.44,0,0,1,5.47-1.42c1.82-.26,3.6-.39,5.32-.62a18.59,18.59,0,0,0,4.86-1.15,6.92,6.92,0,0,0,3.39-2.93,10.66,10.66,0,0,0,1.07-4.66c.09-1.72.05-3.54.33-5.44a11.24,11.24,0,0,1,2.27-5.41,16.5,16.5,0,0,1,4.32-3.72c1.57-1,3.17-1.82,4.72-2.67,3.1-1.65,6.12-3.46,7.74-6.26l.58-1.05.41-1.15c.07-.19.15-.38.2-.57l.12-.61c.07-.41.18-.8.23-1.22a26.28,26.28,0,0,0,.05-5.1c-.26-3.47-1-7-1.11-10.67a20.9,20.9,0,0,1,.46-5.6,15.24,15.24,0,0,1,.9-2.75c.23-.43.49-.84.73-1.27l.38-.62L431,610a16.41,16.41,0,0,1,4.33-3.68c1.57-1,3.19-1.77,4.74-2.6a27.14,27.14,0,0,0,4.35-2.73,13,13,0,0,0,3.17-3.77c1.68-2.94,2.51-6.44,4.26-9.76a9.81,9.81,0,0,1,.73-1.24,10.94,10.94,0,0,1,.89-1.17,9,9,0,0,1,2.33-1.9,26,26,0,0,1,5.28-1.73c3.25-.87,5.91-3.11,8.42-5.55s4.81-5.16,7.35-7.74a50.81,50.81,0,0,1,4-3.65c1.37-1.16,2.74-2.3,4.13-3.43q8.36-6.75,17.29-12.71,4.47-3,9.07-5.74a50.29,50.29,0,0,1,9.67-4.94,17.12,17.12,0,0,1,5.54-1,9.74,9.74,0,0,1,5.54,1.69,11,11,0,0,1,3.6,4.47,32.51,32.51,0,0,1,1.8,5.18Z"/><path class="cls-11" d="M538,532a30.09,30.09,0,0,0-2.94-4.27,9.2,9.2,0,0,0-3.9-2.84,7.86,7.86,0,0,0-4.73-.12,15.32,15.32,0,0,0-4.53,2.16,50.26,50.26,0,0,0-7.72,7.07q-3.66,3.85-7.16,7.88-7,8-13.18,16.71-1.56,2.16-3.06,4.36a52.28,52.28,0,0,0-2.8,4.44c-1.72,3.07-3.23,6.31-5.06,9.44a34.65,34.65,0,0,1-3.08,4.55,16.62,16.62,0,0,1-4.24,3.73,24.58,24.58,0,0,0-4.28,2.8,8,8,0,0,0-2.1,4.18c-.74,3.3-.62,6.94-1.54,10.6a15.06,15.06,0,0,1-2.38,5.18,28.65,28.65,0,0,1-3.73,4.09c-2.59,2.46-5.32,4.75-6.59,7.75l-.24.56-.15.58-.31,1.17a14.15,14.15,0,0,0-.12,2.44,18.76,18.76,0,0,0,.95,4.94c1.06,3.3,2.64,6.49,3.87,9.92a28.94,28.94,0,0,1,1.42,5.38c.07.47.08,1,.12,1.43l0,.72a5.79,5.79,0,0,1,0,.72l-.11,1.45-.34,1.43a14.23,14.23,0,0,1-2.65,5.09,37,37,0,0,1-3.75,4c-1.3,1.24-2.59,2.44-3.74,3.71a14.25,14.25,0,0,0-2.77,4.08,9,9,0,0,0-.59,4.65c.2,1.64.69,3.32,1.09,5.12a12.75,12.75,0,0,1,.19,5.82,9.26,9.26,0,0,1-3.3,5,20.69,20.69,0,0,1-4.95,2.74c-1.68.71-3.35,1.31-4.94,2-3.17,1.36-6,3.19-7.09,6.24s-1,6.6-1.42,10.23a18.34,18.34,0,0,1-1.3,5.55c-.22.45-.43.9-.68,1.33s-.56.84-.87,1.24a12,12,0,0,1-2.18,2c-3.22,2.27-6.81,3.09-9.65,4.81a13.61,13.61,0,0,0-3.64,3.21,16.72,16.72,0,0,0-2.4,4.32,22,22,0,0,0-1.19,9.95,46.34,46.34,0,0,0,2.31,10.11c.55,1.68,1.15,3.33,1.75,5a29.64,29.64,0,0,1,1.47,5.39,12.14,12.14,0,0,1-.42,5.9,30,30,0,0,1-2.56,5,10.16,10.16,0,0,0-1.58,4.42,7.69,7.69,0,0,0,1.09,4.36,12.13,12.13,0,0,0,7.48,5.56l-.63,2.65a14.85,14.85,0,0,1-9.2-6.88,10.43,10.43,0,0,1-1.41-5.87,12.67,12.67,0,0,1,1.94-5.56,28.57,28.57,0,0,0,2.37-4.51,9.67,9.67,0,0,0,.32-4.65c-.51-3.23-2-6.54-3.09-10a48.94,48.94,0,0,1-2.4-10.69A24.74,24.74,0,0,1,403,730.7a19.73,19.73,0,0,1,2.79-5,16.15,16.15,0,0,1,4.35-3.8c3.3-1.92,6.84-2.76,9.47-4.66a8.53,8.53,0,0,0,2.93-3.59,16.12,16.12,0,0,0,1.12-4.81c.39-3.42.21-7.15,1.6-10.86a11.17,11.17,0,0,1,3.5-4.75,21.33,21.33,0,0,1,4.9-2.8c1.69-.73,3.37-1.33,5-2a18.38,18.38,0,0,0,4.38-2.39,6.86,6.86,0,0,0,2.5-3.72,10.66,10.66,0,0,0-.19-4.77c-.36-1.68-.88-3.43-1.11-5.33a11.32,11.32,0,0,1,.77-5.82,16.23,16.23,0,0,1,3.2-4.73c1.25-1.36,2.58-2.59,3.85-3.81,2.55-2.41,5-5,5.82-8.07l.29-1.17.09-1.22c0-.2.05-.4,0-.6l0-.62c0-.41,0-.82-.09-1.23a26.68,26.68,0,0,0-1.3-4.94c-1.16-3.28-2.75-6.51-3.87-10a21.06,21.06,0,0,1-1-5.52,14.8,14.8,0,0,1,.16-2.89c.1-.47.24-.94.37-1.41l.19-.71.29-.67a16.14,16.14,0,0,1,3.21-4.69c1.27-1.35,2.62-2.54,3.9-3.75a27.86,27.86,0,0,0,3.47-3.78,12.78,12.78,0,0,0,2.07-4.47c.85-3.27.74-6.87,1.55-10.54a11.82,11.82,0,0,1,.38-1.38,11.52,11.52,0,0,1,.55-1.37,8.92,8.92,0,0,1,1.76-2.44,25.48,25.48,0,0,1,4.63-3.06c2.91-1.69,4.88-4.55,6.67-7.56s3.29-6.24,5.06-9.4a53.81,53.81,0,0,1,2.91-4.58c1-1.47,2-2.94,3.09-4.39q6.28-8.7,13.34-16.8,3.54-4.05,7.24-7.92a50.7,50.7,0,0,1,8.05-7.31,17.08,17.08,0,0,1,5.08-2.4,9.79,9.79,0,0,1,5.79.18,11,11,0,0,1,4.64,3.37,31.64,31.64,0,0,1,3.11,4.52Z"/><path class="cls-11" d="M517.89,506.73a30.74,30.74,0,0,0-4.17-3.09,9.3,9.3,0,0,0-4.62-1.41,7.9,7.9,0,0,0-4.51,1.42,15.32,15.32,0,0,0-3.58,3.52,49.87,49.87,0,0,0-5,9.2q-2.2,4.83-4.21,9.77-4,9.89-7,20.09-.76,2.55-1.47,5.11a52,52,0,0,0-1.21,5.12c-.62,3.45-1,7-1.71,10.57a33.87,33.87,0,0,1-1.44,5.3,16,16,0,0,1-2.8,4.91,25.36,25.36,0,0,0-3.13,4,8.13,8.13,0,0,0-.63,4.64c.37,3.37,1.67,6.77,2,10.53a15,15,0,0,1-.56,5.67,29.72,29.72,0,0,1-2.2,5.08c-1.65,3.17-3.49,6.22-3.72,9.47l0,.61.05.6.08,1.2a13.76,13.76,0,0,0,.69,2.35,18.59,18.59,0,0,0,2.5,4.37c2.07,2.77,4.6,5.27,6.88,8.12a27.45,27.45,0,0,1,3.09,4.63c.22.42.39.87.58,1.31l.28.66c.08.22.13.47.19.7l.37,1.41.14,1.46a14.4,14.4,0,0,1-.85,5.67,36.4,36.4,0,0,1-2.25,5c-.81,1.59-1.65,3.14-2.32,4.72a14.47,14.47,0,0,0-1.3,4.76,9,9,0,0,0,1,4.59c.72,1.48,1.73,2.92,2.69,4.48a12.82,12.82,0,0,1,2.07,5.44,9.27,9.27,0,0,1-1.49,5.81,21,21,0,0,1-3.79,4.2c-1.36,1.22-2.75,2.32-4,3.49-2.56,2.32-4.67,5-4.68,8.21s1.15,6.58,2,10.14a18.2,18.2,0,0,1,.58,5.67c-.07.49-.12,1-.22,1.48s-.25,1-.42,1.45a11.5,11.5,0,0,1-1.4,2.64c-2.3,3.19-5.43,5.14-7.56,7.69a13.54,13.54,0,0,0-2.4,4.21,16.61,16.61,0,0,0-.86,4.87,22,22,0,0,0,2.11,9.79,46.14,46.14,0,0,0,5.47,8.82c1.06,1.4,2.17,2.77,3.29,4.18a30.61,30.61,0,0,1,3.14,4.61,12.35,12.35,0,0,1,1.52,5.73,30.25,30.25,0,0,1-.81,5.52,10.25,10.25,0,0,0-.06,4.7,7.82,7.82,0,0,0,2.45,3.77,12.15,12.15,0,0,0,8.89,2.82l.26,2.71a14.81,14.81,0,0,1-10.94-3.52,10.41,10.41,0,0,1-3.24-5.09,12.58,12.58,0,0,1,0-5.89,27.88,27.88,0,0,0,.77-5,9.49,9.49,0,0,0-1.21-4.5c-1.53-2.9-4-5.53-6.17-8.44a49.47,49.47,0,0,1-5.74-9.34,24.58,24.58,0,0,1-2.3-10.92,19.67,19.67,0,0,1,1-5.62,16.27,16.27,0,0,1,2.88-5c2.49-2.89,5.58-4.84,7.44-7.49a8.53,8.53,0,0,0,1.61-4.34,15.84,15.84,0,0,0-.51-4.92c-.74-3.36-2.13-6.83-2-10.79a11.08,11.08,0,0,1,1.76-5.62,21,21,0,0,1,3.73-4.25c1.35-1.24,2.75-2.35,4.05-3.51a18.38,18.38,0,0,0,3.37-3.68,6.93,6.93,0,0,0,1.16-4.33,10.82,10.82,0,0,0-1.73-4.45c-.89-1.47-1.95-3-2.79-4.68a11.37,11.37,0,0,1-1.16-5.76,16.23,16.23,0,0,1,1.49-5.51c.74-1.69,1.59-3.28,2.4-4.85,1.63-3.11,3.11-6.31,2.88-9.53l-.1-1.2-.31-1.18c-.06-.19-.09-.39-.16-.59l-.24-.56c-.17-.38-.3-.77-.49-1.14a26.45,26.45,0,0,0-2.84-4.25c-2.16-2.72-4.71-5.26-6.9-8.21a20.87,20.87,0,0,1-2.78-4.88,16.38,16.38,0,0,1-.79-2.78c0-.49-.07-1-.11-1.46l0-.73.05-.73a16.22,16.22,0,0,1,1.52-5.48c.76-1.68,1.64-3.25,2.46-4.81a27.72,27.72,0,0,0,2.06-4.71,12.84,12.84,0,0,0,.5-4.9c-.26-3.37-1.53-6.74-2-10.47a9.64,9.64,0,0,1-.08-1.43,10.41,10.41,0,0,1,.07-1.47,9,9,0,0,1,.87-2.88,25.7,25.7,0,0,1,3.38-4.4c2.2-2.54,3.14-5.89,3.85-9.32s1.08-7,1.73-10.53a53.46,53.46,0,0,1,1.27-5.28q.72-2.58,1.49-5.15,3.12-10.27,7.16-20.23,2-5,4.27-9.85a51.28,51.28,0,0,1,5.23-9.52,17.07,17.07,0,0,1,4-3.92,9.64,9.64,0,0,1,5.53-1.71,11,11,0,0,1,5.49,1.67,32.51,32.51,0,0,1,4.41,3.27Z"/><path class="cls-11" d="M627.38,707.19a149.4,149.4,0,0,0-19.8-7c-11.77-3.53-23.61-7.07-35.8-8.61-18.06-2.29-36.41-.13-54.55-1.4v-4.3h-9.05v4.38c-17.65,1.07-35.48-.91-53,1.32-12.2,1.54-24,5.08-35.81,8.61a149.77,149.77,0,0,0-19.79,7c-5.49,2.54-15.15,6.91-18,12.35,2.76,3,12.11.3,16,.09,6.11-.34,12.23-.44,18.34-.4,12.08.08,24.15.74,36.2,1.41,18.88,1.05,38,2.14,56.12,7.26v5.44h9.05v-5c18.61-5.5,38.23-6.62,57.62-7.7,12.06-.67,24.13-1.33,36.21-1.41,6.11,0,12.23.06,18.34.4,3.88.21,13.23,2.88,16-.09C642.53,714.1,632.87,709.73,627.38,707.19Z"/><path class="cls-15" d="M585.79,557.15l-.73-15a6.11,6.11,0,0,0-1.64-3.86L576.64,531a5.93,5.93,0,0,0-.73-.68l-8.43-6.77a5.75,5.75,0,0,1-.8-.76l-14-15.63A7.06,7.06,0,0,0,549,505l-8.21-1.83a6.69,6.69,0,0,1-5.07-4.56h0A7,7,0,0,0,527.4,494l-12.22,2.72a7.69,7.69,0,0,1-3.24,0L499.71,494a7,7,0,0,0-8.3,4.56h0a6.69,6.69,0,0,1-5.07,4.56L478.13,505a7.06,7.06,0,0,0-3.72,2.14l-14,15.63a5.75,5.75,0,0,1-.8.76l-8.44,6.77a7.83,7.83,0,0,0-.73.68l-6.77,7.34a6.13,6.13,0,0,0-1.65,3.86l-.72,15a5.22,5.22,0,0,0,.08,1.31l5.41,30.94a51.35,51.35,0,0,0,4.08,15.05,3,3,0,0,1,.15.38c.86,2.45,11.06,29.88,46.61,52.32q4.15,2.63,8.77,5.14l.09.05a23.74,23.74,0,0,0,14.59-.16,8.93,8.93,0,0,0,.85-.35c1.31-.65,3.19-1.63,5.5-3a123.76,123.76,0,0,0,46.21-49.26c.76-1.36,1.61-3,2.44-4.91l0,0h0a51.45,51.45,0,0,0,4.18-15.25l5.41-30.94A6.37,6.37,0,0,0,585.79,557.15Z"/><path class="cls-15" d="M448.65,571h0a11.5,11.5,0,0,0-6.46-3.3,27,27,0,0,0-7-.09,10,10,0,0,0-3.27.61c-3,1.27-4.13,5.07-4.16,8.5A22.17,22.17,0,0,0,431.38,589h0l.18.26a18.8,18.8,0,0,0,3.13,3.58l.42.36a26.38,26.38,0,0,0,12.59,6.65,4.22,4.22,0,0,0,5.05-3.71C453.4,589.28,453.93,575.9,448.65,571Z"/><path class="cls-14" d="M444,593.22a22.93,22.93,0,0,1-11-10.63c-.29-.59-.56-1.19-.8-1.8a10.33,10.33,0,0,1-.59-2.06,5.87,5.87,0,0,1,.05-2.46,4.43,4.43,0,0,1,1.52-2.38,6.07,6.07,0,0,1,2.26-1.08,10,10,0,0,1,2.17-.33,6.8,6.8,0,0,1,4.62,1.36L440,576.58a3.42,3.42,0,0,0-2.27-.7,5,5,0,0,0-2.52.57,1.17,1.17,0,0,0-.45.63,2.83,2.83,0,0,0-.05,1.19,12.19,12.19,0,0,0,1,3.07,20.34,20.34,0,0,0,9.32,9.8Z"/><path class="cls-15" d="M578.37,571h0a11.5,11.5,0,0,1,6.45-3.3,27.1,27.1,0,0,1,7-.09,10,10,0,0,1,3.27.61c3,1.27,4.13,5.07,4.16,8.5A22.25,22.25,0,0,1,595.65,589h0l-.19.26a18.41,18.41,0,0,1-3.12,3.58c-.14.13-.28.24-.43.36a26.34,26.34,0,0,1-12.58,6.65,4.23,4.23,0,0,1-5.06-3.71C573.63,589.28,573.1,575.9,578.37,571Z"/><path class="cls-14" d="M582,591.14a20.32,20.32,0,0,0,9.31-9.8,11.85,11.85,0,0,0,1-3.07,3,3,0,0,0-.05-1.19,1.19,1.19,0,0,0-.46-.63,5,5,0,0,0-2.51-.57,3.38,3.38,0,0,0-2.27.7l-2.28-2.74a6.82,6.82,0,0,1,4.62-1.36,10.08,10.08,0,0,1,2.18.33,6.07,6.07,0,0,1,2.26,1.08,4.43,4.43,0,0,1,1.52,2.38,6,6,0,0,1,0,2.46,10.33,10.33,0,0,1-.6,2.06c-.24.61-.5,1.21-.79,1.8a23,23,0,0,1-11,10.63Z"/><circle class="cls-3" cx="553.02" cy="591.59" r="10.89"/><circle class="cls-3" cx="472.14" cy="591.59" r="10.89"/><path class="cls-16" d="M543.74,492.86a99.23,99.23,0,0,0-30.29-6h-1a99.23,99.23,0,0,0-30.29,6c-26.67,9.73-60.73,29.29-60.71,44.74,0,23.84,14.52,19.35,22.23,12.9s37.19-31.57,68.49-31.57h1.53c31.3,0,60.78,25.12,68.49,31.57s22.2,10.94,22.23-12.9C604.46,522.15,570.41,502.59,543.74,492.86Z"/><ellipse class="cls-14" cx="512.2" cy="514.33" rx="16.18" ry="18.75"/><ellipse class="cls-17" cx="512.2" cy="514.33" rx="10.72" ry="12.42"/><path class="cls-14" d="M517.8,490.09a6.84,6.84,0,0,1-11.08,0c-3-4.1-6.16-10.66-6.16-20.24,0-18.45,11.75-61.08,11.75-61.08s11.23,33.35,11.23,60.4C523.54,479.42,520.65,486,517.8,490.09Z"/><path class="cls-14" d="M561.89,547.91a19.46,19.46,0,0,0-4.69-3.67,22.75,22.75,0,0,0-5.54-2.37,21.15,21.15,0,0,0-6-.72,25.9,25.9,0,0,0-3,.22c-.5.08-1,.13-1.49.23s-1,.24-1.46.39c-1,.29-2,.62-3,1-.49.17-1,.35-1.46.54s-.91.39-1.35.62a16.55,16.55,0,0,0-4.65,3.75,46,46,0,0,0-6.43,10.64l-1.44-.68a48,48,0,0,1,6.5-11.14,18.34,18.34,0,0,1,5.12-4.26c.49-.27,1-.5,1.52-.73s1-.4,1.52-.59c1-.38,2-.73,3.05-1.06.52-.16,1-.32,1.6-.45s1.11-.19,1.65-.29a27.75,27.75,0,0,1,3.28-.29,23.41,23.41,0,0,1,6.61.68,25.17,25.17,0,0,1,6.15,2.51c1,.56,1.87,1.13,2.79,1.79a17.55,17.55,0,0,1,2.54,2.26Z"/><path class="cls-14" d="M526.17,566a36.83,36.83,0,0,1,6.55-5,34.2,34.2,0,0,1,7.51-3.41,26.6,26.6,0,0,1,8.29-1.23l2.12.08,2.1.34c.35.06.71.1,1,.18l1,.3,2,.6-1.27,3.33-1.75-.58-.87-.3c-.29-.08-.6-.12-.9-.19l-1.8-.36-1.84-.13a23,23,0,0,0-7.36.81,31.53,31.53,0,0,0-7,2.87,34.65,34.65,0,0,0-6.21,4.37Z"/><path class="cls-14" d="M461.7,546.26a17.63,17.63,0,0,1,2.55-2.26,33,33,0,0,1,2.79-1.79,24.85,24.85,0,0,1,6.15-2.51,23.34,23.34,0,0,1,6.6-.68,27.56,27.56,0,0,1,3.28.29c.55.1,1.06.15,1.65.29s1.08.29,1.6.45c1,.33,2.05.68,3.06,1.06.5.19,1,.38,1.51.59s1,.46,1.52.73a18.34,18.34,0,0,1,5.12,4.26,47.28,47.28,0,0,1,6.5,11.14l-1.43.68c-1.83-3.79-3.73-7.57-6.43-10.64a16.74,16.74,0,0,0-4.66-3.75c-.44-.23-.89-.42-1.35-.62s-1-.37-1.46-.54c-1-.35-2-.68-3-1-.49-.15-1-.28-1.46-.39s-1-.15-1.48-.23a26.22,26.22,0,0,0-3.05-.22,21.15,21.15,0,0,0-6,.72,22.75,22.75,0,0,0-5.54,2.37,19.46,19.46,0,0,0-4.69,3.67Z"/><path class="cls-14" d="M497.54,567.68a34.25,34.25,0,0,0-6.21-4.36,31.83,31.83,0,0,0-7-2.86,23.25,23.25,0,0,0-7.35-.8l-1.83.13-1.8.36c-.3.07-.6.11-.89.19l-.87.3-1.74.58-1.32-3.45,2-.6,1-.3c.34-.08.7-.12,1.05-.18l2.1-.34,2.13-.08a26.59,26.59,0,0,1,8.3,1.24,34.39,34.39,0,0,1,7.53,3.42,36.89,36.89,0,0,1,6.55,5Z"/><ellipse class="cls-14" cx="518.68" cy="589.26" rx="3.55" ry="1.36" transform="translate(-153.39 183.58) rotate(-17.53)"/><ellipse class="cls-14" cx="506.97" cy="589.26" rx="1.36" ry="3.55" transform="translate(-207.62 895.21) rotate(-72.47)"/><path class="cls-14" d="M511.62,613l6.54,5.54c4.06,3.45,8.28,7,13.39,8.46a30.21,30.21,0,0,0,8.1,1c4.5.06,9.16-.33,13.13-2.44a22.4,22.4,0,0,0,6.06-4.95A24.13,24.13,0,0,0,565,608.42a15.52,15.52,0,0,0-3.59-12.85c-3.15-3.36-8.39-4.81-12.61-3a9.73,9.73,0,1,1-1.86,18.51c-4.08-1.72-6.45-5.9-9.46-9.15-3.49-3.76-8.36-6.49-13.49-6.44s-10.34,3.33-11.71,8.27Z"/><path class="cls-14" d="M513.31,613l-6.54,5.54c-4.06,3.45-8.28,7-13.39,8.46a30.26,30.26,0,0,1-8.1,1c-4.5.06-9.16-.33-13.14-2.44a22.36,22.36,0,0,1-6.05-4.95A24.23,24.23,0,0,1,460,608.42a15.52,15.52,0,0,1,3.6-12.85c3.14-3.36,8.39-4.81,12.61-3A9.73,9.73,0,1,0,478,611.12c4.08-1.72,6.44-5.9,9.46-9.15,3.49-3.76,8.36-6.49,13.49-6.44s10.34,3.33,11.71,8.27Z"/><path class="cls-15" d="M526.8,684c-5.55-15.41-4.18-32.31-2.67-48.53H501.32c1.62,17.35,3.07,35.48-3.94,51.73l-2,4.19s18.46,19.42,34.71,0Z"/><path class="cls-18" d="M476.94,691.41s35.37,47.8,72.34,0"/><path class="cls-18" d="M466.47,691.41s45.61,63.36,93.28,0"/><path class="cls-19" d="M490.68,618.63s19.74,19,44.09,0c0,0-5.06,20.38-21.95,20.38S490.68,618.63,490.68,618.63Z"/><path class="cls-20" d="M512.74,608.53c2.68-2.16,6.81-2.68,10.36-1.82a18.87,18.87,0,0,1,8.91,5.35,48.51,48.51,0,0,0,4.9,4.93,13.43,13.43,0,0,0,3.64,2,14.69,14.69,0,0,0,2,.58,16.65,16.65,0,0,0,2.21.35,16,16,0,0,0,8.77-1.64"/><path class="cls-20" d="M513.1,608.53c-2.68-2.16-6.81-2.68-10.36-1.82a18.9,18.9,0,0,0-8.92,5.35,48.4,48.4,0,0,1-4.89,4.93,16.3,16.3,0,0,1-16.62,1.25"/><ellipse class="cls-17" cx="590.73" cy="537.58" rx="3.18" ry="8.84"/><ellipse class="cls-21" cx="577.35" cy="526.29" rx="3.18" ry="8.84"/><ellipse class="cls-17" cx="561.98" cy="515.63" rx="3.18" ry="8.84"/><ellipse class="cls-21" cx="544.79" cy="508.66" rx="3.18" ry="8.84"/><ellipse class="cls-3" cx="512.2" cy="514.33" rx="3.18" ry="8.84"/><ellipse class="cls-21" cx="434.13" cy="537.58" rx="3.18" ry="8.84"/><ellipse class="cls-17" cx="447.51" cy="526.29" rx="3.18" ry="8.84"/><ellipse class="cls-21" cx="462.89" cy="515.63" rx="3.18" ry="8.84"/><ellipse class="cls-17" cx="480.07" cy="508.66" rx="3.18" ry="8.84"/></g></svg>
