<svg id="Layer_1" data-name="Layer 1" xmlns="http://www.w3.org/2000/svg" xmlns:xlink="http://www.w3.org/1999/xlink" width="250" height="300" viewBox="0 0 500 400"><defs><style>.s2d5-w3_1,.s2d5-w3_12,.s2d5-w3_23{fill:none;}.s2d5-w3_2{fill:#357d74;}.s2d5-w3_3{fill:url(#s2d5-w3-lg);}.s2d5-w3_4{fill:url(#s2d5-w3-lg_2);}.s2d5-w3_5{fill:url(#s2d5-w3-lg_3);}.s2d5-w3_6{fill:url(#s2d5-w3-lg_4);}.s2d5-w3_7{fill:url(#s2d5-w3-lg_5);}.s2d5-w3_8{fill:url(#s2d5-w3-lg_6);}.s2d5-w3_9{fill:#2e5f5a;}.s2d5-w3_10{fill:#5d9c98;}.s2d5-w3_11{fill:#919a51;}.s2d5-w3_12,.s2d5-w3_23{stroke:#fff;}.s2d5-w3_12{stroke-miterlimit:10;stroke-width:2.25px;}.s2d5-w3_13,.s2d5-w3_24,.s2d5-w3_25,.s2d5-w3_26{fill:#fff;}.s2d5-w3_14{clip-path:url(#s2d5-w3-cp);}.s2d5-w3_15{fill:url(#s2d5-w3-lg_7);}.s2d5-w3_16{fill:url(#s2d5-w3-lg_8);}.s2d5-w3_17{fill:url(#s2d5-w3-lg_9);}.s2d5-w3_18{fill:url(#s2d5-w3-lg_10);}.s2d5-w3_19{fill:url(#s2d5-w3-lg_11);}.s2d5-w3_20{fill:url(#s2d5-w3-lg_12);}.s2d5-w3_21{fill:#daa534;}.s2d5-w3_22{fill:url(#s2d5-w3-lg_13);}.s2d5-w3_23{stroke-linecap:round;stroke-linejoin:round;stroke-width:2px;stroke-dasharray:0 20;}.s2d5-w3_24{font-size:37.3px;}.s2d5-w3_24,.s2d5-w3_25,.s2d5-w3_26{font-family:PermanentMarker-Regular;}.s2d5-w3_25{font-size:22.38px;}.s2d5-w3_26{font-size:22.38px;}</style><linearGradient id="s2d5-w3-lg" x1="3430.5" y1="404.42" x2="3431.18" y2="284.89" gradientTransform="matrix(-1, 0, 0, 1, 3949.01, 0)" gradientUnits="userSpaceOnUse"><stop offset="0" stop-color="#357d74" stop-opacity="0"/><stop offset="1" stop-color="#357d74"/></linearGradient><linearGradient id="s2d5-w3-lg_2" x1="3242.71" y1="426.75" x2="3243.02" y2="372.96" xlink:href="#s2d5-w3-lg"/><linearGradient id="s2d5-w3-lg_3" x1="3317.75" y1="299.73" x2="3318.06" y2="245.93" xlink:href="#s2d5-w3-lg"/><linearGradient id="s2d5-w3-lg_4" x1="3359.3" y1="462.74" x2="3359.56" y2="418.2" xlink:href="#s2d5-w3-lg"/><linearGradient id="s2d5-w3-lg_5" x1="3444.59" y1="259.14" x2="3444.85" y2="214.61" xlink:href="#s2d5-w3-lg"/><linearGradient id="s2d5-w3-lg_6" x1="3430.6" y1="519.75" x2="3430.86" y2="475.22" xlink:href="#s2d5-w3-lg"/><clipPath id="s2d5-w3-cp"><path class="s2d5-w3_1" d="M398.27,147.14h60.11A13.88,13.88,0,0,1,472.26,161v156.7a13.87,13.87,0,0,1-13.88,13.88H398.27a13.88,13.88,0,0,1-13.88-13.88V161A13.89,13.89,0,0,1,398.27,147.14Zm-106,184.46h60.11a13.87,13.87,0,0,0,13.88-13.88V161a13.88,13.88,0,0,0-13.88-13.88H292.24A13.89,13.89,0,0,0,278.36,161v156.7A13.88,13.88,0,0,0,292.24,331.6Zm-106,0h60.11a13.87,13.87,0,0,0,13.88-13.88V161a13.88,13.88,0,0,0-13.88-13.88H186.21A13.89,13.89,0,0,0,172.33,161v156.7A13.88,13.88,0,0,0,186.21,331.6ZM398.27,532.09h60.11a13.87,13.87,0,0,0,13.88-13.88V361.51a13.87,13.87,0,0,0-13.88-13.88H398.27a13.88,13.88,0,0,0-13.88,13.88v156.7A13.88,13.88,0,0,0,398.27,532.09Zm-106.8-19.9h61.65a13.11,13.11,0,0,0,13.11-13.11V360.74a13.11,13.11,0,0,0-13.11-13.11H291.47a13.11,13.11,0,0,0-13.11,13.11V499.08A13.11,13.11,0,0,0,291.47,512.19Zm-105.26,19.9h60.11a13.87,13.87,0,0,0,13.88-13.88V361.51a13.87,13.87,0,0,0-13.88-13.88H186.21a13.88,13.88,0,0,0-13.88,13.88v156.7A13.88,13.88,0,0,0,186.21,532.09Z"/></clipPath><linearGradient id="s2d5-w3-lg_7" x1="3681.3" y1="443.42" x2="3681.98" y2="323.89" xlink:href="#s2d5-w3-lg"/><linearGradient id="s2d5-w3-lg_8" x1="3493.51" y1="465.75" x2="3493.82" y2="411.96" xlink:href="#s2d5-w3-lg"/><linearGradient id="s2d5-w3-lg_9" x1="3568.55" y1="344.96" x2="3568.86" y2="291.17" xlink:href="#s2d5-w3-lg"/><linearGradient id="s2d5-w3-lg_10" x1="3617.27" y1="525.73" x2="3617.53" y2="481.2" xlink:href="#s2d5-w3-lg"/><linearGradient id="s2d5-w3-lg_11" x1="3704.4" y1="320.51" x2="3704.65" y2="275.98" xlink:href="#s2d5-w3-lg"/><linearGradient id="s2d5-w3-lg_12" x1="3776.61" y1="495.73" x2="3776.87" y2="451.2" xlink:href="#s2d5-w3-lg"/><linearGradient id="s2d5-w3-lg_13" x1="4130.94" y1="-1294.71" x2="4130.94" y2="-1236.57" gradientTransform="translate(-3810.75 1453.29)" gradientUnits="userSpaceOnUse"><stop offset="0" stop-color="#3b6660" stop-opacity="0"/><stop offset="1" stop-color="#2f4f51"/></linearGradient></defs><title>20</title><path class="s2d5-w3_3" d="M382,370.1l0,0c.15-.25.31-.5.48-.74l0-.05c.17-.23.34-.45.52-.66l.08-.09c.18-.2.36-.39.55-.57l.13-.12c.18-.17.36-.33.55-.48l.19-.15c.18-.13.36-.27.55-.39l.26-.16a5.79,5.79,0,0,1,.54-.31l.33-.17.51-.23.42-.16.47-.16.51-.13.42-.11.64-.1.32,0a8.27,8.27,0,0,1,1-.05,9.68,9.68,0,0,1,4.43,1.06A15.44,15.44,0,0,1,396,365a14.82,14.82,0,0,1,9-4.62,15.57,15.57,0,0,1,1.81-.11,14.62,14.62,0,0,1,3,.31c.32.07.63.14.95.23a14.85,14.85,0,0,1,21.3-10.16,23.58,23.58,0,0,1-.59-3.88c0-.5-.05-1-.05-1.5a23.64,23.64,0,0,1,30.27-22.72,23.05,23.05,0,0,1,.92-4.26,23.64,23.64,0,0,1,38.68-10.17c.28.26.56.53.82.81a35.7,35.7,0,0,1,7.29-5.24,35.16,35.16,0,0,1,42.6,7c.65.7,1.26,1.41,1.85,2.16a35.33,35.33,0,0,1,6.41,12.73c.81-.08,1.63-.13,2.47-.13A23.53,23.53,0,0,1,578.07,331a23.86,23.86,0,0,1,5.95,7.69,14.77,14.77,0,0,1,5.13-.93,14.44,14.44,0,0,1,2.73.25,14.69,14.69,0,0,1,7,3.42c.33.28.64.58.94.89a14.83,14.83,0,0,1,4,8.17A14.83,14.83,0,0,1,625.58,359a12.7,12.7,0,0,1,.32,1.25,14.57,14.57,0,0,1,3.93-.55,14.79,14.79,0,0,1,11.93,6,9.88,9.88,0,1,1,4.44,18.7,9.76,9.76,0,0,1-4.44-1.06,14.82,14.82,0,0,1-20.35,3.42,14.83,14.83,0,0,1-23.06,4.36,14.84,14.84,0,0,1-25.47,1.71,14.77,14.77,0,0,1-18.15-4.1,14.81,14.81,0,0,1-20,11.33,35.29,35.29,0,0,1-55.24-8.39,14.8,14.8,0,0,1-15.71,1.67,14.84,14.84,0,0,1-25.47-1.72,14.82,14.82,0,0,1-23.06-4.35,14.83,14.83,0,0,1-20.36-3.42,9.87,9.87,0,0,1-13-13.8Z"/><path class="s2d5-w3_4" d="M644.84,411.31h0l.21-.34,0,0c.08-.1.15-.2.24-.3l0,0a3,3,0,0,1,.25-.25l.06-.06.25-.22L646,410l.25-.18.12-.07.24-.14.15-.07.23-.11.19-.07.21-.07a1.55,1.55,0,0,1,.23-.06l.19-.05.28,0,.15,0,.45,0a4.43,4.43,0,0,1,2,.48c.16-.21.32-.4.49-.59a6.71,6.71,0,0,1,4.07-2.08,7.37,7.37,0,0,1,.82-.05,6.62,6.62,0,0,1,1.34.14l.42.11a6.68,6.68,0,0,1,9.59-4.57,11.19,11.19,0,0,1-.27-1.75c0-.23,0-.45,0-.68a10.65,10.65,0,0,1,10.65-10.65,10.4,10.4,0,0,1,3,.43,10.26,10.26,0,0,1,.42-1.92,10.64,10.64,0,0,1,17.41-4.58l.37.37a15.86,15.86,0,0,1,22.45.78c.29.31.56.64.83,1a16.1,16.1,0,0,1,1.42,2.13,15.71,15.71,0,0,1,1.46,3.6c.37,0,.74-.06,1.11-.06a10.57,10.57,0,0,1,6.9,2.55,10.71,10.71,0,0,1,2.68,3.46,6.53,6.53,0,0,1,2.31-.42,7.12,7.12,0,0,1,1.23.11,6.61,6.61,0,0,1,3.16,1.54,5.33,5.33,0,0,1,.42.4,6.71,6.71,0,0,1,1.8,3.68,6.59,6.59,0,0,1,3.38-.93,6.68,6.68,0,0,1,6.4,4.75,5.12,5.12,0,0,1,.15.56,6.39,6.39,0,0,1,1.76-.24,6.66,6.66,0,0,1,5.37,2.71,4.49,4.49,0,0,1,2-.47,4.45,4.45,0,1,1,0,8.89,4.5,4.5,0,0,1-2-.48,6.65,6.65,0,0,1-9.15,1.54,6.7,6.7,0,0,1-6,3.65,6.62,6.62,0,0,1-4.42-1.69,6.68,6.68,0,0,1-11.47.77,6.55,6.55,0,0,1-2.93.69,6.66,6.66,0,0,1-5.23-2.53,6.66,6.66,0,0,1-9,5.09A15.86,15.86,0,0,1,688.75,421a6.67,6.67,0,0,1-4.14,1.44,6.55,6.55,0,0,1-2.93-.69,6.69,6.69,0,0,1-11.47-.77,6.68,6.68,0,0,1-10.38-2,6.67,6.67,0,0,1-9.16-1.54,4.44,4.44,0,0,1-5.83-6.21Z"/><path class="s2d5-w3_5" d="M569.8,284.28h0a3.87,3.87,0,0,1,.21-.34l0,0c.08-.1.15-.2.24-.3l0,0,.25-.25.06-.06a2.52,2.52,0,0,1,.25-.21A.27.27,0,0,1,571,283l.25-.18.12-.07a1.88,1.88,0,0,1,.24-.14l.15-.07.23-.11.18-.07.22-.07a1.55,1.55,0,0,1,.23-.06l.18,0,.29,0,.15,0a3.4,3.4,0,0,1,.45,0,4.43,4.43,0,0,1,2,.48c.16-.21.32-.4.49-.59a6.71,6.71,0,0,1,4.07-2.08,7.37,7.37,0,0,1,.82-.05,6.53,6.53,0,0,1,1.33.14l.43.11a6.68,6.68,0,0,1,9.59-4.57,10.13,10.13,0,0,1-.27-1.75c0-.22,0-.45,0-.68a10.65,10.65,0,0,1,10.65-10.65,10.4,10.4,0,0,1,3,.43,10.26,10.26,0,0,1,.42-1.92,10.63,10.63,0,0,1,17.4-4.57,4.27,4.27,0,0,1,.38.36,15.86,15.86,0,0,1,22.45.78c.29.31.56.64.83,1a16.1,16.1,0,0,1,1.42,2.13,15.71,15.71,0,0,1,1.46,3.6c.37,0,.74-.06,1.11-.06a10.57,10.57,0,0,1,6.9,2.55,10.71,10.71,0,0,1,2.68,3.46,6.52,6.52,0,0,1,2.3-.42,7.15,7.15,0,0,1,1.24.11,6.65,6.65,0,0,1,3.16,1.54,5.33,5.33,0,0,1,.42.4,6.71,6.71,0,0,1,1.8,3.68,6.57,6.57,0,0,1,3.38-.93,6.68,6.68,0,0,1,6.4,4.75,5.12,5.12,0,0,1,.15.56,6.8,6.8,0,0,1,1.76-.24,6.66,6.66,0,0,1,5.37,2.71,4.49,4.49,0,0,1,2-.47,4.45,4.45,0,1,1,0,8.89,4.37,4.37,0,0,1-2-.48,6.67,6.67,0,0,1-9.16,1.54,6.66,6.66,0,0,1-10.37,2,6.68,6.68,0,0,1-11.47.77,6.55,6.55,0,0,1-2.93.69,6.69,6.69,0,0,1-5.24-2.53,6.65,6.65,0,0,1-9,5.09A15.87,15.87,0,0,1,613.7,294a6.63,6.63,0,0,1-7.07.75,6.68,6.68,0,0,1-11.46-.77,6.68,6.68,0,0,1-10.38-2,6.67,6.67,0,0,1-9.16-1.54,4.43,4.43,0,0,1-6.44-4A4.37,4.37,0,0,1,569.8,284.28Z"/><path class="s2d5-w3_6" d="M538.82,450h0a1.67,1.67,0,0,1,.18-.28v0l.2-.24,0,0,.2-.21,0,0a1.12,1.12,0,0,1,.2-.18l.08-.06.2-.14.1-.06.2-.12.12-.06.19-.09.16-.06.17-.06.19,0,.16,0,.24,0,.12,0,.37,0a3.69,3.69,0,0,1,1.65.4,4.83,4.83,0,0,1,.41-.49,5.47,5.47,0,0,1,3.37-1.72,4.92,4.92,0,0,1,.67,0,5.8,5.8,0,0,1,1.11.11l.35.09a5.53,5.53,0,0,1,7.94-3.78,8.75,8.75,0,0,1-.22-1.45c0-.19,0-.37,0-.56a8.82,8.82,0,0,1,8.82-8.82,9.08,9.08,0,0,1,2.46.35,8.39,8.39,0,0,1,.34-1.58,8.81,8.81,0,0,1,14.41-3.79l.31.3a13.11,13.11,0,0,1,2.72-1.95,12.9,12.9,0,0,1,6.25-1.6,13.1,13.1,0,0,1,9.62,4.2c.24.26.47.52.69.8a13.12,13.12,0,0,1,1.17,1.76,12.84,12.84,0,0,1,1.21,3,7.09,7.09,0,0,1,.92,0,8.76,8.76,0,0,1,5.71,2.1,8.93,8.93,0,0,1,2.22,2.87,5.53,5.53,0,0,1,1.91-.35,5.69,5.69,0,0,1,1,.09,5.56,5.56,0,0,1,2.62,1.28,3.61,3.61,0,0,1,.35.33,5.49,5.49,0,0,1,1.48,3.05,5.53,5.53,0,0,1,8.11,3.16l.12.46a5.36,5.36,0,0,1,1.46-.2,5.54,5.54,0,0,1,4.45,2.25,3.62,3.62,0,0,1,1.65-.4,3.69,3.69,0,0,1,0,7.37,3.62,3.62,0,0,1-1.65-.4,5.54,5.54,0,0,1-7.59,1.28,5.53,5.53,0,0,1-8.59,1.62,5.53,5.53,0,0,1-9.49.64,5.5,5.5,0,0,1-6.76-1.53,5.51,5.51,0,0,1-7.45,4.22A13.13,13.13,0,0,1,575.17,458a5.53,5.53,0,0,1-5.85.63,5.53,5.53,0,0,1-9.49-.64,5.54,5.54,0,0,1-8.6-1.63,5.46,5.46,0,0,1-3.13,1,5.53,5.53,0,0,1-4.45-2.25,3.67,3.67,0,0,1-5.33-3.29A3.63,3.63,0,0,1,538.82,450Z"/><path class="s2d5-w3_7" d="M453.53,246.36h0a1.67,1.67,0,0,1,.18-.28v0l.2-.25,0,0,.2-.21s0,0,0-.05l.2-.18a.18.18,0,0,0,.07-.05l.21-.15.1-.06.2-.11.12-.06.19-.09.16-.06.17-.06.19-.05.16,0,.24,0,.12,0,.37,0a3.68,3.68,0,0,1,1.65.39,4.72,4.72,0,0,1,.41-.48,5.47,5.47,0,0,1,3.36-1.72,5.07,5.07,0,0,1,.68,0,5.8,5.8,0,0,1,1.11.11l.35.09a5.54,5.54,0,0,1,5.42-4.4,5.61,5.61,0,0,1,2.52.61,8.63,8.63,0,0,1-.22-1.44c0-.19,0-.38,0-.56a8.82,8.82,0,0,1,11.28-8.47,8.39,8.39,0,0,1,.34-1.58A8.81,8.81,0,0,1,498,223.25a2.91,2.91,0,0,1,.31.3,13.47,13.47,0,0,1,2.71-2,13.12,13.12,0,0,1,15.88,2.61c.24.25.47.52.69.8a13.12,13.12,0,0,1,1.17,1.76,12.94,12.94,0,0,1,1.21,3c.31,0,.61-.05.92-.05a8.76,8.76,0,0,1,5.71,2.11,9,9,0,0,1,2.22,2.86,5.52,5.52,0,0,1,1.91-.34,5.47,5.47,0,0,1,3.64,1.36c.12.11.24.22.35.34a5.53,5.53,0,0,1,1.48,3,5.53,5.53,0,0,1,8.11,3.17c0,.15.08.3.11.46a5.51,5.51,0,0,1,5.91,2.05,3.68,3.68,0,1,1,0,6.57,5.51,5.51,0,0,1-7.58,1.27,5.53,5.53,0,0,1-8.59,1.63,5.53,5.53,0,0,1-9.49.64,5.54,5.54,0,0,1-6.76-1.53,5.54,5.54,0,0,1-7.45,4.22,13.15,13.15,0,0,1-20.58-3.13A5.49,5.49,0,0,1,484,255a5.52,5.52,0,0,1-9.49-.64,5.52,5.52,0,0,1-8.6-1.62,5.46,5.46,0,0,1-3.13,1,5.53,5.53,0,0,1-4.45-2.25,3.68,3.68,0,0,1-5.33-3.29A3.61,3.61,0,0,1,453.53,246.36Z"/><path class="s2d5-w3_8" d="M467.52,507h0a2.11,2.11,0,0,1,.18-.27v0a2.43,2.43,0,0,1,.2-.25l0,0a1.34,1.34,0,0,1,.2-.21l.05-.05.21-.18.07-.05.2-.15.1-.06.2-.12.12-.06.19-.08a1,1,0,0,1,.16-.06l.17-.06.19-.05.16,0,.24,0,.12,0h.37a3.68,3.68,0,0,1,1.65.39,6.26,6.26,0,0,1,.41-.49,5.52,5.52,0,0,1,3.37-1.72c.22,0,.44,0,.67,0a5.1,5.1,0,0,1,1.11.12l.35.08a5.53,5.53,0,0,1,7.94-3.78,8.59,8.59,0,0,1-.22-1.45c0-.18,0-.37,0-.56a8.82,8.82,0,0,1,8.82-8.82,8.71,8.71,0,0,1,2.46.36,8.32,8.32,0,0,1,.34-1.59A8.81,8.81,0,0,1,512,483.85l.31.3A13.49,13.49,0,0,1,515,482.2a13.12,13.12,0,0,1,15.87,2.6q.36.39.69.81a13.12,13.12,0,0,1,1.17,1.76,12.94,12.94,0,0,1,1.21,3c.31,0,.61-.05.93-.05a8.86,8.86,0,0,1,7.92,5,5.53,5.53,0,0,1,1.91-.35,5.69,5.69,0,0,1,1,.1,5.46,5.46,0,0,1,2.62,1.27c.12.11.24.22.35.34a5.46,5.46,0,0,1,1.48,3,5.48,5.48,0,0,1,2.81-.77,5.54,5.54,0,0,1,5.3,3.93l.12.47a5.36,5.36,0,0,1,1.46-.21,5.54,5.54,0,0,1,4.45,2.25A3.62,3.62,0,0,1,566,505a3.68,3.68,0,0,1,0,7.36,3.62,3.62,0,0,1-1.65-.39,5.52,5.52,0,0,1-7.59,1.27,5.51,5.51,0,0,1-8.59,1.62,5.52,5.52,0,0,1-9.49.64,5.51,5.51,0,0,1-6.76-1.52,5.52,5.52,0,0,1-7.45,4.21A13.14,13.14,0,0,1,503.87,515a5.49,5.49,0,0,1-5.85.62,5.52,5.52,0,0,1-9.49-.64,5.51,5.51,0,0,1-8.59-1.62,5.58,5.58,0,0,1-3.14,1,5.5,5.5,0,0,1-4.45-2.25,3.56,3.56,0,0,1-1.65.4,3.69,3.69,0,0,1-3.18-5.54Z"/><rect class="s2d5-w3_9" x="368.25" y="291.42" width="136.1" height="125.33"/><path class="s2d5-w3_10" d="M398.27,147.14h60.11A13.88,13.88,0,0,1,472.26,161v156.7a13.87,13.87,0,0,1-13.88,13.88H398.27a13.88,13.88,0,0,1-13.88-13.88V161A13.89,13.89,0,0,1,398.27,147.14Zm-106,184.46h60.11a13.87,13.87,0,0,0,13.88-13.88V161a13.88,13.88,0,0,0-13.88-13.88H292.24A13.89,13.89,0,0,0,278.36,161v156.7A13.88,13.88,0,0,0,292.24,331.6Zm-106,0h60.11a13.87,13.87,0,0,0,13.88-13.88V161a13.88,13.88,0,0,0-13.88-13.88H186.21A13.89,13.89,0,0,0,172.33,161v156.7A13.88,13.88,0,0,0,186.21,331.6ZM398.27,532.09h60.11a13.87,13.87,0,0,0,13.88-13.88V361.51a13.87,13.87,0,0,0-13.88-13.88H398.27a13.88,13.88,0,0,0-13.88,13.88v156.7A13.88,13.88,0,0,0,398.27,532.09Zm-106.8-19.9h61.65a13.11,13.11,0,0,0,13.11-13.11V360.74a13.11,13.11,0,0,0-13.11-13.11H291.47a13.11,13.11,0,0,0-13.11,13.11V499.08A13.11,13.11,0,0,0,291.47,512.19Zm-105.26,19.9h60.11a13.87,13.87,0,0,0,13.88-13.88V361.51a13.87,13.87,0,0,0-13.88-13.88H186.21a13.88,13.88,0,0,0-13.88,13.88v156.7A13.88,13.88,0,0,0,186.21,532.09Z"/><path class="s2d5-w3_11" d="M516.57,125.34H130V152h14.3V543.52h37.23c0-26.5-7.92-65.94-14.64-94.68A133.93,133.93,0,0,1,170,376.43c16.65-50.61,44.54-145.71,48.06-224.4H426.51c3.58,80.22,32.49,177.48,49,227.3a121.56,121.56,0,0,1,2.92,66.41c-6.86,28.95-15.36,70.32-15.36,97.78H500.3V152h16.27Z"/><line class="s2d5-w3_12" x1="322.3" y1="171.99" x2="322.3" y2="301.96"/><line class="s2d5-w3_12" x1="387.28" y1="236.98" x2="257.31" y2="236.98"/><line class="s2d5-w3_12" x1="368.25" y1="191.03" x2="276.35" y2="282.93"/><line class="s2d5-w3_12" x1="368.25" y1="282.93" x2="276.35" y2="191.03"/><line class="s2d5-w3_12" x1="343.85" y1="187.31" x2="300.74" y2="286.65"/><line class="s2d5-w3_12" x1="371.97" y1="258.53" x2="272.63" y2="215.42"/><line class="s2d5-w3_12" x1="372.66" y1="217.1" x2="271.93" y2="256.86"/><line class="s2d5-w3_12" x1="342.18" y1="287.34" x2="302.42" y2="186.61"/><circle class="s2d5-w3_10" cx="322.3" cy="235.31" r="42.31"/><path class="s2d5-w3_13" d="M336.64,251.49c-9.05,0-16.38-7.6-16.38-17s7.33-17,16.38-17a15.7,15.7,0,0,1,4,.53,21.3,21.3,0,0,0-14.93-6.16c-12.05,0-21.82,10.12-21.82,22.61s9.77,22.61,21.82,22.61A21.3,21.3,0,0,0,340.6,251,15.7,15.7,0,0,1,336.64,251.49Z"/><g class="s2d5-w3_14"><path class="s2d5-w3_15" d="M131.15,409.1l0,0c.15-.25.31-.5.48-.74l0-.06c.16-.22.34-.44.52-.65l.08-.09c.18-.2.36-.39.55-.57l.13-.12.55-.49.19-.14c.18-.14.36-.27.55-.39l.26-.16c.18-.11.35-.22.54-.32l.33-.16.51-.23.42-.16c.15-.05.31-.12.47-.16s.34-.09.51-.14l.42-.1.64-.1.32-.05c.33,0,.66-.05,1-.05a9.84,9.84,0,0,1,4.43,1.06c.34-.45.71-.89,1.09-1.3a14.8,14.8,0,0,1,9-4.62,13.54,13.54,0,0,1,1.81-.11,14.7,14.7,0,0,1,3,.31c.32.07.63.14.95.23a14.84,14.84,0,0,1,21.29-10.16,24.68,24.68,0,0,1-.58-3.88c0-.5-.06-1-.06-1.51A23.61,23.61,0,0,1,210.9,361.5a23.07,23.07,0,0,1,.93-4.26,23.64,23.64,0,0,1,38.68-10.17c.28.26.55.53.82.81a36.13,36.13,0,0,1,7.29-5.25,35.19,35.19,0,0,1,42.6,7c.64.69,1.26,1.41,1.85,2.16a35.41,35.41,0,0,1,3.16,4.73,34.76,34.76,0,0,1,3.24,8,22.63,22.63,0,0,1,2.48-.13A23.53,23.53,0,0,1,327.27,370a23.93,23.93,0,0,1,6,7.68,14.77,14.77,0,0,1,5.13-.92,14.44,14.44,0,0,1,2.73.25,14.76,14.76,0,0,1,7,3.41c.33.29.64.59.94.9a14.9,14.9,0,0,1,4,8.17A14.83,14.83,0,0,1,374.78,398c.12.41.23.82.32,1.24a14.75,14.75,0,0,1,15.86,5.5,9.88,9.88,0,1,1,0,17.64,14.82,14.82,0,0,1-20.35,3.42,14.83,14.83,0,0,1-23.06,4.36,14.84,14.84,0,0,1-25.47,1.71,14.77,14.77,0,0,1-18.15-4.1,14.86,14.86,0,0,1-14.63,12.33,14.63,14.63,0,0,1-5.35-1,35.28,35.28,0,0,1-55.24-8.38A14.8,14.8,0,0,1,213,432.39a14.84,14.84,0,0,1-25.47-1.72,14.81,14.81,0,0,1-23.06-4.36,14.84,14.84,0,0,1-20.36-3.41,9.87,9.87,0,0,1-13-13.8Z"/><path class="s2d5-w3_16" d="M394,450.31h0a3.87,3.87,0,0,1,.21-.34l0,0c.08-.1.15-.2.24-.3l0,0,.25-.26.06,0,.25-.22.08-.06.25-.18.12-.07a1.88,1.88,0,0,1,.24-.14l.15-.07.23-.11.18-.07.22-.07a1.55,1.55,0,0,1,.23-.06l.18-.05.29,0,.15,0,.45,0a4.43,4.43,0,0,1,2,.48,7,7,0,0,1,.49-.59,6.71,6.71,0,0,1,4.07-2.08,7.34,7.34,0,0,1,.81-.05,6.55,6.55,0,0,1,1.34.14l.43.1a6.68,6.68,0,0,1,6.54-5.3,6.79,6.79,0,0,1,3.05.73,10,10,0,0,1-.27-1.74c0-.23,0-.45,0-.68A10.65,10.65,0,0,1,427,428.46a10.4,10.4,0,0,1,3,.43,10.26,10.26,0,0,1,.42-1.92,10.64,10.64,0,0,1,17.4-4.58l.38.37a15.92,15.92,0,0,1,3.27-2.36,15.82,15.82,0,0,1,19.18,3.14c.29.31.56.64.83,1a16.1,16.1,0,0,1,1.42,2.13,15.53,15.53,0,0,1,1.46,3.6,10.32,10.32,0,0,1,1.11-.06,10.57,10.57,0,0,1,6.9,2.55,10.78,10.78,0,0,1,2.68,3.45,6.74,6.74,0,0,1,2.3-.41,7.15,7.15,0,0,1,1.24.11,6.65,6.65,0,0,1,3.16,1.54,5.33,5.33,0,0,1,.42.4,6.63,6.63,0,0,1,1.79,3.68,6.67,6.67,0,0,1,9.79,3.82,5.09,5.09,0,0,1,.14.56,6.52,6.52,0,0,1,1.77-.25,6.66,6.66,0,0,1,5.37,2.72,4.45,4.45,0,1,1,0,7.94,6.67,6.67,0,0,1-9.16,1.54,6.67,6.67,0,0,1-10.37,2,6.69,6.69,0,0,1-11.47.77,6.55,6.55,0,0,1-2.93.69,6.69,6.69,0,0,1-5.24-2.53,6.65,6.65,0,0,1-9,5.09A15.87,15.87,0,0,1,437.94,460a6.69,6.69,0,0,1-7.07.75,6.68,6.68,0,0,1-11.46-.77,6.68,6.68,0,0,1-10.38-2,6.69,6.69,0,0,1-9.16-1.54,4.43,4.43,0,0,1-6.44-4A4.37,4.37,0,0,1,394,450.31Z"/><path class="s2d5-w3_17" d="M319,329.51h0a3,3,0,0,1,.21-.33l0,0c.08-.11.15-.21.23-.3l0,0a3.07,3.07,0,0,1,.25-.26l.06-.05.24-.22.09-.06a2.27,2.27,0,0,1,.25-.18l.12-.07a1.38,1.38,0,0,1,.24-.14l.15-.08.23-.1.18-.07.22-.08.22-.06.19,0,.29,0,.15,0,.45,0a4.33,4.33,0,0,1,2,.48,5.68,5.68,0,0,1,.49-.59,6.66,6.66,0,0,1,4.07-2.08,7.34,7.34,0,0,1,.81-.05,6.55,6.55,0,0,1,1.34.14l.43.1a6.7,6.7,0,0,1,9.59-4.57,10,10,0,0,1-.27-1.74c0-.23,0-.45,0-.68a10.65,10.65,0,0,1,10.65-10.65,10.76,10.76,0,0,1,3,.42,10,10,0,0,1,.42-1.91,10.64,10.64,0,0,1,17.4-4.58l.37.36a16.66,16.66,0,0,1,3.28-2.36,15.85,15.85,0,0,1,19.18,3.15c.29.31.56.63.83,1a15.93,15.93,0,0,1,2.88,5.73,10.32,10.32,0,0,1,1.11-.06,10.62,10.62,0,0,1,9.57,6,6.85,6.85,0,0,1,2.31-.42,6.36,6.36,0,0,1,1.24.12,6.56,6.56,0,0,1,3.16,1.54,5.25,5.25,0,0,1,.42.4,6.67,6.67,0,0,1,1.79,3.68,6.67,6.67,0,0,1,9.79,3.82,5.09,5.09,0,0,1,.14.56,6.52,6.52,0,0,1,1.77-.25,6.65,6.65,0,0,1,5.37,2.72,4.45,4.45,0,1,1,0,7.94,6.67,6.67,0,0,1-9.16,1.54,6.67,6.67,0,0,1-10.37,2,6.69,6.69,0,0,1-11.47.77,6.64,6.64,0,0,1-8.17-1.85,6.68,6.68,0,0,1-9,5.1,15.88,15.88,0,0,1-24.86-3.78,6.64,6.64,0,0,1-4.13,1.44,6.72,6.72,0,0,1-2.94-.68,6.68,6.68,0,0,1-11.46-.78,6.67,6.67,0,0,1-10.38-2,6.6,6.6,0,0,1-3.79,1.18,6.68,6.68,0,0,1-5.37-2.71,4.45,4.45,0,0,1-5.83-6.22Z"/><path class="s2d5-w3_18" d="M280.86,513h0l.18-.28,0,0a2.23,2.23,0,0,1,.19-.24l0,0,.2-.21,0,0,.21-.18.07-.06.2-.15.1-.05a2.12,2.12,0,0,1,.2-.12l.13-.06.18-.09.16-.06.18-.06.19,0,.15,0,.24,0,.12,0,.37,0a3.57,3.57,0,0,1,1.66.4,4.74,4.74,0,0,1,.4-.49,5.5,5.5,0,0,1,3.37-1.72,4.92,4.92,0,0,1,.67,0,5.8,5.8,0,0,1,1.11.11l.36.09a5.53,5.53,0,0,1,5.41-4.4,5.61,5.61,0,0,1,2.52.61,9.81,9.81,0,0,1-.22-1.44c0-.19,0-.38,0-.56a8.82,8.82,0,0,1,8.82-8.82,8.66,8.66,0,0,1,2.46.35,9.25,9.25,0,0,1,.34-1.58,8.82,8.82,0,0,1,14.42-3.79l.3.3a13.54,13.54,0,0,1,2.72-2,13.1,13.1,0,0,1,15.87,2.61c.24.25.47.52.69.8a13.18,13.18,0,0,1,1.18,1.76,13.4,13.4,0,0,1,1.21,3c.3,0,.61,0,.92,0a8.79,8.79,0,0,1,7.92,5,5.52,5.52,0,0,1,1.91-.34,5.69,5.69,0,0,1,1,.09,5.52,5.52,0,0,1,2.62,1.28,3.61,3.61,0,0,1,.35.33,5.58,5.58,0,0,1,1.49,3,5.54,5.54,0,0,1,8.1,3.17,3.45,3.45,0,0,1,.12.46,5.42,5.42,0,0,1,1.46-.2,5.53,5.53,0,0,1,4.45,2.25,3.69,3.69,0,1,1,0,6.57,5.53,5.53,0,0,1-4.45,2.25,5.46,5.46,0,0,1-3.13-1,5.54,5.54,0,0,1-8.6,1.63,5.53,5.53,0,0,1-9.49.64,5.46,5.46,0,0,1-2.43.56,5.53,5.53,0,0,1-4.33-2.09,5.53,5.53,0,0,1-7.44,4.22A13.15,13.15,0,0,1,317.21,521a5.51,5.51,0,0,1-5.86.62,5.53,5.53,0,0,1-9.49-.63,5.53,5.53,0,0,1-8.59-1.63,5.51,5.51,0,0,1-7.58-1.27,3.69,3.69,0,0,1-5.34-3.29A3.61,3.61,0,0,1,280.86,513Z"/><path class="s2d5-w3_19" d="M193.73,307.73h0a2.61,2.61,0,0,1,.17-.28l0,0c.06-.09.13-.17.19-.25l0,0,.21-.21,0-.05.2-.18a.18.18,0,0,0,.07-.05l.21-.15.1-.06.19-.11.13-.06.19-.09.15-.06.18-.06L196,306l.16,0,.23,0,.13,0,.37,0a3.68,3.68,0,0,1,1.65.39c.13-.17.26-.33.4-.48a5.53,5.53,0,0,1,3.37-1.72,5.06,5.06,0,0,1,.68,0,5.8,5.8,0,0,1,1.11.12l.35.09a5.52,5.52,0,0,1,7.93-3.79,9.8,9.8,0,0,1-.21-1.44,5.43,5.43,0,0,1,0-.57,8.81,8.81,0,0,1,8.82-8.81,8.64,8.64,0,0,1,2.45.35,9.17,9.17,0,0,1,.35-1.59,8.81,8.81,0,0,1,14.41-3.78,2.91,2.91,0,0,1,.31.3,13.47,13.47,0,0,1,2.71-2,13.12,13.12,0,0,1,15.88,2.61,8.7,8.7,0,0,1,.68.8,12.29,12.29,0,0,1,1.18,1.76,12.94,12.94,0,0,1,1.21,3c.3,0,.61-.05.92-.05a8.78,8.78,0,0,1,5.71,2.11A9,9,0,0,1,269,296a5.48,5.48,0,0,1,1.91-.34,5.47,5.47,0,0,1,3.64,1.36l.35.34a5.53,5.53,0,0,1,1.48,3,5.52,5.52,0,0,1,8.1,3.17,3.45,3.45,0,0,1,.12.46,5.51,5.51,0,0,1,5.91,2.05,3.68,3.68,0,1,1,0,6.57,5.52,5.52,0,0,1-4.44,2.25,5.47,5.47,0,0,1-3.14-1,5.53,5.53,0,0,1-8.59,1.63,5.53,5.53,0,0,1-9.49.64,5.55,5.55,0,0,1-6.77-1.53,5.53,5.53,0,0,1-7.44,4.22,13.15,13.15,0,0,1-20.58-3.13,5.49,5.49,0,0,1-5.85.62,5.53,5.53,0,0,1-9.5-.64,5.46,5.46,0,0,1-3.66,1.4,5.54,5.54,0,0,1-4.93-3,5.46,5.46,0,0,1-3.13,1,5.53,5.53,0,0,1-4.45-2.25,3.69,3.69,0,0,1-5.34-3.29A3.61,3.61,0,0,1,193.73,307.73Z"/><path class="s2d5-w3_20" d="M121.52,483h0l.18-.28,0,0a2.23,2.23,0,0,1,.19-.24l0,0,.2-.21,0,0,.21-.18.07-.06.2-.15.1-.05a2.12,2.12,0,0,1,.2-.12l.13-.06.19-.09.15-.06.18-.06.19,0,.15,0,.24,0,.12,0,.37,0a3.57,3.57,0,0,1,1.66.4,4.74,4.74,0,0,1,.4-.49,5.5,5.5,0,0,1,3.37-1.72,5,5,0,0,1,.67,0,5.8,5.8,0,0,1,1.11.11l.36.09a5.52,5.52,0,0,1,7.93-3.79,9.81,9.81,0,0,1-.22-1.44c0-.19,0-.38,0-.56a8.82,8.82,0,0,1,8.82-8.82,8.66,8.66,0,0,1,2.46.35,9.25,9.25,0,0,1,.34-1.58A8.82,8.82,0,0,1,166,459.84l.31.3a13.19,13.19,0,0,1,2.71-2,13.1,13.1,0,0,1,15.87,2.61c.24.25.47.52.69.8a13.18,13.18,0,0,1,1.18,1.76,12.94,12.94,0,0,1,1.21,3c.3,0,.61,0,.92,0a8.79,8.79,0,0,1,7.92,5,5.54,5.54,0,0,1,1.92-.34,5.86,5.86,0,0,1,1,.09,5.53,5.53,0,0,1,2.61,1.28,3.61,3.61,0,0,1,.35.33,5.51,5.51,0,0,1,1.49,3,5.54,5.54,0,0,1,8.1,3.17,3.45,3.45,0,0,1,.12.46,5.42,5.42,0,0,1,1.46-.2,5.53,5.53,0,0,1,4.45,2.25,3.69,3.69,0,1,1,0,6.57,5.53,5.53,0,0,1-4.45,2.25,5.46,5.46,0,0,1-3.13-1,5.54,5.54,0,0,1-8.6,1.63,5.53,5.53,0,0,1-9.49.64,5.46,5.46,0,0,1-2.43.56,5.53,5.53,0,0,1-4.33-2.09,5.53,5.53,0,0,1-7.44,4.22A13.15,13.15,0,0,1,157.87,491a5.51,5.51,0,0,1-5.86.62,5.53,5.53,0,0,1-9.49-.63,5.53,5.53,0,0,1-8.59-1.63,5.51,5.51,0,0,1-7.58-1.27A3.69,3.69,0,0,1,121,484.8,3.61,3.61,0,0,1,121.52,483Z"/></g><path class="s2d5-w3_21" d="M543.61,366.44c-3.4,42.56-28.37,82.46-24.8,125,1.8,21.43,10.77,41.49,17.33,62s10.69,43.15,2.87,63.19c-8.84-11-17.87-22.16-29.31-30.46-15.68-11.36-39.29-13.75-46.46-31.73-3.83-9.6-.1-25.14,1.6-35.34,6.86-41,22-80.65,24.54-122.16,4.16-68.95-27-135.94-26.12-205,.14-11.35,1.34-23.28,7.81-32.61,4.11-5.94,11-10.5,18.25-11.32,11.4-1.3,10.91,3.37,10.36,12.67-1,16.63,1.42,33.26,5.39,49.38,8.3,33.74,23.24,65.39,32.11,99C542.13,327.69,545.16,347.06,543.61,366.44Z"/><path class="s2d5-w3_21" d="M99.19,366.44c3.4,42.56,28.37,82.46,24.8,125-1.8,21.43-10.77,41.49-17.33,62S96,596.57,103.79,616.61c8.85-11,17.87-22.16,29.32-30.46,15.67-11.36,39.28-13.75,46.45-31.73,3.83-9.6.11-25.14-1.6-35.34-6.86-41-22-80.65-24.54-122.16-4.16-68.95,27-135.94,26.12-205-.14-11.35-1.34-23.28-7.81-32.61-4.11-5.94-11-10.5-18.25-11.32-11.4-1.3-10.91,3.37-10.36,12.67,1,16.63-1.42,33.26-5.39,49.38-8.3,33.74-23.24,65.39-32.11,99C100.68,327.69,97.65,347.06,99.19,366.44Z"/><path class="s2d5-w3_2" d="M130,118.76H512.22a18.35,18.35,0,0,1,18.35,18.35v17.65a0,0,0,0,1,0,0H109.81a0,0,0,0,1,0,0V138.9A20.15,20.15,0,0,1,130,118.76Z"/><path class="s2d5-w3_13" d="M413.79,283.5c0,8.51-6.94,14.5-15.11,14.38,8.17.12,14.95,6.52,15.16,14.29-.21-7.77,6.25-14,14.41-13.84A14.88,14.88,0,0,1,413.79,283.5Z"/><path class="s2d5-w3_13" d="M226.36,370.9c0,8.51-6.94,14.5-15.11,14.37,8.17.13,14.95,6.53,15.16,14.3-.21-7.77,6.25-14,14.42-13.84A14.89,14.89,0,0,1,226.36,370.9Z"/><rect class="s2d5-w3_22" x="109.81" y="154.76" width="420.75" height="57.14" transform="translate(640.38 366.65) rotate(180)"/><line class="s2d5-w3_23" x1="129.99" y1="136.76" x2="510.95" y2="136.76"/><text class="s2d5-w3_24" transform="translate(423.69 502.32) rotate(4.17)">H</text><text class="s2d5-w3_24" transform="matrix(0.98, 0.19, -0.19, 0.98, 448.84, 504.27)">a</text><text class="s2d5-w3_24" transform="translate(469.52 508.19) rotate(16.37)">h</text><text class="s2d5-w3_24" transform="translate(489.78 514.13) rotate(21.74)">a</text><text class="s2d5-w3_24" transform="matrix(0.89, 0.45, -0.45, 0.89, 509.41, 521.93)">h</text><text class="s2d5-w3_24" transform="translate(528.27 531.5) rotate(32.01)">a</text><text class="s2d5-w3_24" transform="translate(546.22 542.95) rotate(35.41)">.</text><text class="s2d5-w3_24" transform="translate(553 547.76) rotate(37.28)">.</text><text class="s2d5-w3_24" transform="matrix(0.78, 0.63, -0.63, 0.78, 559.62, 552.8)">.</text><text class="s2d5-w3_25" transform="translate(491.56 451.78) rotate(19.03)">R</text><text class="s2d5-w3_25" transform="translate(505.04 456.45) rotate(22.1)">a</text><text class="s2d5-w3_25" transform="translate(516.54 461.13) rotate(24.43)">s</text><text class="s2d5-w3_25" transform="translate(525.85 465.33) rotate(26.79)">a</text><text class="s2d5-w3_25" transform="matrix(0.87, 0.49, -0.49, 0.87, 537.3, 471.09)">k</text><text class="s2d5-w3_25" transform="matrix(0.85, 0.53, -0.53, 0.85, 549.72, 478.14)">a</text><text class="s2d5-w3_25" transform="translate(560.56 485) rotate(34.95)">n</text><text class="s2d5-w3_25" transform="translate(570.77 492.19) rotate(37.13)"> </text><text class="s2d5-w3_25" transform="translate(577.29 497.13) rotate(38.76)">i</text><text class="s2d5-w3_25" transform="matrix(0.76, 0.65, -0.65, 0.76, 582.8, 501.49)">n</text><text class="s2d5-w3_25" transform="matrix(0.73, 0.68, -0.68, 0.73, 592.21, 509.7)">i</text><text class="s2d5-w3_26" transform="translate(453.95 469.68) rotate(9.08)">P</text><text class="s2d5-w3_26" transform="translate(467.86 471.92) rotate(12.79)">u</text><text class="s2d5-w3_26" transform="translate(480.4 474.78) rotate(15.95)">r</text><text class="s2d5-w3_26" transform="matrix(0.95, 0.33, -0.33, 0.95, 491.85, 478.04)">b</text><text class="s2d5-w3_26" transform="translate(503.78 482.13) rotate(22.11)">a</text><text class="s2d5-w3_26" transform="translate(515.67 486.97) rotate(25.16)">r</text><text class="s2d5-w3_26" transform="matrix(0.88, 0.47, -0.47, 0.88, 526.44, 492.05)">s</text><text class="s2d5-w3_26" transform="translate(535.49 496.79) rotate(30.76)">a</text><text class="s2d5-w3_26" transform="translate(546.46 503.33) rotate(33.84)">r</text><text class="s2d5-w3_26" transform="matrix(0.81, 0.59, -0.59, 0.81, 556.37, 510.03)">i</text><text class="s2d5-w3_26" transform="translate(562.07 514.22) rotate(37.83)">!</text></svg>
