<svg id="Layer_1" data-name="Layer 1" xmlns="http://www.w3.org/2000/svg" width="400" height="600" xmlns:xlink="http://www.w3.org/1999/xlink" viewBox="110 0 600 1000"><defs><style>.s2d-b2d1-1_1,.s2d-b2d1-1_12,.s2d-b2d1-1_14,.s2d-b2d1-1_17,.s2d-b2d1-1_18,.s2d-b2d1-1_19{fill:none;}.s2d-b2d1-1_2{fill:#357d74;}.s2d-b2d1-1_3{fill:#daa534;}.s2d-b2d1-1_4{clip-path:url(#clip-path);}.s2d-b2d1-1_5{fill:url(#s2d-b2d1-lg1);}.s2d-b2d1-1_6{fill:url(#s2d-b2d1-lg1_2);}.s2d-b2d1-1_7{fill:url(#s2d-b2d1-lg1_3);}.s2d-b2d1-1_8{fill:#fff;}.s2d-b2d1-1_9{fill:#d8a334;}.s2d-b2d1-1_10,.s2d-b2d1-1_13{fill:#2f4862;}.s2d-b2d1-1_11{fill:#5d9b97;}.s2d-b2d1-1_12,.s2d-b2d1-1_13,.s2d-b2d1-1_14{stroke:#2f4862;}.s2d-b2d1-1_12,.s2d-b2d1-1_13,.s2d-b2d1-1_14,.s2d-b2d1-1_18,.s2d-b2d1-1_19{stroke-miterlimit:10;}.s2d-b2d1-1_12{stroke-width:2.53px;}.s2d-b2d1-1_13{stroke-width:3.14px;}.s2d-b2d1-1_14{stroke-width:1.89px;}.s2d-b2d1-1_15{fill:#949e52;}.s2d-b2d1-1_16{fill:#96a052;}.s2d-b2d1-1_17{stroke:#d99f4a;stroke-linecap:round;stroke-linejoin:round;stroke-width:8.53px;}.s2d-b2d1-1_18{stroke:#1472a0;stroke-width:3.65px;}.s2d-b2d1-1_19{stroke:#daa534;stroke-width:5.71px;}.s2d-b2d1-1_20{font-size:25px;fill:#2f4962;font-family:PermanentMarker-Regular, Permanent Marker;}.s2d-b2d1-1_20,.s2d-b2d1-1_23{letter-spacing:0.08em;}.s2d-b2d1-1_21{letter-spacing:0.06em;}.s2d-b2d1-1_22{letter-spacing:0.03em;}</style><clipPath id="clip-path"><path class="s2d-b2d1-1_1" d="M675.18,947.2c-33.06,0-33.06-2-66.11-2S576,947.58,543,947.58s-33.05,1.8-66.11,1.8-33,3.19-66.11,3.19-33.06-4.22-66.11-4.22-33.06-2-66.12-2-33.06-4-66.12-4-33.06,6.47-66.12,6.47c-19.57,0-41.58-17.41-41.58-37C104.68,881,110,881,110,850.29s-4.23-30.73-4.23-61.46,5-30.73,5-61.46-3.88-30.73-3.88-61.46.17-30.73.17-61.46,2.44-30.74,2.44-61.47-.09-30.73-.09-61.46.66-30.74.66-61.47c0-25.14,9.58-49.29,26.05-65.77s40.63-26.41,65.77-26.41c10.08,0,33.26-219.44,69.45-260.84,81.33-93,216.91,23.23,239.57,23.23,32.74,0,1.47,220.16,34.21,220.16s16.92,22,49.66,22,32.74-9.25,65.48-9.25c30.12,0,58,30.29,58,60.4,0,32.75,1.26,32.75,1.26,65.51s-9.92,32.75-9.92,65.51,4.25,32.75,4.25,65.51.1,32.75.1,65.5,1.53,32.76,1.53,65.51S711,743.84,711,776.6s1.08,32.75,1.08,65.51,8,32.76,8,65.52C720.12,929.48,697,947.2,675.18,947.2Z"/></clipPath><linearGradient id="s2d-b2d1-lg1" x1="3388.52" y1="923.18" x2="3389.64" y2="727.24" gradientTransform="matrix(-1, 0, 0, 1, 3949.01, 0)" gradientUnits="userSpaceOnUse"><stop offset="0.23" stop-color="#b66f1e" stop-opacity="0"/><stop offset="1" stop-color="#b66f1e" stop-opacity="0.8"/></linearGradient><linearGradient id="s2d-b2d1-lg1_2" x1="3904" y1="875.46" x2="3904.7" y2="753.17" xlink:href="#s2d-b2d1-lg1"/><linearGradient id="s2d-b2d1-lg1_3" x1="3356.38" y1="613.62" x2="3356.79" y2="541.64" xlink:href="#s2d-b2d1-lg1"/></defs><title>8</title><path class="s2d-b2d1-1_3" d="M675.18,947.56c-33.06,0-33.06-1.89-66.11-1.89S576,947.92,543,947.92s-33.05,1.68-66.11,1.68-33,3-66.11,3-33.06-3.93-66.11-3.93-33.06-1.9-66.12-1.9S245.44,943,212.38,943s-33.06,6-66.12,6c-19.57,0-41.58-16.23-41.58-34.47,0-28.64,5.27-28.64,5.27-57.27s-4.23-28.64-4.23-57.28,5-28.64,5-57.28-3.88-28.63-3.88-57.27.17-28.64.17-57.27,2.44-28.64,2.44-57.28-.09-28.64-.09-57.28S110,485,110,456.32c0-23.43,9.58-45.94,26.05-61.29s40.63-24.61,65.77-24.61c32.74,0,32.74-4.69,65.48-4.69s32.74,6.72,65.48,6.72,32.74-1.11,65.48-1.11,32.74,2.07,65.48,2.07S496.51,372,529.25,372s32.75,2.61,65.49,2.61S627.48,366,660.22,366c30.12,0,58,28.21,58,56.27,0,30.53,1.26,30.53,1.26,61s-9.92,30.53-9.92,61.05,4.25,30.52,4.25,61.05.1,30.52.1,61,1.53,30.53,1.53,61S711,758.06,711,788.58s1.08,30.53,1.08,61,8,30.53,8,61.06C720.12,931.05,697,947.56,675.18,947.56Z"/><rect class="s2d-b2d1-1_1" x="43.03" y="67.03" width="692.56" height="889.39"/><g class="s2d-b2d1-1_4"><path class="s2d-b2d1-1_5" d="M336.63,866.91l0,0c.25-.41.51-.82.79-1.21l.07-.09a13,13,0,0,1,.85-1.08l.14-.15c.28-.32.58-.64.89-.93l.21-.2c.3-.27.6-.54.91-.79l.32-.24c.29-.22.59-.44.9-.64.14-.1.28-.18.43-.27s.57-.35.87-.51l.55-.26c.28-.14.55-.27.83-.39l.69-.25c.25-.09.51-.19.77-.27s.55-.15.83-.22l.69-.17c.35-.07.7-.11,1.05-.16L349,859c.54-.05,1.08-.08,1.64-.08a16,16,0,0,1,7.27,1.74,24.3,24.3,0,0,1,16.6-9.72,24.17,24.17,0,0,1,3-.18,23.66,23.66,0,0,1,4.87.51c.53.11,1.05.24,1.56.38A24.32,24.32,0,0,1,418.8,835a38.23,38.23,0,0,1-1-6.37c-.06-.81-.09-1.63-.09-2.47a38.74,38.74,0,0,1,49.62-37.24,38.23,38.23,0,0,1,1.51-7,38.76,38.76,0,0,1,63.41-16.68c.46.43.92.88,1.36,1.33a58.09,58.09,0,0,1,11.94-8.6,57.69,57.69,0,0,1,69.84,11.46q1.58,1.7,3,3.53a57.16,57.16,0,0,1,5.18,7.75A58.34,58.34,0,0,1,629,793.82a38.83,38.83,0,0,1,38.92,21.65,24.13,24.13,0,0,1,8.41-1.52,24.48,24.48,0,0,1,4.48.41,24.1,24.1,0,0,1,11.52,5.6c.54.47,1.05,1,1.54,1.47a24.34,24.34,0,0,1,6.54,13.4A24.32,24.32,0,0,1,736,848.74c.2.67.37,1.35.52,2a24.16,24.16,0,0,1,26,9,16.2,16.2,0,1,1,0,28.92,24.28,24.28,0,0,1-33.36,5.6,24.31,24.31,0,0,1-37.81,7.14,24.32,24.32,0,0,1-41.75,2.82,24.26,24.26,0,0,1-29.76-6.72,24.3,24.3,0,0,1-32.75,18.56,57.82,57.82,0,0,1-90.55-13.76,24.22,24.22,0,0,1-25.76,2.74,24.32,24.32,0,0,1-41.75-2.81,24.31,24.31,0,0,1-37.81-7.14,24.31,24.31,0,0,1-33.36-5.6,16.18,16.18,0,0,1-21.25-22.63Z"/><path class="s2d-b2d1-1_6" d="M-94.71,840.35l0,0a8.9,8.9,0,0,1,.49-.76l0,0c.17-.23.35-.46.53-.68l.09-.09c.17-.2.36-.39.55-.58l.14-.12.56-.5.2-.14.56-.41.27-.16.54-.32.35-.17c.17-.08.34-.17.52-.24l.43-.16c.16-.05.31-.12.48-.17l.52-.13.43-.11.65-.1.33,0c.34,0,.68,0,1,0a10,10,0,0,1,4.54,1.09,14.45,14.45,0,0,1,1.12-1.34,15.16,15.16,0,0,1,9.24-4.73,16.26,16.26,0,0,1,1.85-.11,14.54,14.54,0,0,1,3,.32l1,.23a15.21,15.21,0,0,1,14.88-12.06,15.13,15.13,0,0,1,6.91,1.67,25.85,25.85,0,0,1-.6-4c0-.51,0-1,0-1.54a24.22,24.22,0,0,1,24.22-24.22,24,24,0,0,1,6.75,1,24.19,24.19,0,0,1,40.52-14.76c.29.26.57.54.84.82a36.31,36.31,0,0,1,7.46-5.36A36,36,0,0,1,79.3,779.5c.65.71,1.28,1.44,1.89,2.2a36.11,36.11,0,0,1,6.55,13,23.55,23.55,0,0,1,2.53-.13A24.24,24.24,0,0,1,112,808.24a15.06,15.06,0,0,1,8-.69,15.07,15.07,0,0,1,7.19,3.49c.33.3.65.6,1,.92a15.17,15.17,0,0,1,4.08,8.36A15.18,15.18,0,0,1,154.56,829c.13.41.23.84.32,1.27a15.07,15.07,0,0,1,16.24,5.62,10,10,0,0,1,4.53-1.08,10.11,10.11,0,1,1,0,20.22,10,10,0,0,1-4.53-1.09,15.17,15.17,0,0,1-20.83,3.5,15.16,15.16,0,0,1-23.59,4.46,15.19,15.19,0,0,1-26.07,1.75,15.14,15.14,0,0,1-18.57-4.19,15.16,15.16,0,0,1-20.44,11.58,36.07,36.07,0,0,1-56.51-8.58,15.14,15.14,0,0,1-9.4,3.27A15.12,15.12,0,0,1-11,864.18a15.18,15.18,0,0,1-12.51,6.58A15.2,15.2,0,0,1-37,862.42a15.11,15.11,0,0,1-10.07,3.83A15.18,15.18,0,0,1-60.62,858a15.21,15.21,0,0,1-8.62,2.68,15.17,15.17,0,0,1-12.21-6.18A10,10,0,0,1-86,855.55,10.11,10.11,0,0,1-96.1,845.44,10,10,0,0,1-94.71,840.35Z"/><path class="s2d-b2d1-1_7" d="M510.39,593v0c.09-.15.19-.3.29-.44l0,0c.1-.13.21-.27.32-.39l.05-.06.32-.34.08-.07c.11-.1.22-.2.34-.29l.11-.09.33-.24.16-.09.32-.19.2-.1.31-.14a2.5,2.5,0,0,1,.25-.09l.28-.1.31-.08.25-.07.39-.05.19,0,.6,0a5.89,5.89,0,0,1,2.68.64,8.27,8.27,0,0,1,.65-.79,8.9,8.9,0,0,1,5.45-2.78,7.73,7.73,0,0,1,1.08-.07,8.86,8.86,0,0,1,1.8.19c.19,0,.38.08.57.14a9,9,0,0,1,8.75-7.11,8.84,8.84,0,0,1,4.07,1,16.29,16.29,0,0,1-.35-2.34c0-.3,0-.6,0-.91a14.25,14.25,0,0,1,14.25-14.25,14.55,14.55,0,0,1,4,.57,14.2,14.2,0,0,1,14.14-12.51,14.18,14.18,0,0,1,9.71,3.83c.17.15.33.32.49.48a21.76,21.76,0,0,1,4.39-3.16,21.2,21.2,0,0,1,25.66,4.21c.38.42.76.85,1.11,1.3a21.42,21.42,0,0,1,3.86,7.67,14.56,14.56,0,0,1,1.49-.08,14.24,14.24,0,0,1,12.8,8,8.88,8.88,0,0,1,9,1.65,7.27,7.27,0,0,1,.57.54,8.94,8.94,0,0,1,2.4,4.92,8.94,8.94,0,0,1,13.1,5.11c.07.25.13.5.19.75a8.73,8.73,0,0,1,2.36-.32,8.93,8.93,0,0,1,7.19,3.63,5.95,5.95,0,1,1,0,10.63,8.93,8.93,0,0,1-12.26,2,8.92,8.92,0,0,1-13.88,2.63,8.94,8.94,0,0,1-15.34,1,8.9,8.9,0,0,1-10.93-2.47,8.92,8.92,0,0,1-12,6.82,21.24,21.24,0,0,1-33.26-5,8.9,8.9,0,0,1-9.46,1,8.93,8.93,0,0,1-15.34-1,8.92,8.92,0,0,1-13.89-2.62,8.91,8.91,0,0,1-12.25-2.06,5.95,5.95,0,0,1-8.63-5.31A5.86,5.86,0,0,1,510.39,593Z"/><path class="s2d-b2d1-1_8" d="M316.56,400v-9.6c-.23-7,6.54-18.47,13-15.76C367.8,390.57,485,448.85,481.68,552L335.07,450.71Z"/><path class="s2d-b2d1-1_9" d="M309.86,142.13c-5-8.26-9-17.64-8-27.2C303,103,311.5,93.25,319.21,84S334.62,64,333.75,52c4.73,11.74,17.7,17.64,27.83,25.42a70.51,70.51,0,0,1,22.75,30.34"/><path class="s2d-b2d1-1_9" d="M285.61,155.69c-4.57-11.78-8.71-29.15-2.46-45,5.1-12.92,15.93-22.22,26.4-31.2,8.91-7.65,18.12-15.55,23.63-25.6l2.87,1.58c-5.79,10.57-15.24,18.67-24.37,26.5C301,91.14,291,99.76,286.19,111.93c-5.85,14.83-1.88,31.34,2.48,42.58Z"/><path class="s2d-b2d1-1_8" d="M487.73,179.39l5.11,12.68a175.33,175.33,0,0,1,11.55,86.8c-5.43,44.9-21.15,103.19-66.11,104.54-20.8.63-105.64-65.9-105.64-65.9s-14.27-13.18-16.21-30l-8.64-38.21,2.7-21.23,17-10.46,18-8.07,31.08-19.77Z"/><path class="s2d-b2d1-1_8" d="M474,307.53c-2.46,5.53-3.53,10.8-1.28,14.56a9.24,9.24,0,0,0,4,3.55c10.25,5.06,8.73,6.35,13.7,4.71,3.81-1.2-2.07-.62-2.07-.62L497,317.45s20.43-5.82,20-11.5c-.51-8-10.46-9.88-16.24-21.12L497,277.19S479.74,294.92,474,307.53Z"/><path class="s2d-b2d1-1_8" d="M389.74,339.56l-9.33,51.84a19.3,19.3,0,0,1-22,15.43h0a17.61,17.61,0,0,1-15.08-18.43l5.07-78.83Z"/><path class="s2d-b2d1-1_10" d="M351.7,332.72a129.67,129.67,0,0,0-5.21,23.49l-1.62-.18a130.58,130.58,0,0,1,4.42-24Z"/><path class="s2d-b2d1-1_10" d="M345.8,162.2c-24.23-7.6-43.94,23.61-49.61,57.11l0,.09c-.33,1.88-.61,3.67-.87,5.53a.47.47,0,0,0,0,.28c0,.35-.09.67-.09,1s-.1.81-.09,1a.49.49,0,0,0,0,.29,103.33,103.33,0,0,0-.24,20.17c3.76,41.1,21.75,68.71,21.75,68.71L351.72,310c-1.19-.17-7.72-2-11.27-20.39-3.92-20.27,9-43,25.14-37s7.63,34.37,7.63,34.37l5.65.4c19.68-22.16,28.85-47.81,24.61-71.34,0,0,38.63-8.66,63.35-7.78,12.2.43,22.9-9.28,21.72-20.31,0-.22-.05-.45-.08-.68-3.91-30.06-42.19-49.79-90-49.45S345.8,162.2,345.8,162.2Z"/><path class="s2d-b2d1-1_10" d="M355.23,110.15s-35.75-.25-62.09,21.36S273,184.66,273,184.66s.86-13.3,11.85-22.3c0,0-15.67,38.79,10.22,65.17a.49.49,0,0,1,0-.29c0-.2.06-.58.09-1a3.91,3.91,0,0,1,.09-1,.47.47,0,0,1,0-.28,46,46,0,0,1,.87-5.53l0-.09c2.67-12.09,12.31-33.68,46-37,44.37-4.43,77.6,12.77,81.54,15-3.67-1.62-28.82-12.08-54.5,1,0,0,26.44-9.92,40,15.28,0,0,35-7.05,60.3-5.07,9.11.71,17-9.76,23.29-16.41.59-.62,5.44,18.1,6,17.43,5.37-6.42,6.7-27.06,4.13-37.3-5.92-23.4-40.7-61.71-95.44-64.53-30.32-1.55-48.39-5.37-58.37-8.49-8.05-2.53-11-4.56-11-4.56S340.66,105.67,355.23,110.15Z"/><path class="s2d-b2d1-1_11" d="M448.9,150.4c-6.37-7.81-16.81-11-24.44-12.36a153.86,153.86,0,0,0-15.52-1.65c-4.33-.32-8.8-.64-13.19-1.27a94.11,94.11,0,0,1-30.82-10.05l1-1.88A92,92,0,0,0,396.06,133c4.3.62,8.74.94,13,1.26a156.65,156.65,0,0,1,15.73,1.67c11.46,2,20.36,6.53,25.73,13.11Z"/><path class="s2d-b2d1-1_11" d="M307.79,187.06l-2.06-.53,2.53-9.85c5-19.54,23-32.86,42.68-31.66l2,.16c10.7,1.06,21,4.62,30.92,8.06,4.63,1.6,9.42,3.26,14.18,4.63,4.31,1.25,8.83,2.34,13.2,3.4C425,164.59,439.14,168,450.12,177l-1.35,1.65c-10.6-8.63-24.55-12-38-15.26-4.39-1.06-8.93-2.16-13.3-3.42-4.81-1.4-9.62-3.06-14.28-4.67-9.82-3.4-20-6.92-30.43-7.95-.63-.06-1.27-.11-1.91-.15-18.7-1.14-35.71,11.5-40.49,30.06Z"/><path class="s2d-b2d1-1_11" d="M337.08,213.07a32.66,32.66,0,0,1-14.87-16.74c-1.3-3.33-3.7-11.84,2.25-19,4.25-5.09,10.69-6.83,14.15-7.4,17.77-3,33.39,2.11,43.37,6.9,12.1,5.81,13.23,5.48,20.58,3.32,2.14-.63,4.81-1.41,8.38-2.24l.54,2.34c-3.5.81-6.13,1.59-8.24,2.21-8,2.36-9.72,2.58-22.3-3.46-13.66-6.56-28.56-8.94-41.93-6.7-5.33.89-10,3.28-12.7,6.57-5.13,6.14-3,13.62-1.86,16.55A29.89,29.89,0,0,0,338.22,211Z"/><path class="s2d-b2d1-1_11" d="M362.58,244.23c-13.61-2.5-24.41-12-33.47-20.73a68.34,68.34,0,0,1-5.92-6.25c-7-8.73-8.19-17.83-3.62-27.81l1.94.88c-4.21,9.18-3.12,17.56,3.34,25.59a64,64,0,0,0,5.74,6.06c8.83,8.5,19.34,17.78,32.37,20.17Z"/><path class="s2d-b2d1-1_11" d="M339.81,255.86c-14.21-7.43-22.8-21.68-29.74-34.46a77.12,77.12,0,0,1-4.35-9,42.45,42.45,0,0,1,.35-31.14l2.28.94a40,40,0,0,0-.32,29.31,73.62,73.62,0,0,0,4.21,8.68c6.77,12.46,15.13,26.34,28.71,33.44Z"/><path class="s2d-b2d1-1_10" d="M414.55,262a27,27,0,0,1,10.95-4.72,33.38,33.38,0,0,1,11.67,0,47.49,47.49,0,0,1,10.93,3.31,49.75,49.75,0,0,1,9.87,5.65l-2.22,3a46.19,46.19,0,0,0-9.22-4.9,43,43,0,0,0-10-2.72,28.79,28.79,0,0,0-10.07.26,22.14,22.14,0,0,0-8.85,4.12Z"/><path class="s2d-b2d1-1_10" d="M418.48,238a40.25,40.25,0,0,1,8.07-3.73,31.21,31.21,0,0,1,8.83-1.56,35.33,35.33,0,0,1,8.85.88c.73.14,1.43.35,2.14.53a11.51,11.51,0,0,1,1.12.33c.37.12.71.26,1.06.39,1.38.55,2.69,1.15,4,1.77s2.59,1.24,3.89,2a22.5,22.5,0,0,1,3.69,2.64,29.41,29.41,0,0,1,5.66,6.86c3.06,5,5,10.49,6.85,15.88l-2.19.76c-1.92-5.31-3.94-10.59-6.89-15.24a26.83,26.83,0,0,0-5.25-6.14,18.63,18.63,0,0,0-3.27-2.25c-1.17-.65-2.47-1.25-3.73-1.83s-2.56-1.14-3.83-1.61l-.94-.33a9.72,9.72,0,0,0-.94-.26c-.66-.15-1.33-.33-2-.45a32,32,0,0,0-8.08-.66,31.42,31.42,0,0,0-15.17,5.08Z"/><path class="s2d-b2d1-1_10" d="M503.24,232.3a15.56,15.56,0,0,0-15.76,3,15,15,0,0,0-2.76,3.22,23.12,23.12,0,0,0-2.05,3.87,18.47,18.47,0,0,0-1.17,4.15,44.89,44.89,0,0,0-.3,4.48,37.23,37.23,0,0,0,.78,9,29.62,29.62,0,0,0,3.27,8.32c3,5.24,7.36,9.73,11.9,13.92L495.61,284c-4.71-4.19-9.29-8.72-12.66-14.3a32,32,0,0,1-3.74-9,39.55,39.55,0,0,1-1-9.66c0-.81,0-1.61.05-2.41a24.78,24.78,0,0,1,.2-2.48,20.67,20.67,0,0,1,1.3-4.88,25.53,25.53,0,0,1,2.27-4.45,18.09,18.09,0,0,1,3.28-3.93,19.5,19.5,0,0,1,9.06-4.61,18.08,18.08,0,0,1,10.23.76Z"/><path class="s2d-b2d1-1_10" d="M509.52,255.69l-2.38-.26c-.78,0-1.57-.05-2.36-.05a19.39,19.39,0,0,0-4.58.64,13.09,13.09,0,0,0-4.09,1.86,10.05,10.05,0,0,0-1.67,1.45,6.84,6.84,0,0,0-.69.84,6.23,6.23,0,0,0-.52.82l-2.5-1a8.48,8.48,0,0,1,.74-1.36,9.56,9.56,0,0,1,.86-1.15,12.91,12.91,0,0,1,2-1.94,16,16,0,0,1,4.91-2.55,23,23,0,0,1,5.34-1c.89,0,1.79-.05,2.68-.06l2.65.16Z"/><ellipse class="s2d-b2d1-1_9" cx="423.94" cy="306.11" rx="21.57" ry="21.15" transform="translate(-17.62 26.02) rotate(-3.44)"/><path class="s2d-b2d1-1_12" d="M417,375.81a187.47,187.47,0,0,1-51.63-33.47"/><path class="s2d-b2d1-1_9" d="M372.65,329.47c-12.55,13-68.5,28-115.19-8.27s-3-75.54,15.66-58.64c12.64,11.46,10.75,22,2.32,27.62,0,0-11.85,10.85-22.34-2.9,0,0,2.63,11.77,22.93,21.35s39.9,10.3,53.06,2.48c0,0-23.06-16.31-18.77-35.9s7.2-29.11-8.34-38c0,0,22.3-.43,28.34,10.12,0,0,34.58-22.3-23.56-60.51,0,0,81.08,15.36,88.91,76C395.67,262.76,399.92,301.16,372.65,329.47Z"/><path class="s2d-b2d1-1_8" d="M374.71,271.76h0a15.54,15.54,0,0,0-7.06-6.86,37.53,37.53,0,0,0-9.06-2.95,14.24,14.24,0,0,0-4.52-.56c-4.43.41-7.52,4.82-9,9.2a29.25,29.25,0,0,0-.43,17.13h0l.13.4a25.43,25.43,0,0,0,2.58,5.87c.13.22.28.42.41.63a35.55,35.55,0,0,0,13.66,13.64,5.85,5.85,0,0,0,8.16-2.69C373.28,297.05,379.57,280.12,374.71,271.76Z"/><path class="s2d-b2d1-1_10" d="M359.36,298.36a30.66,30.66,0,0,1-9.95-18.22c-.14-.88-.23-1.77-.29-2.66a13.38,13.38,0,0,1,.11-2.94,8,8,0,0,1,1.18-3.2,6.12,6.12,0,0,1,3.06-2.38,8.67,8.67,0,0,1,3.36-.42,14.15,14.15,0,0,1,2.95.46,11.34,11.34,0,0,1,2.92,1.24,8.35,8.35,0,0,1,2.56,2.41L361,275.42a4.5,4.5,0,0,0-2.6-1.78,7,7,0,0,0-3.48-.32,1.55,1.55,0,0,0-.84.56,3.66,3.66,0,0,0-.56,1.41,9.85,9.85,0,0,0-.16,2c0,.76.06,1.53.14,2.29a27,27,0,0,0,8,16.35Z"/><circle class="s2d-b2d1-1_8" cx="250.83" cy="297.83" r="0.18"/><path class="s2d-b2d1-1_8" d="M263.18,311.15a.67.67,0,1,1,.68-.67A.67.67,0,0,1,263.18,311.15Z"/><path class="s2d-b2d1-1_8" d="M277.89,321.4a1.09,1.09,0,1,1,1.08-1.08A1.08,1.08,0,0,1,277.89,321.4Z"/><circle class="s2d-b2d1-1_8" cx="294.32" cy="326.88" r="1.45"/><path class="s2d-b2d1-1_8" d="M311.78,331.55a1.85,1.85,0,1,1,1.84-1.85A1.85,1.85,0,0,1,311.78,331.55Z"/><path class="s2d-b2d1-1_8" d="M329.45,330.13a1.35,1.35,0,1,1,1.34-1.35A1.34,1.34,0,0,1,329.45,330.13Z"/><path class="s2d-b2d1-1_13" d="M480.27,324.42a12.48,12.48,0,0,0-8.61-1.74c-2.3.48-4.32,1.79-6.54,2.53-4.69,1.57-9.82.45-14.63-.74a16.81,16.81,0,0,0,17.2,4.31,25.31,25.31,0,0,1,4.76-1.51c4.6-.56,8.44,3.52,12.72,3.1C485.58,327.53,482.49,325.7,480.27,324.42Z"/><path class="s2d-b2d1-1_13" d="M487.33,325.28a8.51,8.51,0,0,1,5.62-2.71c1.68-.05,3.32.56,5,.72,3.54.33,6.87-1.33,10-3a11.47,11.47,0,0,1-11.06,6,17.26,17.26,0,0,0-3.57-.29c-3.29.37-5.17,4-8.21,4.38C484.25,328.42,486,326.58,487.33,325.28Z"/><path class="s2d-b2d1-1_9" d="M282.35,166.52c17.57,20.39,43.85,31.15,69.1,41.19,17.49,7,36.18,14,54.76,10.69,7.7-1.39,15-4.54,22.65-6.1a56.72,56.72,0,0,1,43.53,9.12c1.41-13.16,16.62-23.09,29.53-19.29,0,0,3.61-5.65,1.81-22.73,0,0-32.75-.05-38.36,19.3,0,0-23.79-15.85-65.9-.72-35.9,12.89-88.37-18.13-114-39.64Z"/><path class="s2d-b2d1-1_9" d="M388.68,161.67a.9.9,0,0,0,.63.84c9.65,3.21,18.91,10.05,26.33,18.17,0,0,20,1.41,24.19,1.28,16.1,1.3,21.32,8,21.32,8,2.8-13.85,34.89-18.44,38.27-20.07l1-.33c5.07-9.66,12.22-18.56,20.67-24.09a.91.91,0,0,0,.39-1,.93.93,0,0,0-.77-.71c-2.19-.32-4.51-.78-6.92-1.36a.92.92,0,0,0-.67.08l-12.56,6.58-4.89-12.4a.93.93,0,0,0-.51-.52Q492.6,135.13,490,134a.94.94,0,0,0-.94.09.92.92,0,0,0-.39.85c.79,6.88-2.21,14.89-11,14.21-11.43-.9-8.23-14.86-1.59-20.85a.92.92,0,0,0,.3-.78.93.93,0,0,0-.46-.69c-1.45-.82-7.47-16.17-14.86-28-5-8.07-10.66-14.54-15.93-13.78-5.68.83-9.29,10-11.72,20-3,12.69-4.24,26.89-5.35,28a.9.9,0,0,0-.26.79.87.87,0,0,0,.49.67c8,4.11,14.66,16.79,3.84,20.56-8.28,2.88-13.25-4.1-14.27-10.95a.91.91,0,0,0-.59-.73,1,1,0,0,0-.94.15q-2.19,1.8-4.41,3.49a.93.93,0,0,0-.36.62l-1.53,13.23-13.84-3.16a.9.9,0,0,0-.66.09c-2.18,1.17-4.3,2.21-6.34,3.07A.91.91,0,0,0,388.68,161.67ZM471,153.9c-3.64,3.64-7.16,9.77-9,15.56a.93.93,0,0,1-.78.65,1,1,0,0,1-.92-.44c-3.15-5.2-8-10.33-12.44-13a.92.92,0,0,1-.43-.68.89.89,0,0,1,.26-.75,41.15,41.15,0,0,0,9-15.56.94.94,0,0,1,1.7-.21c3.15,5.2,8,10.33,12.44,13a.9.9,0,0,1,.44.67A.93.93,0,0,1,471,153.9Zm30.32,6.29a23.54,23.54,0,0,0-8.62,4.37.84.84,0,0,1-.79.15.79.79,0,0,1-.52-.6,22.88,22.88,0,0,0-3.8-8.54.92.92,0,0,1-.13-.85,1,1,0,0,1,.65-.59,23.44,23.44,0,0,0,9.26-5,.19.19,0,0,1,.19,0,.19.19,0,0,1,.12.14,22.45,22.45,0,0,0,4.08,9.76.74.74,0,0,1,.12.73A.82.82,0,0,1,501.34,160.19Zm-80-1.36a1,1,0,0,1,.92-.06,23.74,23.74,0,0,0,9,2.14.94.94,0,0,1,.77.41.91.91,0,0,1,.08.86,22.73,22.73,0,0,0-1.66,9,.93.93,0,0,1-.42.8,1,1,0,0,1-.92.06,23.78,23.78,0,0,0-9.05-2.13,1,1,0,0,1-.77-.42.91.91,0,0,1-.08-.86,22.56,22.56,0,0,0,1.66-9A.91.91,0,0,1,421.36,158.83Z"/><path class="s2d-b2d1-1_9" d="M453.35,154.67a.78.78,0,0,0-.21.63.79.79,0,0,0,.36.56,22.46,22.46,0,0,1,6,6.26.84.84,0,0,0,.78.36.82.82,0,0,0,.67-.54,22,22,0,0,1,4.48-7.6.65.65,0,0,0-.13-1,22.19,22.19,0,0,1-6.16-6.33.81.81,0,0,0-.78-.36.79.79,0,0,0-.67.53A22.24,22.24,0,0,1,453.35,154.67Z"/><path class="s2d-b2d1-1_9" d="M492,155.57a.46.46,0,0,0-.31.28.45.45,0,0,0,.06.42,9.88,9.88,0,0,1,1.59,3.54.49.49,0,0,0,.3.33.46.46,0,0,0,.44-.08,10.69,10.69,0,0,1,3.51-1.78A.45.45,0,0,0,498,158a.48.48,0,0,0-.06-.42,10.16,10.16,0,0,1-1.6-3.54.44.44,0,0,0-.29-.33.46.46,0,0,0-.44.08A10.73,10.73,0,0,1,492,155.57Z"/><path class="s2d-b2d1-1_9" d="M422.59,167.36a.46.46,0,0,0,.42.62,10.62,10.62,0,0,1,3.84.91.48.48,0,0,0,.45,0,.42.42,0,0,0,.2-.38,10,10,0,0,1,.71-3.82.45.45,0,0,0-.41-.62,10.63,10.63,0,0,1-3.85-.91.46.46,0,0,0-.44,0,.45.45,0,0,0-.21.38A10,10,0,0,1,422.59,167.36Z"/><path class="s2d-b2d1-1_9" d="M413.69,184.8c-9.06,2.44-18,5.61-27.26,7-12.42,1.8-25.19.27-37.17-3.38s-23.21-9.37-33.8-15.95a144.08,144.08,0,0,0,17.19,6,209.58,209.58,0,0,0,28.47,5.64c10.45,1.44,22,2.21,30.69-3.63,3-2,5.56-4.9,6.1-8.39s-1.57-7.48-5.09-8.2a63.94,63.94,0,0,1,17.07,6.54c3.78,2.11,7.37,4.62,11.42,6.17,7.75,3,16.4,1.77,24.16,4.44-4.64,1.82-9.93.4-14.79.69A85.34,85.34,0,0,0,413.69,184.8Z"/><path class="s2d-b2d1-1_14" d="M453.47,373.65c1.31-1.17,5.54-4.73,7-7.27"/><path class="s2d-b2d1-1_14" d="M446.4,375c1.6-1.92,6.39-8.9,6.45-10.58"/><path class="s2d-b2d1-1_14" d="M440.85,376.65a23,23,0,0,0,2-10"/><path class="s2d-b2d1-1_10" d="M442.29,337.08l.3-.32a1.42,1.42,0,0,1,.62-.4,1.44,1.44,0,0,1,.79,0l.22.06.42.1.86.19,1.72.37c1.15.24,2.3.46,3.45.67q3.46.64,6.95,1.06a68.12,68.12,0,0,0,6.95.52,27.34,27.34,0,0,0,6.71-.56l1.34-.34.3,1.37,2.17,10.14.35,1.64-1.66.08a43.3,43.3,0,0,1-17.27-2.94,34.53,34.53,0,0,1-7.8-4.19c-.6-.44-1.21-.87-1.79-1.33l-1.67-1.49c-.29-.27-.52-.45-.86-.8a10,10,0,0,1-1.07-1.39A10.32,10.32,0,0,1,442.29,337.08Zm2.1,1,.57.22a3.25,3.25,0,0,0,1.58.11.42.42,0,0,1,.34.19c.15.17.46.44.69.65l1.47,1.37c.52.42,1.07.81,1.6,1.22a31.54,31.54,0,0,0,7,3.94,40.32,40.32,0,0,0,15.91,3l-1.31,1.72-2-10.18,1.64,1a29.32,29.32,0,0,1-7.42.52,68.58,68.58,0,0,1-7.19-.65c-2.38-.33-4.73-.73-7.07-1.2-1.17-.24-2.34-.48-3.5-.75l-1.75-.4-.87-.21-.44-.11-.21-.06a.8.8,0,0,0,.57-.07A.9.9,0,0,0,444.39,338.07Z"/><path class="s2d-b2d1-1_10" d="M210,1085.44l-22.23,404.15a180.1,180.1,0,0,1-7.93,43.84L36.63,1991.55a46.2,46.2,0,0,0,28.48,57.26l4.7,1.69a38.85,38.85,0,0,0,48.39-20.21l231.43-453.21a145.62,145.62,0,0,0,10.66-27.44c21.93-79.6,127.07-466.06,120.19-534.82Z"/><path class="s2d-b2d1-1_10" d="M238,1102.54,428.9,1485.68a92.37,92.37,0,0,1,8.75,28.09l69.53,487.31a36.32,36.32,0,0,0,37.54,29.85l20.77-1A34.49,34.49,0,0,0,598.3,1995l-6.82-498.9a188.8,188.8,0,0,0-4-36.33c-18.36-87.5-99-464.74-136.91-523.57Z"/><path class="s2d-b2d1-1_15" d="M542.76,1033.5l16.11,185.33c1.41,16.24-10.85,30.89-28.65,34.29-77.51,14.76-280.28,45.37-378.87-15.46,0,0,26.05-73,17.14-131.66s-4.8-78.78,25.36-97.28Z"/><path class="s2d-b2d1-1_16" d="M488.32,1033.33c37.82,5.6,70.43,36.91,77.56,74.46,2.72,14.33,2.1,29.41,7.41,43,4.53,11.6,12.83,20.85,22.49,28.9,11.24,9.37,32.57,13.21,42.35,2.32,10.13-11.27,15.75-27.54,26.24-38.49-16.79,2.33-30.07-14.54-35.09-30.73s-6.11-34.31-16.58-47.63c-18.55-23.64-56.91-20.92-78.63-41.69"/><path class="s2d-b2d1-1_10" d="M325.06,400S490.23,433.6,514.7,583.59c0,0,18.42,219.53,52.07,320.39l8.94,17.91c25.81,51.68-11.35,111.15-73.57,117.75-76.95,8.17-180.57,12.69-282.72-2.93-37.24-5.69-59.82-40.56-47-72.72,17.21-43.17,34.21-110.51,27.6-200.29C200,763.7,171.23,403.08,325.06,400Z"/><path class="s2d-b2d1-1_10" d="M325.06,400S180.13,355.89,201,413.1s-5.38,188.52-5.38,188.52l76.42-141.28Z"/><path class="s2d-b2d1-1_11" d="M413.9,1047.1c41.13.61,76.09-40.49,89.12-71.78,16.18-38.88,11.41-109.77,2.54-150.49C485.4,732.23,495.49,635,465.22,544.6c-6-17.93-13.67-35.6-25.22-51.21-13.58-18.33-22.55-30.05-40.84-44.74-15.22-12.23-36.33-22.08-62.09-29.28,0,0-47.59-17.34-92.87,33.73,0,0-72.84,58.93-66,490.88,0,0-30.22,71.83,17.76,87.17C263.09,1052.62,314,1045.61,413.9,1047.1Z"/><path class="s2d-b2d1-1_10" d="M381.68,475.39c-3.83-1.85-16.91-12.73-20.56-14.93a65.82,65.82,0,0,0-52-6.64c-8.54,2.53-16.67,6.84-25.54,7.65a30,30,0,0,1-11.55-1.13c6,8.67,16.23,13.52,26.49,16,4,1,8.25,1.61,12.34.89,4.3-.76,8.17-3,12.13-4.81,9.74-4.54,21-7,31.27-3.91,3.47,1,6.77,2.66,10.33,3.3"/><path class="s2d-b2d1-1_8" d="M565.24,1002.4s5.45,37.41-2,33.43-16-35.35-16-35.35Z"/><path class="s2d-b2d1-1_8" d="M544.72,989.4a8.92,8.92,0,0,0-.23,3.15c1,13.4,25,33.66,27.43,35.66a1.07,1.07,0,0,0,.21.17s14.26,27.62,19.2,28.62-7.43-27.83-7.43-27.83l8.26-3.19s21.07,21.81,30.19,19.61-23.12-29.77-23.12-29.77l8.19-2.76s34.33,16.44,40.22,12.43c2.81-1.93-4.67-7.18-13.15-12-9-5.23-19.28-10-19.28-10s19.38,4.32,29.94,4.85c3.19.18,5.55,0,6.37-.81,3.6-3.29-25-9.75-41-19.35s-33.72-19.5-33.72-19.5-17.7,4.35-26.91,12.88A16.3,16.3,0,0,0,544.72,989.4Z"/><path class="s2d-b2d1-1_8" d="M550,1001.13,357,800.8c-.25-.26-.49-.53-.73-.8a23,23,0,0,1-5.13-10.62L311.67,635l103.38,34.53,25.49,103.94,139.87,198"/><path class="s2d-b2d1-1_8" d="M415.05,669.57s-13.36-148.8-77.37-116.86c0,0-32.11,13.48-15.8,92.78Z"/><path class="s2d-b2d1-1_17" d="M568,954.34s-35.3,0-40,23.93"/><path class="s2d-b2d1-1_11" d="M393.23,499.59c6,14.36,9.14,31.22,12.19,47.88l23.37,128c.59,3.18,1.16,6.61.29,10a18.67,18.67,0,0,1-5.65,8.75c-12.65,12.12-27.8,14.18-41.84,14.46A216.51,216.51,0,0,1,319.28,701c-4.41-1.22-8.9-2.66-12.29-6.34-3.65-3.95-5.68-10.12-7.46-16.23C284.29,625.86,235,471.27,343.28,460.76,364.75,458.68,383.13,475.58,393.23,499.59Z"/><path class="s2d-b2d1-1_10" d="M389.64,710.58l-8.11.47-4,.08h-4q-8.06,0-16.1-.69a216.23,216.23,0,0,1-31.88-4.93c-2.63-.61-5.22-1.26-7.84-2a35.55,35.55,0,0,1-8.1-3.11,20,20,0,0,1-6.81-6.26,37.4,37.4,0,0,1-3.92-7.75c-1-2.62-1.8-5.24-2.57-7.8L294,671l-4.58-15.3,6.6-1.85,4.27,15.34,2.14,7.67c.71,2.55,1.43,5,2.28,7.39a30.94,30.94,0,0,0,3.11,6.52,14,14,0,0,0,4.73,4.52,29.47,29.47,0,0,0,6.71,2.69c2.51.72,5.05,1.42,7.59,2.06a212.34,212.34,0,0,0,31,5.39q7.85.78,15.74,1l3.94.06h3.94l7.82-.31Z"/><path class="s2d-b2d1-1_10" d="M415,703.33a53.76,53.76,0,0,1-12.34,6.29L400.93,703a48.2,48.2,0,0,0,11.91-3.52Z"/><path class="s2d-b2d1-1_10" d="M423.85,636.06l6.54,32.47L432,676.7a23.29,23.29,0,0,1,.13,9.44,20.06,20.06,0,0,1-4.58,8.6,42,42,0,0,1-3.16,3.22c-1.08,1-2.21,2-3.37,2.87l-4.12-5.48c1-.75,2-1.54,3-2.38a36,36,0,0,0,2.74-2.59,13.61,13.61,0,0,0,3.4-5.71,17.4,17.4,0,0,0,.07-7l-1.31-8.12-5.36-32.69Z"/><path class="s2d-b2d1-1_10" d="M285.49,636.38c-3.42-13.37-6.43-26.86-8.73-40.51a290.11,290.11,0,0,1-4.18-41.36c-.28-13.89.66-28,4.28-41.63a87.62,87.62,0,0,1,7.8-19.75,67,67,0,0,1,13.19-16.89,65.12,65.12,0,0,1,18-11.65A74.18,74.18,0,0,1,326,461c1.71-.52,3.45-.88,5.17-1.32s3.47-.74,5.23-1l2.62-.41,2.63-.32,1.32-.15,1.38-.07,2.79-.13a40.07,40.07,0,0,1,11,1.64c7.19,2,13.51,6.11,18.89,10.93a71.64,71.64,0,0,1,13.44,16.76l1.36,2.3c.43.78.82,1.58,1.24,2.37s.83,1.57,1.22,2.37l1.1,2.43a97.7,97.7,0,0,1,3.9,9.87c4.52,13.37,7,27.08,9.55,40.59l-6.74,1.23c-2.44-13.51-4.8-27-9-39.72a92.73,92.73,0,0,0-3.6-9.33l-1-2.28c-.35-.75-.74-1.48-1.12-2.22s-.74-1.48-1.13-2.21l-1.25-2.14a65.69,65.69,0,0,0-12.14-15.41c-4.79-4.35-10.3-8-16.4-9.69a33.9,33.9,0,0,0-9.32-1.47l-2.36.1-1.19,0-1.25.14-2.49.28-2.47.37c-1.66.22-3.28.6-4.92.89s-3.24.72-4.83,1.2a68.1,68.1,0,0,0-9.35,3.27,59.74,59.74,0,0,0-16.54,10.51,61.44,61.44,0,0,0-12.19,15.4A82.29,82.29,0,0,0,282,514.28c-3.54,12.94-4.58,26.58-4.4,40.14a285.61,285.61,0,0,0,3.81,40.69c2.17,13.49,5.06,26.89,8.36,40.19Z"/><path class="s2d-b2d1-1_8" d="M502.2,873.43a600,600,0,0,1-8.46-64.6c-1.76-21.62-2.67-43.26-3.49-64.85s-1.58-43.16-3-64.66-3.54-42.92-7.11-64.1q-2.68-15.88-6.46-31.54l-2-7.79-2.18-7.75c-1.46-5.16-3.1-10.27-4.78-15.37-3.39-10.19-7.14-20.26-11.39-30.08-2.14-4.89-4.42-9.72-6.93-14.4a141,141,0,0,0-8.35-13.57c-3-4.46-6.06-8.85-9.3-13.06a135.27,135.27,0,0,0-10.4-12c-3.7-3.83-7.61-7.49-11.58-11.12l-3-2.69c-1-.85-2-1.71-3-2.54s-2.07-1.62-3.13-2.4l-3.23-2.29a153.89,153.89,0,0,0-13.66-8.21c-4.7-2.52-9.5-4.88-14.39-7a280.56,280.56,0,0,0-30-11.35l-.16-.06-.06,0c-.33-.14-.87-.32-1.33-.46s-1-.29-1.48-.41c-1-.26-2-.48-3.05-.66a54.84,54.84,0,0,0-6.28-.71,66.06,66.06,0,0,0-12.71.63A85.71,85.71,0,0,0,286.85,428a125.27,125.27,0,0,0-22,13.68,177.57,177.57,0,0,0-19.37,17.44h0A2.21,2.21,0,0,1,242.3,456a181.29,181.29,0,0,1,19.8-17.95,130.79,130.79,0,0,1,22.76-14.26,90.6,90.6,0,0,1,25.75-8.16,70.63,70.63,0,0,1,13.64-.71,56.72,56.72,0,0,1,6.85.76c1.14.18,2.27.43,3.4.71.57.14,1.14.3,1.71.47s1.1.35,1.78.62l-.21-.08a287.75,287.75,0,0,1,30.59,11.46q7.49,3.3,14.73,7.16a162,162,0,0,1,14.13,8.43l3.39,2.39c1.11.82,2.2,1.68,3.3,2.53s2.13,1.79,3.2,2.69l3,2.72c4,3.65,8,7.35,11.84,11.29a143.73,143.73,0,0,1,10.83,12.42c3.36,4.34,6.48,8.81,9.53,13.3,1.52,2.27,3,4.45,4.51,6.83.76,1.17,1.45,2.36,2.14,3.56s1.37,2.39,2,3.6c2.6,4.84,5,9.78,7.16,14.77,4.35,10,8.18,20.19,11.63,30.49,1.72,5.15,3.39,10.32,4.9,15.55l2.24,7.84,2.06,7.9q3.93,15.84,6.69,31.91c3.71,21.42,5.92,43,7.48,64.64s2.39,43.24,3.31,64.82,1.93,43.11,3.78,64.56a594,594,0,0,0,8.66,63.83h0a3.43,3.43,0,1,1-6.73,1.31Z"/><ellipse class="s2d-b2d1-1_18" cx="333.53" cy="850.13" rx="16.06" ry="4.46" transform="translate(-520.07 1174.67) rotate(-89.4)"/><ellipse class="s2d-b2d1-1_18" cx="333.02" cy="897.94" rx="16.06" ry="4.46" transform="translate(-568.38 1221.47) rotate(-89.4)"/><ellipse class="s2d-b2d1-1_18" cx="357.18" cy="874.29" rx="4.46" ry="16.06" transform="matrix(0.01, -1, 1, 0.01, -520.83, 1222.22)"/><ellipse class="s2d-b2d1-1_18" cx="309.37" cy="873.78" rx="4.46" ry="16.06" transform="translate(-567.63 1173.92) rotate(-89.4)"/><ellipse class="s2d-b2d1-1_18" cx="313.92" cy="524.17" rx="11.46" ry="3.18" transform="translate(-213.53 832.54) rotate(-89.4)"/><ellipse class="s2d-b2d1-1_18" cx="331.16" cy="507.29" rx="3.18" ry="11.46" transform="translate(-179.59 833.07) rotate(-89.4)"/><ellipse class="s2d-b2d1-1_18" cx="224.38" cy="627.51" rx="9.86" ry="2.73" transform="translate(-405.46 845.26) rotate(-89.4)"/><ellipse class="s2d-b2d1-1_18" cx="224.07" cy="656.85" rx="9.86" ry="2.73" transform="translate(-435.1 873.98) rotate(-89.4)"/><ellipse class="s2d-b2d1-1_18" cx="238.9" cy="642.33" rx="2.73" ry="9.86" transform="translate(-405.92 874.44) rotate(-89.4)"/><ellipse class="s2d-b2d1-1_18" cx="209.56" cy="642.02" rx="2.73" ry="9.86" transform="translate(-434.64 844.79) rotate(-89.4)"/><ellipse class="s2d-b2d1-1_18" cx="238.59" cy="790.51" rx="7.74" ry="2.15" transform="translate(-554.39 1020.75) rotate(-89.4)"/><ellipse class="s2d-b2d1-1_18" cx="238.35" cy="813.56" rx="7.74" ry="2.15" transform="translate(-577.68 1043.31) rotate(-89.4)"/><ellipse class="s2d-b2d1-1_18" cx="250" cy="802.15" rx="2.15" ry="7.74" transform="translate(-554.75 1043.68) rotate(-89.4)"/><ellipse class="s2d-b2d1-1_18" cx="226.94" cy="801.91" rx="2.15" ry="7.74" transform="translate(-577.32 1020.38) rotate(-89.4)"/><ellipse class="s2d-b2d1-1_18" cx="249.56" cy="950.1" rx="7.74" ry="2.15" transform="translate(-703.12 1189.62) rotate(-89.4)"/><ellipse class="s2d-b2d1-1_18" cx="249.31" cy="973.15" rx="7.74" ry="2.15" transform="translate(-726.41 1212.18) rotate(-89.4)"/><ellipse class="s2d-b2d1-1_18" cx="260.96" cy="961.74" rx="2.15" ry="7.74" transform="matrix(0.01, -1, 1, 0.01, -703.48, 1212.55)"/><ellipse class="s2d-b2d1-1_18" cx="237.91" cy="961.5" rx="2.15" ry="7.74" transform="translate(-726.05 1189.25) rotate(-89.4)"/><ellipse class="s2d-b2d1-1_18" cx="376.93" cy="642.37" rx="11.46" ry="3.18" transform="translate(-269.39 1012.5) rotate(-89.4)"/><ellipse class="s2d-b2d1-1_18" cx="376.57" cy="676.49" rx="11.46" ry="3.18" transform="translate(-303.86 1045.9) rotate(-89.4)"/><ellipse class="s2d-b2d1-1_18" cx="393.81" cy="659.61" rx="3.18" ry="11.46" transform="matrix(0.01, -1, 1, 0.01, -269.92, 1046.44)"/><ellipse class="s2d-b2d1-1_18" cx="359.69" cy="659.25" rx="3.18" ry="11.46" transform="matrix(0.01, -1, 1, 0.01, -303.32, 1011.96)"/><ellipse class="s2d-b2d1-1_10" cx="228.57" cy="541.94" rx="16.06" ry="4.46" transform="translate(-315.75 764.77) rotate(-89.4)"/><ellipse class="s2d-b2d1-1_10" cx="252.72" cy="518.28" rx="4.46" ry="16.06" transform="translate(-268.2 765.53) rotate(-89.4)"/><ellipse class="s2d-b2d1-1_10" cx="342.9" cy="560.81" rx="16.06" ry="4.46" transform="translate(-221.5 897.77) rotate(-89.4)"/><ellipse class="s2d-b2d1-1_10" cx="342.39" cy="608.62" rx="16.06" ry="4.46" transform="translate(-269.81 944.57) rotate(-89.4)"/><ellipse class="s2d-b2d1-1_10" cx="366.55" cy="584.97" rx="4.46" ry="16.06" transform="translate(-222.25 945.33) rotate(-89.4)"/><ellipse class="s2d-b2d1-1_10" cx="318.74" cy="584.46" rx="4.46" ry="16.06" transform="translate(-269.05 897.02) rotate(-89.4)"/><ellipse class="s2d-b2d1-1_10" cx="252.65" cy="701.33" rx="11.71" ry="3.25" transform="translate(-451.31 946.57) rotate(-89.4)"/><ellipse class="s2d-b2d1-1_10" cx="252.28" cy="736.18" rx="11.71" ry="3.25" transform="translate(-486.52 980.69) rotate(-89.4)"/><ellipse class="s2d-b2d1-1_10" cx="269.89" cy="718.94" rx="3.25" ry="11.71" transform="translate(-451.86 981.24) rotate(-89.4)"/><ellipse class="s2d-b2d1-1_10" cx="235.04" cy="718.58" rx="3.25" ry="11.71" transform="translate(-485.97 946.03) rotate(-89.4)"/><ellipse class="s2d-b2d1-1_10" cx="431.73" cy="583.16" rx="11.71" ry="3.25" transform="translate(-155.95 1008.72) rotate(-89.4)"/><ellipse class="s2d-b2d1-1_10" cx="431.37" cy="618.01" rx="11.71" ry="3.25" transform="translate(-191.16 1042.84) rotate(-89.4)"/><ellipse class="s2d-b2d1-1_10" cx="448.98" cy="600.77" rx="3.25" ry="11.71" transform="matrix(0.01, -1, 1, 0.01, -156.5, 1043.39)"/><ellipse class="s2d-b2d1-1_10" cx="414.13" cy="600.41" rx="3.25" ry="11.71" transform="translate(-190.61 1008.17) rotate(-89.4)"/><ellipse class="s2d-b2d1-1_10" cx="310.73" cy="757.01" rx="12.4" ry="3.44" transform="translate(-449.51 1059.74) rotate(-89.4)"/><ellipse class="s2d-b2d1-1_10" cx="310.34" cy="793.92" rx="12.4" ry="3.44" transform="translate(-486.81 1095.87) rotate(-89.4)"/><ellipse class="s2d-b2d1-1_10" cx="328.99" cy="775.66" rx="3.44" ry="12.4" transform="translate(-450.09 1096.45) rotate(-89.4)"/><ellipse class="s2d-b2d1-1_10" cx="292.08" cy="775.27" rx="3.44" ry="12.4" transform="translate(-486.23 1059.16) rotate(-89.4)"/><ellipse class="s2d-b2d1-1_10" cx="238.77" cy="867.1" rx="11.46" ry="3.18" transform="translate(-630.8 1096.71) rotate(-89.4)"/><ellipse class="s2d-b2d1-1_10" cx="238.41" cy="901.22" rx="11.46" ry="3.18" transform="translate(-665.27 1130.11) rotate(-89.4)"/><ellipse class="s2d-b2d1-1_10" cx="255.65" cy="884.34" rx="3.18" ry="11.46" transform="translate(-631.33 1130.65) rotate(-89.4)"/><ellipse class="s2d-b2d1-1_10" cx="221.53" cy="883.98" rx="3.18" ry="11.46" transform="translate(-664.74 1096.17) rotate(-89.4)"/><ellipse class="s2d-b2d1-1_10" cx="437.57" cy="902.85" rx="7.74" ry="2.15" transform="translate(-469.84 1330.87) rotate(-89.4)"/><ellipse class="s2d-b2d1-1_10" cx="437.33" cy="925.9" rx="7.74" ry="2.15" transform="translate(-493.14 1353.44) rotate(-89.4)"/><ellipse class="s2d-b2d1-1_10" cx="448.98" cy="914.5" rx="2.15" ry="7.74" transform="matrix(0.01, -1, 1, 0.01, -470.21, 1353.8)"/><ellipse class="s2d-b2d1-1_10" cx="425.92" cy="914.25" rx="2.15" ry="7.74" transform="translate(-492.77 1330.51) rotate(-89.4)"/><ellipse class="s2d-b2d1-1_10" cx="360.26" cy="965.88" rx="11.46" ry="3.18" transform="translate(-609.37 1315.93) rotate(-89.4)"/><ellipse class="s2d-b2d1-1_10" cx="359.9" cy="1000" rx="11.46" ry="3.18" transform="translate(-643.84 1349.33) rotate(-89.4)"/><ellipse class="s2d-b2d1-1_10" cx="377.14" cy="983.12" rx="3.18" ry="11.46" transform="translate(-609.9 1349.87) rotate(-89.4)"/><ellipse class="s2d-b2d1-1_10" cx="343.02" cy="982.76" rx="3.18" ry="11.46" transform="translate(-643.31 1315.39) rotate(-89.4)"/><ellipse class="s2d-b2d1-1_19" cx="302.82" cy="972.75" rx="7.74" ry="2.15" transform="matrix(0.01, -1, 1, 0.01, -673.07, 1265.29)"/><ellipse class="s2d-b2d1-1_19" cx="211.45" cy="752.96" rx="7.74" ry="2.15" transform="translate(-543.69 956.46) rotate(-89.4)"/><ellipse class="s2d-b2d1-1_19" cx="372.76" cy="527.3" rx="7.74" ry="2.15" transform="translate(-158.45 894.48) rotate(-89.4)"/><ellipse class="s2d-b2d1-1_19" cx="448.96" cy="981.78" rx="2.15" ry="7.74" transform="translate(-537.5 1420.37) rotate(-89.4)"/><ellipse class="s2d-b2d1-1_19" cx="204.1" cy="993.97" rx="2.15" ry="7.74" transform="translate(-791.97 1187.57) rotate(-89.4)"/><ellipse class="s2d-b2d1-1_19" cx="252.76" cy="601.12" rx="2.15" ry="7.74" transform="translate(-351 847.53) rotate(-89.4)"/><ellipse class="s2d-b2d1-1_19" cx="459.68" cy="673.74" rx="2.15" ry="7.74" transform="translate(-218.88 1126.29) rotate(-89.4)"/><ellipse class="s2d-b2d1-1_19" cx="283.03" cy="833.33" rx="2.15" ry="7.74" transform="translate(-553.24 1107.56) rotate(-89.4)"/></g></svg>
