<svg id="Layer_1" data-name="Layer 1" xmlns="http://www.w3.org/2000/svg" xmlns:xlink="http://www.w3.org/1999/xlink" width="400" height="250" viewBox="140 10 500 430"><defs><style>.s2d-b2d3-3_1,.s2d-b2d3-3_14,.s2d-b2d3-3_15,.s2d-b2d3-3_17,.s2d-b2d3-3_18,.s2d-b2d3-3_20,.s2d-b2d3-3_21,.s2d-b2d3-3_23,.s2d-b2d3-3_24,.s2d-b2d3-3_27{fill:none;}.s2d-b2d3-3_2{fill:#357d74;}.s2d-b2d3-3_3{fill:#daa534;}.s2d-b2d3-3_4{clip-path:url(#clip-path);}.s2d-b2d3-3_5{fill:url(#s2d-b2d3-lg3);}.s2d-b2d3-3_6{fill:url(#s2d-b2d3-lg3_2);}.s2d-b2d3-3_7{fill:url(#s2d-b2d3-lg3_3);}.s2d-b2d3-3_8{fill:url(#s2d-b2d3-lg3_4);}.s2d-b2d3-3_9{fill:url(#s2d-b2d3-lg3_5);}.s2d-b2d3-3_10{fill:url(#s2d-b2d3-lg3_6);}.s2d-b2d3-3_11{fill:#c97475;}.s2d-b2d3-3_12{fill:#2f4862;}.s2d-b2d3-3_13{fill:#fff;}.s2d-b2d3-3_14,.s2d-b2d3-3_15,.s2d-b2d3-3_24{stroke:#dba634;stroke-linecap:round;stroke-linejoin:round;stroke-width:2.65px;}.s2d-b2d3-3_15{stroke-dasharray:0 8.26;}.s2d-b2d3-3_16{fill:#dba634;}.s2d-b2d3-3_17,.s2d-b2d3-3_18{stroke:#5d9e9a;}.s2d-b2d3-3_17,.s2d-b2d3-3_18,.s2d-b2d3-3_20,.s2d-b2d3-3_21,.s2d-b2d3-3_23,.s2d-b2d3-3_27{stroke-miterlimit:10;}.s2d-b2d3-3_17{stroke-width:1.05px;}.s2d-b2d3-3_18{stroke-width:1.05px;}.s2d-b2d3-3_19{fill:#919a51;}.s2d-b2d3-3_20,.s2d-b2d3-3_23,.s2d-b2d3-3_27{stroke:#2f4862;}.s2d-b2d3-3_20{stroke-width:1.71px;}.s2d-b2d3-3_21{stroke:#fff;stroke-width:0.96px;}.s2d-b2d3-3_22{fill:#5d9e9a;}.s2d-b2d3-3_23{stroke-width:3.34px;}.s2d-b2d3-3_24{stroke-dasharray:0 8.26;}.s2d-b2d3-3_25{clip-path:url(#clip-path-2);}.s2d-b2d3-3_26{clip-path:url(#clip-path-3);}.s2d-b2d3-3_27{stroke-width:2.55px;}.s2d-b2d3-3_28{fill:#d7a234;}.s2d-b2d3-3_29{font-size:25px;fill:#2f4962;font-family:PermanentMarker-Regular, Permanent Marker;letter-spacing:0.08em;}</style><clipPath id="clip-path"><path class="s2d-b2d3-3_1" d="M664.53,431.81c-34.72,0-34.72-.22-69.43-.22s-34.73-5-69.45-5-34.72,6.79-69.44,6.79-34.72-7.07-69.44-7.07-34.72-3.39-69.44-3.39-34.72,9.76-69.44,9.76-34.73-9.79-69.45-9.79S143.71,433.58,109,433.58c-25,0-38.92-24.44-38.92-49.5,0-34-1.84-34-1.84-68s-6.14-34-6.14-68,7.61-34,7.61-68-7.67-34-7.67-68c0-22,19.4-41,41.36-41,35.78,0,35.78-4.49,71.57-4.49s35.79,7.59,71.57,7.59,35.79,3.33,71.58,3.33,35.78-2.12,71.57-2.12S425.46,67,461.25,67s35.79-.9,71.58-.9,35.79,12.63,71.58,12.63,35.79-6.1,71.58-6.1c26.44,0,44.68,21.14,44.68,47.58,0,41.65.69,41.65.69,83.29s7.4,41.65,7.4,83.3,0,41.65,0,83.29C728.75,402.88,697.31,431.81,664.53,431.81Z"/></clipPath><linearGradient id="s2d-b2d3-lg3" x1="3450.29" y1="354.84" x2="3450.75" y2="276" gradientTransform="matrix(-1, 0, 0, 1, 3949.01, 0)" gradientUnits="userSpaceOnUse"><stop offset="0.23" stop-color="#b66f1e" stop-opacity="0"/><stop offset="1" stop-color="#b66f1e" stop-opacity="0.8"/></linearGradient><linearGradient id="s2d-b2d3-lg3_2" x1="3760.34" y1="369.55" x2="3760.59" y2="325.02" xlink:href="#s2d-b2d3-lg3"/><linearGradient id="s2d-b2d3-lg3_3" x1="3696.02" y1="403.79" x2="3696.18" y2="374.83" xlink:href="#s2d-b2d3-lg3"/><linearGradient id="s2d-b2d3-lg3_4" x1="3657.69" y1="335.64" x2="3657.98" y2="286.44" xlink:href="#s2d-b2d3-lg3"/><linearGradient id="s2d-b2d3-lg3_5" x1="3437.36" y1="230.29" x2="3437.53" y2="201.33" xlink:href="#s2d-b2d3-lg3"/><linearGradient id="s2d-b2d3-lg3_6" x1="3404.13" y1="398.74" x2="3404.29" y2="369.78" xlink:href="#s2d-b2d3-lg3"/><clipPath id="clip-path-2"><path class="s2d-b2d3-3_1" d="M205.12,674.79c52.44-28.1,78-6.39,149.89-33-36.27-13.73-65.48-.92-65.48-.92-6-3.52-7.34-11.62-7.18-18.61s1-14.57-2.88-20.41c-3-4.46-8.05-6.93-12.89-9.2,18.27-5.13,37.81-2.31,56.26,2.12s36.69,10.46,55.63,11.71c17.46,1.16,43.28-1,49.46-13.43,8.91-12.1,14.62-24.48,23.4-37,27.74-39.58,102.23-44.62,102.23-44.62,2.5,6.16,9.14,14.33,9.14,14.33s-26.79-3.4-66.81,16.67S463.67,606.54,428.53,648s-93.19,36-116.89,37.47-34.87,12.4-53.33,36.53-46.44-1.89-46.44-1.89a129.74,129.74,0,0,0-49.5-22.32C184.73,690.12,205.12,674.79,205.12,674.79Z"/></clipPath><clipPath id="clip-path-3"><path class="s2d-b2d3-3_1" d="M597.27,558.05c9,14.63,16.72,30.71,30.09,41.52,20.56,16.6,53,16,73-1.27,7.88-6.83,13.81-15.76,22-22.16A48.2,48.2,0,0,1,755,566.22c-11.48-4.06-24.75-2.79-35.21-9-5.79-3.46-10.09-8.9-15.3-13.19s-12.21-7.53-18.6-5.36c-4.84,1.63-8.19,6-12.42,8.84-7.53,5.13-17.28,5.32-26.38,4.89-6.16-.29-12.37-.8-18.23-2.71-15.79-5.16-26.59-19.52-40.63-28.38-10.63-6.71-25.68-11.8-38.34-9.68,6.77,9.33,3.55,8.09,12.84,14.16C572.94,532.43,590.94,547.76,597.27,558.05Z"/></clipPath></defs><title>6</title><path class="s2d-b2d3-3_3" d="M664.53,431.81c-34.72,0-34.72-.22-69.43-.22s-34.73-5-69.45-5-34.72,6.79-69.44,6.79-34.72-7.07-69.44-7.07-34.72-3.39-69.44-3.39-34.72,9.76-69.44,9.76-34.73-9.79-69.45-9.79S143.71,433.58,109,433.58c-25,0-38.92-24.44-38.92-49.5,0-34-1.84-34-1.84-68s-6.14-34-6.14-68,7.61-34,7.61-68-7.67-34-7.67-68c0-22,19.4-41,41.36-41,35.78,0,35.78-4.49,71.57-4.49s35.79,7.59,71.57,7.59,35.79,3.33,71.58,3.33,35.78-2.12,71.57-2.12S425.46,67,461.25,67s35.79-.9,71.58-.9,35.79,12.63,71.58,12.63,35.79-6.1,71.58-6.1c26.44,0,44.68,21.14,44.68,47.58,0,41.65.69,41.65.69,83.29s7.4,41.65,7.4,83.3,0,41.65,0,83.29C728.75,402.88,697.31,431.81,664.53,431.81Z"/><g class="s2d-b2d3-3_4"><path class="s2d-b2d3-3_5" d="M408.64,332.2h0c.1-.17.21-.34.32-.49l0,0a5,5,0,0,1,.34-.43l.05-.06.36-.38.09-.08c.12-.11.24-.22.37-.32l.12-.09.36-.26.18-.11.35-.2.22-.11.34-.16.27-.1.31-.11.34-.08.27-.07.43-.07.21,0,.66,0a6.39,6.39,0,0,1,2.92.7q.35-.45.72-.87a9.74,9.74,0,0,1,6-3,9.44,9.44,0,0,1,1.2-.07,9.8,9.8,0,0,1,2,.2l.63.15a9.78,9.78,0,0,1,14-6.7,16.45,16.45,0,0,1-.38-2.56c0-.32,0-.66,0-1a15.61,15.61,0,0,1,15.61-15.61,15.32,15.32,0,0,1,4.36.63,15.25,15.25,0,0,1,.6-2.81,15.61,15.61,0,0,1,25.52-6.71l.54.53a23.57,23.57,0,0,1,4.81-3.45,23,23,0,0,1,11.06-2.82,23.21,23.21,0,0,1,17,7.42c.42.46.83.93,1.21,1.42a22.74,22.74,0,0,1,2.09,3.13,23.4,23.4,0,0,1,2.14,5.27c.54-.05,1.08-.08,1.63-.08a15.5,15.5,0,0,1,10.1,3.72,15.71,15.71,0,0,1,3.93,5.07,9.7,9.7,0,0,1,3.38-.61,9.83,9.83,0,0,1,1.81.17,9.68,9.68,0,0,1,4.63,2.25c.22.19.42.39.62.59a9.78,9.78,0,0,1,2.63,5.39,9.78,9.78,0,0,1,14.34,5.6,5.8,5.8,0,0,1,.21.82,9.7,9.7,0,0,1,2.59-.36,9.8,9.8,0,0,1,7.88,4A6.52,6.52,0,1,1,580,341a9.8,9.8,0,0,1-13.43,2.26,9.78,9.78,0,0,1-15.21,2.87,9.79,9.79,0,0,1-16.8,1.13,9.74,9.74,0,0,1-12-2.7,9.8,9.8,0,0,1-9.65,8.13,9.68,9.68,0,0,1-3.53-.67A23.26,23.26,0,0,1,473,346.46a9.72,9.72,0,0,1-10.36,1.1,9.79,9.79,0,0,1-16.8-1.13,9.78,9.78,0,0,1-15.21-2.87,9.77,9.77,0,0,1-13.43-2.26,6.39,6.39,0,0,1-2.92.7,6.51,6.51,0,0,1-5.63-9.8Z"/><path class="s2d-b2d3-3_6" d="M137.79,356.76h0c0-.09.11-.18.17-.27l0,0,.19-.24,0,0,.21-.22.05,0,.2-.18.07-.05c.07-.05.14-.11.21-.15l.1-.06.19-.12.13-.06.19-.09.15,0,.18-.06.19-.05.16,0,.23,0,.12,0,.38,0a3.69,3.69,0,0,1,1.65.4c.13-.17.26-.33.4-.49a5.53,5.53,0,0,1,3.37-1.72,5.41,5.41,0,0,1,1.79.08l.35.08a5.54,5.54,0,0,1,5.42-4.39,5.44,5.44,0,0,1,2.51.61,9.74,9.74,0,0,1-.21-1.45,5.15,5.15,0,0,1,0-.56,8.82,8.82,0,0,1,8.82-8.82,8.64,8.64,0,0,1,2.45.36,9.17,9.17,0,0,1,.35-1.59,8.81,8.81,0,0,1,14.41-3.79l.31.3a13.14,13.14,0,0,1,18.59.65c.24.26.47.53.68.8a13.23,13.23,0,0,1,2.39,4.75c.3,0,.61,0,.92,0a8.78,8.78,0,0,1,5.71,2.1,9,9,0,0,1,2.22,2.87,5.49,5.49,0,0,1,1.91-.35,4.9,4.9,0,0,1,1,.1,5.46,5.46,0,0,1,2.62,1.27l.35.33a5.56,5.56,0,0,1,1.48,3.05,5.46,5.46,0,0,1,2.81-.77,5.52,5.52,0,0,1,5.29,3.93,3.9,3.9,0,0,1,.12.46,5.92,5.92,0,0,1,1.47-.2,5.52,5.52,0,0,1,4.44,2.25,3.68,3.68,0,1,1,1.66,7,3.57,3.57,0,0,1-1.66-.4A5.53,5.53,0,0,1,227,363a5.54,5.54,0,0,1-4.93,3,5.48,5.48,0,0,1-3.66-1.4,5.52,5.52,0,0,1-9.49.64,5.51,5.51,0,0,1-6.77-1.53,5.5,5.5,0,0,1-7.44,4.22,13.14,13.14,0,0,1-20.58-3.12,5.49,5.49,0,0,1-5.85.62,5.54,5.54,0,0,1-9.5-.64,5.46,5.46,0,0,1-3.66,1.4,5.54,5.54,0,0,1-4.93-3,5.53,5.53,0,0,1-7.58-1.28,3.67,3.67,0,0,1-4.83-5.14Z"/><path class="s2d-b2d3-3_7" d="M219.9,395.48h0a1.74,1.74,0,0,1,.11-.18h0a1,1,0,0,1,.13-.16l0,0a.86.86,0,0,1,.13-.14l0,0,.14-.12,0,0,.13-.1.07,0,.13-.07.08,0,.12-.06.1,0,.12,0,.12,0,.1,0a.9.9,0,0,1,.16,0H222a2.41,2.41,0,0,1,1.07.25,2.61,2.61,0,0,1,.27-.31,3.5,3.5,0,0,1,2.19-1.12,3.11,3.11,0,0,1,.43,0,3.55,3.55,0,0,1,.73.08l.23,0a3.59,3.59,0,0,1,3.52-2.85,3.64,3.64,0,0,1,1.64.39,5.76,5.76,0,0,1-.15-.94c0-.12,0-.24,0-.36a5.74,5.74,0,0,1,5.74-5.74,5.68,5.68,0,0,1,1.6.23,5.1,5.1,0,0,1,.22-1,5.73,5.73,0,0,1,9.37-2.46l.2.19a8.65,8.65,0,0,1,1.77-1.27,8.41,8.41,0,0,1,4.06-1,8.52,8.52,0,0,1,6.26,2.73c.15.16.3.34.45.52a8.69,8.69,0,0,1,.76,1.14,8.88,8.88,0,0,1,.79,1.94,5.88,5.88,0,0,1,.6,0,5.72,5.72,0,0,1,3.71,1.37,5.82,5.82,0,0,1,1.44,1.86,3.66,3.66,0,0,1,1.91-.16,3.53,3.53,0,0,1,1.7.83c.08.06.15.14.23.21a3.59,3.59,0,0,1,1,2,3.66,3.66,0,0,1,1.83-.5,3.6,3.6,0,0,1,3.44,2.56c0,.1.06.2.08.3A3.69,3.69,0,0,1,280,393a3.59,3.59,0,0,1,2.89,1.46,2.45,2.45,0,0,1,1.08-.25,2.39,2.39,0,0,1,0,4.78,2.45,2.45,0,0,1-1.08-.25,3.59,3.59,0,0,1-2.89,1.46,3.65,3.65,0,0,1-2-.63,3.59,3.59,0,0,1-5.59,1.05,3.6,3.6,0,0,1-6.17.42,3.58,3.58,0,0,1-4.4-1,3.59,3.59,0,0,1-3.54,3,3.75,3.75,0,0,1-1.3-.24,8.54,8.54,0,0,1-13.38-2,3.56,3.56,0,0,1-2.23.78,3.67,3.67,0,0,1-1.58-.37,3.59,3.59,0,0,1-6.17-.42,3.54,3.54,0,0,1-2.38.91,3.61,3.61,0,0,1-3.21-2,3.6,3.6,0,0,1-4.93-.83,2.39,2.39,0,0,1-3.47-2.14A2.32,2.32,0,0,1,219.9,395.48Z"/><path class="s2d-b2d3-3_8" d="M235.1,321.51h0l.2-.3,0,0,.21-.27,0,0,.22-.24a.12.12,0,0,0,.05-.05l.23-.2.08-.05.23-.17.11-.06.21-.13.14-.07.21-.1.17-.06.2-.07.21-.05.17,0,.26,0,.14,0a2.75,2.75,0,0,1,.41,0,4,4,0,0,1,1.82.43,5.85,5.85,0,0,1,.45-.54,6.14,6.14,0,0,1,3.72-1.9,6.28,6.28,0,0,1,.75,0,6.08,6.08,0,0,1,1.22.12l.39.1a6.13,6.13,0,0,1,6-4.86,6,6,0,0,1,2.78.68,10.46,10.46,0,0,1-.24-1.6c0-.2,0-.41,0-.62a9.73,9.73,0,0,1,12.46-9.35,9.24,9.24,0,0,1,.38-1.75A9.73,9.73,0,0,1,284.23,296l.34.33a15,15,0,0,1,3-2.16A14.48,14.48,0,0,1,305.11,297c.26.29.52.58.76.89a14.92,14.92,0,0,1,1.3,1.94,14.62,14.62,0,0,1,1.33,3.3,8.71,8.71,0,0,1,1-.05,9.68,9.68,0,0,1,6.31,2.32,9.83,9.83,0,0,1,2.45,3.16,6.17,6.17,0,0,1,2.11-.38,6,6,0,0,1,1.13.11,6.12,6.12,0,0,1,2.89,1.4l.39.37a6.17,6.17,0,0,1,1.64,3.37,6,6,0,0,1,3.1-.85,6.11,6.11,0,0,1,5.85,4.34c.05.17.09.34.13.51a6.21,6.21,0,0,1,1.62-.22,6.11,6.11,0,0,1,4.91,2.48,4.14,4.14,0,0,1,1.83-.43,4.07,4.07,0,0,1,0,8.13,4.14,4.14,0,0,1-1.83-.43,6.11,6.11,0,0,1-8.38,1.4,6.1,6.1,0,0,1-9.49,1.8,6.11,6.11,0,0,1-10.49.7,6,6,0,0,1-2.68.63,6.13,6.13,0,0,1-4.79-2.31,6.11,6.11,0,0,1-8.22,4.66,14.52,14.52,0,0,1-22.74-3.46,6.07,6.07,0,0,1-6.47.69,6.11,6.11,0,0,1-10.49-.71,6,6,0,0,1-4.05,1.55,6.12,6.12,0,0,1-5.44-3.34,6.1,6.1,0,0,1-8.38-1.41,4,4,0,0,1-1.82.44,4.07,4.07,0,0,1-4.07-4.07A4,4,0,0,1,235.1,321.51Z"/><path class="s2d-b2d3-3_9" d="M478.56,222h0a1.88,1.88,0,0,1,.12-.18v0l.12-.15,0,0,.13-.13,0,0,.14-.12.05,0,.13-.09.06,0,.13-.08.08,0,.13-.06.1,0,.11,0,.12,0,.11,0,.15,0h.32a2.45,2.45,0,0,1,1.08.25,3.88,3.88,0,0,1,.26-.31,3.52,3.52,0,0,1,2.19-1.12,3.15,3.15,0,0,1,.44,0,3.38,3.38,0,0,1,.72.08l.23.05a3.59,3.59,0,0,1,5.16-2.46,5.75,5.75,0,0,1-.14-.94c0-.12,0-.24,0-.36a5.74,5.74,0,0,1,5.74-5.74,5.63,5.63,0,0,1,1.6.23,5.89,5.89,0,0,1,.22-1,5.75,5.75,0,0,1,5.47-4,5.67,5.67,0,0,1,3.9,1.55,1.8,1.8,0,0,1,.2.19,8.93,8.93,0,0,1,1.77-1.27,8.55,8.55,0,0,1,10.32,1.69c.16.17.31.35.45.53a8.69,8.69,0,0,1,.76,1.14,8.41,8.41,0,0,1,.79,1.94l.6,0a5.65,5.65,0,0,1,3.71,1.37,5.58,5.58,0,0,1,1.44,1.86,3.7,3.7,0,0,1,1.25-.23,3.6,3.6,0,0,1,.66.07,3.56,3.56,0,0,1,1.7.82l.23.22a3.61,3.61,0,0,1,1,2,3.59,3.59,0,0,1,5.27,2.06c0,.1,0,.2.07.3a3.75,3.75,0,0,1,1-.13,3.59,3.59,0,0,1,2.9,1.46,2.39,2.39,0,1,1,0,4.28,3.6,3.6,0,0,1-4.94.82,3.58,3.58,0,0,1-5.58,1.06,3.6,3.6,0,0,1-3.21,2,3.59,3.59,0,0,0-4.55-1.19,3.58,3.58,0,0,1-2.81-1.36,3.6,3.6,0,0,1-3.55,3,3.49,3.49,0,0,1-1.29-.25,8.54,8.54,0,0,1-13.39-2A3.53,3.53,0,0,1,500,228a3.6,3.6,0,0,0-4.55,1.18,3.6,3.6,0,0,1-3.21-2,3.58,3.58,0,0,1-5.58-1,3.6,3.6,0,0,1-4.93-.83,2.45,2.45,0,0,1-1.08.25,2.39,2.39,0,0,1-2.06-3.6Z"/><path class="s2d-b2d3-3_10" d="M511.79,390.43h0a1.74,1.74,0,0,1,.11-.18h0a1,1,0,0,1,.13-.16l0,0a.86.86,0,0,1,.13-.14l0,0,.14-.12,0,0,.14-.1.06,0,.13-.07.08,0,.12-.06.1,0,.12,0,.12,0,.1,0,.16,0h.32a2.26,2.26,0,0,1,1.07.26,2.08,2.08,0,0,1,.27-.32,3.52,3.52,0,0,1,2.19-1.12,3.15,3.15,0,0,1,.44,0,3.53,3.53,0,0,1,.72.08l.23.05a3.61,3.61,0,0,1,5.16-2.46,7.09,7.09,0,0,1-.15-.94c0-.12,0-.24,0-.36a5.74,5.74,0,0,1,5.74-5.74,6.06,6.06,0,0,1,1.6.23,5.1,5.1,0,0,1,.22-1,5.73,5.73,0,0,1,9.37-2.46l.2.19a8.93,8.93,0,0,1,1.77-1.27A8.53,8.53,0,0,1,553,376c.16.16.3.34.45.52a8.69,8.69,0,0,1,.76,1.14,8.41,8.41,0,0,1,.79,1.94l.6,0a5.7,5.7,0,0,1,3.71,1.37,5.82,5.82,0,0,1,1.44,1.86,3.66,3.66,0,0,1,1.91-.16,3.53,3.53,0,0,1,1.7.83l.23.21a3.59,3.59,0,0,1,1,2,3.66,3.66,0,0,1,1.83-.5,3.59,3.59,0,0,1,3.44,2.56c0,.1.06.2.08.3a3.69,3.69,0,0,1,1-.13,3.59,3.59,0,0,1,2.89,1.46,2.45,2.45,0,0,1,1.08-.25,2.39,2.39,0,1,1,0,4.78,2.45,2.45,0,0,1-1.08-.25,11.51,11.51,0,0,0-8.13,2.79,3.62,3.62,0,0,1-2.39-.91,3.6,3.6,0,0,1-6.17.42,3.58,3.58,0,0,1-4.4-1,3.59,3.59,0,0,1-3.54,3,3.75,3.75,0,0,1-1.3-.24,8.54,8.54,0,0,1-13.38-2,3.53,3.53,0,0,1-2.23.78,3.67,3.67,0,0,1-1.58-.37,3.59,3.59,0,0,1-6.17-.42,3.54,3.54,0,0,1-2.38.91,3.61,3.61,0,0,1-3.21-2,3.6,3.6,0,0,1-4.93-.83,2.38,2.38,0,0,1-1.07.26,2.41,2.41,0,0,1-2.4-2.4A2.32,2.32,0,0,1,511.79,390.43Z"/><path class="s2d-b2d3-3_11" d="M301.75,220.12l-.23,59c0,5.5,8.53,5.51,8.55,0l.24-59c0-5.5-8.54-5.51-8.56,0Z"/><path class="s2d-b2d3-3_12" d="M395.06,113.92c10.15,3.43,19.1,9.63,27.9,15.75,6.66,4.63,22.19,20.9,25.09,26,5,8.73,12.88,21.66,16.2,31.13,5.73,16.38,9,33.76,17,49.17s22.38,29.12,39.73,29.86c-1.39,13.88-3.36,29-13.42,38.66-4.53,4.34-10.32,7.14-16.27,9.13a76.34,76.34,0,0,1-38.95,2.48,23.29,23.29,0,0,1-17-10.91c-10.46-14.28-15.42-31.74-20.14-48.8-1.83-6.65-3.67-13.35-4.09-20.24-.61-10,1.84-20,2.68-30,2.18-25.72-6.3-51.42-19.12-73.83a64.71,64.71,0,0,0-8.95-12.58c-2.86-3-8.83-5.35-10.54-8.94C381.12,109.61,389.33,112,395.06,113.92Z"/><path class="s2d-b2d3-3_13" d="M104,358.1l106.19,81.68a13.83,13.83,0,0,0,15.57.89c26.62-16,110.86-66.73,130-78.27,11.77-7.11,26.08-10,37.16-11.23h0a130.65,130.65,0,0,1,16.14-.75l43.53-2c31.94-.89,43,46.59,43,46.59l2,24c3,5.8,1.11,13.19-3,18.33s-9.87,8.51-15.54,11.76c-10.73,6.15-21.69,12.39-33.81,14.82-11.09,2.23-22.57,1.14-33.77-.49-13.71-2,27.84-49.06,14.45-52.66-9.47-2.54-12.51,3-15.29-6.37-2-6.68-62,20.69-59.21,14.3l.11-.25-119.35,66a27.22,27.22,0,0,1-32-4.18L91.53,376.16Z"/><line class="s2d-b2d3-3_14" x1="311.67" y1="392.43" x2="311.67" y2="392.43"/><path class="s2d-b2d3-3_15" d="M318.75,396.64c9.53,7.52,12.35,18.9,13.19,24.94"/><line class="s2d-b2d3-3_14" x1="332.29" y1="425.69" x2="332.29" y2="425.69"/><path class="s2d-b2d3-3_16" d="M321.53,434.71c0-1-1.72-28.32-23.95-37.92l6.71-3.75c20.58,10.13,23.52,31.25,23.92,38.26"/><circle class="s2d-b2d3-3_12" cx="371.84" cy="166.86" r="56.91" transform="translate(-9.08 311.81) rotate(-45)"/><path class="s2d-b2d3-3_13" d="M104.27,360.93l118.85,61.82a13.83,13.83,0,0,0,15.49-1.85c23.4-20.43,97.46-85.12,114.26-99.83,10.34-9.06,23.91-14.46,34.61-17.57h0a130.09,130.09,0,0,1,15.77-3.56l42.5-9.59c31.29-6.48,50.48,38.33,50.48,38.33l6.14,23.3c4,5.18,3.4,12.79.31,18.55s-8.23,10.12-13.25,14.31c-9.48,7.93-19.18,16-30.68,20.51-10.53,4.14-22,5.08-33.33,5.44a353.29,353.29,0,0,1-41.54-1.15c-9.77-.85-21.07-3.14-25.45-11.91-3.12-6.24-1.58-13.68,0-20.47l.06-.25L252.57,462.86a27.2,27.2,0,0,1-32.23,1.49L95.2,380.89Z"/><path class="s2d-b2d3-3_13" d="M105.89,359.79c-2.72-1.65-1.89-5.8-2.55-8.92s-5.3-4.28-5.4-7.47c-.18-6-2.72-16.89-5.23-24.82a1.66,1.66,0,0,0-3.22.25,226.53,226.53,0,0,0-2.65,39.74,65.49,65.49,0,0,0,1.52,11.83c.93,4.32,1.46,7.53,9.88,12.34"/><path class="s2d-b2d3-3_13" d="M314.48,152.71l-15.3,33.83s-17,89.75,41.05,109.37c45.19,15.27,78.28-39.32,78.28-39.32s9.46-17.27,13.7-26.94a42.18,42.18,0,0,0,2.18-6.26l3.91-14.79-1.15-15.28-11.56-8-12.38-6.37-21.12-15.16Z"/><path class="s2d-b2d3-3_12" d="M299.65,178.78s9.1-57.56,64.47-68.3L401.51,151s11.6,17.6,11.6,18.88-9.25,6.37-9.25,6.37l-22-8.29L352,161.28,334.5,173.44l-8.08,7.89Z"/><path class="s2d-b2d3-3_17" d="M405.67,137.14a26.12,26.12,0,0,1,5.46,7"/><path class="s2d-b2d3-3_17" d="M334.71,173c0-24.22,25.83-41.12,37.75-44.4,4.67-1.29,9.58-2.07,14.37-1.29a32,32,0,0,1,7.34,2.24"/><path class="s2d-b2d3-3_18" d="M352.84,162.58c11.42-17.15,25.69-20.94,32.67-20.56,8,.43,20.45,6.51,27.17,18.17"/><path class="s2d-b2d3-3_17" d="M319.41,176.87c-3.82-14,8.1-30.44,10.2-33.15,8.91-11.5,21.31-19,35.15-23.51"/><polygon class="s2d-b2d3-3_13" points="397.8 268.75 414.95 311.48 435.21 298.12 421.8 241.69 397.8 268.75"/><path class="s2d-b2d3-3_19" d="M350.46,405.12c.92-10.16,2.09-21.08,8.84-28.74l22.18-12.8a265.51,265.51,0,0,1,26.09-13.17,7,7,0,0,0,3.33-9.86c-7.09-12.63-18.24-28.71-31.43-34.44l8-2.61S404,308,423.42,344.06a267.49,267.49,0,0,1,34-9.85,7.23,7.23,0,0,0,4.69-10.68C454.85,311.05,445,297.73,433.8,293l9.75-2.2s14,5.65,32.93,39.94c6.55-.93,13.13-1.65,19.75-2.1h0c5,10,15.73,32.42,21,46.57,21.12,56.61,23.28,113.38,39.16,141.88L443.69,567.94l.57-1.89a74.09,74.09,0,0,0-12.53-67.87,166.92,166.92,0,0,0-11.54-12.89c-16.47-16.7-36.35-29.53-55.47-43.11-3.82-2.71-7.7-5.54-10.35-9.4C349,424.94,349.61,414.6,350.46,405.12Z"/><path class="s2d-b2d3-3_20" d="M336,260.15a38.42,38.42,0,0,1-18.62-1.22,4.63,4.63,0,0,1-3-2.75c-.85-2.35.91-4,2.42-5.37a31.36,31.36,0,0,0,7.42-10c.24-.54.46-1.1.68-1.67a40.23,40.23,0,0,0-.1-27.54h0a18.69,18.69,0,0,0-14.1-12.06l-9.42-1.79"/><path class="s2d-b2d3-3_12" d="M344.23,222.92a36.57,36.57,0,0,1,2.79-4,45.22,45.22,0,0,1,3.17-3.61,40.35,40.35,0,0,1,7.54-6.08,30.91,30.91,0,0,1,9-3.84l2.43-.53,2.49-.24c.41,0,.83-.09,1.24-.1l1.25,0,2.5.09L376.2,209l-2.14-.15-1.07-.08c-.36,0-.72,0-1.07.05l-2.15.12-2.11.38a27.13,27.13,0,0,0-8.1,3.07,37.33,37.33,0,0,0-7.09,5.28,40.37,40.37,0,0,0-5.76,6.76Z"/><path class="s2d-b2d3-3_12" d="M302.44,211.59l2.77.51c.92.24,1.84.48,2.75.75a24,24,0,0,1,5.23,2.42,16.88,16.88,0,0,1,4.38,3.93,13.54,13.54,0,0,1,1.57,2.55,11.35,11.35,0,0,1,.56,1.4,8.72,8.72,0,0,1,.39,1.6l-2.86.36a7.84,7.84,0,0,0-.3-1,8.21,8.21,0,0,0-.49-1,10,10,0,0,0-1.32-1.93,13.54,13.54,0,0,0-3.68-3,20.18,20.18,0,0,0-4.53-1.83c-.81-.2-1.63-.37-2.44-.55l-2.5-.33Z"/><circle class="s2d-b2d3-3_16" cx="378.2" cy="245.65" r="16.63"/><path class="s2d-b2d3-3_21" d="M401.11,200.58s13.81-17.52,26.54-9.61-4,29.82-9.14,34"/><path class="s2d-b2d3-3_22" d="M597.27,558.05c9,14.63,16.72,30.71,30.09,41.52,20.56,16.6,53,16,73-1.27,7.88-6.83,13.81-15.76,22-22.16A48.2,48.2,0,0,1,755,566.22c-11.48-4.06-24.75-2.79-35.21-9-5.79-3.46-10.09-8.9-15.3-13.19s-12.21-7.53-18.6-5.36c-4.84,1.63-8.19,6-12.42,8.84-7.53,5.13-17.28,5.32-26.38,4.89-6.16-.29-12.37-.8-18.23-2.71-15.79-5.16-26.59-19.52-40.63-28.38-10.63-6.71-25.68-11.8-38.34-9.68,6.77,9.33,3.55,8.09,12.84,14.16C572.94,532.43,590.94,547.76,597.27,558.05Z"/><path class="s2d-b2d3-3_16" d="M400.13,181.26s-44-30.12-73.35,5.72c0,0-7.52-13.44-27.6-.44l.9-8.84s12.83-10.4,25.58-3.21c0,0,29.25-31.07,79.07-1.65Z"/><path class="s2d-b2d3-3_12" d="M451.33,556c.86,26.54-47.39,72.21-76.67,95.76S243.53,759.25,225.33,781.68s-8.63,43-6.55,51.78S243,845.21,243,845.21c32.24,3.78,135-4,180.62-8.11,71.19-6.45,129.05,5,129.05,5s-38.36-73.44-31-116.2c1.2-7,24.79-19.91,24.79-19.91,43.49-18.47,60.82-57,60.82-57,15.58-34.5-17.69-86.51-17.69-86.51l-33.2-45.37Z"/><path class="s2d-b2d3-3_22" d="M205.12,674.79c52.44-28.1,78-6.39,149.89-33-36.27-13.73-65.48-.92-65.48-.92-6-3.52-7.34-11.62-7.18-18.61s1-14.57-2.88-20.41c-3-4.46-8.05-6.93-12.89-9.2,18.27-5.13,37.81-2.31,56.26,2.12s36.69,10.46,55.63,11.71c17.46,1.16,41.82.07,49.46-13.43,8.91-12.1,14.62-24.48,23.4-37,27.74-39.58,102.23-44.62,102.23-44.62,2.5,6.16,9.14,14.33,9.14,14.33s-26.79-3.4-66.81,16.67S463.67,606.54,428.53,648s-93.19,36-116.89,37.47-34.87,12.4-53.33,36.53-46.44-1.89-46.44-1.89a129.74,129.74,0,0,0-49.5-22.32C184.73,690.12,205.12,674.79,205.12,674.79Z"/><line class="s2d-b2d3-3_23" x1="562.7" y1="525.75" x2="553.56" y2="511.42"/><path class="s2d-b2d3-3_16" d="M447.33,550l-.19,2.06c.06-.27,8.46-29.58,68.74-43.19.19,0,22.8-5,35-4.12L548.62,498c-14,.86-24.91,2.33-44.29,8.24-35.68,10.88-52.18,29.45-56.76,38.5"/><polygon class="s2d-b2d3-3_12" points="421.07 260.72 427.65 286.79 425.85 287.28 418.29 261.48 421.07 260.72"/><path class="s2d-b2d3-3_1" d="M421.45,254.4c5.29-4.87,12.23-7.47,19-9.82,4.57-1.59,9.25-3.14,14.09-3.24,7.81-.16,15.44,3.62,20.65,9.44A37.15,37.15,0,0,1,484,272.06c.53,5.7-.1,11.66-2.89,16.66-4.92,8.83-15.27,12.86-24.8,16.23-2.41.85-5,1.71-7.46,1"/><line class="s2d-b2d3-3_14" x1="316.75" y1="356.55" x2="316.75" y2="356.55"/><path class="s2d-b2d3-3_24" d="M324.55,359.2c10.88,5.38,16,15.92,18.08,21.66"/><line class="s2d-b2d3-3_14" x1="343.82" y1="384.81" x2="343.82" y2="384.81"/><path class="s2d-b2d3-3_16" d="M335.17,395.86c-.2-1-7.56-27.34-31.3-32.13l5.79-5.06c22.23,5.65,29.48,25.7,31.33,32.48"/><path class="s2d-b2d3-3_16" d="M107.48,389.08l3.51,2.34c-1.59-5.54-1.11-11.41,1.06-14.65,3.12-4.66,11.94-7.16,9.82-6.7l-3-1.6c-.31,0-5.56.46-9.57,6.41C106.53,379,105.61,382.54,107.48,389.08Z"/><g class="s2d-b2d3-3_25"><path class="s2d-b2d3-3_13" d="M550.28,533.12a.22.22,0,0,1,0-.44.22.22,0,1,1,0,.44Z"/><path class="s2d-b2d3-3_13" d="M529.28,534.21a.66.66,0,0,1-.67-.66.67.67,0,1,1,1.34,0A.66.66,0,0,1,529.28,534.21Z"/><circle class="s2d-b2d3-3_13" cx="508.41" cy="535.91" r="1.11"/><circle class="s2d-b2d3-3_13" cx="488.24" cy="541.67" r="1.45"/></g><g class="s2d-b2d3-3_26"><path class="s2d-b2d3-3_13" d="M741.23,536.78a.22.22,0,0,1-.22-.22.23.23,0,1,1,.22.22Z"/><circle class="s2d-b2d3-3_13" cx="720.17" cy="541.67" r="0.71"/><path class="s2d-b2d3-3_13" d="M600.07,542.79a.81.81,0,1,1,.8-.81A.81.81,0,0,1,600.07,542.79Z"/></g><polygon class="s2d-b2d3-3_12" points="511.44 454.05 514.93 471.22 512.82 471.7 508.2 454.86 511.44 454.05"/><path class="s2d-b2d3-3_12" d="M472.85,354.62c.25.24.41.43.59.63s.35.39.5.59c.32.4.66.79.94,1.19.61.8,1.18,1.61,1.72,2.44s1.08,1.65,1.58,2.49,1,1.67,1.5,2.52l1.43,2.56,1.34,2.59c.92,1.72,1.72,3.49,2.56,5.24,3.27,7,6.15,14.22,8.8,21.48,1.3,3.64,2.55,7.29,3.78,10.95s2.39,7.34,3.49,11,2.21,7.39,3.24,11.11l3,11.16-2.09.56-3.17-11.08c-1.07-3.69-2.25-7.35-3.37-11s-2.41-7.29-3.6-10.94-2.56-7.23-3.9-10.82c-2.72-7.17-5.66-14.25-9-21.13-.85-1.71-1.65-3.44-2.57-5.11l-1.35-2.52-1.42-2.46c-.47-.83-1-1.63-1.48-2.42s-1-1.6-1.54-2.36-1.07-1.54-1.64-2.27c-.27-.38-.57-.71-.86-1.06-.14-.18-.29-.35-.43-.5l-.4-.43Z"/><path class="s2d-b2d3-3_18" d="M378.05,164.12s8.92-15.3,24.22,0"/><line class="s2d-b2d3-3_27" x1="304.37" y1="422.3" x2="358.93" y2="377"/><path class="s2d-b2d3-3_27" d="M102.82,386.29,214.41,460.4s17.52,17.51,47.24-4.9l29.72-22.41"/><path class="s2d-b2d3-3_20" d="M333.79,219.23s2-13.74,12.56-20.12A39.33,39.33,0,0,1,374.26,194"/><circle class="s2d-b2d3-3_12" cx="333.79" cy="239.64" r="2.05"/><path class="s2d-b2d3-3_20" d="M335.84,277.75a6.71,6.71,0,0,0,4.47.11,19.87,19.87,0,0,0,8.52-4,10.92,10.92,0,0,0,4.05-8.24,5.2,5.2,0,0,0-1.14-3.38"/><path class="s2d-b2d3-3_20" d="M348.61,264.05a5.18,5.18,0,0,1,3.24-1.56,15,15,0,0,1,3.66.12"/><path class="s2d-b2d3-3_16" d="M406.58,192a27.26,27.26,0,0,0-3.1,11.11c-.38,5.26-.13,10.7,1.91,15.56s6.11,9.09,11.26,10.27c5.7,1.3,11.67-1.31,16.16-5.08a23.24,23.24,0,0,0,4.86-5.42c2.88-4.6,3.5-10.24,3.74-15.67.36-8-.05-16.43-3.75-23.58-1.86-3.58-3.08-5.22-7.06-9.79C432.05,181.34,412.55,181,406.58,192Z"/><path class="s2d-b2d3-3_13" d="M410.44,198.69h0a10,10,0,0,1,3.84-5,23.56,23.56,0,0,1,5.44-2.69,9,9,0,0,1,2.8-.75c2.82-.12,5.15,2.44,6.47,5.12a19.29,19.29,0,0,1,1.77,11h0l-.05.27a16.16,16.16,0,0,1-1.11,4c-.06.15-.13.29-.2.44a22.88,22.88,0,0,1-7.4,10,3.68,3.68,0,0,1-5.37-1C413.56,214.82,408.12,204.49,410.44,198.69Z"/><path class="s2d-b2d3-3_12" d="M420.86,213.13a17.76,17.76,0,0,0,3.65-11.21,11,11,0,0,0-.38-2.78,2.49,2.49,0,0,0-.49-.91,1,1,0,0,0-.59-.33,4.17,4.17,0,0,0-2.2.5,3,3,0,0,0-1.52,1.4l-2.82-1.31a6,6,0,0,1,3.13-2.8,8.41,8.41,0,0,1,1.83-.56,5.37,5.37,0,0,1,2.19,0,3.85,3.85,0,0,1,2.09,1.31,5.33,5.33,0,0,1,1,1.92,8.83,8.83,0,0,1,.3,1.83c0,.57.06,1.15.05,1.72a20,20,0,0,1-4.64,12.49Z"/><path class="s2d-b2d3-3_18" d="M443.61,174s17.11,30.79,16.54,53.43S471.38,267,484,272.06"/><path class="s2d-b2d3-3_18" d="M445.61,211.28s-2.57,28.52,4,44.78,32,38.07,47.91,39.35"/><path class="s2d-b2d3-3_18" d="M435.21,243.38s-3.14,28.08,9.9,36.06"/><path class="s2d-b2d3-3_16" d="M329.17,189.54a15.54,15.54,0,0,1-2.67,8.2,15.58,15.58,0,0,1-2.66-8.2c0-4.54,1.19-8.21,2.66-8.21S329.17,185,329.17,189.54Z"/><path class="s2d-b2d3-3_11" d="M414.69,220.12l-.24,59c0,5.5,8.53,5.51,8.56,0l.23-59c0-5.5-8.53-5.51-8.55,0Z"/><path class="s2d-b2d3-3_19" d="M411.67,188s-55.53-36.86-84.89-1c0,0-7.52-13.44-27.6-.44l.9-8.84s12.83-10.4,25.58-3.21c0,0,33.4-37.35,95.79,7.89Z"/><path class="s2d-b2d3-3_22" d="M574.67,499.81c7.6-.55,15.65,1.13,21.39,6.13,6.88,6,9.5,15.75,16.28,21.86A23,23,0,0,0,635.52,532a23,23,0,0,1,2.6-19.44c-6.19.73-12.71,1.19-18.43-1.28-9.05-3.91-13.85-14.06-22.26-19.21-7.45-4.57-17.12-4.61-25.24-1.39-6.42,2.54-13.15,7.24-17.08,13C560.42,504.87,568.8,500.23,574.67,499.81Z"/><path class="s2d-b2d3-3_28" d="M603.15,381.08a22.93,22.93,0,0,1,23-22.85h.25v-3.61H604.82a5,5,0,0,1-1,1.31c-8.61,8.37-12.39,18.43-11.21,31.42-.27-.17-.52-.35-.76-.53a35.17,35.17,0,0,0,29.4,26.84l1.94-9.92A22.91,22.91,0,0,1,603.15,381.08Z"/><path class="s2d-b2d3-3_28" d="M626.15,371.72a9.37,9.37,0,1,0,0,18.73h.25V371.73Z"/><path class="s2d-b2d3-3_28" d="M613.75,344.28c2.61,0,5.21,0,7.82,0a35.76,35.76,0,0,1,4.66-.31h.17v-4.49H585.5a2.39,2.39,0,0,0,.54,4.72h.25a12.5,12.5,0,0,0,2.29,0h1.85c1.6.08,3.22,0,4.83,0h.44c.6,0,1.2,0,1.8.09a14.45,14.45,0,0,0,2.43-.09H602a3,3,0,0,1,2.64,2.38,20.32,20.32,0,0,1,.82,4.12,34.74,34.74,0,0,1,4.67-2.86C610.07,345.78,611,344.27,613.75,344.28Z"/><path class="s2d-b2d3-3_28" d="M614.87,350c-1.69.55-4.1,2.1-4.64-1.29a6.88,6.88,0,0,1-.09-.89,34.74,34.74,0,0,0-4.67,2.86,7.33,7.33,0,0,1-.65,3.93H626.4v-6.26A34.41,34.41,0,0,0,614.87,350Z"/><path class="s2d-b2d3-3_28" d="M621.57,344.28h4.83V344h-.17A35.76,35.76,0,0,0,621.57,344.28Z"/><path class="s2d-b2d3-3_12" d="M626.23,414a35,35,0,0,1-4.94-.35l-4,20.53h9.12V414Z"/><path class="s2d-b2d3-3_12" d="M626.4,414V403.93h-.25a23.48,23.48,0,0,1-2.92-.19l-1.94,9.92a35,35,0,0,0,4.94.35Z"/><path class="s2d-b2d3-3_12" d="M600.93,354.63H580.74V332H626.4V240c-1-.08-1.95.92-3,2.74-6.4,11-13,22-19.33,33.07-12.3,21.53-24.91,42.9-34,66-3.89,9.88-2,15.49,7,18.82,8.27,3,11,8.76,11.11,16.73.05,3.12-.26,6.49,3.71,9.43a34.77,34.77,0,0,1,9-32.2Z"/><path class="s2d-b2d3-3_12" d="M603.86,355.94a5,5,0,0,0,1-1.31h-3.89a34.77,34.77,0,0,0-9,32.2c.24.18.49.36.76.53C591.47,374.37,595.25,364.31,603.86,355.94Z"/><path class="s2d-b2d3-3_12" d="M605.47,350.7a20.32,20.32,0,0,0-.82-4.12A3,3,0,0,0,602,344.2h-2.08a14.45,14.45,0,0,1-2.43.09c-.6-.06-1.2-.08-1.8-.09h-.44c-1.61,0-3.23.08-4.83,0h-1.85a12.5,12.5,0,0,1-2.29,0H586a2.39,2.39,0,0,1-.54-4.72h40.9V332H580.74v22.59h20.19A35.35,35.35,0,0,1,605.47,350.7Z"/><path class="s2d-b2d3-3_12" d="M605.47,350.7a35.35,35.35,0,0,0-4.54,3.93h3.89A7.33,7.33,0,0,0,605.47,350.7Z"/><path class="s2d-b2d3-3_12" d="M613.75,344.28c-2.71,0-3.68,1.5-3.61,3.56a35.14,35.14,0,0,1,11.43-3.56C619,344.29,616.36,344.29,613.75,344.28Z"/><path class="s2d-b2d3-3_12" d="M621.57,344.28a35.14,35.14,0,0,0-11.43,3.56,6.88,6.88,0,0,0,.09.89c.54,3.39,2.95,1.84,4.64,1.29a34.41,34.41,0,0,1,11.53-1.65v-4.08Z"/><path class="s2d-b2d3-3_12" d="M626.4,402.38V390.44h-.25a9.37,9.37,0,1,1,0-18.73h.25V358.24h-.25a22.84,22.84,0,0,0-2.92,45.52l.27-1.37Z"/><path class="s2d-b2d3-3_12" d="M623.5,402.38l-.27,1.37a23.48,23.48,0,0,0,2.92.19h.25v-1.55Z"/><path class="s2d-b2d3-3_28" d="M635.57,381.08a9.38,9.38,0,0,0-9.17-9.35v18.71A9.39,9.39,0,0,0,635.57,381.08Z"/><path class="s2d-b2d3-3_28" d="M667.32,339.48H626.4v4.81h.12v-.08h12c2.68,0,3.82,1.4,3.78,3.63,0,.23,0,.46,0,.7-.38,3.34-2.7,2.12-4.52,1.62a46.16,46.16,0,0,0-11.35-1.78v9.87a22.84,22.84,0,0,1,3,45.47l1.81,10a35.18,35.18,0,0,0,29.26-26.2l-.13.12c.76-12.75-2.7-22.79-11.15-31a7.69,7.69,0,0,1-1.51-2,8.09,8.09,0,0,1-.84-4.07,15.83,15.83,0,0,1,.93-4.47,2.78,2.78,0,0,1,1.8-1.89h4.53a7.26,7.26,0,0,0,1,0h11.69a2.39,2.39,0,0,0,.54-4.72Z"/><path class="s2d-b2d3-3_2" d="M626.4,414V434.2h8.49l-3.73-20.53A35.67,35.67,0,0,1,626.4,414Z"/><path class="s2d-b2d3-3_2" d="M626.4,403.93V414a35.67,35.67,0,0,0,4.76-.35l-1.81-10A22.14,22.14,0,0,1,626.4,403.93Z"/><path class="s2d-b2d3-3_2" d="M681.69,339.51c-14.32-34.05-34.26-65.08-52.65-96.95-1-1.69-1.83-2.48-2.64-2.56v99.48h40.92a2.39,2.39,0,0,1-.54,4.72H655.09a7.26,7.26,0,0,1-1,0h-4.53a2.78,2.78,0,0,0-1.8,1.89,15.83,15.83,0,0,0-.93,4.47,8.09,8.09,0,0,0,.84,4.07,7.69,7.69,0,0,0,1.51,2c8.45,8.17,11.91,18.21,11.15,31l.13-.12c4.64-3.89,4-8.21,4.26-11.91.6-7.54,3.36-12.82,11.21-14.92a11.89,11.89,0,0,0,8.47-8.88C685.48,347.43,683.31,343.36,681.69,339.51Z"/><path class="s2d-b2d3-3_2" d="M638.53,344.2h-12v.08h-.12v4.08a46.16,46.16,0,0,1,11.35,1.78c1.82.5,4.14,1.72,4.52-1.62,0-.24,0-.47,0-.7C642.35,345.6,641.21,344.2,638.53,344.2Z"/><path class="s2d-b2d3-3_2" d="M635.57,381.08a9.39,9.39,0,0,1-9.17,9.36v11.94h2.71l.24,1.33a22.84,22.84,0,0,0-3-45.47v13.49A9.38,9.38,0,0,1,635.57,381.08Z"/><path class="s2d-b2d3-3_2" d="M629.11,402.38H626.4v1.55a22.14,22.14,0,0,0,3-.22Z"/></g></svg>
