<svg id="Layer_1" data-name="Layer 1" xmlns="http://www.w3.org/2000/svg" xmlns:xlink="http://www.w3.org/1999/xlink" width="400" height="250" viewBox="110 60 500 400"><defs><style>.s2d-b2d3-1_1,.s2d-b2d3-1_12,.s2d-b2d3-1_13,.s2d-b2d3-1_16,.s2d-b2d3-1_17,.s2d-b2d3-1_18,.s2d-b2d3-1_20,.s2d-b2d3-1_22,.s2d-b2d3-1_23,.s2d-b2d3-1_24,.s2d-b2d3-1_25,.s2d-b2d3-1_27,.s2d-b2d3-1_28,.s2d-b2d3-1_31{fill:none;}.s2d-b2d3-1_2{fill:#357d74;}.s2d-b2d3-1_3{fill:#daa534;}.s2d-b2d3-1_4{clip-path:url(#clip-path);}.s2d-b2d3-1_5{fill:url(#s2d-b2d3-lg1);}.s2d-b2d3-1_6{fill:url(#s2d-b2d3-lg1_2);}.s2d-b2d3-1_7{fill:url(#s2d-b2d3-lg1_3);}.s2d-b2d3-1_8{fill:url(#s2d-b2d3-lg1_4);}.s2d-b2d3-1_9{fill:url(#s2d-b2d3-lg1_5);}.s2d-b2d3-1_10{fill:url(#s2d-b2d3-lg1_6);}.s2d-b2d3-1_11{fill:#fff;}.s2d-b2d3-1_12,.s2d-b2d3-1_13,.s2d-b2d3-1_27,.s2d-b2d3-1_28{stroke:#dba634;}.s2d-b2d3-1_12,.s2d-b2d3-1_13,.s2d-b2d3-1_22,.s2d-b2d3-1_23,.s2d-b2d3-1_24,.s2d-b2d3-1_27{stroke-linecap:round;stroke-linejoin:round;}.s2d-b2d3-1_12,.s2d-b2d3-1_13,.s2d-b2d3-1_27{stroke-width:2.39px;}.s2d-b2d3-1_13{stroke-dasharray:0 7.45;}.s2d-b2d3-1_14{fill:#dba634;}.s2d-b2d3-1_15{fill:#2f4862;}.s2d-b2d3-1_16,.s2d-b2d3-1_17,.s2d-b2d3-1_18,.s2d-b2d3-1_26{stroke:#5d9e9a;}.s2d-b2d3-1_16,.s2d-b2d3-1_17,.s2d-b2d3-1_18,.s2d-b2d3-1_20,.s2d-b2d3-1_25,.s2d-b2d3-1_26,.s2d-b2d3-1_28,.s2d-b2d3-1_31{stroke-miterlimit:10;}.s2d-b2d3-1_16{stroke-width:0.95px;}.s2d-b2d3-1_17{stroke-width:1.01px;}.s2d-b2d3-1_18{stroke-width:0.95px;}.s2d-b2d3-1_19{fill:#c97475;}.s2d-b2d3-1_20,.s2d-b2d3-1_22,.s2d-b2d3-1_23,.s2d-b2d3-1_24{stroke:#fff;}.s2d-b2d3-1_20{stroke-width:0.86px;}.s2d-b2d3-1_21,.s2d-b2d3-1_26{fill:#5d9e9a;}.s2d-b2d3-1_22,.s2d-b2d3-1_23,.s2d-b2d3-1_24{stroke-width:1.9px;}.s2d-b2d3-1_23{stroke-dasharray:0 9.02;}.s2d-b2d3-1_24{stroke-dasharray:0 7.92;}.s2d-b2d3-1_25,.s2d-b2d3-1_31{stroke:#2f4862;}.s2d-b2d3-1_25,.s2d-b2d3-1_28{stroke-width:3.01px;}.s2d-b2d3-1_26{stroke-width:1px;}.s2d-b2d3-1_27{stroke-dasharray:0 7.45;}.s2d-b2d3-1_29{clip-path:url(#clip-path-2);}.s2d-b2d3-1_30{clip-path:url(#clip-path-3);}.s2d-b2d3-1_31{stroke-width:2.3px;}.s2d-b2d3-1_32{font-size:25px;fill:#2f4962;font-family:PermanentMarker-Regular, Permanent Marker;letter-spacing:0.08em;}.s2d-b2d3-1_33{letter-spacing:0.06em;}</style><clipPath id="clip-path"><path class="s2d-b2d3-1_1" d="M633.73,450c-29.88,0-29.88-5.34-59.77-5.34s-29.88.58-59.77.58-29.88,4.64-59.77,4.64-29.88-6.78-59.77-6.78-29.89,1.34-59.77,1.34-29.89.32-59.78.32-29.89,4.71-59.78,4.71c-18.39,0-36.81-18.26-36.81-36.65,0-28.24,3.93-28.24,3.93-56.48s3.72-28.23,3.72-56.47-4.11-28.24-4.11-56.47,3.49-28.24,3.49-56.48-4.6-28.24-4.6-56.48c0-22.89,19.63-36.9,42.51-36.9,29.45,0,29.45-7.08,58.9-7.08s29.45,2.11,58.9,2.11,29.45-4.1,58.9-4.1,29.45,0,58.9,0S488.5,88,518,88s29.45-1.77,58.91-1.77,29.45-.9,58.9-.9c17.13,0,33.17,17.53,33.17,34.66,0,29.3-4.88,29.3-4.88,58.6s6.89,29.31,6.89,58.62-7.72,29.3-7.72,58.61-1.28,29.3-1.28,58.61,6.61,29.31,6.61,58.62C668.55,431.28,652,450,633.73,450Z"/></clipPath><linearGradient id="s2d-b2d3-lg1" x1="3329.78" y1="352.2" x2="3330.23" y2="273.36" gradientTransform="matrix(-1, 0, 0, 1, 3949.01, 0)" gradientUnits="userSpaceOnUse"><stop offset="0.23" stop-color="#b66f1e" stop-opacity="0"/><stop offset="1" stop-color="#b66f1e" stop-opacity="0.8"/></linearGradient><linearGradient id="s2d-b2d3-lg1_2" x1="3639.82" y1="366.91" x2="3640.07" y2="322.37" xlink:href="#s2d-b2d3-lg1"/><linearGradient id="s2d-b2d3-lg1_3" x1="3700.17" y1="416.48" x2="3700.33" y2="387.52" xlink:href="#s2d-b2d3-lg1"/><linearGradient id="s2d-b2d3-lg1_4" x1="3537.18" y1="333" x2="3537.46" y2="283.8" xlink:href="#s2d-b2d3-lg1"/><linearGradient id="s2d-b2d3-lg1_5" x1="3316.84" y1="227.65" x2="3317.01" y2="198.69" xlink:href="#s2d-b2d3-lg1"/><linearGradient id="s2d-b2d3-lg1_6" x1="3474.27" y1="439.43" x2="3474.44" y2="410.47" xlink:href="#s2d-b2d3-lg1"/><clipPath id="clip-path-2"><path class="s2d-b2d3-1_1" d="M308.17,596c49.33-21.1,70.6.42,137.24-17.82-31.49-15.2-58.74-6-58.74-6-5.14-3.64-5.67-11-5-17.29s2-13-1-18.56c-2.29-4.24-6.67-6.86-10.85-9.28,16.82-3.17,34.14.91,50.37,6.35s32.13,12.28,49,14.9c15.6,2.42,39,2.52,45.49-8.16,9-10.16,15.07-20.83,23.94-31.39,28-33.36,95.35-32,95.35-32,1.76,5.73,7.08,13.59,7.08,13.59s-23.8-5.16-61.33,9.71-34,55.05-68.84,89.5S424.42,614.55,403,614s-32.31,8.39-50.79,28.6-41.57-5.36-41.57-5.36a117.07,117.07,0,0,0-42.7-24C288.65,608.16,308.17,596,308.17,596Z"/></clipPath><clipPath id="clip-path-3"><path class="s2d-b2d3-1_1" d="M669.64,522.08c6.94,13.86,12.59,28.92,23.74,39.67,17.16,16.54,46.38,18.6,65.69,4.63,7.62-5.52,13.64-13.07,21.54-18.16a43.4,43.4,0,0,1,30-6.34c-10-4.56-22-4.47-30.92-10.9-4.93-3.57-8.36-8.8-12.7-13.06s-10.38-7.73-16.29-6.29c-4.48,1.09-7.83,4.72-11.85,7-7.17,4-15.95,3.41-24.09,2.3-5.5-.74-11-1.69-16.15-3.87-13.78-5.88-22.35-19.63-34.26-28.7-9-6.86-22.14-12.62-33.68-11.72,5.35,8.92,2.56,7.55,10.42,13.73C649.8,497.15,664.76,512.35,669.64,522.08Z"/></clipPath></defs><title>4</title><path class="s2d-b2d3-1_3" d="M633.73,450c-29.88,0-29.88-5.34-59.77-5.34s-29.88.58-59.77.58-29.88,4.64-59.77,4.64-29.88-6.78-59.77-6.78-29.89,1.34-59.77,1.34-29.89.32-59.78.32-29.89,4.71-59.78,4.71c-18.39,0-36.81-18.26-36.81-36.65,0-28.24,3.93-28.24,3.93-56.48s3.72-28.23,3.72-56.47-4.11-28.24-4.11-56.47,3.49-28.24,3.49-56.48-4.6-28.24-4.6-56.48c0-22.89,19.63-36.9,42.51-36.9,29.45,0,29.45-7.08,58.9-7.08s29.45,2.11,58.9,2.11,29.45-4.1,58.9-4.1,29.45,0,58.9,0S488.5,88,518,88s29.45-1.77,58.91-1.77,29.45-.9,58.9-.9c17.13,0,33.17,17.53,33.17,34.66,0,29.3-4.88,29.3-4.88,58.6s6.89,29.31,6.89,58.62-7.72,29.3-7.72,58.61-1.28,29.3-1.28,58.61,6.61,29.31,6.61,58.62C668.55,431.28,652,450,633.73,450Z"/><g class="s2d-b2d3-1_4"><path class="s2d-b2d3-1_5" d="M529.16,329.56v0c.1-.17.21-.33.32-.49l0,0c.11-.15.22-.3.34-.44l0-.06.36-.37.09-.08.36-.32.13-.09.36-.27.18-.1.35-.21.22-.1.33-.16.28-.1.31-.11.34-.09.27-.07.42-.06.22,0c.21,0,.43,0,.66,0a6.51,6.51,0,0,1,2.92.7,8.41,8.41,0,0,1,.72-.86,9.81,9.81,0,0,1,6-3.05,11.7,11.7,0,0,1,1.19-.07,9.82,9.82,0,0,1,2,.21,6.23,6.23,0,0,1,.62.15,9.79,9.79,0,0,1,14.05-6.7,15.34,15.34,0,0,1-.38-2.56c0-.33,0-.66,0-1a15.58,15.58,0,0,1,20-15,16.22,16.22,0,0,1,.61-2.8,15.59,15.59,0,0,1,25.52-6.71l.54.53a23.21,23.21,0,0,1,32.9,1.15c.43.46.84.93,1.22,1.42a23.08,23.08,0,0,1,4.23,8.4,14.57,14.57,0,0,1,1.63-.09,15.65,15.65,0,0,1,14,8.8,9.7,9.7,0,0,1,3.38-.61,9.61,9.61,0,0,1,6.44,2.42c.22.19.42.38.62.59a9.82,9.82,0,0,1,2.63,5.39,9.78,9.78,0,0,1,14.34,5.6c.08.27.15.54.21.82a9.64,9.64,0,0,1,2.59-.36,9.8,9.8,0,0,1,7.88,4,6.52,6.52,0,1,1,0,11.64,9.78,9.78,0,0,1-13.43,2.25,9.79,9.79,0,0,1-15.21,2.88,9.79,9.79,0,0,1-16.8,1.13,9.77,9.77,0,0,1-12-2.71,9.76,9.76,0,0,1-13.18,7.47,23.26,23.26,0,0,1-36.43-5.53,9.78,9.78,0,0,1-6.06,2.1,9.68,9.68,0,0,1-4.3-1,9.79,9.79,0,0,1-16.8-1.13,9.77,9.77,0,0,1-15.21-2.88,9.78,9.78,0,0,1-13.43-2.25,6.51,6.51,0,0,1-8.55-9.1Z"/><path class="s2d-b2d3-1_6" d="M258.31,354.12h0l.18-.28,0,0a2.23,2.23,0,0,1,.19-.24l0,0,.21-.21,0,0a1.68,1.68,0,0,1,.21-.18l.07-.06.21-.14.09-.06.2-.12.13-.06.19-.09.15-.06.18-.06.19-.05.15,0,.24,0,.12,0,.37,0a3.7,3.7,0,0,1,1.66.4,4.74,4.74,0,0,1,.4-.49,5.53,5.53,0,0,1,3.37-1.72,5.07,5.07,0,0,1,.68,0,5.62,5.62,0,0,1,1.1.11l.36.09a5.52,5.52,0,0,1,7.93-3.79,8.62,8.62,0,0,1-.21-1.44,5.24,5.24,0,0,1,0-.56,8.81,8.81,0,0,1,8.81-8.82,9,9,0,0,1,2.46.35,9.27,9.27,0,0,1,.35-1.58A8.81,8.81,0,0,1,302.78,331l.31.3a13.1,13.1,0,0,1,18.58.65c.24.26.47.52.69.8a13.18,13.18,0,0,1,1.18,1.76,12.94,12.94,0,0,1,1.21,3c.3,0,.61,0,.92,0a8.78,8.78,0,0,1,5.71,2.1,9,9,0,0,1,2.22,2.86,5.44,5.44,0,0,1,1.91-.34,5.69,5.69,0,0,1,1,.09,5.56,5.56,0,0,1,2.62,1.28c.12.1.23.21.35.33a5.56,5.56,0,0,1,1.48,3,5.54,5.54,0,0,1,8.1,3.17,3.45,3.45,0,0,1,.12.46,5.47,5.47,0,0,1,1.46-.2,5.53,5.53,0,0,1,4.45,2.25,3.69,3.69,0,1,1,0,6.57,5.53,5.53,0,0,1-4.45,2.25,5.46,5.46,0,0,1-3.13-1,5.53,5.53,0,0,1-8.59,1.63,5.53,5.53,0,0,1-9.49.64,5.51,5.51,0,0,1-6.77-1.53,5.53,5.53,0,0,1-7.44,4.22,13.13,13.13,0,0,1-20.58-3.13,5.47,5.47,0,0,1-3.43,1.19,5.53,5.53,0,0,1-2.43-.56,5.53,5.53,0,0,1-9.49-.64,5.53,5.53,0,0,1-8.59-1.63,5.46,5.46,0,0,1-3.13,1,5.53,5.53,0,0,1-4.45-2.25A3.69,3.69,0,0,1,257.8,356,3.64,3.64,0,0,1,258.31,354.12Z"/><path class="s2d-b2d3-1_7" d="M215.75,408.17h0a1.74,1.74,0,0,1,.11-.18h0c0-.06.09-.11.13-.16l0,0,.13-.14,0,0,.14-.12,0,0,.14-.1.06,0,.13-.07.08,0,.12-.06.11,0,.11,0,.12,0,.1,0,.16,0h.32a2.37,2.37,0,0,1,1.07.25,4,4,0,0,1,.27-.31,3.52,3.52,0,0,1,2.19-1.12,3.15,3.15,0,0,1,.44,0,3.53,3.53,0,0,1,.72.08l.23,0a3.61,3.61,0,0,1,5.16-2.46,5.75,5.75,0,0,1-.14-.94c0-.12,0-.24,0-.36a5.74,5.74,0,0,1,5.74-5.74,5.68,5.68,0,0,1,1.6.23,5.89,5.89,0,0,1,.22-1,5.73,5.73,0,0,1,5.47-4,5.66,5.66,0,0,1,3.9,1.54l.2.19a8.93,8.93,0,0,1,1.77-1.27,8.44,8.44,0,0,1,4.06-1,8.53,8.53,0,0,1,6.26,2.72c.16.17.31.35.45.53a8.69,8.69,0,0,1,.76,1.14,8.41,8.41,0,0,1,.79,1.94q.3,0,.6,0a5.74,5.74,0,0,1,5.15,3.23,3.66,3.66,0,0,1,1.91-.16,3.53,3.53,0,0,1,1.7.83,2.29,2.29,0,0,1,.23.21,3.53,3.53,0,0,1,1,2,3.66,3.66,0,0,1,1.83-.5,3.59,3.59,0,0,1,3.44,2.56c0,.1.06.2.08.3a3.69,3.69,0,0,1,.95-.13,3.59,3.59,0,0,1,2.89,1.46,2.45,2.45,0,0,1,1.08-.25,2.39,2.39,0,1,1,0,4.78,2.45,2.45,0,0,1-1.08-.25,3.58,3.58,0,0,1-4.93.82,3.58,3.58,0,0,1-5.58,1.06,3.61,3.61,0,0,1-6.18.42,3.56,3.56,0,0,1-4.39-1,3.61,3.61,0,0,1-3.55,3,3.75,3.75,0,0,1-1.3-.24,8.54,8.54,0,0,1-13.38-2,3.53,3.53,0,0,1-2.22.78,3.68,3.68,0,0,1-1.59-.37,3.59,3.59,0,0,1-6.17-.42,3.54,3.54,0,0,1-2.38.91,3.59,3.59,0,0,1-3.2-2,3.61,3.61,0,0,1-4.94-.83,2.38,2.38,0,0,1-3.46-2.14A2.41,2.41,0,0,1,215.75,408.17Z"/><path class="s2d-b2d3-1_8" d="M355.62,318.87h0a3.28,3.28,0,0,1,.2-.31l0,0,.21-.27,0,0,.23-.23.05-.05.23-.2.08-.06.23-.16.1-.07.22-.13.14-.06.21-.1.17-.06.2-.07.21,0,.17-.05.26,0,.14,0,.41,0a4,4,0,0,1,1.82.44,5.85,5.85,0,0,1,.45-.54,6.09,6.09,0,0,1,3.72-1.9,6.16,6.16,0,0,1,.75-.05,6.08,6.08,0,0,1,1.22.13l.39.1a6.12,6.12,0,0,1,6-4.86,6.2,6.2,0,0,1,2.78.67,10.33,10.33,0,0,1-.24-1.59c0-.21,0-.41,0-.62a9.73,9.73,0,0,1,12.46-9.36,9.41,9.41,0,0,1,.38-1.75,9.73,9.73,0,0,1,15.92-4.18c.12.1.23.22.34.33a14.57,14.57,0,0,1,3-2.16,14.48,14.48,0,0,1,17.54,2.88c.26.28.51.58.76.88a15,15,0,0,1,1.3,2,14.43,14.43,0,0,1,1.33,3.3,8.72,8.72,0,0,1,1-.06,9.69,9.69,0,0,1,6.31,2.33A9.86,9.86,0,0,1,438.8,306a6.17,6.17,0,0,1,2.11-.38,6,6,0,0,1,4,1.51l.39.37a6.17,6.17,0,0,1,1.64,3.36,6.1,6.1,0,0,1,9,3.5c0,.16.09.33.13.51a6,6,0,0,1,6.53,2.26,4,4,0,0,1,1.83-.44,4.07,4.07,0,0,1,0,8.14,4,4,0,0,1-1.83-.44,6.1,6.1,0,0,1-8.38,1.41,6.1,6.1,0,0,1-9.49,1.79,6.11,6.11,0,0,1-10.49.71,6,6,0,0,1-2.68.63,6.11,6.11,0,0,1-4.79-2.32,6.11,6.11,0,0,1-6,5.08,6,6,0,0,1-2.21-.42,14.51,14.51,0,0,1-22.73-3.45,6.11,6.11,0,0,1-3.79,1.31,6,6,0,0,1-2.68-.62,6.12,6.12,0,0,1-10.49-.71,6.1,6.1,0,0,1-9.49-1.79,6.1,6.1,0,0,1-8.38-1.41,4,4,0,0,1-1.82.44,4.07,4.07,0,0,1-4.07-4.07A4,4,0,0,1,355.62,318.87Z"/><path class="s2d-b2d3-1_9" d="M599.07,219.33h0a1.74,1.74,0,0,1,.11-.18h0l.13-.16,0,0,.13-.14,0,0,.14-.11s0,0,0,0l.14-.09.06,0,.13-.08.08,0,.12-.06.11,0,.11,0a.53.53,0,0,1,.12,0l.1,0,.16,0,.08,0h.24a2.38,2.38,0,0,1,1.07.26,4.15,4.15,0,0,1,.27-.32,3.63,3.63,0,0,1,2.19-1.12l.44,0a3.51,3.51,0,0,1,.72.07l.23.06a3.59,3.59,0,0,1,5.16-2.46,5.92,5.92,0,0,1-.14-.94c0-.12,0-.25,0-.37a5.73,5.73,0,0,1,7.34-5.5,5.72,5.72,0,0,1,9.59-3.5l.2.2a8.54,8.54,0,0,1,1.77-1.27,8.51,8.51,0,0,1,10.32,1.69c.16.17.31.34.45.52a8.17,8.17,0,0,1,.76,1.15,8.06,8.06,0,0,1,.79,1.94q.3,0,.6,0a5.7,5.7,0,0,1,3.71,1.36,5.86,5.86,0,0,1,1.44,1.87,3.47,3.47,0,0,1,1.25-.23,3.68,3.68,0,0,1,.66.06,3.62,3.62,0,0,1,1.7.83,2.39,2.39,0,0,1,.23.22,3.57,3.57,0,0,1,1,2,3.5,3.5,0,0,1,1.82-.5,3.6,3.6,0,0,1,3.44,2.55,2.81,2.81,0,0,1,.08.31,3.31,3.31,0,0,1,1-.14,3.57,3.57,0,0,1,2.89,1.47,2.33,2.33,0,0,1,1.08-.26,2.4,2.4,0,0,1,0,4.79,2.46,2.46,0,0,1-1.08-.26,11.51,11.51,0,0,0-8.13,2.79,3.56,3.56,0,0,1-2.38-.9,3.6,3.6,0,0,1-6.18.41,3.47,3.47,0,0,1-1.58.37,3.58,3.58,0,0,1-2.81-1.36,3.62,3.62,0,0,1-3.55,3,3.54,3.54,0,0,1-1.3-.25,8.55,8.55,0,0,1-13.38-2,3.58,3.58,0,0,1-2.22.77,3.47,3.47,0,0,1-1.58-.37,10.33,10.33,0,0,0-8.56.49,3.59,3.59,0,0,0-5.24-1.32,3.6,3.6,0,0,1-2.9-1.47,2.26,2.26,0,0,1-1.07.26,2.39,2.39,0,0,1-2.39-2.39A2.45,2.45,0,0,1,599.07,219.33Z"/><path class="s2d-b2d3-1_10" d="M441.64,431.12h0a1.74,1.74,0,0,1,.11-.18h0c0-.06.09-.11.13-.16l0,0,.13-.14,0,0,.14-.12,0,0,.14-.1.06,0,.13-.07.08,0,.12-.06.11,0,.11,0,.12,0,.11,0,.15,0h.32a2.45,2.45,0,0,1,1.08.25,3.88,3.88,0,0,1,.26-.31,3.52,3.52,0,0,1,2.19-1.12,3.15,3.15,0,0,1,.44,0,3.45,3.45,0,0,1,.72.08l.23.05a3.61,3.61,0,0,1,5.16-2.46,5.75,5.75,0,0,1-.14-.94c0-.12,0-.24,0-.36a5.74,5.74,0,0,1,5.74-5.74,5.68,5.68,0,0,1,1.6.23,5.89,5.89,0,0,1,.22-1,5.73,5.73,0,0,1,5.47-4,5.66,5.66,0,0,1,3.9,1.54l.2.19a8.93,8.93,0,0,1,1.77-1.27,8.53,8.53,0,0,1,10.32,1.7,5.59,5.59,0,0,1,.45.52,8.69,8.69,0,0,1,.76,1.14,8.41,8.41,0,0,1,.79,1.94l.6,0a5.7,5.7,0,0,1,3.71,1.37,5.82,5.82,0,0,1,1.44,1.86,3.66,3.66,0,0,1,1.91-.16,3.53,3.53,0,0,1,1.7.83l.23.21a3.61,3.61,0,0,1,1,2,3.58,3.58,0,0,1,5.26,2.06c0,.1.06.2.08.3a3.75,3.75,0,0,1,.95-.13,3.62,3.62,0,0,1,2.9,1.46,2.39,2.39,0,1,1,0,4.28,3.62,3.62,0,0,1-2.9,1.46,3.67,3.67,0,0,1-2-.63,3.58,3.58,0,0,1-5.58,1.05,24.15,24.15,0,0,0-7.76.79,3.58,3.58,0,0,1-2.81-1.37,3.6,3.6,0,0,1-3.55,3,3.65,3.65,0,0,1-1.29-.24,8.55,8.55,0,0,1-13.39-2,3.53,3.53,0,0,1-2.22.78,3.59,3.59,0,0,0-4.55,1.19,3.61,3.61,0,0,1-3.21-2,3.52,3.52,0,0,1-2.38.91,3.59,3.59,0,0,1-3.2-2,3.6,3.6,0,0,1-4.93-.83,2.46,2.46,0,0,1-1.08.26,2.4,2.4,0,0,1-2.07-3.6Z"/><path class="s2d-b2d3-1_11" d="M242.3,303.55l88.93,81.75a12.48,12.48,0,0,0,13.92,2C370.32,375,450,336.14,468.08,327.28c11.13-5.46,24.21-7,34.26-7.16h0a115.55,115.55,0,0,1,14.56.61l39.25,1.64c28.77,1.72,34.94,45.23,34.94,45.23L591,389.33c2.26,5.45-.05,11.93-4.09,16.23s-9.54,6.86-14.9,9.34c-10.11,4.67-20.45,9.41-31.53,10.64-10.14,1.13-20.37-.75-30.29-3.1C498,419.56,539,380.56,527.28,376.28c-8.31-3-11.48,1.73-13.23-6.94-1.25-6.16-57.3,13.7-54.31,8.17l.11-.21L347.44,427.13A24.52,24.52,0,0,1,319,420.86L229.71,318.79Z"/><line class="s2d-b2d3-1_12" x1="426.16" y1="350.78" x2="426.16" y2="350.78"/><path class="s2d-b2d3-1_13" d="M432.19,355.12c8,7.51,9.61,17.95,9.88,23.45"/><line class="s2d-b2d3-1_12" x1="442.06" y1="382.28" x2="442.06" y2="382.28"/><path class="s2d-b2d3-1_14" d="M431.69,389.54c.1-.94.69-25.57-18.52-36l6.32-2.84C437.18,361.47,438.15,380.67,438,387"/><path class="s2d-b2d3-1_15" d="M624.77,247.41a51.3,51.3,0,0,0-31.68-38.16,36.1,36.1,0,0,0-44-51.84A51.25,51.25,0,1,0,526,195.92c.09.68.19,1.37.32,2.05a36,36,0,0,0,13,21.52,51.31,51.31,0,1,0,85.4,27.92Z"/><path class="s2d-b2d3-1_16" d="M602.07,244.5a36.25,36.25,0,0,1-1.65,7c-.36,1-.76,2.06-1.21,3.07-.25.56-.52,1.12-.8,1.67a33.34,33.34,0,0,1-1.93,3.32"/><path class="s2d-b2d3-1_16" d="M587.06,210.07a36.5,36.5,0,0,1,14.73,22.82"/><path class="s2d-b2d3-1_16" d="M577.35,247.67a19,19,0,0,1-4.46,3.12"/><path class="s2d-b2d3-1_16" d="M580.06,217.06a26.7,26.7,0,0,1,3.81,18.58,22.17,22.17,0,0,1-2.62,7.11"/><path class="s2d-b2d3-1_16" d="M564.49,222.15a21.06,21.06,0,0,1-16.22,28.16s-12.07,2.38-20.37-.56"/><path class="s2d-b2d3-1_16" d="M554.89,219.94c.54,2.94-.76,6-2.74,8.23a29.72,29.72,0,0,1-7.15,5.37"/><path class="s2d-b2d3-1_17" d="M554.2,205.16c5.51-1.3,11.1-2.69,15.93-5.79s8.87-8.22,9.6-14.46-2.67-13.4-8.2-15.1"/><path class="s2d-b2d3-1_17" d="M555.48,194.66c3,.35,5.63-1.7,7.82-3.83,3.11-3,6.13-7.12,5.45-11.78a10.55,10.55,0,0,0-4.22-6.77,16,16,0,0,0-7.09-2.75,10.57,10.57,0,0,0-4.41,0c-2.71.74-4.71,3.12-6.55,5.41"/><path class="s2d-b2d3-1_11" d="M242.35,306.12,344.24,371a12.47,12.47,0,0,0,14.05-.44c22.63-16.51,94.26-68.77,110.51-80.66,10-7.32,22.62-11.1,32.48-13.05h0a117.21,117.21,0,0,1,14.44-1.95l38.94-5.26c28.62-3.35,42.32,38.41,42.32,38.41l3.68,21.41c3.17,5,2,11.76-1.19,16.7s-8.19,8.43-13,11.8c-9.14,6.38-18.49,12.85-29.18,16-9.79,2.88-20.18,2.82-30.37,2.25a320.82,320.82,0,0,1-37.22-4.31c-8.71-1.53-18.68-4.48-21.92-12.71-2.31-5.85-.34-12.42,1.64-18.38l.08-.23-102,68.76a24.55,24.55,0,0,1-29.07-1.2L232.63,323.33Z"/><path class="s2d-b2d3-1_11" d="M243.9,305.22c-2.31-1.7-1.24-5.36-1.58-8.21s-4.43-4.27-4.27-7.14c.32-5.45-1.11-15.38-2.74-22.7a1.49,1.49,0,0,0-2.9,0,203.42,203.42,0,0,0-5.52,35.48,58.52,58.52,0,0,0,.43,10.75c.49,3.95.72,6.87,7.9,11.86"/><path class="s2d-b2d3-1_11" d="M447.61,135.67,431.2,164.85s-16.25,98,29.58,105.6c13,2.16,72.08-33.26,72.08-33.26S543,230,545.65,219.38l8.77-23.73.17-13.82-9.75-8.13L534.22,167l-17.77-15.28Z"/><path class="s2d-b2d3-1_11" d="M447.61,135.67,431.2,164.85s-16.25,98,29.58,105.6c13,2.16,72.08-33.26,72.08-33.26S543,230,545.65,219.38l8.77-23.73.17-13.82-9.75-8.13L534.22,167l-17.77-15.28Z"/><path class="s2d-b2d3-1_15" d="M432.24,157.92s12.71-51,63.29-56.26L525.93,141s9,16.72,8.92,17.87-8.81,5-8.81,5L507,154.68l-26.35-8.35L464,155.87l-7.88,6.45Z"/><path class="s2d-b2d3-1_16" d="M530.75,128.88a23.85,23.85,0,0,1,4.35,6.75"/><path class="s2d-b2d3-1_16" d="M464.18,155.53c1.91-21.75,26.44-34.89,37.41-36.9a30.36,30.36,0,0,1,13,0A27.81,27.81,0,0,1,521,121.2"/><path class="s2d-b2d3-1_18" d="M481.29,147.57c11.61-14.51,24.73-16.79,31-15.9,7.16,1,17.85,7.47,23,18.48"/><path class="s2d-b2d3-1_16" d="M450.13,157.76c-2.32-12.9,9.68-26.7,11.78-29,8.91-9.62,20.65-15.39,33.43-18.34"/><polygon class="s2d-b2d3-1_11" points="513.29 246.48 525.33 286.22 544.58 275.82 536.98 224.06 513.29 246.48"/><path class="s2d-b2d3-1_19" d="M460,365.24c1.62-9.06,3.54-18.77,10.2-25.12l20.94-9.74a238.07,238.07,0,0,1,24.47-9.78A6.33,6.33,0,0,0,519.4,312c-5.38-11.9-14.13-27.23-25.52-33.41l7.4-1.72s14.44,5.34,29.09,39.27A241,241,0,0,1,561.68,310a6.51,6.51,0,0,0,5.05-9.22c-5.53-11.79-13.37-24.53-23-29.62l8.94-1.21s12.12,6.18,26.42,38.47c6-.32,11.93-.45,17.91-.33h0c3.67,9.39,11.57,30.36,15.19,43.49,14.51,52.52,12,103.68,24,130.54L530.9,518.85l.66-1.65a66.83,66.83,0,0,0-5.9-62,148.53,148.53,0,0,0-9.35-12.48c-13.47-16.3-30.32-29.4-46.42-43.11-3.22-2.73-6.47-5.58-8.56-9.26C457.11,382.93,458.5,373.68,460,365.24Z"/><path class="s2d-b2d3-1_15" d="M502.9,176.11a15.67,15.67,0,0,0-2.6-1.69c-.93-.48-1.94-.92-2.93-1.31a23.38,23.38,0,0,0-6.18-1.51,22.28,22.28,0,0,0-6.36.28,31.86,31.86,0,0,0-3.14.76c-.5.17-1.06.32-1.5.5s-1,.42-1.46.66c-1,.48-2,1-2.92,1.52-.48.27-1,.54-1.42.82s-.88.57-1.3.88a17.45,17.45,0,0,0-4.2,4.72c-2.28,3.66-3.61,7.93-4.85,12.19l-1.62-.45c1.19-4.31,2.45-8.73,4.84-12.74a19.59,19.59,0,0,1,4.59-5.32c.47-.37,1-.7,1.46-1l1.48-.88c1-.56,2-1.11,3-1.63.52-.25,1-.51,1.59-.74s1.12-.4,1.67-.59a29.24,29.24,0,0,1,3.37-.88,24.8,24.8,0,0,1,7-.43,26.69,26.69,0,0,1,6.85,1.54c1.09.42,2.14.86,3.21,1.38a19,19,0,0,1,3.05,1.92Z"/><path class="s2d-b2d3-1_15" d="M436.76,176.25a14.51,14.51,0,0,1,12.24-.14,13.82,13.82,0,0,1,5,3.78,18.92,18.92,0,0,1,2.95,5.36,35.44,35.44,0,0,1,0,23.34A37,37,0,0,1,451.4,219c-.58.8-1.27,1.52-1.9,2.28s-1.38,1.42-2.09,2.1-1.51,1.31-2.26,1.9a6.89,6.89,0,0,0-1.74,1.77,1.92,1.92,0,0,0,0,1.87,4.54,4.54,0,0,0,1.68,1.63,11.19,11.19,0,0,0,2.43,1.08c.89.29,1.78.57,2.69.79a33.63,33.63,0,0,0,11.13.88l.16,1.68a35.57,35.57,0,0,1-11.72-.82c-.95-.23-1.9-.5-2.84-.8a13.34,13.34,0,0,1-2.82-1.23,6.3,6.3,0,0,1-2.38-2.35,3.82,3.82,0,0,1,0-3.64,8.32,8.32,0,0,1,2.21-2.37c.75-.61,1.41-1.22,2.12-1.83s1.32-1.32,1.95-2,1.23-1.41,1.76-2.17a34.63,34.63,0,0,0,5.13-9.87,33.11,33.11,0,0,0-.17-21.82,16.2,16.2,0,0,0-2.61-4.66,11.3,11.3,0,0,0-4.13-3.06,12,12,0,0,0-10.06.19Z"/><path class="s2d-b2d3-1_15" d="M478.51,238.07a.63.63,0,0,0,.75.14l-.15.08-.3.16-.6.31-1.2.62c-.81.41-1.62.8-2.44,1.19-1.63.77-3.28,1.5-5,2.17a52.34,52.34,0,0,1-5.16,1.79,22.62,22.62,0,0,1-5.53,1l1-1.06.38,7.83-1.27-1a30,30,0,0,0,5.81-2,30.39,30.39,0,0,0,5.32-3.12,23.55,23.55,0,0,0,4.45-4.18l.95-1.19.83-1.27c.13-.2.31-.46.39-.6a.31.31,0,0,1,.21-.21,2.47,2.47,0,0,0,1.14-.37Zm1.36-1.11a7.9,7.9,0,0,1-.32,2,7.47,7.47,0,0,1-.53,1.21,8.64,8.64,0,0,1-.49.74l-.95,1.4c-.34.45-.71.87-1.07,1.31a26.41,26.41,0,0,1-4.95,4.5,32.72,32.72,0,0,1-5.79,3.27,32.13,32.13,0,0,1-6.36,2l-1.23.25,0-1.27-.26-7.84,0-1.06h1a20.21,20.21,0,0,0,5-.81,50.58,50.58,0,0,0,5-1.65c1.65-.63,3.29-1.32,4.9-2l2.42-1.13,1.19-.58.59-.3.3-.15.15-.08a1.11,1.11,0,0,1,.58-.12,1,1,0,0,1,.53.18Z"/><path class="s2d-b2d3-1_15" d="M468.79,201.09a39.11,39.11,0,0,1,6-6.35,36.43,36.43,0,0,1,7.24-4.87,28,28,0,0,1,8.44-2.73l2.23-.28,2.25,0c.37,0,.75,0,1.12,0l1.12.13,2.24.27-.78,3.82-1.91-.3-1-.16c-.32,0-.64,0-1,0l-1.94-.06-1.93.17a24.66,24.66,0,0,0-7.51,2.12,33.14,33.14,0,0,0-6.79,4.19,36.17,36.17,0,0,0-5.71,5.62Z"/><path class="s2d-b2d3-1_15" d="M434.56,190.09l2.46.68c.8.28,1.61.57,2.4.89a20.74,20.74,0,0,1,4.51,2.59,15,15,0,0,1,3.62,3.87,11.82,11.82,0,0,1,1.21,2.41,9.89,9.89,0,0,1,.62,2.77l-2.59.1a6.32,6.32,0,0,0-.2-.9,8.8,8.8,0,0,0-.35-1,9.05,9.05,0,0,0-1-1.84,12.22,12.22,0,0,0-3.07-3,17.51,17.51,0,0,0-3.93-2c-.7-.25-1.43-.46-2.14-.69l-2.22-.49Z"/><circle class="s2d-b2d3-1_14" cx="497.51" cy="224.19" r="14.99" transform="translate(-3.07 441.43) rotate(-47.72)"/><path class="s2d-b2d3-1_20" d="M521.65,185.51s13.78-14.65,24.59-6.54-5.94,26.47-10.89,29.79"/><path class="s2d-b2d3-1_14" d="M532.4,217.54c7,6.71,37.05,13.33,60.87-7.55s-.39-41-9.83-31.31c-6.41,6.54-5.13,12.21-.51,15,0,0,6.56,5.55,11.77-2.17,0,0-1.09,6.44-11.61,12.17s-20.89,6.64-28.07,2.75c0,0,11.8-9.44,9-19.92s-4.58-15.56,3.43-20.81c0,0-11.83.37-14.76,6.24,0,0-20.75-9,9.09-31.19,0,0-40.77,8.29-43.35,41.3C518.45,182.06,517.2,203,532.4,217.54Z"/><circle class="s2d-b2d3-1_14" cx="588.55" cy="186.12" r="9.95"/><path class="s2d-b2d3-1_21" d="M669.64,522.08c6.94,13.86,12.59,28.92,23.74,39.67,17.16,16.54,46.38,18.6,65.69,4.63,7.62-5.52,13.64-13.07,21.54-18.16a43.4,43.4,0,0,1,30-6.34c-10-4.56-22-4.47-30.92-10.9-4.93-3.57-8.36-8.8-12.7-13.06s-10.38-7.73-16.29-6.29c-4.48,1.09-7.83,4.72-11.85,7-7.17,4-15.95,3.41-24.09,2.3-5.5-.74-11-1.69-16.15-3.87-13.78-5.88-22.35-19.63-34.26-28.7-9-6.86-22.14-12.62-33.68-11.72,5.35,8.92,2.56,7.55,10.42,13.73C649.8,497.15,664.76,512.35,669.64,522.08Z"/><path class="s2d-b2d3-1_14" d="M522.29,168.07s-37.14-30.52-66.34-.64c0,0-5.69-12.67-24.75-2.58l1.5-7.87s12.35-8.33,23.24-.86c0,0,28.72-25.6,71.15,4.76Z"/><path class="s2d-b2d3-1_19" d="M522.29,168.07s-37.14-30.52-66.34-.64c0,0-5.69-12.67-24.75-2.58l1.5-7.87s12.35-8.33,23.24-.86c0,0,28.72-25.6,71.15,4.76Z"/><path class="s2d-b2d3-1_15" d="M538.7,508.76c-1.32,23.91-48.26,61.12-76.43,80S336,674.89,317.89,693.61s-11.14,37.93-10,46,20.84,12.47,20.84,12.47c28.67,5.94,121.6,7.08,162.88,7,64.46-.18,115.53,14.72,115.53,14.72s-28.66-69-18.69-106.83c1.63-6.17,23.84-15.92,23.84-15.92,40.52-13.16,59.14-46.43,59.14-46.43,16.71-29.75-9.07-79.1-9.07-79.1l-26.24-43.37Z"/><path class="s2d-b2d3-1_21" d="M308.17,596c49.33-21.1,70.6.42,137.24-17.82-31.49-15.2-58.74-6-58.74-6-5.14-3.64-5.67-11-5-17.29s2-13-1-18.56c-2.29-4.24-6.67-6.86-10.85-9.28,16.82-3.17,34.14.91,50.37,6.35s32.13,12.28,49,14.9c15.6,2.42,37.56,3.37,45.49-8.16,9-10.16,15.07-20.83,23.94-31.39,28-33.36,95.35-32,95.35-32,1.76,5.73,7.08,13.59,7.08,13.59s-23.8-5.16-61.33,9.71-34,55.05-68.84,89.5S424.42,614.55,403,614s-32.31,8.39-50.79,28.6-41.57-5.36-41.57-5.36a117.07,117.07,0,0,0-42.7-24C288.65,608.16,308.17,596,308.17,596Z"/><line class="s2d-b2d3-1_22" x1="522.88" y1="162.81" x2="522.88" y2="162.81"/><path class="s2d-b2d3-1_23" d="M515.06,158.33c-11.91-5.91-35.37-14-55.73.42"/><line class="s2d-b2d3-1_22" x1="455.77" y1="161.53" x2="455.77" y2="161.53"/><path class="s2d-b2d3-1_24" d="M449.21,157.44c-2.79-.59-6.59-.45-11.62,1.48"/><line class="s2d-b2d3-1_22" x1="433.97" y1="160.52" x2="433.97" y2="160.52"/><line class="s2d-b2d3-1_25" x1="641.13" y1="490.34" x2="634.05" y2="476.75"/><ellipse class="s2d-b2d3-1_26" cx="626.1" cy="527.64" rx="8.48" ry="2.35" transform="translate(51.81 1111.24) rotate(-85.58)"/><ellipse class="s2d-b2d3-1_26" cx="624.15" cy="552.8" rx="8.48" ry="2.35" transform="translate(24.93 1132.52) rotate(-85.58)"/><ellipse class="s2d-b2d3-1_26" cx="612.55" cy="539.25" rx="2.35" ry="8.48" transform="translate(27.73 1108.44) rotate(-85.58)"/><ellipse class="s2d-b2d3-1_26" cx="637.7" cy="541.19" rx="2.35" ry="8.48" transform="translate(49.01 1135.32) rotate(-85.58)"/><path class="s2d-b2d3-1_14" d="M535.59,503l-.34,1.84c.08-.24,9.94-25.9,65.15-33.37.18,0,20.89-2.73,31.76-.94l-1.49-6.2c-12.61-.34-22.56.12-40.43,3.9-32.91,7-49.2,22.34-54,30.1"/><polygon class="s2d-b2d3-1_15" points="534.83 241.11 538.68 265.04 537.03 265.34 532.27 241.57 534.83 241.11"/><path class="s2d-b2d3-1_11" d="M529.8,186.37h0a8.27,8.27,0,0,1,3.56-3.9,19.12,19.12,0,0,1,4.72-1.84,7.34,7.34,0,0,1,2.39-.42c2.36.1,4.11,2.4,5,4.73a16.08,16.08,0,0,1,.67,9.26h0s0,.1-.06.23a13.34,13.34,0,0,1-1.22,3.24,4,4,0,0,1-.2.35,19.18,19.18,0,0,1-6.88,7.75,3.08,3.08,0,0,1-4.4-1.24C531.22,200,527.45,191,529.8,186.37Z"/><path class="s2d-b2d3-1_15" d="M537.41,199.14a14.78,14.78,0,0,0,3.86-9.06,8.42,8.42,0,0,0-.11-2.34,2.14,2.14,0,0,0-.34-.8.82.82,0,0,0-.47-.31,3.55,3.55,0,0,0-1.86.25,2.45,2.45,0,0,0-1.37,1.06l-2.25-1.29a5,5,0,0,1,2.8-2.11,7.08,7.08,0,0,1,1.57-.33,4.48,4.48,0,0,1,1.82.16,3.21,3.21,0,0,1,1.65,1.24,4.35,4.35,0,0,1,.65,1.67,10.68,10.68,0,0,1,0,3,16.68,16.68,0,0,1-4.78,10.05Z"/><path class="s2d-b2d3-1_1" d="M535.67,235.46c5.14-4,11.58-5.74,17.86-7.32,4.23-1.07,8.56-2.09,12.91-1.8a24.88,24.88,0,0,1,17.8,10.11,33.45,33.45,0,0,1,6.24,19.81c0,5.16-1,10.47-3.91,14.74-5.12,7.54-14.73,10.34-23.56,12.61-2.23.58-4.63,1.14-6.78.33"/><line class="s2d-b2d3-1_12" x1="433.56" y1="318.95" x2="433.56" y2="318.95"/><path class="s2d-b2d3-1_27" d="M440.36,321.94c9.35,5.7,13.12,15.57,14.53,20.89"/><line class="s2d-b2d3-1_12" x1="455.65" y1="346.47" x2="455.65" y2="346.47"/><path class="s2d-b2d3-1_14" d="M447,355.72c-.09-.94-4.63-25.16-25.57-31.34l5.6-4.08c19.52,6.83,24.45,25.41,25.57,31.64"/><path class="s2d-b2d3-1_14" d="M243,331.66l3,2.37c-1-5.1-.09-10.33,2.11-13.07,3.17-3.94,11.3-5.49,9.35-5.25L254.86,314c-.28,0-5,0-9.1,5C243,322.51,241.85,325.63,243,331.66Z"/><circle class="s2d-b2d3-1_19" cx="535.99" cy="203.96" r="2.78"/><path class="s2d-b2d3-1_11" d="M596.17,197.26a.09.09,0,0,1-.09-.09.1.1,0,0,1,.09-.1.1.1,0,0,1,.1.1A.09.09,0,0,1,596.17,197.26Z"/><path class="s2d-b2d3-1_11" d="M590,204.69a.36.36,0,1,1,.36-.35A.36.36,0,0,1,590,204.69Z"/><circle class="s2d-b2d3-1_11" cx="582.4" cy="210.07" r="0.58"/><path class="s2d-b2d3-1_11" d="M573.8,214.86a.79.79,0,1,1,.78-.78A.78.78,0,0,1,573.8,214.86Z"/><circle class="s2d-b2d3-1_11" cx="564.52" cy="216.06" r="0.99"/><path class="s2d-b2d3-1_11" d="M555,216.69a.7.7,0,0,1-.71-.7.71.71,0,0,1,.71-.71.7.7,0,0,1,.7.71A.7.7,0,0,1,555,216.69Z"/><ellipse class="s2d-b2d3-1_28" cx="590.42" cy="522.72" rx="4.09" ry="1.13" transform="translate(23.78 1071.13) rotate(-85.58)"/><g class="s2d-b2d3-1_29"><path class="s2d-b2d3-1_11" d="M365.94,548.25a.2.2,0,1,1,0-.4.2.2,0,0,1,0,.4Z"/><circle class="s2d-b2d3-1_11" cx="388.92" cy="545.24" r="1.61"/><circle class="s2d-b2d3-1_11" cx="629.41" cy="495.79" r="0.2"/><path class="s2d-b2d3-1_11" d="M610.5,495.31a.6.6,0,1,1,.6-.6A.6.6,0,0,1,610.5,495.31Z"/><path class="s2d-b2d3-1_11" d="M591.57,496.19a1,1,0,1,1,1-1A1,1,0,0,1,591.57,496.19Z"/><path class="s2d-b2d3-1_11" d="M573,500.08a1.31,1.31,0,1,1,1.31-1.31A1.31,1.31,0,0,1,573,500.08Z"/><path class="s2d-b2d3-1_11" d="M555.86,508.34a1.61,1.61,0,1,1,1.61-1.6A1.61,1.61,0,0,1,555.86,508.34Z"/><path class="s2d-b2d3-1_11" d="M542.08,521.61a2,2,0,1,1,2-2A2,2,0,0,1,542.08,521.61Z"/><path class="s2d-b2d3-1_11" d="M531.78,537.52a2,2,0,1,1,2-2A2,2,0,0,1,531.78,537.52Z"/></g><g class="s2d-b2d3-1_30"><path class="s2d-b2d3-1_11" d="M762.72,542.64a1.33,1.33,0,1,1,1.32-1.32A1.32,1.32,0,0,1,762.72,542.64Z"/><path class="s2d-b2d3-1_11" d="M744.77,551.54a1.24,1.24,0,1,1,1.24-1.23A1.23,1.23,0,0,1,744.77,551.54Z"/><circle class="s2d-b2d3-1_11" cx="692.85" cy="542.98" r="0.98"/><path class="s2d-b2d3-1_11" d="M763.29,527a1.06,1.06,0,1,1,1.06-1.06A1.06,1.06,0,0,1,763.29,527Z"/><path class="s2d-b2d3-1_11" d="M744.13,533.23a1.4,1.4,0,1,1,0-2.79,1.4,1.4,0,0,1,0,2.79Z"/><path class="s2d-b2d3-1_11" d="M724.27,536.29a1.77,1.77,0,1,1,1.77-1.77A1.76,1.76,0,0,1,724.27,536.29Z"/><path class="s2d-b2d3-1_11" d="M704.46,533.9a2.09,2.09,0,1,1,2.09-2.09A2.09,2.09,0,0,1,704.46,533.9Z"/><path class="s2d-b2d3-1_11" d="M686.7,524.32a1.84,1.84,0,1,1,1.83-1.84A1.84,1.84,0,0,1,686.7,524.32Z"/><path class="s2d-b2d3-1_11" d="M673.41,508.62a.74.74,0,1,1,.74-.74A.74.74,0,0,1,673.41,508.62Z"/></g><polygon class="s2d-b2d3-1_15" points="600.75 421.89 602.52 437.59 600.59 437.86 597.77 422.36 600.75 421.89"/><path class="s2d-b2d3-1_15" d="M573.93,329.53a20.87,20.87,0,0,1,1.63,2.34c.48.76.94,1.54,1.35,2.32s.84,1.57,1.23,2.36.79,1.58,1.14,2.39l1.09,2.4,1,2.44c.69,1.61,1.27,3.27,1.89,4.9,2.38,6.58,4.39,13.27,6.2,20,.89,3.36,1.72,6.75,2.54,10.13s1.56,6.78,2.25,10.19,1.41,6.82,2,10.24l1.85,10.26-1.92.34-2-10.21c-.68-3.39-1.44-6.77-2.16-10.16s-1.59-6.74-2.37-10.11-1.73-6.7-2.65-10c-1.88-6.65-4-13.24-6.39-19.69-.63-1.6-1.21-3.22-1.91-4.79l-1-2.36-1.08-2.33c-.35-.78-.74-1.54-1.13-2.29s-.78-1.52-1.21-2.24-.84-1.47-1.29-2.17a21,21,0,0,0-1.36-1.92Z"/><path class="s2d-b2d3-1_18" d="M503.81,150.94s9.22-13,21.76,1.91"/><line class="s2d-b2d3-1_31" x1="417.25" y1="377.03" x2="469.83" y2="340.65"/><path class="s2d-b2d3-1_31" d="M239.05,328.78l94.39,75.38s14.35,17.11,42.82-.68l28.46-17.78"/><path class="s2d-b2d3-1_21" d="M506,522.21c-3-.15-6-1-9-1.29a24.07,24.07,0,0,0-13.38,2.65c-.46-2.25.85-4.45,2.16-6.34,3.38-4.87,8-10,13.94-9.75,4.33.16,7.88,3.63,12.13,4.49,10.89,2.19,13.85-2.51,17.36-3.39C528.19,519.67,511.23,522.49,506,522.21Z"/><path class="s2d-b2d3-1_21" d="M653.93,468c6.87.1,14,2.25,18.73,7.2,5.71,5.92,7.29,14.9,12.9,20.91A20.7,20.7,0,0,0,706,501.74a20.76,20.76,0,0,1,3.88-17.26c-5.62.17-11.51.06-16.46-2.61-7.82-4.22-11.33-13.72-18.48-19-6.33-4.69-15-5.49-22.56-3.24-6,1.77-12.38,5.47-16.37,10.28C640.73,471.41,648.63,467.9,653.93,468Z"/></g></svg>
