<svg id="Layer_1" data-name="Layer 1" xmlns="http://www.w3.org/2000/svg" xmlns:xlink="http://www.w3.org/1999/xlink" width="700" height="500" viewBox="340 170 700 750"><defs><style>.s2d-b2d4-3_1,.s2d-b2d4-3_10,.s2d-b2d4-3_13,.s2d-b2d4-3_14,.s2d-b2d4-3_15,.s2d-b2d4-3_17,.s2d-b2d4-3_19,.s2d-b2d4-3_20,.s2d-b2d4-3_21,.s2d-b2d4-3_22,.s2d-b2d4-3_23,.s2d-b2d4-3_24,.s2d-b2d4-3_26,.s2d-b2d4-3_29,.s2d-b2d4-3_3,.s2d-b2d4-3_30,.s2d-b2d4-3_33,.s2d-b2d4-3_34,.s2d-b2d4-3_35,.s2d-b2d4-3_36,.s2d-b2d4-3_38,.s2d-b2d4-3_39,.s2d-b2d4-3_40,.s2d-b2d4-3_41,.s2d-b2d4-3_42,.s2d-b2d4-3_43,.s2d-b2d4-3_44,.s2d-b2d4-3_45,.s2d-b2d4-3_50,.s2d-b2d4-3_51,.s2d-b2d4-3_9{fill:none;}.s2d-b2d4-3_2{fill:#357d74;}.s2d-b2d4-3_17,.s2d-b2d4-3_20,.s2d-b2d4-3_21,.s2d-b2d4-3_22,.s2d-b2d4-3_3,.s2d-b2d4-3_40,.s2d-b2d4-3_45{stroke:#fff;}.s2d-b2d4-3_13,.s2d-b2d4-3_14,.s2d-b2d4-3_15,.s2d-b2d4-3_17,.s2d-b2d4-3_19,.s2d-b2d4-3_23,.s2d-b2d4-3_24,.s2d-b2d4-3_25,.s2d-b2d4-3_29,.s2d-b2d4-3_3,.s2d-b2d4-3_33,.s2d-b2d4-3_34,.s2d-b2d4-3_35,.s2d-b2d4-3_36,.s2d-b2d4-3_37,.s2d-b2d4-3_38,.s2d-b2d4-3_40,.s2d-b2d4-3_41,.s2d-b2d4-3_42,.s2d-b2d4-3_44,.s2d-b2d4-3_45{stroke-miterlimit:10;}.s2d-b2d4-3_3{stroke-width:1.8px;}.s2d-b2d4-3_4{fill:#2e5f5a;}.s2d-b2d4-3_5{fill:#daa534;}.s2d-b2d4-3_6{fill:url(#s2d-b2d4-lg3);}.s2d-b2d4-3_7{clip-path:url(#s2d-b2d4-cp3);}.s2d-b2d4-3_8{fill:#fff;}.s2d-b2d4-3_10,.s2d-b2d4-3_19,.s2d-b2d4-3_26,.s2d-b2d4-3_39,.s2d-b2d4-3_42,.s2d-b2d4-3_43,.s2d-b2d4-3_44,.s2d-b2d4-3_9{stroke:#dba634;}.s2d-b2d4-3_10,.s2d-b2d4-3_20,.s2d-b2d4-3_21,.s2d-b2d4-3_22,.s2d-b2d4-3_26,.s2d-b2d4-3_30,.s2d-b2d4-3_39,.s2d-b2d4-3_43,.s2d-b2d4-3_50,.s2d-b2d4-3_51,.s2d-b2d4-3_9{stroke-linecap:round;stroke-linejoin:round;}.s2d-b2d4-3_10,.s2d-b2d4-3_26,.s2d-b2d4-3_9{stroke-width:1.71px;}.s2d-b2d4-3_10{stroke-dasharray:0 5.31;}.s2d-b2d4-3_11{fill:#dba634;}.s2d-b2d4-3_12,.s2d-b2d4-3_37{fill:#2f4862;}.s2d-b2d4-3_13,.s2d-b2d4-3_14,.s2d-b2d4-3_15,.s2d-b2d4-3_25{stroke:#5d9e9a;}.s2d-b2d4-3_13{stroke-width:0.68px;}.s2d-b2d4-3_14{stroke-width:0.72px;}.s2d-b2d4-3_15{stroke-width:0.68px;}.s2d-b2d4-3_16{fill:#c97475;}.s2d-b2d4-3_17{stroke-width:0.62px;}.s2d-b2d4-3_18,.s2d-b2d4-3_25{fill:#5d9e9a;}.s2d-b2d4-3_19,.s2d-b2d4-3_23{stroke-width:2.15px;}.s2d-b2d4-3_20,.s2d-b2d4-3_21,.s2d-b2d4-3_22{stroke-width:1.36px;}.s2d-b2d4-3_21{stroke-dasharray:0 6.43;}.s2d-b2d4-3_22{stroke-dasharray:0 5.65;}.s2d-b2d4-3_23,.s2d-b2d4-3_29,.s2d-b2d4-3_36,.s2d-b2d4-3_37,.s2d-b2d4-3_38{stroke:#2f4862;}.s2d-b2d4-3_24{stroke:#c97475;}.s2d-b2d4-3_24,.s2d-b2d4-3_25{stroke-width:0.72px;}.s2d-b2d4-3_26{stroke-dasharray:0 5.31;}.s2d-b2d4-3_27{clip-path:url(#s2d-b2d4-cp3_2);}.s2d-b2d4-3_28{clip-path:url(#s2d-b2d4-cp3_3);}.s2d-b2d4-3_29{stroke-width:1.64px;}.s2d-b2d4-3_30{stroke:#daa04a;stroke-width:3.66px;}.s2d-b2d4-3_31{fill:#5d9c98;}.s2d-b2d4-3_32{fill:#d9a434;}.s2d-b2d4-3_33{stroke:#d9a434;stroke-width:1.67px;}.s2d-b2d4-3_34,.s2d-b2d4-3_35{stroke:#5d9c98;}.s2d-b2d4-3_34{stroke-width:1.08px;}.s2d-b2d4-3_35{stroke-width:1.26px;}.s2d-b2d4-3_36{stroke-width:1.29px;}.s2d-b2d4-3_37{stroke-width:1.6px;}.s2d-b2d4-3_38{stroke-width:0.96px;}.s2d-b2d4-3_39{stroke-width:2.01px;}.s2d-b2d4-3_40{stroke-width:1.03px;}.s2d-b2d4-3_41{stroke:#1472a1;stroke-width:1.47px;}.s2d-b2d4-3_42{stroke-width:2.3px;}.s2d-b2d4-3_43{stroke-width:1.96px;}.s2d-b2d4-3_44,.s2d-b2d4-3_45{stroke-width:0.84px;}.s2d-b2d4-3_46{clip-path:url(#s2d-b2d4-cp3_4);}.s2d-b2d4-3_47{opacity:0.3;fill:url(#s2d-b2d4-lg3_2);}.s2d-b2d4-3_48{fill:#919a51;}.s2d-b2d4-3_49{fill:#d7a234;}.s2d-b2d4-3_50,.s2d-b2d4-3_51{stroke:#357d74;stroke-width:8.39px;}.s2d-b2d4-3_50{stroke-dasharray:0 36.19;}</style><linearGradient id="s2d-b2d4-lg3" x1="765.92" y1="824.78" x2="765.92" y2="885.86" gradientUnits="userSpaceOnUse"><stop offset="0.23" stop-color="#b66f1e" stop-opacity="0"/><stop offset="1" stop-color="#b66f1e" stop-opacity="0.8"/></linearGradient><clipPath id="s2d-b2d4-cp3"><path class="s2d-b2d4-3_1" d="M1258,631.69c0-12.22,18.16-32.91,13.5-43.69l-71.11-424.82H903c-113.32,0-205.18,91.87-205.18,205.19v188c-8.67.14-19.12.24-34.07.24-49.76,0-49.76-21.35-99.52-21.35s-49.76,19.29-99.52,19.29-49.76-9.74-99.52-9.74-49.76,2-99.51,2-49.76,3.74-99.52,3.74c-26.58,0-58.29,17.8-58.29,46.82-3.47,64.23,7.42,64.95,3.17,129.12s3.79,64.67.27,128.89c0,27,26.76,48.09,51.48,48.09,49.93,0,49.93,9.77,99.86,9.77s49.93-2.5,99.87-2.5,49.92-14.2,99.85-14.2,49.93,6.88,99.86,6.88S612.18,910,662.1,910,712,914.21,762,914.21s49.93-6.54,99.85-6.54,42.35-14.56,92.28-14.56,57.5,4.14,107.43,4.14,49.93-5.56,99.85-5.56c29.32,0,55.17-14.1,55.17-46.11,0-60.55,1.49-60.55,1.49-121.09S1258,692.24,1258,631.69Z"/></clipPath><clipPath id="s2d-b2d4-cp3_2"><path class="s2d-b2d4-3_1" d="M913.82,761.17c-33.73-18.07-50.19-4.11-96.41-21.23,23.33-8.83,42.12-.59,42.12-.59,3.88-2.27,4.72-7.48,4.62-12s-.62-9.38,1.85-13.13c1.89-2.87,5.17-4.46,8.29-5.92-11.75-3.3-24.32-1.48-36.19,1.37s-23.6,6.72-35.78,7.53c-11.23.74-27.83-.65-31.81-8.64-5.73-7.78-9.41-15.74-15-23.8-17.84-25.46-65.75-28.7-65.75-28.7-1.61,4-5.89,9.22-5.89,9.22s17.24-2.19,43,10.72,20.72,41.24,43.33,67.89,59.93,23.17,75.17,24.1,22.43,8,34.31,23.5,29.87-1.21,29.87-1.21A83.33,83.33,0,0,1,941.31,776C926.93,771,913.82,761.17,913.82,761.17Z"/></clipPath><clipPath id="s2d-b2d4-cp3_3"><path class="s2d-b2d4-3_1" d="M661.59,686.08c-5.8,9.41-10.75,19.76-19.35,26.71-13.22,10.68-34.12,10.31-47-.82-5.07-4.39-8.88-10.13-14.18-14.25a31,31,0,0,0-20.94-6.38c7.38-2.61,15.92-1.8,22.65-5.82,3.72-2.22,6.49-5.72,9.84-8.48s7.85-4.84,12-3.45c3.11,1,5.26,3.84,8,5.69,4.84,3.3,11.12,3.42,17,3.14a44.42,44.42,0,0,0,11.72-1.74c10.16-3.32,17.1-12.55,26.14-18.26,6.83-4.31,16.51-7.58,24.66-6.22-4.36,6-2.29,5.21-8.27,9.11C677.24,669.6,665.67,679.47,661.59,686.08Z"/></clipPath><clipPath id="s2d-b2d4-cp3_4"><path class="s2d-b2d4-3_1" d="M497.27,582.81c-45.89,0-45.89-8.92-91.78-8.92s-45.89,1.81-91.78,1.81-45.89,3.43-91.78,3.43c-24.51,0-53.76,16.3-53.76,42.87-3.2,58.82,6.84,59.48,2.92,118.25s3.5,59.23.25,118c0,24.72,24.69,44,47.48,44,46.05,0,46.05,8.95,92.1,8.95S357,909,403,909s46.05-13,92.1-13,46,6.3,92.09,6.3h.3V577.5C543.4,577.64,542.56,582.81,497.27,582.81Z"/></clipPath><linearGradient id="s2d-b2d4-lg3_2" x1="278.38" y1="443.59" x2="234.38" y2="458.59" gradientTransform="matrix(0.94, 0.37, -0.33, 1.07, 403.5, 163.52)" xlink:href="#s2d-b2d4-lg3"/></defs><title>12</title><line class="s2d-b2d4-3_3" x1="893.42" y1="339.41" x2="893.42" y2="443.49"/><line class="s2d-b2d4-3_3" x1="945.46" y1="391.45" x2="841.38" y2="391.45"/><line class="s2d-b2d4-3_3" x1="930.22" y1="354.65" x2="856.62" y2="428.25"/><line class="s2d-b2d4-3_3" x1="930.22" y1="428.25" x2="856.62" y2="354.65"/><line class="s2d-b2d4-3_3" x1="910.68" y1="351.67" x2="876.16" y2="431.23"/><line class="s2d-b2d4-3_3" x1="933.2" y1="408.71" x2="853.64" y2="374.19"/><line class="s2d-b2d4-3_3" x1="933.76" y1="375.53" x2="853.09" y2="407.37"/><line class="s2d-b2d4-3_3" x1="909.34" y1="431.78" x2="877.5" y2="351.11"/><circle class="s2d-b2d4-3_4" cx="893.42" cy="390.11" r="35.78"/><path class="s2d-b2d4-3_5" d="M1139.78,891.59c-46,0-46,5.09-92.1,5.09s-46-4.74-92.09-4.74-46.05,14.28-92.09,14.28-46,6-92.1,6-46-3.89-92.09-3.89-46-6-92.1-6-46-6.3-92.09-6.3-46.05,13-92.1,13-46,2.29-92.1,2.29-46.05-8.95-92.1-8.95c-22.79,0-47.48-19.32-47.48-44,3.25-58.82-4.18-59.28-.25-118S165,680.82,168.17,622c0-26.57,29.25-42.87,53.76-42.87,45.89,0,45.89-3.43,91.78-3.43s45.89-1.81,91.78-1.81,45.89,8.92,91.78,8.92,46.14-5.31,92-5.31,45.65,7.2,91.54,7.2,45.9-1,91.79-1,45.89-17.21,91.78-17.21,45.89-1.94,91.79-1.94,45.89,4.89,91.79,4.89,45.89-2.21,91.79-2.21c27,0,42.52,31.06,42.52,60.37,0,55.45,9.73,55.45,9.73,110.9s-1.37,55.45-1.37,110.9C1190.66,878.67,1166.81,891.59,1139.78,891.59Z"/><ellipse class="s2d-b2d4-3_6" cx="765.92" cy="859.07" rx="213.5" ry="26.71"/><g class="s2d-b2d4-3_7"><path class="s2d-b2d4-3_8" d="M978.89,557.48,910.59,610a8.89,8.89,0,0,1-10,.58c-17.11-10.3-71.3-42.92-83.6-50.35-7.57-4.57-16.77-6.46-23.9-7.22h0a83.19,83.19,0,0,0-10.38-.48l-28-1.28c-20.55-.58-27.66,30-27.66,30l-1.26,15.44c-1.94,3.74-.71,8.48,1.9,11.79s6.35,5.47,10,7.57c6.89,4,14,8,21.74,9.53,7.13,1.43,14.52.73,21.72-.32,8.82-1.28-17.9-31.55-9.3-33.87,6.1-1.63,8.06,2,9.84-4.1,1.27-4.29,39.86,13.31,38.08,9.2l-.07-.16,76.77,42.43A17.49,17.49,0,0,0,917,636l69.84-66.95Z"/><line class="s2d-b2d4-3_9" x1="845.29" y1="579.56" x2="845.29" y2="579.56"/><path class="s2d-b2d4-3_10" d="M840.73,582.27c-6.13,4.84-7.94,12.16-8.48,16"/><line class="s2d-b2d4-3_9" x1="832.02" y1="600.95" x2="832.02" y2="600.95"/><path class="s2d-b2d4-3_11" d="M838.94,606.75c0-.67,1.11-18.21,15.41-24.39L850,580c-13.24,6.52-15.12,20.1-15.38,24.61"/><circle class="s2d-b2d4-3_12" cx="745.84" cy="503.68" r="36.6" transform="translate(-137.71 674.91) rotate(-45)"/><circle class="s2d-b2d4-3_12" cx="758.86" cy="457.71" r="25.76" transform="translate(-60.54 795.29) rotate(-53.49)"/><circle class="s2d-b2d4-3_12" cx="806.58" cy="434.48" r="36.6" transform="translate(-70.98 697.6) rotate(-45)"/><path class="s2d-b2d4-3_13" d="M726.93,493.06a26.29,26.29,0,0,0,.74,5.06q.29,1.14.66,2.25c.15.42.3.83.47,1.24a25.39,25.39,0,0,0,1.16,2.48"/><path class="s2d-b2d4-3_13" d="M739.74,469.53a26.13,26.13,0,0,0-11.89,15.3"/><path class="s2d-b2d4-3_13" d="M744.3,496.85a13.19,13.19,0,0,0,3,2.5"/><path class="s2d-b2d4-3_13" d="M744.29,474.94a19.07,19.07,0,0,0-3.88,13,15.91,15.91,0,0,0,1.43,5.22"/><path class="s2d-b2d4-3_13" d="M755,479.52a15,15,0,0,0,9.77,21s8.42,2.45,14.51.88"/><path class="s2d-b2d4-3_13" d="M762,478.55a7.21,7.21,0,0,0,1.43,6,21.05,21.05,0,0,0,4.75,4.27"/><path class="s2d-b2d4-3_14" d="M763.4,468.1c-3.83-1.28-7.72-2.61-10.95-5.11a14.62,14.62,0,0,1-5.93-10.88c-.13-4.48,2.74-9.35,6.77-10.21"/><path class="s2d-b2d4-3_14" d="M763.15,460.55c-2.14.06-3.89-1.56-5.32-3.21-2-2.34-3.91-5.44-3.14-8.71a7.59,7.59,0,0,1,3.42-4.55,11.48,11.48,0,0,1,5.21-1.51,7.53,7.53,0,0,1,3.14.3c1.87.69,3.15,2.52,4.31,4.25"/><path class="s2d-b2d4-3_8" d="M978.68,559.3l-76.44,39.76a8.9,8.9,0,0,1-10-1.19c-15-13.14-62.69-54.74-73.49-64.21-6.66-5.83-15.38-9.3-22.26-11.3h0a85.33,85.33,0,0,0-10.14-2.29l-27.34-6.17c-20.13-4.16-32.47,24.66-32.47,24.66l-4,15c-2.57,3.34-2.19,8.23-.2,11.94s5.29,6.5,8.52,9.2c6.1,5.1,12.34,10.28,19.74,13.19,6.77,2.66,14.16,3.27,21.44,3.5a226.76,226.76,0,0,0,26.71-.74c6.29-.55,13.55-2,16.37-7.66,2-4,1-8.8,0-13.17l0-.16,68.15,55.22a17.51,17.51,0,0,0,20.73,1l80.49-53.68Z"/><path class="s2d-b2d4-3_8" d="M977.64,558.57c1.75-1.06,1.22-3.74,1.64-5.74s3.41-2.76,3.47-4.8c.12-3.9,1.76-10.87,3.37-16a1.07,1.07,0,0,1,2.07.16,146.34,146.34,0,0,1,1.7,25.56,41.51,41.51,0,0,1-1,7.61c-.59,2.78-.93,4.84-6.35,7.94"/><path class="s2d-b2d4-3_8" d="M843.48,425.37l9.84,21.76s5.43,70.64-27.61,73.19c-9.37.72-49.14-28.13-49.14-28.13s-6.73-5.77-8-13.46l-4.75-17.41.74-9.83,7.44-5.16,8-4.1,13.58-9.74Z"/><path class="s2d-b2d4-3_8" d="M843.48,425.37l9.84,21.76s5.43,70.64-27.61,73.19c-9.37.72-49.14-28.13-49.14-28.13s-6.73-5.77-8-13.46l-4.75-17.41.74-9.83,7.44-5.16,8-4.1,13.58-9.74Z"/><path class="s2d-b2d4-3_12" d="M853,442.14s-5.85-37-41.46-43.92l-24,26S780,435.58,780,436.4s6,4.1,6,4.1l14.14-5.33,19.24-4.28,11.23,7.82,5.2,5.07Z"/><path class="s2d-b2d4-3_13" d="M784.82,415.36a17.27,17.27,0,0,0-3.51,4.52"/><path class="s2d-b2d4-3_13" d="M830.47,438.45c0-15.58-16.61-26.44-24.28-28.56a21.81,21.81,0,0,0-9.24-.82,20.07,20.07,0,0,0-4.73,1.44"/><path class="s2d-b2d4-3_15" d="M818.8,431.72c-7.34-11-16.52-13.47-21-13.22-5.15.28-13.15,4.19-17.47,11.69"/><path class="s2d-b2d4-3_13" d="M840.31,440.91c2.46-9-5.21-19.57-6.56-21.32C828,412.2,820,407.37,811.14,404.47"/><polygon class="s2d-b2d4-3_8" points="789.89 500.01 778.86 527.5 765.83 518.9 774.45 482.6 789.89 500.01"/><path class="s2d-b2d4-3_16" d="M820.33,587.72c-.58-6.54-1.34-13.56-5.68-18.48L800.38,561a170,170,0,0,0-16.77-8.48,4.51,4.51,0,0,1-2.15-6.34c4.56-8.12,11.74-18.46,20.22-22.15l-5.15-1.68s-10.6,2.89-23.12,26.09a171.33,171.33,0,0,0-21.87-6.33,4.65,4.65,0,0,1-3-6.87c4.66-8,11-16.6,18.21-19.61l-6.28-1.42s-9,3.63-21.18,25.69c-4.21-.6-8.44-1.07-12.7-1.35h0c-3.2,6.44-10.12,20.85-13.51,30-13.59,36.41-15,72.92-25.19,91.25l72.5,32.68-.38-1.21a47.67,47.67,0,0,1,8.07-43.65,102.4,102.4,0,0,1,7.42-8.29c10.59-10.74,23.38-19,35.68-27.73a26.15,26.15,0,0,0,6.65-6C821.29,600.47,820.88,593.82,820.33,587.72Z"/><path class="s2d-b2d4-3_12" d="M800.65,449.11a16.55,16.55,0,0,1,4.66-1.95,18.7,18.7,0,0,1,5-.67,17.56,17.56,0,0,1,5,.75,19.73,19.73,0,0,1,2.34.83,14.24,14.24,0,0,1,2.23,1.15c.69.43,1.36.88,2,1.35a17.06,17.06,0,0,1,2,1.53,14.06,14.06,0,0,1,2.93,4.07,35.79,35.79,0,0,1,2.64,9.36l-1.17.22a34.92,34.92,0,0,0-2.69-9,12.21,12.21,0,0,0-2.69-3.61,16.37,16.37,0,0,0-1.82-1.38c-.66-.44-1.32-.87-2-1.27a11.25,11.25,0,0,0-2-1,19.29,19.29,0,0,0-2.18-.74,16,16,0,0,0-4.5-.6,17.21,17.21,0,0,0-4.49.69,14.36,14.36,0,0,0-4.11,1.79Z"/><path class="s2d-b2d4-3_12" d="M847.67,456.45a8.56,8.56,0,0,0-7.13-.76,8.09,8.09,0,0,0-3.13,1.92,11.55,11.55,0,0,0-2.14,3.14,23.67,23.67,0,0,0-1.49,15.5,24.76,24.76,0,0,0,3,7.33c.33.58.74,1.1,1.11,1.65s.84,1,1.26,1.54.91,1,1.4,1.43A5.94,5.94,0,0,1,842,490a2.69,2.69,0,0,1-.21,2.59,4.47,4.47,0,0,1-1.83,1.52,9,9,0,0,1-2.09.7c-.68.15-1.37.29-2.06.39a25.35,25.35,0,0,1-8.38-.15l.22-1.18a23.9,23.9,0,0,0,8,.07,14.62,14.62,0,0,0,3.76-1,3.14,3.14,0,0,0,1.29-1.06,1.3,1.3,0,0,0,.09-1.32,4.7,4.7,0,0,0-1.12-1.37c-.5-.47-1-1-1.48-1.49s-.92-1.07-1.36-1.62-.84-1.14-1.2-1.74a26.34,26.34,0,0,1-3.29-7.74A25.23,25.23,0,0,1,833.75,460a13.3,13.3,0,0,1,2.43-3.62A9.79,9.79,0,0,1,840,454a10.32,10.32,0,0,1,8.68.86Z"/><path class="s2d-b2d4-3_12" d="M814.23,495.38l.21-.16a.79.79,0,0,1,.8,0l.1.06.2.13.4.25.81.49,1.65.95c1.1.62,2.22,1.21,3.35,1.76a36,36,0,0,0,3.46,1.48,14.7,14.7,0,0,0,3.52.9l.74.06-.09.75-.67,5.56-.11.9-.86-.26a22.73,22.73,0,0,1-4.39-1.84,23.53,23.53,0,0,1-3.9-2.69,18.69,18.69,0,0,1-3.25-3.51l-.68-1-.58-1.05c-.1-.19-.19-.33-.3-.56a4.53,4.53,0,0,1-.3-.9A5.05,5.05,0,0,1,814.23,495.38Zm.9.82.25.22a1.94,1.94,0,0,0,.79.33.21.21,0,0,1,.14.16c.05.11.16.3.24.45l.51,1,.6.9a17.18,17.18,0,0,0,2.9,3.25,22.13,22.13,0,0,0,3.58,2.55,21.21,21.21,0,0,0,4,1.77l-1,.65.76-5.54.65.81a15.75,15.75,0,0,1-3.87-1c-1.22-.47-2.4-1-3.55-1.6s-2.29-1.2-3.4-1.86l-1.65-1-.82-.51-.41-.26-.2-.14-.1-.06C814.68,496.36,815,496.33,815.13,496.2Z"/><path class="s2d-b2d4-3_12" d="M822.75,471.48a26.23,26.23,0,0,0-3.7-4.35,24.66,24.66,0,0,0-4.57-3.4,17.38,17.38,0,0,0-5.2-2l-1.36-.25-1.38-.07c-.23,0-.46,0-.69,0l-.69,0-1.38.1-.31-2.77,1.6-.05.81,0c.26,0,.53.05.8.07l1.6.15,1.56.34a20,20,0,0,1,5.82,2.47,26.22,26.22,0,0,1,4.85,3.91,27.48,27.48,0,0,1,3.83,4.89Z"/><path class="s2d-b2d4-3_12" d="M849.65,467.34l-1.61.22c-.52.11-1,.22-1.56.35a12.85,12.85,0,0,0-2.92,1.18,8.66,8.66,0,0,0-2.37,1.92,6.64,6.64,0,0,0-.85,1.24,5.7,5.7,0,0,0-.51,1.3l-1.83-.23a6.94,6.94,0,0,1,.61-1.93,8.61,8.61,0,0,1,1-1.64,11,11,0,0,1,2.82-2.53,15.47,15.47,0,0,1,3.36-1.55c.59-.18,1.18-.33,1.77-.49l1.78-.32Z"/><circle class="s2d-b2d4-3_11" cx="802.5" cy="485.15" r="10.69"/><path class="s2d-b2d4-3_17" d="M787.76,456.16s-8.88-11.26-17.07-6.18,2.57,19.18,5.88,21.85"/><path class="s2d-b2d4-3_11" d="M778.12,478.25c-5.39,4.34-27.16,7.16-42.78-9.16s2.83-29.08,8.94-21.64c4.14,5.05,2.88,9-.57,10.7,0,0-5,3.54-8.23-2.28,0,0,.37,4.65,7.48,9.38s14.43,6,19.78,3.7c0,0-7.8-7.44-5.17-14.71s4.23-10.78-1.14-15c0,0,8.39,1,10.11,5.35,0,0,15.29-5.07-4.52-22.73,0,0,28.45,8.44,28.22,32.05C790.24,453.91,789.83,468.83,778.12,478.25Z"/><circle class="s2d-b2d4-3_11" cx="740.18" cy="452.42" r="7.09"/><path class="s2d-b2d4-3_18" d="M661.59,686.08c-5.8,9.41-10.75,19.76-19.35,26.71-13.22,10.68-34.12,10.31-47-.82-5.07-4.39-8.88-10.13-14.18-14.25a31,31,0,0,0-20.94-6.38c7.38-2.61,15.92-1.8,22.65-5.82,3.72-2.22,6.49-5.72,9.84-8.48s7.85-4.84,12-3.45c3.11,1,5.26,3.84,8,5.69,4.84,3.3,11.12,3.42,17,3.14a44.42,44.42,0,0,0,11.72-1.74c10.16-3.32,17.1-12.55,26.14-18.26,6.83-4.31,16.51-7.58,24.66-6.22-4.36,6-2.29,5.21-8.27,9.11C677.24,669.6,665.67,679.47,661.59,686.08Z"/><path class="s2d-b2d4-3_11" d="M788.39,443.73s28.29-19.36,47.18,3.69c0,0,4.83-8.65,17.75-.29l-.58-5.68s-8.25-6.69-16.45-2.07c0,0-18.81-20-50.86-1.06Z"/><path class="s2d-b2d4-3_16" d="M788.39,443.73s28.29-19.36,47.18,3.69c0,0,4.83-8.65,17.75-.29l-.58-5.68s-8.25-6.69-16.45-2.07c0,0-18.81-20-50.86-1.06Z"/><path class="s2d-b2d4-3_8" d="M739.82,801.09s-60.36-13.17-81.46-23.19c-13.13-6.25-22.46-6.53-25.2,7.15s.16,16.52-.36,35.57c-.78,28.24-8.94,27.31-3.61,36.65,1.87,3.29,8,4.49,11.87,5.1,0,0,21,1.78,17.64-6.32a6.17,6.17,0,0,0-5.13-3.67c-4-.43-9.58-.85-9.51-6.72.1-8.14,5-39.92,13.32-37.18,12.9,4.24,88.17,20.76,88.17,20.76L731.63,813Z"/><path class="s2d-b2d4-3_12" d="M755.46,684.79c-.56,17.07,30.48,46.44,49.31,61.59s84.34,69.11,96.05,83.54,5.55,27.65,4.21,33.3-15.59,7.56-15.59,7.56c-20.74,2.43-86.84-2.56-116.17-5.21-45.79-4.15-83,3.24-83,3.24s24.68-47.23,20-74.74c-.77-4.49-15.94-12.8-15.94-12.8a79.7,79.7,0,0,1-39.12-36.68c-10-22.19,11.38-55.64,11.38-55.64l21.35-29.19Z"/><path class="s2d-b2d4-3_18" d="M913.82,761.17c-33.73-18.07-50.19-4.11-96.41-21.23,23.33-8.83,42.12-.59,42.12-.59,3.88-2.27,4.72-7.48,4.62-12s-.62-9.38,1.85-13.13c1.89-2.87,5.17-4.46,8.29-5.92-11.75-3.3-24.32-1.48-36.19,1.37s-23.6,6.72-35.78,7.53c-11.23.74-26.89,0-31.81-8.64-5.73-7.78-9.41-15.74-15-23.8-17.84-25.46-65.75-28.7-65.75-28.7-1.61,4-5.89,9.22-5.89,9.22s17.24-2.19,43,10.72,20.72,41.24,43.33,67.89,59.93,23.17,75.17,24.1,22.43,8,34.31,23.5,29.87-1.21,29.87-1.21A83.33,83.33,0,0,1,941.31,776C926.93,771,913.82,761.17,913.82,761.17Z"/><path class="s2d-b2d4-3_11" d="M736.17,798.87c23.52,5.57,47,11.44,70.26,18,11.63,3.3,23.22,6.75,34.67,10.69,5.72,2,11.41,4.08,17,6.53a73.44,73.44,0,0,1,8.16,4.13A23,23,0,0,1,870,841a8.16,8.16,0,0,1,1.57,1.9,3.32,3.32,0,0,1,.38,2.74l-1.32-.44c.36-1-.58-2.23-1.6-3.17a22,22,0,0,0-3.55-2.55,71.35,71.35,0,0,0-8-4c-5.51-2.39-11.18-4.45-16.88-6.39-11.42-3.87-23-7.25-34.64-10.49-23.27-6.42-46.74-12.16-70.27-17.61Z"/><path class="s2d-b2d4-3_19" d="M718.61,796c2.58.58,6.76,1.51,12.12,2.74"/><line class="s2d-b2d4-3_20" x1="788.3" y1="439.96" x2="788.3" y2="439.96"/><path class="s2d-b2d4-3_21" d="M794.13,437.27c8.84-3.46,26-7.74,39.58,3.77"/><line class="s2d-b2d4-3_20" x1="836.06" y1="443.23" x2="836.06" y2="443.23"/><path class="s2d-b2d4-3_22" d="M841,440.74a14.72,14.72,0,0,1,8.16,1.78"/><line class="s2d-b2d4-3_20" x1="851.62" y1="443.88" x2="851.62" y2="443.88"/><path class="s2d-b2d4-3_12" d="M818.83,741.6a108.94,108.94,0,0,1-10.3-3.77c-3.36-1.41-6.65-3-9.86-4.71a91.94,91.94,0,0,1-9.33-5.7,76.86,76.86,0,0,1-8.51-6.88l1-1a73.94,73.94,0,0,0,8.45,6.59,92,92,0,0,0,9.26,5.44c3.18,1.63,6.45,3.13,9.77,4.46a102.84,102.84,0,0,0,10.13,3.5Z"/><line class="s2d-b2d4-3_23" x1="683.82" y1="665.31" x2="689.71" y2="656.09"/><ellipse class="s2d-b2d4-3_24" cx="731.5" cy="826.75" rx="6.05" ry="1.68" transform="translate(-102.92 1549.49) rotate(-89.4)"/><ellipse class="s2d-b2d4-3_24" cx="731.31" cy="844.75" rx="6.05" ry="1.68" transform="translate(-121.11 1567.11) rotate(-89.4)"/><ellipse class="s2d-b2d4-3_24" cx="740.4" cy="835.84" rx="1.68" ry="6.05" transform="translate(-103.21 1567.39) rotate(-89.4)"/><ellipse class="s2d-b2d4-3_24" cx="722.41" cy="835.66" rx="1.68" ry="6.05" transform="translate(-120.82 1549.21) rotate(-89.4)"/><ellipse class="s2d-b2d4-3_24" cx="836.27" cy="841.2" rx="6.05" ry="1.68" transform="translate(-13.7 1668.54) rotate(-89.4)"/><ellipse class="s2d-b2d4-3_24" cx="836.08" cy="859.19" rx="6.05" ry="1.68" transform="translate(-31.89 1686.16) rotate(-89.4)"/><ellipse class="s2d-b2d4-3_24" cx="845.17" cy="850.29" rx="1.68" ry="6.05" transform="translate(-13.99 1686.44) rotate(-89.4)"/><ellipse class="s2d-b2d4-3_24" cx="827.17" cy="850.1" rx="1.68" ry="6.05" transform="translate(-31.6 1668.26) rotate(-89.4)"/><ellipse class="s2d-b2d4-3_24" cx="729.76" cy="719.64" rx="4.31" ry="1.2" transform="translate(2.46 1441.77) rotate(-89.4)"/><ellipse class="s2d-b2d4-3_24" cx="729.62" cy="732.48" rx="4.31" ry="1.2" transform="translate(-10.52 1454.34) rotate(-89.4)"/><ellipse class="s2d-b2d4-3_24" cx="736.11" cy="726.13" rx="1.2" ry="4.31" transform="translate(2.26 1454.54) rotate(-89.4)"/><ellipse class="s2d-b2d4-3_24" cx="723.27" cy="725.99" rx="1.2" ry="4.31" transform="translate(-10.32 1441.56) rotate(-89.4)"/><ellipse class="s2d-b2d4-3_24" cx="675.74" cy="728.74" rx="3.71" ry="1.03" transform="translate(-60.08 1396.75) rotate(-89.4)"/><ellipse class="s2d-b2d4-3_24" cx="675.63" cy="739.78" rx="3.71" ry="1.03" transform="translate(-71.24 1407.57) rotate(-89.4)"/><ellipse class="s2d-b2d4-3_24" cx="681.21" cy="734.32" rx="1.03" ry="3.71" transform="matrix(0.01, -1, 1, 0.01, -60.26, 1407.74)"/><ellipse class="s2d-b2d4-3_24" cx="670.16" cy="734.2" rx="1.03" ry="3.71" transform="translate(-71.07 1396.58) rotate(-89.4)"/><ellipse class="s2d-b2d4-3_24" cx="888.36" cy="843.29" rx="2.92" ry="0.81" transform="translate(35.75 1722.71) rotate(-89.4)"/><ellipse class="s2d-b2d4-3_24" cx="888.27" cy="851.96" rx="2.92" ry="0.81" transform="translate(26.99 1731.2) rotate(-89.4)"/><ellipse class="s2d-b2d4-3_24" cx="892.66" cy="847.67" rx="0.81" ry="2.92" transform="translate(35.62 1731.34) rotate(-89.4)"/><ellipse class="s2d-b2d4-3_24" cx="883.98" cy="847.58" rx="0.81" ry="2.92" transform="matrix(0.01, -1, 1, 0.01, 27.12, 1722.57)"/><ellipse class="s2d-b2d4-3_24" cx="772.6" cy="775.14" rx="4.31" ry="1.2" transform="translate(-10.65 1539.52) rotate(-89.4)"/><ellipse class="s2d-b2d4-3_24" cx="772.46" cy="787.99" rx="4.31" ry="1.2" transform="matrix(0.01, -1, 1, 0.01, -23.63, 1552.1)"/><ellipse class="s2d-b2d4-3_24" cx="778.95" cy="781.63" rx="1.2" ry="4.31" transform="translate(-10.85 1552.3) rotate(-89.4)"/><ellipse class="s2d-b2d4-3_24" cx="766.11" cy="781.5" rx="1.2" ry="4.31" transform="translate(-23.43 1539.32) rotate(-89.4)"/><ellipse class="s2d-b2d4-3_25" cx="692.18" cy="692.75" rx="6.05" ry="1.68" transform="translate(-7.83 1377.58) rotate(-89.4)"/><ellipse class="s2d-b2d4-3_25" cx="691.99" cy="710.74" rx="6.05" ry="1.68" transform="matrix(0.01, -1, 1, 0.01, -26.01, 1395.2)"/><ellipse class="s2d-b2d4-3_25" cx="701.08" cy="701.84" rx="1.68" ry="6.05" transform="translate(-8.11 1395.48) rotate(-89.4)"/><ellipse class="s2d-b2d4-3_25" cx="683.09" cy="701.65" rx="1.68" ry="6.05" transform="translate(-25.73 1377.3) rotate(-89.4)"/><ellipse class="s2d-b2d4-3_25" cx="712.1" cy="754.53" rx="6.05" ry="1.68" transform="translate(-49.9 1458.63) rotate(-89.4)"/><ellipse class="s2d-b2d4-3_25" cx="711.91" cy="772.53" rx="6.05" ry="1.68" transform="matrix(0.01, -1, 1, 0.01, -68.09, 1476.25)"/><ellipse class="s2d-b2d4-3_25" cx="721" cy="763.62" rx="1.68" ry="6.05" transform="matrix(0.01, -1, 1, 0.01, -50.19, 1476.53)"/><ellipse class="s2d-b2d4-3_25" cx="703.01" cy="763.44" rx="1.68" ry="6.05" transform="translate(-67.8 1458.35) rotate(-89.4)"/><ellipse class="s2d-b2d4-3_25" cx="813.89" cy="783.44" rx="6.05" ry="1.68" transform="translate(21.91 1589.02) rotate(-89.4)"/><ellipse class="s2d-b2d4-3_25" cx="813.7" cy="801.43" rx="6.05" ry="1.68" transform="translate(3.73 1606.63) rotate(-89.4)"/><ellipse class="s2d-b2d4-3_25" cx="822.79" cy="792.53" rx="1.68" ry="6.05" transform="matrix(0.01, -1, 1, 0.01, 21.63, 1606.92)"/><ellipse class="s2d-b2d4-3_25" cx="804.8" cy="792.34" rx="1.68" ry="6.05" transform="translate(4.01 1588.73) rotate(-89.4)"/><ellipse class="s2d-b2d4-3_25" cx="849.91" cy="801.96" rx="4.31" ry="1.2" transform="translate(39.03 1643.36) rotate(-89.4)"/><ellipse class="s2d-b2d4-3_25" cx="849.78" cy="814.8" rx="4.31" ry="1.2" transform="translate(26.06 1655.93) rotate(-89.4)"/><ellipse class="s2d-b2d4-3_25" cx="856.27" cy="808.45" rx="1.2" ry="4.31" transform="translate(38.83 1656.14) rotate(-89.4)"/><ellipse class="s2d-b2d4-3_25" cx="843.42" cy="808.31" rx="1.2" ry="4.31" transform="translate(26.26 1643.16) rotate(-89.4)"/><ellipse class="s2d-b2d4-3_25" cx="752.96" cy="750.78" rx="2.92" ry="0.81" transform="matrix(0.01, -1, 1, 0.01, -5.73, 1495.78)"/><ellipse class="s2d-b2d4-3_25" cx="752.87" cy="759.46" rx="2.92" ry="0.81" transform="translate(-14.49 1504.27) rotate(-89.4)"/><ellipse class="s2d-b2d4-3_25" cx="757.25" cy="755.17" rx="0.81" ry="2.92" transform="translate(-5.86 1504.41) rotate(-89.4)"/><ellipse class="s2d-b2d4-3_25" cx="748.57" cy="755.08" rx="0.81" ry="2.92" transform="matrix(0.01, -1, 1, 0.01, -14.36, 1495.64)"/><ellipse class="s2d-b2d4-3_25" cx="770.66" cy="846.6" rx="2.92" ry="0.81" transform="translate(-84.01 1608.29) rotate(-89.4)"/><ellipse class="s2d-b2d4-3_25" cx="770.57" cy="855.27" rx="2.92" ry="0.81" transform="translate(-92.78 1616.78) rotate(-89.4)"/><ellipse class="s2d-b2d4-3_25" cx="774.96" cy="850.98" rx="0.81" ry="2.92" transform="translate(-84.15 1616.92) rotate(-89.4)"/><ellipse class="s2d-b2d4-3_25" cx="766.28" cy="850.89" rx="0.81" ry="2.92" transform="translate(-92.65 1608.15) rotate(-89.4)"/><ellipse class="s2d-b2d4-3_25" cx="797.97" cy="827.58" rx="4.31" ry="1.2" transform="translate(-37.98 1616.77) rotate(-89.4)"/><ellipse class="s2d-b2d4-3_25" cx="797.83" cy="840.42" rx="4.31" ry="1.2" transform="translate(-50.96 1629.34) rotate(-89.4)"/><ellipse class="s2d-b2d4-3_25" cx="804.32" cy="834.07" rx="1.2" ry="4.31" transform="translate(-38.19 1629.55) rotate(-89.4)"/><ellipse class="s2d-b2d4-3_25" cx="791.48" cy="833.93" rx="1.2" ry="4.31" transform="translate(-50.76 1616.57) rotate(-89.4)"/><path class="s2d-b2d4-3_11" d="M758,680.91l.13,1.32c0-.18-5.45-19-44.22-27.78-.12,0-14.66-3.24-22.5-2.65l1.44-4.31c9,.55,16,1.49,28.49,5.3,23,7,33.56,18.94,36.5,24.76"/><polygon class="s2d-b2d4-3_12" points="776.71 495.33 771.85 511.93 770.69 511.62 774.92 494.85 776.71 495.33"/><path class="s2d-b2d4-3_8" d="M781.91,456.26h0a6,6,0,0,0-2.29-3,14.16,14.16,0,0,0-3.24-1.6,5.52,5.52,0,0,0-1.67-.45c-1.68-.07-3.07,1.45-3.86,3a11.6,11.6,0,0,0-1.05,6.54h0s0,.07,0,.17a9.8,9.8,0,0,0,.67,2.38c0,.09.08.17.12.26a13.58,13.58,0,0,0,4.41,5.93,2.2,2.2,0,0,0,3.2-.6C780.05,465.87,783.3,459.72,781.91,456.26Z"/><path class="s2d-b2d4-3_12" d="M774.78,465.62a11.84,11.84,0,0,1-2.77-7.44,7.59,7.59,0,0,1,.21-2.12,3.05,3.05,0,0,1,.57-1.14,2.35,2.35,0,0,1,1.25-.78,4.09,4.09,0,0,1,2.39.33,3.54,3.54,0,0,1,1.86,1.68l-1.68.77a1.72,1.72,0,0,0-.9-.83,2.57,2.57,0,0,0-1.31-.3c-.26,0-.48.25-.65.74a6.36,6.36,0,0,0-.22,1.66,10.59,10.59,0,0,0,2.17,6.68Z"/><path class="s2d-b2d4-3_1" d="M774.67,490.78c-3.39-3.13-7.86-4.8-12.23-6.32a29.76,29.76,0,0,0-9.06-2.08,17.76,17.76,0,0,0-13.28,6.07,23.9,23.9,0,0,0-5.67,13.69,18.56,18.56,0,0,0,1.86,10.72c3.17,5.68,9.82,8.27,16,10.43,1.55.55,3.22,1.1,4.8.66"/><line class="s2d-b2d4-3_9" x1="842.02" y1="556.48" x2="842.02" y2="556.48"/><path class="s2d-b2d4-3_26" d="M837,558.19c-7,3.46-10.29,10.24-11.63,13.93"/><line class="s2d-b2d4-3_9" x1="824.61" y1="574.66" x2="824.61" y2="574.66"/><path class="s2d-b2d4-3_11" d="M830.17,581.77c.13-.66,4.86-17.59,20.13-20.67l-3.72-3.25c-14.3,3.63-19,16.53-20.15,20.88"/><path class="s2d-b2d4-3_11" d="M976.62,577.41l-2.26,1.5c1-3.56.72-7.34-.68-9.42-2-3-7.68-4.61-6.32-4.31l1.94-1a8.72,8.72,0,0,1,6.15,4.12C977.23,570.91,977.82,573.2,976.62,577.41Z"/><circle class="s2d-b2d4-3_16" cx="776.42" cy="468.38" r="1.99"/><path class="s2d-b2d4-3_8" d="M734.08,459.86a.07.07,0,0,1-.07-.06.07.07,0,0,1,.07-.07.07.07,0,0,1,.06.07A.06.06,0,0,1,734.08,459.86Z"/><path class="s2d-b2d4-3_8" d="M738,465.53a.26.26,0,0,1,0-.51.26.26,0,1,1,0,.51Z"/><path class="s2d-b2d4-3_8" d="M743.06,470.24a.42.42,0,0,1,0-.84.42.42,0,0,1,0,.84Z"/><path class="s2d-b2d4-3_8" d="M748.91,473.76a.56.56,0,1,1,0-1.12.56.56,0,1,1,0,1.12Z"/><path class="s2d-b2d4-3_8" d="M755.38,475.9a.71.71,0,1,1,.71-.71A.71.71,0,0,1,755.38,475.9Z"/><path class="s2d-b2d4-3_8" d="M762.13,476.24a.5.5,0,1,1,.5-.5A.5.5,0,0,1,762.13,476.24Z"/><ellipse class="s2d-b2d4-3_19" cx="743.79" cy="779.63" rx="2.92" ry="0.81" transform="translate(-43.64 1515.15) rotate(-89.4)"/><ellipse class="s2d-b2d4-3_19" cx="717.84" cy="691.48" rx="2.92" ry="0.81" transform="translate(18.83 1401.98) rotate(-89.4)"/><ellipse class="s2d-b2d4-3_19" cx="871.71" cy="820.06" rx="2.92" ry="0.81" transform="translate(42.5 1683.07) rotate(-89.4)"/><ellipse class="s2d-b2d4-3_19" cx="795.59" cy="777.26" rx="0.81" ry="2.92" transform="translate(9.98 1564.6) rotate(-89.4)"/><ellipse class="s2d-b2d4-3_19" cx="704.31" cy="731.19" rx="0.81" ry="2.92" transform="translate(-34.27 1427.74) rotate(-89.4)"/><ellipse class="s2d-b2d4-3_19" cx="868.96" cy="857.03" rx="0.81" ry="2.92" transform="translate(2.81 1716.9) rotate(-89.4)"/><ellipse class="s2d-b2d4-3_19" cx="765.69" cy="823.64" rx="0.81" ry="2.92" transform="translate(-65.98 1580.6) rotate(-89.4)"/><g class="s2d-b2d4-3_27"><path class="s2d-b2d4-3_8" d="M913.74,806.08a.11.11,0,0,1-.11-.11.11.11,0,0,1,.22,0A.11.11,0,0,1,913.74,806.08Z"/><path class="s2d-b2d4-3_8" d="M902.24,797a.28.28,0,1,1,0-.55.28.28,0,1,1,0,.55Z"/><path class="s2d-b2d4-3_8" d="M892.11,786.49a.45.45,0,1,1,.45-.45A.45.45,0,0,1,892.11,786.49Z"/><path class="s2d-b2d4-3_8" d="M881.89,776a.6.6,0,1,1,.61-.6A.6.6,0,0,1,881.89,776Z"/><path class="s2d-b2d4-3_8" d="M870.14,767.25a.73.73,0,1,1,.74-.73A.73.73,0,0,1,870.14,767.25Z"/><circle class="s2d-b2d4-3_8" cx="856.3" cy="761.6" r="0.86"/><circle class="s2d-b2d4-3_8" cx="841.61" cy="760.44" r="1.02"/><path class="s2d-b2d4-3_8" d="M826.85,761.65a1.11,1.11,0,1,1,1.11-1.11A1.11,1.11,0,0,1,826.85,761.65Z"/><path class="s2d-b2d4-3_8" d="M812.16,760.28a1,1,0,1,1,1-1A1,1,0,0,1,812.16,760.28Z"/><path class="s2d-b2d4-3_8" d="M798.41,754.8a.65.65,0,1,1,.65-.65A.65.65,0,0,1,798.41,754.8Z"/><circle class="s2d-b2d4-3_8" cx="788.26" cy="743.69" r="0.11"/><path class="s2d-b2d4-3_8" d="M944.12,794.08a.14.14,0,1,1,.14-.14A.14.14,0,0,1,944.12,794.08Z"/><path class="s2d-b2d4-3_8" d="M929.37,790.33a.61.61,0,1,1,.6-.6A.6.6,0,0,1,929.37,790.33Z"/><circle class="s2d-b2d4-3_8" cx="915.75" cy="782.66" r="0.97"/><circle class="s2d-b2d4-3_8" cx="903.75" cy="773.1" r="1.36"/><circle class="s2d-b2d4-3_8" cx="891.31" cy="764.2" r="1.3"/><path class="s2d-b2d4-3_8" d="M876.55,760.42a.15.15,0,0,1-.14-.15.14.14,0,0,1,.14-.14.15.15,0,0,1,.15.14A.15.15,0,0,1,876.55,760.42Z"/><path class="s2d-b2d4-3_8" d="M872,736.91a.14.14,0,0,1-.14-.14.15.15,0,0,1,.14-.15.15.15,0,0,1,.15.15A.15.15,0,0,1,872,736.91Z"/><circle class="s2d-b2d4-3_8" cx="859.07" cy="730.47" r="0.72"/><circle class="s2d-b2d4-3_8" cx="845.07" cy="727.25" r="1.15"/><path class="s2d-b2d4-3_8" d="M830.71,728.61a1.44,1.44,0,1,1,1.43-1.44A1.44,1.44,0,0,1,830.71,728.61Z"/><path class="s2d-b2d4-3_8" d="M816.71,730.48a.15.15,0,0,1-.14-.15.14.14,0,0,1,.14-.14.15.15,0,0,1,.15.14A.15.15,0,0,1,816.71,730.48Z"/><path class="s2d-b2d4-3_8" d="M875.77,723.64a.15.15,0,0,1-.15-.15.15.15,0,0,1,.15-.14.14.14,0,0,1,.14.14A.15.15,0,0,1,875.77,723.64Z"/><circle class="s2d-b2d4-3_8" cx="859.61" cy="720.06" r="1.15"/><path class="s2d-b2d4-3_8" d="M843.29,722.71a.14.14,0,0,1-.14-.14.14.14,0,1,1,.28,0A.14.14,0,0,1,843.29,722.71Z"/><path class="s2d-b2d4-3_8" d="M691.81,670.05a.14.14,0,0,1-.14-.14.15.15,0,0,1,.14-.15.15.15,0,0,1,.15.15A.15.15,0,0,1,691.81,670.05Z"/><path class="s2d-b2d4-3_8" d="M705.32,670.75a.43.43,0,0,1-.43-.43.43.43,0,1,1,.86,0A.43.43,0,0,1,705.32,670.75Z"/><circle class="s2d-b2d4-3_8" cx="718.74" cy="671.84" r="0.72"/><circle class="s2d-b2d4-3_8" cx="731.72" cy="675.55" r="0.93"/><path class="s2d-b2d4-3_8" d="M743.4,683.43a1.15,1.15,0,1,1,1.14-1.15A1.15,1.15,0,0,1,743.4,683.43Z"/><path class="s2d-b2d4-3_8" d="M752.38,693.72a1.42,1.42,0,1,1,1.42-1.42A1.42,1.42,0,0,1,752.38,693.72Z"/><circle class="s2d-b2d4-3_8" cx="758.71" cy="704.23" r="1.43"/><circle class="s2d-b2d4-3_8" cx="764.15" cy="716.6" r="1.01"/><path class="s2d-b2d4-3_8" d="M770.66,728.57a.15.15,0,0,1-.14-.15.14.14,0,0,1,.14-.14.15.15,0,0,1,.15.14A.15.15,0,0,1,770.66,728.57Z"/></g><g class="s2d-b2d4-3_28"><path class="s2d-b2d4-3_8" d="M552.62,686.69a1.08,1.08,0,1,1,1.07-1.08A1.07,1.07,0,0,1,552.62,686.69Z"/><circle class="s2d-b2d4-3_8" cx="566.91" cy="685.91" r="1.03"/><path class="s2d-b2d4-3_8" d="M581,689.68a1,1,0,1,1,1-1A1,1,0,0,1,581,689.68Z"/><circle class="s2d-b2d4-3_8" cx="594.25" cy="693.94" r="0.95"/><path class="s2d-b2d4-3_8" d="M606.45,702.33a.89.89,0,1,1,.88-.89A.89.89,0,0,1,606.45,702.33Z"/><path class="s2d-b2d4-3_8" d="M619.1,708.92a.82.82,0,1,1,.82-.82A.82.82,0,0,1,619.1,708.92Z"/><path class="s2d-b2d4-3_8" d="M633,709.5a.77.77,0,0,1-.76-.77.76.76,0,0,1,1.52,0A.77.77,0,0,1,633,709.5Z"/><path class="s2d-b2d4-3_8" d="M643.79,700.18a.7.7,0,1,1,.7-.7A.7.7,0,0,1,643.79,700.18Z"/><path class="s2d-b2d4-3_8" d="M569,672.4a.14.14,0,1,1,0-.28.14.14,0,0,1,0,.28Z"/><circle class="s2d-b2d4-3_8" cx="582.54" cy="675.55" r="0.46"/><circle class="s2d-b2d4-3_8" cx="594.81" cy="682.95" r="0.76"/><path class="s2d-b2d4-3_8" d="M608.05,689.35a1,1,0,0,1,0-2,1,1,0,1,1,0,2Z"/><path class="s2d-b2d4-3_8" d="M622,692.77a1.26,1.26,0,1,1,1.25-1.26A1.26,1.26,0,0,1,622,692.77Z"/><path class="s2d-b2d4-3_8" d="M636.24,692.31a1.49,1.49,0,1,1,1.49-1.49A1.49,1.49,0,0,1,636.24,692.31Z"/><circle class="s2d-b2d4-3_8" cx="649.44" cy="685.3" r="1.31"/><circle class="s2d-b2d4-3_8" cx="659.79" cy="675.75" r="0.52"/></g><path class="s2d-b2d4-3_23" d="M649.6,806.47a9.23,9.23,0,0,1,10.52-1.74"/><polygon class="s2d-b2d4-3_12" points="718.88 619.71 715.91 630.54 714.55 630.23 716.79 619.19 718.88 619.71"/><path class="s2d-b2d4-3_12" d="M743.08,556.81a15.32,15.32,0,0,0-1.08,1.28c-.37.46-.72.95-1.06,1.45s-.67,1-1,1.52-.65,1-1,1.56c-1.25,2.09-2.36,4.28-3.44,6.49-2.12,4.42-4,9-5.76,13.59-.87,2.31-1.69,4.63-2.51,7s-1.58,4.67-2.32,7-1.47,4.72-2.17,7.09l-2,7.13-1.35-.36,2-7.18c.66-2.39,1.39-4.76,2.08-7.15s1.5-4.73,2.24-7.1,1.6-4.7,2.44-7c1.7-4.67,3.55-9.29,5.66-13.82,1.06-2.25,2.16-4.5,3.43-6.67.3-.56.62-1.09,1-1.63s.65-1.08,1-1.6.71-1.05,1.1-1.57a16.91,16.91,0,0,1,1.31-1.55Z"/><path class="s2d-b2d4-3_15" d="M802.59,432.71s-5.74-9.84-15.58,0"/><line class="s2d-b2d4-3_29" x1="849.98" y1="598.77" x2="814.89" y2="569.64"/><path class="s2d-b2d4-3_29" d="M979.62,575.61l-71.78,47.67s-11.27,11.26-30.38-3.16l-19.12-14.41"/><path class="s2d-b2d4-3_18" d="M777.87,696.39c2.16.08,4.3-.34,6.46-.36a17.15,17.15,0,0,1,9.33,2.72c.48-1.57-.32-3.21-1.14-4.64-2.09-3.67-5.07-7.58-9.29-7.8-3.09-.15-5.82,2.09-8.9,2.43-7.87.88-9.68-2.64-12.12-3.49C762.25,693.2,774.12,696.26,777.87,696.39Z"/><path class="s2d-b2d4-3_18" d="M676.13,648.62c-4.89-.35-10.07.73-13.76,4-4.43,3.85-6.11,10.13-10.47,14.06A14.79,14.79,0,0,1,637,669.35a14.79,14.79,0,0,0-1.67-12.5c4,.47,8.17.76,11.85-.83,5.83-2.51,8.91-9,14.32-12.36,4.79-2.93,11-3,16.23-.89a24.94,24.94,0,0,1,11,8.33C685.29,651.88,679.9,648.9,676.13,648.62Z"/><path class="s2d-b2d4-3_12" d="M1329.63,940.74c-2.52-8.51-12.72-29.84-53.28-46.17l-.27-.12h0l-.24-.08c-1.35-.57-2.73-1.09-4.13-1.59l-.22-.08c-46.09-18.52-61.29-56.05-65.89-72.73a324.22,324.22,0,0,1-6.61-110s4.79-35.48-7.32-67.06l-44.24-7.66-102.59-22.68s-33.45,94.16-35.85,271.9a144,144,0,0,1-8.06,22.93c-1.84,4-9.61,20.71-15.39,24.15a41.19,41.19,0,0,0-5.29,3.57l-.3.25c-9.4,7.72-4,23,8.2,23h1.11c162.77,29.05,328.23.93,328.23.93l-.64-.11.76,0C1327.8,958.57,1332.56,948.56,1329.63,940.74Z"/><path class="s2d-b2d4-3_12" d="M1087.15,364.6c1.89-.17,9.23-2.53,11.11-2.86,8-1.39,16.1.46,21.92,5,2.88,2.24,5.24,5.11,8.59,6.72a12.77,12.77,0,0,0,4.8,1.25c-4.1,2.52-9.12,2.93-13.67,2.39a12.75,12.75,0,0,1-5.06-1.45A18.31,18.31,0,0,1,1111,372c-3-3.2-6.92-5.79-11.61-6.09a43.94,43.94,0,0,1-4.75-.21"/><path class="s2d-b2d4-3_8" d="M911.37,431.61l119,43.69.47.16a11.7,11.7,0,0,0,5.35.38l71.33-7.73L1074,434l-47.84,5.61L918,415.74"/><path class="s2d-b2d4-3_8" d="M1074,434s64.16-16.8,62.85,12.13c0,0,.4,14.14-35.51,19.62Z"/><path class="s2d-b2d4-3_30" d="M927.41,417.94S934,431.3,925,436.6"/><path class="s2d-b2d4-3_31" d="M1077.76,372.4c-5.25,4.75-9.83,10.91-14.35,17l-34.74,46.8a11,11,0,0,0-2.11,3.9,7.09,7.09,0,0,0,.5,4.26c2.6,6.59,8.19,9.61,13.7,11.77a92.72,92.72,0,0,0,26.22,6,11.69,11.69,0,0,0,6.13-.69c2.23-1,4.27-3.14,6.18-5.28,16.5-18.39,66.79-71.82,26-91.74C1097.18,360.52,1086.54,364.46,1077.76,372.4Z"/><path class="s2d-b2d4-3_12" d="M1038.13,454a83.57,83.57,0,0,0,13,4.41,93.17,93.17,0,0,0,13.58,2.36c2.29.19,4.61.51,6.52,0a11.41,11.41,0,0,0,5.14-3.44c1.54-1.6,3.06-3.41,4.6-5.14l4.6-5.24,2.21,1.95-4.71,5.16c-1.59,1.71-3.08,3.45-4.8,5.17a21.64,21.64,0,0,1-2.85,2.4,10.14,10.14,0,0,1-3.6,1.62,13.18,13.18,0,0,1-3.83.24c-1.22-.08-2.36-.21-3.54-.34a94.87,94.87,0,0,1-13.87-2.68,85.11,85.11,0,0,1-13.3-4.78Z"/><path class="s2d-b2d4-3_12" d="M1030.16,448a17.76,17.76,0,0,0,3.94,3.08l-1.73,2.38a20.11,20.11,0,0,1-3.72-4.31Z"/><path class="s2d-b2d4-3_12" d="M1040,422.5l-8.42,11.78-2.1,2.94A10,10,0,0,0,1028,440a4.86,4.86,0,0,0,0,2.8,21.28,21.28,0,0,0,1.33,3l-2.57,1.44a22,22,0,0,1-1.48-3.69,7.57,7.57,0,0,1,.13-4.34,12.53,12.53,0,0,1,2-3.47l2.22-2.88,8.83-11.47Z"/><path class="s2d-b2d4-3_12" d="M1091.75,440.62c7.64-9.18,14.88-18.77,20.52-29.23a76.12,76.12,0,0,0,3.79-8,52.72,52.72,0,0,0,2.69-8.38c1.29-5.67,1.41-11.7-.89-16.93a21.41,21.41,0,0,0-4.92-6.87,29.4,29.4,0,0,0-7-4.94c-4.9-3-11-2.35-16.2-.07a42.82,42.82,0,0,0-14,10.19,150.23,150.23,0,0,0-11.12,13.91l-2.36-1.76a150.35,150.35,0,0,1,11.45-14.09,45.1,45.1,0,0,1,15-10.72,24.61,24.61,0,0,1,9.2-2.08,18.16,18.16,0,0,1,4.8.52,18.37,18.37,0,0,1,4.43,1.84,32.09,32.09,0,0,1,7.58,5.41,24,24,0,0,1,5.42,7.7,24.79,24.79,0,0,1,1.92,9.19,36.81,36.81,0,0,1-1,9.21,55.14,55.14,0,0,1-2.86,8.71,81.51,81.51,0,0,1-4,8.21c-5.84,10.63-13.22,20.24-21,29.43Z"/><path class="s2d-b2d4-3_8" d="M1132.07,344.15v-3.87c.1-2.84-2.64-7.46-5.25-6.37-15.43,6.44-62.71,30-61.38,71.59l59.16-40.88Z"/><path class="s2d-b2d4-3_32" d="M1142.23,214.9c2.53-4.21,4.57-9,4.09-13.84-.6-6.06-4.92-11-8.84-15.75s-7.84-10.19-7.4-16.26c-2.41,6-9,9-14.16,12.94a35.81,35.81,0,0,0-11.58,15.43"/><path class="s2d-b2d4-3_33" d="M1129.64,170.42c6.18,11.28,20.7,16.87,25.41,28.81,2.8,7.1,1.5,15.16-1.26,22.27"/><path class="s2d-b2d4-3_8" d="M1051.73,233.86l-2.6,6.45a89.24,89.24,0,0,0-5.88,44.16c2.77,22.85,10.77,52.5,33.64,53.19,10.59.32,53.76-33.53,53.76-33.53s7.25-6.7,8.24-15.24l4.39-19.45-1.37-10.8-8.64-5.32-9.18-4.11-15.82-10.05Z"/><path class="s2d-b2d4-3_8" d="M1058.73,299.05c1.26,2.82,1.8,5.5.65,7.41a4.65,4.65,0,0,1-2,1.81c-5.22,2.57-4.44,3.23-7,2.4-1.94-.61,1-.32,1-.32L1047,304.1s-10.4-3-10.19-5.85c.26-4.07,5.32-5,8.26-10.75l2-3.88S1055.8,292.64,1058.73,299.05Z"/><path class="s2d-b2d4-3_8" d="M1101.59,315.35l4.75,26.38a9.82,9.82,0,0,0,11.19,7.85h0a9,9,0,0,0,7.68-9.38l-2.58-40.11Z"/><path class="s2d-b2d4-3_12" d="M1122.17,311.5a66.31,66.31,0,0,1,2.25,12.23l-.83.09a64.9,64.9,0,0,0-2.65-11.95Z"/><path class="s2d-b2d4-3_12" d="M1124,225.11c12.33-3.87,22.35,12,25.24,29.06l0,0c.17,1,.31,1.87.44,2.81a.28.28,0,0,1,0,.15c0,.18,0,.34,0,.52s0,.41,0,.51a.27.27,0,0,1,0,.15,52.68,52.68,0,0,1,.12,10.26,83.52,83.52,0,0,1-11.06,35l-17.89-3.24c.6-.08,3.92-1,5.73-10.38,2-10.31-4.57-21.89-12.79-18.81s-3.89,17.49-3.89,17.49l-2.87.21c-10-11.28-14.68-24.33-12.52-36.3,0,0-19.66-4.41-32.23-4-6.21.22-11.66-4.72-11.06-10.33,0-.12,0-.23,0-.35,2-15.29,21.47-25.33,45.81-25.16S1124,225.11,1124,225.11Z"/><path class="s2d-b2d4-3_12" d="M1119.15,198.63s18.19-.13,31.59,10.86,10.26,27,10.26,27a17.46,17.46,0,0,0-6-11.35s8,19.74-5.2,33.16a.27.27,0,0,0,0-.15c0-.1,0-.29,0-.51a2,2,0,0,0,0-.52.28.28,0,0,0,0-.15,21.44,21.44,0,0,0-.44-2.81l0,0c-1.36-6.16-6.27-17.14-23.42-18.82-22.58-2.25-39.49,6.5-41.49,7.62,1.87-.83,14.67-6.15,27.73.49,0,0-13.45-5.05-20.35,7.78,0,0-17.81-3.59-30.68-2.58-4.64.36-8.65-5-11.85-8.35-.3-.32-2.77,9.2-3.05,8.87-2.73-3.27-3.41-13.77-2.1-19,3-11.91,20.71-31.4,48.56-32.84,15.43-.79,24.62-2.73,29.7-4.32a22.68,22.68,0,0,0,5.58-2.32S1126.56,196.35,1119.15,198.63Z"/><path class="s2d-b2d4-3_34" d="M1071.07,218.76c3.06-3.75,7.94-5.64,12.76-6.48s9.77-.79,14.62-1.49a47.73,47.73,0,0,0,15.51-5"/><path class="s2d-b2d4-3_34" d="M1071.21,233c7.26-5.91,17.26-7,26.31-9.6,7.62-2.21,15-5.66,22.85-6.44s17,2,20.44,9c3.31,6.67-.3,15.72-7.33,18.41"/><path class="s2d-b2d4-3_34" d="M1084.52,236.49a37.61,37.61,0,0,0,20.39-3.3c6-2.86,11.75-7.47,18.45-7.13a7.38,7.38,0,0,1,5.6,2.48c1.73,2.27,1.16,5.51-.06,8.07a20,20,0,0,1-7.27,8.22"/><path class="s2d-b2d4-3_34" d="M1115.31,266.32c6.6-1.22,12-5.8,16.75-10.41a33.73,33.73,0,0,0,3-3.13,18.08,18.08,0,0,0,3.9-12.65"/><path class="s2d-b2d4-3_35" d="M1126.7,272.2c6.89-3.6,11.21-10.52,14.88-17.27a39.47,39.47,0,0,0,2.17-4.49,21,21,0,0,0-.17-15.38"/><path class="s2d-b2d4-3_12" d="M1087.42,277.93a11.51,11.51,0,0,0-4.5-2.08,14.4,14.4,0,0,0-5.12-.15,21.5,21.5,0,0,0-5.11,1.38,23.89,23.89,0,0,0-4.69,2.49l-1.13-1.52a26,26,0,0,1,5-2.88,23.92,23.92,0,0,1,5.55-1.68,16.7,16.7,0,0,1,5.94,0,14.11,14.11,0,0,1,5.58,2.38Z"/><path class="s2d-b2d4-3_12" d="M1087.74,265.26a17.38,17.38,0,0,0-12.45-2.31,16.38,16.38,0,0,0-2.09.49c-.68.22-1.37.5-2.06.78s-1.36.59-2,.91c-.32.16-.62.33-.93.5s-.59.38-.88.59a13.87,13.87,0,0,0-3,3.11,37,37,0,0,0-3.88,8l-1.14-.42a37.51,37.51,0,0,1,3.89-8.33,15.09,15.09,0,0,1,3.2-3.48c.31-.25.65-.47,1-.7s.7-.41,1-.58c.69-.35,1.38-.67,2.08-1s1.41-.6,2.16-.87a18.89,18.89,0,0,1,2.3-.58,18.94,18.94,0,0,1,13.68,2.28Z"/><path class="s2d-b2d4-3_12" d="M1043.18,259.05a10.79,10.79,0,0,1,10.19,1.78,9.88,9.88,0,0,1,1.85,2,12.89,12.89,0,0,1,1.3,2.29,10.26,10.26,0,0,1,.84,5.23c-.47,3.56-2.33,6.53-4.3,9.2a68,68,0,0,1-6.62,7.44l-.87-.86a66.45,66.45,0,0,0,6.35-7.41c1.87-2.61,3.53-5.5,3.86-8.53a8.81,8.81,0,0,0-.8-4.39,10.87,10.87,0,0,0-1.15-2,8.29,8.29,0,0,0-1.54-1.59,9,9,0,0,0-8.46-1.39Z"/><path class="s2d-b2d4-3_12" d="M1040.42,270.83l1.35-.08c.46,0,.91,0,1.37,0a11.47,11.47,0,0,1,2.71.51,8.42,8.42,0,0,1,2.51,1.29,6.15,6.15,0,0,1,1.85,2.27l-1.28.51a4.82,4.82,0,0,0-1.46-1.58,7,7,0,0,0-2.08-1,10.15,10.15,0,0,0-2.34-.32l-1.2,0-1.2.13Z"/><ellipse class="s2d-b2d4-3_32" cx="1084.19" cy="298.33" rx="10.76" ry="10.97" transform="translate(721.26 1362.64) rotate(-86.56)"/><path class="s2d-b2d4-3_36" d="M1087.73,333.8a95.43,95.43,0,0,0,26.27-17"/><path class="s2d-b2d4-3_32" d="M1110.29,310.22c6.38,6.62,34.85,14.24,58.61-4.21s1.51-38.44-8-29.84c-6.43,5.84-5.47,11.21-1.18,14.06,0,0,6,5.52,11.36-1.48,0,0-1.33,6-11.66,10.87s-20.3,5.24-27,1.25c0,0,11.73-8.29,9.55-18.26s-3.66-14.81,4.24-19.35c0,0-11.34-.22-14.42,5.15,0,0-17.59-11.35,12-30.79,0,0-41.25,7.82-45.24,38.66C1098.57,276.28,1096.41,295.81,1110.29,310.22Z"/><path class="s2d-b2d4-3_8" d="M1109.24,280.85h0a7.93,7.93,0,0,1,3.59-3.49,19,19,0,0,1,4.61-1.5,7.22,7.22,0,0,1,2.3-.28c2.25.21,3.82,2.45,4.58,4.68a14.94,14.94,0,0,1,.22,8.71h0a2,2,0,0,1-.07.21,12.57,12.57,0,0,1-1.31,3c-.06.11-.14.21-.21.32a18,18,0,0,1-7,6.94,3,3,0,0,1-4.15-1.37C1110,293.72,1106.77,285.11,1109.24,280.85Z"/><path class="s2d-b2d4-3_12" d="M1115.92,293.16a13.67,13.67,0,0,0,4.09-8.32,7.6,7.6,0,0,0,0-2.19,1.69,1.69,0,0,0-.28-.71.79.79,0,0,0-.43-.29,3.56,3.56,0,0,0-1.77.16,2.31,2.31,0,0,0-1.32.9l-2.15-1.4a4.82,4.82,0,0,1,2.78-1.86,7.79,7.79,0,0,1,1.51-.24,4.55,4.55,0,0,1,1.7.22,3.13,3.13,0,0,1,1.56,1.21,4,4,0,0,1,.6,1.63,9.87,9.87,0,0,1-.09,2.85,15.61,15.61,0,0,1-5.06,9.27Z"/><path class="s2d-b2d4-3_8" d="M1172.27,294.21a.09.09,0,1,1,.09-.09A.09.09,0,0,1,1172.27,294.21Z"/><circle class="s2d-b2d4-3_8" cx="1165.98" cy="300.55" r="0.34"/><path class="s2d-b2d4-3_8" d="M1158.5,306.11a.54.54,0,0,1-.55-.55.55.55,0,0,1,.55-.55.55.55,0,0,1,.55.55A.55.55,0,0,1,1158.5,306.11Z"/><path class="s2d-b2d4-3_8" d="M1150.14,309.64a.74.74,0,1,1,.74-.74A.74.74,0,0,1,1150.14,309.64Z"/><path class="s2d-b2d4-3_8" d="M1141.25,311.27a.94.94,0,1,1,.94-.93A.93.93,0,0,1,1141.25,311.27Z"/><path class="s2d-b2d4-3_8" d="M1132.26,310.55a.67.67,0,0,1-.68-.68.68.68,0,0,1,.68-.69.69.69,0,0,1,.69.69A.68.68,0,0,1,1132.26,310.55Z"/><path class="s2d-b2d4-3_37" d="M1055.53,307.65a6.33,6.33,0,0,1,4.38-.89,30.09,30.09,0,0,1,3.33,1.29c2.38.8,5,.23,7.44-.37a8.57,8.57,0,0,1-8.75,2.19,12.6,12.6,0,0,0-2.42-.77c-2.35-.29-4.3,1.79-6.48,1.57C1052.83,309.23,1054.4,308.3,1055.53,307.65Z"/><path class="s2d-b2d4-3_37" d="M1051.93,308.09a4.3,4.3,0,0,0-2.86-1.38,20,20,0,0,0-2.53.36,9.23,9.23,0,0,1-5.07-1.52,5.83,5.83,0,0,0,5.63,3.05,9.2,9.2,0,0,1,1.81-.14c1.68.19,2.63,2,4.18,2.23C1053.5,309.68,1052.59,308.74,1051.93,308.09Z"/><path class="s2d-b2d4-3_32" d="M1156.23,227.3c-8.94,10.38-22.31,15.86-35.16,21-8.9,3.54-18.41,7.14-27.86,5.43-3.92-.7-7.62-2.31-11.52-3.1a28.85,28.85,0,0,0-22.15,4.64c-.72-6.69-8.46-11.75-15-9.82,0,0-1.83-2.87-.92-11.56,0,0,16.67,0,19.52,9.82,0,0,12.1-8.06,33.53-.37,18.27,6.56,45-9.22,58-20.17Z"/><path class="s2d-b2d4-3_32" d="M1101.84,224.39c-1-.44-2.11-1-3.22-1.56a.49.49,0,0,0-.34-.05l-7,1.61-.78-6.73a.48.48,0,0,0-.18-.32q-1.12-.85-2.25-1.77a.48.48,0,0,0-.78.29c-.51,3.49-3,7-7.25,5.57-5.51-1.91-2.1-8.36,2-10.45a.45.45,0,0,0,.25-.35.5.5,0,0,0-.13-.4c-.57-.55-1.17-7.77-2.73-14.23-1.23-5.13-3.07-9.77-6-10.19-2.68-.39-5.55,2.9-8.11,7-3.75,6.05-6.82,13.86-7.55,14.28a.47.47,0,0,0-.24.35.49.49,0,0,0,.15.4c3.38,3,5,10.15-.81,10.6-4.45.35-6-3.73-5.57-7.23a.46.46,0,0,0-.2-.43.49.49,0,0,0-.48-.05c-.88.4-1.75.78-2.63,1.15a.47.47,0,0,0-.26.26l-2.49,6.31-6.39-3.35a.49.49,0,0,0-.34,0c-1.22.3-2.4.53-3.52.69a.48.48,0,0,0-.39.36.47.47,0,0,0,.2.5,33,33,0,0,1,10.52,12.25l.51.17c1.72.83,18,3.17,19.48,10.21,0,0,2.65-3.42,10.85-4.08,2.13.07,12.3-.65,12.3-.65,3.78-4.13,8.49-7.61,13.4-9.24a.47.47,0,0,0,0-.88Zm-41.74-3.89a.49.49,0,0,1,.22-.34,21,21,0,0,0,6.33-6.62.49.49,0,0,1,.87.1,20.92,20.92,0,0,0,4.57,7.92.47.47,0,0,1,.13.39.46.46,0,0,1-.22.34,21.09,21.09,0,0,0-6.33,6.62.45.45,0,0,1-.46.22.46.46,0,0,1-.4-.33,21,21,0,0,0-4.57-7.91A.49.49,0,0,1,1060.1,220.5Zm-15.58,3.33a.43.43,0,0,1,.06-.38,11.29,11.29,0,0,0,2.08-5,.09.09,0,0,1,.06-.07.1.1,0,0,1,.1,0,11.91,11.91,0,0,0,4.71,2.57.5.5,0,0,1,.33.29.47.47,0,0,1-.07.44,11.5,11.5,0,0,0-1.93,4.34.39.39,0,0,1-.27.3.42.42,0,0,1-.4-.07,11.88,11.88,0,0,0-4.38-2.22A.44.44,0,0,1,1044.52,223.83Zm41.2,0a11.61,11.61,0,0,0,.84,4.58.44.44,0,0,1,0,.43.49.49,0,0,1-.39.22,12,12,0,0,0-4.6,1.08.49.49,0,0,1-.47,0,.48.48,0,0,1-.22-.41,11.39,11.39,0,0,0-.84-4.57.49.49,0,0,1,0-.44.47.47,0,0,1,.39-.21,12.23,12.23,0,0,0,4.61-1.08.48.48,0,0,1,.68.43Z"/><path class="s2d-b2d4-3_32" d="M1069.22,221.28a.35.35,0,0,1,.11.32.38.38,0,0,1-.18.28,11.44,11.44,0,0,0-3.07,3.19.42.42,0,0,1-.4.18.41.41,0,0,1-.34-.27,11.09,11.09,0,0,0-2.28-3.87.33.33,0,0,1-.09-.27.31.31,0,0,1,.16-.24,11.25,11.25,0,0,0,3.13-3.23.42.42,0,0,1,.4-.18.4.4,0,0,1,.34.27A11.34,11.34,0,0,0,1069.22,221.28Z"/><path class="s2d-b2d4-3_32" d="M1049.54,221.73a.26.26,0,0,1,.16.15.26.26,0,0,1,0,.21,5.08,5.08,0,0,0-.82,1.8.22.22,0,0,1-.15.17.22.22,0,0,1-.22,0,5.21,5.21,0,0,0-1.79-.9.26.26,0,0,1-.16-.15.26.26,0,0,1,0-.21,4.89,4.89,0,0,0,.81-1.8.26.26,0,0,1,.15-.17.24.24,0,0,1,.23,0A5.21,5.21,0,0,0,1049.54,221.73Z"/><path class="s2d-b2d4-3_32" d="M1084.87,227.74a.22.22,0,0,1-.21.31,5.35,5.35,0,0,0-2,.46.27.27,0,0,1-.23,0,.21.21,0,0,1-.1-.2,5.26,5.26,0,0,0-.36-1.94.22.22,0,0,1,0-.22.23.23,0,0,1,.19-.1,5.35,5.35,0,0,0,2-.46.24.24,0,0,1,.23,0,.19.19,0,0,1,.1.19A5.35,5.35,0,0,0,1084.87,227.74Z"/><path class="s2d-b2d4-3_32" d="M1089.4,236.61c4.61,1.24,9.14,2.85,13.87,3.54a43.67,43.67,0,0,0,18.92-1.72,73.3,73.3,0,0,0,17.19-8.12,72.45,72.45,0,0,1-8.74,3.08,106.39,106.39,0,0,1-14.49,2.87c-5.32.73-11.18,1.12-15.62-1.85a6.71,6.71,0,0,1-3.1-4.27A3.69,3.69,0,0,1,1100,226a32.43,32.43,0,0,0-8.68,3.33,47.24,47.24,0,0,1-5.81,3.14c-4,1.51-8.35.9-12.3,2.25,2.37.93,5.06.21,7.53.36A42.93,42.93,0,0,1,1089.4,236.61Z"/><path class="s2d-b2d4-3_38" d="M1069.16,332.7a21.57,21.57,0,0,1-3.57-3.7"/><path class="s2d-b2d4-3_38" d="M1072.76,333.4c-.81-1-3.25-4.52-3.28-5.38"/><path class="s2d-b2d4-3_38" d="M1075.59,334.22a11.64,11.64,0,0,1-1-5.07"/><path class="s2d-b2d4-3_12" d="M1073.78,314.59c.09.16.35.28.47.22l-.11,0-.22.05-.44.11-.89.21-1.78.37c-1.19.24-2.39.45-3.6.61a34.33,34.33,0,0,1-3.66.34,15.11,15.11,0,0,1-3.77-.27l.83-.52-1,5.17-.66-.87a20.57,20.57,0,0,0,4.11-.35,20,20,0,0,0,4-1.18,16.16,16.16,0,0,0,3.59-2l.81-.62.75-.7.35-.33a.2.2,0,0,1,.17-.1,1.65,1.65,0,0,0,.8-.05Zm1.06-.45a5.54,5.54,0,0,1-.51,1.18,4.48,4.48,0,0,1-.55.7c-.17.18-.29.27-.44.41l-.84.76-.91.67a17.73,17.73,0,0,1-4,2.14,22.41,22.41,0,0,1-4.31,1.19,21.46,21.46,0,0,1-4.48.3l-.85,0,.18-.83,1.11-5.16.15-.7.68.17a13.71,13.71,0,0,0,3.42.29,32.45,32.45,0,0,0,3.53-.27c1.18-.14,2.36-.32,3.54-.53l1.75-.35.88-.18.44-.1.21-.05.11,0a.73.73,0,0,1,.72.22Z"/><path class="s2d-b2d4-3_39" d="M1089.65,643.63a24.1,24.1,0,0,0-8.3,19.81"/><path class="s2d-b2d4-3_39" d="M1149.54,643.94a24.44,24.44,0,0,0-5.22,20.95"/><path class="s2d-b2d4-3_39" d="M1076.92,640.49a29,29,0,0,0-8.63,13.61"/><path class="s2d-b2d4-3_39" d="M1116.4,664.88a36.68,36.68,0,0,0,.52,6.54"/><path class="s2d-b2d4-3_39" d="M1118,654.56a37.28,37.28,0,0,0-1,4.17"/><path class="s2d-b2d4-3_39" d="M1048.11,646.06a25.29,25.29,0,0,0-4.81,10.33"/><path class="s2d-b2d4-3_16" d="M1046.35,580.64l-12.06,48c-.57,5,4.37,9.6,11.56,10.66,26.2,3.84,96.82,12.84,142.44,4.54,11.36-2.07,15.15-9,14.63-20.51-.31-6.92-4.23-29.63-17-47.25-16.32-22.53-8-6.16-20.2-11.91l-103.61,5.75C1054.3,570.3,1047.84,574.72,1046.35,580.64Z"/><path class="s2d-b2d4-3_16" d="M1049.3,574.69s-20.42,38.22-20.42,49.75c0,0,1.3,11.82,13.27,13.89l12-29Z"/><path class="s2d-b2d4-3_16" d="M1062.76,570.89c-15.26,1.74-28.43,11.48-31.3,23.16-1.1,4.46-.85,9.15-3,13.37-1.83,3.61-5.18,6.49-9.08,9-4.54,2.91-13.14,4.11-17.09.72s-6.35-8.56-10.59-12c6.78.73,12.14-4.52,14.16-9.55s2.47-10.67,6.69-14.82c7.49-7.35,23-6.5,31.74-13"/><path class="s2d-b2d4-3_12" d="M1053.46,397.63c-.2.84-.38,1.68-.55,2.54a68.19,68.19,0,0,0-1.07,7.81c-1.38,16.17-7.93,87.83-18.87,128.13a71.08,71.08,0,0,1-4.27,11.53l-1.21,2.6c-10.41,22.24,4.58,47.82,29.69,50.66,31,3.52,72.87,5.46,114.1-1.26,15-2.45,10.69-16.08,5.52-29.92-7-18.57-.36-48.91,2.3-87.54,0,0,2.8-37.39-1.69-75.62C1168.53,331,1070.42,323.71,1053.46,397.63Z"/><path class="s2d-b2d4-3_12" d="M1102.13,347.15s95.24-22.22,87.57,13.5c-8,37.16-4,115.34-4,115.34L1145,388.93Z"/><path class="s2d-b2d4-3_31" d="M1086.1,617.84c-20.19-2.69-24-13.46-29.27-26.9-6.54-16.71-4.61-47.17-1-64.67,8.14-39.79,4.06-81.58,16.28-120.41,2.43-7.71,5.52-15.3,10.18-22,5.48-7.87,9.1-12.91,16.48-19.22,6.14-5.25,14.66-9.49,25.06-12.58,0,0,19.2-7.45,37.48,14.49,0,0,29.39,25.32,26.65,210.93,0,0,12.19,30.87-7.17,37.45C1153.65,624.15,1126.11,623.16,1086.1,617.84Z"/><path class="s2d-b2d4-3_8" d="M1056,505.93c1.36-14.93,2.19-29.94,3.61-44.93s3.42-30,7.28-44.62a173.27,173.27,0,0,1,7.19-21.5,82.4,82.4,0,0,1,5-10.25c1-1.66,2.08-3.18,3.15-4.75s2.19-3.1,3.38-4.59a69.26,69.26,0,0,1,7.88-8.26l2.1-1.9,1.11-.94,1.15-.88a55,55,0,0,1,4.79-3.16,103.43,103.43,0,0,1,20.88-9l-.09,0a19.3,19.3,0,0,1,5.55-1,28.07,28.07,0,0,1,5.5.29,36.57,36.57,0,0,1,10.4,3.29,53.38,53.38,0,0,1,9.18,5.75,73.3,73.3,0,0,1,8,7.25.88.88,0,0,1,0,1.26.9.9,0,0,1-1.27,0,70.33,70.33,0,0,0-7.81-7,50.76,50.76,0,0,0-8.88-5.52,34.5,34.5,0,0,0-9.86-3.1,26,26,0,0,0-5.13-.25,17.46,17.46,0,0,0-4.9.9l-.08,0h0a101.79,101.79,0,0,0-20.43,8.83c-1.59.95-3.14,2-4.61,3.05l-1.08.84-1,.89-2.07,1.88a67.36,67.36,0,0,0-7.63,8.05c-1.15,1.45-2.23,3-3.28,4.49s-2.12,3.11-3.06,4.65a76.83,76.83,0,0,0-4.86,10,166.12,166.12,0,0,0-7,21.24c-3.72,14.47-5.61,29.37-6.94,44.29s-2.06,29.94-3.34,44.94a1.38,1.38,0,1,1-2.75-.23Z"/><path class="s2d-b2d4-3_8" d="M1051.51,539.48c1.33-6,2.41-12,3.32-18.08a.89.89,0,0,1,1-.75.9.9,0,0,1,.76,1c-.6,6.14-1.36,12.28-2.39,18.39a1.38,1.38,0,1,1-2.73-.46S1051.5,539.5,1051.51,539.48Z"/><path class="s2d-b2d4-3_11" d="M917.05,418.5a26.63,26.63,0,0,1,4.69-3,.54.54,0,0,0,.33-.46.52.52,0,0,0-.31-.47c-23-11.42-24.38-22.27-3.79-24.21a.7.7,0,0,0,.51-.29.55.55,0,0,0,0-.54,57,57,0,0,1-5.33-22,.66.66,0,0,0-.38-.54.83.83,0,0,0-.72,0,77.58,77.58,0,0,1-23.68,8.17.73.73,0,0,0-.51.35.58.58,0,0,0,0,.57c9.45,16.21-1.58,21.13-25,10.48a.66.66,0,0,0-.61,0,.49.49,0,0,0-.26.49,20.83,20.83,0,0,1-.23,5.1,59.9,59.9,0,0,0,7.19,6.23h0a114.56,114.56,0,0,0,25.68,14c6.94,3.27,13.49,5.75,17,5.45C911.65,418,915.31,418.31,917.05,418.5Zm-19-26.26a.68.68,0,0,1-.59,0,.53.53,0,0,1-.32-.45A34.54,34.54,0,0,0,894,378.93a.5.5,0,0,1,0-.46.61.61,0,0,1,.42-.27,46.54,46.54,0,0,0,13.89-4.77.7.7,0,0,1,.6,0,.54.54,0,0,1,.31.45,34.45,34.45,0,0,0,3.14,12.88.51.51,0,0,1,0,.45.61.61,0,0,1-.42.27A46.56,46.56,0,0,0,898,392.24Z"/><path class="s2d-b2d4-3_11" d="M861.55,393.75c11.83,11.94,36.51,23.63,54.21,25.78a23.77,23.77,0,0,0-2.79,2.65c-15.86-1.14-42.49-13.75-52.39-24.92A20,20,0,0,0,861.55,393.75Z"/><polygon class="s2d-b2d4-3_40" points="889.65 398.96 894.84 397.43 896.58 402.01 891.39 403.54 889.65 398.96"/><ellipse class="s2d-b2d4-3_8" cx="903.73" cy="382.25" rx="3.17" ry="1.64" transform="matrix(0.52, -0.85, 0.85, 0.52, 106.08, 953.75)"/><path class="s2d-b2d4-3_40" d="M884.94,402.39a4.89,4.89,0,0,0-3.55-4.52,12.29,12.29,0,0,0-3.27-.21,7.46,7.46,0,0,1-3.2-.46,2.23,2.23,0,0,1-1.47-2.37"/><path class="s2d-b2d4-3_40" d="M894.45,407.49a6,6,0,0,1,6.22.06,9.51,9.51,0,0,1,2,2.27,6.14,6.14,0,0,0,2.24,2.08,2.84,2.84,0,0,0,3-.25"/><path class="s2d-b2d4-3_8" d="M883.25,386.53a7.32,7.32,0,0,1-1.84-.65,8.13,8.13,0,0,1-3-2,2.56,2.56,0,0,1-.28-3.12.62.62,0,0,1,.18-.18.87.87,0,0,1,.85.16,21.76,21.76,0,0,1,3.64,3.6c.38.4,1.86,1.29,2,1.69C885.06,386.71,883.81,386.63,883.25,386.53Z"/><path class="s2d-b2d4-3_8" d="M910.6,400a7.35,7.35,0,0,0,1.85.63,9,9,0,0,0,3.71.33,3.07,3.07,0,0,0,2.63-2.11.65.65,0,0,0,0-.24c-.07-.26-.44-.36-.74-.39a26.16,26.16,0,0,0-5.44.42,16.92,16.92,0,0,0-2.77,0C909.14,399,910.11,399.68,910.6,400Z"/><path class="s2d-b2d4-3_8" d="M921.39,413.5a12.22,12.22,0,0,0-6.84-3.82c-.73-.1-1.47-.08-2.2-.23-1.33-.27-2.53-1.05-3.85-1.37s-3,.06-3.17,1.28a.92.92,0,0,0,0,.49,1.73,1.73,0,0,0,.41.61c2.16,2.22,6,2.55,7.84,5a.45.45,0,0,1,.12.25c0,.24-.32.3-.57.3h-4.59a2,2,0,0,0,1.18,1.31,6.23,6.23,0,0,0,1.8.43,29.31,29.31,0,0,0,6.72.35,8.89,8.89,0,0,1,2-.11c1.14.13,3.76,1.52,3.65-.25C923.82,416.19,922.51,414.62,921.39,413.5Z"/><path class="s2d-b2d4-3_12" d="M1118.06,367.8c1.87-.3,9-3.2,10.87-3.67,7.82-2,16.09-.73,22.22,3.34,3,2,5.61,4.71,9.07,6.07a12.7,12.7,0,0,0,4.88.89c-3.91,2.82-8.88,3.6-13.45,3.4a13,13,0,0,1-5.16-1.07,18.26,18.26,0,0,1-4.11-3.37c-3.18-3-7.33-5.26-12-5.21a44.56,44.56,0,0,1-4.75.14"/><path class="s2d-b2d4-3_8" d="M920.51,416c-3.87-5.13-8.72-1.28-12.61-2S900,412,897,409.32c-1.5-1.32-2.92-3-4.84-3.38a4.35,4.35,0,0,0-3.79,1.26,10,10,0,0,0-2,3.38,21.28,21.28,0,0,0-2.07,8.79,11.56,11.56,0,0,0,3.93,8.6c2.82,2.35,6.66,2.93,10.2,3.07s7.15,0,10.58,1.21c1.46.54,2.85,1.33,4.33,1.82a5.58,5.58,0,0,0,4.38-.05"/><path class="s2d-b2d4-3_8" d="M1075.42,439.53l-21.15,27.32a12.22,12.22,0,0,1-14.76,3.62L918.42,414.78l-7.83,17.78,137.88,82.51a13,13,0,0,0,16.73-2.94l57.56-70.68"/><path class="s2d-b2d4-3_8" d="M1076,392.93s59-30.31,64-1.79c0,0,3.46,13.72-30.41,26.86Z"/><path class="s2d-b2d4-3_30" d="M927.41,417.94s6.51,14-7.87,19.1"/><path class="s2d-b2d4-3_31" d="M1109.27,376.29c-4.88,5.12-9,11.6-13,18l-31.17,49.25a11,11,0,0,0-1.82,4,7.19,7.19,0,0,0,.81,4.21c3.09,6.38,8.89,9,14.54,10.72a92.75,92.75,0,0,0,26.6,4.09,11.85,11.85,0,0,0,6.06-1.15c2.15-1.18,4-3.45,5.77-5.72,15.09-19.57,61.28-76.57,19.11-93.41C1127.76,363,1117.44,367.72,1109.27,376.29Z"/><path class="s2d-b2d4-3_12" d="M1075.79,460.56a84.13,84.13,0,0,0,13.33,3.44,91.46,91.46,0,0,0,13.71,1.34c2.31,0,4.64.17,6.51-.45a11.31,11.31,0,0,0,4.87-3.81c1.42-1.71,2.8-3.63,4.21-5.47l4.2-5.57,2.35,1.78-4.32,5.5c-1.46,1.83-2.82,3.67-4.41,5.51a21.83,21.83,0,0,1-2.65,2.61,10.37,10.37,0,0,1-3.48,1.88,13.39,13.39,0,0,1-3.8.53c-1.22,0-2.37,0-3.56-.08a94.26,94.26,0,0,1-14-1.65,83.7,83.7,0,0,1-13.62-3.78Z"/><path class="s2d-b2d4-3_12" d="M1067.41,455.15a17.23,17.23,0,0,0,4.15,2.78l-1.55,2.5a20.15,20.15,0,0,1-4-4Z"/><path class="s2d-b2d4-3_12" d="M1075.36,429l-7.52,12.37L1066,444.5a9.87,9.87,0,0,0-1.32,2.9,4.79,4.79,0,0,0,.25,2.78,20.08,20.08,0,0,0,1.55,2.86l-2.46,1.62a21.81,21.81,0,0,1-1.75-3.56,7.61,7.61,0,0,1-.2-4.34,12.59,12.59,0,0,1,1.77-3.62l2-3,8-12.09Z"/><path class="s2d-b2d4-3_12" d="M1128.28,443.28c6.94-9.72,13.45-19.82,18.3-30.67a78.51,78.51,0,0,0,3.19-8.28,53.32,53.32,0,0,0,2.06-8.56c.86-5.74.54-11.77-2.15-16.81a21.41,21.41,0,0,0-5.42-6.49,29.42,29.42,0,0,0-7.39-4.41c-5.1-2.59-11.11-1.53-16.16,1.14a42.45,42.45,0,0,0-13.18,11.2,145.79,145.79,0,0,0-10.06,14.69l-2.49-1.58a151.75,151.75,0,0,1,10.37-14.9,45.32,45.32,0,0,1,14.15-11.81,25,25,0,0,1,9-2.75,18.14,18.14,0,0,1,4.82.17,17.82,17.82,0,0,1,4.56,1.5,32,32,0,0,1,8,4.84,24,24,0,0,1,6,7.27,24.86,24.86,0,0,1,2.6,9,36.74,36.74,0,0,1-.34,9.26,55.11,55.11,0,0,1-2.2,8.9,81.33,81.33,0,0,1-3.33,8.47c-5,11-11.68,21.17-18.73,30.9Z"/><polygon class="s2d-b2d4-3_12" points="932.09 421.2 1029.29 464.38 1028.25 466.68 931.42 422.69 932.09 421.2"/><ellipse class="s2d-b2d4-3_41" cx="1125.23" cy="525.81" rx="1.8" ry="6.48" transform="translate(-5.48 11.9) rotate(-0.6)"/><ellipse class="s2d-b2d4-3_41" cx="1125.43" cy="545.11" rx="1.8" ry="6.48" transform="matrix(1, -0.01, 0.01, 1, -5.69, 11.9)"/><ellipse class="s2d-b2d4-3_41" cx="1115.68" cy="535.56" rx="6.48" ry="1.8" transform="translate(-5.59 11.8) rotate(-0.6)"/><ellipse class="s2d-b2d4-3_41" cx="1134.98" cy="535.36" rx="6.48" ry="1.8" transform="translate(-5.58 12) rotate(-0.6)"/><ellipse class="s2d-b2d4-3_41" cx="1133.14" cy="394.27" rx="1.28" ry="4.63" transform="translate(-4.1 11.97) rotate(-0.6)"/><ellipse class="s2d-b2d4-3_41" cx="1126.18" cy="387.45" rx="4.63" ry="1.28" transform="translate(-4.02 11.9) rotate(-0.6)"/><ellipse class="s2d-b2d4-3_41" cx="1169.27" cy="435.97" rx="1.1" ry="3.98" transform="translate(-4.53 12.36) rotate(-0.6)"/><ellipse class="s2d-b2d4-3_41" cx="1169.4" cy="447.81" rx="1.1" ry="3.98" transform="translate(-4.66 12.36) rotate(-0.6)"/><ellipse class="s2d-b2d4-3_41" cx="1163.41" cy="441.95" rx="3.98" ry="1.1" transform="translate(-4.6 12.3) rotate(-0.6)"/><ellipse class="s2d-b2d4-3_41" cx="1175.26" cy="441.83" rx="3.98" ry="1.1" transform="translate(-4.6 12.42) rotate(-0.6)"/><ellipse class="s2d-b2d4-3_41" cx="1163.54" cy="501.75" rx="0.87" ry="3.13" transform="translate(-5.23 12.3) rotate(-0.6)"/><ellipse class="s2d-b2d4-3_41" cx="1163.64" cy="511.05" rx="0.87" ry="3.13" transform="translate(-5.33 12.3) rotate(-0.6)"/><ellipse class="s2d-b2d4-3_41" cx="1158.93" cy="506.45" rx="3.13" ry="0.87" transform="translate(-5.28 12.25) rotate(-0.6)"/><ellipse class="s2d-b2d4-3_41" cx="1168.24" cy="506.35" rx="3.13" ry="0.87" transform="translate(-5.28 12.35) rotate(-0.6)"/><ellipse class="s2d-b2d4-3_41" cx="1086.12" cy="496.7" rx="0.87" ry="3.13" transform="translate(-5.18 11.48) rotate(-0.6)"/><ellipse class="s2d-b2d4-3_41" cx="1086.22" cy="506" rx="0.87" ry="3.13" transform="translate(-5.28 11.49) rotate(-0.6)"/><ellipse class="s2d-b2d4-3_41" cx="1081.52" cy="501.4" rx="3.13" ry="0.87" transform="translate(-5.23 11.44) rotate(-0.6)"/><ellipse class="s2d-b2d4-3_41" cx="1090.82" cy="501.3" rx="3.13" ry="0.87" transform="translate(-5.23 11.53) rotate(-0.6)"/><ellipse class="s2d-b2d4-3_41" cx="1139.98" cy="445.37" rx="0.87" ry="3.13" transform="translate(-4.63 12.05) rotate(-0.6)"/><ellipse class="s2d-b2d4-3_41" cx="1140.07" cy="454.67" rx="0.87" ry="3.13" transform="translate(-4.73 12.05) rotate(-0.6)"/><ellipse class="s2d-b2d4-3_41" cx="1135.37" cy="450.07" rx="3.13" ry="0.87" transform="translate(-4.68 12) rotate(-0.6)"/><ellipse class="s2d-b2d4-3_41" cx="1144.68" cy="449.97" rx="3.13" ry="0.87" transform="translate(-4.68 12.1) rotate(-0.6)"/><ellipse class="s2d-b2d4-3_41" cx="1159.11" cy="566.15" rx="0.87" ry="3.13" transform="translate(-5.91 12.26) rotate(-0.6)"/><ellipse class="s2d-b2d4-3_41" cx="1159.21" cy="575.46" rx="0.87" ry="3.13" transform="translate(-6.01 12.26) rotate(-0.6)"/><ellipse class="s2d-b2d4-3_41" cx="1154.51" cy="570.85" rx="3.13" ry="0.87" transform="translate(-5.96 12.21) rotate(-0.6)"/><ellipse class="s2d-b2d4-3_41" cx="1163.81" cy="570.76" rx="3.13" ry="0.87" transform="matrix(1, -0.01, 0.01, 1, -5.96, 12.31)"/><ellipse class="s2d-b2d4-3_12" cx="1109.39" cy="452.07" rx="1.28" ry="4.63" transform="translate(-4.71 11.73) rotate(-0.6)"/><ellipse class="s2d-b2d4-3_12" cx="1109.54" cy="465.84" rx="1.28" ry="4.63" transform="translate(-4.85 11.73) rotate(-0.6)"/><ellipse class="s2d-b2d4-3_12" cx="1102.58" cy="459.02" rx="4.63" ry="1.28" transform="translate(-4.78 11.66) rotate(-0.6)"/><ellipse class="s2d-b2d4-3_12" cx="1116.35" cy="458.88" rx="4.63" ry="1.28" transform="translate(-4.78 11.8) rotate(-0.6)"/><ellipse class="s2d-b2d4-3_12" cx="1126.26" cy="433.67" rx="0.63" ry="2.29" transform="translate(-4.51 11.9) rotate(-0.6)"/><ellipse class="s2d-b2d4-3_12" cx="1126.33" cy="440.48" rx="0.63" ry="2.29" transform="translate(-4.58 11.91) rotate(-0.6)"/><ellipse class="s2d-b2d4-3_12" cx="1122.89" cy="437.11" rx="2.29" ry="0.63" transform="translate(-4.55 11.87) rotate(-0.6)"/><ellipse class="s2d-b2d4-3_12" cx="1129.7" cy="437.04" rx="2.29" ry="0.63" transform="translate(-4.55 11.94) rotate(-0.6)"/><ellipse class="s2d-b2d4-3_12" cx="1076.61" cy="476.58" rx="0.63" ry="2.29" transform="translate(-4.97 11.38) rotate(-0.6)"/><ellipse class="s2d-b2d4-3_12" cx="1076.68" cy="483.39" rx="0.63" ry="2.29" transform="matrix(1, -0.01, 0.01, 1, -5.04, 11.38)"/><ellipse class="s2d-b2d4-3_12" cx="1073.24" cy="480.02" rx="2.29" ry="0.63" transform="translate(-5 11.35) rotate(-0.6)"/><ellipse class="s2d-b2d4-3_12" cx="1080.05" cy="479.95" rx="2.29" ry="0.63" transform="translate(-5 11.42) rotate(-0.6)"/><ellipse class="s2d-b2d4-3_12" cx="1104.61" cy="399.8" rx="1.8" ry="6.48" transform="translate(-4.16 11.67) rotate(-0.6)"/><ellipse class="s2d-b2d4-3_12" cx="1104.82" cy="419.09" rx="1.8" ry="6.48" transform="translate(-4.36 11.68) rotate(-0.6)"/><ellipse class="s2d-b2d4-3_12" cx="1095.07" cy="409.55" rx="6.48" ry="1.8" transform="translate(-4.26 11.57) rotate(-0.6)"/><ellipse class="s2d-b2d4-3_12" cx="1114.36" cy="409.34" rx="6.48" ry="1.8" transform="translate(-4.26 11.78) rotate(-0.6)"/><ellipse class="s2d-b2d4-3_12" cx="1157.86" cy="465.76" rx="1.31" ry="4.72" transform="translate(-4.85 12.24) rotate(-0.6)"/><ellipse class="s2d-b2d4-3_12" cx="1158.01" cy="479.83" rx="1.31" ry="4.72" transform="matrix(1, -0.01, 0.01, 1, -5, 12.24)"/><ellipse class="s2d-b2d4-3_12" cx="1150.91" cy="472.87" rx="4.72" ry="1.31" transform="translate(-4.92 12.17) rotate(-0.6)"/><ellipse class="s2d-b2d4-3_12" cx="1164.97" cy="472.72" rx="4.72" ry="1.31" transform="translate(-4.92 12.32) rotate(-0.6)"/><ellipse class="s2d-b2d4-3_12" cx="1062.87" cy="413.87" rx="1.31" ry="4.72" transform="translate(-4.31 11.23) rotate(-0.6)"/><ellipse class="s2d-b2d4-3_12" cx="1063.02" cy="427.93" rx="1.31" ry="4.72" transform="translate(-4.45 11.24) rotate(-0.6)"/><ellipse class="s2d-b2d4-3_12" cx="1055.92" cy="420.97" rx="4.72" ry="1.31" transform="translate(-4.38 11.16) rotate(-0.6)"/><ellipse class="s2d-b2d4-3_12" cx="1069.98" cy="420.82" rx="4.72" ry="1.31" transform="translate(-4.38 11.31) rotate(-0.6)"/><ellipse class="s2d-b2d4-3_12" cx="1131.78" cy="481.83" rx="1.8" ry="6.48" transform="matrix(1, -0.01, 0.01, 1, -5.02, 11.97)"/><ellipse class="s2d-b2d4-3_12" cx="1131.98" cy="501.12" rx="1.8" ry="6.48" transform="translate(-5.22 11.97) rotate(-0.6)"/><ellipse class="s2d-b2d4-3_12" cx="1122.23" cy="491.58" rx="6.48" ry="1.8" transform="translate(-5.12 11.87) rotate(-0.6)"/><ellipse class="s2d-b2d4-3_12" cx="1141.53" cy="491.38" rx="6.48" ry="1.8" transform="translate(-5.12 12.07) rotate(-0.6)"/><ellipse class="s2d-b2d4-3_12" cx="1163.47" cy="532.66" rx="1.28" ry="4.63" transform="translate(-5.55 12.3) rotate(-0.6)"/><ellipse class="s2d-b2d4-3_12" cx="1163.61" cy="546.43" rx="1.28" ry="4.63" transform="translate(-5.7 12.3) rotate(-0.6)"/><ellipse class="s2d-b2d4-3_12" cx="1156.65" cy="539.62" rx="4.63" ry="1.28" transform="translate(-5.63 12.23) rotate(-0.6)"/><ellipse class="s2d-b2d4-3_12" cx="1170.42" cy="539.47" rx="4.63" ry="1.28" transform="translate(-5.63 12.38) rotate(-0.6)"/><ellipse class="s2d-b2d4-3_12" cx="1083.24" cy="547.09" rx="0.87" ry="3.13" transform="translate(-5.71 11.46) rotate(-0.6)"/><ellipse class="s2d-b2d4-3_12" cx="1083.34" cy="556.39" rx="0.87" ry="3.13" transform="translate(-5.81 11.46) rotate(-0.6)"/><ellipse class="s2d-b2d4-3_12" cx="1078.64" cy="551.79" rx="3.13" ry="0.87" transform="translate(-5.76 11.41) rotate(-0.6)"/><ellipse class="s2d-b2d4-3_12" cx="1087.94" cy="551.69" rx="3.13" ry="0.87" transform="translate(-5.76 11.51) rotate(-0.6)"/><ellipse class="s2d-b2d4-3_12" cx="1114.44" cy="568.49" rx="1.28" ry="4.63" transform="translate(-5.93 11.79) rotate(-0.6)"/><ellipse class="s2d-b2d4-3_12" cx="1114.58" cy="582.26" rx="1.28" ry="4.63" transform="translate(-6.08 11.79) rotate(-0.6)"/><ellipse class="s2d-b2d4-3_12" cx="1107.63" cy="575.44" rx="4.63" ry="1.28" transform="translate(-6.01 11.72) rotate(-0.6)"/><ellipse class="s2d-b2d4-3_12" cx="1121.4" cy="575.3" rx="4.63" ry="1.28" transform="translate(-6.01 11.86) rotate(-0.6)"/><ellipse class="s2d-b2d4-3_42" cx="1100.74" cy="521.99" rx="0.87" ry="3.13" transform="translate(-5.44 11.64) rotate(-0.6)"/><ellipse class="s2d-b2d4-3_42" cx="1137.62" cy="567.22" rx="0.87" ry="3.13" transform="translate(-5.92 12.03) rotate(-0.6)"/><ellipse class="s2d-b2d4-3_42" cx="1174.49" cy="486.6" rx="0.87" ry="3.13" transform="translate(-5.07 12.42) rotate(-0.6)"/><ellipse class="s2d-b2d4-3_42" cx="1081.62" cy="401.42" rx="0.87" ry="3.13" transform="translate(-4.17 11.43) rotate(-0.6)"/><ellipse class="s2d-b2d4-3_42" cx="1118.65" cy="396.37" rx="0.87" ry="3.13" transform="translate(-4.12 11.82) rotate(-0.6)"/><ellipse class="s2d-b2d4-3_42" cx="1078.64" cy="578.94" rx="3.13" ry="0.87" transform="translate(-6.05 11.41) rotate(-0.6)"/><ellipse class="s2d-b2d4-3_42" cx="1177.46" cy="583.86" rx="3.13" ry="0.87" transform="translate(-6.09 12.45) rotate(-0.6)"/><ellipse class="s2d-b2d4-3_42" cx="1157.82" cy="425.32" rx="3.13" ry="0.87" transform="translate(-4.42 12.24) rotate(-0.6)"/><ellipse class="s2d-b2d4-3_42" cx="1054.16" cy="449.22" rx="3.13" ry="0.87" transform="translate(-4.68 11.14) rotate(-0.6)"/><ellipse class="s2d-b2d4-3_42" cx="1098.76" cy="481.2" rx="3.13" ry="0.87" transform="translate(-5.01 11.62) rotate(-0.6)"/><ellipse class="s2d-b2d4-3_42" cx="1074.32" cy="454.63" rx="3.13" ry="0.87" transform="translate(-4.74 11.36) rotate(-0.6)"/><ellipse class="s2d-b2d4-3_42" cx="1145.6" cy="519.03" rx="3.13" ry="0.87" transform="translate(-5.41 12.11) rotate(-0.6)"/><circle class="s2d-b2d4-3_8" cx="1188.63" cy="631.49" r="0.13"/><path class="s2d-b2d4-3_8" d="M1175.58,632.86a.84.84,0,1,1,0-1.67.84.84,0,0,1,0,1.67Z"/><circle class="s2d-b2d4-3_8" cx="1162.52" cy="632.37" r="1.11"/><circle class="s2d-b2d4-3_8" cx="1149.46" cy="632.54" r="0.95"/><path class="s2d-b2d4-3_8" d="M1136.4,633a.45.45,0,1,1,.44-.44A.45.45,0,0,1,1136.4,633Z"/><path class="s2d-b2d4-3_8" d="M1123.33,632.83a.47.47,0,1,1,.47-.47A.47.47,0,0,1,1123.33,632.83Z"/><path class="s2d-b2d4-3_8" d="M1110.28,632.9a.93.93,0,1,1,0-1.85.93.93,0,0,1,0,1.85Z"/><circle class="s2d-b2d4-3_8" cx="1097.23" cy="631.34" r="1.2"/><circle class="s2d-b2d4-3_8" cx="1084.2" cy="630.41" r="1.35"/><path class="s2d-b2d4-3_8" d="M1071.2,630.34a1.22,1.22,0,1,1,1.22-1.22A1.22,1.22,0,0,1,1071.2,630.34Z"/><circle class="s2d-b2d4-3_8" cx="1058.25" cy="627.35" r="0.84"/><path class="s2d-b2d4-3_8" d="M1045.7,625.15a.18.18,0,0,1-.17-.17.18.18,0,0,1,.17-.18.18.18,0,0,1,.18.18A.18.18,0,0,1,1045.7,625.15Z"/><circle class="s2d-b2d4-3_8" cx="1028.56" cy="586.78" r="1"/><path class="s2d-b2d4-3_8" d="M1020.59,598a1.26,1.26,0,1,1,1.25-1.26A1.26,1.26,0,0,1,1020.59,598Z"/><circle class="s2d-b2d4-3_8" cx="1016.2" cy="609.03" r="0.93"/><path class="s2d-b2d4-3_11" d="M1159.38,727c-6.52-2.22-16.92-4.67-17.33-3.46s9.32,5.61,15.85,7.83,7.38,1.42,7.79.22S1165.91,729.19,1159.38,727Z"/><path class="s2d-b2d4-3_11" d="M1132,744.09c2.23-6.53,4.67-16.93,3.47-17.34s-5.62,9.32-7.84,15.85-1.42,7.38-.22,7.8S1129.77,750.62,1132,744.09Z"/><path class="s2d-b2d4-3_11" d="M1125,702.46c3,6.19,8.66,15.27,9.81,14.71s-2.62-10.56-5.67-16.75-4.22-6.23-5.36-5.66S1122,696.27,1125,702.46Z"/><path class="s2d-b2d4-3_11" d="M1149.23,741.2c-3-6.19-8.66-15.27-9.81-14.71s2.62,10.56,5.67,16.75,4.22,6.23,5.36,5.67S1152.28,747.39,1149.23,741.2Z"/><path class="s2d-b2d4-3_11" d="M1117.76,733.93c6.19-3,15.27-8.66,14.71-9.81s-10.56,2.63-16.75,5.67-6.23,4.22-5.67,5.36S1111.57,737,1117.76,733.93Z"/><path class="s2d-b2d4-3_11" d="M1156.5,709.73c-6.19,3-15.27,8.66-14.71,9.81s10.56-2.62,16.75-5.67,6.23-4.22,5.67-5.36S1162.69,706.68,1156.5,709.73Z"/><path class="s2d-b2d4-3_11" d="M1114.88,716.69c6.53,2.23,16.92,4.67,17.33,3.47s-9.32-5.62-15.85-7.84-7.38-1.42-7.79-.21S1108.35,714.47,1114.88,716.69Z"/><path class="s2d-b2d4-3_11" d="M1142.27,699.58c-2.22,6.53-4.67,16.92-3.47,17.33s5.62-9.32,7.84-15.85,1.42-7.38.22-7.79S1144.49,693.05,1142.27,699.58Z"/><path class="s2d-b2d4-3_18" d="M1113.77,702.87c3,2.59,7.88,6.14,8.36,5.59s-3.67-5-6.62-7.57-3.58-2.35-4.06-1.81S1110.82,700.28,1113.77,702.87Z"/><path class="s2d-b2d4-3_18" d="M1159.08,739.62c-2.95-2.59-7.88-6.14-8.36-5.59s3.68,5,6.62,7.57,3.58,2.36,4.06,1.81S1162,742.22,1159.08,739.62Z"/><path class="s2d-b2d4-3_18" d="M1119,744.84c2.59-3,6.14-7.88,5.6-8.36s-5,3.68-7.58,6.62-2.35,3.58-1.81,4.06S1116.43,747.79,1119,744.84Z"/><path class="s2d-b2d4-3_18" d="M1155.42,699.19c-2.59,2.95-6.14,7.88-5.6,8.36s5-3.68,7.58-6.63,2.35-3.57,1.81-4S1158,696.24,1155.42,699.19Z"/><path class="s2d-b2d4-3_18" d="M1107.25,725.23c3.92-.26,9.92-1.23,9.87-2s-6.12-.92-10-.67-4.2.86-4.15,1.59S1103.34,725.48,1107.25,725.23Z"/><path class="s2d-b2d4-3_18" d="M1166,718.34c-3.92.26-9.92,1.23-9.87,2s6.12.92,10,.67,4.19-.86,4.14-1.59S1169.88,718.09,1166,718.34Z"/><path class="s2d-b2d4-3_18" d="M1140.16,750.05c-.25-3.92-1.23-9.91-2-9.87s-.92,6.12-.67,10,.86,4.2,1.58,4.15S1140.41,754,1140.16,750.05Z"/><path class="s2d-b2d4-3_18" d="M1134.39,691.6c.25,3.92,1.23,9.92,1.95,9.87s.93-6.12.67-10-.86-4.19-1.58-4.15S1134.14,687.68,1134.39,691.6Z"/><path class="s2d-b2d4-3_11" d="M1148.45,868.34c-6.53-2.22-16.93-4.67-17.34-3.46s9.32,5.61,15.85,7.83,7.38,1.43,7.8.22S1155,870.57,1148.45,868.34Z"/><path class="s2d-b2d4-3_11" d="M1121.05,885.46c2.23-6.53,4.67-16.93,3.47-17.34s-5.62,9.32-7.84,15.85-1.42,7.39-.22,7.8S1118.83,892,1121.05,885.46Z"/><path class="s2d-b2d4-3_11" d="M1114.09,843.83c3,6.19,8.66,15.27,9.81,14.71s-2.62-10.56-5.67-16.75-4.22-6.23-5.36-5.66S1111,837.64,1114.09,843.83Z"/><path class="s2d-b2d4-3_11" d="M1138.29,882.57c-3-6.19-8.66-15.27-9.81-14.71s2.63,10.56,5.67,16.75,4.22,6.23,5.36,5.67S1141.34,888.76,1138.29,882.57Z"/><path class="s2d-b2d4-3_11" d="M1106.82,875.31c6.19-3,15.27-8.67,14.71-9.81s-10.56,2.62-16.75,5.66-6.23,4.22-5.66,5.36S1100.63,878.35,1106.82,875.31Z"/><path class="s2d-b2d4-3_11" d="M1145.56,851.1c-6.19,3-15.27,8.67-14.71,9.81s10.56-2.62,16.75-5.67,6.23-4.21,5.67-5.36S1151.75,848.05,1145.56,851.1Z"/><path class="s2d-b2d4-3_11" d="M1103.94,858.07c6.53,2.22,16.92,4.67,17.33,3.46s-9.32-5.61-15.85-7.84-7.38-1.42-7.79-.21S1097.41,855.84,1103.94,858.07Z"/><path class="s2d-b2d4-3_11" d="M1131.33,841c-2.22,6.53-4.67,16.92-3.46,17.34s5.61-9.32,7.83-15.85,1.42-7.39.22-7.8S1133.55,834.42,1131.33,841Z"/><path class="s2d-b2d4-3_18" d="M1102.83,844.24c3,2.59,7.88,6.14,8.36,5.6s-3.67-5-6.62-7.57-3.58-2.36-4.06-1.82S1099.88,841.65,1102.83,844.24Z"/><path class="s2d-b2d4-3_18" d="M1148.14,881c-3-2.59-7.88-6.15-8.36-5.6s3.68,5,6.62,7.57,3.58,2.36,4.06,1.81S1151.09,883.59,1148.14,881Z"/><path class="s2d-b2d4-3_18" d="M1108.08,886.21c2.59-3,6.14-7.88,5.6-8.36s-5,3.68-7.58,6.63-2.35,3.57-1.81,4S1105.49,889.16,1108.08,886.21Z"/><path class="s2d-b2d4-3_18" d="M1144.48,840.56c-2.59,3-6.14,7.88-5.6,8.36s5-3.68,7.58-6.63,2.35-3.57,1.81-4S1147.07,837.61,1144.48,840.56Z"/><path class="s2d-b2d4-3_18" d="M1096.31,866.6c3.92-.25,9.92-1.23,9.87-2s-6.12-.93-10-.67-4.2.86-4.15,1.58S1092.4,866.85,1096.31,866.6Z"/><path class="s2d-b2d4-3_18" d="M1155,859.72c-3.92.25-9.92,1.22-9.87,1.95s6.12.92,10,.67,4.19-.86,4.14-1.59S1158.94,859.46,1155,859.72Z"/><path class="s2d-b2d4-3_18" d="M1129.22,891.42c-.25-3.91-1.23-9.91-2-9.86s-.92,6.12-.67,10,.86,4.2,1.58,4.15S1129.47,895.34,1129.22,891.42Z"/><path class="s2d-b2d4-3_18" d="M1123.45,833c.26,3.92,1.23,9.92,2,9.87s.92-6.12.67-10-.86-4.19-1.59-4.14S1123.2,829.06,1123.45,833Z"/><path class="s2d-b2d4-3_11" d="M1096.55,793.73c-5.86-2-15.19-4.19-15.56-3.1s8.36,5,14.22,7,6.63,1.27,7,.19S1102.41,795.73,1096.55,793.73Z"/><path class="s2d-b2d4-3_11" d="M1072,809.1c2-5.87,4.19-15.19,3.1-15.56s-5,8.36-7,14.22-1.28,6.63-.19,7S1070,815,1072,809.1Z"/><path class="s2d-b2d4-3_11" d="M1065.71,771.74c2.74,5.55,7.78,13.7,8.81,13.2s-2.35-9.48-5.09-15-3.78-5.59-4.81-5.09S1063,766.19,1065.71,771.74Z"/><path class="s2d-b2d4-3_11" d="M1087.44,806.51c-2.73-5.56-7.78-13.71-8.8-13.2s2.35,9.47,5.08,15,3.78,5.59,4.81,5.08S1090.17,812.06,1087.44,806.51Z"/><path class="s2d-b2d4-3_11" d="M1059.19,800c5.56-2.73,13.71-7.77,13.2-8.8s-9.47,2.35-15,5.09-5.59,3.78-5.08,4.81S1053.64,802.72,1059.19,800Z"/><path class="s2d-b2d4-3_11" d="M1094,778.26c-5.55,2.73-13.7,7.78-13.2,8.8s9.47-2.35,15-5.08,5.59-3.79,5.09-4.81S1099.51,775.53,1094,778.26Z"/><path class="s2d-b2d4-3_11" d="M1056.6,784.51c5.86,2,15.19,4.19,15.56,3.11s-8.36-5-14.22-7-6.63-1.28-7-.2S1050.74,782.52,1056.6,784.51Z"/><path class="s2d-b2d4-3_11" d="M1081.19,769.15c-2,5.86-4.19,15.19-3.11,15.56s5-8.36,7-14.22,1.28-6.63.2-7S1083.18,763.29,1081.19,769.15Z"/><path class="s2d-b2d4-3_18" d="M1055.61,772.1c2.65,2.33,7.08,5.52,7.51,5s-3.3-4.47-5.95-6.8-3.21-2.11-3.64-1.62S1053,769.78,1055.61,772.1Z"/><path class="s2d-b2d4-3_18" d="M1096.27,805.09c-2.64-2.32-7.07-5.51-7.5-5s3.3,4.47,6,6.79,3.2,2.12,3.63,1.63S1098.92,807.42,1096.27,805.09Z"/><path class="s2d-b2d4-3_18" d="M1060.32,809.77c2.33-2.65,5.51-7.07,5-7.5s-4.47,3.3-6.8,5.94-2.12,3.21-1.63,3.64S1058,812.42,1060.32,809.77Z"/><path class="s2d-b2d4-3_18" d="M1093,768.8c-2.32,2.65-5.51,7.07-5,7.5s4.47-3.3,6.79-5.94,2.12-3.21,1.63-3.64S1095.32,766.16,1093,768.8Z"/><path class="s2d-b2d4-3_18" d="M1049.77,792.17c3.51-.23,8.89-1.1,8.85-1.75s-5.49-.83-9-.6-3.76.77-3.72,1.42S1046.25,792.4,1049.77,792.17Z"/><path class="s2d-b2d4-3_18" d="M1102.46,786c-3.52.23-8.9,1.1-8.86,1.75s5.49.83,9,.61,3.76-.78,3.72-1.43S1106,785.77,1102.46,786Z"/><path class="s2d-b2d4-3_18" d="M1079.3,814.45c-.23-3.52-1.11-8.9-1.76-8.86s-.82,5.5-.6,9,.77,3.77,1.42,3.72S1079.52,818,1079.3,814.45Z"/><path class="s2d-b2d4-3_18" d="M1074.12,762c.23,3.52,1.1,8.9,1.75,8.86s.83-5.49.6-9-.77-3.76-1.42-3.72S1073.89,758.48,1074.12,762Z"/><path class="s2d-b2d4-3_11" d="M1222.92,922.16c-3.73-1.27-9.67-2.66-9.9-2s5.32,3.2,9,4.47,4.22.81,4.46.13S1226.65,923.43,1222.92,922.16Z"/><path class="s2d-b2d4-3_11" d="M1207.27,931.94c1.27-3.73,2.67-9.67,2-9.9s-3.21,5.32-4.48,9.05-.81,4.22-.12,4.46S1206,935.67,1207.27,931.94Z"/><path class="s2d-b2d4-3_11" d="M1203.29,908.16c1.74,3.54,5,8.73,5.61,8.4s-1.5-6-3.24-9.56-2.41-3.56-3.06-3.24S1201.55,904.63,1203.29,908.16Z"/><path class="s2d-b2d4-3_11" d="M1217.12,930.29c-1.74-3.53-4.95-8.72-5.6-8.4s1.49,6,3.23,9.57,2.41,3.56,3.07,3.24S1218.86,933.83,1217.12,930.29Z"/><path class="s2d-b2d4-3_11" d="M1199.14,926.14c3.54-1.74,8.72-4.95,8.4-5.6s-6,1.5-9.57,3.24-3.55,2.41-3.23,3.06S1195.6,927.88,1199.14,926.14Z"/><path class="s2d-b2d4-3_11" d="M1221.27,912.31c-3.53,1.74-8.72,5-8.4,5.61s6-1.5,9.57-3.24,3.56-2.41,3.24-3.06S1224.81,910.57,1221.27,912.31Z"/><path class="s2d-b2d4-3_11" d="M1197.49,916.29c3.73,1.27,9.67,2.67,9.91,2s-5.33-3.2-9.06-4.48-4.22-.81-4.45-.12S1193.76,915,1197.49,916.29Z"/><path class="s2d-b2d4-3_11" d="M1213.14,906.51c-1.27,3.73-2.67,9.67-2,9.91s3.21-5.33,4.48-9.06.81-4.22.12-4.45S1214.41,902.78,1213.14,906.51Z"/><path class="s2d-b2d4-3_18" d="M1196.86,908.39c1.69,1.48,4.5,3.51,4.78,3.2s-2.1-2.84-3.79-4.32-2-1.35-2.31-1S1195.18,906.91,1196.86,908.39Z"/><path class="s2d-b2d4-3_18" d="M1222.75,929.39c-1.69-1.48-4.51-3.51-4.78-3.19s2.1,2.84,3.78,4.32,2,1.35,2.32,1S1224.43,930.87,1222.75,929.39Z"/><path class="s2d-b2d4-3_18" d="M1199.86,932.37c1.48-1.68,3.51-4.5,3.2-4.77s-2.85,2.1-4.33,3.78-1.35,2-1,2.32S1198.38,934.06,1199.86,932.37Z"/><path class="s2d-b2d4-3_18" d="M1220.66,906.29c-1.48,1.69-3.51,4.5-3.2,4.78s2.84-2.1,4.32-3.79,1.35-2,1-2.31S1222.14,904.61,1220.66,906.29Z"/><path class="s2d-b2d4-3_18" d="M1193.14,921.17c2.24-.15,5.66-.7,5.64-1.12s-3.5-.52-5.74-.38-2.4.49-2.37.91S1190.9,921.31,1193.14,921.17Z"/><path class="s2d-b2d4-3_18" d="M1226.68,917.24c-2.24.14-5.66.7-5.64,1.11s3.5.53,5.74.38,2.39-.49,2.37-.9S1228.92,917.09,1226.68,917.24Z"/><path class="s2d-b2d4-3_18" d="M1211.94,935.35c-.15-2.24-.7-5.66-1.12-5.64s-.52,3.5-.38,5.74.49,2.39.9,2.37S1212.08,937.59,1211.94,935.35Z"/><path class="s2d-b2d4-3_18" d="M1208.64,902c.15,2.24.7,5.66,1.12,5.64s.52-3.5.38-5.74-.49-2.4-.9-2.37S1208.5,899.72,1208.64,902Z"/><path class="s2d-b2d4-3_11" d="M1066.4,927.21c-3.73-1.27-9.67-2.67-9.9-2s5.32,3.21,9,4.48,4.22.81,4.46.12S1070.13,928.48,1066.4,927.21Z"/><path class="s2d-b2d4-3_11" d="M1050.75,937c1.27-3.73,2.67-9.67,2-9.9s-3.21,5.32-4.48,9-.81,4.22-.12,4.46S1049.48,940.72,1050.75,937Z"/><path class="s2d-b2d4-3_11" d="M1046.77,913.21c1.74,3.54,5,8.73,5.61,8.4s-1.5-6-3.24-9.56-2.41-3.56-3.06-3.24S1045,909.67,1046.77,913.21Z"/><path class="s2d-b2d4-3_11" d="M1060.6,935.34c-1.74-3.53-4.95-8.72-5.6-8.4s1.49,6,3.23,9.57,2.41,3.56,3.07,3.24S1062.34,938.88,1060.6,935.34Z"/><path class="s2d-b2d4-3_11" d="M1042.62,931.19c3.54-1.74,8.72-5,8.4-5.6s-6,1.49-9.56,3.23-3.56,2.41-3.24,3.07S1039.08,932.93,1042.62,931.19Z"/><path class="s2d-b2d4-3_11" d="M1064.75,917.36c-3.53,1.74-8.72,4.95-8.4,5.61s6-1.5,9.57-3.24,3.56-2.41,3.24-3.06S1068.29,915.62,1064.75,917.36Z"/><path class="s2d-b2d4-3_11" d="M1041,921.34c3.73,1.27,9.67,2.67,9.91,2s-5.33-3.21-9.06-4.48-4.22-.81-4.45-.12S1037.24,920.07,1041,921.34Z"/><path class="s2d-b2d4-3_11" d="M1056.62,911.56c-1.27,3.73-2.67,9.67-2,9.91s3.21-5.33,4.48-9.06.81-4.22.12-4.45S1057.89,907.83,1056.62,911.56Z"/><path class="s2d-b2d4-3_18" d="M1040.34,913.44c1.69,1.48,4.5,3.51,4.78,3.2s-2.1-2.84-3.79-4.33-2-1.34-2.31-1S1038.66,912,1040.34,913.44Z"/><path class="s2d-b2d4-3_18" d="M1066.23,934.44c-1.69-1.48-4.51-3.51-4.78-3.19s2.1,2.84,3.79,4.32,2,1.35,2.31,1S1067.91,935.92,1066.23,934.44Z"/><path class="s2d-b2d4-3_18" d="M1043.34,937.42c1.48-1.68,3.51-4.5,3.2-4.77s-2.85,2.1-4.33,3.78-1.35,2-1,2.32S1041.86,939.11,1043.34,937.42Z"/><path class="s2d-b2d4-3_18" d="M1064.14,911.34c-1.48,1.68-3.51,4.5-3.2,4.78s2.84-2.1,4.33-3.79,1.34-2,1-2.31S1065.62,909.66,1064.14,911.34Z"/><path class="s2d-b2d4-3_18" d="M1036.62,926.22c2.24-.15,5.66-.7,5.64-1.12s-3.5-.52-5.74-.38-2.4.49-2.37.9S1034.38,926.36,1036.62,926.22Z"/><path class="s2d-b2d4-3_18" d="M1070.16,922.28c-2.24.15-5.66.71-5.64,1.12s3.5.53,5.74.38,2.39-.49,2.37-.9S1072.4,922.14,1070.16,922.28Z"/><path class="s2d-b2d4-3_18" d="M1055.42,940.4c-.15-2.24-.7-5.66-1.12-5.64s-.52,3.5-.38,5.74.49,2.39.9,2.37S1055.56,942.64,1055.42,940.4Z"/><path class="s2d-b2d4-3_18" d="M1052.12,907c.15,2.23.7,5.66,1.12,5.63s.52-3.49.38-5.73-.49-2.4-.9-2.37S1052,904.77,1052.12,907Z"/><path class="s2d-b2d4-3_43" d="M1036.81,743.76c-.54,6-.92,11.54-1.11,16.4"/><path class="s2d-b2d4-3_43" d="M1053.66,661.79a180.71,180.71,0,0,0-7.19,20.56c-2.87,10.1-6,29.15-8.21,47.58"/><path class="s2d-b2d4-3_43" d="M1217.43,846.4s15.94,40.47,37,56.45"/><path class="s2d-b2d4-3_43" d="M1006.85,891.9s14.46-32.8,14.46-63.1"/><path class="s2d-b2d4-3_43" d="M1127.54,790.27a52.92,52.92,0,0,0,7.12,12.21c6.81,8.78,15.9,15.53,25.31,21.44"/><path class="s2d-b2d4-3_43" d="M1124.45,771.55a36.53,36.53,0,0,0,.13,7.54"/><path class="s2d-b2d4-3_43" d="M1034.24,894.06a17.13,17.13,0,0,1-6.27,6.54"/><path class="s2d-b2d4-3_43" d="M1082.67,838.7a42.9,42.9,0,0,1-17.46,25.53c-7.82,5.34-17.65,8.25-23.38,15.79a32.51,32.51,0,0,0-3,4.86"/><path class="s2d-b2d4-3_43" d="M1200.43,705.63c-1.67,16.87-9.21,32.62-12.07,49.32-1.87,10.92-1.71,22.08-1.55,33.16"/><circle class="s2d-b2d4-3_8" cx="1093.68" cy="747.18" r="4.21"/><circle class="s2d-b2d4-3_8" cx="1052.44" cy="835.53" r="4.21"/><circle class="s2d-b2d4-3_8" cx="1083.58" cy="895.28" r="4.21"/><circle class="s2d-b2d4-3_8" cx="1255.25" cy="923.89" r="4.21"/><circle class="s2d-b2d4-3_44" cx="1230.84" cy="948.3" r="4.21"/><circle class="s2d-b2d4-3_44" cx="1115.98" cy="947.87" r="4.21"/><circle class="s2d-b2d4-3_44" cx="1119.34" cy="809.03" r="4.21"/><circle class="s2d-b2d4-3_44" cx="1066.33" cy="681.96" r="4.21"/><circle class="s2d-b2d4-3_44" cx="1027.62" cy="799.77" r="4.21"/><circle class="s2d-b2d4-3_44" cx="1181.61" cy="681.96" r="4.21"/><circle class="s2d-b2d4-3_8" cx="1186.24" cy="864.99" r="4.21"/><circle class="s2d-b2d4-3_45" cx="1169.83" cy="900.75" r="7.57"/><circle class="s2d-b2d4-3_45" cx="1083.16" cy="710.57" r="7.57"/><circle class="s2d-b2d4-3_45" cx="1159.74" cy="779.57" r="7.57"/><circle class="s2d-b2d4-3_45" cx="1009.11" cy="940.3" r="7.57"/><path class="s2d-b2d4-3_18" d="M1063.28,721.64c0,7.41,6,12.62,13.15,12.51-7.11.11-13,5.68-13.19,12.45.18-6.77-5.44-12.16-12.55-12.05A13,13,0,0,0,1063.28,721.64Z"/><path class="s2d-b2d4-3_18" d="M1181.09,815.89c0,7.41,6,12.62,13.15,12.51-7.11.11-13,5.68-13.19,12.44.18-6.76-5.44-12.15-12.55-12A13,13,0,0,0,1181.09,815.89Z"/><path class="s2d-b2d4-3_18" d="M1106.2,905.93c0,7.41,6,12.62,13.15,12.51-7.11.11-13,5.68-13.19,12.45.17-6.77-5.44-12.16-12.55-12A13,13,0,0,0,1106.2,905.93Z"/><path class="s2d-b2d4-3_18" d="M1169.31,930.33c0,7.41,6,12.63,13.15,12.52-7.11.11-13,5.68-13.19,12.44.18-6.76-5.44-12.16-12.55-12A13,13,0,0,0,1169.31,930.33Z"/><path class="s2d-b2d4-3_18" d="M1292.17,922.76c0,7.41,6,12.62,13.15,12.51-7.11.11-13,5.68-13.19,12.45.18-6.77-5.44-12.16-12.55-12.05A13,13,0,0,0,1292.17,922.76Z"/></g><g class="s2d-b2d4-3_46"><rect class="s2d-b2d4-3_47" x="448.84" y="536.39" width="65" height="410.26" transform="translate(-274.16 282.43) rotate(-25.73)"/><path class="s2d-b2d4-3_48" d="M-5.55-13V946.72H535.62L417.94,610.37c-10.28-29.37-36.08-48.67-64.76-48.45l-47.89.38L219.07,292.05c-9.73-30.52-36-50.94-65.5-50.88l-38.25.08L38-17.55h0C31.67-38.84-5.55-35-5.55-13Z"/><rect class="s2d-b2d4-3_12" x="-408.67" y="517.07" width="531.86" height="402.13"/><path class="s2d-b2d4-3_49" d="M131.12,676.19H101.2l45.34-45.06H100.65v-69H-8.49v40.07a69.52,69.52,0,0,0,20.54,49.3l24.79,24.64h-1v243h125.7v-243Z"/><path class="s2d-b2d4-3_49" d="M198.79,403.56a61.51,61.51,0,0,0-46.24-20.89H-432.52a62.55,62.55,0,0,0-47,21.24l-139,158.27H338.07Z"/><path class="s2d-b2d4-3_12" d="M123.19,561.79V919.2H315.45L273.64,810.91a24.45,24.45,0,0,0-23-15.59l-17,.12-30.63-87a24.59,24.59,0,0,0-23.27-16.38l-13.59,0-27.46-83.32Z"/><rect class="s2d-b2d4-3_12" x="93.17" y="561.79" width="30.02" height="357.42"/><rect class="s2d-b2d4-3_48" x="93.17" y="682.17" width="72.96" height="9.9"/><rect class="s2d-b2d4-3_48" x="93.17" y="785.36" width="144.6" height="9.9"/><path class="s2d-b2d4-3_8" d="M234.92,522.15c-4.56-6.91-12.31-12-18.54-17.36l-21.87-18.72c-2.55-2.19-6.27,1.5-3.7,3.7l20.41,17.48c6.25,5.35,14.61,10.63,19.17,17.54,1.85,2.8,6.39.18,4.53-2.64Z"/><path class="s2d-b2d4-3_8" d="M19.43,523.47C10.2,511.4.67,499.55-7.87,487c-1.88-2.78-6.42-.16-4.52,2.64C-3.86,502.2,5.67,514,14.9,526.11c2,2.65,6.58,0,4.53-2.64Z"/><path class="s2d-b2d4-3_2" d="M73,523.32c-10.61-11.73-20.86-23.63-29.76-36.73-1.89-2.78-6.43-.16-4.53,2.64C47.84,502.7,58.36,515,69.28,527c2.26,2.5,6-1.21,3.7-3.71Z"/><path class="s2d-b2d4-3_8" d="M128.68,522.47l-37.6-35c-2.47-2.3-6.19,1.4-3.71,3.71l37.6,35c2.47,2.29,6.19-1.41,3.71-3.71Z"/><path class="s2d-b2d4-3_2" d="M181.24,521.8l-37.67-33.46c-2.51-2.24-6.23,1.46-3.7,3.7l37.67,33.47c2.51,2.23,6.23-1.46,3.7-3.71Z"/><path class="s2d-b2d4-3_8" d="M18.58,454.58C9.34,442.5-.18,430.66-8.72,418.08c-.57-.84-3.51.16-2.82,1.18,8.54,12.59,18.06,24.43,27.3,36.5.62.82,3.55-.22,2.82-1.18Z"/><path class="s2d-b2d4-3_2" d="M72.54,454.94c-10.77-11.89-21.15-24-30.18-37.26-.6-.89-3.54.14-2.81,1.21,9,13.29,19.41,25.37,30.17,37.27.74.82,3.65-.3,2.82-1.22Z"/><path class="s2d-b2d4-3_2" d="M128.23,454.07l-37.61-35c-.88-.82-3.75.37-2.8,1.26l37.61,35c.88.83,3.75-.37,2.8-1.26Z"/><path class="s2d-b2d4-3_8" d="M180.79,453.41,143.12,420c-.88-.78-3.74.41-2.8,1.24L178,454.66c.88.78,3.74-.42,2.8-1.25Z"/><path class="s2d-b2d4-3_49" d="M45.94,815.39a126.47,126.47,0,0,1,1.54,29.47c-.27,4.52,6.76,4.5,7,0a134.82,134.82,0,0,0-1.79-31.34c-.77-4.45-7.55-2.57-6.79,1.87Z"/><path class="s2d-b2d4-3_49" d="M-7.07,287.33H-225L-257.68,320v1.26h282A1.27,1.27,0,0,0,25.6,320h0Z"/><polygon class="s2d-b2d4-3_49" points="-33.28 321.26 -7.27 287.33 27.39 321.26 -33.28 321.26"/><rect class="s2d-b2d4-3_12" x="-408.8" y="562.18" width="531.99" height="22.8"/><path class="s2d-b2d4-3_12" d="M-815.92,916.62H526.54a30.64,30.64,0,0,1,30.64,30.64v0a0,0,0,0,1,0,0H-846.55a0,0,0,0,1,0,0v0A30.64,30.64,0,0,1-815.92,916.62Z"/><path class="s2d-b2d4-3_49" d="M-448.22-21H135.16a38,38,0,0,1,38,38v0a0,0,0,0,1,0,0H-486.25a0,0,0,0,1,0,0v0A38,38,0,0,1-448.22-21Z"/><path class="s2d-b2d4-3_2" d="M44.38,227.8h68.14l2.8,13.42H30.89A13.46,13.46,0,0,1,44.38,227.8Z"/><polygon class="s2d-b2d4-3_48" points="244.5 916.62 244.88 829.65 246.26 829.65 246.64 916.62 244.5 916.62"/><polygon class="s2d-b2d4-3_48" points="166.16 916.62 166.54 829.65 167.93 829.65 168.31 916.62 166.16 916.62"/><polygon class="s2d-b2d4-3_49" points="205.08 916.62 205.84 829.65 208.62 829.65 209.38 916.62 205.08 916.62"/><polygon class="s2d-b2d4-3_49" points="205.08 785.36 205.84 754.43 208.62 754.43 209.38 785.36 205.08 785.36"/><polygon class="s2d-b2d4-3_49" points="281.9 916.62 282.66 885.62 285.44 885.62 286.19 916.62 281.9 916.62"/><polygon class="s2d-b2d4-3_49" points="121.97 916.62 122.73 829.65 125.51 829.65 126.27 916.62 121.97 916.62"/><polygon class="s2d-b2d4-3_48" points="166.28 785.22 166.62 716.4 167.85 716.4 168.19 785.22 166.28 785.22"/><polygon class="s2d-b2d4-3_49" points="123.03 785.22 123.7 716.4 126.17 716.4 126.85 785.22 123.03 785.22"/><polygon class="s2d-b2d4-3_49" points="122.79 682.17 123.55 626.78 126.33 626.78 127.09 682.17 122.79 682.17"/><path class="s2d-b2d4-3_2" d="M182.23,547.19H342.46a0,0,0,0,1,0,0v15a0,0,0,0,1,0,0H167.23a0,0,0,0,1,0,0v0A15,15,0,0,1,182.23,547.19Z"/><path class="s2d-b2d4-3_49" d="M358.94,863.5a22.92,22.92,0,0,1,23-22.85h.26V837H360.61a5,5,0,0,1-1,1.31c-8.62,8.38-12.39,18.44-11.21,31.43-.27-.17-.53-.35-.77-.53a35.2,35.2,0,0,0,29.41,26.84l1.94-9.92A22.91,22.91,0,0,1,358.94,863.5Z"/><path class="s2d-b2d4-3_49" d="M381.93,854.13a9.37,9.37,0,1,0,0,18.74h.26V854.15Z"/><path class="s2d-b2d4-3_49" d="M369.54,826.7h7.81a35.91,35.91,0,0,1,4.67-.31h.17v-4.5h-40.9a2.39,2.39,0,0,0,.54,4.73h.24a13.47,13.47,0,0,0,2.29,0h1.85c1.61.08,3.23,0,4.84,0h.44c.6,0,1.2,0,1.8.09a15.41,15.41,0,0,0,2.42-.09h2.09a3,3,0,0,1,2.64,2.38,21,21,0,0,1,.82,4.12,34.18,34.18,0,0,1,4.67-2.87C365.86,828.19,366.82,826.69,369.54,826.7Z"/><path class="s2d-b2d4-3_49" d="M370.66,832.44c-1.69.55-4.1,2.1-4.64-1.29a7.22,7.22,0,0,1-.09-.9,34.18,34.18,0,0,0-4.67,2.87,7.38,7.38,0,0,1-.65,3.92h21.58v-6.26A34.64,34.64,0,0,0,370.66,832.44Z"/><path class="s2d-b2d4-3_49" d="M377.35,826.7h4.84v-.31H382A35.91,35.91,0,0,0,377.35,826.7Z"/><path class="s2d-b2d4-3_12" d="M382,896.44a36.47,36.47,0,0,1-4.94-.35l-4,20.53h9.12V896.43Z"/><path class="s2d-b2d4-3_12" d="M382.19,896.43V886.35h-.26a23.19,23.19,0,0,1-2.91-.19l-1.94,9.92a36.47,36.47,0,0,0,4.94.35Z"/><path class="s2d-b2d4-3_12" d="M356.72,837H336.53V814.45h45.66v-92c-1-.09-1.95.91-3,2.73-6.4,11.06-13,22-19.34,33.08-12.29,21.52-24.91,42.9-34,66-3.89,9.88-2,15.5,7,18.82,8.27,3,11,8.77,11.11,16.73,0,3.13-.26,6.49,3.7,9.44A34.87,34.87,0,0,1,356.72,837Z"/><path class="s2d-b2d4-3_12" d="M359.65,838.35a5,5,0,0,0,1-1.31h-3.89a34.87,34.87,0,0,0-9.05,32.21c.24.18.5.36.77.53C347.26,856.79,351,846.73,359.65,838.35Z"/><path class="s2d-b2d4-3_12" d="M361.26,833.12a21,21,0,0,0-.82-4.12,3,3,0,0,0-2.64-2.38h-2.09a15.41,15.41,0,0,1-2.42.09c-.6-.06-1.2-.08-1.8-.09h-.44c-1.61,0-3.23.08-4.84,0h-1.85a13.47,13.47,0,0,1-2.29,0h-.24a2.39,2.39,0,0,1-.54-4.73h40.9v-7.44H336.53V837h20.19A34,34,0,0,1,361.26,833.12Z"/><path class="s2d-b2d4-3_12" d="M361.26,833.12a34,34,0,0,0-4.54,3.92h3.89A7.38,7.38,0,0,0,361.26,833.12Z"/><path class="s2d-b2d4-3_12" d="M369.54,826.7c-2.72,0-3.68,1.49-3.61,3.55a35.31,35.31,0,0,1,11.42-3.55Z"/><path class="s2d-b2d4-3_12" d="M377.35,826.7a35.31,35.31,0,0,0-11.42,3.55,7.22,7.22,0,0,0,.09.9c.54,3.39,3,1.84,4.64,1.29a34.64,34.64,0,0,1,11.53-1.66V826.7Z"/><path class="s2d-b2d4-3_12" d="M382.19,884.8V872.86h-.26a9.37,9.37,0,1,1,0-18.74l.26,0v-13.5h-.26A22.84,22.84,0,0,0,379,886.17l.27-1.37Z"/><path class="s2d-b2d4-3_12" d="M379.29,884.8l-.27,1.37a23.19,23.19,0,0,0,2.91.19h.26V884.8Z"/><path class="s2d-b2d4-3_49" d="M391.36,863.5a9.38,9.38,0,0,0-9.17-9.35v18.71A9.4,9.4,0,0,0,391.36,863.5Z"/><path class="s2d-b2d4-3_49" d="M423.11,821.89H382.19v4.81h.11v-.08h12c2.68,0,3.82,1.4,3.78,3.63a5.62,5.62,0,0,1,0,.7c-.39,3.34-2.7,2.12-4.53,1.61a47,47,0,0,0-11.34-1.78v9.87a22.84,22.84,0,0,1,2.95,45.48l1.81,10a35.19,35.19,0,0,0,29.26-26.2l-.13.12c.76-12.75-2.7-22.79-11.15-31a7.52,7.52,0,0,1-1.51-2,8,8,0,0,1-.84-4.06,16.09,16.09,0,0,1,.92-4.47,2.78,2.78,0,0,1,1.8-1.89h4.53a9.08,9.08,0,0,0,1,0h11.7a2.39,2.39,0,0,0,.54-4.73Z"/><path class="s2d-b2d4-3_2" d="M382.19,896.43v20.19h8.49L387,896.09A37.42,37.42,0,0,1,382.19,896.43Z"/><path class="s2d-b2d4-3_2" d="M382.19,886.35v10.08a37.42,37.42,0,0,0,4.76-.34l-1.81-10A24,24,0,0,1,382.19,886.35Z"/><path class="s2d-b2d4-3_2" d="M437.47,821.92c-14.32-34-34.25-65.08-52.64-96.94-1-1.69-1.83-2.49-2.64-2.56v99.47h40.92a2.39,2.39,0,0,1-.54,4.73h-11.7a9.08,9.08,0,0,1-1,0H405.3a2.78,2.78,0,0,0-1.8,1.89,16.09,16.09,0,0,0-.92,4.47,8,8,0,0,0,.84,4.06,7.52,7.52,0,0,0,1.51,2c8.45,8.17,11.91,18.21,11.15,31l.13-.12c4.63-3.9,4-8.22,4.26-11.91.59-7.54,3.36-12.82,11.21-14.93a11.87,11.87,0,0,0,8.47-8.88C441.27,829.85,439.09,825.77,437.47,821.92Z"/><path class="s2d-b2d4-3_2" d="M394.31,826.62h-12v.08h-.11v4.08a47,47,0,0,1,11.34,1.78c1.83.51,4.14,1.73,4.53-1.61a5.62,5.62,0,0,0,0-.7C398.13,828,397,826.62,394.31,826.62Z"/><path class="s2d-b2d4-3_2" d="M391.36,863.5a9.4,9.4,0,0,1-9.17,9.36V884.8h2.7l.25,1.33a22.84,22.84,0,0,0-2.95-45.48v13.5A9.38,9.38,0,0,1,391.36,863.5Z"/><path class="s2d-b2d4-3_2" d="M384.89,884.8h-2.7v1.55a24,24,0,0,0,2.95-.22Z"/><path class="s2d-b2d4-3_49" d="M267.72,738.16a19.89,19.89,0,0,1,19.94-19.82h.22v-3.13H269.17a4.26,4.26,0,0,1-.84,1.13c-7.46,7.26-10.74,16-9.72,27.26l-.66-.46a30.51,30.51,0,0,0,25.5,23.27l1.68-8.6A19.87,19.87,0,0,1,267.72,738.16Z"/><path class="s2d-b2d4-3_49" d="M287.66,730a8.13,8.13,0,1,0,0,16.25h.22V730.05Z"/><path class="s2d-b2d4-3_49" d="M276.91,706.25h6.78a30,30,0,0,1,4-.28h.15v-3.9H252.41a2.08,2.08,0,0,0,.47,4.1h.21a12,12,0,0,0,2,0h1.61c1.39.07,2.79,0,4.19,0h.38c.52,0,1,0,1.56.07a13.69,13.69,0,0,0,2.1-.07h1.81a2.56,2.56,0,0,1,2.29,2.06,17.92,17.92,0,0,1,.71,3.57,29.86,29.86,0,0,1,4-2.48C273.72,707.54,274.56,706.24,276.91,706.25Z"/><path class="s2d-b2d4-3_49" d="M277.88,711.22c-1.46.48-3.55,1.82-4-1.11a7.37,7.37,0,0,1-.08-.78,29.86,29.86,0,0,0-4,2.48,6.41,6.41,0,0,1-.56,3.41h18.71v-5.43A29.94,29.94,0,0,0,277.88,711.22Z"/><path class="s2d-b2d4-3_49" d="M283.69,706.25h4.19V706h-.15A30,30,0,0,0,283.69,706.25Z"/><path class="s2d-b2d4-3_12" d="M287.73,766.72a30.26,30.26,0,0,1-4.28-.3L280,784.22h7.91v-17.5Z"/><path class="s2d-b2d4-3_12" d="M287.88,766.72V758h-.22a21.08,21.08,0,0,1-2.53-.16l-1.68,8.6a30.26,30.26,0,0,0,4.28.3Z"/><path class="s2d-b2d4-3_12" d="M265.79,715.22H248.28V695.63h39.6V615.81c-.87-.07-1.69.79-2.6,2.37-5.55,9.59-11.27,19.07-16.77,28.69-10.66,18.66-21.6,37.2-29.5,57.26-3.38,8.57-1.75,13.44,6.09,16.32,7.18,2.64,9.53,7.61,9.64,14.51,0,2.71-.23,5.63,3.21,8.19a30.48,30.48,0,0,1-.78-6.8A30.15,30.15,0,0,1,265.79,715.22Z"/><path class="s2d-b2d4-3_12" d="M268.33,716.35a4.26,4.26,0,0,0,.84-1.13h-3.38a30.15,30.15,0,0,0-8.62,21.13,30.48,30.48,0,0,0,.78,6.8l.66.46C257.59,732.34,260.87,723.61,268.33,716.35Z"/><path class="s2d-b2d4-3_12" d="M269.73,711.81a17.92,17.92,0,0,0-.71-3.57,2.56,2.56,0,0,0-2.29-2.06h-1.81a13.69,13.69,0,0,1-2.1.07c-.52,0-1-.07-1.56-.07h-.38c-1.4,0-2.8.07-4.19,0h-1.61a12,12,0,0,1-2,0h-.21a2.08,2.08,0,0,1-.47-4.1h35.47v-6.45h-39.6v19.59h17.51A30.4,30.4,0,0,1,269.73,711.81Z"/><path class="s2d-b2d4-3_12" d="M269.73,711.81a30.4,30.4,0,0,0-3.94,3.41h3.38A6.41,6.41,0,0,0,269.73,711.81Z"/><path class="s2d-b2d4-3_12" d="M276.91,706.25c-2.35,0-3.19,1.29-3.13,3.08a30.24,30.24,0,0,1,9.91-3.08Z"/><path class="s2d-b2d4-3_12" d="M283.69,706.25a30.24,30.24,0,0,0-9.91,3.08,7.37,7.37,0,0,0,.08.78c.47,2.93,2.56,1.59,4,1.11a29.94,29.94,0,0,1,10-1.43v-3.54Z"/><path class="s2d-b2d4-3_12" d="M287.88,756.63V746.28h-.22a8.13,8.13,0,1,1,0-16.25h.22v-11.7h-.22a19.81,19.81,0,0,0-2.53,39.48l.24-1.19Z"/><path class="s2d-b2d4-3_12" d="M285.37,756.63l-.24,1.19a21.08,21.08,0,0,0,2.53.16h.22v-1.34Z"/><path class="s2d-b2d4-3_49" d="M295.84,738.16a8.14,8.14,0,0,0-8-8.11v16.23A8.15,8.15,0,0,0,295.84,738.16Z"/><path class="s2d-b2d4-3_49" d="M323.37,702.08H287.88v4.17h.1v-.07H298.4c2.32,0,3.31,1.21,3.28,3.14,0,.2,0,.4,0,.61-.34,2.9-2.35,1.84-3.93,1.4a40.47,40.47,0,0,0-9.84-1.54v8.56a19.8,19.8,0,0,1,2.56,39.43l1.57,8.64a30.53,30.53,0,0,0,25.38-22.72l-.12.1c.67-11-2.34-19.76-9.67-26.84a6.64,6.64,0,0,1-1.3-1.74,6.88,6.88,0,0,1-.73-3.53,13.82,13.82,0,0,1,.8-3.88,2.37,2.37,0,0,1,1.56-1.63h3.93a6.76,6.76,0,0,0,.9,0H322.9a2.07,2.07,0,0,0,.47-4.1Z"/><path class="s2d-b2d4-3_2" d="M287.88,766.72v17.5h7.37L292,766.42A31.24,31.24,0,0,1,287.88,766.72Z"/><path class="s2d-b2d4-3_2" d="M287.88,758v8.75a31.24,31.24,0,0,0,4.13-.3l-1.57-8.64A18,18,0,0,1,287.88,758Z"/><path class="s2d-b2d4-3_2" d="M335.83,702.1c-12.42-29.52-29.71-56.44-45.66-84.07-.84-1.46-1.58-2.15-2.29-2.22v86.27h35.49a2.07,2.07,0,0,1-.47,4.1H312.76a6.76,6.76,0,0,1-.9,0h-3.93a2.37,2.37,0,0,0-1.56,1.63,13.82,13.82,0,0,0-.8,3.88,6.88,6.88,0,0,0,.73,3.53,6.64,6.64,0,0,0,1.3,1.74c7.33,7.08,10.34,15.79,9.67,26.84l.12-.1c4-3.38,3.44-7.12,3.69-10.33.52-6.54,2.92-11.12,9.72-12.94a10.32,10.32,0,0,0,7.35-7.7C339.12,709,337.23,705.44,335.83,702.1Z"/><path class="s2d-b2d4-3_2" d="M298.4,706.18H288v.07h-.1v3.54a40.47,40.47,0,0,1,9.84,1.54c1.58.44,3.59,1.5,3.93-1.4,0-.21,0-.41,0-.61C301.71,707.39,300.72,706.17,298.4,706.18Z"/><path class="s2d-b2d4-3_2" d="M295.84,738.16a8.15,8.15,0,0,1-8,8.12v10.35h2.35l.21,1.15a19.8,19.8,0,0,0-2.56-39.43v11.7A8.14,8.14,0,0,1,295.84,738.16Z"/><path class="s2d-b2d4-3_2" d="M290.23,756.63h-2.35V758a18,18,0,0,0,2.56-.19Z"/><path class="s2d-b2d4-3_49" d="M83.68,335.6a12.36,12.36,0,0,1,12.4-12.32h.14v-1.95H84.58a2.87,2.87,0,0,1-.52.71c-4.64,4.51-6.68,9.94-6,16.95-.15-.1-.29-.19-.42-.29a19,19,0,0,0,15.86,14.48l1.05-5.35A12.35,12.35,0,0,1,83.68,335.6Z"/><path class="s2d-b2d4-3_49" d="M96.08,330.55a5.06,5.06,0,1,0,0,10.11h.14V330.56Z"/><path class="s2d-b2d4-3_49" d="M89.4,315.75h4.21a19,19,0,0,1,2.52-.17h.09v-2.43H74.16a1.29,1.29,0,0,0,.29,2.55h.13a7.33,7.33,0,0,0,1.24,0h1c.86,0,1.74,0,2.6,0h.24c.32,0,.65,0,1,0a8.34,8.34,0,0,0,1.31,0h1.12A1.61,1.61,0,0,1,84.49,317a11.34,11.34,0,0,1,.44,2.22,18.45,18.45,0,0,1,2.52-1.54C87.41,316.56,87.93,315.75,89.4,315.75Z"/><path class="s2d-b2d4-3_49" d="M90,318.85c-.91.29-2.21,1.13-2.5-.7a2.7,2.7,0,0,1,0-.48,18.45,18.45,0,0,0-2.52,1.54,4,4,0,0,1-.35,2.12H96.22V318A18.38,18.38,0,0,0,90,318.85Z"/><path class="s2d-b2d4-3_49" d="M93.61,315.75h2.61v-.16h-.09A19,19,0,0,0,93.61,315.75Z"/><path class="s2d-b2d4-3_12" d="M96.13,353.37a19.51,19.51,0,0,1-2.67-.19L91.3,364.25h4.92V353.36Z"/><path class="s2d-b2d4-3_12" d="M96.22,353.36v-5.44h-.14a13.5,13.5,0,0,1-1.57-.1l-1.05,5.35a19.51,19.51,0,0,0,2.67.19Z"/><path class="s2d-b2d4-3_12" d="M82.48,321.33H71.59V309.15H96.22V259.51c-.54-.05-1,.49-1.62,1.47-3.45,6-7,11.86-10.43,17.84C77.54,290.43,70.74,302,65.82,314.44c-2.1,5.33-1.09,8.36,3.79,10.15,4.46,1.64,5.93,4.73,6,9,0,1.69-.13,3.5,2,5.09a19,19,0,0,1-.48-4.23A18.74,18.74,0,0,1,82.48,321.33Z"/><path class="s2d-b2d4-3_12" d="M84.06,322a2.87,2.87,0,0,0,.52-.71h-2.1a18.74,18.74,0,0,0-5.36,13.14,19,19,0,0,0,.48,4.23c.13.1.27.19.42.29C77.38,332,79.42,326.55,84.06,322Z"/><path class="s2d-b2d4-3_12" d="M84.93,319.21a11.34,11.34,0,0,0-.44-2.22,1.61,1.61,0,0,0-1.43-1.28H81.94a8.34,8.34,0,0,1-1.31,0c-.32,0-.65,0-1,0h-.24c-.86,0-1.74,0-2.6,0h-1a7.33,7.33,0,0,1-1.24,0h-.13a1.29,1.29,0,0,1-.29-2.55H96.22v-4H71.59v12.18H82.48A19.12,19.12,0,0,1,84.93,319.21Z"/><path class="s2d-b2d4-3_12" d="M84.93,319.21a19.12,19.12,0,0,0-2.45,2.12h2.1A4,4,0,0,0,84.93,319.21Z"/><path class="s2d-b2d4-3_12" d="M89.4,315.75c-1.47,0-2,.81-2,1.92a18.93,18.93,0,0,1,6.16-1.92Z"/><path class="s2d-b2d4-3_12" d="M93.61,315.75a18.93,18.93,0,0,0-6.16,1.92,2.7,2.7,0,0,0,0,.48c.29,1.83,1.59,1,2.5.7a18.38,18.38,0,0,1,6.22-.89v-2.21Z"/><path class="s2d-b2d4-3_12" d="M96.22,347.09v-6.44h-.14a5.06,5.06,0,1,1,0-10.11h.14v-7.28h-.14a12.32,12.32,0,0,0-1.57,24.55l.14-.74Z"/><path class="s2d-b2d4-3_12" d="M94.65,347.09l-.14.74a13.5,13.5,0,0,0,1.57.1h.14v-.83Z"/><path class="s2d-b2d4-3_49" d="M101.17,335.6a5.07,5.07,0,0,0-5-5v10.09A5.07,5.07,0,0,0,101.17,335.6Z"/><path class="s2d-b2d4-3_49" d="M118.29,313.16H96.22v2.59h.06v0h6.48c1.45,0,2.06.75,2,2,0,.12,0,.24,0,.37-.21,1.8-1.46,1.15-2.44.87a25,25,0,0,0-6.12-1v5.32a12.32,12.32,0,0,1,1.59,24.53l1,5.37a19,19,0,0,0,15.78-14.13l-.07.06c.41-6.87-1.46-12.29-6-16.7a4.24,4.24,0,0,1-.81-1.08,4.32,4.32,0,0,1-.45-2.19,8.22,8.22,0,0,1,.5-2.41,1.47,1.47,0,0,1,1-1h2.44a5.23,5.23,0,0,0,.56,0H118a1.29,1.29,0,0,0,.29-2.55Z"/><path class="s2d-b2d4-3_2" d="M96.22,353.36v10.89h4.58l-2-11.07A19.8,19.8,0,0,1,96.22,353.36Z"/><path class="s2d-b2d4-3_2" d="M96.22,347.92v5.44a19.8,19.8,0,0,0,2.57-.18l-1-5.37A11.9,11.9,0,0,1,96.22,347.92Z"/><path class="s2d-b2d4-3_2" d="M126,313.18c-7.72-18.37-18.48-35.11-28.4-52.3-.52-.9-1-1.33-1.42-1.37v53.65h22.07a1.29,1.29,0,0,1-.29,2.55h-6.31a5.23,5.23,0,0,1-.56,0h-2.44a1.47,1.47,0,0,0-1,1,8.22,8.22,0,0,0-.5,2.41,4.32,4.32,0,0,0,.45,2.19,4.24,4.24,0,0,0,.81,1.08c4.56,4.41,6.43,9.83,6,16.7l.07-.06c2.5-2.1,2.14-4.43,2.3-6.43.32-4.06,1.81-6.91,6-8.05a6.4,6.4,0,0,0,4.57-4.79C128.09,317.45,126.91,315.25,126,313.18Z"/><path class="s2d-b2d4-3_2" d="M102.76,315.71H96.28v0h-.06V318a25,25,0,0,1,6.12,1c1,.28,2.23.93,2.44-.87,0-.13,0-.25,0-.37C104.82,316.46,104.21,315.71,102.76,315.71Z"/><path class="s2d-b2d4-3_2" d="M101.17,335.6a5.07,5.07,0,0,1-5,5v6.44h1.46l.13.72a12.32,12.32,0,0,0-1.59-24.53v7.28A5.07,5.07,0,0,1,101.17,335.6Z"/><path class="s2d-b2d4-3_2" d="M97.68,347.09H96.22v.83a11.9,11.9,0,0,0,1.59-.11Z"/><rect class="s2d-b2d4-3_2" x="51.3" y="838.34" width="27.08" height="4.67" rx="2.33" ry="2.33"/><rect class="s2d-b2d4-3_8" x="51.3" y="813.19" width="27.08" height="4.67" rx="2.33" ry="2.33"/><rect class="s2d-b2d4-3_2" x="51.3" y="788.04" width="27.08" height="4.67" rx="2.33" ry="2.33"/><rect class="s2d-b2d4-3_8" x="51.3" y="762.89" width="27.08" height="4.67" rx="2.33" ry="2.33"/><rect class="s2d-b2d4-3_2" x="51.3" y="737.74" width="27.08" height="4.67" rx="2.33" ry="2.33"/><rect class="s2d-b2d4-3_8" x="51.3" y="712.59" width="27.08" height="4.67" rx="2.33" ry="2.33"/><rect class="s2d-b2d4-3_2" x="51.3" y="687.44" width="27.08" height="4.67" rx="2.33" ry="2.33"/><rect class="s2d-b2d4-3_8" x="51.3" y="863.49" width="27.08" height="4.67" rx="2.33" ry="2.33"/><rect class="s2d-b2d4-3_2" x="51.3" y="889.57" width="27.08" height="4.67" rx="2.33" ry="2.33"/><line class="s2d-b2d4-3_50" x1="-403.3" y1="-2" x2="121.45" y2="-2"/><line class="s2d-b2d4-3_51" x1="139.54" y1="-2" x2="139.54" y2="-2"/><ellipse class="s2d-b2d4-3_12" cx="207.23" cy="666.4" rx="10.56" ry="10.5"/><ellipse class="s2d-b2d4-3_12" cx="37.2" cy="353.37" rx="10.56" ry="10.5"/><ellipse class="s2d-b2d4-3_2" cx="37.2" cy="172.56" rx="10.56" ry="10.5"/><ellipse class="s2d-b2d4-3_49" cx="37.2" cy="280.5" rx="6.59" ry="6.55"/><ellipse class="s2d-b2d4-3_2" cx="145.15" cy="353.18" rx="6.59" ry="6.55"/><ellipse class="s2d-b2d4-3_2" cx="207.23" cy="617.77" rx="5.76" ry="5.73"/></g><path class="s2d-b2d4-3_48" d="M970,378.88c0,7.46-6.08,12.71-13.24,12.6,7.16.11,13.11,5.72,13.29,12.54-.18-6.82,5.48-12.25,12.64-12.14A13.06,13.06,0,0,1,970,378.88Z"/><path class="s2d-b2d4-3_31" d="M935.81,323.78a8,8,0,0,1-8.37,8,8.41,8.41,0,0,1,8.4,7.92,7.61,7.61,0,0,1,8-7.67A8.25,8.25,0,0,1,935.81,323.78Z"/><path class="s2d-b2d4-3_31" d="M820.15,366.24a8,8,0,0,1-8.37,8,8.41,8.41,0,0,1,8.39,7.92,7.61,7.61,0,0,1,8-7.67A8.25,8.25,0,0,1,820.15,366.24Z"/><path class="s2d-b2d4-3_48" d="M893.7,454.86c0,7.47-6.08,12.72-13.24,12.61,7.16.11,13.11,5.72,13.28,12.53-.17-6.81,5.48-12.24,12.64-12.13A13.05,13.05,0,0,1,893.7,454.86Z"/><path class="s2d-b2d4-3_48" d="M866.33,309.2c0,7.46-6.08,12.72-13.24,12.61,7.16.11,13.1,5.72,13.28,12.53-.18-6.81,5.48-12.25,12.64-12.14A13,13,0,0,1,866.33,309.2Z"/></svg>
