<svg id="Layer_1" data-name="Layer 1" xmlns="http://www.w3.org/2000/svg" xmlns:xlink="http://www.w3.org/1999/xlink" width="300" height="300" viewBox="110 50 550 500"><defs><style>.s2d6-image2_1,.s2d6-image2_14,.s2d6-image2_15,.s2d6-image2_17,.s2d6-image2_18,.s2d6-image2_20,.s2d6-image2_21,.s2d6-image2_23,.s2d6-image2_24,.s2d6-image2_25,.s2d6-image2_27,.s2d6-image2_30,.s2d6-image2_33,.s2d6-image2_35,.s2d6-image2_36,.s2d6-image2_39,.s2d6-image2_40,.s2d6-image2_41{fill:none;}.s2d6-image2_2{fill:#2e5f5a;}.s2d6-image2_3{fill:#daa534;}.s2d6-image2_4{clip-path:url(#s2d6-image2-cp);}.s2d6-image2_5{fill:url(#s2d6-image2-lg);}.s2d6-image2_6{fill:url(#s2d6-image2-lg_2);}.s2d6-image2_7{fill:url(#s2d6-image2-lg_3);}.s2d6-image2_8{fill:url(#s2d6-image2-lg_4);}.s2d6-image2_9{fill:url(#s2d6-image2-lg_5);}.s2d6-image2_10{fill:url(#s2d6-image2-lg_6);}.s2d6-image2_11{fill:#c97475;}.s2d6-image2_12,.s2d6-image2_34{fill:#2f4862;}.s2d6-image2_13{fill:#fff;}.s2d6-image2_14,.s2d6-image2_15,.s2d6-image2_23,.s2d6-image2_27{stroke:#dba634;}.s2d6-image2_14,.s2d6-image2_15,.s2d6-image2_27,.s2d6-image2_39{stroke-linecap:round;stroke-linejoin:round;}.s2d6-image2_14,.s2d6-image2_15,.s2d6-image2_27{stroke-width:1.47px;}.s2d6-image2_15{stroke-dasharray:0 4.58;}.s2d6-image2_16{fill:#dba634;}.s2d6-image2_17,.s2d6-image2_18,.s2d6-image2_26{stroke:#5d9e9a;}.s2d6-image2_17,.s2d6-image2_18,.s2d6-image2_20,.s2d6-image2_21,.s2d6-image2_23,.s2d6-image2_24,.s2d6-image2_25,.s2d6-image2_26,.s2d6-image2_30,.s2d6-image2_33,.s2d6-image2_34,.s2d6-image2_35,.s2d6-image2_36,.s2d6-image2_40,.s2d6-image2_41{stroke-miterlimit:10;}.s2d6-image2_17{stroke-width:0.58px;}.s2d6-image2_18{stroke-width:0.58px;}.s2d6-image2_19{fill:#919a51;}.s2d6-image2_20,.s2d6-image2_24,.s2d6-image2_30,.s2d6-image2_33,.s2d6-image2_34,.s2d6-image2_35,.s2d6-image2_36{stroke:#2f4862;}.s2d6-image2_20{stroke-width:0.95px;}.s2d6-image2_21{stroke:#fff;stroke-width:0.53px;}.s2d6-image2_22,.s2d6-image2_26{fill:#5d9e9a;}.s2d6-image2_23,.s2d6-image2_24{stroke-width:1.85px;}.s2d6-image2_25{stroke:#c97475;}.s2d6-image2_25,.s2d6-image2_26{stroke-width:0.62px;}.s2d6-image2_27{stroke-dasharray:0 4.58;}.s2d6-image2_28{clip-path:url(#s2d6-image2-cp_2);}.s2d6-image2_29{clip-path:url(#s2d6-image2-cp_3);}.s2d6-image2_30{stroke-width:1.41px;}.s2d6-image2_31{fill:#5d9b97;}.s2d6-image2_32{fill:#d8a334;}.s2d6-image2_33{stroke-width:1.11px;}.s2d6-image2_34{stroke-width:1.37px;}.s2d6-image2_35{stroke-width:0.83px;}.s2d6-image2_36{stroke-width:1.16px;}.s2d6-image2_37{fill:#949e52;}.s2d6-image2_38{fill:#96a052;}.s2d6-image2_39{stroke:#d99f4a;stroke-width:3.73px;}.s2d6-image2_40{stroke:#1472a0;stroke-width:1.6px;}.s2d6-image2_41{stroke:#daa534;stroke-width:2.5px;}</style><clipPath id="s2d6-image2-cp"><path class="s2d6-image2_1" d="M609.5,526.4c-32.24,0-32.24,3.4-64.48,3.4s-32.24-.71-64.48-.71S448.3,534,416.06,534s-32.24-5-64.49-5-32.24-1.12-64.48-1.12-32.24,4.34-64.48,4.34-32.25-4.75-64.49-4.75c-17.79,0-29-14.08-29-33.94,0-35.94-1.48-35.94-1.48-71.89s-2-35.94-2-71.89,3.47-35.94,3.47-71.89S126.5,241.94,126.5,206s4.25-35.95,4.25-71.9c0-19.85,9.58-39.74,27.37-39.74,32.24,0,32.24,2.26,64.48,2.26S254.84,98,287.08,98s32.24-3.57,64.49-3.57,32.24,4.32,64.48,4.32,32.24-2.53,64.48-2.53,32.24-2.53,64.48-2.53,32.25,3.59,64.49,3.59c17.79,0,31.51,17,31.51,36.82,0,36,1.89,36,1.89,71.89s-2.6,35.95-2.6,71.89-3.47,35.95-3.47,71.89,3.63,36,3.63,71.9,4.2,35.95,4.2,71.89C644.66,513.42,627.29,526.4,609.5,526.4Z"/></clipPath><linearGradient id="s2d6-image2-lg" x1="3412.44" y1="318.26" x2="3412.89" y2="239.74" gradientTransform="matrix(-1, 0, 0, 1, 3949.01, 0)" gradientUnits="userSpaceOnUse"><stop offset="0.23" stop-color="#b66f1e" stop-opacity="0"/><stop offset="1" stop-color="#b66f1e" stop-opacity="0.8"/></linearGradient><linearGradient id="s2d6-image2-lg_2" x1="3529.59" y1="393.21" x2="3530.25" y2="277.79" xlink:href="#s2d6-image2-lg"/><linearGradient id="s2d6-image2-lg_3" x1="3433.65" y1="499.08" x2="3434.31" y2="383.66" xlink:href="#s2d6-image2-lg"/><linearGradient id="s2d6-image2-lg_4" x1="3836" y1="492.87" x2="3836.38" y2="427.67" xlink:href="#s2d6-image2-lg"/><linearGradient id="s2d6-image2-lg_5" x1="3687.8" y1="284.21" x2="3688.21" y2="212.18" xlink:href="#s2d6-image2-lg"/><linearGradient id="s2d6-image2-lg_6" x1="3500.82" y1="323.84" x2="3501.06" y2="281.44" xlink:href="#s2d6-image2-lg"/><clipPath id="s2d6-image2-cp_2"><path class="s2d6-image2_1" d="M355.73,558.14c29.08-15.58,43.26-3.54,83.1-18.3-20.11-7.61-36.3-.51-36.3-.51-3.35-2-4.07-6.44-4-10.32s.53-8.08-1.6-11.31c-1.63-2.48-4.46-3.85-7.15-5.1,10.13-2.85,21-1.28,31.19,1.17s20.35,5.8,30.85,6.5c9.68.64,24-.56,27.42-7.45,4.93-6.71,8.1-13.57,13-20.52,15.38-21.94,56.67-24.73,56.67-24.73,1.39,3.41,5.07,7.94,5.07,7.94s-14.85-1.88-37,9.25-17.86,35.54-37.34,58.52-51.66,20-64.8,20.77-19.34,6.88-29.57,20.25-25.75-1-25.75-1A71.84,71.84,0,0,0,332,570.88C344.43,566.64,355.73,558.14,355.73,558.14Z"/></clipPath><clipPath id="s2d6-image2-cp_3"><path class="s2d6-image2_1" d="M573.14,493.42c5,8.11,9.27,17,16.68,23,11.4,9.2,29.41,8.89,40.48-.71,4.37-3.78,7.65-8.73,12.21-12.28a26.69,26.69,0,0,1,18.06-5.5c-6.37-2.25-13.73-1.55-19.52-5-3.21-1.92-5.6-4.93-8.49-7.32s-6.77-4.17-10.31-3c-2.68.91-4.54,3.31-6.88,4.91-4.18,2.84-9.59,2.94-14.63,2.7a38.28,38.28,0,0,1-10.11-1.5c-8.75-2.85-14.73-10.82-22.52-15.73-5.89-3.72-14.24-6.54-21.26-5.37,3.76,5.18,2,4.49,7.12,7.85C559.65,479.22,569.63,487.72,573.14,493.42Z"/></clipPath></defs><title>23</title><rect class="s2d6-image2_2" x="-630.11" y="-174.01" width="2900.71" height="1369.93"/><path class="s2d6-image2_3" d="M609.5,526.4c-32.24,0-32.24,3.4-64.48,3.4s-32.24-.71-64.48-.71S448.3,534,416.06,534s-32.24-5-64.49-5-32.24-1.12-64.48-1.12-32.24,4.34-64.48,4.34-32.25-4.75-64.49-4.75c-17.79,0-29-14.08-29-33.94,0-35.94-1.48-35.94-1.48-71.89s-2-35.94-2-71.89,3.47-35.94,3.47-71.89S126.5,241.94,126.5,206s4.25-35.95,4.25-71.9c0-19.85,9.58-39.74,27.37-39.74,32.24,0,32.24,2.26,64.48,2.26S254.84,98,287.08,98s32.24-3.57,64.49-3.57,32.24,4.32,64.48,4.32,32.24-2.53,64.48-2.53,32.24-2.53,64.48-2.53,32.25,3.59,64.49,3.59c17.79,0,31.51,17,31.51,36.82,0,36,1.89,36,1.89,71.89s-2.6,35.95-2.6,71.89-3.47,35.95-3.47,71.89,3.63,36,3.63,71.9,4.2,35.95,4.2,71.89C644.66,513.42,627.29,526.4,609.5,526.4Z"/><g class="s2d6-image2_4"><path class="s2d6-image2_5" d="M446.86,295.71h0a5,5,0,0,1,.31-.49l0,0c.11-.15.22-.29.34-.43l.05-.06.36-.37.09-.08a3.73,3.73,0,0,1,.36-.32l.13-.09a3.32,3.32,0,0,1,.36-.26l.17-.11.35-.2.22-.11c.11-.05.22-.11.33-.15l.28-.1.31-.11.33-.09.28-.07c.14,0,.28,0,.42-.06l.21,0a4.78,4.78,0,0,1,.66,0,6.47,6.47,0,0,1,2.91.7,8.41,8.41,0,0,1,.72-.86,9.72,9.72,0,0,1,5.93-3,11.7,11.7,0,0,1,1.19-.07,9.72,9.72,0,0,1,2,.21,6.23,6.23,0,0,1,.62.15,9.76,9.76,0,0,1,9.55-7.75,9.61,9.61,0,0,1,4.44,1.08,16.5,16.5,0,0,1-.38-2.55c0-.33,0-.66,0-1a15.54,15.54,0,0,1,19.89-14.93,15.21,15.21,0,0,1,.6-2.79A15.53,15.53,0,0,1,525.26,255c.19.17.37.34.55.53a23.37,23.37,0,0,1,4.78-3.45,23.1,23.1,0,0,1,28,4.59c.42.46.83.93,1.21,1.42a22.37,22.37,0,0,1,2.08,3.1,23.67,23.67,0,0,1,2.13,5.26c.54-.05,1.08-.08,1.63-.08a15.4,15.4,0,0,1,10.06,3.71,15.61,15.61,0,0,1,3.91,5.05,9.64,9.64,0,0,1,3.37-.61,9.8,9.8,0,0,1,1.8.16,9.65,9.65,0,0,1,4.61,2.25,6.88,6.88,0,0,1,.62.59,9.78,9.78,0,0,1,2.62,5.36,9.76,9.76,0,0,1,14.29,5.58,7.54,7.54,0,0,1,.2.82,9.62,9.62,0,0,1,2.58-.36,9.76,9.76,0,0,1,7.85,4,6.49,6.49,0,1,1,0,11.59,9.76,9.76,0,0,1-13.38,2.24A9.73,9.73,0,0,1,589,309.55a9.75,9.75,0,0,1-16.74,1.13,9.59,9.59,0,0,1-4.28,1,9.73,9.73,0,0,1-7.64-3.69,9.74,9.74,0,0,1-13.13,7.44A23.16,23.16,0,0,1,511,309.92,9.74,9.74,0,0,1,500.62,311a9.74,9.74,0,0,1-16.73-1.12A9.73,9.73,0,0,1,468.74,307a9.72,9.72,0,0,1-13.37-2.24A6.48,6.48,0,0,1,446,299,6.39,6.39,0,0,1,446.86,295.71Z"/><path class="s2d6-image2_6" d="M287.56,360.07v0c.15-.24.3-.48.46-.71l.05-.06a7.26,7.26,0,0,1,.5-.63l.08-.09c.16-.19.34-.37.52-.55l.13-.11.53-.47.19-.14.53-.38.25-.15.52-.31.32-.15.49-.23c.13-.06.27-.1.4-.15l.46-.16.49-.13.41-.1c.2,0,.41-.06.61-.09l.32-.05c.31,0,.63-.05,1-.05a9.48,9.48,0,0,1,4.28,1,16.08,16.08,0,0,1,1.05-1.27,14.24,14.24,0,0,1,13.35-4.26c.31.06.62.14.92.22A14.33,14.33,0,0,1,336,341.24a23,23,0,0,1-.57-3.74c0-.49-.05-1-.05-1.46a22.86,22.86,0,0,1,22.85-22.86,23.15,23.15,0,0,1,6.38.92,22.61,22.61,0,0,1,.89-4.11,22.83,22.83,0,0,1,37.35-9.82l.8.78a34.23,34.23,0,0,1,7-5.06,34,34,0,0,1,41.14,6.75c.62.67,1.22,1.36,1.78,2.08a32.74,32.74,0,0,1,3.05,4.57,33.63,33.63,0,0,1,3.14,7.72,23.46,23.46,0,0,1,2.39-.12,22.68,22.68,0,0,1,14.79,5.45,23.21,23.21,0,0,1,5.75,7.42,14.27,14.27,0,0,1,14.38,2.65c.31.28.62.57.9.87a14.26,14.26,0,0,1,3.85,7.89,14.33,14.33,0,0,1,21,8.19c.12.4.22.8.31,1.2a14.26,14.26,0,0,1,15.32,5.31,9.54,9.54,0,1,1,0,17,14.32,14.32,0,0,1-19.66,3.3,14.3,14.3,0,0,1-22.26,4.2,14.33,14.33,0,0,1-24.6,1.66,14.3,14.3,0,0,1-17.53-4A14.34,14.34,0,0,1,440.27,390a14.07,14.07,0,0,1-5.17-1,34,34,0,0,1-53.34-8.1,14.26,14.26,0,0,1-15.17,1.62A14.33,14.33,0,0,1,342,380.9a14.3,14.3,0,0,1-22.26-4.21,14.32,14.32,0,0,1-19.66-3.3,9.52,9.52,0,0,1-12.51-13.32Z"/><path class="s2d6-image2_7" d="M383.49,465.93l0,0c.14-.25.3-.48.46-.72a.1.1,0,0,0,0-.05c.16-.22.33-.43.51-.64l.07-.08c.17-.19.35-.38.53-.55l.13-.12c.17-.16.35-.32.53-.46a1.33,1.33,0,0,1,.19-.14c.17-.13.34-.26.53-.38l.25-.16c.17-.1.34-.21.51-.3l.33-.16c.16-.07.32-.16.49-.22s.27-.1.4-.15a3.57,3.57,0,0,1,.46-.16l.49-.13.4-.1.62-.1.31,0c.32,0,.64-.05,1-.05a9.48,9.48,0,0,1,4.28,1,15.93,15.93,0,0,1,1.05-1.26,14.36,14.36,0,0,1,10.48-4.57,13.64,13.64,0,0,1,2.87.31c.31.06.62.13.92.22a14.32,14.32,0,0,1,20.56-9.81,24.39,24.39,0,0,1-.56-3.75c0-.48-.05-1-.05-1.45A22.82,22.82,0,0,1,460.51,420a22.43,22.43,0,0,1,.89-4.11A22.83,22.83,0,0,1,498.75,406c.27.25.54.51.8.78a34.23,34.23,0,0,1,7-5.06,34,34,0,0,1,41.14,6.74c.62.67,1.21,1.37,1.78,2.08a34.21,34.21,0,0,1,6.19,12.3,23.44,23.44,0,0,1,2.39-.13,22.69,22.69,0,0,1,14.79,5.46,22.93,22.93,0,0,1,5.74,7.42A14.28,14.28,0,0,1,593,438.28c.31.27.61.56.9.86a14.3,14.3,0,0,1,3.85,7.89,14.33,14.33,0,0,1,21,8.2c.12.39.22.79.31,1.2a14.26,14.26,0,0,1,15.32,5.31,9.55,9.55,0,1,1,0,17,14.32,14.32,0,0,1-19.66,3.3,14.31,14.31,0,0,1-22.27,4.21,14.33,14.33,0,0,1-24.59,1.66,14.3,14.3,0,0,1-17.53-4A14.29,14.29,0,0,1,531,494.91a34.06,34.06,0,0,1-53.34-8.1,14.22,14.22,0,0,1-15.17,1.61,14.34,14.34,0,0,1-24.6-1.65,14.32,14.32,0,0,1-22.27-4.21,14.31,14.31,0,0,1-19.65-3.3,9.54,9.54,0,0,1-13.83-8.52A9.6,9.6,0,0,1,383.49,465.93Z"/><path class="s2d6-image2_8" d="M38.52,474.15h0a3.62,3.62,0,0,1,.27-.41l0,0,.28-.36,0,0,.29-.31.07-.06.31-.27.1-.07.3-.22.14-.09.29-.17.19-.09.27-.12.23-.09.26-.09.28-.07.23-.06.35-.05.17,0,.55,0a5.46,5.46,0,0,1,2.42.57,7.93,7.93,0,0,1,.59-.71,8.09,8.09,0,0,1,4.93-2.52,8,8,0,0,1,1-.06,7.88,7.88,0,0,1,1.62.17l.52.13a8.08,8.08,0,0,1,11.62-5.54,13.55,13.55,0,0,1-.32-2.12c0-.27,0-.55,0-.82A12.92,12.92,0,0,1,82,448.18a13.88,13.88,0,0,1,.5-2.32,12.9,12.9,0,0,1,21.1-5.54,6.25,6.25,0,0,1,.45.44,19.2,19.2,0,0,1,27.22.95c.35.37.68.77,1,1.17a19.68,19.68,0,0,1,1.73,2.58,19.43,19.43,0,0,1,1.77,4.37,12,12,0,0,1,1.35-.07,12.81,12.81,0,0,1,8.35,3.08,13.07,13.07,0,0,1,3.25,4.19,8,8,0,0,1,4.29-.37,8,8,0,0,1,3.83,1.87c.18.15.35.32.52.49a8.11,8.11,0,0,1,2.17,4.45,8.1,8.1,0,0,1,11.86,4.63c.07.23.13.45.18.68a8,8,0,0,1,2.14-.29,8.07,8.07,0,0,1,6.51,3.29,5.39,5.39,0,1,1,0,9.62,8.08,8.08,0,0,1-11.1,1.87,8.08,8.08,0,0,1-12.58,2.37,8.1,8.1,0,0,1-13.9.94,8.07,8.07,0,0,1-9.9-2.24,8.08,8.08,0,0,1-10.9,6.18,19.24,19.24,0,0,1-30.13-4.58,8,8,0,0,1-8.57.91,8.09,8.09,0,0,1-13.89-.93,8.09,8.09,0,0,1-12.58-2.38,8.08,8.08,0,0,1-11.1-1.86,5.46,5.46,0,0,1-2.42.58,5.39,5.39,0,0,1-5.39-5.39A5.33,5.33,0,0,1,38.52,474.15Z"/><path class="s2d6-image2_9" d="M178.91,263.53v0a4.17,4.17,0,0,1,.29-.44l0,0a3.89,3.89,0,0,1,.32-.39l0-.06.33-.34.08-.07.33-.3.12-.08.33-.24.16-.1a3.3,3.3,0,0,1,.32-.18l.2-.1.31-.14.25-.1.28-.1.31-.08.25-.06.39-.06.2,0a5.74,5.74,0,0,1,.6,0,6,6,0,0,1,2.67.64,8.12,8.12,0,0,1,.66-.79,8.9,8.9,0,0,1,5.44-2.78,9.81,9.81,0,0,1,1.09-.07,8.86,8.86,0,0,1,1.8.19l.57.14a8.94,8.94,0,0,1,12.84-6.12,15,15,0,0,1-.36-2.34c0-.3,0-.6,0-.91A14.26,14.26,0,0,1,223,234.27a14.06,14.06,0,0,1,4,.57,14.7,14.7,0,0,1,.56-2.57,14.24,14.24,0,0,1,23.31-6.12c.17.15.34.32.5.48a21.48,21.48,0,0,1,4.39-3.16,21.22,21.22,0,0,1,25.67,4.21c.39.42.76.85,1.12,1.3a21.73,21.73,0,0,1,1.9,2.85,21.27,21.27,0,0,1,2,4.83,12.29,12.29,0,0,1,1.49-.08,14.15,14.15,0,0,1,9.23,3.4,14.52,14.52,0,0,1,3.59,4.63,8.73,8.73,0,0,1,4.74-.4,8.8,8.8,0,0,1,4.23,2.06,7.27,7.27,0,0,1,.57.54,8.88,8.88,0,0,1,2.4,4.92,8.95,8.95,0,0,1,13.11,5.12c.07.24.14.49.19.75a8.87,8.87,0,0,1,9.56,3.31,5.87,5.87,0,0,1,2.67-.64,6,6,0,1,1,0,11.91,5.87,5.87,0,0,1-2.67-.64,8.93,8.93,0,0,1-12.27,2.06,8.93,8.93,0,0,1-13.89,2.63,9,9,0,0,1-15.36,1A8.9,8.9,0,0,1,283,274.79,8.93,8.93,0,0,1,271,281.61a21.26,21.26,0,0,1-33.29-5.05,8.89,8.89,0,0,1-5.53,1.92,8.75,8.75,0,0,1-3.93-.92,8.95,8.95,0,0,1-15.36-1A8.92,8.92,0,0,1,199,273.9a8.93,8.93,0,0,1-12.27-2.06,5.87,5.87,0,0,1-2.67.64,6,6,0,0,1-6-6A5.86,5.86,0,0,1,178.91,263.53Z"/><path class="s2d6-image2_10" d="M399.75,311.66h0c.05-.09.11-.17.17-.26l0,0,.18-.23,0,0,.19-.21.05,0,.2-.17.06-.05.2-.14.09-.06.19-.11.12-.06.18-.08.15-.05a.85.85,0,0,1,.17-.06l.18-.05.15,0,.22,0,.12,0,.35,0a3.43,3.43,0,0,1,1.57.38,4.31,4.31,0,0,1,.39-.46,5.2,5.2,0,0,1,3.21-1.64,4.49,4.49,0,0,1,.64,0,5.19,5.19,0,0,1,1.05.11l.34.08a5.27,5.27,0,0,1,7.56-3.6,7.93,7.93,0,0,1-.21-1.38c0-.18,0-.35,0-.53a8.4,8.4,0,0,1,8.4-8.4,8.28,8.28,0,0,1,2.34.34,8.26,8.26,0,0,1,.32-1.51,8.39,8.39,0,0,1,13.73-3.61c.1.09.19.19.29.29a12.19,12.19,0,0,1,2.58-1.86,12.46,12.46,0,0,1,15.11,2.48c.23.24.45.5.66.76a12.53,12.53,0,0,1,2.27,4.52,8.49,8.49,0,0,1,.88-.05,8.38,8.38,0,0,1,7.54,4.73,5.24,5.24,0,0,1,1.82-.33,5.07,5.07,0,0,1,1,.09,5.28,5.28,0,0,1,2.5,1.21l.33.32a5.23,5.23,0,0,1,1.41,2.9,5.27,5.27,0,0,1,7.72,3c0,.15.08.29.11.44a5.36,5.36,0,0,1,1.39-.19,5.26,5.26,0,0,1,4.24,2.14,3.47,3.47,0,0,1,1.57-.38,3.51,3.51,0,0,1,0,7,3.47,3.47,0,0,1-1.57-.38,5.26,5.26,0,0,1-7.22,1.21,5.25,5.25,0,0,1-8.18,1.55,5.27,5.27,0,0,1-9,.61,5.25,5.25,0,0,1-6.44-1.46,5.24,5.24,0,0,1-7.08,4,12.52,12.52,0,0,1-19.6-3,5.21,5.21,0,0,1-3.26,1.14,5.14,5.14,0,0,1-2.31-.55,5.26,5.26,0,0,1-9-.6,5.27,5.27,0,0,1-8.18-1.55,5.17,5.17,0,0,1-3,.93,5.26,5.26,0,0,1-4.24-2.14,3.43,3.43,0,0,1-1.57.37,3.5,3.5,0,0,1-3.5-3.5A3.43,3.43,0,0,1,399.75,311.66Z"/><path class="s2d6-image2_11" d="M409.3,306.08l-.13,32.72c0,3.06,4.73,3.06,4.75,0l.13-32.72c0-3.06-4.73-3.06-4.75,0Z"/><path class="s2d6-image2_12" d="M461,247.2c5.63,1.9,10.59,5.33,15.47,8.73,3.69,2.57,12.3,11.59,13.91,14.42,2.75,4.83,7.14,12,9,17.25,3.18,9.08,5,18.72,9.4,27.26s12.41,16.14,22,16.56c-.77,7.69-1.86,16.08-7.44,21.43a23.74,23.74,0,0,1-9,5.06,42.37,42.37,0,0,1-21.6,1.38,15.74,15.74,0,0,1-5.08-1.76,15.48,15.48,0,0,1-4.32-4.29c-5.81-7.92-8.56-17.6-11.17-27.06A54.61,54.61,0,0,1,469.92,315c-.34-5.56,1-11.08,1.49-16.63,1.2-14.27-3.5-28.52-10.6-40.94a36,36,0,0,0-5-7c-1.58-1.67-4.89-3-5.84-5C453.31,244.81,457.86,246.12,461,247.2Z"/><path class="s2d6-image2_13" d="M299.65,382.57l58.87,45.28a7.65,7.65,0,0,0,8.63.5c14.75-8.88,61.46-37,72.06-43.4,6.52-3.94,14.45-5.57,20.6-6.22h0a72.93,72.93,0,0,1,8.95-.42l24.13-1.1c17.71-.5,23.83,25.82,23.83,25.82l1.09,13.31c1.67,3.22.61,7.32-1.63,10.16s-5.48,4.72-8.62,6.53c-5.95,3.4-12,6.86-18.74,8.21-6.15,1.24-12.52.63-18.73-.27-7.6-1.11,15.44-27.2,8-29.19-5.26-1.41-6.94,1.68-8.49-3.54-1.09-3.7-34.35,11.47-32.82,7.93l.06-.14L370.69,452.6A15.08,15.08,0,0,1,353,450.29l-60.19-57.71Z"/><line class="s2d6-image2_14" x1="414.8" y1="401.6" x2="414.8" y2="401.6"/><path class="s2d6-image2_15" d="M418.73,403.94c5.28,4.17,6.85,10.48,7.31,13.83"/><line class="s2d6-image2_14" x1="426.23" y1="420.04" x2="426.23" y2="420.04"/><path class="s2d6-image2_16" d="M420.27,425c0-.57-1-15.7-13.28-21l3.72-2.08c11.41,5.62,13,17.33,13.26,21.21"/><circle class="s2d6-image2_12" cx="448.16" cy="276.55" r="31.55" transform="translate(-76.58 320.94) rotate(-36.51)"/><path class="s2d6-image2_13" d="M299.82,384.14l65.89,34.27a7.68,7.68,0,0,0,8.59-1c13-11.33,54-47.19,63.34-55.35,5.74-5,13.26-8,19.19-9.74h0a72.28,72.28,0,0,1,8.74-2L489.13,345c17.36-3.59,28,21.25,28,21.25l3.41,12.91c2.21,2.88,1.88,7.1.17,10.29s-4.56,5.61-7.35,7.94c-5.25,4.39-10.63,8.86-17,11.37-5.84,2.29-12.21,2.81-18.48,3a194.56,194.56,0,0,1-23-.64c-5.41-.47-11.67-1.74-14.11-6.6-1.72-3.46-.87-7.59,0-11.35l0-.14L382,440.65a15.1,15.1,0,0,1-17.87.83L294.79,395.2Z"/><path class="s2d6-image2_13" d="M300.72,383.51c-1.51-.92-1.05-3.22-1.41-4.95s-2.94-2.37-3-4.14c-.1-3.36-1.51-9.36-2.9-13.76a.92.92,0,0,0-1.78.14,125,125,0,0,0-1.47,22,36.24,36.24,0,0,0,.84,6.56c.52,2.39.81,4.17,5.48,6.84"/><path class="s2d6-image2_13" d="M416.36,268.7l-8.48,18.76s-9.43,49.76,22.76,60.63c25.05,8.47,43.4-21.8,43.4-21.8s5.24-9.57,7.59-14.93a24.18,24.18,0,0,0,1.21-3.47l2.17-8.2-.64-8.47L478,286.76l-6.87-3.53-11.7-8.4Z"/><path class="s2d6-image2_12" d="M408.14,283.15s5-31.9,35.74-37.86l20.73,22.45S471,277.5,471,278.21s-5.13,3.53-5.13,3.53l-12.19-4.59-16.58-3.7-9.68,6.75L423,284.57Z"/><path class="s2d6-image2_17" d="M466.92,260.07a14.55,14.55,0,0,1,3,3.9"/><path class="s2d6-image2_17" d="M427.58,280c0-13.42,14.31-22.79,20.92-24.61a18.76,18.76,0,0,1,8-.71,17.16,17.16,0,0,1,4.07,1.24"/><path class="s2d6-image2_18" d="M437.63,274.17c6.33-9.5,14.24-11.6,18.11-11.4,4.44.24,11.33,3.61,15.06,10.08"/><path class="s2d6-image2_17" d="M419.09,282.09c-2.12-7.77,4.49-16.87,5.66-18.37,4.94-6.38,11.81-10.54,19.48-13"/><polygon class="s2d6-image2_13" points="462.55 333.03 472.06 356.73 483.29 349.32 475.86 318.03 462.55 333.03"/><path class="s2d6-image2_19" d="M436.31,408.64c.51-5.64,1.16-11.69,4.9-15.94l12.3-7.09a145,145,0,0,1,14.46-7.3,3.9,3.9,0,0,0,1.85-5.47c-3.94-7-10.12-15.92-17.43-19.09l4.44-1.45s9.13,2.49,19.93,22.49a146.65,146.65,0,0,1,18.85-5.46,4,4,0,0,0,2.59-5.92c-4-6.93-9.51-14.31-15.69-16.91l5.41-1.22s7.76,3.13,18.25,22.15c3.63-.52,7.28-.92,10.95-1.17h0c2.76,5.55,8.72,18,11.65,25.82,11.71,31.38,12.91,62.85,21.71,78.66L488,498.9l.32-1a41.06,41.06,0,0,0-6.95-37.63,90.53,90.53,0,0,0-6.4-7.15c-9.12-9.25-20.15-16.37-30.75-23.9a22.33,22.33,0,0,1-5.74-5.21C435.48,419.63,435.84,413.89,436.31,408.64Z"/><path class="s2d6-image2_20" d="M428.29,328.27a21.36,21.36,0,0,1-10.32-.68,2.56,2.56,0,0,1-1.64-1.52c-.48-1.31.5-2.19,1.34-3a17.32,17.32,0,0,0,4.11-5.55c.13-.3.26-.61.38-.93a22.24,22.24,0,0,0-.06-15.26h0a10.33,10.33,0,0,0-7.81-6.69l-5.23-1"/><path class="s2d6-image2_12" d="M432.85,307.63a23.91,23.91,0,0,1,3.31-4.21,22.05,22.05,0,0,1,4.18-3.37,17.25,17.25,0,0,1,5-2.13,17,17,0,0,1,5.5-.41l-.27,2.38a14.79,14.79,0,0,0-4.74.17,15.14,15.14,0,0,0-4.49,1.71,20.19,20.19,0,0,0-3.93,2.93,22.1,22.1,0,0,0-3.19,3.74Z"/><path class="s2d6-image2_12" d="M409.68,301.35l1.54.28c.51.13,1,.26,1.52.41a13.18,13.18,0,0,1,2.9,1.35,9.29,9.29,0,0,1,2.43,2.17,6.87,6.87,0,0,1,1.4,3.08l-1.58.2a5.58,5.58,0,0,0-1.17-2.19,7.55,7.55,0,0,0-2.05-1.66,11.27,11.27,0,0,0-2.51-1c-.44-.11-.9-.21-1.35-.3l-1.39-.19Z"/><circle class="s2d6-image2_16" cx="451.69" cy="320.23" r="9.22"/><path class="s2d6-image2_21" d="M464.39,295.24s7.65-9.71,14.71-5.33-2.22,16.53-5.07,18.83"/><path class="s2d6-image2_22" d="M573.14,493.42c5,8.11,9.27,17,16.68,23,11.4,9.2,29.41,8.89,40.48-.71,4.37-3.78,7.65-8.73,12.21-12.28a26.69,26.69,0,0,1,18.06-5.5c-6.37-2.25-13.73-1.55-19.52-5-3.21-1.92-5.6-4.93-8.49-7.32s-6.77-4.17-10.31-3c-2.68.91-4.54,3.31-6.88,4.91-4.18,2.84-9.59,2.94-14.63,2.7a38.28,38.28,0,0,1-10.11-1.5c-8.75-2.85-14.73-10.82-22.52-15.73-5.89-3.72-14.24-6.54-21.26-5.37,3.76,5.18,2,4.49,7.12,7.85C559.65,479.22,569.63,487.72,573.14,493.42Z"/><path class="s2d6-image2_16" d="M463.84,284.53s-24.38-16.7-40.66,3.17c0,0-4.17-7.45-15.3-.24l.5-4.9s7.11-5.77,14.18-1.78c0,0,16.21-17.23,43.84-.92Z"/><path class="s2d6-image2_13" d="M505.71,592.55s52-11.35,70.21-20c11.32-5.38,19.37-5.63,21.72,6.17s-.13,14.24.32,30.66c.67,24.34,7.7,23.53,3.11,31.59-1.62,2.83-6.92,3.87-10.24,4.4,0,0-18.08,1.53-15.2-5.45a5.32,5.32,0,0,1,4.42-3.17c3.49-.37,8.26-.73,8.2-5.79-.09-7-4.31-34.41-11.48-32.05-11.12,3.65-76,17.89-76,17.89l12-14Z"/><path class="s2d6-image2_12" d="M492.23,492.3c.48,14.72-26.27,40-42.51,53.1S377,605,366.94,617.4s-4.79,23.83-3.63,28.71,13.43,6.51,13.43,6.51c17.88,2.1,74.86-2.2,100.14-4.49a278.74,278.74,0,0,1,71.54,2.79s-21.26-40.71-17.19-64.42c.66-3.87,13.74-11,13.74-11a68.65,68.65,0,0,0,33.72-31.61c8.64-19.13-9.81-48-9.81-48l-18.4-25.15Z"/><path class="s2d6-image2_22" d="M355.73,558.14c29.08-15.58,43.26-3.54,83.1-18.3-20.11-7.61-36.3-.51-36.3-.51-3.35-2-4.07-6.44-4-10.32s.53-8.08-1.6-11.31c-1.63-2.48-4.46-3.85-7.15-5.1,10.13-2.85,21-1.28,31.19,1.17s20.35,5.8,30.85,6.5c9.68.64,23.18,0,27.42-7.45,4.93-6.71,8.1-13.57,13-20.52,15.38-21.94,56.67-24.73,56.67-24.73,1.39,3.41,5.07,7.94,5.07,7.94s-14.85-1.88-37,9.25-17.86,35.54-37.34,58.52-51.66,20-64.8,20.77-19.34,6.88-29.57,20.25-25.75-1-25.75-1A71.84,71.84,0,0,0,332,570.88C344.43,566.64,355.73,558.14,355.73,558.14Z"/><path class="s2d6-image2_16" d="M509.28,592.44c-20.28,4.69-40.51,9.64-60.57,15.18-10,2.79-20,5.71-29.86,9-4.92,1.67-9.8,3.44-14.55,5.5a62.75,62.75,0,0,0-6.91,3.46,17.9,17.9,0,0,0-3.06,2.2c-.89.8-1.69,1.87-1.38,2.73l-1.14.38a2.86,2.86,0,0,1,.33-2.36,6.84,6.84,0,0,1,1.35-1.64,19.9,19.9,0,0,1,3.26-2.37,62.72,62.72,0,0,1,7-3.57c4.8-2.11,9.7-3.91,14.63-5.62,9.87-3.4,19.86-6.37,29.89-9.22,20.06-5.65,40.28-10.71,60.55-15.52Z"/><path class="s2d6-image2_23" d="M524,588.13c-2.22.5-5.82,1.3-10.45,2.36"/><path class="s2d6-image2_12" d="M437.12,539.48a90.8,90.8,0,0,0,8.72-3q4.31-1.74,8.43-3.85a78.63,78.63,0,0,0,8-4.69,65.66,65.66,0,0,0,7.29-5.68l.82.87a65.17,65.17,0,0,1-7.34,5.93,81.52,81.52,0,0,1-8,4.92q-4.16,2.22-8.5,4.06c-2.9,1.21-5.82,2.31-8.87,3.24Z"/><line class="s2d6-image2_24" x1="553.97" y1="475.51" x2="548.9" y2="467.57"/><ellipse class="s2d6-image2_25" cx="512.88" cy="614.67" rx="1.45" ry="5.21" transform="translate(-6.46 5.44) rotate(-0.6)"/><ellipse class="s2d6-image2_25" cx="513.04" cy="630.18" rx="1.45" ry="5.21" transform="translate(-6.62 5.45) rotate(-0.6)"/><ellipse class="s2d6-image2_25" cx="505.21" cy="622.51" rx="5.21" ry="1.45" transform="translate(-6.54 5.36) rotate(-0.6)"/><ellipse class="s2d6-image2_25" cx="520.72" cy="622.34" rx="5.21" ry="1.45" transform="translate(-6.54 5.53) rotate(-0.6)"/><ellipse class="s2d6-image2_25" cx="422.58" cy="627.12" rx="1.45" ry="5.21" transform="translate(-6.59 4.49) rotate(-0.6)"/><ellipse class="s2d6-image2_25" cx="422.74" cy="642.63" rx="1.45" ry="5.21" transform="translate(-6.76 4.49) rotate(-0.6)"/><ellipse class="s2d6-image2_25" cx="414.9" cy="634.96" rx="5.21" ry="1.45" transform="translate(-6.67 4.41) rotate(-0.6)"/><ellipse class="s2d6-image2_25" cx="430.41" cy="634.79" rx="5.21" ry="1.45" transform="translate(-6.67 4.58) rotate(-0.6)"/><ellipse class="s2d6-image2_25" cx="514.38" cy="522.35" rx="1.03" ry="3.72" transform="translate(-5.48 5.45) rotate(-0.6)"/><ellipse class="s2d6-image2_25" cx="514.5" cy="533.42" rx="1.03" ry="3.72" transform="translate(-5.6 5.46) rotate(-0.6)"/><ellipse class="s2d6-image2_25" cx="508.91" cy="527.94" rx="3.72" ry="1.03" transform="translate(-5.54 5.4) rotate(-0.6)"/><ellipse class="s2d6-image2_25" cx="519.98" cy="527.82" rx="3.72" ry="1.03" transform="translate(-5.54 5.51) rotate(-0.6)"/><ellipse class="s2d6-image2_25" cx="560.94" cy="530.19" rx="0.89" ry="3.2" transform="translate(-5.56 5.95) rotate(-0.6)"/><ellipse class="s2d6-image2_25" cx="561.04" cy="539.71" rx="0.89" ry="3.2" transform="translate(-5.66 5.95) rotate(-0.6)"/><ellipse class="s2d6-image2_25" cx="556.23" cy="535" rx="3.2" ry="0.89" transform="translate(-5.61 5.9) rotate(-0.6)"/><ellipse class="s2d6-image2_25" cx="565.75" cy="534.9" rx="3.2" ry="0.89" transform="translate(-5.61 6) rotate(-0.6)"/><ellipse class="s2d6-image2_25" cx="377.67" cy="628.92" rx="0.7" ry="2.51" transform="translate(-6.61 4.02) rotate(-0.6)"/><ellipse class="s2d6-image2_25" cx="377.75" cy="636.4" rx="0.7" ry="2.51" transform="translate(-6.69 4.02) rotate(-0.6)"/><ellipse class="s2d6-image2_25" cx="373.97" cy="632.7" rx="2.51" ry="0.7" transform="translate(-6.65 3.98) rotate(-0.6)"/><ellipse class="s2d6-image2_25" cx="381.45" cy="632.62" rx="2.51" ry="0.7" transform="translate(-6.65 4.06) rotate(-0.6)"/><ellipse class="s2d6-image2_25" cx="477.45" cy="570.19" rx="1.03" ry="3.72" transform="translate(-5.99 5.07) rotate(-0.6)"/><ellipse class="s2d6-image2_25" cx="477.57" cy="581.26" rx="1.03" ry="3.72" transform="translate(-6.1 5.07) rotate(-0.6)"/><ellipse class="s2d6-image2_25" cx="471.98" cy="575.78" rx="3.72" ry="1.03" transform="translate(-6.05 5.01) rotate(-0.6)"/><ellipse class="s2d6-image2_25" cx="483.05" cy="575.66" rx="3.72" ry="1.03" transform="translate(-6.05 5.13) rotate(-0.6)"/><ellipse class="s2d6-image2_26" cx="546.77" cy="499.16" rx="1.45" ry="5.21" transform="translate(-5.23 5.8) rotate(-0.6)"/><ellipse class="s2d6-image2_26" cx="546.94" cy="514.68" rx="1.45" ry="5.21" transform="translate(-5.4 5.8) rotate(-0.6)"/><ellipse class="s2d6-image2_26" cx="539.1" cy="507" rx="5.21" ry="1.45" transform="translate(-5.32 5.71) rotate(-0.6)"/><ellipse class="s2d6-image2_26" cx="554.61" cy="506.84" rx="5.21" ry="1.45" transform="translate(-5.32 5.88) rotate(-0.6)"/><ellipse class="s2d6-image2_26" cx="529.6" cy="552.42" rx="1.45" ry="5.21" transform="translate(-5.8 5.62) rotate(-0.6)"/><ellipse class="s2d6-image2_26" cx="529.77" cy="567.93" rx="1.45" ry="5.21" transform="translate(-5.96 5.62) rotate(-0.6)"/><ellipse class="s2d6-image2_26" cx="521.93" cy="560.26" rx="5.21" ry="1.45" transform="translate(-5.88 5.54) rotate(-0.6)"/><ellipse class="s2d6-image2_26" cx="537.44" cy="560.09" rx="5.21" ry="1.45" transform="translate(-5.88 5.7) rotate(-0.6)"/><ellipse class="s2d6-image2_26" cx="441.86" cy="577.33" rx="1.45" ry="5.21" transform="translate(-6.07 4.69) rotate(-0.6)"/><ellipse class="s2d6-image2_26" cx="442.03" cy="592.85" rx="1.45" ry="5.21" transform="translate(-6.23 4.7) rotate(-0.6)"/><ellipse class="s2d6-image2_26" cx="434.19" cy="585.17" rx="5.21" ry="1.45" transform="translate(-6.15 4.61) rotate(-0.6)"/><ellipse class="s2d6-image2_26" cx="449.7" cy="585.01" rx="5.21" ry="1.45" transform="translate(-6.15 4.78) rotate(-0.6)"/><ellipse class="s2d6-image2_26" cx="410.82" cy="593.3" rx="1.03" ry="3.72" transform="translate(-6.24 4.37) rotate(-0.6)"/><ellipse class="s2d6-image2_26" cx="410.93" cy="604.37" rx="1.03" ry="3.72" transform="translate(-6.35 4.37) rotate(-0.6)"/><ellipse class="s2d6-image2_26" cx="405.34" cy="598.89" rx="3.72" ry="1.03" transform="translate(-6.29 4.31) rotate(-0.6)"/><ellipse class="s2d6-image2_26" cx="416.41" cy="598.77" rx="3.72" ry="1.03" transform="translate(-6.29 4.43) rotate(-0.6)"/><ellipse class="s2d6-image2_26" cx="494.39" cy="549.19" rx="0.7" ry="2.51" transform="translate(-5.77 5.25) rotate(-0.6)"/><ellipse class="s2d6-image2_26" cx="494.46" cy="556.67" rx="0.7" ry="2.51" transform="translate(-5.84 5.25) rotate(-0.6)"/><ellipse class="s2d6-image2_26" cx="490.69" cy="552.97" rx="2.51" ry="0.7" transform="translate(-5.81 5.21) rotate(-0.6)"/><ellipse class="s2d6-image2_26" cx="498.17" cy="552.89" rx="2.51" ry="0.7" transform="translate(-5.8 5.29) rotate(-0.6)"/><ellipse class="s2d6-image2_26" cx="479.12" cy="631.77" rx="0.7" ry="2.51" transform="translate(-6.64 5.09) rotate(-0.6)"/><ellipse class="s2d6-image2_26" cx="479.2" cy="639.25" rx="0.7" ry="2.51" transform="translate(-6.72 5.09) rotate(-0.6)"/><ellipse class="s2d6-image2_26" cx="475.42" cy="635.55" rx="2.51" ry="0.7" transform="translate(-6.68 5.05) rotate(-0.6)"/><ellipse class="s2d6-image2_26" cx="482.9" cy="635.48" rx="2.51" ry="0.7" transform="translate(-6.68 5.13) rotate(-0.6)"/><ellipse class="s2d6-image2_26" cx="455.59" cy="615.38" rx="1.03" ry="3.72" transform="translate(-6.47 4.84) rotate(-0.6)"/><ellipse class="s2d6-image2_26" cx="455.71" cy="626.45" rx="1.03" ry="3.72" transform="translate(-6.58 4.84) rotate(-0.6)"/><ellipse class="s2d6-image2_26" cx="450.11" cy="620.98" rx="3.72" ry="1.03" transform="matrix(1, -0.01, 0.01, 1, -6.53, 4.78)"/><ellipse class="s2d6-image2_26" cx="461.18" cy="620.86" rx="3.72" ry="1.03" transform="translate(-6.52 4.9) rotate(-0.6)"/><path class="s2d6-image2_16" d="M490,489l-.11,1.14c0-.15,4.7-16.4,38.11-23.94.11,0,12.65-2.8,19.4-2.29l-1.24-3.72a93.79,93.79,0,0,0-24.56,4.57c-19.78,6-28.93,16.33-31.46,21.34"/><polygon class="s2d6-image2_12" points="475.45 328.58 479.1 343.04 478.11 343.31 473.91 329 475.45 328.58"/><path class="s2d6-image2_1" d="M475.67,325.08c2.93-2.7,6.77-4.14,10.54-5.45a25.56,25.56,0,0,1,7.81-1.79,15.31,15.31,0,0,1,11.45,5.23,20.6,20.6,0,0,1,4.88,11.8,15.87,15.87,0,0,1-1.6,9.24c-2.73,4.89-8.46,7.12-13.75,9a7,7,0,0,1-4.14.57"/><line class="s2d6-image2_14" x1="417.62" y1="381.71" x2="417.62" y2="381.71"/><path class="s2d6-image2_27" d="M421.94,383.18c6,3,8.88,8.83,10,12"/><line class="s2d6-image2_14" x1="432.63" y1="397.38" x2="432.63" y2="397.38"/><path class="s2d6-image2_16" d="M427.83,403.51c-.11-.57-4.19-15.16-17.35-17.82l3.21-2.8c12.32,3.13,16.34,14.25,17.37,18"/><path class="s2d6-image2_16" d="M301.6,399.75l1.94,1.29c-.88-3.07-.61-6.32.59-8.12,1.73-2.58,6.62-4,5.45-3.71l-1.67-.89a7.57,7.57,0,0,0-5.31,3.55C301.07,394.15,300.56,396.12,301.6,399.75Z"/><ellipse class="s2d6-image2_23" cx="502.29" cy="574.05" rx="0.7" ry="2.51" transform="matrix(1, -0.01, 0.01, 1, -6.03, 5.33)"/><ellipse class="s2d6-image2_23" cx="524.66" cy="498.07" rx="0.7" ry="2.51" transform="translate(-5.22 5.56) rotate(-0.6)"/><ellipse class="s2d6-image2_23" cx="392.03" cy="608.9" rx="0.7" ry="2.51" transform="translate(-6.4 4.17) rotate(-0.6)"/><ellipse class="s2d6-image2_23" cx="457.64" cy="572.01" rx="2.51" ry="0.7" transform="translate(-6.01 4.86) rotate(-0.6)"/><ellipse class="s2d6-image2_23" cx="536.32" cy="532.3" rx="2.51" ry="0.7" transform="translate(-5.58 5.69) rotate(-0.6)"/><ellipse class="s2d6-image2_23" cx="394.4" cy="640.77" rx="2.51" ry="0.7" transform="translate(-6.74 4.2) rotate(-0.6)"/><ellipse class="s2d6-image2_23" cx="483.41" cy="611.99" rx="2.51" ry="0.7" transform="translate(-6.43 5.13) rotate(-0.6)"/><g class="s2d6-image2_28"><path class="s2d6-image2_13" d="M355.8,596.85a.09.09,0,1,1,0-.18.09.09,0,1,1,0,.18Z"/><path class="s2d6-image2_13" d="M365.71,589.06a.23.23,0,0,1-.24-.24.24.24,0,0,1,.24-.24.24.24,0,0,1,.24.24A.24.24,0,0,1,365.71,589.06Z"/><path class="s2d6-image2_13" d="M374.44,580a.39.39,0,0,1,0-.78.39.39,0,0,1,0,.78Z"/><circle class="s2d6-image2_13" cx="383.25" cy="570.4" r="0.52"/><path class="s2d6-image2_13" d="M393.37,563.38a.63.63,0,0,1,0-1.26.63.63,0,0,1,0,1.26Z"/><path class="s2d6-image2_13" d="M405.31,559.26a.74.74,0,1,1,.74-.74A.74.74,0,0,1,405.31,559.26Z"/><path class="s2d6-image2_13" d="M418,558.39a.88.88,0,1,1,.88-.88A.87.87,0,0,1,418,558.39Z"/><path class="s2d6-image2_13" d="M430.69,558.56a1,1,0,1,1,0-1.91,1,1,0,0,1,0,1.91Z"/><path class="s2d6-image2_13" d="M443.35,557.36a.83.83,0,1,1,.82-.83A.83.83,0,0,1,443.35,557.36Z"/><path class="s2d6-image2_13" d="M455.2,552.65a.55.55,0,0,1-.56-.55.56.56,0,0,1,1.12,0A.55.55,0,0,1,455.2,552.65Z"/><path class="s2d6-image2_13" d="M464,543.17a.09.09,0,0,1-.09-.1A.09.09,0,0,1,464,543a.1.1,0,0,1,.1.09A.1.1,0,0,1,464,543.17Z"/><path class="s2d6-image2_13" d="M329.61,586.51a.12.12,0,0,1,0-.24.12.12,0,1,1,0,.24Z"/><path class="s2d6-image2_13" d="M342.32,583.27a.52.52,0,1,1,.52-.52A.51.51,0,0,1,342.32,583.27Z"/><path class="s2d6-image2_13" d="M354.06,577.51a.84.84,0,1,1,.84-.84A.85.85,0,0,1,354.06,577.51Z"/><circle class="s2d6-image2_13" cx="364.4" cy="568.42" r="1.17"/><circle class="s2d6-image2_13" cx="375.13" cy="560.75" r="1.12"/><circle class="s2d6-image2_13" cx="387.85" cy="557.37" r="0.12"/><path class="s2d6-image2_13" d="M391.81,537.23a.12.12,0,0,1-.13-.12.13.13,0,0,1,.13-.13.12.12,0,0,1,.12.13A.12.12,0,0,1,391.81,537.23Z"/><circle class="s2d6-image2_13" cx="402.93" cy="531.68" r="0.62"/><circle class="s2d6-image2_13" cx="414.99" cy="528.9" r="0.99"/><circle class="s2d6-image2_13" cx="427.37" cy="528.84" r="1.23"/><path class="s2d6-image2_13" d="M439.43,531.69a.12.12,0,0,1-.12-.13.12.12,0,0,1,.24,0A.12.12,0,0,1,439.43,531.69Z"/><path class="s2d6-image2_13" d="M388.53,525.79a.12.12,0,0,1-.12-.12.12.12,0,1,1,.24,0A.12.12,0,0,1,388.53,525.79Z"/><circle class="s2d6-image2_13" cx="402.45" cy="522.71" r="0.99"/><path class="s2d6-image2_13" d="M416.52,525a.12.12,0,0,1-.12-.12.12.12,0,0,1,.12-.13.13.13,0,0,1,.13.13A.12.12,0,0,1,416.52,525Z"/><path class="s2d6-image2_13" d="M547.09,479.6a.12.12,0,0,1-.12-.12.12.12,0,1,1,.24,0A.12.12,0,0,1,547.09,479.6Z"/><path class="s2d6-image2_13" d="M535.45,480.21a.38.38,0,0,1-.38-.37.38.38,0,0,1,.75,0A.38.38,0,0,1,535.45,480.21Z"/><path class="s2d6-image2_13" d="M523.88,481.76a.61.61,0,0,1-.62-.61.62.62,0,1,1,1.23,0A.61.61,0,0,1,523.88,481.76Z"/><path class="s2d6-image2_13" d="M512.69,485.15a.81.81,0,1,1,.8-.81A.8.8,0,0,1,512.69,485.15Z"/><path class="s2d6-image2_13" d="M502.63,491.13a1,1,0,1,1,1-1A1,1,0,0,1,502.63,491.13Z"/><circle class="s2d6-image2_13" cx="494.88" cy="498.78" r="1.22"/><path class="s2d6-image2_13" d="M489.43,510.3a1.24,1.24,0,1,1,1.23-1.23A1.23,1.23,0,0,1,489.43,510.3Z"/><circle class="s2d6-image2_13" cx="484.73" cy="519.73" r="0.87"/><path class="s2d6-image2_13" d="M479.12,530a.13.13,0,0,1-.12-.12.13.13,0,0,1,.12-.13.13.13,0,0,1,.13.13A.13.13,0,0,1,479.12,530Z"/></g><g class="s2d6-image2_29"><path class="s2d6-image2_13" d="M667.07,493.94A.93.93,0,1,1,668,493,.93.93,0,0,1,667.07,493.94Z"/><path class="s2d6-image2_13" d="M654.75,494.16a.89.89,0,1,1,.88-.89A.89.89,0,0,1,654.75,494.16Z"/><path class="s2d6-image2_13" d="M642.65,496.52a.85.85,0,1,1,0-1.7.85.85,0,1,1,0,1.7Z"/><path class="s2d6-image2_13" d="M631.18,501a.81.81,0,0,1-.81-.81.82.82,0,0,1,.81-.82.82.82,0,0,1,.82.82A.82.82,0,0,1,631.18,501Z"/><circle class="s2d6-image2_13" cx="620.67" cy="506.66" r="0.76"/><circle class="s2d6-image2_13" cx="609.76" cy="512.4" r="0.71"/><path class="s2d6-image2_13" d="M597.75,513.6a.66.66,0,1,1,.65-.66A.65.65,0,0,1,597.75,513.6Z"/><circle class="s2d6-image2_13" cx="588.48" cy="504.97" r="0.6"/><path class="s2d6-image2_13" d="M653,481.63a.12.12,0,0,1-.12-.13.12.12,0,0,1,.24,0A.12.12,0,0,1,653,481.63Z"/><path class="s2d6-image2_13" d="M641.27,484.73a.39.39,0,1,1,.4-.39A.39.39,0,0,1,641.27,484.73Z"/><circle class="s2d6-image2_13" cx="630.71" cy="490.72" r="0.65"/><circle class="s2d6-image2_13" cx="619.29" cy="495.38" r="0.86"/><circle class="s2d6-image2_13" cx="607.28" cy="498.1" r="1.08"/><path class="s2d6-image2_13" d="M595,498.79a1.29,1.29,0,1,1,1.29-1.29A1.29,1.29,0,0,1,595,498.79Z"/><circle class="s2d6-image2_13" cx="583.61" cy="492.74" r="1.13"/><path class="s2d6-image2_13" d="M574.69,485a.45.45,0,1,1,0-.89.45.45,0,1,1,0,.89Z"/></g><path class="s2d6-image2_24" d="M583.47,597.19a7.92,7.92,0,0,0-9.06-1.5"/><polygon class="s2d6-image2_12" points="525.55 435.76 527.49 445.28 526.32 445.55 523.76 436.21 525.55 435.76"/><path class="s2d6-image2_12" d="M504.16,380.64a13,13,0,0,1,1.13,1.34c.33.44.65.89.95,1.35.61.91,1.17,1.84,1.71,2.78,1.08,1.87,2,3.81,2.95,5.75,1.82,3.91,3.41,7.89,4.88,11.92.72,2,1.41,4,2.1,6.07s1.32,4.07,1.93,6.12,1.22,4.09,1.79,6.15l1.69,6.19-1.16.31-1.75-6.14c-.6-2.05-1.25-4.07-1.87-6.11s-1.34-4-2-6.06-1.42-4-2.16-6c-1.51-4-3.14-7.9-5-11.72-.93-1.9-1.89-3.79-3-5.59-.53-.91-1.09-1.8-1.68-2.65A17.9,17.9,0,0,0,502.9,382Z"/><path class="s2d6-image2_18" d="M451.6,275s4.95-8.48,13.43,0"/><line class="s2d6-image2_30" x1="410.75" y1="418.16" x2="441" y2="393.05"/><path class="s2d6-image2_30" d="M299,398.2l61.86,41.08s9.72,9.71,26.19-2.71l16.48-12.43"/><path class="s2d6-image2_20" d="M427.06,305.58s1.14-7.62,7-11.16a21.82,21.82,0,0,1,15.47-2.84"/><circle class="s2d6-image2_12" cx="427.06" cy="316.89" r="1.14"/><path class="s2d6-image2_20" d="M427.45,336.3c-.57.62,1,1.31,1.76,1.74a11.15,11.15,0,0,0,5,1.65,6.06,6.06,0,0,0,4.76-1.79,2.82,2.82,0,0,0,.83-1.79S434,329.11,427.45,336.3Z"/><path class="s2d6-image2_16" d="M467.42,290.48a15,15,0,0,0-1.72,6.16,18.8,18.8,0,0,0,1.06,8.62A9.39,9.39,0,0,0,473,311c3.16.72,6.47-.72,9-2.81a12.86,12.86,0,0,0,2.69-3c1.6-2.55,2-5.68,2.08-8.69.2-4.46,0-9.1-2.08-13.07a23.41,23.41,0,0,0-3.91-5.43C481.54,284.57,470.73,284.38,467.42,290.48Z"/><path class="s2d6-image2_13" d="M469.56,294.19h0a5.56,5.56,0,0,1,2.13-2.78,13.26,13.26,0,0,1,3-1.49,5,5,0,0,1,1.55-.42c1.57-.06,2.86,1.35,3.59,2.84a10.72,10.72,0,0,1,1,6.08h0s0,.06,0,.15a9.51,9.51,0,0,1-.62,2.22c0,.08-.08.16-.11.24a12.71,12.71,0,0,1-4.1,5.52,2,2,0,0,1-3-.57C471.29,303.14,468.27,297.41,469.56,294.19Z"/><path class="s2d6-image2_12" d="M475.34,302.2a9.87,9.87,0,0,0,2-6.22,6,6,0,0,0-.21-1.54c-.16-.45-.36-.65-.6-.68a2.38,2.38,0,0,0-1.22.27,1.66,1.66,0,0,0-.84.78l-1.56-.72a3.29,3.29,0,0,1,1.73-1.56,3.82,3.82,0,0,1,2.23-.31,2.21,2.21,0,0,1,1.16.72,3,3,0,0,1,.53,1.07,7.25,7.25,0,0,1,.2,2,11.09,11.09,0,0,1-2.58,6.92Z"/><path class="s2d6-image2_18" d="M488,280.51s9.49,17.07,9.17,29.62,6.22,21.91,13.23,24.74"/><path class="s2d6-image2_18" d="M489.06,301.18S487.63,317,491.27,326s17.72,21.1,26.56,21.82"/><path class="s2d6-image2_18" d="M483.29,319s-1.74,15.57,5.49,20"/><path class="s2d6-image2_16" d="M424.51,289.12a8.64,8.64,0,0,1-1.48,4.55,8.64,8.64,0,0,1-1.48-4.55c0-2.51.66-4.55,1.48-4.55S424.51,286.61,424.51,289.12Z"/><path class="s2d6-image2_11" d="M471.91,306.08l-.13,32.72c0,3.06,4.73,3.06,4.75,0l.13-32.72c0-3.06-4.73-3.06-4.75,0Z"/><path class="s2d6-image2_19" d="M470.24,288.27s-30.78-20.44-47.06-.57c0,0-4.17-7.45-15.3-.24l.5-4.9s7.11-5.77,14.18-1.78c0,0,18.51-20.71,53.11,4.37Z"/><path class="s2d6-image2_22" d="M472.91,502.31c-1.86.06-3.71-.3-5.56-.31a14.71,14.71,0,0,0-8.05,2.34c-.41-1.35.28-2.77,1-4,1.81-3.16,4.37-6.54,8-6.72,2.66-.14,5,1.8,7.67,2.09,6.79.76,8.35-2.28,10.45-3C486.38,499.55,476.14,502.19,472.91,502.31Z"/><path class="s2d6-image2_22" d="M560.61,461.13c4.21-.3,8.68.63,11.86,3.4,3.81,3.32,5.26,8.74,9,12.12A12.73,12.73,0,0,0,594.34,479a12.78,12.78,0,0,1,1.44-10.78c-3.43.41-7,.66-10.21-.71-5-2.17-7.68-7.79-12.34-10.65-4.13-2.53-9.49-2.56-14-.77a21.4,21.4,0,0,0-9.47,7.18C552.71,463.94,557.35,461.37,560.61,461.13Z"/><path class="s2d6-image2_13" d="M168.41,295.18V291c-.1-3.07,2.86-8.08,5.69-6.89,16.73,7,68,32.47,66.55,77.61L176.5,317.38Z"/><path class="s2d6-image2_31" d="M165.48,182.37c-2.18-3.62-3.94-7.72-3.52-11.9.52-5.21,4.23-9.49,7.61-13.54s6.74-8.77,6.36-14c2.07,5.13,7.74,7.71,12.18,11.12a30.91,30.91,0,0,1,9.95,13.27"/><path class="s2d6-image2_31" d="M154.87,188.3c-2-5.16-3.81-12.75-1.08-19.67,2.23-5.66,7-9.72,11.55-13.65,3.9-3.35,7.93-6.81,10.34-11.2l1.26.69c-2.54,4.62-6.67,8.17-10.67,11.6-4.65,4-9.05,7.76-11.15,13.09-2.56,6.48-.82,13.7,1.08,18.62Z"/><path class="s2d6-image2_13" d="M243.3,198.67l2.24,5.55a76.8,76.8,0,0,1,5.05,38c-2.38,19.64-9.26,45.14-28.93,45.73-9.1.28-46.22-28.83-46.22-28.83s-6.24-5.77-7.09-13.11l-3.78-16.72,1.18-9.29,7.43-4.57,7.9-3.53,13.6-8.65Z"/><path class="s2d6-image2_13" d="M237.28,254.73c-1.08,2.43-1.55,4.73-.56,6.37a4,4,0,0,0,1.73,1.56c4.48,2.21,3.82,2.78,6,2.06,1.67-.53-.9-.27-.9-.27l3.81-5.38s8.94-2.54,8.76-5c-.22-3.5-4.57-4.32-7.1-9.24l-1.67-3.34S239.8,249.22,237.28,254.73Z"/><path class="s2d6-image2_13" d="M200.43,268.75l-4.09,22.68a8.45,8.45,0,0,1-9.63,6.75h0a7.71,7.71,0,0,1-6.6-8.06l2.22-34.49Z"/><path class="s2d6-image2_12" d="M183.78,265.76A56.9,56.9,0,0,0,181.5,276l-.71-.07a58,58,0,0,1,1.93-10.52Z"/><path class="s2d6-image2_12" d="M181.2,191.15c-10.6-3.33-19.23,10.33-21.71,25l0,0c-.14.83-.26,1.61-.37,2.42a.21.21,0,0,0,0,.13c0,.15,0,.29,0,.44a3.15,3.15,0,0,0,0,.44.22.22,0,0,0,0,.13,45.86,45.86,0,0,0-.1,8.83,71.85,71.85,0,0,0,9.52,30.06l15.38-2.79c-.52-.07-3.38-.86-4.93-8.92-1.72-8.87,3.93-18.83,11-16.18s3.34,15,3.34,15l2.47.18c8.61-9.7,12.62-20.92,10.77-31.21,0,0,16.9-3.79,27.71-3.41,5.34.19,10-4.06,9.51-8.88,0-.1,0-.2,0-.3-1.71-13.15-18.46-21.79-39.38-21.64S181.2,191.15,181.2,191.15Z"/><path class="s2d6-image2_12" d="M185.32,168.38s-15.63-.11-27.16,9.34S149.34,201,149.34,201a15,15,0,0,1,5.18-9.75s-6.85,17,4.47,28.51a.22.22,0,0,1,0-.13,3.15,3.15,0,0,1,0-.44,1.77,1.77,0,0,1,0-.44.21.21,0,0,1,0-.13,18.75,18.75,0,0,1,.37-2.42l0,0c1.17-5.3,5.39-14.74,20.15-16.18a65,65,0,0,1,35.67,6.55c-1.61-.72-12.61-5.29-23.85.42,0,0,11.57-4.34,17.5,6.69,0,0,15.32-3.09,26.39-2.22,4,.31,7.44-4.28,10.19-7.18.25-.27,2.37,7.91,2.62,7.62,2.35-2.81,2.93-11.83,1.81-16.32-2.59-10.24-17.81-27-41.76-28.23-13.27-.68-21.17-2.35-25.54-3.72a19.6,19.6,0,0,1-4.8-2S179,166.42,185.32,168.38Z"/><path class="s2d6-image2_32" d="M226.31,186c-2.79-3.41-7.36-4.82-10.7-5.4-2.23-.39-4.55-.56-6.78-.73-1.9-.13-3.86-.28-5.77-.55a41,41,0,0,1-13.49-4.4l.44-.82a40.19,40.19,0,0,0,13.18,4.3c1.88.27,3.82.41,5.7.55a67.49,67.49,0,0,1,6.88.73c5,.87,8.91,2.86,11.26,5.74Z"/><path class="s2d6-image2_32" d="M164.57,202l-.9-.23,1.11-4.31a18.3,18.3,0,0,1,18.67-13.85l.87.07c4.68.46,9.18,2,13.53,3.53,2,.7,4.12,1.42,6.2,2,1.89.54,3.87,1,5.78,1.48,6,1.45,12.21,2.95,17,6.86l-.59.72c-4.63-3.77-10.74-5.25-16.64-6.67-1.92-.47-3.91-1-5.82-1.5-2.1-.61-4.21-1.34-6.25-2-4.3-1.49-8.74-3-13.31-3.48l-.84-.07a17.36,17.36,0,0,0-17.71,13.15Z"/><path class="s2d6-image2_32" d="M177.38,213.41a14.35,14.35,0,0,1-6.5-7.33c-.57-1.46-1.62-5.18,1-8.3a10.35,10.35,0,0,1,6.2-3.24,32,32,0,0,1,19,3c5.29,2.55,5.79,2.4,9,1.46.94-.28,2.11-.62,3.67-1l.24,1c-1.53.35-2.69.69-3.61,1-3.51,1-4.25,1.12-9.76-1.52a31.08,31.08,0,0,0-18.34-2.93,9.28,9.28,0,0,0-5.56,2.87c-2.24,2.69-1.31,6-.81,7.25a13,13,0,0,0,6,6.78Z"/><path class="s2d6-image2_32" d="M188.54,227c-5.95-1.09-10.68-5.26-14.64-9.07a27.83,27.83,0,0,1-2.59-2.74c-3.07-3.82-3.59-7.8-1.59-12.17l.85.39a10,10,0,0,0,1.46,11.2,28.38,28.38,0,0,0,2.51,2.65c3.87,3.72,8.47,7.78,14.17,8.82Z"/><path class="s2d6-image2_32" d="M178.58,232.12c-6.22-3.24-10-9.48-13-15.07a33.73,33.73,0,0,1-1.91-3.92,18.6,18.6,0,0,1,.16-13.63l1,.41a17.54,17.54,0,0,0-.15,12.83,32.27,32.27,0,0,0,1.85,3.79c3,5.45,6.61,11.53,12.56,14.64Z"/><path class="s2d6-image2_12" d="M211.63,233.39a12.26,12.26,0,0,1,5-1.32,14.58,14.58,0,0,1,5.06.75,20.29,20.29,0,0,1,4.51,2.14,21.79,21.79,0,0,1,3.92,3.08L229,239.19a20.6,20.6,0,0,0-3.67-2.71,19,19,0,0,0-4.17-1.82,12.42,12.42,0,0,0-4.38-.52,9.79,9.79,0,0,0-4.1,1.2Z"/><path class="s2d6-image2_12" d="M213,224.32a14.53,14.53,0,0,1,11.27-1.93c.31.06.62.15.93.23a6.36,6.36,0,0,1,1,.32c.6.23,1.17.5,1.74.77s1.13.54,1.7.87a9.76,9.76,0,0,1,1.62,1.16,12.63,12.63,0,0,1,2.47,3,34.42,34.42,0,0,1,3,6.94l-1,.34a33.55,33.55,0,0,0-3-6.67,11.49,11.49,0,0,0-2.3-2.69,12.1,12.1,0,0,0-3.06-1.78c-.56-.26-1.12-.5-1.68-.71a6,6,0,0,0-.82-.25c-.29-.07-.58-.15-.87-.2a14.12,14.12,0,0,0-3.54-.29,13.82,13.82,0,0,0-6.64,2.22Z"/><path class="s2d6-image2_12" d="M250.09,221.82a6.83,6.83,0,0,0-6.9,1.31,8.77,8.77,0,0,0-2.62,4.91c-.08.6-.11,1.31-.13,2a13.91,13.91,0,0,0,1.78,7.57,27.06,27.06,0,0,0,5.2,6.09l-.68.76a28.11,28.11,0,0,1-5.53-6.26,14,14,0,0,1-1.63-3.95,16.8,16.8,0,0,1-.46-4.22,19.61,19.61,0,0,1,.1-2.14,9.65,9.65,0,0,1,.57-2.14,10,10,0,0,1,2.43-3.66,8.33,8.33,0,0,1,8.44-1.69Z"/><path class="s2d6-image2_12" d="M252.53,231.07l-1,.16-1,.25a8.81,8.81,0,0,0-1.86.81,5.73,5.73,0,0,0-1.51,1.26,4.07,4.07,0,0,0-.86,1.64l-1.17-.14a5.19,5.19,0,0,1,1-2.3,7.12,7.12,0,0,1,1.78-1.64,9.84,9.84,0,0,1,2.14-1c.37-.13.75-.23,1.12-.34l1.14-.24Z"/><ellipse class="s2d6-image2_32" cx="215.39" cy="254.11" rx="9.44" ry="9.25" transform="translate(-14.88 13.4) rotate(-3.44)"/><path class="s2d6-image2_33" d="M212.34,284.61A82.19,82.19,0,0,1,189.75,270"/><path class="s2d6-image2_31" d="M193,264.33c-5.49,5.7-30,12.25-50.4-3.62s-1.31-33,6.85-25.65c5.53,5,4.7,9.63,1,12.08,0,0-5.18,4.75-9.77-1.27,0,0,1.15,5.16,10,9.35s17.46,4.5,23.22,1.08c0,0-10.09-7.14-8.22-15.7S168.82,227.86,162,224c0,0,9.75-.18,12.4,4.43,0,0,15.13-9.76-10.31-26.47,0,0,35.47,6.72,38.9,33.24C203,235.15,204.88,252,193,264.33Z"/><path class="s2d6-image2_13" d="M193.85,239.08h0a6.86,6.86,0,0,0-3.09-3,16.69,16.69,0,0,0-4-1.29,6.4,6.4,0,0,0-2-.24c-1.94.18-3.29,2.1-3.94,4a12.83,12.83,0,0,0-.19,7.49h0s0,.07.06.18a10.92,10.92,0,0,0,1.13,2.57c0,.09.12.18.18.27a15.56,15.56,0,0,0,6,6,2.56,2.56,0,0,0,3.57-1.18C193.22,250.15,196,242.74,193.85,239.08Z"/><path class="s2d6-image2_12" d="M187.13,250.72a13.39,13.39,0,0,1-4.35-8,8.21,8.21,0,0,1-.08-2.45,3.44,3.44,0,0,1,.52-1.4,2.66,2.66,0,0,1,1.34-1,3.68,3.68,0,0,1,1.46-.19,6.41,6.41,0,0,1,1.3.21,4,4,0,0,1,2.39,1.6l-1.85,1.2a2,2,0,0,0-1.13-.77,2.93,2.93,0,0,0-1.53-.14c-.29.08-.49.3-.61.86a6.53,6.53,0,0,0,0,1.88,11.83,11.83,0,0,0,3.52,7.16Z"/><path class="s2d6-image2_13" d="M139.65,250.57a.08.08,0,0,1,0-.16.08.08,0,0,1,0,.16Z"/><path class="s2d6-image2_13" d="M145.05,256.31a.29.29,0,1,1,.29-.29A.29.29,0,0,1,145.05,256.31Z"/><path class="s2d6-image2_13" d="M151.48,260.8a.47.47,0,0,1-.47-.47.48.48,0,1,1,1,0A.47.47,0,0,1,151.48,260.8Z"/><path class="s2d6-image2_13" d="M158.67,263.84a.64.64,0,0,1,0-1.28.64.64,0,0,1,0,1.28Z"/><path class="s2d6-image2_13" d="M166.31,265.24a.81.81,0,1,1,.81-.81A.8.8,0,0,1,166.31,265.24Z"/><path class="s2d6-image2_13" d="M174.05,264.62a.58.58,0,0,1-.59-.59.59.59,0,0,1,.59-.59.6.6,0,0,1,.59.59A.59.59,0,0,1,174.05,264.62Z"/><path class="s2d6-image2_34" d="M240,262.12a5.53,5.53,0,0,0-3.77-.76,26.83,26.83,0,0,0-2.86,1.11c-2.06.68-4.3.2-6.4-.32a7.34,7.34,0,0,0,7.52,1.88,11.16,11.16,0,0,1,2.08-.66c2-.25,3.69,1.54,5.57,1.36C242.36,263.49,241,262.68,240,262.12Z"/><path class="s2d6-image2_34" d="M243.12,262.5a3.76,3.76,0,0,1,2.46-1.19,18.35,18.35,0,0,1,2.19.32,7.83,7.83,0,0,0,4.35-1.31,5,5,0,0,1-4.84,2.63,7.47,7.47,0,0,0-1.56-.13c-1.44.16-2.26,1.73-3.59,1.92C241.77,263.87,242.56,263.07,243.12,262.5Z"/><path class="s2d6-image2_31" d="M153.44,193c7.69,8.92,19.19,13.63,30.23,18,7.65,3,15.83,6.15,24,4.68,3.37-.61,6.55-2,9.91-2.67a24.77,24.77,0,0,1,19,4c.62-5.76,7.28-10.1,12.93-8.44,0,0,1.58-2.47.79-10,0,0-14.33,0-16.78,8.45,0,0-10.41-6.94-28.84-.32-15.71,5.64-38.66-7.93-49.9-17.34Z"/><path class="s2d6-image2_31" d="M200,190.92a.41.41,0,0,0,.28.36,28.66,28.66,0,0,1,11.52,7.95s8.75.62,10.58.56c7,.57,9.33,3.51,9.33,3.51,1.22-6.06,15.27-8.06,16.74-8.78l.45-.14a28.26,28.26,0,0,1,9-10.54.41.41,0,0,0-.17-.74c-1-.14-2-.34-3-.59a.37.37,0,0,0-.29,0l-5.5,2.88L246.78,180a.4.4,0,0,0-.22-.22c-.76-.31-1.51-.64-2.26-1a.4.4,0,0,0-.42,0,.38.38,0,0,0-.16.37c.34,3-1,6.51-4.8,6.22-5-.4-3.6-6.5-.7-9.12a.4.4,0,0,0-.07-.65c-.63-.36-3.27-7.07-6.5-12.27-2.19-3.53-4.66-6.36-7-6-2.48.36-4.06,4.36-5.13,8.77-1.33,5.55-1.85,11.76-2.34,12.23a.41.41,0,0,0-.11.35.41.41,0,0,0,.21.3c3.48,1.79,6.42,7.34,1.68,9-3.62,1.26-5.8-1.8-6.24-4.79a.39.39,0,0,0-.26-.32.41.41,0,0,0-.41.07c-.64.52-1.28,1-1.93,1.52a.45.45,0,0,0-.16.27l-.66,5.79-6.06-1.38a.37.37,0,0,0-.29,0c-1,.51-1.88,1-2.77,1.34A.4.4,0,0,0,200,190.92Zm36-3.4a17.71,17.71,0,0,0-3.93,6.81.43.43,0,0,1-.35.28.41.41,0,0,1-.4-.2,18.25,18.25,0,0,0-5.44-5.69.37.37,0,0,1-.19-.29.41.41,0,0,1,.11-.33,18.12,18.12,0,0,0,3.93-6.81.42.42,0,0,1,.75-.09,17.92,17.92,0,0,0,5.44,5.69.4.4,0,0,1,.19.3A.44.44,0,0,1,236,187.52Zm13.26,2.75a10.28,10.28,0,0,0-3.77,1.91.35.35,0,0,1-.34.06.32.32,0,0,1-.23-.25,10,10,0,0,0-1.66-3.74.36.36,0,0,1-.06-.37.39.39,0,0,1,.28-.26,10.14,10.14,0,0,0,4.05-2.21.1.1,0,0,1,.09,0,.09.09,0,0,1,0,.07,9.68,9.68,0,0,0,1.79,4.26.36.36,0,0,1,.05.33A.35.35,0,0,1,249.25,190.27Zm-35-.59a.41.41,0,0,1,.4,0,10.38,10.38,0,0,0,4,.93.43.43,0,0,1,.33.18.4.4,0,0,1,0,.38,10,10,0,0,0-.73,3.93.38.38,0,0,1-.18.35.41.41,0,0,1-.4,0,10.42,10.42,0,0,0-4-.93.46.46,0,0,1-.34-.19.38.38,0,0,1,0-.37,10,10,0,0,0,.72-3.93A.39.39,0,0,1,214.26,189.68Z"/><path class="s2d6-image2_31" d="M228.26,187.85a.34.34,0,0,0-.1.28.38.38,0,0,0,.16.25,9.58,9.58,0,0,1,2.64,2.73.36.36,0,0,0,.34.16.35.35,0,0,0,.29-.23,9.79,9.79,0,0,1,2-3.33.29.29,0,0,0,.08-.23.28.28,0,0,0-.13-.21,9.79,9.79,0,0,1-2.7-2.77.33.33,0,0,0-.34-.16.37.37,0,0,0-.29.23A9.85,9.85,0,0,1,228.26,187.85Z"/><path class="s2d6-image2_31" d="M245.18,188.25a.18.18,0,0,0-.13.12.19.19,0,0,0,0,.18,4.36,4.36,0,0,1,.7,1.55.24.24,0,0,0,.13.15.19.19,0,0,0,.19,0,4.87,4.87,0,0,1,1.54-.78.19.19,0,0,0,.14-.12.19.19,0,0,0,0-.18,4.54,4.54,0,0,1-.7-1.55.2.2,0,0,0-.12-.15.21.21,0,0,0-.2,0A4.77,4.77,0,0,1,245.18,188.25Z"/><path class="s2d6-image2_31" d="M214.8,193.41a.17.17,0,0,0,0,.18.19.19,0,0,0,.16.09,4.53,4.53,0,0,1,1.68.39.2.2,0,0,0,.2,0,.22.22,0,0,0,.09-.17,4.27,4.27,0,0,1,.31-1.67.22.22,0,0,0,0-.18.19.19,0,0,0-.16-.09,4.75,4.75,0,0,1-1.69-.4.19.19,0,0,0-.19,0,.19.19,0,0,0-.09.17A4.54,4.54,0,0,1,214.8,193.41Z"/><path class="s2d6-image2_31" d="M210.9,201c-4,1.06-7.86,2.45-11.92,3a37.55,37.55,0,0,1-16.27-1.48,62.68,62.68,0,0,1-14.78-7,63.69,63.69,0,0,0,7.51,2.65,92.45,92.45,0,0,0,12.46,2.47c4.58.63,9.62,1,13.43-1.59a5.79,5.79,0,0,0,2.67-3.68,3.16,3.16,0,0,0-2.23-3.58,28.09,28.09,0,0,1,7.47,2.86,39.49,39.49,0,0,0,5,2.7c3.39,1.3,7.17.78,10.57,1.94-2,.8-4.35.18-6.47.3A37.74,37.74,0,0,0,210.9,201Z"/><path class="s2d6-image2_35" d="M228.31,283.66a18.46,18.46,0,0,0,3.08-3.18"/><path class="s2d6-image2_35" d="M225.22,284.27c.69-.84,2.79-3.89,2.82-4.63"/><path class="s2d6-image2_35" d="M222.79,285a10.08,10.08,0,0,0,.86-4.36"/><path class="s2d6-image2_36" d="M240.64,271.67l-1.33-.52c-2.52-.88-8.12-2.33-12.74.1C220.43,274.48,235.64,278.18,240.64,271.67Z"/><path class="s2d6-image2_12" d="M121.77,595.09l-9.72,176.82a78.74,78.74,0,0,1-3.47,19.19L45.93,991.54a20.21,20.21,0,0,0,12.46,25.05l2.06.74a17,17,0,0,0,21.17-8.84l101.25-198.3a63.63,63.63,0,0,0,4.67-12c9.59-34.83,55.59-203.91,52.58-234Z"/><path class="s2d6-image2_12" d="M134,602.57,217.56,770.2a40.54,40.54,0,0,1,3.82,12.3l30.43,213.21a15.89,15.89,0,0,0,16.42,13.06l9.09-.45A15.1,15.1,0,0,0,291.68,993l-3-218.29a82.44,82.44,0,0,0-1.76-15.89c-8-38.28-43.32-203.34-59.9-229.07Z"/><path class="s2d6-image2_37" d="M267.38,572.36l7,81.09c.62,7.11-4.74,13.52-12.53,15-33.92,6.46-122.63,19.86-165.77-6.76,0,0,11.4-31.93,7.5-57.6s-2.1-34.47,11.1-42.57Z"/><path class="s2d6-image2_38" d="M243.56,572.29c16.54,2.45,30.81,16.15,33.93,32.58,1.19,6.27.92,12.87,3.24,18.81,2,5.08,5.62,9.13,9.84,12.65,4.92,4.09,14.25,5.78,18.53,1,4.43-4.93,6.89-12.05,11.48-16.84-7.34,1-13.16-6.36-15.35-13.44s-2.68-15-7.25-20.85c-8.12-10.34-24.91-9.15-34.41-18.23"/><path class="s2d6-image2_12" d="M172.13,295.18s72.26,14.71,83,80.34c0,0,8.06,96.05,22.78,140.18l3.91,7.83c11.29,22.61-5,48.63-32.19,51.52-33.66,3.57-79,5.55-123.7-1.28C109.61,571.28,99.73,556,105.34,542c7.53-18.89,15-48.35,12.08-87.63C117.42,454.32,104.82,296.54,172.13,295.18Z"/><path class="s2d6-image2_12" d="M172.13,295.18s-63.42-19.29-54.28,5.74-2.36,82.48-2.36,82.48l33.44-61.81Z"/><path class="s2d6-image2_31" d="M211,578.31c18,.27,33.29-17.71,39-31.4,7.08-17,5-48,1.11-65.84-8.82-40.52-4.41-83.07-17.65-122.61-2.63-7.85-6-15.58-11-22.41-5.94-8-9.86-13.15-17.86-19.57-6.66-5.35-15.9-9.66-27.17-12.81,0,0-20.82-7.59-40.63,14.75,0,0-31.87,25.79-28.9,214.78,0,0-13.22,31.43,7.77,38.14C145,580.73,167.29,577.66,211,578.31Z"/><path class="s2d6-image2_12" d="M196.9,328.18c-1.68-.81-7.4-5.57-9-6.53a28.78,28.78,0,0,0-22.74-2.91c-3.74,1.11-7.29,3-11.18,3.35a13.27,13.27,0,0,1-5-.5c2.63,3.8,7.11,5.92,11.59,7a13.18,13.18,0,0,0,5.4.39,21.76,21.76,0,0,0,5.31-2.1c4.26-2,9.18-3.05,13.68-1.71a40.88,40.88,0,0,0,4.52,1.44"/><path class="s2d6-image2_13" d="M277.21,558.76s2.39,16.37-.87,14.63-7-15.47-7-15.47Z"/><path class="s2d6-image2_13" d="M268.23,553.07a4,4,0,0,0-.1,1.38c.46,5.86,10.94,14.73,12,15.6a.58.58,0,0,0,.1.08s6.23,12.08,8.4,12.52-3.25-12.18-3.25-12.18l3.61-1.39s9.22,9.54,13.21,8.57-10.12-13-10.12-13l3.59-1.21s15,7.2,17.59,5.44c1.23-.84-2-3.14-5.75-5.25-4-2.29-8.44-4.39-8.44-4.39a106.54,106.54,0,0,0,13.1,2.13c1.4.07,2.43,0,2.79-.36,1.57-1.43-10.92-4.26-17.94-8.46S282.26,544,282.26,544s-7.74,1.91-11.77,5.64A7.08,7.08,0,0,0,268.23,553.07Z"/><path class="s2d6-image2_13" d="M270.55,558.2l-84.46-87.65c-.11-.11-.22-.23-.32-.35a10,10,0,0,1-2.25-4.64L166.27,398l45.23,15.1,11.15,45.48,61.2,86.61"/><path class="s2d6-image2_13" d="M211.5,413.13S205.65,348,177.65,362c0,0-14.05,5.89-6.92,40.59Z"/><path class="s2d6-image2_39" d="M278.41,537.73s-15.45,0-17.5,10.47"/><path class="s2d6-image2_31" d="M202,338.77c2.65,6.28,4,13.65,5.33,20.94l10.23,56a10.17,10.17,0,0,1,.13,4.4,8.22,8.22,0,0,1-2.48,3.83c-5.53,5.3-12.16,6.2-18.3,6.32a94.69,94.69,0,0,1-27.26-3.39,10.84,10.84,0,0,1-5.38-2.77c-1.6-1.74-2.49-4.43-3.26-7.11-6.67-23-28.25-90.63,19.14-95.23C189.49,320.87,197.53,328.26,202,338.77Z"/><path class="s2d6-image2_12" d="M200.38,431.08a88.74,88.74,0,0,1-14.12-.06,95.46,95.46,0,0,1-13.94-2.15c-1.15-.27-2.29-.56-3.43-.86a15,15,0,0,1-3.55-1.37,8.86,8.86,0,0,1-3-2.73,16.18,16.18,0,0,1-1.71-3.4c-.86-2.3-1.43-4.52-2.13-6.75l-2-6.69,2.89-.81,1.87,6.71c.64,2.22,1.2,4.53,1.93,6.59a14.17,14.17,0,0,0,1.36,2.85,6.22,6.22,0,0,0,2.07,2,27.87,27.87,0,0,0,6.26,2.08,94.26,94.26,0,0,0,13.56,2.36,87.91,87.91,0,0,0,13.76.31Z"/><path class="s2d6-image2_12" d="M211.49,427.91a23.68,23.68,0,0,1-5.4,2.75l-.77-2.9a20.92,20.92,0,0,0,5.21-1.54Z"/><path class="s2d6-image2_12" d="M215.35,398.48l2.86,14.2.71,3.58a10.14,10.14,0,0,1,.06,4.12,8.84,8.84,0,0,1-2,3.77,13.18,13.18,0,0,1-1.41,1.39l-1.45,1.27-1.81-2.39,1.31-1.07a10.07,10.07,0,0,0,1.22-1.11,5.85,5.85,0,0,0,1.48-2.5,7.43,7.43,0,0,0,0-3.06l-.58-3.56-2.34-14.3Z"/><path class="s2d6-image2_12" d="M154.81,398.61c-3-11.68-5.34-23.63-5.64-35.81A66.43,66.43,0,0,1,151,344.58a33.22,33.22,0,0,1,9.18-16,29.7,29.7,0,0,1,7.9-5.08,36.69,36.69,0,0,1,8.95-2.6,34.93,34.93,0,0,1,4.7-.48,17.78,17.78,0,0,1,4.81.72,20.87,20.87,0,0,1,8.26,4.78c4.71,4.3,7.74,10,9.74,15.8a128.62,128.62,0,0,1,4.18,17.75l-2.95.54a127.16,127.16,0,0,0-3.95-17.38,41.11,41.11,0,0,0-3.55-8,28.39,28.39,0,0,0-5.31-6.74,18.38,18.38,0,0,0-7.17-4.24,14.86,14.86,0,0,0-4.08-.65,36.83,36.83,0,0,0-12.62,2.77,26.85,26.85,0,0,0-7.24,4.59,30.82,30.82,0,0,0-8.6,14.81,64.59,64.59,0,0,0-1.92,17.57c.21,11.91,2.46,23.76,5.32,35.38Z"/><path class="s2d6-image2_13" d="M249.63,502.33c-3.6-18.73-4.52-37.76-5.23-56.64s-1.31-37.78-4.42-56.33c-.79-4.64-1.72-9.24-2.83-13.8s-2.44-9.07-3.92-13.53-3.12-8.86-5-13.16c-.94-2.14-1.93-4.25-3-6.3a64.44,64.44,0,0,0-3.65-5.94,74.41,74.41,0,0,0-8.63-11c-1.61-1.67-3.33-3.27-5.06-4.86-.87-.8-1.74-1.57-2.62-2.29s-1.83-1.39-2.78-2.05a81.13,81.13,0,0,0-12.27-6.67,122.29,122.29,0,0,0-13.14-5h0l-.05,0a15.16,15.16,0,0,0-2.56-.67,22.91,22.91,0,0,0-2.75-.31,28.79,28.79,0,0,0-5.56.27,37.67,37.67,0,0,0-10.69,3.36,54.43,54.43,0,0,0-9.62,6,77.5,77.5,0,0,0-8.48,7.63,1,1,0,0,1-1.37,0,1,1,0,0,1,0-1.38,80.71,80.71,0,0,1,8.67-7.85,56.59,56.59,0,0,1,10-6.23A39.47,39.47,0,0,1,165.8,302a31.33,31.33,0,0,1,6-.31,25.48,25.48,0,0,1,3,.33,17,17,0,0,1,3,.79l-.09,0a126.1,126.1,0,0,1,13.39,5,84.07,84.07,0,0,1,12.62,6.82c1,.69,2,1.4,2.93,2.15s1.86,1.58,2.73,2.37c1.75,1.6,3.5,3.22,5.17,4.94a76.14,76.14,0,0,1,8.91,11.26,62.06,62.06,0,0,1,3.79,6.12c1.15,2.11,2.17,4.27,3.14,6.46,1.9,4.37,3.58,8.83,5.09,13.34s2.87,9.07,4,13.69,2.12,9.28,2.93,14c3.24,18.76,3.92,37.78,4.72,56.64s1.81,37.74,5.44,56.18a1.5,1.5,0,0,1-2.94.58Z"/><ellipse class="s2d6-image2_40" cx="175.83" cy="492.14" rx="7.03" ry="1.95" transform="translate(-318.13 662.76) rotate(-89.4)"/><ellipse class="s2d6-image2_40" cx="175.61" cy="513.05" rx="7.03" ry="1.95" transform="translate(-339.27 683.24) rotate(-89.4)"/><ellipse class="s2d6-image2_40" cx="186.18" cy="502.7" rx="1.95" ry="7.03" transform="matrix(0.01, -1, 1, 0.01, -318.46, 683.57)"/><ellipse class="s2d6-image2_40" cx="165.26" cy="502.48" rx="1.95" ry="7.03" transform="translate(-338.94 662.43) rotate(-89.4)"/><ellipse class="s2d6-image2_40" cx="167.25" cy="349.52" rx="5.02" ry="1.39" transform="translate(-184.01 513.07) rotate(-89.4)"/><ellipse class="s2d6-image2_40" cx="174.79" cy="342.13" rx="1.39" ry="5.02" transform="translate(-169.16 513.31) rotate(-89.4)"/><ellipse class="s2d6-image2_40" cx="128.08" cy="394.73" rx="4.31" ry="1.2" transform="matrix(0.01, -1, 1, 0.01, -267.99, 518.64)"/><ellipse class="s2d6-image2_40" cx="127.94" cy="407.57" rx="4.31" ry="1.2" transform="translate(-280.96 531.2) rotate(-89.4)"/><ellipse class="s2d6-image2_40" cx="134.43" cy="401.22" rx="1.2" ry="4.31" transform="translate(-268.19 531.41) rotate(-89.4)"/><ellipse class="s2d6-image2_40" cx="121.59" cy="401.08" rx="1.2" ry="4.31" transform="translate(-280.75 518.43) rotate(-89.4)"/><ellipse class="s2d6-image2_40" cx="134.29" cy="466.05" rx="3.39" ry="0.94" transform="translate(-333.15 595.42) rotate(-89.4)"/><ellipse class="s2d6-image2_40" cx="134.19" cy="476.14" rx="3.39" ry="0.94" transform="translate(-343.34 605.29) rotate(-89.4)"/><ellipse class="s2d6-image2_40" cx="139.28" cy="471.14" rx="0.94" ry="3.39" transform="matrix(0.01, -1, 1, 0.01, -333.3, 605.45)"/><ellipse class="s2d6-image2_40" cx="129.2" cy="471.04" rx="0.94" ry="3.39" transform="translate(-343.18 595.26) rotate(-89.4)"/><ellipse class="s2d6-image2_40" cx="139.09" cy="535.87" rx="3.39" ry="0.94" transform="translate(-398.22 669.3) rotate(-89.4)"/><ellipse class="s2d6-image2_40" cx="138.98" cy="545.96" rx="3.39" ry="0.94" transform="translate(-408.41 679.18) rotate(-89.4)"/><ellipse class="s2d6-image2_40" cx="144.08" cy="540.97" rx="0.94" ry="3.39" transform="translate(-398.38 679.34) rotate(-89.4)"/><ellipse class="s2d6-image2_40" cx="133.99" cy="540.86" rx="0.94" ry="3.39" transform="translate(-408.25 669.14) rotate(-89.4)"/><ellipse class="s2d6-image2_40" cx="194.82" cy="401.24" rx="5.02" ry="1.39" transform="translate(-208.45 591.81) rotate(-89.4)"/><ellipse class="s2d6-image2_40" cx="194.66" cy="416.17" rx="5.02" ry="1.39" transform="matrix(0.01, -1, 1, 0.01, -223.53, 606.43)"/><ellipse class="s2d6-image2_40" cx="202.2" cy="408.78" rx="1.39" ry="5.02" transform="translate(-208.69 606.66) rotate(-89.4)"/><ellipse class="s2d6-image2_40" cx="187.28" cy="408.62" rx="1.39" ry="5.02" transform="translate(-223.3 591.58) rotate(-89.4)"/><ellipse class="s2d6-image2_12" cx="129.91" cy="357.29" rx="7.03" ry="1.95" transform="translate(-228.74 483.42) rotate(-89.4)"/><ellipse class="s2d6-image2_12" cx="140.48" cy="346.94" rx="1.95" ry="7.03" transform="translate(-207.93 483.75) rotate(-89.4)"/><ellipse class="s2d6-image2_12" cx="179.93" cy="365.55" rx="7.03" ry="1.95" transform="translate(-187.5 541.61) rotate(-89.4)"/><ellipse class="s2d6-image2_12" cx="179.71" cy="386.47" rx="7.03" ry="1.95" transform="translate(-208.63 562.09) rotate(-89.4)"/><ellipse class="s2d6-image2_12" cx="190.28" cy="376.12" rx="1.95" ry="7.03" transform="translate(-187.83 562.42) rotate(-89.4)"/><ellipse class="s2d6-image2_12" cx="169.36" cy="375.9" rx="1.95" ry="7.03" transform="matrix(0.01, -1, 1, 0.01, -208.31, 541.28)"/><ellipse class="s2d6-image2_12" cx="140.45" cy="427.03" rx="5.12" ry="1.42" transform="translate(-288.05 562.97) rotate(-89.4)"/><ellipse class="s2d6-image2_12" cx="140.28" cy="442.28" rx="5.12" ry="1.42" transform="translate(-303.45 577.89) rotate(-89.4)"/><ellipse class="s2d6-image2_12" cx="147.99" cy="434.74" rx="1.42" ry="5.12" transform="translate(-288.29 578.13) rotate(-89.4)"/><ellipse class="s2d6-image2_12" cx="132.74" cy="434.58" rx="1.42" ry="5.12" transform="translate(-303.21 562.73) rotate(-89.4)"/><ellipse class="s2d6-image2_12" cx="218.8" cy="375.33" rx="5.12" ry="1.42" transform="translate(-158.82 590.16) rotate(-89.4)"/><ellipse class="s2d6-image2_12" cx="218.64" cy="390.58" rx="5.12" ry="1.42" transform="translate(-174.23 605.08) rotate(-89.4)"/><ellipse class="s2d6-image2_12" cx="226.34" cy="383.04" rx="1.42" ry="5.12" transform="translate(-159.06 605.32) rotate(-89.4)"/><ellipse class="s2d6-image2_12" cx="211.09" cy="382.87" rx="1.42" ry="5.12" transform="translate(-173.99 589.92) rotate(-89.4)"/><ellipse class="s2d6-image2_12" cx="165.86" cy="451.39" rx="5.43" ry="1.5" transform="translate(-287.26 612.48) rotate(-89.4)"/><ellipse class="s2d6-image2_12" cx="165.69" cy="467.54" rx="5.43" ry="1.5" transform="translate(-303.58 628.29) rotate(-89.4)"/><ellipse class="s2d6-image2_12" cx="173.85" cy="459.55" rx="1.5" ry="5.43" transform="translate(-287.51 628.54) rotate(-89.4)"/><ellipse class="s2d6-image2_12" cx="157.7" cy="459.38" rx="1.5" ry="5.43" transform="matrix(0.01, -1, 1, 0.01, -303.32, 612.22)"/><ellipse class="s2d6-image2_12" cx="134.37" cy="499.56" rx="5.02" ry="1.39" transform="translate(-366.58 628.65) rotate(-89.4)"/><ellipse class="s2d6-image2_12" cx="134.21" cy="514.49" rx="5.02" ry="1.39" transform="translate(-381.66 643.27) rotate(-89.4)"/><ellipse class="s2d6-image2_12" cx="141.76" cy="507.1" rx="1.39" ry="5.02" transform="translate(-366.81 643.5) rotate(-89.4)"/><ellipse class="s2d6-image2_12" cx="126.83" cy="506.95" rx="1.39" ry="5.02" transform="translate(-381.43 628.42) rotate(-89.4)"/><ellipse class="s2d6-image2_12" cx="221.35" cy="515.2" rx="3.39" ry="0.94" transform="translate(-296.16 731.11) rotate(-89.4)"/><ellipse class="s2d6-image2_12" cx="221.24" cy="525.29" rx="3.39" ry="0.94" transform="translate(-306.35 740.98) rotate(-89.4)"/><ellipse class="s2d6-image2_12" cx="226.34" cy="520.3" rx="0.94" ry="3.39" transform="translate(-296.32 741.14) rotate(-89.4)"/><ellipse class="s2d6-image2_12" cx="216.25" cy="520.19" rx="0.94" ry="3.39" transform="translate(-306.19 730.95) rotate(-89.4)"/><ellipse class="s2d6-image2_12" cx="187.53" cy="542.78" rx="5.02" ry="1.39" transform="translate(-357.2 724.57) rotate(-89.4)"/><ellipse class="s2d6-image2_12" cx="187.37" cy="557.71" rx="5.02" ry="1.39" transform="translate(-372.29 739.18) rotate(-89.4)"/><ellipse class="s2d6-image2_12" cx="194.91" cy="550.32" rx="1.39" ry="5.02" transform="translate(-357.44 739.42) rotate(-89.4)"/><ellipse class="s2d6-image2_12" cx="179.98" cy="550.16" rx="1.39" ry="5.02" transform="translate(-372.05 724.33) rotate(-89.4)"/><ellipse class="s2d6-image2_41" cx="162.4" cy="545.78" rx="3.39" ry="0.94" transform="translate(-385.07 702.41) rotate(-89.4)"/><ellipse class="s2d6-image2_41" cx="122.42" cy="449.62" rx="3.39" ry="0.94" transform="translate(-328.47 567.29) rotate(-89.4)"/><ellipse class="s2d6-image2_41" cx="193" cy="350.89" rx="3.39" ry="0.94" transform="translate(-159.91 540.17) rotate(-89.4)"/><ellipse class="s2d6-image2_41" cx="226.34" cy="549.74" rx="0.94" ry="3.39" transform="translate(-325.76 770.26) rotate(-89.4)"/><ellipse class="s2d6-image2_41" cx="119.2" cy="555.07" rx="0.94" ry="3.39" transform="translate(-437.09 668.41) rotate(-89.4)"/><ellipse class="s2d6-image2_41" cx="140.49" cy="383.19" rx="0.94" ry="3.39" transform="translate(-244.16 519.63) rotate(-89.4)"/><ellipse class="s2d6-image2_41" cx="231.02" cy="414.96" rx="0.94" ry="3.39" transform="translate(-186.35 641.6) rotate(-89.4)"/><ellipse class="s2d6-image2_41" cx="153.74" cy="484.79" rx="0.94" ry="3.39" transform="translate(-332.64 633.4) rotate(-89.4)"/></g></svg>
