<svg id="Layer_1" data-name="Layer 1" xmlns="http://www.w3.org/2000/svg" xmlns:xlink="http://www.w3.org/1999/xlink" width="180" height="180" viewBox="120 120 330 330"><defs><style>.s2d6-image3_1,.s2d6-image3_10,.s2d6-image3_12,.s2d6-image3_13,.s2d6-image3_16,.s2d6-image3_17,.s2d6-image3_18{fill:none;}.s2d6-image3_2{fill:#2e5f5a;}.s2d6-image3_3{clip-path:url(#s2d6-image3-cp);}.s2d6-image3_4{fill:#daa534;}.s2d6-image3_5{clip-path:url(#s2d6-image3-cp_2);}.s2d6-image3_6{fill:#fff;}.s2d6-image3_7{fill:#5d9b97;}.s2d6-image3_11,.s2d6-image3_8{fill:#2f4862;}.s2d6-image3_9{fill:#d8a334;}.s2d6-image3_10,.s2d6-image3_11,.s2d6-image3_12,.s2d6-image3_13{stroke:#2f4862;}.s2d6-image3_10,.s2d6-image3_11,.s2d6-image3_12,.s2d6-image3_13,.s2d6-image3_17,.s2d6-image3_18{stroke-miterlimit:10;}.s2d6-image3_10{stroke-width:1.62px;}.s2d6-image3_11{stroke-width:2.01px;}.s2d6-image3_12{stroke-width:1.21px;}.s2d6-image3_13{stroke-width:1.7px;}.s2d6-image3_14{fill:#949e52;}.s2d6-image3_15{fill:#96a052;}.s2d6-image3_16{stroke:#d99f4a;stroke-linecap:round;stroke-linejoin:round;stroke-width:5.47px;}.s2d6-image3_17{stroke:#1472a0;stroke-width:2.34px;}.s2d6-image3_18{stroke:#daa534;stroke-width:3.66px;}</style><clipPath id="s2d6-image3-cp"><path class="s2d6-image3_1" d="M403.85,444.78c-38.39,0-38.39.23-76.78.23s-38.39,1.56-76.78,1.56-38.4-1.08-76.79-1.08c-13.89,0-27.1-11.51-27.1-25.4,0-33.21,3.11-33.21,3.11-66.42s1.13-33.21,1.13-66.42-4.79-33.22-4.79-66.43,5.35-33.21,5.35-66.43c0-13.89,8.41-24.59,22.3-24.59,38.39,0,38.39-1.41,76.78-1.41s38.39.4,76.79.4,38.39,2,76.78,2c13.89,0,24.53,9.69,24.53,23.58,0,33.21,2.14,33.21,2.14,66.42s-2.14,33.22-2.14,66.43-.3,33.21-.3,66.43,3.84,33.21,3.84,66.42C431.92,434,417.74,444.78,403.85,444.78Z"/></clipPath><clipPath id="s2d6-image3-cp_2"><path class="s2d6-image3_1" d="M444.4,773.23c-21.19,0-21.19-1.3-42.39-1.3s-21.2,1.54-42.4,1.54-21.2,1.16-42.4,1.16-21.19,2-42.39,2-21.2-2.7-42.4-2.7-21.2-1.31-42.4-1.31-21.2-2.6-42.4-2.6-21.2,4.15-42.4,4.15c-12.55,0-26.66-11.16-26.66-23.71,0-19.71,3.38-19.71,3.38-39.42s-2.72-19.7-2.72-39.41,3.21-19.71,3.21-39.41S80,612.55,80,592.84s.1-19.7.1-39.41,1.57-19.71,1.57-39.41-.06-19.71-.06-39.42.43-19.71.43-39.42c0-16.12,6.14-31.61,16.7-42.17s26.06-16.94,42.18-16.94c6.46,0,21.33-140.72,44.53-167.27,52.16-59.67,139.11,14.9,153.64,14.9,21,0,.94,141.18,21.93,141.18S371.82,379,392.82,379s21-5.93,42-5.93c19.31,0,37.21,19.42,37.21,38.73,0,21,.81,21,.81,42s-6.36,21-6.36,42,2.72,21,2.72,42,.07,21,.07,42,1,21,1,42-2.85,21-2.85,42,.69,21,.69,42,5.14,21,5.14,42C473.22,761.87,458.42,773.23,444.4,773.23Z"/></clipPath></defs><title>28</title><rect class="s2d6-image3_2" x="-630.11" y="-174.01" width="2900.71" height="1369.93"/><g class="s2d6-image3_3"><rect class="s2d6-image3_4" x="135.78" y="115.08" width="305.8" height="344.32" rx="27.41" ry="27.41"/><g class="s2d6-image3_5"><path class="s2d6-image3_6" d="M214.43,422.31v-6.15c-.15-4.5,4.19-11.85,8.35-10.11,24.51,10.23,99.65,47.6,97.54,113.75l-94-65Z"/><path class="s2d6-image3_7" d="M210.13,257c-3.18-5.3-5.76-11.31-5.15-17.44.76-7.63,6.2-13.9,11.15-19.85s9.88-12.85,9.32-20.49c3,7.53,11.35,11.31,17.85,16.3a45.24,45.24,0,0,1,14.59,19.46"/><path class="s2d6-image3_7" d="M194.58,265.66C191.65,258.1,189,247,193,236.82c3.27-8.28,10.22-14.24,16.93-20,5.72-4.91,11.63-10,15.16-16.42l1.84,1c-3.72,6.78-9.77,12-15.63,17C204.48,224.26,198,229.79,195,237.6c-3.76,9.5-1.21,20.09,1.58,27.3Z"/><path class="s2d6-image3_6" d="M324.19,280.86l3.29,8.13a112.54,112.54,0,0,1,7.4,55.66c-3.48,28.79-13.56,66.17-42.39,67-13.34.4-67.75-42.26-67.75-42.26s-9.15-8.46-10.39-19.22l-5.54-24.5,1.73-13.61,10.89-6.71L233,300.21l19.93-12.67Z"/><path class="s2d6-image3_6" d="M315.37,363c-1.58,3.55-2.26,6.93-.82,9.33a5.88,5.88,0,0,0,2.54,2.28c6.57,3.24,5.6,4.07,8.79,3,2.44-.77-1.33-.39-1.33-.39l5.58-7.88S343.24,365.66,343,362c-.33-5.14-6.71-6.34-10.41-13.55l-2.46-4.9S319.07,354.94,315.37,363Z"/><path class="s2d6-image3_6" d="M261.36,383.57l-6,33.24a12.38,12.38,0,0,1-14.12,9.89h0a11.29,11.29,0,0,1-9.67-11.81l3.25-50.56Z"/><path class="s2d6-image3_8" d="M237,379.18a82.35,82.35,0,0,0-3.34,15.06l-1-.11a83.71,83.71,0,0,1,2.84-15.42Z"/><path class="s2d6-image3_8" d="M233.18,269.83C217.64,265,205,285,201.36,306.46l0,.05c-.21,1.21-.39,2.36-.56,3.54a.32.32,0,0,0,0,.19c0,.22-.06.43-.06.65a5.29,5.29,0,0,0-.06.65.28.28,0,0,0,0,.18,65.28,65.28,0,0,0-.15,12.94c2.4,26.36,13.94,44.06,13.94,44.06L237,364.64c-.76-.11-4.94-1.27-7.22-13.08-2.52-13,5.76-27.59,16.12-23.71s4.9,22,4.9,22l3.62.26c12.62-14.21,18.5-30.66,15.78-45.75,0,0,24.77-5.55,40.62-5,7.83.28,14.69-6,13.93-13,0-.15,0-.29-.05-.43C322.16,266.68,297.61,254,267,254.24S233.18,269.83,233.18,269.83Z"/><path class="s2d6-image3_8" d="M239.23,236.45s-22.93-.15-39.82,13.7-12.93,34.08-12.93,34.08a21.94,21.94,0,0,1,7.6-14.29s-10.05,24.87,6.56,41.78a.28.28,0,0,1,0-.18,5.29,5.29,0,0,1,.06-.65,1.94,1.94,0,0,1,.06-.65.32.32,0,0,1,0-.19,28.69,28.69,0,0,1,.56-3.54l0-.05c1.72-7.76,7.9-21.6,29.53-23.72,28.45-2.84,49.76,8.19,52.29,9.6-2.36-1-18.49-7.75-35,.62,0,0,17-6.36,25.65,9.8,0,0,22.45-4.52,38.67-3.25,5.84.46,10.91-6.26,14.94-10.52.37-.4,3.48,11.6,3.84,11.17,3.44-4.11,4.3-17.35,2.65-23.92-3.8-15-26.1-39.57-61.2-41.38-19.45-1-31-3.44-37.44-5.44-5.16-1.62-7-2.93-7-2.93S229.88,233.58,239.23,236.45Z"/><path class="s2d6-image3_9" d="M299.29,262.26c-4.08-5-10.77-7.07-15.67-7.93-3.28-.57-6.67-.81-9.95-1.05-2.78-.2-5.65-.41-8.46-.82A60.28,60.28,0,0,1,245.45,246l.64-1.21a58.64,58.64,0,0,0,19.32,6.3c2.76.4,5.61.61,8.36.81,3.31.24,6.74.49,10.08,1.07,7.35,1.28,13.06,4.19,16.5,8.41Z"/><path class="s2d6-image3_9" d="M208.81,285.77l-1.33-.34,1.63-6.32a26.81,26.81,0,0,1,27.37-20.29c.42,0,.85.06,1.27.1,6.86.68,13.45,3,19.83,5.16,3,1,6,2.09,9.09,3,2.77.8,5.67,1.5,8.47,2.17,8.8,2.13,17.9,4.33,24.94,10.06l-.87,1.06c-6.79-5.54-15.74-7.7-24.39-9.79-2.82-.68-5.73-1.38-8.53-2.19-3.08-.9-6.17-2-9.16-3-6.3-2.18-12.81-4.43-19.51-5.09-.41,0-.82-.08-1.23-.1a25.44,25.44,0,0,0-26,19.27Z"/><path class="s2d6-image3_9" d="M227.59,302.45a21,21,0,0,1-9.54-10.73c-.83-2.14-2.37-7.6,1.45-12.17,2.72-3.26,6.85-4.37,9.07-4.75,11.39-1.9,21.41,1.36,27.81,4.43,7.76,3.73,8.49,3.52,13.2,2.13,1.37-.4,3.08-.91,5.37-1.44l.35,1.51c-2.24.52-3.93,1-5.29,1.41-5.15,1.52-6.23,1.66-14.3-2.21-8.76-4.21-18.31-5.74-26.88-4.3a13.52,13.52,0,0,0-8.15,4.21c-3.29,3.94-1.93,8.74-1.19,10.62a19.14,19.14,0,0,0,8.83,9.94Z"/><path class="s2d6-image3_9" d="M243.94,322.44c-8.73-1.61-15.65-7.71-21.46-13.3a41,41,0,0,1-3.8-4c-4.49-5.6-5.25-11.43-2.32-17.83l1.24.56c-2.69,5.89-2,11.26,2.14,16.42a43.21,43.21,0,0,0,3.68,3.88c5.67,5.45,12.41,11.4,20.77,12.94Z"/><path class="s2d6-image3_9" d="M229.34,329.89c-9.11-4.76-14.62-13.9-19.07-22.1a49.1,49.1,0,0,1-2.79-5.75,27.22,27.22,0,0,1,.22-20l1.47.6a25.65,25.65,0,0,0-.21,18.8,48.28,48.28,0,0,0,2.7,5.57c4.34,8,9.7,16.89,18.41,21.44Z"/><path class="s2d6-image3_8" d="M277.78,331.75a18,18,0,0,1,7.39-1.94,21.42,21.42,0,0,1,7.41,1.1A30.2,30.2,0,0,1,299.2,334a32.2,32.2,0,0,1,5.73,4.52l-1.69,1.69a30,30,0,0,0-5.39-4,27.58,27.58,0,0,0-6.11-2.67,18.51,18.51,0,0,0-6.41-.76,14.52,14.52,0,0,0-6,1.76Z"/><path class="s2d6-image3_8" d="M279.79,318.44a22.34,22.34,0,0,1,10.84-3.39,22.85,22.85,0,0,1,5.67.57c.47.09.92.22,1.38.34a10.78,10.78,0,0,1,1.39.46c.89.35,1.73.73,2.56,1.13s1.66.8,2.49,1.28a14.16,14.16,0,0,1,2.37,1.69,19.26,19.26,0,0,1,3.63,4.4,51.14,51.14,0,0,1,4.39,10.18l-1.4.49a49.64,49.64,0,0,0-4.42-9.77,16.86,16.86,0,0,0-3.37-3.94,12.33,12.33,0,0,0-2.09-1.44c-.75-.42-1.59-.8-2.4-1.17s-1.64-.73-2.45-1a8.86,8.86,0,0,0-1.21-.37c-.42-.1-.85-.22-1.28-.29a20.62,20.62,0,0,0-5.18-.43A20.22,20.22,0,0,0,281,320.4Z"/><path class="s2d6-image3_8" d="M334.14,314.78A10,10,0,0,0,324,316.7a10.35,10.35,0,0,0-1.78,2.06,14.79,14.79,0,0,0-1.31,2.49,11.84,11.84,0,0,0-.75,2.66c-.07.44-.09.9-.12,1.4s-.07,1-.06,1.47a23.46,23.46,0,0,0,.5,5.75,19.29,19.29,0,0,0,2.1,5.34,39.14,39.14,0,0,0,7.62,8.93l-1,1.1a40.47,40.47,0,0,1-8.11-9.17,21,21,0,0,1-2.4-5.78,25.47,25.47,0,0,1-.67-6.19c0-.52,0-1,0-1.55a12.76,12.76,0,0,1,.11-1.59,13.4,13.4,0,0,1,.84-3.13,16.6,16.6,0,0,1,1.45-2.85,12.23,12.23,0,0,1,14.48-5Z"/><path class="s2d6-image3_8" d="M337.72,328.34l-1.51.24-1.47.37a12.77,12.77,0,0,0-2.73,1.17A8.81,8.81,0,0,0,329.8,332a6.57,6.57,0,0,0-.79,1.18,4.93,4.93,0,0,0-.47,1.24l-1.72-.21a7.69,7.69,0,0,1,1.5-3.37,10.48,10.48,0,0,1,2.61-2.41,15.12,15.12,0,0,1,3.13-1.53c.55-.18,1.1-.33,1.65-.49l1.67-.36Z"/><ellipse class="s2d6-image3_9" cx="283.29" cy="362.12" rx="13.83" ry="13.56" transform="translate(-21.24 17.67) rotate(-3.44)"/><path class="s2d6-image3_10" d="M278.82,406.81a120.08,120.08,0,0,1-33.11-21.46"/><path class="s2d6-image3_7" d="M250.4,377.09c-8.05,8.36-43.93,18-73.87-5.3s-1.91-48.44,10-37.6c8.11,7.35,6.9,14.12,1.49,17.71,0,0-7.6,7-14.33-1.86,0,0,1.69,7.55,14.71,13.7s25.58,6.6,34,1.58c0,0-14.78-10.46-12-23s4.61-18.66-5.35-24.39c0,0,14.3-.27,18.17,6.49,0,0,22.18-14.3-15.11-38.8,0,0,52,9.85,57,48.72C265.16,334.32,267.88,358.94,250.4,377.09Z"/><path class="s2d6-image3_6" d="M251.72,340.09h0a10,10,0,0,0-4.53-4.4,23.66,23.66,0,0,0-5.81-1.89,9,9,0,0,0-2.9-.36c-2.84.26-4.82,3.09-5.77,5.9a18.77,18.77,0,0,0-.27,11h0l.08.26a16,16,0,0,0,1.66,3.76c.08.14.17.27.26.4a22.81,22.81,0,0,0,8.76,8.75,3.76,3.76,0,0,0,5.23-1.73C250.8,356.31,254.83,345.45,251.72,340.09Z"/><path class="s2d6-image3_8" d="M241.88,357.14a19.64,19.64,0,0,1-6.39-11.68c-.08-.56-.14-1.13-.18-1.7a8.68,8.68,0,0,1,.07-1.89,4.92,4.92,0,0,1,.76-2.05,3.86,3.86,0,0,1,2-1.53,5.57,5.57,0,0,1,2.15-.27,9.31,9.31,0,0,1,1.89.3,6,6,0,0,1,3.52,2.34L243,342.43a2.94,2.94,0,0,0-1.67-1.14,4.53,4.53,0,0,0-2.23-.2,1,1,0,0,0-.54.36,2.37,2.37,0,0,0-.36.9,5.92,5.92,0,0,0-.1,1.3c0,.49,0,1,.09,1.46a17.25,17.25,0,0,0,5.15,10.49Z"/><path class="s2d6-image3_6" d="M172.28,356.92a.12.12,0,0,1-.12-.12.11.11,0,0,1,.12-.11.11.11,0,0,1,.11.11A.11.11,0,0,1,172.28,356.92Z"/><path class="s2d6-image3_6" d="M180.2,365.34a.43.43,0,0,1,0-.85.43.43,0,1,1,0,.85Z"/><circle class="s2d6-image3_6" cx="189.63" cy="371.23" r="0.7"/><path class="s2d6-image3_6" d="M200.17,376.37a.94.94,0,1,1,.93-.93A.93.93,0,0,1,200.17,376.37Z"/><path class="s2d6-image3_6" d="M211.37,378.43a1.19,1.19,0,1,1,1.18-1.18A1.18,1.18,0,0,1,211.37,378.43Z"/><path class="s2d6-image3_6" d="M222.7,377.52a.87.87,0,1,1,0-1.73.87.87,0,0,1,0,1.73Z"/><path class="s2d6-image3_11" d="M319.41,373.86a8,8,0,0,0-5.52-1.12,38.19,38.19,0,0,0-4.19,1.63c-3,1-6.3.28-9.38-.48a10.77,10.77,0,0,0,11,2.77,16,16,0,0,1,3.06-1c3-.37,5.41,2.25,8.15,2C322.82,375.85,320.83,374.68,319.41,373.86Z"/><path class="s2d6-image3_11" d="M323.94,374.41a5.44,5.44,0,0,1,3.61-1.74,27.4,27.4,0,0,1,3.2.46c2.26.22,4.4-.85,6.38-1.92a7.34,7.34,0,0,1-7.09,3.85,11.85,11.85,0,0,0-2.29-.18c-2.11.24-3.32,2.54-5.26,2.81C322,376.42,323.11,375.24,323.94,374.41Z"/><path class="s2d6-image3_7" d="M192.49,272.6c11.27,13.08,28.12,20,44.31,26.42,11.22,4.46,23.2,9,35.12,6.85,4.94-.89,9.61-2.91,14.52-3.91a36.36,36.36,0,0,1,27.92,5.85c.9-8.44,10.65-14.81,18.94-12.38,0,0,2.31-3.62,1.16-14.57,0,0-21,0-24.6,12.38,0,0-15.26-10.16-42.27-.47-23,8.27-56.66-11.62-73.13-25.42Z"/><path class="s2d6-image3_7" d="M260.68,269.49a.59.59,0,0,0,.4.54c6.19,2.06,12.13,6.45,16.89,11.65,0,0,12.82.91,15.51.82,10.32.84,13.67,5.14,13.67,5.14,1.8-8.88,22.38-11.82,24.55-12.86l.64-.22c3.26-6.19,7.84-11.9,13.26-15.45a.57.57,0,0,0,.25-.62.59.59,0,0,0-.49-.45c-1.41-.2-2.89-.5-4.44-.88a.64.64,0,0,0-.43.06l-8.05,4.21-3.14-8a.59.59,0,0,0-.33-.33c-1.1-.45-2.2-.94-3.31-1.44a.59.59,0,0,0-.6.06.57.57,0,0,0-.25.55c.5,4.41-1.42,9.55-7,9.11-7.33-.58-5.28-9.53-1-13.37a.59.59,0,0,0,.19-.5.57.57,0,0,0-.3-.44c-.92-.53-4.78-10.37-9.52-18-3.22-5.18-6.84-9.33-10.22-8.84-3.64.53-6,6.39-7.51,12.86-2,8.13-2.73,17.23-3.44,17.93a.63.63,0,0,0-.17.51.61.61,0,0,0,.32.43c5.1,2.63,9.4,10.76,2.46,13.18-5.31,1.85-8.5-2.63-9.14-7a.61.61,0,0,0-1-.37c-.93.77-1.88,1.51-2.83,2.23a.66.66,0,0,0-.23.4l-1,8.49-8.87-2a.54.54,0,0,0-.43.06c-1.4.75-2.76,1.41-4.06,2A.58.58,0,0,0,260.68,269.49Zm52.8-5a26.4,26.4,0,0,0-5.76,10,.62.62,0,0,1-1.1.13,26.4,26.4,0,0,0-8-8.34.62.62,0,0,1-.28-.43.6.6,0,0,1,.17-.49,26.47,26.47,0,0,0,5.76-10,.61.61,0,0,1,1.09-.13,26.54,26.54,0,0,0,8,8.34.62.62,0,0,1,.28.43A.6.6,0,0,1,313.48,264.51Zm19.44,4a15.18,15.18,0,0,0-5.53,2.81.53.53,0,0,1-.5.09.54.54,0,0,1-.34-.38,14.65,14.65,0,0,0-2.43-5.48A.57.57,0,0,1,324,265a.59.59,0,0,1,.41-.37,15,15,0,0,0,5.94-3.24.11.11,0,0,1,.12,0,.12.12,0,0,1,.08.09,14.11,14.11,0,0,0,2.62,6.25.52.52,0,0,1,.07.48A.51.51,0,0,1,332.92,268.54Zm-51.29-.87a.62.62,0,0,1,.59,0A15.38,15.38,0,0,0,288,269a.61.61,0,0,1,.49.27.6.6,0,0,1,.06.55,14.56,14.56,0,0,0-1.07,5.76.58.58,0,0,1-.27.52.62.62,0,0,1-.59,0,15.14,15.14,0,0,0-5.8-1.36.63.63,0,0,1-.49-.27.57.57,0,0,1-.05-.55,14.61,14.61,0,0,0,1.06-5.77A.6.6,0,0,1,281.63,267.67Z"/><path class="s2d6-image3_7" d="M302.15,265a.55.55,0,0,0-.14.4.56.56,0,0,0,.23.37,14,14,0,0,1,3.87,4,.54.54,0,0,0,.5.23.53.53,0,0,0,.43-.34,14.17,14.17,0,0,1,2.87-4.88.44.44,0,0,0,.12-.34.44.44,0,0,0-.2-.31,14.2,14.2,0,0,1-3.95-4.06.53.53,0,0,0-.93.11A14.25,14.25,0,0,1,302.15,265Z"/><path class="s2d6-image3_7" d="M327,265.58a.28.28,0,0,0-.2.18.29.29,0,0,0,0,.27,6.32,6.32,0,0,1,1,2.27.33.33,0,0,0,.19.21.3.3,0,0,0,.28-.05,6.88,6.88,0,0,1,2.26-1.14.31.31,0,0,0,.2-.19.28.28,0,0,0,0-.26,6.39,6.39,0,0,1-1-2.27.29.29,0,0,0-.19-.21.28.28,0,0,0-.28,0A6.72,6.72,0,0,1,327,265.58Z"/><path class="s2d6-image3_7" d="M282.43,273.14a.29.29,0,0,0,0,.27.29.29,0,0,0,.24.13,6.65,6.65,0,0,1,2.46.58.33.33,0,0,0,.29,0,.27.27,0,0,0,.13-.25,6.51,6.51,0,0,1,.46-2.45.29.29,0,0,0,0-.26.32.32,0,0,0-.24-.14,6.65,6.65,0,0,1-2.46-.58.33.33,0,0,0-.29,0,.31.31,0,0,0-.13.25A6.5,6.5,0,0,1,282.43,273.14Z"/><path class="s2d6-image3_7" d="M276.72,284.32c-5.81,1.57-11.52,3.6-17.49,4.47a55.17,55.17,0,0,1-23.83-2.17,92.23,92.23,0,0,1-21.67-10.23,92.73,92.73,0,0,0,11,3.88A134.75,134.75,0,0,0,243,283.88c6.7.93,14.09,1.42,19.68-2.33a8.41,8.41,0,0,0,3.91-5.38c.34-2.24-1-4.79-3.27-5.25a40.86,40.86,0,0,1,10.95,4.19,58.75,58.75,0,0,0,7.32,4c5,1.9,10.52,1.13,15.5,2.84-3,1.17-6.37.26-9.49.45A54.46,54.46,0,0,0,276.72,284.32Z"/><path class="s2d6-image3_12" d="M302.22,405.43c.85-.75,3.56-3,4.52-4.66"/><path class="s2d6-image3_12" d="M297.69,406.32c1-1.23,4.1-5.71,4.14-6.79"/><path class="s2d6-image3_12" d="M294.13,407.35A14.64,14.64,0,0,0,295.4,401"/><path class="s2d6-image3_13" d="M320.31,387.86l-2-.77c-3.69-1.29-11.91-3.42-18.66.14C290.67,392,313,397.4,320.31,387.86Z"/><path class="s2d6-image3_8" d="M146.08,861.88l-14.25,259.17a115.82,115.82,0,0,1-5.09,28.11L34.92,1442.94a29.63,29.63,0,0,0,18.26,36.72l3,1.09a24.92,24.92,0,0,0,31-13l148.41-290.64a94,94,0,0,0,6.83-17.59c14.06-51,81.49-298.87,77.08-343Z"/><path class="s2d6-image3_8" d="M164.06,872.85l122.41,245.69a59.4,59.4,0,0,1,5.61,18l44.59,312.5a23.3,23.3,0,0,0,24.07,19.14l13.32-.66a22.11,22.11,0,0,0,21-22.4l-4.37-319.93a121.72,121.72,0,0,0-2.58-23.3c-11.77-56.11-63.5-298-87.8-335.74Z"/><path class="s2d6-image3_14" d="M359.49,828.57l10.32,118.85c.91,10.41-6.95,19.81-18.37,22-49.7,9.46-179.73,29.1-243-9.92,0,0,16.71-46.79,11-84.42s-3.07-50.52,16.27-62.39Z"/><path class="s2d6-image3_15" d="M324.58,828.47c24.25,3.58,45.16,23.66,49.73,47.74,1.75,9.19,1.35,18.86,4.75,27.57,2.91,7.44,8.23,13.38,14.43,18.54,7.2,6,20.88,8.47,27.15,1.49,6.5-7.23,10.1-17.67,16.83-24.68-10.76,1.49-19.28-9.33-22.5-19.71s-3.92-22-10.63-30.55c-11.9-15.16-36.5-13.41-50.43-26.73"/><path class="s2d6-image3_8" d="M219.88,422.31S325.8,443.87,341.49,540.06c0,0,11.82,140.78,33.39,205.45L380.62,757c16.55,33.14-7.29,71.28-47.19,75.51-49.34,5.24-115.79,8.14-181.29-1.88C128.26,827,113.78,804.62,122,784c11-27.68,21.93-70.86,17.7-128.43C139.7,655.56,121.23,424.3,219.88,422.31Z"/><path class="s2d6-image3_8" d="M219.88,422.31s-92.94-28.27-79.55,8.41-3.45,120.9-3.45,120.9l49-90.6Z"/><path class="s2d6-image3_7" d="M276.85,837.29c26.38.39,48.8-26,57.15-46,10.38-24.93,7.32-70.39,1.63-96.5-12.93-59.38-6.46-121.75-25.87-179.7-3.85-11.5-8.76-22.84-16.17-32.85-8.71-11.75-14.46-19.27-26.19-28.69-9.76-7.84-23.3-14.16-39.82-18.77,0,0-30.52-11.12-59.56,21.62,0,0-46.7,37.8-42.35,314.79,0,0-19.38,46.07,11.39,55.9C180.14,840.83,212.79,836.34,276.85,837.29Z"/><path class="s2d6-image3_8" d="M256.19,470.67c-2.46-1.19-10.85-8.16-13.18-9.57a42.21,42.21,0,0,0-33.34-4.26c-5.48,1.62-10.69,4.38-16.38,4.9a19.06,19.06,0,0,1-7.4-.72c3.85,5.56,10.41,8.67,17,10.23a19.62,19.62,0,0,0,7.91.58c2.75-.49,5.24-1.91,7.78-3.09,6.24-2.91,13.45-4.47,20.05-2.5,2.22.66,4.34,1.7,6.62,2.11"/><path class="s2d6-image3_6" d="M373.9,808.63s3.5,24-1.27,21.44-10.29-22.67-10.29-22.67Z"/><path class="s2d6-image3_6" d="M360.74,800.29a5.66,5.66,0,0,0-.14,2c.66,8.59,16,21.59,17.59,22.87a.48.48,0,0,0,.13.11s9.15,17.71,12.31,18.35-4.76-17.85-4.76-17.85l5.3-2s13.51,14,19.35,12.57-14.82-19.08-14.82-19.08l5.25-1.77s22,10.54,25.79,8c1.8-1.24-3-4.61-8.43-7.7-5.8-3.36-12.36-6.43-12.36-6.43s12.42,2.78,19.19,3.12c2.05.11,3.56,0,4.09-.52,2.31-2.11-16-6.26-26.3-12.42S381.31,787,381.31,787s-11.35,2.79-17.26,8.26A10.47,10.47,0,0,0,360.74,800.29Z"/><path class="s2d6-image3_6" d="M364.13,807.81,240.34,679.35l-.47-.51a14.77,14.77,0,0,1-3.28-6.82l-25.3-99,66.3,22.14,16.35,66.66,89.69,126.94"/><path class="s2d6-image3_6" d="M277.59,595.19S269,499.77,228,520.25c0,0-20.59,8.65-10.13,59.5Z"/><path class="s2d6-image3_16" d="M375.65,777.81S353,777.8,350,793.15"/><path class="s2d6-image3_7" d="M263.6,486.19c3.87,9.21,5.86,20,7.81,30.7q7.5,41.05,15,82.11a15,15,0,0,1,.19,6.44,12.05,12.05,0,0,1-3.63,5.61c-8.11,7.77-17.82,9.09-26.83,9.27a138.68,138.68,0,0,1-40-5c-2.82-.78-5.7-1.71-7.88-4.06-2.34-2.54-3.64-6.5-4.78-10.42-9.77-33.71-41.39-132.84,28.05-139.58C245.33,460,257.12,470.8,263.6,486.19Z"/><path class="s2d6-image3_8" d="M261.29,621.49l-5.19.3c-1.73.05-3.45.07-5.17.06-3.44,0-6.89-.17-10.33-.44a140.05,140.05,0,0,1-20.44-3.16c-1.68-.39-3.35-.81-5-1.26a22.52,22.52,0,0,1-5.19-2,12.82,12.82,0,0,1-4.37-4,24.43,24.43,0,0,1-2.51-5c-.64-1.68-1.16-3.36-1.65-5l-1.46-4.9L197,586.3l4.23-1.19L204,595c.94,3.26,1.76,6.63,2.83,9.66a19.68,19.68,0,0,0,2,4.18,8.88,8.88,0,0,0,3,2.9,19,19,0,0,0,4.3,1.72c1.61.46,3.23.91,4.86,1.32a136.65,136.65,0,0,0,19.88,3.46c3.35.33,6.72.54,10.09.63,1.69,0,3.37,0,5.06,0l5-.19Z"/><path class="s2d6-image3_8" d="M277.58,616.84a34.59,34.59,0,0,1-7.92,4l-1.13-4.25a30.76,30.76,0,0,0,7.64-2.26Z"/><path class="s2d6-image3_8" d="M283.23,573.71l4.2,20.82,1,5.24a14.92,14.92,0,0,1,.09,6.05,12.76,12.76,0,0,1-2.94,5.51,17.22,17.22,0,0,1-2.06,2l-2.13,1.87-2.64-3.51,1.91-1.57a14.66,14.66,0,0,0,1.78-1.62,8.74,8.74,0,0,0,2.18-3.66,11.08,11.08,0,0,0,0-4.5l-.85-5.2-3.43-21Z"/><path class="s2d6-image3_8" d="M194.5,573.91c-4.34-17.13-7.83-34.64-8.27-52.5a120.07,120.07,0,0,1,.44-13.4,86.34,86.34,0,0,1,2.3-13.29,56.24,56.24,0,0,1,5-12.65,42.19,42.19,0,0,1,8.43-10.85A43.23,43.23,0,0,1,214,463.77a53.94,53.94,0,0,1,13.12-3.8l3.37-.47.85-.12.89,0,1.78-.08a25.51,25.51,0,0,1,7.06,1.05,30.79,30.79,0,0,1,12.11,7,46.26,46.26,0,0,1,8.62,10.74,66,66,0,0,1,5.65,12.41c2.9,8.57,4.49,17.37,6.12,26l-4.32.79c-1.56-8.67-3.08-17.3-5.78-25.48a60.37,60.37,0,0,0-5.21-11.65,42.19,42.19,0,0,0-7.78-9.88A27,27,0,0,0,240,464.06a22,22,0,0,0-6-.94l-1.52.06-.76,0-.8.1-3.18.42a50.37,50.37,0,0,0-12.24,3.44,39.88,39.88,0,0,0-10.62,6.72c-6.26,5.66-10.31,13.47-12.59,21.72a83.62,83.62,0,0,0-2.3,12.73,117.61,117.61,0,0,0-.52,13c.3,17.45,3.61,34.82,7.8,51.85Z"/><path class="s2d6-image3_6" d="M333.47,725.92c-5.27-27.45-6.62-55.34-7.66-83s-1.92-55.37-6.48-82.57q-1.72-10.19-4.14-20.23c-1.63-6.68-3.58-13.28-5.75-19.82s-4.57-13-7.29-19.29c-1.38-3.14-2.84-6.23-4.45-9.23a89.67,89.67,0,0,0-5.36-8.7A108.91,108.91,0,0,0,279.71,467c-2.37-2.45-4.88-4.8-7.42-7.12l-1.92-1.73c-.64-.54-1.27-1.1-1.92-1.63l-2-1.54-2.08-1.47a120,120,0,0,0-18-9.78,183.92,183.92,0,0,0-19.26-7.28l-.07,0-.07,0a21.17,21.17,0,0,0-3.77-1,33.41,33.41,0,0,0-4-.46,42,42,0,0,0-8.15.4,55,55,0,0,0-15.67,4.93,80.12,80.12,0,0,0-14.1,8.77,114.4,114.4,0,0,0-12.43,11.19h0a1.42,1.42,0,1,1-2-2,118.61,118.61,0,0,1,12.7-11.51,83.89,83.89,0,0,1,14.59-9.14,58,58,0,0,1,16.52-5.23,44.76,44.76,0,0,1,8.74-.46,38.28,38.28,0,0,1,4.39.49,24.05,24.05,0,0,1,4.42,1.15l-.13-.05a185.74,185.74,0,0,1,19.61,7.35,122.55,122.55,0,0,1,18.51,10l2.17,1.53,2.12,1.62c.7.56,1.37,1.15,2.05,1.73l1.95,1.74c2.57,2.34,5.14,4.72,7.59,7.24a90.64,90.64,0,0,1,6.94,8c2.16,2.78,4.16,5.65,6.12,8.53a93.45,93.45,0,0,1,5.55,9c1.67,3.1,3.18,6.27,4.59,9.47,2.8,6.41,5.25,12.94,7.47,19.55,1.1,3.31,2.17,6.62,3.13,10l1.44,5,1.32,5.07q2.52,10.15,4.29,20.46c4.75,27.5,5.74,55.37,6.92,83s2.66,55.31,8,82.33a2.2,2.2,0,0,1-4.31.85Z"/><ellipse class="s2d6-image3_17" cx="225.31" cy="710.98" rx="10.3" ry="2.86" transform="translate(-488.01 928.78) rotate(-89.4)"/><ellipse class="s2d6-image3_17" cx="224.99" cy="741.64" rx="10.3" ry="2.86" transform="translate(-518.99 958.79) rotate(-89.4)"/><ellipse class="s2d6-image3_17" cx="240.48" cy="726.47" rx="2.86" ry="10.3" transform="matrix(0.01, -1, 1, 0.01, -488.49, 959.27)"/><ellipse class="s2d6-image3_17" cx="209.82" cy="726.15" rx="2.86" ry="10.3" transform="translate(-518.5 928.3) rotate(-89.4)"/><ellipse class="s2d6-image3_17" cx="212.74" cy="501.95" rx="7.35" ry="2.04" transform="translate(-291.43 709.38) rotate(-89.4)"/><ellipse class="s2d6-image3_17" cx="223.79" cy="491.12" rx="2.04" ry="7.35" transform="translate(-269.67 709.72) rotate(-89.4)"/><ellipse class="s2d6-image3_17" cx="155.32" cy="568.22" rx="6.32" ry="1.75" transform="translate(-414.51 717.53) rotate(-89.4)"/><ellipse class="s2d6-image3_17" cx="155.12" cy="587.03" rx="6.32" ry="1.75" transform="translate(-433.52 735.95) rotate(-89.4)"/><ellipse class="s2d6-image3_17" cx="164.63" cy="577.73" rx="1.75" ry="6.32" transform="translate(-414.8 736.25) rotate(-89.4)"/><ellipse class="s2d6-image3_17" cx="145.81" cy="577.53" rx="1.75" ry="6.32" transform="translate(-433.22 717.24) rotate(-89.4)"/><ellipse class="s2d6-image3_17" cx="164.43" cy="672.75" rx="4.97" ry="1.38" transform="translate(-510.01 830.07) rotate(-89.4)"/><ellipse class="s2d6-image3_17" cx="164.28" cy="687.53" rx="4.97" ry="1.38" transform="matrix(0.01, -1, 1, 0.01, -524.95, 844.54)"/><ellipse class="s2d6-image3_17" cx="171.75" cy="680.22" rx="1.38" ry="4.97" transform="translate(-510.24 844.78) rotate(-89.4)"/><ellipse class="s2d6-image3_17" cx="156.96" cy="680.06" rx="1.38" ry="4.97" transform="translate(-524.72 829.84) rotate(-89.4)"/><ellipse class="s2d6-image3_17" cx="171.46" cy="775.09" rx="4.97" ry="1.38" transform="translate(-605.39 938.36) rotate(-89.4)"/><ellipse class="s2d6-image3_17" cx="171.31" cy="789.87" rx="4.97" ry="1.38" transform="translate(-620.33 952.84) rotate(-89.4)"/><ellipse class="s2d6-image3_17" cx="178.78" cy="782.56" rx="1.38" ry="4.97" transform="translate(-605.62 953.07) rotate(-89.4)"/><ellipse class="s2d6-image3_17" cx="163.99" cy="782.4" rx="1.38" ry="4.97" transform="matrix(0.01, -1, 1, 0.01, -620.09, 938.13)"/><ellipse class="s2d6-image3_17" cx="253.14" cy="577.75" rx="7.35" ry="2.04" transform="translate(-327.25 824.78) rotate(-89.4)"/><ellipse class="s2d6-image3_17" cx="252.91" cy="599.63" rx="7.35" ry="2.04" transform="matrix(0.01, -1, 1, 0.01, -349.36, 846.2)"/><ellipse class="s2d6-image3_17" cx="263.97" cy="588.81" rx="2.04" ry="7.35" transform="translate(-327.59 846.55) rotate(-89.4)"/><ellipse class="s2d6-image3_17" cx="242.09" cy="588.58" rx="2.04" ry="7.35" transform="translate(-349.01 824.44) rotate(-89.4)"/><ellipse class="s2d6-image3_8" cx="158" cy="513.35" rx="10.3" ry="2.86" transform="translate(-356.98 665.92) rotate(-89.4)"/><ellipse class="s2d6-image3_8" cx="173.49" cy="498.18" rx="2.86" ry="10.3" transform="translate(-326.49 666.41) rotate(-89.4)"/><ellipse class="s2d6-image3_8" cx="231.32" cy="525.45" rx="10.3" ry="2.86" transform="translate(-296.54 751.21) rotate(-89.4)"/><ellipse class="s2d6-image3_8" cx="230.99" cy="556.11" rx="10.3" ry="2.86" transform="translate(-327.52 781.22) rotate(-89.4)"/><ellipse class="s2d6-image3_8" cx="246.49" cy="540.94" rx="2.86" ry="10.3" transform="translate(-297.02 781.71) rotate(-89.4)"/><ellipse class="s2d6-image3_8" cx="215.83" cy="540.62" rx="2.86" ry="10.3" transform="translate(-327.04 750.73) rotate(-89.4)"/><ellipse class="s2d6-image3_8" cx="173.45" cy="615.56" rx="7.51" ry="2.08" transform="translate(-443.91 782.51) rotate(-89.4)"/><ellipse class="s2d6-image3_8" cx="173.21" cy="637.91" rx="7.51" ry="2.08" transform="translate(-466.49 804.38) rotate(-89.4)"/><ellipse class="s2d6-image3_8" cx="184.5" cy="626.85" rx="2.08" ry="7.51" transform="translate(-444.26 804.74) rotate(-89.4)"/><ellipse class="s2d6-image3_8" cx="162.16" cy="626.62" rx="2.08" ry="7.51" transform="translate(-466.14 782.16) rotate(-89.4)"/><ellipse class="s2d6-image3_8" cx="288.29" cy="539.78" rx="7.51" ry="2.08" transform="translate(-254.51 822.36) rotate(-89.4)"/><ellipse class="s2d6-image3_8" cx="288.05" cy="562.13" rx="7.51" ry="2.08" transform="translate(-277.09 844.24) rotate(-89.4)"/><ellipse class="s2d6-image3_8" cx="299.34" cy="551.08" rx="2.08" ry="7.51" transform="translate(-254.86 844.59) rotate(-89.4)"/><ellipse class="s2d6-image3_8" cx="277" cy="550.84" rx="2.08" ry="7.51" transform="translate(-276.74 822.01) rotate(-89.4)"/><ellipse class="s2d6-image3_8" cx="210.69" cy="651.27" rx="7.95" ry="2.21" transform="translate(-442.76 855.08) rotate(-89.4)"/><ellipse class="s2d6-image3_8" cx="210.44" cy="674.94" rx="7.95" ry="2.21" transform="translate(-466.68 878.25) rotate(-89.4)"/><ellipse class="s2d6-image3_8" cx="222.4" cy="663.23" rx="2.21" ry="7.95" transform="translate(-443.13 878.62) rotate(-89.4)"/><ellipse class="s2d6-image3_8" cx="198.73" cy="662.98" rx="2.21" ry="7.95" transform="translate(-466.3 854.7) rotate(-89.4)"/><ellipse class="s2d6-image3_8" cx="164.55" cy="721.86" rx="7.35" ry="2.04" transform="translate(-559.01 878.78) rotate(-89.4)"/><ellipse class="s2d6-image3_8" cx="164.31" cy="743.74" rx="7.35" ry="2.04" transform="translate(-581.12 900.2) rotate(-89.4)"/><ellipse class="s2d6-image3_8" cx="175.37" cy="732.92" rx="2.04" ry="7.35" transform="translate(-559.36 900.55) rotate(-89.4)"/><ellipse class="s2d6-image3_8" cx="153.49" cy="732.69" rx="2.04" ry="7.35" transform="translate(-580.78 878.44) rotate(-89.4)"/><ellipse class="s2d6-image3_8" cx="292.03" cy="744.79" rx="4.97" ry="1.38" transform="matrix(0.01, -1, 1, 0.01, -455.8, 1028.95)"/><ellipse class="s2d6-image3_8" cx="291.87" cy="759.57" rx="4.97" ry="1.38" transform="translate(-470.73 1043.42) rotate(-89.4)"/><ellipse class="s2d6-image3_8" cx="299.34" cy="752.26" rx="1.38" ry="4.97" transform="translate(-456.03 1043.65) rotate(-89.4)"/><ellipse class="s2d6-image3_8" cx="284.56" cy="752.1" rx="1.38" ry="4.97" transform="translate(-470.5 1028.71) rotate(-89.4)"/><ellipse class="s2d6-image3_8" cx="242.45" cy="785.21" rx="7.35" ry="2.04" transform="translate(-545.27 1019.36) rotate(-89.4)"/><ellipse class="s2d6-image3_8" cx="242.22" cy="807.09" rx="7.35" ry="2.04" transform="translate(-567.38 1040.78) rotate(-89.4)"/><ellipse class="s2d6-image3_8" cx="253.28" cy="796.26" rx="2.04" ry="7.35" transform="translate(-545.61 1041.13) rotate(-89.4)"/><ellipse class="s2d6-image3_8" cx="231.4" cy="796.03" rx="2.04" ry="7.35" transform="translate(-567.03 1019.02) rotate(-89.4)"/><ellipse class="s2d6-image3_18" cx="205.62" cy="789.61" rx="4.97" ry="1.38" transform="translate(-586.12 986.89) rotate(-89.4)"/><ellipse class="s2d6-image3_18" cx="147.03" cy="648.67" rx="4.97" ry="1.38" transform="translate(-503.15 788.84) rotate(-89.4)"/><ellipse class="s2d6-image3_18" cx="250.47" cy="503.96" rx="4.97" ry="1.38" transform="translate(-256.11 749.1) rotate(-89.4)"/><ellipse class="s2d6-image3_18" cx="299.34" cy="795.41" rx="1.38" ry="4.97" transform="translate(-499.18 1086.34) rotate(-89.4)"/><ellipse class="s2d6-image3_18" cx="142.31" cy="803.22" rx="1.38" ry="4.97" transform="translate(-662.37 937.05) rotate(-89.4)"/><ellipse class="s2d6-image3_18" cx="173.52" cy="551.3" rx="1.38" ry="4.97" transform="translate(-379.58 718.99) rotate(-89.4)"/><ellipse class="s2d6-image3_18" cx="306.21" cy="597.87" rx="1.38" ry="4.97" transform="translate(-294.86 897.76) rotate(-89.4)"/><ellipse class="s2d6-image3_18" cx="192.93" cy="700.21" rx="1.38" ry="4.97" transform="matrix(0.01, -1, 1, 0.01, -509.28, 885.74)"/></g></g><rect class="s2d6-image3_6" x="356.63" y="347.05" width="2" height="15.9" transform="translate(-145.4 325.3) rotate(-41.41)"/><rect class="s2d6-image3_6" x="351.44" y="311.51" width="18.81" height="2" transform="translate(-81.29 132.54) rotate(-18.74)"/><path class="s2d6-image3_6" d="M388.23,337.55c-11.31-1-22.76-2.44-34-4.16l.15-2c11.25,1.71,22.68,3.11,34,4.14Z"/></svg>
