<svg id="Layer_1" data-name="Layer 1" xmlns="http://www.w3.org/2000/svg" xmlns:xlink="http://www.w3.org/1999/xlink" viewBox="0 0 1573.64 915.94"><defs><style>.s2d6-image1_1,.s2d6-image1_19,.s2d6-image1_20,.s2d6-image1_23,.s2d6-image1_24,.s2d6-image1_25,.s2d6-image1_27,.s2d6-image1_28,.s2d6-image1_29,.s2d6-image1_30,.s2d6-image1_31,.s2d6-image1_32,.s2d6-image1_33,.s2d6-image1_34,.s2d6-image1_37,.s2d6-image1_40,.s2d6-image1_5,.s2d6-image1_7,.s2d6-image1_8{fill:none;}.s2d6-image1_2{fill:#2e5f5a;}.s2d6-image1_3{fill:#a57337;}.s2d6-image1_4,.s2d6-image1_41,.s2d6-image1_42,.s2d6-image1_43,.s2d6-image1_44,.s2d6-image1_45{fill:#fff;}.s2d6-image1_5{stroke:#d8a234;stroke-width:0.99px;}.s2d6-image1_23,.s2d6-image1_24,.s2d6-image1_25,.s2d6-image1_27,.s2d6-image1_28,.s2d6-image1_29,.s2d6-image1_33,.s2d6-image1_37,.s2d6-image1_5,.s2d6-image1_8{stroke-miterlimit:10;}.s2d6-image1_6{fill:#d8a234;}.s2d6-image1_27,.s2d6-image1_29,.s2d6-image1_30,.s2d6-image1_31,.s2d6-image1_32,.s2d6-image1_40,.s2d6-image1_7,.s2d6-image1_8{stroke:#fff;}.s2d6-image1_19,.s2d6-image1_20,.s2d6-image1_30,.s2d6-image1_31,.s2d6-image1_32,.s2d6-image1_34,.s2d6-image1_40,.s2d6-image1_7{stroke-linecap:round;stroke-linejoin:round;}.s2d6-image1_7{stroke-width:2.15px;stroke-dasharray:0 10.96;}.s2d6-image1_8{stroke-width:1.52px;stroke-dasharray:18.76 21.44;}.s2d6-image1_9{fill:url(#s2d6-image1-lg);}.s2d6-image1_10{fill:url(#s2d6-image1-lg_2);}.s2d6-image1_11{fill:url(#s2d6-image1-lg_3);}.s2d6-image1_12{fill:url(#s2d6-image1-lg_4);}.s2d6-image1_13{fill:url(#s2d6-image1-lg_5);}.s2d6-image1_14{fill:url(#s2d6-image1-lg_6);}.s2d6-image1_15{fill:#daa534;}.s2d6-image1_16{clip-path:url(#s2d6-image1-cp);}.s2d6-image1_17{fill:#c97475;}.s2d6-image1_18{fill:#919a51;}.s2d6-image1_19,.s2d6-image1_20,.s2d6-image1_34{stroke:#dba634;stroke-width:2.63px;}.s2d6-image1_20{stroke-dasharray:0 8.2;}.s2d6-image1_21{fill:#dba634;}.s2d6-image1_22{fill:#2f4862;}.s2d6-image1_23,.s2d6-image1_24,.s2d6-image1_25{stroke:#5d9e9a;}.s2d6-image1_23{stroke-width:1.05px;}.s2d6-image1_24{stroke-width:1.11px;}.s2d6-image1_25{stroke-width:1.04px;}.s2d6-image1_26{fill:#5d9e9a;}.s2d6-image1_27{stroke-width:1.63px;}.s2d6-image1_28,.s2d6-image1_33,.s2d6-image1_37{stroke:#2f4862;}.s2d6-image1_28{stroke-width:1.7px;}.s2d6-image1_29{stroke-width:0.95px;}.s2d6-image1_30,.s2d6-image1_31,.s2d6-image1_32{stroke-width:2.09px;}.s2d6-image1_31{stroke-dasharray:0 9.94;}.s2d6-image1_32{stroke-dasharray:0 8.72;}.s2d6-image1_33{stroke-width:3.32px;}.s2d6-image1_34{stroke-dasharray:0 8.2;}.s2d6-image1_35{clip-path:url(#s2d6-image1-cp2);}.s2d6-image1_36{clip-path:url(#s2d6-image1-cp3);}.s2d6-image1_37{stroke-width:2.53px;}.s2d6-image1_38{fill:#357d74;}.s2d6-image1_39{fill:url(#s2d6-image1-lg_7);}.s2d6-image1_40{stroke-width:2px;stroke-dasharray:0 20;}.s2d6-image1_41{font-size:40.15px;}.s2d6-image1_41,.s2d6-image1_42,.s2d6-image1_43,.s2d6-image1_44,.s2d6-image1_45{font-family:PermanentMarker;}.s2d6-image1_42{font-size:37.16px;}.s2d6-image1_43{font-size:37.16px;}.s2d6-image1_44{font-size:24.83px;}.s2d6-image1_45{font-size:20px;}</style><linearGradient id="s2d6-image1-lg" x1="2055.22" y1="663.96" x2="2055.91" y2="544.43" gradientTransform="translate(-1710.57)" gradientUnits="userSpaceOnUse"><stop offset="0" stop-color="#357d74" stop-opacity="0"/><stop offset="1" stop-color="#357d74"/></linearGradient><linearGradient id="s2d6-image1-lg_2" x1="1867.44" y1="686.29" x2="1867.75" y2="632.5" xlink:href="#s2d6-image1-lg"/><linearGradient id="s2d6-image1-lg_3" x1="1942.48" y1="559.26" x2="1942.79" y2="505.47" xlink:href="#s2d6-image1-lg"/><linearGradient id="s2d6-image1-lg_4" x1="1984.03" y1="722.27" x2="1984.29" y2="677.74" xlink:href="#s2d6-image1-lg"/><linearGradient id="s2d6-image1-lg_5" x1="2069.32" y1="518.68" x2="2069.58" y2="474.15" xlink:href="#s2d6-image1-lg"/><linearGradient id="s2d6-image1-lg_6" x1="2055.33" y1="779.29" x2="2055.59" y2="734.75" xlink:href="#s2d6-image1-lg"/><clipPath id="s2d6-image1-cp"><path class="s2d6-image1_1" d="M726.35,755.24c-35.5,0-35.5-2.13-71-2.13s-35.5,0-71,0-35.5.69-71,.69-35.51,4.28-71,4.28c-18.46,0-36.22-17.39-36.22-35.85,0-37.9.61-37.9.61-75.81s.92-37.91.92-75.81-1.71-37.91-1.71-75.82,2.91-37.91,2.91-75.82c0-18.46,15-35.23,33.49-35.23,35.5,0,35.5-.45,71-.45s35.51,1.12,71,1.12,35.51,2.95,71,2.95,35.5-2.54,71-2.54c18.46,0,30.67,15.69,30.67,34.15,0,37.91-.93,37.91-.93,75.81S760,532.73,760,570.64s1.44,37.91,1.44,75.82,1.17,37.91,1.17,75.81C762.63,740.73,744.81,755.24,726.35,755.24Z"/></clipPath><clipPath id="s2d6-image1-cp2"><path class="s2d6-image1_1" d="M772.57,1039.26c-52.09-27.9-77.5-6.34-148.87-32.78,36-13.64,65-.92,65-.92,6-3.49,7.29-11.54,7.14-18.48s-1-14.48,2.86-20.27c2.93-4.44,8-6.89,12.8-9.14-18.14-5.1-37.55-2.29-55.88,2.11s-36.44,10.38-55.25,11.63c-17.34,1.14-43-1-49.12-13.34-8.85-12-14.53-24.31-23.24-36.76C500.49,882,426.5,877,426.5,877c-2.48,6.12-9.08,14.23-9.08,14.23s26.61-3.37,66.36,16.56,32,63.68,66.9,104.84,92.56,35.78,116.09,37.22,34.64,12.31,53,36.27,46.13-1.87,46.13-1.87A128.8,128.8,0,0,1,815,1062.08C792.82,1054.48,772.57,1039.26,772.57,1039.26Z"/></clipPath><clipPath id="s2d6-image1-cp3"><path class="s2d6-image1_1" d="M383.09,923.31c-9,14.53-16.6,30.51-29.89,41.24-20.41,16.49-52.68,15.93-72.51-1.26-7.83-6.79-13.71-15.65-21.89-22a47.86,47.86,0,0,0-32.34-9.85c11.4-4,24.59-2.77,35-9,5.75-3.44,10-8.84,15.2-13.1s12.13-7.48,18.48-5.33c4.8,1.63,8.13,5.93,12.33,8.79,7.47,5.09,17.16,5.28,26.2,4.85,6.11-.29,12.29-.79,18.1-2.69,15.69-5.12,26.41-19.38,40.36-28.19,10.55-6.66,25.5-11.71,38.08-9.61-6.73,9.27-3.53,8-12.76,14.06C407.25,897.87,389.38,913.1,383.09,923.31Z"/></clipPath><linearGradient id="s2d6-image1-lg_7" x1="3867.53" y1="-1529.87" x2="3867.53" y2="-1471.73" gradientTransform="translate(-3283.94 1923.61)" gradientUnits="userSpaceOnUse"><stop offset="0" stop-color="#3b6660" stop-opacity="0"/><stop offset="1" stop-color="#2f4f51"/></linearGradient></defs><title>22</title><circle class="s2d6-image1_3" cx="586.95" cy="222.96" r="60.8"/><path class="s2d6-image1_4" d="M579.15,183.43c-3.15-4.62-3.87-9.22-2.23-13.66s4.66-8.44,5.18-13.14c.69-6.32-3.33-12.5-2.38-18.78.64-4.3,3.49-7.88,6-11.44s4.79-7.73,4.11-12c3,4.11,3.48,8.13,3.25,13.33-.23,5.4-2.72,9.61-1.18,15,1.86,6.48,4.29,9.15,3.38,14.53-.71,4.17-3,7.71-2.61,12,.52,6.58,6.57,9.7,4.8,16l-8,5.66-8.79-5.37Z"/><path class="s2d6-image1_5" d="M589.08,183.92c-4.09-6.81-4.79-12-2.83-18.22,1.38-4.31,3-8.36,1.75-14.46"/><circle class="s2d6-image1_6" cx="588.34" cy="152.67" r="2.35"/><path class="s2d6-image1_4" d="M577,264.53c-3.15,4.61-3.86,9.22-2.23,13.66s4.67,8.44,5.18,13.14c.69,6.32-3.32,12.5-2.38,18.78.65,4.3,3.5,7.87,6,11.44s4.8,7.73,4.11,12c3-4.11,3.49-8.13,3.26-13.34-.24-5.39-2.72-9.6-1.18-15,1.86-6.48,4.28-9.16,3.37-14.53-.7-4.17-3-7.71-2.61-12,.52-6.58,6.57-9.7,4.81-16.05l-8-5.66-8.8,5.37Z"/><path class="s2d6-image1_5" d="M586.92,264c-4.08,6.81-4.79,12-2.82,18.22,1.37,4.31,3,8.36,1.74,14.46"/><circle class="s2d6-image1_6" cx="586.19" cy="295.29" r="2.35"/><path class="s2d6-image1_4" d="M626.4,217.28c4.61-3.15,9.21-3.86,13.65-2.23s8.44,4.67,13.15,5.19c6.31.69,12.49-3.33,18.77-2.39,4.3.65,7.88,3.5,11.44,6s7.74,4.79,12,4.1c-4.1,3-8.12,3.49-13.33,3.26-5.4-.24-9.61-2.72-15-1.18-6.48,1.86-9.15,4.28-14.53,3.37-4.17-.7-7.71-2.95-12-2.61-6.57.52-9.69,6.57-16.05,4.81l-5.66-8,5.37-8.79Z"/><path class="s2d6-image1_5" d="M625.9,227.22c6.81-4.09,12-4.79,18.22-2.83,4.32,1.37,8.37,3,14.46,1.74"/><circle class="s2d6-image1_6" cx="657.15" cy="226.48" r="2.35"/><path class="s2d6-image1_4" d="M545.29,215.13c-4.61-3.15-9.22-3.86-13.66-2.23s-8.44,4.67-13.14,5.18c-6.31.69-12.5-3.33-18.78-2.38-4.29.64-7.87,3.49-11.44,6s-7.73,4.79-12,4.11c4.1,3,8.12,3.48,13.33,3.25,5.4-.23,9.6-2.72,15-1.18,6.47,1.86,9.15,4.29,14.52,3.38,4.18-.71,7.71-3,12-2.61,6.57.52,9.69,6.57,16,4.8l5.67-8-5.37-8.8Z"/><path class="s2d6-image1_5" d="M545.78,225.06c-6.81-4.08-12-4.79-18.21-2.83-4.32,1.38-8.37,3-14.47,1.75"/><circle class="s2d6-image1_6" cx="514.53" cy="224.32" r="2.35"/><path class="s2d6-image1_4" d="M619.25,247.92c5.49,1,9.25,3.79,11.23,8.08s2.67,9.27,5.64,13c4,5,11.18,6.48,15,11.59,2.58,3.49,3.09,8,3.85,12.32s2.09,8.86,5.61,11.41c-5-.81-8.21-3.28-11.73-7.12-3.65-4-4.87-8.72-9.76-11.43-5.9-3.26-9.5-3.44-12.66-7.89-2.45-3.45-3.37-7.54-6.66-10.34-5-4.28-11.49-2.21-14.74-7.95l1.68-9.69,10-2.42Z"/><path class="s2d6-image1_5" d="M611.88,254.6c7.7,1.92,11.89,5.11,14.88,10.88,2.08,4,3.8,8,9,11.46"/><circle class="s2d6-image1_6" cx="634.5" cy="276.17" r="2.35"/><path class="s2d6-image1_4" d="M563.43,189c-1-5.48-3.79-9.24-8.09-11.23s-9.26-2.67-13-5.63c-4.95-4-6.49-11.18-11.59-15-3.5-2.58-8-3.1-12.32-3.86s-8.86-2.08-11.41-5.6c.81,5,3.28,8.21,7.12,11.73s8.72,4.87,11.43,9.76c3.26,5.89,3.44,9.5,7.88,12.66,3.45,2.45,7.54,3.36,10.35,6.65,4.28,5,2.21,11.5,7.95,14.75l9.69-1.68,2.42-10Z"/><path class="s2d6-image1_5" d="M556.75,196.42c-1.93-7.71-5.12-11.9-10.88-14.88-4-2.08-8-3.8-11.46-9"/><circle class="s2d6-image1_6" cx="535.17" cy="173.8" r="2.35"/><path class="s2d6-image1_4" d="M561.9,257.39c-1,5.49-3.79,9.25-8.08,11.23s-9.27,2.67-13,5.63c-5,4-6.48,11.19-11.59,15-3.49,2.59-8,3.1-12.32,3.86s-8.86,2.08-11.41,5.6c.81-5,3.28-8.21,7.12-11.73s8.72-4.86,11.43-9.75c3.26-5.9,3.44-9.5,7.89-12.66,3.45-2.45,7.54-3.37,10.34-6.66,4.28-5,2.21-11.5,7.95-14.74l9.69,1.68,2.42,10Z"/><path class="s2d6-image1_5" d="M555.22,250c-1.92,7.7-5.11,11.89-10.88,14.87-4,2.09-8,3.81-11.46,9"/><circle class="s2d6-image1_6" cx="533.65" cy="272.64" r="2.35" transform="translate(-0.73 543.85) rotate(-53.97)"/><path class="s2d6-image1_4" d="M620.77,201.56c5.49-1,9.25-3.79,11.23-8.08s2.67-9.27,5.64-13c4-5,11.18-6.49,15-11.59,2.58-3.5,3.09-8.05,3.85-12.33s2.09-8.85,5.61-11.4c-5,.81-8.21,3.28-11.73,7.12-3.65,4-4.87,8.72-9.76,11.43-5.9,3.26-9.5,3.44-12.66,7.88-2.45,3.45-3.37,7.54-6.65,10.35-5,4.28-11.5,2.21-14.75,8l1.68,9.69,10,2.42Z"/><path class="s2d6-image1_5" d="M613.4,194.88c7.7-1.92,11.89-5.12,14.88-10.88,2.08-4,3.8-8,9-11.46"/><circle class="s2d6-image1_6" cx="636.02" cy="173.31" r="2.35" transform="translate(121.76 585.73) rotate(-53.97)"/><circle class="s2d6-image1_6" cx="586.95" cy="222.96" r="46.53"/><path class="s2d6-image1_6" d="M603,188.93a29.2,29.2,0,0,1-.34-8.82,19.27,19.27,0,0,1,3.18-8.33c.82-1.24,1.78-2.35,2.65-3.43A36.2,36.2,0,0,0,611,165a19.17,19.17,0,0,0,2.9-7.49l1.72.26a21.17,21.17,0,0,1-3,8.27c-1.48,2.53-3.51,4.68-4.92,6.91a16.87,16.87,0,0,0-2.61,7.42,27,27,0,0,0,.56,8Z"/><path class="s2d6-image1_6" d="M572.22,262.56a27,27,0,0,0-5.88,5.49,16.89,16.89,0,0,0-3.15,7.21c-.49,2.59-.48,5.54-1.11,8.4a21.33,21.33,0,0,1-3.48,8.06l-1.44-1a19.38,19.38,0,0,0,3-7.46,38.64,38.64,0,0,0,.46-4.1c.1-1.38.16-2.83.41-4.31a19.08,19.08,0,0,1,3.35-8.26,29.47,29.47,0,0,1,6.26-6.21Z"/><path class="s2d6-image1_6" d="M622.31,241a29.2,29.2,0,0,1,8.82-.34,19.27,19.27,0,0,1,8.33,3.18c1.25.82,2.35,1.78,3.43,2.65a37.63,37.63,0,0,0,3.31,2.45,19.27,19.27,0,0,0,7.5,2.9l-.27,1.72a21.17,21.17,0,0,1-8.27-2.95c-2.52-1.49-4.68-3.51-6.91-4.92a16.88,16.88,0,0,0-7.41-2.61,27.06,27.06,0,0,0-8,.56Z"/><path class="s2d6-image1_6" d="M548.69,210.16a27.29,27.29,0,0,0-5.5-5.88,16.8,16.8,0,0,0-7.2-3.15c-2.6-.49-5.55-.48-8.41-1.11a21.29,21.29,0,0,1-8.05-3.48l1-1.44a19.38,19.38,0,0,0,7.46,3,38.64,38.64,0,0,0,4.1.46c1.38.1,2.83.16,4.31.41a19.08,19.08,0,0,1,8.26,3.35,29,29,0,0,1,6.21,6.26Z"/><path class="s2d6-image1_6" d="M600.37,261.36a29.57,29.57,0,0,1,6.49,6,19.24,19.24,0,0,1,3.65,8.14c.31,1.46.41,2.92.57,4.29a38.15,38.15,0,0,0,.61,4.08,19.39,19.39,0,0,0,3.27,7.35l-1.4,1a21.2,21.2,0,0,1-3.79-7.92c-.73-2.83-.83-5.78-1.42-8.36a16.92,16.92,0,0,0-3.41-7.08,27,27,0,0,0-6.09-5.28Z"/><path class="s2d6-image1_6" d="M569.93,187.58a26.61,26.61,0,0,0,.25-8.05,16.84,16.84,0,0,0-2.88-7.31c-1.49-2.18-3.59-4.25-5.17-6.72a21.23,21.23,0,0,1-3.25-8.15l1.7-.33a19.45,19.45,0,0,0,3.18,7.38,38.28,38.28,0,0,0,2.58,3.22A42.82,42.82,0,0,1,569.1,171a19.07,19.07,0,0,1,3.5,8.2,29.62,29.62,0,0,1,0,8.82Z"/><path class="s2d6-image1_6" d="M549.88,238.31a29.57,29.57,0,0,1-6,6.49,19.24,19.24,0,0,1-8.14,3.65c-1.46.31-2.92.41-4.29.57a38.15,38.15,0,0,0-4.08.61,19.27,19.27,0,0,0-7.34,3.27l-1-1.4a21.2,21.2,0,0,1,7.92-3.79c2.84-.73,5.79-.83,8.36-1.42a16.92,16.92,0,0,0,7.08-3.41,27,27,0,0,0,5.28-6.09Z"/><path class="s2d6-image1_6" d="M623.66,207.87a26.61,26.61,0,0,0,8.05.25,16.84,16.84,0,0,0,7.31-2.88c2.18-1.49,4.25-3.59,6.72-5.17a21.29,21.29,0,0,1,8.15-3.25l.33,1.7a19.45,19.45,0,0,0-7.38,3.18,38.28,38.28,0,0,0-3.22,2.58c-1,.9-2.11,1.9-3.32,2.76a19.16,19.16,0,0,1-8.21,3.5,29.62,29.62,0,0,1-8.82,0Z"/><circle class="s2d6-image1_6" cx="622.56" cy="145.2" r="2.35" transform="translate(173.56 600.23) rotate(-58.51)"/><circle class="s2d6-image1_6" cx="550.91" cy="305.11" r="2.35" transform="translate(59.78 699.31) rotate(-67.73)"/><circle class="s2d6-image1_6" cx="667.66" cy="258.96" r="2.35" transform="translate(92.68 685.84) rotate(-57.79)"/><circle class="s2d6-image1_6" cx="498.82" cy="190.95" r="2.35" transform="translate(133.46 580.56) rotate(-67.79)"/><circle class="s2d6-image1_6" cx="618.87" cy="305.11" r="2.35" transform="translate(-45.95 120.42) rotate(-10.72)"/><circle class="s2d6-image1_6" cx="551.62" cy="142.84" r="2.35" transform="translate(-11.87 227.48) rotate(-23.06)"/><circle class="s2d6-image1_6" cx="501.18" cy="260.27" r="2.35" transform="translate(-43.95 112.79) rotate(-12.3)"/><circle class="s2d6-image1_6" cx="667.66" cy="193.31" r="2.35" transform="translate(-22.58 275.16) rotate(-22.91)"/><circle class="s2d6-image1_7" cx="586.95" cy="222.96" r="29.65"/><circle class="s2d6-image1_8" cx="586.95" cy="222.96" r="38.39"/><path class="s2d6-image1_9" d="M481.2,629.63v0c-.15-.26-.31-.5-.48-.74l0-.06-.52-.66-.08-.08c-.18-.2-.36-.39-.55-.58l-.13-.12-.55-.48-.19-.14-.55-.4-.27-.16-.53-.31-.34-.16c-.16-.08-.33-.17-.5-.24l-.42-.15-.47-.17-.51-.13-.42-.1-.64-.1-.32-.05c-.33,0-.66,0-1,0a9.89,9.89,0,0,0-4.44,1.06,14.92,14.92,0,0,0-10.12-5.93,15.57,15.57,0,0,0-1.81-.11,14.62,14.62,0,0,0-3,.32c-.32.06-.64.14-.95.23a14.83,14.83,0,0,0-21.3-10.16,23.74,23.74,0,0,0,.59-3.88c0-.5.05-1,.05-1.51a23.67,23.67,0,0,0-23.67-23.67,24,24,0,0,0-6.6.95,24,24,0,0,0-.92-4.25,23.64,23.64,0,0,0-38.68-10.17c-.28.26-.56.53-.83.81a35.2,35.2,0,0,0-49.88,1.74c-.65.69-1.26,1.41-1.85,2.15a36.74,36.74,0,0,0-3.16,4.73,35.32,35.32,0,0,0-3.25,8,22.31,22.31,0,0,0-2.47-.13,23.45,23.45,0,0,0-15.32,5.65,23.82,23.82,0,0,0-5.95,7.68,14.77,14.77,0,0,0-5.13-.93,15.51,15.51,0,0,0-2.74.25,14.79,14.79,0,0,0-7,3.42c-.33.29-.64.59-.94.9a14.83,14.83,0,0,0-4,8.17,14.83,14.83,0,0,0-21.74,8.49c-.13.41-.23.82-.32,1.24a15,15,0,0,0-3.93-.54,14.82,14.82,0,0,0-11.94,6,9.68,9.68,0,0,0-4.43-1.06,9.88,9.88,0,1,0,4.43,18.7,14.83,14.83,0,0,0,20.36,3.42,14.82,14.82,0,0,0,23.06,4.35,14.84,14.84,0,0,0,25.47,1.72,14.81,14.81,0,0,0,18.15-4.1,14.81,14.81,0,0,0,20,11.32,35.27,35.27,0,0,0,55.24-8.39,14.74,14.74,0,0,0,15.71,1.67,14.84,14.84,0,0,0,25.47-1.71,14.83,14.83,0,0,0,23.06-4.36,14.82,14.82,0,0,0,20.35-3.42,9.76,9.76,0,0,0,4.44,1.06,9.86,9.86,0,0,0,8.52-14.86Z"/><path class="s2d6-image1_10" d="M218.32,670.84h0l-.22-.33v0l-.24-.29,0,0a3.07,3.07,0,0,0-.25-.26l-.06,0-.25-.22-.08-.06-.25-.18-.12-.07-.24-.14-.15-.08-.23-.1-.19-.07-.21-.08-.23-.06-.19,0-.28-.05-.15,0-.45,0a4.37,4.37,0,0,0-2,.48,4.65,4.65,0,0,0-.49-.59,6.61,6.61,0,0,0-4.06-2.08,7.37,7.37,0,0,0-.82-.05,6.62,6.62,0,0,0-1.34.14l-.42.1a6.69,6.69,0,0,0-6.55-5.3,6.62,6.62,0,0,0-3,.73,11.24,11.24,0,0,0,.26-1.74c0-.23,0-.45,0-.68a10.63,10.63,0,0,0-13.62-10.23,10,10,0,0,0-.42-1.91,10.64,10.64,0,0,0-17.41-4.58l-.37.36a16.37,16.37,0,0,0-3.28-2.36,15.83,15.83,0,0,0-19.17,3.15c-.29.31-.57.63-.83,1a16.1,16.1,0,0,0-1.42,2.13,15.53,15.53,0,0,0-1.46,3.6,10.37,10.37,0,0,0-1.12-.06,10.58,10.58,0,0,0-6.89,2.54,10.82,10.82,0,0,0-2.68,3.46,6.76,6.76,0,0,0-2.31-.42,6.26,6.26,0,0,0-1.23.12,6.52,6.52,0,0,0-3.16,1.54,4,4,0,0,0-.42.4,6.68,6.68,0,0,0-1.8,3.68,6.59,6.59,0,0,0-3.38-.93,6.68,6.68,0,0,0-6.4,4.75,5.12,5.12,0,0,0-.15.56,6.4,6.4,0,0,0-1.76-.25,6.67,6.67,0,0,0-5.38,2.72,4.45,4.45,0,1,0,0,7.94,6.67,6.67,0,0,0,9.16,1.54,6.68,6.68,0,0,0,10.38,2,6.68,6.68,0,0,0,11.46.77,6.76,6.76,0,0,0,2.94.69,6.67,6.67,0,0,0,5.23-2.54,6.69,6.69,0,0,0,9,5.1,15.87,15.87,0,0,0,24.85-3.78,6.66,6.66,0,0,0,7.07.76,6.69,6.69,0,0,0,11.47-.78,6.66,6.66,0,0,0,10.37-2,6.68,6.68,0,0,0,9.16-1.53,4.49,4.49,0,0,0,2,.47,4.44,4.44,0,0,0,4.45-4.44A4.51,4.51,0,0,0,218.32,670.84Z"/><path class="s2d6-image1_11" d="M293.36,543.81h0l-.21-.33,0,0-.24-.3,0,0a3.07,3.07,0,0,0-.25-.26l-.06-.05-.25-.22-.08-.06-.25-.18-.12-.07-.24-.14-.15-.08-.23-.1-.19-.07-.21-.08-.23-.06-.19,0-.28-.05-.15,0-.45,0a4.3,4.3,0,0,0-2,.48,7.3,7.3,0,0,0-.49-.59,6.66,6.66,0,0,0-4.07-2.08,7.37,7.37,0,0,0-.82,0,6.62,6.62,0,0,0-1.34.14l-.42.1a6.69,6.69,0,0,0-6.55-5.3,6.62,6.62,0,0,0-3,.73,12.37,12.37,0,0,0,.27-1.74c0-.23,0-.45,0-.68A10.65,10.65,0,0,0,260.44,522a10.76,10.76,0,0,0-3,.42,10,10,0,0,0-.42-1.91,10.64,10.64,0,0,0-17.41-4.58l-.37.36A16.09,16.09,0,0,0,236,513.9a15.83,15.83,0,0,0-19.17,3.15c-.29.31-.57.63-.83,1a16.1,16.1,0,0,0-1.42,2.13,15.53,15.53,0,0,0-1.46,3.6,10.37,10.37,0,0,0-1.12-.06,10.6,10.6,0,0,0-6.89,2.54,10.82,10.82,0,0,0-2.68,3.46,6.76,6.76,0,0,0-2.31-.42,6.26,6.26,0,0,0-1.23.12,6.52,6.52,0,0,0-3.16,1.54,4,4,0,0,0-.42.4,6.68,6.68,0,0,0-1.8,3.68,6.59,6.59,0,0,0-3.38-.93,6.68,6.68,0,0,0-6.4,4.75,5.12,5.12,0,0,0-.15.56,6.4,6.4,0,0,0-1.76-.25,6.67,6.67,0,0,0-5.38,2.72,4.45,4.45,0,1,0,0,7.94,6.67,6.67,0,0,0,9.16,1.54,6.68,6.68,0,0,0,10.38,2,6.69,6.69,0,0,0,11.47.77,6.63,6.63,0,0,0,8.16-1.85,6.69,6.69,0,0,0,9,5.1,15.87,15.87,0,0,0,24.85-3.78,6.66,6.66,0,0,0,7.07.76,6.69,6.69,0,0,0,11.47-.78,6.67,6.67,0,0,0,10.38-2,6.57,6.57,0,0,0,3.78,1.18,6.69,6.69,0,0,0,5.38-2.71,4.45,4.45,0,0,0,6.44-4A4.51,4.51,0,0,0,293.36,543.81Z"/><path class="s2d6-image1_12" d="M324.34,709.48h0a2.68,2.68,0,0,0-.18-.28v0l-.2-.25,0,0-.2-.21,0-.05-.21-.18-.07-.05-.2-.15-.1-.06-.2-.11a.67.67,0,0,0-.12-.06l-.19-.09-.16-.06-.17-.06-.19-.05-.16,0-.24,0h-.12a2.23,2.23,0,0,0-.37,0,3.62,3.62,0,0,0-1.65.39,4.72,4.72,0,0,0-.41-.48,5.54,5.54,0,0,0-3.37-1.73c-.22,0-.44,0-.67,0a5.8,5.8,0,0,0-1.11.12,2,2,0,0,0-.35.09,5.54,5.54,0,0,0-5.42-4.4,5.48,5.48,0,0,0-2.52.61,8.59,8.59,0,0,0,.22-1.45c0-.18,0-.37,0-.56a8.82,8.82,0,0,0-8.82-8.82,8.71,8.71,0,0,0-2.46.36,9.16,9.16,0,0,0-.34-1.59,8.81,8.81,0,0,0-14.41-3.79l-.31.31a13.12,13.12,0,0,0-18.59.64q-.36.39-.69.81a13.18,13.18,0,0,0-1.18,1.76,13.9,13.9,0,0,0-1.21,3c-.3,0-.61,0-.92,0a8.74,8.74,0,0,0-5.7,2.11,8.86,8.86,0,0,0-2.22,2.86,5.52,5.52,0,0,0-1.91-.34,5.69,5.69,0,0,0-1,.09,5.46,5.46,0,0,0-2.62,1.27c-.12.11-.24.22-.35.34a5.54,5.54,0,0,0-1.49,3,5.52,5.52,0,0,0-8.1,3.16l-.12.47a5.36,5.36,0,0,0-1.46-.2,5.52,5.52,0,0,0-4.45,2.25,3.5,3.5,0,0,0-1.65-.4,3.68,3.68,0,0,0,0,7.36,3.62,3.62,0,0,0,1.65-.39,5.52,5.52,0,0,0,7.59,1.27,5.51,5.51,0,0,0,8.59,1.62,5.52,5.52,0,0,0,9.49.64,5.51,5.51,0,0,0,6.76-1.52,5.53,5.53,0,0,0,5.45,4.59,5.73,5.73,0,0,0,2-.37A13.15,13.15,0,0,0,288,717.54a5.49,5.49,0,0,0,5.85.62,5.52,5.52,0,0,0,9.49-.64,5.51,5.51,0,0,0,8.59-1.62,5.52,5.52,0,0,0,7.59-1.27,3.62,3.62,0,0,0,1.65.39,3.69,3.69,0,0,0,3.18-5.54Z"/><path class="s2d6-image1_13" d="M409.63,505.89h0a2.11,2.11,0,0,0-.18-.27v0a2.43,2.43,0,0,0-.2-.25l0,0a2.09,2.09,0,0,0-.2-.22l-.05,0-.2-.18-.08-.05-.2-.15-.1-.06-.2-.12-.12-.06-.19-.08a1,1,0,0,0-.16-.06,1.15,1.15,0,0,0-.17-.06l-.19-.05-.16,0-.24,0-.12,0h-.37a3.68,3.68,0,0,0-1.65.39,6.26,6.26,0,0,0-.41-.49,5.52,5.52,0,0,0-3.37-1.72c-.22,0-.44,0-.67,0a5.1,5.1,0,0,0-1.11.12l-.35.08a5.53,5.53,0,0,0-7.94-3.78,8.59,8.59,0,0,0,.22-1.45c0-.18,0-.37,0-.56a8.82,8.82,0,0,0-8.82-8.82,8.71,8.71,0,0,0-2.46.36,8.32,8.32,0,0,0-.34-1.59,8.81,8.81,0,0,0-14.41-3.79l-.31.3a13.49,13.49,0,0,0-2.72-1.95,13.12,13.12,0,0,0-15.87,2.6c-.24.26-.47.53-.69.8a13.89,13.89,0,0,0-1.17,1.77,12.94,12.94,0,0,0-1.21,3c-.31,0-.61,0-.93,0a8.86,8.86,0,0,0-7.92,5,5.53,5.53,0,0,0-1.91-.35,5.69,5.69,0,0,0-1,.1,5.46,5.46,0,0,0-2.62,1.27c-.12.11-.24.22-.35.34a5.46,5.46,0,0,0-1.48,3,5.48,5.48,0,0,0-2.81-.77,5.54,5.54,0,0,0-5.3,3.93l-.12.46a5.78,5.78,0,0,0-1.46-.2,5.54,5.54,0,0,0-4.45,2.25,3.62,3.62,0,0,0-1.65-.39,3.68,3.68,0,0,0,0,7.36,3.62,3.62,0,0,0,1.65-.39,5.52,5.52,0,0,0,7.59,1.27,5.51,5.51,0,0,0,8.59,1.62,5.52,5.52,0,0,0,9.49.64,5.5,5.5,0,0,0,6.76-1.53,5.51,5.51,0,0,0,7.45,4.22A13.14,13.14,0,0,0,373.28,514a5.49,5.49,0,0,0,5.85.62,5.52,5.52,0,0,0,9.49-.64,5.51,5.51,0,0,0,8.59-1.62,5.58,5.58,0,0,0,3.14,1A5.5,5.5,0,0,0,404.8,511a3.68,3.68,0,0,0,4.83-5.14Z"/><path class="s2d6-image1_14" d="M395.64,766.5h0l-.18-.28v0l-.2-.24,0,0-.2-.21-.05,0-.21-.18-.07-.06-.2-.14-.1-.06-.2-.12-.12-.06-.19-.09-.16-.05-.17-.07-.19-.05-.16,0-.24,0-.12,0-.37,0a3.62,3.62,0,0,0-1.65.4c-.13-.17-.27-.34-.41-.49a5.47,5.47,0,0,0-3.37-1.72,4.92,4.92,0,0,0-.67,0,5.8,5.8,0,0,0-1.11.11l-.35.09a5.54,5.54,0,0,0-5.42-4.39,5.48,5.48,0,0,0-2.52.61,8.75,8.75,0,0,0,.22-1.45c0-.19,0-.37,0-.56a8.82,8.82,0,0,0-8.82-8.82,9.08,9.08,0,0,0-2.46.35,9.25,9.25,0,0,0-.34-1.58,8.82,8.82,0,0,0-14.42-3.79l-.3.3a13.11,13.11,0,0,0-2.72-2,12.93,12.93,0,0,0-6.25-1.6,13.1,13.1,0,0,0-9.62,4.2c-.24.26-.47.52-.69.8a13.18,13.18,0,0,0-1.18,1.76,13.77,13.77,0,0,0-1.21,3,7,7,0,0,0-.92,0,8.77,8.77,0,0,0-7.92,5,5.53,5.53,0,0,0-1.91-.35,5.69,5.69,0,0,0-1,.09,5.56,5.56,0,0,0-2.62,1.28c-.12.1-.24.22-.35.33a5.57,5.57,0,0,0-1.49,3.05,5.45,5.45,0,0,0-2.8-.77,5.53,5.53,0,0,0-5.3,3.93l-.12.46a5.36,5.36,0,0,0-1.46-.2,5.53,5.53,0,0,0-4.45,2.25,3.69,3.69,0,1,0,0,6.57,5.54,5.54,0,0,0,7.59,1.28,5.53,5.53,0,0,0,8.59,1.62,5.53,5.53,0,0,0,9.49.64,5.5,5.5,0,0,0,6.76-1.53,5.51,5.51,0,0,0,7.45,4.22,13.13,13.13,0,0,0,20.58-3.13,5.53,5.53,0,0,0,5.85.63,5.53,5.53,0,0,0,9.49-.64,5.53,5.53,0,0,0,8.59-1.63,5.47,5.47,0,0,0,3.14,1,5.54,5.54,0,0,0,4.45-2.25,3.62,3.62,0,0,0,1.65.4,3.69,3.69,0,0,0,3.68-3.69A3.74,3.74,0,0,0,395.64,766.5Z"/><path class="s2d6-image1_15" d="M726.35,755.24c-35.5,0-35.5-2.13-71-2.13s-35.5,0-71,0-35.5.69-71,.69-35.51,4.28-71,4.28c-18.46,0-36.22-17.39-36.22-35.85,0-37.9.61-37.9.61-75.81s.92-37.91.92-75.81-1.71-37.91-1.71-75.82,2.91-37.91,2.91-75.82c0-18.46,15-35.23,33.49-35.23,35.5,0,35.5-.45,71-.45s35.51,1.12,71,1.12,35.51,2.95,71,2.95,35.5-2.54,71-2.54c18.46,0,30.67,15.69,30.67,34.15,0,37.91-.93,37.91-.93,75.81S760,532.73,760,570.64s1.44,37.91,1.44,75.82,1.17,37.91,1.17,75.81C762.63,740.73,744.81,755.24,726.35,755.24Z"/><g class="s2d6-image1_16"><polygon class="s2d6-image1_17" points="593.77 311.82 592.21 823.53 586.48 823.53 584.92 311.82 593.77 311.82"/><polygon class="s2d6-image1_17" points="845.2 572.1 333.49 570.54 333.49 564.81 845.2 563.25 845.2 572.1"/><polygon class="s2d6-image1_17" points="773.39 389.89 410.45 750.62 406.4 746.57 767.13 383.63 773.39 389.89"/><polygon class="s2d6-image1_17" points="767.13 751.72 406.4 388.78 410.45 384.73 773.39 745.46 767.13 751.72"/><polygon class="s2d6-image1_18" points="678.27 373.87 507.1 764.38 501.85 762.11 670.15 370.34 678.27 373.87"/><polygon class="s2d6-image1_18" points="783.15 656.6 392.63 485.43 394.91 480.18 786.67 648.49 783.15 656.6"/><polygon class="s2d6-image1_18" points="789.27 493.51 392.1 648.62 389.99 643.29 786.02 485.28 789.27 493.51"/><polygon class="s2d6-image1_18" points="663.5 767.6 508.4 370.43 513.73 368.32 671.74 764.35 663.5 767.6"/><path class="s2d6-image1_15" d="M710.52,1219.52c-43.81,0-118.6-5.71-155.88-9.09-14-1.27-28.54-1.92-43.21-1.92-47.34,0-81.78,6.71-82.12,6.78l-20.46,4,9.65-18.48c.17-.33,15.65-30.19,24.52-61.88-34.09-7.82-56.4-13.26-66.51-16.22-4.83,7.6-10.19,34.21-10.48,46.57a39.89,39.89,0,0,0,5.19.78l.54.06a19.5,19.5,0,0,1,16.1,11.8,14.91,14.91,0,0,1-1.12,14.4c-4.3,6.44-13.29,9.43-28.3,9.43-4.41,0-7.75-.27-7.89-.29l-.37,0-.36,0c-9.88-1.58-20.63-4.33-25.46-12.81-6.29-11-4-18-1.58-25.36,2.1-6.38,5.28-16,5.84-36.46a228.17,228.17,0,0,0-.7-25.79c-.71-9.6-1.27-17.18,1.46-30.82,4.43-22.15,18.82-25.46,27-25.46,7.21,0,15.48,2.33,26,7.34a189.76,189.76,0,0,0,20.28,7.84c-26.72-20.15-38.07-44.82-38.67-46.14-5.89-13.06-6.61-29-2.16-47.43-.77.68-1.56,1.35-2.36,2-11.36,9.18-26.17,14.23-41.7,14.23-16.46,0-32-5.58-43.65-15.72a121.25,121.25,0,0,1-10.79-11,86.41,86.41,0,0,0-10.69-10.64,37.6,37.6,0,0,0-23-7.86c-.83,0-1.67,0-2.5.09l-1.5-7.22-12.21-1.7.32-19.84a86.07,86.07,0,0,1,9.27-.46,142.71,142.71,0,0,1,29.66,3.37c.63-.23,1.22-.47,1.79-.73a29.18,29.18,0,0,0-7.31-3.12L249.43,892l119.76.06,1.43-1.23a140.68,140.68,0,0,1,16.14-12.48c10.15-6.4,22.2-10.54,33-11.43l0-.13,2-6c3.59-11.6,6.59-26,9.75-41.21,5.16-24.77,11-52.85,21.59-81.24,5.26-14.09,15.22-34.85,19.57-43.74a66.54,66.54,0,0,1,8.4-111.18,30.55,30.55,0,0,1-3.1-20.28,27.37,27.37,0,0,1,12.37-17.75,50.18,50.18,0,0,1,42.12-24.42L541,505.72c.16,0,2.16.65,5.27,1.89A66.78,66.78,0,0,1,607,468.27c1.14,0,2.28,0,3.43.09l.41-.49,5.67,1.09a66.32,66.32,0,0,1,22.33,7.41c41.69,20.47,49.46,66.73,49.77,68.69l1.66,10.5-1,.09c.41,7.09,1.35,30.8-2.41,55.24-8.08,52.37-31.41,65-49.57,66.43-.42,0-.86,0-1.32,0-1.76,0-4.46,0-10.15-2.08a73.79,73.79,0,0,1,6.61,5.13c6.47,5.67,21.49,18.8,38.82,33.94l.15,0,25,21.79-.16,0,45,39.29L775.24,767l70.82-36.84.75-3.58h6.05l3.41-1.81h.13l.6-.31,6.37-4.9a28,28,0,0,1,.5-4,15.46,15.46,0,0,1,5.35-8.52c.71-7.22,3.13-17.15,5.47-24.52a11.64,11.64,0,0,1,22.6,1.7A234,234,0,0,1,900,725.49a74.06,74.06,0,0,1-1.73,13.56l0,.23a23.81,23.81,0,0,1-4.44,10.43l.54,1.2-7.07,4.77-3.4,2.26-99.42,95.32a36.83,36.83,0,0,1-25.63,10.3h0a37,37,0,0,1-17.9-4.62L635,800.4a32.57,32.57,0,0,1-2.42,4.17c-3.75,5.43-8.94,9.12-12.73,11.82-3.25,2.31-6.53,4.59-9.8,6.88-16,11.15-31,21.69-44,34.8a150.37,150.37,0,0,0-10.77,12,63,63,0,0,0-13.55,40l.22,4.58.1,1.07a64.74,64.74,0,0,0,2.53,12.62l.21.71c.93,1.54,1.83,3.09,2.74,4.63a213.19,213.19,0,0,0,11.76,18.47l.36.48.29.52a9.21,9.21,0,0,0,2.54,2.77c5.32,3.61,16.36,5.77,29.59,5.77,2.57,0,5.14-.09,7.63-.25,13.15-.87,26-4.25,39.65-7.83,4.55-1.19,9.24-2.42,13.93-3.55,14.54-3.49,26.33-5.11,37.09-5.11a88.3,88.3,0,0,1,23.83,3.1l25.94,7.29-24.42,11.4c-1.64.77-3.5,1.64-5.11,2.59,2.38.74,4.72,1.58,7,2.53l-4.12,19.23-3.76-.11c1.22.71,2.41,1.45,3.58,2.2l-6.57,18.34-8.35-1c-.41.42-.83.83-1.27,1.22l6.93.45c22.88,1.47,44.49,2.85,73.21,18.24l.67.36.61.46c.19.14,19.32,14.38,39.69,21.35l-1.52,19.31s-2.81.52-7.29,1.83l14.36,7.16-6.22,18.79a127.68,127.68,0,0,1-37.51-13q-4.12,2.51-7.89,5.29c-.51.45-1.39,1.21-2.58,2.14a78.28,78.28,0,0,0,8.1,5.8L768,1117.41l-23.33-11.58a36.72,36.72,0,0,1-5.85.48c-10.62,0-20-4.88-27-14.11-1.21-1.58-2.33-3-3.39-4.38l-7.12-3.53c25.92,22.31,50.54,44.43,59,54.83,19.14,23.59,12.55,46,9.38,56.76-.38,1.32-.71,2.45-.91,3.27-3.3,13.92-23.8,18.13-32.47,19.29l-.16,0A234.43,234.43,0,0,1,710.52,1219.52ZM594.24,660.9c2.8.81,5.6,1.72,8.32,2.71-5-2.93-10.72-6.48-17.35-10.78l-2.12,5.3c2.94.61,6.57,1.45,10.6,2.61Z"/><path class="s2d6-image1_4" d="M873.05,724.72,767.58,805.85a13.74,13.74,0,0,1-15.46.89C725.69,790.83,642,740.46,623,729c-11.69-7.06-25.89-10-36.9-11.16h0a128.38,128.38,0,0,0-16-.74l-43.22-2c-31.73-.88-42.7,46.27-42.7,46.27l-2,23.85c-3,5.77-1.1,13.1,2.93,18.2s9.8,8.46,15.44,11.69c10.65,6.1,21.54,12.3,33.57,14.72,11,2.21,22.42,1.13,33.54-.49,13.62-2-27.64-48.73-14.35-52.3,9.41-2.53,12.43,3,15.19-6.33,2-6.64,61.55,20.55,58.8,14.2l-.1-.24,118.54,65.51a27,27,0,0,0,31.78-4.14L885.39,742.66Z"/><line class="s2d6-image1_19" x1="666.75" y1="758.82" x2="666.75" y2="758.82"/><path class="s2d6-image1_20" d="M659.71,763c-9.46,7.47-12.27,18.77-13.1,24.78"/><line class="s2d6-image1_19" x1="646.26" y1="791.86" x2="646.26" y2="791.86"/><path class="s2d6-image1_21" d="M657,800.81c0-1,1.71-28.12,23.79-37.66l-6.67-3.72c-20.44,10.06-23.35,31-23.75,38"/><circle class="s2d6-image1_22" cx="513.18" cy="641.66" r="56.52" transform="translate(-303.41 550.81) rotate(-45)"/><circle class="s2d6-image1_22" cx="533.28" cy="570.66" r="39.77" transform="translate(-247.33 544.23) rotate(-45)"/><circle class="s2d6-image1_22" cx="606.98" cy="534.79" r="56.52" transform="translate(-200.37 585.84) rotate(-45)"/><path class="s2d6-image1_23" d="M484,625.25a41.22,41.22,0,0,0,1.14,7.81c.29,1.17.64,2.34,1,3.48.22.64.46,1.28.72,1.91a38.18,38.18,0,0,0,1.8,3.83"/><path class="s2d6-image1_23" d="M503.77,588.91a40.29,40.29,0,0,0-18.36,23.63"/><path class="s2d6-image1_23" d="M510.8,631.11a20.92,20.92,0,0,0,4.59,3.85"/><path class="s2d6-image1_23" d="M510.79,597.26a29.34,29.34,0,0,0-6,20,24.39,24.39,0,0,0,2.19,8.06"/><path class="s2d6-image1_23" d="M527.38,604.35a23.19,23.19,0,0,0,15.07,32.46s13,3.77,22.41,1.35"/><path class="s2d6-image1_23" d="M538.12,602.85c-.88,3.18.26,6.64,2.22,9.29a32.41,32.41,0,0,0,7.32,6.59"/><path class="s2d6-image1_24" d="M540.3,586.7c-5.92-2-11.91-4-16.92-7.89s-8.94-9.88-9.14-16.79,4.22-14.44,10.45-15.78"/><path class="s2d6-image1_24" d="M539.91,575.05c-3.3.1-6-2.4-8.22-5-3.12-3.61-6-8.39-4.84-13.44a11.68,11.68,0,0,1,5.28-7,17.77,17.77,0,0,1,8-2.33,11.43,11.43,0,0,1,4.84.47c2.9,1.06,4.86,3.87,6.66,6.55"/><path class="s2d6-image1_4" d="M872.74,727.54l-118,61.4a13.74,13.74,0,0,1-15.38-1.84c-23.24-20.29-96.8-84.54-113.48-99.15-10.28-9-23.75-14.37-34.38-17.45h0A129.21,129.21,0,0,0,575.79,667l-42.21-9.53c-31.08-6.43-50.14,38.08-50.14,38.08l-6.1,23.13c-4,5.15-3.38,12.71-.31,18.44s8.18,10,13.16,14.21c9.42,7.87,19.05,15.88,30.48,20.37,10.46,4.11,21.87,5,33.1,5.39A352.92,352.92,0,0,0,595,775.92c9.71-.85,20.92-3.12,25.28-11.84,3.09-6.19,1.56-13.59,0-20.32l-.06-.26,105.23,85.27a27.05,27.05,0,0,0,32,1.49l124.28-82.9Z"/><path class="s2d6-image1_4" d="M871.12,726.41c2.71-1.64,1.89-5.77,2.54-8.87s5.27-4.25,5.36-7.41c.18-6,2.71-16.78,5.2-24.65a1.64,1.64,0,0,1,3.19.25A224.31,224.31,0,0,1,890,725.19,63.85,63.85,0,0,1,888.53,737c-.92,4.28-1.45,7.47-9.81,12.25"/><path class="s2d6-image1_4" d="M664,520.73l15.2,33.6s8.38,109.08-42.63,113c-14.48,1.11-75.89-43.44-75.89-43.44s-10.39-8.92-12.32-20.78L541,576.24l1.14-15.17,11.48-8,12.3-6.33,21-15Z"/><path class="s2d6-image1_4" d="M664,520.73l15.2,33.6s8.38,109.08-42.63,113c-14.48,1.11-75.89-43.44-75.89-43.44s-10.39-8.92-12.32-20.78L541,576.24l1.14-15.17,11.48-8,12.3-6.33,21-15Z"/><path class="s2d6-image1_22" d="M678.68,546.62s-9-57.16-64-67.83L577.51,519S566,536.5,566,537.76s9.18,6.33,9.18,6.33L597,535.86l29.71-6.62,17.34,12.08,8,7.84Z"/><path class="s2d6-image1_23" d="M659.06,544.73c3.79-13.93-8-30.23-10.13-32.92-8.85-11.43-21.17-18.88-34.91-23.35"/><path class="s2d6-image1_25" d="M600.82,532.06s-8.87-15.19-24.06,0"/><path class="s2d6-image1_23" d="M573.38,505.26a26.14,26.14,0,0,0-5.42,7"/><path class="s2d6-image1_23" d="M643.86,540.93c0-24.06-25.65-40.84-37.49-44.1-4.64-1.28-9.52-2.06-14.27-1.28a30.63,30.63,0,0,0-7.29,2.23"/><path class="s2d6-image1_25" d="M625.85,530.54c-11.34-17-25.51-20.8-32.45-20.43-7.95.43-20.3,6.47-27,18.06"/><path class="s2d6-image1_26" d="M547.88,519.51a78.11,78.11,0,0,0,39.5,6.44,34.56,34.56,0,0,0,20.55-9.9c3.91-3.82,10.46-7.94,19.08-5.15,14.5,4.72,30.76,1,24.17-10.73-5.65-10.07,7-19,7-19s12.42,14.25,4.71,23.14c-7.2,8.29,2.48,16,8.31,20.77s7.55,21.48,7.55,21.48l-27.14,2.91-16.78-12.83-26.06-2.89-32.5,14.32Z"/><rect class="s2d6-image1_27" x="650.95" y="523.66" width="8.14" height="8.14" transform="translate(1495.64 558.15) rotate(143.21)"/><ellipse class="s2d6-image1_4" cx="657.48" cy="495.18" rx="2.52" ry="5.19" transform="translate(-30.38 43.15) rotate(-3.67)"/><path class="s2d6-image1_27" d="M644.11,527.14c-1.2-3.08-4.31-5.49-7.61-5.3a15.31,15.31,0,0,0-4.68,1.36,10,10,0,0,1-4.75.93,3.84,3.84,0,0,1-3.44-3"/><path class="s2d6-image1_27" d="M664.17,531.63a2.21,2.21,0,0,1,2.12-.81c3,.36,4.58,4.61,7.64,4.75.13,0,.67.06.73-.92"/><path class="s2d6-image1_26" d="M647,507.93a10.49,10.49,0,0,1-3-.08,12.18,12.18,0,0,1-5.32-1.64,4.75,4.75,0,0,1-2.22-4.79,1,1,0,0,1,.15-.37c.27-.37.83-.31,1.27-.18,2.64.76,4.84,2.46,7.2,3.79.76.44,3.35,1.07,3.79,1.64C649.61,507.27,647.83,507.79,647,507.93Z"/><path class="s2d6-image1_26" d="M664.21,512.39a7.66,7.66,0,0,0,1.94,1.12,9.15,9.15,0,0,0,4.09,1.06,3.61,3.61,0,0,0,3.34-2.21.79.79,0,0,0,0-.3c0-.35-.42-.53-.75-.62-2-.56-4.1-.34-6.16-.41-.66,0-2.59-.65-3.09-.45C662.77,510.92,663.72,512,664.21,512.39Z"/><polygon class="s2d6-image1_4" points="581.2 635.98 564.16 678.43 544.05 665.15 557.37 609.1 581.2 635.98"/><path class="s2d6-image1_17" d="M628.22,771.43c-.91-10.1-2.08-20.94-8.78-28.55l-22-12.71a261.87,261.87,0,0,0-25.91-13.08,7,7,0,0,1-3.31-9.8c7-12.54,18.12-28.51,31.21-34.2l-7.95-2.59s-16.36,4.46-35.7,40.28A265.35,265.35,0,0,0,522,701a7.18,7.18,0,0,1-4.66-10.61c7.21-12.4,17-25.62,28.12-30.28l-9.69-2.18s-13.9,5.61-32.71,39.67c-6.5-.94-13-1.65-19.61-2.09h0c-4.93,10-15.62,32.19-20.86,46.25-21,56.22-23.13,112.6-38.9,140.91l112,50.46-.58-1.87a73.61,73.61,0,0,1,12.46-67.41A164.39,164.39,0,0,1,559,851.05c16.35-16.59,36.1-29.33,55.09-42.82,3.79-2.69,7.64-5.5,10.28-9.33C629.7,791.12,629.06,780.84,628.22,771.43Z"/><path class="s2d6-image1_28" d="M639.34,627.44a38.18,38.18,0,0,0,18.5-1.21,4.64,4.64,0,0,0,2.94-2.73c.84-2.34-.91-3.92-2.4-5.33a31,31,0,0,1-7.38-9.95c-.23-.53-.46-1.09-.67-1.66a39.9,39.9,0,0,1,.1-27.34h0a18.51,18.51,0,0,1,14-12l9.36-1.78"/><path class="s2d6-image1_22" d="M632,591.93a40.33,40.33,0,0,0-5.72-6.71,36.5,36.5,0,0,0-7.05-5.25,26.74,26.74,0,0,0-8-3.05l-2.1-.38-2.13-.12c-.36,0-.71,0-1.06,0l-1.07.08-2.12.15-.49-4.27,2.48-.08,1.24,0c.41,0,.82.07,1.24.1l2.46.24,2.42.53a30.23,30.23,0,0,1,9,3.81,40.91,40.91,0,0,1,7.49,6,46.49,46.49,0,0,1,3.15,3.59,37.09,37.09,0,0,1,2.76,4Z"/><path class="s2d6-image1_22" d="M673.49,585.54l-2.49.33c-.8.18-1.62.34-2.42.54a20.4,20.4,0,0,0-4.5,1.82,13.72,13.72,0,0,0-3.66,3,11.16,11.16,0,0,0-1.31,1.91,10.8,10.8,0,0,0-.48,1,7.84,7.84,0,0,0-.3,1l-2.84-.36a8.41,8.41,0,0,1,.39-1.59,10.62,10.62,0,0,1,.56-1.39,13.42,13.42,0,0,1,1.56-2.54,16.6,16.6,0,0,1,4.35-3.89,23.49,23.49,0,0,1,5.19-2.41c.91-.27,1.82-.51,2.73-.75l2.75-.5Z"/><circle class="s2d6-image1_21" cx="600.67" cy="613.04" r="16.51"/><path class="s2d6-image1_29" d="M577.91,568.28s-13.71-17.4-26.35-9.55,4,29.62,9.07,33.73"/><path class="s2d6-image1_26" d="M563,602.38c-8.32,6.7-41.94,11-66.06-14.14s4.37-44.91,13.8-33.41c6.4,7.79,4.46,13.88-.88,16.51,0,0-7.74,5.46-12.71-3.51,0,0,.58,7.18,11.56,14.47S531,591.6,539.28,588c0,0-12-11.5-8-22.73s6.52-16.63-1.76-23.16c0,0,13,1.54,15.6,8.26,0,0,23.62-7.83-7-35.09,0,0,43.94,13,43.58,49.49C581.75,564.8,581.11,587.84,563,602.38Z"/><circle class="s2d6-image1_26" cx="504.45" cy="562.5" r="10.96"/><path class="s2d6-image1_26" d="M383.09,923.31c-9,14.53-16.6,30.51-29.89,41.24-20.41,16.49-52.68,15.93-72.51-1.26-7.83-6.79-13.71-15.65-21.89-22a47.86,47.86,0,0,0-32.34-9.85c11.4-4,24.59-2.77,35-9,5.75-3.44,10-8.84,15.2-13.1s12.13-7.48,18.48-5.33c4.8,1.63,8.13,5.93,12.33,8.79,7.47,5.09,17.16,5.28,26.2,4.85,6.11-.29,12.29-.79,18.1-2.69,15.69-5.12,26.41-19.38,40.36-28.19,10.55-6.66,25.5-11.71,38.08-9.61-6.73,9.27-3.53,8-12.76,14.06C407.25,897.87,389.38,913.1,383.09,923.31Z"/><path class="s2d6-image1_21" d="M578.89,549.08s43.69-29.9,72.85,5.69c0,0,7.47-13.35,27.41-.44l-.89-8.78s-12.74-10.33-25.41-3.19c0,0-29.05-30.85-78.53-1.64Z"/><path class="s2d6-image1_17" d="M578.89,549.08s43.69-29.9,72.85,5.69c0,0,7.47-13.35,27.41-.44l-.89-8.78s-12.74-10.33-25.41-3.19c0,0-29.05-30.85-78.53-1.64Z"/><path class="s2d6-image1_22" d="M528,921.31c-.86,26.36,47.06,71.72,76.15,95.12s130.23,106.71,148.31,129,8.57,42.7,6.5,51.43-24.07,11.67-24.07,11.67c-32,3.75-134.11-4-179.39-8-70.71-6.41-128.18,5-128.18,5s38.1-72.94,30.81-115.41c-1.19-6.94-24.63-19.77-24.63-19.77-43.19-18.35-60.41-56.64-60.41-56.64-15.47-34.27,17.58-85.92,17.58-85.92l33-45.07Z"/><path class="s2d6-image1_26" d="M772.57,1039.26c-52.09-27.9-77.5-6.34-148.87-32.78,36-13.64,65-.92,65-.92,6-3.49,7.29-11.54,7.14-18.48s-1-14.48,2.86-20.27c2.93-4.44,8-6.89,12.8-9.14-18.14-5.1-37.55-2.29-55.88,2.11s-36.44,10.38-55.25,11.63c-17.34,1.14-41.53.07-49.12-13.34-8.85-12-14.53-24.31-23.24-36.76C500.49,882,426.5,877,426.5,877c-2.48,6.12-9.08,14.23-9.08,14.23s26.61-3.37,66.36,16.56,32,63.68,66.9,104.84,92.56,35.78,116.09,37.22,34.64,12.31,53,36.27,46.13-1.87,46.13-1.87A128.8,128.8,0,0,1,815,1062.08C792.82,1054.48,772.57,1039.26,772.57,1039.26Z"/><line class="s2d6-image1_30" x1="578.74" y1="543.26" x2="578.74" y2="543.26"/><path class="s2d6-image1_31" d="M587.76,539.09c13.64-5.34,40.16-12,61.11,5.83"/><line class="s2d6-image1_30" x1="652.5" y1="548.31" x2="652.5" y2="548.31"/><path class="s2d6-image1_32" d="M660.1,544.46c3.11-.37,7.27.15,12.6,2.74"/><line class="s2d6-image1_30" x1="676.53" y1="549.31" x2="676.53" y2="549.31"/><line class="s2d6-image1_33" x1="417.42" y1="891.23" x2="426.5" y2="877"/><path class="s2d6-image1_21" d="M532,915.32l.19,2c-.06-.28-8.41-29.38-68.27-42.9-.2,0-22.65-5-34.76-4.09l2.24-6.66c13.87.85,24.74,2.31,44,8.18,35.43,10.8,51.82,29.25,56.37,38.23"/><polygon class="s2d6-image1_22" points="560.85 628.76 553.34 654.39 551.56 653.9 558.09 628.01 560.85 628.76"/><path class="s2d6-image1_4" d="M568.88,568.43h0a9.25,9.25,0,0,0-3.53-4.62,21.62,21.62,0,0,0-5-2.47,8.19,8.19,0,0,0-2.58-.7c-2.6-.11-4.74,2.25-6,4.72a17.72,17.72,0,0,0-1.63,10.09h0s0,.1,0,.25a15,15,0,0,0,1,3.68c.06.14.13.27.19.4a21.1,21.1,0,0,0,6.81,9.17,3.39,3.39,0,0,0,4.94-.94C566,583.27,571,573.77,568.88,568.43Z"/><path class="s2d6-image1_22" d="M557.86,582.88a18.38,18.38,0,0,1-4.27-11.49c0-.53,0-1,0-1.58a8.76,8.76,0,0,1,.28-1.69,5,5,0,0,1,.89-1.76,3.48,3.48,0,0,1,1.92-1.2,5,5,0,0,1,2,0,8.08,8.08,0,0,1,1.69.52,5.5,5.5,0,0,1,2.88,2.58l-2.6,1.2a2.67,2.67,0,0,0-1.4-1.29,3.92,3.92,0,0,0-2-.46.89.89,0,0,0-.54.3,2.2,2.2,0,0,0-.45.84,9.43,9.43,0,0,0-.35,2.56,16.34,16.34,0,0,0,3.36,10.32Z"/><path class="s2d6-image1_1" d="M557.71,621.73c-5.25-4.84-12.15-7.41-18.89-9.76-4.54-1.57-9.19-3.11-14-3.21-7.75-.16-15.34,3.6-20.51,9.38a36.83,36.83,0,0,0-8.75,21.13c-.53,5.66.1,11.59,2.87,16.55,4.89,8.77,15.16,12.77,24.63,16.11,2.39.85,5,1.7,7.41,1"/><line class="s2d6-image1_19" x1="661.7" y1="723.19" x2="661.7" y2="723.19"/><path class="s2d6-image1_34" d="M654,725.82c-10.81,5.34-15.9,15.81-18,21.51"/><line class="s2d6-image1_19" x1="634.81" y1="751.26" x2="634.81" y2="751.26"/><path class="s2d6-image1_21" d="M643.41,762.23c.19-1,7.51-27.15,31.08-31.91l-5.75-5c-22.08,5.61-29.28,25.53-31.11,32.26"/><path class="s2d6-image1_21" d="M869.54,755.5l-3.48,2.32c1.58-5.5,1.11-11.33-1-14.55-3.1-4.63-11.86-7.12-9.75-6.66l3-1.59c.3,0,5.52.46,9.5,6.38C870.49,745.47,871.41,749,869.54,755.5Z"/><circle class="s2d6-image1_17" cx="560.4" cy="587.14" r="3.07"/><path class="s2d6-image1_4" d="M495,574a.11.11,0,0,1-.11-.1.11.11,0,0,1,.11-.11.1.1,0,0,1,.1.11A.1.1,0,0,1,495,574Z"/><path class="s2d6-image1_4" d="M501.14,582.74a.39.39,0,0,1-.39-.39.4.4,0,1,1,.79,0A.39.39,0,0,1,501.14,582.74Z"/><path class="s2d6-image1_4" d="M508.89,590a.65.65,0,0,1,0-1.29.65.65,0,0,1,0,1.29Z"/><path class="s2d6-image1_4" d="M517.94,595.46a.87.87,0,1,1,.86-.87A.86.86,0,0,1,517.94,595.46Z"/><path class="s2d6-image1_4" d="M527.93,598.75a1.09,1.09,0,1,1,1.09-1.09A1.08,1.08,0,0,1,527.93,598.75Z"/><circle class="s2d6-image1_4" cx="538.35" cy="598.5" r="0.78"/><g class="s2d6-image1_35"><path class="s2d6-image1_4" d="M429.75,898.56a.22.22,0,0,1-.22-.22.23.23,0,1,1,.22.22Z"/><circle class="s2d6-image1_4" cx="450.62" cy="898.98" r="0.66"/><path class="s2d6-image1_4" d="M471.34,902.43a1.11,1.11,0,1,1,1.11-1.11A1.1,1.1,0,0,1,471.34,902.43Z"/><circle class="s2d6-image1_4" cx="491.37" cy="907.05" r="1.44"/><path class="s2d6-image1_4" d="M509.4,919.21a1.77,1.77,0,1,1,1.77-1.77A1.78,1.78,0,0,1,509.4,919.21Z"/></g><g class="s2d6-image1_36"><path class="s2d6-image1_4" d="M240.11,902.19a.22.22,0,0,1-.22-.22.22.22,0,0,1,.22-.23.22.22,0,0,1,.22.23A.22.22,0,0,1,240.11,902.19Z"/><path class="s2d6-image1_4" d="M261,907.75a.71.71,0,0,1,0-1.41.71.71,0,1,1,0,1.41Z"/><path class="s2d6-image1_4" d="M380.31,908.16a.8.8,0,1,1,.8-.8A.8.8,0,0,1,380.31,908.16Z"/></g><polygon class="s2d6-image1_22" points="471.55 820.82 466.96 837.55 464.87 837.07 468.33 820.02 471.55 820.82"/><path class="s2d6-image1_22" d="M508.93,723.69c-.1.09-.25.26-.4.42s-.29.32-.43.49c-.28.35-.58.69-.85,1.06-.56.73-1.11,1.47-1.63,2.25s-1,1.55-1.53,2.34-1,1.59-1.47,2.41l-1.41,2.45-1.34,2.5c-.91,1.65-1.71,3.37-2.56,5.07-3.28,6.83-6.2,13.87-8.9,21-1.33,3.56-2.61,7.15-3.87,10.75s-2.45,7.22-3.58,10.86-2.28,7.28-3.35,10.94l-3.15,11-2.07-.56,3-11.08c1-3.69,2.15-7.36,3.22-11s2.31-7.31,3.46-11,2.46-7.26,3.76-10.87c2.63-7.22,5.48-14.35,8.73-21.34.84-1.74,1.63-3.5,2.55-5.2l1.33-2.58,1.42-2.53c.46-.85,1-1.69,1.48-2.51s1-1.67,1.58-2.47,1.1-1.63,1.7-2.42c.29-.4.62-.79.94-1.19.15-.19.31-.39.5-.59s.33-.38.58-.63Z"/><line class="s2d6-image1_37" x1="674" y1="788.49" x2="619.81" y2="743.5"/><path class="s2d6-image1_37" d="M874.18,752.72,763.34,826.33s-17.4,17.39-46.91-4.87l-29.52-22.25"/><path class="s2d6-image1_28" d="M642.1,587.55l-.59-6.57c-.6-7.69-4.54-11.25-9.2-14.17a39.09,39.09,0,0,0-27.73-5.1"/><path class="s2d6-image1_28" d="M651.29,642.75l-2-.76c-3.68-1.29-11.9-3.42-18.66.14C621.66,646.87,644,652.29,651.29,642.75Z"/><circle class="s2d6-image1_17" cx="629.36" cy="608.16" r="4.67"/><circle class="s2d6-image1_17" cx="666.26" cy="611.07" r="4.67"/><circle class="s2d6-image1_17" cx="592.3" cy="575.39" r="4.67"/><circle class="s2d6-image1_17" cx="614.34" cy="640.17" r="4.67"/><circle class="s2d6-image1_17" cx="625.7" cy="625.34" r="1.94"/><circle class="s2d6-image1_17" cx="637.98" cy="658.13" r="1.94"/><circle class="s2d6-image1_17" cx="617.19" cy="690.7" r="1.94"/><circle class="s2d6-image1_17" cx="613.42" cy="717.04" r="1.94"/><circle class="s2d6-image1_17" cx="645.46" cy="718.32" r="1.94"/><circle class="s2d6-image1_17" cx="672.06" cy="740.15" r="1.94"/><circle class="s2d6-image1_17" cx="628.56" cy="710.27" r="1.94"/><circle class="s2d6-image1_17" cx="662.53" cy="743.76" r="1.94"/><circle class="s2d6-image1_17" cx="595.86" cy="716.38" r="1.94"/><circle class="s2d6-image1_17" cx="660.86" cy="636.9" r="1.94"/><circle class="s2d6-image1_17" cx="648.97" cy="618.73" r="1.94"/><circle class="s2d6-image1_17" cx="566.42" cy="611.07" r="1.94"/><circle class="s2d6-image1_17" cx="666.26" cy="598.51" r="1.94"/><circle class="s2d6-image1_17" cx="666.26" cy="575.39" r="1.94"/><circle class="s2d6-image1_17" cx="647.7" cy="566.37" r="1.94"/><circle class="s2d6-image1_17" cx="665.08" cy="557.82" r="1.94"/><circle class="s2d6-image1_17" cx="633.18" cy="553.48" r="1.94"/><circle class="s2d6-image1_17" cx="613.3" cy="590.21" r="1.94"/><circle class="s2d6-image1_17" cx="583.14" cy="594.05" r="1.94"/><circle class="s2d6-image1_17" cx="574.82" cy="626.45" r="1.94"/><circle class="s2d6-image1_17" cx="554.76" cy="688.76" r="1.94"/><circle class="s2d6-image1_17" cx="562" cy="663.83" r="1.94"/><circle class="s2d6-image1_17" cx="566.42" cy="674.87" r="1.94"/><circle class="s2d6-image1_17" cx="602.41" cy="684.88" r="1.94"/><circle class="s2d6-image1_17" cx="579.97" cy="708.33" r="1.94"/><circle class="s2d6-image1_17" cx="595.86" cy="700.32" r="1.94"/><circle class="s2d6-image1_17" cx="536.57" cy="684.88" r="1.94"/><circle class="s2d6-image1_17" cx="517.33" cy="665.77" r="1.94"/><circle class="s2d6-image1_17" cx="631.24" cy="579.27" r="1.94"/><circle class="s2d6-image1_17" cx="605.73" cy="551.54" r="1.94"/><circle class="s2d6-image1_17" cx="566" cy="648.02" r="4.67"/><circle class="s2d6-image1_17" cx="546.91" cy="674.87" r="4.67"/><circle class="s2d6-image1_17" cx="613.42" cy="702.26" r="4.67"/><circle class="s2d6-image1_17" cx="627.36" cy="727.85" r="4.67"/><circle class="s2d6-image1_17" cx="506.44" cy="676.19" r="4.67"/><path class="s2d6-image1_26" d="M405.54,865.47c-7.55-.55-15.55,1.12-21.25,6.09-6.83,6-9.43,15.65-16.17,21.71a22.79,22.79,0,0,1-23,4.2,22.84,22.84,0,0,0-2.58-19.3c6.14.72,12.62,1.17,18.3-1.28,9-3.88,13.76-14,22.11-19.08,7.4-4.53,17-4.58,25.07-1.38,6.38,2.52,13.06,7.19,17,12.86C419.69,870.5,411.36,865.89,405.54,865.47Z"/><path class="s2d6-image1_15" d="M240.1,912l-2.4-19.71a28.91,28.91,0,0,1,7-.85,31,31,0,0,1,7,.82L249.42,912Z"/><path class="s2d6-image1_26" d="M240.11,902h9.31A19.54,19.54,0,0,0,240.11,902Z"/><path class="s2d6-image1_15" d="M581.61,951.28a16.47,16.47,0,0,0-8.83-2.6c-1.17,0-2.42.12-3.74.24-1.66.15-3.55.33-5.56.33-.4,0-.79,0-1.19,0A48.23,48.23,0,0,1,543.82,944c-9.86-5.08-15.32-12.89-15.36-22L528.39,908l13.35,4.63a22,22,0,0,1,5.37,2.92,9.14,9.14,0,0,0,6.41,2.14,21.39,21.39,0,0,0,2.55-.16,18.27,18.27,0,0,0,3.46-1.19,28.16,28.16,0,0,1,10.92-2.64l1,0c13.17.67,20.21,13,22.53,17.08,1.4,2.46,4.69,8.22,2.65,15l-3.83,12.72Z"/><path class="s2d6-image1_15" d="M353,908.93a31.61,31.61,0,0,1-11.54-2.14l-8.8-3.43,2.92-9a12.75,12.75,0,0,0-1.43-10.72l-11.77-17.93,21.3,2.51a60.29,60.29,0,0,0,6.86.5,16.1,16.1,0,0,0,6.31-1c3-1.29,5.71-4.27,8.87-7.73s7-7.65,12-10.69a35.75,35.75,0,0,1,18.72-5.09,41.84,41.84,0,0,1,15.26,2.93c8.75,3.46,16.79,9.63,21.52,16.49l8.38,12.15-14.4,3.28a19.11,19.11,0,0,1-4.14.44c-4.32,0-8.61-1.34-12.4-2.52a35.06,35.06,0,0,0-5.82-1.53c-.67-.05-1.35-.07-2-.07-4.95,0-9.19,1.32-11.95,3.73-2.26,2-4.18,5.17-6.2,8.55-2.53,4.24-5.4,9.05-9.85,13.05a32.91,32.91,0,0,1-21.8,8.23Z"/><path class="s2d6-image1_26" d="M345.1,897.47a22.79,22.79,0,0,0,23-4.2c6.74-6.06,9.34-15.76,16.17-21.71,5.7-5,13.7-6.64,21.25-6.09,5.82.42,14.15,5,19.43,3.82-3.91-5.67-10.59-10.34-17-12.86-8.07-3.2-17.67-3.15-25.07,1.38-8.35,5.12-13.12,15.2-22.11,19.08-5.68,2.45-12.16,2-18.3,1.28A22.84,22.84,0,0,1,345.1,897.47Z"/></g><path class="s2d6-image1_26" d="M807,601.6c-3.4,42.56-28.37,82.46-24.8,125,1.8,21.44,10.77,41.5,17.33,62s10.68,43.15,2.87,63.2c-8.85-11-17.87-22.17-29.32-30.47-15.67-11.36-39.28-13.74-46.45-31.72-3.83-9.61-.11-25.15,1.6-35.35,6.86-41,22-80.65,24.54-122.15,4.16-69-27-135.94-26.12-205,.13-11.35,1.34-23.28,7.81-32.61,4.11-5.93,11-10.5,18.25-11.32,11.4-1.29,10.91,3.37,10.36,12.67-1,16.64,1.42,33.26,5.39,49.39,8.29,33.73,23.23,65.38,32.11,98.94C805.53,562.85,808.56,582.22,807,601.6Z"/><path class="s2d6-image1_26" d="M362.6,601.6c3.39,42.56,28.37,82.46,24.8,125-1.8,21.44-10.77,41.5-17.33,62s-10.69,43.15-2.87,63.2c8.84-11,17.87-22.17,29.31-30.47C412.18,810,435.8,807.57,443,789.59c3.83-9.61.1-25.15-1.6-35.35-6.86-41-22-80.65-24.54-122.15-4.16-69,27-135.94,26.12-205-.14-11.35-1.35-23.28-7.81-32.61-4.11-5.93-11-10.5-18.25-11.32-11.41-1.29-10.91,3.37-10.36,12.67,1,16.64-1.42,33.26-5.39,49.39-8.3,33.73-23.24,65.38-32.11,98.94C364.08,562.85,361.05,582.22,362.6,601.6Z"/><path class="s2d6-image1_38" d="M393.37,353.92H775.63A18.35,18.35,0,0,1,794,372.27v17.65a0,0,0,0,1,0,0H373.22a0,0,0,0,1,0,0V374.07A20.15,20.15,0,0,1,393.37,353.92Z"/><rect class="s2d6-image1_39" x="373.22" y="389.92" width="420.75" height="57.14" transform="translate(1167.2 836.98) rotate(180)"/><line class="s2d6-image1_40" x1="393.4" y1="371.92" x2="774.36" y2="371.92"/><text class="s2d6-image1_41" transform="matrix(0.96, -0.29, 0.29, 0.96, 701.44, 693.46)">g</text><text class="s2d6-image1_41" transform="matrix(0.99, -0.12, 0.12, 0.99, 725.4, 686.26)">a</text><text class="s2d6-image1_41" transform="matrix(1, 0, 0, 1, 745.78, 683.78)">t</text><text class="s2d6-image1_41" transform="matrix(1, 0.1, -0.1, 1, 762.36, 683.49)">a</text><text class="s2d6-image1_41" transform="matrix(0.98, 0.2, -0.2, 0.98, 784.9, 685.72)">l</text><text class="s2d6-image1_42" transform="matrix(0.9, -0.44, 0.44, 0.9, 286.85, 571.96)">T</text><text class="s2d6-image1_42" transform="matrix(0.94, -0.33, 0.33, 0.94, 306.48, 562.41)">u</text><text class="s2d6-image1_42" transform="matrix(0.97, -0.23, 0.23, 0.97, 326.41, 555.43)">b</text><text class="s2d6-image1_42" transform="matrix(0.99, -0.15, 0.15, 0.99, 345.88, 550.69)">u</text><text class="s2d6-image1_42" transform="matrix(1, -0.07, 0.07, 1, 366.85, 547.51)">h</text><text class="s2d6-image1_42" transform="matrix(1, 0.01, -0.01, 1, 387.94, 546.01)">k</text><text class="s2d6-image1_42" transform="matrix(1, 0.08, -0.08, 1, 411.5, 546.23)">u</text><text class="s2d6-image1_42" transform="matrix(0.99, 0.14, -0.14, 0.99, 432.78, 547.87)">u</text><text class="s2d6-image1_42" transform="matrix(0.98, 0.17, -0.17, 0.98, 454.06, 550.91)">.</text><text class="s2d6-image1_42" transform="matrix(0.98, 0.19, -0.19, 0.98, 462.31, 552.36)">.</text><text class="s2d6-image1_43" transform="matrix(0.96, -0.28, 0.28, 0.96, 271.79, 521.86)">K</text><text class="s2d6-image1_43" transform="matrix(0.99, -0.17, 0.17, 0.99, 298.9, 514.31)">e</text><text class="s2d6-image1_43" transform="matrix(1, -0.09, 0.09, 1, 317.51, 511.03)">n</text><text class="s2d6-image1_43" transform="matrix(1, -0.01, 0.01, 1, 337.89, 509.15)">a</text><text class="s2d6-image1_43" transform="matrix(1, 0.05, -0.05, 1, 359.06, 508.88)">p</text><text class="s2d6-image1_43" transform="matrix(0.99, 0.11, -0.11, 0.99, 377.42, 509.81)">a</text><text class="s2d6-image1_43" transform="matrix(0.99, 0.15, -0.15, 0.99, 398.6, 512.34)">.</text><text class="s2d6-image1_43" transform="matrix(0.98, 0.17, -0.17, 0.98, 406.87, 513.62)">.</text><text class="s2d6-image1_44" transform="matrix(0.94, -0.35, 0.35, 0.94, 694.71, 716.72)">s</text><text class="s2d6-image1_44" transform="matrix(0.97, -0.25, 0.25, 0.97, 705.08, 712.83)">e</text><text class="s2d6-image1_44" transform="matrix(0.99, -0.15, 0.15, 0.99, 717.18, 709.58)">k</text><text class="s2d6-image1_44" transform="matrix(1, -0.05, 0.05, 1, 732.61, 707.27)">a</text><text class="s2d6-image1_44" transform="matrix(1, 0.03, -0.03, 1, 746.69, 706.54)">l</text><text class="s2d6-image1_44" transform="matrix(1, 0.08, -0.08, 1, 759.67, 706.94)">i</text><text class="s2d6-image1_44" transform="matrix(0.99, 0.11, -0.11, 0.99, 767.44, 707.6)">.</text><text class="s2d6-image1_44" transform="matrix(0.99, 0.14, -0.14, 0.99, 772.98, 708.24)">.</text><text class="s2d6-image1_45" transform="matrix(1, -0.08, 0.08, 1, 396.08, 307.6)">K</text><text class="s2d6-image1_45" transform="matrix(1, 0.02, -0.02, 1, 411.23, 306.42)">u</text><text class="s2d6-image1_45" transform="matrix(1, 0.1, -0.1, 1, 422.66, 306.58)">k</text><text class="s2d6-image1_45" transform="matrix(0.99, 0.17, -0.17, 0.98, 435.26, 307.85)">u</text><text class="s2d6-image1_45" transform="matrix(0.97, 0.23, -0.23, 0.97, 446.58, 309.85)">r</text><text class="s2d6-image1_45" transform="matrix(0.96, 0.29, -0.29, 0.96, 456.55, 312.22)">u</text><text class="s2d6-image1_45" transform="matrix(0.94, 0.33, -0.33, 0.94, 467.57, 315.58)">y</text><text class="s2d6-image1_45" transform="matrix(0.93, 0.37, -0.37, 0.93, 475.01, 318.15)">u</text><text class="s2d6-image1_45" transform="matrix(0.91, 0.42, -0.42, 0.91, 485.71, 322.44)">k</text><text class="s2d6-image1_45" transform="matrix(0.89, 0.45, -0.45, 0.89, 497.31, 327.88)">.</text><text class="s2d6-image1_45" transform="matrix(0.89, 0.46, -0.46, 0.89, 501.33, 329.9)">.</text><text class="s2d6-image1_45" transform="matrix(0.88, 0.48, -0.48, 0.88, 505.34, 332)">.</text><text class="s2d6-image1_45" transform="matrix(0.85, 0.52, -0.52, 0.85, 509.22, 334.02)">.</text><text class="s2d6-image1_45" transform="matrix(0.87, -0.5, 0.5, 0.87, 659.7, 339.25)">K</text><text class="s2d6-image1_45" transform="matrix(0.91, -0.42, 0.42, 0.91, 672.97, 331.75)">u</text><text class="s2d6-image1_45" transform="matrix(0.93, -0.36, 0.36, 0.93, 683.36, 326.89)">k</text><text class="s2d6-image1_45" transform="matrix(0.95, -0.3, 0.3, 0.95, 695.23, 322.38)">u</text><text class="s2d6-image1_45" transform="matrix(0.97, -0.25, 0.25, 0.97, 706.24, 318.96)">r</text><text class="s2d6-image1_45" transform="matrix(0.98, -0.2, 0.2, 0.98, 716.17, 316.42)">u</text><text class="s2d6-image1_45" transform="matrix(0.99, -0.16, 0.16, 0.99, 727.53, 314.15)">y</text><text class="s2d6-image1_45" transform="matrix(0.99, -0.12, 0.12, 0.99, 735.28, 312.86)">u</text><text class="s2d6-image1_45" transform="matrix(1, -0.06, 0.06, 1, 746.7, 311.31)">k</text><text class="s2d6-image1_45" transform="matrix(0.98, -0.2, 0.2, 0.98, 760.92, 310.31)">.</text><text class="s2d6-image1_45" transform="matrix(0.96, -0.3, 0.3, 0.96, 766.21, 309.18)">.</text><text class="s2d6-image1_45" transform="matrix(0.92, -0.39, 0.39, 0.92, 771.38, 307.53)">.</text><text class="s2d6-image1_45" transform="matrix(0.88, -0.48, 0.48, 0.88, 776.38, 305.39)">.</text></svg>
