<svg id="Layer_1" data-name="Layer 1" xmlns="http://www.w3.org/2000/svg" xmlns:xlink="http://www.w3.org/1999/xlink" viewBox="0 0 1573.64 915.94"><defs><style>.s2d5-asset4_1{fill:#2e5f5a;}.s2d5-asset4_2{font-size:45.75px;}.s2d5-asset4_2,.s2d5-asset4_27,.s2d5-asset4_3,.s2d5-asset4_4,.s2d5-asset4_5,.s2d5-asset4_6{fill:#fff;}.s2d5-asset4_2,.s2d5-asset4_27,.s2d5-asset4_3,.s2d5-asset4_4,.s2d5-asset4_5{font-family:PermanentMarker-Regular, Permanent Marker;}.s2d5-asset4_3{font-size:28.29px;}.s2d5-asset4_4{font-size:40.15px;}.s2d5-asset4_5{font-size:24.83px;}.s2d5-asset4_7{fill:#daa534;}.s2d5-asset4_8{fill:#2f4862;}.s2d5-asset4_11,.s2d5-asset4_13,.s2d5-asset4_14,.s2d5-asset4_15,.s2d5-asset4_16,.s2d5-asset4_17,.s2d5-asset4_18,.s2d5-asset4_19,.s2d5-asset4_20,.s2d5-asset4_22,.s2d5-asset4_23,.s2d5-asset4_24,.s2d5-asset4_25,.s2d5-asset4_26,.s2d5-asset4_9{fill:none;}.s2d5-asset4_18,.s2d5-asset4_19,.s2d5-asset4_20,.s2d5-asset4_22,.s2d5-asset4_23,.s2d5-asset4_24,.s2d5-asset4_25,.s2d5-asset4_26,.s2d5-asset4_9{stroke:#5d9894;}.s2d5-asset4_11,.s2d5-asset4_13,.s2d5-asset4_18,.s2d5-asset4_19,.s2d5-asset4_20,.s2d5-asset4_22,.s2d5-asset4_23,.s2d5-asset4_24,.s2d5-asset4_25,.s2d5-asset4_26,.s2d5-asset4_9{stroke-miterlimit:10;}.s2d5-asset4_9{stroke-width:1.33px;}.s2d5-asset4_10{fill:#d5a034;}.s2d5-asset4_11,.s2d5-asset4_13,.s2d5-asset4_14,.s2d5-asset4_15,.s2d5-asset4_16{stroke:#fff;}.s2d5-asset4_11{stroke-width:0.66px;}.s2d5-asset4_12{fill:#5d9894;}.s2d5-asset4_13{stroke-width:1.15px;}.s2d5-asset4_14,.s2d5-asset4_15,.s2d5-asset4_16{stroke-linecap:round;stroke-linejoin:round;stroke-width:1.46px;}.s2d5-asset4_15{stroke-dasharray:0 6.91;}.s2d5-asset4_16{stroke-dasharray:0 6.06;}.s2d5-asset4_18{stroke-width:4px;}.s2d5-asset4_19{stroke-width:2px;}.s2d5-asset4_21{fill:#c37475;}.s2d5-asset4_22{stroke-width:1.01px;}.s2d5-asset4_23{stroke-width:0.8px;}.s2d5-asset4_24{stroke-width:0.54px;}.s2d5-asset4_25{stroke-width:0.84px;}.s2d5-asset4_26{stroke-width:0.85px;}.s2d5-asset4_27{font-size:33.67px;}.s2d5-asset4_28{fill:url(#s2d5-asset4-lg);}.s2d5-asset4_29{fill:url(#s2d5-asset4-lg_2);}.s2d5-asset4_30{fill:url(#s2d5-asset4-lg_3);}.s2d5-asset4_31{fill:#5d9e9a;}.s2d5-asset4_32{fill:#919a51;}.s2d5-asset4_33{fill:url(#s2d5-asset4-lg_4);}.s2d5-asset4_34{fill:#357d74;}.s2d5-asset4_35{fill:#d7a234;}</style><linearGradient id="s2d5-asset4-lg" x1="3614.78" y1="484.32" x2="3615.23" y2="405.48" gradientTransform="matrix(-1, 0, 0, 1, 3949.01, 0)" gradientUnits="userSpaceOnUse"><stop offset="0" stop-color="#357d74" stop-opacity="0"/><stop offset="1" stop-color="#357d74"/></linearGradient><linearGradient id="s2d5-asset4-lg_2" x1="3758.88" y1="512.76" x2="3759.13" y2="468.23" xlink:href="#s2d5-asset4-lg"/><linearGradient id="s2d5-asset4-lg_3" x1="3725.52" y1="559.85" x2="3725.69" y2="530.89" xlink:href="#s2d5-asset4-lg"/><linearGradient id="s2d5-asset4-lg_4" x1="314.86" y1="717.46" x2="314.86" y2="770.04" gradientTransform="matrix(1, 0, 0, 1, 0, 0)" xlink:href="#s2d5-asset4-lg"/></defs><title>21</title><rect class="s2d5-asset4_1" x="-630.11" y="-174.01" width="2900.71" height="1369.93"/><text class="s2d5-asset4_2" transform="matrix(0.84, -0.54, 0.54, 0.84, 648.94, 417.21)">h</text><text class="s2d5-asset4_2" transform="matrix(0.93, -0.37, 0.37, 0.93, 670.14, 403.59)">u</text><text class="s2d5-asset4_2" transform="matrix(0.97, -0.24, 0.24, 0.97, 694.03, 394.21)">s</text><text class="s2d5-asset4_2" transform="matrix(0.99, -0.13, 0.13, 0.99, 713.83, 389.32)">s</text><text class="s2d5-asset4_2" transform="matrix(1, -0.03, 0.03, 1, 734.04, 386.44)">h</text><text class="s2d5-asset4_2" transform="matrix(1, 0.04, -0.04, 1, 760.07, 385.96)">.</text><text class="s2d5-asset4_2" transform="matrix(1, 0.08, -0.08, 1, 770.22, 386.39)">.</text><text class="s2d5-asset4_2" transform="matrix(0.99, 0.11, -0.11, 0.99, 780.38, 387.19)">.</text><text class="s2d5-asset4_3" transform="matrix(0.64, -0.77, 0.77, 0.64, 599.42, 407.75)">h</text><text class="s2d5-asset4_3" transform="matrix(0.76, -0.65, 0.65, 0.76, 609.44, 395.73)">u</text><text class="s2d5-asset4_3" transform="matrix(0.85, -0.52, 0.52, 0.85, 621.55, 385.57)">s</text><text class="s2d5-asset4_3" transform="matrix(0.92, -0.38, 0.38, 0.92, 632.01, 378.94)">h</text><text class="s2d5-asset4_3" transform="matrix(0.96, -0.27, 0.27, 0.96, 646.75, 373.15)">.</text><text class="s2d5-asset4_3" transform="matrix(0.98, -0.2, 0.2, 0.98, 652.67, 371.51)">.</text><text class="s2d5-asset4_4" transform="matrix(0.95, -0.3, 0.3, 0.95, 590.34, 578.77)">h</text><text class="s2d5-asset4_4" transform="matrix(0.99, -0.14, 0.14, 0.99, 611.54, 572)">u</text><text class="s2d5-asset4_4" transform="matrix(1, -0.01, 0.01, 1, 633.95, 569.03)">s</text><text class="s2d5-asset4_4" transform="matrix(1, 0.09, -0.09, 1, 651.9, 568.84)">s</text><text class="s2d5-asset4_4" transform="matrix(0.98, 0.18, -0.18, 0.98, 669.83, 570.31)">h</text><text class="s2d5-asset4_4" transform="matrix(0.97, 0.25, -0.25, 0.97, 692.29, 574.74)">.</text><text class="s2d5-asset4_4" transform="matrix(0.96, 0.28, -0.28, 0.96, 700.97, 576.97)">.</text><text class="s2d5-asset4_4" transform="matrix(0.95, 0.3, -0.3, 0.95, 709.6, 579.54)">.</text><text class="s2d5-asset4_5" transform="matrix(1, -0.09, 0.09, 1, 642.89, 602.34)">h</text><text class="s2d5-asset4_5" transform="matrix(1, 0.08, -0.08, 1, 656.58, 601.04)">u</text><text class="s2d5-asset4_5" transform="matrix(0.97, 0.23, -0.23, 0.97, 670.39, 602.2)">s</text><text class="s2d5-asset4_5" transform="matrix(0.93, 0.38, -0.38, 0.92, 681, 604.53)">h</text><text class="s2d5-asset4_5" transform="matrix(0.87, 0.49, -0.49, 0.87, 693.78, 610.04)">.</text><text class="s2d5-asset4_5" transform="matrix(0.84, 0.55, -0.55, 0.84, 698.48, 612.67)">.</text><path class="s2d5-asset4_6" d="M463.94,392.38c0,22-17.91,37.42-39,37.1,21.07.32,38.58,16.83,39.1,36.88-.52-20.05,16.13-36,37.2-35.71C480.19,430.33,463.94,412.43,463.94,392.38Z"/><path class="s2d5-asset4_6" d="M868.63,646.81c0,14.93-12.17,25.44-26.5,25.22,14.33.22,26.23,11.45,26.59,25.08-.36-13.63,11-24.5,25.29-24.28C879.68,672.61,868.63,660.44,868.63,646.81Z"/><path class="s2d5-asset4_6" d="M920.41,325c0,11-8.94,18.7-19.47,18.54,10.53.16,19.28,8.41,19.54,18.43-.26-10,8.06-18,18.59-17.84A19.2,19.2,0,0,1,920.41,325Z"/><path class="s2d5-asset4_6" d="M297.94,479.79c0,11-8.94,18.7-19.47,18.54,10.53.16,19.27,8.41,19.54,18.43-.27-10,8.06-18,18.58-17.84A19.21,19.21,0,0,1,297.94,479.79Z"/><path class="s2d5-asset4_7" d="M789.37,659.63a29.87,29.87,0,0,1-8.55-1.31c-11.38-3.43-20.24-13.05-22-23.94-2-12.33,5.58-25.1,17-28.46a19.84,19.84,0,0,1,19.78,4.81,17,17,0,0,1,4.77,15.84c-.85,3.58-3.85,10.06-14.47,13.2l-3.29-11.15c2.14-.63,5.82-2.09,6.44-4.72a5.45,5.45,0,0,0-1.38-4.67,8.32,8.32,0,0,0-8.57-2.16c-5.76,1.7-9.88,8.9-8.8,15.41s6.8,12.56,13.93,14.71a15.3,15.3,0,0,0,8.73.31c3.83-1.19,7.41-4.93,9.83-10.28,9.47-20.88-3-45.73-16.59-60.67-18.87-20.77-45.91-36-78.22-44.15-30.34-7.61-92.21-5.84-136,9l-3.72-11c45.68-15.45,110.57-17.24,142.51-9.22,34.54,8.67,63.58,25.13,84,47.6,9.26,10.19,16.37,22.31,20,34.12,4.33,14,3.84,27.58-1.42,39.17-3.85,8.49-9.87,14.38-17,16.58A23.32,23.32,0,0,1,789.37,659.63Z"/><path class="s2d5-asset4_7" d="M832.44,568.44l10,8A126.56,126.56,0,0,1,852.56,585a40.31,40.31,0,0,1,8.36,11.29,25.09,25.09,0,0,1,2.17,7.13,25.35,25.35,0,0,1,0,7.43,21,21,0,0,1-2.48,7.19,16.58,16.58,0,0,1-5.42,5.76,15,15,0,0,1-7.61,2.45,13.61,13.61,0,0,1-7.94-2,12.49,12.49,0,0,1-5.1-6.55,11.26,11.26,0,0,1-.59-4.26l0-.55.09-.6.05-.3,0-.15.08-.29c.06-.19.13-.38.19-.54a12.27,12.27,0,0,1,.89-1.86,13.16,13.16,0,0,1,5.88-5.45,15.39,15.39,0,0,1,7.6-1.3l-.3,5.39c-3.64-.18-6.65,1.3-8.15,4.17a7.29,7.29,0,0,0-.46,1l-.07.22,0-.1v.15l0,.19v.25a5.41,5.41,0,0,0,.36,2,6.52,6.52,0,0,0,2.72,3.3,8.34,8.34,0,0,0,8.73-.66,11.85,11.85,0,0,0,4.68-8.51,18,18,0,0,0-1.84-10.39,33,33,0,0,0-7.13-9,115.46,115.46,0,0,0-9.67-7.76l-10.27-7.68Z"/><path class="s2d5-asset4_7" d="M1258.62,665.89a229.46,229.46,0,0,0-28.84-13.9A197.93,197.93,0,0,0,1258.62,665.89Z"/><path class="s2d5-asset4_7" d="M1329.79,282c-1.28,0-2.56,0-3.84,0-40.91.82-80.37,15.31-112.8,40.25-9.09,7-18,14.15-26.89,21.28-9.94,7.95-19.93,15.85-30.3,23.43-33.14,24.25-72,45.79-117.89,51.4-44.71,5.47-91.16-4.64-136.9-9.59C830.67,401.21,747,400,690,429.4c-52.62,27.15-74.85,57.3-116.68,111.41,85.44-36.57,144.65-31.26,220.26-9.75s103.87,83.44,182,95.63c89.23,13.93,172.43-7.27,254.2,25.3a229.46,229.46,0,0,1,28.84,13.9A198.16,198.16,0,0,0,1330,679.12c109.77,0,198.73-89.08,198.55-198.89C1528.34,371,1439,281.93,1329.79,282Z"/><path class="s2d5-asset4_8" d="M1288.16,475.85c21.7-.39,35.71,23.89,36.1,45.59a39.29,39.29,0,0,1-78.57,1.42C1245.3,501.17,1266.47,476.24,1288.16,475.85Z"/><circle class="s2d5-asset4_8" cx="1336.26" cy="521.22" r="27.65" transform="translate(-95.12 429.52) rotate(-17.64)"/><circle class="s2d5-asset4_8" cx="1373.43" cy="478.04" r="39.29" transform="translate(-80.29 438.75) rotate(-17.64)"/><path class="s2d5-asset4_9" d="M1387.32,505.86a18.1,18.1,0,0,1-5.65,2.4"/><path class="s2d5-asset4_9" d="M1390.32,461.64c5.81,6.26,8.42,15,8.52,23.54a23.6,23.6,0,0,1-1.67,9.82,21.84,21.84,0,0,1-2.79,4.5"/><path class="s2d5-asset4_9" d="M1388.09,476.39c1.36,4.39,2.38,9.21.78,13.51-1.84,5-8.57,11.74-18.22,14"/><path class="s2d5-asset4_9" d="M1390.29,448.94a15.54,15.54,0,0,1,5.2,4.75,50.81,50.81,0,0,1,10.33,27.83"/><path class="s2d5-asset4_9" d="M1290.83,544.69a28.08,28.08,0,0,1-5-2.15c-.74-.41-1.46-.84-2.15-1.31-.4-.26-.78-.54-1.16-.82a27.24,27.24,0,0,1-2.26-1.89"/><path class="s2d5-asset4_9" d="M1318.76,537.83a28.05,28.05,0,0,1-19.13,8.15"/><path class="s2d5-asset4_9" d="M1291.64,525.62a14.45,14.45,0,0,1-1.77-3.77"/><path class="s2d5-asset4_9" d="M1314.39,531.63a20.45,20.45,0,0,1-14.51.47,16.84,16.84,0,0,1-5-2.9"/><path class="s2d5-asset4_9" d="M1312.57,519.22a16.13,16.13,0,0,1-19.15-15.88s-.23-9.42,3.06-15.31"/><path class="s2d5-asset4_9" d="M1315.48,512.27a7.72,7.72,0,0,1-5.85-3.14,22.52,22.52,0,0,1-3.13-6.09"/><path class="s2d5-asset4_9" d="M1326.72,513.66c.27,4.33.59,8.72,2.31,12.77a15.64,15.64,0,0,0,9.66,9.12c4.62,1.37,10.46-.27,12.46-4.23"/><path class="s2d5-asset4_9" d="M1334.48,516c-.65,2.2.55,4.47,1.88,6.4,1.87,2.74,4.57,5.55,8.18,5.64a8.11,8.11,0,0,0,5.65-2.31,12.18,12.18,0,0,0,3-5,8,8,0,0,0,.54-3.34c-.2-2.14-1.74-3.95-3.22-5.64"/><path class="s2d5-asset4_6" d="M1280.43,521.76l-3.54-29.86a91.15,91.15,0,0,0-1.32-11.09h0c-1.37-7.57-3.85-17.45-9.59-25-8.84-11.67-30.12-8.84-42.41-5.64l3.6,5.52-.18-.06c-4.54-1.59-9.54-3.18-14-1.49-6.34,2.38-8.73,10-10,16.63a244.84,244.84,0,0,0-3.76,28.44c-.56,7.79-.74,15.75,1.35,23.28,2.28,8.22,7.12,15.46,11.89,22.53,2.52,3.75,5.14,7.59,8.88,10.12s8.91,3.49,12.76,1.12l16.44-2.55S1282.64,543.72,1280.43,521.76Z"/><path class="s2d5-asset4_6" d="M1393,442.24l-19.89-16.17s-71.84-25-83.52,8.63c-3.31,9.53,15.75,58.7,15.75,58.7s4.15,8.57,11.79,12l16.77,9.69,10.4,1.92,7.4-6.3,6.43-7.15,13.83-11.43Z"/><path class="s2d5-asset4_6" d="M1393,442.24l-19.89-16.17s-71.84-25-83.52,8.63c-3.31,9.53,15.75,58.7,15.75,58.7s4.15,8.57,11.79,12l16.77,9.69,10.4,1.92,7.4-6.3,6.43-7.15,13.83-11.43Z"/><polygon class="s2d5-asset4_6" points="1297.11 467.73 1268.71 481.35 1276.66 492.83 1314.54 485.61 1297.11 467.73"/><path class="s2d5-asset4_8" d="M1241,545.52c-.68,4.72-1.51,9.42-2.54,14.1h0c-7.94,1.41-25.62,4.32-36.48,5.11-43.45,3.17-83.18-6.82-106.12-1.59l-12.16-86.88a.64.64,0,0,1,1-.63h0a53.43,53.43,0,0,0,49.51,5.05,117.65,117.65,0,0,0,11.25-5.38c14.89-8,27.79-19.18,41.06-29.67,2.65-2.09,5.39-4.2,8.6-5.26,6.51-2.15,13.55.39,19.93,2.89l.21.08a34.35,34.35,0,0,1,20.82,23.86l1.44,5.93a191.27,191.27,0,0,1,3.85,20.73S1244,526.62,1241,545.52Z"/><path class="s2d5-asset4_8" d="M1353.07,461.33a16,16,0,0,0,3-3.78,18.08,18.08,0,0,0,1.94-4.47,17.14,17.14,0,0,0,.61-4.84,20.34,20.34,0,0,0-.17-2.46,12.37,12.37,0,0,0-.49-2.39c-.23-.8-.49-1.6-.77-2.4a16.07,16.07,0,0,0-.93-2.27,13.37,13.37,0,0,0-3-3.79,37.36,37.36,0,0,0-8.58-5.23l.56-1.16a38.09,38.09,0,0,1,9,5.3,14.63,14.63,0,0,1,3.42,4.15,19.21,19.21,0,0,1,1.06,2.46c.3.82.58,1.64.84,2.48.13.42.25.84.36,1.29s.15.89.23,1.34a23.28,23.28,0,0,1,.22,2.65,18.59,18.59,0,0,1-.58,5.34,20,20,0,0,1-2,5,17.56,17.56,0,0,1-3.3,4.3Z"/><path class="s2d5-asset4_6" d="M1354.35,423.36a27,27,0,0,1-27.15-11.79c-.6-1-1.26-2.05-2.36-2.32-1.69-.43-3.1,1.29-3.86,2.85a26.55,26.55,0,0,0-2.65,11.21"/><path class="s2d5-asset4_8" d="M1342.94,457.48a30.42,30.42,0,0,1-2.74-6.09,28.55,28.55,0,0,1-1.3-6.57,21.64,21.64,0,0,1,.55-6.79l.45-1.66.66-1.6c.11-.27.21-.54.33-.8l.43-.75.85-1.51,2.47,1.68-.78,1.27-.39.63c-.12.22-.21.45-.31.67l-.62,1.35-.45,1.42a18.85,18.85,0,0,0-.71,6,26.76,26.76,0,0,0,1,6.05,28.75,28.75,0,0,0,2.29,5.71Z"/><circle class="s2d5-asset4_10" cx="1320.04" cy="458.18" r="11.48" transform="translate(-76.68 418.25) rotate(-17.5)"/><path class="s2d5-asset4_11" d="M1345.77,491.64s9.27,12.3,1.75,19.41-19.21-7.91-21.07-12.07"/><path class="s2d5-asset4_12" d="M1320.21,495.61c-6,4.4-14.86,26.23-2.2,46.91s31,5,24.9-3.36c-4.1-5.68-8.54-5.46-11.26-2.33,0,0-5,4.23.11,9.16,0,0-4.72-1.66-7.68-10.33s-2.3-16.63,1.57-21.54c0,0,5.59,10.12,13.86,9.38s12.34-1.43,15.26,5.29c0,0,1.25-9-2.79-11.95,0,0,9.44-14.49,22.35,10.9,0,0-1-31.83-25.54-38.06C1348.79,489.68,1333.19,486,1320.21,495.61Z"/><circle class="s2d5-asset4_12" cx="1336.63" cy="542.05" r="7.62" transform="translate(-101.14 427.12) rotate(-17.5)"/><path class="s2d5-asset4_12" d="M1373.74,522.34a55.14,55.14,0,0,1,2.71-28.1A24.39,24.39,0,0,1,1386.9,482c3.31-2,7.3-5.71,6.94-12.09-.61-10.74,4.84-21.16,11.67-14.56,5.85,5.67,14.22-1.34,14.22-1.34s-7.49-11-14.93-7.37c-7,3.42-10.45-4.56-12.68-9.41s-13.3-9-13.3-9l-6.86,18L1377.7,460l-2.72,18.3-15.61,19.59Z"/><path class="s2d5-asset4_10" d="M1358.84,494.39s27.85-24.07,9.09-50c0,0,10.3-2.66,5.15-18.35l5.74,2.15s4.69,10.4-2.36,17.65c0,0,15.6,25-12.81,53.08Z"/><path class="s2d5-asset4_10" d="M1358.84,494.39s27.85-24.07,9.09-50c0,0,10.3-2.66,5.15-18.35l5.74,2.15s4.69,10.4-2.36,17.65c0,0,15.6,25-12.81,53.08Z"/><rect class="s2d5-asset4_13" x="1384.53" y="444.9" width="5.74" height="5.75" transform="matrix(-0.78, 0.62, -0.62, -0.78, 2752.42, -64.17)"/><line class="s2d5-asset4_14" x1="1362.73" y1="495.52" x2="1362.73" y2="495.52"/><path class="s2d5-asset4_15" d="M1367.13,490.2c6-8.22,15.15-24.88,6.91-42.11"/><line class="s2d5-asset4_14" x1="1372.41" y1="445.05" x2="1372.41" y2="445.05"/><path class="s2d5-asset4_16" d="M1376.34,440.62c.8-2,1.19-4.91.39-9"/><line class="s2d5-asset4_14" x1="1375.99" y1="428.72" x2="1375.99" y2="428.72"/><polygon class="s2d5-asset4_8" points="1301.47 484.15 1283.19 487.38 1282.94 486.12 1301.08 482.2 1301.47 484.15"/><ellipse class="s2d5-asset4_6" cx="1410.05" cy="451.95" rx="1.78" ry="3.66" transform="translate(535.23 1646.6) rotate(-71.56)"/><path class="s2d5-asset4_13" d="M1385.84,455.33a5.71,5.71,0,0,1,2.25,6.14,11,11,0,0,1-1.77,2.95,6.93,6.93,0,0,0-1.49,3.07,2.73,2.73,0,0,0,1.41,2.89"/><path class="s2d5-asset4_13" d="M1386.38,440.84a1.58,1.58,0,0,0,.94-1.3c.3-2.15-2.32-4-1.86-6.07,0-.09.07-.47.75-.33"/><path class="s2d5-asset4_6" d="M1344.07,497.69h0a6.48,6.48,0,0,1,2.48,3.19,15.44,15.44,0,0,1,.77,3.81,5.74,5.74,0,0,1,0,1.85c-.39,1.77-2.35,2.79-4.23,3.17A12.32,12.32,0,0,1,1336,509h0l-.16-.07a11.17,11.17,0,0,1-2.29-1.34l-.23-.2a14.55,14.55,0,0,1-5-6.2,2.36,2.36,0,0,1,1.51-3.15C1333.58,497,1340.86,495.31,1344.07,497.69Z"/><path class="s2d5-asset4_8" d="M1333.44,501.78a11.35,11.35,0,0,0,6.33,4.08,6.94,6.94,0,0,0,1.79.22c.55,0,.83-.21.94-.47a2.75,2.75,0,0,0,0-1.43,1.88,1.88,0,0,0-.62-1.17l1.27-1.53a3.78,3.78,0,0,1,1.22,2.38,5.63,5.63,0,0,1,0,1.23,3.29,3.29,0,0,1-.36,1.35,2.46,2.46,0,0,1-1.15,1.08,3.2,3.2,0,0,1-1.34.28,7.85,7.85,0,0,1-2.25-.36,12.73,12.73,0,0,1-7-4.91Z"/><path class="s2d5-asset4_17" d="M1306.26,495.76c2.32,4.38,2.83,9.47,3.21,14.42a31.71,31.71,0,0,1-.32,10,19.06,19.06,0,0,1-9.94,12.13,25.55,25.55,0,0,1-15.75,2.13,19.89,19.89,0,0,1-10.62-4.86c-5-4.84-5.89-12.45-6.46-19.41-.15-1.76-.26-3.64.63-5.16"/><circle class="s2d5-asset4_10" cx="1329.98" cy="500.08" r="2.13" transform="translate(-89.01 426.62) rotate(-17.64)"/><path class="s2d5-asset4_10" d="M1399.46,456.83a7.27,7.27,0,0,0-.48,2,8.68,8.68,0,0,0,.16,3.93,3.37,3.37,0,0,0,2.87,2.38.66.66,0,0,0,.28,0c.3-.12.36-.51.36-.84a24.66,24.66,0,0,0-1.3-5.59c-.16-.6-.13-2.48-.44-2.87C1400.38,455.15,1399.71,456.27,1399.46,456.83Z"/><path class="s2d5-asset4_12" d="M1399.52,444.27a5.79,5.79,0,0,1-.42-1.53,6.66,6.66,0,0,1,0-3,2.57,2.57,0,0,1,2.11-1.88.82.82,0,0,1,.22,0c.23.08.28.38.29.63a19.08,19.08,0,0,1-.83,4.27,12.82,12.82,0,0,1-.25,2.19C1400.26,445.51,1399.72,444.68,1399.52,444.27Z"/><path class="s2d5-asset4_8" d="M1359.08,494a21.79,21.79,0,0,1,3.61,2.89,33.07,33.07,0,0,1,3,3.43,36.12,36.12,0,0,1,2.55,3.81,41.4,41.4,0,0,1,2.09,4.09l-1.34.56a39.36,39.36,0,0,0-1.9-4,36.35,36.35,0,0,0-2.36-3.75,31.67,31.67,0,0,0-2.84-3.39,21.14,21.14,0,0,0-3.33-2.84Z"/><path class="s2d5-asset4_6" d="M1327.31,546.44a.07.07,0,1,1,.07-.07A.07.07,0,0,1,1327.31,546.44Z"/><path class="s2d5-asset4_6" d="M1322.71,541a.28.28,0,1,1,0-.55.28.28,0,0,1,0,.55Z"/><path class="s2d5-asset4_6" d="M1319.36,534.75a.45.45,0,1,1,.45-.44A.44.44,0,0,1,1319.36,534.75Z"/><path class="s2d5-asset4_6" d="M1317.45,527.9a.61.61,0,1,1,.61-.6A.6.6,0,0,1,1317.45,527.9Z"/><path class="s2d5-asset4_6" d="M1317.16,520.79a.76.76,0,1,1,.75-.75A.76.76,0,0,1,1317.16,520.79Z"/><path class="s2d5-asset4_6" d="M1318.44,513.42a.54.54,0,1,1,.54-.53A.54.54,0,0,1,1318.44,513.42Z"/><path class="s2d5-asset4_8" d="M1234.36,535.78a17.93,17.93,0,0,1-1.8,1.22c-.6.36-1.2.69-1.8,1s-1.21.63-1.82.92-1.22.58-1.84.84l-1.86.8-1.88.74c-1.24.51-2.51.93-3.77,1.38-5.07,1.74-10.21,3.2-15.39,4.5-2.59.64-5.19,1.23-7.79,1.82s-5.21,1.11-7.83,1.6-5.23,1-7.86,1.43l-7.88,1.29-.23-1.47,7.83-1.39c2.61-.47,5.21-1,7.81-1.52s5.18-1.13,7.77-1.69,5.15-1.24,7.71-1.91c5.12-1.35,10.19-2.86,15.15-4.64,1.24-.46,2.48-.89,3.69-1.41l1.83-.74,1.79-.8c.6-.26,1.19-.55,1.77-.84s1.17-.57,1.73-.89,1.13-.63,1.67-1,1.1-.72,1.49-1Z"/><path class="s2d5-asset4_8" d="M1239.49,504.28a62.54,62.54,0,0,0,39.83-6.09l2.15,3.85a68.15,68.15,0,0,1-43,9Z"/><path class="s2d5-asset4_6" d="M1154.43,537.1c-10.51-10.61-23-18.47-36-25.58h0l-5.22-3.14a44,44,0,0,1-14.77-15.87,20,20,0,0,0-10-8.62,37.59,37.59,0,0,0-22.45-1.91c-8.29,1.82-15.71,5-22.11,11.37-6.69,6.67-9.13,13.63-7,22.49,1.06,4.39,2.27,8.74,3.57,13.06,2.63,8.69,8.08,14.26,16.78,16.72a22.09,22.09,0,0,0,23.25-7c10.81-13.33-2.89-26.18-12.23-25.41-5.84.47-8.21,5.08-5,9.94a36.71,36.71,0,0,0,2.45,3,3,3,0,0,1-.57,4.41c-.65.55-2.73.33-3.47-.32a21.18,21.18,0,0,1-7.17-13.63,6.7,6.7,0,0,1,5.08-7.59,38.9,38.9,0,0,1,10.91-.91c9.29.61,16.71,6.19,19,14.07.08.3.16.6.23.9a21.46,21.46,0,0,1-.83,11.87l-1.49,4.24c-3,6.75-8.53,11.15-16,13l-10.39.71c-12.73-1.55-22.72-7.52-26.78-19.92-1.93-5.9-4.8-8.26-10.32-8.72-.37,0-.72-.18-1.09-.23-11.06-1.45-21.25-.54-30.15,7.69-7.1,6.57-15.22,12.1-26.4,10.71.67.92,1,1.39,1.32,1.79,8.49,9.75,19.43,13.9,32.09,14.4a13.16,13.16,0,0,1,6.62,2,107.91,107.91,0,0,0,31.87,14l0,0,.93.2c.82.19,1.63.41,2.46.59a2,2,0,0,0,.35,0l3.45.75-.07.07c.41.07.82.11,1.23.17l4.18.91.25-.31c11.31,1.23,22,.21,32.15-4.24,11.37-5,22.41-10.81,33.35-16.71,11.43-6.17,23.31-9,36.23-7,4.44.71,8.9,1.33,13.35,2l.45-.85C1162.53,545.89,1158.63,541.35,1154.43,537.1Z"/><path class="s2d5-asset4_18" d="M1020.9,547.53c15.48,10.93,35.48,16,53.84,11.39,19-4.77,35.44-20.83,38.29-40.27"/><path class="s2d5-asset4_18" d="M1008.94,535a25,25,0,0,0,4.41,6.21"/><path class="s2d5-asset4_18" d="M1046.59,513.74c-1.46-7.09,3.65-14.1,10.08-16.49s13.6-2.13,20.31-.71a32.14,32.14,0,0,1,11.08,4.23,25.52,25.52,0,0,1,7.69,8.23,31,31,0,0,1,4.4,17s.23,17.8-11.32,27.1"/><path class="s2d5-asset4_18" d="M1140,536.68c2.42.74,4.78,1.6,7,2.52"/><path class="s2d5-asset4_18" d="M1097.2,546.94c14-10.75,23.84-14,34.55-12.23"/><path class="s2d5-asset4_6" d="M1096.09,474.63c-6.18-6.29-13.53-11-21.18-15.19h0l-3.08-1.87a26.09,26.09,0,0,1-8.77-9.56,11.19,11.19,0,0,0-5.51-4.85,22.16,22.16,0,0,0-13.5-1.28,25.24,25.24,0,0,0-13.08,6.65c-4,3.92-5.42,8-4.18,13.27.62,2.59,1.32,5.16,2.08,7.71a13.72,13.72,0,0,0,10.39,10.06,12.86,12.86,0,0,0,12.57-3.5c7.41-7.93-.49-15.88-6.16-15.79a3.85,3.85,0,0,0-3.39,5.75,18.33,18.33,0,0,0,1.52,1.9,1.76,1.76,0,0,1-.35,2.6,2.14,2.14,0,0,1-2-.2,12.52,12.52,0,0,1-4.2-8.07,4,4,0,0,1,3-4.46,22.87,22.87,0,0,1,6.44-.51c5.48.38,9.85,3.69,11.17,8.35.06.22.11.45.16.68a12.86,12.86,0,0,1-.57,6.92l-.87,2.43a13.43,13.43,0,0,1-9.45,7.66l-6.14.39c-7.51-.94-13.4-4.49-15.76-11.82-1.13-3.49-2.82-4.89-6.07-5.17-.22,0-.43-.11-.64-.14-6.53-.88-12.55-.37-17.82,4.47-4.21,3.86-9,7.11-15.61,6.26.4.54.56.82.77,1.06,5,5.77,11.43,8.25,18.9,8.57a9.31,9.31,0,0,1,3.91,1.21,64,64,0,0,0,18.79,8.36h0l.55.12c.48.12,1,.25,1.45.35a.72.72,0,0,0,.21,0l2,.45-.05,0,.73.11,2.46.54.15-.18a36.37,36.37,0,0,0,19-2.43c6.73-2.92,13.25-6.32,19.73-9.78,6.76-3.62,13.78-5.26,21.4-4,2.62.42,5.25.8,7.87,1.2l.27-.5C1100.85,479.84,1098.56,477.15,1096.09,474.63Z"/><path class="s2d5-asset4_19" d="M1017.24,480.47c9.11,6.48,20.91,9.52,31.75,6.85,11.26-2.77,21-12.21,22.71-23.68"/><path class="s2d5-asset4_19" d="M1010.21,473a14.7,14.7,0,0,0,2.59,3.67"/><path class="s2d5-asset4_19" d="M1032.48,460.58c-.84-4.18,2.2-8.31,6-9.71a21.8,21.8,0,0,1,12-.37A19.07,19.07,0,0,1,1057,453a14.9,14.9,0,0,1,4.51,4.87,18.26,18.26,0,0,1,2.56,10s.1,10.51-6.74,16"/><path class="s2d5-asset4_19" d="M1087.57,474.35c1.42.44,2.81.95,4.14,1.5"/><path class="s2d5-asset4_19" d="M1062.28,480.3c8.31-6.31,14.11-8.22,20.42-7.14"/><path class="s2d5-asset4_6" d="M1001.67,511.08c-4.84-4.92-10.6-8.58-16.59-11.9h0l-2.41-1.46a20.33,20.33,0,0,1-6.74-7.27,9.3,9.3,0,0,0-4.45-4,17.39,17.39,0,0,0-10.57-1,19.81,19.81,0,0,0-10.25,5.22c-3.1,3.07-4.25,6.29-3.27,10.39.48,2,1,4,1.63,6a10.75,10.75,0,0,0,8.33,7.93,10,10,0,0,0,9.65-2.79c6.5-7-2-13.93-6.31-12.07A2.85,2.85,0,0,0,959,503c.12,1.23,1,2,1.67,2.83a1.38,1.38,0,0,1-.27,2,1.68,1.68,0,0,1-1.61-.16,9.79,9.79,0,0,1-3.29-6.31,3.12,3.12,0,0,1,2.37-3.51,18.25,18.25,0,0,1,5.05-.39c4.29.29,7.71,2.89,8.74,6.54a6.23,6.23,0,0,1,.15.62,10.2,10.2,0,0,1-.48,5.36l-.67,1.88a10.54,10.54,0,0,1-7.41,6l-4.8.3c-5.89-.73-10.5-3.51-12.35-9.26-.88-2.73-2.21-3.82-4.76-4.05-.17,0-.33-.08-.5-.1-5.11-.7-9.83-.3-14,3.49-3.29,3-7.06,5.57-12.23,4.91.31.43.45.64.61.83,4,4.57,9.06,6.5,15,6.72a5.77,5.77,0,0,1,2.89,1,50.14,50.14,0,0,0,14.71,6.54h0l.42.09c.38.09.76.2,1.14.28h.16l1.6.35,0,0c.19,0,.38,0,.57.09l1.94.42.11-.14a28.53,28.53,0,0,0,14.88-1.9c5.26-2.29,10.38-5,15.45-7.67a25.81,25.81,0,0,1,16.77-3.14c2,.33,4.11.63,6.17.94l.21-.39C1005.4,515.16,1003.6,513.05,1001.67,511.08Z"/><path class="s2d5-asset4_19" d="M939.9,515.65c7.14,5.09,16.37,7.47,24.87,5.37,8.82-2.17,16.43-9.56,17.79-18.55"/><path class="s2d5-asset4_19" d="M934.39,509.83a11.37,11.37,0,0,0,2,2.88"/><path class="s2d5-asset4_19" d="M951.84,500.08c-.66-3.28,1.72-6.52,4.69-7.61a17,17,0,0,1,9.39-.29,14.84,14.84,0,0,1,5.12,2,11.66,11.66,0,0,1,3.54,3.82,14.37,14.37,0,0,1,2,7.85s.07,8.23-5.29,12.51"/><path class="s2d5-asset4_19" d="M995,510.86c1.12.35,2.21.75,3.25,1.18"/><path class="s2d5-asset4_19" d="M975.18,515.52c6.51-4.94,11.06-6.43,16-5.59"/><path class="s2d5-asset4_6" d="M921.44,485.9a43.66,43.66,0,0,0-10.76-6.53h0l-1.55-.79a12.46,12.46,0,0,1-4.53-4.2,5.62,5.62,0,0,0-2.85-2.2,10.83,10.83,0,0,0-6.59-.13,12.2,12.2,0,0,0-6,3.7,6.3,6.3,0,0,0-1.52,6.54c.4,1.22.83,2.44,1.29,3.64a6.65,6.65,0,0,0,5.5,4.48,6.11,6.11,0,0,0,5.69-2c3.55-4.24-.86-7.92-3.61-7.49-1.65.26-2.23,1.61-1.21,2.93.23.29.51.53.76.8a.86.86,0,0,1-.07,1.27,1,1,0,0,1-1,0,6.07,6.07,0,0,1-2.32-3.73,1.93,1.93,0,0,1,1.29-2.27,11.52,11.52,0,0,1,3.09-.48,5.8,5.8,0,0,1,5.68,3.61,3.88,3.88,0,0,1,.14.45,6.22,6.22,0,0,1-.06,3.26l-.32,1.17a6.5,6.5,0,0,1-4.27,4l-2.94.41c-3.65-.17-6.62-1.66-8-5.11a3,3,0,0,0-3.12-2.26c-.1,0-.21,0-.31,0-3.18-.19-6.06.28-8.42,2.81-1.88,2-4.07,3.76-7.28,3.59a5.93,5.93,0,0,0,.41.48,12.1,12.1,0,0,0,9.45,3.43,3.68,3.68,0,0,1,1.87.43,31,31,0,0,0,9.39,3.34h0l.27,0,.71.12h.1l1,.14,0,0,.35,0,1.21.17.06-.09a17.72,17.72,0,0,0,9.06-1.87c3.13-1.66,6.15-3.54,9.14-5.45a15.9,15.9,0,0,1,10.16-2.72l3.83.28.11-.25C923.93,488.23,922.72,487,921.44,485.9Z"/><path class="s2d5-asset4_20" d="M883.68,491.63a19.07,19.07,0,0,0,15.55,2.13c5.32-1.75,9.64-6.66,10-12.25"/><path class="s2d5-asset4_20" d="M880,488.32A6.91,6.91,0,0,0,881.4,490"/><path class="s2d5-asset4_20" d="M890.28,481.49a4.35,4.35,0,0,1,2.53-4.89,10.45,10.45,0,0,1,5.76-.63,9.31,9.31,0,0,1,3.24,1,7.14,7.14,0,0,1,2.36,2.18,8.83,8.83,0,0,1,1.6,4.73s.43,5.06-2.66,7.94"/><path class="s2d5-asset4_20" d="M917.32,486.08c.71.16,1.4.36,2.06.57"/><path class="s2d5-asset4_20" d="M905.37,489.88c3.76-3.34,6.49-4.48,9.57-4.19"/><path class="s2d5-asset4_7" d="M900.32,422.94c-24.46,0-47.2-3.1-64-5.83l1.86-11.48c37.44,6.08,66,7.26,92.44,3.84,33-4.28,61.68-16.27,82.85-34.68,24.37-21.2,27.94-44.66,23.59-58.31-1.78-5.6-4.9-9.74-8.56-11.37a15.4,15.4,0,0,0-8.71-.71c-7.33,1.3-13.72,6.63-15.56,13s1.41,14,6.94,16.33a8.32,8.32,0,0,0,8.76-1.13,5.5,5.5,0,0,0,1.92-4.48c-.31-2.69-3.79-4.57-5.84-5.45l4.57-10.68c10.18,4.36,12.4,11.14,12.82,14.8a17,17,0,0,1-6.59,15.17,19.83,19.83,0,0,1-20.2,2.46c-10.94-4.67-17-18.24-13.54-30.25,3.06-10.61,13-19.12,24.69-21.19a26.55,26.55,0,0,1,15.47,1.53c6.78,3,12.08,9.58,14.9,18.46,3.87,12.12,2.77,25.63-3.17,39.06-5,11.31-13.47,22.51-23.86,31.55-22.9,19.92-53.67,32.87-89,37.43A247.07,247.07,0,0,1,900.32,422.94Z"/><path class="s2d5-asset4_7" d="M1059.33,378.31l11.85-4.9a115,115,0,0,0,11.29-5.14,32.52,32.52,0,0,0,9.12-6.94,17.85,17.85,0,0,0,4.35-9.61,11.85,11.85,0,0,0-2.43-9.4,8.31,8.31,0,0,0-8.29-2.79,6.48,6.48,0,0,0-3.46,2.51,5.14,5.14,0,0,0-.84,1.89l-.06.24,0,.2,0,.09v.18a8.08,8.08,0,0,0,.19,1.13c.75,3.15,3.29,5.33,6.87,6.05l-1,5.29a15.29,15.29,0,0,1-7-3.13,13.26,13.26,0,0,1-4.35-6.74,12.77,12.77,0,0,1-.4-2c0-.17,0-.38,0-.57v-.46l0-.3.06-.6.1-.54a11,11,0,0,1,1.62-4,12.51,12.51,0,0,1,6.56-5.09,13.54,13.54,0,0,1,8.19,0,15,15,0,0,1,6.77,4.25,16.64,16.64,0,0,1,3.83,6.92,20.81,20.81,0,0,1,.62,7.58,24.88,24.88,0,0,1-3.49,10.54,24.43,24.43,0,0,1-2.17,3,40,40,0,0,1-10.89,8.87,122.79,122.79,0,0,1-11.88,5.84L1062.63,386Z"/><path class="s2d5-asset4_7" d="M455.56,504.64c-10.66,0-20.39-.62-28.35-1.28l.71-8.53c27.82,2.29,48.81,1.5,68.05-2.55,24-5,44.31-15.52,58.78-30.26,10.4-10.6,20.29-28.53,13.92-44.15-1.63-4-4.16-6.86-6.94-7.84a11.26,11.26,0,0,0-6.44,0c-5.29,1.38-9.68,5.66-10.65,10.42s1.84,10.17,6,11.59a6.13,6.13,0,0,0,6.37-1.35,4,4,0,0,0,1.15-3.39c-.39-2-3.05-3.13-4.61-3.66l2.74-8.1c7.72,2.6,9.74,7.45,10.26,10.11a12.5,12.5,0,0,1-4,11.52,14.62,14.62,0,0,1-14.68,3c-8.3-2.8-13.54-12.4-11.7-21.42,1.64-8,8.43-14.78,16.89-17a19.52,19.52,0,0,1,11.44.23c5.16,1.82,9.42,6.32,12,12.68,3.54,8.67,3.52,18.64-.06,28.84A68.47,68.47,0,0,1,560.85,468c-15.64,16-37.47,27.23-63.12,32.63A205.75,205.75,0,0,1,455.56,504.64Z"/><path class="s2d5-asset4_7" d="M588.62,462l8.41-4.29a87.64,87.64,0,0,0,8-4.42,24.23,24.23,0,0,0,6.28-5.63,13.2,13.2,0,0,0,2.64-7.3,8.74,8.74,0,0,0-2.33-6.76,6.14,6.14,0,0,0-6.25-1.57,4.83,4.83,0,0,0-2.39,2,4,4,0,0,0-.51,1.43,2.23,2.23,0,0,0,0,.33v0l0,.17a5.5,5.5,0,0,0,.21.82,6.07,6.07,0,0,0,5.39,4l-.46,3.95a11.28,11.28,0,0,1-5.35-1.9,9.75,9.75,0,0,1-3.59-4.69,9.05,9.05,0,0,1-.4-1.45c0-.13-.05-.28-.07-.42l0-.22v-.33a7.34,7.34,0,0,1,0-.85,8.28,8.28,0,0,1,1-3,9.24,9.24,0,0,1,4.52-4.11,10,10,0,0,1,6-.47,11.11,11.11,0,0,1,5.22,2.73,12.45,12.45,0,0,1,3.21,4.86,15.28,15.28,0,0,1,.89,5.52,18.34,18.34,0,0,1-3.37,10.29,29.58,29.58,0,0,1-7.47,7.15,92,92,0,0,1-8.38,5l-8.28,4.53Z"/><path class="s2d5-asset4_7" d="M279.2,579.07l5.14-7.92a84.36,84.36,0,0,0,4.71-7.81,24,24,0,0,0,2.64-8,13.13,13.13,0,0,0-1.36-7.64,8.74,8.74,0,0,0-5.39-4.7,6.13,6.13,0,0,0-6.2,1.77,4.83,4.83,0,0,0-1.05,3,4,4,0,0,0,.28,1.5,2.23,2.23,0,0,0,.13.3l0,.06v0l0-.06.11.13a6.52,6.52,0,0,0,.58.61,6.07,6.07,0,0,0,6.69.81l1.58,3.64a11.3,11.3,0,0,1-5.59,1A9.69,9.69,0,0,1,276,553.5a9.05,9.05,0,0,1-1.09-1.06c-.08-.09-.18-.21-.26-.32l-.13-.18-.06-.1-.11-.19a5.38,5.38,0,0,1-.38-.76,8.09,8.09,0,0,1-.68-3.1,9.18,9.18,0,0,1,1.86-5.82,10,10,0,0,1,5-3.41,11,11,0,0,1,5.89-.23,12.29,12.29,0,0,1,5.2,2.6,15.6,15.6,0,0,1,3.54,4.34,18.36,18.36,0,0,1,2.21,10.6,29.49,29.49,0,0,1-2.91,9.92,90.18,90.18,0,0,1-4.77,8.49l-4.92,8.06Z"/><path class="s2d5-asset4_7" d="M355,555.6l7.9-5.17a84.67,84.67,0,0,1,7.8-4.74,24.13,24.13,0,0,1,8-2.67,13.09,13.09,0,0,1,7.65,1.34,8.74,8.74,0,0,1,4.72,5.37,6.15,6.15,0,0,1-1.75,6.21,4.8,4.8,0,0,1-3,1.06,3.92,3.92,0,0,1-1.5-.27l-.29-.13-.07,0,0,0,.06,0-.14-.1a5.42,5.42,0,0,1-.6-.58,6.07,6.07,0,0,1-.84-6.69l-3.65-1.56a11.16,11.16,0,0,0-1,5.58,9.67,9.67,0,0,0,2.29,5.44,9,9,0,0,0,1.06,1.08,3.19,3.19,0,0,0,.33.27l.18.13.09.05.2.11a5.38,5.38,0,0,0,.76.38,8.23,8.23,0,0,0,3.1.67,9.21,9.21,0,0,0,5.81-1.88,9.92,9.92,0,0,0,3.39-5,11,11,0,0,0,.22-5.88,12.17,12.17,0,0,0-2.62-5.19,15.47,15.47,0,0,0-4.36-3.53,18.44,18.44,0,0,0-10.6-2.18,29.7,29.7,0,0,0-9.92,2.95,92.52,92.52,0,0,0-8.47,4.8l-8,4.95Z"/><path class="s2d5-asset4_7" d="M582.18,538s-65.34,25.08-136.07-7.18c-63.24-28.84-106.91,13-137.5,55.58l-19.5-1.5s58.23-114.65,153.31-88.58c93,25.5,138.16,2.48,214.09-46.51"/><path class="s2d5-asset4_12" d="M928.37,592.07c-5.12-1.1-10.3-3-13.91-6.73,13,5.3,27.43,2.24,40.93,1,2.71-.26,17.19-2.38,17.1,1.37-.09,4-16.2,5-19.28,5.37A77.57,77.57,0,0,1,928.37,592.07Z"/><path class="s2d5-asset4_12" d="M1374.48,349.66c-4.33-2.92-8.45-6.58-10.38-11.43,10.12,9.79,24.61,12.32,37.61,16.17,2.61.77,16.84,4.21,15.35,7.66-1.57,3.63-16.91-1.39-19.89-2.22A77.79,77.79,0,0,1,1374.48,349.66Z"/><path class="s2d5-asset4_12" d="M881.73,619.06c-4.1-3.24-7.94-7.19-9.51-12.18,9.37,10.51,23.63,14.11,36.32,18.9,2.55,1,16.48,5.44,14.75,8.77-1.83,3.51-16.76-2.62-19.68-3.68A77.9,77.9,0,0,1,881.73,619.06Z"/><path class="s2d5-asset4_12" d="M964.15,642.35c-7.39.25-15.14-.51-21.39-4.46,19.72,2.8,38.41-6.36,56.48-12.77,3.64-1.29,22.77-9.19,23.94-4,1.23,5.46-20.49,12.48-24.6,14A110,110,0,0,1,964.15,642.35Z"/><path class="s2d5-asset4_8" d="M1195.81,624.19c-7-2.33-14-5.73-18.5-11.6,17.51,9.46,38.22,7.36,57.39,7.62,3.86,0,24.55-.72,23.84,4.55-.75,5.56-23.55,4.6-27.94,4.6A109.71,109.71,0,0,1,1195.81,624.19Z"/><path class="s2d5-asset4_12" d="M1201.11,659.87c-5.76-4.64-11.12-10.28-13.26-17.36,13.08,15,33.21,20.29,51.08,27.25,3.59,1.4,23.24,7.92,20.73,12.61-2.65,4.94-23.67-3.94-27.78-5.48A109.79,109.79,0,0,1,1201.11,659.87Z"/><path class="s2d5-asset4_12" d="M1106.16,661.19c-3.92-3.06-7.59-6.79-9.1-11.52,9,9.94,22.54,13.26,34.62,17.74,2.43.9,15.7,5.06,14.06,8.24-1.72,3.35-15.94-2.38-18.72-3.37A73.69,73.69,0,0,1,1106.16,661.19Z"/><path class="s2d5-asset4_12" d="M1429.42,301.87c-4.82-1.21-9.68-3.15-13-6.87,12.2,5.48,26,3.06,38.84,2.29,2.58-.15,16.41-1.69,16.19,1.88-.23,3.76-15.56,4.24-18.5,4.46A73.79,73.79,0,0,1,1429.42,301.87Z"/><path class="s2d5-asset4_8" d="M1476.57,344.56c-3.34-3.68-6.32-8-7-12.89,7.14,11.31,20,16.9,31.1,23.37,2.24,1.3,14.61,7.66,12.46,10.51-2.27,3-15.31-5.06-17.88-6.5A73.93,73.93,0,0,1,1476.57,344.56Z"/><path class="s2d5-asset4_8" d="M1360.36,695.34c-4.95-.38-10.07-1.47-13.94-4.58,12.95,3.34,26.12-1.37,38.66-4.3,2.53-.59,15.9-4.43,16.29-.88.41,3.75-14.62,6.8-17.48,7.52A73.78,73.78,0,0,1,1360.36,695.34Z"/><path class="s2d5-asset4_12" d="M819.13,512.26c-4.26.31-8.74,0-12.44-2.1,11.44,1.18,22-4.51,32.3-8.6,2.07-.83,12.94-5.81,13.72-2.84.83,3.13-11.54,7.65-13.88,8.62A63.37,63.37,0,0,1,819.13,512.26Z"/><path class="s2d5-asset4_12" d="M945.24,417.15c-4,1.13-8.35,1.76-12.29.44,11.15-1.12,20.15-8.65,29.17-14.59,1.81-1.19,11.22-8.09,12.55-5.41s-9.54,9.59-11.58,11A62.32,62.32,0,0,1,945.24,417.15Z"/><path class="s2d5-asset4_12" d="M849.94,540.78c-3.87-1.55-7.69-3.71-10-7.17,9.53,5.93,21.25,5.47,32,6.29,2.16.16,13.83.44,13.25,3.38-.61,3.1-13.41,1.77-15.88,1.62A62,62,0,0,1,849.94,540.78Z"/><path class="s2d5-asset4_12" d="M1309,622.46c-4-1-8.15-2.5-11-5.57,10.31,4.42,21.8,2.19,32.56,1.35,2.16-.16,13.72-1.65,13.59,1.34-.13,3.16-13,3.78-15.42,4A61.61,61.61,0,0,1,1309,622.46Z"/><path class="s2d5-asset4_12" d="M1246.13,416.16c-4-1.29-7.91-3.19-10.45-6.49,9.88,5.28,21.53,4,32.32,4.13,2.17,0,13.8-.47,13.42,2.5-.4,3.13-13.23,2.66-15.7,2.67A61.62,61.62,0,0,1,1246.13,416.16Z"/><path class="s2d5-asset4_12" d="M1310.75,273c-4.16.12-8.52-.35-12-2.6,11.08,1.66,21.63-3.42,31.82-7,2-.72,12.85-5.09,13.48-2.16s-11.57,6.95-13.89,7.79A61.38,61.38,0,0,1,1310.75,273Z"/><path class="s2d5-asset4_12" d="M1443.63,365.49c-1.23-4-2-8.31-.73-12.3,1.39,11.14,9.13,19.93,15.28,28.8,1.24,1.79,8.36,11,5.71,12.42s-9.81-9.28-11.25-11.29A61.65,61.65,0,0,1,1443.63,365.49Z"/><path class="s2d5-asset4_12" d="M1358.73,301c-4.14-.54-8.37-1.68-11.49-4.46,10.71,3.38,21.93,0,32.57-1.89,2.14-.38,13.49-3,13.67,0s-12.53,5-15,5.52A61.76,61.76,0,0,1,1358.73,301Z"/><path class="s2d5-asset4_8" d="M913.09,542.05c-3.8-1.72-7.52-4-9.7-7.59,9.27,6.33,21,6.36,31.73,7.63,2.16.26,13.8,1,13.1,3.95-.74,3.07-13.47,1.2-15.93.94A62.18,62.18,0,0,1,913.09,542.05Z"/><path class="s2d5-asset4_12" d="M762.92,455.28c-3.6-.34-7.32-1.18-10.11-3.49,9.4,2.57,19.05-.72,28.22-2.72,1.85-.4,11.63-3.06,11.88-.47s-10.73,4.8-12.82,5.29A53.93,53.93,0,0,1,762.92,455.28Z"/><path class="s2d5-asset4_12" d="M870.49,438.27c-3.61-.33-7.33-1.18-10.12-3.48,9.41,2.57,19-.72,28.22-2.72,1.85-.4,11.63-3.06,11.88-.47s-10.72,4.8-12.82,5.29A53.6,53.6,0,0,1,870.49,438.27Z"/><path class="s2d5-asset4_12" d="M797.35,460c-3.61-.33-7.33-1.18-10.12-3.48,9.41,2.57,19-.72,28.23-2.72,1.84-.4,11.62-3.06,11.87-.47s-10.72,4.8-12.81,5.29A54,54,0,0,1,797.35,460Z"/><path class="s2d5-asset4_12" d="M711.5,521.71c-3.76.48-7.75.46-11.12-1.25,10.18.48,19.27-5.07,28.18-9.2,1.79-.83,11.17-5.76,12-3.17s-9.85,7.32-11.87,8.3A56.54,56.54,0,0,1,711.5,521.71Z"/><path class="s2d5-asset4_12" d="M669.93,520.46c-3.28.37-6.75.31-9.65-1.23,8.86.54,16.89-4.2,24.73-7.71,1.58-.7,9.85-4.91,10.53-2.63S686.81,515.18,685,516A49.31,49.31,0,0,1,669.93,520.46Z"/><path class="s2d5-asset4_12" d="M630.72,527.55a13.63,13.63,0,0,1-8,.12c7.3-.58,13.31-5.39,19.31-9.16,1.21-.76,7.48-5.15,8.29-3.37s-6.4,6.15-7.77,7A40.45,40.45,0,0,1,630.72,527.55Z"/><path class="s2d5-asset4_21" d="M625.62,507.34a10,10,0,0,1-5.52,1.88c4.91-2,8-6.71,11.29-10.66.66-.79,4-5.23,5-4.19s-3.05,5.69-3.79,6.6A29.85,29.85,0,0,1,625.62,507.34Z"/><path class="s2d5-asset4_12" d="M576.52,524.08a6.9,6.9,0,0,1-4-.7c3.67.4,7.11-1.41,10.44-2.71.67-.26,4.19-1.85,4.43-.89s-3.76,2.44-4.52,2.75A20.58,20.58,0,0,1,576.52,524.08Z"/><path class="s2d5-asset4_21" d="M574.72,508.82a8.35,8.35,0,0,1-4.81-1.29c4.46.89,8.87-1,13.1-2.2.86-.25,5.35-1.81,5.53-.61s-4.88,2.59-5.84,2.89A25.5,25.5,0,0,1,574.72,508.82Z"/><path class="s2d5-asset4_21" d="M537,513.05a8.46,8.46,0,0,1-5,0c4.53-.33,8.29-3.29,12-5.61.76-.46,4.68-3.16,5.17-2.06s-4,3.8-4.87,4.34A25.21,25.21,0,0,1,537,513.05Z"/><path class="s2d5-asset4_12" d="M615.23,477a8.5,8.5,0,0,1-4,2.95c3.47-2.93,4.77-7.53,6.45-11.61.33-.82,1.92-5.31,3-4.7s-1,5.43-1.39,6.37A25.45,25.45,0,0,1,615.23,477Z"/><path class="s2d5-asset4_12" d="M612.68,492.81a8.38,8.38,0,0,1-4.45,2.2c3.92-2.27,6-6.58,8.38-10.3.48-.75,2.82-4.89,3.75-4.1s-2,5.16-2.49,6A25.5,25.5,0,0,1,612.68,492.81Z"/><path class="s2d5-asset4_12" d="M667.2,491.62a10.43,10.43,0,0,1-6.13.52c5.55-.84,9.91-4.87,14.32-8.09.89-.65,5.46-4.37,6.17-3.05s-4.59,5.08-5.59,5.84A31.32,31.32,0,0,1,667.2,491.62Z"/><path class="s2d5-asset4_12" d="M691.55,469.74a12.85,12.85,0,0,1-7.56.63c6.85-1,12.23-6,17.67-10,1.09-.8,6.75-5.38,7.62-3.75s-5.68,6.27-6.91,7.19A38.73,38.73,0,0,1,691.55,469.74Z"/><path class="s2d5-asset4_12" d="M723.93,430.27a12.75,12.75,0,0,1-7.48,1.29c6.73-1.62,11.66-7,16.73-11.46,1-.89,6.26-6,7.27-4.4s-5.11,6.74-6.26,7.77A38.74,38.74,0,0,1,723.93,430.27Z"/><path class="s2d5-asset4_12" d="M823.05,405.29A12.81,12.81,0,0,1,815.6,404c6.86.76,13.34-2.66,19.6-5.1,1.26-.5,7.89-3.48,8.31-1.68s-7.09,4.6-8.51,5.18A38.82,38.82,0,0,1,823.05,405.29Z"/><path class="s2d5-asset4_12" d="M943.66,455.88c-3.34.12-6.88-.28-9.8-2.31,9,1.46,17.28-3.21,25.33-6.48,1.62-.66,10.12-4.68,10.77-2s-9,6.37-10.84,7.15A43.51,43.51,0,0,1,943.66,455.88Z"/><path class="s2d5-asset4_12" d="M1070.07,427c-3.27.75-6.82,1-10.07-.42,9.12-.27,16.37-6.41,23.66-11.13,1.47-1,9.06-6.5,10.2-4s-7.65,7.95-9.3,9.06A43.72,43.72,0,0,1,1070.07,427Z"/><path class="s2d5-asset4_20" d="M1350.09,589.94c-2.89,1.7-6.19,3-9.74,2.66,8.62-3,13.65-11.09,19.16-17.81,1.11-1.35,6.65-9,8.5-6.93s-4.86,9.9-6.1,11.46A43.57,43.57,0,0,1,1350.09,589.94Z"/><path class="s2d5-asset4_20" d="M1463.68,518.22c-2,2.65-4.63,5.11-8.07,6.06,6.9-6,8.62-15.34,11.27-23.62.54-1.66,2.89-10.77,5.36-9.57s-.88,11-1.46,12.91A43.55,43.55,0,0,1,1463.68,518.22Z"/><path class="s2d5-asset4_20" d="M1430.61,403.82c-1.77-2.85-3.18-6.12-2.86-9.68,3.2,8.56,11.36,13.42,18.19,18.8,1.38,1.08,9.09,6.47,7.11,8.36s-10-4.66-11.59-5.87A43.62,43.62,0,0,1,1430.61,403.82Z"/><path class="s2d5-asset4_12" d="M1110.49,442.18c-3.35.05-6.88-.42-9.77-2.51,9,1.64,17.34-2.87,25.46-6,1.63-.63,10.21-4.49,10.81-1.81s-9.13,6.2-11,6.94A43.47,43.47,0,0,1,1110.49,442.18Z"/><path class="s2d5-asset4_12" d="M775.52,418a12.77,12.77,0,0,1-7.56.23c6.88-.66,12.52-5.31,18.16-9,1.14-.74,7-5,7.81-3.33s-6,5.94-7.29,6.8A38.76,38.76,0,0,1,775.52,418Z"/><path class="s2d5-asset4_12" d="M794.65,423a12.9,12.9,0,0,1-7.5-1.3c6.91.74,13.4-2.69,19.69-5.14,1.27-.5,7.92-3.49,8.35-1.69s-7.1,4.61-8.53,5.19A38.8,38.8,0,0,1,794.65,423Z"/><path class="s2d5-asset4_12" d="M728.54,451.26c-3.11.07-6.35-.28-8.92-2,8.24,1.26,16.21-2.52,23.89-5.15,1.54-.53,9.68-3.78,10.1-1.59s-8.78,5.18-10.52,5.8A46.44,46.44,0,0,1,728.54,451.26Z"/><path class="s2d5-asset4_12" d="M722.45,487.13a12.89,12.89,0,0,1-7.2-2.41c6.7,1.76,13.61-.66,20.17-2.16,1.32-.3,8.33-2.27,8.49-.43s-7.7,3.51-9.19,3.87A38.83,38.83,0,0,1,722.45,487.13Z"/><path class="s2d5-asset4_12" d="M690.86,489.65a10.29,10.29,0,0,1-6.08-.45c5.57.05,10.52-3.22,15.37-5.69,1-.5,6.08-3.43,6.55-2s-5.35,4.27-6.45,4.86A31.38,31.38,0,0,1,690.86,489.65Z"/><path class="s2d5-asset4_12" d="M1263.07,600.56c-5.34-.4-10.84-1.55-14.92-4.89,13.89,3.56,28.27-1.57,41.93-4.77,2.74-.64,17.31-4.83,17.62-1,.33,4-16,7.38-19.13,8.16A80.86,80.86,0,0,1,1263.07,600.56Z"/><path class="s2d5-asset4_12" d="M629.17,470.09a10.47,10.47,0,0,1-4.25,4.46c3.61-4.31,4.22-10.22,5.39-15.56.24-1.07,1.22-6.89,2.63-6.37s-.1,6.85-.35,8.08A31.32,31.32,0,0,1,629.17,470.09Z"/><path class="s2d5-asset4_12" d="M613.22,505.6a8.41,8.41,0,0,1-4.66,1.68c4.14-1.81,6.7-5.85,9.45-9.28.55-.69,3.34-4.54,4.17-3.66s-2.52,4.91-3.14,5.71A25.14,25.14,0,0,1,613.22,505.6Z"/><path class="s2d5-asset4_12" d="M644.17,498.47a8.28,8.28,0,0,1-4.51,2c4-2.09,6.27-6.29,8.78-9.9.51-.73,3-4.76,3.9-3.93s-2.18,5.07-2.74,5.9A25.15,25.15,0,0,1,644.17,498.47Z"/><path class="s2d5-asset4_12" d="M643.5,453.78a8.31,8.31,0,0,1-3.42,3.57c2.9-3.45,3.4-8.2,4.34-12.48.19-.86,1-5.53,2.11-5.11s-.07,5.5-.28,6.49A25.13,25.13,0,0,1,643.5,453.78Z"/><path class="s2d5-asset4_12" d="M651.41,458.61a13.17,13.17,0,0,1-5.63,4.12c5-4.08,7.46-10.5,10.34-16.18.58-1.14,3.43-7.39,4.65-6.55s-2.31,7.57-3,8.87A43.28,43.28,0,0,1,651.41,458.61Z"/><path class="s2d5-asset4_12" d="M659.22,465.81a8.33,8.33,0,0,1-4.49,2.07c4-2.15,6.18-6.39,8.63-10,.5-.73,2.95-4.8,3.84-4s-2.1,5.11-2.65,5.95A25.09,25.09,0,0,1,659.22,465.81Z"/><path class="s2d5-asset4_12" d="M680.66,441.7a12.21,12.21,0,0,1-5.12,4.22c4.47-4.15,6.42-10.42,8.79-16,.47-1.12,2.76-7.25,4-6.5s-1.67,7.36-2.2,8.64A40.33,40.33,0,0,1,680.66,441.7Z"/><path class="s2d5-asset4_12" d="M701,437a10.08,10.08,0,0,1-5.6,1.9c5-2.06,8.15-6.82,11.53-10.85.68-.81,4.11-5.33,5.07-4.26s-3.15,5.81-3.91,6.74A30.27,30.27,0,0,1,701,437Z"/><path class="s2d5-asset4_12" d="M753,418.7a10,10,0,0,1-5.86.68c5.3-1,9.38-5,13.52-8.2.84-.66,5.13-4.37,5.85-3.12s-4.28,5-5.22,5.78A30.65,30.65,0,0,1,753,418.7Z"/><path class="s2d5-asset4_8" d="M1281,386.41c-4.88-1.88-9.72-4.51-12.69-8.81,12.06,7.26,26.75,6.47,40.28,7.29,2.72.17,17.36.32,16.69,4-.72,3.89-16.79,2.46-19.89,2.31A77.84,77.84,0,0,1,1281,386.41Z"/><path class="s2d5-asset4_8" d="M1390.42,597.58c-4.52,2.62-9.61,4.73-14.82,4.35,13.22-4.83,21.81-16.77,30.94-26.79,1.84-2,11.13-13.33,13.58-10.48s-8.61,14.61-10.66,16.93A77.88,77.88,0,0,1,1390.42,597.58Z"/><path class="s2d5-asset4_8" d="M1468.26,561.44c-3.5,3.89-7.68,7.46-12.75,8.71,11.08-8.67,15.58-22.68,21.18-35,1.12-2.49,6.48-16.1,9.69-14.16,3.38,2.06-3.69,16.56-4.93,19.4A77.76,77.76,0,0,1,1468.26,561.44Z"/><path class="s2d5-asset4_8" d="M1125.76,414.78c-5.22.21-10.7-.3-15.13-3.07,13.94,1.9,27.12-4.63,39.88-9.22,2.57-.92,16.07-6.57,16.91-2.91.88,3.86-14.45,8.89-17.35,10A77.76,77.76,0,0,1,1125.76,414.78Z"/><path class="s2d5-asset4_8" d="M1053.75,608.45c-5.16.88-10.66,1.07-15.41-1.1,14.08.09,26.31-8.08,38.37-14.27,2.42-1.25,15.08-8.59,16.39-5.06,1.38,3.71-13.18,10.67-15.92,12.13A77.66,77.66,0,0,1,1053.75,608.45Z"/><path class="s2d5-asset4_8" d="M819,556.09c-4.11-2.27-8.09-5.12-10.21-8.94,9.84,7.64,23,9.51,34.91,12.43,2.4.58,15.39,3.16,14.34,5.9s-15.21-.93-17.94-1.57A81.37,81.37,0,0,1,819,556.09Z"/><path class="s2d5-asset4_8" d="M896.52,418.48c-4.16.16-8.52-.26-12-2.47,11.1,1.53,21.61-3.66,31.78-7.3,2-.73,12.81-5.22,13.47-2.3s-11.53,7.06-13.84,7.93A62,62,0,0,1,896.52,418.48Z"/><path class="s2d5-asset4_8" d="M595.43,525.29a9.86,9.86,0,0,1-5.82-.16c5.31-.2,9.82-3.5,14.29-6,.9-.52,5.58-3.51,6.12-2.2s-4.84,4.27-5.85,4.87A30,30,0,0,1,595.43,525.29Z"/><path class="s2d5-asset4_8" d="M562.39,519.2a6.65,6.65,0,0,1-3.8-1c3.52.66,7-.83,10.28-1.84.66-.2,4.18-1.47,4.34-.53s-3.81,2.08-4.56,2.32A19.64,19.64,0,0,1,562.39,519.2Z"/><path class="s2d5-asset4_8" d="M579.74,498.76a6.75,6.75,0,0,1-3.92.2c3.55-.42,6.4-2.87,9.26-4.81.58-.4,3.56-2.65,4-1.8s-3,3.12-3.66,3.57A20,20,0,0,1,579.74,498.76Z"/><path class="s2d5-asset4_8" d="M662.38,481.36a10.45,10.45,0,0,1-5.89,1.77c5.26-2,8.7-6.8,12.35-10.86.73-.82,4.45-5.4,5.42-4.25s-3.46,5.92-4.28,6.86A31.61,31.61,0,0,1,662.38,481.36Z"/><path class="s2d5-asset4_8" d="M1321.94,331.34c-3.35.09-6.89-.34-9.8-2.4,9,1.53,17.32-3.07,25.4-6.26,1.63-.65,10.16-4.6,10.8-1.93s-9.07,6.29-10.9,7.06A43.87,43.87,0,0,1,1321.94,331.34Z"/><path class="s2d5-asset4_8" d="M1437.75,450.14c-.23-3.34,0-6.89,2-9.9-1.16,9.07,3.78,17.18,7.31,25.13.71,1.59,5,10,2.38,10.7s-6.67-8.79-7.51-10.59A43.67,43.67,0,0,1,1437.75,450.14Z"/><path class="s2d5-asset4_8" d="M746.88,472.68a12.87,12.87,0,0,1-7.4-1.72c6.84,1.12,13.5-1.94,19.91-4,1.29-.43,8.08-3,8.41-1.22s-7.34,4.21-8.79,4.71A38.86,38.86,0,0,1,746.88,472.68Z"/><path class="s2d5-asset4_8" d="M815.19,436.66c-3.58-.69-7.21-1.9-9.75-4.47,9.14,3.49,19.2,1.16,28.63.07,1.9-.22,12-1.9,12,.7,0,2.75-11.31,3.73-13.47,4A55.06,55.06,0,0,1,815.19,436.66Z"/><path class="s2d5-asset4_8" d="M722,415.75a10,10,0,0,1-5.59,1.9c5-2.06,8.14-6.82,11.52-10.85.68-.81,4.12-5.33,5.07-4.26s-3.14,5.81-3.9,6.74A30.12,30.12,0,0,1,722,415.75Z"/><path class="s2d5-asset4_12" d="M696.72,424.4a8.45,8.45,0,0,1-4,2.88c3.49-2.87,4.84-7.44,6.56-11.48.34-.81,2-5.27,3-4.64s-1.08,5.4-1.46,6.33A25.48,25.48,0,0,1,696.72,424.4Z"/><path class="s2d5-asset4_22" d="M1118.08,384.2c-4.51,2.66-9.57,4.81-14.78,4.48,13.17-4.94,21.68-16.95,30.73-27,1.82-2,11-13.41,13.5-10.58s-8.5,14.67-10.53,17A77.72,77.72,0,0,1,1118.08,384.2Z"/><path class="s2d5-asset4_22" d="M1264.79,657.17c-7-2.24-14.08-5.56-18.64-11.39,17.63,9.26,38.31,6.92,57.48,7,3.86,0,24.53-1,23.89,4.28-.68,5.56-23.5,4.87-27.88,4.92A109.88,109.88,0,0,1,1264.79,657.17Z"/><path class="s2d5-asset4_22" d="M995.79,417c-7.28,1.28-15.06,1.62-21.8-1.42,19.91,0,37.13-11.69,54.12-20.57,3.42-1.79,21.25-12.3,23.13-7.33,2,5.24-18.53,15.24-22.39,17.33A110,110,0,0,1,995.79,417Z"/><path class="s2d5-asset4_22" d="M855.94,524.47c-4.12-.61-8.34-1.81-11.41-4.62,10.65,3.53,21.93.33,32.6-1.41,2.15-.35,13.55-2.81,13.68.19s-12.62,4.86-15,5.29A62.19,62.19,0,0,1,855.94,524.47Z"/><path class="s2d5-asset4_22" d="M754.8,520.8c-4.07-.91-8.19-2.42-11-5.47,10.37,4.33,21.86,2,32.63,1,2.16-.19,13.72-1.79,13.63,1.21-.1,3.16-12.95,3.91-15.41,4.16A61.89,61.89,0,0,1,754.8,520.8Z"/><path class="s2d5-asset4_22" d="M885,563.27c-3.74-1.82-7.39-4.25-9.45-7.86,9.06,6.59,20.77,7,31.45,8.55,2.15.31,13.74,1.43,13,4.32-.83,3.05-13.48.81-15.93.48A61.91,61.91,0,0,1,885,563.27Z"/><path class="s2d5-asset4_22" d="M925.37,615.41c-4-1.22-8-3-10.56-6.31,10,5.12,21.59,3.68,32.38,3.59,2.18,0,13.8-.7,13.47,2.28-.35,3.14-13.19,2.88-15.66,2.93A61.51,61.51,0,0,1,925.37,615.41Z"/><path class="s2d5-asset4_22" d="M1041,642.24c-4.14-.36-8.41-1.31-11.63-3.94,10.81,2.9,21.87-.95,32.4-3.31,2.11-.47,13.33-3.59,13.63-.61.32,3.14-12.29,5.59-14.69,6.16A61.74,61.74,0,0,1,1041,642.24Z"/><path class="s2d5-asset4_22" d="M1115.69,604.19c-4-1.16-8-2.93-10.65-6.15,10,5,21.64,3.35,32.43,3.1,2.17-.06,13.79-.92,13.5,2.06-.3,3.15-13.14,3.08-15.61,3.18A61.85,61.85,0,0,1,1115.69,604.19Z"/><path class="s2d5-asset4_22" d="M1286.29,315.77c-4.16.17-8.53-.23-12.06-2.44,11.11,1.5,21.58-3.72,31.72-7.4,2-.74,12.78-5.27,13.45-2.35.72,3.08-11.47,7.11-13.78,8A61.75,61.75,0,0,1,1286.29,315.77Z"/><path class="s2d5-asset4_22" d="M775.55,479.1c-4.16-.19-8.48-1-11.81-3.47,11,2.46,21.86-1.83,32.31-4.61,2.1-.56,13.21-4.13,13.63-1.16.44,3.13-12.08,6.08-14.46,6.75A62,62,0,0,1,775.55,479.1Z"/><path class="s2d5-asset4_22" d="M592.47,511.5a8.49,8.49,0,0,1-4.92.62c4.44-.86,7.84-4.23,11.3-7,.7-.55,4.28-3.68,4.89-2.64s-3.56,4.23-4.34,4.86A25.56,25.56,0,0,1,592.47,511.5Z"/><path class="s2d5-asset4_22" d="M641.66,510.07a10.32,10.32,0,0,1-6.12.52c5.54-.84,9.91-4.86,14.31-8.09.89-.65,5.47-4.37,6.18-3s-4.6,5.08-5.6,5.83A31.18,31.18,0,0,1,641.66,510.07Z"/><path class="s2d5-asset4_22" d="M703,451.8a10.53,10.53,0,0,1-6.08,1.08c5.47-1.35,9.44-5.76,13.53-9.37.82-.73,5-4.85,5.87-3.6s-4.1,5.48-5,6.33A31.68,31.68,0,0,1,703,451.8Z"/><path class="s2d5-asset4_22" d="M896.32,451.67a12.73,12.73,0,0,1-7.09-3.88c6.66,3,14,1.2,20.94.39,1.39-.16,8.8-1.47,8.74.73s-8.3,3-9.88,3.21A35,35,0,0,1,896.32,451.67Z"/><path class="s2d5-asset4_22" d="M846.36,466.66a12.7,12.7,0,0,1-7.09-3.88c6.66,3,14,1.2,20.94.39,1.39-.16,8.8-1.47,8.74.73s-8.3,3-9.88,3.21A35,35,0,0,1,846.36,466.66Z"/><path class="s2d5-asset4_22" d="M1399.5,325.2c-2.83-1.81-5.51-4.16-6.76-7.5,6.59,6.34,16,7.21,24.53,9.12,1.71.38,11,1.92,10,4.48s-11,.1-13-.3A43.55,43.55,0,0,1,1399.5,325.2Z"/><path class="s2d5-asset4_22" d="M771.11,438.75a12.87,12.87,0,0,1-7.4-1.72c6.84,1.12,13.5-1.94,19.91-4,1.29-.42,8.09-3,8.42-1.22s-7.35,4.21-8.8,4.71A38.86,38.86,0,0,1,771.11,438.75Z"/><path class="s2d5-asset4_22" d="M697.08,502.72a10.36,10.36,0,0,1-6-1.54c5.51,1.05,11-1.3,16.19-2.88,1-.32,6.6-2.31,6.83-.82s-6,3.27-7.21,3.65A31.55,31.55,0,0,1,697.08,502.72Z"/><path class="s2d5-asset4_22" d="M642.83,483.36a8.44,8.44,0,0,1-4.47,2.11c3.94-2.18,6.12-6.44,8.55-10.11.49-.74,2.91-4.82,3.81-4s-2.06,5.12-2.61,6A25.49,25.49,0,0,1,642.83,483.36Z"/><path class="s2d5-asset4_22" d="M747.47,408.27a8.35,8.35,0,0,1-4.83,1.09c4.33-1.28,7.36-5,10.51-8,.63-.61,3.86-4.08,4.58-3.1s-3.1,4.55-3.81,5.26A24.91,24.91,0,0,1,747.47,408.27Z"/><path class="s2d5-asset4_12" d="M872.87,401.13a12.43,12.43,0,0,1-6.81-2.81c6.36,2.15,13.22.26,19.68-.76,1.29-.2,8.21-1.65,8.24.15s-7.68,2.89-9.16,3.14A37.17,37.17,0,0,1,872.87,401.13Z"/><path class="s2d5-asset4_12" d="M1448.62,608a12.52,12.52,0,0,1-7.2,1.59c6.46-1.88,11-7.34,15.72-11.87.95-.91,5.79-6,6.85-4.59s-4.65,6.76-5.72,7.82A37.65,37.65,0,0,1,1448.62,608Z"/><path class="s2d5-asset4_12" d="M1448.62,668.67a12.52,12.52,0,0,1-7.2,1.59c6.46-1.87,11-7.34,15.72-11.87.95-.91,5.79-6,6.85-4.58s-4.65,6.76-5.72,7.81A37.65,37.65,0,0,1,1448.62,668.67Z"/><path class="s2d5-asset4_12" d="M1141.72,326.56a12.38,12.38,0,0,1-7.19,1.58c6.46-1.87,11-7.34,15.72-11.86,1-.91,5.79-6,6.85-4.59s-4.66,6.76-5.72,7.81A37.57,37.57,0,0,1,1141.72,326.56Z"/><path class="s2d5-asset4_12" d="M1046,664.3a12.46,12.46,0,0,1-4.11-6.11c4.11,5.32,10.86,7.55,16.8,10.28,1.19.56,7.75,3.19,6.77,4.7s-8-1.86-9.36-2.46A37.64,37.64,0,0,1,1046,664.3Z"/><path class="s2d5-asset4_12" d="M775.86,403.38A8.37,8.37,0,0,1,771,404c4.43-.87,7.79-4.25,11.21-7,.69-.55,4.24-3.7,4.86-2.66s-3.52,4.24-4.29,4.88A25.16,25.16,0,0,1,775.86,403.38Z"/><path class="s2d5-asset4_21" d="M863.1,585c-3.23-2.45-6.25-5.44-7.54-9.27,7.4,8,18.48,10.54,28.36,14,2,.71,12.83,4,11.54,6.56s-13-1.77-15.27-2.54A60.38,60.38,0,0,1,863.1,585Z"/><path class="s2d5-asset4_21" d="M996.18,604c-5.23-.18-10.66-1.08-14.88-4.17,13.78,2.91,27.4-2.65,40.45-6.3,2.63-.74,16.5-5.39,17.08-1.68.6,3.91-15,7.82-18,8.7A77.82,77.82,0,0,1,996.18,604Z"/><path class="s2d5-asset4_21" d="M998.06,437.72c-5.13-1-10.35-2.75-14-6.46,13.14,5.05,27.47,1.7,40.94.15,2.71-.31,17.14-2.72,17.12,1,0,4-16.09,5.35-19.17,5.76A78,78,0,0,1,998.06,437.72Z"/><path class="s2d5-asset4_21" d="M1234.3,307.18c-5.13,1-10.62,1.36-15.43-.68,14.07-.29,26.07-8.8,38-15.32,2.39-1.31,14.84-9,16.25-5.51,1.47,3.67-12.89,11-15.59,12.56A77.78,77.78,0,0,1,1234.3,307.18Z"/><path class="s2d5-asset4_21" d="M1098.94,631.89c-6.8-2.92-13.49-6.91-17.46-13.15,16.65,10.93,37.47,10.61,56.56,12.51,3.84.38,24.53,1.38,23.38,6.58-1.22,5.47-23.87,2.56-28.25,2.19A110,110,0,0,1,1098.94,631.89Z"/><path class="s2d5-asset4_21" d="M1061.26,415.48c-3.81,2.32-8.21,4.17-13.07,3.74,11.54-4.2,17.85-15,24.91-24,1.43-1.81,8.47-12,11.11-9.34s-6,13.2-7.54,15.28A56,56,0,0,1,1061.26,415.48Z"/><path class="s2d5-asset4_21" d="M1125.44,465c-4.21.18-8.68-.29-12.49-2.85,11.43,1.77,21.53-4.25,31.44-8.48,2-.85,12.43-6.05,13.42-2.67,1,3.56-10.92,8.19-13.18,9.19A52.69,52.69,0,0,1,1125.44,465Z"/><path class="s2d5-asset4_21" d="M785.4,536.23c-4-1.08-8.08-2.77-10.79-5.93,10.16,4.76,21.74,2.91,32.54,2.44,2.17-.09,13.79-1.19,13.56,1.8s-13.1,3.34-15.57,3.48A61.9,61.9,0,0,1,785.4,536.23Z"/><path class="s2d5-asset4_21" d="M813,492.72c-3.08.39-6.35.38-9.11-1,8.35.39,15.8-4.18,23.1-7.57,1.47-.68,9.16-4.74,9.85-2.62s-8.07,6-9.73,6.83A46.3,46.3,0,0,1,813,492.72Z"/><path class="s2d5-asset4_21" d="M840.73,421.5c-4.07-.87-8.2-2.33-11.08-5.33,10.39,4.19,21.86,1.72,32.61.67,2.16-.22,13.7-1.94,13.62,1.05-.07,3.15-12.9,4-15.36,4.32A62.3,62.3,0,0,1,840.73,421.5Z"/><path class="s2d5-asset4_21" d="M1313,363.33c-4.12-.58-8.34-1.75-11.42-4.56,10.65,3.47,21.9.2,32.53-1.61,2.14-.36,13.51-2.89,13.66.11.15,3.15-12.57,4.94-15,5.39A62,62,0,0,1,1313,363.33Z"/><path class="s2d5-asset4_21" d="M1358.54,387.65c-3.7-1.91-7.29-4.42-9.27-8.08,8.91,6.8,20.6,7.44,31.23,9.26,2.14.37,13.7,1.75,12.85,4.63s-13.49.49-15.93.11A61.71,61.71,0,0,1,1358.54,387.65Z"/><path class="s2d5-asset4_21" d="M749.51,497c-3.94-1.38-7.86-3.37-10.34-6.72,9.8,5.5,21.49,4.51,32.29,4.84,2.17.06,13.84-.18,13.4,2.79-.47,3.12-13.31,2.37-15.79,2.33A62,62,0,0,1,749.51,497Z"/><path class="s2d5-asset4_21" d="M597.69,494.85a8.45,8.45,0,0,1-4.58,1.95c4-2.05,6.39-6.23,9-9.81.51-.72,3.09-4.72,4-3.88s-2.25,5.05-2.83,5.87A25.26,25.26,0,0,1,597.69,494.85Z"/><path class="s2d5-asset4_21" d="M616.69,522.76a8.45,8.45,0,0,1-5,.35c4.49-.61,8.07-3.8,11.67-6.34.72-.51,4.47-3.45,5-2.37s-3.78,4-4.59,4.63A25.49,25.49,0,0,1,616.69,522.76Z"/><path class="s2d5-asset4_21" d="M678,459.73a10.42,10.42,0,0,1-6.07,1.08c5.46-1.35,9.43-5.76,13.52-9.37.82-.73,5-4.85,5.88-3.6s-4.11,5.49-5,6.33A31.52,31.52,0,0,1,678,459.73Z"/><path class="s2d5-asset4_21" d="M739.16,434.63a10.32,10.32,0,0,1-6.11-.23c5.57-.16,10.38-3.62,15.13-6.29,1-.53,5.93-3.66,6.47-2.26s-5.17,4.48-6.25,5.1A31.24,31.24,0,0,1,739.16,434.63Z"/><path class="s2d5-asset4_21" d="M714.54,471a12.87,12.87,0,0,1-7.56-.67c6.92.16,13.08-3.8,19.12-6.78,1.21-.6,7.57-4.14,8.15-2.38s-6.67,5.19-8,5.89A38.88,38.88,0,0,1,714.54,471Z"/><path class="s2d5-asset4_21" d="M1139.82,392.58c-3.17,1.09-6.67,1.74-10.06.65,9-1.23,15.6-8.11,22.35-13.57,1.36-1.1,8.32-7.43,9.72-5.07s-6.77,8.71-8.29,10A43.63,43.63,0,0,1,1139.82,392.58Z"/><path class="s2d5-asset4_12" d="M1270.73,338.93c-3.28-.71-6.6-2-8.94-4.67,8.38,3.64,17.54,1.17,26.15,0,1.74-.24,11-2,10.94.7,0,2.89-10.31,4-12.27,4.25A43.69,43.69,0,0,1,1270.73,338.93Z"/><path class="s2d5-asset4_21" d="M926.56,432.93c-3.25-.81-6.54-2.17-8.79-4.93,8.26,3.89,17.51,1.69,26.17.78,1.74-.18,11-1.7,10.92,1s-10.44,3.63-12.42,3.87A43.73,43.73,0,0,1,926.56,432.93Z"/><path class="s2d5-asset4_21" d="M1189.45,593.27c-5.35-.28-10.87-1.31-15-4.55,14,3.24,28.23-2.2,41.82-5.71,2.73-.71,17.2-5.22,17.6-1.4.41,4-15.85,7.74-18.95,8.59A80.68,80.68,0,0,1,1189.45,593.27Z"/><path class="s2d5-asset4_21" d="M1482.16,420.68c1-5.27,2.69-10.61,6.44-14.33-5,13.44-1.43,28.28.31,42.2.35,2.8,3,17.73-.86,17.63-4-.1-5.65-16.7-6.09-19.88A80.63,80.63,0,0,1,1482.16,420.68Z"/><path class="s2d5-asset4_21" d="M1378.63,641.45c-5.23,1.17-10.82,1.66-15.71-.34,14.33-.63,26.61-9.71,38.74-16.74,2.45-1.42,15.17-9.66,16.58-6.09,1.48,3.77-13.18,11.72-15.94,13.37A81,81,0,0,1,1378.63,641.45Z"/><path class="s2d5-asset4_21" d="M1404.27,549.22c-4.16,3.37-9,6.29-14.22,6.66,12.56-6.92,19.52-20.51,27.27-32.19,1.56-2.35,9.3-15.38,12.15-12.81s-6.61,16.35-8.34,19A81.1,81.1,0,0,1,1404.27,549.22Z"/><path class="s2d5-asset4_21" d="M1172.84,423.2c-5.34-.5-10.81-1.77-14.83-5.19,13.82,3.84,28.3-1,42-3.9,2.76-.59,17.42-4.48,17.65-.64.24,4-16.17,7-19.3,7.76A80.93,80.93,0,0,1,1172.84,423.2Z"/><path class="s2d5-asset4_21" d="M666.28,509.29a10.53,10.53,0,0,1-6.12.9c5.52-1.18,9.65-5.46,13.88-8.95.85-.7,5.23-4.69,6-3.42s-4.31,5.35-5.27,6.16A31.65,31.65,0,0,1,666.28,509.29Z"/><path class="s2d5-asset4_21" d="M629.05,484.17a10.45,10.45,0,0,1-5.89,1.79c5.26-2,8.7-6.82,12.35-10.88.74-.82,4.45-5.41,5.42-4.26s-3.45,5.92-4.27,6.86A31.47,31.47,0,0,1,629.05,484.17Z"/><path class="s2d5-asset4_21" d="M669.44,438.35a8.32,8.32,0,0,1-4,2.88c3.49-2.86,4.84-7.44,6.56-11.48.34-.81,2-5.26,3-4.64s-1.08,5.4-1.46,6.33A25.33,25.33,0,0,1,669.44,438.35Z"/><path class="s2d5-asset4_21" d="M800.12,400.88a8.32,8.32,0,0,1-4.85-1c4.47.62,8.75-1.49,12.88-3,.84-.3,5.21-2.12,5.46-.94s-4.7,2.87-5.64,3.23A25.35,25.35,0,0,1,800.12,400.88Z"/><path class="s2d5-asset4_21" d="M574.76,534.39a6.82,6.82,0,0,1-3.94-.83c3.64.53,7.14-1.16,10.51-2.33.68-.24,4.25-1.69,4.44-.73s-3.84,2.3-4.61,2.58A20.62,20.62,0,0,1,574.76,534.39Z"/><path class="s2d5-asset4_12" d="M564.55,543.41a6.81,6.81,0,0,1-3.87-1.1c3.59.77,7.2-.68,10.65-1.64.69-.19,4.36-1.41,4.48-.43s-4,2-4.78,2.28A20.71,20.71,0,0,1,564.55,543.41Z"/><path class="s2d5-asset4_12" d="M549.13,537.5a6.73,6.73,0,0,1-3.72-1.53c3.48,1.17,7.23.13,10.76-.43.71-.11,4.5-.9,4.51.08s-4.21,1.59-5,1.73A20.46,20.46,0,0,1,549.13,537.5Z"/><path class="s2d5-asset4_12" d="M524.82,521.12a6.73,6.73,0,0,1-3.72-1.53c3.48,1.17,7.23.13,10.76-.42.71-.12,4.5-.91,4.51.07s-4.21,1.59-5,1.73A20.45,20.45,0,0,1,524.82,521.12Z"/><path class="s2d5-asset4_12" d="M516,545.61a6.78,6.78,0,0,1-3.25-2.37c3.1,2,7,1.85,10.57,2.14.72.06,4.59.19,4.36,1.15s-4.47.54-5.29.48A20.49,20.49,0,0,1,516,545.61Z"/><path class="s2d5-asset4_12" d="M538.84,544.21a6.73,6.73,0,0,1-3.71-1.53c3.47,1.17,7.23.13,10.76-.42.71-.12,4.49-.91,4.51.07s-4.21,1.59-5,1.73A20.51,20.51,0,0,1,538.84,544.21Z"/><path class="s2d5-asset4_12" d="M560.07,504.6a6.83,6.83,0,0,1-4-.25c3.67,0,6.88-2.22,10-3.89.64-.34,4-2.32,4.29-1.39s-3.47,2.86-4.18,3.26A21,21,0,0,1,560.07,504.6Z"/><path class="s2d5-asset4_12" d="M595.11,537.81a9.89,9.89,0,0,1-5.81-.27c5.3-.1,9.87-3.32,14.39-5.78.9-.5,5.64-3.41,6.15-2.08s-4.92,4.17-5.94,4.75A29.77,29.77,0,0,1,595.11,537.81Z"/><path class="s2d5-asset4_21" d="M550.43,530.58a10,10,0,0,1-5.61-1.57c5.2,1.09,10.38-1,15.34-2.4,1-.28,6.27-2.05,6.47-.65s-5.74,3-6.87,3.3A29.58,29.58,0,0,1,550.43,530.58Z"/><path class="s2d5-asset4_8" d="M399.18,504.25a5.76,5.76,0,0,1-3.36-.59c3.09.34,6-1.19,8.79-2.28.57-.22,3.54-1.56,3.74-.75s-3.17,2.06-3.81,2.32A17.46,17.46,0,0,1,399.18,504.25Z"/><path class="s2d5-asset4_8" d="M398.8,515.88a5.85,5.85,0,0,1-2.6-2.21c2.5,1.86,5.77,2,8.74,2.47.6.1,3.83.45,3.6,1.24s-3.77.18-4.45.08A17.47,17.47,0,0,1,398.8,515.88Z"/><path class="s2d5-asset4_8" d="M518.75,538.28a9.35,9.35,0,0,1-5.13-2c4.78,1.52,9.85,0,14.63-.81,1-.16,6.09-1.33,6.14,0s-5.66,2.24-6.75,2.45A28,28,0,0,1,518.75,538.28Z"/><path class="s2d5-asset4_12" d="M491.71,543.1a5.73,5.73,0,0,1-2.48-2.34c2.4,2,5.65,2.31,8.59,2.94.6.13,3.8.66,3.53,1.44s-3.78,0-4.45-.17A17.08,17.08,0,0,1,491.71,543.1Z"/><path class="s2d5-asset4_23" d="M415.28,505.18a9.07,9.07,0,0,1-4.95-1.26c4.59.88,9.27-.84,13.72-2,.9-.23,5.64-1.68,5.78-.54s-5.19,2.42-6.21,2.69A28.79,28.79,0,0,1,415.28,505.18Z"/><path class="s2d5-asset4_24" d="M361.51,520a6.13,6.13,0,0,1-3,1.61c2.67-1.64,4.2-4.6,5.9-7.16.34-.52,2-3.38,2.61-2.87s-1.48,3.53-1.86,4.13A19.22,19.22,0,0,1,361.51,520Z"/><path class="s2d5-asset4_24" d="M333.49,539.86a6.18,6.18,0,0,1-3,1.6c2.67-1.63,4.21-4.59,5.9-7.16.34-.52,2-3.37,2.62-2.87s-1.48,3.54-1.86,4.13A19.77,19.77,0,0,1,333.49,539.86Z"/><path class="s2d5-asset4_25" d="M466.15,526.78a8.89,8.89,0,0,1-4.2-3.08c4,2.56,9,2.43,13.58,2.83.92.08,5.88.26,5.61,1.5s-5.73.67-6.78.59A26.25,26.25,0,0,1,466.15,526.78Z"/><path class="s2d5-asset4_25" d="M512.15,514.11a8.78,8.78,0,0,1-5-1.31c4.66.89,9.26-1.08,13.67-2.4.88-.27,5.57-1.93,5.77-.68s-5.07,2.74-6.08,3.06A26.48,26.48,0,0,1,512.15,514.11Z"/><path class="s2d5-asset4_25" d="M549.2,516.91a8.78,8.78,0,0,1-5.2,0c4.74-.3,8.69-3.36,12.63-5.74.79-.48,4.91-3.27,5.42-2.11s-4.23,3.93-5.12,4.49A26.87,26.87,0,0,1,549.2,516.91Z"/><path class="s2d5-asset4_12" d="M437.15,508a8.85,8.85,0,0,1-5-1.49c4.63,1.06,9.29-.74,13.74-1.9.89-.24,5.62-1.74,5.78-.48s-5.16,2.56-6.17,2.84A26.32,26.32,0,0,1,437.15,508Z"/><path class="s2d5-asset4_21" d="M489.94,537a8.9,8.9,0,0,1-4.67-2.3c4.39,1.81,9.27.81,13.85.41.92-.08,5.83-.77,5.78.49s-5.51,1.66-6.55,1.77A26.66,26.66,0,0,1,489.94,537Z"/><path class="s2d5-asset4_12" d="M487.83,517.7a8.76,8.76,0,0,1-5.14-.8c4.73.43,9.1-2,13.35-3.74.85-.35,5.34-2.48,5.67-1.25s-4.77,3.23-5.74,3.64A26.22,26.22,0,0,1,487.83,517.7Z"/><path class="s2d5-asset4_8" d="M463.22,535.69a8.87,8.87,0,0,1-3.23-4.08c3.18,3.52,8,4.72,12.34,6.31.87.33,5.61,1.82,5,2.94s-5.7-.87-6.69-1.22A26.47,26.47,0,0,1,463.22,535.69Z"/><path class="s2d5-asset4_8" d="M432.57,514.68a8.78,8.78,0,0,1-4.25-3c4.05,2.48,9,2.25,13.62,2.56.93.07,5.89.15,5.64,1.39s-5.7.79-6.76.73A26.47,26.47,0,0,1,432.57,514.68Z"/><path class="s2d5-asset4_8" d="M491.28,526.06a8.82,8.82,0,0,1-5-1.35c4.65.93,9.26-1,13.68-2.28.88-.26,5.58-1.88,5.77-.63s-5.09,2.7-6.1,3A26.51,26.51,0,0,1,491.28,526.06Z"/><path class="s2d5-asset4_8" d="M532.78,528a8.82,8.82,0,0,1-5-1.35c4.65.93,9.26-1,13.68-2.28.88-.26,5.58-1.88,5.77-.63s-5.09,2.7-6.1,3A26.51,26.51,0,0,1,532.78,528Z"/><path class="s2d5-asset4_8" d="M472.85,513a8.9,8.9,0,0,1-5.09-1.1c4.69.7,9.19-1.45,13.53-2.95.88-.3,5.48-2.16,5.73-.92s-4.94,2.95-5.93,3.3A26.52,26.52,0,0,1,472.85,513Z"/><path class="s2d5-asset4_12" d="M439.91,524.28a8.82,8.82,0,0,1-3.77-3.58c3.65,3,8.61,3.54,13.11,4.52.9.19,5.8,1,5.37,2.2s-5.76-.06-6.79-.27A26.49,26.49,0,0,1,439.91,524.28Z"/><path class="s2d5-asset4_12" d="M375.07,513.9a5.7,5.7,0,0,1-3.2-1.12c3,.82,6.09-.22,9-.86.6-.13,3.74-1,3.8-.15s-3.47,1.53-4.14,1.69A17.23,17.23,0,0,1,375.07,513.9Z"/><path class="s2d5-asset4_12" d="M379.07,519.73a5.7,5.7,0,0,1-3.2-1.12c3,.83,6.08-.22,9-.85.59-.13,3.74-1,3.8-.15s-3.47,1.53-4.14,1.69A17.52,17.52,0,0,1,379.07,519.73Z"/><path class="s2d5-asset4_12" d="M361.93,525.72a5.75,5.75,0,0,1-3.39-.07c3.09-.14,5.72-2.11,8.32-3.63.52-.31,3.25-2.1,3.56-1.33s-2.82,2.54-3.41,2.9A17.3,17.3,0,0,1,361.93,525.72Z"/><path class="s2d5-asset4_8" d="M349.56,526.44a5.76,5.76,0,0,1-3.1,1.36c2.74-1.43,4.3-4.31,6-6.79.35-.49,2.07-3.26,2.68-2.69s-1.5,3.48-1.88,4A17.43,17.43,0,0,1,349.56,526.44Z"/><path class="s2d5-asset4_8" d="M328.39,552.92a5.74,5.74,0,0,1-3.11,1.36c2.75-1.42,4.31-4.31,6-6.78.35-.5,2.08-3.26,2.69-2.69s-1.5,3.48-1.89,4.05A17.56,17.56,0,0,1,328.39,552.92Z"/><path class="s2d5-asset4_12" d="M312.76,567.92a5.74,5.74,0,0,1-3.11,1.36c2.75-1.43,4.31-4.31,6-6.78.34-.5,2.07-3.26,2.68-2.7s-1.5,3.49-1.89,4.06A17.13,17.13,0,0,1,312.76,567.92Z"/><path class="s2d5-asset4_21" d="M377.73,508a8.37,8.37,0,0,1-4.91-.21c4.48-.1,8.33-2.82,12.14-4.9.76-.42,4.75-2.88,5.19-1.76s-4.14,3.53-5,4A24.85,24.85,0,0,1,377.73,508Z"/><path class="s2d5-asset4_21" d="M343.93,538.49a8.37,8.37,0,0,1-4.83.91c4.34-1.11,7.47-4.64,10.7-7.53.65-.58,4-3.89,4.65-2.9s-3.23,4.38-4,5A24.6,24.6,0,0,1,343.93,538.49Z"/><path class="s2d5-asset4_21" d="M318,554.67a8.4,8.4,0,0,1-3.89,3c3.37-3,4.56-7.53,6.13-11.58.32-.81,1.79-5.27,2.84-4.69s-.9,5.37-1.24,6.3A25,25,0,0,1,318,554.67Z"/><path class="s2d5-asset4_21" d="M391.93,510.1A8.31,8.31,0,0,1,387.5,508c4.16,1.66,8.76.66,13.08.22.87-.09,5.5-.8,5.46.4s-5.18,1.63-6.17,1.75A25.17,25.17,0,0,1,391.93,510.1Z"/><path class="s2d5-asset4_21" d="M417,514.3a8.34,8.34,0,0,1-2.77-4c2.77,3.52,7.25,5,11.21,6.74.79.36,5.16,2.07,4.53,3.09s-5.31-1.19-6.22-1.58A25.07,25.07,0,0,1,417,514.3Z"/><path class="s2d5-asset4_21" d="M460.42,518.81a8.35,8.35,0,0,1-4.38-2.22c4.11,1.76,8.74.88,13.07.55.87-.07,5.52-.66,5.45.54s-5.22,1.5-6.21,1.59A24.83,24.83,0,0,1,460.42,518.81Z"/><path class="s2d5-asset4_12" d="M507.68,530.51a8.35,8.35,0,0,1-4.52-1.9c4.23,1.47,8.78.24,13.07-.4.87-.13,5.46-1.05,5.48.15s-5.1,1.87-6.08,2A24.67,24.67,0,0,1,507.68,530.51Z"/><path class="s2d5-asset4_26" d="M458.77,509.26a7.13,7.13,0,0,1-4.12-.67c3.79.37,7.35-1.54,10.79-2.92.69-.28,4.34-1.95,4.58-1s-3.88,2.56-4.67,2.89A21.52,21.52,0,0,1,458.77,509.26Z"/><text class="s2d5-asset4_27" transform="matrix(0.39, 0.92, -0.92, 0.39, 1165.35, 274.12)">Z</text><text class="s2d5-asset4_27" transform="matrix(0.52, 0.85, -0.85, 0.52, 1176.27, 299.16)">Z</text><text class="s2d5-asset4_27" transform="matrix(0.63, 0.78, -0.78, 0.63, 1190.63, 322.05)">Z</text><text class="s2d5-asset4_27" transform="matrix(0.72, 0.7, -0.7, 0.72, 1207.77, 342.71)">Z</text><text class="s2d5-asset4_27" transform="matrix(0.79, 0.61, -0.61, 0.79, 1227.09, 361.05)">Z</text><text class="s2d5-asset4_27" transform="matrix(0.83, 0.56, -0.56, 0.83, 1247.88, 376.75)">.</text><text class="s2d5-asset4_27" transform="matrix(0.85, 0.53, -0.53, 0.85, 1256.98, 382.82)">.</text><text class="s2d5-asset4_27" transform="matrix(0.87, 0.5, -0.5, 0.87, 1266.27, 388.52)">.</text><text class="s2d5-asset4_27" transform="matrix(0.88, 0.47, -0.47, 0.88, 1275.73, 393.88)">.</text><text class="s2d5-asset4_27" transform="matrix(0.65, 0.76, -0.76, 0.65, 1153.78, 350.23)">Z</text><text class="s2d5-asset4_27" transform="matrix(0.76, 0.65, -0.65, 0.76, 1171.98, 370.61)">Z</text><text class="s2d5-asset4_27" transform="matrix(0.82, 0.57, -0.57, 0.82, 1192.49, 387.32)">.</text><text class="s2d5-asset4_27" transform="matrix(0.85, 0.53, -0.53, 0.85, 1201.71, 393.63)">.</text><text class="s2d5-asset4_27" transform="matrix(0.88, 0.48, -0.48, 0.88, 1211.21, 399.43)">.</text><text class="s2d5-asset4_27" transform="matrix(0.9, 0.44, -0.44, 0.9, 1220.95, 404.72)">.</text><path class="s2d5-asset4_28" d="M244.16,461.68v0c.1-.17.2-.33.31-.49l0,0a4.82,4.82,0,0,1,.35-.44l0-.06a4.17,4.17,0,0,1,.36-.37l.08-.08c.12-.11.24-.22.37-.32l.13-.09.36-.27.17-.1.35-.21.23-.1.33-.16.27-.1.31-.11.34-.09.28-.07.42-.06.21,0c.22,0,.44,0,.66,0a6.56,6.56,0,0,1,2.93.7,9.75,9.75,0,0,1,6.68-3.91,11.7,11.7,0,0,1,1.19-.07,9.72,9.72,0,0,1,2,.21l.63.15a9.79,9.79,0,0,1,14.05-6.7,15.34,15.34,0,0,1-.39-2.56c0-.33,0-.66,0-1a15.61,15.61,0,0,1,20-15,15.34,15.34,0,0,1,.61-2.8,15.58,15.58,0,0,1,25.51-6.71c.19.17.37.35.55.53a23.21,23.21,0,0,1,32.9,1.15c.42.46.83.93,1.22,1.42a23.51,23.51,0,0,1,2.08,3.12,23.2,23.2,0,0,1,2.14,5.28,14.7,14.7,0,0,1,1.63-.09,15.53,15.53,0,0,1,10.11,3.73,15.71,15.71,0,0,1,3.92,5.07,9.72,9.72,0,0,1,9.83,1.81c.21.19.42.38.62.59a9.74,9.74,0,0,1,2.62,5.39,9.79,9.79,0,0,1,14.35,5.6c.08.27.15.54.21.82a9.59,9.59,0,0,1,2.59-.36,9.78,9.78,0,0,1,7.87,4,6.52,6.52,0,1,1,0,11.64,9.77,9.77,0,0,1-13.42,2.25,9.79,9.79,0,0,1-15.21,2.88,9.79,9.79,0,0,1-16.8,1.13,9.89,9.89,0,0,1-4.31,1,9.78,9.78,0,0,1-7.67-3.71,9.79,9.79,0,0,1-9.64,8.14,9.9,9.9,0,0,1-3.54-.67,23.26,23.26,0,0,1-36.43-5.53,9.77,9.77,0,0,1-10.36,1.1,9.79,9.79,0,0,1-16.8-1.13A9.77,9.77,0,0,1,266.13,473a9.77,9.77,0,0,1-13.42-2.25,6.51,6.51,0,0,1-9.45-5.82A6.4,6.4,0,0,1,244.16,461.68Z"/><path class="s2d5-asset4_29" d="M139.25,500h0a1.67,1.67,0,0,1,.18-.28v0l.19-.24,0,0,.21-.21.05-.05.2-.17.07-.06.21-.15.1-.06.19-.11.13-.06.19-.09.16-.06.17-.06.19-.05.16,0,.23,0,.13,0,.37,0a3.56,3.56,0,0,1,1.65.4,3.94,3.94,0,0,1,.41-.49,5.47,5.47,0,0,1,3.36-1.72,5.07,5.07,0,0,1,.68,0,5.8,5.8,0,0,1,1.11.11l.35.09a5.54,5.54,0,0,1,5.42-4.4,5.61,5.61,0,0,1,2.52.61,8.63,8.63,0,0,1-.22-1.44c0-.19,0-.38,0-.56A8.82,8.82,0,0,1,169,482.24a8.39,8.39,0,0,1,.34-1.58,8.81,8.81,0,0,1,14.41-3.79,2.91,2.91,0,0,1,.31.3,13.47,13.47,0,0,1,2.71-2,13.12,13.12,0,0,1,15.88,2.61c.24.25.47.52.69.8a13.12,13.12,0,0,1,1.17,1.76,12.94,12.94,0,0,1,1.21,3c.31,0,.61,0,.92,0a8.76,8.76,0,0,1,5.71,2.1,9,9,0,0,1,2.22,2.86,5.48,5.48,0,0,1,1.91-.34,5.47,5.47,0,0,1,3.64,1.36c.12.11.24.22.35.34a5.56,5.56,0,0,1,1.48,3,5.55,5.55,0,0,1,8.11,3.17c0,.15.08.3.11.46a5.51,5.51,0,0,1,5.91,2.05,3.69,3.69,0,1,1,0,6.57,5.51,5.51,0,0,1-7.58,1.27,5.53,5.53,0,0,1-8.59,1.63,5.53,5.53,0,0,1-9.49.64,5.54,5.54,0,0,1-6.76-1.53,5.54,5.54,0,0,1-7.45,4.22A13.15,13.15,0,0,1,175.6,508a5.49,5.49,0,0,1-5.85.62,5.53,5.53,0,0,1-9.49-.63,5.54,5.54,0,0,1-8.6-1.63,5.46,5.46,0,0,1-3.13,1,5.53,5.53,0,0,1-4.45-2.25,3.68,3.68,0,0,1-5.33-3.29A3.61,3.61,0,0,1,139.25,500Z"/><path class="s2d5-asset4_30" d="M190.4,551.53h0a1.88,1.88,0,0,1,.12-.18h0l.12-.16,0,0,.13-.14,0,0a.69.69,0,0,1,.13-.11.1.1,0,0,1,.05,0l.13-.09.06,0,.13-.08.08,0,.13-.06.1,0,.11,0a.53.53,0,0,1,.12,0l.11,0,.15,0,.08,0h.24a2.46,2.46,0,0,1,1.08.26,4,4,0,0,1,.26-.32,3.63,3.63,0,0,1,2.19-1.12l.44,0a3.38,3.38,0,0,1,.72.07l.23.06a3.59,3.59,0,0,1,5.16-2.46,5.92,5.92,0,0,1-.14-.94c0-.12,0-.25,0-.37a5.72,5.72,0,0,1,5.73-5.73,5.63,5.63,0,0,1,1.6.23,5.73,5.73,0,0,1,9.6-3.5l.2.2a8.52,8.52,0,0,1,12.08.42c.16.17.31.34.45.52a9.22,9.22,0,0,1,.77,1.15,8.47,8.47,0,0,1,.78,1.94l.6,0a5.69,5.69,0,0,1,5.15,3.23,3.47,3.47,0,0,1,1.25-.23,3.55,3.55,0,0,1,2.36.89,2.39,2.39,0,0,1,.23.22,3.57,3.57,0,0,1,1,2,3.5,3.5,0,0,1,1.82-.5,3.61,3.61,0,0,1,3.45,2.55,2.82,2.82,0,0,1,.07.31,3.36,3.36,0,0,1,.95-.14,3.6,3.6,0,0,1,2.9,1.47,2.26,2.26,0,0,1,1.07-.26,2.4,2.4,0,1,1-1.07,4.53,3.61,3.61,0,0,1-4.94.83,3.59,3.59,0,0,1-5.58,1.06,3.59,3.59,0,0,1-6.17.41,3.53,3.53,0,0,1-1.58.37,3.58,3.58,0,0,1-2.82-1.36,3.61,3.61,0,0,1-3.55,3,3.49,3.49,0,0,1-1.29-.25,8.56,8.56,0,0,1-13.39-2,3.58,3.58,0,0,1-2.22.77,3.47,3.47,0,0,1-1.58-.37,3.59,3.59,0,0,1-6.17-.41,3.62,3.62,0,0,1-2.39.91,3.58,3.58,0,0,1-3.2-2,3.57,3.57,0,0,1-4.93-.83,2.33,2.33,0,0,1-1.08.26,2.39,2.39,0,0,1-2.39-2.39A2.36,2.36,0,0,1,190.4,551.53Z"/><path class="s2d5-asset4_31" d="M323.21,649.42l-6.91,44.19a9,9,0,1,1-17.83-2.79,10.32,10.32,0,0,1,.29-1.25l13.1-42.76a5.84,5.84,0,0,1,11.35,2.61Z"/><path class="s2d5-asset4_32" d="M319.83,584.93c-46.79,0-90.88-4.38-129.76-12.08,7.39,54.24,63.27,96.41,131.13,96.41,68.1,0,124.14-42.46,131.22-97C412.85,580.35,367.74,584.93,319.83,584.93Z"/><path class="s2d5-asset4_31" d="M191.12,565.73A621.2,621.2,0,0,0,256,573.54q32.6,2.26,65.31,1.49c21.77-.47,43.51-1.92,65.1-4.38A611.26,611.26,0,0,0,450.51,560h0a9,9,0,1,1,3.93,17.56l-.21,0A629.2,629.2,0,0,1,388,587q-33.25,3-66.61,2.89t-66.54-3.13A632,632,0,0,1,189,577.17a5.83,5.83,0,0,1,2.15-11.45Z"/><path class="s2d5-asset4_1" d="M453.38,598.63a2.06,2.06,0,0,0-2.4-1.57,700.18,700.18,0,0,1-174.63,10.72c-45.66-2.88-76.42-9.35-84.76-11.27a2.07,2.07,0,0,0-2.46,1.47,1.93,1.93,0,0,0,.23,1.5,2,2,0,0,0,1.29.93c8.42,1.93,39.46,8.46,85.43,11.36,15,1,30.14,1.43,45.09,1.43A702.12,702.12,0,0,0,451.76,601a2,2,0,0,0,1.33-.87A1.93,1.93,0,0,0,453.38,598.63Z"/><path class="s2d5-asset4_1" d="M453.38,579.23a2,2,0,0,0-2.4-1.56,700.65,700.65,0,0,1-174.63,10.72c-45.66-2.89-76.42-9.36-84.76-11.28a2.07,2.07,0,0,0-2.46,1.47,1.93,1.93,0,0,0,.23,1.5,2,2,0,0,0,1.29.93c8.42,1.93,39.46,8.46,85.43,11.37,15,.94,30.14,1.42,45.09,1.42a702.12,702.12,0,0,0,130.59-12.21,2,2,0,0,0,1.33-.87A1.92,1.92,0,0,0,453.38,579.23Z"/><path class="s2d5-asset4_1" d="M435.91,619.71c-128,24.27-229.65-.66-230.67-.91a2.06,2.06,0,0,0-2.49,1.41,2,2,0,0,0,.19,1.51,2,2,0,0,0,1.28.95c.46.12,47.15,11.64,117.23,11.64a619.77,619.77,0,0,0,115.24-10.68,2,2,0,0,0,1.33-.87,1.92,1.92,0,0,0,.29-1.49A2,2,0,0,0,435.91,619.71Z"/><path class="s2d5-asset4_1" d="M407.81,643.46c-81.35,15.94-148.32,5.09-173.33-.31a2.06,2.06,0,0,0-2.45,1.49,2,2,0,0,0,.25,1.5,2.06,2.06,0,0,0,1.31.91c15.11,3.27,46.6,8.74,87.61,8.74a455.93,455.93,0,0,0,87.42-8.41,2.08,2.08,0,0,0,1.33-.88,2,2,0,0,0,.28-1.5A2.06,2.06,0,0,0,407.81,643.46Z"/><path class="s2d5-asset4_31" d="M259.84,651,208.43,713.2a9,9,0,1,1-13.88-11.47,5.93,5.93,0,0,1,.47-.53l56.15-58a5.82,5.82,0,0,1,8.67,7.76Z"/><path class="s2d5-asset4_31" d="M384.16,647.23l45.14,53.08A9,9,0,1,1,415.57,712a8,8,0,0,1-.5-.65l-40.11-57a5.83,5.83,0,0,1,9.2-7.13Z"/><ellipse class="s2d5-asset4_33" cx="314.86" cy="728.42" rx="203.37" ry="42.13"/><path class="s2d5-asset4_34" d="M469.06,695.22a58.28,58.28,0,0,0-3.84-9.78,43,43,0,0,0-6.26-8.71l-4.1,4a37.7,37.7,0,0,1,6.28,7.08,54.46,54.46,0,0,1,4.42,8.65Z"/><path class="s2d5-asset4_34" d="M486.82,690.39a105.83,105.83,0,0,1-.2-20.9l-5.75-.23a110.84,110.84,0,0,0,2.28,21.7Z"/><path class="s2d5-asset4_34" d="M505.23,693.51a151.8,151.8,0,0,0,5.53-19.9l-5.68-.89a146.18,146.18,0,0,1-3.42,19.73Z"/><path class="s2d5-asset4_34" d="M77.73,701.84a57.94,57.94,0,0,0-3.84-9.78,43,43,0,0,0-6.26-8.71l-4.1,4a37.35,37.35,0,0,1,6.28,7.08,55.34,55.34,0,0,1,4.43,8.65Z"/><path class="s2d5-asset4_34" d="M95.49,697a106.6,106.6,0,0,1-.2-20.9l-5.74-.24a110.85,110.85,0,0,0,2.27,21.71Z"/><path class="s2d5-asset4_34" d="M113.9,700.13a153.85,153.85,0,0,0,5.54-19.9l-5.69-.89a146.18,146.18,0,0,1-3.42,19.73Z"/><path class="s2d5-asset4_32" d="M268.7,712.27a31,31,0,0,1,1.9-5.28,22.46,22.46,0,0,1,3.21-4.76l2.25,2.09a19.71,19.71,0,0,0-3.24,3.88,28.13,28.13,0,0,0-2.23,4.69Z"/><path class="s2d5-asset4_32" d="M259.14,710a56.85,56.85,0,0,0-.22-11.15l3.07-.22a59.29,59.29,0,0,1-.88,11.62Z"/><path class="s2d5-asset4_32" d="M249.36,711.92a82.49,82.49,0,0,1-3.27-10.54l3-.56a78.84,78.84,0,0,0,2.14,10.48Z"/><path class="s2d5-asset4_32" d="M566.7,710.37a30.35,30.35,0,0,1,2-5.22,22.8,22.8,0,0,1,3.34-4.66l2.19,2.16a19.88,19.88,0,0,0-3.35,3.78,29.08,29.08,0,0,0-2.37,4.62Z"/><path class="s2d5-asset4_32" d="M557.21,707.79a57,57,0,0,0,.11-11.16l3.07-.13a59.06,59.06,0,0,1-1.22,11.59Z"/><path class="s2d5-asset4_32" d="M547.38,709.46a82.42,82.42,0,0,1-3-10.63l3-.48a79,79,0,0,0,1.82,10.54Z"/><path class="s2d5-asset4_35" d="M178.9,675.85a30.35,30.35,0,0,1,2-5.22A22.46,22.46,0,0,1,184.3,666l2.18,2.16a19.88,19.88,0,0,0-3.35,3.78,28.23,28.23,0,0,0-2.36,4.62Z"/><path class="s2d5-asset4_35" d="M169.41,673.27a57,57,0,0,0,.11-11.16l3.07-.13a59.06,59.06,0,0,1-1.22,11.59Z"/><path class="s2d5-asset4_35" d="M159.58,674.94a82,82,0,0,1-3-10.63l3-.48a79,79,0,0,0,1.82,10.54Z"/><path class="s2d5-asset4_35" d="M374.6,715.79a30.35,30.35,0,0,1,2-5.22,22.46,22.46,0,0,1,3.35-4.66l2.18,2.16a19.88,19.88,0,0,0-3.35,3.78,28.23,28.23,0,0,0-2.36,4.62Z"/><path class="s2d5-asset4_35" d="M365.11,713.21a57,57,0,0,0,.11-11.16l3.07-.13a59.16,59.16,0,0,1-1.22,11.6Z"/><path class="s2d5-asset4_35" d="M355.28,714.88a82,82,0,0,1-3-10.63l3-.48a79,79,0,0,0,1.82,10.54Z"/></svg>
