<svg id="Layer_1" data-name="Layer 1" xmlns="http://www.w3.org/2000/svg" xmlns:xlink="http://www.w3.org/1999/xlink" width="300" height="250" viewBox="418 300 400 400"><defs><style>.cls-1,.cls-14,.cls-15,.cls-17,.cls-18,.cls-20,.cls-21,.cls-23,.cls-24,.cls-25,.cls-27,.cls-30{fill:none;}.cls-2{fill:#357d74;}.cls-3{fill:#daa534;}.cls-4{clip-path:url(#clip-path);}.cls-5{fill:url(#linear-gradient);}.cls-6{fill:url(#linear-gradient-2);}.cls-7{fill:url(#linear-gradient-3);}.cls-8{fill:url(#linear-gradient-4);}.cls-9{fill:url(#linear-gradient-5);}.cls-10{fill:url(#linear-gradient-6);}.cls-11{fill:#c97475;}.cls-12{fill:#2f4862;}.cls-13{fill:#fff;}.cls-14,.cls-15,.cls-23,.cls-27{stroke:#dba634;}.cls-14,.cls-15,.cls-27{stroke-linecap:round;stroke-linejoin:round;stroke-width:1.99px;}.cls-15{stroke-dasharray:0 6.19;}.cls-16{fill:#dba634;}.cls-17,.cls-18,.cls-26{stroke:#5d9e9a;}.cls-17,.cls-18,.cls-20,.cls-21,.cls-23,.cls-24,.cls-25,.cls-26,.cls-30{stroke-miterlimit:10;}.cls-17{stroke-width:0.79px;}.cls-18{stroke-width:0.79px;}.cls-19{fill:#919a51;}.cls-20,.cls-24,.cls-30{stroke:#2f4862;}.cls-20{stroke-width:1.28px;}.cls-21{stroke:#fff;stroke-width:0.72px;}.cls-22,.cls-26{fill:#5d9e9a;}.cls-23,.cls-24{stroke-width:2.51px;}.cls-25{stroke:#c97475;}.cls-25,.cls-26{stroke-width:0.84px;}.cls-27{stroke-dasharray:0 6.19;}.cls-28{clip-path:url(#clip-path-2);}.cls-29{clip-path:url(#clip-path-3);}.cls-30{stroke-width:1.91px;}.cls-31{fill:url(#linear-gradient-7);}</style><clipPath id="clip-path"><path class="cls-1" d="M807,696.83c-97,41-104.68-44-145-44s-6.55.24-46.87.24-40.33,4.13-80.65,4.13-40.33,6.29-80.65,6.29c-17.19,0-32.27-33.69-32.27-69,0-107.6,4.67-107.6,4.67-215.2,0-34.62,10.13-58.14,27-58.14,38.7,0,38.7-8.11,77.4-8.11s38.7,2.45,77.41,2.45,38.7-5.32,77.41-5.32,38.7,2.37,77.4,2.37c19.07,0,33.73,35.82,33.73,75,0,57-.67,57-.67,114S951,541.85,951,598.83C951,622.58,817.68,692.32,807,696.83Z"/></clipPath><linearGradient id="linear-gradient" x1="3203.82" y1="585.72" x2="3204.48" y2="470.3" gradientTransform="matrix(-1, 0, 0, 1, 3949.01, 0)" gradientUnits="userSpaceOnUse"><stop offset="0.23" stop-color="#b66f1e" stop-opacity="0"/><stop offset="1" stop-color="#b66f1e" stop-opacity="0.8"/></linearGradient><linearGradient id="linear-gradient-2" x1="3657.73" y1="607.25" x2="3658.11" y2="542.05" xlink:href="#linear-gradient"/><linearGradient id="linear-gradient-3" x1="3746.09" y1="679.83" x2="3746.33" y2="637.43" xlink:href="#linear-gradient"/><linearGradient id="linear-gradient-4" x1="3507.46" y1="557.61" x2="3507.88" y2="485.57" xlink:href="#linear-gradient"/><linearGradient id="linear-gradient-5" x1="3184.89" y1="403.37" x2="3185.13" y2="360.97" xlink:href="#linear-gradient"/><linearGradient id="linear-gradient-6" x1="3415.37" y1="713.43" x2="3415.62" y2="671.03" xlink:href="#linear-gradient"/><clipPath id="clip-path-2"><path class="cls-1" d="M769.47,829.56c-39.35-21.08-58.55-4.79-112.46-24.77,27.21-10.3,49.12-.69,49.12-.69,4.53-2.64,5.51-8.72,5.39-14s-.72-10.93,2.17-15.31c2.21-3.35,6-5.21,9.67-6.91-13.71-3.85-28.37-1.73-42.22,1.6s-27.53,7.84-41.73,8.78c-13.11.87-32.48-.75-37.11-10.08-6.69-9.08-11-18.36-17.56-27.76C563.93,710.76,508,707,508,707c-1.88,4.62-6.86,10.74-6.86,10.74s20.1-2.54,50.13,12.52,24.17,48.1,50.54,79.19,69.91,27,87.69,28.12,26.17,9.3,40,27.4,34.84-1.41,34.84-1.41a97.42,97.42,0,0,1,37.14-16.75C784.76,841.06,769.47,829.56,769.47,829.56Z"/></clipPath><clipPath id="clip-path-3"><path class="cls-1" d="M475.24,742c-6.77,11-12.54,23-22.57,31.15-15.43,12.46-39.8,12-54.78-1-5.92-5.13-10.36-11.82-16.54-16.63a36.17,36.17,0,0,0-24.43-7.44c8.61-3.05,18.57-2.09,26.42-6.78,4.34-2.6,7.57-6.68,11.48-9.9s9.16-5.65,14-4c3.63,1.23,6.14,4.48,9.31,6.63,5.65,3.85,13,4,19.8,3.67a52,52,0,0,0,13.67-2c11.85-3.87,19.95-14.64,30.49-21.3,8-5,19.26-8.85,28.76-7.26-5.08,7-2.66,6.08-9.63,10.62C493.5,722.75,480,734.25,475.24,742Z"/></clipPath><linearGradient id="linear-gradient-7" x1="3347.82" y1="452.18" x2="3348.33" y2="362.59" xlink:href="#linear-gradient"/></defs><title>16</title><path class="cls-3" d="M776.45,653.64c-40.33,0-40.33-.77-80.65-.77s-40.32.2-80.64.2-40.33,4.13-80.65,4.13-40.33,6.29-80.65,6.29c-17.19,0-32.27-33.69-32.27-69,0-107.6,4.67-107.6,4.67-215.2,0-34.62,10.13-58.14,27-58.14,38.7,0,38.7-8.11,77.4-8.11s38.7,2.45,77.41,2.45,38.7-5.32,77.41-5.32,38.7,2.37,77.4,2.37c19.07,0,33.73,35.82,33.73,75,0,57-.67,57-.67,114s-1.29,57-1.29,113.95C794.63,639.18,788,653.64,776.45,653.64Z"/><g class="cls-4"><path class="cls-5" d="M613.32,552.57l0,0c.14-.25.3-.48.46-.72l0-.05c.16-.22.33-.43.5-.64a.3.3,0,0,0,.08-.08,6.88,6.88,0,0,1,.53-.55l.12-.12c.18-.16.35-.32.54-.46l.18-.14.53-.38.26-.16c.17-.1.34-.21.51-.3l.33-.16c.16-.07.32-.16.49-.22s.27-.1.4-.15a4,4,0,0,1,.45-.16l.5-.13.4-.1.62-.1.31,0c.32,0,.64,0,1,0a9.49,9.49,0,0,1,4.29,1,15.93,15.93,0,0,1,1-1.26A14.36,14.36,0,0,1,637.37,543a13.64,13.64,0,0,1,2.87.31c.31.06.61.13.92.22a14.32,14.32,0,0,1,20.56-9.81,23.23,23.23,0,0,1-.56-3.75c0-.48-.06-1-.06-1.45a22.82,22.82,0,0,1,29.23-21.94,24.22,24.22,0,0,1,.89-4.11,22.84,22.84,0,0,1,37.36-9.82c.27.25.53.51.79.78a34.56,34.56,0,0,1,7-5.06,34,34,0,0,1,41.14,6.74c.62.67,1.21,1.37,1.78,2.08a35.28,35.28,0,0,1,3,4.57,34.43,34.43,0,0,1,3.14,7.73,23.4,23.4,0,0,1,2.38-.13,22.86,22.86,0,0,1,20.54,12.88,14.1,14.1,0,0,1,7.6-.65,14.16,14.16,0,0,1,6.78,3.3,12.33,12.33,0,0,1,.91.86,14.36,14.36,0,0,1,3.85,7.89,14.33,14.33,0,0,1,21,8.2c.12.39.22.79.31,1.2a14.25,14.25,0,0,1,15.31,5.31,9.55,9.55,0,1,1,0,17,14.31,14.31,0,0,1-19.65,3.3,14.31,14.31,0,0,1-22.27,4.21,14.33,14.33,0,0,1-24.59,1.66,14.3,14.3,0,0,1-17.53-4,14.3,14.3,0,0,1-19.3,10.93,34.05,34.05,0,0,1-53.33-8.1,14.22,14.22,0,0,1-15.17,1.61,14.34,14.34,0,0,1-24.6-1.65,14.32,14.32,0,0,1-22.27-4.21,14.31,14.31,0,0,1-19.65-3.3A9.54,9.54,0,0,1,612,557.38,9.6,9.6,0,0,1,613.32,552.57Z"/><path class="cls-6" d="M216.78,588.53h0c.08-.14.17-.28.26-.41l0,0,.29-.36,0-.05.3-.31.07-.06.3-.27.11-.07a3.3,3.3,0,0,1,.3-.22l.14-.09.29-.17.18-.09.28-.12a1.57,1.57,0,0,1,.23-.09l.25-.09.28-.07.23-.06.35-.05.18,0,.54,0a5.46,5.46,0,0,1,2.42.57,8.29,8.29,0,0,1,5.53-3.23,7.95,7.95,0,0,1,2.61.11l.51.13a8.08,8.08,0,0,1,11.62-5.54,13.55,13.55,0,0,1-.32-2.12c0-.27,0-.55,0-.82a12.93,12.93,0,0,1,16.52-12.4,12.14,12.14,0,0,1,.5-2.32,12.91,12.91,0,0,1,21.1-5.55l.45.45a19.19,19.19,0,0,1,27.21,1c.35.37.69.77,1,1.17a18.67,18.67,0,0,1,1.72,2.58,19,19,0,0,1,1.77,4.37,12.21,12.21,0,0,1,1.35-.07,12.89,12.89,0,0,1,11.6,7.27,8.18,8.18,0,0,1,2.8-.51,8.29,8.29,0,0,1,1.5.14,8,8,0,0,1,3.83,1.87,5.9,5.9,0,0,1,.51.49,8.05,8.05,0,0,1,2.18,4.45,8,8,0,0,1,4.1-1.12,8.11,8.11,0,0,1,7.76,5.75c.07.23.12.45.17.68a8.09,8.09,0,0,1,8.66,3,5.27,5.27,0,0,1,2.42-.58,5.39,5.39,0,1,1,0,10.78,5.27,5.27,0,0,1-2.42-.58,8.09,8.09,0,0,1-11.11,1.87A8.08,8.08,0,0,1,334.82,600a8.09,8.09,0,0,1-13.89.94,8.07,8.07,0,0,1-9.9-2.24,8.08,8.08,0,0,1-10.9,6.18A19.24,19.24,0,0,1,270,600.32a8,8,0,0,1-8.57.91,8.1,8.1,0,0,1-13.9-.93,8,8,0,0,1-5.36,2,8.12,8.12,0,0,1-7.22-4.42,8.08,8.08,0,0,1-11.1-1.86,5.46,5.46,0,0,1-2.42.58,5.39,5.39,0,0,1-5.39-5.39A5.33,5.33,0,0,1,216.78,588.53Z"/><path class="cls-7" d="M154.48,667.66h0c.06-.09.11-.18.17-.26l0,0,.18-.24,0,0,.2-.2,0,0,.2-.17.07-.06.19-.14.09,0,.19-.11.12-.06.18-.08.15-.06.17-.06.18,0,.15,0,.22,0h.12a2.06,2.06,0,0,1,.35,0,3.64,3.64,0,0,1,1.58.37c.12-.16.25-.31.38-.46a5.33,5.33,0,0,1,3.21-1.64c.21,0,.42,0,.64,0a5.29,5.29,0,0,1,1.06.11c.11,0,.22,0,.33.09a5.29,5.29,0,0,1,5.16-4.19,5.22,5.22,0,0,1,2.4.58,7.67,7.67,0,0,1-.21-1.37c0-.18,0-.36,0-.54a8.4,8.4,0,0,1,8.4-8.4,8.59,8.59,0,0,1,2.34.34,7.67,7.67,0,0,1,.33-1.51,8.38,8.38,0,0,1,13.72-3.6,3.83,3.83,0,0,1,.29.28,13.11,13.11,0,0,1,2.58-1.86,12.51,12.51,0,0,1,15.12,2.48c.23.25.44.5.65.76a12.58,12.58,0,0,1,1.12,1.68,11.91,11.91,0,0,1,1.15,2.84,8.64,8.64,0,0,1,.88,0,8.35,8.35,0,0,1,5.44,2,8.56,8.56,0,0,1,2.11,2.73,5.24,5.24,0,0,1,5.28,1,3.34,3.34,0,0,1,.33.32,5.21,5.21,0,0,1,1.42,2.89,5.26,5.26,0,0,1,7.71,3,3.15,3.15,0,0,1,.11.44,5,5,0,0,1,1.4-.2,5.26,5.26,0,0,1,4.23,2.15,3.51,3.51,0,1,1,0,6.25,5.25,5.25,0,0,1-7.22,1.22,5.26,5.26,0,0,1-8.18,1.54,5.26,5.26,0,0,1-9,.61,5.31,5.31,0,0,1-2.32.54,5.25,5.25,0,0,1-4.12-2,5.27,5.27,0,0,1-5.19,4.37,5.22,5.22,0,0,1-1.9-.36,12.51,12.51,0,0,1-19.59-3,5.26,5.26,0,0,1-5.58.59,5.26,5.26,0,0,1-9-.61,5.26,5.26,0,0,1-8.18-1.54,5.28,5.28,0,0,1-7.22-1.22,3.5,3.5,0,0,1-5.08-3.13A3.42,3.42,0,0,1,154.48,667.66Z"/><path class="cls-8" d="M359.24,536.92h0c.09-.15.19-.3.29-.45l0,0c.1-.14.2-.27.31-.4l.05,0a3.51,3.51,0,0,1,.33-.34l.08-.08c.1-.1.21-.19.33-.29l.12-.08a2,2,0,0,1,.33-.24l.15-.1.33-.19.2-.09.3-.15.26-.09.28-.1.31-.08.25-.06c.13,0,.26,0,.39-.06l.19,0,.6,0a5.84,5.84,0,0,1,2.67.64,10.22,10.22,0,0,1,.66-.79,8.93,8.93,0,0,1,5.45-2.78,7.88,7.88,0,0,1,1.09-.07,8.84,8.84,0,0,1,1.79.19l.58.14a9,9,0,0,1,8.76-7.11,8.84,8.84,0,0,1,4.07,1,13.9,13.9,0,0,1-.35-2.34c0-.3,0-.61,0-.91a14.22,14.22,0,0,1,18.24-13.69,14.68,14.68,0,0,1,.55-2.57,14.26,14.26,0,0,1,23.32-6.13c.17.16.33.32.49.49a21.76,21.76,0,0,1,4.39-3.16,21.19,21.19,0,0,1,25.68,4.21c.39.42.76.85,1.11,1.3a21.15,21.15,0,0,1,1.91,2.85,20.9,20.9,0,0,1,1.95,4.82,14.76,14.76,0,0,1,1.5-.08A14.27,14.27,0,0,1,481,518a9,9,0,0,1,4.75-.41,8.94,8.94,0,0,1,4.23,2.06l.57.54a9,9,0,0,1,2.4,4.93,8.84,8.84,0,0,1,4.53-1.24,9,9,0,0,1,8.57,6.35c.08.25.14.5.2.75a9.14,9.14,0,0,1,2.36-.32,8.93,8.93,0,0,1,7.2,3.64,5.84,5.84,0,0,1,2.67-.64,6,6,0,1,1-2.67,11.27A8.93,8.93,0,0,1,503.56,547a8.93,8.93,0,0,1-13.9,2.62,8.95,8.95,0,0,1-15.35,1,8.91,8.91,0,0,1-10.94-2.47,8.92,8.92,0,0,1-12,6.82A21.25,21.25,0,0,1,418,550a8.85,8.85,0,0,1-5.54,1.93,9,9,0,0,1-3.93-.92,8.94,8.94,0,0,1-15.35-1,8.94,8.94,0,0,1-13.9-2.63,8.93,8.93,0,0,1-12.27-2.06,5.84,5.84,0,0,1-2.67.64,6,6,0,0,1-5.95-6A6,6,0,0,1,359.24,536.92Z"/><path class="cls-9" d="M715.68,391.2h0c.05-.09.11-.18.17-.27l0,0c0-.08.12-.15.18-.23l0,0a1.8,1.8,0,0,1,.19-.2l.05-.05.2-.17.06-.05.2-.14.09,0,.19-.12.12-.05.18-.09.15-.05.16-.06.18-.05.15,0,.23,0,.12,0h.35a3.43,3.43,0,0,1,1.57.37,5.58,5.58,0,0,1,.39-.46,5.18,5.18,0,0,1,3.21-1.64,4.49,4.49,0,0,1,.64,0,5.19,5.19,0,0,1,1,.11l.34.08a5.27,5.27,0,0,1,5.16-4.18,5.21,5.21,0,0,1,2.39.58,9,9,0,0,1-.2-1.38c0-.17,0-.35,0-.53a8.4,8.4,0,0,1,8.39-8.4,8.29,8.29,0,0,1,2.35.34,8.34,8.34,0,0,1,8.32-7.37,8.33,8.33,0,0,1,5.72,2.25l.3.29a12.47,12.47,0,0,1,17.69.62c.23.24.45.5.66.76a12.58,12.58,0,0,1,1.12,1.68,12.81,12.81,0,0,1,1.15,2.84,8.49,8.49,0,0,1,.88-.05,8.43,8.43,0,0,1,7.54,4.73,5.24,5.24,0,0,1,1.82-.33,5.15,5.15,0,0,1,1,.09,5.29,5.29,0,0,1,2.5,1.22l.33.31a5.33,5.33,0,0,1,1.41,2.9,5.27,5.27,0,0,1,7.72,3c0,.15.08.29.11.44a5.25,5.25,0,0,1,5.63,1.95,3.43,3.43,0,0,1,1.57-.37,3.51,3.51,0,1,1,0,7,3.43,3.43,0,0,1-1.57-.38,5.26,5.26,0,0,1-4.24,2.14,5.19,5.19,0,0,1-3-.93,5.25,5.25,0,0,1-8.18,1.55,35.31,35.31,0,0,0-11.35,1.15,5.26,5.26,0,0,1-4.13-2,5.26,5.26,0,0,1-5.19,4.38,5.17,5.17,0,0,1-1.89-.36,12.52,12.52,0,0,1-19.6-3,14,14,0,0,0-9.91,2.88,5.28,5.28,0,0,1-4.7-2.89,5.25,5.25,0,0,1-8.18-1.55,5.19,5.19,0,0,1-3,.93,5.26,5.26,0,0,1-4.24-2.14,3.43,3.43,0,0,1-1.57.38,3.51,3.51,0,0,1-3.51-3.51A3.4,3.4,0,0,1,715.68,391.2Z"/><path class="cls-10" d="M485.19,701.26h0a2.33,2.33,0,0,1,.17-.26v0l.19-.24,0,0a1.8,1.8,0,0,1,.19-.2.1.1,0,0,1,0,0,1.54,1.54,0,0,1,.19-.17l.07-.06.2-.14.09-.05a1.18,1.18,0,0,1,.19-.11l.12-.06.18-.08.14-.06.17-.06.18,0,.15,0,.23,0h.11l.36,0a3.47,3.47,0,0,1,1.57.38,4.42,4.42,0,0,1,.39-.47,5.28,5.28,0,0,1,3.2-1.64c.21,0,.43,0,.64,0a5.22,5.22,0,0,1,1.06.11l.34.09a5.27,5.27,0,0,1,5.15-4.19,5.22,5.22,0,0,1,2.4.58,10,10,0,0,1-.21-1.37c0-.18,0-.36,0-.54a8.38,8.38,0,0,1,8.39-8.39,8.59,8.59,0,0,1,2.34.33,9.43,9.43,0,0,1,.33-1.51,8.38,8.38,0,0,1,13.72-3.6,3.83,3.83,0,0,1,.29.28,12.89,12.89,0,0,1,2.59-1.86,12.5,12.5,0,0,1,15.11,2.48c.23.25.45.5.66.76a13.63,13.63,0,0,1,1.12,1.68,12.81,12.81,0,0,1,1.15,2.84,8.51,8.51,0,0,1,.88,0,8.32,8.32,0,0,1,5.43,2,8.42,8.42,0,0,1,2.11,2.73,5.24,5.24,0,0,1,1.82-.33,5.25,5.25,0,0,1,3.46,1.3c.12.1.23.21.34.32a5.27,5.27,0,0,1,1.41,2.89,5.26,5.26,0,0,1,7.71,3,3.17,3.17,0,0,1,.12.44,4.92,4.92,0,0,1,1.39-.2,5.24,5.24,0,0,1,4.23,2.15,3.51,3.51,0,1,1,0,6.25,5.25,5.25,0,0,1-7.22,1.22,5.26,5.26,0,0,1-8.18,1.54,5.26,5.26,0,0,1-9,.61,5.26,5.26,0,0,1-6.44-1.45,5.25,5.25,0,0,1-7.09,4,12.51,12.51,0,0,1-19.59-3,5.24,5.24,0,0,1-5.57.59,5.27,5.27,0,0,1-9-.61,5.26,5.26,0,0,1-8.18-1.54,5.25,5.25,0,0,1-7.22-1.22,3.47,3.47,0,0,1-1.57.38,3.5,3.5,0,0,1-3-5.27Z"/><path class="cls-11" d="M690.54,488.43l.18,44.29c0,4.13,6.44,4.14,6.42,0L697,488.43c0-4.13-6.43-4.14-6.42,0Z"/><path class="cls-12" d="M627,408.74c-7.62,2.58-14.34,7.23-20.94,11.82-5,3.48-16.64,15.68-18.82,19.51-3.72,6.55-9.66,16.25-12.15,23.35-4.31,12.3-6.73,25.33-12.73,36.9s-16.79,21.84-29.81,22.41c1,10.41,2.52,21.76,10.07,29a32.33,32.33,0,0,0,12.21,6.85A57.42,57.42,0,0,0,584,560.44a17.48,17.48,0,0,0,12.74-8.19c7.85-10.71,11.57-23.81,15.11-36.61,1.38-5,2.76-10,3.07-15.18.45-7.54-1.38-15-2-22.52-1.63-19.3,4.73-38.59,14.34-55.4a49,49,0,0,1,6.72-9.43c2.15-2.26,6.62-4,7.91-6.72C637.42,405.52,631.26,407.29,627,408.74Z"/><path class="cls-13" d="M845.37,592,765.7,653.24a10.37,10.37,0,0,1-11.68.66c-20-12-83.18-50.06-97.53-58.72-8.83-5.34-19.56-7.54-27.87-8.43h0a99.59,99.59,0,0,0-12.12-.56l-32.65-1.5c-24-.67-32.26,34.95-32.26,34.95l-1.47,18c-2.26,4.35-.83,9.89,2.21,13.75s7.41,6.38,11.67,8.83c8,4.61,16.27,9.29,25.36,11.11,8.32,1.68,16.93.86,25.34-.36,10.28-1.5-20.89-36.81-10.85-39.51,7.11-1.91,9.39,2.27,11.48-4.78,1.48-5,46.5,15.52,44.42,10.72l-.08-.18,89.55,49.49a20.41,20.41,0,0,0,24-3.13l81.46-78.1Z"/><line class="cls-14" x1="689.52" y1="617.71" x2="689.52" y2="617.71"/><path class="cls-15" d="M684.21,620.87c-7.15,5.64-9.27,14.18-9.9,18.71"/><line class="cls-14" x1="674.05" y1="642.66" x2="674.05" y2="642.66"/><path class="cls-16" d="M682.12,649.43c0-.78,1.3-21.24,18-28.45l-5-2.82c-15.44,7.61-17.64,23.45-17.94,28.71"/><circle class="cls-12" cx="644.38" cy="448.47" r="42.7" transform="translate(-128.38 587) rotate(-45)"/><path class="cls-13" d="M845.13,594.08,756,640.46a10.39,10.39,0,0,1-11.62-1.39c-17.55-15.33-73.12-63.86-85.73-74.9-7.76-6.8-17.94-10.85-26-13.18h0a95.63,95.63,0,0,0-11.83-2.67l-31.88-7.2c-23.48-4.86-37.88,28.76-37.88,28.76l-4.61,17.48c-3,3.89-2.55,9.59-.23,13.92s6.17,7.59,9.94,10.74c7.11,6,14.39,12,23,15.38,7.9,3.11,16.52,3.82,25,4.08a263.65,263.65,0,0,0,31.17-.86c7.33-.63,15.8-2.35,19.09-8.94,2.34-4.68,1.18-10.26,0-15.35l0-.19,79.5,64.41a20.41,20.41,0,0,0,24.18,1.12l93.89-62.62Z"/><path class="cls-13" d="M843.92,593.22c2-1.24,1.42-4.36,1.91-6.69s4-3.22,4-5.61c.14-4.54,2-12.67,3.93-18.62a1.24,1.24,0,0,1,2.41.19,170.09,170.09,0,0,1,2,29.82,49.18,49.18,0,0,1-1.14,8.87c-.7,3.24-1.1,5.65-7.42,9.26"/><path class="cls-13" d="M687.41,437.85l11.48,25.38s12.77,67.34-30.8,82.06c-33.9,11.46-58.73-29.5-58.73-29.5s-7.1-12.95-10.28-20.21a32.66,32.66,0,0,1-1.63-4.7l-2.94-11.1.87-11.46,8.67-6,9.29-4.78,15.85-11.37Z"/><path class="cls-12" d="M698.54,457.41s-6.83-43.18-48.37-51.24l-28.06,30.38s-8.69,13.21-8.69,14.16,6.93,4.79,6.93,4.79l16.5-6.22,22.45-5,13.09,9.12,6.06,5.92Z"/><path class="cls-17" d="M619,426.16a20,20,0,0,0-4.09,5.28"/><path class="cls-17" d="M672.24,453.1c0-18.17-19.38-30.85-28.32-33.31a25.51,25.51,0,0,0-10.79-1,23.47,23.47,0,0,0-5.5,1.68"/><path class="cls-18" d="M658.63,445.26c-8.57-12.87-19.27-15.72-24.51-15.43-6,.32-15.34,4.88-20.38,13.64"/><path class="cls-17" d="M683.71,456c2.87-10.52-6.07-22.83-7.65-24.86-6.68-8.63-16-14.26-26.37-17.64"/><polygon class="cls-13" points="624.9 524.91 612.03 556.98 596.83 546.95 606.9 504.61 624.9 524.91"/><path class="cls-19" d="M660.42,627.23c-.69-7.63-1.57-15.81-6.63-21.56l-16.65-9.6a197.09,197.09,0,0,0-19.57-9.89,5.27,5.27,0,0,1-2.5-7.4c5.32-9.47,13.69-21.54,23.58-25.83l-6-2s-12.36,3.37-27,30.43A198.34,198.34,0,0,0,580.17,574a5.42,5.42,0,0,1-3.52-8c5.45-9.37,12.88-19.36,21.24-22.88l-7.32-1.65s-10.5,4.24-24.7,30c-4.91-.71-9.85-1.25-14.82-1.58h0c-3.73,7.52-11.8,24.32-15.76,34.94-15.85,42.47-17.47,85.06-29.38,106.45l84.56,38.12L590,748a55.59,55.59,0,0,1,9.41-50.92,123.72,123.72,0,0,1,8.65-9.67c12.36-12.53,27.28-22.16,41.62-32.34,2.87-2,5.77-4.16,7.77-7.06C661.53,642.1,661.06,634.34,660.42,627.23Z"/><path class="cls-20" d="M671.27,518.46a28.79,28.79,0,0,0,14-.92,3.45,3.45,0,0,0,2.22-2.06c.64-1.76-.69-3-1.81-4a23.26,23.26,0,0,1-5.57-7.51c-.18-.4-.35-.82-.51-1.25a30.13,30.13,0,0,1,.07-20.66h0a14,14,0,0,1,10.58-9l7.07-1.34"/><path class="cls-12" d="M663.24,491.63a30.92,30.92,0,0,0-4.33-5.07,27.55,27.55,0,0,0-5.32-4,20.19,20.19,0,0,0-6.07-2.31l-1.59-.28-1.61-.09c-.27,0-.53,0-.8,0l-.81.06-1.6.11-.37-3.22,1.88-.06.93,0c.31,0,.62.05.94.07l1.86.18,1.83.4a23.48,23.48,0,0,1,6.79,2.88,30.76,30.76,0,0,1,5.65,4.56,31.59,31.59,0,0,1,4.47,5.7Z"/><path class="cls-12" d="M696.8,484.93l-1.88.25c-.6.13-1.22.26-1.82.41a15.12,15.12,0,0,0-3.4,1.37,10.26,10.26,0,0,0-2.77,2.24,8.85,8.85,0,0,0-1,1.45,6.38,6.38,0,0,0-.59,1.52l-2.14-.27a8,8,0,0,1,.71-2.25,10.75,10.75,0,0,1,1.18-1.92,12.74,12.74,0,0,1,3.28-2.94,17.94,17.94,0,0,1,3.93-1.82c.68-.2,1.37-.38,2.06-.56l2.08-.38Z"/><circle class="cls-16" cx="639.61" cy="507.58" r="12.47"/><path class="cls-21" d="M622.42,473.77s-10.36-13.15-19.91-7.22,3,22.38,6.85,25.49"/><path class="cls-22" d="M475.24,742c-6.77,11-12.54,23-22.57,31.15-15.43,12.46-39.8,12-54.78-1-5.92-5.13-10.36-11.82-16.54-16.63a36.17,36.17,0,0,0-24.43-7.44c8.61-3.05,18.57-2.09,26.42-6.78,4.34-2.6,7.57-6.68,11.48-9.9s9.16-5.65,14-4c3.63,1.23,6.14,4.48,9.31,6.63,5.65,3.85,13,4,19.8,3.67a52,52,0,0,0,13.67-2c11.85-3.87,19.95-14.64,30.49-21.3,8-5,19.26-8.85,28.76-7.26-5.08,7-2.66,6.08-9.63,10.62C493.5,722.75,480,734.25,475.24,742Z"/><path class="cls-16" d="M623.16,459.27s33-22.6,55,4.29c0,0,5.64-10.08,20.7-.33l-.67-6.63s-9.63-7.81-19.2-2.41c0,0-21.94-23.31-59.32-1.24Z"/><path class="cls-13" d="M566.5,876.13s-70.42-15.36-95-27.06c-15.33-7.28-26.21-7.62-29.4,8.35s.18,19.27-.43,41.49c-.91,32.94-10.42,31.86-4.21,42.75,2.19,3.84,9.37,5.24,13.86,6,0,0,24.47,2.07,20.57-7.38a7.24,7.24,0,0,0-6-4.29c-4.72-.5-11.18-1-11.1-7.83.12-9.5,5.83-46.57,15.54-43.38,15.05,5,102.84,24.22,102.84,24.22l-16.23-19Z"/><path class="cls-12" d="M584.74,740.46c-.65,19.91,35.55,54.18,57.52,71.85s98.39,80.61,112,97.45,6.48,32.25,4.91,38.85S741,957.43,741,957.43c-24.19,2.83-101.31-3-135.51-6.09-53.42-4.84-96.83,3.78-96.83,3.78S537.47,900,532,867.94c-.9-5.24-18.6-14.94-18.6-14.94-32.63-13.85-45.64-42.78-45.64-42.78C456,784.33,481,745.31,481,745.31l24.91-34Z"/><path class="cls-22" d="M769.47,829.56c-39.35-21.08-58.55-4.79-112.46-24.77,27.21-10.3,49.12-.69,49.12-.69,4.53-2.64,5.51-8.72,5.39-14s-.72-10.93,2.17-15.31c2.21-3.35,6-5.21,9.67-6.91-13.71-3.85-28.37-1.73-42.22,1.6s-27.53,7.84-41.73,8.78c-13.11.87-31.38.05-37.11-10.08-6.69-9.08-11-18.36-17.56-27.76C563.93,710.76,508,707,508,707c-1.88,4.62-6.86,10.74-6.86,10.74s20.1-2.54,50.13,12.52,24.17,48.1,50.54,79.19,69.91,27,87.69,28.12,26.17,9.3,40,27.4,34.84-1.41,34.84-1.41a97.42,97.42,0,0,1,37.14-16.75C784.76,841.06,769.47,829.56,769.47,829.56Z"/><path class="cls-16" d="M562.24,873.53c27.44,6.51,54.8,13.35,82,21,13.57,3.84,27.1,7.87,40.45,12.47,6.67,2.31,13.31,4.75,19.8,7.61a85,85,0,0,1,9.52,4.82,27.46,27.46,0,0,1,4.4,3.21,9.59,9.59,0,0,1,1.84,2.22,3.89,3.89,0,0,1,.44,3.19l-1.54-.51c.42-1.16-.67-2.61-1.86-3.7a26.17,26.17,0,0,0-4.15-3,83.23,83.23,0,0,0-9.35-4.68c-6.43-2.78-13-5.18-19.7-7.45-13.32-4.51-26.84-8.46-40.4-12.23-27.15-7.49-54.53-14.19-82-20.55Z"/><path class="cls-23" d="M541.75,870.15c3,.66,7.89,1.75,14.14,3.18"/><path class="cls-12" d="M658.66,806.73c-4.13-1.26-8.08-2.75-12-4.39s-7.76-3.49-11.5-5.5a109.73,109.73,0,0,1-10.88-6.64,89,89,0,0,1-9.93-8l1.11-1.18a87.24,87.24,0,0,0,9.86,7.69,107.92,107.92,0,0,0,10.8,6.35q5.58,2.87,11.41,5.2a123,123,0,0,0,11.8,4.09Z"/><line class="cls-24" x1="501.18" y1="717.73" x2="508.04" y2="706.99"/><ellipse class="cls-25" cx="556.79" cy="906.06" rx="7.05" ry="1.96" transform="translate(-355.09 1453.26) rotate(-89.4)"/><ellipse class="cls-25" cx="556.57" cy="927.06" rx="7.05" ry="1.96" transform="translate(-376.31 1473.81) rotate(-89.4)"/><ellipse class="cls-25" cx="567.18" cy="916.67" rx="1.96" ry="7.05" transform="translate(-355.42 1474.14) rotate(-89.4)"/><ellipse class="cls-25" cx="546.18" cy="916.45" rx="1.96" ry="7.05" transform="translate(-375.98 1452.93) rotate(-89.4)"/><ellipse class="cls-25" cx="679" cy="922.91" rx="7.05" ry="1.96" transform="translate(-251.02 1592.14) rotate(-89.4)"/><ellipse class="cls-25" cx="678.78" cy="943.9" rx="7.05" ry="1.96" transform="translate(-272.23 1612.69) rotate(-89.4)"/><ellipse class="cls-25" cx="689.39" cy="933.52" rx="1.96" ry="7.05" transform="translate(-251.35 1613.02) rotate(-89.4)"/><ellipse class="cls-25" cx="668.4" cy="933.3" rx="1.96" ry="7.05" transform="translate(-271.9 1591.81) rotate(-89.4)"/><ellipse class="cls-25" cx="554.76" cy="781.11" rx="5.03" ry="1.4" transform="translate(-232.17 1327.6) rotate(-89.4)"/><ellipse class="cls-25" cx="554.6" cy="796.1" rx="5.03" ry="1.4" transform="translate(-247.3 1342.27) rotate(-89.4)"/><ellipse class="cls-25" cx="562.17" cy="788.69" rx="1.4" ry="5.03" transform="translate(-232.4 1342.5) rotate(-89.4)"/><ellipse class="cls-25" cx="547.19" cy="788.53" rx="1.4" ry="5.03" transform="translate(-247.07 1327.37) rotate(-89.4)"/><ellipse class="cls-25" cx="491.75" cy="791.73" rx="4.33" ry="1.2" transform="matrix(0.01, -1, 1, 0.01, -305.12, 1275.09)"/><ellipse class="cls-25" cx="491.61" cy="804.61" rx="4.33" ry="1.2" transform="translate(-318.14 1287.71) rotate(-89.4)"/><ellipse class="cls-25" cx="498.12" cy="798.24" rx="1.2" ry="4.33" transform="translate(-305.32 1287.91) rotate(-89.4)"/><ellipse class="cls-25" cx="485.24" cy="798.1" rx="1.2" ry="4.33" transform="translate(-317.94 1274.89) rotate(-89.4)"/><ellipse class="cls-25" cx="739.77" cy="925.35" rx="3.4" ry="0.94" transform="matrix(0.01, -1, 1, 0.01, -193.33, 1655.32)"/><ellipse class="cls-25" cx="739.67" cy="935.47" rx="3.4" ry="0.94" transform="translate(-203.56 1665.23) rotate(-89.4)"/><ellipse class="cls-25" cx="744.78" cy="930.46" rx="0.94" ry="3.4" transform="translate(-193.49 1665.39) rotate(-89.4)"/><ellipse class="cls-25" cx="734.66" cy="930.36" rx="0.94" ry="3.4" transform="translate(-203.4 1655.16) rotate(-89.4)"/><ellipse class="cls-25" cx="604.73" cy="845.86" rx="5.03" ry="1.4" transform="translate(-247.46 1441.64) rotate(-89.4)"/><ellipse class="cls-25" cx="604.58" cy="860.84" rx="5.03" ry="1.4" transform="translate(-262.6 1456.31) rotate(-89.4)"/><ellipse class="cls-25" cx="612.15" cy="853.43" rx="1.4" ry="5.03" transform="translate(-247.7 1456.54) rotate(-89.4)"/><ellipse class="cls-25" cx="597.16" cy="853.27" rx="1.4" ry="5.03" transform="translate(-262.36 1441.4) rotate(-89.4)"/><ellipse class="cls-26" cx="510.92" cy="749.74" rx="7.05" ry="1.96" transform="translate(-244.17 1252.73) rotate(-89.4)"/><ellipse class="cls-26" cx="510.7" cy="770.74" rx="7.05" ry="1.96" transform="translate(-265.38 1273.28) rotate(-89.4)"/><ellipse class="cls-26" cx="521.31" cy="760.35" rx="1.96" ry="7.05" transform="translate(-244.5 1273.61) rotate(-89.4)"/><ellipse class="cls-26" cx="500.32" cy="760.13" rx="1.96" ry="7.05" transform="translate(-265.05 1252.4) rotate(-89.4)"/><ellipse class="cls-26" cx="534.16" cy="821.82" rx="7.05" ry="1.96" transform="translate(-293.25 1347.28) rotate(-89.4)"/><ellipse class="cls-26" cx="533.94" cy="842.81" rx="7.05" ry="1.96" transform="translate(-314.46 1367.83) rotate(-89.4)"/><ellipse class="cls-26" cx="544.54" cy="832.42" rx="1.96" ry="7.05" transform="translate(-293.58 1368.16) rotate(-89.4)"/><ellipse class="cls-26" cx="523.55" cy="832.2" rx="1.96" ry="7.05" transform="translate(-314.13 1346.94) rotate(-89.4)"/><ellipse class="cls-26" cx="652.9" cy="855.53" rx="7.05" ry="1.96" transform="translate(-209.47 1499.37) rotate(-89.4)"/><ellipse class="cls-26" cx="652.68" cy="876.53" rx="7.05" ry="1.96" transform="translate(-230.68 1519.92) rotate(-89.4)"/><ellipse class="cls-26" cx="663.29" cy="866.14" rx="1.96" ry="7.05" transform="translate(-209.8 1520.25) rotate(-89.4)"/><ellipse class="cls-26" cx="642.29" cy="865.92" rx="1.96" ry="7.05" transform="translate(-230.35 1499.04) rotate(-89.4)"/><ellipse class="cls-26" cx="694.92" cy="877.14" rx="5.03" ry="1.4" transform="translate(-189.5 1562.77) rotate(-89.4)"/><ellipse class="cls-26" cx="694.76" cy="892.12" rx="5.03" ry="1.4" transform="translate(-204.64 1577.43) rotate(-89.4)"/><ellipse class="cls-26" cx="702.33" cy="884.71" rx="1.4" ry="5.03" transform="translate(-189.74 1577.67) rotate(-89.4)"/><ellipse class="cls-26" cx="687.35" cy="884.55" rx="1.4" ry="5.03" transform="translate(-204.4 1562.53) rotate(-89.4)"/><ellipse class="cls-26" cx="581.82" cy="817.44" rx="3.4" ry="0.94" transform="matrix(0.01, -1, 1, 0.01, -241.71, 1390.61)"/><ellipse class="cls-26" cx="581.71" cy="827.57" rx="3.4" ry="0.94" transform="translate(-251.94 1400.52) rotate(-89.4)"/><ellipse class="cls-26" cx="586.83" cy="822.56" rx="0.94" ry="3.4" transform="translate(-241.87 1400.68) rotate(-89.4)"/><ellipse class="cls-26" cx="576.7" cy="822.45" rx="0.94" ry="3.4" transform="translate(-251.78 1390.45) rotate(-89.4)"/><ellipse class="cls-26" cx="602.48" cy="929.21" rx="3.4" ry="0.94" transform="translate(-333.04 1521.85) rotate(-89.4)"/><ellipse class="cls-26" cx="602.37" cy="939.33" rx="3.4" ry="0.94" transform="translate(-343.27 1531.76) rotate(-89.4)"/><ellipse class="cls-26" cx="607.48" cy="934.33" rx="0.94" ry="3.4" transform="translate(-333.2 1531.92) rotate(-89.4)"/><ellipse class="cls-26" cx="597.36" cy="934.22" rx="0.94" ry="3.4" transform="translate(-343.11 1521.69) rotate(-89.4)"/><ellipse class="cls-26" cx="634.32" cy="907.03" rx="5.03" ry="1.4" transform="matrix(0.01, -1, 1, 0.01, -279.34, 1531.75)"/><ellipse class="cls-26" cx="634.17" cy="922.01" rx="5.03" ry="1.4" transform="translate(-294.48 1546.41) rotate(-89.4)"/><ellipse class="cls-26" cx="641.74" cy="914.6" rx="1.4" ry="5.03" transform="translate(-279.58 1546.65) rotate(-89.4)"/><ellipse class="cls-26" cx="626.75" cy="914.44" rx="1.4" ry="5.03" transform="translate(-294.25 1531.51) rotate(-89.4)"/><path class="cls-16" d="M587.74,735.93l.14,1.55c0-.21-6.35-22.19-51.57-32.41-.15,0-17.11-3.78-26.25-3.09l1.68-5c10.48.64,18.7,1.74,33.23,6.18,26.77,8.16,39.15,22.1,42.59,28.88"/><polygon class="cls-12" points="609.53 519.46 603.85 538.82 602.51 538.45 607.45 518.89 609.53 519.46"/><path class="cls-1" d="M607.15,514.14c-4-3.65-9.17-5.6-14.26-7.36-3.43-1.2-6.94-2.36-10.57-2.43a20.73,20.73,0,0,0-15.5,7.08,27.91,27.91,0,0,0-6.61,16,21.6,21.6,0,0,0,2.17,12.51c3.69,6.62,11.45,9.64,18.61,12.17,1.8.64,3.75,1.28,5.6.76"/><line class="cls-14" x1="685.71" y1="590.79" x2="685.71" y2="590.79"/><path class="cls-27" d="M679.86,592.78c-8.17,4-12,12-13.56,16.25"/><line class="cls-14" x1="665.4" y1="611.99" x2="665.4" y2="611.99"/><path class="cls-16" d="M671.89,620.28c.15-.76,5.67-20.51,23.48-24.1l-4.34-3.8c-16.68,4.24-22.12,19.28-23.5,24.37"/><path class="cls-16" d="M842.72,615.2,840.09,617c1.19-4.16.84-8.56-.79-11-2.34-3.5-9-5.38-7.37-5l2.26-1.2c.23,0,4.17.35,7.17,4.81C843.44,607.62,844.13,610.28,842.72,615.2Z"/><ellipse class="cls-23" cx="571.12" cy="851.09" rx="3.4" ry="0.94" transform="matrix(0.01, -1, 1, 0.01, -285.94, 1413.2)"/><ellipse class="cls-23" cx="540.85" cy="748.26" rx="3.4" ry="0.94" transform="translate(-213.07 1281.19) rotate(-89.4)"/><ellipse class="cls-23" cx="720.35" cy="898.26" rx="3.4" ry="0.94" transform="translate(-185.46 1609.09) rotate(-89.4)"/><ellipse class="cls-23" cx="631.55" cy="848.33" rx="0.94" ry="3.4" transform="translate(-223.39 1470.89) rotate(-89.4)"/><ellipse class="cls-23" cx="525.07" cy="794.58" rx="0.94" ry="3.4" transform="matrix(0.01, -1, 1, 0.01, -275.01, 1311.24)"/><ellipse class="cls-23" cx="717.14" cy="941.38" rx="0.94" ry="3.4" transform="matrix(0.01, -1, 1, 0.01, -231.75, 1648.55)"/><ellipse class="cls-23" cx="596.67" cy="902.43" rx="0.94" ry="3.4" transform="translate(-312 1489.55) rotate(-89.4)"/><g class="cls-28"><path class="cls-13" d="M769.38,882a.13.13,0,0,1-.13-.12.13.13,0,0,1,.13-.13.12.12,0,0,1,.12.13A.12.12,0,0,1,769.38,882Z"/><circle class="cls-13" cx="755.97" cy="871.08" r="0.33"/><path class="cls-13" d="M744.14,859.1a.52.52,0,0,1-.52-.53.53.53,0,0,1,1,0A.53.53,0,0,1,744.14,859.1Z"/><path class="cls-13" d="M732.23,846.85a.7.7,0,1,1,.7-.7A.7.7,0,0,1,732.23,846.85Z"/><path class="cls-13" d="M718.53,836.65a.85.85,0,1,1,.85-.85A.85.85,0,0,1,718.53,836.65Z"/><circle class="cls-13" cx="702.37" cy="830.07" r="1"/><circle class="cls-13" cx="685.24" cy="828.7" r="1.19"/><path class="cls-13" d="M668,830.12a1.3,1.3,0,1,1,1.29-1.29A1.29,1.29,0,0,1,668,830.12Z"/><path class="cls-13" d="M650.89,828.5a1.12,1.12,0,1,1,1.12-1.12A1.11,1.11,0,0,1,650.89,828.5Z"/><circle class="cls-13" cx="634.85" cy="821.38" r="0.75"/><circle class="cls-13" cx="623" cy="809.17" r="0.13"/><path class="cls-13" d="M804.81,868a.16.16,0,0,1-.16-.16.16.16,0,0,1,.16-.17.16.16,0,0,1,.17.17A.16.16,0,0,1,804.81,868Z"/><path class="cls-13" d="M787.61,863.58a.71.71,0,1,1,.71-.71A.71.71,0,0,1,787.61,863.58Z"/><path class="cls-13" d="M771.73,855.77a1.14,1.14,0,1,1,1.13-1.14A1.14,1.14,0,0,1,771.73,855.77Z"/><path class="cls-13" d="M757.73,845.06a1.59,1.59,0,1,1,1.59-1.58A1.58,1.58,0,0,1,757.73,845.06Z"/><path class="cls-13" d="M743.21,834.61a1.52,1.52,0,1,1,1.52-1.52A1.52,1.52,0,0,1,743.21,834.61Z"/><path class="cls-13" d="M726,828.68a.17.17,0,0,1-.17-.17.16.16,0,0,1,.17-.16.16.16,0,0,1,.16.16A.17.17,0,0,1,726,828.68Z"/><path class="cls-13" d="M720.64,801.26a.18.18,0,0,1-.17-.17.17.17,0,0,1,.34,0A.18.18,0,0,1,720.64,801.26Z"/><path class="cls-13" d="M705.6,794.59a.85.85,0,0,1-.84-.84.84.84,0,0,1,.84-.83.83.83,0,0,1,.83.83A.84.84,0,0,1,705.6,794.59Z"/><path class="cls-13" d="M689.28,791.33a1.34,1.34,0,1,1,1.33-1.34A1.34,1.34,0,0,1,689.28,791.33Z"/><path class="cls-13" d="M672.53,791.57a1.67,1.67,0,1,1,1.67-1.67A1.67,1.67,0,0,1,672.53,791.57Z"/><path class="cls-13" d="M656.19,793.75a.16.16,0,0,1-.16-.16.17.17,0,0,1,.16-.17.17.17,0,0,1,.17.17A.16.16,0,0,1,656.19,793.75Z"/><circle class="cls-13" cx="725.08" cy="785.61" r="0.17"/><circle class="cls-13" cx="706.24" cy="781.61" r="1.34"/><path class="cls-13" d="M687.2,784.7a.17.17,0,0,1,0-.34.17.17,0,0,1,0,.34Z"/><path class="cls-13" d="M510.49,723.27a.17.17,0,0,1,0-.34.17.17,0,0,1,0,.34Z"/><path class="cls-13" d="M526.25,724.1a.52.52,0,1,1,.52-.51A.51.51,0,0,1,526.25,724.1Z"/><path class="cls-13" d="M541.91,726.19a.84.84,0,0,1-.84-.83.85.85,0,0,1,.84-.84.84.84,0,0,1,.83.84A.83.83,0,0,1,541.91,726.19Z"/><path class="cls-13" d="M557,730.77a1.09,1.09,0,1,1,1.09-1.09A1.08,1.08,0,0,1,557,730.77Z"/><path class="cls-13" d="M570.67,738.87a1.34,1.34,0,1,1,1.33-1.34A1.34,1.34,0,0,1,570.67,738.87Z"/><path class="cls-13" d="M581.15,750.87a1.65,1.65,0,1,1,1.65-1.65A1.65,1.65,0,0,1,581.15,750.87Z"/><path class="cls-13" d="M588.53,764.81a1.68,1.68,0,1,1,1.67-1.68A1.67,1.67,0,0,1,588.53,764.81Z"/><circle class="cls-13" cx="594.88" cy="777.56" r="1.18"/><path class="cls-13" d="M602.47,791.53a.17.17,0,0,1,0-.34.17.17,0,1,1,0,.34Z"/></g><g class="cls-29"><path class="cls-13" d="M348.12,742.68a1.26,1.26,0,1,1,1.26-1.26A1.26,1.26,0,0,1,348.12,742.68Z"/><path class="cls-13" d="M364.8,743a1.21,1.21,0,1,1,1.2-1.21A1.21,1.21,0,0,1,364.8,743Z"/><path class="cls-13" d="M381.17,746.16a1.15,1.15,0,1,1,1.15-1.15A1.14,1.14,0,0,1,381.17,746.16Z"/><path class="cls-13" d="M396.69,752.23a1.1,1.1,0,1,1,1.1-1.1A1.11,1.11,0,0,1,396.69,752.23Z"/><circle class="cls-13" cx="410.91" cy="759.89" r="1.03"/><path class="cls-13" d="M425.67,768.61a1,1,0,1,1,1-1A1,1,0,0,1,425.67,768.61Z"/><circle class="cls-13" cx="441.94" cy="768.39" r="0.89"/><path class="cls-13" d="M454.48,758.42a.82.82,0,1,1,.81-.82A.82.82,0,0,1,454.48,758.42Z"/><circle class="cls-13" cx="367.23" cy="725.84" r="0.17"/><path class="cls-13" d="M383,730.22a.54.54,0,1,1,.54-.54A.54.54,0,0,1,383,730.22Z"/><path class="cls-13" d="M397.33,739.19a.88.88,0,1,1,.88-.88A.88.88,0,0,1,397.33,739.19Z"/><circle class="cls-13" cx="412.79" cy="744.62" r="1.16"/><path class="cls-13" d="M429,749.76a1.47,1.47,0,1,1,1.47-1.46A1.46,1.46,0,0,1,429,749.76Z"/><circle class="cls-13" cx="445.66" cy="747.5" r="1.74"/><path class="cls-13" d="M461.07,742.58a1.53,1.53,0,1,1,1.53-1.53A1.53,1.53,0,0,1,461.07,742.58Z"/><path class="cls-13" d="M473.14,730.53a.61.61,0,0,1-.61-.61.61.61,0,0,1,.61-.62.62.62,0,0,1,.62.62A.61.61,0,0,1,473.14,730.53Z"/></g><path class="cls-24" d="M461.25,882.41a10.76,10.76,0,0,1,12.27-2"/><polygon class="cls-12" points="542.07 664.54 538.6 677.18 537.02 676.82 539.64 663.94 542.07 664.54"/><path class="cls-12" d="M570.3,591.17a15.75,15.75,0,0,0-1.26,1.49c-.43.55-.84,1.11-1.23,1.7s-.79,1.17-1.16,1.77-.76,1.19-1.11,1.82l-1.07,1.84-1,1.89c-.69,1.25-1.29,2.55-1.93,3.83-2.48,5.17-4.69,10.48-6.73,15.86q-1.5,4-2.92,8.12c-.9,2.73-1.85,5.45-2.7,8.2s-1.73,5.5-2.53,8.27l-2.38,8.32-1.57-.42,2.28-8.38c.78-2.79,1.63-5.55,2.44-8.33s1.74-5.52,2.61-8.29,1.86-5.48,2.84-8.21c2-5.45,4.14-10.84,6.6-16.12.63-1.31,1.23-2.64,1.92-3.93l1-1.94,1.08-1.92c.35-.64.73-1.27,1.12-1.89s.77-1.26,1.19-1.87.83-1.23,1.29-1.83a17.81,17.81,0,0,1,1.52-1.81Z"/><path class="cls-18" d="M639.72,446.41s-6.7-11.48-18.17,0"/><line class="cls-30" x1="695" y1="640.12" x2="654.06" y2="606.13"/><path class="cls-30" d="M846.22,613.1,762.5,668.71s-13.15,13.13-35.45-3.68l-22.29-16.81"/><path class="cls-20" d="M672.93,487.76s-1.54-10.31-9.42-15.1a29.53,29.53,0,0,0-21-3.85"/><circle class="cls-12" cx="672.93" cy="503.07" r="1.54"/><path class="cls-20" d="M659.46,520.06a3.82,3.82,0,0,0-.85,2.53,8.18,8.18,0,0,0,3,6.19,15.06,15.06,0,0,0,6.4,3,5.05,5.05,0,0,0,3.35-.08,9,9,0,0,0,4-2.43"/><path class="cls-20" d="M661.81,521.39a3.84,3.84,0,0,0-2.43-1.17,11,11,0,0,0-2.75.09"/><path class="cls-16" d="M618.31,467.32a20.5,20.5,0,0,1,2.33,8.33,25.33,25.33,0,0,1-1.44,11.67c-1.53,3.65-4.58,6.83-8.44,7.71-4.28,1-8.76-1-12.12-3.81a17.27,17.27,0,0,1-3.65-4.07c-2.16-3.45-2.63-7.68-2.81-11.76-.27-6,0-12.32,2.82-17.68,1.39-2.69,2.3-3.92,5.29-7.35C599.21,459.33,613.84,459.07,618.31,467.32Z"/><path class="cls-13" d="M615.41,472.35h0a7.48,7.48,0,0,0-2.88-3.77,17.79,17.79,0,0,0-4.08-2,6.56,6.56,0,0,0-2.1-.57c-2.12-.09-3.87,1.83-4.86,3.85a14.45,14.45,0,0,0-1.33,8.22h0s0,.08,0,.2a12.51,12.51,0,0,0,.84,3c0,.11.1.22.15.33a17.23,17.23,0,0,0,5.55,7.47,2.77,2.77,0,0,0,4-.76C613.07,484.45,617.16,476.7,615.41,472.35Z"/><path class="cls-12" d="M606.43,484.13a15,15,0,0,1-3.49-9.37,9.66,9.66,0,0,1,.27-2.66,4,4,0,0,1,.72-1.44,2.9,2.9,0,0,1,1.57-1,3.93,3.93,0,0,1,1.64,0,6.85,6.85,0,0,1,1.38.42,4.42,4.42,0,0,1,2.34,2.1l-2.11,1a2.26,2.26,0,0,0-1.15-1.05,3.2,3.2,0,0,0-1.64-.37.77.77,0,0,0-.45.24,1.8,1.8,0,0,0-.36.68,8.24,8.24,0,0,0-.29,2.09,13.3,13.3,0,0,0,2.74,8.41Z"/><path class="cls-18" d="M590.53,453.82s-12.84,23.11-12.41,40.09-8.43,29.66-17.91,33.48"/><path class="cls-18" d="M589,481.8s1.93,21.39-3,33.59-24,28.56-35.95,29.53"/><path class="cls-18" d="M596.83,505.88s2.36,21.06-7.43,27.06"/><path class="cls-16" d="M676.39,465.48a11.71,11.71,0,0,0,2,6.16,11.67,11.67,0,0,0,2-6.16c0-3.4-.9-6.16-2-6.16S676.39,462.08,676.39,465.48Z"/><path class="cls-11" d="M605.81,488.43l.18,44.29c0,4.13,6.44,4.14,6.42,0l-.18-44.29c0-4.13-6.43-4.14-6.42,0Z"/><path class="cls-19" d="M614.5,464.33s41.66-27.66,63.69-.77c0,0,5.64-10.08,20.7-.33l-.67-6.63s-9.63-7.81-19.2-2.41c0,0-25-28-71.87,5.92Z"/><path class="cls-22" d="M610.89,754c2.51.09,5-.4,7.52-.42a20.06,20.06,0,0,1,10.9,3.18c.55-1.84-.39-3.75-1.33-5.41-2.45-4.29-5.92-8.85-10.84-9.1-3.61-.19-6.8,2.43-10.39,2.83-9.18,1-11.3-3.09-14.14-4.07C592.66,750.27,606.51,753.84,610.89,754Z"/><path class="cls-22" d="M492.2,698.27c-5.7-.41-11.75.85-16.05,4.6-5.16,4.5-7.13,11.82-12.21,16.4a17.23,17.23,0,0,1-17.39,3.18,17.26,17.26,0,0,0-2-14.58c4.65.54,9.54.88,13.83-1,6.79-2.93,10.39-10.54,16.7-14.41,5.59-3.43,12.84-3.46,18.94-1a29.21,29.21,0,0,1,12.82,9.72C502.89,702.07,496.6,698.59,492.2,698.27Z"/><path class="cls-31" d="M498.83,426.45v0l.36-.55,0,0a6.12,6.12,0,0,1,.39-.5l.06-.06a5.49,5.49,0,0,1,.4-.43l.1-.09a4.71,4.71,0,0,1,.42-.36l.14-.11.41-.3.2-.12c.13-.08.26-.16.4-.23l.25-.12c.13-.06.25-.13.38-.18l.31-.11.36-.13.38-.1.31-.08.48-.07.25,0c.24,0,.49,0,.74,0a7.43,7.43,0,0,1,3.33.79,10.8,10.8,0,0,1,.81-1,11,11,0,0,1,6.78-3.46,10.09,10.09,0,0,1,1.35-.08,11.05,11.05,0,0,1,2.24.23l.71.17a11.11,11.11,0,0,1,16-7.61,18.56,18.56,0,0,1-.44-2.91c0-.37,0-.75,0-1.13a17.74,17.74,0,0,1,17.74-17.74,17.94,17.94,0,0,1,5,.71,17.93,17.93,0,0,1,.69-3.19,17.72,17.72,0,0,1,29-7.62c.21.2.41.4.61.61a26.86,26.86,0,0,1,5.46-3.93,26.36,26.36,0,0,1,31.94,5.23q.72.78,1.38,1.62a27.3,27.3,0,0,1,2.37,3.54,26.21,26.21,0,0,1,2.43,6c.61-.06,1.23-.1,1.86-.1a17.62,17.62,0,0,1,11.48,4.24,17.87,17.87,0,0,1,4.46,5.76,11.13,11.13,0,0,1,3.84-.7,11.6,11.6,0,0,1,2.06.19,11.06,11.06,0,0,1,5.26,2.56c.25.22.48.44.71.68a11.07,11.07,0,0,1,3,6.12,11.11,11.11,0,0,1,16.3,6.36,8,8,0,0,1,.24.93,11.48,11.48,0,0,1,3-.4,11.1,11.1,0,0,1,8.94,4.52,7.41,7.41,0,1,1,0,13.23A11.11,11.11,0,0,1,678.32,439,11.11,11.11,0,0,1,661,442.24a11.12,11.12,0,0,1-19.09,1.29,11.1,11.1,0,0,1-13.6-3.07,11.15,11.15,0,0,1-11,9.24,10.88,10.88,0,0,1-4-.76,26.43,26.43,0,0,1-41.4-6.28,11.1,11.1,0,0,1-11.78,1.25,11.12,11.12,0,0,1-19.09-1.29,11.11,11.11,0,0,1-17.29-3.26,11.11,11.11,0,0,1-15.25-2.56,7.41,7.41,0,0,1-9.72-10.35Z"/></g></svg>
