<svg id="Layer_1" data-name="Layer 1" xmlns="http://www.w3.org/2000/svg" viewBox="0 0 815.89 627.89"><defs><style>.s2d-cc1_1{fill:#357d74;}.s2d-cc1_2{fill:#fff;}.s2d-cc1_3{fill:#919a51;}.s2d-cc1_4{fill:none;stroke:#939c52;stroke-miterlimit:10;stroke-width:5.55px;}</style></defs><title>2</title><path class="s2d-cc1_2" d="M424.48,408.31c.76,1.13,1.09,1.7,1.49,2.21,9.8,12.18,22.85,17.68,38.15,18.82a16,16,0,0,1,7.54,2.73,129.8,129.8,0,0,0,37.61,18.35l0,0,1.11.28c1,.28,1.93.57,2.92.83a2.77,2.77,0,0,0,.42,0l4.11,1.06-.09.09c.49.1,1,.17,1.46.26l5,1.29.31-.36c13.51,2,26.42,1.3,38.8-3.57,13.89-5.45,27.41-11.91,40.83-18.48,14-6.86,28.41-9.69,43.82-6.61,5.3,1.05,10.62,2,15.93,3l.74-.81c-4.69-5.55-9.21-11.26-14.11-16.61-12.11-13.24-26.71-23.27-42-32.43h0l-6.13-4a53,53,0,0,1-17.18-20.17A22.37,22.37,0,0,0,574,343.87a45.25,45.25,0,0,0-27-3.4c-10,1.8-19.08,5.24-27.08,12.6-8.34,7.69-11.6,15.94-9.45,26.68,1.06,5.31,2.31,10.59,3.67,15.84,2.87,11.09,9.64,18.19,20.9,21.35,11.9,3.34,24.17-1.48,29.91-12.44,7.28-13.9-6.57-26.89-16.7-26.47-7,.3-10.1,5.71-6.44,11.71.81,1.31,1.86,2.47,2.8,3.71,1.57,2.06.61,4.09-.89,5.26-.81.63-3.3.27-4.16-.55a25.48,25.48,0,0,1-8-16.71,8.05,8.05,0,0,1,6.46-8.87,47.47,47.47,0,0,1,13.14-.57c11.12,1.17,19.77,8.23,22.1,17.79.79,3.25.7,6.72,1,9.55L570,410.12c-3.94,8-10.77,13-19.79,14.89l-12.52.36c-15.2-2.46-26.91-10.11-31.2-25.19-2-7.17-5.37-10.14-12-11-.44-.05-.86-.24-1.29-.32-13.22-2.27-25.49-1.67-36.57,7.8C447.84,404.25,437.83,410.51,424.48,408.31Z"/><path class="s2d-cc1_3" d="M478.39,263.41c.51.76.73,1.14,1,1.48,6.56,8.16,15.29,11.84,25.54,12.6a10.73,10.73,0,0,1,5.05,1.83,86.64,86.64,0,0,0,25.17,12.28l0,0,.74.19c.65.18,1.3.38,2,.55a2.46,2.46,0,0,0,.28,0l2.75.71-.06.06,1,.18,3.34.86.21-.24c9,1.34,17.68.87,26-2.39,9.3-3.65,18.35-8,27.33-12.37,9.38-4.6,19-6.49,29.34-4.43,3.55.71,7.11,1.35,10.67,2l.49-.54c-3.14-3.72-6.16-7.53-9.44-11.12-8.11-8.86-17.89-15.57-28.1-21.71h0l-4.1-2.69a35.44,35.44,0,0,1-11.5-13.5,15,15,0,0,0-7.53-6.94,30.27,30.27,0,0,0-18-2.28c-6.72,1.2-12.78,3.51-18.13,8.44-5.59,5.14-7.77,10.66-6.33,17.85.71,3.56,1.54,7.1,2.45,10.61,1.92,7.42,6.46,12.17,14,14.29a17,17,0,0,0,20-8.33c4.87-9.3-4.4-18-11.18-17.71-4.71.19-6.76,3.82-4.31,7.83.54.88,1.25,1.66,1.87,2.48a2.41,2.41,0,0,1-.59,3.53,2.91,2.91,0,0,1-2.78-.37,17,17,0,0,1-5.33-11.19,5.38,5.38,0,0,1,4.32-5.93,31.31,31.31,0,0,1,8.8-.38c7.45.78,13.24,5.5,14.8,11.9a41.75,41.75,0,0,1,.64,6.4l-2.86,7.21a18.34,18.34,0,0,1-13.25,10l-8.38.23c-10.17-1.64-18-6.76-20.89-16.86-1.36-4.8-3.59-6.79-8-7.33-.29,0-.57-.17-.86-.22-8.85-1.52-17.07-1.11-24.48,5.22C494,260.7,487.33,264.88,478.39,263.41Z"/><path class="s2d-cc1_2" d="M456.75,311.36c-18.57-20.31-41-35.68-64.36-49.74h0l-9.4-6.16c-11.21-7.64-19.93-18.3-26.35-30.92-3.77-7.41-9.66-12.49-17.24-15.91a69.29,69.29,0,0,0-41.34-5.21c-15.4,2.75-29.28,8-41.53,19.32-12.8,11.79-17.81,24.44-14.51,40.91,1.64,8.15,3.55,16.25,5.63,24.3,4.4,17,14.79,27.89,32.06,32.74,18.25,5.13,37.08-2.26,45.87-19.07,11.16-21.32-10.08-41.25-25.6-40.6-10.79.45-15.5,8.76-9.88,17.95a68.87,68.87,0,0,0,4.29,5.69c2.4,3.17.94,6.28-1.37,8.07-1.24,1-5.06.42-6.37-.84a39.06,39.06,0,0,1-12.21-25.62c-.52-6.5,3.39-12.43,9.92-13.61a72.07,72.07,0,0,1,20.15-.87c17.06,1.79,30.32,12.61,33.9,27.28,1.21,5,1.07,10.3,1.48,14.65l-6.57,16.51c-6,12.22-16.51,19.93-30.35,22.85l-19.19.54c-23.32-3.78-41.29-15.5-47.86-38.63-3.12-11-8.23-15.55-18.36-16.81-.67-.08-1.31-.37-2-.49-20.27-3.48-39.09-2.55-56.08,12-13.56,11.58-28.91,21.18-49.39,17.8,1.17,1.74,1.67,2.62,2.29,3.39,15,18.69,35,27.12,58.51,28.88a24.39,24.39,0,0,1,11.57,4.18A198.88,198.88,0,0,0,240.17,372l0,0,1.69.44c1.5.42,3,.88,4.48,1.26a4.48,4.48,0,0,0,.65.06l6.31,1.62-.14.13c.75.16,1.49.26,2.24.41l7.64,2,.49-.55c20.72,3.08,40.51,2,59.5-5.47,21.3-8.36,42.05-18.26,62.62-28.34,21.49-10.53,43.57-14.86,67.21-10.15,8.13,1.62,16.29,3.1,24.44,4.64.38-.42.75-.84,1.13-1.25C471.2,328.32,464.27,319.57,456.75,311.36Z"/><path class="s2d-cc1_4" d="M210.14,320.82c27.71,21.26,64.16,32,98.3,24.9,35.43-7.4,66.78-35.77,73.44-71.35"/><path class="s2d-cc1_4" d="M189,296.87a45.8,45.8,0,0,0,7.68,11.75"/><path class="s2d-cc1_4" d="M259.9,260.49c-2.16-13.16,7.76-25.7,19.76-29.63s25.2-2.94,37.45.17c7.12,1.8,14.16,4.36,20.09,8.6a46.75,46.75,0,0,1,13.56,15.71,57.12,57.12,0,0,1,6.87,31.54s-.88,32.81-22.81,49.09"/><path class="s2d-cc1_4" d="M430.21,309.53c4.4,1.54,8.68,3.29,12.77,5.14"/><path class="s2d-cc1_4" d="M350.66,325.3c26.61-18.76,44.94-24.07,64.51-20"/></svg>
