<svg id="Layer_1" data-name="Layer 1" xmlns="http://www.w3.org/2000/svg" xmlns:xlink="http://www.w3.org/1999/xlink" viewBox="0 0 2849.1 837.99"><defs><style>.s2d-cg-1_1{fill:#357d74;}.s2d-cg-1_2{fill:url(#s2d-cg1-lg);}.s2d-cg-1_3{fill:#2e5f5a;}.s2d-cg-1_4{fill:#919a51;}.s2d-cg-1_5{fill:url(#s2d-cg1-lg_2);}.s2d-cg-1_6{fill:url(#s2d-cg1-lg_3);}.s2d-cg-1_7{fill:#d7a234;}.s2d-cg-1_8{fill:url(#s2d-cg1-lg_4);}.s2d-cg-1_9{fill:url(#s2d-cg1-lg_5);}</style><linearGradient id="s2d-cg1-lg" x1="1369.09" y1="236.66" x2="1374.25" y2="-47.25" gradientTransform="matrix(0.98, -0.2, 0.2, 0.98, 829.13, 472.25)" gradientUnits="userSpaceOnUse"><stop offset="0" stop-color="#3b6660" stop-opacity="0"/><stop offset="1" stop-color="#2f4f51"/></linearGradient><linearGradient id="s2d-cg1-lg_2" x1="515.45" y1="60.47" x2="520.61" y2="-223.44" gradientTransform="matrix(-0.98, -0.2, -0.2, 0.98, 1069.88, 472.25)" xlink:href="#s2d-cg1-lg"/><linearGradient id="s2d-cg1-lg_3" x1="1360.71" y1="692.92" x2="1360.71" y2="466.84" gradientTransform="matrix(1, 0, 0, 1, 0, 0)" xlink:href="#s2d-cg1-lg"/><linearGradient id="s2d-cg1-lg_4" x1="2264.82" y1="573.1" x2="2264.82" y2="465.51" gradientUnits="userSpaceOnUse"><stop offset="0" stop-color="#357d74" stop-opacity="0"/><stop offset="1" stop-color="#357d74"/></linearGradient><linearGradient id="s2d-cg1-lg_5" x1="1454.87" y1="573.1" x2="1454.87" y2="465.51" gradientTransform="matrix(-1, 0, 0, 1, 1959.33, 0)" xlink:href="#s2d-cg1-lg_4"/></defs><title>3</title><rect class="s2d-cg-1_1" x="-24.11" y="-18.23" width="2900.71" height="888.16"/><path class="s2d-cg-1_2" d="M2667.23,242c-36.4-19.49-78.85,29.37-118.7,18.57-41.28-11.18-51-78.16-93.63-82-26.48-2.36-52.93,22.63-76.88,21.5-7.24-32.56-19.45-61.31-46.52-79.35-8.91-8-38.24-20.44-72.15-13.42-94.78,19.63-90.5,83.41-92.89,108.56-23.46,6.69-54.81-13.76-80.84-6.31-41.13,11.76-38.1,79.38-76.54,98.13-37.1,18.1-88-21.89-120.07,4.1-21.58,17.48-16.84,52-30.76,76-11.57,20-34.57,30.21-56.72,36.75s-45.63,11-64.47,24.35c-.19.13-.38.26-.56.4-22.7,16.5-9.57,50.88,16,51.4l912.15-188.27c21.63-4.46,33.17-28.43,22.88-48C2682.61,255.13,2676.57,247,2667.23,242Z"/><circle class="s2d-cg-1_3" cx="2124.46" cy="164.79" r="13.9"/><circle class="s2d-cg-1_3" cx="2000.83" cy="268.8" r="6.95"/><path class="s2d-cg-1_4" d="M2317.61,294.33c-3.21-3.09-4.23.47-5.82,1.88-3.39,3-6.07,6.92-10.65,8.44-2.9,5.68-8.74,7.67-13.75,10.45-6,3.35-12.3,6.36-19.24,7.52,5.77-8.82,14-15.53,20.5-23.71A337.69,337.69,0,0,0,2315,252.75c.52-2.31,1-4.61,1.55-6.92l-6.91-2.3a80.27,80.27,0,0,1-11.18,25.11c-2.95,10.48-9.74,18.48-17,26.18-3.43,5.46-8,9.84-13.73,15.47.54-8.36.77-15.29,2.51-22.1.54-13.94,4.43-27.17,8.62-40.34l-6.31-2.8q-4.28,19.23-8.56,38.46a175.34,175.34,0,0,1-5,33.94c-.84,3.45-3.76,5.09-6,7.32-4.37,4.36-8.8,8.66-13.57,13.34-1.58-3.83-.43-7.67-.65-11.35-1-17.16-2.25-34.3-4.83-51.32a15.74,15.74,0,0,1,.41-4c-2-3.95.76-6.36,2.78-9.17,11-15.25,24.1-29.17,30-47.62.77-2.41,1.61-4.79,2.42-7.19l-5-2.29c-.64,8.6-5.29,15.5-9.7,22.45-5.3,8.33-12.59,14.94-19.56,22,1.51-19.93,5.74-39,13.7-57.22l-6.55-2.52c-2.73,9-7.59,17.12-10.12,26.23-4.85,17.42-6,35.22-6.42,53.15.24,8.66.7,19.24,1.21,30.7-5.61-1.72-11.1-4.72-17.26-8.58-1.63-1-3.24-2.06-4.85-3.11l.55-.33a134.43,134.43,0,0,1-17.87-50l-6.41.92a141.18,141.18,0,0,0,13.06,42,269.68,269.68,0,0,1-44.95-41.2l-4.89,4.25a276.65,276.65,0,0,0,34.66,33.46c-1.2,0-2.41,0-3.6-.05a195.86,195.86,0,0,1-45.63-7.15l-1.75,6.24a202.8,202.8,0,0,0,47.14,7.38,35.42,35.42,0,0,0,11-.85q9.75,7.38,20.15,13.9a86.06,86.06,0,0,0,17.16,8.74c1.26.44,2.54.82,3.84,1.15,1.3,29.24,2.69,62.64,1.46,84.22,2.7.6,5.29,2.17,8,2.77.36-8.11,1.48-42.86,8-48.84a31.61,31.61,0,0,1,8.86-6.14c11.73-5.08,23.38-10.37,35-15.76,6.9-3.2,12.38-8.48,18.28-13.14,3-3.17,6.16-6.17,8.82-9.58C2317.07,298.78,2320.9,297.48,2317.61,294.33ZM2267,322.72l.79.06-.72.56C2267.07,323.13,2267,322.93,2267,322.72Z"/><path class="s2d-cg-1_4" d="M2121.23,330.75a9.78,9.78,0,1,0-7.85-1.23,9.58,9.58,0,0,0,4.85,1.55,156.66,156.66,0,0,1,1,17.85c-.08,7.94-1.44,15.7-2.88,23.48-2.61,14.11-6.09,29-3.64,43.37.33,2,3.44,1.66,3.1-.33-2.58-15.1,1.5-30.74,4.18-45.56C2122.39,356.6,2122.36,343.86,2121.23,330.75Z"/><path class="s2d-cg-1_4" d="M2159.38,341a9.78,9.78,0,1,0-9.22,16.83c-2.43,12.11-5.63,23.53-11.89,34.47a107.82,107.82,0,0,0-12.11,34.54c-.36,2,2.72,2.48,3.08.5a109,109,0,0,1,13-35.68c6-10.32,8.8-21.77,11-33.37a9.77,9.77,0,0,0,6.11-17.29Z"/><path class="s2d-cg-1_4" d="M2098.34,348a9.78,9.78,0,0,0-10.63,16.42,11.6,11.6,0,0,0,1,.57c-1.93,17.27,12.72,34.19,9,52-.42,2,2.66,2.46,3.08.51,3.68-17.52-10.84-34.69-9.06-51.57a9.77,9.77,0,0,0,6.59-17.89Z"/><path class="s2d-cg-1_5" d="M103.41,242c36.4-19.49,78.85,29.37,118.69,18.57,41.29-11.18,51-78.16,93.64-82,26.48-2.36,52.92,22.63,76.87,21.5,7.25-32.56,19.45-61.31,46.52-79.35,8.91-8,38.24-20.44,72.15-13.42,94.79,19.63,90.51,83.41,92.9,108.56,23.46,6.69,54.8-13.76,80.84-6.31,41.12,11.76,38.09,79.38,76.53,98.13,37.11,18.1,88-21.89,120.07,4.1,21.59,17.48,16.84,52,30.76,76C924,407.8,947,418,969.1,424.56s45.63,11,64.48,24.35l.56.4c22.7,16.5,9.56,50.88-16,51.4L106,312.44C84.35,308,72.82,284,83.11,264.47,88,255.13,94.07,247,103.41,242Z"/><circle class="s2d-cg-1_3" cx="646.18" cy="164.79" r="13.9"/><circle class="s2d-cg-1_3" cx="769.8" cy="268.8" r="6.95"/><path class="s2d-cg-1_4" d="M454.77,300.32c2.66,3.41,5.84,6.41,8.82,9.58,5.89,4.66,11.38,9.94,18.28,13.14,11.6,5.39,23.24,10.68,35,15.76a31.56,31.56,0,0,1,8.85,6.14c6.57,6,7.7,40.73,8.06,48.84,2.69-.6,5.29-2.17,8-2.77-1.23-21.58.16-55,1.46-84.22,1.29-.33,2.57-.71,3.84-1.15a86,86,0,0,0,17.15-8.74q10.41-6.51,20.16-13.9a35.36,35.36,0,0,0,10.94.85,202.88,202.88,0,0,0,47.15-7.38l-1.75-6.24a195.94,195.94,0,0,1-45.64,7.15c-1.19.05-2.4.07-3.6.05A276,276,0,0,0,626.12,244l-4.88-4.25a269.74,269.74,0,0,1-45,41.2,140.89,140.89,0,0,0,13.06-42l-6.41-.92a134.41,134.41,0,0,1-17.86,50l.54.33c-1.6,1.05-3.22,2.09-4.84,3.11-6.16,3.86-11.66,6.86-17.26,8.58.51-11.46,1-22,1.2-30.7-.38-17.93-1.56-35.73-6.41-53.15-2.54-9.11-7.39-17.25-10.13-26.23l-6.54,2.52c8,18.2,12.19,37.29,13.7,57.22-7-7.08-14.27-13.69-19.56-22-4.41-6.95-9.06-13.85-9.71-22.45l-5,2.29c.8,2.4,1.64,4.78,2.41,7.19,5.91,18.45,19,32.37,30,47.62,2,2.81,4.78,5.22,2.77,9.17a15.76,15.76,0,0,1,.42,4c-2.59,17-3.78,34.16-4.83,51.32-.23,3.68.93,7.52-.66,11.35-4.76-4.68-9.2-9-13.57-13.34-2.24-2.23-5.15-3.87-6-7.32a176.13,176.13,0,0,1-5-33.94L498,245.05l-6.31,2.8c4.18,13.17,8.08,26.4,8.62,40.34,1.74,6.81,2,13.74,2.51,22.1-5.69-5.63-10.3-10-13.73-15.47-7.25-7.7-14-15.7-17-26.18A80.27,80.27,0,0,1,461,243.53l-6.92,2.3c.52,2.31,1,4.61,1.55,6.92A338.8,338.8,0,0,0,482,298.91c6.51,8.18,14.72,14.89,20.49,23.71-6.93-1.16-13.22-4.17-19.24-7.52-5-2.78-10.85-4.77-13.74-10.45-4.58-1.52-7.27-5.41-10.66-8.44-1.58-1.41-2.61-5-5.82-1.88S453.56,298.78,454.77,300.32Zm48.78,23-.72-.56.78-.06Z"/><path class="s2d-cg-1_4" d="M649.4,330.75a9.77,9.77,0,1,1,7.86-1.23,9.61,9.61,0,0,1-4.86,1.55,159,159,0,0,0-1,17.85c.08,7.94,1.44,15.7,2.88,23.48,2.62,14.11,6.1,29,3.65,43.37-.34,2-3.44,1.66-3.1-.33,2.57-15.1-1.5-30.74-4.18-45.56C648.25,356.6,648.27,343.86,649.4,330.75Z"/><path class="s2d-cg-1_4" d="M611.26,341a9.77,9.77,0,1,1,9.22,16.83c2.42,12.11,5.62,23.53,11.88,34.47a107.84,107.84,0,0,1,12.12,34.54c.35,2-2.73,2.48-3.08.5a108.76,108.76,0,0,0-13-35.68c-6-10.32-8.79-21.77-11-33.37A9.77,9.77,0,0,1,611.26,341Z"/><path class="s2d-cg-1_4" d="M672.29,348a9.78,9.78,0,0,1,10.63,16.42,10.35,10.35,0,0,1-1,.57c1.94,17.27-12.71,34.19-9,52,.41,2-2.67,2.46-3.08.51-3.68-17.52,10.84-34.69,9-51.57A9.77,9.77,0,0,1,672.29,348Z"/><path class="s2d-cg-1_3" d="M2393.94,445.12c-1.13-3.92-2.79-7.49-5.94-10.12-12.29-10.24-32.22,5-46.49-2.24-14.79-7.48-13.24-33.66-29.11-38.44-9.86-3-21.85,4.44-30.85,2.13-.2-12.92-2.58-24.78-11.44-33.75C2267.35,359,2257.2,352,2243.78,352c-37.5,0-40.87,24.56-43.75,33.91-9.42.71-19.72-9.51-30.18-8.72-16.52,1.24-20.67,27.14-36.72,31.24-15.5,4-31.68-15.2-45.89-7.85-9.55,4.94-10.46,18.41-17.62,26.44-6,6.68-15.48,8.75-24.4,9.5s-18.18.6-26.37,4.19l-.25.11a11.13,11.13,0,0,0-2.93,1.9H755.43a11.36,11.36,0,0,0-2.94-1.9l-.24-.11c-8.2-3.59-17.46-3.44-26.37-4.19s-18.45-2.82-24.4-9.5c-7.17-8-8.07-21.5-17.63-26.44-14.21-7.35-30.38,11.81-45.88,7.85-16.05-4.1-20.2-30-36.73-31.24-10.46-.79-20.75,9.43-30.18,8.72-2.87-9.35-6.24-33.89-43.75-33.91-13.41,0-23.57,7-26.32,10.74-8.86,9-11.24,20.83-11.44,33.75-9,2.31-21-5.11-30.85-2.13-15.87,4.78-14.32,31-29.11,38.44-14.28,7.21-34.21-8-46.5,2.24a17.77,17.77,0,0,0-5.13,7.68h-1.32V747.1H2320.71V461.54h60.79A12.9,12.9,0,0,0,2393.94,445.12Z"/><polygon class="s2d-cg-1_6" points="1255.33 443.05 400.71 747.1 2320.71 747.1 1890.66 583.72 1520.39 443.05 1255.33 443.05"/><path class="s2d-cg-1_1" d="M2205.47,427.94c1.1,1.41,2.42,2.66,3.65,4,2.45,1.93,4.72,4.12,7.58,5.45,4.81,2.23,9.64,4.43,14.51,6.53a13.14,13.14,0,0,1,3.67,2.55c2.72,2.48,3.19,16.89,3.34,20.25,1.11-.25,2.19-.9,3.31-1.15-.51-9,.07-22.8.6-34.92.54-.13,1.07-.3,1.6-.48a35.76,35.76,0,0,0,7.11-3.62q4.32-2.7,8.36-5.77a14.89,14.89,0,0,0,4.54.36,84.48,84.48,0,0,0,19.54-3.06l-.72-2.59a81.38,81.38,0,0,1-18.92,3c-.5,0-1,0-1.5,0a114.21,114.21,0,0,0,14.37-13.88l-2-1.76a111.35,111.35,0,0,1-18.64,17.08,58.57,58.57,0,0,0,5.42-17.43l-2.66-.38a55.87,55.87,0,0,1-7.41,20.74l.23.13q-1,.66-2,1.29a30.91,30.91,0,0,1-7.16,3.56c.21-4.75.4-9.14.5-12.73-.16-7.43-.65-14.81-2.66-22-1-3.77-3.07-7.15-4.2-10.87l-2.71,1a72.31,72.31,0,0,1,5.68,23.73c-2.89-2.94-5.92-5.68-8.11-9.13-1.83-2.88-3.76-5.75-4-9.31l-2.08.95c.33,1,.68,2,1,3,2.45,7.65,7.89,13.42,12.45,19.75.83,1.16,2,2.16,1.15,3.8a6.71,6.71,0,0,1,.17,1.65c-1.07,7.06-1.57,14.16-2,21.28-.1,1.52.38,3.12-.27,4.71-2-1.94-3.82-3.73-5.63-5.54-.93-.92-2.14-1.6-2.49-3A73.53,73.53,0,0,1,2227,421l-3.54-16-2.62,1.16c1.74,5.46,3.35,10.95,3.57,16.73a50.51,50.51,0,0,1,1,9.16,37,37,0,0,1-5.7-6.41c-3-3.19-5.82-6.51-7-10.86a33.38,33.38,0,0,1-4.64-10.41l-2.86,1c.21.95.43,1.91.64,2.86a139.32,139.32,0,0,0,10.94,19.14c2.7,3.39,6.11,6.18,8.5,9.83a25,25,0,0,1-8-3.11c-2.08-1.16-4.5-2-5.7-4.34-1.9-.63-3-2.24-4.42-3.5-.65-.58-1.08-2.06-2.41-.78S2205,427.3,2205.47,427.94Zm20.22,9.54-.3-.23.33,0Z"/><path class="s2d-cg-1_4" d="M2079.63,448.58c6.37-.06,16.2.8,16.21,2s-9.8,2.22-16.17,2.28-6.89-.89-6.9-2.07S2073.26,448.64,2079.63,448.58Z"/><path class="s2d-cg-1_4" d="M2098.7,471.52c-.06-6.37.8-16.2,2-16.21s2.23,9.8,2.29,16.17-.9,6.89-2.07,6.9S2098.76,477.89,2098.7,471.52Z"/><path class="s2d-cg-1_4" d="M2116.86,437c-4.46,4.55-12,10.88-12.86,10.06s5.35-8.5,9.82-13,5.5-4.24,6.34-3.42S2121.32,432.48,2116.86,437Z"/><path class="s2d-cg-1_4" d="M2084.41,464c4.47-4.55,12-10.89,12.87-10.06s-5.36,8.5-9.82,13.05-5.51,4.24-6.35,3.41S2080,468.54,2084.41,464Z"/><path class="s2d-cg-1_4" d="M2114.12,466.74c-4.55-4.47-10.88-12-10.06-12.87s8.5,5.36,13.05,9.82,4.24,5.5,3.42,6.35S2118.67,471.2,2114.12,466.74Z"/><path class="s2d-cg-1_4" d="M2087.15,434.29c4.55,4.46,10.89,12,10.06,12.86s-8.5-5.35-13.05-9.82-4.24-5.5-3.41-6.34S2082.6,429.83,2087.15,434.29Z"/><path class="s2d-cg-1_4" d="M2121.64,452.45c-6.37.06-16.19-.8-16.21-2s9.8-2.23,16.17-2.29,6.89.9,6.91,2.07S2128,452.39,2121.64,452.45Z"/><path class="s2d-cg-1_4" d="M2102.57,429.51c.06,6.37-.8,16.19-2,16.21s-2.22-9.8-2.28-16.17.89-6.89,2.07-6.91S2102.51,423.14,2102.57,429.51Z"/><circle class="s2d-cg-1_3" cx="2298.47" cy="376.55" r="8.62"/><circle class="s2d-cg-1_1" cx="2199.46" cy="478.06" r="8.62"/><circle class="s2d-cg-1_3" cx="2055.55" cy="405.63" r="8.62"/><circle class="s2d-cg-1_3" cx="2190.11" cy="357.98" r="5.4"/><circle class="s2d-cg-1_7" cx="1977.03" cy="478.18" r="5.4"/><circle class="s2d-cg-1_4" cx="2168.75" cy="521.09" r="5.4"/><circle class="s2d-cg-1_1" cx="2121.28" cy="532.29" r="5.4"/><path class="s2d-cg-1_1" d="M2181.7,643.69a57.94,57.94,0,0,0-3.84-9.78,43,43,0,0,0-6.26-8.71l-4.1,4a37.7,37.7,0,0,1,6.28,7.08,54.46,54.46,0,0,1,4.42,8.65Z"/><path class="s2d-cg-1_1" d="M2199.46,638.86a105.83,105.83,0,0,1-.2-20.9l-5.75-.24a110.86,110.86,0,0,0,2.28,21.71Z"/><path class="s2d-cg-1_1" d="M2217.87,642a152.23,152.23,0,0,0,5.53-19.9l-5.68-.89a146.18,146.18,0,0,1-3.42,19.73Z"/><path class="s2d-cg-1_7" d="M2259,590.38a58.7,58.7,0,0,0-3.84-9.77,42.44,42.44,0,0,0-6.27-8.72l-4.09,4A37.39,37.39,0,0,1,2251,583a53.16,53.16,0,0,1,4.43,8.64Z"/><path class="s2d-cg-1_7" d="M2276.73,585.55a105.83,105.83,0,0,1-.2-20.9l-5.75-.23a111.6,111.6,0,0,0,2.27,21.7Z"/><path class="s2d-cg-1_7" d="M2295.14,588.68a153.51,153.51,0,0,0,5.53-19.91l-5.68-.88a150,150,0,0,1-3.42,19.73Z"/><path class="s2d-cg-1_1" d="M2050.42,572.77a57.85,57.85,0,0,0-3.84-9.77,42.78,42.78,0,0,0-6.26-8.72l-4.1,4a37.45,37.45,0,0,1,6.28,7.09,53.93,53.93,0,0,1,4.42,8.64Z"/><path class="s2d-cg-1_1" d="M2068.18,567.94a105.83,105.83,0,0,1-.2-20.9l-5.75-.23a110.84,110.84,0,0,0,2.28,21.7Z"/><path class="s2d-cg-1_1" d="M2086.59,571.07a151.94,151.94,0,0,0,5.53-19.91l-5.68-.88A146.72,146.72,0,0,1,2083,570Z"/><path class="s2d-cg-1_1" d="M1878.43,517a58.28,58.28,0,0,0-3.84-9.78,42.65,42.65,0,0,0-6.27-8.71l-4.09,4a37.64,37.64,0,0,1,6.27,7.08,53.67,53.67,0,0,1,4.43,8.65Z"/><path class="s2d-cg-1_1" d="M1896.19,512.17a105.83,105.83,0,0,1-.2-20.9l-5.75-.23a111.6,111.6,0,0,0,2.27,21.7Z"/><path class="s2d-cg-1_1" d="M1914.6,515.29a151.8,151.8,0,0,0,5.53-19.9l-5.68-.89a147.76,147.76,0,0,1-3.42,19.73Z"/><path class="s2d-cg-1_7" d="M2130.77,611.16a30,30,0,0,1,2.05-5.22,22.8,22.8,0,0,1,3.34-4.66l2.19,2.16a19.88,19.88,0,0,0-3.35,3.78,28.66,28.66,0,0,0-2.37,4.62Z"/><path class="s2d-cg-1_7" d="M2121.28,608.58a57,57,0,0,0,.11-11.16l3.07-.13a59.06,59.06,0,0,1-1.22,11.59Z"/><path class="s2d-cg-1_7" d="M2111.45,610.25a82.11,82.11,0,0,1-3-10.64l3-.47a79,79,0,0,0,1.82,10.54Z"/><path class="s2d-cg-1_7" d="M2272.72,685.38a31.19,31.19,0,0,1,2.05-5.22,22.46,22.46,0,0,1,3.35-4.66l2.18,2.16a19.88,19.88,0,0,0-3.35,3.78,28.23,28.23,0,0,0-2.36,4.62Z"/><path class="s2d-cg-1_7" d="M2263.23,682.8a57,57,0,0,0,.11-11.16l3.07-.13a59.82,59.82,0,0,1-1.21,11.59Z"/><path class="s2d-cg-1_7" d="M2253.4,684.47a82.11,82.11,0,0,1-3-10.64l3-.47a79,79,0,0,0,1.83,10.54Z"/><path class="s2d-cg-1_4" d="M2186.17,587.91a30.35,30.35,0,0,1,2-5.22,22.4,22.4,0,0,1,3.35-4.65l2.18,2.15a20.19,20.19,0,0,0-3.35,3.78,28.23,28.23,0,0,0-2.36,4.62Z"/><path class="s2d-cg-1_4" d="M2176.68,585.33a57,57,0,0,0,.11-11.16l3.07-.13a59.08,59.08,0,0,1-1.22,11.6Z"/><path class="s2d-cg-1_4" d="M2166.85,587a82,82,0,0,1-3-10.63l3-.47a79.29,79.29,0,0,0,1.82,10.54Z"/><path class="s2d-cg-1_4" d="M2025.2,529.16a30.35,30.35,0,0,1,2-5.22,22.8,22.8,0,0,1,3.34-4.66l2.19,2.16a19.88,19.88,0,0,0-3.35,3.78,29.08,29.08,0,0,0-2.37,4.62Z"/><path class="s2d-cg-1_4" d="M2015.71,526.58a57,57,0,0,0,.11-11.16l3.07-.13a59.08,59.08,0,0,1-1.22,11.6Z"/><path class="s2d-cg-1_4" d="M2005.88,528.25a82,82,0,0,1-3-10.63l3-.47a79.29,79.29,0,0,0,1.82,10.54Z"/><path class="s2d-cg-1_4" d="M1818.08,493.79a31.19,31.19,0,0,1,2.05-5.22,22.46,22.46,0,0,1,3.35-4.66l2.18,2.16a19.88,19.88,0,0,0-3.35,3.78,28.23,28.23,0,0,0-2.36,4.62Z"/><path class="s2d-cg-1_4" d="M1808.59,491.21a57,57,0,0,0,.11-11.16l3.07-.13a59.16,59.16,0,0,1-1.22,11.6Z"/><path class="s2d-cg-1_4" d="M1798.76,492.88a82,82,0,0,1-3-10.63l3-.47a79.29,79.29,0,0,0,1.82,10.54Z"/><path class="s2d-cg-1_7" d="M1973.23,548.85a31.25,31.25,0,0,1,2.06-5.22,22.8,22.8,0,0,1,3.34-4.66l2.19,2.16a19.88,19.88,0,0,0-3.35,3.78,29.08,29.08,0,0,0-2.37,4.62Z"/><path class="s2d-cg-1_7" d="M1963.75,546.27a56.27,56.27,0,0,0,.1-11.16l3.07-.13a59.05,59.05,0,0,1-1.21,11.59Z"/><path class="s2d-cg-1_7" d="M1953.91,547.94a82.08,82.08,0,0,1-3-10.64l3-.47a79,79,0,0,0,1.83,10.54Z"/><path class="s2d-cg-1_8" d="M2451.82,517.23c-7.16-8.34-20-8.12-30.85-6.07s-22.44,5.15-32.38.45c-20.8-9.82-17.32-44.26-37-56.25-12.47-7.61-29.09-2.77-42.67-8.13-10.79-4.25-18.8-14.62-30.18-16.86-12.29-2.4-24.47,5.74-31.76,15.91s-11.15,22.36-17.1,33.38-15.07,21.53-27.37,23.84c-16.22,3.05-35.06-8.51-48.37,1.24-14.74,10.8-8.57,38.79-24.86,47.06-10.39,5.27-22.85-1.54-34.45-.43-12.5,1.2-22.49,11.8-26.81,23.6l-.13.36c-6.43,18,7.25,36.9,26.37,36.9h369Z"/><path class="s2d-cg-1_7" d="M2266.86,487.68c5-.05,12.66.63,12.67,1.55s-7.66,1.74-12.64,1.78-5.38-.69-5.39-1.61S2261.88,487.73,2266.86,487.68Z"/><path class="s2d-cg-1_7" d="M2281.77,505.61c-.05-5,.63-12.66,1.55-12.67s1.74,7.66,1.78,12.64-.69,5.39-1.61,5.4S2281.82,510.59,2281.77,505.61Z"/><path class="s2d-cg-1_7" d="M2296,478.65c-3.49,3.56-9.4,8.51-10.06,7.87s4.19-6.65,7.68-10.2,4.3-3.32,4.95-2.67S2299.45,475.1,2296,478.65Z"/><path class="s2d-cg-1_7" d="M2270.6,499.73c3.49-3.55,9.4-8.5,10.06-7.86s-4.19,6.65-7.68,10.2-4.3,3.32-5,2.67S2267.11,503.29,2270.6,499.73Z"/><path class="s2d-cg-1_7" d="M2293.82,501.87c-3.55-3.48-8.5-9.39-7.86-10.05s6.65,4.19,10.2,7.68,3.32,4.3,2.67,4.95S2297.38,505.36,2293.82,501.87Z"/><path class="s2d-cg-1_7" d="M2272.74,476.51c3.56,3.49,8.51,9.4,7.87,10.06s-6.65-4.19-10.2-7.68-3.32-4.3-2.67-5S2269.19,473,2272.74,476.51Z"/><path class="s2d-cg-1_7" d="M2299.7,490.71c-5,0-12.66-.63-12.67-1.55s7.66-1.74,12.64-1.79,5.39.7,5.4,1.62S2304.68,490.66,2299.7,490.71Z"/><path class="s2d-cg-1_7" d="M2284.8,472.77c0,5-.63,12.66-1.55,12.67s-1.74-7.66-1.79-12.64.7-5.38,1.62-5.39S2284.75,467.79,2284.8,472.77Z"/><path class="s2d-cg-1_1" d="M564.53,425.45c-1.33-1.28-1.75.2-2.41.78-1.41,1.26-2.52,2.87-4.42,3.5-1.2,2.36-3.62,3.18-5.7,4.34a24.9,24.9,0,0,1-8,3.11c2.4-3.65,5.8-6.44,8.5-9.83a139.32,139.32,0,0,0,10.94-19.14c.22-.95.43-1.91.65-2.86l-2.87-1a33.15,33.15,0,0,1-4.64,10.41c-1.22,4.35-4,7.67-7,10.86a37.29,37.29,0,0,1-5.69,6.41,50.56,50.56,0,0,1,1-9.16c.22-5.78,1.84-11.27,3.57-16.73L545.87,405q-1.77,8-3.55,16A72.75,72.75,0,0,1,540.24,435c-.35,1.43-1.56,2.11-2.48,3-1.82,1.81-3.66,3.6-5.63,5.54-.66-1.59-.18-3.19-.27-4.71-.44-7.12-.93-14.22-2-21.28A6.28,6.28,0,0,1,530,416c-.84-1.64.31-2.64,1.15-3.8,4.55-6.33,10-12.1,12.44-19.75.32-1,.67-2,1-3l-2.08-.95c-.27,3.56-2.2,6.43-4,9.31-2.19,3.45-5.21,6.19-8.1,9.13a72.06,72.06,0,0,1,5.68-23.73l-2.72-1c-1.13,3.72-3.15,7.1-4.2,10.87-2,7.23-2.5,14.61-2.66,22,.1,3.59.29,8,.5,12.73a30.67,30.67,0,0,1-7.15-3.56q-1-.63-2-1.29l.22-.13a55.67,55.67,0,0,1-7.4-20.74l-2.66.38a58.55,58.55,0,0,0,5.41,17.43,111.35,111.35,0,0,1-18.64-17.08l-2,1.76a114.21,114.21,0,0,0,14.37,13.88c-.5,0-1,0-1.49,0a81.46,81.46,0,0,1-18.93-3l-.72,2.59a84.48,84.48,0,0,0,19.55,3.06,14.83,14.83,0,0,0,4.53-.36q4.05,3.06,8.36,5.77a35.58,35.58,0,0,0,7.12,3.62c.52.18,1.05.35,1.59.48.54,12.12,1.11,26,.6,34.92,1.12.25,2.2.9,3.32,1.15.14-3.36.61-17.77,3.34-20.25a12.86,12.86,0,0,1,3.67-2.55c4.86-2.1,9.69-4.3,14.5-6.53,2.86-1.33,5.14-3.52,7.58-5.45,1.23-1.31,2.55-2.56,3.66-4C564.31,427.3,565.89,426.76,564.53,425.45Zm-21,11.77.32,0-.3.23Z"/><path class="s2d-cg-1_4" d="M689.64,448.58c-6.37-.06-16.19.8-16.2,2s9.79,2.22,16.16,2.28,6.89-.89,6.91-2.07S696,448.64,689.64,448.58Z"/><path class="s2d-cg-1_4" d="M670.57,471.52c.06-6.37-.8-16.2-2-16.21s-2.22,9.8-2.28,16.17.89,6.89,2.07,6.9S670.51,477.89,670.57,471.52Z"/><path class="s2d-cg-1_4" d="M652.41,437c4.47,4.55,12,10.88,12.87,10.06s-5.36-8.5-9.82-13-5.5-4.24-6.35-3.42S648,432.48,652.41,437Z"/><path class="s2d-cg-1_4" d="M684.86,464c-4.46-4.55-12-10.89-12.86-10.06s5.35,8.5,9.82,13.05,5.5,4.24,6.34,3.41S689.32,468.54,684.86,464Z"/><path class="s2d-cg-1_4" d="M655.15,466.74c4.55-4.47,10.89-12,10.06-12.87s-8.5,5.36-13.05,9.82-4.24,5.5-3.41,6.35S650.61,471.2,655.15,466.74Z"/><path class="s2d-cg-1_4" d="M682.12,434.29c-4.55,4.46-10.88,12-10.06,12.86s8.5-5.35,13.05-9.82,4.24-5.5,3.42-6.34S686.67,429.83,682.12,434.29Z"/><path class="s2d-cg-1_4" d="M647.63,452.45c6.37.06,16.2-.8,16.21-2s-9.8-2.23-16.17-2.29-6.89.9-6.9,2.07S641.26,452.39,647.63,452.45Z"/><path class="s2d-cg-1_4" d="M666.7,429.51c-.06,6.37.8,16.19,2,16.21s2.23-9.8,2.29-16.17-.89-6.89-2.07-6.91S666.76,423.14,666.7,429.51Z"/><circle class="s2d-cg-1_3" cx="470.8" cy="376.55" r="8.62"/><circle class="s2d-cg-1_1" cx="569.81" cy="478.06" r="8.62"/><circle class="s2d-cg-1_3" cx="713.72" cy="405.63" r="8.62"/><circle class="s2d-cg-1_3" cx="579.17" cy="357.98" r="5.4"/><circle class="s2d-cg-1_7" cx="792.25" cy="478.18" r="5.4"/><circle class="s2d-cg-1_4" cx="600.52" cy="521.09" r="5.4"/><circle class="s2d-cg-1_1" cx="647.99" cy="532.29" r="5.4"/><path class="s2d-cg-1_1" d="M587.57,643.69a58,58,0,0,1,3.85-9.78,42.23,42.23,0,0,1,6.26-8.71l4.09,4a37.64,37.64,0,0,0-6.27,7.08,53.67,53.67,0,0,0-4.43,8.65Z"/><path class="s2d-cg-1_1" d="M569.81,638.86A105.83,105.83,0,0,0,570,618l5.75-.24a111.62,111.62,0,0,1-2.27,21.71Z"/><path class="s2d-cg-1_1" d="M551.4,642a155.43,155.43,0,0,1-5.53-19.9l5.68-.89A149.39,149.39,0,0,0,555,640.92Z"/><path class="s2d-cg-1_7" d="M510.31,590.38a57,57,0,0,1,3.84-9.77,42,42,0,0,1,6.26-8.72l4.09,4a37.39,37.39,0,0,0-6.27,7.09,53.16,53.16,0,0,0-4.43,8.64Z"/><path class="s2d-cg-1_7" d="M492.54,585.55a106.61,106.61,0,0,0,.21-20.9l5.74-.23a110.83,110.83,0,0,1-2.27,21.7Z"/><path class="s2d-cg-1_7" d="M474.14,588.68a153.55,153.55,0,0,1-5.54-19.91l5.68-.88a150,150,0,0,0,3.42,19.73Z"/><path class="s2d-cg-1_1" d="M718.85,572.77A57.9,57.9,0,0,1,722.7,563a42,42,0,0,1,6.26-8.72l4.09,4a37.39,37.39,0,0,0-6.27,7.09,53.16,53.16,0,0,0-4.43,8.64Z"/><path class="s2d-cg-1_1" d="M701.09,567.94a105.83,105.83,0,0,0,.2-20.9l5.75-.23a111.6,111.6,0,0,1-2.27,21.7Z"/><path class="s2d-cg-1_1" d="M682.68,571.07a155.12,155.12,0,0,1-5.53-19.91l5.68-.88A150,150,0,0,0,686.25,570Z"/><path class="s2d-cg-1_1" d="M890.85,517a57.43,57.43,0,0,1,3.84-9.78,42.23,42.23,0,0,1,6.26-8.71l4.09,4a37.64,37.64,0,0,0-6.27,7.08,53.67,53.67,0,0,0-4.43,8.65Z"/><path class="s2d-cg-1_1" d="M873.08,512.17a106.61,106.61,0,0,0,.21-20.9L879,491a110.83,110.83,0,0,1-2.27,21.7Z"/><path class="s2d-cg-1_1" d="M854.68,515.29a153.41,153.41,0,0,1-5.54-19.9l5.68-.89a149.39,149.39,0,0,0,3.42,19.73Z"/><path class="s2d-cg-1_7" d="M638.51,611.16a30.91,30.91,0,0,0-2.06-5.22,22.8,22.8,0,0,0-3.34-4.66l-2.19,2.16a19.88,19.88,0,0,1,3.35,3.78,28.66,28.66,0,0,1,2.37,4.62Z"/><path class="s2d-cg-1_7" d="M648,608.58a57,57,0,0,1-.11-11.16l-3.06-.13A58.3,58.3,0,0,0,646,608.88Z"/><path class="s2d-cg-1_7" d="M657.82,610.25a80.55,80.55,0,0,0,3-10.64l-3-.47a79,79,0,0,1-1.83,10.54Z"/><path class="s2d-cg-1_7" d="M496.55,685.38a30.35,30.35,0,0,0-2.05-5.22,22.8,22.8,0,0,0-3.34-4.66L489,677.66a19.88,19.88,0,0,1,3.35,3.78,29.08,29.08,0,0,1,2.37,4.62Z"/><path class="s2d-cg-1_7" d="M506,682.8a57,57,0,0,1-.11-11.16l-3.07-.13a59.06,59.06,0,0,0,1.22,11.59Z"/><path class="s2d-cg-1_7" d="M515.87,684.47a82.11,82.11,0,0,0,3-10.64l-3-.47A79,79,0,0,1,514,683.9Z"/><path class="s2d-cg-1_4" d="M583.1,587.91a30.35,30.35,0,0,0-2.05-5.22,22.73,22.73,0,0,0-3.34-4.65l-2.19,2.15a20.19,20.19,0,0,1,3.35,3.78,29.08,29.08,0,0,1,2.37,4.62Z"/><path class="s2d-cg-1_4" d="M592.59,585.33a57,57,0,0,1-.11-11.16l-3.06-.13a58.33,58.33,0,0,0,1.21,11.6Z"/><path class="s2d-cg-1_4" d="M602.42,587a82,82,0,0,0,3-10.63l-3-.47a79.32,79.32,0,0,1-1.83,10.54Z"/><path class="s2d-cg-1_4" d="M744.08,529.16a31.25,31.25,0,0,0-2.06-5.22,22.8,22.8,0,0,0-3.34-4.66l-2.19,2.16a19.88,19.88,0,0,1,3.35,3.78,29.08,29.08,0,0,1,2.37,4.62Z"/><path class="s2d-cg-1_4" d="M753.56,526.58a56.27,56.27,0,0,1-.1-11.16l-3.07-.13a59.08,59.08,0,0,0,1.21,11.6Z"/><path class="s2d-cg-1_4" d="M763.4,528.25a81.93,81.93,0,0,0,3-10.63l-3-.47a79.32,79.32,0,0,1-1.83,10.54Z"/><path class="s2d-cg-1_4" d="M951.19,493.79a30.35,30.35,0,0,0-2.05-5.22,22.8,22.8,0,0,0-3.34-4.66l-2.19,2.16a19.88,19.88,0,0,1,3.35,3.78,29.08,29.08,0,0,1,2.37,4.62Z"/><path class="s2d-cg-1_4" d="M960.68,491.21a57,57,0,0,1-.11-11.16l-3.06-.13a58.4,58.4,0,0,0,1.21,11.6Z"/><path class="s2d-cg-1_4" d="M970.51,492.88a82,82,0,0,0,3-10.63l-3-.47a79.32,79.32,0,0,1-1.83,10.54Z"/><path class="s2d-cg-1_7" d="M796,548.85a31.19,31.19,0,0,0-2-5.22,22.46,22.46,0,0,0-3.35-4.66l-2.19,2.16a19.94,19.94,0,0,1,3.36,3.78,29,29,0,0,1,2.36,4.62Z"/><path class="s2d-cg-1_7" d="M805.53,546.27a56.28,56.28,0,0,1-.11-11.16l-3.07-.13a59.82,59.82,0,0,0,1.21,11.59Z"/><path class="s2d-cg-1_7" d="M815.36,547.94a82.11,82.11,0,0,0,3-10.64l-3-.47a79,79,0,0,1-1.83,10.54Z"/><path class="s2d-cg-1_9" d="M317.45,517.23c7.17-8.34,20.05-8.12,30.85-6.07s22.44,5.15,32.39.45c20.79-9.82,17.32-44.26,36.94-56.25,12.47-7.61,29.09-2.77,42.68-8.13,10.79-4.25,18.79-14.62,30.18-16.86,12.28-2.4,24.46,5.74,31.75,15.91s11.16,22.36,17.1,33.38,15.07,21.53,27.38,23.84c16.21,3.05,35-8.51,48.36,1.24,14.74,10.8,8.57,38.79,24.86,47.06,10.39,5.27,22.85-1.54,34.45-.43,12.51,1.2,22.5,11.8,26.81,23.6,0,.12.09.24.13.36,6.44,18-7.24,36.9-26.37,36.9H306Z"/><path class="s2d-cg-1_7" d="M502.41,487.68c-5-.05-12.66.63-12.67,1.55S497.4,491,502.38,491s5.38-.69,5.39-1.61S507.39,487.73,502.41,487.68Z"/><path class="s2d-cg-1_7" d="M487.5,505.61c.05-5-.63-12.66-1.55-12.67s-1.73,7.66-1.78,12.64.69,5.39,1.62,5.4S487.46,510.59,487.5,505.61Z"/><path class="s2d-cg-1_7" d="M473.31,478.65c3.49,3.56,9.39,8.51,10.05,7.87s-4.18-6.65-7.67-10.2-4.3-3.32-5-2.67S469.82,475.1,473.31,478.65Z"/><path class="s2d-cg-1_7" d="M498.67,499.73c-3.49-3.55-9.4-8.5-10.05-7.86s4.18,6.65,7.67,10.2,4.3,3.32,5,2.67S502.16,503.29,498.67,499.73Z"/><path class="s2d-cg-1_7" d="M475.45,501.87c3.55-3.48,8.51-9.39,7.86-10.05s-6.64,4.19-10.2,7.68-3.31,4.3-2.67,4.95S471.89,505.36,475.45,501.87Z"/><path class="s2d-cg-1_7" d="M496.53,476.51c-3.55,3.49-8.51,9.4-7.86,10.06s6.64-4.19,10.2-7.68,3.31-4.3,2.67-5S500.08,473,496.53,476.51Z"/><path class="s2d-cg-1_7" d="M469.57,490.71c5,0,12.66-.63,12.67-1.55s-7.66-1.74-12.64-1.79-5.39.7-5.4,1.62S464.59,490.66,469.57,490.71Z"/><path class="s2d-cg-1_7" d="M484.48,472.77c-.05,5,.62,12.66,1.54,12.67s1.74-7.66,1.79-12.64-.7-5.38-1.62-5.39S484.52,467.79,484.48,472.77Z"/><path class="s2d-cg-1_4" d="M1307,500.49c4.15,3.19,10.44,3.62,16.19,3.85,45.53,1.8,91.15,2.17,136.69.63,7.57-.25,16.82-1.5,19.34-7.19,1.45-3.29-73-5.08-77.6-5.1-30.83-.17-61.73.5-92.37,3.36-1.38.13-3,.39-3.58,1.39S1306,499.69,1307,500.49Zm67.17-1.32h0Zm-30.87,1.2-9.12-.64A37.21,37.21,0,0,1,1343.33,500.37Z"/><path class="s2d-cg-1_4" d="M1525.76,556.57c14.32-.38,31.81-2.22,36.58-10.61,2.75-4.85-138.12-7.48-146.79-7.52-28.33-.12-56.68.06-85,.75a9,9,0,0,0-8.76,9h0a9,9,0,0,0,8.83,9Q1428.17,559,1525.76,556.57Zm-72-5.9c-2.6,1.62-25.43.63-28.19-.13Zm-44.23-1.46-60-.42A395.2,395.2,0,0,1,1409.48,549.21Z"/><path class="s2d-cg-1_4" d="M1236.57,550c7.84,4.71,19.74,5.34,30.63,5.68l14.27.41a7.54,7.54,0,0,0,7.75-7.54h0a7.54,7.54,0,0,0-7.9-7.54q-20.28,1-40.5,2.44c-2.61.19-5.66.57-6.76,2.05S1234.61,548.77,1236.57,550Z"/><path class="s2d-cg-1_4" d="M1106,601.48c14.28,4.7,36,5.34,55.8,5.67q235.37,4,471.14.94c26.1-.37,58-2.21,66.66-10.6,5-4.85-251.67-7.49-267.48-7.52-106.27-.24-212.75.73-318.38,4.95-4.76.19-10.31.58-12.33,2.06S1102.46,600.3,1106,601.48Zm302.17-.18c21.32-.95,42.68-3.1,63.53.94l-63.53-.94a217.78,217.78,0,0,1-32.62-.48Z"/><path class="s2d-cg-1_4" d="M1334.21,499.73l9.12.64A37.21,37.21,0,0,0,1334.21,499.73Z"/><path class="s2d-cg-1_4" d="M1349.49,548.79l60,.42A395.2,395.2,0,0,0,1349.49,548.79Z"/><path class="s2d-cg-1_4" d="M1453.71,550.67l-28.19-.13C1428.28,551.3,1451.11,552.29,1453.71,550.67Z"/><path class="s2d-cg-1_4" d="M1408.21,601.3l63.53.94C1450.89,598.2,1429.53,600.35,1408.21,601.3Z"/><path class="s2d-cg-1_4" d="M1408.21,601.3l-32.62-.48A217.78,217.78,0,0,0,1408.21,601.3Z"/><path class="s2d-cg-1_4" d="M1424.07,649.86c-164.31-.24-328.94.74-492.25,5-7.36.19-15.94.57-19.06,2s1.56,3.33,7.1,4.51c22.07,4.7,55.6,5.33,86.27,5.67q283,3.09,566.59,2a9,9,0,0,0,9-9h0a9,9,0,0,0-8.94-9C1497.64,650.27,1433.44,649.88,1424.07,649.86Zm-15.61,11.34h-.5a217.11,217.11,0,0,1-32.37-.49l32.34.47h.56c21.23-1,42.5-3.08,63.25.95Zm127.67-.65-.29,0-.85,0-.44,0h0l-.65,0h0l.65,0h0l.44,0c-14,.6-28.23,1.18-42-1.65l42,1.65.85,0,.29,0h0Z"/><path class="s2d-cg-1_4" d="M1614.28,660.2h0a8.63,8.63,0,0,0,8.68,8.63q55.8-.33,111.58-.84c40.36-.38,89.63-2.21,103.06-10.61,4.13-2.58-106.56-4.54-214.6-5.8A8.62,8.62,0,0,0,1614.28,660.2Z"/><path class="s2d-cg-1_4" d="M1408.21,661.2l-32.62-.48A220.47,220.47,0,0,0,1408.21,661.2Z"/><path class="s2d-cg-1_4" d="M1408.21,661.2l63.53.94C1450.89,658.1,1429.53,660.25,1408.21,661.2Z"/><path class="s2d-cg-1_4" d="M1533.65,660.66Z"/><path class="s2d-cg-1_4" d="M1535.84,660.57l-.85,0Z"/><path class="s2d-cg-1_4" d="M1535,660.6,1493,659C1506.76,661.78,1521,661.2,1535,660.6Z"/><path class="s2d-cg-1_4" d="M1536.42,660.54h0Z"/><path class="s2d-cg-1_4" d="M1534.5,660.62l-.65,0Z"/><path class="s2d-cg-1_4" d="M1244.72,444.53l-52.35,20L1140,484.43l-104.81,39.74-104.9,39.49-105,39.21c-35,13-69.89,26.45-104.81,39.73s-70.08,25.93-105.43,38-70.83,23.84-106.45,35.18S437.18,738.1,401.05,748l-.68-1.88c34.18-15.36,68.75-29.63,103.41-43.65s69.51-27.5,104.46-40.7S678.37,636,713.73,624s70.81-23.91,106.11-36.15l105.91-36.67,106-36.39,106.11-36.13,53-18.06L1244,442.65Z"/><path class="s2d-cg-1_4" d="M2320.34,748c-33.34-10-66.26-21.08-99.08-32.41s-65.43-23.18-97.93-35.32-64.77-24.87-96.83-38.15-64-26.74-96.16-39.82L1834,563l-96.26-39.58-96.16-39.84-48.08-19.92-48-20.07.73-1.86,48.84,18,48.78,18.13,97.56,36.27,97.47,36.52,97.36,36.79c32.44,12.29,65,24.23,97.55,36.29s64.83,24.73,96.9,38,64,26.8,95.79,40.78,63.41,28.33,94.65,43.7Z"/></svg>
