<svg id="Layer_1" data-name="Layer 1" xmlns="http://www.w3.org/2000/svg" xmlns:xlink="http://www.w3.org/1999/xlink" viewBox="0 0 1323.89 1323.89"><defs><style>.s2d-c1_1{fill:#919a51;}.s2d-c1_2{fill:#d7a234;}.s2d-c1_3{fill:#2f4862;}.s2d-c1_4,.s2d-c1_7{fill:#fff;}.s2d-c1_5{fill:#357d74;}.s2d-c1_10,.s2d-c1_11,.s2d-c1_6{fill:none;}.s2d-c1_6{stroke:#d7a234;stroke-miterlimit:10;stroke-width:5.82px;}.s2d-c1_7{font-size:25.46px;font-family:PermanentMarker;letter-spacing:0.08em;}.s2d-c1_8{letter-spacing:0.1em;}.s2d-c1_9{letter-spacing:0.05em;}.s2d-c1_10,.s2d-c1_11{stroke:#357d74;stroke-linecap:round;stroke-linejoin:round;stroke-width:6.94px;}.s2d-c1_11{stroke-dasharray:0 29.86;}.s2d-c1_12{fill:url(#s2d-c1-lg);}</style><linearGradient id="s2d-c1-lg" x1="724.45" y1="-8994.93" x2="724.45" y2="-8949.08" gradientTransform="translate(-63.24 10181.65)" gradientUnits="userSpaceOnUse"><stop offset="0" stop-color="#3b6660" stop-opacity="0"/><stop offset="1" stop-color="#2f4f51"/></linearGradient></defs><title>Part 2 a</title><path class="s2d-c1_1" d="M776.78,391.21V1188h446.54l-97.1-279.24c-8.48-24.38-29.77-40.41-53.44-40.22l-39.51.31L962.12,644.46c-8-25.34-29.72-42.28-54-42.24l-31.56.07L812.73,387.43h0C807.48,369.76,776.78,373,776.78,391.21Z"/><path class="s2d-c1_1" d="M546.79,391.21V1188H100.25l97.1-279.24c8.48-24.38,29.77-40.41,53.44-40.22l39.51.31,71.15-224.36c8-25.34,29.72-42.28,54.05-42.24l31.56.07,63.78-214.86h0C516.09,369.76,546.79,373,546.79,391.21Z"/><rect class="s2d-c1_1" x="546.79" y="668.71" width="229.98" height="519.25"/><path class="s2d-c1_2" d="M691,103V367H802.21L778,274.46c-2.11-8.07-7.41-13.38-13.31-13.32l-9.84.1-17.73-74.32c-2-8.4-7.4-14-13.46-14l-7.87,0-15.89-71.18h0C698.62,95.92,691,97,691,103Z"/><path class="s2d-c1_2" d="M633.67,103V367H522.43l24.19-92.51c2.11-8.07,7.41-13.38,13.31-13.32l9.84.1,17.73-74.32c2-8.4,7.4-14,13.46-14l7.87,0,15.89-71.18h0C626,95.92,633.67,97,633.67,103Z"/><rect class="s2d-c1_3" x="444.14" y="831.28" width="438.87" height="333.85"/><rect class="s2d-c1_3" x="551.41" y="654.66" width="197.46" height="65.36"/><rect class="s2d-c1_3" x="748.45" y="654.66" width="25.26" height="65.36"/><rect class="s2d-c1_3" x="655.73" y="523.98" width="17.99" height="5.15"/><rect class="s2d-c1_3" x="661.7" y="450.93" width="6.05" height="73.06"/><polygon class="s2d-c1_3" points="668.73 528.08 725.66 640.54 774.35 640.54 699.35 528.08 668.73 528.08"/><polygon class="s2d-c1_3" points="634.1 528.08 557.85 640.54 641.55 640.54 661.78 528.08 634.1 528.08"/><polygon class="s2d-c1_3" points="661.78 528.08 641.55 640.54 685.42 640.54 725.66 640.54 668.73 528.08 661.78 528.08"/><path class="s2d-c1_2" d="M663.88,946.53l-47,22.53a89.42,89.42,0,0,0-50.63,80.67v120.85H761.48V1049.73a89.44,89.44,0,0,0-50.61-80.67Z"/><path class="s2d-c1_4" d="M717.35,954.48l-45-21.43-1.16-.55a15.48,15.48,0,0,0-13.38,0l-46.09,22a103.23,103.23,0,0,0-58.53,92.74v117.9h15.54v-117.9a88.12,88.12,0,0,1,1.09-13.54,87.16,87.16,0,0,1,48.59-65.17l46.09-22,7.85,3.74,38.26,18.24a87.21,87.21,0,0,1,49.65,78.71v117.9h15.55v-117.9a101.3,101.3,0,0,0-.94-13.54A103.27,103.27,0,0,0,717.35,954.48Z"/><path class="s2d-c1_2" d="M459.46,926H438.72s-22.39,22.79-7.79,37.4H413v201.75H516.68l0-201.75,21.84-21.84A53.11,53.11,0,0,0,554.11,904V868.72H459.46Z"/><path class="s2d-c1_2" d="M889.55,963.37H864.86L902.27,926H864.41V868.72H774.35V902a57.85,57.85,0,0,0,16.95,40.93l20.45,20.45H811v201.75H914.69V963.37Z"/><path class="s2d-c1_2" d="M945.39,737a50.66,50.66,0,0,0-38.16-17.35H424.46a51.49,51.49,0,0,0-38.8,17.64L271,868.72h789.32Z"/><path class="s2d-c1_3" d="M444.14,868.4v296.72H285.5l33.11-86.28a25.77,25.77,0,0,1,24.25-16.54l10.16.07,25.07-71.65a21.16,21.16,0,0,1,20-14.18l10.6,0,22.66-69.17Z"/><rect class="s2d-c1_3" x="444.14" y="868.4" width="24.77" height="296.72"/><path class="s2d-c1_3" d="M883,868.4v296.72h158.64l-34.5-89.9a20.18,20.18,0,0,0-19-13l-14,.1-25.28-72.23a20.29,20.29,0,0,0-19.2-13.6l-11.21,0-22.66-69.17Z"/><rect class="s2d-c1_3" x="858.24" y="868.4" width="24.77" height="296.72"/><rect class="s2d-c1_1" x="858.24" y="968.34" width="60.2" height="8.22"/><rect class="s2d-c1_1" x="858.24" y="1054.01" width="119.32" height="8.22"/><rect class="s2d-c1_1" x="408.71" y="968.34" width="60.2" height="8.22" transform="translate(877.62 1944.9) rotate(-180)"/><rect class="s2d-c1_1" x="349.59" y="1054.01" width="119.32" height="8.22" transform="translate(818.5 2116.24) rotate(-180)"/><rect class="s2d-c1_3" x="683.6" y="1041.53" width="5.51" height="63.53" rx="2.76" ry="2.76"/><rect class="s2d-c1_3" x="642.12" y="1041.53" width="5.51" height="63.53" rx="2.76" ry="2.76"/><rect class="s2d-c1_4" x="656.92" y="940.03" width="17.58" height="225.09"/><path class="s2d-c1_4" d="M360.1,837.68C364,831.93,370.81,827.52,376,823l16.75-14.43c2.12-1.83-1-4.88-3.06-3.07l-18.21,15.68c-5.13,4.42-11.32,8.59-15.13,14.27-1.56,2.33,2.19,4.5,3.74,2.19Z"/><path class="s2d-c1_5" d="M668.3,836.08a134.32,134.32,0,0,1-.07-31.43c.32-2.76-4-2.74-4.34,0a133.78,133.78,0,0,0,.08,31.43c.32,2.73,4.67,2.77,4.33,0Z"/><path class="s2d-c1_4" d="M626.57,838.9c2.63-11.07,6.37-21.61,10.06-32.35.9-2.64-3.29-3.78-4.19-1.15-3.68,10.74-7.42,21.27-10.05,32.34-.64,2.72,3.54,3.88,4.18,1.16Z"/><path class="s2d-c1_5" d="M582.07,838.78a201.54,201.54,0,0,0,17.28-31.71c1.1-2.54-2.64-4.75-3.74-2.19a202.36,202.36,0,0,1-17.28,31.71c-1.56,2.33,2.2,4.51,3.74,2.19Z"/><path class="s2d-c1_4" d="M537.91,838.78c7.62-10,15.48-19.86,22.53-30.3,1.56-2.32-2.19-4.5-3.75-2.19-7.05,10.44-14.9,20.28-22.52,30.3-1.69,2.22,2.07,4.39,3.74,2.19Z"/><path class="s2d-c1_5" d="M493.05,839.54c9-10,17.68-20.21,25.23-31.38,1.57-2.32-2.19-4.49-3.74-2.19-7.35,10.87-15.8,20.76-24.56,30.5-1.86,2.07,1.19,5.15,3.07,3.07Z"/><path class="s2d-c1_4" d="M447.09,838.83l31-29c2.05-1.91-1-5-3.06-3.07l-31,29c-2,1.91,1,5,3.07,3.07Z"/><path class="s2d-c1_5" d="M403.71,838.28l31.09-27.79c2.08-1.86-1-4.92-3.07-3.06l-31.09,27.78c-2.08,1.86,1,4.92,3.07,3.07Z"/><path class="s2d-c1_4" d="M975.2,835.49c-3.81-5.67-10-9.85-15.13-14.27l-18.21-15.68c-2.1-1.81-5.19,1.24-3.07,3.07L955.54,823c5.23,4.5,12.05,8.88,15.92,14.64,1.54,2.31,5.3.14,3.74-2.19Z"/><path class="s2d-c1_4" d="M709.17,837.74c-2.63-11.06-6.37-21.61-10-32.34-.9-2.63-5.1-1.5-4.19,1.15,3.69,10.74,7.43,21.28,10.05,32.35.65,2.71,4.83,1.56,4.19-1.16Z"/><path class="s2d-c1_5" d="M753.23,836.59A202.36,202.36,0,0,1,736,804.88c-1.1-2.56-4.84-.35-3.74,2.19a201.54,201.54,0,0,0,17.28,31.71c1.54,2.31,5.3.14,3.74-2.19Z"/><path class="s2d-c1_4" d="M797.39,836.59c-7.62-10-15.48-19.86-22.52-30.3-1.56-2.3-5.32-.14-3.75,2.19,7,10.44,14.91,20.28,22.53,30.3,1.67,2.19,5.43,0,3.74-2.19Z"/><path class="s2d-c1_5" d="M841.58,836.47c-8.76-9.74-17.21-19.63-24.56-30.5-1.55-2.3-5.32-.13-3.75,2.19,7.56,11.17,16.24,21.36,25.24,31.38,1.87,2.08,4.93-1,3.07-3.07Z"/><path class="s2d-c1_4" d="M887.54,835.76l-31-29c-2-1.91-5.11,1.16-3.07,3.07l31,29c2,1.91,5.11-1.16,3.07-3.07Z"/><path class="s2d-c1_5" d="M930.91,835.21l-31.08-27.78c-2.08-1.86-5.16,1.2-3.07,3.06l31.09,27.79c2.07,1.85,5.15-1.21,3.06-3.07Z"/><path class="s2d-c1_5" d="M667.39,777.94a134.23,134.23,0,0,1-.07-31.42c0-.25-2.44,0-2.52.67a134.23,134.23,0,0,0,.08,31.42c0,.42,2.58-.06,2.51-.67Z"/><path class="s2d-c1_4" d="M625.72,780.29c2.63-11.06,6.37-21.6,10-32.34.15-.44-2.26-.19-2.48.45-3.68,10.74-7.42,21.28-10,32.34-.12.52,2.33.18,2.48-.45Z"/><path class="s2d-c1_5" d="M581.37,779.9A203.74,203.74,0,0,0,598.73,748c.33-.75-2.16-.48-2.51.33A201.38,201.38,0,0,1,579,779.87c-.62.94,1.89.7,2.34,0Z"/><path class="s2d-c1_4" d="M537.2,779.86c7.62-10,15.47-19.86,22.52-30.3.58-.85-1.9-.56-2.31,0-7,10.45-14.91,20.28-22.53,30.3-.61.81,1.87.55,2.32,0Z"/><path class="s2d-c1_5" d="M492.56,780.54c8.94-9.94,17.54-20.06,25.05-31.15.75-1.11-1.81-1.11-2.4-.25-7.4,10.94-15.92,20.91-24.74,30.72-1.05,1.16,1.36,1.49,2.09.68Z"/><path class="s2d-c1_4" d="M446.56,779.71l31-29c1.06-1-1.41-1-2-.43l-31,29c-1.06,1,1.41,1,2,.43Z"/><path class="s2d-c1_5" d="M403.19,779.15l31.08-27.78c1.08-1-1.4-1-2-.42l-31.08,27.78c-1.08,1,1.4,1,2,.42Z"/><path class="s2d-c1_4" d="M708.33,780.18c-2.62-11.06-6.37-21.61-10.05-32.34-.31-.91-2.81-.19-2.51.67,3.68,10.74,7.42,21.28,10.05,32.35.21.9,2.73.25,2.51-.68Z"/><path class="s2d-c1_5" d="M752.54,779.42a200.29,200.29,0,0,1-17.2-31.58c-.33-.76-2.79,0-2.52.67a202.85,202.85,0,0,0,17.37,31.84c.39.59,2.83-.2,2.35-.93Z"/><path class="s2d-c1_4" d="M796.69,779.38c-7.63-10-15.48-19.85-22.53-30.3-.49-.72-2.93.12-2.33,1,7,10.45,14.9,20.28,22.52,30.3.54.71,3-.16,2.34-1Z"/><path class="s2d-c1_5" d="M841.22,779.73c-8.88-9.88-17.45-19.91-24.9-30.93-.41-.61-2.85.19-2.35.93,7.46,11,16,21.06,24.9,30.94.52.57,2.91-.32,2.35-.94Z"/><path class="s2d-c1_5" d="M887.16,779l-31-29c-.73-.68-3.11.31-2.32,1.05l31,29c.73.68,3.1-.31,2.31-1Z"/><path class="s2d-c1_4" d="M930.56,778.51l-31.08-27.78c-.51-.45-2.77.5-2.37.86l31.09,27.78c.5.46,2.77-.5,2.36-.86Z"/><path class="s2d-c1_6" d="M686.83,623.3c0-19.77,0-19.77-.48-31.72-.32-7.73-1.68-15.61-5.25-22.48s-10.52-12.57-18.26-12.32-14.39,6.5-17.46,13.67-3.33,15.2-3.53,23l-.79,29.84"/><path class="s2d-c1_2" d="M631.08,623.23l66.75.88c3.75,0,3.75-5.77,0-5.82l-66.75-.88c-3.74,0-3.75,5.77,0,5.82Z"/><path class="s2d-c1_2" d="M819.26,1078.93a107.22,107.22,0,0,1,1.27,24.47c-.23,3.74,5.6,3.73,5.82,0a113.86,113.86,0,0,0-1.48-26c-.63-3.69-6.24-2.13-5.61,1.54Z"/><path class="s2d-c1_2" d="M775.36,640.54H595.85l-27.12,27.12v1.05h232.7a1,1,0,0,0,1.05-1.05h0Z"/><path class="s2d-c1_2" d="M725.55,640.54H558.49c-10.6,10.59-16.53,16.54-27.12,27.12v1.05H752.68v-1.05C742.08,657.08,736.14,651.13,725.55,640.54Z"/><path class="s2d-c1_2" d="M557.85,640.62l-28.1,28.09H586Z"/><path class="s2d-c1_2" d="M614.05,640.62,586,668.71h56.19Z"/><path class="s2d-c1_2" d="M669.6,640.62l-28.1,28.09h56.2Z"/><path class="s2d-c1_2" d="M725.79,640.62,697.7,668.71h56.19Z"/><polygon class="s2d-c1_2" points="753.89 668.71 775.36 640.54 803.95 668.71 753.89 668.71"/><text class="s2d-c1_7" transform="translate(568.73 701.59)">Pa<tspan class="s2d-c1_8" x="35.17" y="0">sir B</tspan><tspan class="s2d-c1_9" x="108.53" y="0">at</tspan><tspan class="s2d-c1_8" x="138.08" y="0">ang</tspan></text><rect class="s2d-c1_3" x="444.03" y="868.72" width="438.98" height="18.92"/><path class="s2d-c1_2" d="M659.38,887.65c7.6,0,19.33,1,19.34,2.42s-11.69,2.63-19.3,2.68-8.22-1.09-8.23-2.5S651.77,887.7,659.38,887.65Z"/><path class="s2d-c1_2" d="M618,887.65c7.6,0,19.33,1,19.34,2.42s-11.69,2.63-19.29,2.68-8.23-1.09-8.24-2.5S610.41,887.7,618,887.65Z"/><path class="s2d-c1_2" d="M577.07,887.65c7.6,0,19.33,1,19.34,2.42s-11.69,2.63-19.29,2.68-8.23-1.09-8.24-2.5S569.47,887.7,577.07,887.65Z"/><path class="s2d-c1_2" d="M740,887.65c7.61,0,19.33,1,19.35,2.42s-11.7,2.63-19.3,2.68-8.23-1.09-8.24-2.5S732.4,887.7,740,887.65Z"/><path class="s2d-c1_2" d="M701.5,887.65c7.6,0,19.33,1,19.34,2.42s-11.69,2.63-19.29,2.68-8.23-1.09-8.24-2.5S693.9,887.7,701.5,887.65Z"/><path class="s2d-c1_3" d="M108.25,1163H1215.68a25.43,25.43,0,0,1,25.43,25.43v0a0,0,0,0,1,0,0H82.82a0,0,0,0,1,0,0v0A25.43,25.43,0,0,1,108.25,1163Z"/><path class="s2d-c1_3" d="M476.85,353.72H834.6a30.84,30.84,0,0,1,30.84,30.84v0a0,0,0,0,1,0,0H446a0,0,0,0,1,0,0v0A30.84,30.84,0,0,1,476.85,353.72Z"/><path class="s2d-c1_2" d="M411.69,384.56h481a31.57,31.57,0,0,1,31.57,31.57v0a0,0,0,0,1,0,0H380.12a0,0,0,0,1,0,0v0a31.57,31.57,0,0,1,31.57-31.57Z"/><path class="s2d-c1_5" d="M818,591.13H874.2l2.31,11.14H806.84A11.14,11.14,0,0,1,818,591.13Z"/><path class="s2d-c1_5" d="M510.78,591.34H425.5l-3.32,11.14h99.74A11.14,11.14,0,0,0,510.78,591.34Z"/><path class="s2d-c1_5" d="M566.74,251.22h43.75a9.95,9.95,0,0,1,9.95,9.95v0a0,0,0,0,1,0,0h-53.7a0,0,0,0,1,0,0v-9.95A0,0,0,0,1,566.74,251.22Z"/><path class="s2d-c1_5" d="M566.24,162.72H610a9.95,9.95,0,0,1,9.95,9.95v0a0,0,0,0,1,0,0h-53.7a0,0,0,0,1,0,0v-9.95A0,0,0,0,1,566.24,162.72Z"/><path class="s2d-c1_5" d="M712.48,251.22h43.75a0,0,0,0,1,0,0v9.95a0,0,0,0,1,0,0h-53.7a0,0,0,0,1,0,0v0a9.95,9.95,0,0,1,9.95-9.95Z"/><path class="s2d-c1_5" d="M712,162.72h43.75a0,0,0,0,1,0,0v9.95a0,0,0,0,1,0,0H702a0,0,0,0,1,0,0v0A9.95,9.95,0,0,1,712,162.72Z"/><polygon class="s2d-c1_1" points="983.1 1162.97 983.41 1090.78 984.56 1090.78 984.88 1162.97 983.1 1162.97"/><polygon class="s2d-c1_1" points="918.46 1162.97 918.77 1090.78 919.92 1090.78 920.24 1162.97 918.46 1162.97"/><polygon class="s2d-c1_2" points="950.57 1162.97 951.2 1090.78 953.5 1090.78 954.13 1162.97 950.57 1162.97"/><polygon class="s2d-c1_2" points="950.57 1054.01 951.2 1028.33 953.5 1028.33 954.13 1054.01 950.57 1054.01"/><polygon class="s2d-c1_2" points="1013.96 1162.97 1014.59 1137.24 1016.89 1137.24 1017.51 1162.97 1013.96 1162.97"/><polygon class="s2d-c1_2" points="882 1162.97 882.62 1090.78 884.92 1090.78 885.55 1162.97 882 1162.97"/><polygon class="s2d-c1_1" points="918.56 1053.89 918.84 996.76 919.86 996.76 920.14 1053.89 918.56 1053.89"/><polygon class="s2d-c1_2" points="882.87 1053.89 883.43 996.76 885.47 996.76 886.03 1053.89 882.87 1053.89"/><polygon class="s2d-c1_2" points="882.67 968.34 883.3 922.36 885.6 922.36 886.23 968.34 882.67 968.34"/><polygon class="s2d-c1_1" points="346.37 1162.97 346.68 1090.78 347.83 1090.78 348.14 1162.97 346.37 1162.97"/><polygon class="s2d-c1_1" points="411.01 1162.97 411.32 1090.78 412.47 1090.78 412.78 1162.97 411.01 1162.97"/><polygon class="s2d-c1_2" points="377.12 1162.97 377.74 1090.78 380.04 1090.78 380.67 1162.97 377.12 1162.97"/><polygon class="s2d-c1_2" points="377.12 1054.01 377.74 1028.33 380.04 1028.33 380.67 1054.01 377.12 1054.01"/><polygon class="s2d-c1_2" points="313.73 1162.97 314.36 1137.24 316.65 1137.24 317.28 1162.97 313.73 1162.97"/><polygon class="s2d-c1_2" points="445.69 1162.97 446.32 1090.78 448.62 1090.78 449.25 1162.97 445.69 1162.97"/><polygon class="s2d-c1_1" points="411.11 1053.89 411.38 996.76 412.41 996.76 412.69 1053.89 411.11 1053.89"/><polygon class="s2d-c1_2" points="445.21 1053.89 445.77 996.76 447.82 996.76 448.38 1053.89 445.21 1053.89"/><polygon class="s2d-c1_2" points="445.02 968.34 445.64 922.36 447.94 922.36 448.57 968.34 445.02 968.34"/><path class="s2d-c1_5" d="M261.92,856.28H394.06a12.45,12.45,0,0,1,12.45,12.45v0a0,0,0,0,1,0,0H261.92a0,0,0,0,1,0,0V856.28a0,0,0,0,1,0,0Z"/><path class="s2d-c1_5" d="M931.8,856.28h132.14a0,0,0,0,1,0,0v12.45a0,0,0,0,1,0,0H919.35a0,0,0,0,1,0,0v0A12.45,12.45,0,0,1,931.8,856.28Z"/><path class="s2d-c1_2" d="M1077.53,1118.88a19,19,0,0,1,19-19h.21v-3h-17.81a4.33,4.33,0,0,1-.79,1.09c-7.11,7-10.23,15.31-9.25,26.09-.23-.14-.43-.29-.63-.44a29.1,29.1,0,0,0,24.26,22.28l1.6-8.24A19,19,0,0,1,1077.53,1118.88Z"/><path class="s2d-c1_2" d="M1096.51,1111.1a7.78,7.78,0,1,0,0,15.56h.21v-15.54Z"/><path class="s2d-c1_2" d="M1086.28,1088.33h6.45a28.72,28.72,0,0,1,3.85-.26h.14v-3.74H1063a2,2,0,0,0,.45,3.93h.2a10.84,10.84,0,0,0,1.89,0H1067c1.33.07,2.67,0,4,0h.36c.49,0,1,0,1.48.07a12.43,12.43,0,0,0,2-.07h1.72a2.45,2.45,0,0,1,2.18,2,17.27,17.27,0,0,1,.68,3.42,28,28,0,0,1,3.85-2.37C1083.24,1089.56,1084,1088.32,1086.28,1088.33Z"/><path class="s2d-c1_2" d="M1087.2,1093.09c-1.39.46-3.38,1.74-3.82-1.07a4.91,4.91,0,0,1-.08-.74,28,28,0,0,0-3.85,2.37,6.14,6.14,0,0,1-.54,3.26h17.81v-5.19A28.3,28.3,0,0,0,1087.2,1093.09Z"/><path class="s2d-c1_2" d="M1092.73,1088.33h4v-.26h-.14A28.72,28.72,0,0,0,1092.73,1088.33Z"/><path class="s2d-c1_3" d="M1096.58,1146.22a28.81,28.81,0,0,1-4.08-.29l-3.31,17h7.53v-16.75Z"/><path class="s2d-c1_3" d="M1096.72,1146.22v-8.37h-.21a19.13,19.13,0,0,1-2.41-.16l-1.6,8.24a28.81,28.81,0,0,0,4.08.29Z"/><path class="s2d-c1_3" d="M1075.7,1096.91H1059v-18.75h37.68v-76.41c-.83-.07-1.61.76-2.48,2.27-5.28,9.18-10.72,18.26-16,27.46-10.15,17.87-20.56,35.62-28.07,54.82-3.22,8.21-1.67,12.87,5.79,15.63,6.83,2.52,9.07,7.28,9.17,13.89,0,2.59-.21,5.39,3.06,7.83a29,29,0,0,1,7.46-26.74Z"/><path class="s2d-c1_3" d="M1078.12,1098a4.33,4.33,0,0,0,.79-1.09h-3.21a29,29,0,0,0-7.46,26.74c.2.15.4.3.63.44C1067.89,1113.31,1071,1105,1078.12,1098Z"/><path class="s2d-c1_3" d="M1079.45,1093.65a17.27,17.27,0,0,0-.68-3.42,2.45,2.45,0,0,0-2.18-2h-1.72a12.43,12.43,0,0,1-2,.07c-.49,0-1-.06-1.48-.07H1071c-1.33,0-2.67.07-4,0h-1.52a10.84,10.84,0,0,1-1.89,0h-.2a2,2,0,0,1-.45-3.93h33.75v-6.17H1059v18.75h16.66A29.12,29.12,0,0,1,1079.45,1093.65Z"/><path class="s2d-c1_3" d="M1079.45,1093.65a29.12,29.12,0,0,0-3.75,3.26h3.21A6.14,6.14,0,0,0,1079.45,1093.65Z"/><path class="s2d-c1_3" d="M1086.28,1088.33c-2.24,0-3,1.23-3,3a28.77,28.77,0,0,1,9.43-3Z"/><path class="s2d-c1_3" d="M1092.73,1088.33a28.77,28.77,0,0,0-9.43,3,4.91,4.91,0,0,0,.08.74c.44,2.81,2.43,1.53,3.82,1.07a28.3,28.3,0,0,1,9.52-1.37v-3.39Z"/><path class="s2d-c1_3" d="M1096.72,1136.56v-9.91h-.21a7.78,7.78,0,1,1,0-15.56h.21v-11.2h-.21a19,19,0,0,0-2.41,37.78l.22-1.13Z"/><path class="s2d-c1_3" d="M1094.32,1136.56l-.22,1.13a19.13,19.13,0,0,0,2.41.16h.21v-1.29Z"/><path class="s2d-c1_2" d="M1104.29,1118.88a7.78,7.78,0,0,0-7.57-7.77v15.54A7.79,7.79,0,0,0,1104.29,1118.88Z"/><path class="s2d-c1_2" d="M1130.49,1084.33h-33.77v4h.09v-.07h9.91c2.22,0,3.16,1.16,3.12,3a3.82,3.82,0,0,1,0,.58c-.31,2.77-2.23,1.76-3.73,1.34a38.48,38.48,0,0,0-9.36-1.47v8.19a19,19,0,0,1,2.43,37.75l1.5,8.27a29.09,29.09,0,0,0,24.14-21.75l-.11.1c.63-10.58-2.22-18.92-9.2-25.7a6.51,6.51,0,0,1-1.24-1.67,6.65,6.65,0,0,1-.7-3.37,13.25,13.25,0,0,1,.77-3.71,2.27,2.27,0,0,1,1.48-1.57h3.74a6.17,6.17,0,0,0,.86,0H1130a2,2,0,0,0,.45-3.93Z"/><path class="s2d-c1_5" d="M1096.72,1146.22V1163h7l-3.07-17A30,30,0,0,1,1096.72,1146.22Z"/><path class="s2d-c1_5" d="M1096.72,1137.85v8.37a30,30,0,0,0,3.93-.29l-1.5-8.27A19.58,19.58,0,0,1,1096.72,1137.85Z"/><path class="s2d-c1_5" d="M1142.34,1084.36c-11.82-28.26-28.27-54-43.44-80.48-.81-1.41-1.51-2.07-2.18-2.13v82.58h33.77a2,2,0,0,1-.45,3.93h-9.65a6.17,6.17,0,0,1-.86,0h-3.74a2.27,2.27,0,0,0-1.48,1.57,13.25,13.25,0,0,0-.77,3.71,6.65,6.65,0,0,0,.7,3.37,6.51,6.51,0,0,0,1.24,1.67c7,6.78,9.83,15.12,9.2,25.7l.11-.1c3.82-3.23,3.28-6.82,3.52-9.89.49-6.26,2.77-10.64,9.24-12.39a9.84,9.84,0,0,0,7-7.37C1145.47,1090.94,1143.67,1087.56,1142.34,1084.36Z"/><path class="s2d-c1_5" d="M1106.72,1088.26h-9.91v.07h-.09v3.39a38.48,38.48,0,0,1,9.36,1.47c1.5.42,3.42,1.43,3.73-1.34a3.82,3.82,0,0,0,0-.58C1109.88,1089.42,1108.94,1088.26,1106.72,1088.26Z"/><path class="s2d-c1_5" d="M1104.29,1118.88a7.79,7.79,0,0,1-7.57,7.77v9.91H1099l.2,1.1a19,19,0,0,0-2.43-37.75v11.2A7.78,7.78,0,0,1,1104.29,1118.88Z"/><path class="s2d-c1_5" d="M1099,1136.56h-2.23v1.29a19.58,19.58,0,0,0,2.43-.19Z"/><path class="s2d-c1_2" d="M1002.27,1014.82a16.44,16.44,0,0,1,16.45-16.45h.18v-2.6h-15.44a3.66,3.66,0,0,1-.69,1c-6.16,6-8.86,13.27-8,22.62-.19-.12-.37-.25-.55-.38a25.22,25.22,0,0,0,21,19.32l1.38-7.14A16.45,16.45,0,0,1,1002.27,1014.82Z"/><path class="s2d-c1_2" d="M1018.72,1008.08a6.75,6.75,0,1,0,0,13.49h.18v-13.47Z"/><path class="s2d-c1_2" d="M1009.85,988.33h5.59a24.66,24.66,0,0,1,3.34-.23h.12v-3.24H989.64a1.73,1.73,0,0,0,.38,3.41h.18a9,9,0,0,0,1.64,0h1.32c1.15.06,2.31,0,3.46,0h.31c.43,0,.86,0,1.29.06a10.33,10.33,0,0,0,1.74-.06h1.49a2.13,2.13,0,0,1,1.89,1.71,14.88,14.88,0,0,1,.58,3,25.57,25.57,0,0,1,3.35-2.07C1007.21,989.4,1007.91,988.32,1009.85,988.33Z"/><path class="s2d-c1_2" d="M1010.65,992.46c-1.21.39-2.93,1.51-3.32-.93a4.91,4.91,0,0,1-.06-.65,25.57,25.57,0,0,0-3.35,2.07,5.24,5.24,0,0,1-.46,2.82h15.44v-4.5A24.37,24.37,0,0,0,1010.65,992.46Z"/><path class="s2d-c1_2" d="M1015.44,988.33h3.46v-.23h-.12A24.66,24.66,0,0,0,1015.44,988.33Z"/><path class="s2d-c1_3" d="M1018.78,1038.53a25.62,25.62,0,0,1-3.53-.25l-2.88,14.78h6.53v-14.53Z"/><path class="s2d-c1_3" d="M1018.9,1038.53v-7.26h-.18a16.06,16.06,0,0,1-2.09-.14l-1.38,7.14a25.62,25.62,0,0,0,3.53.25Z"/><path class="s2d-c1_3" d="M1000.68,995.77H986.23V979.51h32.67V913.25c-.71-.06-1.39.66-2.14,2-4.58,7.95-9.31,15.83-13.84,23.81-8.8,15.5-17.83,30.89-24.35,47.54-2.78,7.12-1.44,11.16,5,13.55,5.92,2.19,7.86,6.31,7.95,12,0,2.24-.18,4.67,2.65,6.79a25.52,25.52,0,0,1-.64-5.64A25.15,25.15,0,0,1,1000.68,995.77Z"/><path class="s2d-c1_3" d="M1002.77,996.72a3.66,3.66,0,0,0,.69-1h-2.78a25.15,25.15,0,0,0-7.12,17.55,25.52,25.52,0,0,0,.64,5.64c.18.13.36.26.55.38C993.91,1010,996.61,1002.74,1002.77,996.72Z"/><path class="s2d-c1_3" d="M1003.92,993a14.88,14.88,0,0,0-.58-3,2.13,2.13,0,0,0-1.89-1.71H1000a10.33,10.33,0,0,1-1.74.06c-.43,0-.86-.05-1.29-.06h-.31c-1.15,0-2.31.06-3.46,0h-1.32a9,9,0,0,1-1.64,0H990a1.73,1.73,0,0,1-.38-3.41h29.26v-5.35H986.23v16.26h14.45A24.81,24.81,0,0,1,1003.92,993Z"/><path class="s2d-c1_3" d="M1003.92,993a24.81,24.81,0,0,0-3.24,2.82h2.78A5.24,5.24,0,0,0,1003.92,993Z"/><path class="s2d-c1_3" d="M1009.85,988.33c-1.94,0-2.64,1.07-2.58,2.55a24.9,24.9,0,0,1,8.17-2.55Z"/><path class="s2d-c1_3" d="M1015.44,988.33a24.9,24.9,0,0,0-8.17,2.55,4.91,4.91,0,0,0,.06.65c.39,2.44,2.11,1.32,3.32.93a24.37,24.37,0,0,1,8.25-1.19v-2.94Z"/><path class="s2d-c1_3" d="M1018.9,1030.15v-8.59h-.18a6.75,6.75,0,1,1,0-13.49h.18v-9.72h-.18a16.45,16.45,0,0,0-2.09,32.77l.2-1Z"/><path class="s2d-c1_3" d="M1016.83,1030.15l-.2,1a16.06,16.06,0,0,0,2.09.14h.18v-1.12Z"/><path class="s2d-c1_2" d="M1025.46,1014.82a6.73,6.73,0,0,0-6.56-6.73v13.47A6.74,6.74,0,0,0,1025.46,1014.82Z"/><path class="s2d-c1_2" d="M1048.19,984.86H1018.9v3.47h.08v-.06h8.6c1.92,0,2.73,1,2.71,2.61,0,.16,0,.33,0,.5-.28,2.41-1.94,1.53-3.24,1.17a33.17,33.17,0,0,0-8.12-1.28v7.1a16.45,16.45,0,0,1,2.11,32.74l1.3,7.17a25.22,25.22,0,0,0,20.94-18.86.39.39,0,0,1-.1.08c.55-9.17-1.93-16.4-8-22.28a5.48,5.48,0,0,1-1.07-1.45,5.91,5.91,0,0,1-.61-2.93,12.06,12.06,0,0,1,.66-3.21,2,2,0,0,1,1.29-1.36h3.25a6.09,6.09,0,0,0,.74,0h8.37a1.73,1.73,0,0,0,.39-3.41Z"/><path class="s2d-c1_5" d="M1018.9,1038.53v14.53H1025l-2.67-14.78A24,24,0,0,1,1018.9,1038.53Z"/><path class="s2d-c1_5" d="M1018.9,1031.27v7.26a24,24,0,0,0,3.41-.25l-1.3-7.17A16.24,16.24,0,0,1,1018.9,1031.27Z"/><path class="s2d-c1_5" d="M1058.46,984.89c-10.24-24.51-24.51-46.86-37.67-69.8-.7-1.22-1.31-1.79-1.89-1.84v71.61h29.29a1.73,1.73,0,0,1-.39,3.41h-8.37a6.09,6.09,0,0,1-.74,0h-3.25a2,2,0,0,0-1.29,1.36,12.06,12.06,0,0,0-.66,3.21,5.91,5.91,0,0,0,.61,2.93,5.48,5.48,0,0,0,1.07,1.45c6,5.88,8.53,13.11,8,22.28a.39.39,0,0,0,.1-.08c3.31-2.8,2.84-5.91,3-8.57.42-5.43,2.4-9.24,8-10.75a8.56,8.56,0,0,0,6.06-6.39C1061.18,990.59,1059.62,987.66,1058.46,984.89Z"/><path class="s2d-c1_5" d="M1027.58,988.27H1019v.06h-.08v2.94a33.17,33.17,0,0,1,8.12,1.28c1.3.36,3,1.24,3.24-1.17,0-.17,0-.34,0-.5C1030.31,989.27,1029.5,988.27,1027.58,988.27Z"/><path class="s2d-c1_5" d="M1025.46,1014.82a6.74,6.74,0,0,1-6.56,6.74v8.59h1.94l.17,1a16.45,16.45,0,0,0-2.11-32.74v9.72A6.73,6.73,0,0,1,1025.46,1014.82Z"/><path class="s2d-c1_5" d="M1020.84,1030.15h-1.94v1.12a16.24,16.24,0,0,0,2.11-.16Z"/><path class="s2d-c1_2" d="M850.4,680.62a10.23,10.23,0,0,1,10.24-10.23h.11v-1.62h-9.6a2.41,2.41,0,0,1-.43.59c-3.84,3.75-5.52,8.25-5,14.07l-.34-.24a15.68,15.68,0,0,0,13.09,12l.86-4.44A10.24,10.24,0,0,1,850.4,680.62Z"/><path class="s2d-c1_2" d="M860.64,676.43a4.2,4.2,0,1,0,0,8.39h.11v-8.38Z"/><path class="s2d-c1_2" d="M855.12,664.14h3.48a15.76,15.76,0,0,1,2.07-.14h.08v-2h-18.2a1.07,1.07,0,0,0,.24,2.12h.11a6.94,6.94,0,0,0,1,0h.82c.71,0,1.43,0,2.15,0h.2l.8,0a6.62,6.62,0,0,0,1.08,0h.93a1.31,1.31,0,0,1,1.17,1.06,9.09,9.09,0,0,1,.36,1.84,17.07,17.07,0,0,1,2.08-1.28C853.48,664.81,853.91,664.14,855.12,664.14Z"/><path class="s2d-c1_2" d="M855.62,666.71c-.75.25-1.83.94-2.07-.58,0-.13,0-.27,0-.4a17.07,17.07,0,0,0-2.08,1.28,3.33,3.33,0,0,1-.28,1.76h9.6V666A15.19,15.19,0,0,0,855.62,666.71Z"/><path class="s2d-c1_2" d="M858.6,664.14h2.15V664h-.08A15.76,15.76,0,0,0,858.6,664.14Z"/><path class="s2d-c1_3" d="M860.67,695.37a15.79,15.79,0,0,1-2.19-.16l-1.79,9.19h4.06v-9Z"/><path class="s2d-c1_3" d="M860.75,695.37v-4.52h-.11a11.07,11.07,0,0,1-1.3-.08l-.86,4.44a15.79,15.79,0,0,0,2.19.16Z"/><path class="s2d-c1_3" d="M849.41,668.77h-9V658.66h20.32V617.45c-.45,0-.87.41-1.34,1.22-2.84,5-5.78,9.85-8.6,14.81-5.47,9.64-11.09,19.21-15.14,29.57-1.73,4.42-.9,6.94,3.12,8.43,3.69,1.36,4.89,3.92,5,7.49,0,1.4-.12,2.91,1.65,4.22a15.66,15.66,0,0,1,4-14.42Z"/><path class="s2d-c1_3" d="M850.72,669.36a2.41,2.41,0,0,0,.43-.59h-1.74a15.66,15.66,0,0,0-4,14.42l.34.24C845.2,677.61,846.88,673.11,850.72,669.36Z"/><path class="s2d-c1_3" d="M851.43,667a9.09,9.09,0,0,0-.36-1.84,1.31,1.31,0,0,0-1.17-1.06H849a6.62,6.62,0,0,1-1.08,0l-.8,0h-.2c-.72,0-1.44,0-2.15,0h-.82a6.94,6.94,0,0,1-1,0h-.11a1.07,1.07,0,0,1-.24-2.12h18.2v-3.33H840.43v10.11h9A16.87,16.87,0,0,1,851.43,667Z"/><path class="s2d-c1_3" d="M851.43,667a16.87,16.87,0,0,0-2,1.76h1.74A3.33,3.33,0,0,0,851.43,667Z"/><path class="s2d-c1_3" d="M855.12,664.14c-1.21,0-1.64.67-1.61,1.59a15.68,15.68,0,0,1,5.09-1.59Z"/><path class="s2d-c1_3" d="M858.6,664.14a15.68,15.68,0,0,0-5.09,1.59c0,.13,0,.27,0,.4.24,1.52,1.32.83,2.07.58a15.19,15.19,0,0,1,5.13-.74v-1.83Z"/><path class="s2d-c1_3" d="M860.75,690.16v-5.35h-.11a4.2,4.2,0,1,1,0-8.39h.11v-6h-.11a10.23,10.23,0,0,0-1.3,20.38l.12-.61Z"/><path class="s2d-c1_3" d="M859.46,690.16l-.12.61a11.07,11.07,0,0,0,1.3.08h.11v-.69Z"/><path class="s2d-c1_2" d="M864.83,680.62a4.19,4.19,0,0,0-4.08-4.19v8.38A4.19,4.19,0,0,0,864.83,680.62Z"/><path class="s2d-c1_2" d="M879,662H860.75v2.15h0v0h5.35c1.19,0,1.7.62,1.68,1.62a1.67,1.67,0,0,1,0,.31c-.17,1.5-1.2,1-2,.73a20.67,20.67,0,0,0-5-.8v4.42a10.23,10.23,0,0,1,1.31,20.36l.81,4.46a15.68,15.68,0,0,0,13-11.73l-.06,0c.34-5.7-1.2-10.2-5-13.86a3.3,3.3,0,0,1-.67-.9,3.53,3.53,0,0,1-.37-1.82,6.85,6.85,0,0,1,.41-2,1.21,1.21,0,0,1,.8-.84h7.68A1.07,1.07,0,0,0,879,662Z"/><path class="s2d-c1_5" d="M860.75,695.37v9h3.78l-1.66-9.19A16.53,16.53,0,0,1,860.75,695.37Z"/><path class="s2d-c1_5" d="M860.75,690.85v4.52a16.53,16.53,0,0,0,2.12-.16l-.81-4.46A9.51,9.51,0,0,1,860.75,690.85Z"/><path class="s2d-c1_5" d="M885.36,662c-6.38-15.24-15.25-29.14-23.44-43.41-.43-.75-.81-1.11-1.17-1.14V662H879a1.07,1.07,0,0,1-.24,2.12H871a1.21,1.21,0,0,0-.8.84,6.85,6.85,0,0,0-.41,2,3.53,3.53,0,0,0,.37,1.82,3.3,3.3,0,0,0,.67.9c3.76,3.66,5.3,8.16,5,13.86l.06,0c2.06-1.74,1.77-3.68,1.9-5.33.26-3.38,1.49-5.74,5-6.69a5.3,5.3,0,0,0,3.77-4C887,665.55,886.08,663.73,885.36,662Z"/><path class="s2d-c1_5" d="M866.15,664.11H860.8v0h0V666a20.67,20.67,0,0,1,5,.8c.81.22,1.84.77,2-.73a1.67,1.67,0,0,0,0-.31C867.85,664.73,867.34,664.1,866.15,664.11Z"/><path class="s2d-c1_5" d="M864.83,680.62a4.19,4.19,0,0,1-4.08,4.19v5.35H862l.11.59a10.23,10.23,0,0,0-1.31-20.36v6A4.19,4.19,0,0,1,864.83,680.62Z"/><path class="s2d-c1_5" d="M862,690.16h-1.2v.69a9.51,9.51,0,0,0,1.31-.1Z"/><path class="s2d-c1_2" d="M452.92,680.62a10.23,10.23,0,0,1,10.23-10.23h.12v-1.62h-9.61a2.13,2.13,0,0,1-.42.59c-3.84,3.75-5.52,8.25-5,14.07l-.34-.24a15.68,15.68,0,0,0,13.08,12l.87-4.44A10.24,10.24,0,0,1,452.92,680.62Z"/><path class="s2d-c1_2" d="M463.15,676.43a4.2,4.2,0,0,0,0,8.39h.12v-8.38Z"/><path class="s2d-c1_2" d="M457.64,664.14h3.48a15.76,15.76,0,0,1,2.07-.14h.08v-2h-18.2a1.07,1.07,0,0,0,.24,2.12h.1a6.94,6.94,0,0,0,1,0h.83c.71,0,1.43,0,2.15,0h.19l.81,0a6.64,6.64,0,0,0,1.08,0h.92a1.31,1.31,0,0,1,1.18,1.06A9.09,9.09,0,0,1,454,667a16.34,16.34,0,0,1,2.08-1.28C456,664.81,456.43,664.14,457.64,664.14Z"/><path class="s2d-c1_2" d="M458.14,666.71c-.76.25-1.83.94-2.07-.58,0-.13,0-.27,0-.4A16.34,16.34,0,0,0,454,667a3.24,3.24,0,0,1-.29,1.76h9.61V666A15.19,15.19,0,0,0,458.14,666.71Z"/><path class="s2d-c1_2" d="M461.12,664.14h2.15V664h-.08A15.76,15.76,0,0,0,461.12,664.14Z"/><path class="s2d-c1_3" d="M463.19,695.37a16,16,0,0,1-2.2-.16l-1.78,9.19h4.06v-9Z"/><path class="s2d-c1_3" d="M463.27,695.37v-4.52h-.12a10.9,10.9,0,0,1-1.29-.08l-.87,4.44a16,16,0,0,0,2.2.16Z"/><path class="s2d-c1_3" d="M451.93,668.77h-9V658.66h20.32V617.45c-.45,0-.87.41-1.34,1.22-2.84,5-5.78,9.85-8.6,14.81-5.47,9.64-11.09,19.21-15.14,29.57-1.74,4.42-.9,6.94,3.12,8.43,3.68,1.36,4.89,3.92,4.95,7.49,0,1.4-.12,2.91,1.65,4.22a15.66,15.66,0,0,1,4-14.42Z"/><path class="s2d-c1_3" d="M453.24,669.36a2.13,2.13,0,0,0,.42-.59h-1.73a15.66,15.66,0,0,0-4,14.42l.34.24C447.72,677.61,449.4,673.11,453.24,669.36Z"/><path class="s2d-c1_3" d="M454,667a9.09,9.09,0,0,0-.36-1.84,1.31,1.31,0,0,0-1.18-1.06h-.92a6.64,6.64,0,0,1-1.08,0l-.81,0h-.19c-.72,0-1.44,0-2.15,0h-.83a6.94,6.94,0,0,1-1,0h-.1a1.07,1.07,0,0,1-.24-2.12h18.2v-3.33H443v10.11h9A16.13,16.13,0,0,1,454,667Z"/><path class="s2d-c1_3" d="M454,667a16.13,16.13,0,0,0-2,1.76h1.73A3.24,3.24,0,0,0,454,667Z"/><path class="s2d-c1_3" d="M457.64,664.14c-1.21,0-1.64.67-1.61,1.59a15.68,15.68,0,0,1,5.09-1.59Z"/><path class="s2d-c1_3" d="M461.12,664.14a15.68,15.68,0,0,0-5.09,1.59c0,.13,0,.27,0,.4.24,1.52,1.31.83,2.07.58a15.19,15.19,0,0,1,5.13-.74v-1.83Z"/><path class="s2d-c1_3" d="M463.27,690.16v-5.35h-.12a4.2,4.2,0,0,1,0-8.39h.12v-6h-.12a10.23,10.23,0,0,0-1.29,20.38l.12-.61Z"/><path class="s2d-c1_3" d="M462,690.16l-.12.61a10.9,10.9,0,0,0,1.29.08h.12v-.69Z"/><path class="s2d-c1_2" d="M467.35,680.62a4.19,4.19,0,0,0-4.08-4.19v8.38A4.19,4.19,0,0,0,467.35,680.62Z"/><path class="s2d-c1_2" d="M481.48,662H463.27v2.15h.05v0h5.34a1.46,1.46,0,0,1,1.69,1.62c0,.1,0,.2,0,.31-.17,1.5-1.2,1-2,.73a20.67,20.67,0,0,0-5.05-.8v4.42a10.23,10.23,0,0,1,1.31,20.36l.81,4.46a15.69,15.69,0,0,0,13-11.73l-.06,0c.34-5.7-1.2-10.2-5-13.86a3.3,3.3,0,0,1-.67-.9,3.64,3.64,0,0,1-.38-1.82,7.57,7.57,0,0,1,.41-2,1.22,1.22,0,0,1,.81-.84h7.68a1.07,1.07,0,0,0,1.07-1.08A1.06,1.06,0,0,0,481.48,662Z"/><path class="s2d-c1_5" d="M463.27,695.37v9h3.78l-1.66-9.19A16.53,16.53,0,0,1,463.27,695.37Z"/><path class="s2d-c1_5" d="M463.27,690.85v4.52a16.53,16.53,0,0,0,2.12-.16l-.81-4.46A9.51,9.51,0,0,1,463.27,690.85Z"/><path class="s2d-c1_5" d="M487.87,662c-6.37-15.24-15.24-29.14-23.43-43.41-.43-.75-.81-1.11-1.17-1.14V662h18.21a1.06,1.06,0,0,1,.83,1,1.07,1.07,0,0,1-1.07,1.08h-7.68a1.22,1.22,0,0,0-.81.84,7.57,7.57,0,0,0-.41,2,3.64,3.64,0,0,0,.38,1.82,3.3,3.3,0,0,0,.67.9c3.76,3.66,5.3,8.16,5,13.86l.06,0c2.06-1.74,1.77-3.68,1.9-5.33.26-3.38,1.49-5.74,5-6.69a5.31,5.31,0,0,0,3.78-4C489.56,665.55,488.59,663.73,487.87,662Z"/><path class="s2d-c1_5" d="M468.66,664.11h-5.34v0h-.05V666a20.67,20.67,0,0,1,5.05.8c.81.22,1.84.77,2-.73,0-.11,0-.21,0-.31A1.46,1.46,0,0,0,468.66,664.11Z"/><path class="s2d-c1_5" d="M467.35,680.62a4.19,4.19,0,0,1-4.08,4.19v5.35h1.2l.11.59a10.23,10.23,0,0,0-1.31-20.36v6A4.19,4.19,0,0,1,467.35,680.62Z"/><path class="s2d-c1_5" d="M464.47,690.16h-1.2v.69a9.51,9.51,0,0,0,1.31-.1Z"/><path class="s2d-c1_2" d="M287,1014.82a16.45,16.45,0,0,1,16.46-16.45h.18v-2.6H288.18a3.9,3.9,0,0,1-.69,1c-6.16,6-8.87,13.27-8,22.62a5.89,5.89,0,0,1-.55-.38,25.22,25.22,0,0,0,21,19.32l1.39-7.14A16.46,16.46,0,0,1,287,1014.82Z"/><path class="s2d-c1_2" d="M303.44,1008.08a6.75,6.75,0,1,0,0,13.49h.18v-13.47Z"/><path class="s2d-c1_2" d="M294.57,988.33h5.59a24.54,24.54,0,0,1,3.34-.23h.12v-3.24H274.35a1.73,1.73,0,0,0,.39,3.41h.17a9,9,0,0,0,1.64,0h1.33c1.15.06,2.31,0,3.46,0h.31c.43,0,.86,0,1.29.06a10.18,10.18,0,0,0,1.73-.06h1.5a2.14,2.14,0,0,1,1.89,1.71,14.88,14.88,0,0,1,.58,3,25.46,25.46,0,0,1,3.34-2.07C291.93,989.4,292.63,988.32,294.57,988.33Z"/><path class="s2d-c1_2" d="M295.37,992.46c-1.21.39-2.93,1.51-3.32-.93a5,5,0,0,1-.07-.65,25.46,25.46,0,0,0-3.34,2.07,5.34,5.34,0,0,1-.46,2.82h15.44v-4.5A24.33,24.33,0,0,0,295.37,992.46Z"/><path class="s2d-c1_2" d="M300.16,988.33h3.46v-.23h-.12A24.54,24.54,0,0,0,300.16,988.33Z"/><path class="s2d-c1_3" d="M303.5,1038.53a25.88,25.88,0,0,1-3.54-.25l-2.87,14.78h6.53v-14.53Z"/><path class="s2d-c1_3" d="M303.62,1038.53v-7.26h-.18a16.06,16.06,0,0,1-2.09-.14l-1.39,7.14a25.88,25.88,0,0,0,3.54.25Z"/><path class="s2d-c1_3" d="M285.39,995.77H270.94V979.51h32.68V913.25c-.72-.06-1.39.66-2.15,2-4.58,7.95-9.3,15.83-13.83,23.81-8.8,15.5-17.83,30.89-24.35,47.54-2.78,7.12-1.44,11.16,5,13.55,5.92,2.19,7.86,6.31,7.95,12,0,2.24-.18,4.67,2.65,6.79a25.52,25.52,0,0,1-.64-5.64A25.14,25.14,0,0,1,285.39,995.77Z"/><path class="s2d-c1_3" d="M287.49,996.72a3.9,3.9,0,0,0,.69-1h-2.79a25.14,25.14,0,0,0-7.11,17.55,25.52,25.52,0,0,0,.64,5.64,5.89,5.89,0,0,0,.55.38C278.62,1010,281.33,1002.74,287.49,996.72Z"/><path class="s2d-c1_3" d="M288.64,993a14.88,14.88,0,0,0-.58-3,2.14,2.14,0,0,0-1.89-1.71h-1.5a10.18,10.18,0,0,1-1.73.06c-.43,0-.86-.05-1.29-.06h-.31c-1.15,0-2.31.06-3.46,0h-1.33a9,9,0,0,1-1.64,0h-.17a1.73,1.73,0,0,1-.39-3.41h29.27v-5.35H270.94v16.26h14.45A24.9,24.9,0,0,1,288.64,993Z"/><path class="s2d-c1_3" d="M288.64,993a24.9,24.9,0,0,0-3.25,2.82h2.79A5.34,5.34,0,0,0,288.64,993Z"/><path class="s2d-c1_3" d="M294.57,988.33c-1.94,0-2.64,1.07-2.59,2.55a25,25,0,0,1,8.18-2.55Z"/><path class="s2d-c1_3" d="M300.16,988.33a25,25,0,0,0-8.18,2.55,5,5,0,0,0,.07.65c.39,2.44,2.11,1.32,3.32.93a24.33,24.33,0,0,1,8.25-1.19v-2.94Z"/><path class="s2d-c1_3" d="M303.62,1030.15v-8.59h-.18a6.75,6.75,0,1,1,0-13.49h.18v-9.72h-.18a16.45,16.45,0,0,0-2.09,32.77l.19-1Z"/><path class="s2d-c1_3" d="M301.54,1030.15l-.19,1a16.06,16.06,0,0,0,2.09.14h.18v-1.12Z"/><path class="s2d-c1_2" d="M310.18,1014.82a6.73,6.73,0,0,0-6.56-6.73v13.47A6.74,6.74,0,0,0,310.18,1014.82Z"/><path class="s2d-c1_2" d="M332.9,984.86H303.62v3.47h.08v-.06h8.6c1.92,0,2.73,1,2.7,2.61a4.26,4.26,0,0,1,0,.5c-.28,2.41-1.94,1.53-3.24,1.17a33.17,33.17,0,0,0-8.12-1.28v7.1a16.45,16.45,0,0,1,2.11,32.74l1.3,7.17A25.24,25.24,0,0,0,328,1019.42a.7.7,0,0,1-.1.08c.55-9.17-1.93-16.4-8-22.28a5.53,5.53,0,0,1-1.08-1.45,5.79,5.79,0,0,1-.6-2.93,11.68,11.68,0,0,1,.66-3.21,2,2,0,0,1,1.29-1.36h3.24a6.25,6.25,0,0,0,.75,0h8.37a1.73,1.73,0,0,0,.38-3.41Z"/><path class="s2d-c1_5" d="M303.62,1038.53v14.53h6.08L307,1038.28A24.12,24.12,0,0,1,303.62,1038.53Z"/><path class="s2d-c1_5" d="M303.62,1031.27v7.26a24.12,24.12,0,0,0,3.41-.25l-1.3-7.17A16.37,16.37,0,0,1,303.62,1031.27Z"/><path class="s2d-c1_5" d="M343.18,984.89c-10.24-24.51-24.51-46.86-37.67-69.8-.7-1.22-1.31-1.79-1.89-1.84v71.61H332.9a1.73,1.73,0,0,1-.38,3.41h-8.37a6.25,6.25,0,0,1-.75,0h-3.24a2,2,0,0,0-1.29,1.36,11.68,11.68,0,0,0-.66,3.21,5.79,5.79,0,0,0,.6,2.93,5.53,5.53,0,0,0,1.08,1.45c6.05,5.88,8.53,13.11,8,22.28a.7.7,0,0,0,.1-.08c3.31-2.8,2.84-5.91,3-8.57.43-5.43,2.41-9.24,8-10.75a8.55,8.55,0,0,0,6.07-6.39C345.9,990.59,344.34,987.66,343.18,984.89Z"/><path class="s2d-c1_5" d="M312.3,988.27h-8.6v.06h-.08v2.94a33.17,33.17,0,0,1,8.12,1.28c1.3.36,3,1.24,3.24-1.17a4.26,4.26,0,0,0,0-.5C315,989.27,314.22,988.27,312.3,988.27Z"/><path class="s2d-c1_5" d="M310.18,1014.82a6.74,6.74,0,0,1-6.56,6.74v8.59h1.94l.17,1a16.45,16.45,0,0,0-2.11-32.74v9.72A6.73,6.73,0,0,1,310.18,1014.82Z"/><path class="s2d-c1_5" d="M305.56,1030.15h-1.94v1.12a16.37,16.37,0,0,0,2.11-.16Z"/><path class="s2d-c1_2" d="M203.72,1118.88a19,19,0,0,1,19-19h.21v-3H205.1a4.33,4.33,0,0,1-.79,1.09c-7.11,7-10.23,15.31-9.25,26.09-.23-.14-.43-.29-.63-.44a29.1,29.1,0,0,0,24.26,22.28l1.6-8.24A19,19,0,0,1,203.72,1118.88Z"/><path class="s2d-c1_2" d="M222.7,1111.1a7.78,7.78,0,1,0,0,15.56h.21v-15.54Z"/><path class="s2d-c1_2" d="M212.47,1088.33h6.45a28.72,28.72,0,0,1,3.85-.26h.14v-3.74H189.16a2,2,0,0,0,.45,3.93h.2a10.84,10.84,0,0,0,1.89,0h1.52c1.33.07,2.67,0,4,0h.36c.49,0,1,0,1.48.07a12.43,12.43,0,0,0,2-.07h1.72a2.45,2.45,0,0,1,2.18,2,17.27,17.27,0,0,1,.68,3.42,28,28,0,0,1,3.85-2.37C209.43,1089.56,210.23,1088.32,212.47,1088.33Z"/><path class="s2d-c1_2" d="M213.39,1093.09c-1.39.46-3.38,1.74-3.82-1.07a4.91,4.91,0,0,1-.08-.74,28,28,0,0,0-3.85,2.37,6.14,6.14,0,0,1-.54,3.26h17.81v-5.19A28.3,28.3,0,0,0,213.39,1093.09Z"/><path class="s2d-c1_2" d="M218.92,1088.33h4v-.26h-.14A28.72,28.72,0,0,0,218.92,1088.33Z"/><path class="s2d-c1_3" d="M222.77,1146.22a28.81,28.81,0,0,1-4.08-.29l-3.31,17h7.53v-16.75Z"/><path class="s2d-c1_3" d="M222.91,1146.22v-8.37h-.21a19.13,19.13,0,0,1-2.41-.16l-1.6,8.24a28.81,28.81,0,0,0,4.08.29Z"/><path class="s2d-c1_3" d="M201.89,1096.91H185.23v-18.75h37.68v-76.41c-.83-.07-1.61.76-2.48,2.27-5.28,9.18-10.72,18.26-16,27.46-10.14,17.87-20.56,35.62-28.07,54.82-3.22,8.21-1.67,12.87,5.79,15.63,6.83,2.52,9.07,7.28,9.17,13.89,0,2.59-.21,5.39,3.06,7.83a29,29,0,0,1,7.46-26.74Z"/><path class="s2d-c1_3" d="M204.31,1098a4.33,4.33,0,0,0,.79-1.09h-3.21a29,29,0,0,0-7.46,26.74c.2.15.4.3.63.44C194.08,1113.31,197.2,1105,204.31,1098Z"/><path class="s2d-c1_3" d="M205.64,1093.65a17.27,17.27,0,0,0-.68-3.42,2.45,2.45,0,0,0-2.18-2h-1.72a12.43,12.43,0,0,1-2,.07c-.49,0-1-.06-1.48-.07h-.36c-1.33,0-2.67.07-4,0H191.7a10.84,10.84,0,0,1-1.89,0h-.2a2,2,0,0,1-.45-3.93h33.75v-6.17H185.23v18.75h16.66A29.12,29.12,0,0,1,205.64,1093.65Z"/><path class="s2d-c1_3" d="M205.64,1093.65a29.12,29.12,0,0,0-3.75,3.26h3.21A6.14,6.14,0,0,0,205.64,1093.65Z"/><path class="s2d-c1_3" d="M212.47,1088.33c-2.24,0-3,1.23-3,3a28.77,28.77,0,0,1,9.43-3Z"/><path class="s2d-c1_3" d="M218.92,1088.33a28.77,28.77,0,0,0-9.43,3,4.91,4.91,0,0,0,.08.74c.44,2.81,2.43,1.53,3.82,1.07a28.3,28.3,0,0,1,9.52-1.37v-3.39Z"/><path class="s2d-c1_3" d="M222.91,1136.56v-9.91h-.21a7.78,7.78,0,1,1,0-15.56h.21v-11.2h-.21a19,19,0,0,0-2.41,37.78l.22-1.13Z"/><path class="s2d-c1_3" d="M220.51,1136.56l-.22,1.13a19.13,19.13,0,0,0,2.41.16h.21v-1.29Z"/><path class="s2d-c1_2" d="M230.48,1118.88a7.78,7.78,0,0,0-7.57-7.77v15.54A7.79,7.79,0,0,0,230.48,1118.88Z"/><path class="s2d-c1_2" d="M256.68,1084.33H222.91v4H223v-.07h9.91c2.22,0,3.16,1.16,3.12,3a3.82,3.82,0,0,1,0,.58c-.31,2.77-2.23,1.76-3.73,1.34a38.48,38.48,0,0,0-9.36-1.47v8.19a19,19,0,0,1,2.43,37.75l1.5,8.27A29.09,29.09,0,0,0,251,1124.18l-.11.1c.63-10.58-2.22-18.92-9.2-25.7a6.51,6.51,0,0,1-1.24-1.67,6.65,6.65,0,0,1-.7-3.37,13.25,13.25,0,0,1,.77-3.71,2.27,2.27,0,0,1,1.48-1.57h3.74a6.17,6.17,0,0,0,.86,0h9.65a2,2,0,0,0,.45-3.93Z"/><path class="s2d-c1_5" d="M222.91,1146.22V1163h7l-3.07-17A30,30,0,0,1,222.91,1146.22Z"/><path class="s2d-c1_5" d="M222.91,1137.85v8.37a30,30,0,0,0,3.93-.29l-1.5-8.27A19.58,19.58,0,0,1,222.91,1137.85Z"/><path class="s2d-c1_5" d="M268.53,1084.36c-11.82-28.26-28.27-54-43.44-80.48-.81-1.41-1.51-2.07-2.18-2.13v82.58h33.77a2,2,0,0,1-.45,3.93h-9.65a6.17,6.17,0,0,1-.86,0H242a2.27,2.27,0,0,0-1.48,1.57,13.25,13.25,0,0,0-.77,3.71,6.65,6.65,0,0,0,.7,3.37,6.51,6.51,0,0,0,1.24,1.67c7,6.78,9.83,15.12,9.2,25.7l.11-.1c3.82-3.23,3.28-6.82,3.52-9.89.49-6.26,2.77-10.64,9.24-12.39a9.84,9.84,0,0,0,7-7.37C271.66,1090.94,269.86,1087.56,268.53,1084.36Z"/><path class="s2d-c1_5" d="M232.91,1088.26H223v.07h-.09v3.39a38.48,38.48,0,0,1,9.36,1.47c1.5.42,3.42,1.43,3.73-1.34a3.82,3.82,0,0,0,0-.58C236.07,1089.42,235.13,1088.26,232.91,1088.26Z"/><path class="s2d-c1_5" d="M230.48,1118.88a7.79,7.79,0,0,1-7.57,7.77v9.91h2.23l.2,1.1a19,19,0,0,0-2.43-37.75v11.2A7.78,7.78,0,0,1,230.48,1118.88Z"/><path class="s2d-c1_5" d="M225.14,1136.56h-2.23v1.29a19.58,19.58,0,0,0,2.43-.19Z"/><rect class="s2d-c1_5" x="823.68" y="1097.99" width="22.35" height="3.87" rx="1.94" ry="1.94"/><rect class="s2d-c1_4" x="823.68" y="1077.11" width="22.35" height="3.87" rx="1.94" ry="1.94"/><rect class="s2d-c1_5" x="823.68" y="1056.23" width="22.35" height="3.87" rx="1.94" ry="1.94"/><rect class="s2d-c1_4" x="823.68" y="1035.35" width="22.35" height="3.87" rx="1.94" ry="1.94"/><rect class="s2d-c1_5" x="823.68" y="1014.47" width="22.35" height="3.87" rx="1.94" ry="1.94"/><rect class="s2d-c1_4" x="823.68" y="993.59" width="22.35" height="3.87" rx="1.94" ry="1.94"/><rect class="s2d-c1_5" x="823.68" y="972.71" width="22.35" height="3.87" rx="1.94" ry="1.94"/><rect class="s2d-c1_4" x="823.68" y="1118.87" width="22.35" height="3.87" rx="1.94" ry="1.94"/><rect class="s2d-c1_5" x="823.68" y="1140.52" width="22.35" height="3.87" rx="1.94" ry="1.94"/><rect class="s2d-c1_5" x="480.53" y="1097.99" width="22.35" height="3.87" rx="1.94" ry="1.94"/><rect class="s2d-c1_4" x="480.53" y="1077.11" width="22.35" height="3.87" rx="1.94" ry="1.94"/><rect class="s2d-c1_5" x="480.53" y="1056.23" width="22.35" height="3.87" rx="1.94" ry="1.94"/><rect class="s2d-c1_4" x="480.53" y="1035.35" width="22.35" height="3.87" rx="1.94" ry="1.94"/><rect class="s2d-c1_5" x="480.53" y="1014.47" width="22.35" height="3.87" rx="1.94" ry="1.94"/><rect class="s2d-c1_4" x="480.53" y="993.59" width="22.35" height="3.87" rx="1.94" ry="1.94"/><rect class="s2d-c1_5" x="480.53" y="972.71" width="22.35" height="3.87" rx="1.94" ry="1.94"/><rect class="s2d-c1_4" x="480.53" y="1118.87" width="22.35" height="3.87" rx="1.94" ry="1.94"/><rect class="s2d-c1_5" x="480.53" y="1140.52" width="22.35" height="3.87" rx="1.94" ry="1.94"/><path class="s2d-c1_4" d="M560,660.16c1.4-2,3.76-3.57,5.6-5.16l5.94-5.12c.75-.65-.34-1.73-1.08-1.08l-6.64,5.71c-1.77,1.52-3.81,2.94-5.15,4.87-.56.82.77,1.58,1.33.78Z"/><path class="s2d-c1_5" d="M669,659.59a48,48,0,0,1,0-11.11c.11-1-1.42-1-1.53,0a48,48,0,0,0,0,11.11c.11,1,1.64,1,1.53,0Z"/><path class="s2d-c1_4" d="M654.21,660.59c.93-3.92,2.25-7.64,3.55-11.44.32-.93-1.16-1.33-1.48-.4-1.3,3.79-2.62,7.52-3.55,11.43-.23,1,1.25,1.37,1.48.41Z"/><path class="s2d-c1_5" d="M638.48,660.54a73.16,73.16,0,0,0,6.11-11.2c.38-.9-.94-1.68-1.33-.78a71.58,71.58,0,0,1-6.11,11.21c-.54.83.78,1.59,1.33.77Z"/><path class="s2d-c1_4" d="M622.87,660.54c2.69-3.54,5.47-7,8-10.71.55-.82-.77-1.58-1.32-.77-2.5,3.69-5.27,7.17-8,10.71-.59.79.74,1.55,1.33.77Z"/><path class="s2d-c1_5" d="M607,660.81a103.3,103.3,0,0,0,8.92-11.09c.56-.82-.77-1.59-1.32-.77a102.07,102.07,0,0,1-8.68,10.78c-.66.73.42,1.82,1.08,1.08Z"/><path class="s2d-c1_4" d="M590.76,660.56l11-10.26c.72-.68-.36-1.76-1.08-1.09l-11,10.27c-.72.67.36,1.76,1.08,1.08Z"/><path class="s2d-c1_5" d="M575.43,660.37l11-9.82c.74-.66-.35-1.74-1.08-1.09l-11,9.82c-.74.66.35,1.74,1.08,1.09Z"/><path class="s2d-c1_4" d="M777.44,659.38c-1.34-1.93-3.38-3.34-5.15-4.87l-6.64-5.71c-.74-.65-1.83.43-1.08,1.08l5.94,5.12c1.85,1.59,4.2,3.13,5.6,5.16.56.8,1.89,0,1.33-.78Z"/><path class="s2d-c1_4" d="M683.4,660.18c-.93-3.91-2.25-7.64-3.55-11.43-.32-.93-1.8-.53-1.48.4,1.31,3.8,2.62,7.52,3.55,11.44.23,1,1.71.55,1.48-.41Z"/><path class="s2d-c1_5" d="M699,659.77a72.41,72.41,0,0,1-6.11-11.21c-.39-.9-1.71-.12-1.32.78a72.26,72.26,0,0,0,6.1,11.2c.55.82,1.88.06,1.33-.77Z"/><path class="s2d-c1_4" d="M714.59,659.77c-2.7-3.54-5.47-7-8-10.71-.55-.81-1.88,0-1.33.77,2.49,3.69,5.27,7.17,8,10.71.59.78,1.93,0,1.33-.77Z"/><path class="s2d-c1_5" d="M730.21,659.73A100.82,100.82,0,0,1,721.53,649c-.55-.81-1.88-.05-1.33.77a104.55,104.55,0,0,0,8.92,11.09c.66.74,1.75-.35,1.09-1.08Z"/><path class="s2d-c1_4" d="M746.45,659.48l-11-10.27c-.72-.67-1.81.41-1.09,1.09l11,10.26c.72.68,1.8-.41,1.08-1.08Z"/><path class="s2d-c1_5" d="M761.78,659.28l-11-9.82c-.74-.65-1.83.43-1.09,1.09l11,9.82c.73.65,1.82-.43,1.08-1.09Z"/><line class="s2d-c1_10" x1="418.71" y1="400.34" x2="418.71" y2="400.34"/><line class="s2d-c1_11" x1="448.57" y1="400.34" x2="881.57" y2="400.34"/><line class="s2d-c1_10" x1="896.5" y1="400.34" x2="896.5" y2="400.34"/><circle class="s2d-c1_3" cx="952.35" cy="955.25" r="8.72"/><circle class="s2d-c1_3" cx="812.05" cy="695.37" r="8.72"/><circle class="s2d-c1_3" cx="511.51" cy="695.37" r="8.72"/><circle class="s2d-c1_5" cx="508.47" cy="545.26" r="8.72"/><circle class="s2d-c1_5" cx="812.05" cy="545.26" r="8.72"/><circle class="s2d-c1_2" cx="511.51" cy="634.87" r="5.44"/><circle class="s2d-c1_2" cx="812.05" cy="634.87" r="5.44"/><circle class="s2d-c1_5" cx="901.13" cy="695.21" r="5.44"/><circle class="s2d-c1_5" cx="417.72" cy="695.21" r="5.44"/><circle class="s2d-c1_2" cx="935.57" cy="907.63" r="4.75"/><circle class="s2d-c1_3" cx="372.49" cy="955.25" r="8.72"/><circle class="s2d-c1_2" cx="389.26" cy="907.63" r="4.75"/><rect class="s2d-c1_5" x="553.24" y="1150.11" width="222.62" height="12.86"/><polygon class="s2d-c1_5" points="753.63 353.45 753.93 304.15 755.05 304.15 755.36 353.45 753.63 353.45"/><polygon class="s2d-c1_5" points="717.18 353.45 717.8 281.26 720.04 281.26 720.65 353.45 717.18 353.45"/><polygon class="s2d-c1_5" points="718.05 251.18 718.36 191.79 719.48 191.79 719.79 251.18 718.05 251.18"/><polygon class="s2d-c1_5" points="569.68 353.45 569.99 304.15 571.11 304.15 571.42 353.45 569.68 353.45"/><polygon class="s2d-c1_5" points="604.39 353.45 605 281.26 607.25 281.26 607.86 353.45 604.39 353.45"/><polygon class="s2d-c1_5" points="605.26 251.18 605.56 191.79 606.69 191.79 606.99 251.18 605.26 251.18"/><rect class="s2d-c1_12" x="81.31" y="1183.7" width="1159.8" height="45.06" transform="translate(1322.42 2412.47) rotate(180)"/></svg>
