<svg id="Layer_1" data-name="Layer 1" xmlns="http://www.w3.org/2000/svg" width="150" height="150" viewBox="50 50 300 300"><defs><style>.ccn-6_1{fill:#357d74;}.ccn-6_2{fill:#fff;}.ccn-6_3{font-size:25px;fill:#2f4962;font-family:PermanentMarker;letter-spacing:0.08em;}</style></defs><title>26</title><path class="ccn-6_2" d="M47.62,163.93c10.75-8.26,24.51-16.61,40.83-21,13.78-3.7,29.62-3.38,45.78-3.38s32-.37,45.8,3.33c16.32,4.39,28.51,14.8,39.26,23.06,13.82,10.64,25,22,25,36.43s-9.54,27.85-23.36,38.49c-10.75,8.26-25,15-41.28,19.39-13.78,3.71-29.2,8-45.37,8-7.37,0-14.4-2.14-21.21-4.38a14.88,14.88,0,0,0-17.8,7.24c-6.9,13.2-18.72,28.39-38,34.5,0,0,20.89-31.51,14.11-54.09a45.45,45.45,0,0,0-7-1.09C44.58,249.11,34,232.12,34,232.12c-7-8.38-8.55-19.79-8.55-29.74C25.47,188,33.8,174.57,47.62,163.93Z"/><text class="ccn-6_3" transform="translate(55.61 188.39)">Maafkan<tspan x="0" y="28">Aku anakku.</tspan></text></svg>
