<svg id="Layer_1" data-name="Layer 1" xmlns="http://www.w3.org/2000/svg" width="150" height="150" viewBox="50 50 300 300"><defs><style>.ccn-4_1{fill:#357d74;}.ccn-4_2{fill:#fff;}.ccn-4_3{font-size:25px;fill:#2f4962;font-family:PermanentMarker;}.ccn-4_3,.ccn-4_7{letter-spacing:0.05em;}.ccn-4_4{letter-spacing:0.06em;}.ccn-4_5{letter-spacing:0.08em;}.ccn-4_6{letter-spacing:0.07em;}.ccn-4_8{letter-spacing:0.03em;}</style></defs><title>24</title><rect class="ccn-4_1" x="-1206.11" y="-266.23" width="2900.71" height="888.16"/><path class="ccn-4_2" d="M310.36,127c-8.51-6.55-19.42-13.16-32.35-16.63-10.93-2.94-23.48-2.68-36.29-2.68s-25.37-.29-36.29,2.64c-12.93,3.47-22.6,11.73-31.12,18.28-10.95,8.43-19.78,17.46-19.78,28.86s7.57,22.08,18.52,30.51c8.52,6.54,19.79,11.9,32.72,15.37,10.92,2.93,23.14,6.35,35.95,6.35,5.84,0,11.41-1.7,16.82-3.47a11.79,11.79,0,0,1,14.1,5.74c5.47,10.46,14.83,22.5,30.13,27.34,0,0-16.55-25-11.18-42.86a35.12,35.12,0,0,1,5.53-.87c15.65-1.07,24-14.53,24-14.53,5.55-6.65,6.78-15.69,6.78-23.58C327.92,146.07,321.32,135.43,310.36,127Z"/><text class="ccn-4_3" transform="translate(182.55 151.29)">A<tspan class="ccn-4_4" x="18.8" y="0">y</tspan><tspan class="ccn-4_5" x="30.32" y="0">ah ini </tspan><tspan class="ccn-4_5"><tspan x="0" y="28">p</tspan><tspan class="ccn-4_6" x="15.11" y="28">e</tspan><tspan class="ccn-4_7" x="29.9" y="28">r</tspan><tspan class="ccn-4_8" x="44.67" y="28">t</tspan><tspan x="57.41" y="28">anda!</tspan></tspan></text></svg>
