<svg id="Layer_1" data-name="Layer 1" xmlns="http://www.w3.org/2000/svg" width="200" height="200" viewBox="50 50 300 300"><defs><style>.ccn-2_1{fill:#357d74;}.ccn-2_2{fill:#fff;}.ccn-2_3{font-size:25px;fill:#2f4962;font-family:PermanentMarker;letter-spacing:0.05em;}.ccn-2_4{letter-spacing:0.08em;}.ccn-2_5{letter-spacing:0.06em;}</style></defs><title>18</title><rect class="ccn-2_1" x="-1206.11" y="-266.23" width="2900.71" height="888.16"/><path class="ccn-2_2" d="M291.31,253.22c-11.8,9.08-26.92,18.25-44.84,23.06-15.14,4.07-32.53,3.71-50.29,3.71s-35.16.41-50.3-3.66C128,271.52,114.55,260.08,102.76,251c-15.19-11.68-27.42-24.21-27.42-40S85.82,180.4,101,168.72c11.8-9.08,27.42-16.5,45.34-21.31,15.14-4.07,32.07-8.8,49.83-8.8,8.1,0,15.82,2.35,23.3,4.81a16.34,16.34,0,0,0,19.55-8c7.58-14.5,20.56-31.18,41.76-37.89,0,0-22.94,34.61-15.49,59.41a49.36,49.36,0,0,0,7.66,1.2c21.69,1.48,33.3,20.14,33.3,20.14,7.69,9.21,9.39,21.74,9.39,32.67C315.65,226.79,306.5,241.54,291.31,253.22Z"/><text class="ccn-2_3" transform="translate(107.97 200.56)">T<tspan class="ccn-2_4" x="16.43" y="0">olong Sihir </tspan><tspan class="ccn-2_4"><tspan x="0" y="28">PUrb</tspan><tspan class="ccn-2_5" x="69.23" y="28">a</tspan><tspan x="85.27" y="28">sari ki!</tspan></tspan></text></svg>
