<svg id="Layer_1" data-name="Layer 1" xmlns="http://www.w3.org/2000/svg" viewBox="0 0 400 400"><defs><style>.ccn-7_1{fill:#357d74;}.ccn-7_2{fill:#fff;}.ccn-7_3{font-size:20px;fill:#2f4962;font-family:PermanentMarker;}.ccn-7_3,.ccn-7_9{letter-spacing:0.08em;}.ccn-7_4{letter-spacing:0.07em;}.ccn-7_5{letter-spacing:0.05em;}.ccn-7_6{letter-spacing:0.06em;}.ccn-7_7{letter-spacing:0.08em;}.ccn-7_8{letter-spacing:0.06em;}</style></defs><title>27</title><path class="ccn-7_2" d="M102.66,141.34c10.75-8.27,24.51-16.61,40.83-21,13.78-3.7,29.62-3.37,45.78-3.37s32-.37,45.8,3.33c16.32,4.38,28.52,14.79,39.26,23.06,13.82,10.63,25,22,25,36.42s-9.55,27.85-23.37,38.49c-10.75,8.26-25,15-41.28,19.4-13.78,3.7-29.2,8-45.37,8-7.37,0-14.4-2.14-21.21-4.38a14.88,14.88,0,0,0-17.8,7.25c-6.9,13.2-18.72,28.39-38,34.5,0,0,20.88-31.52,14.1-54.09a43,43,0,0,0-7-1.09c-19.76-1.35-30.32-18.34-30.32-18.34-7-8.39-8.55-19.79-8.55-29.75C80.51,165.4,88.84,152,102.66,141.34Z"/><text class="ccn-7_3" transform="translate(110.65 162.79)">Aku meng<tspan class="ccn-7_4" x="109.91" y="0">e</tspan><tspan class="ccn-7_5" x="121.74" y="0">r</tspan><tspan x="133.56" y="0">ti. </tspan><tspan x="0" y="25">Tidak a</tspan><tspan class="ccn-7_6" x="83.25" y="25">p</tspan><tspan class="ccn-7_7" x="94.95" y="25">a-a</tspan><tspan class="ccn-7_8" x="135.18" y="25">p</tspan><tspan x="146.88" y="25">a </tspan><tspan class="ccn-7_5"><tspan x="0" y="50">a</tspan><tspan class="ccn-7_8" x="12.62" y="50">y</tspan><tspan class="ccn-7_9" x="21.83" y="50">ahanda.</tspan></tspan></text></svg>
