<svg id="Layer_1" data-name="Layer 1" xmlns="http://www.w3.org/2000/svg" width="180" height="180" viewBox="50 50 300 300"><defs><style>.ccn-3_1{fill:#357d74;}.ccn-3_2{fill:#fff;}.ccn-3_3{font-size:25px;fill:#2f4962;font-family:PermanentMarker;letter-spacing:0.08em;}</style></defs><title>19</title><rect class="ccn-3_1" x="-1206.11" y="-266.23" width="2900.71" height="888.16"/><path class="ccn-3_2" d="M82.88,136.71c11.59-8.92,26.45-17.92,44.05-22.65,14.87-4,31.95-3.65,49.4-3.65s34.54-.4,49.41,3.6c17.6,4.73,30.77,16,42.35,24.88C283,150.36,295,162.67,295,178.19s-10.29,30.05-25.21,41.52c-11.59,8.92-26.93,16.2-44.53,20.93-14.88,4-31.51,8.65-48.95,8.65-8,0-15.54-2.32-22.89-4.73a16,16,0,0,0-19.2,7.82c-7.45,14.24-20.2,30.63-41,37.22,0,0,22.54-34,15.22-58.36a48.88,48.88,0,0,0-7.53-1.18c-21.31-1.45-32.7-19.78-32.7-19.78C60.65,201.23,59,188.93,59,178.19,59,162.67,68,148.18,82.88,136.71Z"/><text class="ccn-3_3" transform="translate(105.9 149.8)">Baiklah <tspan x="0" y="28">Purbara-</tspan><tspan x="0" y="56">rang haha!</tspan></text></svg>
