<svg id="Layer_1" data-name="Layer 1" xmlns="http://www.w3.org/2000/svg" width="200" height="200" viewBox="0 0 400 400"><defs><style>.cls-1{fill:#357d74;}.cls-2{fill:#fff;}.cls-3{font-size:25px;fill:#2f4962;font-family:PermanentMarker;letter-spacing:0.08em;}.cls-4{letter-spacing:0.07em;}.cls-5{letter-spacing:0.06em;}.cls-6{letter-spacing:0.03em;}</style></defs><title>13</title><rect class="cls-1" x="-1206.11" y="-266.23" width="2900.71" height="888.16"/><path class="cls-2" d="M300.82,157.59C289,148.51,273.9,139.34,256,134.53c-15.14-4.07-32.53-3.71-50.29-3.71s-35.16-.41-50.3,3.66c-17.92,4.81-31.32,16.25-43.12,25.33-15.19,11.68-27.41,24.21-27.41,40s10.48,30.6,25.66,42.28c11.8,9.08,27.42,16.5,45.34,21.31,15.14,4.07,32.08,8.8,49.83,8.8,8.1,0,15.82-2.35,23.31-4.81a16.33,16.33,0,0,1,19.55,8c7.58,14.5,20.56,31.18,41.75,37.89,0,0-22.94-34.61-15.49-59.41a49.36,49.36,0,0,1,7.66-1.2c21.7-1.48,33.3-20.14,33.3-20.14,7.7-9.21,9.39-21.74,9.39-32.68C325.15,184,316,169.27,300.82,157.59Z"/><text class="cls-3" transform="translate(132.05 181.46)">T<tspan class="cls-4" x="17.19" y="0">e</tspan><tspan x="31.98" y="0">rimalah</tspan><tspan x="0" y="28">Mah</tspan><tspan class="cls-5" x="59.42" y="28">k</tspan><tspan class="cls-6" x="77.07" y="28">ot</tspan><tspan x="106.29" y="28">a ini</tspan><tspan x="0" y="56">purb</tspan><tspan class="cls-5" x="63.59" y="56">a</tspan><tspan x="79.63" y="56">sari!</tspan></text></svg>
