<svg id="Layer_1" data-name="Layer 1" xmlns="http://www.w3.org/2000/svg" width="200" height="200" viewBox="100 100 200 200"><defs><style>.ccn-5_1{fill:#357d74;}.ccn-5_2{fill:#fff;}.ccn-5_3{font-size:20px;fill:#2f4962;font-family:PermanentMarker;letter-spacing:0.08em;}.ccn-5_4{letter-spacing:0.06em;}.ccn-5_5{letter-spacing:0.07em;}.ccn-5_6{letter-spacing:0.06em;}.ccn-5_7{letter-spacing:0.05em;}.ccn-5_8{letter-spacing:0.07em;}.ccn-5_9{letter-spacing:0.08em;}.ccn-5_10{letter-spacing:0.03em;}.ccn-5_11{letter-spacing:0.03em;}.ccn-5_12{letter-spacing:0.04em;}</style></defs><title>25</title><rect class="ccn-5_1" x="-1206.11" y="-266.23" width="2900.71" height="888.16"/><path class="ccn-5_2" d="M62.85,125.42c15.44-11.88,35.23-23.88,58.69-30.17,19.81-5.33,42.57-4.86,65.81-4.86s46-.54,65.84,4.79c23.46,6.3,41,21.27,56.43,33.15C329.5,143.62,345.5,160,345.5,180.69s-13.72,40-33.59,55.33C296.46,247.9,276,257.6,252.57,263.9c-19.81,5.33-42,11.53-65.22,11.53-10.59,0-20.7-3.09-30.49-6.3a21.37,21.37,0,0,0-25.59,10.41c-9.92,19-26.91,40.81-54.65,49.6,0,0,30-45.3,20.28-77.76a64.31,64.31,0,0,0-10-1.57c-28.39-1.94-43.58-26.36-43.58-26.36C33.22,211.4,31,195,31,180.69,31,160,43,140.71,62.85,125.42Z"/><text class="ccn-5_3" transform="translate(83.28 134.57)">Purb<tspan class="ccn-5_4" x="53.18" y="0">a</tspan><tspan x="66.01" y="0">sari t</tspan><tspan class="ccn-5_5" x="130.72" y="0">e</tspan><tspan x="142.56" y="0">rkena </tspan><tspan x="0" y="25">pen</tspan><tspan class="ccn-5_6" x="37.01" y="25">y</tspan><tspan x="46.22" y="25">akit langka </tspan><tspan x="0" y="50">karena </tspan><tspan class="ccn-5_7" x="87.29" y="50">a</tspan><tspan class="ccn-5_6" x="99.91" y="50">y</tspan><tspan x="109.13" y="50">ah tidak </tspan><tspan x="0" y="75">me</tspan><tspan class="ccn-5_8" x="29.92" y="75">w</tspan><tspan class="ccn-5_9" x="47.83" y="75">ariskan </tspan><tspan class="ccn-5_10" x="141.97" y="75">T</tspan><tspan x="154.73" y="75">ah</tspan><tspan class="ccn-5_11" x="181.19" y="75">t</tspan><tspan x="191.38" y="75">a </tspan><tspan x="0" y="100">ke anak Su</tspan><tspan class="ccn-5_12" x="124.81" y="100">l</tspan><tspan class="ccn-5_9" x="136.27" y="100">ung.</tspan></text></svg>
