<svg id="Layer_1" data-name="Layer 1" xmlns="http://www.w3.org/2000/svg" xmlns:xlink="http://www.w3.org/1999/xlink" viewBox="0 0 2157.64 915.94"><defs><style>.s2d-ce1_1{fill:#2e5f5a;}.s2d-ce1_2{fill:url(#s2d-ce-lg1);}.s2d-ce1_3{fill:url(#s2d-ce-lg1_2);}.s2d-ce1_4{fill:url(#s2d-ce-lg1_3);}.s2d-ce1_5{fill:url(#s2d-ce-lg1_4);}.s2d-ce1_6{fill:url(#s2d-ce-lg1_5);}.s2d-ce1_7{fill:url(#s2d-ce-lg1_6);}.s2d-ce1_8{fill:url(#s2d-ce-lg1_7);}.s2d-ce1_9{fill:url(#s2d-ce-lg1_8);}</style><linearGradient id="s2d-ce-lg1" x1="3160.32" y1="392.9" x2="3161.74" y2="145.46" gradientTransform="matrix(-1, 0, 0, 1, 4481.01, 0)" gradientUnits="userSpaceOnUse"><stop offset="0" stop-color="#357d74" stop-opacity="0"/><stop offset="1" stop-color="#357d74"/></linearGradient><linearGradient id="s2d-ce-lg1_2" x1="2771.57" y1="439.13" x2="2772.21" y2="327.78" xlink:href="#s2d-ce-lg1"/><linearGradient id="s2d-ce-lg1_3" x1="2926.92" y1="176.16" x2="2927.56" y2="64.81" xlink:href="#s2d-ce-lg1"/><linearGradient id="s2d-ce-lg1_4" x1="3012.94" y1="498" x2="3013.47" y2="405.81" xlink:href="#s2d-ce-lg1"/><linearGradient id="s2d-ce-lg1_5" x1="3470.4" y1="221.78" x2="3470.67" y2="175.69" xlink:href="#s2d-ce-lg1"/><linearGradient id="s2d-ce-lg1_6" x1="3633.98" y1="348.75" x2="3634.25" y2="302.66" xlink:href="#s2d-ce-lg1"/><linearGradient id="s2d-ce-lg1_7" x1="1645.15" y1="818.6" x2="1644.03" y2="623.77" gradientUnits="userSpaceOnUse"><stop offset="0" stop-color="#3b6660" stop-opacity="0"/><stop offset="0.34" stop-color="#375e5b" stop-opacity="0.34"/><stop offset="1" stop-color="#2f4f51"/></linearGradient><linearGradient id="s2d-ce-lg1_8" x1="1381.32" y1="685.03" x2="1380.92" y2="615.55" xlink:href="#s2d-ce-lg1_7"/></defs><title>34</title><path class="s2d-ce1_2" d="M1038,321.84l0,0q.46-.78,1-1.53l.09-.12c.34-.46.7-.92,1.08-1.36l.16-.18c.37-.41.74-.81,1.13-1.18l.27-.25c.38-.35.75-.68,1.15-1l.4-.3c.37-.28.74-.56,1.13-.82l.55-.32c.36-.23.72-.45,1.1-.65l.7-.34c.34-.17.69-.34,1-.49l.86-.31c.32-.12.64-.25,1-.35s.71-.18,1.06-.27.57-.16.87-.22.88-.14,1.32-.2c.23,0,.45-.08.67-.1a20.53,20.53,0,0,1,11.25,2.09,32.32,32.32,0,0,1,2.25-2.71A30.44,30.44,0,0,1,1095.7,302c.67.14,1.32.3,2,.48a30.71,30.71,0,0,1,44.09-21,49.53,49.53,0,0,1-1.21-8c-.07-1-.12-2.07-.12-3.12a48.93,48.93,0,0,1,62.67-47,48.44,48.44,0,0,1,1.91-8.81,48.93,48.93,0,0,1,80.07-21.06c.58.55,1.15,1.1,1.71,1.68a73.64,73.64,0,0,1,15.08-10.86,72.86,72.86,0,0,1,88.19,14.46c1.34,1.44,2.61,2.93,3.83,4.46a73.19,73.19,0,0,1,13.26,26.36,50.87,50.87,0,0,1,5.12-.26A48.63,48.63,0,0,1,1444,241a49.33,49.33,0,0,1,12.32,15.91,30.63,30.63,0,0,1,10.62-1.92,31.22,31.22,0,0,1,5.67.52,30.67,30.67,0,0,1,14.54,7.07c.68.59,1.33,1.22,1.95,1.86a30.8,30.8,0,0,1,8.25,16.92,30.71,30.71,0,0,1,45,17.57c.25.84.47,1.7.65,2.57a30.54,30.54,0,0,1,32.84,11.38,20.45,20.45,0,1,1,0,36.52,30.69,30.69,0,0,1-42.13,7.08,30.68,30.68,0,0,1-47.74,9,30.73,30.73,0,0,1-52.73,3.56,30.64,30.64,0,0,1-37.57-8.49A30.68,30.68,0,0,1,1354.3,384,73,73,0,0,1,1240,366.6a30.56,30.56,0,0,1-32.53,3.46,30.72,30.72,0,0,1-52.73-3.55,30.69,30.69,0,0,1-47.74-9,30.69,30.69,0,0,1-42.13-7.08,20.25,20.25,0,0,1-9.18,2.2A20.43,20.43,0,0,1,1038,321.84Z"/><path class="s2d-ce1_3" d="M1582.21,407.16l0,0c.14-.24.29-.47.44-.69a.21.21,0,0,0,0-.06c.16-.21.32-.41.49-.61l.07-.08c.17-.19.33-.36.51-.53l.12-.12.52-.45.18-.13c.17-.13.33-.25.51-.37l.24-.15.5-.29.31-.15.48-.22.39-.14.43-.16.48-.12.39-.1c.19,0,.4-.06.6-.09l.3,0c.3,0,.61-.05.93-.05a9.15,9.15,0,0,1,4.13,1,13.07,13.07,0,0,1,1-1.22,13.79,13.79,0,0,1,8.42-4.3,13.57,13.57,0,0,1,1.69-.1,13.28,13.28,0,0,1,2.77.29c.3.06.6.13.89.21a13.81,13.81,0,0,1,19.84-9.46,22.74,22.74,0,0,1-.55-3.62c0-.46,0-.93,0-1.4a22,22,0,0,1,28.2-21.17,22.49,22.49,0,0,1,.86-4,22,22,0,0,1,36-9.48c.26.25.52.5.77.76a32.81,32.81,0,0,1,46.48,1.62c.6.65,1.17,1.31,1.72,2a32.89,32.89,0,0,1,6,11.86,22,22,0,0,1,16.57,5.14,22.19,22.19,0,0,1,5.54,7.16,13.82,13.82,0,0,1,4.78-.86,14.23,14.23,0,0,1,2.55.23,13.71,13.71,0,0,1,6.55,3.19,11.37,11.37,0,0,1,.87.83,13.81,13.81,0,0,1,3.72,7.61,13.82,13.82,0,0,1,20.26,7.91c.11.38.21.77.29,1.16a13.71,13.71,0,0,1,14.78,5.12,9.2,9.2,0,1,1,4.14,17.42,9.28,9.28,0,0,1-4.14-1,13.81,13.81,0,0,1-19,3.18,13.8,13.8,0,0,1-21.48,4.06,13.83,13.83,0,0,1-23.73,1.6,13.78,13.78,0,0,1-16.91-3.82,13.84,13.84,0,0,1-13.63,11.49,14,14,0,0,1-5-.94,32.87,32.87,0,0,1-51.46-7.82,13.74,13.74,0,0,1-14.63,1.56,13.83,13.83,0,0,1-23.74-1.6,13.8,13.8,0,0,1-21.48-4.06,13.81,13.81,0,0,1-19-3.18,9.2,9.2,0,0,1-12.08-12.86Z"/><path class="s2d-ce1_4" d="M1426.87,144.19v0a8.18,8.18,0,0,1,.45-.69l0-.06c.15-.21.31-.41.48-.61l.08-.08a6.38,6.38,0,0,1,.51-.53l.12-.12.51-.45.18-.13.51-.37.25-.15c.16-.1.32-.2.49-.29l.32-.15.47-.22.39-.14.44-.16.47-.12.39-.1.6-.09.3,0c.31,0,.62,0,.93,0a9.08,9.08,0,0,1,4.13,1,15,15,0,0,1,1-1.22,13.76,13.76,0,0,1,8.42-4.3,13.72,13.72,0,0,1,4.46.19c.3.06.59.13.88.21a13.81,13.81,0,0,1,19.84-9.46,22.73,22.73,0,0,1-.54-3.62c0-.46,0-.93,0-1.4A22,22,0,0,1,1495,99a22.29,22.29,0,0,1,6.15.88,20.83,20.83,0,0,1,.86-4,22,22,0,0,1,36-9.48c.27.25.52.5.77.76a32.81,32.81,0,0,1,46.48,1.62c.6.65,1.17,1.31,1.72,2a32.89,32.89,0,0,1,6,11.86,22,22,0,0,1,16.58,5.14,22.32,22.32,0,0,1,5.54,7.16,13.74,13.74,0,0,1,4.78-.86,14.31,14.31,0,0,1,2.55.23,13.68,13.68,0,0,1,6.54,3.19,11.51,11.51,0,0,1,.88.83,13.86,13.86,0,0,1,3.71,7.61,13.82,13.82,0,0,1,20.26,7.91,11.61,11.61,0,0,1,.3,1.16,13.71,13.71,0,0,1,14.78,5.12,9.08,9.08,0,0,1,4.13-1,9.21,9.21,0,1,1-4.13,17.43,13.81,13.81,0,0,1-19,3.18,13.81,13.81,0,0,1-21.49,4.06,13.83,13.83,0,0,1-23.73,1.6,13.78,13.78,0,0,1-16.91-3.82,13.8,13.8,0,0,1-18.61,10.55,32.87,32.87,0,0,1-51.46-7.82,13.76,13.76,0,0,1-14.64,1.56,13.83,13.83,0,0,1-23.73-1.6,13.8,13.8,0,0,1-21.48-4.06,13.83,13.83,0,0,1-19-3.18,9.21,9.21,0,0,1-13.34-8.22A9.11,9.11,0,0,1,1426.87,144.19Z"/><path class="s2d-ce1_5" d="M1362.74,471.53v0c.12-.2.24-.39.37-.57l0,0c.13-.18.26-.35.4-.51l.07-.07a5.77,5.77,0,0,1,.42-.44l.1-.09c.14-.13.28-.26.43-.38l.14-.11c.14-.1.28-.21.43-.3l.2-.12a3.38,3.38,0,0,1,.41-.24,2.1,2.1,0,0,1,.26-.13c.13-.06.26-.13.39-.18l.32-.12.37-.13.39-.1.32-.08.5-.08.25,0a6.34,6.34,0,0,1,.76,0,7.58,7.58,0,0,1,3.43.82,10.22,10.22,0,0,1,.84-1,11.46,11.46,0,0,1,7-3.57,12.81,12.81,0,0,1,1.39-.08,11.57,11.57,0,0,1,2.3.24c.25.05.49.11.73.18a11.45,11.45,0,0,1,16.43-7.84,18.43,18.43,0,0,1-.45-3c0-.38,0-.77,0-1.16a18.25,18.25,0,0,1,18.25-18.26,18.52,18.52,0,0,1,5.09.73,19,19,0,0,1,.71-3.28,18.24,18.24,0,0,1,29.84-7.84c.22.2.43.41.64.62a27.2,27.2,0,0,1,5.62-4,27.12,27.12,0,0,1,32.86,5.39c.49.53,1,1.08,1.42,1.66a27.09,27.09,0,0,1,4.94,9.82,17.33,17.33,0,0,1,1.91-.1A18.12,18.12,0,0,1,1514,441.4a18.45,18.45,0,0,1,4.58,5.92,11.58,11.58,0,0,1,4-.71,11.27,11.27,0,0,1,2.11.19,11.45,11.45,0,0,1,5.42,2.64c.25.22.5.45.73.69a11.44,11.44,0,0,1,3.07,6.3,11.45,11.45,0,0,1,16.78,6.55q.13.47.24,1a11.25,11.25,0,0,1,3-.42,11.44,11.44,0,0,1,9.21,4.66,7.62,7.62,0,1,1,0,13.6,11.43,11.43,0,0,1-15.7,2.64,11.43,11.43,0,0,1-17.79,3.36A11.45,11.45,0,0,1,1510,489.1a11.32,11.32,0,0,1-5,1.18,11.45,11.45,0,0,1-9-4.34,11.45,11.45,0,0,1-15.41,8.74,27.2,27.2,0,0,1-42.6-6.47,11.46,11.46,0,0,1-7.09,2.46,11.32,11.32,0,0,1-5-1.18,11.45,11.45,0,0,1-19.65-1.32,11.42,11.42,0,0,1-17.78-3.36,11.43,11.43,0,0,1-15.7-2.64,7.61,7.61,0,0,1-10-10.64Z"/><path class="s2d-ce1_6" d="M957.94,208.54h0c0-.09.12-.19.18-.28l0,0c.06-.09.13-.17.2-.26l0,0,.21-.22,0-.05.21-.18.08-.06.21-.15.1-.06a2.25,2.25,0,0,1,.21-.12l.13-.07.19-.09.16-.06.18-.06.2,0,.16,0,.25,0,.12,0,.39,0a3.82,3.82,0,0,1,1.71.41c.13-.17.27-.34.42-.5a5.67,5.67,0,0,1,3.49-1.78,5.21,5.21,0,0,1,.69-.05,6.14,6.14,0,0,1,1.15.12l.37.09a5.72,5.72,0,0,1,8.21-3.91,9.35,9.35,0,0,1-.22-1.5,5.63,5.63,0,0,1,0-.58,9.13,9.13,0,0,1,9.13-9.13,8.93,8.93,0,0,1,2.55.37,9.54,9.54,0,0,1,.35-1.64,9.12,9.12,0,0,1,14.92-3.93c.11.1.22.21.32.32a13.78,13.78,0,0,1,2.81-2,13.55,13.55,0,0,1,16.43,2.7,9.41,9.41,0,0,1,.71.83,14.09,14.09,0,0,1,1.22,1.82,13.43,13.43,0,0,1,1.25,3.09c.32,0,.63,0,1,0a9.16,9.16,0,0,1,8.2,5.14,5.65,5.65,0,0,1,2-.36,6,6,0,0,1,1.05.1,5.66,5.66,0,0,1,2.71,1.32l.37.34a5.78,5.78,0,0,1,1.53,3.16,5.62,5.62,0,0,1,2.91-.8,5.74,5.74,0,0,1,5.48,4.07,4.21,4.21,0,0,1,.12.48,5.87,5.87,0,0,1,1.52-.21,5.7,5.7,0,0,1,4.6,2.33,3.75,3.75,0,0,1,1.71-.41,3.81,3.81,0,1,1,0,7.62,3.75,3.75,0,0,1-1.71-.41,18.34,18.34,0,0,0-13,4.44,5.66,5.66,0,0,1-3.79-1.44,38,38,0,0,0-12.34,1.25,5.73,5.73,0,0,1-4.49-2.17,5.73,5.73,0,0,1-5.64,4.76,5.63,5.63,0,0,1-2.06-.39,13.6,13.6,0,0,1-21.3-3.24A15.25,15.25,0,0,0,984.79,220a5.72,5.72,0,0,0-8.9-1.7,5.72,5.72,0,0,1-5.1-3.12,5.72,5.72,0,0,1-7.85-1.32,3.81,3.81,0,0,1-5-5.33Z"/><path class="s2d-ce1_7" d="M794.36,335.52h0a1.75,1.75,0,0,1,.18-.29l0,0a2.43,2.43,0,0,1,.2-.25l0,0,.21-.22,0,0,.21-.19.08-.06.21-.15.1-.06.2-.12L796,334a1.11,1.11,0,0,1,.19-.09,1,1,0,0,1,.16-.06l.18-.07.2-.05.16,0,.25,0h.12a2.55,2.55,0,0,1,.39,0,3.82,3.82,0,0,1,1.71.41,5.17,5.17,0,0,1,.42-.51,5.7,5.7,0,0,1,3.48-1.78,5.48,5.48,0,0,1,.7,0,5.4,5.4,0,0,1,1.15.12,2.49,2.49,0,0,1,.37.09,5.72,5.72,0,0,1,8.21-3.92,10.64,10.64,0,0,1-.23-1.5c0-.19,0-.38,0-.58a9.13,9.13,0,0,1,9.13-9.13,8.93,8.93,0,0,1,2.55.37,10,10,0,0,1,.35-1.64,9.11,9.11,0,0,1,14.92-3.92c.11.1.22.2.32.31a13.67,13.67,0,0,1,9.28-3.67,13.55,13.55,0,0,1,10,4.34c.25.27.48.54.71.83a13.54,13.54,0,0,1,1.22,1.83,13.18,13.18,0,0,1,1.25,3.08c.31,0,.63-.05,1-.05a9.05,9.05,0,0,1,5.91,2.18,9.24,9.24,0,0,1,2.3,3,5.84,5.84,0,0,1,2-.35,6,6,0,0,1,1.05.09,5.66,5.66,0,0,1,2.71,1.32,4,4,0,0,1,.36.35,5.66,5.66,0,0,1,1.54,3.15,5.72,5.72,0,0,1,8.39,3.27,4.21,4.21,0,0,1,.12.48,5.68,5.68,0,0,1,6.12,2.12,3.75,3.75,0,0,1,1.71-.41,3.81,3.81,0,1,1,0,7.62,3.75,3.75,0,0,1-1.71-.41A5.74,5.74,0,0,1,890,343a5.66,5.66,0,0,1-3.24-1,5.73,5.73,0,0,1-5.1,3.13,5.67,5.67,0,0,1-3.79-1.45,5.73,5.73,0,0,1-9.83.66,5.59,5.59,0,0,1-2.51.59,5.73,5.73,0,0,1-4.49-2.17,5.73,5.73,0,0,1-5.64,4.76,5.63,5.63,0,0,1-2.06-.39A13.6,13.6,0,0,1,832,343.85a5.68,5.68,0,0,1-3.54,1.24,5.8,5.8,0,0,1-2.52-.59,5.72,5.72,0,0,1-9.82-.66,5.72,5.72,0,0,1-8.89-1.68,5.77,5.77,0,0,1-3.25,1,5.7,5.7,0,0,1-4.6-2.33,3.81,3.81,0,0,1-5-5.32Z"/><path class="s2d-ce1_8" d="M1404.39,783.87l0,0a13.81,13.81,0,0,1,.85-1.3.86.86,0,0,1,.07-.1c.29-.4.6-.79.92-1.16l.14-.16c.31-.35.63-.69,1-1l.23-.21c.32-.29.64-.58,1-.85l.34-.25c.32-.24.63-.48,1-.7l.46-.28c.31-.19.62-.38.94-.55s.4-.19.6-.29.58-.29.89-.42.49-.18.74-.27.54-.2.83-.29.59-.16.89-.23.49-.14.74-.19.75-.12,1.13-.17l.58-.08a16.8,16.8,0,0,1,1.75-.09,17.32,17.32,0,0,1,7.83,1.87,26.72,26.72,0,0,1,1.92-2.31,26.18,26.18,0,0,1,16-8.15,25.78,25.78,0,0,1,3.19-.19,25.28,25.28,0,0,1,5.25.55c.56.12,1.12.25,1.67.4a26.18,26.18,0,0,1,37.58-17.91,43,43,0,0,1-1-6.85c-.06-.88-.09-1.77-.09-2.66a41.68,41.68,0,0,1,53.4-40.08,40.81,40.81,0,0,1,1.63-7.51A41.71,41.71,0,0,1,1615,674.44c.49.47,1,.94,1.45,1.43a62.91,62.91,0,0,1,12.85-9.25,62.07,62.07,0,0,1,75.16,12.32c1.14,1.22,2.22,2.49,3.26,3.8a62.44,62.44,0,0,1,11.3,22.47,42,42,0,0,1,4.36-.23,41.41,41.41,0,0,1,27,10,41.85,41.85,0,0,1,10.5,13.55,26.08,26.08,0,0,1,9.05-1.64,26.54,26.54,0,0,1,4.83.45,25.93,25.93,0,0,1,12.39,6c.58.5,1.13,1,1.66,1.58a26.22,26.22,0,0,1,7,14.42,26.17,26.17,0,0,1,38.37,15c.21.72.4,1.45.56,2.19a26,26,0,0,1,28,9.7,17.43,17.43,0,1,1,0,31.12,26.16,26.16,0,0,1-35.91,6,26.16,26.16,0,0,1-40.68,7.69,26.18,26.18,0,0,1-44.94,3,26.1,26.1,0,0,1-32-7.23,26.1,26.1,0,0,1-35.24,20A62.23,62.23,0,0,1,1576.5,822a26.08,26.08,0,0,1-27.72,2.94,26.17,26.17,0,0,1-44.93-3,26.16,26.16,0,0,1-40.68-7.69,26.16,26.16,0,0,1-35.91-6,17.41,17.41,0,0,1-22.87-24.34Z"/><path class="s2d-ce1_9" d="M1295.45,672.65v0l.3-.47,0,0a4.23,4.23,0,0,1,.33-.41l.05-.06c.11-.12.22-.25.34-.36l.08-.07.35-.31.12-.09.35-.25.16-.1.34-.19.21-.11.32-.15.26-.09.3-.11.32-.08a2.44,2.44,0,0,1,.26-.06l.41-.07.2,0,.63,0a6.24,6.24,0,0,1,2.79.67,9,9,0,0,1,.68-.82,9.28,9.28,0,0,1,5.69-2.91,8.51,8.51,0,0,1,1.14-.07,8.85,8.85,0,0,1,1.87.2l.6.14a9.34,9.34,0,0,1,13.4-6.39,15.12,15.12,0,0,1-.37-2.44c0-.31,0-.63,0-1a14.89,14.89,0,0,1,14.89-14.89,14.61,14.61,0,0,1,4.15.6,15.76,15.76,0,0,1,.58-2.68,14.88,14.88,0,0,1,24.34-6.4c.18.16.35.33.52.51a22.38,22.38,0,0,1,4.59-3.3,22.13,22.13,0,0,1,26.8,4.39c.41.44.79.89,1.16,1.36a22.19,22.19,0,0,1,4,8c.52-.05,1-.08,1.56-.08a14.91,14.91,0,0,1,13.38,8.39,9.34,9.34,0,0,1,3.23-.58,9.74,9.74,0,0,1,1.72.15,9.4,9.4,0,0,1,4.42,2.15,8.08,8.08,0,0,1,.6.57,9.32,9.32,0,0,1,2.5,5.14,9.34,9.34,0,0,1,13.69,5.34c.07.26.14.52.2.78a9.5,9.5,0,0,1,2.47-.34,9.34,9.34,0,0,1,7.51,3.8,6.22,6.22,0,1,1,2.79,11.77,6.08,6.08,0,0,1-2.79-.67,29.84,29.84,0,0,0-21.13,7.25,9.26,9.26,0,0,1-6.19-2.36,62.44,62.44,0,0,0-20.13,2,9.32,9.32,0,0,1-7.32-3.54,9.33,9.33,0,0,1-9.2,7.76,9.43,9.43,0,0,1-3.37-.63,22.18,22.18,0,0,1-34.75-5.28,24.74,24.74,0,0,0-17.58,5.1,9.36,9.36,0,0,1-8.34-5.13,9.32,9.32,0,0,1-14.51-2.74,9.31,9.31,0,0,1-12.8-2.15,6.21,6.21,0,0,1-9-5.55A6.17,6.17,0,0,1,1295.45,672.65Z"/></svg>
