<svg id="Layer_1" data-name="Layer 1" xmlns="http://www.w3.org/2000/svg" xmlns:xlink="http://www.w3.org/1999/xlink" viewBox="0 0 2157.64 915.94"><defs><style>.s2d-g1_1{fill:#2e5f5a;}.s2d-g1_2{fill:url(#s2d-g1-lg);}.s2d-g1_3{fill:url(#s2d-g1-lg_2);}.s2d-g1_4{fill:url(#s2d-g1-lg_3);}.s2d-g1_5{fill:url(#s2d-g1-lg_4);}.s2d-g1_6{fill:url(#s2d-g1-lg_5);}.s2d-g1_7{fill:#d6a135;}.s2d-g1_8{fill:#919a51;}.s2d-g1_9{fill:url(#s2d-g1-lg_6);}.s2d-g1_10{fill:url(#s2d-g1-lg_7);}.s2d-g1_11{fill:url(#s2d-g1-lg_8);}.s2d-g1_12{fill:url(#s2d-g1-lg_9);}.s2d-g1_13{fill:url(#s2d-g1-lg_10);}.s2d-g1_14{fill:url(#s2d-g1-lg_11);}.s2d-g1_15{fill:url(#s2d-g1-lg_12);}.s2d-g1_16{fill:url(#s2d-g1-lg_13);}.s2d-g1_17{fill:url(#s2d-g1-lg_14);}.s2d-g1_18{fill:url(#s2d-g1-lg_15);}.s2d-g1_19{fill:url(#s2d-g1-lg_16);}</style><linearGradient id="s2d-g1-lg" x1="2416.63" y1="436.81" x2="2426.63" y2="341.81" gradientTransform="matrix(-1, 0, 0, 1, 2886.57, 0)" gradientUnits="userSpaceOnUse"><stop offset="0" stop-color="#3b6660" stop-opacity="0"/><stop offset="0.64" stop-color="#919a51"/></linearGradient><linearGradient id="s2d-g1-lg_2" x1="2550.4" y1="389.57" x2="2560.4" y2="294.57" xlink:href="#s2d-g1-lg"/><linearGradient id="s2d-g1-lg_3" x1="2322.85" y1="333.27" x2="2330.45" y2="261.07" xlink:href="#s2d-g1-lg"/><linearGradient id="s2d-g1-lg_4" x1="2135.66" y1="427.53" x2="2143.26" y2="355.32" xlink:href="#s2d-g1-lg"/><linearGradient id="s2d-g1-lg_5" x1="2696.4" y1="353.79" x2="2701.06" y2="309.5" xlink:href="#s2d-g1-lg"/><linearGradient id="s2d-g1-lg_6" x1="2620.82" y1="427.05" x2="2621.46" y2="391.37" gradientTransform="matrix(-1, 0, 0, 1, 2886.57, 0)" gradientUnits="userSpaceOnUse"><stop offset="0" stop-color="#3b6660" stop-opacity="0"/><stop offset="1" stop-color="#2f4f51"/></linearGradient><linearGradient id="s2d-g1-lg_7" x1="2636.58" y1="510.35" x2="2637.52" y2="458.55" xlink:href="#s2d-g1-lg_6"/><linearGradient id="s2d-g1-lg_8" x1="2485.14" y1="464.16" x2="2485.79" y2="428.48" xlink:href="#s2d-g1-lg_6"/><linearGradient id="s2d-g1-lg_9" x1="-814.34" y1="436.81" x2="-804.34" y2="341.81" gradientTransform="translate(2517.31)" xlink:href="#s2d-g1-lg"/><linearGradient id="s2d-g1-lg_10" x1="-680.57" y1="389.57" x2="-670.57" y2="294.57" gradientTransform="translate(2517.31)" xlink:href="#s2d-g1-lg"/><linearGradient id="s2d-g1-lg_11" x1="-908.12" y1="333.27" x2="-900.52" y2="261.07" gradientTransform="translate(2517.31)" xlink:href="#s2d-g1-lg"/><linearGradient id="s2d-g1-lg_12" x1="-1095.31" y1="427.53" x2="-1087.71" y2="355.32" gradientTransform="translate(2517.31)" xlink:href="#s2d-g1-lg"/><linearGradient id="s2d-g1-lg_13" x1="-534.57" y1="353.79" x2="-529.91" y2="309.5" gradientTransform="translate(2517.31)" xlink:href="#s2d-g1-lg"/><linearGradient id="s2d-g1-lg_14" x1="-610.15" y1="427.05" x2="-609.51" y2="391.37" gradientTransform="translate(2517.31)" xlink:href="#s2d-g1-lg_6"/><linearGradient id="s2d-g1-lg_15" x1="-594.39" y1="510.35" x2="-593.45" y2="458.55" gradientTransform="translate(2517.31)" xlink:href="#s2d-g1-lg_6"/><linearGradient id="s2d-g1-lg_16" x1="-745.83" y1="464.16" x2="-745.18" y2="428.48" gradientTransform="translate(2517.31)" xlink:href="#s2d-g1-lg_6"/></defs><title>33</title><path class="s2d-g1_2" d="M381.91,422.49c5.81-4.84,15.23,2.35,22-1.06,7-3.53,6.26-15.9,13.75-18.16,4.66-1.4,10.33,2.1,14.58,1,.1-6.11,1.22-11.71,5.4-15.95,1.31-1.76,6.1-5.08,12.44-5.07,17.72,0,19.31,11.6,20.67,16,4.46.33,9.32-4.49,14.26-4.12,7.81.59,9.77,12.82,17.35,14.76,7.33,1.87,15-7.18,21.68-3.71,4.52,2.34,4.94,8.7,8.33,12.49,2.81,3.16,7.31,4.14,11.53,4.49s8.58.28,12.46,2l.11.05c4.68,2.12,3.6,8.77-1,9.81H385a6.09,6.09,0,0,1-5.87-7.75A9.24,9.24,0,0,1,381.91,422.49Z"/><path class="s2d-g1_3" d="M248.14,375.26c5.8-4.84,15.22,2.34,22-1.07,7-3.53,6.26-15.9,13.76-18.16,4.66-1.4,10.32,2.1,14.57,1,.1-6.1,1.22-11.71,5.41-15.94,1.3-1.77,6.1-5.08,12.44-5.08,17.71,0,19.31,11.6,20.67,16,4.45.34,9.31-4.49,14.26-4.12,7.8.59,9.76,12.82,17.35,14.76,7.32,1.87,15-7.18,21.68-3.71,4.51,2.34,4.94,8.7,8.32,12.49,2.82,3.16,7.32,4.14,11.53,4.49s8.59.29,12.46,2l.12.05c4.68,2.12,3.59,8.77-1,9.81H251.21a6.09,6.09,0,0,1-5.88-7.75A9.26,9.26,0,0,1,248.14,375.26Z"/><path class="s2d-g1_4" d="M496.81,322.39c4.41-3.68,11.57,1.79,16.7-.8,5.31-2.69,4.75-12.09,10.45-13.81,3.54-1.07,7.85,1.6,11.08.77.07-4.64.93-8.9,4.11-12.12,1-1.34,4.63-3.86,9.45-3.86,13.47,0,14.68,8.82,15.71,12.18,3.39.25,7.09-3.42,10.84-3.13,5.94.44,7.43,9.74,13.19,11.22,5.57,1.42,11.38-5.46,16.48-2.82,3.43,1.77,3.76,6.61,6.33,9.49,2.14,2.4,5.56,3.15,8.76,3.41s6.53.22,9.47,1.51l.09,0a4,4,0,0,1-.74,7.45H499.14a4.63,4.63,0,0,1-4.46-5.89A7.1,7.1,0,0,1,496.81,322.39Z"/><path class="s2d-g1_5" d="M684,416.65c4.42-3.68,11.57,1.78,16.7-.81,5.31-2.69,4.75-12.09,10.45-13.81,3.54-1.06,7.85,1.6,11.08.77.07-4.64.93-8.9,4.11-12.12,1-1.34,4.64-3.86,9.45-3.86,13.47,0,14.68,8.82,15.72,12.18,3.38.25,7.08-3.41,10.83-3.13,5.94.44,7.43,9.74,13.19,11.22,5.57,1.42,11.38-5.46,16.48-2.82,3.43,1.77,3.76,6.61,6.33,9.49,2.14,2.4,5.56,3.15,8.76,3.42s6.53.21,9.47,1.5l.09,0a4,4,0,0,1-.74,7.45H686.34a4.63,4.63,0,0,1-4.47-5.89A7,7,0,0,1,684,416.65Z"/><path class="s2d-g1_6" d="M149.13,347.12c2.7-2.26,7.09,1.09,10.24-.5s2.92-7.41,6.41-8.46c2.17-.66,4.82,1,6.8.47,0-2.85.57-5.46,2.52-7.44a7.86,7.86,0,0,1,5.8-2.37c8.26,0,9,5.41,9.64,7.48,2.07.15,4.34-2.1,6.64-1.93,3.64.28,4.56,6,8.09,6.89s7-3.35,10.11-1.73c2.11,1.08,2.31,4.05,3.88,5.82,1.32,1.47,3.42,1.93,5.38,2.09s4,.13,5.81.93l.05,0a2.43,2.43,0,0,1-.45,4.57H150.56a2.83,2.83,0,0,1-2.74-3.61A4.27,4.27,0,0,1,149.13,347.12Z"/><path class="s2d-g1_7" d="M351.59,531.74a48.53,48.53,0,0,0-3.21-8.17,35.85,35.85,0,0,0-5.23-7.28l-3.42,3.37a31.08,31.08,0,0,1,5.24,5.92,44.94,44.94,0,0,1,3.7,7.22Z"/><path class="s2d-g1_7" d="M366.42,527.7a88.53,88.53,0,0,1-.16-17.45l-4.8-.2a93,93,0,0,0,1.89,18.13Z"/><path class="s2d-g1_7" d="M381.8,530.31a127.47,127.47,0,0,0,4.62-16.63l-4.74-.73a124.33,124.33,0,0,1-2.86,16.48Z"/><path class="s2d-g1_7" d="M220.43,728.36a49.3,49.3,0,0,0-3.21-8.16,36,36,0,0,0-5.23-7.29l-3.43,3.38a31.09,31.09,0,0,1,5.25,5.91,45,45,0,0,1,3.7,7.23Z"/><path class="s2d-g1_7" d="M235.26,724.33a89.41,89.41,0,0,1-.17-17.46l-4.8-.2a93,93,0,0,0,1.9,18.13Z"/><path class="s2d-g1_7" d="M250.64,726.94a129.06,129.06,0,0,0,4.62-16.63l-4.74-.74a125.4,125.4,0,0,1-2.86,16.48Z"/><path class="s2d-g1_8" d="M455.82,491.64a48.08,48.08,0,0,0-1.29-8.67,35.74,35.74,0,0,0-3.46-8.28L447,477.21a31.32,31.32,0,0,1,3.78,6.94,45.54,45.54,0,0,1,2,7.87Z"/><path class="s2d-g1_8" d="M471.19,491A89.25,89.25,0,0,1,474.94,474l-4.63-1.27a92.44,92.44,0,0,0-2.22,18.1Z"/><path class="s2d-g1_8" d="M485.58,497a129,129,0,0,0,8.24-15.17l-4.46-1.78a124.11,124.11,0,0,1-6.48,15.41Z"/><path class="s2d-g1_8" d="M381.31,642.84a48.08,48.08,0,0,0-1.29-8.67,35.77,35.77,0,0,0-3.47-8.28l-4.09,2.52a30.52,30.52,0,0,1,3.78,6.94,44.66,44.66,0,0,1,2,7.87Z"/><path class="s2d-g1_8" d="M396.67,642.24a88.52,88.52,0,0,1,3.76-17l-4.63-1.27a93.22,93.22,0,0,0-2.23,18.1Z"/><path class="s2d-g1_8" d="M411.07,648.24a129,129,0,0,0,8.24-15.17l-4.46-1.78a124.11,124.11,0,0,1-6.48,15.41Z"/><path class="s2d-g1_8" d="M887.55,415.91a48.19,48.19,0,0,0-1.29-8.68A35.42,35.42,0,0,0,882.8,399l-4.09,2.52a31.32,31.32,0,0,1,3.78,6.94,45.31,45.31,0,0,1,2,7.87Z"/><path class="s2d-g1_8" d="M902.92,415.3a89.15,89.15,0,0,1,3.75-17L902,397a92.43,92.43,0,0,0-2.22,18.09Z"/><path class="s2d-g1_8" d="M917.31,421.3a127.43,127.43,0,0,0,8.24-15.16l-4.46-1.79a124.25,124.25,0,0,1-6.48,15.42Z"/><path class="s2d-g1_8" d="M577.77,470.58a27.82,27.82,0,0,0-.73-4.88,20,20,0,0,0-1.95-4.66l-2.3,1.42a17.69,17.69,0,0,1,2.13,3.9,24.75,24.75,0,0,1,1.11,4.43Z"/><path class="s2d-g1_8" d="M586.41,470.24a50.18,50.18,0,0,1,2.11-9.59l-2.6-.72a51.71,51.71,0,0,0-1.25,10.18Z"/><path class="s2d-g1_8" d="M594.51,473.61a70.1,70.1,0,0,0,4.63-8.53l-2.5-1a72,72,0,0,1-3.65,8.67Z"/><path class="s2d-g1_8" d="M706.44,339.83a26.29,26.29,0,0,0-.73-4.89,20.11,20.11,0,0,0-1.94-4.65l-2.3,1.42a17.65,17.65,0,0,1,2.12,3.9,25.64,25.64,0,0,1,1.12,4.43Z"/><path class="s2d-g1_8" d="M715.08,339.49a49.86,49.86,0,0,1,2.12-9.59l-2.61-.72a52.47,52.47,0,0,0-1.25,10.18Z"/><path class="s2d-g1_8" d="M723.18,342.86a73.15,73.15,0,0,0,4.64-8.53l-2.51-1a68.46,68.46,0,0,1-3.65,8.68Z"/><path class="s2d-g1_8" d="M780.44,463.74a26.19,26.19,0,0,0-.73-4.88,20,20,0,0,0-1.94-4.66l-2.3,1.42a17.49,17.49,0,0,1,2.12,3.91,25.76,25.76,0,0,1,1.12,4.42Z"/><path class="s2d-g1_8" d="M789.08,463.4a50.2,50.2,0,0,1,2.12-9.59l-2.61-.71a52.27,52.27,0,0,0-1.25,10.17Z"/><path class="s2d-g1_8" d="M797.18,466.77a71.56,71.56,0,0,0,4.64-8.53l-2.51-1a68.33,68.33,0,0,1-3.65,8.67Z"/><path class="s2d-g1_8" d="M365.56,385.92a27,27,0,0,0-.72-4.88,20.4,20.4,0,0,0-1.95-4.65l-2.3,1.41a17.71,17.71,0,0,1,2.12,3.91,24.76,24.76,0,0,1,1.12,4.43Z"/><path class="s2d-g1_8" d="M374.21,385.58a49.43,49.43,0,0,1,2.11-9.59l-2.61-.71a53.16,53.16,0,0,0-1.25,10.18Z"/><path class="s2d-g1_8" d="M382.31,389a72.41,72.41,0,0,0,4.63-8.54l-2.51-1a69.12,69.12,0,0,1-3.64,8.67Z"/><path class="s2d-g1_8" d="M434.23,318.75a26.88,26.88,0,0,0-.72-4.88,20.47,20.47,0,0,0-1.95-4.66l-2.3,1.42a17.65,17.65,0,0,1,2.12,3.9A24.76,24.76,0,0,1,432.5,319Z"/><path class="s2d-g1_8" d="M442.88,318.41a49.43,49.43,0,0,1,2.11-9.59l-2.61-.72a53.26,53.26,0,0,0-1.25,10.18Z"/><path class="s2d-g1_8" d="M451,321.78a71.5,71.5,0,0,0,4.63-8.53l-2.51-1a70.4,70.4,0,0,1-3.64,8.67Z"/><path class="s2d-g1_8" d="M236.89,590.85a27,27,0,0,0-.73-4.88,19.61,19.61,0,0,0-1.95-4.66l-2.3,1.42a17.29,17.29,0,0,1,2.13,3.9,25.19,25.19,0,0,1,1.11,4.43Z"/><path class="s2d-g1_8" d="M245.53,590.51a51,51,0,0,1,2.11-9.59l-2.6-.71a51.52,51.52,0,0,0-1.25,10.17Z"/><path class="s2d-g1_8" d="M253.63,593.88a71.56,71.56,0,0,0,4.64-8.53l-2.51-1a69.81,69.81,0,0,1-3.65,8.67Z"/><path class="s2d-g1_8" d="M257.44,445.67a28.1,28.1,0,0,0-.73-4.88,20.4,20.4,0,0,0-1.95-4.65l-2.3,1.41a18.42,18.42,0,0,1,2.13,3.91,24.75,24.75,0,0,1,1.11,4.43Z"/><path class="s2d-g1_8" d="M266.08,445.33a50.18,50.18,0,0,1,2.11-9.59l-2.6-.71a51.62,51.62,0,0,0-1.25,10.18Z"/><path class="s2d-g1_8" d="M274.18,448.71a73.08,73.08,0,0,0,4.63-8.53l-2.51-1a69.89,69.89,0,0,1-3.64,8.68Z"/><path class="s2d-g1_7" d="M493.86,389.63a48.4,48.4,0,0,0-3-8.25,35.25,35.25,0,0,0-5-7.43l-3.51,3.27a31.51,31.51,0,0,1,5.07,6.06,45.42,45.42,0,0,1,3.49,7.33Z"/><path class="s2d-g1_7" d="M508.8,386a88.39,88.39,0,0,1,.33-17.45l-4.79-.34a92.72,92.72,0,0,0,1.38,18.18Z"/><path class="s2d-g1_7" d="M524.1,389.06a127.74,127.74,0,0,0,5.09-16.48l-4.72-.88a125.39,125.39,0,0,1-3.32,16.4Z"/><circle class="s2d-g1_1" cx="426.76" cy="424.15" r="2.49"/><circle class="s2d-g1_1" cx="596.07" cy="371.79" r="7.36"/><circle class="s2d-g1_1" cx="354.28" cy="308.1" r="5.73"/><path class="s2d-g1_9" d="M205.74,415.66c4-3.32,10.45,1.61,15.08-.73,4.8-2.42,4.29-10.91,9.44-12.46,3.2-1,7.09,1.44,10,.69.06-4.19.83-8,3.71-11,.89-1.21,4.18-3.48,8.53-3.48,12.17,0,13.26,8,14.19,11,3.06.23,6.4-3.09,9.79-2.83,5.36.4,6.71,8.8,11.91,10.13,5,1.29,10.28-4.93,14.89-2.55,3.1,1.61,3.39,6,5.71,8.58,1.93,2.17,5,2.84,7.92,3.08s5.89.2,8.55,1.36l.08,0a3.58,3.58,0,0,1-.67,6.73h-117a4.18,4.18,0,0,1-4-5.32A6.38,6.38,0,0,1,205.74,415.66Z"/><path class="s2d-g1_10" d="M162.86,493.82c5.78-4.82,15.17,2.34,21.89-1.06,7-3.52,6.24-15.85,13.71-18.1,4.64-1.4,10.29,2.09,14.53,1,.09-6.09,1.21-11.68,5.38-15.9,1.3-1.75,6.08-5.06,12.4-5,17.66,0,19.24,11.56,20.6,16,4.44.34,9.28-4.47,14.21-4.1,7.78.58,9.73,12.77,17.29,14.71,7.3,1.86,14.92-7.16,21.61-3.7,4.5,2.33,4.93,8.67,8.3,12.45,2.8,3.14,7.29,4.12,11.49,4.48s8.56.28,12.42,2l.11.05c4.66,2.11,3.59,8.74-1,9.77H165.92a6.07,6.07,0,0,1-5.86-7.73A9.2,9.2,0,0,1,162.86,493.82Z"/><path class="s2d-g1_11" d="M341.42,452.77c4-3.32,10.45,1.61,15.08-.73,4.79-2.42,4.29-10.91,9.44-12.46,3.2-1,7.09,1.44,10,.69.07-4.19.84-8,3.71-10.95.9-1.21,4.19-3.48,8.54-3.48,12.17,0,13.26,8,14.19,11,3.06.23,6.4-3.09,9.79-2.83,5.36.4,6.71,8.8,11.91,10.13,5,1.29,10.27-4.93,14.88-2.54,3.1,1.6,3.4,6,5.72,8.57,1.93,2.17,5,2.84,7.91,3.08s5.9.2,8.56,1.36l.08,0a3.58,3.58,0,0,1-.67,6.73h-117a4.18,4.18,0,0,1-4-5.32A6.35,6.35,0,0,1,341.42,452.77Z"/><path class="s2d-g1_12" d="M1791,422.49c-5.8-4.84-15.22,2.35-22-1.06-7-3.53-6.25-15.9-13.75-18.16-4.66-1.4-10.32,2.1-14.58,1-.09-6.11-1.21-11.71-5.4-15.95-1.3-1.76-6.1-5.08-12.44-5.07-17.72,0-19.31,11.6-20.67,16-4.45.33-9.31-4.49-14.26-4.12-7.81.59-9.76,12.82-17.35,14.76-7.32,1.87-15-7.18-21.68-3.71-4.51,2.34-4.94,8.7-8.32,12.49-2.82,3.16-7.32,4.14-11.53,4.49s-8.59.28-12.46,2l-.12.05c-4.68,2.12-3.59,8.77,1,9.81h170.49a6.09,6.09,0,0,0,5.88-7.75A9.32,9.32,0,0,0,1791,422.49Z"/><path class="s2d-g1_13" d="M1924.78,375.26c-5.81-4.84-15.22,2.34-22-1.07-7-3.53-6.26-15.9-13.75-18.16-4.66-1.4-10.33,2.1-14.58,1-.09-6.1-1.22-11.71-5.4-15.94-1.3-1.77-6.1-5.08-12.44-5.08-17.72,0-19.31,11.6-20.67,16-4.46.34-9.32-4.49-14.26-4.12-7.81.59-9.77,12.82-17.35,14.76-7.32,1.87-15-7.18-21.68-3.71-4.52,2.34-4.94,8.7-8.33,12.49-2.81,3.16-7.31,4.14-11.53,4.49s-8.58.29-12.46,2l-.11.05c-4.68,2.12-3.6,8.77,1,9.81h170.49a6.1,6.1,0,0,0,5.88-7.75A9.26,9.26,0,0,0,1924.78,375.26Z"/><path class="s2d-g1_14" d="M1676.1,322.39c-4.41-3.68-11.57,1.79-16.69-.8-5.31-2.69-4.76-12.09-10.46-13.81-3.54-1.07-7.84,1.6-11.08.77-.07-4.64-.92-8.9-4.1-12.12-1-1.34-4.64-3.86-9.46-3.86-13.47,0-14.68,8.82-15.71,12.18-3.38.25-7.08-3.42-10.84-3.13-5.93.44-7.42,9.74-13.19,11.22-5.56,1.42-11.37-5.46-16.47-2.82-3.44,1.77-3.76,6.61-6.33,9.49-2.14,2.4-5.56,3.15-8.76,3.41s-6.53.22-9.47,1.51l-.09,0a4,4,0,0,0,.73,7.45h129.59a4.63,4.63,0,0,0,4.47-5.89A7.05,7.05,0,0,0,1676.1,322.39Z"/><path class="s2d-g1_15" d="M1488.91,416.65c-4.41-3.68-11.57,1.78-16.69-.81-5.31-2.69-4.76-12.09-10.46-13.81-3.54-1.06-7.85,1.6-11.08.77-.07-4.64-.92-8.9-4.1-12.12-1-1.34-4.64-3.86-9.46-3.86-13.47,0-14.68,8.82-15.71,12.18-3.38.25-7.08-3.41-10.84-3.13-5.93.44-7.42,9.74-13.19,11.22-5.56,1.42-11.37-5.46-16.47-2.82-3.44,1.77-3.76,6.61-6.33,9.49-2.14,2.4-5.56,3.15-8.77,3.42s-6.52.21-9.47,1.5l-.08,0a4,4,0,0,0,.73,7.45h129.59a4.63,4.63,0,0,0,4.47-5.89A7.05,7.05,0,0,0,1488.91,416.65Z"/><path class="s2d-g1_16" d="M2023.79,347.12c-2.71-2.26-7.1,1.09-10.24-.5s-2.92-7.41-6.42-8.46c-2.17-.66-4.81,1-6.79.47,0-2.85-.57-5.46-2.52-7.44a7.9,7.9,0,0,0-5.8-2.37c-8.26,0-9,5.41-9.64,7.48-2.08.15-4.34-2.1-6.65-1.93-3.64.28-4.55,6-8.09,6.89s-7-3.35-10.11-1.73c-2.1,1.08-2.3,4.05-3.88,5.82-1.31,1.47-3.41,1.93-5.37,2.09s-4,.13-5.81.93l-.06,0a2.44,2.44,0,0,0,.45,4.57h79.5a2.84,2.84,0,0,0,2.74-3.61A4.34,4.34,0,0,0,2023.79,347.12Z"/><path class="s2d-g1_7" d="M1821.33,531.74a47.7,47.7,0,0,1,3.21-8.17,35.47,35.47,0,0,1,5.23-7.28l3.42,3.37a30.74,30.74,0,0,0-5.24,5.92,43.37,43.37,0,0,0-3.7,7.22Z"/><path class="s2d-g1_7" d="M1806.49,527.7a89.31,89.31,0,0,0,.17-17.45l4.8-.2a93,93,0,0,1-1.9,18.13Z"/><path class="s2d-g1_7" d="M1791.12,530.31a127.5,127.5,0,0,1-4.63-16.63l4.75-.73a124.3,124.3,0,0,0,2.85,16.48Z"/><path class="s2d-g1_7" d="M1952.49,728.36a47.61,47.61,0,0,1,3.21-8.16,35.64,35.64,0,0,1,5.23-7.29l3.42,3.38a31,31,0,0,0-5.24,5.91,45,45,0,0,0-3.7,7.23Z"/><path class="s2d-g1_7" d="M1937.65,724.33a88.63,88.63,0,0,0,.17-17.46l4.8-.2a92.28,92.28,0,0,1-1.9,18.13Z"/><path class="s2d-g1_7" d="M1922.28,726.94a127.5,127.5,0,0,1-4.63-16.63l4.75-.74a122.18,122.18,0,0,0,2.86,16.48Z"/><path class="s2d-g1_8" d="M1717.09,491.64a48.11,48.11,0,0,1,1.3-8.67,35.31,35.31,0,0,1,3.46-8.28l4.09,2.52a31.32,31.32,0,0,0-3.78,6.94,44.65,44.65,0,0,0-2,7.87Z"/><path class="s2d-g1_8" d="M1701.73,491A89.25,89.25,0,0,0,1698,474l4.63-1.27a93.21,93.21,0,0,1,2.22,18.1Z"/><path class="s2d-g1_8" d="M1687.33,497a129,129,0,0,1-8.24-15.17l4.46-1.78A122.67,122.67,0,0,0,1690,495.5Z"/><path class="s2d-g1_8" d="M1791.61,642.84a48.08,48.08,0,0,1,1.29-8.67,35.31,35.31,0,0,1,3.46-8.28l4.09,2.52a31.32,31.32,0,0,0-3.78,6.94,45.54,45.54,0,0,0-2,7.87Z"/><path class="s2d-g1_8" d="M1776.24,642.24a89.25,89.25,0,0,0-3.75-17l4.63-1.27a93.21,93.21,0,0,1,2.22,18.1Z"/><path class="s2d-g1_8" d="M1761.84,648.24a129,129,0,0,1-8.24-15.17l4.46-1.78a124.17,124.17,0,0,0,6.49,15.41Z"/><path class="s2d-g1_8" d="M1285.36,415.91a48.22,48.22,0,0,1,1.3-8.68,35.42,35.42,0,0,1,3.46-8.27l4.09,2.52a30.92,30.92,0,0,0-3.78,6.94,44.43,44.43,0,0,0-2,7.87Z"/><path class="s2d-g1_8" d="M1270,415.3a88.42,88.42,0,0,0-3.76-17l4.64-1.27a93.2,93.2,0,0,1,2.22,18.09Z"/><path class="s2d-g1_8" d="M1255.6,421.3a128.88,128.88,0,0,1-8.24-15.16l4.46-1.79a124.25,124.25,0,0,0,6.48,15.42Z"/><path class="s2d-g1_8" d="M1595.15,470.58a26.06,26.06,0,0,1,.73-4.88,20,20,0,0,1,1.94-4.66l2.3,1.42a17.65,17.65,0,0,0-2.12,3.9,25.64,25.64,0,0,0-1.12,4.43Z"/><path class="s2d-g1_8" d="M1586.51,470.24a50.2,50.2,0,0,0-2.12-9.59l2.61-.72a52.47,52.47,0,0,1,1.25,10.18Z"/><path class="s2d-g1_8" d="M1578.41,473.61a71.56,71.56,0,0,1-4.64-8.53l2.51-1a69,69,0,0,0,3.65,8.67Z"/><path class="s2d-g1_8" d="M1466.47,339.83a28.07,28.07,0,0,1,.73-4.89,20.14,20.14,0,0,1,2-4.65l2.3,1.42a17.69,17.69,0,0,0-2.13,3.9,24.75,24.75,0,0,0-1.11,4.43Z"/><path class="s2d-g1_8" d="M1457.83,339.49a49.85,49.85,0,0,0-2.11-9.59l2.6-.72a51.71,51.71,0,0,1,1.25,10.18Z"/><path class="s2d-g1_8" d="M1449.73,342.86a71.62,71.62,0,0,1-4.63-8.53l2.5-1a71.5,71.5,0,0,0,3.65,8.68Z"/><path class="s2d-g1_8" d="M1392.47,463.74a28,28,0,0,1,.73-4.88,20,20,0,0,1,2-4.66l2.3,1.42a17.54,17.54,0,0,0-2.13,3.91,24.86,24.86,0,0,0-1.11,4.42Z"/><path class="s2d-g1_8" d="M1383.83,463.4a50.18,50.18,0,0,0-2.11-9.59l2.6-.71a51.52,51.52,0,0,1,1.25,10.17Z"/><path class="s2d-g1_8" d="M1375.73,466.77a70.1,70.1,0,0,1-4.63-8.53l2.5-1a71.37,71.37,0,0,0,3.65,8.67Z"/><path class="s2d-g1_8" d="M1807.35,385.92a27,27,0,0,1,.73-4.88,19.54,19.54,0,0,1,2-4.65l2.3,1.41a17.35,17.35,0,0,0-2.13,3.91,24.75,24.75,0,0,0-1.11,4.43Z"/><path class="s2d-g1_8" d="M1798.71,385.58a51,51,0,0,0-2.11-9.59l2.6-.71a51.62,51.62,0,0,1,1.25,10.18Z"/><path class="s2d-g1_8" d="M1790.61,389a72.48,72.48,0,0,1-4.64-8.54l2.51-1a70.71,70.71,0,0,0,3.65,8.67Z"/><path class="s2d-g1_8" d="M1738.68,318.75a26.91,26.91,0,0,1,.73-4.88,19.61,19.61,0,0,1,1.95-4.66l2.3,1.42a17.29,17.29,0,0,0-2.13,3.9,24.75,24.75,0,0,0-1.11,4.43Z"/><path class="s2d-g1_8" d="M1730,318.41a51,51,0,0,0-2.11-9.59l2.6-.72a51.71,51.71,0,0,1,1.25,10.18Z"/><path class="s2d-g1_8" d="M1721.94,321.78a71.56,71.56,0,0,1-4.64-8.53l2.51-1a72,72,0,0,0,3.65,8.67Z"/><path class="s2d-g1_8" d="M1936,590.85a27,27,0,0,1,.72-4.88,20.47,20.47,0,0,1,2-4.66l2.3,1.42a17.65,17.65,0,0,0-2.12,3.9,25.2,25.2,0,0,0-1.12,4.43Z"/><path class="s2d-g1_8" d="M1927.38,590.51a49.43,49.43,0,0,0-2.11-9.59l2.61-.71a53.06,53.06,0,0,1,1.25,10.17Z"/><path class="s2d-g1_8" d="M1919.28,593.88a71.5,71.5,0,0,1-4.63-8.53l2.51-1a69.75,69.75,0,0,0,3.64,8.67Z"/><path class="s2d-g1_8" d="M1915.48,445.67a26.31,26.31,0,0,1,.73-4.88,19.93,19.93,0,0,1,1.94-4.65l2.31,1.41a17.57,17.57,0,0,0-2.13,3.91,25.64,25.64,0,0,0-1.12,4.43Z"/><path class="s2d-g1_8" d="M1906.84,445.33a50.2,50.2,0,0,0-2.12-9.59l2.61-.71a51.62,51.62,0,0,1,1.25,10.18Z"/><path class="s2d-g1_8" d="M1898.74,448.71a73.15,73.15,0,0,1-4.64-8.53l2.51-1a70,70,0,0,0,3.65,8.68Z"/><path class="s2d-g1_7" d="M1679.06,389.63a47.51,47.51,0,0,1,3-8.25,35.63,35.63,0,0,1,5-7.43l3.52,3.27a31.15,31.15,0,0,0-5.07,6.06,44.6,44.6,0,0,0-3.49,7.33Z"/><path class="s2d-g1_7" d="M1664.11,386a88.39,88.39,0,0,0-.33-17.45l4.8-.34a93.5,93.5,0,0,1-1.38,18.18Z"/><path class="s2d-g1_7" d="M1648.82,389.06a127.78,127.78,0,0,1-5.1-16.48l4.72-.88a125.42,125.42,0,0,0,3.33,16.4Z"/><circle class="s2d-g1_1" cx="1746.15" cy="424.15" r="2.49"/><circle class="s2d-g1_1" cx="1576.85" cy="371.79" r="7.36"/><circle class="s2d-g1_1" cx="1818.64" cy="308.1" r="5.73"/><path class="s2d-g1_17" d="M1967.18,415.66c-4-3.32-10.45,1.61-15.08-.73-4.8-2.42-4.3-10.91-9.44-12.46-3.2-1-7.09,1.44-10,.69-.07-4.19-.84-8-3.71-11-.89-1.21-4.19-3.48-8.54-3.48-12.16,0-13.26,8-14.19,11-3.06.23-6.39-3.09-9.79-2.83-5.36.4-6.7,8.8-11.91,10.13-5,1.29-10.27-4.93-14.88-2.55-3.1,1.61-3.39,6-5.72,8.58-1.93,2.17-5,2.84-7.91,3.08s-5.9.2-8.55,1.36l-.08,0a3.58,3.58,0,0,0,.66,6.73h117a4.18,4.18,0,0,0,4-5.32A6.29,6.29,0,0,0,1967.18,415.66Z"/><path class="s2d-g1_18" d="M2010.06,493.82c-5.79-4.82-15.17,2.34-21.9-1.06-7-3.52-6.23-15.85-13.7-18.1-4.65-1.4-10.29,2.09-14.53,1-.09-6.09-1.21-11.68-5.39-15.9-1.29-1.75-6.07-5.06-12.39-5-17.66,0-19.25,11.56-20.6,16-4.44.34-9.29-4.47-14.22-4.1-7.78.58-9.73,12.77-17.29,14.71-7.3,1.86-14.91-7.16-21.6-3.7-4.51,2.33-4.93,8.67-8.3,12.45-2.81,3.14-7.29,4.12-11.49,4.48s-8.56.28-12.42,2l-.12.05c-4.66,2.11-3.58,8.74,1,9.77H2007a6.08,6.08,0,0,0,5.86-7.73A9.33,9.33,0,0,0,2010.06,493.82Z"/><path class="s2d-g1_19" d="M1831.5,452.77c-4-3.32-10.45,1.61-15.08-.73-4.8-2.42-4.3-10.91-9.44-12.46-3.2-1-7.09,1.44-10,.69-.06-4.19-.84-8-3.71-10.95-.89-1.21-4.19-3.48-8.54-3.48-12.16,0-13.25,8-14.19,11-3,.23-6.39-3.09-9.79-2.83-5.36.4-6.7,8.8-11.91,10.13-5,1.29-10.27-4.93-14.88-2.54-3.1,1.6-3.39,6-5.71,8.57-1.94,2.17-5,2.84-7.92,3.08s-5.89.2-8.55,1.36l-.08,0a3.59,3.59,0,0,0,.66,6.73h117a4.18,4.18,0,0,0,4-5.32A6.42,6.42,0,0,0,1831.5,452.77Z"/></svg>
