<svg id="Layer_1" data-name="Layer 1" xmlns="http://www.w3.org/2000/svg" xmlns:xlink="http://www.w3.org/1999/xlink" viewBox="0 0 1372.62 1071.95"><defs><style>.s2d-grass-1_1{fill:#357d74;}.s2d-grass-1_2{fill:url(#s2d-grass-1-lg);}.s2d-grass-1_3{fill:url(#s2d-grass-1-lg_2);}</style><linearGradient id="s2d-grass-1-lg" x1="907.71" y1="700.31" x2="907.71" y2="394.28" gradientTransform="matrix(-1, 0, 0, 1, 1592.08, 38.73)" gradientUnits="userSpaceOnUse"><stop offset="0" stop-color="#3b6660" stop-opacity="0"/><stop offset="1" stop-color="#2f4f51"/></linearGradient><linearGradient id="s2d-grass-1-lg_2" x1="557.85" y1="775.47" x2="557.85" y2="565.24" xlink:href="#s2d-grass-1-lg"/></defs><title>15</title><rect class="s2d-grass-1_1" x="-24.11" width="2900.71" height="1369.93"/><path class="s2d-grass-1_2" d="M207.26,597.52c31.73-26.41,83.14,12.89,120-5.7,38.19-19.27,34.25-86.84,75.21-99.15,25.47-7.65,56.4,11.51,79.63,5.58.55-33.36,6.71-64,29.59-87.09,7.12-9.63,33.34-27.72,68-27.67,96.79.13,105.44,63.47,112.84,87.62,24.33,1.84,50.92-24.5,77.92-22.45,42.65,3.24,53.29,70.09,94.72,80.71,40,10.26,81.78-39.15,118.44-20.16,24.66,12.78,27,47.53,45.44,68.28,15.36,17.24,39.94,22.63,63,24.58s46.91,1.57,68.06,10.86l.63.28c25.55,11.59,19.61,47.91-5.33,53.57L224,666c-22.09,0-38.22-21.17-32.07-42.38C194.83,613.49,199.11,604.29,207.26,597.52Z"/><path class="s2d-grass-1_3" d="M777.05,690.73c17.08-14.23,44.77,6.94,64.61-3.07,20.56-10.38,18.44-46.76,40.5-53.39,13.71-4.12,30.36,6.2,42.87,3,.29-18,3.61-34.45,15.94-46.9,3.83-5.18,17.95-14.92,36.59-14.89,52.12.07,56.78,34.17,60.76,47.18,13.1,1,27.42-13.2,42-12.09,23,1.74,28.7,37.73,51,43.46,21.53,5.52,44-21.09,63.77-10.86,13.27,6.88,14.51,25.59,24.46,36.76,8.27,9.29,21.5,12.18,33.9,13.23s25.25.85,36.64,5.85l.34.16c13.76,6.24,10.56,25.79-2.87,28.84l-501.47-.42a17.92,17.92,0,0,1-17.27-22.82C770.36,699.33,772.66,694.37,777.05,690.73Z"/></svg>
