<svg id="Layer_1" data-name="Layer 1" xmlns="http://www.w3.org/2000/svg" xmlns:xlink="http://www.w3.org/1999/xlink" viewBox="0 0 1372.62 1071.95"><defs><style>.cls-1{fill:#357d74;}.cls-2{fill:url(#linear-gradient);}.cls-3{fill:url(#linear-gradient-2);}</style><linearGradient id="linear-gradient" x1="907.71" y1="700.31" x2="907.71" y2="394.28" gradientTransform="matrix(1, 0, 0, 1, -102.22, 38.73)" gradientUnits="userSpaceOnUse"><stop offset="0" stop-color="#3b6660" stop-opacity="0"/><stop offset="1" stop-color="#2f4f51"/></linearGradient><linearGradient id="linear-gradient-2" x1="557.85" y1="775.47" x2="557.85" y2="565.24" xlink:href="#linear-gradient"/></defs><title>14</title><rect class="cls-1" x="-24.11" width="2900.71" height="1369.93"/><path class="cls-2" d="M1282.6,597.52c-31.74-26.41-83.15,12.89-120-5.7-38.18-19.27-34.25-86.84-75.21-99.15-25.46-7.65-56.39,11.51-79.63,5.58-.54-33.36-6.7-64-29.59-87.09-7.12-9.63-33.34-27.72-68-27.67-96.79.13-105.44,63.47-112.85,87.62-24.33,1.84-50.91-24.5-77.92-22.45-42.64,3.24-53.29,70.09-94.72,80.71-40,10.26-81.78-39.15-118.44-20.16-24.66,12.78-27,47.53-45.43,68.28-15.36,17.24-39.94,22.63-63,24.58s-46.91,1.57-68.05,10.86l-.64.28c-25.55,11.59-19.61,47.91,5.34,53.57l931.37-.77c22.09,0,38.21-21.17,32.07-42.38C1295,613.49,1290.74,604.29,1282.6,597.52Z"/><path class="cls-3" d="M712.81,690.73c-17.09-14.23-44.77,6.94-64.62-3.07-20.56-10.38-18.44-46.76-40.49-53.39-13.71-4.12-30.37,6.2-42.88,3-.29-18-3.61-34.45-15.93-46.9-3.83-5.18-17.95-14.92-36.6-14.89-52.11.07-56.77,34.17-60.76,47.18-13.1,1-27.41-13.2-41.95-12.09-23,1.74-28.69,37.73-51,43.46-21.53,5.52-44-21.09-63.77-10.86-13.28,6.88-14.52,25.59-24.46,36.76-8.28,9.29-21.51,12.18-33.9,13.23s-25.26.85-36.64,5.85l-.34.16c-13.76,6.24-10.56,25.79,2.87,28.84l501.47-.42a17.92,17.92,0,0,0,17.27-22.82C719.5,699.33,717.19,694.37,712.81,690.73Z"/></svg>